0
SECTION
2
HEADER
9
$INSUNITS
70
4
9
$ACADVER
1
AC1014
9
$HANDSEED
5
FFFF
0
ENDSEC
0
SECTION
2
TABLES
0
TABLE
2
VPORT
5
8
100
AcDbSymbolTable
0
ENDTAB
0
TABLE
2
LTYPE
5
5
100
AcDbSymbolTable
0
LTYPE
5
14
100
AcDbSymbolTableRecord
100
AcDbLinetypeTableRecord
2
BYBLOCK
70
0
0
LTYPE
5
15
100
AcDbSymbolTableRecord
100
AcDbLinetypeTableRecord
2
BYLAYER
70
0
0
ENDTAB
0
TABLE
2
LAYER
5
2
100
AcDbSymbolTable
70
2
0
LAYER
5
50
100
AcDbSymbolTableRecord
100
AcDbLayerTableRecord
2
0
70
0
6
CONTINUOUS
0
ENDTAB
0
TABLE
2
STYLE
5
3
100
AcDbSymbolTable
70
1
0
STYLE
5
11
100
AcDbSymbolTableRecord
100
AcDbTextStyleTableRecord
2
STANDARD
70
0
0
ENDTAB
0
TABLE
2
VIEW
5
6
100
AcDbSymbolTable
70
0
0
ENDTAB
0
TABLE
2
UCS
5
7
100
AcDbSymbolTable
70
0
0
ENDTAB
0
TABLE
2
APPID
5
9
100
AcDbSymbolTable
70
2
0
APPID
5
12
100
AcDbSymbolTableRecord
100
AcDbRegAppTableRecord
2
ACAD
70
0
0
ENDTAB
0
TABLE
2
DIMSTYLE
5
A
100
AcDbSymbolTable
70
1
0
ENDTAB
0
TABLE
2
BLOCK_RECORD
5
1
100
AcDbSymbolTable
70
1
0
BLOCK_RECORD
5
1F
100
AcDbSymbolTableRecord
100
AcDbBlockTableRecord
2
*MODEL_SPACE
0
BLOCK_RECORD
5
1B
100
AcDbSymbolTableRecord
100
AcDbBlockTableRecord
2
*PAPER_SPACE
0
ENDTAB
0
ENDSEC
0
SECTION
2
BLOCKS
0
BLOCK
5
20
100
AcDbEntity
100
AcDbBlockBegin
2
*MODEL_SPACE
0
ENDBLK
5
21
100
AcDbEntity
100
AcDbBlockEnd
0
BLOCK
5
1C
100
AcDbEntity
100
AcDbBlockBegin
2
*PAPER_SPACE
0
ENDBLK
5
1D
100
AcDbEntity
100
AcDbBlockEnd
0
ENDSEC
0
SECTION
2
ENTITIES
0
CIRCLE
5
100
100
AcDbEntity
8
0
100
AcDbCircle
10
-16.804383613751703
20
265.96289072329421
30
0
40
1.4999999999999838
210
0
220
-0
230
1
0
CIRCLE
5
101
100
AcDbEntity
8
0
100
AcDbCircle
10
-67.804383613752151
20
44.96289072329624
30
0
40
1.4999999999999838
210
0
220
-0
230
1
0
CIRCLE
5
102
100
AcDbEntity
8
0
100
AcDbCircle
10
-15.804383613753323
20
19.962890723294464
30
0
40
1.4999999999999838
210
0
220
-0
230
1
0
CIRCLE
5
103
100
AcDbEntity
8
0
100
AcDbCircle
10
-16.804383613751561
20
76.962889864647252
30
0
40
1.4999999999999838
210
0
220
-0
230
1
0
CIRCLE
5
104
100
AcDbEntity
8
0
100
AcDbCircle
10
-66.804383613751355
20
265.96289072329597
30
0
40
1.4999999999999838
210
0
220
-0
230
1
0
CIRCLE
5
105
100
AcDbEntity
8
0
100
AcDbCircle
10
-67.804383613752918
20
19.962890723296276
30
0
40
1.4999999999999838
210
0
220
-0
230
1
0
CIRCLE
5
106
100
AcDbEntity
8
0
100
AcDbCircle
10
-16.804383613751952
20
64.962889864647309
30
0
40
2.7499999999999822
210
0
220
-0
230
1
0
LWPOLYLINE
5
107
100
AcDbEntity
8
0
100
AcDbPolyline
90
4
70
1
43
0.0
10
-61.80438335615694
20
82.962890723295843
10
-61.804383613751419
20
70.96289072329597
10
-21.804383613751703
20
70.962889864647437
10
-21.804383356157192
20
82.962889864647337
0
CIRCLE
5
108
100
AcDbEntity
8
0
100
AcDbCircle
10
-66.804383613751128
20
76.962890723296198
30
0
40
1.4999999999999838
210
0
220
-0
230
1
0
CIRCLE
5
109
100
AcDbEntity
8
0
100
AcDbCircle
10
-15.804383613752577
20
44.962890723294429
30
0
40
1.4999999999999838
210
0
220
-0
230
1
0
CIRCLE
5
110
100
AcDbEntity
8
0
100
AcDbCircle
10
-40.904383613752486
20
244.31289041355953
30
0
40
1.4999934339541789
210
0
220
-0
230
1
0
CIRCLE
5
111
100
AcDbEntity
8
0
100
AcDbCircle
10
-41.804383613751597
20
93.312890444061168
30
0
40
1.9999999999999905
210
0
220
-0
230
1
0
CIRCLE
5
112
100
AcDbEntity
8
0
100
AcDbCircle
10
-40.904383613750497
20
102.31289044406108
30
0
40
1.4999999999999838
210
0
220
-0
230
1
0
CIRCLE
5
113
100
AcDbEntity
8
0
100
AcDbCircle
10
3.6096163862475095
20
51.602890723293768
30
0
40
1.5000000000000193
210
0
220
-0
230
1
0
LWPOLYLINE
5
114
100
AcDbEntity
8
0
100
AcDbPolyline
90
6
70
1
43
0.0
10
-51.954383613752491
20
242.72517717328842
10
-49.204383613752469
20
241.13746393301687
10
-46.454383613752519
20
242.72517717328827
10
-46.454383613752377
20
245.90060365383124
10
-49.204383613752434
20
247.48831689410278
10
-51.95438361375242
20
245.90060365383135
0
CIRCLE
5
115
100
AcDbEntity
8
0
100
AcDbCircle
10
-41.804383613751632
20
253.31289041355956
30
0
40
1.9999999999999905
210
0
220
-0
230
1
0
LWPOLYLINE
5
116
100
AcDbEntity
8
0
100
AcDbPolyline
90
6
70
1
43
0.0
10
-49.204383613750373
20
105.48831692460433
10
-51.954383613750394
20
103.90060368433289
10
-51.95438361375043
20
100.72517720378998
10
-49.204383613750586
20
99.137463963518456
10
-46.454383613750565
20
100.72517720378985
10
-46.454383613750458
20
103.90060368433281
0
CIRCLE
5
117
100
AcDbEntity
8
0
100
AcDbCircle
10
42.979616386246029
20
14.77289072329242
30
0
40
1.5000000000000193
210
0
220
-0
230
1
0
LWPOLYLINE
5
118
100
AcDbEntity
8
0
100
AcDbPolyline
90
13
70
1
43
0.0
10
44.535616386245955
20
10.962890723292391
10
-72.804383613753345
20
10.962890723296468
10
-72.80438361374469
20
270.96289072329614
10
-58.804383613751227
20
270.96289072329563
10
-58.804383613751625
20
260.96289072329569
10
-24.804383613751785
20
260.96289072329449
10
-24.80438361375143
20
270.96289072329449
10
-10.804383613745262
20
270.96289072329404
10
-10.804383613752087
20
61.698890723294213
42
0.41421356237310236
10
-6.804383613752254
20
57.698890723294134
10
44.535616386247447
20
57.698890723292322
42
-0.4142135623730977
10
46.535616386247341
20
55.698890723292266
10
46.535616386245977
20
12.962890723292206
42
-0.41421356237310675
0
LWPOLYLINE
5
119
100
AcDbEntity
8
0
100
AcDbPolyline
90
22
70
1
43
0.0
10
4.7208164647714614
20
174.71553426523442
42
-0.24029879429793519
10
5.9594809510096596
20
177.14405175703092
10
16.372369113175292
20
184.69622701737239
42
-0.15817119510072414
10
18.720816464906854
20
185.45820369483991
10
19.973213113282934
20
185.45820369479756
42
-0.35538313884148492
10
29.763931522835069
20
177.49335307954451
10
33.896430000101496
20
157.61268524088018
42
-0.10283352744435481
10
33.896430000101496
20
151.30372214816464
10
29.763931522835037
20
131.42305430950034
42
-0.35538313884148248
10
19.97321311328286
20
123.45820369424729
10
18.720816464771438
20
123.4582036945224
42
-0.15817119504890881
10
16.372369113361618
20
124.2201803719294
10
5.9594809509972961
20
131.77235563205983
42
-0.24029879429659248
10
4.7208164647714161
20
134.20087312384737
10
4.7208164647714153
20
134.72877012331995
42
-0.26932940000176725
10
6.2342143709545468
20
137.33453569502041
10
18.720816464771499
20
144.45820369452244
10
28.108316464771548
20
144.45820369452241
10
28.108316464771576
20
164.45820369452247
10
18.72081646477152
20
164.45820369452241
10
6.2342143709545592
20
171.58187169402456
42
-0.26932940000175914
10
4.7208164647714499
20
174.18763726572496
0
CIRCLE
5
120
100
AcDbEntity
8
0
100
AcDbCircle
10
18.72081646477152
20
181.45820369452247
30
0
40
1.6000000000000079
210
-0
220
0
230
1
0
CIRCLE
5
121
100
AcDbEntity
8
0
100
AcDbCircle
10
18.72081646477146
20
127.45820369452241
30
0
40
1.6000000000000079
210
-0
220
0
230
1
0
CIRCLE
5
122
100
AcDbEntity
8
0
100
AcDbCircle
10
19.84868737215875
20
68.394922401136711
30
0
40
1.650000000000031
210
0
220
-0
230
1
0
CIRCLE
5
123
100
AcDbEntity
8
0
100
AcDbCircle
10
19.848687372155847
20
106.39492240113596
30
0
40
1.6500000000000221
210
0
220
-0
230
1
0
LWPOLYLINE
5
124
100
AcDbEntity
8
0
100
AcDbPolyline
90
8
70
1
43
0.0
10
10.383828452468748
20
104.62237428000519
42
-0.71554665300328713
10
29.313546291843366
20
104.62237428000614
10
34.628278920927308
20
92.065433470766123
42
-0.15424617145531341
10
34.628278920928096
20
82.72441133150906
10
29.31354629184581
20
70.167470522267507
42
-0.7155466530032808
10
10.383828452471311
20
70.167470522266342
10
5.069095823387352
20
82.724411331506587
42
-0.15424617145531352
10
5.0690958233865775
20
92.065433470763637
0
ENDSEC
0
SECTION
2
OBJECTS
0
DICTIONARY
5
C
100
AcDbDictionary
3
ACAD_GROUP
350
D
3
ACAD_MLINESTYLE
350
17
0
DICTIONARY
5
D
100
AcDbDictionary
0
DICTIONARY
5
1A
330
C
100
AcDbDictionary
0
DICTIONARY
5
17
100
AcDbDictionary
0
ENDSEC
0
EOF
