<svg id="_0" data-name="0" xmlns="http://www.w3.org/2000/svg" viewBox="0 0 459.64 683.97"><defs><style>.cls-1{fill:none;stroke:red;stroke-linecap:round;stroke-linejoin:round;stroke-width:0.07px;}</style></defs><title>syringe frame</title><g id="CIRCLE"><path class="cls-1" d="M33.66,389.87a21.26,21.26,0,1,1,21.26,21.26,21.26,21.26,0,0,1-21.26-21.26Z" transform="translate(0.04 -0.03)"/></g><g id="CIRCLE-2" data-name="CIRCLE"><path class="cls-1" d="M36.92,460.74a18,18,0,1,1,18,18,18,18,0,0,1-18-18Z" transform="translate(0.04 -0.03)"/></g><g id="CIRCLE-3" data-name="CIRCLE"><path class="cls-1" d="M21.54,460.74a5.67,5.67,0,1,1,5.67,5.67,5.67,5.67,0,0,1-5.67-5.67Z" transform="translate(0.04 -0.03)"/></g><g id="CIRCLE-4" data-name="CIRCLE"><path class="cls-1" d="M15.24,389.87a5.67,5.67,0,1,1,5.67,5.67,5.67,5.67,0,0,1-5.67-5.67Z" transform="translate(0.04 -0.03)"/></g><g id="CIRCLE-5" data-name="CIRCLE"><path class="cls-1" d="M77,460.74a5.67,5.67,0,1,1,5.67,5.67A5.67,5.67,0,0,1,77,460.74Z" transform="translate(0.04 -0.03)"/></g><g id="CIRCLE-6" data-name="CIRCLE"><path class="cls-1" d="M83.27,389.87a5.67,5.67,0,1,1,5.67,5.67,5.67,5.67,0,0,1-5.67-5.67Z" transform="translate(0.04 -0.03)"/></g><g id="LINE"><line class="cls-1" x1="77.64" y1="310.47" x2="77.64" y2="263.73"/></g><g id="ARC"><path class="cls-1" d="M71.93,316.17a5.67,5.67,0,0,0,5.67-5.67" transform="translate(0.04 -0.03)"/></g><g id="LINE-2" data-name="LINE"><line class="cls-1" x1="37.95" y1="316.14" x2="71.97" y2="316.14"/></g><g id="ARC-2" data-name="ARC"><path class="cls-1" d="M96.73,290.62A41.81,41.81,0,0,0,84.9,260.8" transform="translate(0.04 -0.03)"/></g><g id="ARC-3" data-name="ARC"><path class="cls-1" d="M84.9,260.8a4.25,4.25,0,0,0-7.3,3" transform="translate(0.04 -0.03)"/></g><g id="LINE-3" data-name="LINE"><line class="cls-1" x1="96.77" y1="484.51" x2="96.77" y2="407.42"/></g><g id="LINE-4" data-name="LINE"><line class="cls-1" x1="32.28" y1="310.47" x2="32.28" y2="263.73"/></g><g id="ARC-4" data-name="ARC"><path class="cls-1" d="M32.25,310.5a5.67,5.67,0,0,0,5.67,5.67" transform="translate(0.04 -0.03)"/></g><g id="ARC-5" data-name="ARC"><path class="cls-1" d="M24.95,260.8a41.81,41.81,0,0,0-11.83,29.81" transform="translate(0.04 -0.03)"/></g><g id="ARC-6" data-name="ARC"><path class="cls-1" d="M32.25,263.77a4.25,4.25,0,0,0-7.3-3" transform="translate(0.04 -0.03)"/></g><g id="LINE-5" data-name="LINE"><line class="cls-1" x1="13.15" y1="460.7" x2="13.15" y2="407.42"/></g><g id="ARC-7" data-name="ARC"><path class="cls-1" d="M13.12,372.29a45.35,45.35,0,0,0,0,35.17" transform="translate(0.04 -0.03)"/></g><g id="ARC-8" data-name="ARC"><path class="cls-1" d="M96.73,407.46a45.35,45.35,0,0,0,0-35.17" transform="translate(0.04 -0.03)"/></g><g id="LINE-6" data-name="LINE"><line class="cls-1" x1="96.77" y1="372.25" x2="96.77" y2="290.58"/></g><g id="LINE-7" data-name="LINE"><line class="cls-1" x1="13.15" y1="290.58" x2="13.15" y2="372.25"/></g><g id="ARC-9" data-name="ARC"><path class="cls-1" d="M13.12,460.74a41.81,41.81,0,1,0,83.61,0" transform="translate(0.04 -0.03)"/></g><g id="CIRCLE-7" data-name="CIRCLE"><path class="cls-1" d="M168.73,593.26a31.89,31.89,0,1,1,31.89,31.89,31.89,31.89,0,0,1-31.89-31.89Z" transform="translate(0.04 -0.03)"/></g><g id="CIRCLE-8" data-name="CIRCLE"><path class="cls-1" d="M238.89,549.23a5.67,5.67,0,1,1,5.67,5.67,5.67,5.67,0,0,1-5.67-5.67Z" transform="translate(0.04 -0.03)"/></g><g id="CIRCLE-9" data-name="CIRCLE"><path class="cls-1" d="M151,549.32a5.67,5.67,0,1,1,5.67,5.67,5.67,5.67,0,0,1-5.67-5.67Z" transform="translate(0.04 -0.03)"/></g><g id="CIRCLE-10" data-name="CIRCLE"><path class="cls-1" d="M238.89,637.1a5.67,5.67,0,1,1,5.67,5.67,5.67,5.67,0,0,1-5.67-5.67Z" transform="translate(0.04 -0.03)"/></g><g id="CIRCLE-11" data-name="CIRCLE"><path class="cls-1" d="M151,637.19a5.67,5.67,0,1,1,5.67,5.67,5.67,5.67,0,0,1-5.67-5.67Z" transform="translate(0.04 -0.03)"/></g><g id="ARC-10" data-name="ARC"><path class="cls-1" d="M33.35,635.07a41.81,41.81,0,0,0,.06-83.62h-.06" transform="translate(0.04 -0.03)"/></g><g id="LINE-8" data-name="LINE"><line class="cls-1" x1="5.71" y1="635.03" x2="33.39" y2="635.03"/></g><g id="ARC-11" data-name="ARC"><path class="cls-1" d="M5.67,635.07A5.67,5.67,0,0,0,0,640.74" transform="translate(0.04 -0.03)"/></g><g id="ARC-12" data-name="ARC"><path class="cls-1" d="M0,669.79A14.17,14.17,0,0,0,14.17,684" transform="translate(0.04 -0.03)"/></g><g id="ARC-13" data-name="ARC"><path class="cls-1" d="M0,545.77a5.67,5.67,0,0,0,5.67,5.67" transform="translate(0.04 -0.03)"/></g><g id="LINE-9" data-name="LINE"><line class="cls-1" x1="260.19" y1="683.93" x2="14.17" y2="683.93"/></g><g id="ARC-14" data-name="ARC"><path class="cls-1" d="M14.17,502.54A14.17,14.17,0,0,0,0,516.72" transform="translate(0.04 -0.03)"/></g><g id="CIRCLE-12" data-name="CIRCLE"><path class="cls-1" d="M118.42,593.26a11.34,11.34,0,1,1,11.34,11.34,11.34,11.34,0,0,1-11.34-11.34Z" transform="translate(0.04 -0.03)"/></g><g id="LWPOLYLINE"><line class="cls-1" x1="260.19" y1="658.42" x2="246.01" y2="658.42"/></g><g id="LWPOLYLINE-2" data-name="LWPOLYLINE"><polyline class="cls-1" points="237.51 658.42 229 658.42 229 669.76 237.51 669.76"/></g><g id="LWPOLYLINE-3" data-name="LWPOLYLINE"><line class="cls-1" x1="246.01" y1="669.76" x2="260.19" y2="669.76"/></g><g id="LWPOLYLINE-4" data-name="LWPOLYLINE"><polyline class="cls-1" points="237.51 669.76 237.51 674.01 246.01 674.01 246.01 669.76"/></g><g id="LWPOLYLINE-5" data-name="LWPOLYLINE"><polyline class="cls-1" points="246.01 658.42 246.01 654.17 237.51 654.17 237.51 658.42"/></g><g id="LINE-10" data-name="LINE"><line class="cls-1" x1="260.19" y1="658.42" x2="260.19" y2="649.91"/></g><g id="LWPOLYLINE-6" data-name="LWPOLYLINE"><line class="cls-1" x1="260.19" y1="528.02" x2="246.01" y2="528.02"/></g><g id="LWPOLYLINE-7" data-name="LWPOLYLINE"><polyline class="cls-1" points="237.51 528.02 229 528.02 229 516.68 237.51 516.68"/></g><g id="LWPOLYLINE-8" data-name="LWPOLYLINE"><line class="cls-1" x1="246.01" y1="516.68" x2="260.19" y2="516.68"/></g><g id="LWPOLYLINE-9" data-name="LWPOLYLINE"><polyline class="cls-1" points="237.51 516.68 237.51 512.43 246.01 512.43 246.01 516.68"/></g><g id="LWPOLYLINE-10" data-name="LWPOLYLINE"><polyline class="cls-1" points="246.01 528.02 246.01 532.27 237.51 532.27 237.51 528.02"/></g><g id="LINE-11" data-name="LINE"><line class="cls-1" x1="260.19" y1="528.02" x2="260.19" y2="536.53"/></g><g id="LINE-12" data-name="LINE"><line class="cls-1" x1="260.19" y1="669.76" x2="260.19" y2="683.93"/></g><g id="LINE-13" data-name="LINE"><line class="cls-1" x1="260.19" y1="516.68" x2="260.19" y2="502.51"/></g><g id="CIRCLE-13" data-name="CIRCLE"><path class="cls-1" d="M133.22,655.11a5.67,5.67,0,1,0-5.67,5.67,5.67,5.67,0,0,0,5.67-5.67Z" transform="translate(0.04 -0.03)"/></g><g id="CIRCLE-14" data-name="CIRCLE"><path class="cls-1" d="M31.18,655.11a5.67,5.67,0,1,0-5.67,5.67,5.67,5.67,0,0,0,5.67-5.67Z" transform="translate(0.04 -0.03)"/></g><g id="LINE-14" data-name="LINE"><line class="cls-1" x1="113.41" y1="664.08" x2="39.72" y2="664.08"/></g><g id="LINE-15" data-name="LINE"><line class="cls-1" x1="39.72" y1="664.08" x2="39.72" y2="646.08"/></g><g id="LINE-16" data-name="LINE"><line class="cls-1" x1="39.72" y1="646.08" x2="113.41" y2="646.08"/></g><g id="LINE-17" data-name="LINE"><line class="cls-1" x1="113.41" y1="646.08" x2="113.41" y2="664.08"/></g><g id="LINE-18" data-name="LINE"><line class="cls-1" x1="0.04" y1="669.76" x2="0.04" y2="640.7"/></g><g id="CIRCLE-15" data-name="CIRCLE"><path class="cls-1" d="M133.22,531.4a5.67,5.67,0,1,0-5.67,5.67,5.67,5.67,0,0,0,5.67-5.67Z" transform="translate(0.04 -0.03)"/></g><g id="CIRCLE-16" data-name="CIRCLE"><path class="cls-1" d="M31.18,531.4a5.67,5.67,0,1,0-5.67,5.67,5.67,5.67,0,0,0,5.67-5.67Z" transform="translate(0.04 -0.03)"/></g><g id="LINE-19" data-name="LINE"><line class="cls-1" x1="113.41" y1="522.36" x2="39.72" y2="522.36"/></g><g id="LINE-20" data-name="LINE"><line class="cls-1" x1="39.72" y1="522.36" x2="39.72" y2="540.36"/></g><g id="LINE-21" data-name="LINE"><line class="cls-1" x1="39.72" y1="540.36" x2="113.41" y2="540.36"/></g><g id="LINE-22" data-name="LINE"><line class="cls-1" x1="113.41" y1="540.36" x2="113.41" y2="522.36"/></g><g id="LINE-23" data-name="LINE"><line class="cls-1" x1="278.19" y1="649.91" x2="260.19" y2="649.91"/></g><g id="LINE-24" data-name="LINE"><line class="cls-1" x1="278.19" y1="536.53" x2="260.19" y2="536.53"/></g><g id="LINE-25" data-name="LINE"><line class="cls-1" x1="33.38" y1="551.41" x2="5.71" y2="551.43"/></g><g id="LINE-26" data-name="LINE"><line class="cls-1" x1="0.04" y1="545.74" x2="0.04" y2="516.68"/></g><g id="LINE-27" data-name="LINE"><line class="cls-1" x1="260.19" y1="502.51" x2="14.21" y2="502.51"/></g><g id="ARC-15" data-name="ARC"><path class="cls-1" d="M292.32.07a14.17,14.17,0,0,0-14.17,14.17" transform="translate(0.04 -0.03)"/></g><g id="ARC-16" data-name="ARC"><path class="cls-1" d="M278.15,669.79A14.17,14.17,0,0,0,292.32,684" transform="translate(0.04 -0.03)"/></g><g id="LINE-28" data-name="LINE"><line class="cls-1" x1="459.61" y1="14.21" x2="459.61" y2="669.76"/></g><g id="ARC-17" data-name="ARC"><path class="cls-1" d="M459.57,14.24A14.17,14.17,0,0,0,445.4.07" transform="translate(0.04 -0.03)"/></g><g id="ARC-18" data-name="ARC"><path class="cls-1" d="M445.4,684a14.17,14.17,0,0,0,14.17-14.17" transform="translate(0.04 -0.03)"/></g><g id="CIRCLE-17" data-name="CIRCLE"><path class="cls-1" d="M445.4,646.9a5.67,5.67,0,1,0-5.67,5.67,5.67,5.67,0,0,0,5.67-5.67Z" transform="translate(0.04 -0.03)"/></g><g id="LINE-29" data-name="LINE"><line class="cls-1" x1="425.59" y1="637.87" x2="312.2" y2="637.87"/></g><g id="LINE-30" data-name="LINE"><line class="cls-1" x1="312.2" y1="637.87" x2="312.2" y2="655.87"/></g><g id="LINE-31" data-name="LINE"><line class="cls-1" x1="312.2" y1="655.87" x2="425.59" y2="655.87"/></g><g id="LINE-32" data-name="LINE"><line class="cls-1" x1="425.59" y1="655.87" x2="425.59" y2="637.87"/></g><g id="CIRCLE-18" data-name="CIRCLE"><path class="cls-1" d="M303.66,646.9a5.67,5.67,0,1,0-5.67,5.67,5.67,5.67,0,0,0,5.67-5.67Z" transform="translate(0.04 -0.03)"/></g><g id="CIRCLE-19" data-name="CIRCLE"><path class="cls-1" d="M444.36,103.19a5.67,5.67,0,1,0-5.67,5.67,5.67,5.67,0,0,0,5.67-5.67Z" transform="translate(0.04 -0.03)"/></g><g id="LINE-33" data-name="LINE"><line class="cls-1" x1="424.55" y1="94.15" x2="311.16" y2="94.15"/></g><g id="LINE-34" data-name="LINE"><line class="cls-1" x1="311.16" y1="94.15" x2="311.16" y2="112.15"/></g><g id="LINE-35" data-name="LINE"><line class="cls-1" x1="311.16" y1="112.15" x2="424.55" y2="112.15"/></g><g id="LINE-36" data-name="LINE"><line class="cls-1" x1="424.55" y1="112.15" x2="424.55" y2="94.15"/></g><g id="CIRCLE-20" data-name="CIRCLE"><path class="cls-1" d="M302.62,103.19a5.67,5.67,0,1,0-5.67,5.67,5.67,5.67,0,0,0,5.67-5.67Z" transform="translate(0.04 -0.03)"/></g><g id="LINE-37" data-name="LINE"><line class="cls-1" x1="278.19" y1="669.76" x2="278.19" y2="14.21"/></g><g id="LINE-38" data-name="LINE"><line class="cls-1" x1="10" y1="95.53" x2="10" y2="104.03"/></g><g id="LINE-39" data-name="LINE"><line class="cls-1" x1="10" y1="104.03" x2="28" y2="104.03"/></g><g id="ARC-19" data-name="ARC"><path class="cls-1" d="M39,46.08A41.81,41.81,0,0,0,80.16,88.55h.67" transform="translate(0.04 -0.03)"/></g><g id="ARC-20" data-name="ARC"><path class="cls-1" d="M80.82,88.56a41.81,41.81,0,0,0,41.81-41.81q0-.33,0-.67" transform="translate(0.04 -0.03)"/></g><g id="CIRCLE-21" data-name="CIRCLE"><path class="cls-1" d="M63.17,143.13a17.65,17.65,0,1,1,17.65,17.65,17.65,17.65,0,0,1-17.65-17.65Z" transform="translate(0.04 -0.03)"/></g><g id="CIRCLE-22" data-name="CIRCLE"><path class="cls-1" d="M148.35,89.9a5.67,5.67,0,1,0-5.67,5.67,5.67,5.67,0,0,0,5.67-5.67Z" transform="translate(0.04 -0.03)"/></g><g id="LINE-40" data-name="LINE"><line class="cls-1" x1="151.72" y1="104.04" x2="133.72" y2="104.04"/></g><g id="LINE-41" data-name="LINE"><line class="cls-1" x1="133.71" y1="166.4" x2="27.99" y2="166.4"/></g><g id="LINE-42" data-name="LINE"><line class="cls-1" x1="10" y1="104.03" x2="10.01" y2="20.42"/></g><g id="CIRCLE-23" data-name="CIRCLE"><path class="cls-1" d="M24.63,89.89A5.67,5.67,0,1,0,19,95.56a5.67,5.67,0,0,0,5.67-5.67Z" transform="translate(0.04 -0.03)"/></g><g id="LINE-43" data-name="LINE"><line class="cls-1" x1="10" y1="104.03" x2="28" y2="104.04"/></g><g id="LINE-44" data-name="LINE"><line class="cls-1" x1="28" y1="104.04" x2="27.99" y2="166.4"/></g><g id="LINE-45" data-name="LINE"><line class="cls-1" x1="28.01" y1="13.33" x2="33.39" y2="13.33"/></g><g id="ARC-21" data-name="ARC"><path class="cls-1" d="M39,19a5.67,5.67,0,0,0-5.67-5.67" transform="translate(0.04 -0.03)"/></g><g id="ARC-22" data-name="ARC"><path class="cls-1" d="M128.31,13.37A5.67,5.67,0,0,0,122.64,19" transform="translate(0.04 -0.03)"/></g><g id="LINE-46" data-name="LINE"><line class="cls-1" x1="122.67" y1="46.05" x2="122.67" y2="19.01"/></g><g id="LINE-47" data-name="LINE"><line class="cls-1" x1="39.06" y1="46.04" x2="39.06" y2="19"/></g><g id="LINE-48" data-name="LINE"><line class="cls-1" x1="151.73" y1="20.43" x2="151.72" y2="104.04"/></g><g id="ARC-23" data-name="ARC"><path class="cls-1" d="M151.69,20.46a7.09,7.09,0,0,0-7.09-7.09" transform="translate(0.04 -0.03)"/></g><g id="LINE-49" data-name="LINE"><line class="cls-1" x1="28.01" y1="13.33" x2="17.09" y2="13.33"/></g><g id="ARC-24" data-name="ARC"><path class="cls-1" d="M17.06,13.36A7.09,7.09,0,0,0,10,20.45" transform="translate(0.04 -0.03)"/></g><g id="LINE-50" data-name="LINE"><line class="cls-1" x1="144.64" y1="13.34" x2="128.34" y2="13.34"/></g><g id="LWPOLYLINE-11" data-name="LWPOLYLINE"><line class="cls-1" x1="201.2" y1="135.22" x2="187.03" y2="135.22"/></g><g id="LWPOLYLINE-12" data-name="LWPOLYLINE"><polyline class="cls-1" points="178.52 135.22 170.02 135.22 170.02 146.56 178.52 146.56"/></g><g id="LWPOLYLINE-13" data-name="LWPOLYLINE"><line class="cls-1" x1="187.03" y1="146.56" x2="201.2" y2="146.56"/></g><g id="LWPOLYLINE-14" data-name="LWPOLYLINE"><polyline class="cls-1" points="178.52 146.56 178.52 150.81 187.03 150.81 187.03 146.56"/></g><g id="LWPOLYLINE-15" data-name="LWPOLYLINE"><polyline class="cls-1" points="187.03 135.22 187.03 130.97 178.52 130.97 178.52 135.22"/></g><g id="LINE-51" data-name="LINE"><line class="cls-1" x1="201.2" y1="135.22" x2="201.2" y2="126.71"/></g><g id="LWPOLYLINE-16" data-name="LWPOLYLINE"><line class="cls-1" x1="151.71" y1="84.2" x2="165.88" y2="84.2"/></g><g id="LWPOLYLINE-17" data-name="LWPOLYLINE"><polyline class="cls-1" points="174.39 84.2 182.89 84.2 182.89 95.53 174.39 95.54"/></g><g id="LWPOLYLINE-18" data-name="LWPOLYLINE"><line class="cls-1" x1="165.89" y1="95.54" x2="151.71" y2="95.54"/></g><g id="LWPOLYLINE-19" data-name="LWPOLYLINE"><polyline class="cls-1" points="174.39 95.54 174.39 99.79 165.88 99.79 165.88 95.54"/></g><g id="LWPOLYLINE-20" data-name="LWPOLYLINE"><polyline class="cls-1" points="165.88 84.2 165.88 79.95 174.39 79.95 174.39 84.2"/></g><g id="LINE-52" data-name="LINE"><line class="cls-1" x1="133.71" y1="104.04" x2="133.72" y2="177.74"/></g><g id="LWPOLYLINE-21" data-name="LWPOLYLINE"><line class="cls-1" x1="151.72" y1="186.25" x2="165.89" y2="186.25"/></g><g id="LWPOLYLINE-22" data-name="LWPOLYLINE"><polyline class="cls-1" points="174.4 186.25 182.9 186.24 182.9 197.58 174.4 197.58"/></g><g id="LWPOLYLINE-23" data-name="LWPOLYLINE"><line class="cls-1" x1="165.89" y1="197.58" x2="151.72" y2="197.59"/></g><g id="LWPOLYLINE-24" data-name="LWPOLYLINE"><polyline class="cls-1" points="174.4 197.58 174.4 201.84 165.9 201.84 165.9 197.58"/></g><g id="LWPOLYLINE-25" data-name="LWPOLYLINE"><polyline class="cls-1" points="165.89 186.25 165.89 181.99 174.4 181.99 174.4 186.25"/></g><g id="LINE-53" data-name="LINE"><line class="cls-1" x1="151.72" y1="186.25" x2="151.72" y2="177.74"/></g><g id="LINE-54" data-name="LINE"><line class="cls-1" x1="201.2" y1="157.89" x2="201.2" y2="146.56"/></g><g id="LINE-55" data-name="LINE"><line class="cls-1" x1="151.72" y1="217.43" x2="151.72" y2="197.59"/></g><g id="LINE-56" data-name="LINE"><line class="cls-1" x1="133.72" y1="177.74" x2="151.72" y2="177.74"/></g><g id="LINE-57" data-name="LINE"><line class="cls-1" x1="133.71" y1="104.04" x2="151.71" y2="104.04"/></g><g id="LINE-58" data-name="LINE"><line class="cls-1" x1="201.2" y1="126.71" x2="219.2" y2="126.71"/></g><g id="LINE-59" data-name="LINE"><line class="cls-1" x1="151.72" y1="217.43" x2="190.58" y2="217.42"/></g><g id="ARC-25" data-name="ARC"><path class="cls-1" d="M190.54,217.46a2.13,2.13,0,0,0,2.13-2.13" transform="translate(0.04 -0.03)"/></g><g id="LINE-60" data-name="LINE"><line class="cls-1" x1="192.7" y1="165.69" x2="192.71" y2="237.94"/></g><g id="ARC-26" data-name="ARC"><path class="cls-1" d="M194.79,163.6a2.13,2.13,0,0,0-2.13,2.13" transform="translate(0.04 -0.03)"/></g><g id="LINE-61" data-name="LINE"><line class="cls-1" x1="151.71" y1="64.36" x2="219.2" y2="64.35"/></g><g id="LINE-62" data-name="LINE"><line class="cls-1" x1="194.82" y1="163.56" x2="195.53" y2="163.56"/></g><g id="ARC-27" data-name="ARC"><path class="cls-1" d="M195.5,163.6a5.67,5.67,0,0,0,5.67-5.67" transform="translate(0.04 -0.03)"/></g><g id="LWPOLYLINE-26" data-name="LWPOLYLINE"><line class="cls-1" x1="210.7" y1="167.08" x2="224.88" y2="167.08"/></g><g id="LWPOLYLINE-27" data-name="LWPOLYLINE"><polyline class="cls-1" points="233.38 167.08 241.88 167.08 241.88 155.74 233.38 155.74"/></g><g id="LWPOLYLINE-28" data-name="LWPOLYLINE"><line class="cls-1" x1="224.88" y1="155.74" x2="210.7" y2="155.74"/></g><g id="LWPOLYLINE-29" data-name="LWPOLYLINE"><polyline class="cls-1" points="233.38 155.74 233.38 151.49 224.88 151.49 224.88 155.74"/></g><g id="LWPOLYLINE-30" data-name="LWPOLYLINE"><polyline class="cls-1" points="224.88 167.08 224.88 171.33 233.38 171.33 233.38 167.08"/></g><g id="LINE-63" data-name="LINE"><line class="cls-1" x1="210.7" y1="167.08" x2="210.7" y2="175.58"/></g><g id="LWPOLYLINE-31" data-name="LWPOLYLINE"><line class="cls-1" x1="260.19" y1="218.1" x2="246.01" y2="218.1"/></g><g id="LWPOLYLINE-32" data-name="LWPOLYLINE"><polyline class="cls-1" points="237.51 218.1 229.01 218.1 229.01 206.76 237.51 206.76"/></g><g id="LWPOLYLINE-33" data-name="LWPOLYLINE"><line class="cls-1" x1="246.01" y1="206.76" x2="260.19" y2="206.76"/></g><g id="LWPOLYLINE-34" data-name="LWPOLYLINE"><polyline class="cls-1" points="237.51 206.76 237.51 202.51 246.01 202.51 246.01 206.76"/></g><g id="LWPOLYLINE-35" data-name="LWPOLYLINE"><polyline class="cls-1" points="246.01 218.1 246.01 222.35 237.51 222.35 237.51 218.1"/></g><g id="LINE-64" data-name="LINE"><line class="cls-1" x1="260.19" y1="218.1" x2="260.19" y2="237.94"/></g><g id="LWPOLYLINE-36" data-name="LWPOLYLINE"><line class="cls-1" x1="260.18" y1="116.05" x2="246.01" y2="116.05"/></g><g id="LWPOLYLINE-37" data-name="LWPOLYLINE"><polyline class="cls-1" points="237.51 116.05 229 116.05 229 104.72 237.51 104.72"/></g><g id="LWPOLYLINE-38" data-name="LWPOLYLINE"><line class="cls-1" x1="246.01" y1="104.71" x2="260.18" y2="104.71"/></g><g id="LWPOLYLINE-39" data-name="LWPOLYLINE"><polyline class="cls-1" points="237.51 104.72 237.51 100.46 246.01 100.46 246.01 104.72"/></g><g id="LWPOLYLINE-40" data-name="LWPOLYLINE"><polyline class="cls-1" points="246.01 116.05 246.01 120.31 237.51 120.31 237.51 116.05"/></g><g id="LINE-65" data-name="LINE"><line class="cls-1" x1="260.18" y1="116.05" x2="260.18" y2="124.56"/></g><g id="LINE-66" data-name="LINE"><line class="cls-1" x1="210.7" y1="144.41" x2="210.7" y2="155.74"/></g><g id="LINE-67" data-name="LINE"><line class="cls-1" x1="260.19" y1="198.26" x2="260.19" y2="206.76"/></g><g id="LINE-68" data-name="LINE"><line class="cls-1" x1="260.18" y1="84.87" x2="260.18" y2="104.71"/></g><g id="LINE-69" data-name="LINE"><line class="cls-1" x1="278.18" y1="124.56" x2="260.18" y2="124.56"/></g><g id="LINE-70" data-name="LINE"><line class="cls-1" x1="278.19" y1="198.26" x2="260.19" y2="198.26"/></g><g id="LINE-71" data-name="LINE"><line class="cls-1" x1="210.7" y1="175.58" x2="192.7" y2="175.58"/></g><g id="LINE-72" data-name="LINE"><line class="cls-1" x1="260.18" y1="84.87" x2="221.33" y2="84.88"/></g><g id="ARC-28" data-name="ARC"><path class="cls-1" d="M221.29,84.91A2.13,2.13,0,0,0,219.17,87" transform="translate(0.04 -0.03)"/></g><g id="LINE-73" data-name="LINE"><line class="cls-1" x1="219.21" y1="136.61" x2="219.21" y2="64.35"/></g><g id="ARC-29" data-name="ARC"><path class="cls-1" d="M217,138.77a2.13,2.13,0,0,0,2.13-2.13" transform="translate(0.04 -0.03)"/></g><g id="LINE-74" data-name="LINE"><line class="cls-1" x1="217.08" y1="138.74" x2="216.37" y2="138.74"/></g><g id="ARC-30" data-name="ARC"><path class="cls-1" d="M216.33,138.77a5.67,5.67,0,0,0-5.67,5.67" transform="translate(0.04 -0.03)"/></g><g id="LINE-75" data-name="LINE"><line class="cls-1" x1="445.43" y1="683.93" x2="292.36" y2="683.93"/></g><g id="LINE-76" data-name="LINE"><line class="cls-1" x1="445.43" y1="0.04" x2="292.36" y2="0.04"/></g><g id="CIRCLE-24" data-name="CIRCLE"><path class="cls-1" d="M172,425a15.45,15.45,0,1,1,15.45,15.45A15.45,15.45,0,0,1,172,425Z" transform="translate(0.04 -0.03)"/></g><g id="LINE-77" data-name="LINE"><line class="cls-1" x1="264.01" y1="484.51" x2="264.01" y2="470.34"/></g><g id="LINE-78" data-name="LINE"><line class="cls-1" x1="264.01" y1="461.83" x2="264.01" y2="453.33"/></g><g id="LINE-79" data-name="LINE"><line class="cls-1" x1="264.01" y1="453.33" x2="252.68" y2="453.33"/></g><g id="LINE-80" data-name="LINE"><line class="cls-1" x1="252.68" y1="453.33" x2="252.68" y2="461.83"/></g><g id="LINE-81" data-name="LINE"><line class="cls-1" x1="252.68" y1="470.34" x2="252.67" y2="484.51"/></g><g id="LINE-82" data-name="LINE"><line class="cls-1" x1="252.68" y1="461.83" x2="248.42" y2="461.83"/></g><g id="LINE-83" data-name="LINE"><line class="cls-1" x1="248.42" y1="461.83" x2="248.42" y2="470.34"/></g><g id="LINE-84" data-name="LINE"><line class="cls-1" x1="248.42" y1="470.34" x2="252.68" y2="470.34"/></g><g id="LINE-85" data-name="LINE"><line class="cls-1" x1="264.01" y1="470.34" x2="268.27" y2="470.34"/></g><g id="LINE-86" data-name="LINE"><line class="cls-1" x1="268.27" y1="470.34" x2="268.27" y2="461.83"/></g><g id="LINE-87" data-name="LINE"><line class="cls-1" x1="268.27" y1="461.83" x2="264.01" y2="461.83"/></g><g id="CIRCLE-25" data-name="CIRCLE"><path class="cls-1" d="M232.8,252.1a5.67,5.67,0,1,0-5.67,5.67,5.67,5.67,0,0,0,5.67-5.67Z" transform="translate(0.04 -0.03)"/></g><g id="CIRCLE-26" data-name="CIRCLE"><path class="cls-1" d="M193.11,252.1a5.67,5.67,0,1,0-5.67,5.67,5.67,5.67,0,0,0,5.67-5.67Z" transform="translate(0.04 -0.03)"/></g><g id="LINE-88" data-name="LINE"><line class="cls-1" x1="110.94" y1="484.51" x2="110.94" y2="470.34"/></g><g id="LINE-89" data-name="LINE"><line class="cls-1" x1="110.94" y1="461.83" x2="110.94" y2="453.33"/></g><g id="LINE-90" data-name="LINE"><line class="cls-1" x1="110.94" y1="453.33" x2="122.28" y2="453.33"/></g><g id="LINE-91" data-name="LINE"><line class="cls-1" x1="122.28" y1="453.33" x2="122.28" y2="461.83"/></g><g id="LINE-92" data-name="LINE"><line class="cls-1" x1="122.28" y1="470.34" x2="122.28" y2="484.51"/></g><g id="LINE-93" data-name="LINE"><line class="cls-1" x1="122.28" y1="461.83" x2="126.53" y2="461.83"/></g><g id="LINE-94" data-name="LINE"><line class="cls-1" x1="126.53" y1="461.83" x2="126.53" y2="470.34"/></g><g id="LINE-95" data-name="LINE"><line class="cls-1" x1="126.53" y1="470.34" x2="122.28" y2="470.34"/></g><g id="LINE-96" data-name="LINE"><line class="cls-1" x1="110.94" y1="470.34" x2="106.69" y2="470.34"/></g><g id="LINE-97" data-name="LINE"><line class="cls-1" x1="106.69" y1="470.34" x2="106.69" y2="461.83"/></g><g id="LINE-98" data-name="LINE"><line class="cls-1" x1="106.69" y1="461.83" x2="110.94" y2="461.83"/></g><g id="LINE-99" data-name="LINE"><line class="cls-1" x1="122.28" y1="484.51" x2="130.78" y2="484.51"/></g><g id="ARC-31" data-name="ARC"><path class="cls-1" d="M278.15,427.78a28.35,28.35,0,0,0-.53-5.48" transform="translate(0.04 -0.03)"/></g><g id="LINE-100" data-name="LINE"><line class="cls-1" x1="260.19" y1="237.94" x2="145.27" y2="237.94"/></g><g id="ARC-32" data-name="ARC"><path class="cls-1" d="M243.55,249.41A14.17,14.17,0,0,0,229.65,238" transform="translate(0.04 -0.03)"/></g><g id="LINE-101" data-name="LINE"><line class="cls-1" x1="264.01" y1="484.51" x2="278.19" y2="484.51"/></g><g id="LINE-102" data-name="LINE"><line class="cls-1" x1="110.94" y1="484.51" x2="96.77" y2="484.51"/></g><g id="LINE-103" data-name="LINE"><line class="cls-1" x1="130.78" y1="484.51" x2="130.78" y2="502.51"/></g><g id="LINE-104" data-name="LINE"><line class="cls-1" x1="244.17" y1="502.51" x2="244.17" y2="484.51"/></g><g id="LINE-105" data-name="LINE"><line class="cls-1" x1="244.17" y1="484.51" x2="252.67" y2="484.51"/></g><g id="LINE-106" data-name="LINE"><line class="cls-1" x1="243.59" y1="249.38" x2="277.65" y2="422.27"/></g><g id="CIRCLE-27" data-name="CIRCLE"><path class="cls-1" d="M169.8,354.15a17.65,17.65,0,1,1,17.65,17.65,17.65,17.65,0,0,1-17.65-17.65Z" transform="translate(0.04 -0.03)"/></g><g id="ARC-33" data-name="ARC"><path class="cls-1" d="M97.26,422.3a28.35,28.35,0,0,0-.53,5.48" transform="translate(0.04 -0.03)"/></g><g id="ARC-34" data-name="ARC"><path class="cls-1" d="M145.23,238a14.17,14.17,0,0,0-13.91,11.43" transform="translate(0.04 -0.03)"/></g><g id="LINE-107" data-name="LINE"><line class="cls-1" x1="131.36" y1="249.38" x2="97.3" y2="422.27"/></g></svg>