0
SECTION
2
HEADER
9
$INSUNITS
70
4
9
$ACADVER
1
AC1014
9
$HANDSEED
5
FFFF
0
ENDSEC
0
SECTION
2
TABLES
0
TABLE
2
VPORT
5
8
100
AcDbSymbolTable
0
ENDTAB
0
TABLE
2
LTYPE
5
5
100
AcDbSymbolTable
0
LTYPE
5
14
100
AcDbSymbolTableRecord
100
AcDbLinetypeTableRecord
2
BYBLOCK
70
0
0
LTYPE
5
15
100
AcDbSymbolTableRecord
100
AcDbLinetypeTableRecord
2
BYLAYER
70
0
0
ENDTAB
0
TABLE
2
LAYER
5
2
100
AcDbSymbolTable
70
2
0
LAYER
5
50
100
AcDbSymbolTableRecord
100
AcDbLayerTableRecord
2
0
70
0
6
CONTINUOUS
0
ENDTAB
0
TABLE
2
STYLE
5
3
100
AcDbSymbolTable
70
1
0
STYLE
5
11
100
AcDbSymbolTableRecord
100
AcDbTextStyleTableRecord
2
STANDARD
70
0
0
ENDTAB
0
TABLE
2
VIEW
5
6
100
AcDbSymbolTable
70
0
0
ENDTAB
0
TABLE
2
UCS
5
7
100
AcDbSymbolTable
70
0
0
ENDTAB
0
TABLE
2
APPID
5
9
100
AcDbSymbolTable
70
2
0
APPID
5
12
100
AcDbSymbolTableRecord
100
AcDbRegAppTableRecord
2
ACAD
70
0
0
ENDTAB
0
TABLE
2
DIMSTYLE
5
A
100
AcDbSymbolTable
70
1
0
ENDTAB
0
TABLE
2
BLOCK_RECORD
5
1
100
AcDbSymbolTable
70
1
0
BLOCK_RECORD
5
1F
100
AcDbSymbolTableRecord
100
AcDbBlockTableRecord
2
*MODEL_SPACE
0
BLOCK_RECORD
5
1B
100
AcDbSymbolTableRecord
100
AcDbBlockTableRecord
2
*PAPER_SPACE
0
ENDTAB
0
ENDSEC
0
SECTION
2
BLOCKS
0
BLOCK
5
20
100
AcDbEntity
100
AcDbBlockBegin
2
*MODEL_SPACE
0
ENDBLK
5
21
100
AcDbEntity
100
AcDbBlockEnd
0
BLOCK
5
1C
100
AcDbEntity
100
AcDbBlockBegin
2
*PAPER_SPACE
0
ENDBLK
5
1D
100
AcDbEntity
100
AcDbBlockEnd
0
ENDSEC
0
SECTION
2
ENTITIES
0
LWPOLYLINE
5
100
100
AcDbEntity
8
0
100
AcDbPolyline
90
50
70
1
43
0.0
10
70.860886122992056
20
194.34875878309126
10
65.860886122991985
20
194.34875878309242
10
65.860886122993122
20
198.84875878309245
42
-0.41421356237308465
10
67.360886122993435
20
200.34875878309211
42
0.41421356237308637
10
68.860886122993861
20
201.84875878309174
10
68.860886122997641
20
217.84875878309123
42
-0.41421356237309509
10
70.360886122998082
20
219.34875878309097
10
83.510886122997789
20
219.34875878308785
10
83.51088612299651
20
212.3487587830877
10
78.510886122996425
20
212.34875878308952
10
78.510886122996752
20
213.84875878308952
10
75.510886122996595
20
213.8487587830902
10
75.510886122996226
20
212.34875878309023
10
72.510886122996169
20
212.34875878309089
10
72.510886122995203
20
208.34875878309089
10
75.510886122995259
20
208.34875878309018
10
75.51088612299489
20
206.84875878309015
10
78.510886122994947
20
206.84875878308955
10
78.510886122995302
20
208.34875878308958
10
83.510886122995402
20
208.34875878308839
10
83.510886122994663
20
205.34875878308833
10
89.860886122994756
20
205.34875878308679
10
89.860886122989925
20
185.34875878308654
10
83.510886122989859
20
185.34875878308804
10
83.510886122989149
20
182.34875878308799
10
78.510886122989049
20
182.34875878308915
10
78.510886122989405
20
183.84875878308921
10
75.510886122989305
20
183.84875878308992
10
75.510886122988978
20
182.34875878308992
10
72.510886122988978
20
182.34875878309069
10
72.510886122988012
20
178.3487587830906
10
75.510886122987827
20
178.34875878308989
10
75.510886122987856
20
176.84875878308986
10
78.510886122987941
20
176.84875878308912
10
78.510886122988296
20
178.34875878308918
10
83.510886122988381
20
178.34875878308796
10
83.510886122986733
20
171.3487587830879
10
59.510886122986335
20
171.34875878309356
10
59.510886122990172
20
187.34875878309373
10
65.860886122990308
20
187.34875878309228
10
65.860886122991047
20
190.34875878309234
10
70.860886122991133
20
190.34875878309117
10
70.860886122990763
20
188.84875878309111
10
73.860886122990806
20
188.84875878309043
10
73.860886122991175
20
190.3487587830904
10
76.860886122991232
20
190.34875878308975
10
76.860886122992184
20
194.34875878308983
10
73.860886122992127
20
194.34875878309049
10
73.86088612299254
20
195.84875878309052
10
70.86088612299244
20
195.84875878309123
0
CIRCLE
5
101
100
AcDbEntity
8
0
100
AcDbCircle
10
116.59998740580966
20
186.55637679498622
30
0
40
1.9999999999999929
0
CIRCLE
5
102
100
AcDbEntity
8
0
100
AcDbCircle
10
148.99998740580966
20
18.921376684014902
30
0
40
1.9999999999999929
0
CIRCLE
5
103
100
AcDbEntity
8
0
100
AcDbCircle
10
124.89998740580965
20
186.55637679498622
30
0
40
1.5000000000000036
0
LWPOLYLINE
5
104
100
AcDbEntity
8
0
100
AcDbPolyline
90
4
70
1
43
0.0
10
143.99998738009188
20
207.55637668401488
10
143.99998740580966
20
213.90637668401493
10
103.99998740580966
20
213.90637684601688
10
103.99998738009188
20
207.55637684601686
0
CIRCLE
5
105
100
AcDbEntity
8
0
100
AcDbCircle
10
131.39998740580964
20
41.556376794986193
30
0
40
2.0000046911114029
0
CIRCLE
5
106
100
AcDbEntity
8
0
100
AcDbCircle
10
123.09998740580964
20
41.556376794986193
30
0
40
1.4999934339541809
0
CIRCLE
5
107
100
AcDbEntity
8
0
100
AcDbCircle
10
98.999987405809662
20
210.7313768460169
30
0
40
1.9999999999999929
0
CIRCLE
5
108
100
AcDbEntity
8
0
100
AcDbCircle
10
98.999987405809662
20
18.921376684014902
30
0
40
1.9999999999999929
0
LWPOLYLINE
5
109
100
AcDbEntity
8
0
100
AcDbPolyline
90
4
70
1
43
0.0
10
143.99998740580966
20
22.096376684014913
10
103.99998740580966
20
22.096376684014913
10
103.99998740580966
20
15.746376685602392
10
143.99998740580966
20
15.746376685602392
0
CIRCLE
5
110
100
AcDbEntity
8
0
100
AcDbCircle
10
148.99998740580966
20
210.73137668401489
30
0
40
1.9999999999999929
0
LWPOLYLINE
5
111
100
AcDbEntity
8
0
100
AcDbPolyline
90
8
70
1
43
0.0
10
150.99998740580963
20
273.9063766840149
42
-0.41421356237309509
10
155.99998740580969
20
268.90637668401484
10
155.99998740580969
20
10.906376684014855
42
-0.41421356237309509
10
150.99998740580966
20
5.9063766840148446
10
96.999987405809691
20
5.9063766840148464
42
-0.41421356237309492
10
91.999987405809662
20
10.90637668401488
10
91.999987405809662
20
268.90637668401484
42
-0.41421356237309509
10
96.999987405809691
20
273.9063766840149
0
CIRCLE
5
112
100
AcDbEntity
8
0
100
AcDbCircle
10
212.45004233064591
20
248.00756736052017
30
0
40
1.9999999999999727
0
CIRCLE
5
113
100
AcDbEntity
8
0
100
AcDbCircle
10
190.62504233064618
20
235.00756736052037
30
0
40
6.2249999999999304
0
CIRCLE
5
114
100
AcDbEntity
8
0
100
AcDbCircle
10
168.80004233064648
20
248.00756736052034
30
0
40
1.9999999999999816
0
LWPOLYLINE
5
115
100
AcDbEntity
8
0
100
AcDbPolyline
90
16
70
1
43
0.0
10
215.6250423306459
20
270.00756736051994
10
215.62504233064587
20
243.0075673605202
10
209.27504233064599
20
243.00756736052023
10
209.27504233064599
20
227.0075673605204
10
171.97504233064637
20
227.00756736052051
10
171.97504233064637
20
243.00756736052028
10
165.62504233064644
20
243.00756736052037
10
165.62504233064647
20
270.00756736052006
42
-0.41421356237309298
10
170.62504233064641
20
275.00756736052006
10
170.87504233064641
20
275.00756736052006
42
-0.41421356237309509
10
175.87504233064635
20
270.00756736052006
10
175.87504233064632
20
263.00756736052017
42
0.99999999999999989
10
205.37504233064601
20
263.00756736052
10
205.37504233064598
20
270.00756736051989
42
-0.41421356237309509
10
210.37504233064595
20
275.00756736051989
10
210.62504233064598
20
275.00756736051989
42
-0.41421356237309298
0
CIRCLE
5
116
100
AcDbEntity
8
0
100
AcDbCircle
10
213.00912524964406
20
154.69423323129888
30
0
40
2.0000000000000258
0
CIRCLE
5
117
100
AcDbEntity
8
0
100
AcDbCircle
10
175.68412524962542
20
196.19423323129814
30
0
40
2.0000000000000169
0
CIRCLE
5
118
100
AcDbEntity
8
0
100
AcDbCircle
10
169.3591252496243
20
154.69423323129826
30
0
40
2.0000000000000258
0
CIRCLE
5
119
100
AcDbEntity
8
0
100
AcDbCircle
10
191.18412524964378
20
155.69423323129854
30
0
40
4.0000000000000426
0
LWPOLYLINE
5
120
100
AcDbEntity
8
0
100
AcDbPolyline
90
4
70
1
43
0.0
10
209.83412524964407
20
149.69423323129885
10
209.83412524964436
20
129.69423323129891
10
216.18412524964444
20
129.69423323129902
10
216.18412524964418
20
149.69423323129894
0
CIRCLE
5
121
100
AcDbEntity
8
0
100
AcDbCircle
10
206.68412524962622
20
165.19423323129874
30
0
40
2.0000000000000169
0
CIRCLE
5
122
100
AcDbEntity
8
0
100
AcDbCircle
10
175.68412524962585
20
165.19423323129828
30
0
40
2.0000000000000169
0
LWPOLYLINE
5
123
100
AcDbEntity
8
0
100
AcDbPolyline
90
4
70
1
43
0.0
10
166.18412524962429
20
149.6942332312982
10
166.18412524962457
20
129.69423323129828
10
172.53412524962468
20
129.69423323129837
10
172.5341252496244
20
149.69423323129828
0
CIRCLE
5
124
100
AcDbEntity
8
0
100
AcDbCircle
10
206.68412524962579
20
196.19423323129865
30
0
40
2.0000000000000169
0
CIRCLE
5
125
100
AcDbEntity
8
0
100
AcDbCircle
10
191.18412524964342
20
180.69423323129848
30
0
40
11.250000000000135
0
CIRCLE
5
126
100
AcDbEntity
8
0
100
AcDbCircle
10
213.00912524964448
20
124.69423323129899
30
0
40
2.0000000000000258
0
CIRCLE
5
127
100
AcDbEntity
8
0
100
AcDbCircle
10
169.3591252496247
20
124.69423323129833
30
0
40
2.0000000000000258
0
LWPOLYLINE
5
128
100
AcDbEntity
8
0
100
AcDbPolyline
90
40
70
1
43
0.0
10
159.1841252496439
20
120.69423323133856
10
159.18412524964276
20
201.69423323130985
10
164.18412524977458
20
201.69423323133651
10
164.18412524980167
20
196.69423323133651
10
162.68412524982207
20
196.69423323132835
10
162.6841252498221
20
193.69423323132835
10
164.18412524980056
20
193.69423323133705
10
164.18412524981721
20
190.69423323133705
10
168.18412524981724
20
190.69423323135874
10
168.18412524980178
20
193.69423323135624
10
169.68412524980181
20
193.69423323135632
10
169.68412524978518
20
196.69423323136215
10
168.18412524980562
20
196.69423323135422
10
168.18412524977902
20
201.69423323135777
10
171.18412524977902
20
201.69423323137744
10
171.18412524974906
20
208.04423323158585
10
211.18412524974957
20
208.04423323158645
10
211.18412524978396
20
201.69423323158645
10
214.18412524978402
20
201.69423323168508
10
214.18412524980528
20
196.6942332316074
10
212.68412524964054
20
196.69423323159924
10
212.68412524965828
20
193.69423323159924
10
214.18412524966112
20
193.69423323160737
10
214.18412524967732
20
190.69423323160754
10
218.18412524967599
20
190.69423323162923
10
218.18412524965836
20
193.69423323162908
10
219.68412524965981
20
193.69423323163718
10
219.68412524964353
20
196.69423323163724
10
218.1841252496435
20
196.69423323162906
10
218.18412524978402
20
201.69423323171299
10
223.18412524964356
20
201.69423323165643
10
223.18412525008225
20
120.69423637484093
42
-0.41421356237309298
10
218.18412210692512
20
115.69423323162962
10
210.93412525011252
20
115.69423323159022
42
-0.41421356237309404
10
205.93412525008614
20
120.69423323156245
10
205.93412525004823
20
127.69423323137858
42
0.99999999999999989
10
176.43412525003981
20
127.69423323121872
10
176.43412525007761
20
120.69423323140353
42
-0.41421356237309298
10
171.43412525010461
20
115.69423323137634
10
164.18412524964026
20
115.69423323136938
42
-0.41421356237467771
0
CIRCLE
5
129
100
AcDbEntity
8
0
100
AcDbCircle
10
196.88149525443552
20
97.883783413992873
30
0
40
2.0000030045312047
0
CIRCLE
5
130
100
AcDbEntity
8
0
100
AcDbCircle
10
184.18149557843947
20
97.883783413992873
30
0
40
2.0000030045311692
0
CIRCLE
5
131
100
AcDbEntity
8
0
100
AcDbCircle
10
190.53195652641602
20
35.075409062126468
30
0
40
5.4499956931714442
0
CIRCLE
5
132
100
AcDbEntity
8
0
100
AcDbCircle
10
190.53197166642536
20
60.075425767453353
30
0
40
6.2249930356317016
0
LINE
5
133
100
AcDbEntity
8
0
100
AcDbLine
10
170.73653508811557
20
97.024910658126871
30
0
11
158.71979945112511
21
36.03273888083335
31
0
0
SPLINE
5
134
100
AcDbEntity
8
0
100
AcDbSpline
70
1064
71
3
72
8
73
4
74
0
42
0.000000001
43
0.0000000001
44
0.0000000001
40
0
40
0
40
0
40
0
40
1
40
1
40
1
40
1
10
158.71979945112511
20
36.03273888083335
30
0
10
158.5943476201108
20
35.396010285966554
30
0
10
158.5312003994996
20
34.74859252470587
30
0
10
158.5312003994996
20
34.099625729037143
30
0
0
LINE
5
135
100
AcDbEntity
8
0
100
AcDbLine
10
158.5312003994996
20
34.099625729037143
30
0
11
158.5312709550534
21
14.075427218788867
31
0
0
LINE
5
136
100
AcDbEntity
8
0
100
AcDbLine
10
158.5312709550534
20
14.075427218788867
30
0
11
163.53094332750118
21
14.075427218788867
31
0
0
LINE
5
137
100
AcDbEntity
8
0
100
AcDbLine
10
163.53094332750118
20
14.075427218788867
30
0
11
163.53094332750118
21
19.075417091228477
31
0
0
LINE
5
138
100
AcDbEntity
8
0
100
AcDbLine
10
163.53094332750118
20
19.075417091228477
30
0
11
162.03093225465847
21
19.075417091228477
31
0
0
LINE
5
139
100
AcDbEntity
8
0
100
AcDbLine
10
162.03093225465847
20
19.075417091228477
30
0
11
162.03093225465847
21
22.075439236913752
31
0
0
LINE
5
140
100
AcDbEntity
8
0
100
AcDbLine
10
162.03093225465847
20
22.075439236913752
30
0
11
163.53094332750118
21
22.075439236913752
31
0
0
LINE
5
141
100
AcDbEntity
8
0
100
AcDbLine
10
163.53094332750118
20
22.075439236913752
30
0
11
163.53094332750118
21
25.075426104822149
31
0
0
LINE
5
142
100
AcDbEntity
8
0
100
AcDbLine
10
163.53094332750118
20
25.075426104822149
30
0
11
167.53094933656359
21
25.075426104822149
31
0
0
LINE
5
143
100
AcDbEntity
8
0
100
AcDbLine
10
167.53094933656359
20
25.075426104822149
30
0
11
167.53094933656357
21
22.075439236913734
31
0
0
LINE
5
144
100
AcDbEntity
8
0
100
AcDbLine
10
167.53094933656357
20
22.075439236913734
30
0
11
169.03092513162935
21
22.075439236913752
31
0
0
LINE
5
145
100
AcDbEntity
8
0
100
AcDbLine
10
169.03092513162935
20
22.075439236913752
30
0
11
169.03092513162937
21
19.075417091228477
31
0
0
LINE
5
146
100
AcDbEntity
8
0
100
AcDbLine
10
169.03092513162937
20
19.075417091228477
30
0
11
167.53094933656357
21
19.075417091228477
31
0
0
LINE
5
147
100
AcDbEntity
8
0
100
AcDbLine
10
167.53094933656357
20
19.075417091228477
30
0
11
167.53094933656357
21
14.075427218788867
31
0
0
LINE
5
148
100
AcDbEntity
8
0
100
AcDbLine
10
167.53094933656357
20
14.075427218788867
30
0
11
170.53132426001767
21
14.075427218788867
31
0
0
LINE
5
149
100
AcDbEntity
8
0
100
AcDbLine
10
170.53132426001767
20
14.075427218788867
30
0
11
170.53167703778652
21
7.7254273807908547
31
0
0
LINE
5
150
100
AcDbEntity
8
0
100
AcDbLine
10
170.53167703778652
20
7.7254273807908547
30
0
11
210.53156610483921
21
7.7253921030139594
31
0
0
LINE
5
151
100
AcDbEntity
8
0
100
AcDbLine
10
210.53156610483921
20
7.7253921030139594
30
0
11
210.53156610483921
21
14.075391941011954
31
0
0
LINE
5
152
100
AcDbEntity
8
0
100
AcDbLine
10
210.53156610483921
20
14.075391941011954
30
0
11
213.5323589963034
21
14.075391941011954
31
0
0
LINE
5
153
100
AcDbEntity
8
0
100
AcDbLine
10
213.5323589963034
20
14.075391941011954
30
0
11
213.5323589963034
21
19.075381813451653
31
0
0
LINE
5
154
100
AcDbEntity
8
0
100
AcDbLine
10
213.5323589963034
20
19.075381813451653
30
0
11
212.0323479234608
21
19.075381813451653
31
0
0
LINE
5
155
100
AcDbEntity
8
0
100
AcDbLine
10
212.0323479234608
20
19.075381813451653
30
0
11
212.0323479234608
21
22.07536868136005
31
0
0
LINE
5
156
100
AcDbEntity
8
0
100
AcDbLine
10
212.0323479234608
20
22.07536868136005
30
0
11
213.5323589963034
21
22.07536868136005
31
0
0
LINE
5
157
100
AcDbEntity
8
0
100
AcDbLine
10
213.5323589963034
20
22.07536868136005
30
0
11
213.5323589963034
21
25.075390827045361
31
0
0
LINE
5
158
100
AcDbEntity
8
0
100
AcDbLine
10
213.5323589963034
20
25.075390827045361
30
0
11
217.53236500536593
21
25.075390827045361
31
0
0
LINE
5
159
100
AcDbEntity
8
0
100
AcDbLine
10
217.53236500536593
20
25.075390827045361
30
0
11
217.53236500536593
21
22.07536868136005
31
0
0
LINE
5
160
100
AcDbEntity
8
0
100
AcDbLine
10
217.53236500536593
20
22.07536868136005
30
0
11
219.03234080043174
21
22.07536868136005
31
0
0
LINE
5
161
100
AcDbEntity
8
0
100
AcDbLine
10
219.03234080043174
20
22.07536868136005
30
0
11
219.03234080043174
21
19.075381813451653
31
0
0
LINE
5
162
100
AcDbEntity
8
0
100
AcDbLine
10
219.03234080043174
20
19.075381813451653
30
0
11
217.532329727589
21
19.075381813451653
31
0
0
LINE
5
163
100
AcDbEntity
8
0
100
AcDbLine
10
217.532329727589
20
19.075381813451653
30
0
11
217.532329727589
21
14.075391941011954
31
0
0
LINE
5
164
100
AcDbEntity
8
0
100
AcDbLine
10
217.532329727589
20
14.075391941011954
30
0
11
222.53196682225996
21
14.075356663235166
31
0
0
LINE
5
165
100
AcDbEntity
8
0
100
AcDbLine
10
222.53196682225996
20
14.075356663235166
30
0
11
222.53207265559055
21
34.099625729037143
31
0
0
SPLINE
5
166
100
AcDbEntity
8
0
100
AcDbSpline
70
1064
71
3
72
8
73
4
74
0
42
0.000000001
43
0.0000000001
44
0.0000000001
40
0
40
0
40
0
40
0
40
1
40
1
40
1
40
1
10
222.53207265559055
20
34.099625729037143
30
0
10
222.53207265559055
20
34.74859252470587
30
0
10
222.46889015720234
20
35.396010285966554
30
0
10
222.34344238262514
20
36.03273888083335
30
0
0
LINE
5
167
100
AcDbEntity
8
0
100
AcDbLine
10
222.3434423826252
20
36.03273888083335
30
0
11
210.32670268919748
21
97.024910658126871
31
0
0
SPLINE
5
168
100
AcDbEntity
8
0
100
AcDbSpline
70
1064
71
3
72
8
73
4
74
0
42
0.000000001
43
0.0000000001
44
0.0000000001
40
0
40
0
40
0
40
0
40
1
40
1
40
1
40
1
10
210.32670268919753
20
97.024910658126871
30
0
10
209.86495186764438
20
99.368660320554937
30
0
10
207.80980969785327
20
101.05839527744628
30
0
10
205.4210103143522
20
101.05839527744628
30
0
0
LINE
5
169
100
AcDbEntity
8
0
100
AcDbLine
10
205.4210103143522
20
101.05839527744627
30
0
11
175.64222746296093
21
101.05839527744628
31
0
0
SPLINE
5
170
100
AcDbEntity
8
0
100
AcDbSpline
70
1064
71
3
72
8
73
4
74
0
42
0.000000001
43
0.0000000001
44
0.0000000001
40
0
40
0
40
0
40
0
40
1
40
1
40
1
40
1
10
175.64222746296093
20
101.05839527744628
30
0
10
173.25346335723674
20
101.05839527744628
30
0
10
171.19832118744546
20
99.368660320554937
30
0
10
170.73653508811557
20
97.024910658126871
30
0
0
CIRCLE
5
171
100
AcDbEntity
8
0
100
AcDbCircle
10
61.588073626560941
20
27.453660383450611
30
0
40
1.9999999999999836
0
CIRCLE
5
172
100
AcDbEntity
8
0
100
AcDbCircle
10
71.367073626560853
20
27.453660383450654
30
0
40
6.3499999999999668
0
CIRCLE
5
173
100
AcDbEntity
8
0
100
AcDbCircle
10
71.367073626560725
20
52.453660383450497
30
0
40
7.4999999999999645
0
CIRCLE
5
174
100
AcDbEntity
8
0
100
AcDbCircle
10
59.367073626560789
20
52.453660383450426
30
0
40
1.9999999999999836
0
CIRCLE
5
175
100
AcDbEntity
8
0
100
AcDbCircle
10
83.367073626560639
20
52.453660383450547
30
0
40
1.9999999999999836
0
CIRCLE
5
176
100
AcDbEntity
8
0
100
AcDbCircle
10
81.146073626560806
20
27.45366038345071
30
0
40
1.9999999999999836
0
LWPOLYLINE
5
177
100
AcDbEntity
8
0
100
AcDbPolyline
90
10
70
1
43
0.0
10
63.367073626328633
20
88.453660869097291
10
63.367073626464581
20
73.453660383363101
42
0.41421356237001239
10
64.367073626363066
20
72.45366038347224
10
78.367073626625341
20
72.453660383451847
42
0.41421356237435936
10
79.367073626525269
20
73.453660383353196
10
79.367073626489571
20
88.453680786077683
42
-0.99999988079071755
10
87.367073626560568
20
88.453640934497315
10
87.367073626592315
20
23.453660383511981
42
-1.0000044773688479
10
55.367073626592315
20
23.453803658871763
10
55.367073626578041
20
88.453659897846876
42
-0.99999999999999989
0
LWPOLYLINE
5
178
100
AcDbEntity
8
0
100
AcDbPolyline
90
50
70
1
43
0.0
10
77.949011393988187
20
131.98895280435229
10
82.949011393988172
20
131.98895280435232
10
82.949011393988172
20
127.48895280435232
42
-0.4142135623730881
10
81.449011393988201
20
125.98895280435228
42
0.41421356237310542
10
79.949011393988215
20
124.48895280435225
10
79.949011393988314
20
108.48895280435288
42
-0.41421356237309509
10
78.449011393988314
20
106.98895280435283
10
65.29901139398882
20
106.98895280435273
10
65.29901139398838
20
113.98895280435283
10
70.29901139398838
20
113.98895280435227
10
70.299011393988422
20
112.48895280435224
10
73.299011393988536
20
112.48895280435224
10
73.299011393988522
20
113.98895280435225
10
76.299011393988536
20
113.98895280435229
10
76.299011393988508
20
117.98895280435234
10
73.299011393988508
20
117.98895280435227
10
73.299011393988508
20
119.48895280435229
10
70.299011393988508
20
119.48895280435221
10
70.299011393988522
20
117.98895280435218
10
65.299011393988536
20
117.98895280435217
10
65.299011393988508
20
120.98895280435221
10
58.949011393988506
20
120.98895280435218
10
58.949011393988414
20
140.98895280435232
10
65.299011393988394
20
140.98895280435238
10
65.299011393988366
20
143.98895280435238
10
70.299011393988366
20
143.98895280435241
10
70.299011393988366
20
142.48895280435238
10
73.299011393988422
20
142.48895280435238
10
73.29901139398838
20
143.98895280435238
10
76.299011393988337
20
143.98895280435238
10
76.299011393988309
20
147.98895280435241
10
73.299011393988536
20
147.98895280435241
10
73.299011393988124
20
149.48895280435244
10
70.29901139398811
20
149.48895280435244
10
70.299011393988138
20
147.98895280435241
10
65.299011393988138
20
147.98895280435238
10
65.29901139398811
20
154.98895280435244
10
89.299011393988081
20
154.98895280435255
10
89.29901139398811
20
138.98895280435244
10
82.949011393988101
20
138.98895280435238
10
82.949011393988116
20
135.98895280435235
10
77.949011393988144
20
135.98895280435232
10
77.94901139398813
20
137.48895280435232
10
74.949011393988116
20
137.48895280435232
10
74.949011393988116
20
135.98895280435232
10
71.949011393988116
20
135.98895280435227
10
71.949011393988144
20
131.98895280435224
10
74.949011393988144
20
131.98895280435227
10
74.949011393988116
20
130.48895280435227
10
77.949011393988187
20
130.48895280435227
0
CIRCLE
5
179
100
AcDbEntity
8
0
100
AcDbCircle
10
71.36707362656071
20
64.453660383450412
30
0
40
1.9999999999999836
0
CIRCLE
5
180
100
AcDbEntity
8
0
100
AcDbCircle
10
71.367073626560867
20
17.674660383450718
30
0
40
1.9999999999999836
0
ENDSEC
0
SECTION
2
OBJECTS
0
DICTIONARY
5
C
100
AcDbDictionary
3
ACAD_GROUP
350
D
3
ACAD_MLINESTYLE
350
17
0
DICTIONARY
5
D
100
AcDbDictionary
0
DICTIONARY
5
1A
330
C
100
AcDbDictionary
0
DICTIONARY
5
17
100
AcDbDictionary
0
ENDSEC
0
EOF
