0
SECTION
2
HEADER
9
$INSUNITS
70
4
9
$ACADVER
1
AC1014
9
$HANDSEED
5
FFFF
0
ENDSEC
0
SECTION
2
TABLES
0
TABLE
2
VPORT
5
8
100
AcDbSymbolTable
0
ENDTAB
0
TABLE
2
LTYPE
5
5
100
AcDbSymbolTable
0
LTYPE
5
14
100
AcDbSymbolTableRecord
100
AcDbLinetypeTableRecord
2
BYBLOCK
70
0
0
LTYPE
5
15
100
AcDbSymbolTableRecord
100
AcDbLinetypeTableRecord
2
BYLAYER
70
0
0
ENDTAB
0
TABLE
2
LAYER
5
2
100
AcDbSymbolTable
70
2
0
LAYER
5
50
100
AcDbSymbolTableRecord
100
AcDbLayerTableRecord
2
0
70
0
6
CONTINUOUS
0
ENDTAB
0
TABLE
2
STYLE
5
3
100
AcDbSymbolTable
70
1
0
STYLE
5
11
100
AcDbSymbolTableRecord
100
AcDbTextStyleTableRecord
2
STANDARD
70
0
0
ENDTAB
0
TABLE
2
VIEW
5
6
100
AcDbSymbolTable
70
0
0
ENDTAB
0
TABLE
2
UCS
5
7
100
AcDbSymbolTable
70
0
0
ENDTAB
0
TABLE
2
APPID
5
9
100
AcDbSymbolTable
70
2
0
APPID
5
12
100
AcDbSymbolTableRecord
100
AcDbRegAppTableRecord
2
ACAD
70
0
0
ENDTAB
0
TABLE
2
DIMSTYLE
5
A
100
AcDbSymbolTable
70
1
0
ENDTAB
0
TABLE
2
BLOCK_RECORD
5
1
100
AcDbSymbolTable
70
1
0
BLOCK_RECORD
5
1F
100
AcDbSymbolTableRecord
100
AcDbBlockTableRecord
2
*MODEL_SPACE
0
BLOCK_RECORD
5
1B
100
AcDbSymbolTableRecord
100
AcDbBlockTableRecord
2
*PAPER_SPACE
0
ENDTAB
0
ENDSEC
0
SECTION
2
BLOCKS
0
BLOCK
5
20
100
AcDbEntity
100
AcDbBlockBegin
2
*MODEL_SPACE
0
ENDBLK
5
21
100
AcDbEntity
100
AcDbBlockEnd
0
BLOCK
5
1C
100
AcDbEntity
100
AcDbBlockBegin
2
*PAPER_SPACE
0
ENDBLK
5
1D
100
AcDbEntity
100
AcDbBlockEnd
0
ENDSEC
0
SECTION
2
ENTITIES
0
LWPOLYLINE
5
100
100
AcDbEntity
8
0
100
AcDbPolyline
90
50
70
1
43
0.0
10
70.860886122992582
20
196.32814022639022
10
65.860886122992497
20
196.32814022639138
10
65.86088612299362
20
200.82814022639133
42
-0.41421356237309853
10
67.360886122993946
20
202.32814022639107
42
0.41421356237309331
10
68.86088612299433
20
203.82814022639076
10
68.860886122998181
20
219.82814022639025
42
-0.41421356237309165
10
70.360886122998579
20
221.32814022638993
10
83.510886122998201
20
221.32814022638681
10
83.510886122996922
20
214.32814022638672
10
78.510886122996823
20
214.32814022638848
10
78.510886122997164
20
215.82814022638848
10
75.510886122997107
20
215.82814022638922
10
75.510886122996737
20
214.32814022638919
10
72.510886122996681
20
214.32814022638985
10
72.510886122995714
20
210.32814022638985
10
75.510886122995785
20
210.32814022638914
10
75.51088612299543
20
208.82814022638911
10
78.510886122995473
20
208.82814022638851
10
78.510886122995828
20
210.32814022638854
10
83.510886122995913
20
210.32814022638735
10
83.510886122995188
20
207.32814022638732
10
89.860886122995282
20
207.32814022638578
10
89.860886122989015
20
181.32814022638544
10
83.510886122988921
20
181.32814022638695
10
83.510886122988211
20
178.32814022638686
10
78.510886122988126
20
178.32814022638811
10
78.510886122988495
20
179.82814022638814
10
75.510886122988424
20
179.82814022638883
10
75.510886122988097
20
178.32814022638883
10
72.510886122988026
20
178.32814022638956
10
72.510886122987074
20
174.32814022638951
10
75.510886122987145
20
174.32814022638877
10
75.510886122986847
20
172.82814022638874
10
78.510886122986904
20
172.82814022638803
10
78.510886122987259
20
174.32814022638806
10
83.510886122987358
20
174.32814022638684
10
83.510886122985667
20
167.32814022638681
10
59.510886122985312
20
167.32814022639243
10
59.510886122990655
20
189.32814022639275
10
65.860886122990777
20
189.32814022639127
10
65.860886122991474
20
192.3281402263913
10
70.860886122991545
20
192.32814022639016
10
70.860886122991161
20
190.8281402263901
10
73.860886122991232
20
190.82814022638939
10
73.860886122991602
20
192.32814022638939
10
76.860886122991658
20
192.32814022638874
10
76.860886122992653
20
196.3281402263888
10
73.860886122992582
20
196.32814022638951
10
73.860886122993008
20
197.82814022638951
10
70.860886122992952
20
197.82814022639019
0
CIRCLE
5
101
100
AcDbEntity
8
0
100
AcDbCircle
10
116.59998740580966
20
186.55637679498622
30
0
40
1.9999999999999929
0
CIRCLE
5
102
100
AcDbEntity
8
0
100
AcDbCircle
10
148.99998740580966
20
18.921376684014902
30
0
40
1.9999999999999929
0
CIRCLE
5
103
100
AcDbEntity
8
0
100
AcDbCircle
10
124.89998740580965
20
186.55637679498622
30
0
40
1.5000000000000036
0
LWPOLYLINE
5
104
100
AcDbEntity
8
0
100
AcDbPolyline
90
4
70
1
43
0.0
10
143.99998738009188
20
207.55637668401488
10
143.99998740580966
20
213.90637668401493
10
103.99998740580966
20
213.90637684601688
10
103.99998738009188
20
207.55637684601686
0
CIRCLE
5
105
100
AcDbEntity
8
0
100
AcDbCircle
10
131.39998740580964
20
41.556376794986193
30
0
40
2.0000046911114029
0
CIRCLE
5
106
100
AcDbEntity
8
0
100
AcDbCircle
10
123.09998740580964
20
41.556376794986193
30
0
40
1.4999934339541809
0
CIRCLE
5
107
100
AcDbEntity
8
0
100
AcDbCircle
10
98.999987405809662
20
210.7313768460169
30
0
40
1.9999999999999929
0
CIRCLE
5
108
100
AcDbEntity
8
0
100
AcDbCircle
10
98.999987405809662
20
18.921376684014902
30
0
40
1.9999999999999929
0
LWPOLYLINE
5
109
100
AcDbEntity
8
0
100
AcDbPolyline
90
4
70
1
43
0.0
10
143.99998740580966
20
22.096376684014913
10
103.99998740580966
20
22.096376684014913
10
103.99998740580966
20
15.746376685602392
10
143.99998740580966
20
15.746376685602392
0
CIRCLE
5
110
100
AcDbEntity
8
0
100
AcDbCircle
10
148.99998740580966
20
210.73137668401489
30
0
40
1.9999999999999929
0
LWPOLYLINE
5
111
100
AcDbEntity
8
0
100
AcDbPolyline
90
8
70
1
43
0.0
10
150.99998740580963
20
273.9063766840149
42
-0.41421356237309509
10
155.99998740580969
20
268.90637668401484
10
155.99998740580969
20
10.906376684014855
42
-0.41421356237309509
10
150.99998740580966
20
5.9063766840148446
10
96.999987405809691
20
5.9063766840148464
42
-0.41421356237309492
10
91.999987405809662
20
10.90637668401488
10
91.999987405809662
20
268.90637668401484
42
-0.41421356237309509
10
96.999987405809691
20
273.9063766840149
0
CIRCLE
5
112
100
AcDbEntity
8
0
100
AcDbCircle
10
212.45004233064591
20
242.00756736052023
30
0
40
1.9999999999999727
0
CIRCLE
5
113
100
AcDbEntity
8
0
100
AcDbCircle
10
190.62504233064615
20
223.00756736052048
30
0
40
6.2249999999999304
0
CIRCLE
5
114
100
AcDbEntity
8
0
100
AcDbCircle
10
168.80004233064639
20
242.0075673605204
30
0
40
1.9999999999999816
0
LWPOLYLINE
5
115
100
AcDbEntity
8
0
100
AcDbPolyline
90
16
70
1
43
0.0
10
215.6250423306459
20
264.00756736051994
10
215.62504233064587
20
237.00756736052026
10
209.27504233064596
20
237.00756736052028
10
209.27504233064599
20
215.00756736052051
10
171.97504233064626
20
215.00756736052065
10
171.97504233064635
20
237.0075673605204
10
165.62504233064644
20
237.00756736052043
10
165.62504233064644
20
264.00756736052011
42
-0.41421356237309509
10
170.62504233064641
20
269.00756736052011
10
170.87504233064641
20
269.00756736052011
42
-0.41421356237309509
10
175.87504233064635
20
264.00756736052011
10
175.87504233064632
20
257.00756736052023
42
0.99999999999999989
10
205.37504233064601
20
257.00756736052006
10
205.37504233064598
20
264.00756736051994
42
-0.41421356237309509
10
210.37504233064595
20
269.00756736051994
10
210.62504233064598
20
269.00756736051994
42
-0.41421356237309298
0
CIRCLE
5
116
100
AcDbEntity
8
0
100
AcDbCircle
10
213.00912524964403
20
157.69423323129297
30
0
40
2.0000000000000258
0
CIRCLE
5
117
100
AcDbEntity
8
0
100
AcDbCircle
10
175.6841252496254
20
199.1942332312982
30
0
40
2.0000000000000169
0
CIRCLE
5
118
100
AcDbEntity
8
0
100
AcDbCircle
10
169.35912524962424
20
157.69423323129234
30
0
40
2.0000000000000258
0
CIRCLE
5
119
100
AcDbEntity
8
0
100
AcDbCircle
10
191.18412524964373
20
158.69423323129854
30
0
40
4.0000000000000426
0
LWPOLYLINE
5
120
100
AcDbEntity
8
0
100
AcDbPolyline
90
4
70
1
43
0.0
10
209.83412524964407
20
152.69423323129294
10
209.83412524964444
20
126.69423323129303
10
216.18412524964447
20
126.69423323129311
10
216.18412524964413
20
152.69423323129305
0
CIRCLE
5
121
100
AcDbEntity
8
0
100
AcDbCircle
10
206.68412524962619
20
168.19423323129877
30
0
40
2.0000000000000169
0
CIRCLE
5
122
100
AcDbEntity
8
0
100
AcDbCircle
10
175.68412524962582
20
168.19423323129828
30
0
40
2.0000000000000169
0
LWPOLYLINE
5
123
100
AcDbEntity
8
0
100
AcDbPolyline
90
4
70
1
43
0.0
10
166.18412524962429
20
152.69423323129229
10
166.18412524962466
20
126.69423323129239
10
172.53412524962471
20
126.69423323129249
10
172.53412524962437
20
152.6942332312924
0
CIRCLE
5
124
100
AcDbEntity
8
0
100
AcDbCircle
10
206.68412524962577
20
199.19423323129863
30
0
40
2.0000000000000169
0
CIRCLE
5
125
100
AcDbEntity
8
0
100
AcDbCircle
10
191.18412524964342
20
183.69423323129848
30
0
40
11.250000000000135
0
CIRCLE
5
126
100
AcDbEntity
8
0
100
AcDbCircle
10
213.00912524964451
20
121.69423323129308
30
0
40
2.0000000000000258
0
CIRCLE
5
127
100
AcDbEntity
8
0
100
AcDbCircle
10
169.35912524962475
20
121.69423323129244
30
0
40
2.0000000000000258
0
LWPOLYLINE
5
128
100
AcDbEntity
8
0
100
AcDbPolyline
90
40
70
1
43
0.0
10
159.18412524964393
20
117.69423323133833
10
159.1841252496427
20
204.69423323130991
10
164.18412524964015
20
204.69423323133651
10
164.18412524966723
20
199.69423323133651
10
162.68412524968764
20
199.69423323132841
10
162.68412524968767
20
196.69423323132835
10
164.18412524966598
20
196.69423323133708
10
164.18412524968264
20
193.69423323133708
10
168.18412524968269
20
193.69423323135877
10
168.1841252496672
20
196.69423323135672
10
169.68412524966726
20
196.69423323135672
10
169.68412524965063
20
199.69423323136257
10
168.18412524967104
20
199.69423323135462
10
168.18412524964458
20
204.69423323135817
10
171.18412524964464
20
204.69423323137443
10
171.18412524961471
20
211.04423323159051
10
211.18412524961516
20
211.04423323159111
10
211.18412524964955
20
204.69423323159111
10
214.18412524964961
20
204.69423323160737
10
214.18412524967093
20
199.69423323160743
10
212.68412524967039
20
199.69423323159049
10
212.68412524968812
20
196.6942332315993
10
214.18412524968974
20
196.69423323160743
10
214.18412524970597
20
193.69423323160754
10
218.18412524970284
20
193.69423323162923
10
218.1841252496852
20
196.69423323162906
10
219.68412524968676
20
196.69423323163721
10
219.68412524967053
20
199.69423323163721
10
218.18412524967047
20
199.69423323162908
10
218.18412524964342
20
204.69423323162903
10
223.18412524964347
20
204.69423323165614
10
223.18412525011468
20
117.6942363748399
42
-0.41421339796308559
10
218.18412491361391
20
112.69423323162937
10
210.93412525014497
20
112.69423323159
42
-0.41421356237309298
10
205.9341252501186
20
117.69423323156218
10
205.93412525008068
20
124.6942332313786
42
0.99999999999999989
10
176.43412525007224
20
124.69423323121875
10
176.43412525011007
20
117.69423323140327
42
-0.41421356237309509
10
171.43412525013704
20
112.69423323137607
10
164.18412524967272
20
112.69423323133671
42
-0.41421356237467877
0
CIRCLE
5
129
100
AcDbEntity
8
0
100
AcDbCircle
10
196.88149525443552
20
97.883783413992873
30
0
40
2.0000030045312047
0
CIRCLE
5
130
100
AcDbEntity
8
0
100
AcDbCircle
10
184.18149557843947
20
97.883783413992873
30
0
40
2.0000030045311692
0
CIRCLE
5
131
100
AcDbEntity
8
0
100
AcDbCircle
10
190.53195652641602
20
35.075409062126468
30
0
40
5.4499956931714442
0
CIRCLE
5
132
100
AcDbEntity
8
0
100
AcDbCircle
10
190.53197166642536
20
60.075425767453353
30
0
40
6.2249930356317016
0
LINE
5
133
100
AcDbEntity
8
0
100
AcDbLine
10
170.73653508811557
20
97.024910658126871
30
0
11
158.71979945112511
21
36.03273888083335
31
0
0
SPLINE
5
134
100
AcDbEntity
8
0
100
AcDbSpline
70
1064
71
3
72
8
73
4
74
0
42
0.000000001
43
0.0000000001
44
0.0000000001
40
0
40
0
40
0
40
0
40
1
40
1
40
1
40
1
10
158.71979945112511
20
36.03273888083335
30
0
10
158.5943476201108
20
35.396010285966554
30
0
10
158.5312003994996
20
34.74859252470587
30
0
10
158.5312003994996
20
34.099625729037143
30
0
0
LINE
5
135
100
AcDbEntity
8
0
100
AcDbLine
10
158.5312003994996
20
34.099625729037143
30
0
11
158.5312709550534
21
14.075427218788867
31
0
0
LINE
5
136
100
AcDbEntity
8
0
100
AcDbLine
10
158.5312709550534
20
14.075427218788867
30
0
11
163.53094332750118
21
14.075427218788867
31
0
0
LINE
5
137
100
AcDbEntity
8
0
100
AcDbLine
10
163.53094332750118
20
14.075427218788867
30
0
11
163.53094332750118
21
19.075417091228477
31
0
0
LINE
5
138
100
AcDbEntity
8
0
100
AcDbLine
10
163.53094332750118
20
19.075417091228477
30
0
11
162.03093225465847
21
19.075417091228477
31
0
0
LINE
5
139
100
AcDbEntity
8
0
100
AcDbLine
10
162.03093225465847
20
19.075417091228477
30
0
11
162.03093225465847
21
22.075439236913752
31
0
0
LINE
5
140
100
AcDbEntity
8
0
100
AcDbLine
10
162.03093225465847
20
22.075439236913752
30
0
11
163.53094332750118
21
22.075439236913752
31
0
0
LINE
5
141
100
AcDbEntity
8
0
100
AcDbLine
10
163.53094332750118
20
22.075439236913752
30
0
11
163.53094332750118
21
25.075426104822149
31
0
0
LINE
5
142
100
AcDbEntity
8
0
100
AcDbLine
10
163.53094332750118
20
25.075426104822149
30
0
11
167.53094933656359
21
25.075426104822149
31
0
0
LINE
5
143
100
AcDbEntity
8
0
100
AcDbLine
10
167.53094933656359
20
25.075426104822149
30
0
11
167.53094933656357
21
22.075439236913734
31
0
0
LINE
5
144
100
AcDbEntity
8
0
100
AcDbLine
10
167.53094933656357
20
22.075439236913734
30
0
11
169.03092513162935
21
22.075439236913752
31
0
0
LINE
5
145
100
AcDbEntity
8
0
100
AcDbLine
10
169.03092513162935
20
22.075439236913752
30
0
11
169.03092513162937
21
19.075417091228477
31
0
0
LINE
5
146
100
AcDbEntity
8
0
100
AcDbLine
10
169.03092513162937
20
19.075417091228477
30
0
11
167.53094933656357
21
19.075417091228477
31
0
0
LINE
5
147
100
AcDbEntity
8
0
100
AcDbLine
10
167.53094933656357
20
19.075417091228477
30
0
11
167.53094933656357
21
14.075427218788867
31
0
0
LINE
5
148
100
AcDbEntity
8
0
100
AcDbLine
10
167.53094933656357
20
14.075427218788867
30
0
11
170.53132426001767
21
14.075427218788867
31
0
0
LINE
5
149
100
AcDbEntity
8
0
100
AcDbLine
10
170.53132426001767
20
14.075427218788867
30
0
11
170.53167703778652
21
7.7254273807908547
31
0
0
LINE
5
150
100
AcDbEntity
8
0
100
AcDbLine
10
170.53167703778652
20
7.7254273807908547
30
0
11
210.53156610483921
21
7.7253921030139594
31
0
0
LINE
5
151
100
AcDbEntity
8
0
100
AcDbLine
10
210.53156610483921
20
7.7253921030139594
30
0
11
210.53156610483921
21
14.075391941011954
31
0
0
LINE
5
152
100
AcDbEntity
8
0
100
AcDbLine
10
210.53156610483921
20
14.075391941011954
30
0
11
213.5323589963034
21
14.075391941011954
31
0
0
LINE
5
153
100
AcDbEntity
8
0
100
AcDbLine
10
213.5323589963034
20
14.075391941011954
30
0
11
213.5323589963034
21
19.075381813451653
31
0
0
LINE
5
154
100
AcDbEntity
8
0
100
AcDbLine
10
213.5323589963034
20
19.075381813451653
30
0
11
212.0323479234608
21
19.075381813451653
31
0
0
LINE
5
155
100
AcDbEntity
8
0
100
AcDbLine
10
212.0323479234608
20
19.075381813451653
30
0
11
212.0323479234608
21
22.07536868136005
31
0
0
LINE
5
156
100
AcDbEntity
8
0
100
AcDbLine
10
212.0323479234608
20
22.07536868136005
30
0
11
213.5323589963034
21
22.07536868136005
31
0
0
LINE
5
157
100
AcDbEntity
8
0
100
AcDbLine
10
213.5323589963034
20
22.07536868136005
30
0
11
213.5323589963034
21
25.075390827045361
31
0
0
LINE
5
158
100
AcDbEntity
8
0
100
AcDbLine
10
213.5323589963034
20
25.075390827045361
30
0
11
217.53236500536593
21
25.075390827045361
31
0
0
LINE
5
159
100
AcDbEntity
8
0
100
AcDbLine
10
217.53236500536593
20
25.075390827045361
30
0
11
217.53236500536593
21
22.07536868136005
31
0
0
LINE
5
160
100
AcDbEntity
8
0
100
AcDbLine
10
217.53236500536593
20
22.07536868136005
30
0
11
219.03234080043174
21
22.07536868136005
31
0
0
LINE
5
161
100
AcDbEntity
8
0
100
AcDbLine
10
219.03234080043174
20
22.07536868136005
30
0
11
219.03234080043174
21
19.075381813451653
31
0
0
LINE
5
162
100
AcDbEntity
8
0
100
AcDbLine
10
219.03234080043174
20
19.075381813451653
30
0
11
217.532329727589
21
19.075381813451653
31
0
0
LINE
5
163
100
AcDbEntity
8
0
100
AcDbLine
10
217.532329727589
20
19.075381813451653
30
0
11
217.532329727589
21
14.075391941011954
31
0
0
LINE
5
164
100
AcDbEntity
8
0
100
AcDbLine
10
217.532329727589
20
14.075391941011954
30
0
11
222.53196682225996
21
14.075356663235166
31
0
0
LINE
5
165
100
AcDbEntity
8
0
100
AcDbLine
10
222.53196682225996
20
14.075356663235166
30
0
11
222.53207265559055
21
34.099625729037143
31
0
0
SPLINE
5
166
100
AcDbEntity
8
0
100
AcDbSpline
70
1064
71
3
72
8
73
4
74
0
42
0.000000001
43
0.0000000001
44
0.0000000001
40
0
40
0
40
0
40
0
40
1
40
1
40
1
40
1
10
222.53207265559055
20
34.099625729037143
30
0
10
222.53207265559055
20
34.74859252470587
30
0
10
222.46889015720234
20
35.396010285966554
30
0
10
222.34344238262514
20
36.03273888083335
30
0
0
LINE
5
167
100
AcDbEntity
8
0
100
AcDbLine
10
222.3434423826252
20
36.03273888083335
30
0
11
210.32670268919748
21
97.024910658126871
31
0
0
SPLINE
5
168
100
AcDbEntity
8
0
100
AcDbSpline
70
1064
71
3
72
8
73
4
74
0
42
0.000000001
43
0.0000000001
44
0.0000000001
40
0
40
0
40
0
40
0
40
1
40
1
40
1
40
1
10
210.32670268919753
20
97.024910658126871
30
0
10
209.86495186764438
20
99.368660320554937
30
0
10
207.80980969785327
20
101.05839527744628
30
0
10
205.4210103143522
20
101.05839527744628
30
0
0
LINE
5
169
100
AcDbEntity
8
0
100
AcDbLine
10
205.4210103143522
20
101.05839527744627
30
0
11
175.64222746296093
21
101.05839527744628
31
0
0
SPLINE
5
170
100
AcDbEntity
8
0
100
AcDbSpline
70
1064
71
3
72
8
73
4
74
0
42
0.000000001
43
0.0000000001
44
0.0000000001
40
0
40
0
40
0
40
0
40
1
40
1
40
1
40
1
10
175.64222746296093
20
101.05839527744628
30
0
10
173.25346335723674
20
101.05839527744628
30
0
10
171.19832118744546
20
99.368660320554937
30
0
10
170.73653508811557
20
97.024910658126871
30
0
0
CIRCLE
5
171
100
AcDbEntity
8
0
100
AcDbCircle
10
61.588073626560941
20
27.453660383450611
30
0
40
1.9999999999999836
0
CIRCLE
5
172
100
AcDbEntity
8
0
100
AcDbCircle
10
71.367073626560853
20
27.453660383450654
30
0
40
6.3499999999999668
0
CIRCLE
5
173
100
AcDbEntity
8
0
100
AcDbCircle
10
71.367073626560725
20
52.453660383450497
30
0
40
7.4999999999999645
0
CIRCLE
5
174
100
AcDbEntity
8
0
100
AcDbCircle
10
59.367073626560789
20
52.453660383450426
30
0
40
1.9999999999999836
0
CIRCLE
5
175
100
AcDbEntity
8
0
100
AcDbCircle
10
83.367073626560639
20
52.453660383450547
30
0
40
1.9999999999999836
0
CIRCLE
5
176
100
AcDbEntity
8
0
100
AcDbCircle
10
81.146073626560806
20
27.45366038345071
30
0
40
1.9999999999999836
0
LWPOLYLINE
5
177
100
AcDbEntity
8
0
100
AcDbPolyline
90
10
70
1
43
0.0
10
63.367073626354738
20
94.453660869097263
10
63.367073626490679
20
79.453660383362859
42
0.41421356236999674
10
64.367073626389143
20
78.453660383472027
10
78.367073626596863
20
78.45366038345179
42
0.41421356237290252
10
79.367073626496449
20
79.453660383348449
10
79.3670736264894
20
94.453680789795641
42
-0.9999998803259621
10
87.367073626560412
20
94.453640934497272
10
87.367073626566864
20
23.45368893671473
42
-1.0000053696608269
10
55.367073626592315
20
23.453803658871763
10
55.367073626604039
20
94.453659982140493
42
-0.99999998946328772
0
LWPOLYLINE
5
178
100
AcDbEntity
8
0
100
AcDbPolyline
90
50
70
1
43
0.0
10
77.949011393988144
20
130.0095713610533
10
82.949011393988144
20
130.00957136105333
10
82.949011393988172
20
125.50957136105339
42
-0.41421356237309853
10
81.449011393988201
20
124.0095713610533
42
0.41421356237310197
10
79.949011393988215
20
122.50957136105329
10
79.949011393988329
20
106.50957136105389
42
-0.4142135623730881
10
78.449011393988314
20
105.00957136105386
10
65.299011393988906
20
105.00957136105379
10
65.299011393988465
20
112.00957136105384
10
70.299011393988465
20
112.0095713610533
10
70.299011393988508
20
110.50957136105328
10
73.299011393988508
20
110.5095713610533
10
73.299011393988508
20
112.0095713610533
10
76.299011393988522
20
112.00957136105333
10
76.299011393988494
20
116.00957136105337
10
73.299011393988479
20
116.0095713610533
10
73.299011393988465
20
117.50957136105333
10
70.299011393988465
20
117.50957136105325
10
70.299011393988479
20
116.00957136105322
10
65.299011393988479
20
116.0095713610532
10
65.299011393988451
20
119.00957136105325
10
58.949011393988471
20
119.00957136105322
10
58.949011393988343
20
145.00957136105339
10
65.299011393988337
20
145.00957136105345
10
65.299011393988309
20
148.00957136105347
10
70.299011393988295
20
148.00957136105347
10
70.299011393988295
20
146.50957136105345
10
73.299011393988309
20
146.50957136105345
10
73.299011393988266
20
148.00957136105347
10
76.299011393988266
20
148.00957136105345
10
76.299011393988238
20
152.00957136105347
10
73.299011393988252
20
152.0095713610535
10
73.299011393988167
20
153.50957136105353
10
70.299011393988152
20
153.5095713610535
10
70.299011393988167
20
152.00957136105347
10
65.299011393988181
20
152.00957136105347
10
65.299011393988152
20
159.0095713610535
10
89.299011393988081
20
159.00957136105364
10
89.299011393988152
20
137.00957136105347
10
82.949011393988116
20
137.00957136105339
10
82.949011393988187
20
134.00957136105336
10
77.949011393988187
20
134.00957136105333
10
77.949011393988187
20
135.50957136105336
10
74.949011393988187
20
135.50957136105336
10
74.949011393988187
20
134.00957136105333
10
71.949011393988172
20
134.00957136105328
10
71.949011393988172
20
130.00957136105325
10
74.949011393988187
20
130.0095713610533
10
74.949011393988158
20
128.50957136105328
10
77.949011393988158
20
128.5095713610533
0
ENDSEC
0
SECTION
2
OBJECTS
0
DICTIONARY
5
C
100
AcDbDictionary
3
ACAD_GROUP
350
D
3
ACAD_MLINESTYLE
350
17
0
DICTIONARY
5
D
100
AcDbDictionary
0
DICTIONARY
5
1A
330
C
100
AcDbDictionary
0
DICTIONARY
5
17
100
AcDbDictionary
0
ENDSEC
0
EOF
