0
SECTION
2
HEADER
9
$INSUNITS
70
4
9
$ACADVER
1
AC1014
9
$HANDSEED
5
FFFF
0
ENDSEC
0
SECTION
2
TABLES
0
TABLE
2
VPORT
5
8
100
AcDbSymbolTable
0
ENDTAB
0
TABLE
2
LTYPE
5
5
100
AcDbSymbolTable
0
LTYPE
5
14
100
AcDbSymbolTableRecord
100
AcDbLinetypeTableRecord
2
BYBLOCK
70
0
0
LTYPE
5
15
100
AcDbSymbolTableRecord
100
AcDbLinetypeTableRecord
2
BYLAYER
70
0
0
LTYPE
5
16
100
AcDbSymbolTableRecord
100
AcDbLinetypeTableRecord
2
DASHED
70
0
3
Dashed __ __ __ __ __ __ __ __ __ __ __ __ __ _
72
65
73
2
40
0.75
49
0.5
74
0
49
-0.25
74
0
0
ENDTAB
0
TABLE
2
LAYER
5
2
100
AcDbSymbolTable
70
3
0
LAYER
5
50
100
AcDbSymbolTableRecord
100
AcDbLayerTableRecord
2
1
70
0
62
7
6
DASHED
0
LAYER
5
51
100
AcDbSymbolTableRecord
100
AcDbLayerTableRecord
2
0
70
0
62
7
6
CONTINUOUS
0
ENDTAB
0
TABLE
2
STYLE
5
3
100
AcDbSymbolTable
70
1
0
STYLE
5
11
100
AcDbSymbolTableRecord
100
AcDbTextStyleTableRecord
2
STANDARD
70
0
0
ENDTAB
0
TABLE
2
VIEW
5
6
100
AcDbSymbolTable
70
0
0
ENDTAB
0
TABLE
2
UCS
5
7
100
AcDbSymbolTable
70
0
0
ENDTAB
0
TABLE
2
APPID
5
9
100
AcDbSymbolTable
70
2
0
APPID
5
12
100
AcDbSymbolTableRecord
100
AcDbRegAppTableRecord
2
ACAD
70
0
0
ENDTAB
0
TABLE
2
DIMSTYLE
5
A
100
AcDbSymbolTable
70
1
0
ENDTAB
0
TABLE
2
BLOCK_RECORD
5
1
100
AcDbSymbolTable
70
1
0
BLOCK_RECORD
5
1F
100
AcDbSymbolTableRecord
100
AcDbBlockTableRecord
2
*MODEL_SPACE
0
BLOCK_RECORD
5
1B
100
AcDbSymbolTableRecord
100
AcDbBlockTableRecord
2
*PAPER_SPACE
0
ENDTAB
0
ENDSEC
0
SECTION
2
BLOCKS
0
BLOCK
5
20
100
AcDbEntity
100
AcDbBlockBegin
2
*MODEL_SPACE
0
ENDBLK
5
21
100
AcDbEntity
100
AcDbBlockEnd
0
BLOCK
5
1C
100
AcDbEntity
100
AcDbBlockBegin
2
*PAPER_SPACE
0
ENDBLK
5
1D
100
AcDbEntity
100
AcDbBlockEnd
0
ENDSEC
0
SECTION
2
ENTITIES
0
LWPOLYLINE
5
100
100
AcDbEntity
8
OUTER_PROFILES
100
AcDbPolyline
90
66
70
1
43
0.0
10
155.48168080610591
20
84.980516869743695
42
-0.57735026918962862
10
156.98168080610591
20
85.846542273528129
42
-0.23197781749355831
10
161.39929119230243
20
79.267313639468185
10
165.41221586609083
20
49.814063639468188
42
-0.067810381731261513
10
165.41221586609083
20
46.290563639468175
10
161.39929119230243
20
16.837313639468185
42
-0.23197781749355886
10
156.98168080610589
20
10.258085005408235
42
-0.57735026918962651
10
155.48168080610589
20
11.124110409192689
10
155.48168080610589
20
12.035618117838391
42
-0.25110551942916198
10
155.92804758811283
20
12.868378743669503
42
3.3104238804074413
10
149.03531402409897
20
12.86837874366951
42
-0.25110551942915754
10
149.48168080610589
20
12.035618117838393
10
149.48168080610589
20
10.921039886246504
42
-0.50461444530969879
10
148.18756233579694
20
9.9652709155097856
10
140.84636652034669
20
12.224374683876004
42
-0.073092743549729208
10
131.65668080610627
20
16.60086460816477
10
123.99999999999999
20
16.600864608164784
10
124
20
5.9999999999999964
42
-0.41421356237309509
10
117.99999999999999
20
-4.4408920985006262e-15
10
0
20
-4.4408920985006262e-15
42
-0.41421356237309453
10
-5.9999999999999867
20
6.0000000000000009
10
-6.000000000000024
20
16.60086460816478
10
-13.656680806106248
20
16.600864608164795
42
-0.073092743549728542
10
-22.846366520346628
20
12.224374683876093
10
-30.187562335797299
20
9.9652709155097607
42
-0.50461444530970267
10
-31.481680806106262
20
10.921039886246477
10
-31.481680806106269
20
12.035618117838398
42
-0.25110551942915782
10
-31.03531402409935
20
12.868378743669508
42
3.31092359703631
10
-37.927181193145628
20
12.867802854166296
42
-0.25067450090420157
10
-37.480676831661235
20
12.036738813904289
10
-37.478211850936631
20
10.658962491160668
42
-0.46955737519150048
10
-38.660591439099143
20
9.6739454938792964
10
-71.242967441644566
20
15.717724832033319
42
-0.3614596420684032
10
-74.431680806106243
20
19.552313681871897
10
-74.431680806117583
20
30.502313639464134
42
-0.41421356237309553
10
-71.93168080612017
20
33.002313639466735
10
-70.531680806121855
20
33.002313639468156
42
0.99999999999999989
10
-70.531680806090634
20
63.102313639468157
10
-71.931680806120184
20
63.102313639469671
42
-0.41421356237309298
10
-74.431680806117569
20
65.602313639472257
10
-74.431680806106215
20
76.552313639472288
42
-0.36145963899478167
10
-71.242967441644552
20
80.386902446903079
10
-38.664061994705662
20
86.430038023767622
42
-0.46901159807878662
10
-37.481680806106269
20
85.446810124425326
10
-37.481680806106269
20
84.069009161097995
42
-0.25110551942916154
10
-37.928047588113188
20
83.236248535266867
42
3.3104238804074497
10
-31.035314024099346
20
83.236248535266867
42
-0.25110551942916048
10
-31.481680806106272
20
84.069009161097981
10
-31.481680806106272
20
85.183587392689901
42
-0.50461444530970267
10
-30.18756233579731
20
86.139356363426614
10
-22.84636652034656
20
83.880252595060242
42
-0.07309274354972807
10
-13.656680806106253
20
79.503762670771607
10
-6.0000000000000195
20
79.503762670771579
10
-6.000000000000032
20
90.104627278936391
42
-0.41421356237309581
10
-1.4356204150021172e-14
20
96.104627278936391
10
118.00000000000003
20
96.104627278936391
42
-0.41421356237309509
10
124
20
90.104627278936377
10
123.99999999999999
20
79.503762670771593
10
131.65668080610627
20
79.503762670771593
42
-0.073092743549729208
10
140.84636652034669
20
83.880252595060384
10
148.18756233579694
20
86.139356363426657
42
-0.50461444530969879
10
149.48168080610589
20
85.18358739268993
10
149.48168080610589
20
84.069009161097981
42
-0.25110551942916143
10
149.03531402409897
20
83.236248535266867
42
3.3104238804074364
10
155.92804758811283
20
83.236248535266867
42
-0.25110551942915404
10
155.48168080610591
20
84.069009161097938
0
CIRCLE
5
101
100
AcDbEntity
8
INTERIOR_PROFILES
100
AcDbCircle
10
-2.524999999999995
20
70.552313639468181
30
0
40
1.5875000000000039
210
0
220
0
230
-1
0
CIRCLE
5
102
100
AcDbEntity
8
INTERIOR_PROFILES
100
AcDbCircle
10
-2.5249999999999972
20
25.552313639468181
30
0
40
1.5875000000000039
210
0
220
0
230
-1
0
LWPOLYLINE
5
103
100
AcDbEntity
8
INTERIOR_PROFILES
100
AcDbPolyline
90
4
70
1
43
0.0
10
-18.981680806106262
20
65.15231363946819
10
-20.58168080610627
20
65.15231363946819
42
3.6308309532662353
10
-20.581680806106263
20
61.952313639468187
10
-18.981680806106262
20
61.952313639468187
42
0.99999999999999989
0
CIRCLE
5
104
100
AcDbEntity
8
INTERIOR_PROFILES
100
AcDbCircle
10
-27.524999999999991
20
25.552313639468171
30
0
40
1.5874999999999995
210
0
220
0
230
-1
0
CIRCLE
5
105
100
AcDbEntity
8
INTERIOR_PROFILES
100
AcDbCircle
10
-27.524999999999984
20
70.552313639468196
30
0
40
1.5874999999999995
210
0
220
0
230
-1
0
CIRCLE
5
106
100
AcDbEntity
8
INTERIOR_PROFILES
100
AcDbCircle
10
-115.47499999999999
20
25.552313639468185
30
0
40
1.5875000000000128
210
0
220
0
230
-1
0
CIRCLE
5
107
100
AcDbEntity
8
INTERIOR_PROFILES
100
AcDbCircle
10
-115.47499999999999
20
70.552313639468181
30
0
40
1.5875000000000128
210
0
220
0
230
-1
0
CIRCLE
5
108
100
AcDbEntity
8
INTERIOR_PROFILES
100
AcDbCircle
10
-136.98168080610628
20
63.552313639468196
30
0
40
3.0000000000000071
210
0
220
0
230
-1
0
CIRCLE
5
109
100
AcDbEntity
8
INTERIOR_PROFILES
100
AcDbCircle
10
-136.98168080610628
20
32.552313639468188
30
0
40
2.9999999999999982
210
0
220
0
230
-1
0
LWPOLYLINE
5
110
100
AcDbEntity
8
INTERIOR_PROFILES
100
AcDbPolyline
90
8
70
1
43
0.0
10
5.7750000000000012
20
50.55231363946816
10
5.774999999999995
20
45.552313639468224
42
0.4142135623730947
10
6.7749999999999897
20
44.552313639468224
10
11.774999999999984
20
44.552313639468217
42
0.41421356237309437
10
12.774999999999983
20
45.55231363946821
10
12.774999999999967
20
50.552313639468167
42
0.4142135623730957
10
11.774999999999959
20
51.552313639468167
10
6.774999999999995
20
51.552313639468153
42
0.41421356237309437
0
LWPOLYLINE
5
111
100
AcDbEntity
8
INTERIOR_PROFILES
100
AcDbPolyline
90
8
70
1
43
0.0
10
118.27500000000001
20
50.552313639468174
42
0.41421356237309509
10
117.27500000000001
20
51.552313639468174
10
112.27500000000001
20
51.552313639468181
42
0.41421356237309509
10
111.27500000000001
20
50.552313639468181
10
111.27500000000001
20
45.552313639468181
42
0.41421356237309509
10
112.27500000000001
20
44.552313639468188
10
117.27500000000001
20
44.552313639468188
42
0.41421356237309509
10
118.27500000000001
20
45.552313639468181
0
LWPOLYLINE
5
112
100
AcDbEntity
8
INTERIOR_PROFILES
100
AcDbPolyline
90
4
70
1
43
0.0
10
-20.58168080610627
20
30.952313639468187
42
-3.6308309532662353
10
-20.58168080610627
20
34.15231363946819
10
-18.981680806106262
20
34.15231363946819
42
-0.99999999999999989
10
-18.981680806106258
20
30.952313639468187
0
CIRCLE
5
113
100
AcDbEntity
8
INTERIOR_PROFILES
100
AcDbCircle
10
70.531680806106223
20
76.552313639468252
30
0
40
1.2000000000000011
210
0
220
0
230
-1
0
CIRCLE
5
114
100
AcDbEntity
8
INTERIOR_PROFILES
100
AcDbCircle
10
-152.48168080610589
20
34.052313639468181
30
0
40
1.2000000000000011
210
0
220
0
230
-1
0
LWPOLYLINE
5
115
100
AcDbEntity
8
INTERIOR_PROFILES
100
AcDbPolyline
90
4
70
1
43
0.0
10
-34.481680806106276
20
59.302313639468181
10
-38.766010331332275
20
59.302313639468181
42
0.99999999999999989
10
-38.766010331332275
20
36.802313639468188
10
-34.481680806106262
20
36.802313639468181
42
0.99999999999999989
0
CIRCLE
5
116
100
AcDbEntity
8
INTERIOR_PROFILES
100
AcDbCircle
10
49.981680806106269
20
63.552313639468196
30
0
40
1.6000000000000014
210
0
220
0
230
-1
0
CIRCLE
5
117
100
AcDbEntity
8
INTERIOR_PROFILES
100
AcDbCircle
10
-152.48168080610589
20
48.052313639468181
30
0
40
7.0000000000000018
210
0
220
0
230
-1
0
CIRCLE
5
118
100
AcDbEntity
8
INTERIOR_PROFILES
100
AcDbCircle
10
70.531680806106237
20
19.55231363946816
30
0
40
1.2000000000000011
210
0
220
0
230
-1
0
CIRCLE
5
119
100
AcDbEntity
8
INTERIOR_PROFILES
100
AcDbCircle
10
49.981680806106269
20
32.552313639468188
30
0
40
1.6000000000000014
210
0
220
0
230
-1
0
CIRCLE
5
120
100
AcDbEntity
8
INTERIOR_PROFILES
100
AcDbCircle
10
-152.48168080610589
20
62.052313639468188
30
0
40
1.2000000000000011
210
0
220
0
230
-1
0
LINE
5
121
100
AcDbEntity
8
BEND
100
AcDbLine
10
-10.065840403053121
20
79.503762670771593
30
1.1102230246251565e-15
11
-10.065840403053121
21
16.60086460816478
31
1.1102230246251565e-15
0
LINE
5
122
100
AcDbEntity
8
BEND
100
AcDbLine
10
123.99999999999999
20
81.578470459202279
30
1.1102230246251565e-15
11
-6.0000000000000142
21
81.578470459202279
31
1.1102230246251565e-15
0
LINE
5
123
100
AcDbEntity
8
BEND
100
AcDbLine
10
128.06584040305319
20
16.60086460816478
30
1.1102230246251565e-15
11
128.06584040305319
21
79.503762670771579
31
1.1102230246251565e-15
0
LINE
5
124
100
AcDbEntity
8
BEND
100
AcDbLine
10
-6.000000000000024
20
14.526156819734087
30
1.1102230246251565e-15
11
123.99999999999999
21
14.526156819734087
31
1.1102230246251565e-15
0
LINE
5
125
100
AcDbEntity
8
BEND_EXTENT
100
AcDbLine
10
123.99999999999999
20
12.451449031303392
30
0
11
-6.0000000000000142
21
12.451449031303392
31
0
0
LINE
5
126
100
AcDbEntity
8
BEND_EXTENT
100
AcDbLine
10
-6.0000000000000222
20
83.653178247632979
30
4.4408920985006262e-15
11
123.99999999999999
21
83.653178247632979
31
4.4408920985006262e-15
0
LINE
5
127
100
AcDbEntity
8
BEND_EXTENT
100
AcDbLine
10
-6.000000000000024
20
16.60086460816478
30
1.1102230246251565e-15
11
123.99999999999999
21
16.600864608164784
31
1.1102230246251565e-15
0
LINE
5
128
100
AcDbEntity
8
BEND_EXTENT
100
AcDbLine
10
123.99999999999999
20
79.503762670771593
30
1.1102230246251565e-15
11
-6.0000000000000142
21
79.503762670771579
31
1.1102230246251565e-15
0
LINE
5
129
100
AcDbEntity
8
BEND_EXTENT
100
AcDbLine
10
131.65668080610627
20
79.503762670771593
30
8.8817841970012523e-15
11
131.65668080610627
21
16.60086460816478
31
8.8817841970012523e-15
0
LINE
5
130
100
AcDbEntity
8
BEND_EXTENT
100
AcDbLine
10
124.47500000000002
20
16.600864608164784
30
0
11
124.47500000000002
21
79.503762670771593
31
0
0
LINE
5
131
100
AcDbEntity
8
BEND_EXTENT
100
AcDbLine
10
-6.475000000000005
20
79.503762670771579
30
0
11
-6.4750000000000005
21
16.60086460816478
31
0
0
LINE
5
132
100
AcDbEntity
8
BEND_EXTENT
100
AcDbLine
10
-13.656680806106252
20
16.600864608164784
30
8.8817841970012523e-15
11
-13.656680806106255
21
79.503762670771593
31
8.8817841970012523e-15
0
ENDSEC
0
SECTION
2
OBJECTS
0
DICTIONARY
5
C
100
AcDbDictionary
3
ACAD_GROUP
350
D
3
ACAD_MLINESTYLE
350
17
0
DICTIONARY
5
D
100
AcDbDictionary
0
DICTIONARY
5
1A
330
C
100
AcDbDictionary
0
DICTIONARY
5
17
100
AcDbDictionary
0
ENDSEC
0
EOF
