ISO-10303-21;
HEADER;
/* Generated by software containing ST-Developer
 * from STEP Tools, Inc. (www.steptools.com) 
 */

FILE_DESCRIPTION(
/* description */ ('',
'CAx-IF Rec.Pracs.---Representation and Presentation of Product Manufa
cturing Information (PMI)---4.0---2014-10-13'),
/* implementation_level */ '2;1');

FILE_NAME(
/* name */ 'carriage_250108.step',
/* time_stamp */ '2025-01-08T14:53:59-05:00',
/* author */ (''),
/* organization */ (''),
/* preprocessor_version */ 'ST-DEVELOPER v20',
/* originating_system */ 'Autodesk Translation Framework v13.20.0.188',

/* authorisation */ '');

FILE_SCHEMA (('AP242_MANAGED_MODEL_BASED_3D_ENGINEERING_MIM_LF { 1 0 10303 442 1 1 4 }'));
ENDSEC;

DATA;
#10=MECHANICAL_DESIGN_GEOMETRIC_PRESENTATION_REPRESENTATION('',(#13),#1409);
#11=SHAPE_REPRESENTATION_RELATIONSHIP('SRR','None',#1415,#12);
#12=ADVANCED_BREP_SHAPE_REPRESENTATION('',(#14),#1408);
#13=STYLED_ITEM('',(#1428),#14);
#14=MANIFOLD_SOLID_BREP('Body1',#817);
#15=FACE_BOUND('',#96,.T.);
#16=FACE_BOUND('',#97,.T.);
#17=FACE_BOUND('',#98,.T.);
#18=FACE_BOUND('',#99,.T.);
#19=FACE_BOUND('',#100,.T.);
#20=FACE_BOUND('',#101,.T.);
#21=FACE_BOUND('',#102,.T.);
#22=FACE_BOUND('',#103,.T.);
#23=FACE_BOUND('',#104,.T.);
#24=FACE_BOUND('',#105,.T.);
#25=FACE_BOUND('',#106,.T.);
#26=FACE_BOUND('',#107,.T.);
#27=FACE_BOUND('',#108,.T.);
#28=FACE_BOUND('',#109,.T.);
#29=FACE_BOUND('',#147,.T.);
#30=FACE_BOUND('',#148,.T.);
#31=FACE_BOUND('',#149,.T.);
#32=FACE_BOUND('',#150,.T.);
#33=FACE_BOUND('',#151,.T.);
#34=FACE_BOUND('',#152,.T.);
#35=FACE_BOUND('',#153,.T.);
#36=FACE_BOUND('',#154,.T.);
#37=FACE_BOUND('',#155,.T.);
#38=FACE_BOUND('',#156,.T.);
#39=FACE_BOUND('',#157,.T.);
#40=FACE_BOUND('',#158,.T.);
#41=FACE_BOUND('',#159,.T.);
#42=FACE_BOUND('',#160,.T.);
#43=PLANE('',#825);
#44=PLANE('',#856);
#45=PLANE('',#859);
#46=PLANE('',#864);
#47=PLANE('',#865);
#48=PLANE('',#866);
#49=PLANE('',#867);
#50=PLANE('',#914);
#51=PLANE('',#917);
#52=PLANE('',#918);
#53=FACE_OUTER_BOUND('',#93,.T.);
#54=FACE_OUTER_BOUND('',#94,.T.);
#55=FACE_OUTER_BOUND('',#95,.T.);
#56=FACE_OUTER_BOUND('',#110,.T.);
#57=FACE_OUTER_BOUND('',#111,.T.);
#58=FACE_OUTER_BOUND('',#112,.T.);
#59=FACE_OUTER_BOUND('',#113,.T.);
#60=FACE_OUTER_BOUND('',#114,.T.);
#61=FACE_OUTER_BOUND('',#115,.T.);
#62=FACE_OUTER_BOUND('',#116,.T.);
#63=FACE_OUTER_BOUND('',#117,.T.);
#64=FACE_OUTER_BOUND('',#118,.T.);
#65=FACE_OUTER_BOUND('',#119,.T.);
#66=FACE_OUTER_BOUND('',#120,.T.);
#67=FACE_OUTER_BOUND('',#121,.T.);
#68=FACE_OUTER_BOUND('',#122,.T.);
#69=FACE_OUTER_BOUND('',#123,.T.);
#70=FACE_OUTER_BOUND('',#124,.T.);
#71=FACE_OUTER_BOUND('',#125,.T.);
#72=FACE_OUTER_BOUND('',#126,.T.);
#73=FACE_OUTER_BOUND('',#127,.T.);
#74=FACE_OUTER_BOUND('',#128,.T.);
#75=FACE_OUTER_BOUND('',#129,.T.);
#76=FACE_OUTER_BOUND('',#130,.T.);
#77=FACE_OUTER_BOUND('',#131,.T.);
#78=FACE_OUTER_BOUND('',#132,.T.);
#79=FACE_OUTER_BOUND('',#133,.T.);
#80=FACE_OUTER_BOUND('',#134,.T.);
#81=FACE_OUTER_BOUND('',#135,.T.);
#82=FACE_OUTER_BOUND('',#136,.T.);
#83=FACE_OUTER_BOUND('',#137,.T.);
#84=FACE_OUTER_BOUND('',#138,.T.);
#85=FACE_OUTER_BOUND('',#139,.T.);
#86=FACE_OUTER_BOUND('',#140,.T.);
#87=FACE_OUTER_BOUND('',#141,.T.);
#88=FACE_OUTER_BOUND('',#142,.T.);
#89=FACE_OUTER_BOUND('',#143,.T.);
#90=FACE_OUTER_BOUND('',#144,.T.);
#91=FACE_OUTER_BOUND('',#145,.T.);
#92=FACE_OUTER_BOUND('',#146,.T.);
#93=EDGE_LOOP('',(#519,#520,#521,#522));
#94=EDGE_LOOP('',(#523,#524,#525,#526));
#95=EDGE_LOOP('',(#527,#528,#529,#530,#531,#532,#533,#534,#535,#536,#537,
#538,#539,#540,#541,#542,#543,#544,#545,#546,#547,#548,#549,#550));
#96=EDGE_LOOP('',(#551));
#97=EDGE_LOOP('',(#552));
#98=EDGE_LOOP('',(#553));
#99=EDGE_LOOP('',(#554));
#100=EDGE_LOOP('',(#555));
#101=EDGE_LOOP('',(#556));
#102=EDGE_LOOP('',(#557));
#103=EDGE_LOOP('',(#558));
#104=EDGE_LOOP('',(#559));
#105=EDGE_LOOP('',(#560));
#106=EDGE_LOOP('',(#561));
#107=EDGE_LOOP('',(#562));
#108=EDGE_LOOP('',(#563));
#109=EDGE_LOOP('',(#564));
#110=EDGE_LOOP('',(#565,#566,#567,#568));
#111=EDGE_LOOP('',(#569,#570,#571,#572));
#112=EDGE_LOOP('',(#573,#574,#575,#576));
#113=EDGE_LOOP('',(#577,#578,#579,#580));
#114=EDGE_LOOP('',(#581,#582,#583,#584));
#115=EDGE_LOOP('',(#585,#586,#587,#588));
#116=EDGE_LOOP('',(#589,#590,#591,#592));
#117=EDGE_LOOP('',(#593,#594,#595,#596));
#118=EDGE_LOOP('',(#597,#598,#599,#600));
#119=EDGE_LOOP('',(#601,#602,#603,#604));
#120=EDGE_LOOP('',(#605,#606,#607,#608));
#121=EDGE_LOOP('',(#609,#610,#611,#612));
#122=EDGE_LOOP('',(#613,#614,#615,#616));
#123=EDGE_LOOP('',(#617,#618,#619,#620));
#124=EDGE_LOOP('',(#621,#622,#623,#624));
#125=EDGE_LOOP('',(#625,#626,#627,#628));
#126=EDGE_LOOP('',(#629,#630,#631,#632));
#127=EDGE_LOOP('',(#633,#634,#635,#636));
#128=EDGE_LOOP('',(#637,#638,#639,#640));
#129=EDGE_LOOP('',(#641,#642,#643,#644));
#130=EDGE_LOOP('',(#645,#646,#647,#648));
#131=EDGE_LOOP('',(#649,#650,#651,#652));
#132=EDGE_LOOP('',(#653,#654,#655,#656));
#133=EDGE_LOOP('',(#657,#658,#659,#660));
#134=EDGE_LOOP('',(#661,#662,#663,#664));
#135=EDGE_LOOP('',(#665,#666,#667,#668));
#136=EDGE_LOOP('',(#669,#670,#671,#672));
#137=EDGE_LOOP('',(#673,#674,#675,#676));
#138=EDGE_LOOP('',(#677,#678,#679,#680));
#139=EDGE_LOOP('',(#681,#682,#683,#684));
#140=EDGE_LOOP('',(#685,#686,#687,#688));
#141=EDGE_LOOP('',(#689,#690,#691,#692));
#142=EDGE_LOOP('',(#693,#694,#695,#696));
#143=EDGE_LOOP('',(#697,#698,#699,#700));
#144=EDGE_LOOP('',(#701,#702,#703,#704));
#145=EDGE_LOOP('',(#705,#706,#707,#708));
#146=EDGE_LOOP('',(#709,#710,#711,#712,#713,#714,#715,#716,#717,#718,#719,
#720,#721,#722,#723,#724,#725,#726,#727,#728,#729,#730,#731,#732));
#147=EDGE_LOOP('',(#733));
#148=EDGE_LOOP('',(#734));
#149=EDGE_LOOP('',(#735));
#150=EDGE_LOOP('',(#736));
#151=EDGE_LOOP('',(#737));
#152=EDGE_LOOP('',(#738));
#153=EDGE_LOOP('',(#739));
#154=EDGE_LOOP('',(#740));
#155=EDGE_LOOP('',(#741));
#156=EDGE_LOOP('',(#742));
#157=EDGE_LOOP('',(#743));
#158=EDGE_LOOP('',(#744));
#159=EDGE_LOOP('',(#745));
#160=EDGE_LOOP('',(#746));
#161=LINE('',#1181,#215);
#162=LINE('',#1184,#216);
#163=LINE('',#1189,#217);
#164=LINE('',#1193,#218);
#165=LINE('',#1203,#219);
#166=LINE('',#1207,#220);
#167=LINE('',#1217,#221);
#168=LINE('',#1223,#222);
#169=LINE('',#1227,#223);
#170=LINE('',#1231,#224);
#171=LINE('',#1234,#225);
#172=LINE('',#1265,#226);
#173=LINE('',#1268,#227);
#174=LINE('',#1271,#228);
#175=LINE('',#1272,#229);
#176=LINE('',#1277,#230);
#177=LINE('',#1278,#231);
#178=LINE('',#1281,#232);
#179=LINE('',#1282,#233);
#180=LINE('',#1287,#234);
#181=LINE('',#1288,#235);
#182=LINE('',#1292,#236);
#183=LINE('',#1295,#237);
#184=LINE('',#1296,#238);
#185=LINE('',#1299,#239);
#186=LINE('',#1300,#240);
#187=LINE('',#1303,#241);
#188=LINE('',#1304,#242);
#189=LINE('',#1308,#243);
#190=LINE('',#1312,#244);
#191=LINE('',#1315,#245);
#192=LINE('',#1319,#246);
#193=LINE('',#1323,#247);
#194=LINE('',#1327,#248);
#195=LINE('',#1331,#249);
#196=LINE('',#1335,#250);
#197=LINE('',#1339,#251);
#198=LINE('',#1343,#252);
#199=LINE('',#1347,#253);
#200=LINE('',#1351,#254);
#201=LINE('',#1355,#255);
#202=LINE('',#1359,#256);
#203=LINE('',#1365,#257);
#204=LINE('',#1366,#258);
#205=LINE('',#1370,#259);
#206=LINE('',#1374,#260);
#207=LINE('',#1382,#261);
#208=LINE('',#1386,#262);
#209=LINE('',#1390,#263);
#210=LINE('',#1394,#264);
#211=LINE('',#1397,#265);
#212=LINE('',#1398,#266);
#213=LINE('',#1402,#267);
#214=LINE('',#1404,#268);
#215=VECTOR('',#925,3.);
#216=VECTOR('',#928,3.);
#217=VECTOR('',#933,10.);
#218=VECTOR('',#938,10.);
#219=VECTOR('',#947,10.);
#220=VECTOR('',#950,10.);
#221=VECTOR('',#959,10.);
#222=VECTOR('',#964,10.);
#223=VECTOR('',#967,10.);
#224=VECTOR('',#970,10.);
#225=VECTOR('',#973,10.);
#226=VECTOR('',#1004,10.);
#227=VECTOR('',#1007,10.);
#228=VECTOR('',#1010,10.);
#229=VECTOR('',#1011,10.);
#230=VECTOR('',#1016,10.);
#231=VECTOR('',#1017,10.);
#232=VECTOR('',#1020,10.);
#233=VECTOR('',#1021,10.);
#234=VECTOR('',#1026,3.);
#235=VECTOR('',#1027,3.);
#236=VECTOR('',#1034,10.);
#237=VECTOR('',#1037,10.);
#238=VECTOR('',#1038,10.);
#239=VECTOR('',#1041,10.);
#240=VECTOR('',#1042,10.);
#241=VECTOR('',#1045,10.);
#242=VECTOR('',#1046,10.);
#243=VECTOR('',#1051,3.);
#244=VECTOR('',#1056,3.);
#245=VECTOR('',#1059,1.2);
#246=VECTOR('',#1064,1.2);
#247=VECTOR('',#1069,7.55);
#248=VECTOR('',#1074,1.2);
#249=VECTOR('',#1079,1.6);
#250=VECTOR('',#1084,1.2);
#251=VECTOR('',#1089,1.2);
#252=VECTOR('',#1094,1.2);
#253=VECTOR('',#1099,1.6);
#254=VECTOR('',#1104,6.5);
#255=VECTOR('',#1109,7.55);
#256=VECTOR('',#1114,1.2);
#257=VECTOR('',#1121,10.);
#258=VECTOR('',#1122,10.);
#259=VECTOR('',#1127,10.);
#260=VECTOR('',#1132,10.);
#261=VECTOR('',#1145,10.);
#262=VECTOR('',#1150,10.);
#263=VECTOR('',#1155,10.);
#264=VECTOR('',#1160,10.);
#265=VECTOR('',#1163,10.);
#266=VECTOR('',#1164,10.);
#267=VECTOR('',#1169,10.);
#268=VECTOR('',#1172,10.);
#269=CIRCLE('',#820,3.);
#270=CIRCLE('',#821,3.);
#271=CIRCLE('',#823,3.);
#272=CIRCLE('',#824,3.);
#273=CIRCLE('',#826,16.);
#274=CIRCLE('',#827,10.);
#275=CIRCLE('',#828,12.);
#276=CIRCLE('',#829,5.);
#277=CIRCLE('',#830,15.5);
#278=CIRCLE('',#831,5.);
#279=CIRCLE('',#832,12.);
#280=CIRCLE('',#833,10.);
#281=CIRCLE('',#834,16.);
#282=CIRCLE('',#835,3.);
#283=CIRCLE('',#836,3.);
#284=CIRCLE('',#837,3.);
#285=CIRCLE('',#838,18.5);
#286=CIRCLE('',#839,3.);
#287=CIRCLE('',#840,1.2);
#288=CIRCLE('',#841,1.2);
#289=CIRCLE('',#842,7.55);
#290=CIRCLE('',#843,1.2);
#291=CIRCLE('',#844,1.6);
#292=CIRCLE('',#845,1.2);
#293=CIRCLE('',#846,1.2);
#294=CIRCLE('',#847,1.2);
#295=CIRCLE('',#848,1.6);
#296=CIRCLE('',#849,6.5);
#297=CIRCLE('',#850,7.55);
#298=CIRCLE('',#851,1.2);
#299=CIRCLE('',#852,3.);
#300=CIRCLE('',#853,3.);
#301=CIRCLE('',#855,3.);
#302=CIRCLE('',#858,3.);
#303=CIRCLE('',#861,3.);
#304=CIRCLE('',#863,3.);
#305=CIRCLE('',#869,3.);
#306=CIRCLE('',#871,3.);
#307=CIRCLE('',#873,1.2);
#308=CIRCLE('',#875,1.2);
#309=CIRCLE('',#877,7.55);
#310=CIRCLE('',#879,1.2);
#311=CIRCLE('',#881,1.6);
#312=CIRCLE('',#883,1.2);
#313=CIRCLE('',#885,1.2);
#314=CIRCLE('',#887,1.2);
#315=CIRCLE('',#889,1.6);
#316=CIRCLE('',#891,6.5);
#317=CIRCLE('',#893,7.55);
#318=CIRCLE('',#895,1.2);
#319=CIRCLE('',#897,5.);
#320=CIRCLE('',#899,12.);
#321=CIRCLE('',#901,10.);
#322=CIRCLE('',#903,16.);
#323=CIRCLE('',#905,18.5);
#324=CIRCLE('',#907,16.);
#325=CIRCLE('',#909,10.);
#326=CIRCLE('',#911,12.);
#327=CIRCLE('',#913,5.);
#328=CIRCLE('',#916,15.5);
#329=VERTEX_POINT('',#1177);
#330=VERTEX_POINT('',#1178);
#331=VERTEX_POINT('',#1180);
#332=VERTEX_POINT('',#1182);
#333=VERTEX_POINT('',#1186);
#334=VERTEX_POINT('',#1188);
#335=VERTEX_POINT('',#1192);
#336=VERTEX_POINT('',#1194);
#337=VERTEX_POINT('',#1196);
#338=VERTEX_POINT('',#1198);
#339=VERTEX_POINT('',#1200);
#340=VERTEX_POINT('',#1202);
#341=VERTEX_POINT('',#1204);
#342=VERTEX_POINT('',#1206);
#343=VERTEX_POINT('',#1208);
#344=VERTEX_POINT('',#1210);
#345=VERTEX_POINT('',#1212);
#346=VERTEX_POINT('',#1214);
#347=VERTEX_POINT('',#1216);
#348=VERTEX_POINT('',#1218);
#349=VERTEX_POINT('',#1220);
#350=VERTEX_POINT('',#1222);
#351=VERTEX_POINT('',#1224);
#352=VERTEX_POINT('',#1226);
#353=VERTEX_POINT('',#1228);
#354=VERTEX_POINT('',#1230);
#355=VERTEX_POINT('',#1232);
#356=VERTEX_POINT('',#1235);
#357=VERTEX_POINT('',#1237);
#358=VERTEX_POINT('',#1239);
#359=VERTEX_POINT('',#1241);
#360=VERTEX_POINT('',#1243);
#361=VERTEX_POINT('',#1245);
#362=VERTEX_POINT('',#1247);
#363=VERTEX_POINT('',#1249);
#364=VERTEX_POINT('',#1251);
#365=VERTEX_POINT('',#1253);
#366=VERTEX_POINT('',#1255);
#367=VERTEX_POINT('',#1257);
#368=VERTEX_POINT('',#1259);
#369=VERTEX_POINT('',#1261);
#370=VERTEX_POINT('',#1264);
#371=VERTEX_POINT('',#1266);
#372=VERTEX_POINT('',#1270);
#373=VERTEX_POINT('',#1274);
#374=VERTEX_POINT('',#1275);
#375=VERTEX_POINT('',#1280);
#376=VERTEX_POINT('',#1284);
#377=VERTEX_POINT('',#1285);
#378=VERTEX_POINT('',#1294);
#379=VERTEX_POINT('',#1298);
#380=VERTEX_POINT('',#1302);
#381=VERTEX_POINT('',#1306);
#382=VERTEX_POINT('',#1310);
#383=VERTEX_POINT('',#1314);
#384=VERTEX_POINT('',#1318);
#385=VERTEX_POINT('',#1322);
#386=VERTEX_POINT('',#1326);
#387=VERTEX_POINT('',#1330);
#388=VERTEX_POINT('',#1334);
#389=VERTEX_POINT('',#1338);
#390=VERTEX_POINT('',#1342);
#391=VERTEX_POINT('',#1346);
#392=VERTEX_POINT('',#1350);
#393=VERTEX_POINT('',#1354);
#394=VERTEX_POINT('',#1358);
#395=VERTEX_POINT('',#1362);
#396=VERTEX_POINT('',#1363);
#397=VERTEX_POINT('',#1368);
#398=VERTEX_POINT('',#1372);
#399=VERTEX_POINT('',#1380);
#400=VERTEX_POINT('',#1384);
#401=VERTEX_POINT('',#1388);
#402=VERTEX_POINT('',#1392);
#403=VERTEX_POINT('',#1396);
#404=VERTEX_POINT('',#1400);
#405=EDGE_CURVE('',#329,#330,#269,.T.);
#406=EDGE_CURVE('',#330,#331,#161,.T.);
#407=EDGE_CURVE('',#331,#332,#270,.T.);
#408=EDGE_CURVE('',#332,#329,#162,.T.);
#409=EDGE_CURVE('',#333,#330,#271,.T.);
#410=EDGE_CURVE('',#333,#334,#163,.T.);
#411=EDGE_CURVE('',#331,#334,#272,.T.);
#412=EDGE_CURVE('',#329,#335,#164,.T.);
#413=EDGE_CURVE('',#335,#336,#273,.T.);
#414=EDGE_CURVE('',#336,#337,#274,.T.);
#415=EDGE_CURVE('',#337,#338,#275,.T.);
#416=EDGE_CURVE('',#338,#339,#276,.T.);
#417=EDGE_CURVE('',#339,#340,#165,.T.);
#418=EDGE_CURVE('',#340,#341,#277,.T.);
#419=EDGE_CURVE('',#341,#342,#166,.T.);
#420=EDGE_CURVE('',#342,#343,#278,.T.);
#421=EDGE_CURVE('',#343,#344,#279,.T.);
#422=EDGE_CURVE('',#344,#345,#280,.T.);
#423=EDGE_CURVE('',#345,#346,#281,.T.);
#424=EDGE_CURVE('',#346,#347,#167,.T.);
#425=EDGE_CURVE('',#348,#347,#282,.T.);
#426=EDGE_CURVE('',#348,#349,#283,.T.);
#427=EDGE_CURVE('',#349,#350,#168,.T.);
#428=EDGE_CURVE('',#351,#350,#284,.T.);
#429=EDGE_CURVE('',#351,#352,#169,.T.);
#430=EDGE_CURVE('',#352,#353,#285,.T.);
#431=EDGE_CURVE('',#353,#354,#170,.T.);
#432=EDGE_CURVE('',#355,#354,#286,.T.);
#433=EDGE_CURVE('',#355,#333,#171,.T.);
#434=EDGE_CURVE('',#356,#356,#287,.T.);
#435=EDGE_CURVE('',#357,#357,#288,.T.);
#436=EDGE_CURVE('',#358,#358,#289,.T.);
#437=EDGE_CURVE('',#359,#359,#290,.T.);
#438=EDGE_CURVE('',#360,#360,#291,.T.);
#439=EDGE_CURVE('',#361,#361,#292,.T.);
#440=EDGE_CURVE('',#362,#362,#293,.T.);
#441=EDGE_CURVE('',#363,#363,#294,.T.);
#442=EDGE_CURVE('',#364,#364,#295,.T.);
#443=EDGE_CURVE('',#365,#365,#296,.T.);
#444=EDGE_CURVE('',#366,#366,#297,.T.);
#445=EDGE_CURVE('',#367,#367,#298,.T.);
#446=EDGE_CURVE('',#368,#368,#299,.T.);
#447=EDGE_CURVE('',#369,#369,#300,.T.);
#448=EDGE_CURVE('',#354,#370,#172,.T.);
#449=EDGE_CURVE('',#370,#371,#301,.T.);
#450=EDGE_CURVE('',#371,#355,#173,.T.);
#451=EDGE_CURVE('',#372,#353,#174,.T.);
#452=EDGE_CURVE('',#370,#372,#175,.T.);
#453=EDGE_CURVE('',#373,#374,#302,.T.);
#454=EDGE_CURVE('',#374,#351,#176,.T.);
#455=EDGE_CURVE('',#350,#373,#177,.T.);
#456=EDGE_CURVE('',#349,#375,#178,.T.);
#457=EDGE_CURVE('',#373,#375,#179,.T.);
#458=EDGE_CURVE('',#376,#377,#303,.T.);
#459=EDGE_CURVE('',#377,#348,#180,.T.);
#460=EDGE_CURVE('',#347,#376,#181,.T.);
#461=EDGE_CURVE('',#375,#377,#304,.T.);
#462=EDGE_CURVE('',#334,#371,#182,.T.);
#463=EDGE_CURVE('',#374,#378,#183,.T.);
#464=EDGE_CURVE('',#378,#352,#184,.T.);
#465=EDGE_CURVE('',#379,#346,#185,.T.);
#466=EDGE_CURVE('',#379,#376,#186,.T.);
#467=EDGE_CURVE('',#380,#332,#187,.T.);
#468=EDGE_CURVE('',#380,#335,#188,.T.);
#469=EDGE_CURVE('',#381,#381,#305,.T.);
#470=EDGE_CURVE('',#381,#369,#189,.T.);
#471=EDGE_CURVE('',#382,#382,#306,.T.);
#472=EDGE_CURVE('',#382,#368,#190,.T.);
#473=EDGE_CURVE('',#356,#383,#191,.T.);
#474=EDGE_CURVE('',#383,#383,#307,.T.);
#475=EDGE_CURVE('',#357,#384,#192,.T.);
#476=EDGE_CURVE('',#384,#384,#308,.T.);
#477=EDGE_CURVE('',#358,#385,#193,.T.);
#478=EDGE_CURVE('',#385,#385,#309,.T.);
#479=EDGE_CURVE('',#359,#386,#194,.T.);
#480=EDGE_CURVE('',#386,#386,#310,.T.);
#481=EDGE_CURVE('',#360,#387,#195,.T.);
#482=EDGE_CURVE('',#387,#387,#311,.T.);
#483=EDGE_CURVE('',#361,#388,#196,.T.);
#484=EDGE_CURVE('',#388,#388,#312,.T.);
#485=EDGE_CURVE('',#362,#389,#197,.T.);
#486=EDGE_CURVE('',#389,#389,#313,.T.);
#487=EDGE_CURVE('',#363,#390,#198,.T.);
#488=EDGE_CURVE('',#390,#390,#314,.T.);
#489=EDGE_CURVE('',#364,#391,#199,.T.);
#490=EDGE_CURVE('',#391,#391,#315,.T.);
#491=EDGE_CURVE('',#365,#392,#200,.T.);
#492=EDGE_CURVE('',#392,#392,#316,.T.);
#493=EDGE_CURVE('',#366,#393,#201,.T.);
#494=EDGE_CURVE('',#393,#393,#317,.T.);
#495=EDGE_CURVE('',#367,#394,#202,.T.);
#496=EDGE_CURVE('',#394,#394,#318,.T.);
#497=EDGE_CURVE('',#395,#396,#319,.T.);
#498=EDGE_CURVE('',#395,#339,#203,.T.);
#499=EDGE_CURVE('',#396,#338,#204,.T.);
#500=EDGE_CURVE('',#396,#397,#320,.T.);
#501=EDGE_CURVE('',#397,#337,#205,.T.);
#502=EDGE_CURVE('',#398,#397,#321,.T.);
#503=EDGE_CURVE('',#398,#336,#206,.T.);
#504=EDGE_CURVE('',#398,#380,#322,.T.);
#505=EDGE_CURVE('',#372,#378,#323,.T.);
#506=EDGE_CURVE('',#379,#399,#324,.T.);
#507=EDGE_CURVE('',#399,#345,#207,.T.);
#508=EDGE_CURVE('',#400,#399,#325,.T.);
#509=EDGE_CURVE('',#400,#344,#208,.T.);
#510=EDGE_CURVE('',#400,#401,#326,.T.);
#511=EDGE_CURVE('',#401,#343,#209,.T.);
#512=EDGE_CURVE('',#401,#402,#327,.T.);
#513=EDGE_CURVE('',#402,#342,#210,.T.);
#514=EDGE_CURVE('',#403,#402,#211,.T.);
#515=EDGE_CURVE('',#403,#341,#212,.T.);
#516=EDGE_CURVE('',#403,#404,#328,.T.);
#517=EDGE_CURVE('',#404,#340,#213,.T.);
#518=EDGE_CURVE('',#404,#395,#214,.T.);
#519=ORIENTED_EDGE('',*,*,#405,.T.);
#520=ORIENTED_EDGE('',*,*,#406,.T.);
#521=ORIENTED_EDGE('',*,*,#407,.T.);
#522=ORIENTED_EDGE('',*,*,#408,.T.);
#523=ORIENTED_EDGE('',*,*,#406,.F.);
#524=ORIENTED_EDGE('',*,*,#409,.F.);
#525=ORIENTED_EDGE('',*,*,#410,.T.);
#526=ORIENTED_EDGE('',*,*,#411,.F.);
#527=ORIENTED_EDGE('',*,*,#405,.F.);
#528=ORIENTED_EDGE('',*,*,#412,.T.);
#529=ORIENTED_EDGE('',*,*,#413,.T.);
#530=ORIENTED_EDGE('',*,*,#414,.T.);
#531=ORIENTED_EDGE('',*,*,#415,.T.);
#532=ORIENTED_EDGE('',*,*,#416,.T.);
#533=ORIENTED_EDGE('',*,*,#417,.T.);
#534=ORIENTED_EDGE('',*,*,#418,.T.);
#535=ORIENTED_EDGE('',*,*,#419,.T.);
#536=ORIENTED_EDGE('',*,*,#420,.T.);
#537=ORIENTED_EDGE('',*,*,#421,.T.);
#538=ORIENTED_EDGE('',*,*,#422,.T.);
#539=ORIENTED_EDGE('',*,*,#423,.T.);
#540=ORIENTED_EDGE('',*,*,#424,.T.);
#541=ORIENTED_EDGE('',*,*,#425,.F.);
#542=ORIENTED_EDGE('',*,*,#426,.T.);
#543=ORIENTED_EDGE('',*,*,#427,.T.);
#544=ORIENTED_EDGE('',*,*,#428,.F.);
#545=ORIENTED_EDGE('',*,*,#429,.T.);
#546=ORIENTED_EDGE('',*,*,#430,.T.);
#547=ORIENTED_EDGE('',*,*,#431,.T.);
#548=ORIENTED_EDGE('',*,*,#432,.F.);
#549=ORIENTED_EDGE('',*,*,#433,.T.);
#550=ORIENTED_EDGE('',*,*,#409,.T.);
#551=ORIENTED_EDGE('',*,*,#434,.T.);
#552=ORIENTED_EDGE('',*,*,#435,.T.);
#553=ORIENTED_EDGE('',*,*,#436,.T.);
#554=ORIENTED_EDGE('',*,*,#437,.T.);
#555=ORIENTED_EDGE('',*,*,#438,.T.);
#556=ORIENTED_EDGE('',*,*,#439,.T.);
#557=ORIENTED_EDGE('',*,*,#440,.T.);
#558=ORIENTED_EDGE('',*,*,#441,.T.);
#559=ORIENTED_EDGE('',*,*,#442,.T.);
#560=ORIENTED_EDGE('',*,*,#443,.T.);
#561=ORIENTED_EDGE('',*,*,#444,.T.);
#562=ORIENTED_EDGE('',*,*,#445,.T.);
#563=ORIENTED_EDGE('',*,*,#446,.T.);
#564=ORIENTED_EDGE('',*,*,#447,.T.);
#565=ORIENTED_EDGE('',*,*,#432,.T.);
#566=ORIENTED_EDGE('',*,*,#448,.T.);
#567=ORIENTED_EDGE('',*,*,#449,.T.);
#568=ORIENTED_EDGE('',*,*,#450,.T.);
#569=ORIENTED_EDGE('',*,*,#448,.F.);
#570=ORIENTED_EDGE('',*,*,#431,.F.);
#571=ORIENTED_EDGE('',*,*,#451,.F.);
#572=ORIENTED_EDGE('',*,*,#452,.F.);
#573=ORIENTED_EDGE('',*,*,#453,.T.);
#574=ORIENTED_EDGE('',*,*,#454,.T.);
#575=ORIENTED_EDGE('',*,*,#428,.T.);
#576=ORIENTED_EDGE('',*,*,#455,.T.);
#577=ORIENTED_EDGE('',*,*,#455,.F.);
#578=ORIENTED_EDGE('',*,*,#427,.F.);
#579=ORIENTED_EDGE('',*,*,#456,.T.);
#580=ORIENTED_EDGE('',*,*,#457,.F.);
#581=ORIENTED_EDGE('',*,*,#458,.T.);
#582=ORIENTED_EDGE('',*,*,#459,.T.);
#583=ORIENTED_EDGE('',*,*,#425,.T.);
#584=ORIENTED_EDGE('',*,*,#460,.T.);
#585=ORIENTED_EDGE('',*,*,#459,.F.);
#586=ORIENTED_EDGE('',*,*,#461,.F.);
#587=ORIENTED_EDGE('',*,*,#456,.F.);
#588=ORIENTED_EDGE('',*,*,#426,.F.);
#589=ORIENTED_EDGE('',*,*,#450,.F.);
#590=ORIENTED_EDGE('',*,*,#462,.F.);
#591=ORIENTED_EDGE('',*,*,#410,.F.);
#592=ORIENTED_EDGE('',*,*,#433,.F.);
#593=ORIENTED_EDGE('',*,*,#454,.F.);
#594=ORIENTED_EDGE('',*,*,#463,.T.);
#595=ORIENTED_EDGE('',*,*,#464,.T.);
#596=ORIENTED_EDGE('',*,*,#429,.F.);
#597=ORIENTED_EDGE('',*,*,#460,.F.);
#598=ORIENTED_EDGE('',*,*,#424,.F.);
#599=ORIENTED_EDGE('',*,*,#465,.F.);
#600=ORIENTED_EDGE('',*,*,#466,.T.);
#601=ORIENTED_EDGE('',*,*,#408,.F.);
#602=ORIENTED_EDGE('',*,*,#467,.F.);
#603=ORIENTED_EDGE('',*,*,#468,.T.);
#604=ORIENTED_EDGE('',*,*,#412,.F.);
#605=ORIENTED_EDGE('',*,*,#469,.F.);
#606=ORIENTED_EDGE('',*,*,#470,.T.);
#607=ORIENTED_EDGE('',*,*,#447,.F.);
#608=ORIENTED_EDGE('',*,*,#470,.F.);
#609=ORIENTED_EDGE('',*,*,#471,.F.);
#610=ORIENTED_EDGE('',*,*,#472,.T.);
#611=ORIENTED_EDGE('',*,*,#446,.F.);
#612=ORIENTED_EDGE('',*,*,#472,.F.);
#613=ORIENTED_EDGE('',*,*,#434,.F.);
#614=ORIENTED_EDGE('',*,*,#473,.T.);
#615=ORIENTED_EDGE('',*,*,#474,.F.);
#616=ORIENTED_EDGE('',*,*,#473,.F.);
#617=ORIENTED_EDGE('',*,*,#435,.F.);
#618=ORIENTED_EDGE('',*,*,#475,.T.);
#619=ORIENTED_EDGE('',*,*,#476,.F.);
#620=ORIENTED_EDGE('',*,*,#475,.F.);
#621=ORIENTED_EDGE('',*,*,#436,.F.);
#622=ORIENTED_EDGE('',*,*,#477,.T.);
#623=ORIENTED_EDGE('',*,*,#478,.F.);
#624=ORIENTED_EDGE('',*,*,#477,.F.);
#625=ORIENTED_EDGE('',*,*,#437,.F.);
#626=ORIENTED_EDGE('',*,*,#479,.T.);
#627=ORIENTED_EDGE('',*,*,#480,.F.);
#628=ORIENTED_EDGE('',*,*,#479,.F.);
#629=ORIENTED_EDGE('',*,*,#438,.F.);
#630=ORIENTED_EDGE('',*,*,#481,.T.);
#631=ORIENTED_EDGE('',*,*,#482,.F.);
#632=ORIENTED_EDGE('',*,*,#481,.F.);
#633=ORIENTED_EDGE('',*,*,#439,.F.);
#634=ORIENTED_EDGE('',*,*,#483,.T.);
#635=ORIENTED_EDGE('',*,*,#484,.F.);
#636=ORIENTED_EDGE('',*,*,#483,.F.);
#637=ORIENTED_EDGE('',*,*,#440,.F.);
#638=ORIENTED_EDGE('',*,*,#485,.T.);
#639=ORIENTED_EDGE('',*,*,#486,.F.);
#640=ORIENTED_EDGE('',*,*,#485,.F.);
#641=ORIENTED_EDGE('',*,*,#441,.F.);
#642=ORIENTED_EDGE('',*,*,#487,.T.);
#643=ORIENTED_EDGE('',*,*,#488,.F.);
#644=ORIENTED_EDGE('',*,*,#487,.F.);
#645=ORIENTED_EDGE('',*,*,#442,.F.);
#646=ORIENTED_EDGE('',*,*,#489,.T.);
#647=ORIENTED_EDGE('',*,*,#490,.F.);
#648=ORIENTED_EDGE('',*,*,#489,.F.);
#649=ORIENTED_EDGE('',*,*,#443,.F.);
#650=ORIENTED_EDGE('',*,*,#491,.T.);
#651=ORIENTED_EDGE('',*,*,#492,.F.);
#652=ORIENTED_EDGE('',*,*,#491,.F.);
#653=ORIENTED_EDGE('',*,*,#444,.F.);
#654=ORIENTED_EDGE('',*,*,#493,.T.);
#655=ORIENTED_EDGE('',*,*,#494,.F.);
#656=ORIENTED_EDGE('',*,*,#493,.F.);
#657=ORIENTED_EDGE('',*,*,#445,.F.);
#658=ORIENTED_EDGE('',*,*,#495,.T.);
#659=ORIENTED_EDGE('',*,*,#496,.F.);
#660=ORIENTED_EDGE('',*,*,#495,.F.);
#661=ORIENTED_EDGE('',*,*,#497,.F.);
#662=ORIENTED_EDGE('',*,*,#498,.T.);
#663=ORIENTED_EDGE('',*,*,#416,.F.);
#664=ORIENTED_EDGE('',*,*,#499,.F.);
#665=ORIENTED_EDGE('',*,*,#500,.F.);
#666=ORIENTED_EDGE('',*,*,#499,.T.);
#667=ORIENTED_EDGE('',*,*,#415,.F.);
#668=ORIENTED_EDGE('',*,*,#501,.F.);
#669=ORIENTED_EDGE('',*,*,#502,.T.);
#670=ORIENTED_EDGE('',*,*,#501,.T.);
#671=ORIENTED_EDGE('',*,*,#414,.F.);
#672=ORIENTED_EDGE('',*,*,#503,.F.);
#673=ORIENTED_EDGE('',*,*,#504,.F.);
#674=ORIENTED_EDGE('',*,*,#503,.T.);
#675=ORIENTED_EDGE('',*,*,#413,.F.);
#676=ORIENTED_EDGE('',*,*,#468,.F.);
#677=ORIENTED_EDGE('',*,*,#505,.F.);
#678=ORIENTED_EDGE('',*,*,#451,.T.);
#679=ORIENTED_EDGE('',*,*,#430,.F.);
#680=ORIENTED_EDGE('',*,*,#464,.F.);
#681=ORIENTED_EDGE('',*,*,#506,.F.);
#682=ORIENTED_EDGE('',*,*,#465,.T.);
#683=ORIENTED_EDGE('',*,*,#423,.F.);
#684=ORIENTED_EDGE('',*,*,#507,.F.);
#685=ORIENTED_EDGE('',*,*,#508,.T.);
#686=ORIENTED_EDGE('',*,*,#507,.T.);
#687=ORIENTED_EDGE('',*,*,#422,.F.);
#688=ORIENTED_EDGE('',*,*,#509,.F.);
#689=ORIENTED_EDGE('',*,*,#510,.F.);
#690=ORIENTED_EDGE('',*,*,#509,.T.);
#691=ORIENTED_EDGE('',*,*,#421,.F.);
#692=ORIENTED_EDGE('',*,*,#511,.F.);
#693=ORIENTED_EDGE('',*,*,#512,.F.);
#694=ORIENTED_EDGE('',*,*,#511,.T.);
#695=ORIENTED_EDGE('',*,*,#420,.F.);
#696=ORIENTED_EDGE('',*,*,#513,.F.);
#697=ORIENTED_EDGE('',*,*,#514,.T.);
#698=ORIENTED_EDGE('',*,*,#513,.T.);
#699=ORIENTED_EDGE('',*,*,#419,.F.);
#700=ORIENTED_EDGE('',*,*,#515,.F.);
#701=ORIENTED_EDGE('',*,*,#516,.F.);
#702=ORIENTED_EDGE('',*,*,#515,.T.);
#703=ORIENTED_EDGE('',*,*,#418,.F.);
#704=ORIENTED_EDGE('',*,*,#517,.F.);
#705=ORIENTED_EDGE('',*,*,#518,.F.);
#706=ORIENTED_EDGE('',*,*,#517,.T.);
#707=ORIENTED_EDGE('',*,*,#417,.F.);
#708=ORIENTED_EDGE('',*,*,#498,.F.);
#709=ORIENTED_EDGE('',*,*,#407,.F.);
#710=ORIENTED_EDGE('',*,*,#411,.T.);
#711=ORIENTED_EDGE('',*,*,#462,.T.);
#712=ORIENTED_EDGE('',*,*,#449,.F.);
#713=ORIENTED_EDGE('',*,*,#452,.T.);
#714=ORIENTED_EDGE('',*,*,#505,.T.);
#715=ORIENTED_EDGE('',*,*,#463,.F.);
#716=ORIENTED_EDGE('',*,*,#453,.F.);
#717=ORIENTED_EDGE('',*,*,#457,.T.);
#718=ORIENTED_EDGE('',*,*,#461,.T.);
#719=ORIENTED_EDGE('',*,*,#458,.F.);
#720=ORIENTED_EDGE('',*,*,#466,.F.);
#721=ORIENTED_EDGE('',*,*,#506,.T.);
#722=ORIENTED_EDGE('',*,*,#508,.F.);
#723=ORIENTED_EDGE('',*,*,#510,.T.);
#724=ORIENTED_EDGE('',*,*,#512,.T.);
#725=ORIENTED_EDGE('',*,*,#514,.F.);
#726=ORIENTED_EDGE('',*,*,#516,.T.);
#727=ORIENTED_EDGE('',*,*,#518,.T.);
#728=ORIENTED_EDGE('',*,*,#497,.T.);
#729=ORIENTED_EDGE('',*,*,#500,.T.);
#730=ORIENTED_EDGE('',*,*,#502,.F.);
#731=ORIENTED_EDGE('',*,*,#504,.T.);
#732=ORIENTED_EDGE('',*,*,#467,.T.);
#733=ORIENTED_EDGE('',*,*,#469,.T.);
#734=ORIENTED_EDGE('',*,*,#471,.T.);
#735=ORIENTED_EDGE('',*,*,#496,.T.);
#736=ORIENTED_EDGE('',*,*,#494,.T.);
#737=ORIENTED_EDGE('',*,*,#492,.T.);
#738=ORIENTED_EDGE('',*,*,#490,.T.);
#739=ORIENTED_EDGE('',*,*,#488,.T.);
#740=ORIENTED_EDGE('',*,*,#486,.T.);
#741=ORIENTED_EDGE('',*,*,#484,.T.);
#742=ORIENTED_EDGE('',*,*,#482,.T.);
#743=ORIENTED_EDGE('',*,*,#480,.T.);
#744=ORIENTED_EDGE('',*,*,#478,.T.);
#745=ORIENTED_EDGE('',*,*,#476,.T.);
#746=ORIENTED_EDGE('',*,*,#474,.T.);
#747=CYLINDRICAL_SURFACE('',#819,3.);
#748=CYLINDRICAL_SURFACE('',#822,3.);
#749=CYLINDRICAL_SURFACE('',#854,3.);
#750=CYLINDRICAL_SURFACE('',#857,3.);
#751=CYLINDRICAL_SURFACE('',#860,3.);
#752=CYLINDRICAL_SURFACE('',#862,3.);
#753=CYLINDRICAL_SURFACE('',#868,3.);
#754=CYLINDRICAL_SURFACE('',#870,3.);
#755=CYLINDRICAL_SURFACE('',#872,1.2);
#756=CYLINDRICAL_SURFACE('',#874,1.2);
#757=CYLINDRICAL_SURFACE('',#876,7.55);
#758=CYLINDRICAL_SURFACE('',#878,1.2);
#759=CYLINDRICAL_SURFACE('',#880,1.6);
#760=CYLINDRICAL_SURFACE('',#882,1.2);
#761=CYLINDRICAL_SURFACE('',#884,1.2);
#762=CYLINDRICAL_SURFACE('',#886,1.2);
#763=CYLINDRICAL_SURFACE('',#888,1.6);
#764=CYLINDRICAL_SURFACE('',#890,6.5);
#765=CYLINDRICAL_SURFACE('',#892,7.55);
#766=CYLINDRICAL_SURFACE('',#894,1.2);
#767=CYLINDRICAL_SURFACE('',#896,5.);
#768=CYLINDRICAL_SURFACE('',#898,12.);
#769=CYLINDRICAL_SURFACE('',#900,10.);
#770=CYLINDRICAL_SURFACE('',#902,16.);
#771=CYLINDRICAL_SURFACE('',#904,18.5);
#772=CYLINDRICAL_SURFACE('',#906,16.);
#773=CYLINDRICAL_SURFACE('',#908,10.);
#774=CYLINDRICAL_SURFACE('',#910,12.);
#775=CYLINDRICAL_SURFACE('',#912,5.);
#776=CYLINDRICAL_SURFACE('',#915,15.5);
#777=ADVANCED_FACE('',(#53),#747,.T.);
#778=ADVANCED_FACE('',(#54),#748,.F.);
#779=ADVANCED_FACE('',(#55,#15,#16,#17,#18,#19,#20,#21,#22,#23,#24,#25,
#26,#27,#28),#43,.F.);
#780=ADVANCED_FACE('',(#56),#749,.T.);
#781=ADVANCED_FACE('',(#57),#44,.T.);
#782=ADVANCED_FACE('',(#58),#750,.T.);
#783=ADVANCED_FACE('',(#59),#45,.F.);
#784=ADVANCED_FACE('',(#60),#751,.T.);
#785=ADVANCED_FACE('',(#61),#752,.F.);
#786=ADVANCED_FACE('',(#62),#46,.F.);
#787=ADVANCED_FACE('',(#63),#47,.T.);
#788=ADVANCED_FACE('',(#64),#48,.T.);
#789=ADVANCED_FACE('',(#65),#49,.T.);
#790=ADVANCED_FACE('',(#66),#753,.F.);
#791=ADVANCED_FACE('',(#67),#754,.F.);
#792=ADVANCED_FACE('',(#68),#755,.F.);
#793=ADVANCED_FACE('',(#69),#756,.F.);
#794=ADVANCED_FACE('',(#70),#757,.F.);
#795=ADVANCED_FACE('',(#71),#758,.F.);
#796=ADVANCED_FACE('',(#72),#759,.F.);
#797=ADVANCED_FACE('',(#73),#760,.F.);
#798=ADVANCED_FACE('',(#74),#761,.F.);
#799=ADVANCED_FACE('',(#75),#762,.F.);
#800=ADVANCED_FACE('',(#76),#763,.F.);
#801=ADVANCED_FACE('',(#77),#764,.F.);
#802=ADVANCED_FACE('',(#78),#765,.F.);
#803=ADVANCED_FACE('',(#79),#766,.F.);
#804=ADVANCED_FACE('',(#80),#767,.T.);
#805=ADVANCED_FACE('',(#81),#768,.T.);
#806=ADVANCED_FACE('',(#82),#769,.F.);
#807=ADVANCED_FACE('',(#83),#770,.T.);
#808=ADVANCED_FACE('',(#84),#771,.T.);
#809=ADVANCED_FACE('',(#85),#772,.T.);
#810=ADVANCED_FACE('',(#86),#773,.F.);
#811=ADVANCED_FACE('',(#87),#774,.T.);
#812=ADVANCED_FACE('',(#88),#775,.T.);
#813=ADVANCED_FACE('',(#89),#50,.T.);
#814=ADVANCED_FACE('',(#90),#776,.T.);
#815=ADVANCED_FACE('',(#91),#51,.T.);
#816=ADVANCED_FACE('',(#92,#29,#30,#31,#32,#33,#34,#35,#36,#37,#38,#39,
#40,#41,#42),#52,.T.);
#817=CLOSED_SHELL('',(#777,#778,#779,#780,#781,#782,#783,#784,#785,#786,
#787,#788,#789,#790,#791,#792,#793,#794,#795,#796,#797,#798,#799,#800,#801,
#802,#803,#804,#805,#806,#807,#808,#809,#810,#811,#812,#813,#814,#815,#816));
#818=AXIS2_PLACEMENT_3D('',#1175,#919,#920);
#819=AXIS2_PLACEMENT_3D('',#1176,#921,#922);
#820=AXIS2_PLACEMENT_3D('',#1179,#923,#924);
#821=AXIS2_PLACEMENT_3D('',#1183,#926,#927);
#822=AXIS2_PLACEMENT_3D('',#1185,#929,#930);
#823=AXIS2_PLACEMENT_3D('',#1187,#931,#932);
#824=AXIS2_PLACEMENT_3D('',#1190,#934,#935);
#825=AXIS2_PLACEMENT_3D('',#1191,#936,#937);
#826=AXIS2_PLACEMENT_3D('',#1195,#939,#940);
#827=AXIS2_PLACEMENT_3D('',#1197,#941,#942);
#828=AXIS2_PLACEMENT_3D('',#1199,#943,#944);
#829=AXIS2_PLACEMENT_3D('',#1201,#945,#946);
#830=AXIS2_PLACEMENT_3D('',#1205,#948,#949);
#831=AXIS2_PLACEMENT_3D('',#1209,#951,#952);
#832=AXIS2_PLACEMENT_3D('',#1211,#953,#954);
#833=AXIS2_PLACEMENT_3D('',#1213,#955,#956);
#834=AXIS2_PLACEMENT_3D('',#1215,#957,#958);
#835=AXIS2_PLACEMENT_3D('',#1219,#960,#961);
#836=AXIS2_PLACEMENT_3D('',#1221,#962,#963);
#837=AXIS2_PLACEMENT_3D('',#1225,#965,#966);
#838=AXIS2_PLACEMENT_3D('',#1229,#968,#969);
#839=AXIS2_PLACEMENT_3D('',#1233,#971,#972);
#840=AXIS2_PLACEMENT_3D('',#1236,#974,#975);
#841=AXIS2_PLACEMENT_3D('',#1238,#976,#977);
#842=AXIS2_PLACEMENT_3D('',#1240,#978,#979);
#843=AXIS2_PLACEMENT_3D('',#1242,#980,#981);
#844=AXIS2_PLACEMENT_3D('',#1244,#982,#983);
#845=AXIS2_PLACEMENT_3D('',#1246,#984,#985);
#846=AXIS2_PLACEMENT_3D('',#1248,#986,#987);
#847=AXIS2_PLACEMENT_3D('',#1250,#988,#989);
#848=AXIS2_PLACEMENT_3D('',#1252,#990,#991);
#849=AXIS2_PLACEMENT_3D('',#1254,#992,#993);
#850=AXIS2_PLACEMENT_3D('',#1256,#994,#995);
#851=AXIS2_PLACEMENT_3D('',#1258,#996,#997);
#852=AXIS2_PLACEMENT_3D('',#1260,#998,#999);
#853=AXIS2_PLACEMENT_3D('',#1262,#1000,#1001);
#854=AXIS2_PLACEMENT_3D('',#1263,#1002,#1003);
#855=AXIS2_PLACEMENT_3D('',#1267,#1005,#1006);
#856=AXIS2_PLACEMENT_3D('',#1269,#1008,#1009);
#857=AXIS2_PLACEMENT_3D('',#1273,#1012,#1013);
#858=AXIS2_PLACEMENT_3D('',#1276,#1014,#1015);
#859=AXIS2_PLACEMENT_3D('',#1279,#1018,#1019);
#860=AXIS2_PLACEMENT_3D('',#1283,#1022,#1023);
#861=AXIS2_PLACEMENT_3D('',#1286,#1024,#1025);
#862=AXIS2_PLACEMENT_3D('',#1289,#1028,#1029);
#863=AXIS2_PLACEMENT_3D('',#1290,#1030,#1031);
#864=AXIS2_PLACEMENT_3D('',#1291,#1032,#1033);
#865=AXIS2_PLACEMENT_3D('',#1293,#1035,#1036);
#866=AXIS2_PLACEMENT_3D('',#1297,#1039,#1040);
#867=AXIS2_PLACEMENT_3D('',#1301,#1043,#1044);
#868=AXIS2_PLACEMENT_3D('',#1305,#1047,#1048);
#869=AXIS2_PLACEMENT_3D('',#1307,#1049,#1050);
#870=AXIS2_PLACEMENT_3D('',#1309,#1052,#1053);
#871=AXIS2_PLACEMENT_3D('',#1311,#1054,#1055);
#872=AXIS2_PLACEMENT_3D('',#1313,#1057,#1058);
#873=AXIS2_PLACEMENT_3D('',#1316,#1060,#1061);
#874=AXIS2_PLACEMENT_3D('',#1317,#1062,#1063);
#875=AXIS2_PLACEMENT_3D('',#1320,#1065,#1066);
#876=AXIS2_PLACEMENT_3D('',#1321,#1067,#1068);
#877=AXIS2_PLACEMENT_3D('',#1324,#1070,#1071);
#878=AXIS2_PLACEMENT_3D('',#1325,#1072,#1073);
#879=AXIS2_PLACEMENT_3D('',#1328,#1075,#1076);
#880=AXIS2_PLACEMENT_3D('',#1329,#1077,#1078);
#881=AXIS2_PLACEMENT_3D('',#1332,#1080,#1081);
#882=AXIS2_PLACEMENT_3D('',#1333,#1082,#1083);
#883=AXIS2_PLACEMENT_3D('',#1336,#1085,#1086);
#884=AXIS2_PLACEMENT_3D('',#1337,#1087,#1088);
#885=AXIS2_PLACEMENT_3D('',#1340,#1090,#1091);
#886=AXIS2_PLACEMENT_3D('',#1341,#1092,#1093);
#887=AXIS2_PLACEMENT_3D('',#1344,#1095,#1096);
#888=AXIS2_PLACEMENT_3D('',#1345,#1097,#1098);
#889=AXIS2_PLACEMENT_3D('',#1348,#1100,#1101);
#890=AXIS2_PLACEMENT_3D('',#1349,#1102,#1103);
#891=AXIS2_PLACEMENT_3D('',#1352,#1105,#1106);
#892=AXIS2_PLACEMENT_3D('',#1353,#1107,#1108);
#893=AXIS2_PLACEMENT_3D('',#1356,#1110,#1111);
#894=AXIS2_PLACEMENT_3D('',#1357,#1112,#1113);
#895=AXIS2_PLACEMENT_3D('',#1360,#1115,#1116);
#896=AXIS2_PLACEMENT_3D('',#1361,#1117,#1118);
#897=AXIS2_PLACEMENT_3D('',#1364,#1119,#1120);
#898=AXIS2_PLACEMENT_3D('',#1367,#1123,#1124);
#899=AXIS2_PLACEMENT_3D('',#1369,#1125,#1126);
#900=AXIS2_PLACEMENT_3D('',#1371,#1128,#1129);
#901=AXIS2_PLACEMENT_3D('',#1373,#1130,#1131);
#902=AXIS2_PLACEMENT_3D('',#1375,#1133,#1134);
#903=AXIS2_PLACEMENT_3D('',#1376,#1135,#1136);
#904=AXIS2_PLACEMENT_3D('',#1377,#1137,#1138);
#905=AXIS2_PLACEMENT_3D('',#1378,#1139,#1140);
#906=AXIS2_PLACEMENT_3D('',#1379,#1141,#1142);
#907=AXIS2_PLACEMENT_3D('',#1381,#1143,#1144);
#908=AXIS2_PLACEMENT_3D('',#1383,#1146,#1147);
#909=AXIS2_PLACEMENT_3D('',#1385,#1148,#1149);
#910=AXIS2_PLACEMENT_3D('',#1387,#1151,#1152);
#911=AXIS2_PLACEMENT_3D('',#1389,#1153,#1154);
#912=AXIS2_PLACEMENT_3D('',#1391,#1156,#1157);
#913=AXIS2_PLACEMENT_3D('',#1393,#1158,#1159);
#914=AXIS2_PLACEMENT_3D('',#1395,#1161,#1162);
#915=AXIS2_PLACEMENT_3D('',#1399,#1165,#1166);
#916=AXIS2_PLACEMENT_3D('',#1401,#1167,#1168);
#917=AXIS2_PLACEMENT_3D('',#1403,#1170,#1171);
#918=AXIS2_PLACEMENT_3D('',#1405,#1173,#1174);
#919=DIRECTION('axis',(0.,0.,1.));
#920=DIRECTION('refdir',(1.,0.,0.));
#921=DIRECTION('center_axis',(-1.,0.,0.));
#922=DIRECTION('ref_axis',(0.,-0.213589791544574,0.976923436584436));
#923=DIRECTION('center_axis',(-1.,0.,0.));
#924=DIRECTION('ref_axis',(0.,-0.213589791544574,0.976923436584436));
#925=DIRECTION('',(-1.,0.,0.));
#926=DIRECTION('center_axis',(1.,0.,0.));
#927=DIRECTION('ref_axis',(0.,-0.213589791544574,0.976923436584436));
#928=DIRECTION('',(1.,0.,0.));
#929=DIRECTION('center_axis',(1.,-4.44089209850063E-17,-1.76155386573858E-15));
#930=DIRECTION('ref_axis',(-4.44089209850047E-17,-1.,8.88178419701261E-16));
#931=DIRECTION('center_axis',(-1.,0.,0.));
#932=DIRECTION('ref_axis',(-4.44089209850047E-17,-1.,8.88178419701261E-16));
#933=DIRECTION('',(-1.,4.44089209850063E-17,1.76155386573858E-15));
#934=DIRECTION('center_axis',(1.,0.,0.));
#935=DIRECTION('ref_axis',(-4.44089209850047E-17,-1.,8.88178419701261E-16));
#936=DIRECTION('center_axis',(-1.,0.,0.));
#937=DIRECTION('ref_axis',(0.,-1.,0.));
#938=DIRECTION('',(0.,0.976923436584437,0.213589791544574));
#939=DIRECTION('center_axis',(1.,0.,0.));
#940=DIRECTION('ref_axis',(0.,-1.,0.));
#941=DIRECTION('center_axis',(-1.,0.,0.));
#942=DIRECTION('ref_axis',(0.,-1.,0.));
#943=DIRECTION('center_axis',(1.,0.,0.));
#944=DIRECTION('ref_axis',(0.,-1.,0.));
#945=DIRECTION('center_axis',(1.,0.,0.));
#946=DIRECTION('ref_axis',(0.,-1.,0.));
#947=DIRECTION('',(0.,-0.833425664321743,0.552631578947368));
#948=DIRECTION('center_axis',(1.,0.,0.));
#949=DIRECTION('ref_axis',(0.,-1.,0.));
#950=DIRECTION('',(0.,-0.833425664321589,-0.552631578947601));
#951=DIRECTION('center_axis',(1.,0.,0.));
#952=DIRECTION('ref_axis',(0.,-1.,0.));
#953=DIRECTION('center_axis',(1.,0.,0.));
#954=DIRECTION('ref_axis',(0.,-1.,0.));
#955=DIRECTION('center_axis',(-1.,0.,0.));
#956=DIRECTION('ref_axis',(0.,-1.,0.));
#957=DIRECTION('center_axis',(1.,0.,0.));
#958=DIRECTION('ref_axis',(0.,-1.,0.));
#959=DIRECTION('',(0.,0.976923436584494,-0.21358979154431));
#960=DIRECTION('center_axis',(-1.,0.,0.));
#961=DIRECTION('ref_axis',(0.,0.213589791544309,0.976923436584494));
#962=DIRECTION('center_axis',(-1.,0.,0.));
#963=DIRECTION('ref_axis',(-2.96059473233359E-17,-1.,8.88178419701261E-16));
#964=DIRECTION('',(0.,-4.33706454411146E-14,-1.));
#965=DIRECTION('center_axis',(-1.,0.,0.));
#966=DIRECTION('ref_axis',(-2.3754069344299E-16,-0.778970407507356,-0.627060686240035));
#967=DIRECTION('',(0.,0.976923436584494,-0.21358979154431));
#968=DIRECTION('center_axis',(1.,0.,0.));
#969=DIRECTION('ref_axis',(0.,-1.,0.));
#970=DIRECTION('',(0.,0.976923436584437,0.213589791544574));
#971=DIRECTION('center_axis',(-1.,0.,0.));
#972=DIRECTION('ref_axis',(4.75081386885928E-16,0.77897040750744,-0.627060686239931));
#973=DIRECTION('',(0.,-4.15942886017121E-14,1.));
#974=DIRECTION('center_axis',(-1.,0.,0.));
#975=DIRECTION('ref_axis',(0.,0.5,0.866025403784439));
#976=DIRECTION('center_axis',(-1.,0.,0.));
#977=DIRECTION('ref_axis',(0.,-1.,0.));
#978=DIRECTION('center_axis',(-1.,0.,0.));
#979=DIRECTION('ref_axis',(0.,-1.,0.));
#980=DIRECTION('center_axis',(-1.,0.,0.));
#981=DIRECTION('ref_axis',(0.,-1.,0.));
#982=DIRECTION('center_axis',(-1.,0.,0.));
#983=DIRECTION('ref_axis',(0.,-1.,0.));
#984=DIRECTION('center_axis',(-1.,0.,0.));
#985=DIRECTION('ref_axis',(0.,0.5,-0.866025403784439));
#986=DIRECTION('center_axis',(-1.,0.,0.));
#987=DIRECTION('ref_axis',(0.,-1.,0.));
#988=DIRECTION('center_axis',(-1.,0.,0.));
#989=DIRECTION('ref_axis',(0.,-1.,0.));
#990=DIRECTION('center_axis',(-1.,0.,0.));
#991=DIRECTION('ref_axis',(0.,-1.,0.));
#992=DIRECTION('center_axis',(-1.,0.,0.));
#993=DIRECTION('ref_axis',(0.,-1.,0.));
#994=DIRECTION('center_axis',(-1.,0.,0.));
#995=DIRECTION('ref_axis',(0.,-1.,0.));
#996=DIRECTION('center_axis',(-1.,0.,0.));
#997=DIRECTION('ref_axis',(0.,-1.,0.));
#998=DIRECTION('center_axis',(-1.,0.,0.));
#999=DIRECTION('ref_axis',(-4.44089209850047E-17,-1.,8.88178419701261E-16));
#1000=DIRECTION('center_axis',(-1.,0.,0.));
#1001=DIRECTION('ref_axis',(-2.96059473233359E-17,-1.,8.88178419701261E-16));
#1002=DIRECTION('center_axis',(1.,-5.55111512312604E-16,-1.2136688276553E-16));
#1003=DIRECTION('ref_axis',(4.75081386885928E-16,0.77897040750744,-0.627060686239931));
#1004=DIRECTION('',(-1.,5.55111512312604E-16,1.2136688276553E-16));
#1005=DIRECTION('center_axis',(1.,0.,0.));
#1006=DIRECTION('ref_axis',(4.75081386885928E-16,0.77897040750744,-0.627060686239931));
#1007=DIRECTION('',(1.,-5.55111512312604E-16,-1.2136688276553E-16));
#1008=DIRECTION('center_axis',(0.,0.213589791544574,-0.976923436584437));
#1009=DIRECTION('ref_axis',(0.,0.976923436584437,0.213589791544574));
#1010=DIRECTION('',(1.,0.,0.));
#1011=DIRECTION('',(0.,-0.976923436584437,-0.213589791544574));
#1012=DIRECTION('center_axis',(-1.,4.93432455388922E-16,-1.07881673569208E-16));
#1013=DIRECTION('ref_axis',(-2.3754069344299E-16,-0.778970407507356,-0.627060686240035));
#1014=DIRECTION('center_axis',(1.,0.,0.));
#1015=DIRECTION('ref_axis',(-2.3754069344299E-16,-0.778970407507356,-0.627060686240035));
#1016=DIRECTION('',(1.,-4.93432455388922E-16,1.07881673569208E-16));
#1017=DIRECTION('',(-1.,4.93432455388922E-16,-1.07881673569208E-16));
#1018=DIRECTION('center_axis',(4.93432455388926E-16,1.,-4.33706454411146E-14));
#1019=DIRECTION('ref_axis',(-7.53496757087178E-16,-4.33706454411146E-14,
-1.));
#1020=DIRECTION('',(-1.,2.96059473233375E-17,1.76155386573858E-15));
#1021=DIRECTION('',(0.,4.33706454411146E-14,1.));
#1022=DIRECTION('center_axis',(1.,0.,0.));
#1023=DIRECTION('ref_axis',(0.,0.213589791544309,0.976923436584494));
#1024=DIRECTION('center_axis',(1.,0.,0.));
#1025=DIRECTION('ref_axis',(0.,0.213589791544309,0.976923436584494));
#1026=DIRECTION('',(1.,0.,0.));
#1027=DIRECTION('',(-1.,0.,0.));
#1028=DIRECTION('center_axis',(1.,-2.96059473233375E-17,-1.76155386573858E-15));
#1029=DIRECTION('ref_axis',(-2.96059473233359E-17,-1.,8.88178419701261E-16));
#1030=DIRECTION('center_axis',(1.,0.,0.));
#1031=DIRECTION('ref_axis',(-2.96059473233359E-17,-1.,8.88178419701261E-16));
#1032=DIRECTION('center_axis',(-5.55111512312609E-16,-1.,-4.15942886017121E-14));
#1033=DIRECTION('ref_axis',(7.53496757087132E-16,-4.15942886017121E-14,
1.));
#1034=DIRECTION('',(0.,4.15942886017121E-14,-1.));
#1035=DIRECTION('center_axis',(0.,-0.21358979154431,-0.976923436584494));
#1036=DIRECTION('ref_axis',(0.,0.976923436584494,-0.21358979154431));
#1037=DIRECTION('',(0.,0.976923436584494,-0.21358979154431));
#1038=DIRECTION('',(1.,0.,0.));
#1039=DIRECTION('center_axis',(0.,-0.21358979154431,-0.976923436584494));
#1040=DIRECTION('ref_axis',(0.,0.976923436584494,-0.21358979154431));
#1041=DIRECTION('',(1.,0.,0.));
#1042=DIRECTION('',(0.,0.976923436584494,-0.21358979154431));
#1043=DIRECTION('center_axis',(0.,0.213589791544574,-0.976923436584437));
#1044=DIRECTION('ref_axis',(0.,0.976923436584437,0.213589791544574));
#1045=DIRECTION('',(0.,-0.976923436584437,-0.213589791544574));
#1046=DIRECTION('',(1.,0.,0.));
#1047=DIRECTION('center_axis',(1.,-2.96059473233375E-17,-1.77635683940025E-15));
#1048=DIRECTION('ref_axis',(-2.96059473233359E-17,-1.,8.88178419701261E-16));
#1049=DIRECTION('center_axis',(1.,0.,0.));
#1050=DIRECTION('ref_axis',(-2.96059473233359E-17,-1.,8.88178419701261E-16));
#1051=DIRECTION('',(1.,-2.96059473233375E-17,-1.77635683940025E-15));
#1052=DIRECTION('center_axis',(1.,-4.44089209850063E-17,-1.77635683940025E-15));
#1053=DIRECTION('ref_axis',(-4.44089209850047E-17,-1.,8.88178419701261E-16));
#1054=DIRECTION('center_axis',(1.,0.,0.));
#1055=DIRECTION('ref_axis',(-4.44089209850047E-17,-1.,8.88178419701261E-16));
#1056=DIRECTION('',(1.,-4.44089209850063E-17,-1.77635683940025E-15));
#1057=DIRECTION('center_axis',(1.,0.,0.));
#1058=DIRECTION('ref_axis',(0.,0.5,0.866025403784439));
#1059=DIRECTION('',(-1.,0.,0.));
#1060=DIRECTION('center_axis',(1.,0.,0.));
#1061=DIRECTION('ref_axis',(0.,0.5,0.866025403784439));
#1062=DIRECTION('center_axis',(1.,0.,0.));
#1063=DIRECTION('ref_axis',(0.,-1.,0.));
#1064=DIRECTION('',(-1.,0.,0.));
#1065=DIRECTION('center_axis',(1.,0.,0.));
#1066=DIRECTION('ref_axis',(0.,-1.,0.));
#1067=DIRECTION('center_axis',(1.,0.,0.));
#1068=DIRECTION('ref_axis',(0.,-1.,0.));
#1069=DIRECTION('',(-1.,0.,0.));
#1070=DIRECTION('center_axis',(1.,0.,0.));
#1071=DIRECTION('ref_axis',(0.,-1.,0.));
#1072=DIRECTION('center_axis',(1.,0.,0.));
#1073=DIRECTION('ref_axis',(0.,-1.,0.));
#1074=DIRECTION('',(-1.,0.,0.));
#1075=DIRECTION('center_axis',(1.,0.,0.));
#1076=DIRECTION('ref_axis',(0.,-1.,0.));
#1077=DIRECTION('center_axis',(1.,0.,0.));
#1078=DIRECTION('ref_axis',(0.,-1.,0.));
#1079=DIRECTION('',(-1.,0.,0.));
#1080=DIRECTION('center_axis',(1.,0.,0.));
#1081=DIRECTION('ref_axis',(0.,-1.,0.));
#1082=DIRECTION('center_axis',(1.,0.,0.));
#1083=DIRECTION('ref_axis',(0.,0.5,-0.866025403784439));
#1084=DIRECTION('',(-1.,0.,0.));
#1085=DIRECTION('center_axis',(1.,0.,0.));
#1086=DIRECTION('ref_axis',(0.,0.5,-0.866025403784439));
#1087=DIRECTION('center_axis',(1.,0.,0.));
#1088=DIRECTION('ref_axis',(0.,-1.,0.));
#1089=DIRECTION('',(-1.,0.,0.));
#1090=DIRECTION('center_axis',(1.,0.,0.));
#1091=DIRECTION('ref_axis',(0.,-1.,0.));
#1092=DIRECTION('center_axis',(1.,0.,0.));
#1093=DIRECTION('ref_axis',(0.,-1.,0.));
#1094=DIRECTION('',(-1.,0.,0.));
#1095=DIRECTION('center_axis',(1.,0.,0.));
#1096=DIRECTION('ref_axis',(0.,-1.,0.));
#1097=DIRECTION('center_axis',(1.,0.,0.));
#1098=DIRECTION('ref_axis',(0.,-1.,0.));
#1099=DIRECTION('',(-1.,0.,0.));
#1100=DIRECTION('center_axis',(1.,0.,0.));
#1101=DIRECTION('ref_axis',(0.,-1.,0.));
#1102=DIRECTION('center_axis',(1.,0.,0.));
#1103=DIRECTION('ref_axis',(0.,-1.,0.));
#1104=DIRECTION('',(-1.,0.,0.));
#1105=DIRECTION('center_axis',(1.,0.,0.));
#1106=DIRECTION('ref_axis',(0.,-1.,0.));
#1107=DIRECTION('center_axis',(1.,0.,0.));
#1108=DIRECTION('ref_axis',(0.,-1.,0.));
#1109=DIRECTION('',(-1.,0.,0.));
#1110=DIRECTION('center_axis',(1.,0.,0.));
#1111=DIRECTION('ref_axis',(0.,-1.,0.));
#1112=DIRECTION('center_axis',(1.,0.,0.));
#1113=DIRECTION('ref_axis',(0.,-1.,0.));
#1114=DIRECTION('',(-1.,0.,0.));
#1115=DIRECTION('center_axis',(1.,0.,0.));
#1116=DIRECTION('ref_axis',(0.,-1.,0.));
#1117=DIRECTION('center_axis',(1.,0.,0.));
#1118=DIRECTION('ref_axis',(0.,-1.,0.));
#1119=DIRECTION('center_axis',(-1.,0.,0.));
#1120=DIRECTION('ref_axis',(0.,-1.,0.));
#1121=DIRECTION('',(1.,0.,0.));
#1122=DIRECTION('',(1.,0.,0.));
#1123=DIRECTION('center_axis',(1.,0.,0.));
#1124=DIRECTION('ref_axis',(0.,-1.,0.));
#1125=DIRECTION('center_axis',(-1.,0.,0.));
#1126=DIRECTION('ref_axis',(0.,-1.,0.));
#1127=DIRECTION('',(1.,0.,0.));
#1128=DIRECTION('center_axis',(1.,0.,0.));
#1129=DIRECTION('ref_axis',(0.,-1.,0.));
#1130=DIRECTION('center_axis',(-1.,0.,0.));
#1131=DIRECTION('ref_axis',(0.,-1.,0.));
#1132=DIRECTION('',(1.,0.,0.));
#1133=DIRECTION('center_axis',(1.,0.,0.));
#1134=DIRECTION('ref_axis',(0.,0.996970132065622,0.0777853184672801));
#1135=DIRECTION('center_axis',(-1.,0.,0.));
#1136=DIRECTION('ref_axis',(0.,-1.,0.));
#1137=DIRECTION('center_axis',(1.,0.,0.));
#1138=DIRECTION('ref_axis',(0.,-1.,0.));
#1139=DIRECTION('center_axis',(-1.,0.,0.));
#1140=DIRECTION('ref_axis',(0.,-1.,0.));
#1141=DIRECTION('center_axis',(1.,0.,0.));
#1142=DIRECTION('ref_axis',(0.,-1.,0.));
#1143=DIRECTION('center_axis',(-1.,0.,0.));
#1144=DIRECTION('ref_axis',(0.,-1.,0.));
#1145=DIRECTION('',(1.,0.,0.));
#1146=DIRECTION('center_axis',(1.,0.,0.));
#1147=DIRECTION('ref_axis',(0.,0.869180554265277,-0.494494857493085));
#1148=DIRECTION('center_axis',(-1.,0.,0.));
#1149=DIRECTION('ref_axis',(0.,-1.,0.));
#1150=DIRECTION('',(1.,0.,0.));
#1151=DIRECTION('center_axis',(1.,0.,0.));
#1152=DIRECTION('ref_axis',(0.,-1.,0.));
#1153=DIRECTION('center_axis',(-1.,0.,0.));
#1154=DIRECTION('ref_axis',(0.,-1.,0.));
#1155=DIRECTION('',(1.,0.,0.));
#1156=DIRECTION('center_axis',(1.,0.,0.));
#1157=DIRECTION('ref_axis',(0.,-1.,0.));
#1158=DIRECTION('center_axis',(-1.,0.,0.));
#1159=DIRECTION('ref_axis',(0.,-1.,0.));
#1160=DIRECTION('',(1.,0.,0.));
#1161=DIRECTION('center_axis',(0.,-0.552631578947601,0.833425664321589));
#1162=DIRECTION('ref_axis',(0.,-0.833425664321589,-0.552631578947601));
#1163=DIRECTION('',(0.,-0.833425664321589,-0.552631578947601));
#1164=DIRECTION('',(1.,0.,0.));
#1165=DIRECTION('center_axis',(1.,0.,0.));
#1166=DIRECTION('ref_axis',(0.,-1.,0.));
#1167=DIRECTION('center_axis',(-1.,0.,0.));
#1168=DIRECTION('ref_axis',(0.,-1.,0.));
#1169=DIRECTION('',(1.,0.,0.));
#1170=DIRECTION('center_axis',(0.,0.552631578947368,0.833425664321743));
#1171=DIRECTION('ref_axis',(0.,-0.833425664321743,0.552631578947368));
#1172=DIRECTION('',(0.,0.833425664321743,-0.552631578947368));
#1173=DIRECTION('center_axis',(-1.,0.,0.));
#1174=DIRECTION('ref_axis',(0.,-1.,0.));
#1175=CARTESIAN_POINT('',(0.,0.,0.));
#1176=CARTESIAN_POINT('Origin',(-60.0200244636527,13.9293761798606,12.0075037176738));
#1177=CARTESIAN_POINT('',(6.94692982456141,14.5701455544944,9.07673340792048));
#1178=CARTESIAN_POINT('',(6.94692982456136,10.9339863355443,11.8412518588367));
#1179=CARTESIAN_POINT('Origin',(6.94692982456141,13.9293761798606,12.0075037176738));
#1180=CARTESIAN_POINT('',(0.596929824561352,10.9339863355443,11.8412518588367));
#1181=CARTESIAN_POINT('',(-60.0200244636527,10.9339863355444,11.8412518588367));
#1182=CARTESIAN_POINT('',(0.59692982456141,14.5701455544944,9.07673340792048));
#1183=CARTESIAN_POINT('Origin',(0.596929824561405,13.9293761798606,12.0075037176738));
#1184=CARTESIAN_POINT('',(-60.0200244636527,14.5701455544944,9.07673340792048));
#1185=CARTESIAN_POINT('Origin',(-60.0200244636527,7.93859649122806,11.6749999999996));
#1186=CARTESIAN_POINT('',(6.94692982456139,4.93859649122577,11.6749999999993));
#1187=CARTESIAN_POINT('Origin',(6.94692982456136,7.93859649122805,11.6749999999995));
#1188=CARTESIAN_POINT('',(0.59692982456141,4.93859649122578,11.6749999999994));
#1189=CARTESIAN_POINT('',(-60.0200244636527,4.93859649122581,11.6749999999994));
#1190=CARTESIAN_POINT('Origin',(0.596929824561352,7.93859649122805,11.6749999999995));
#1191=CARTESIAN_POINT('Origin',(6.94692982456141,-7.56140350877516,41.7));
#1192=CARTESIAN_POINT('',(6.94692982456141,25.8560331559393,11.5442250146486));
#1193=CARTESIAN_POINT('',(6.94692982456141,25.8560331559393,11.5442250146486));
#1194=CARTESIAN_POINT('',(6.9469298245614,23.3903564518401,43.1466671946721));
#1195=CARTESIAN_POINT('Origin',(6.94692982456141,22.4385964912281,27.1749999999996));
#1196=CARTESIAN_POINT('',(6.9469298245614,15.1003837290433,57.7180686498231));
#1197=CARTESIAN_POINT('Origin',(6.9469298245614,23.9852064272226,53.1289591913423));
#1198=CARTESIAN_POINT('',(6.9469298245614,16.4385964912281,63.225));
#1199=CARTESIAN_POINT('Origin',(6.9469298245614,4.43859649122811,63.225));
#1200=CARTESIAN_POINT('',(6.9469298245614,14.2017543859649,67.3921283216087));
#1201=CARTESIAN_POINT('Origin',(6.9469298245614,11.4385964912281,63.225));
#1202=CARTESIAN_POINT('',(6.9469298245614,1.00438596491231,76.143097796987));
#1203=CARTESIAN_POINT('',(6.9469298245614,1.00438596491231,76.143097796987));
#1204=CARTESIAN_POINT('',(6.9469298245614,-16.1271929824782,76.1430977969847));
#1205=CARTESIAN_POINT('Origin',(6.9469298245614,-7.56140350877189,63.225));
#1206=CARTESIAN_POINT('',(6.9469298245614,-29.3245614035282,67.3921283216028));
#1207=CARTESIAN_POINT('',(6.9469298245614,-16.1271929824782,76.1430977969847));
#1208=CARTESIAN_POINT('',(6.9469298245614,-31.5614035087901,63.2249999999949));
#1209=CARTESIAN_POINT('Origin',(6.9469298245614,-26.5614035087901,63.2249999999949));
#1210=CARTESIAN_POINT('',(6.9469298245614,-30.2231907466038,57.7180686498169));
#1211=CARTESIAN_POINT('Origin',(6.9469298245614,-19.5614035087901,63.2249999999967));
#1212=CARTESIAN_POINT('',(6.9469298245614,-38.5131634693957,43.1466671946638));
#1213=CARTESIAN_POINT('Origin',(6.9469298245614,-39.1080134447816,53.1289591913338));
#1214=CARTESIAN_POINT('',(6.94692982456141,-40.9788401734871,11.5442250146406));
#1215=CARTESIAN_POINT('Origin',(6.94692982456141,-37.5614035087784,27.1749999999925));
#1216=CARTESIAN_POINT('',(6.94692982456141,-29.6929525720378,9.07673340791364));
#1217=CARTESIAN_POINT('',(6.94692982456141,-40.9788401734874,11.5442250146396));
#1218=CARTESIAN_POINT('',(6.94692982456136,-26.0567933530884,11.8412518588334));
#1219=CARTESIAN_POINT('Origin',(6.94692982456141,-29.0521831974049,12.0075037176671));
#1220=CARTESIAN_POINT('',(6.94692982456136,-20.0614035087719,11.6749999999995));
#1221=CARTESIAN_POINT('Origin',(6.94692982456136,-23.0614035087719,11.6749999999995));
#1222=CARTESIAN_POINT('',(6.94692982456141,-20.061403508772,9.38589793133977));
#1223=CARTESIAN_POINT('',(6.94692982456141,-20.0614035087713,26.6875));
#1224=CARTESIAN_POINT('',(6.94692982456141,-17.702172883405,6.45512762158615));
#1225=CARTESIAN_POINT('Origin',(6.94692982456141,-17.061403508772,9.38589793133964));
#1226=CARTESIAN_POINT('',(6.94692982456141,-11.5128146523463,5.10191642318685));
#1227=CARTESIAN_POINT('',(6.94692982456141,-40.9788401734874,11.5442250146396));
#1228=CARTESIAN_POINT('',(6.94692982456141,-3.60999236520001,5.10191642318791));
#1229=CARTESIAN_POINT('Origin',(6.94692982456141,-7.56140350877462,23.175));
#1230=CARTESIAN_POINT('',(6.94692982456141,2.57936586585959,6.45512762158918));
#1231=CARTESIAN_POINT('',(6.94692982456141,25.8560331559393,11.5442250146486));
#1232=CARTESIAN_POINT('',(6.94692982456141,4.93859649122587,9.38589793134262));
#1233=CARTESIAN_POINT('Origin',(6.94692982456141,1.93859649122587,9.38589793134249));
#1234=CARTESIAN_POINT('',(6.94692982456141,4.93859649122525,24.3354691688832));
#1235=CARTESIAN_POINT('',(6.94692982456141,0.0874884622748573,21.3732695154583));
#1236=CARTESIAN_POINT('Origin',(6.94692982456141,0.687488462274857,22.4124999999996));
#1237=CARTESIAN_POINT('',(6.9469298245614,-44.8466848830147,18.6897186257519));
#1238=CARTESIAN_POINT('Origin',(6.9469298245614,-46.0466848830147,18.6897186257519));
#1239=CARTESIAN_POINT('',(6.94692982456141,-30.0114035087784,27.1749999999925));
#1240=CARTESIAN_POINT('Origin',(6.94692982456141,-37.5614035087784,27.1749999999925));
#1241=CARTESIAN_POINT('',(6.9469298245614,15.1533151169895,35.6602813742382));
#1242=CARTESIAN_POINT('Origin',(6.9469298245614,13.9533151169895,35.6602813742382));
#1243=CARTESIAN_POINT('',(6.9469298245614,-24.9614035087901,63.2249999999949));
#1244=CARTESIAN_POINT('Origin',(6.9469298245614,-26.5614035087901,63.2249999999949));
#1245=CARTESIAN_POINT('',(6.94692982456141,-16.4102954798187,23.4517304845409));
#1246=CARTESIAN_POINT('Origin',(6.94692982456141,-15.8102954798187,22.4124999999996));
#1247=CARTESIAN_POINT('',(6.9469298245614,32.1238778654667,18.689718625761));
#1248=CARTESIAN_POINT('Origin',(6.9469298245614,30.9238778654667,18.689718625761));
#1249=CARTESIAN_POINT('',(6.9469298245614,-27.8761221345421,35.6602813742331));
#1250=CARTESIAN_POINT('Origin',(6.9469298245614,-29.0761221345421,35.6602813742331));
#1251=CARTESIAN_POINT('',(6.9469298245614,13.0385964912281,63.225));
#1252=CARTESIAN_POINT('Origin',(6.9469298245614,11.4385964912281,63.225));
#1253=CARTESIAN_POINT('',(6.94692982456141,-1.06140350877192,27.1749999999996));
#1254=CARTESIAN_POINT('Origin',(6.94692982456141,-7.56140350877192,27.1749999999996));
#1255=CARTESIAN_POINT('',(6.94692982456141,29.9885964912281,27.1749999999996));
#1256=CARTESIAN_POINT('Origin',(6.94692982456141,22.4385964912281,27.1749999999996));
#1257=CARTESIAN_POINT('',(6.94692982456141,-6.36140350877192,36.6999999999996));
#1258=CARTESIAN_POINT('Origin',(6.94692982456141,-7.56140350877192,36.6999999999996));
#1259=CARTESIAN_POINT('',(6.94692982456141,10.9385964912281,42.6749999999995));
#1260=CARTESIAN_POINT('Origin',(6.94692982456141,7.93859649122808,42.6749999999995));
#1261=CARTESIAN_POINT('',(6.94692982456141,-20.0614035087719,42.6749999999995));
#1262=CARTESIAN_POINT('Origin',(6.94692982456141,-23.0614035087719,42.6749999999995));
#1263=CARTESIAN_POINT('Origin',(3.7719298245614,1.93859649122587,9.38589793134249));
#1264=CARTESIAN_POINT('',(0.59692982456141,2.57936586585959,6.45512762158918));
#1265=CARTESIAN_POINT('',(3.7719298245614,2.57936586585959,6.45512762158918));
#1266=CARTESIAN_POINT('',(0.59692982456141,4.93859649122587,9.38589793134262));
#1267=CARTESIAN_POINT('Origin',(0.596929824561411,1.93859649122587,9.38589793134249));
#1268=CARTESIAN_POINT('',(3.7719298245614,4.93859649122587,9.38589793134262));
#1269=CARTESIAN_POINT('Origin',(0.59692982456141,-3.60999236520001,5.10191642318791));
#1270=CARTESIAN_POINT('',(0.59692982456141,-3.60999236520001,5.10191642318791));
#1271=CARTESIAN_POINT('',(0.59692982456141,-3.60999236520001,5.10191642318791));
#1272=CARTESIAN_POINT('',(0.59692982456141,25.8560331559393,11.5442250146486));
#1273=CARTESIAN_POINT('Origin',(3.7719298245614,-17.061403508772,9.38589793133964));
#1274=CARTESIAN_POINT('',(0.59692982456141,-20.061403508772,9.38589793133977));
#1275=CARTESIAN_POINT('',(0.59692982456141,-17.702172883405,6.45512762158615));
#1276=CARTESIAN_POINT('Origin',(0.596929824561409,-17.061403508772,9.38589793133964));
#1277=CARTESIAN_POINT('',(3.7719298245614,-17.702172883405,6.45512762158615));
#1278=CARTESIAN_POINT('',(3.7719298245614,-20.061403508772,9.38589793133977));
#1279=CARTESIAN_POINT('Origin',(6.94692982456138,-20.0614035087719,11.6749999999994));
#1280=CARTESIAN_POINT('',(0.596929824561352,-20.0614035087719,11.6749999999995));
#1281=CARTESIAN_POINT('',(-60.0200244636527,-20.0614035087719,11.6749999999995));
#1282=CARTESIAN_POINT('',(0.59692982456141,-20.0614035087713,26.6875));
#1283=CARTESIAN_POINT('Origin',(-60.0200244636527,-29.0521831974049,12.0075037176671));
#1284=CARTESIAN_POINT('',(0.59692982456141,-29.6929525720378,9.07673340791364));
#1285=CARTESIAN_POINT('',(0.596929824561352,-26.0567933530884,11.8412518588334));
#1286=CARTESIAN_POINT('Origin',(0.596929824561405,-29.0521831974049,12.0075037176671));
#1287=CARTESIAN_POINT('',(-60.0200244636527,-26.0567933530884,11.8412518588334));
#1288=CARTESIAN_POINT('',(-60.0200244636527,-29.6929525720378,9.07673340791364));
#1289=CARTESIAN_POINT('Origin',(-60.0200244636527,-23.0614035087719,11.6749999999996));
#1290=CARTESIAN_POINT('Origin',(0.596929824561352,-23.0614035087719,11.6749999999995));
#1291=CARTESIAN_POINT('Origin',(6.94692982456139,4.93859649122597,6.97093833776588));
#1292=CARTESIAN_POINT('',(0.59692982456141,4.93859649122525,24.3354691688832));
#1293=CARTESIAN_POINT('Origin',(0.59692982456141,-40.9788401734874,11.5442250146396));
#1294=CARTESIAN_POINT('',(0.59692982456141,-11.5128146523463,5.10191642318685));
#1295=CARTESIAN_POINT('',(0.59692982456141,-40.9788401734874,11.5442250146396));
#1296=CARTESIAN_POINT('',(0.59692982456141,-11.5128146523463,5.10191642318685));
#1297=CARTESIAN_POINT('Origin',(0.59692982456141,-40.9788401734874,11.5442250146396));
#1298=CARTESIAN_POINT('',(0.59692982456141,-40.9788401734871,11.5442250146406));
#1299=CARTESIAN_POINT('',(0.59692982456141,-40.9788401734871,11.5442250146406));
#1300=CARTESIAN_POINT('',(0.59692982456141,-40.9788401734874,11.5442250146396));
#1301=CARTESIAN_POINT('Origin',(0.59692982456141,-3.60999236520001,5.10191642318791));
#1302=CARTESIAN_POINT('',(0.59692982456141,25.8560331559393,11.5442250146486));
#1303=CARTESIAN_POINT('',(0.59692982456141,25.8560331559393,11.5442250146486));
#1304=CARTESIAN_POINT('',(0.59692982456141,25.8560331559393,11.5442250146486));
#1305=CARTESIAN_POINT('Origin',(-60.0200244636527,-23.0614035087719,42.6749999999996));
#1306=CARTESIAN_POINT('',(0.596929824561405,-20.0614035087719,42.6749999999995));
#1307=CARTESIAN_POINT('Origin',(0.596929824561405,-23.0614035087719,42.6749999999995));
#1308=CARTESIAN_POINT('',(-60.0200244636527,-20.0614035087719,42.6749999999996));
#1309=CARTESIAN_POINT('Origin',(-60.0200244636527,7.93859649122808,42.6749999999996));
#1310=CARTESIAN_POINT('',(0.596929824561405,10.9385964912281,42.6749999999995));
#1311=CARTESIAN_POINT('Origin',(0.596929824561405,7.93859649122808,42.6749999999995));
#1312=CARTESIAN_POINT('',(-60.0200244636527,10.9385964912281,42.6749999999996));
#1313=CARTESIAN_POINT('Origin',(0.59692982456141,0.687488462274857,22.4124999999996));
#1314=CARTESIAN_POINT('',(0.59692982456141,0.0874884622748569,21.3732695154583));
#1315=CARTESIAN_POINT('',(0.59692982456141,0.0874884622748572,21.3732695154583));
#1316=CARTESIAN_POINT('Origin',(0.59692982456141,0.687488462274857,22.4124999999996));
#1317=CARTESIAN_POINT('Origin',(0.596929824561396,-46.0466848830147,18.6897186257519));
#1318=CARTESIAN_POINT('',(0.596929824561396,-44.8466848830147,18.6897186257519));
#1319=CARTESIAN_POINT('',(0.596929824561396,-44.8466848830147,18.6897186257519));
#1320=CARTESIAN_POINT('Origin',(0.596929824561396,-46.0466848830147,18.6897186257519));
#1321=CARTESIAN_POINT('Origin',(0.59692982456141,-37.5614035087784,27.1749999999925));
#1322=CARTESIAN_POINT('',(0.59692982456141,-30.0114035087784,27.1749999999925));
#1323=CARTESIAN_POINT('',(0.59692982456141,-30.0114035087784,27.1749999999925));
#1324=CARTESIAN_POINT('Origin',(0.59692982456141,-37.5614035087784,27.1749999999925));
#1325=CARTESIAN_POINT('Origin',(0.596929824561396,13.9533151169895,35.6602813742382));
#1326=CARTESIAN_POINT('',(0.596929824561396,15.1533151169895,35.6602813742382));
#1327=CARTESIAN_POINT('',(0.596929824561396,15.1533151169895,35.6602813742382));
#1328=CARTESIAN_POINT('Origin',(0.596929824561396,13.9533151169895,35.6602813742382));
#1329=CARTESIAN_POINT('Origin',(0.596929824561401,-26.5614035087901,63.2249999999949));
#1330=CARTESIAN_POINT('',(0.596929824561401,-24.9614035087901,63.2249999999949));
#1331=CARTESIAN_POINT('',(0.596929824561401,-24.9614035087901,63.2249999999949));
#1332=CARTESIAN_POINT('Origin',(0.596929824561401,-26.5614035087901,63.2249999999949));
#1333=CARTESIAN_POINT('Origin',(0.59692982456141,-15.8102954798187,22.4124999999996));
#1334=CARTESIAN_POINT('',(0.59692982456141,-16.4102954798187,23.4517304845409));
#1335=CARTESIAN_POINT('',(0.59692982456141,-16.4102954798187,23.4517304845409));
#1336=CARTESIAN_POINT('Origin',(0.59692982456141,-15.8102954798187,22.4124999999996));
#1337=CARTESIAN_POINT('Origin',(0.596929824561396,30.9238778654667,18.689718625761));
#1338=CARTESIAN_POINT('',(0.596929824561396,32.1238778654667,18.689718625761));
#1339=CARTESIAN_POINT('',(0.596929824561396,32.1238778654667,18.689718625761));
#1340=CARTESIAN_POINT('Origin',(0.596929824561396,30.9238778654667,18.689718625761));
#1341=CARTESIAN_POINT('Origin',(0.596929824561396,-29.0761221345421,35.6602813742331));
#1342=CARTESIAN_POINT('',(0.596929824561396,-27.8761221345421,35.6602813742331));
#1343=CARTESIAN_POINT('',(0.596929824561396,-27.8761221345421,35.6602813742331));
#1344=CARTESIAN_POINT('Origin',(0.596929824561396,-29.0761221345421,35.6602813742331));
#1345=CARTESIAN_POINT('Origin',(0.596929824561401,11.4385964912281,63.225));
#1346=CARTESIAN_POINT('',(0.596929824561401,13.0385964912281,63.225));
#1347=CARTESIAN_POINT('',(0.596929824561401,13.0385964912281,63.225));
#1348=CARTESIAN_POINT('Origin',(0.596929824561401,11.4385964912281,63.225));
#1349=CARTESIAN_POINT('Origin',(0.59692982456141,-7.56140350877192,27.1749999999996));
#1350=CARTESIAN_POINT('',(0.59692982456141,-1.06140350877192,27.1749999999996));
#1351=CARTESIAN_POINT('',(0.59692982456141,-1.06140350877192,27.1749999999996));
#1352=CARTESIAN_POINT('Origin',(0.59692982456141,-7.56140350877192,27.1749999999996));
#1353=CARTESIAN_POINT('Origin',(0.59692982456141,22.4385964912281,27.1749999999996));
#1354=CARTESIAN_POINT('',(0.59692982456141,29.9885964912281,27.1749999999996));
#1355=CARTESIAN_POINT('',(0.59692982456141,29.9885964912281,27.1749999999996));
#1356=CARTESIAN_POINT('Origin',(0.59692982456141,22.4385964912281,27.1749999999996));
#1357=CARTESIAN_POINT('Origin',(0.59692982456141,-7.56140350877192,36.6999999999996));
#1358=CARTESIAN_POINT('',(0.59692982456141,-6.36140350877192,36.6999999999996));
#1359=CARTESIAN_POINT('',(0.59692982456141,-6.36140350877192,36.6999999999996));
#1360=CARTESIAN_POINT('Origin',(0.59692982456141,-7.56140350877192,36.6999999999996));
#1361=CARTESIAN_POINT('Origin',(0.596929824561401,11.4385964912281,63.225));
#1362=CARTESIAN_POINT('',(0.596929824561401,14.2017543859649,67.3921283216087));
#1363=CARTESIAN_POINT('',(0.596929824561401,16.4385964912281,63.225));
#1364=CARTESIAN_POINT('Origin',(0.596929824561401,11.4385964912281,63.225));
#1365=CARTESIAN_POINT('',(0.596929824561401,14.2017543859649,67.3921283216087));
#1366=CARTESIAN_POINT('',(0.596929824561401,16.4385964912281,63.225));
#1367=CARTESIAN_POINT('Origin',(0.596929824561401,4.43859649122811,63.225));
#1368=CARTESIAN_POINT('',(0.596929824561396,15.1003837290433,57.7180686498231));
#1369=CARTESIAN_POINT('Origin',(0.596929824561401,4.43859649122811,63.225));
#1370=CARTESIAN_POINT('',(0.596929824561396,15.1003837290433,57.7180686498231));
#1371=CARTESIAN_POINT('Origin',(0.596929824561396,23.9852064272226,53.1289591913423));
#1372=CARTESIAN_POINT('',(0.596929824561396,23.3903564518401,43.1466671946721));
#1373=CARTESIAN_POINT('Origin',(0.596929824561396,23.9852064272226,53.1289591913423));
#1374=CARTESIAN_POINT('',(0.596929824561396,23.3903564518401,43.1466671946721));
#1375=CARTESIAN_POINT('Origin',(0.59692982456141,22.4385964912281,27.1749999999996));
#1376=CARTESIAN_POINT('Origin',(0.59692982456141,22.4385964912281,27.1749999999996));
#1377=CARTESIAN_POINT('Origin',(0.59692982456141,-7.56140350877462,23.175));
#1378=CARTESIAN_POINT('Origin',(0.59692982456141,-7.56140350877462,23.175));
#1379=CARTESIAN_POINT('Origin',(0.59692982456141,-37.5614035087784,27.1749999999925));
#1380=CARTESIAN_POINT('',(0.596929824561396,-38.5131634693957,43.1466671946638));
#1381=CARTESIAN_POINT('Origin',(0.59692982456141,-37.5614035087784,27.1749999999925));
#1382=CARTESIAN_POINT('',(0.596929824561396,-38.5131634693957,43.1466671946638));
#1383=CARTESIAN_POINT('Origin',(0.596929824561396,-39.1080134447816,53.1289591913338));
#1384=CARTESIAN_POINT('',(0.596929824561401,-30.2231907466038,57.7180686498169));
#1385=CARTESIAN_POINT('Origin',(0.596929824561396,-39.1080134447816,53.1289591913338));
#1386=CARTESIAN_POINT('',(0.596929824561401,-30.2231907466038,57.7180686498169));
#1387=CARTESIAN_POINT('Origin',(0.596929824561401,-19.5614035087901,63.2249999999967));
#1388=CARTESIAN_POINT('',(0.596929824561401,-31.5614035087901,63.2249999999949));
#1389=CARTESIAN_POINT('Origin',(0.596929824561401,-19.5614035087901,63.2249999999967));
#1390=CARTESIAN_POINT('',(0.596929824561401,-31.5614035087901,63.2249999999949));
#1391=CARTESIAN_POINT('Origin',(0.596929824561401,-26.5614035087901,63.2249999999949));
#1392=CARTESIAN_POINT('',(0.596929824561401,-29.3245614035282,67.3921283216028));
#1393=CARTESIAN_POINT('Origin',(0.596929824561401,-26.5614035087901,63.2249999999949));
#1394=CARTESIAN_POINT('',(0.596929824561401,-29.3245614035282,67.3921283216028));
#1395=CARTESIAN_POINT('Origin',(0.596929824561401,-16.1271929824782,76.1430977969847));
#1396=CARTESIAN_POINT('',(0.596929824561401,-16.1271929824782,76.1430977969847));
#1397=CARTESIAN_POINT('',(0.596929824561401,-16.1271929824782,76.1430977969847));
#1398=CARTESIAN_POINT('',(0.596929824561401,-16.1271929824782,76.1430977969847));
#1399=CARTESIAN_POINT('Origin',(0.596929824561401,-7.56140350877189,63.225));
#1400=CARTESIAN_POINT('',(0.596929824561401,1.00438596491231,76.143097796987));
#1401=CARTESIAN_POINT('Origin',(0.596929824561401,-7.56140350877189,63.225));
#1402=CARTESIAN_POINT('',(0.596929824561401,1.00438596491231,76.143097796987));
#1403=CARTESIAN_POINT('Origin',(0.596929824561401,14.2017543859649,67.3921283216087));
#1404=CARTESIAN_POINT('',(0.596929824561401,1.00438596491231,76.143097796987));
#1405=CARTESIAN_POINT('Origin',(0.59692982456141,-7.56140350877516,41.7));
#1406=UNCERTAINTY_MEASURE_WITH_UNIT(LENGTH_MEASURE(0.01),#1410,
'DISTANCE_ACCURACY_VALUE',
'Maximum model space distance between geometric entities at asserted c
onnectivities');
#1407=UNCERTAINTY_MEASURE_WITH_UNIT(LENGTH_MEASURE(0.01),#1410,
'DISTANCE_ACCURACY_VALUE',
'Maximum model space distance between geometric entities at asserted c
onnectivities');
#1408=(
GEOMETRIC_REPRESENTATION_CONTEXT(3)
GLOBAL_UNCERTAINTY_ASSIGNED_CONTEXT((#1406))
GLOBAL_UNIT_ASSIGNED_CONTEXT((#1410,#1411,#1412))
REPRESENTATION_CONTEXT('','3D')
);
#1409=(
GEOMETRIC_REPRESENTATION_CONTEXT(3)
GLOBAL_UNCERTAINTY_ASSIGNED_CONTEXT((#1407))
GLOBAL_UNIT_ASSIGNED_CONTEXT((#1410,#1411,#1412))
REPRESENTATION_CONTEXT('','3D')
);
#1410=(
LENGTH_UNIT()
NAMED_UNIT(*)
SI_UNIT(.MILLI.,.METRE.)
);
#1411=(
NAMED_UNIT(*)
PLANE_ANGLE_UNIT()
SI_UNIT($,.RADIAN.)
);
#1412=(
NAMED_UNIT(*)
SI_UNIT($,.STERADIAN.)
SOLID_ANGLE_UNIT()
);
#1413=SHAPE_DEFINITION_REPRESENTATION(#1414,#1415);
#1414=PRODUCT_DEFINITION_SHAPE('',$,#1417);
#1415=SHAPE_REPRESENTATION('',(#818),#1408);
#1416=PRODUCT_DEFINITION_CONTEXT('part definition',#1421,'design');
#1417=PRODUCT_DEFINITION('carriage_250108','carriage_250108',#1418,#1416);
#1418=PRODUCT_DEFINITION_FORMATION('',$,#1423);
#1419=PRODUCT_RELATED_PRODUCT_CATEGORY('carriage_250108',
'carriage_250108',(#1423));
#1420=APPLICATION_PROTOCOL_DEFINITION('international standard',
'ap242_managed_model_based_3d_engineering',2011,#1421);
#1421=APPLICATION_CONTEXT('Managed model based 3d engineering');
#1422=PRODUCT_CONTEXT('part definition',#1421,'mechanical');
#1423=PRODUCT('carriage_250108','carriage_250108',$,(#1422));
#1424=PRESENTATION_STYLE_ASSIGNMENT((#1429));
#1425=PRESENTATION_STYLE_ASSIGNMENT((#1430));
#1426=PRESENTATION_STYLE_ASSIGNMENT((#1431));
#1427=PRESENTATION_STYLE_ASSIGNMENT((#1432));
#1428=PRESENTATION_STYLE_ASSIGNMENT((#1433));
#1429=SURFACE_STYLE_USAGE(.BOTH.,#1434);
#1430=SURFACE_STYLE_USAGE(.BOTH.,#1435);
#1431=SURFACE_STYLE_USAGE(.BOTH.,#1436);
#1432=SURFACE_STYLE_USAGE(.BOTH.,#1437);
#1433=SURFACE_STYLE_USAGE(.BOTH.,#1438);
#1434=SURFACE_SIDE_STYLE('',(#1439));
#1435=SURFACE_SIDE_STYLE('',(#1440));
#1436=SURFACE_SIDE_STYLE('',(#1441));
#1437=SURFACE_SIDE_STYLE('',(#1442));
#1438=SURFACE_SIDE_STYLE('',(#1443));
#1439=SURFACE_STYLE_FILL_AREA(#1444);
#1440=SURFACE_STYLE_FILL_AREA(#1445);
#1441=SURFACE_STYLE_FILL_AREA(#1446);
#1442=SURFACE_STYLE_FILL_AREA(#1447);
#1443=SURFACE_STYLE_FILL_AREA(#1448);
#1444=FILL_AREA_STYLE('Aluminum - Polished',(#1449));
#1445=FILL_AREA_STYLE('Steel - Satin',(#1450));
#1446=FILL_AREA_STYLE('Opaque(64,64,64)',(#1451));
#1447=FILL_AREA_STYLE('Chrome',(#1452));
#1448=FILL_AREA_STYLE('Aluminum - Satin',(#1453));
#1449=FILL_AREA_STYLE_COLOUR('Aluminum - Polished',#1454);
#1450=FILL_AREA_STYLE_COLOUR('Steel - Satin',#1455);
#1451=FILL_AREA_STYLE_COLOUR('Opaque(64,64,64)',#1456);
#1452=FILL_AREA_STYLE_COLOUR('Chrome',#1457);
#1453=FILL_AREA_STYLE_COLOUR('Aluminum - Satin',#1458);
#1454=COLOUR_RGB('Aluminum - Polished',0.96078431372549,0.96078431372549,
0.964705882352941);
#1455=COLOUR_RGB('Steel - Satin',0.627450980392157,0.627450980392157,0.627450980392157);
#1456=COLOUR_RGB('Opaque(64,64,64)',0.117647058823529,0.117647058823529,
0.117647058823529);
#1457=COLOUR_RGB('Chrome',0.768627450980392,0.772549019607843,0.768627450980392);
#1458=COLOUR_RGB('Aluminum - Satin',0.96078431372549,0.96078431372549,0.964705882352941);
ENDSEC;
END-ISO-10303-21;
