0
SECTION
2
HEADER
9
$INSUNITS
70
4
9
$ACADVER
1
AC1014
9
$HANDSEED
5
FFFF
0
ENDSEC
0
SECTION
2
TABLES
0
TABLE
2
VPORT
5
8
100
AcDbSymbolTable
0
ENDTAB
0
TABLE
2
LTYPE
5
5
100
AcDbSymbolTable
0
LTYPE
5
14
100
AcDbSymbolTableRecord
100
AcDbLinetypeTableRecord
2
BYBLOCK
70
0
0
LTYPE
5
15
100
AcDbSymbolTableRecord
100
AcDbLinetypeTableRecord
2
BYLAYER
70
0
0
LTYPE
5
16
100
AcDbSymbolTableRecord
100
AcDbLinetypeTableRecord
2
DASHED
70
0
3
Dashed __ __ __ __ __ __ __ __ __ __ __ __ __ _
72
65
73
2
40
0.75
49
0.5
74
0
49
-0.25
74
0
0
ENDTAB
0
TABLE
2
LAYER
5
2
100
AcDbSymbolTable
70
3
0
LAYER
5
50
100
AcDbSymbolTableRecord
100
AcDbLayerTableRecord
2
1
70
0
62
7
6
DASHED
0
LAYER
5
51
100
AcDbSymbolTableRecord
100
AcDbLayerTableRecord
2
0
70
0
62
7
6
CONTINUOUS
0
ENDTAB
0
TABLE
2
STYLE
5
3
100
AcDbSymbolTable
70
1
0
STYLE
5
11
100
AcDbSymbolTableRecord
100
AcDbTextStyleTableRecord
2
STANDARD
70
0
0
ENDTAB
0
TABLE
2
VIEW
5
6
100
AcDbSymbolTable
70
0
0
ENDTAB
0
TABLE
2
UCS
5
7
100
AcDbSymbolTable
70
0
0
ENDTAB
0
TABLE
2
APPID
5
9
100
AcDbSymbolTable
70
2
0
APPID
5
12
100
AcDbSymbolTableRecord
100
AcDbRegAppTableRecord
2
ACAD
70
0
0
ENDTAB
0
TABLE
2
DIMSTYLE
5
A
100
AcDbSymbolTable
70
1
0
ENDTAB
0
TABLE
2
BLOCK_RECORD
5
1
100
AcDbSymbolTable
70
1
0
BLOCK_RECORD
5
1F
100
AcDbSymbolTableRecord
100
AcDbBlockTableRecord
2
*MODEL_SPACE
0
BLOCK_RECORD
5
1B
100
AcDbSymbolTableRecord
100
AcDbBlockTableRecord
2
*PAPER_SPACE
0
ENDTAB
0
ENDSEC
0
SECTION
2
BLOCKS
0
BLOCK
5
20
100
AcDbEntity
100
AcDbBlockBegin
2
*MODEL_SPACE
0
ENDBLK
5
21
100
AcDbEntity
100
AcDbBlockEnd
0
BLOCK
5
1C
100
AcDbEntity
100
AcDbBlockBegin
2
*PAPER_SPACE
0
ENDBLK
5
1D
100
AcDbEntity
100
AcDbBlockEnd
0
ENDSEC
0
SECTION
2
ENTITIES
0
ARC
5
100
100
AcDbEntity
8
0
100
AcDbCircle
10
22.438596491228079
20
27.174999999999617
30
0
40
16.000000000000007
210
-0
220
0
230
1
100
AcDbArc
50
-77.667193379299178
51
86.589747500221279
0
ARC
5
101
100
AcDbEntity
8
0
100
AcDbCircle
10
23.985206427222636
20
53.128959191342346
30
0
40
9.9999999999999982
210
0
220
0
230
1
100
AcDbArc
50
152.68314486969834
51
266.58974750022122
0
ARC
5
102
100
AcDbEntity
8
0
100
AcDbCircle
10
4.4385964912281084
20
63.22499999999998
30
0
40
12.000000000000007
210
-0
220
0
230
1
100
AcDbArc
50
-27.316855130301562
51
0
0
ARC
5
103
100
AcDbEntity
8
0
100
AcDbCircle
10
11.438596491228115
20
63.22499999999998
30
0
40
4.9999999999999956
210
0
220
0
230
1
100
AcDbArc
50
0
51
56.452261731773177
0
LINE
5
104
100
AcDbEntity
8
0
100
AcDbLine
10
14.201754385964943
20
67.392128321608709
30
0
11
1.0043859649123066
21
76.143097796987007
31
0
0
ARC
5
105
100
AcDbEntity
8
0
100
AcDbCircle
10
-7.5614035087718889
20
63.22499999999998
30
0
40
15.500000000000004
210
0
220
-0
230
1
100
AcDbArc
50
56.452261731773028
51
123.54773826829995
0
LINE
5
106
100
AcDbEntity
8
0
100
AcDbLine
10
-16.127192982472533
20
76.143097796976093
30
0
11
-29.324561403528246
21
67.39212832160284
31
0
0
ARC
5
107
100
AcDbEntity
8
0
100
AcDbCircle
10
-26.561403508790143
20
63.224999999994857
30
0
40
5.0000000000000879
210
0
220
0
230
1
100
AcDbArc
50
123.54773826824375
51
180
0
ARC
5
108
100
AcDbEntity
8
0
100
AcDbCircle
10
-19.561403508790139
20
63.224999999996747
30
0
40
12
210
0
220
0
230
1
100
AcDbArc
50
180
51
207.31685513031746
0
ARC
5
109
100
AcDbEntity
8
0
100
AcDbCircle
10
-39.108013444781612
20
53.128959191333848
30
0
40
10.000000000000011
210
0
220
0
230
1
100
AcDbArc
50
-86.589747500201909
51
27.316855130317428
0
ARC
5
110
100
AcDbEntity
8
0
100
AcDbCircle
10
-37.561403508778398
20
27.174999999992515
30
0
40
15.999999999999124
210
0
220
0
230
1
100
AcDbArc
50
93.410252499797963
51
257.66719337930846
0
LINE
5
111
100
AcDbEntity
8
0
100
AcDbLine
10
-40.97884017348715
20
11.544225014640555
30
0
11
-29.692952572037843
21
9.0767334079136415
31
0
0
ARC
5
112
100
AcDbEntity
8
0
100
AcDbCircle
10
-7.5614035087746174
20
23.174999999999997
30
0
40
18.500000000000011
210
0
220
0
230
1
100
AcDbArc
50
257.66719337930169
51
282.33280662070774
0
LINE
5
113
100
AcDbEntity
8
0
100
AcDbLine
10
14.570145554494371
20
9.0767334079204751
30
0
11
25.856033155939279
21
11.54422501464861
31
0
0
CIRCLE
5
114
100
AcDbEntity
8
0
100
AcDbCircle
10
-23.061403508771914
20
42.674999999999486
30
0
40
2.9999999999999982
210
0
220
-0
230
1
0
CIRCLE
5
115
100
AcDbEntity
8
0
100
AcDbCircle
10
7.9385964912280818
20
42.674999999999457
30
0
40
3.0000000000000004
210
0
220
-0
230
1
0
CIRCLE
5
116
100
AcDbEntity
8
0
100
AcDbCircle
10
13.953315116989497
20
35.660281374238188
30
0
40
1.1999999999999988
210
0
220
-0
230
1
0
CIRCLE
5
117
100
AcDbEntity
8
0
100
AcDbCircle
10
-37.561403508778398
20
27.174999999992515
30
0
40
7.549999999999998
210
0
220
-0
230
1
0
CIRCLE
5
118
100
AcDbEntity
8
0
100
AcDbCircle
10
30.923877865466661
20
18.689718625761046
30
0
40
1.2000000000000011
210
0
220
-0
230
1
0
CIRCLE
5
119
100
AcDbEntity
8
0
100
AcDbCircle
10
-26.561403508790143
20
63.224999999994857
30
0
40
1.6000000000000014
210
0
220
-0
230
1
0
CIRCLE
5
120
100
AcDbEntity
8
0
100
AcDbCircle
10
-7.5614035087719191
20
27.174999999999613
30
0
40
6.5
210
0
220
-0
230
1
0
CIRCLE
5
121
100
AcDbEntity
8
0
100
AcDbCircle
10
22.438596491228079
20
27.174999999999617
30
0
40
7.549999999999998
210
0
220
-0
230
1
0
CIRCLE
5
122
100
AcDbEntity
8
0
100
AcDbCircle
10
-29.076122134542093
20
35.660281374233087
30
0
40
1.2000000000000011
210
0
220
-0
230
1
0
CIRCLE
5
123
100
AcDbEntity
8
0
100
AcDbCircle
10
-15.810295479818697
20
22.412499999999611
30
0
40
1.2000000000000006
210
0
220
-0
230
1
0
CIRCLE
5
124
100
AcDbEntity
8
0
100
AcDbCircle
10
0.68748846227485672
20
22.412499999999614
30
0
40
1.2000000000000002
210
-0
220
0
230
1
0
CIRCLE
5
125
100
AcDbEntity
8
0
100
AcDbCircle
10
11.438596491228115
20
63.22499999999998
30
0
40
1.6000000000000003
210
0
220
-0
230
1
0
CIRCLE
5
126
100
AcDbEntity
8
0
100
AcDbCircle
10
-7.5614035087719191
20
36.699999999999612
30
0
40
1.2
210
0
220
-0
230
1
0
CIRCLE
5
127
100
AcDbEntity
8
0
100
AcDbCircle
10
-46.046684883014706
20
18.68971862575194
30
0
40
1.2000000000000011
210
0
220
-0
230
1
0
ARC
5
128
100
AcDbEntity
8
0
100
AcDbCircle
10
-23.061403508771949
20
11.674999999999478
30
0
40
3.0000000000000027
210
0
220
0
230
1
100
AcDbArc
50
0
51
176.82319593283972
0
LINE
5
129
100
AcDbEntity
8
0
100
AcDbLine
10
-20.061403508771946
20
11.674999999999478
30
0
11
-20.061403508772038
21
9.3858979313397661
31
0
0
LINE
5
130
100
AcDbEntity
8
0
100
AcDbLine
10
4.9385964912258675
20
9.3858979313426172
30
0
11
4.9385964912257725
21
11.674999999999349
31
0
0
ARC
5
131
100
AcDbEntity
8
0
100
AcDbCircle
10
7.9385964912280507
20
11.674999999999452
30
0
40
3.0000000000000031
210
0
220
-0
230
1
100
AcDbArc
50
3.176804067223904
51
180
0
ARC
5
132
100
AcDbEntity
8
0
100
AcDbCircle
10
13.929376179860649
20
12.007503717673785
30
0
40
3.0000000000000089
210
0
220
0
230
1
100
AcDbArc
50
183.1768040672217
51
282.33280662070774
0
ARC
5
133
100
AcDbEntity
8
0
100
AcDbCircle
10
-29.052183197404915
20
12.007503717667124
30
0
40
2.9999999999999987
210
0
220
0
230
1
100
AcDbArc
50
257.66719337930772
51
356.82319593284257
0
ARC
5
134
100
AcDbEntity
8
0
100
AcDbCircle
10
-17.061403508772038
20
9.3858979313396382
30
0
40
3.0000000000000027
210
0
220
0
230
1
100
AcDbArc
50
180
51
257.66719337930772
0
LINE
5
135
100
AcDbEntity
8
0
100
AcDbLine
10
-17.702172883404966
20
6.4551276215861559
30
0
11
-11.512814652346254
21
5.1019164231872605
31
0
0
LINE
5
136
100
AcDbEntity
8
0
100
AcDbLine
10
-3.6099923652000028
20
5.1019164231879106
30
0
11
2.5793658658595886
21
6.455127621589182
31
0
0
ARC
5
137
100
AcDbEntity
8
0
100
AcDbCircle
10
1.9385964912258662
20
9.3858979313424928
30
0
40
3.0000000000000018
210
0
220
0
230
1
100
AcDbArc
50
-77.667193379292215
51
0
0
ENDSEC
0
SECTION
2
OBJECTS
0
DICTIONARY
5
C
100
AcDbDictionary
3
ACAD_GROUP
350
D
3
ACAD_MLINESTYLE
350
17
0
DICTIONARY
5
D
100
AcDbDictionary
0
DICTIONARY
5
1A
330
C
100
AcDbDictionary
0
DICTIONARY
5
17
100
AcDbDictionary
0
ENDSEC
0
EOF
