%
M48
M72
T01C0.02362
T02C0.03937
T03C0.04000
T04C0.12598
%
T01
X10263Y32500
X17263Y35500
X44263Y60500
X51763Y60500
X64263Y53500
X77263Y59500
X66263Y62500
X77263Y67500
X68263Y71500
X84263Y72500
X95263Y65500
X98263Y75500
X99263Y82500
X106263Y85500
X123263Y86000
X124763Y78500
X137263Y84500
X143763Y82500
X144763Y88000
X157263Y92500
X161263Y88000
X160263Y76000
X159263Y67500
X167263Y67000
X188263Y66000
X193263Y58500
X208263Y75000
X191263Y83500
X214263Y85500
X226763Y88000
X237263Y90500
X197263Y105500
X162263Y117232
X142420Y117232
X130263Y111500
X113680Y105815
X91263Y98000
X74263Y89000
X53763Y103500
X58763Y105500
X49763Y108000
X34263Y112000
X20263Y106000
X44763Y98000
X68109Y107504
X21263Y90000
X48263Y70500
X99263Y48500
X103263Y41500
X110263Y45500
X124263Y41500
X137263Y41500
X159263Y52500
X137763Y58000
X131263Y58000
X124763Y58000
X124263Y69500
X136763Y69500
X179263Y39500
X110263Y30500
T02
X222263Y58500
X232263Y58500
X242263Y58500
X252263Y58500
X257263Y68500
X247263Y68500
X237263Y68500
X227263Y68500
T03
X27263Y30500
X37263Y30500
X47263Y30500
X57263Y30500
X12263Y50500
X12263Y60500
X12263Y70500
X12263Y80500
X119263Y31500
X129263Y31500
X139263Y31500
X149263Y31500
X159263Y31500
X169263Y31500
X229763Y35500
X239763Y35500
X249763Y35500
X177263Y110500
X167263Y110500
X157263Y110500
X147263Y110500
X137263Y110500
X159822Y130500
X169822Y130500
T04
X192322Y131500
X137322Y131500
X217263Y33500
X262263Y33500
M30
