G75*
%MOIN*%
%OFA0B0*%
%FSLAX25Y25*%
%IPPOS*%
%LPD*%
%AMOC8*
5,1,8,0,0,1.08239X$1,22.5*
%
%ADD10C,0.00800*%
%ADD11C,0.01600*%
%ADD12C,0.00600*%
%ADD13C,0.00000*%
%ADD14C,0.01000*%
%ADD15C,0.00300*%
%ADD16C,0.00200*%
%ADD17C,0.00400*%
%ADD18R,0.03000X0.01800*%
%ADD19R,0.01800X0.03000*%
%ADD20C,0.02200*%
%ADD21C,0.00500*%
%ADD22C,0.00040*%
%ADD23C,0.00315*%
D10*
X0005263Y0050500D02*
X0005263Y0053000D01*
X0005263Y0058000D02*
X0005263Y0060500D01*
X0005263Y0070500D02*
X0005263Y0073000D01*
X0005263Y0078000D02*
X0005263Y0080500D01*
X0119263Y0095000D02*
X0119265Y0095049D01*
X0119271Y0095097D01*
X0119281Y0095145D01*
X0119295Y0095192D01*
X0119312Y0095238D01*
X0119333Y0095282D01*
X0119358Y0095324D01*
X0119386Y0095364D01*
X0119418Y0095402D01*
X0119452Y0095437D01*
X0119489Y0095469D01*
X0119528Y0095498D01*
X0119570Y0095524D01*
X0119614Y0095546D01*
X0119659Y0095564D01*
X0119706Y0095579D01*
X0119753Y0095590D01*
X0119802Y0095597D01*
X0119851Y0095600D01*
X0119900Y0095599D01*
X0119948Y0095594D01*
X0119997Y0095585D01*
X0120044Y0095572D01*
X0120090Y0095555D01*
X0120134Y0095535D01*
X0120177Y0095511D01*
X0120218Y0095484D01*
X0120256Y0095453D01*
X0120292Y0095420D01*
X0120324Y0095384D01*
X0120354Y0095345D01*
X0120381Y0095304D01*
X0120404Y0095260D01*
X0120423Y0095215D01*
X0120439Y0095169D01*
X0120451Y0095122D01*
X0120459Y0095073D01*
X0120463Y0095024D01*
X0120463Y0094976D01*
X0120459Y0094927D01*
X0120451Y0094878D01*
X0120439Y0094831D01*
X0120423Y0094785D01*
X0120404Y0094740D01*
X0120381Y0094696D01*
X0120354Y0094655D01*
X0120324Y0094616D01*
X0120292Y0094580D01*
X0120256Y0094547D01*
X0120218Y0094516D01*
X0120177Y0094489D01*
X0120134Y0094465D01*
X0120090Y0094445D01*
X0120044Y0094428D01*
X0119997Y0094415D01*
X0119948Y0094406D01*
X0119900Y0094401D01*
X0119851Y0094400D01*
X0119802Y0094403D01*
X0119753Y0094410D01*
X0119706Y0094421D01*
X0119659Y0094436D01*
X0119614Y0094454D01*
X0119570Y0094476D01*
X0119528Y0094502D01*
X0119489Y0094531D01*
X0119452Y0094563D01*
X0119418Y0094598D01*
X0119386Y0094636D01*
X0119358Y0094676D01*
X0119333Y0094718D01*
X0119312Y0094762D01*
X0119295Y0094808D01*
X0119281Y0094855D01*
X0119271Y0094903D01*
X0119265Y0094951D01*
X0119263Y0095000D01*
X0120464Y0092902D02*
X0121861Y0094299D01*
X0148062Y0094299D01*
X0148062Y0066701D01*
X0120464Y0066701D01*
X0120464Y0092902D01*
X0214712Y0097080D02*
X0215932Y0098000D01*
X0215932Y0099811D01*
X0214712Y0098860D02*
X0215872Y0098100D01*
X0215932Y0098000D02*
X0215932Y0096189D01*
X0221911Y0101900D02*
X0224012Y0101900D01*
X0224713Y0102601D01*
X0224713Y0103301D01*
X0224012Y0104002D01*
X0221911Y0104002D01*
X0224012Y0104002D02*
X0224713Y0104702D01*
X0224713Y0105403D01*
X0224012Y0106104D01*
X0221911Y0106104D01*
X0221911Y0101900D01*
X0226515Y0102601D02*
X0227215Y0101900D01*
X0228616Y0101900D01*
X0229317Y0102601D01*
X0229317Y0104002D01*
X0228616Y0104702D01*
X0227215Y0104702D01*
X0226515Y0104002D01*
X0226515Y0102601D01*
X0231118Y0102601D02*
X0231819Y0103301D01*
X0233921Y0103301D01*
X0233921Y0104002D02*
X0233921Y0101900D01*
X0231819Y0101900D01*
X0231118Y0102601D01*
X0233220Y0104702D02*
X0233921Y0104002D01*
X0233220Y0104702D02*
X0231819Y0104702D01*
X0235722Y0104702D02*
X0235722Y0101900D01*
X0235722Y0103301D02*
X0237124Y0104702D01*
X0237824Y0104702D01*
X0239559Y0104002D02*
X0240260Y0104702D01*
X0242361Y0104702D01*
X0242361Y0106104D02*
X0242361Y0101900D01*
X0240260Y0101900D01*
X0239559Y0102601D01*
X0239559Y0104002D01*
X0237057Y0107999D02*
X0237757Y0108699D01*
X0237757Y0112202D01*
X0235656Y0112202D01*
X0234955Y0111502D01*
X0234955Y0110101D01*
X0235656Y0109400D01*
X0237757Y0109400D01*
X0237057Y0107999D02*
X0236356Y0107999D01*
X0233154Y0109400D02*
X0233154Y0111502D01*
X0232453Y0112202D01*
X0230351Y0112202D01*
X0230351Y0109400D01*
X0228683Y0109400D02*
X0227282Y0109400D01*
X0227982Y0109400D02*
X0227982Y0112202D01*
X0227282Y0112202D01*
X0227982Y0113604D02*
X0227982Y0114304D01*
X0225547Y0112202D02*
X0224846Y0112202D01*
X0223445Y0110801D01*
X0223445Y0109400D02*
X0223445Y0112202D01*
X0221644Y0112202D02*
X0221644Y0108699D01*
X0220943Y0107999D01*
X0220243Y0107999D01*
X0219542Y0109400D02*
X0221644Y0109400D01*
X0219542Y0109400D02*
X0218841Y0110101D01*
X0218841Y0112202D01*
X0217040Y0112903D02*
X0216339Y0113604D01*
X0214938Y0113604D01*
X0214237Y0112903D01*
X0214237Y0112202D01*
X0214938Y0111502D01*
X0216339Y0111502D01*
X0217040Y0110801D01*
X0217040Y0110101D01*
X0216339Y0109400D01*
X0214938Y0109400D01*
X0214237Y0110101D01*
X0232653Y0097202D02*
X0234054Y0098604D01*
X0234054Y0094400D01*
X0232653Y0094400D02*
X0235456Y0094400D01*
X0237257Y0094400D02*
X0237958Y0094400D01*
X0237958Y0095101D01*
X0237257Y0095101D01*
X0237257Y0094400D01*
X0239559Y0096502D02*
X0242361Y0096502D01*
X0241661Y0094400D02*
X0241661Y0098604D01*
X0239559Y0096502D01*
X0240260Y0109400D02*
X0239559Y0110101D01*
X0239559Y0111502D01*
X0240260Y0112202D01*
X0241661Y0112202D01*
X0242361Y0111502D01*
X0242361Y0110801D01*
X0239559Y0110801D01*
X0240260Y0109400D02*
X0241661Y0109400D01*
D11*
X0017763Y0080500D02*
X0017763Y0050500D01*
X0016263Y0050500D01*
X0007763Y0050500D02*
X0005263Y0050500D01*
X0005263Y0060500D02*
X0007763Y0060500D01*
X0007763Y0070500D02*
X0005263Y0070500D01*
X0005263Y0080500D02*
X0007763Y0080500D01*
X0016263Y0080500D02*
X0017763Y0080500D01*
D12*
X0006963Y0076101D02*
X0006963Y0074800D01*
X0004361Y0074800D01*
X0004361Y0076101D01*
X0004794Y0076535D01*
X0005228Y0076535D01*
X0005662Y0076101D01*
X0005662Y0074800D01*
X0005662Y0076101D02*
X0006096Y0076535D01*
X0006529Y0076535D01*
X0006963Y0076101D01*
X0006963Y0056535D02*
X0005228Y0056535D01*
X0004361Y0055667D01*
X0005228Y0054800D01*
X0006963Y0054800D01*
X0005662Y0054800D02*
X0005662Y0056535D01*
X0036617Y0053503D02*
X0036617Y0051368D01*
X0037685Y0050300D01*
X0039820Y0050300D01*
X0040888Y0051368D01*
X0040888Y0053503D01*
X0039820Y0054570D01*
X0037685Y0054570D01*
X0036617Y0053503D01*
X0070082Y0034862D02*
X0072444Y0034862D01*
X0072444Y0030138D02*
X0070082Y0030138D01*
X0062944Y0087138D02*
X0060582Y0087138D01*
X0060582Y0091862D02*
X0062944Y0091862D01*
D13*
X0012263Y0025500D02*
X0262263Y0025500D01*
X0255964Y0033500D02*
X0255966Y0033658D01*
X0255972Y0033816D01*
X0255982Y0033974D01*
X0255996Y0034132D01*
X0256014Y0034289D01*
X0256035Y0034446D01*
X0256061Y0034602D01*
X0256091Y0034758D01*
X0256124Y0034913D01*
X0256162Y0035066D01*
X0256203Y0035219D01*
X0256248Y0035371D01*
X0256297Y0035522D01*
X0256350Y0035671D01*
X0256406Y0035819D01*
X0256466Y0035965D01*
X0256530Y0036110D01*
X0256598Y0036253D01*
X0256669Y0036395D01*
X0256743Y0036535D01*
X0256821Y0036672D01*
X0256903Y0036808D01*
X0256987Y0036942D01*
X0257076Y0037073D01*
X0257167Y0037202D01*
X0257262Y0037329D01*
X0257359Y0037454D01*
X0257460Y0037576D01*
X0257564Y0037695D01*
X0257671Y0037812D01*
X0257781Y0037926D01*
X0257894Y0038037D01*
X0258009Y0038146D01*
X0258127Y0038251D01*
X0258248Y0038353D01*
X0258371Y0038453D01*
X0258497Y0038549D01*
X0258625Y0038642D01*
X0258755Y0038732D01*
X0258888Y0038818D01*
X0259023Y0038902D01*
X0259159Y0038981D01*
X0259298Y0039058D01*
X0259439Y0039130D01*
X0259581Y0039200D01*
X0259725Y0039265D01*
X0259871Y0039327D01*
X0260018Y0039385D01*
X0260167Y0039440D01*
X0260317Y0039491D01*
X0260468Y0039538D01*
X0260620Y0039581D01*
X0260773Y0039620D01*
X0260928Y0039656D01*
X0261083Y0039687D01*
X0261239Y0039715D01*
X0261395Y0039739D01*
X0261552Y0039759D01*
X0261710Y0039775D01*
X0261867Y0039787D01*
X0262026Y0039795D01*
X0262184Y0039799D01*
X0262342Y0039799D01*
X0262500Y0039795D01*
X0262659Y0039787D01*
X0262816Y0039775D01*
X0262974Y0039759D01*
X0263131Y0039739D01*
X0263287Y0039715D01*
X0263443Y0039687D01*
X0263598Y0039656D01*
X0263753Y0039620D01*
X0263906Y0039581D01*
X0264058Y0039538D01*
X0264209Y0039491D01*
X0264359Y0039440D01*
X0264508Y0039385D01*
X0264655Y0039327D01*
X0264801Y0039265D01*
X0264945Y0039200D01*
X0265087Y0039130D01*
X0265228Y0039058D01*
X0265367Y0038981D01*
X0265503Y0038902D01*
X0265638Y0038818D01*
X0265771Y0038732D01*
X0265901Y0038642D01*
X0266029Y0038549D01*
X0266155Y0038453D01*
X0266278Y0038353D01*
X0266399Y0038251D01*
X0266517Y0038146D01*
X0266632Y0038037D01*
X0266745Y0037926D01*
X0266855Y0037812D01*
X0266962Y0037695D01*
X0267066Y0037576D01*
X0267167Y0037454D01*
X0267264Y0037329D01*
X0267359Y0037202D01*
X0267450Y0037073D01*
X0267539Y0036942D01*
X0267623Y0036808D01*
X0267705Y0036672D01*
X0267783Y0036535D01*
X0267857Y0036395D01*
X0267928Y0036253D01*
X0267996Y0036110D01*
X0268060Y0035965D01*
X0268120Y0035819D01*
X0268176Y0035671D01*
X0268229Y0035522D01*
X0268278Y0035371D01*
X0268323Y0035219D01*
X0268364Y0035066D01*
X0268402Y0034913D01*
X0268435Y0034758D01*
X0268465Y0034602D01*
X0268491Y0034446D01*
X0268512Y0034289D01*
X0268530Y0034132D01*
X0268544Y0033974D01*
X0268554Y0033816D01*
X0268560Y0033658D01*
X0268562Y0033500D01*
X0268560Y0033342D01*
X0268554Y0033184D01*
X0268544Y0033026D01*
X0268530Y0032868D01*
X0268512Y0032711D01*
X0268491Y0032554D01*
X0268465Y0032398D01*
X0268435Y0032242D01*
X0268402Y0032087D01*
X0268364Y0031934D01*
X0268323Y0031781D01*
X0268278Y0031629D01*
X0268229Y0031478D01*
X0268176Y0031329D01*
X0268120Y0031181D01*
X0268060Y0031035D01*
X0267996Y0030890D01*
X0267928Y0030747D01*
X0267857Y0030605D01*
X0267783Y0030465D01*
X0267705Y0030328D01*
X0267623Y0030192D01*
X0267539Y0030058D01*
X0267450Y0029927D01*
X0267359Y0029798D01*
X0267264Y0029671D01*
X0267167Y0029546D01*
X0267066Y0029424D01*
X0266962Y0029305D01*
X0266855Y0029188D01*
X0266745Y0029074D01*
X0266632Y0028963D01*
X0266517Y0028854D01*
X0266399Y0028749D01*
X0266278Y0028647D01*
X0266155Y0028547D01*
X0266029Y0028451D01*
X0265901Y0028358D01*
X0265771Y0028268D01*
X0265638Y0028182D01*
X0265503Y0028098D01*
X0265367Y0028019D01*
X0265228Y0027942D01*
X0265087Y0027870D01*
X0264945Y0027800D01*
X0264801Y0027735D01*
X0264655Y0027673D01*
X0264508Y0027615D01*
X0264359Y0027560D01*
X0264209Y0027509D01*
X0264058Y0027462D01*
X0263906Y0027419D01*
X0263753Y0027380D01*
X0263598Y0027344D01*
X0263443Y0027313D01*
X0263287Y0027285D01*
X0263131Y0027261D01*
X0262974Y0027241D01*
X0262816Y0027225D01*
X0262659Y0027213D01*
X0262500Y0027205D01*
X0262342Y0027201D01*
X0262184Y0027201D01*
X0262026Y0027205D01*
X0261867Y0027213D01*
X0261710Y0027225D01*
X0261552Y0027241D01*
X0261395Y0027261D01*
X0261239Y0027285D01*
X0261083Y0027313D01*
X0260928Y0027344D01*
X0260773Y0027380D01*
X0260620Y0027419D01*
X0260468Y0027462D01*
X0260317Y0027509D01*
X0260167Y0027560D01*
X0260018Y0027615D01*
X0259871Y0027673D01*
X0259725Y0027735D01*
X0259581Y0027800D01*
X0259439Y0027870D01*
X0259298Y0027942D01*
X0259159Y0028019D01*
X0259023Y0028098D01*
X0258888Y0028182D01*
X0258755Y0028268D01*
X0258625Y0028358D01*
X0258497Y0028451D01*
X0258371Y0028547D01*
X0258248Y0028647D01*
X0258127Y0028749D01*
X0258009Y0028854D01*
X0257894Y0028963D01*
X0257781Y0029074D01*
X0257671Y0029188D01*
X0257564Y0029305D01*
X0257460Y0029424D01*
X0257359Y0029546D01*
X0257262Y0029671D01*
X0257167Y0029798D01*
X0257076Y0029927D01*
X0256987Y0030058D01*
X0256903Y0030192D01*
X0256821Y0030328D01*
X0256743Y0030465D01*
X0256669Y0030605D01*
X0256598Y0030747D01*
X0256530Y0030890D01*
X0256466Y0031035D01*
X0256406Y0031181D01*
X0256350Y0031329D01*
X0256297Y0031478D01*
X0256248Y0031629D01*
X0256203Y0031781D01*
X0256162Y0031934D01*
X0256124Y0032087D01*
X0256091Y0032242D01*
X0256061Y0032398D01*
X0256035Y0032554D01*
X0256014Y0032711D01*
X0255996Y0032868D01*
X0255982Y0033026D01*
X0255972Y0033184D01*
X0255966Y0033342D01*
X0255964Y0033500D01*
X0262263Y0025500D02*
X0262505Y0025503D01*
X0262746Y0025512D01*
X0262987Y0025526D01*
X0263228Y0025547D01*
X0263468Y0025573D01*
X0263708Y0025605D01*
X0263947Y0025643D01*
X0264184Y0025686D01*
X0264421Y0025736D01*
X0264656Y0025791D01*
X0264890Y0025851D01*
X0265122Y0025918D01*
X0265353Y0025989D01*
X0265582Y0026067D01*
X0265809Y0026150D01*
X0266034Y0026238D01*
X0266257Y0026332D01*
X0266477Y0026431D01*
X0266695Y0026536D01*
X0266910Y0026645D01*
X0267123Y0026760D01*
X0267333Y0026880D01*
X0267539Y0027005D01*
X0267743Y0027135D01*
X0267944Y0027270D01*
X0268141Y0027410D01*
X0268335Y0027554D01*
X0268525Y0027703D01*
X0268711Y0027857D01*
X0268894Y0028015D01*
X0269073Y0028177D01*
X0269248Y0028344D01*
X0269419Y0028515D01*
X0269586Y0028690D01*
X0269748Y0028869D01*
X0269906Y0029052D01*
X0270060Y0029238D01*
X0270209Y0029428D01*
X0270353Y0029622D01*
X0270493Y0029819D01*
X0270628Y0030020D01*
X0270758Y0030224D01*
X0270883Y0030430D01*
X0271003Y0030640D01*
X0271118Y0030853D01*
X0271227Y0031068D01*
X0271332Y0031286D01*
X0271431Y0031506D01*
X0271525Y0031729D01*
X0271613Y0031954D01*
X0271696Y0032181D01*
X0271774Y0032410D01*
X0271845Y0032641D01*
X0271912Y0032873D01*
X0271972Y0033107D01*
X0272027Y0033342D01*
X0272077Y0033579D01*
X0272120Y0033816D01*
X0272158Y0034055D01*
X0272190Y0034295D01*
X0272216Y0034535D01*
X0272237Y0034776D01*
X0272251Y0035017D01*
X0272260Y0035258D01*
X0272263Y0035500D01*
X0272263Y0105500D01*
X0272260Y0105742D01*
X0272251Y0105983D01*
X0272237Y0106224D01*
X0272216Y0106465D01*
X0272190Y0106705D01*
X0272158Y0106945D01*
X0272120Y0107184D01*
X0272077Y0107421D01*
X0272027Y0107658D01*
X0271972Y0107893D01*
X0271912Y0108127D01*
X0271845Y0108359D01*
X0271774Y0108590D01*
X0271696Y0108819D01*
X0271613Y0109046D01*
X0271525Y0109271D01*
X0271431Y0109494D01*
X0271332Y0109714D01*
X0271227Y0109932D01*
X0271118Y0110147D01*
X0271003Y0110360D01*
X0270883Y0110570D01*
X0270758Y0110776D01*
X0270628Y0110980D01*
X0270493Y0111181D01*
X0270353Y0111378D01*
X0270209Y0111572D01*
X0270060Y0111762D01*
X0269906Y0111948D01*
X0269748Y0112131D01*
X0269586Y0112310D01*
X0269419Y0112485D01*
X0269248Y0112656D01*
X0269073Y0112823D01*
X0268894Y0112985D01*
X0268711Y0113143D01*
X0268525Y0113297D01*
X0268335Y0113446D01*
X0268141Y0113590D01*
X0267944Y0113730D01*
X0267743Y0113865D01*
X0267539Y0113995D01*
X0267333Y0114120D01*
X0267123Y0114240D01*
X0266910Y0114355D01*
X0266695Y0114464D01*
X0266477Y0114569D01*
X0266257Y0114668D01*
X0266034Y0114762D01*
X0265809Y0114850D01*
X0265582Y0114933D01*
X0265353Y0115011D01*
X0265122Y0115082D01*
X0264890Y0115149D01*
X0264656Y0115209D01*
X0264421Y0115264D01*
X0264184Y0115314D01*
X0263947Y0115357D01*
X0263708Y0115395D01*
X0263468Y0115427D01*
X0263228Y0115453D01*
X0262987Y0115474D01*
X0262746Y0115488D01*
X0262505Y0115497D01*
X0262263Y0115500D01*
X0222322Y0115500D01*
X0221960Y0115504D01*
X0221597Y0115518D01*
X0221235Y0115539D01*
X0220874Y0115570D01*
X0220514Y0115609D01*
X0220155Y0115657D01*
X0219797Y0115714D01*
X0219440Y0115779D01*
X0219085Y0115853D01*
X0218732Y0115936D01*
X0218381Y0116027D01*
X0218033Y0116126D01*
X0217687Y0116234D01*
X0217343Y0116350D01*
X0217003Y0116475D01*
X0216666Y0116607D01*
X0216332Y0116748D01*
X0216001Y0116897D01*
X0215674Y0117054D01*
X0215351Y0117218D01*
X0215032Y0117390D01*
X0214718Y0117570D01*
X0214407Y0117758D01*
X0214102Y0117953D01*
X0213801Y0118155D01*
X0213505Y0118365D01*
X0213215Y0118581D01*
X0212929Y0118805D01*
X0212649Y0119035D01*
X0212375Y0119272D01*
X0212107Y0119516D01*
X0211844Y0119766D01*
X0211588Y0120022D01*
X0211338Y0120285D01*
X0211094Y0120553D01*
X0210857Y0120827D01*
X0210627Y0121107D01*
X0210403Y0121393D01*
X0210187Y0121683D01*
X0209977Y0121979D01*
X0209775Y0122280D01*
X0209580Y0122585D01*
X0209392Y0122896D01*
X0209212Y0123210D01*
X0209040Y0123529D01*
X0208876Y0123852D01*
X0208719Y0124179D01*
X0208570Y0124510D01*
X0208429Y0124844D01*
X0208297Y0125181D01*
X0208172Y0125521D01*
X0208056Y0125865D01*
X0207948Y0126211D01*
X0207849Y0126559D01*
X0207758Y0126910D01*
X0207675Y0127263D01*
X0207601Y0127618D01*
X0207536Y0127975D01*
X0207479Y0128333D01*
X0207431Y0128692D01*
X0207392Y0129052D01*
X0207361Y0129413D01*
X0207340Y0129775D01*
X0207326Y0130138D01*
X0207322Y0130500D01*
X0207318Y0130862D01*
X0207304Y0131225D01*
X0207283Y0131587D01*
X0207252Y0131948D01*
X0207213Y0132308D01*
X0207165Y0132667D01*
X0207108Y0133025D01*
X0207043Y0133382D01*
X0206969Y0133737D01*
X0206886Y0134090D01*
X0206795Y0134441D01*
X0206696Y0134789D01*
X0206588Y0135135D01*
X0206472Y0135479D01*
X0206347Y0135819D01*
X0206215Y0136156D01*
X0206074Y0136490D01*
X0205925Y0136821D01*
X0205768Y0137148D01*
X0205604Y0137471D01*
X0205432Y0137790D01*
X0205252Y0138104D01*
X0205064Y0138415D01*
X0204869Y0138720D01*
X0204667Y0139021D01*
X0204457Y0139317D01*
X0204241Y0139607D01*
X0204017Y0139893D01*
X0203787Y0140173D01*
X0203550Y0140447D01*
X0203306Y0140715D01*
X0203056Y0140978D01*
X0202800Y0141234D01*
X0202537Y0141484D01*
X0202269Y0141728D01*
X0201995Y0141965D01*
X0201715Y0142195D01*
X0201429Y0142419D01*
X0201139Y0142635D01*
X0200843Y0142845D01*
X0200542Y0143047D01*
X0200237Y0143242D01*
X0199926Y0143430D01*
X0199612Y0143610D01*
X0199293Y0143782D01*
X0198970Y0143946D01*
X0198643Y0144103D01*
X0198312Y0144252D01*
X0197978Y0144393D01*
X0197641Y0144525D01*
X0197301Y0144650D01*
X0196957Y0144766D01*
X0196611Y0144874D01*
X0196263Y0144973D01*
X0195912Y0145064D01*
X0195559Y0145147D01*
X0195204Y0145221D01*
X0194847Y0145286D01*
X0194489Y0145343D01*
X0194130Y0145391D01*
X0193770Y0145430D01*
X0193409Y0145461D01*
X0193047Y0145482D01*
X0192684Y0145496D01*
X0192322Y0145500D01*
X0137322Y0145500D01*
X0131023Y0131500D02*
X0131025Y0131658D01*
X0131031Y0131816D01*
X0131041Y0131974D01*
X0131055Y0132132D01*
X0131073Y0132289D01*
X0131094Y0132446D01*
X0131120Y0132602D01*
X0131150Y0132758D01*
X0131183Y0132913D01*
X0131221Y0133066D01*
X0131262Y0133219D01*
X0131307Y0133371D01*
X0131356Y0133522D01*
X0131409Y0133671D01*
X0131465Y0133819D01*
X0131525Y0133965D01*
X0131589Y0134110D01*
X0131657Y0134253D01*
X0131728Y0134395D01*
X0131802Y0134535D01*
X0131880Y0134672D01*
X0131962Y0134808D01*
X0132046Y0134942D01*
X0132135Y0135073D01*
X0132226Y0135202D01*
X0132321Y0135329D01*
X0132418Y0135454D01*
X0132519Y0135576D01*
X0132623Y0135695D01*
X0132730Y0135812D01*
X0132840Y0135926D01*
X0132953Y0136037D01*
X0133068Y0136146D01*
X0133186Y0136251D01*
X0133307Y0136353D01*
X0133430Y0136453D01*
X0133556Y0136549D01*
X0133684Y0136642D01*
X0133814Y0136732D01*
X0133947Y0136818D01*
X0134082Y0136902D01*
X0134218Y0136981D01*
X0134357Y0137058D01*
X0134498Y0137130D01*
X0134640Y0137200D01*
X0134784Y0137265D01*
X0134930Y0137327D01*
X0135077Y0137385D01*
X0135226Y0137440D01*
X0135376Y0137491D01*
X0135527Y0137538D01*
X0135679Y0137581D01*
X0135832Y0137620D01*
X0135987Y0137656D01*
X0136142Y0137687D01*
X0136298Y0137715D01*
X0136454Y0137739D01*
X0136611Y0137759D01*
X0136769Y0137775D01*
X0136926Y0137787D01*
X0137085Y0137795D01*
X0137243Y0137799D01*
X0137401Y0137799D01*
X0137559Y0137795D01*
X0137718Y0137787D01*
X0137875Y0137775D01*
X0138033Y0137759D01*
X0138190Y0137739D01*
X0138346Y0137715D01*
X0138502Y0137687D01*
X0138657Y0137656D01*
X0138812Y0137620D01*
X0138965Y0137581D01*
X0139117Y0137538D01*
X0139268Y0137491D01*
X0139418Y0137440D01*
X0139567Y0137385D01*
X0139714Y0137327D01*
X0139860Y0137265D01*
X0140004Y0137200D01*
X0140146Y0137130D01*
X0140287Y0137058D01*
X0140426Y0136981D01*
X0140562Y0136902D01*
X0140697Y0136818D01*
X0140830Y0136732D01*
X0140960Y0136642D01*
X0141088Y0136549D01*
X0141214Y0136453D01*
X0141337Y0136353D01*
X0141458Y0136251D01*
X0141576Y0136146D01*
X0141691Y0136037D01*
X0141804Y0135926D01*
X0141914Y0135812D01*
X0142021Y0135695D01*
X0142125Y0135576D01*
X0142226Y0135454D01*
X0142323Y0135329D01*
X0142418Y0135202D01*
X0142509Y0135073D01*
X0142598Y0134942D01*
X0142682Y0134808D01*
X0142764Y0134672D01*
X0142842Y0134535D01*
X0142916Y0134395D01*
X0142987Y0134253D01*
X0143055Y0134110D01*
X0143119Y0133965D01*
X0143179Y0133819D01*
X0143235Y0133671D01*
X0143288Y0133522D01*
X0143337Y0133371D01*
X0143382Y0133219D01*
X0143423Y0133066D01*
X0143461Y0132913D01*
X0143494Y0132758D01*
X0143524Y0132602D01*
X0143550Y0132446D01*
X0143571Y0132289D01*
X0143589Y0132132D01*
X0143603Y0131974D01*
X0143613Y0131816D01*
X0143619Y0131658D01*
X0143621Y0131500D01*
X0143619Y0131342D01*
X0143613Y0131184D01*
X0143603Y0131026D01*
X0143589Y0130868D01*
X0143571Y0130711D01*
X0143550Y0130554D01*
X0143524Y0130398D01*
X0143494Y0130242D01*
X0143461Y0130087D01*
X0143423Y0129934D01*
X0143382Y0129781D01*
X0143337Y0129629D01*
X0143288Y0129478D01*
X0143235Y0129329D01*
X0143179Y0129181D01*
X0143119Y0129035D01*
X0143055Y0128890D01*
X0142987Y0128747D01*
X0142916Y0128605D01*
X0142842Y0128465D01*
X0142764Y0128328D01*
X0142682Y0128192D01*
X0142598Y0128058D01*
X0142509Y0127927D01*
X0142418Y0127798D01*
X0142323Y0127671D01*
X0142226Y0127546D01*
X0142125Y0127424D01*
X0142021Y0127305D01*
X0141914Y0127188D01*
X0141804Y0127074D01*
X0141691Y0126963D01*
X0141576Y0126854D01*
X0141458Y0126749D01*
X0141337Y0126647D01*
X0141214Y0126547D01*
X0141088Y0126451D01*
X0140960Y0126358D01*
X0140830Y0126268D01*
X0140697Y0126182D01*
X0140562Y0126098D01*
X0140426Y0126019D01*
X0140287Y0125942D01*
X0140146Y0125870D01*
X0140004Y0125800D01*
X0139860Y0125735D01*
X0139714Y0125673D01*
X0139567Y0125615D01*
X0139418Y0125560D01*
X0139268Y0125509D01*
X0139117Y0125462D01*
X0138965Y0125419D01*
X0138812Y0125380D01*
X0138657Y0125344D01*
X0138502Y0125313D01*
X0138346Y0125285D01*
X0138190Y0125261D01*
X0138033Y0125241D01*
X0137875Y0125225D01*
X0137718Y0125213D01*
X0137559Y0125205D01*
X0137401Y0125201D01*
X0137243Y0125201D01*
X0137085Y0125205D01*
X0136926Y0125213D01*
X0136769Y0125225D01*
X0136611Y0125241D01*
X0136454Y0125261D01*
X0136298Y0125285D01*
X0136142Y0125313D01*
X0135987Y0125344D01*
X0135832Y0125380D01*
X0135679Y0125419D01*
X0135527Y0125462D01*
X0135376Y0125509D01*
X0135226Y0125560D01*
X0135077Y0125615D01*
X0134930Y0125673D01*
X0134784Y0125735D01*
X0134640Y0125800D01*
X0134498Y0125870D01*
X0134357Y0125942D01*
X0134218Y0126019D01*
X0134082Y0126098D01*
X0133947Y0126182D01*
X0133814Y0126268D01*
X0133684Y0126358D01*
X0133556Y0126451D01*
X0133430Y0126547D01*
X0133307Y0126647D01*
X0133186Y0126749D01*
X0133068Y0126854D01*
X0132953Y0126963D01*
X0132840Y0127074D01*
X0132730Y0127188D01*
X0132623Y0127305D01*
X0132519Y0127424D01*
X0132418Y0127546D01*
X0132321Y0127671D01*
X0132226Y0127798D01*
X0132135Y0127927D01*
X0132046Y0128058D01*
X0131962Y0128192D01*
X0131880Y0128328D01*
X0131802Y0128465D01*
X0131728Y0128605D01*
X0131657Y0128747D01*
X0131589Y0128890D01*
X0131525Y0129035D01*
X0131465Y0129181D01*
X0131409Y0129329D01*
X0131356Y0129478D01*
X0131307Y0129629D01*
X0131262Y0129781D01*
X0131221Y0129934D01*
X0131183Y0130087D01*
X0131150Y0130242D01*
X0131120Y0130398D01*
X0131094Y0130554D01*
X0131073Y0130711D01*
X0131055Y0130868D01*
X0131041Y0131026D01*
X0131031Y0131184D01*
X0131025Y0131342D01*
X0131023Y0131500D01*
X0122322Y0130500D02*
X0122326Y0130862D01*
X0122340Y0131225D01*
X0122361Y0131587D01*
X0122392Y0131948D01*
X0122431Y0132308D01*
X0122479Y0132667D01*
X0122536Y0133025D01*
X0122601Y0133382D01*
X0122675Y0133737D01*
X0122758Y0134090D01*
X0122849Y0134441D01*
X0122948Y0134789D01*
X0123056Y0135135D01*
X0123172Y0135479D01*
X0123297Y0135819D01*
X0123429Y0136156D01*
X0123570Y0136490D01*
X0123719Y0136821D01*
X0123876Y0137148D01*
X0124040Y0137471D01*
X0124212Y0137790D01*
X0124392Y0138104D01*
X0124580Y0138415D01*
X0124775Y0138720D01*
X0124977Y0139021D01*
X0125187Y0139317D01*
X0125403Y0139607D01*
X0125627Y0139893D01*
X0125857Y0140173D01*
X0126094Y0140447D01*
X0126338Y0140715D01*
X0126588Y0140978D01*
X0126844Y0141234D01*
X0127107Y0141484D01*
X0127375Y0141728D01*
X0127649Y0141965D01*
X0127929Y0142195D01*
X0128215Y0142419D01*
X0128505Y0142635D01*
X0128801Y0142845D01*
X0129102Y0143047D01*
X0129407Y0143242D01*
X0129718Y0143430D01*
X0130032Y0143610D01*
X0130351Y0143782D01*
X0130674Y0143946D01*
X0131001Y0144103D01*
X0131332Y0144252D01*
X0131666Y0144393D01*
X0132003Y0144525D01*
X0132343Y0144650D01*
X0132687Y0144766D01*
X0133033Y0144874D01*
X0133381Y0144973D01*
X0133732Y0145064D01*
X0134085Y0145147D01*
X0134440Y0145221D01*
X0134797Y0145286D01*
X0135155Y0145343D01*
X0135514Y0145391D01*
X0135874Y0145430D01*
X0136235Y0145461D01*
X0136597Y0145482D01*
X0136960Y0145496D01*
X0137322Y0145500D01*
X0122322Y0130500D02*
X0122318Y0130138D01*
X0122304Y0129775D01*
X0122283Y0129413D01*
X0122252Y0129052D01*
X0122213Y0128692D01*
X0122165Y0128333D01*
X0122108Y0127975D01*
X0122043Y0127618D01*
X0121969Y0127263D01*
X0121886Y0126910D01*
X0121795Y0126559D01*
X0121696Y0126211D01*
X0121588Y0125865D01*
X0121472Y0125521D01*
X0121347Y0125181D01*
X0121215Y0124844D01*
X0121074Y0124510D01*
X0120925Y0124179D01*
X0120768Y0123852D01*
X0120604Y0123529D01*
X0120432Y0123210D01*
X0120252Y0122896D01*
X0120064Y0122585D01*
X0119869Y0122280D01*
X0119667Y0121979D01*
X0119457Y0121683D01*
X0119241Y0121393D01*
X0119017Y0121107D01*
X0118787Y0120827D01*
X0118550Y0120553D01*
X0118306Y0120285D01*
X0118056Y0120022D01*
X0117800Y0119766D01*
X0117537Y0119516D01*
X0117269Y0119272D01*
X0116995Y0119035D01*
X0116715Y0118805D01*
X0116429Y0118581D01*
X0116139Y0118365D01*
X0115843Y0118155D01*
X0115542Y0117953D01*
X0115237Y0117758D01*
X0114926Y0117570D01*
X0114612Y0117390D01*
X0114293Y0117218D01*
X0113970Y0117054D01*
X0113643Y0116897D01*
X0113312Y0116748D01*
X0112978Y0116607D01*
X0112641Y0116475D01*
X0112301Y0116350D01*
X0111957Y0116234D01*
X0111611Y0116126D01*
X0111263Y0116027D01*
X0110912Y0115936D01*
X0110559Y0115853D01*
X0110204Y0115779D01*
X0109847Y0115714D01*
X0109489Y0115657D01*
X0109130Y0115609D01*
X0108770Y0115570D01*
X0108409Y0115539D01*
X0108047Y0115518D01*
X0107684Y0115504D01*
X0107322Y0115500D01*
X0032334Y0115500D01*
X0032263Y0115500D02*
X0012263Y0115500D01*
X0012021Y0115497D01*
X0011780Y0115488D01*
X0011539Y0115474D01*
X0011298Y0115453D01*
X0011058Y0115427D01*
X0010818Y0115395D01*
X0010579Y0115357D01*
X0010342Y0115314D01*
X0010105Y0115264D01*
X0009870Y0115209D01*
X0009636Y0115149D01*
X0009404Y0115082D01*
X0009173Y0115011D01*
X0008944Y0114933D01*
X0008717Y0114850D01*
X0008492Y0114762D01*
X0008269Y0114668D01*
X0008049Y0114569D01*
X0007831Y0114464D01*
X0007616Y0114355D01*
X0007403Y0114240D01*
X0007193Y0114120D01*
X0006987Y0113995D01*
X0006783Y0113865D01*
X0006582Y0113730D01*
X0006385Y0113590D01*
X0006191Y0113446D01*
X0006001Y0113297D01*
X0005815Y0113143D01*
X0005632Y0112985D01*
X0005453Y0112823D01*
X0005278Y0112656D01*
X0005107Y0112485D01*
X0004940Y0112310D01*
X0004778Y0112131D01*
X0004620Y0111948D01*
X0004466Y0111762D01*
X0004317Y0111572D01*
X0004173Y0111378D01*
X0004033Y0111181D01*
X0003898Y0110980D01*
X0003768Y0110776D01*
X0003643Y0110570D01*
X0003523Y0110360D01*
X0003408Y0110147D01*
X0003299Y0109932D01*
X0003194Y0109714D01*
X0003095Y0109494D01*
X0003001Y0109271D01*
X0002913Y0109046D01*
X0002830Y0108819D01*
X0002752Y0108590D01*
X0002681Y0108359D01*
X0002614Y0108127D01*
X0002554Y0107893D01*
X0002499Y0107658D01*
X0002449Y0107421D01*
X0002406Y0107184D01*
X0002368Y0106945D01*
X0002336Y0106705D01*
X0002310Y0106465D01*
X0002289Y0106224D01*
X0002275Y0105983D01*
X0002266Y0105742D01*
X0002263Y0105500D01*
X0002263Y0035500D01*
X0002266Y0035258D01*
X0002275Y0035017D01*
X0002289Y0034776D01*
X0002310Y0034535D01*
X0002336Y0034295D01*
X0002368Y0034055D01*
X0002406Y0033816D01*
X0002449Y0033579D01*
X0002499Y0033342D01*
X0002554Y0033107D01*
X0002614Y0032873D01*
X0002681Y0032641D01*
X0002752Y0032410D01*
X0002830Y0032181D01*
X0002913Y0031954D01*
X0003001Y0031729D01*
X0003095Y0031506D01*
X0003194Y0031286D01*
X0003299Y0031068D01*
X0003408Y0030853D01*
X0003523Y0030640D01*
X0003643Y0030430D01*
X0003768Y0030224D01*
X0003898Y0030020D01*
X0004033Y0029819D01*
X0004173Y0029622D01*
X0004317Y0029428D01*
X0004466Y0029238D01*
X0004620Y0029052D01*
X0004778Y0028869D01*
X0004940Y0028690D01*
X0005107Y0028515D01*
X0005278Y0028344D01*
X0005453Y0028177D01*
X0005632Y0028015D01*
X0005815Y0027857D01*
X0006001Y0027703D01*
X0006191Y0027554D01*
X0006385Y0027410D01*
X0006582Y0027270D01*
X0006783Y0027135D01*
X0006987Y0027005D01*
X0007193Y0026880D01*
X0007403Y0026760D01*
X0007616Y0026645D01*
X0007831Y0026536D01*
X0008049Y0026431D01*
X0008269Y0026332D01*
X0008492Y0026238D01*
X0008717Y0026150D01*
X0008944Y0026067D01*
X0009173Y0025989D01*
X0009404Y0025918D01*
X0009636Y0025851D01*
X0009870Y0025791D01*
X0010105Y0025736D01*
X0010342Y0025686D01*
X0010579Y0025643D01*
X0010818Y0025605D01*
X0011058Y0025573D01*
X0011298Y0025547D01*
X0011539Y0025526D01*
X0011780Y0025512D01*
X0012021Y0025503D01*
X0012263Y0025500D01*
X0186023Y0131500D02*
X0186025Y0131658D01*
X0186031Y0131816D01*
X0186041Y0131974D01*
X0186055Y0132132D01*
X0186073Y0132289D01*
X0186094Y0132446D01*
X0186120Y0132602D01*
X0186150Y0132758D01*
X0186183Y0132913D01*
X0186221Y0133066D01*
X0186262Y0133219D01*
X0186307Y0133371D01*
X0186356Y0133522D01*
X0186409Y0133671D01*
X0186465Y0133819D01*
X0186525Y0133965D01*
X0186589Y0134110D01*
X0186657Y0134253D01*
X0186728Y0134395D01*
X0186802Y0134535D01*
X0186880Y0134672D01*
X0186962Y0134808D01*
X0187046Y0134942D01*
X0187135Y0135073D01*
X0187226Y0135202D01*
X0187321Y0135329D01*
X0187418Y0135454D01*
X0187519Y0135576D01*
X0187623Y0135695D01*
X0187730Y0135812D01*
X0187840Y0135926D01*
X0187953Y0136037D01*
X0188068Y0136146D01*
X0188186Y0136251D01*
X0188307Y0136353D01*
X0188430Y0136453D01*
X0188556Y0136549D01*
X0188684Y0136642D01*
X0188814Y0136732D01*
X0188947Y0136818D01*
X0189082Y0136902D01*
X0189218Y0136981D01*
X0189357Y0137058D01*
X0189498Y0137130D01*
X0189640Y0137200D01*
X0189784Y0137265D01*
X0189930Y0137327D01*
X0190077Y0137385D01*
X0190226Y0137440D01*
X0190376Y0137491D01*
X0190527Y0137538D01*
X0190679Y0137581D01*
X0190832Y0137620D01*
X0190987Y0137656D01*
X0191142Y0137687D01*
X0191298Y0137715D01*
X0191454Y0137739D01*
X0191611Y0137759D01*
X0191769Y0137775D01*
X0191926Y0137787D01*
X0192085Y0137795D01*
X0192243Y0137799D01*
X0192401Y0137799D01*
X0192559Y0137795D01*
X0192718Y0137787D01*
X0192875Y0137775D01*
X0193033Y0137759D01*
X0193190Y0137739D01*
X0193346Y0137715D01*
X0193502Y0137687D01*
X0193657Y0137656D01*
X0193812Y0137620D01*
X0193965Y0137581D01*
X0194117Y0137538D01*
X0194268Y0137491D01*
X0194418Y0137440D01*
X0194567Y0137385D01*
X0194714Y0137327D01*
X0194860Y0137265D01*
X0195004Y0137200D01*
X0195146Y0137130D01*
X0195287Y0137058D01*
X0195426Y0136981D01*
X0195562Y0136902D01*
X0195697Y0136818D01*
X0195830Y0136732D01*
X0195960Y0136642D01*
X0196088Y0136549D01*
X0196214Y0136453D01*
X0196337Y0136353D01*
X0196458Y0136251D01*
X0196576Y0136146D01*
X0196691Y0136037D01*
X0196804Y0135926D01*
X0196914Y0135812D01*
X0197021Y0135695D01*
X0197125Y0135576D01*
X0197226Y0135454D01*
X0197323Y0135329D01*
X0197418Y0135202D01*
X0197509Y0135073D01*
X0197598Y0134942D01*
X0197682Y0134808D01*
X0197764Y0134672D01*
X0197842Y0134535D01*
X0197916Y0134395D01*
X0197987Y0134253D01*
X0198055Y0134110D01*
X0198119Y0133965D01*
X0198179Y0133819D01*
X0198235Y0133671D01*
X0198288Y0133522D01*
X0198337Y0133371D01*
X0198382Y0133219D01*
X0198423Y0133066D01*
X0198461Y0132913D01*
X0198494Y0132758D01*
X0198524Y0132602D01*
X0198550Y0132446D01*
X0198571Y0132289D01*
X0198589Y0132132D01*
X0198603Y0131974D01*
X0198613Y0131816D01*
X0198619Y0131658D01*
X0198621Y0131500D01*
X0198619Y0131342D01*
X0198613Y0131184D01*
X0198603Y0131026D01*
X0198589Y0130868D01*
X0198571Y0130711D01*
X0198550Y0130554D01*
X0198524Y0130398D01*
X0198494Y0130242D01*
X0198461Y0130087D01*
X0198423Y0129934D01*
X0198382Y0129781D01*
X0198337Y0129629D01*
X0198288Y0129478D01*
X0198235Y0129329D01*
X0198179Y0129181D01*
X0198119Y0129035D01*
X0198055Y0128890D01*
X0197987Y0128747D01*
X0197916Y0128605D01*
X0197842Y0128465D01*
X0197764Y0128328D01*
X0197682Y0128192D01*
X0197598Y0128058D01*
X0197509Y0127927D01*
X0197418Y0127798D01*
X0197323Y0127671D01*
X0197226Y0127546D01*
X0197125Y0127424D01*
X0197021Y0127305D01*
X0196914Y0127188D01*
X0196804Y0127074D01*
X0196691Y0126963D01*
X0196576Y0126854D01*
X0196458Y0126749D01*
X0196337Y0126647D01*
X0196214Y0126547D01*
X0196088Y0126451D01*
X0195960Y0126358D01*
X0195830Y0126268D01*
X0195697Y0126182D01*
X0195562Y0126098D01*
X0195426Y0126019D01*
X0195287Y0125942D01*
X0195146Y0125870D01*
X0195004Y0125800D01*
X0194860Y0125735D01*
X0194714Y0125673D01*
X0194567Y0125615D01*
X0194418Y0125560D01*
X0194268Y0125509D01*
X0194117Y0125462D01*
X0193965Y0125419D01*
X0193812Y0125380D01*
X0193657Y0125344D01*
X0193502Y0125313D01*
X0193346Y0125285D01*
X0193190Y0125261D01*
X0193033Y0125241D01*
X0192875Y0125225D01*
X0192718Y0125213D01*
X0192559Y0125205D01*
X0192401Y0125201D01*
X0192243Y0125201D01*
X0192085Y0125205D01*
X0191926Y0125213D01*
X0191769Y0125225D01*
X0191611Y0125241D01*
X0191454Y0125261D01*
X0191298Y0125285D01*
X0191142Y0125313D01*
X0190987Y0125344D01*
X0190832Y0125380D01*
X0190679Y0125419D01*
X0190527Y0125462D01*
X0190376Y0125509D01*
X0190226Y0125560D01*
X0190077Y0125615D01*
X0189930Y0125673D01*
X0189784Y0125735D01*
X0189640Y0125800D01*
X0189498Y0125870D01*
X0189357Y0125942D01*
X0189218Y0126019D01*
X0189082Y0126098D01*
X0188947Y0126182D01*
X0188814Y0126268D01*
X0188684Y0126358D01*
X0188556Y0126451D01*
X0188430Y0126547D01*
X0188307Y0126647D01*
X0188186Y0126749D01*
X0188068Y0126854D01*
X0187953Y0126963D01*
X0187840Y0127074D01*
X0187730Y0127188D01*
X0187623Y0127305D01*
X0187519Y0127424D01*
X0187418Y0127546D01*
X0187321Y0127671D01*
X0187226Y0127798D01*
X0187135Y0127927D01*
X0187046Y0128058D01*
X0186962Y0128192D01*
X0186880Y0128328D01*
X0186802Y0128465D01*
X0186728Y0128605D01*
X0186657Y0128747D01*
X0186589Y0128890D01*
X0186525Y0129035D01*
X0186465Y0129181D01*
X0186409Y0129329D01*
X0186356Y0129478D01*
X0186307Y0129629D01*
X0186262Y0129781D01*
X0186221Y0129934D01*
X0186183Y0130087D01*
X0186150Y0130242D01*
X0186120Y0130398D01*
X0186094Y0130554D01*
X0186073Y0130711D01*
X0186055Y0130868D01*
X0186041Y0131026D01*
X0186031Y0131184D01*
X0186025Y0131342D01*
X0186023Y0131500D01*
X0210964Y0033500D02*
X0210966Y0033658D01*
X0210972Y0033816D01*
X0210982Y0033974D01*
X0210996Y0034132D01*
X0211014Y0034289D01*
X0211035Y0034446D01*
X0211061Y0034602D01*
X0211091Y0034758D01*
X0211124Y0034913D01*
X0211162Y0035066D01*
X0211203Y0035219D01*
X0211248Y0035371D01*
X0211297Y0035522D01*
X0211350Y0035671D01*
X0211406Y0035819D01*
X0211466Y0035965D01*
X0211530Y0036110D01*
X0211598Y0036253D01*
X0211669Y0036395D01*
X0211743Y0036535D01*
X0211821Y0036672D01*
X0211903Y0036808D01*
X0211987Y0036942D01*
X0212076Y0037073D01*
X0212167Y0037202D01*
X0212262Y0037329D01*
X0212359Y0037454D01*
X0212460Y0037576D01*
X0212564Y0037695D01*
X0212671Y0037812D01*
X0212781Y0037926D01*
X0212894Y0038037D01*
X0213009Y0038146D01*
X0213127Y0038251D01*
X0213248Y0038353D01*
X0213371Y0038453D01*
X0213497Y0038549D01*
X0213625Y0038642D01*
X0213755Y0038732D01*
X0213888Y0038818D01*
X0214023Y0038902D01*
X0214159Y0038981D01*
X0214298Y0039058D01*
X0214439Y0039130D01*
X0214581Y0039200D01*
X0214725Y0039265D01*
X0214871Y0039327D01*
X0215018Y0039385D01*
X0215167Y0039440D01*
X0215317Y0039491D01*
X0215468Y0039538D01*
X0215620Y0039581D01*
X0215773Y0039620D01*
X0215928Y0039656D01*
X0216083Y0039687D01*
X0216239Y0039715D01*
X0216395Y0039739D01*
X0216552Y0039759D01*
X0216710Y0039775D01*
X0216867Y0039787D01*
X0217026Y0039795D01*
X0217184Y0039799D01*
X0217342Y0039799D01*
X0217500Y0039795D01*
X0217659Y0039787D01*
X0217816Y0039775D01*
X0217974Y0039759D01*
X0218131Y0039739D01*
X0218287Y0039715D01*
X0218443Y0039687D01*
X0218598Y0039656D01*
X0218753Y0039620D01*
X0218906Y0039581D01*
X0219058Y0039538D01*
X0219209Y0039491D01*
X0219359Y0039440D01*
X0219508Y0039385D01*
X0219655Y0039327D01*
X0219801Y0039265D01*
X0219945Y0039200D01*
X0220087Y0039130D01*
X0220228Y0039058D01*
X0220367Y0038981D01*
X0220503Y0038902D01*
X0220638Y0038818D01*
X0220771Y0038732D01*
X0220901Y0038642D01*
X0221029Y0038549D01*
X0221155Y0038453D01*
X0221278Y0038353D01*
X0221399Y0038251D01*
X0221517Y0038146D01*
X0221632Y0038037D01*
X0221745Y0037926D01*
X0221855Y0037812D01*
X0221962Y0037695D01*
X0222066Y0037576D01*
X0222167Y0037454D01*
X0222264Y0037329D01*
X0222359Y0037202D01*
X0222450Y0037073D01*
X0222539Y0036942D01*
X0222623Y0036808D01*
X0222705Y0036672D01*
X0222783Y0036535D01*
X0222857Y0036395D01*
X0222928Y0036253D01*
X0222996Y0036110D01*
X0223060Y0035965D01*
X0223120Y0035819D01*
X0223176Y0035671D01*
X0223229Y0035522D01*
X0223278Y0035371D01*
X0223323Y0035219D01*
X0223364Y0035066D01*
X0223402Y0034913D01*
X0223435Y0034758D01*
X0223465Y0034602D01*
X0223491Y0034446D01*
X0223512Y0034289D01*
X0223530Y0034132D01*
X0223544Y0033974D01*
X0223554Y0033816D01*
X0223560Y0033658D01*
X0223562Y0033500D01*
X0223560Y0033342D01*
X0223554Y0033184D01*
X0223544Y0033026D01*
X0223530Y0032868D01*
X0223512Y0032711D01*
X0223491Y0032554D01*
X0223465Y0032398D01*
X0223435Y0032242D01*
X0223402Y0032087D01*
X0223364Y0031934D01*
X0223323Y0031781D01*
X0223278Y0031629D01*
X0223229Y0031478D01*
X0223176Y0031329D01*
X0223120Y0031181D01*
X0223060Y0031035D01*
X0222996Y0030890D01*
X0222928Y0030747D01*
X0222857Y0030605D01*
X0222783Y0030465D01*
X0222705Y0030328D01*
X0222623Y0030192D01*
X0222539Y0030058D01*
X0222450Y0029927D01*
X0222359Y0029798D01*
X0222264Y0029671D01*
X0222167Y0029546D01*
X0222066Y0029424D01*
X0221962Y0029305D01*
X0221855Y0029188D01*
X0221745Y0029074D01*
X0221632Y0028963D01*
X0221517Y0028854D01*
X0221399Y0028749D01*
X0221278Y0028647D01*
X0221155Y0028547D01*
X0221029Y0028451D01*
X0220901Y0028358D01*
X0220771Y0028268D01*
X0220638Y0028182D01*
X0220503Y0028098D01*
X0220367Y0028019D01*
X0220228Y0027942D01*
X0220087Y0027870D01*
X0219945Y0027800D01*
X0219801Y0027735D01*
X0219655Y0027673D01*
X0219508Y0027615D01*
X0219359Y0027560D01*
X0219209Y0027509D01*
X0219058Y0027462D01*
X0218906Y0027419D01*
X0218753Y0027380D01*
X0218598Y0027344D01*
X0218443Y0027313D01*
X0218287Y0027285D01*
X0218131Y0027261D01*
X0217974Y0027241D01*
X0217816Y0027225D01*
X0217659Y0027213D01*
X0217500Y0027205D01*
X0217342Y0027201D01*
X0217184Y0027201D01*
X0217026Y0027205D01*
X0216867Y0027213D01*
X0216710Y0027225D01*
X0216552Y0027241D01*
X0216395Y0027261D01*
X0216239Y0027285D01*
X0216083Y0027313D01*
X0215928Y0027344D01*
X0215773Y0027380D01*
X0215620Y0027419D01*
X0215468Y0027462D01*
X0215317Y0027509D01*
X0215167Y0027560D01*
X0215018Y0027615D01*
X0214871Y0027673D01*
X0214725Y0027735D01*
X0214581Y0027800D01*
X0214439Y0027870D01*
X0214298Y0027942D01*
X0214159Y0028019D01*
X0214023Y0028098D01*
X0213888Y0028182D01*
X0213755Y0028268D01*
X0213625Y0028358D01*
X0213497Y0028451D01*
X0213371Y0028547D01*
X0213248Y0028647D01*
X0213127Y0028749D01*
X0213009Y0028854D01*
X0212894Y0028963D01*
X0212781Y0029074D01*
X0212671Y0029188D01*
X0212564Y0029305D01*
X0212460Y0029424D01*
X0212359Y0029546D01*
X0212262Y0029671D01*
X0212167Y0029798D01*
X0212076Y0029927D01*
X0211987Y0030058D01*
X0211903Y0030192D01*
X0211821Y0030328D01*
X0211743Y0030465D01*
X0211669Y0030605D01*
X0211598Y0030747D01*
X0211530Y0030890D01*
X0211466Y0031035D01*
X0211406Y0031181D01*
X0211350Y0031329D01*
X0211297Y0031478D01*
X0211248Y0031629D01*
X0211203Y0031781D01*
X0211162Y0031934D01*
X0211124Y0032087D01*
X0211091Y0032242D01*
X0211061Y0032398D01*
X0211035Y0032554D01*
X0211014Y0032711D01*
X0210996Y0032868D01*
X0210982Y0033026D01*
X0210972Y0033184D01*
X0210966Y0033342D01*
X0210964Y0033500D01*
D14*
X0180922Y0131500D02*
X0180925Y0131780D01*
X0180936Y0132059D01*
X0180953Y0132339D01*
X0180977Y0132617D01*
X0181008Y0132895D01*
X0181045Y0133173D01*
X0181090Y0133449D01*
X0181141Y0133724D01*
X0181199Y0133998D01*
X0181264Y0134270D01*
X0181335Y0134541D01*
X0181413Y0134809D01*
X0181497Y0135076D01*
X0181588Y0135341D01*
X0181686Y0135603D01*
X0181790Y0135863D01*
X0181900Y0136120D01*
X0182017Y0136374D01*
X0182139Y0136626D01*
X0182268Y0136874D01*
X0182403Y0137119D01*
X0182544Y0137361D01*
X0182691Y0137599D01*
X0182843Y0137834D01*
X0183002Y0138064D01*
X0183165Y0138291D01*
X0183335Y0138514D01*
X0183510Y0138732D01*
X0183690Y0138946D01*
X0183875Y0139156D01*
X0184066Y0139361D01*
X0184261Y0139561D01*
X0184461Y0139756D01*
X0184666Y0139947D01*
X0184876Y0140132D01*
X0185090Y0140312D01*
X0185308Y0140487D01*
X0185531Y0140657D01*
X0185758Y0140820D01*
X0185988Y0140979D01*
X0186223Y0141131D01*
X0186461Y0141278D01*
X0186703Y0141419D01*
X0186948Y0141554D01*
X0187196Y0141683D01*
X0187448Y0141805D01*
X0187702Y0141922D01*
X0187959Y0142032D01*
X0188219Y0142136D01*
X0188481Y0142234D01*
X0188746Y0142325D01*
X0189013Y0142409D01*
X0189281Y0142487D01*
X0189552Y0142558D01*
X0189824Y0142623D01*
X0190098Y0142681D01*
X0190373Y0142732D01*
X0190649Y0142777D01*
X0190927Y0142814D01*
X0191205Y0142845D01*
X0191483Y0142869D01*
X0191763Y0142886D01*
X0192042Y0142897D01*
X0192322Y0142900D01*
X0192602Y0142897D01*
X0192881Y0142886D01*
X0193161Y0142869D01*
X0193439Y0142845D01*
X0193717Y0142814D01*
X0193995Y0142777D01*
X0194271Y0142732D01*
X0194546Y0142681D01*
X0194820Y0142623D01*
X0195092Y0142558D01*
X0195363Y0142487D01*
X0195631Y0142409D01*
X0195898Y0142325D01*
X0196163Y0142234D01*
X0196425Y0142136D01*
X0196685Y0142032D01*
X0196942Y0141922D01*
X0197196Y0141805D01*
X0197448Y0141683D01*
X0197696Y0141554D01*
X0197941Y0141419D01*
X0198183Y0141278D01*
X0198421Y0141131D01*
X0198656Y0140979D01*
X0198886Y0140820D01*
X0199113Y0140657D01*
X0199336Y0140487D01*
X0199554Y0140312D01*
X0199768Y0140132D01*
X0199978Y0139947D01*
X0200183Y0139756D01*
X0200383Y0139561D01*
X0200578Y0139361D01*
X0200769Y0139156D01*
X0200954Y0138946D01*
X0201134Y0138732D01*
X0201309Y0138514D01*
X0201479Y0138291D01*
X0201642Y0138064D01*
X0201801Y0137834D01*
X0201953Y0137599D01*
X0202100Y0137361D01*
X0202241Y0137119D01*
X0202376Y0136874D01*
X0202505Y0136626D01*
X0202627Y0136374D01*
X0202744Y0136120D01*
X0202854Y0135863D01*
X0202958Y0135603D01*
X0203056Y0135341D01*
X0203147Y0135076D01*
X0203231Y0134809D01*
X0203309Y0134541D01*
X0203380Y0134270D01*
X0203445Y0133998D01*
X0203503Y0133724D01*
X0203554Y0133449D01*
X0203599Y0133173D01*
X0203636Y0132895D01*
X0203667Y0132617D01*
X0203691Y0132339D01*
X0203708Y0132059D01*
X0203719Y0131780D01*
X0203722Y0131500D01*
X0203719Y0131220D01*
X0203708Y0130941D01*
X0203691Y0130661D01*
X0203667Y0130383D01*
X0203636Y0130105D01*
X0203599Y0129827D01*
X0203554Y0129551D01*
X0203503Y0129276D01*
X0203445Y0129002D01*
X0203380Y0128730D01*
X0203309Y0128459D01*
X0203231Y0128191D01*
X0203147Y0127924D01*
X0203056Y0127659D01*
X0202958Y0127397D01*
X0202854Y0127137D01*
X0202744Y0126880D01*
X0202627Y0126626D01*
X0202505Y0126374D01*
X0202376Y0126126D01*
X0202241Y0125881D01*
X0202100Y0125639D01*
X0201953Y0125401D01*
X0201801Y0125166D01*
X0201642Y0124936D01*
X0201479Y0124709D01*
X0201309Y0124486D01*
X0201134Y0124268D01*
X0200954Y0124054D01*
X0200769Y0123844D01*
X0200578Y0123639D01*
X0200383Y0123439D01*
X0200183Y0123244D01*
X0199978Y0123053D01*
X0199768Y0122868D01*
X0199554Y0122688D01*
X0199336Y0122513D01*
X0199113Y0122343D01*
X0198886Y0122180D01*
X0198656Y0122021D01*
X0198421Y0121869D01*
X0198183Y0121722D01*
X0197941Y0121581D01*
X0197696Y0121446D01*
X0197448Y0121317D01*
X0197196Y0121195D01*
X0196942Y0121078D01*
X0196685Y0120968D01*
X0196425Y0120864D01*
X0196163Y0120766D01*
X0195898Y0120675D01*
X0195631Y0120591D01*
X0195363Y0120513D01*
X0195092Y0120442D01*
X0194820Y0120377D01*
X0194546Y0120319D01*
X0194271Y0120268D01*
X0193995Y0120223D01*
X0193717Y0120186D01*
X0193439Y0120155D01*
X0193161Y0120131D01*
X0192881Y0120114D01*
X0192602Y0120103D01*
X0192322Y0120100D01*
X0192042Y0120103D01*
X0191763Y0120114D01*
X0191483Y0120131D01*
X0191205Y0120155D01*
X0190927Y0120186D01*
X0190649Y0120223D01*
X0190373Y0120268D01*
X0190098Y0120319D01*
X0189824Y0120377D01*
X0189552Y0120442D01*
X0189281Y0120513D01*
X0189013Y0120591D01*
X0188746Y0120675D01*
X0188481Y0120766D01*
X0188219Y0120864D01*
X0187959Y0120968D01*
X0187702Y0121078D01*
X0187448Y0121195D01*
X0187196Y0121317D01*
X0186948Y0121446D01*
X0186703Y0121581D01*
X0186461Y0121722D01*
X0186223Y0121869D01*
X0185988Y0122021D01*
X0185758Y0122180D01*
X0185531Y0122343D01*
X0185308Y0122513D01*
X0185090Y0122688D01*
X0184876Y0122868D01*
X0184666Y0123053D01*
X0184461Y0123244D01*
X0184261Y0123439D01*
X0184066Y0123639D01*
X0183875Y0123844D01*
X0183690Y0124054D01*
X0183510Y0124268D01*
X0183335Y0124486D01*
X0183165Y0124709D01*
X0183002Y0124936D01*
X0182843Y0125166D01*
X0182691Y0125401D01*
X0182544Y0125639D01*
X0182403Y0125881D01*
X0182268Y0126126D01*
X0182139Y0126374D01*
X0182017Y0126626D01*
X0181900Y0126880D01*
X0181790Y0127137D01*
X0181686Y0127397D01*
X0181588Y0127659D01*
X0181497Y0127924D01*
X0181413Y0128191D01*
X0181335Y0128459D01*
X0181264Y0128730D01*
X0181199Y0129002D01*
X0181141Y0129276D01*
X0181090Y0129551D01*
X0181045Y0129827D01*
X0181008Y0130105D01*
X0180977Y0130383D01*
X0180953Y0130661D01*
X0180936Y0130941D01*
X0180925Y0131220D01*
X0180922Y0131500D01*
X0125922Y0131500D02*
X0125925Y0131780D01*
X0125936Y0132059D01*
X0125953Y0132339D01*
X0125977Y0132617D01*
X0126008Y0132895D01*
X0126045Y0133173D01*
X0126090Y0133449D01*
X0126141Y0133724D01*
X0126199Y0133998D01*
X0126264Y0134270D01*
X0126335Y0134541D01*
X0126413Y0134809D01*
X0126497Y0135076D01*
X0126588Y0135341D01*
X0126686Y0135603D01*
X0126790Y0135863D01*
X0126900Y0136120D01*
X0127017Y0136374D01*
X0127139Y0136626D01*
X0127268Y0136874D01*
X0127403Y0137119D01*
X0127544Y0137361D01*
X0127691Y0137599D01*
X0127843Y0137834D01*
X0128002Y0138064D01*
X0128165Y0138291D01*
X0128335Y0138514D01*
X0128510Y0138732D01*
X0128690Y0138946D01*
X0128875Y0139156D01*
X0129066Y0139361D01*
X0129261Y0139561D01*
X0129461Y0139756D01*
X0129666Y0139947D01*
X0129876Y0140132D01*
X0130090Y0140312D01*
X0130308Y0140487D01*
X0130531Y0140657D01*
X0130758Y0140820D01*
X0130988Y0140979D01*
X0131223Y0141131D01*
X0131461Y0141278D01*
X0131703Y0141419D01*
X0131948Y0141554D01*
X0132196Y0141683D01*
X0132448Y0141805D01*
X0132702Y0141922D01*
X0132959Y0142032D01*
X0133219Y0142136D01*
X0133481Y0142234D01*
X0133746Y0142325D01*
X0134013Y0142409D01*
X0134281Y0142487D01*
X0134552Y0142558D01*
X0134824Y0142623D01*
X0135098Y0142681D01*
X0135373Y0142732D01*
X0135649Y0142777D01*
X0135927Y0142814D01*
X0136205Y0142845D01*
X0136483Y0142869D01*
X0136763Y0142886D01*
X0137042Y0142897D01*
X0137322Y0142900D01*
X0137602Y0142897D01*
X0137881Y0142886D01*
X0138161Y0142869D01*
X0138439Y0142845D01*
X0138717Y0142814D01*
X0138995Y0142777D01*
X0139271Y0142732D01*
X0139546Y0142681D01*
X0139820Y0142623D01*
X0140092Y0142558D01*
X0140363Y0142487D01*
X0140631Y0142409D01*
X0140898Y0142325D01*
X0141163Y0142234D01*
X0141425Y0142136D01*
X0141685Y0142032D01*
X0141942Y0141922D01*
X0142196Y0141805D01*
X0142448Y0141683D01*
X0142696Y0141554D01*
X0142941Y0141419D01*
X0143183Y0141278D01*
X0143421Y0141131D01*
X0143656Y0140979D01*
X0143886Y0140820D01*
X0144113Y0140657D01*
X0144336Y0140487D01*
X0144554Y0140312D01*
X0144768Y0140132D01*
X0144978Y0139947D01*
X0145183Y0139756D01*
X0145383Y0139561D01*
X0145578Y0139361D01*
X0145769Y0139156D01*
X0145954Y0138946D01*
X0146134Y0138732D01*
X0146309Y0138514D01*
X0146479Y0138291D01*
X0146642Y0138064D01*
X0146801Y0137834D01*
X0146953Y0137599D01*
X0147100Y0137361D01*
X0147241Y0137119D01*
X0147376Y0136874D01*
X0147505Y0136626D01*
X0147627Y0136374D01*
X0147744Y0136120D01*
X0147854Y0135863D01*
X0147958Y0135603D01*
X0148056Y0135341D01*
X0148147Y0135076D01*
X0148231Y0134809D01*
X0148309Y0134541D01*
X0148380Y0134270D01*
X0148445Y0133998D01*
X0148503Y0133724D01*
X0148554Y0133449D01*
X0148599Y0133173D01*
X0148636Y0132895D01*
X0148667Y0132617D01*
X0148691Y0132339D01*
X0148708Y0132059D01*
X0148719Y0131780D01*
X0148722Y0131500D01*
X0148719Y0131220D01*
X0148708Y0130941D01*
X0148691Y0130661D01*
X0148667Y0130383D01*
X0148636Y0130105D01*
X0148599Y0129827D01*
X0148554Y0129551D01*
X0148503Y0129276D01*
X0148445Y0129002D01*
X0148380Y0128730D01*
X0148309Y0128459D01*
X0148231Y0128191D01*
X0148147Y0127924D01*
X0148056Y0127659D01*
X0147958Y0127397D01*
X0147854Y0127137D01*
X0147744Y0126880D01*
X0147627Y0126626D01*
X0147505Y0126374D01*
X0147376Y0126126D01*
X0147241Y0125881D01*
X0147100Y0125639D01*
X0146953Y0125401D01*
X0146801Y0125166D01*
X0146642Y0124936D01*
X0146479Y0124709D01*
X0146309Y0124486D01*
X0146134Y0124268D01*
X0145954Y0124054D01*
X0145769Y0123844D01*
X0145578Y0123639D01*
X0145383Y0123439D01*
X0145183Y0123244D01*
X0144978Y0123053D01*
X0144768Y0122868D01*
X0144554Y0122688D01*
X0144336Y0122513D01*
X0144113Y0122343D01*
X0143886Y0122180D01*
X0143656Y0122021D01*
X0143421Y0121869D01*
X0143183Y0121722D01*
X0142941Y0121581D01*
X0142696Y0121446D01*
X0142448Y0121317D01*
X0142196Y0121195D01*
X0141942Y0121078D01*
X0141685Y0120968D01*
X0141425Y0120864D01*
X0141163Y0120766D01*
X0140898Y0120675D01*
X0140631Y0120591D01*
X0140363Y0120513D01*
X0140092Y0120442D01*
X0139820Y0120377D01*
X0139546Y0120319D01*
X0139271Y0120268D01*
X0138995Y0120223D01*
X0138717Y0120186D01*
X0138439Y0120155D01*
X0138161Y0120131D01*
X0137881Y0120114D01*
X0137602Y0120103D01*
X0137322Y0120100D01*
X0137042Y0120103D01*
X0136763Y0120114D01*
X0136483Y0120131D01*
X0136205Y0120155D01*
X0135927Y0120186D01*
X0135649Y0120223D01*
X0135373Y0120268D01*
X0135098Y0120319D01*
X0134824Y0120377D01*
X0134552Y0120442D01*
X0134281Y0120513D01*
X0134013Y0120591D01*
X0133746Y0120675D01*
X0133481Y0120766D01*
X0133219Y0120864D01*
X0132959Y0120968D01*
X0132702Y0121078D01*
X0132448Y0121195D01*
X0132196Y0121317D01*
X0131948Y0121446D01*
X0131703Y0121581D01*
X0131461Y0121722D01*
X0131223Y0121869D01*
X0130988Y0122021D01*
X0130758Y0122180D01*
X0130531Y0122343D01*
X0130308Y0122513D01*
X0130090Y0122688D01*
X0129876Y0122868D01*
X0129666Y0123053D01*
X0129461Y0123244D01*
X0129261Y0123439D01*
X0129066Y0123639D01*
X0128875Y0123844D01*
X0128690Y0124054D01*
X0128510Y0124268D01*
X0128335Y0124486D01*
X0128165Y0124709D01*
X0128002Y0124936D01*
X0127843Y0125166D01*
X0127691Y0125401D01*
X0127544Y0125639D01*
X0127403Y0125881D01*
X0127268Y0126126D01*
X0127139Y0126374D01*
X0127017Y0126626D01*
X0126900Y0126880D01*
X0126790Y0127137D01*
X0126686Y0127397D01*
X0126588Y0127659D01*
X0126497Y0127924D01*
X0126413Y0128191D01*
X0126335Y0128459D01*
X0126264Y0128730D01*
X0126199Y0129002D01*
X0126141Y0129276D01*
X0126090Y0129551D01*
X0126045Y0129827D01*
X0126008Y0130105D01*
X0125977Y0130383D01*
X0125953Y0130661D01*
X0125936Y0130941D01*
X0125925Y0131220D01*
X0125922Y0131500D01*
D15*
X0150748Y0125552D02*
X0150748Y0122650D01*
X0150748Y0123617D02*
X0152200Y0123617D01*
X0152683Y0124101D01*
X0152683Y0125069D01*
X0152200Y0125552D01*
X0150748Y0125552D01*
X0151716Y0123617D02*
X0152683Y0122650D01*
X0153695Y0123134D02*
X0154179Y0122650D01*
X0155146Y0122650D01*
X0155630Y0123617D02*
X0153695Y0123617D01*
X0153695Y0123134D02*
X0153695Y0124101D01*
X0154179Y0124585D01*
X0155146Y0124585D01*
X0155630Y0124101D01*
X0155630Y0123617D01*
X0156641Y0123617D02*
X0158576Y0123617D01*
X0158576Y0124101D01*
X0158093Y0124585D01*
X0157125Y0124585D01*
X0156641Y0124101D01*
X0156641Y0123134D01*
X0157125Y0122650D01*
X0158093Y0122650D01*
X0159588Y0123134D02*
X0160072Y0122650D01*
X0161523Y0122650D01*
X0161523Y0125552D01*
X0161523Y0124585D02*
X0160072Y0124585D01*
X0159588Y0124101D01*
X0159588Y0123134D01*
X0165481Y0123134D02*
X0165965Y0122650D01*
X0166932Y0122650D01*
X0167416Y0123134D01*
X0167416Y0123617D01*
X0166932Y0124101D01*
X0165965Y0124101D01*
X0165481Y0124585D01*
X0165481Y0125069D01*
X0165965Y0125552D01*
X0166932Y0125552D01*
X0167416Y0125069D01*
X0168427Y0124585D02*
X0168427Y0123134D01*
X0168911Y0122650D01*
X0169395Y0123134D01*
X0169879Y0122650D01*
X0170362Y0123134D01*
X0170362Y0124585D01*
X0171374Y0124585D02*
X0171858Y0124585D01*
X0171858Y0122650D01*
X0172341Y0122650D02*
X0171374Y0122650D01*
X0173822Y0123134D02*
X0174306Y0122650D01*
X0173822Y0123134D02*
X0173822Y0125069D01*
X0173338Y0124585D02*
X0174306Y0124585D01*
X0175303Y0124101D02*
X0175786Y0124585D01*
X0177238Y0124585D01*
X0178249Y0124101D02*
X0178733Y0124585D01*
X0179700Y0124585D01*
X0180184Y0124101D01*
X0180184Y0122650D01*
X0178249Y0122650D02*
X0178249Y0125552D01*
X0175303Y0124101D02*
X0175303Y0123134D01*
X0175786Y0122650D01*
X0177238Y0122650D01*
X0171858Y0125552D02*
X0171858Y0126036D01*
X0169861Y0105552D02*
X0169861Y0102650D01*
X0169377Y0102650D02*
X0170345Y0102650D01*
X0168366Y0102650D02*
X0166915Y0102650D01*
X0166431Y0103134D01*
X0166431Y0104101D01*
X0166915Y0104585D01*
X0168366Y0104585D01*
X0169377Y0105552D02*
X0169861Y0105552D01*
X0172993Y0104101D02*
X0173477Y0104585D01*
X0174928Y0104585D01*
X0174444Y0103617D02*
X0173477Y0103617D01*
X0172993Y0104101D01*
X0172993Y0102650D02*
X0174444Y0102650D01*
X0174928Y0103134D01*
X0174444Y0103617D01*
X0175940Y0103134D02*
X0175940Y0104101D01*
X0176423Y0104585D01*
X0177875Y0104585D01*
X0177875Y0105552D02*
X0177875Y0102650D01*
X0176423Y0102650D01*
X0175940Y0103134D01*
X0178886Y0103134D02*
X0179370Y0102650D01*
X0180821Y0102650D01*
X0180821Y0104101D01*
X0180337Y0104585D01*
X0179370Y0104585D01*
X0179370Y0103617D02*
X0180821Y0103617D01*
X0179370Y0103617D02*
X0178886Y0103134D01*
X0165419Y0103134D02*
X0164936Y0102650D01*
X0163484Y0102650D01*
X0163968Y0103617D02*
X0163484Y0104101D01*
X0163968Y0104585D01*
X0165419Y0104585D01*
X0164936Y0103617D02*
X0163968Y0103617D01*
X0164936Y0103617D02*
X0165419Y0103134D01*
X0158375Y0103134D02*
X0157891Y0102650D01*
X0156923Y0102650D01*
X0156440Y0103134D01*
X0156440Y0105069D01*
X0156923Y0105552D01*
X0157891Y0105552D01*
X0158375Y0105069D01*
X0149875Y0105085D02*
X0149391Y0104601D01*
X0147940Y0104601D01*
X0149391Y0104601D02*
X0149875Y0104117D01*
X0149875Y0103634D01*
X0149391Y0103150D01*
X0147940Y0103150D01*
X0147940Y0106052D01*
X0149391Y0106052D01*
X0149875Y0105569D01*
X0149875Y0105085D01*
X0138375Y0105085D02*
X0138375Y0103150D01*
X0138375Y0104601D02*
X0136440Y0104601D01*
X0136440Y0105085D02*
X0137407Y0106052D01*
X0138375Y0105085D01*
X0136440Y0105085D02*
X0136440Y0103150D01*
X0136854Y0081952D02*
X0137821Y0080985D01*
X0137821Y0079050D01*
X0138833Y0079534D02*
X0139317Y0079050D01*
X0140284Y0079050D01*
X0140768Y0079534D01*
X0140768Y0080017D01*
X0140284Y0080501D01*
X0139800Y0080501D01*
X0140284Y0080501D02*
X0140768Y0080985D01*
X0140768Y0081469D01*
X0140284Y0081952D01*
X0139317Y0081952D01*
X0138833Y0081469D01*
X0137821Y0080501D02*
X0135886Y0080501D01*
X0135886Y0080985D02*
X0136854Y0081952D01*
X0135886Y0080985D02*
X0135886Y0079050D01*
X0134875Y0079534D02*
X0134875Y0080501D01*
X0133907Y0080501D01*
X0132940Y0079534D02*
X0133423Y0079050D01*
X0134391Y0079050D01*
X0134875Y0079534D01*
X0132940Y0079534D02*
X0132940Y0081469D01*
X0133423Y0081952D01*
X0134391Y0081952D01*
X0134875Y0081469D01*
X0131928Y0081952D02*
X0129993Y0081952D01*
X0129993Y0079050D01*
X0131928Y0079050D01*
X0130961Y0080501D02*
X0129993Y0080501D01*
X0128982Y0081952D02*
X0128982Y0079050D01*
X0127047Y0079050D02*
X0127047Y0081952D01*
X0128014Y0080985D01*
X0128982Y0081952D01*
X0126035Y0081952D02*
X0124100Y0081952D01*
X0125068Y0081952D02*
X0125068Y0079050D01*
X0123089Y0079050D02*
X0123089Y0080985D01*
X0122121Y0081952D01*
X0121154Y0080985D01*
X0121154Y0079050D01*
X0121154Y0080501D02*
X0123089Y0080501D01*
X0141779Y0081469D02*
X0142263Y0081952D01*
X0143231Y0081952D01*
X0143714Y0081469D01*
X0143714Y0080985D01*
X0141779Y0079050D01*
X0143714Y0079050D01*
X0144726Y0079534D02*
X0144726Y0080017D01*
X0145210Y0080501D01*
X0146177Y0080501D01*
X0146661Y0080017D01*
X0146661Y0079534D01*
X0146177Y0079050D01*
X0145210Y0079050D01*
X0144726Y0079534D01*
X0145210Y0080501D02*
X0144726Y0080985D01*
X0144726Y0081469D01*
X0145210Y0081952D01*
X0146177Y0081952D01*
X0146661Y0081469D01*
X0146661Y0080985D01*
X0146177Y0080501D01*
X0153334Y0043036D02*
X0153334Y0042552D01*
X0153334Y0041585D02*
X0153334Y0039650D01*
X0152851Y0039650D02*
X0153818Y0039650D01*
X0154511Y0038585D02*
X0154995Y0038585D01*
X0155479Y0038101D01*
X0155962Y0038585D01*
X0156446Y0038101D01*
X0156446Y0036650D01*
X0155479Y0036650D02*
X0155479Y0038101D01*
X0154511Y0038585D02*
X0154511Y0036650D01*
X0157458Y0036650D02*
X0158425Y0036650D01*
X0157941Y0036650D02*
X0157941Y0038585D01*
X0157458Y0038585D01*
X0157941Y0039552D02*
X0157941Y0040036D01*
X0159422Y0038101D02*
X0159906Y0038585D01*
X0161357Y0038585D01*
X0160873Y0037617D02*
X0159906Y0037617D01*
X0159422Y0038101D01*
X0159422Y0036650D02*
X0160873Y0036650D01*
X0161357Y0037134D01*
X0160873Y0037617D01*
X0162368Y0037134D02*
X0162852Y0036650D01*
X0163820Y0036650D01*
X0164303Y0037134D01*
X0164303Y0038101D01*
X0163820Y0038585D01*
X0162852Y0038585D01*
X0162368Y0038101D01*
X0162368Y0037134D01*
X0165739Y0039650D02*
X0167190Y0039650D01*
X0167674Y0040134D01*
X0167190Y0040617D01*
X0166223Y0040617D01*
X0165739Y0041101D01*
X0166223Y0041585D01*
X0167674Y0041585D01*
X0168685Y0041101D02*
X0168685Y0040134D01*
X0169169Y0039650D01*
X0170620Y0039650D01*
X0171632Y0039650D02*
X0171632Y0042552D01*
X0170620Y0041585D02*
X0169169Y0041585D01*
X0168685Y0041101D01*
X0171632Y0040617D02*
X0173083Y0039650D01*
X0171632Y0040617D02*
X0173083Y0041585D01*
X0153334Y0041585D02*
X0152851Y0041585D01*
X0151839Y0041585D02*
X0150388Y0041585D01*
X0149904Y0041101D01*
X0150388Y0040617D01*
X0151355Y0040617D01*
X0151839Y0040134D01*
X0151355Y0039650D01*
X0149904Y0039650D01*
X0148893Y0040134D02*
X0148893Y0041101D01*
X0148409Y0041585D01*
X0147441Y0041585D01*
X0146958Y0041101D01*
X0146958Y0040134D01*
X0147441Y0039650D01*
X0148409Y0039650D01*
X0148893Y0040134D01*
X0145946Y0039650D02*
X0145946Y0041101D01*
X0145462Y0041585D01*
X0144979Y0041101D01*
X0144979Y0039650D01*
X0144011Y0039650D02*
X0144011Y0041585D01*
X0144495Y0041585D01*
X0144979Y0041101D01*
X0142099Y0038585D02*
X0141132Y0038585D01*
X0141616Y0039069D02*
X0141616Y0037134D01*
X0142099Y0036650D01*
X0140120Y0037134D02*
X0139637Y0037617D01*
X0138669Y0037617D01*
X0138185Y0038101D01*
X0138669Y0038585D01*
X0140120Y0038585D01*
X0140120Y0037134D02*
X0139637Y0036650D01*
X0138185Y0036650D01*
X0136697Y0038585D02*
X0135730Y0037617D01*
X0135730Y0036650D02*
X0135730Y0038585D01*
X0136697Y0038585D02*
X0137181Y0038585D01*
X0132821Y0038585D02*
X0131370Y0038585D01*
X0130886Y0038101D01*
X0130886Y0037134D01*
X0131370Y0036650D01*
X0132821Y0036650D01*
X0132821Y0039552D01*
X0129875Y0038101D02*
X0129875Y0036650D01*
X0129875Y0038101D02*
X0129391Y0038585D01*
X0127940Y0038585D01*
X0127940Y0036650D01*
X0126928Y0036650D02*
X0125477Y0036650D01*
X0124993Y0037134D01*
X0124993Y0038101D01*
X0125477Y0038585D01*
X0126928Y0038585D01*
X0126928Y0036166D01*
X0126444Y0035683D01*
X0125961Y0035683D01*
X0121348Y0038585D02*
X0120380Y0036650D01*
X0119413Y0038585D01*
X0118401Y0038101D02*
X0118401Y0037134D01*
X0117918Y0036650D01*
X0116950Y0036650D01*
X0116466Y0037134D01*
X0116466Y0038101D02*
X0117434Y0038585D01*
X0117918Y0038585D01*
X0118401Y0038101D01*
X0118401Y0039552D02*
X0116466Y0039552D01*
X0116466Y0038101D01*
X0060821Y0038052D02*
X0060821Y0035150D01*
X0059370Y0035150D01*
X0058886Y0035634D01*
X0058886Y0036601D01*
X0059370Y0037085D01*
X0060821Y0037085D01*
X0057875Y0036601D02*
X0057875Y0035150D01*
X0057875Y0036601D02*
X0057391Y0037085D01*
X0055940Y0037085D01*
X0055940Y0035150D01*
X0054928Y0035150D02*
X0053477Y0035150D01*
X0052993Y0035634D01*
X0052993Y0036601D01*
X0053477Y0037085D01*
X0054928Y0037085D01*
X0054928Y0034666D01*
X0054444Y0034183D01*
X0053961Y0034183D01*
X0039348Y0037085D02*
X0038380Y0035150D01*
X0037413Y0037085D01*
X0036401Y0037085D02*
X0035918Y0036601D01*
X0036401Y0036117D01*
X0036401Y0035634D01*
X0035918Y0035150D01*
X0034950Y0035150D01*
X0034466Y0035634D01*
X0035434Y0036601D02*
X0035918Y0036601D01*
X0036401Y0037085D02*
X0036401Y0037569D01*
X0035918Y0038052D01*
X0034950Y0038052D01*
X0034466Y0037569D01*
X0030099Y0037085D02*
X0029132Y0037085D01*
X0029616Y0037569D02*
X0029616Y0035634D01*
X0030099Y0035150D01*
X0028120Y0035634D02*
X0027637Y0035150D01*
X0026185Y0035150D01*
X0026669Y0036117D02*
X0026185Y0036601D01*
X0026669Y0037085D01*
X0028120Y0037085D01*
X0027637Y0036117D02*
X0026669Y0036117D01*
X0027637Y0036117D02*
X0028120Y0035634D01*
X0025181Y0037085D02*
X0024697Y0037085D01*
X0023730Y0036117D01*
X0023730Y0035150D02*
X0023730Y0037085D01*
X0212098Y0100900D02*
X0212098Y0103002D01*
X0213149Y0103002D01*
X0213499Y0102651D01*
X0213499Y0101951D01*
X0213149Y0101601D01*
X0212098Y0101601D01*
X0214308Y0100900D02*
X0215009Y0101601D01*
X0215709Y0100900D01*
X0215709Y0103002D01*
X0216518Y0103002D02*
X0217569Y0103002D01*
X0217919Y0102651D01*
X0217919Y0101951D01*
X0217569Y0101601D01*
X0216518Y0101601D01*
X0217219Y0101601D02*
X0217919Y0100900D01*
X0216518Y0100900D02*
X0216518Y0103002D01*
X0214308Y0103002D02*
X0214308Y0100900D01*
X0256585Y0077356D02*
X0258037Y0077356D01*
X0258520Y0076872D01*
X0258520Y0074937D01*
X0258037Y0074453D01*
X0256585Y0074453D01*
X0256585Y0077356D01*
X0263986Y0090307D02*
X0263986Y0092776D01*
X0265220Y0093990D02*
X0265837Y0093990D01*
X0265220Y0093990D02*
X0262751Y0096459D01*
X0262134Y0096459D01*
X0262134Y0093990D01*
X0262134Y0092159D02*
X0263986Y0090307D01*
X0265837Y0092159D02*
X0262134Y0092159D01*
X0263369Y0097673D02*
X0265220Y0097673D01*
X0265837Y0098291D01*
X0265837Y0100142D01*
X0263369Y0100142D01*
X0263986Y0101357D02*
X0263986Y0102591D01*
X0265837Y0101357D02*
X0262134Y0101357D01*
X0262134Y0103825D01*
X0222210Y0052552D02*
X0220759Y0052552D01*
X0220759Y0049650D01*
X0222210Y0049650D01*
X0222694Y0050134D01*
X0222694Y0050617D01*
X0222210Y0051101D01*
X0220759Y0051101D01*
X0222210Y0051101D02*
X0222694Y0051585D01*
X0222694Y0052069D01*
X0222210Y0052552D01*
D16*
X0178663Y0062932D02*
X0177929Y0062198D01*
X0177929Y0064400D01*
X0178663Y0064400D02*
X0177195Y0064400D01*
X0176453Y0064033D02*
X0176453Y0062932D01*
X0176453Y0064033D02*
X0176086Y0064400D01*
X0174985Y0064400D01*
X0174985Y0062932D01*
X0174243Y0063299D02*
X0173509Y0063299D01*
X0174243Y0062198D02*
X0172775Y0062198D01*
X0174243Y0062198D02*
X0174243Y0064400D01*
X0181863Y0077722D02*
X0182964Y0078823D01*
X0182597Y0079190D02*
X0184065Y0077722D01*
X0184065Y0079190D02*
X0181863Y0079190D01*
X0181863Y0079932D02*
X0181863Y0081400D01*
X0181863Y0080666D02*
X0184065Y0080666D01*
X0183331Y0081400D01*
X0174121Y0086200D02*
X0173020Y0087301D01*
X0172653Y0086934D02*
X0174121Y0088402D01*
X0172653Y0088402D02*
X0172653Y0086200D01*
X0171911Y0086200D02*
X0170443Y0086200D01*
X0171177Y0086200D02*
X0171177Y0088402D01*
X0170443Y0087668D01*
X0163663Y0084831D02*
X0162929Y0083730D01*
X0162195Y0084831D01*
X0161461Y0083730D02*
X0163663Y0083730D01*
X0163296Y0082988D02*
X0161828Y0082988D01*
X0163296Y0081520D01*
X0163663Y0081887D01*
X0163663Y0082621D01*
X0163296Y0082988D01*
X0161828Y0082988D02*
X0161461Y0082621D01*
X0161461Y0081887D01*
X0161828Y0081520D01*
X0163296Y0081520D01*
X0163296Y0080778D02*
X0161828Y0080778D01*
X0163296Y0079310D01*
X0163663Y0079677D01*
X0163663Y0080411D01*
X0163296Y0080778D01*
X0161828Y0080778D02*
X0161461Y0080411D01*
X0161461Y0079677D01*
X0161828Y0079310D01*
X0163296Y0079310D01*
X0163663Y0078568D02*
X0163663Y0077100D01*
X0162195Y0078568D01*
X0161828Y0078568D01*
X0161461Y0078201D01*
X0161461Y0077467D01*
X0161828Y0077100D01*
X0199363Y0092222D02*
X0200464Y0093323D01*
X0200097Y0093690D02*
X0201565Y0092222D01*
X0201565Y0093690D02*
X0199363Y0093690D01*
X0199363Y0094432D02*
X0199363Y0095900D01*
X0199363Y0095166D02*
X0201565Y0095166D01*
X0200831Y0095900D01*
X0192541Y0100600D02*
X0191440Y0101701D01*
X0191073Y0101334D02*
X0192541Y0102802D01*
X0191073Y0102802D02*
X0191073Y0100600D01*
X0190331Y0100600D02*
X0188863Y0100600D01*
X0189597Y0100600D02*
X0189597Y0102802D01*
X0188863Y0102068D01*
X0212732Y0089935D02*
X0213099Y0090302D01*
X0213833Y0090302D01*
X0214200Y0089935D01*
X0214200Y0089568D01*
X0212732Y0088100D01*
X0214200Y0088100D01*
X0214942Y0088467D02*
X0216410Y0089935D01*
X0216410Y0088467D01*
X0216043Y0088100D01*
X0215309Y0088100D01*
X0214942Y0088467D01*
X0214942Y0089935D01*
X0215309Y0090302D01*
X0216043Y0090302D01*
X0216410Y0089935D01*
X0217152Y0090302D02*
X0217152Y0088100D01*
X0217152Y0088834D02*
X0218253Y0089568D01*
X0217152Y0088834D02*
X0218253Y0088100D01*
X0119163Y0105350D02*
X0119163Y0106818D01*
X0119163Y0106084D02*
X0116961Y0106084D01*
X0117695Y0105350D01*
X0117328Y0107560D02*
X0116961Y0107927D01*
X0116961Y0108661D01*
X0117328Y0109028D01*
X0118796Y0107560D01*
X0119163Y0107927D01*
X0119163Y0108661D01*
X0118796Y0109028D01*
X0117328Y0109028D01*
X0116961Y0109770D02*
X0119163Y0109770D01*
X0118429Y0109770D02*
X0116961Y0111238D01*
X0118062Y0110137D02*
X0119163Y0111238D01*
X0118796Y0107560D02*
X0117328Y0107560D01*
X0102041Y0102802D02*
X0100573Y0101334D01*
X0100940Y0101701D02*
X0102041Y0100600D01*
X0100573Y0100600D02*
X0100573Y0102802D01*
X0099097Y0102802D02*
X0099097Y0100600D01*
X0098363Y0100600D02*
X0099831Y0100600D01*
X0098363Y0102068D02*
X0099097Y0102802D01*
X0098936Y0095302D02*
X0097468Y0093834D01*
X0097835Y0094201D02*
X0098936Y0093100D01*
X0097468Y0093100D02*
X0097468Y0095302D01*
X0096726Y0094935D02*
X0095258Y0093467D01*
X0095625Y0093100D01*
X0096359Y0093100D01*
X0096726Y0093467D01*
X0096726Y0094935D01*
X0096359Y0095302D01*
X0095625Y0095302D01*
X0095258Y0094935D01*
X0095258Y0093467D01*
X0094516Y0093100D02*
X0093048Y0093100D01*
X0093782Y0093100D02*
X0093782Y0095302D01*
X0093048Y0094568D01*
X0086436Y0093802D02*
X0084968Y0092334D01*
X0085335Y0092701D02*
X0086436Y0091600D01*
X0084968Y0091600D02*
X0084968Y0093802D01*
X0084226Y0093435D02*
X0083859Y0093802D01*
X0083125Y0093802D01*
X0082758Y0093435D01*
X0082758Y0091967D01*
X0084226Y0093435D01*
X0084226Y0091967D01*
X0083859Y0091600D01*
X0083125Y0091600D01*
X0082758Y0091967D01*
X0082016Y0091600D02*
X0080548Y0091600D01*
X0081282Y0091600D02*
X0081282Y0093802D01*
X0080548Y0093068D01*
X0063383Y0093467D02*
X0063016Y0093100D01*
X0062282Y0093100D01*
X0061915Y0093467D01*
X0061915Y0094201D02*
X0062649Y0094568D01*
X0063016Y0094568D01*
X0063383Y0094201D01*
X0063383Y0093467D01*
X0061915Y0094201D02*
X0061915Y0095302D01*
X0063383Y0095302D01*
X0061173Y0095302D02*
X0061173Y0094935D01*
X0059706Y0093467D01*
X0059706Y0093100D01*
X0058968Y0093100D02*
X0058601Y0093100D01*
X0058601Y0093467D01*
X0058968Y0093467D01*
X0058968Y0093100D01*
X0059706Y0095302D02*
X0061173Y0095302D01*
X0032780Y0091033D02*
X0032780Y0090299D01*
X0031679Y0090299D01*
X0031312Y0090666D01*
X0031312Y0091033D01*
X0031679Y0091400D01*
X0032413Y0091400D01*
X0032780Y0091033D01*
X0032780Y0090299D02*
X0032046Y0089565D01*
X0031312Y0089198D01*
X0029465Y0089565D02*
X0029465Y0089932D01*
X0029098Y0090299D01*
X0028365Y0090299D01*
X0027998Y0090666D01*
X0027998Y0091033D01*
X0028365Y0091400D01*
X0029098Y0091400D01*
X0029465Y0091033D01*
X0029465Y0090666D01*
X0029098Y0090299D01*
X0028365Y0090299D02*
X0027998Y0089932D01*
X0027998Y0089565D01*
X0028365Y0089198D01*
X0029098Y0089198D01*
X0029465Y0089565D01*
X0030203Y0091033D02*
X0030203Y0091400D01*
X0030570Y0091400D01*
X0030570Y0091033D01*
X0030203Y0091033D01*
X0027256Y0090666D02*
X0025788Y0089198D01*
X0027256Y0089198D02*
X0027256Y0091400D01*
X0026889Y0090299D02*
X0025788Y0091400D01*
X0022062Y0086399D02*
X0022062Y0085665D01*
X0022062Y0084923D02*
X0022796Y0084923D01*
X0023163Y0084556D01*
X0023163Y0083455D01*
X0023897Y0083455D02*
X0021695Y0083455D01*
X0021695Y0084556D01*
X0022062Y0084923D01*
X0020961Y0085665D02*
X0020961Y0087133D01*
X0020961Y0085665D02*
X0023163Y0085665D01*
X0022796Y0082713D02*
X0021328Y0082713D01*
X0022796Y0081245D01*
X0023163Y0081612D01*
X0023163Y0082346D01*
X0022796Y0082713D01*
X0021328Y0082713D02*
X0020961Y0082346D01*
X0020961Y0081612D01*
X0021328Y0081245D01*
X0022796Y0081245D01*
X0022796Y0080503D02*
X0023163Y0080136D01*
X0023163Y0079402D01*
X0022796Y0079035D01*
X0022429Y0079035D01*
X0022062Y0079402D01*
X0022062Y0080136D01*
X0022429Y0080503D01*
X0022796Y0080503D01*
X0022062Y0080136D02*
X0021695Y0080503D01*
X0021328Y0080503D01*
X0020961Y0080136D01*
X0020961Y0079402D01*
X0021328Y0079035D01*
X0021695Y0079035D01*
X0022062Y0079402D01*
X0022429Y0078293D02*
X0022062Y0077926D01*
X0022062Y0076825D01*
X0022796Y0076825D01*
X0023163Y0077192D01*
X0023163Y0077926D01*
X0022796Y0078293D01*
X0022429Y0078293D01*
X0021328Y0077559D02*
X0022062Y0076825D01*
X0021328Y0077559D02*
X0020961Y0078293D01*
X0031090Y0075400D02*
X0032191Y0074299D01*
X0032558Y0074666D02*
X0031090Y0073198D01*
X0032558Y0073198D02*
X0032558Y0075400D01*
X0033300Y0075033D02*
X0033667Y0075400D01*
X0034401Y0075400D01*
X0034768Y0075033D01*
X0033300Y0073565D01*
X0033300Y0075033D01*
X0033300Y0073565D02*
X0033667Y0073198D01*
X0034401Y0073198D01*
X0034768Y0073565D01*
X0034768Y0075033D01*
X0035510Y0075400D02*
X0036978Y0075400D01*
X0035510Y0073932D01*
X0035510Y0073565D01*
X0035877Y0073198D01*
X0036611Y0073198D01*
X0036978Y0073565D01*
X0035436Y0069802D02*
X0033968Y0068334D01*
X0034335Y0068701D02*
X0035436Y0067600D01*
X0033968Y0067600D02*
X0033968Y0069802D01*
X0033226Y0069435D02*
X0031758Y0067967D01*
X0032125Y0067600D01*
X0032859Y0067600D01*
X0033226Y0067967D01*
X0033226Y0069435D01*
X0032859Y0069802D01*
X0032125Y0069802D01*
X0031758Y0069435D01*
X0031758Y0067967D01*
X0031016Y0067600D02*
X0029548Y0067600D01*
X0031016Y0069068D01*
X0031016Y0069435D01*
X0030649Y0069802D01*
X0029915Y0069802D01*
X0029548Y0069435D01*
X0022663Y0064665D02*
X0020461Y0064665D01*
X0020461Y0066133D01*
X0021562Y0065399D02*
X0021562Y0064665D01*
X0021562Y0063923D02*
X0022296Y0063923D01*
X0022663Y0063556D01*
X0022663Y0062455D01*
X0023397Y0062455D02*
X0021195Y0062455D01*
X0021195Y0063556D01*
X0021562Y0063923D01*
X0020828Y0061713D02*
X0022296Y0060245D01*
X0022663Y0060612D01*
X0022663Y0061346D01*
X0022296Y0061713D01*
X0020828Y0061713D01*
X0020461Y0061346D01*
X0020461Y0060612D01*
X0020828Y0060245D01*
X0022296Y0060245D01*
X0022296Y0059503D02*
X0021929Y0059503D01*
X0021562Y0059136D01*
X0021562Y0058402D01*
X0021195Y0058035D01*
X0020828Y0058035D01*
X0020461Y0058402D01*
X0020461Y0059136D01*
X0020828Y0059503D01*
X0021195Y0059503D01*
X0021562Y0059136D01*
X0021562Y0058402D02*
X0021929Y0058035D01*
X0022296Y0058035D01*
X0022663Y0058402D01*
X0022663Y0059136D01*
X0022296Y0059503D01*
X0022296Y0057293D02*
X0021929Y0057293D01*
X0021562Y0056926D01*
X0021562Y0055825D01*
X0022296Y0055825D01*
X0022663Y0056192D01*
X0022663Y0056926D01*
X0022296Y0057293D01*
X0020828Y0056559D02*
X0021562Y0055825D01*
X0020828Y0056559D02*
X0020461Y0057293D01*
X0028097Y0049802D02*
X0028097Y0047600D01*
X0027363Y0047600D02*
X0028831Y0047600D01*
X0029573Y0047967D02*
X0029940Y0047600D01*
X0030674Y0047600D01*
X0031041Y0047967D01*
X0031041Y0049435D01*
X0029573Y0047967D01*
X0029573Y0049435D01*
X0029940Y0049802D01*
X0030674Y0049802D01*
X0031041Y0049435D01*
X0031783Y0049802D02*
X0031783Y0047600D01*
X0031783Y0048334D02*
X0033251Y0049802D01*
X0032150Y0048701D02*
X0033251Y0047600D01*
X0028097Y0049802D02*
X0027363Y0049068D01*
X0068363Y0036467D02*
X0068730Y0036467D01*
X0068730Y0036100D01*
X0068363Y0036100D01*
X0068363Y0036467D01*
X0069468Y0036467D02*
X0070936Y0037935D01*
X0070936Y0038302D01*
X0069468Y0038302D01*
X0069468Y0036467D02*
X0069468Y0036100D01*
X0071678Y0036467D02*
X0072045Y0036100D01*
X0072779Y0036100D01*
X0073146Y0036467D01*
X0073146Y0037201D01*
X0072779Y0037568D01*
X0072412Y0037568D01*
X0071678Y0037201D01*
X0071678Y0038302D01*
X0073146Y0038302D01*
X0090363Y0037068D02*
X0091097Y0037802D01*
X0091097Y0035600D01*
X0090363Y0035600D02*
X0091831Y0035600D01*
X0092573Y0035600D02*
X0092573Y0037802D01*
X0092940Y0036701D02*
X0094041Y0035600D01*
X0092573Y0036334D02*
X0094041Y0037802D01*
X0111863Y0056100D02*
X0113331Y0056100D01*
X0112597Y0056100D02*
X0112597Y0058302D01*
X0111863Y0057568D01*
X0114073Y0057935D02*
X0114073Y0056467D01*
X0115541Y0057935D01*
X0115541Y0056467D01*
X0115174Y0056100D01*
X0114440Y0056100D01*
X0114073Y0056467D01*
X0114073Y0057935D02*
X0114440Y0058302D01*
X0115174Y0058302D01*
X0115541Y0057935D01*
X0116283Y0058302D02*
X0116283Y0056100D01*
X0116283Y0056834D02*
X0117751Y0058302D01*
X0116650Y0057201D02*
X0117751Y0056100D01*
X0111880Y0070600D02*
X0110412Y0070600D01*
X0111880Y0072068D01*
X0110412Y0072068D01*
X0109670Y0071701D02*
X0108203Y0071701D01*
X0108203Y0070600D02*
X0108203Y0072802D01*
X0107461Y0072802D02*
X0106727Y0072068D01*
X0105993Y0072802D01*
X0105993Y0070600D01*
X0107461Y0070600D02*
X0107461Y0072802D01*
X0109670Y0072802D02*
X0109670Y0070600D01*
X0103041Y0070967D02*
X0102674Y0070600D01*
X0101940Y0070600D01*
X0101573Y0070967D01*
X0101573Y0071701D01*
X0102674Y0071701D01*
X0103041Y0071334D01*
X0103041Y0070967D01*
X0102307Y0072435D02*
X0101573Y0071701D01*
X0102307Y0072435D02*
X0103041Y0072802D01*
X0100097Y0072802D02*
X0100097Y0070600D01*
X0099363Y0070600D02*
X0100831Y0070600D01*
X0099363Y0072068D02*
X0100097Y0072802D01*
X0109233Y0082240D02*
X0108499Y0082974D01*
X0110701Y0082974D01*
X0110701Y0082240D02*
X0110701Y0083708D01*
X0110334Y0084450D02*
X0108866Y0085918D01*
X0110334Y0085918D01*
X0110701Y0085551D01*
X0110701Y0084817D01*
X0110334Y0084450D01*
X0108866Y0084450D01*
X0108499Y0084817D01*
X0108499Y0085551D01*
X0108866Y0085918D01*
X0108499Y0086660D02*
X0110701Y0086660D01*
X0109967Y0086660D02*
X0108499Y0088128D01*
X0109600Y0087027D02*
X0110701Y0088128D01*
X0032436Y0109100D02*
X0031335Y0110201D01*
X0030968Y0109834D02*
X0032436Y0111302D01*
X0030968Y0111302D02*
X0030968Y0109100D01*
X0030226Y0109467D02*
X0029859Y0109100D01*
X0029125Y0109100D01*
X0028758Y0109467D01*
X0030226Y0110935D01*
X0030226Y0109467D01*
X0030226Y0110935D02*
X0029859Y0111302D01*
X0029125Y0111302D01*
X0028758Y0110935D01*
X0028758Y0109467D01*
X0028016Y0109100D02*
X0026548Y0109100D01*
X0027282Y0109100D02*
X0027282Y0111302D01*
X0026548Y0110568D01*
X0023163Y0103673D02*
X0022062Y0102572D01*
X0022429Y0102205D02*
X0020961Y0103673D01*
X0020961Y0102205D02*
X0023163Y0102205D01*
X0022796Y0101463D02*
X0023163Y0101096D01*
X0023163Y0100362D01*
X0022796Y0099995D01*
X0021328Y0101463D01*
X0022796Y0101463D01*
X0021328Y0101463D02*
X0020961Y0101096D01*
X0020961Y0100362D01*
X0021328Y0099995D01*
X0022796Y0099995D01*
X0023163Y0099253D02*
X0023163Y0097785D01*
X0023163Y0098519D02*
X0020961Y0098519D01*
X0021695Y0097785D01*
X0018635Y0092400D02*
X0017167Y0090932D01*
X0017167Y0090565D01*
X0017534Y0090198D01*
X0018268Y0090198D01*
X0018635Y0090565D01*
X0016425Y0092033D02*
X0016058Y0092033D01*
X0016058Y0092400D01*
X0016425Y0092400D01*
X0016425Y0092033D01*
X0017167Y0092400D02*
X0018635Y0092400D01*
X0015320Y0091299D02*
X0013853Y0091299D01*
X0013111Y0090932D02*
X0013111Y0090565D01*
X0012744Y0090198D01*
X0012010Y0090198D01*
X0011643Y0090565D01*
X0011643Y0092033D01*
X0012010Y0092400D01*
X0012744Y0092400D01*
X0013111Y0092033D01*
X0012744Y0091299D02*
X0011643Y0091299D01*
X0010901Y0091666D02*
X0009433Y0090198D01*
X0010901Y0090198D02*
X0010901Y0092400D01*
X0010534Y0091299D02*
X0009433Y0092400D01*
X0012744Y0091299D02*
X0013111Y0090932D01*
X0014219Y0090198D02*
X0015320Y0091299D01*
X0014219Y0092400D02*
X0014219Y0090198D01*
X0010796Y0103233D02*
X0011163Y0103600D01*
X0011163Y0104334D01*
X0010796Y0104701D01*
X0010429Y0104701D01*
X0010062Y0104334D01*
X0010062Y0103967D01*
X0010062Y0104334D02*
X0009695Y0104701D01*
X0009328Y0104701D01*
X0008961Y0104334D01*
X0008961Y0103600D01*
X0009328Y0103233D01*
X0010796Y0105443D02*
X0010796Y0105810D01*
X0011163Y0105810D01*
X0011163Y0105443D01*
X0010796Y0105443D01*
X0010796Y0106548D02*
X0011163Y0106914D01*
X0011163Y0107648D01*
X0010796Y0108015D01*
X0010429Y0108015D01*
X0010062Y0107648D01*
X0010062Y0107281D01*
X0010062Y0107648D02*
X0009695Y0108015D01*
X0009328Y0108015D01*
X0008961Y0107648D01*
X0008961Y0106914D01*
X0009328Y0106548D01*
X0008961Y0108757D02*
X0011163Y0108757D01*
X0010429Y0108757D02*
X0008961Y0110225D01*
X0010062Y0109124D02*
X0011163Y0110225D01*
D17*
X0051998Y0067304D02*
X0053532Y0065769D01*
X0053532Y0062700D01*
X0055067Y0063467D02*
X0055834Y0062700D01*
X0057369Y0062700D01*
X0058136Y0063467D01*
X0058136Y0064235D01*
X0057369Y0065002D01*
X0056602Y0065002D01*
X0057369Y0065002D02*
X0058136Y0065769D01*
X0058136Y0066537D01*
X0057369Y0067304D01*
X0055834Y0067304D01*
X0055067Y0066537D01*
X0053532Y0065002D02*
X0050463Y0065002D01*
X0050463Y0065769D02*
X0051998Y0067304D01*
X0050463Y0065769D02*
X0050463Y0062700D01*
X0059671Y0063467D02*
X0060438Y0062700D01*
X0061973Y0062700D01*
X0062740Y0063467D01*
X0062740Y0066537D01*
X0061973Y0067304D01*
X0060438Y0067304D01*
X0059671Y0066537D01*
X0059671Y0065769D01*
X0060438Y0065002D01*
X0062740Y0065002D01*
X0064275Y0065002D02*
X0064275Y0063467D01*
X0065042Y0062700D01*
X0066577Y0062700D01*
X0067344Y0063467D01*
X0067344Y0064235D01*
X0066577Y0065002D01*
X0064275Y0065002D01*
X0065809Y0066537D01*
X0067344Y0067304D01*
X0068879Y0067304D02*
X0071948Y0067304D01*
X0071948Y0066537D01*
X0068879Y0063467D01*
X0068879Y0062700D01*
X0073483Y0063467D02*
X0074250Y0062700D01*
X0075785Y0062700D01*
X0076552Y0063467D01*
X0076552Y0064235D01*
X0075785Y0065002D01*
X0074250Y0065002D01*
X0073483Y0065769D01*
X0073483Y0066537D01*
X0074250Y0067304D01*
X0075785Y0067304D01*
X0076552Y0066537D01*
X0078087Y0067304D02*
X0078087Y0062700D01*
X0081156Y0062700D01*
X0082690Y0062700D02*
X0084992Y0062700D01*
X0085760Y0063467D01*
X0085760Y0064235D01*
X0084992Y0065002D01*
X0082690Y0065002D01*
X0082690Y0067304D02*
X0084992Y0067304D01*
X0085760Y0066537D01*
X0085760Y0065769D01*
X0084992Y0065002D01*
X0082690Y0062700D02*
X0082690Y0067304D01*
X0244968Y0091898D02*
X0244968Y0110795D01*
X0254023Y0110795D01*
X0261503Y0110795D02*
X0270558Y0110795D01*
X0270558Y0091898D01*
X0263865Y0085205D01*
X0261503Y0085205D01*
X0254023Y0085205D02*
X0251661Y0085205D01*
X0244968Y0091898D01*
D18*
X0196263Y0094000D03*
X0189763Y0094000D03*
X0179263Y0079500D03*
X0172763Y0079500D03*
X0166263Y0079500D03*
X0122263Y0108500D03*
X0109401Y0096020D03*
X0033763Y0082000D03*
X0032763Y0061000D03*
X0014763Y0107000D03*
D19*
X0029263Y0106500D03*
X0029263Y0100500D03*
X0029263Y0094500D03*
X0013763Y0095000D03*
X0083263Y0089000D03*
X0095763Y0090000D03*
X0099763Y0098000D03*
X0114763Y0053000D03*
X0091263Y0032500D03*
X0029263Y0044500D03*
X0215263Y0093000D03*
D20*
X0176263Y0067620D02*
X0176263Y0067380D01*
X0026883Y0082000D02*
X0026643Y0082000D01*
X0025883Y0061000D02*
X0025643Y0061000D01*
D21*
X0102704Y0057201D02*
X0102704Y0069799D01*
X0107822Y0069799D01*
X0107822Y0057201D01*
X0102704Y0057201D01*
D22*
X0261577Y0086221D02*
X0261467Y0086563D01*
X0261745Y0086657D01*
X0262021Y0086757D01*
X0262294Y0086865D01*
X0262565Y0086979D01*
X0262833Y0087099D01*
X0263097Y0087226D01*
X0263359Y0087360D01*
X0263617Y0087499D01*
X0263871Y0087646D01*
X0264122Y0087798D01*
X0264370Y0087956D01*
X0264613Y0088120D01*
X0264852Y0088291D01*
X0265087Y0088467D01*
X0265318Y0088648D01*
X0265544Y0088835D01*
X0265765Y0089028D01*
X0265982Y0089226D01*
X0266194Y0089430D01*
X0266400Y0089638D01*
X0266602Y0089851D01*
X0266798Y0090070D01*
X0266989Y0090293D01*
X0267175Y0090520D01*
X0267355Y0090752D01*
X0267529Y0090989D01*
X0267697Y0091229D01*
X0267859Y0091474D01*
X0268016Y0091722D01*
X0268166Y0091974D01*
X0268310Y0092230D01*
X0268448Y0092489D01*
X0268579Y0092752D01*
X0268704Y0093018D01*
X0268822Y0093286D01*
X0268934Y0093558D01*
X0269039Y0093832D01*
X0269138Y0094108D01*
X0269229Y0094387D01*
X0269314Y0094668D01*
X0269392Y0094951D01*
X0269463Y0095236D01*
X0269527Y0095523D01*
X0269584Y0095811D01*
X0269634Y0096100D01*
X0269677Y0096390D01*
X0269712Y0096682D01*
X0269741Y0096974D01*
X0269763Y0097267D01*
X0269777Y0097560D01*
X0269784Y0097853D01*
X0269784Y0098147D01*
X0269777Y0098440D01*
X0269763Y0098733D01*
X0269741Y0099026D01*
X0269712Y0099318D01*
X0269677Y0099610D01*
X0269634Y0099900D01*
X0269584Y0100189D01*
X0269527Y0100477D01*
X0269463Y0100764D01*
X0269392Y0101049D01*
X0269314Y0101332D01*
X0269229Y0101613D01*
X0269138Y0101892D01*
X0269039Y0102168D01*
X0268934Y0102442D01*
X0268822Y0102714D01*
X0268704Y0102982D01*
X0268579Y0103248D01*
X0268448Y0103511D01*
X0268310Y0103770D01*
X0268166Y0104026D01*
X0268016Y0104278D01*
X0267859Y0104526D01*
X0267697Y0104771D01*
X0267529Y0105011D01*
X0267355Y0105248D01*
X0267175Y0105480D01*
X0266989Y0105707D01*
X0266798Y0105930D01*
X0266602Y0106149D01*
X0266400Y0106362D01*
X0266194Y0106570D01*
X0265982Y0106774D01*
X0265765Y0106972D01*
X0265544Y0107165D01*
X0265318Y0107352D01*
X0265087Y0107533D01*
X0264852Y0107709D01*
X0264613Y0107880D01*
X0264370Y0108044D01*
X0264122Y0108202D01*
X0263871Y0108354D01*
X0263617Y0108501D01*
X0263359Y0108640D01*
X0263097Y0108774D01*
X0262833Y0108901D01*
X0262565Y0109021D01*
X0262294Y0109135D01*
X0262021Y0109243D01*
X0261745Y0109343D01*
X0261467Y0109437D01*
X0261577Y0109779D01*
X0261578Y0109780D01*
X0261864Y0109683D01*
X0262148Y0109580D01*
X0262429Y0109469D01*
X0262708Y0109352D01*
X0262984Y0109227D01*
X0263256Y0109097D01*
X0263526Y0108959D01*
X0263792Y0108815D01*
X0264054Y0108665D01*
X0264312Y0108508D01*
X0264567Y0108345D01*
X0264818Y0108176D01*
X0265064Y0108000D01*
X0265306Y0107819D01*
X0265544Y0107632D01*
X0265776Y0107439D01*
X0266005Y0107241D01*
X0266228Y0107037D01*
X0266446Y0106827D01*
X0266659Y0106613D01*
X0266866Y0106393D01*
X0267069Y0106168D01*
X0267265Y0105938D01*
X0267456Y0105704D01*
X0267642Y0105465D01*
X0267821Y0105222D01*
X0267994Y0104974D01*
X0268161Y0104722D01*
X0268323Y0104466D01*
X0268477Y0104206D01*
X0268626Y0103943D01*
X0268767Y0103676D01*
X0268903Y0103405D01*
X0269031Y0103132D01*
X0269153Y0102855D01*
X0269269Y0102576D01*
X0269377Y0102293D01*
X0269478Y0102008D01*
X0269573Y0101721D01*
X0269660Y0101432D01*
X0269740Y0101140D01*
X0269813Y0100847D01*
X0269879Y0100552D01*
X0269938Y0100255D01*
X0269989Y0099957D01*
X0270033Y0099658D01*
X0270070Y0099358D01*
X0270100Y0099057D01*
X0270122Y0098755D01*
X0270137Y0098453D01*
X0270144Y0098151D01*
X0270144Y0097849D01*
X0270137Y0097547D01*
X0270122Y0097245D01*
X0270100Y0096943D01*
X0270070Y0096642D01*
X0270033Y0096342D01*
X0269989Y0096043D01*
X0269938Y0095745D01*
X0269879Y0095448D01*
X0269813Y0095153D01*
X0269740Y0094860D01*
X0269660Y0094568D01*
X0269573Y0094279D01*
X0269478Y0093992D01*
X0269377Y0093707D01*
X0269269Y0093424D01*
X0269153Y0093145D01*
X0269031Y0092868D01*
X0268903Y0092595D01*
X0268767Y0092324D01*
X0268626Y0092057D01*
X0268477Y0091794D01*
X0268323Y0091534D01*
X0268161Y0091278D01*
X0267994Y0091026D01*
X0267821Y0090778D01*
X0267642Y0090535D01*
X0267456Y0090296D01*
X0267265Y0090062D01*
X0267069Y0089832D01*
X0266866Y0089607D01*
X0266659Y0089387D01*
X0266446Y0089173D01*
X0266228Y0088963D01*
X0266005Y0088759D01*
X0265776Y0088561D01*
X0265544Y0088368D01*
X0265306Y0088181D01*
X0265064Y0088000D01*
X0264818Y0087824D01*
X0264567Y0087655D01*
X0264312Y0087492D01*
X0264054Y0087335D01*
X0263792Y0087185D01*
X0263526Y0087041D01*
X0263256Y0086903D01*
X0262984Y0086773D01*
X0262708Y0086648D01*
X0262429Y0086531D01*
X0262148Y0086420D01*
X0261864Y0086317D01*
X0261578Y0086220D01*
X0261566Y0086255D01*
X0261852Y0086352D01*
X0262135Y0086455D01*
X0262416Y0086565D01*
X0262693Y0086682D01*
X0262968Y0086806D01*
X0263240Y0086937D01*
X0263509Y0087074D01*
X0263774Y0087217D01*
X0264035Y0087367D01*
X0264293Y0087523D01*
X0264547Y0087686D01*
X0264797Y0087855D01*
X0265042Y0088029D01*
X0265284Y0088210D01*
X0265520Y0088397D01*
X0265753Y0088589D01*
X0265980Y0088787D01*
X0266202Y0088990D01*
X0266420Y0089199D01*
X0266632Y0089413D01*
X0266839Y0089632D01*
X0267041Y0089856D01*
X0267237Y0090085D01*
X0267427Y0090319D01*
X0267612Y0090557D01*
X0267791Y0090800D01*
X0267964Y0091047D01*
X0268130Y0091298D01*
X0268291Y0091553D01*
X0268445Y0091812D01*
X0268593Y0092075D01*
X0268735Y0092341D01*
X0268869Y0092611D01*
X0268998Y0092883D01*
X0269119Y0093159D01*
X0269234Y0093438D01*
X0269342Y0093720D01*
X0269443Y0094004D01*
X0269537Y0094290D01*
X0269624Y0094579D01*
X0269704Y0094869D01*
X0269777Y0095162D01*
X0269843Y0095456D01*
X0269902Y0095752D01*
X0269953Y0096049D01*
X0269997Y0096347D01*
X0270034Y0096646D01*
X0270063Y0096946D01*
X0270085Y0097247D01*
X0270100Y0097548D01*
X0270107Y0097849D01*
X0270107Y0098151D01*
X0270100Y0098452D01*
X0270085Y0098753D01*
X0270063Y0099054D01*
X0270034Y0099354D01*
X0269997Y0099653D01*
X0269953Y0099951D01*
X0269902Y0100248D01*
X0269843Y0100544D01*
X0269777Y0100838D01*
X0269704Y0101131D01*
X0269624Y0101421D01*
X0269537Y0101710D01*
X0269443Y0101996D01*
X0269342Y0102280D01*
X0269234Y0102562D01*
X0269119Y0102841D01*
X0268998Y0103117D01*
X0268869Y0103389D01*
X0268735Y0103659D01*
X0268593Y0103925D01*
X0268445Y0104188D01*
X0268291Y0104447D01*
X0268130Y0104702D01*
X0267964Y0104953D01*
X0267791Y0105200D01*
X0267612Y0105443D01*
X0267427Y0105681D01*
X0267237Y0105915D01*
X0267041Y0106144D01*
X0266839Y0106368D01*
X0266632Y0106587D01*
X0266420Y0106801D01*
X0266202Y0107010D01*
X0265980Y0107213D01*
X0265753Y0107411D01*
X0265520Y0107603D01*
X0265284Y0107790D01*
X0265042Y0107971D01*
X0264797Y0108145D01*
X0264547Y0108314D01*
X0264293Y0108477D01*
X0264035Y0108633D01*
X0263774Y0108783D01*
X0263509Y0108926D01*
X0263240Y0109063D01*
X0262968Y0109194D01*
X0262693Y0109318D01*
X0262416Y0109435D01*
X0262135Y0109545D01*
X0261852Y0109648D01*
X0261566Y0109745D01*
X0261555Y0109709D01*
X0261840Y0109613D01*
X0262122Y0109510D01*
X0262402Y0109400D01*
X0262679Y0109284D01*
X0262953Y0109160D01*
X0263224Y0109030D01*
X0263491Y0108894D01*
X0263756Y0108751D01*
X0264016Y0108601D01*
X0264273Y0108445D01*
X0264527Y0108283D01*
X0264776Y0108115D01*
X0265020Y0107941D01*
X0265261Y0107760D01*
X0265497Y0107574D01*
X0265729Y0107383D01*
X0265955Y0107185D01*
X0266177Y0106983D01*
X0266394Y0106775D01*
X0266606Y0106561D01*
X0266812Y0106343D01*
X0267013Y0106119D01*
X0267209Y0105891D01*
X0267398Y0105658D01*
X0267583Y0105420D01*
X0267761Y0105178D01*
X0267933Y0104932D01*
X0268099Y0104682D01*
X0268259Y0104427D01*
X0268413Y0104169D01*
X0268561Y0103907D01*
X0268702Y0103642D01*
X0268836Y0103373D01*
X0268964Y0103101D01*
X0269085Y0102826D01*
X0269200Y0102548D01*
X0269307Y0102268D01*
X0269408Y0101984D01*
X0269502Y0101699D01*
X0269589Y0101411D01*
X0269669Y0101121D01*
X0269741Y0100830D01*
X0269807Y0100536D01*
X0269865Y0100242D01*
X0269916Y0099945D01*
X0269960Y0099648D01*
X0269997Y0099350D01*
X0270026Y0099051D01*
X0270048Y0098751D01*
X0270063Y0098451D01*
X0270070Y0098150D01*
X0270070Y0097850D01*
X0270063Y0097549D01*
X0270048Y0097249D01*
X0270026Y0096949D01*
X0269997Y0096650D01*
X0269960Y0096352D01*
X0269916Y0096055D01*
X0269865Y0095758D01*
X0269807Y0095464D01*
X0269741Y0095170D01*
X0269669Y0094879D01*
X0269589Y0094589D01*
X0269502Y0094301D01*
X0269408Y0094016D01*
X0269307Y0093732D01*
X0269200Y0093452D01*
X0269085Y0093174D01*
X0268964Y0092899D01*
X0268836Y0092627D01*
X0268702Y0092358D01*
X0268561Y0092093D01*
X0268413Y0091831D01*
X0268259Y0091573D01*
X0268099Y0091318D01*
X0267933Y0091068D01*
X0267761Y0090822D01*
X0267583Y0090580D01*
X0267398Y0090342D01*
X0267209Y0090109D01*
X0267013Y0089881D01*
X0266812Y0089657D01*
X0266606Y0089439D01*
X0266394Y0089225D01*
X0266177Y0089017D01*
X0265955Y0088815D01*
X0265729Y0088617D01*
X0265497Y0088426D01*
X0265261Y0088240D01*
X0265020Y0088059D01*
X0264776Y0087885D01*
X0264527Y0087717D01*
X0264273Y0087555D01*
X0264016Y0087399D01*
X0263756Y0087249D01*
X0263491Y0087106D01*
X0263224Y0086970D01*
X0262953Y0086840D01*
X0262679Y0086716D01*
X0262402Y0086600D01*
X0262122Y0086490D01*
X0261840Y0086387D01*
X0261555Y0086291D01*
X0261543Y0086326D01*
X0261827Y0086422D01*
X0262109Y0086524D01*
X0262388Y0086634D01*
X0262664Y0086750D01*
X0262937Y0086873D01*
X0263207Y0087003D01*
X0263474Y0087139D01*
X0263738Y0087282D01*
X0263998Y0087431D01*
X0264254Y0087586D01*
X0264506Y0087748D01*
X0264755Y0087916D01*
X0264999Y0088089D01*
X0265239Y0088269D01*
X0265474Y0088454D01*
X0265705Y0088645D01*
X0265931Y0088842D01*
X0266152Y0089044D01*
X0266368Y0089252D01*
X0266579Y0089465D01*
X0266785Y0089682D01*
X0266985Y0089905D01*
X0267180Y0090133D01*
X0267369Y0090365D01*
X0267553Y0090602D01*
X0267731Y0090843D01*
X0267903Y0091089D01*
X0268068Y0091338D01*
X0268228Y0091592D01*
X0268381Y0091849D01*
X0268528Y0092110D01*
X0268669Y0092375D01*
X0268803Y0092643D01*
X0268930Y0092914D01*
X0269051Y0093188D01*
X0269165Y0093465D01*
X0269273Y0093745D01*
X0269373Y0094028D01*
X0269467Y0094312D01*
X0269553Y0094599D01*
X0269633Y0094888D01*
X0269705Y0095179D01*
X0269771Y0095471D01*
X0269829Y0095765D01*
X0269880Y0096060D01*
X0269923Y0096357D01*
X0269960Y0096654D01*
X0269989Y0096952D01*
X0270011Y0097251D01*
X0270026Y0097551D01*
X0270033Y0097850D01*
X0270033Y0098150D01*
X0270026Y0098449D01*
X0270011Y0098749D01*
X0269989Y0099048D01*
X0269960Y0099346D01*
X0269923Y0099643D01*
X0269880Y0099940D01*
X0269829Y0100235D01*
X0269771Y0100529D01*
X0269705Y0100821D01*
X0269633Y0101112D01*
X0269553Y0101401D01*
X0269467Y0101688D01*
X0269373Y0101972D01*
X0269273Y0102255D01*
X0269165Y0102535D01*
X0269051Y0102812D01*
X0268930Y0103086D01*
X0268803Y0103357D01*
X0268669Y0103625D01*
X0268528Y0103890D01*
X0268381Y0104151D01*
X0268228Y0104408D01*
X0268068Y0104662D01*
X0267903Y0104911D01*
X0267731Y0105157D01*
X0267553Y0105398D01*
X0267369Y0105635D01*
X0267180Y0105867D01*
X0266985Y0106095D01*
X0266785Y0106318D01*
X0266579Y0106535D01*
X0266368Y0106748D01*
X0266152Y0106956D01*
X0265931Y0107158D01*
X0265705Y0107355D01*
X0265474Y0107546D01*
X0265239Y0107731D01*
X0264999Y0107911D01*
X0264755Y0108084D01*
X0264506Y0108252D01*
X0264254Y0108414D01*
X0263998Y0108569D01*
X0263738Y0108718D01*
X0263474Y0108861D01*
X0263207Y0108997D01*
X0262937Y0109127D01*
X0262664Y0109250D01*
X0262388Y0109366D01*
X0262109Y0109476D01*
X0261827Y0109578D01*
X0261543Y0109674D01*
X0261532Y0109639D01*
X0261815Y0109543D01*
X0262096Y0109441D01*
X0262374Y0109332D01*
X0262649Y0109216D01*
X0262922Y0109093D01*
X0263191Y0108964D01*
X0263457Y0108828D01*
X0263720Y0108686D01*
X0263979Y0108537D01*
X0264234Y0108382D01*
X0264486Y0108221D01*
X0264733Y0108054D01*
X0264977Y0107881D01*
X0265216Y0107702D01*
X0265451Y0107517D01*
X0265681Y0107326D01*
X0265906Y0107130D01*
X0266127Y0106929D01*
X0266342Y0106722D01*
X0266553Y0106510D01*
X0266758Y0106293D01*
X0266958Y0106070D01*
X0267152Y0105844D01*
X0267341Y0105612D01*
X0267524Y0105376D01*
X0267701Y0105135D01*
X0267872Y0104890D01*
X0268037Y0104642D01*
X0268196Y0104389D01*
X0268349Y0104132D01*
X0268496Y0103872D01*
X0268636Y0103608D01*
X0268770Y0103341D01*
X0268897Y0103070D01*
X0269017Y0102797D01*
X0269131Y0102521D01*
X0269238Y0102242D01*
X0269338Y0101960D01*
X0269431Y0101677D01*
X0269518Y0101391D01*
X0269597Y0101103D01*
X0269669Y0100813D01*
X0269734Y0100521D01*
X0269792Y0100228D01*
X0269843Y0099934D01*
X0269887Y0099638D01*
X0269923Y0099342D01*
X0269952Y0099044D01*
X0269974Y0098746D01*
X0269989Y0098448D01*
X0269996Y0098149D01*
X0269996Y0097851D01*
X0269989Y0097552D01*
X0269974Y0097254D01*
X0269952Y0096956D01*
X0269923Y0096658D01*
X0269887Y0096362D01*
X0269843Y0096066D01*
X0269792Y0095772D01*
X0269734Y0095479D01*
X0269669Y0095187D01*
X0269597Y0094897D01*
X0269518Y0094609D01*
X0269431Y0094323D01*
X0269338Y0094040D01*
X0269238Y0093758D01*
X0269131Y0093479D01*
X0269017Y0093203D01*
X0268897Y0092930D01*
X0268770Y0092659D01*
X0268636Y0092392D01*
X0268496Y0092128D01*
X0268349Y0091868D01*
X0268196Y0091611D01*
X0268037Y0091358D01*
X0267872Y0091110D01*
X0267701Y0090865D01*
X0267524Y0090624D01*
X0267341Y0090388D01*
X0267152Y0090156D01*
X0266958Y0089930D01*
X0266758Y0089707D01*
X0266553Y0089490D01*
X0266342Y0089278D01*
X0266127Y0089071D01*
X0265906Y0088870D01*
X0265681Y0088674D01*
X0265451Y0088483D01*
X0265216Y0088298D01*
X0264977Y0088119D01*
X0264733Y0087946D01*
X0264486Y0087779D01*
X0264234Y0087618D01*
X0263979Y0087463D01*
X0263720Y0087314D01*
X0263457Y0087172D01*
X0263191Y0087036D01*
X0262922Y0086907D01*
X0262649Y0086784D01*
X0262374Y0086668D01*
X0262096Y0086559D01*
X0261815Y0086457D01*
X0261532Y0086361D01*
X0261521Y0086396D01*
X0261803Y0086492D01*
X0262083Y0086594D01*
X0262360Y0086702D01*
X0262635Y0086818D01*
X0262906Y0086940D01*
X0263175Y0087069D01*
X0263440Y0087205D01*
X0263702Y0087346D01*
X0263960Y0087495D01*
X0264215Y0087649D01*
X0264466Y0087810D01*
X0264712Y0087976D01*
X0264955Y0088149D01*
X0265194Y0088328D01*
X0265427Y0088512D01*
X0265657Y0088702D01*
X0265882Y0088897D01*
X0266101Y0089098D01*
X0266316Y0089305D01*
X0266526Y0089516D01*
X0266731Y0089733D01*
X0266930Y0089954D01*
X0267123Y0090180D01*
X0267312Y0090411D01*
X0267494Y0090647D01*
X0267671Y0090886D01*
X0267841Y0091130D01*
X0268006Y0091379D01*
X0268165Y0091631D01*
X0268317Y0091886D01*
X0268463Y0092146D01*
X0268603Y0092409D01*
X0268736Y0092675D01*
X0268863Y0092945D01*
X0268983Y0093217D01*
X0269097Y0093493D01*
X0269203Y0093771D01*
X0269303Y0094052D01*
X0269396Y0094334D01*
X0269482Y0094620D01*
X0269561Y0094907D01*
X0269633Y0095196D01*
X0269698Y0095486D01*
X0269756Y0095779D01*
X0269807Y0096072D01*
X0269850Y0096367D01*
X0269886Y0096662D01*
X0269915Y0096959D01*
X0269937Y0097256D01*
X0269952Y0097553D01*
X0269959Y0097851D01*
X0269959Y0098149D01*
X0269952Y0098447D01*
X0269937Y0098744D01*
X0269915Y0099041D01*
X0269886Y0099338D01*
X0269850Y0099633D01*
X0269807Y0099928D01*
X0269756Y0100221D01*
X0269698Y0100514D01*
X0269633Y0100804D01*
X0269561Y0101093D01*
X0269482Y0101380D01*
X0269396Y0101666D01*
X0269303Y0101948D01*
X0269203Y0102229D01*
X0269097Y0102507D01*
X0268983Y0102783D01*
X0268863Y0103055D01*
X0268736Y0103325D01*
X0268603Y0103591D01*
X0268463Y0103854D01*
X0268317Y0104114D01*
X0268165Y0104369D01*
X0268006Y0104621D01*
X0267841Y0104870D01*
X0267671Y0105114D01*
X0267494Y0105353D01*
X0267312Y0105589D01*
X0267123Y0105820D01*
X0266930Y0106046D01*
X0266731Y0106267D01*
X0266526Y0106484D01*
X0266316Y0106695D01*
X0266101Y0106902D01*
X0265882Y0107103D01*
X0265657Y0107298D01*
X0265427Y0107488D01*
X0265194Y0107672D01*
X0264955Y0107851D01*
X0264712Y0108024D01*
X0264466Y0108190D01*
X0264215Y0108351D01*
X0263960Y0108505D01*
X0263702Y0108654D01*
X0263440Y0108795D01*
X0263175Y0108931D01*
X0262906Y0109060D01*
X0262635Y0109182D01*
X0262360Y0109298D01*
X0262083Y0109406D01*
X0261803Y0109508D01*
X0261521Y0109604D01*
X0261509Y0109568D01*
X0261791Y0109474D01*
X0262070Y0109372D01*
X0262346Y0109263D01*
X0262620Y0109148D01*
X0262891Y0109026D01*
X0263158Y0108898D01*
X0263423Y0108763D01*
X0263684Y0108621D01*
X0263941Y0108473D01*
X0264195Y0108319D01*
X0264445Y0108159D01*
X0264691Y0107993D01*
X0264933Y0107821D01*
X0265171Y0107643D01*
X0265404Y0107459D01*
X0265633Y0107270D01*
X0265857Y0107075D01*
X0266076Y0106875D01*
X0266290Y0106669D01*
X0266499Y0106458D01*
X0266703Y0106242D01*
X0266902Y0106022D01*
X0267095Y0105796D01*
X0267283Y0105566D01*
X0267465Y0105331D01*
X0267641Y0105092D01*
X0267811Y0104849D01*
X0267975Y0104601D01*
X0268133Y0104350D01*
X0268285Y0104095D01*
X0268431Y0103836D01*
X0268570Y0103574D01*
X0268703Y0103308D01*
X0268829Y0103040D01*
X0268949Y0102768D01*
X0269062Y0102493D01*
X0269169Y0102216D01*
X0269268Y0101936D01*
X0269361Y0101654D01*
X0269447Y0101370D01*
X0269525Y0101084D01*
X0269597Y0100796D01*
X0269662Y0100506D01*
X0269720Y0100215D01*
X0269770Y0099922D01*
X0269813Y0099628D01*
X0269850Y0099334D01*
X0269879Y0099038D01*
X0269900Y0098742D01*
X0269915Y0098445D01*
X0269922Y0098148D01*
X0269922Y0097852D01*
X0269915Y0097555D01*
X0269900Y0097258D01*
X0269879Y0096962D01*
X0269850Y0096666D01*
X0269813Y0096372D01*
X0269770Y0096078D01*
X0269720Y0095785D01*
X0269662Y0095494D01*
X0269597Y0095204D01*
X0269525Y0094916D01*
X0269447Y0094630D01*
X0269361Y0094346D01*
X0269268Y0094064D01*
X0269169Y0093784D01*
X0269062Y0093507D01*
X0268949Y0093232D01*
X0268829Y0092960D01*
X0268703Y0092692D01*
X0268570Y0092426D01*
X0268431Y0092164D01*
X0268285Y0091905D01*
X0268133Y0091650D01*
X0267975Y0091399D01*
X0267811Y0091151D01*
X0267641Y0090908D01*
X0267465Y0090669D01*
X0267283Y0090434D01*
X0267095Y0090204D01*
X0266902Y0089978D01*
X0266703Y0089758D01*
X0266499Y0089542D01*
X0266290Y0089331D01*
X0266076Y0089125D01*
X0265857Y0088925D01*
X0265633Y0088730D01*
X0265404Y0088541D01*
X0265171Y0088357D01*
X0264933Y0088179D01*
X0264691Y0088007D01*
X0264445Y0087841D01*
X0264195Y0087681D01*
X0263941Y0087527D01*
X0263684Y0087379D01*
X0263423Y0087237D01*
X0263158Y0087102D01*
X0262891Y0086974D01*
X0262620Y0086852D01*
X0262346Y0086737D01*
X0262070Y0086628D01*
X0261791Y0086526D01*
X0261509Y0086432D01*
X0261498Y0086467D01*
X0261779Y0086561D01*
X0262057Y0086663D01*
X0262332Y0086771D01*
X0262605Y0086886D01*
X0262875Y0087008D01*
X0263142Y0087136D01*
X0263406Y0087270D01*
X0263666Y0087411D01*
X0263923Y0087558D01*
X0264176Y0087712D01*
X0264425Y0087872D01*
X0264670Y0088037D01*
X0264912Y0088209D01*
X0265148Y0088386D01*
X0265381Y0088570D01*
X0265609Y0088758D01*
X0265832Y0088953D01*
X0266051Y0089152D01*
X0266264Y0089357D01*
X0266473Y0089568D01*
X0266676Y0089783D01*
X0266874Y0090003D01*
X0267067Y0090228D01*
X0267254Y0090457D01*
X0267435Y0090691D01*
X0267611Y0090930D01*
X0267780Y0091172D01*
X0267944Y0091419D01*
X0268102Y0091669D01*
X0268253Y0091924D01*
X0268398Y0092182D01*
X0268537Y0092443D01*
X0268670Y0092708D01*
X0268796Y0092976D01*
X0268915Y0093246D01*
X0269028Y0093520D01*
X0269134Y0093797D01*
X0269233Y0094076D01*
X0269326Y0094357D01*
X0269411Y0094640D01*
X0269490Y0094926D01*
X0269561Y0095213D01*
X0269626Y0095502D01*
X0269683Y0095792D01*
X0269734Y0096084D01*
X0269777Y0096377D01*
X0269813Y0096671D01*
X0269842Y0096965D01*
X0269863Y0097260D01*
X0269878Y0097556D01*
X0269885Y0097852D01*
X0269885Y0098148D01*
X0269878Y0098444D01*
X0269863Y0098740D01*
X0269842Y0099035D01*
X0269813Y0099329D01*
X0269777Y0099623D01*
X0269734Y0099916D01*
X0269683Y0100208D01*
X0269626Y0100498D01*
X0269561Y0100787D01*
X0269490Y0101074D01*
X0269411Y0101360D01*
X0269326Y0101643D01*
X0269233Y0101924D01*
X0269134Y0102203D01*
X0269028Y0102480D01*
X0268915Y0102754D01*
X0268796Y0103024D01*
X0268670Y0103292D01*
X0268537Y0103557D01*
X0268398Y0103818D01*
X0268253Y0104076D01*
X0268102Y0104331D01*
X0267944Y0104581D01*
X0267780Y0104828D01*
X0267611Y0105070D01*
X0267435Y0105309D01*
X0267254Y0105543D01*
X0267067Y0105772D01*
X0266874Y0105997D01*
X0266676Y0106217D01*
X0266473Y0106432D01*
X0266264Y0106643D01*
X0266051Y0106848D01*
X0265832Y0107047D01*
X0265609Y0107242D01*
X0265381Y0107430D01*
X0265148Y0107614D01*
X0264912Y0107791D01*
X0264670Y0107963D01*
X0264425Y0108128D01*
X0264176Y0108288D01*
X0263923Y0108442D01*
X0263666Y0108589D01*
X0263406Y0108730D01*
X0263142Y0108864D01*
X0262875Y0108992D01*
X0262605Y0109114D01*
X0262332Y0109229D01*
X0262057Y0109337D01*
X0261779Y0109439D01*
X0261498Y0109533D01*
X0261487Y0109498D01*
X0261766Y0109404D01*
X0262044Y0109303D01*
X0262318Y0109195D01*
X0262590Y0109080D01*
X0262859Y0108959D01*
X0263125Y0108831D01*
X0263388Y0108697D01*
X0263648Y0108556D01*
X0263904Y0108410D01*
X0264156Y0108257D01*
X0264405Y0108097D01*
X0264649Y0107932D01*
X0264890Y0107761D01*
X0265126Y0107584D01*
X0265358Y0107402D01*
X0265585Y0107213D01*
X0265808Y0107020D01*
X0266026Y0106821D01*
X0266238Y0106616D01*
X0266446Y0106407D01*
X0266649Y0106192D01*
X0266846Y0105973D01*
X0267038Y0105749D01*
X0267225Y0105520D01*
X0267406Y0105286D01*
X0267581Y0105049D01*
X0267750Y0104807D01*
X0267913Y0104561D01*
X0268070Y0104311D01*
X0268221Y0104058D01*
X0268366Y0103801D01*
X0268504Y0103540D01*
X0268637Y0103276D01*
X0268762Y0103009D01*
X0268881Y0102739D01*
X0268994Y0102466D01*
X0269099Y0102191D01*
X0269198Y0101913D01*
X0269290Y0101632D01*
X0269376Y0101350D01*
X0269454Y0101065D01*
X0269525Y0100779D01*
X0269590Y0100491D01*
X0269647Y0100201D01*
X0269697Y0099910D01*
X0269740Y0099618D01*
X0269776Y0099325D01*
X0269805Y0099032D01*
X0269826Y0098737D01*
X0269841Y0098443D01*
X0269848Y0098148D01*
X0269848Y0097852D01*
X0269841Y0097557D01*
X0269826Y0097263D01*
X0269805Y0096968D01*
X0269776Y0096675D01*
X0269740Y0096382D01*
X0269697Y0096090D01*
X0269647Y0095799D01*
X0269590Y0095509D01*
X0269525Y0095221D01*
X0269454Y0094935D01*
X0269376Y0094650D01*
X0269290Y0094368D01*
X0269198Y0094087D01*
X0269099Y0093809D01*
X0268994Y0093534D01*
X0268881Y0093261D01*
X0268762Y0092991D01*
X0268637Y0092724D01*
X0268504Y0092460D01*
X0268366Y0092199D01*
X0268221Y0091942D01*
X0268070Y0091689D01*
X0267913Y0091439D01*
X0267750Y0091193D01*
X0267581Y0090951D01*
X0267406Y0090714D01*
X0267225Y0090480D01*
X0267038Y0090251D01*
X0266846Y0090027D01*
X0266649Y0089808D01*
X0266446Y0089593D01*
X0266238Y0089384D01*
X0266026Y0089179D01*
X0265808Y0088980D01*
X0265585Y0088787D01*
X0265358Y0088598D01*
X0265126Y0088416D01*
X0264890Y0088239D01*
X0264649Y0088068D01*
X0264405Y0087903D01*
X0264156Y0087743D01*
X0263904Y0087590D01*
X0263648Y0087444D01*
X0263388Y0087303D01*
X0263125Y0087169D01*
X0262859Y0087041D01*
X0262590Y0086920D01*
X0262318Y0086805D01*
X0262044Y0086697D01*
X0261766Y0086596D01*
X0261487Y0086502D01*
X0261475Y0086537D01*
X0261754Y0086631D01*
X0262031Y0086732D01*
X0262304Y0086840D01*
X0262576Y0086954D01*
X0262844Y0087075D01*
X0263109Y0087202D01*
X0263371Y0087336D01*
X0263630Y0087476D01*
X0263885Y0087622D01*
X0264137Y0087775D01*
X0264384Y0087933D01*
X0264628Y0088098D01*
X0264868Y0088269D01*
X0265103Y0088445D01*
X0265335Y0088627D01*
X0265561Y0088815D01*
X0265783Y0089008D01*
X0266000Y0089207D01*
X0266213Y0089410D01*
X0266420Y0089619D01*
X0266622Y0089833D01*
X0266819Y0090052D01*
X0267010Y0090275D01*
X0267196Y0090503D01*
X0267376Y0090736D01*
X0267551Y0090973D01*
X0267719Y0091214D01*
X0267882Y0091459D01*
X0268039Y0091708D01*
X0268189Y0091961D01*
X0268334Y0092217D01*
X0268472Y0092477D01*
X0268603Y0092740D01*
X0268728Y0093006D01*
X0268847Y0093276D01*
X0268959Y0093548D01*
X0269065Y0093822D01*
X0269163Y0094099D01*
X0269255Y0094379D01*
X0269340Y0094661D01*
X0269418Y0094944D01*
X0269489Y0095230D01*
X0269553Y0095517D01*
X0269610Y0095806D01*
X0269661Y0096096D01*
X0269703Y0096387D01*
X0269739Y0096679D01*
X0269768Y0096971D01*
X0269790Y0097265D01*
X0269804Y0097559D01*
X0269811Y0097853D01*
X0269811Y0098147D01*
X0269804Y0098441D01*
X0269790Y0098735D01*
X0269768Y0099029D01*
X0269739Y0099321D01*
X0269703Y0099613D01*
X0269661Y0099904D01*
X0269610Y0100194D01*
X0269553Y0100483D01*
X0269489Y0100770D01*
X0269418Y0101056D01*
X0269340Y0101339D01*
X0269255Y0101621D01*
X0269163Y0101901D01*
X0269065Y0102178D01*
X0268959Y0102452D01*
X0268847Y0102724D01*
X0268728Y0102994D01*
X0268603Y0103260D01*
X0268472Y0103523D01*
X0268334Y0103783D01*
X0268189Y0104039D01*
X0268039Y0104292D01*
X0267882Y0104541D01*
X0267719Y0104786D01*
X0267551Y0105027D01*
X0267376Y0105264D01*
X0267196Y0105497D01*
X0267010Y0105725D01*
X0266819Y0105948D01*
X0266622Y0106167D01*
X0266420Y0106381D01*
X0266213Y0106590D01*
X0266000Y0106793D01*
X0265783Y0106992D01*
X0265561Y0107185D01*
X0265335Y0107373D01*
X0265103Y0107555D01*
X0264868Y0107731D01*
X0264628Y0107902D01*
X0264384Y0108067D01*
X0264137Y0108225D01*
X0263885Y0108378D01*
X0263630Y0108524D01*
X0263371Y0108664D01*
X0263109Y0108798D01*
X0262844Y0108925D01*
X0262576Y0109046D01*
X0262304Y0109160D01*
X0262031Y0109268D01*
X0261754Y0109369D01*
X0261475Y0109463D01*
X0253949Y0109779D02*
X0254059Y0109437D01*
X0253781Y0109343D01*
X0253505Y0109243D01*
X0253232Y0109135D01*
X0252961Y0109021D01*
X0252693Y0108901D01*
X0252429Y0108774D01*
X0252167Y0108640D01*
X0251909Y0108501D01*
X0251655Y0108354D01*
X0251404Y0108202D01*
X0251156Y0108044D01*
X0250913Y0107880D01*
X0250674Y0107709D01*
X0250439Y0107533D01*
X0250208Y0107352D01*
X0249982Y0107165D01*
X0249761Y0106972D01*
X0249544Y0106774D01*
X0249332Y0106570D01*
X0249126Y0106362D01*
X0248924Y0106149D01*
X0248728Y0105930D01*
X0248537Y0105707D01*
X0248351Y0105480D01*
X0248171Y0105248D01*
X0247997Y0105011D01*
X0247829Y0104771D01*
X0247667Y0104526D01*
X0247510Y0104278D01*
X0247360Y0104026D01*
X0247216Y0103770D01*
X0247078Y0103511D01*
X0246947Y0103248D01*
X0246822Y0102982D01*
X0246704Y0102714D01*
X0246592Y0102442D01*
X0246487Y0102168D01*
X0246388Y0101892D01*
X0246297Y0101613D01*
X0246212Y0101332D01*
X0246134Y0101049D01*
X0246063Y0100764D01*
X0245999Y0100477D01*
X0245942Y0100189D01*
X0245892Y0099900D01*
X0245849Y0099610D01*
X0245814Y0099318D01*
X0245785Y0099026D01*
X0245763Y0098733D01*
X0245749Y0098440D01*
X0245742Y0098147D01*
X0245742Y0097853D01*
X0245749Y0097560D01*
X0245763Y0097267D01*
X0245785Y0096974D01*
X0245814Y0096682D01*
X0245849Y0096390D01*
X0245892Y0096100D01*
X0245942Y0095811D01*
X0245999Y0095523D01*
X0246063Y0095236D01*
X0246134Y0094951D01*
X0246212Y0094668D01*
X0246297Y0094387D01*
X0246388Y0094108D01*
X0246487Y0093832D01*
X0246592Y0093558D01*
X0246704Y0093286D01*
X0246822Y0093018D01*
X0246947Y0092752D01*
X0247078Y0092489D01*
X0247216Y0092230D01*
X0247360Y0091974D01*
X0247510Y0091722D01*
X0247667Y0091474D01*
X0247829Y0091229D01*
X0247997Y0090989D01*
X0248171Y0090752D01*
X0248351Y0090520D01*
X0248537Y0090293D01*
X0248728Y0090070D01*
X0248924Y0089851D01*
X0249126Y0089638D01*
X0249332Y0089430D01*
X0249544Y0089226D01*
X0249761Y0089028D01*
X0249982Y0088835D01*
X0250208Y0088648D01*
X0250439Y0088467D01*
X0250674Y0088291D01*
X0250913Y0088120D01*
X0251156Y0087956D01*
X0251404Y0087798D01*
X0251655Y0087646D01*
X0251909Y0087499D01*
X0252167Y0087360D01*
X0252429Y0087226D01*
X0252693Y0087099D01*
X0252961Y0086979D01*
X0253232Y0086865D01*
X0253505Y0086757D01*
X0253781Y0086657D01*
X0254059Y0086563D01*
X0253949Y0086221D01*
X0253948Y0086220D01*
X0253662Y0086317D01*
X0253378Y0086420D01*
X0253097Y0086531D01*
X0252818Y0086648D01*
X0252542Y0086773D01*
X0252270Y0086903D01*
X0252000Y0087041D01*
X0251734Y0087185D01*
X0251472Y0087335D01*
X0251214Y0087492D01*
X0250959Y0087655D01*
X0250708Y0087824D01*
X0250462Y0088000D01*
X0250220Y0088181D01*
X0249982Y0088368D01*
X0249750Y0088561D01*
X0249521Y0088759D01*
X0249298Y0088963D01*
X0249080Y0089173D01*
X0248867Y0089387D01*
X0248660Y0089607D01*
X0248457Y0089832D01*
X0248261Y0090062D01*
X0248070Y0090296D01*
X0247884Y0090535D01*
X0247705Y0090778D01*
X0247532Y0091026D01*
X0247365Y0091278D01*
X0247203Y0091534D01*
X0247049Y0091794D01*
X0246900Y0092057D01*
X0246759Y0092324D01*
X0246623Y0092595D01*
X0246495Y0092868D01*
X0246373Y0093145D01*
X0246257Y0093424D01*
X0246149Y0093707D01*
X0246048Y0093992D01*
X0245953Y0094279D01*
X0245866Y0094568D01*
X0245786Y0094860D01*
X0245713Y0095153D01*
X0245647Y0095448D01*
X0245588Y0095745D01*
X0245537Y0096043D01*
X0245493Y0096342D01*
X0245456Y0096642D01*
X0245426Y0096943D01*
X0245404Y0097245D01*
X0245389Y0097547D01*
X0245382Y0097849D01*
X0245382Y0098151D01*
X0245389Y0098453D01*
X0245404Y0098755D01*
X0245426Y0099057D01*
X0245456Y0099358D01*
X0245493Y0099658D01*
X0245537Y0099957D01*
X0245588Y0100255D01*
X0245647Y0100552D01*
X0245713Y0100847D01*
X0245786Y0101140D01*
X0245866Y0101432D01*
X0245953Y0101721D01*
X0246048Y0102008D01*
X0246149Y0102293D01*
X0246257Y0102576D01*
X0246373Y0102855D01*
X0246495Y0103132D01*
X0246623Y0103405D01*
X0246759Y0103676D01*
X0246900Y0103943D01*
X0247049Y0104206D01*
X0247203Y0104466D01*
X0247365Y0104722D01*
X0247532Y0104974D01*
X0247705Y0105222D01*
X0247884Y0105465D01*
X0248070Y0105704D01*
X0248261Y0105938D01*
X0248457Y0106168D01*
X0248660Y0106393D01*
X0248867Y0106613D01*
X0249080Y0106827D01*
X0249298Y0107037D01*
X0249521Y0107241D01*
X0249750Y0107439D01*
X0249982Y0107632D01*
X0250220Y0107819D01*
X0250462Y0108000D01*
X0250708Y0108176D01*
X0250959Y0108345D01*
X0251214Y0108508D01*
X0251472Y0108665D01*
X0251734Y0108815D01*
X0252000Y0108959D01*
X0252270Y0109097D01*
X0252542Y0109227D01*
X0252818Y0109352D01*
X0253097Y0109469D01*
X0253378Y0109580D01*
X0253662Y0109683D01*
X0253948Y0109780D01*
X0253960Y0109745D01*
X0253674Y0109648D01*
X0253391Y0109545D01*
X0253110Y0109435D01*
X0252833Y0109318D01*
X0252558Y0109194D01*
X0252286Y0109063D01*
X0252017Y0108926D01*
X0251752Y0108783D01*
X0251491Y0108633D01*
X0251233Y0108477D01*
X0250979Y0108314D01*
X0250729Y0108145D01*
X0250484Y0107971D01*
X0250242Y0107790D01*
X0250006Y0107603D01*
X0249773Y0107411D01*
X0249546Y0107213D01*
X0249324Y0107010D01*
X0249106Y0106801D01*
X0248894Y0106587D01*
X0248687Y0106368D01*
X0248485Y0106144D01*
X0248289Y0105915D01*
X0248099Y0105681D01*
X0247914Y0105443D01*
X0247735Y0105200D01*
X0247562Y0104953D01*
X0247396Y0104702D01*
X0247235Y0104447D01*
X0247081Y0104188D01*
X0246933Y0103925D01*
X0246791Y0103659D01*
X0246657Y0103389D01*
X0246528Y0103117D01*
X0246407Y0102841D01*
X0246292Y0102562D01*
X0246184Y0102280D01*
X0246083Y0101996D01*
X0245989Y0101710D01*
X0245902Y0101421D01*
X0245822Y0101131D01*
X0245749Y0100838D01*
X0245683Y0100544D01*
X0245624Y0100248D01*
X0245573Y0099951D01*
X0245529Y0099653D01*
X0245492Y0099354D01*
X0245463Y0099054D01*
X0245441Y0098753D01*
X0245426Y0098452D01*
X0245419Y0098151D01*
X0245419Y0097849D01*
X0245426Y0097548D01*
X0245441Y0097247D01*
X0245463Y0096946D01*
X0245492Y0096646D01*
X0245529Y0096347D01*
X0245573Y0096049D01*
X0245624Y0095752D01*
X0245683Y0095456D01*
X0245749Y0095162D01*
X0245822Y0094869D01*
X0245902Y0094579D01*
X0245989Y0094290D01*
X0246083Y0094004D01*
X0246184Y0093720D01*
X0246292Y0093438D01*
X0246407Y0093159D01*
X0246528Y0092883D01*
X0246657Y0092611D01*
X0246791Y0092341D01*
X0246933Y0092075D01*
X0247081Y0091812D01*
X0247235Y0091553D01*
X0247396Y0091298D01*
X0247562Y0091047D01*
X0247735Y0090800D01*
X0247914Y0090557D01*
X0248099Y0090319D01*
X0248289Y0090085D01*
X0248485Y0089856D01*
X0248687Y0089632D01*
X0248894Y0089413D01*
X0249106Y0089199D01*
X0249324Y0088990D01*
X0249546Y0088787D01*
X0249773Y0088589D01*
X0250006Y0088397D01*
X0250242Y0088210D01*
X0250484Y0088029D01*
X0250729Y0087855D01*
X0250979Y0087686D01*
X0251233Y0087523D01*
X0251491Y0087367D01*
X0251752Y0087217D01*
X0252017Y0087074D01*
X0252286Y0086937D01*
X0252558Y0086806D01*
X0252833Y0086682D01*
X0253110Y0086565D01*
X0253391Y0086455D01*
X0253674Y0086352D01*
X0253960Y0086255D01*
X0253971Y0086291D01*
X0253686Y0086387D01*
X0253404Y0086490D01*
X0253124Y0086600D01*
X0252847Y0086716D01*
X0252573Y0086840D01*
X0252302Y0086970D01*
X0252035Y0087106D01*
X0251770Y0087249D01*
X0251510Y0087399D01*
X0251253Y0087555D01*
X0250999Y0087717D01*
X0250750Y0087885D01*
X0250506Y0088059D01*
X0250265Y0088240D01*
X0250029Y0088426D01*
X0249797Y0088617D01*
X0249571Y0088815D01*
X0249349Y0089017D01*
X0249132Y0089225D01*
X0248920Y0089439D01*
X0248714Y0089657D01*
X0248513Y0089881D01*
X0248317Y0090109D01*
X0248128Y0090342D01*
X0247943Y0090580D01*
X0247765Y0090822D01*
X0247593Y0091068D01*
X0247427Y0091318D01*
X0247267Y0091573D01*
X0247113Y0091831D01*
X0246965Y0092093D01*
X0246824Y0092358D01*
X0246690Y0092627D01*
X0246562Y0092899D01*
X0246441Y0093174D01*
X0246326Y0093452D01*
X0246219Y0093732D01*
X0246118Y0094016D01*
X0246024Y0094301D01*
X0245937Y0094589D01*
X0245857Y0094879D01*
X0245785Y0095170D01*
X0245719Y0095464D01*
X0245661Y0095758D01*
X0245610Y0096055D01*
X0245566Y0096352D01*
X0245529Y0096650D01*
X0245500Y0096949D01*
X0245478Y0097249D01*
X0245463Y0097549D01*
X0245456Y0097850D01*
X0245456Y0098150D01*
X0245463Y0098451D01*
X0245478Y0098751D01*
X0245500Y0099051D01*
X0245529Y0099350D01*
X0245566Y0099648D01*
X0245610Y0099945D01*
X0245661Y0100242D01*
X0245719Y0100536D01*
X0245785Y0100830D01*
X0245857Y0101121D01*
X0245937Y0101411D01*
X0246024Y0101699D01*
X0246118Y0101984D01*
X0246219Y0102268D01*
X0246326Y0102548D01*
X0246441Y0102826D01*
X0246562Y0103101D01*
X0246690Y0103373D01*
X0246824Y0103642D01*
X0246965Y0103907D01*
X0247113Y0104169D01*
X0247267Y0104427D01*
X0247427Y0104682D01*
X0247593Y0104932D01*
X0247765Y0105178D01*
X0247943Y0105420D01*
X0248128Y0105658D01*
X0248317Y0105891D01*
X0248513Y0106119D01*
X0248714Y0106343D01*
X0248920Y0106561D01*
X0249132Y0106775D01*
X0249349Y0106983D01*
X0249571Y0107185D01*
X0249797Y0107383D01*
X0250029Y0107574D01*
X0250265Y0107760D01*
X0250506Y0107941D01*
X0250750Y0108115D01*
X0250999Y0108283D01*
X0251253Y0108445D01*
X0251510Y0108601D01*
X0251770Y0108751D01*
X0252035Y0108894D01*
X0252302Y0109030D01*
X0252573Y0109160D01*
X0252847Y0109284D01*
X0253124Y0109400D01*
X0253404Y0109510D01*
X0253686Y0109613D01*
X0253971Y0109709D01*
X0253983Y0109674D01*
X0253699Y0109578D01*
X0253417Y0109476D01*
X0253138Y0109366D01*
X0252862Y0109250D01*
X0252589Y0109127D01*
X0252319Y0108997D01*
X0252052Y0108861D01*
X0251788Y0108718D01*
X0251528Y0108569D01*
X0251272Y0108414D01*
X0251020Y0108252D01*
X0250771Y0108084D01*
X0250527Y0107911D01*
X0250287Y0107731D01*
X0250052Y0107546D01*
X0249821Y0107355D01*
X0249595Y0107158D01*
X0249374Y0106956D01*
X0249158Y0106748D01*
X0248947Y0106535D01*
X0248741Y0106318D01*
X0248541Y0106095D01*
X0248346Y0105867D01*
X0248157Y0105635D01*
X0247973Y0105398D01*
X0247795Y0105157D01*
X0247623Y0104911D01*
X0247458Y0104662D01*
X0247298Y0104408D01*
X0247145Y0104151D01*
X0246998Y0103890D01*
X0246857Y0103625D01*
X0246723Y0103357D01*
X0246596Y0103086D01*
X0246475Y0102812D01*
X0246361Y0102535D01*
X0246253Y0102255D01*
X0246153Y0101972D01*
X0246059Y0101688D01*
X0245973Y0101401D01*
X0245893Y0101112D01*
X0245821Y0100821D01*
X0245755Y0100529D01*
X0245697Y0100235D01*
X0245646Y0099940D01*
X0245603Y0099643D01*
X0245566Y0099346D01*
X0245537Y0099048D01*
X0245515Y0098749D01*
X0245500Y0098449D01*
X0245493Y0098150D01*
X0245493Y0097850D01*
X0245500Y0097551D01*
X0245515Y0097251D01*
X0245537Y0096952D01*
X0245566Y0096654D01*
X0245603Y0096357D01*
X0245646Y0096060D01*
X0245697Y0095765D01*
X0245755Y0095471D01*
X0245821Y0095179D01*
X0245893Y0094888D01*
X0245973Y0094599D01*
X0246059Y0094312D01*
X0246153Y0094028D01*
X0246253Y0093745D01*
X0246361Y0093465D01*
X0246475Y0093188D01*
X0246596Y0092914D01*
X0246723Y0092643D01*
X0246857Y0092375D01*
X0246998Y0092110D01*
X0247145Y0091849D01*
X0247298Y0091592D01*
X0247458Y0091338D01*
X0247623Y0091089D01*
X0247795Y0090843D01*
X0247973Y0090602D01*
X0248157Y0090365D01*
X0248346Y0090133D01*
X0248541Y0089905D01*
X0248741Y0089682D01*
X0248947Y0089465D01*
X0249158Y0089252D01*
X0249374Y0089044D01*
X0249595Y0088842D01*
X0249821Y0088645D01*
X0250052Y0088454D01*
X0250287Y0088269D01*
X0250527Y0088089D01*
X0250771Y0087916D01*
X0251020Y0087748D01*
X0251272Y0087586D01*
X0251528Y0087431D01*
X0251788Y0087282D01*
X0252052Y0087139D01*
X0252319Y0087003D01*
X0252589Y0086873D01*
X0252862Y0086750D01*
X0253138Y0086634D01*
X0253417Y0086524D01*
X0253699Y0086422D01*
X0253983Y0086326D01*
X0253994Y0086361D01*
X0253711Y0086457D01*
X0253430Y0086559D01*
X0253152Y0086668D01*
X0252877Y0086784D01*
X0252604Y0086907D01*
X0252335Y0087036D01*
X0252069Y0087172D01*
X0251806Y0087314D01*
X0251547Y0087463D01*
X0251292Y0087618D01*
X0251040Y0087779D01*
X0250793Y0087946D01*
X0250549Y0088119D01*
X0250310Y0088298D01*
X0250075Y0088483D01*
X0249845Y0088674D01*
X0249620Y0088870D01*
X0249399Y0089071D01*
X0249184Y0089278D01*
X0248973Y0089490D01*
X0248768Y0089707D01*
X0248568Y0089930D01*
X0248374Y0090156D01*
X0248185Y0090388D01*
X0248002Y0090624D01*
X0247825Y0090865D01*
X0247654Y0091110D01*
X0247489Y0091358D01*
X0247330Y0091611D01*
X0247177Y0091868D01*
X0247030Y0092128D01*
X0246890Y0092392D01*
X0246756Y0092659D01*
X0246629Y0092930D01*
X0246509Y0093203D01*
X0246395Y0093479D01*
X0246288Y0093758D01*
X0246188Y0094040D01*
X0246095Y0094323D01*
X0246008Y0094609D01*
X0245929Y0094897D01*
X0245857Y0095187D01*
X0245792Y0095479D01*
X0245734Y0095772D01*
X0245683Y0096066D01*
X0245639Y0096362D01*
X0245603Y0096658D01*
X0245574Y0096956D01*
X0245552Y0097254D01*
X0245537Y0097552D01*
X0245530Y0097851D01*
X0245530Y0098149D01*
X0245537Y0098448D01*
X0245552Y0098746D01*
X0245574Y0099044D01*
X0245603Y0099342D01*
X0245639Y0099638D01*
X0245683Y0099934D01*
X0245734Y0100228D01*
X0245792Y0100521D01*
X0245857Y0100813D01*
X0245929Y0101103D01*
X0246008Y0101391D01*
X0246095Y0101677D01*
X0246188Y0101960D01*
X0246288Y0102242D01*
X0246395Y0102521D01*
X0246509Y0102797D01*
X0246629Y0103070D01*
X0246756Y0103341D01*
X0246890Y0103608D01*
X0247030Y0103872D01*
X0247177Y0104132D01*
X0247330Y0104389D01*
X0247489Y0104642D01*
X0247654Y0104890D01*
X0247825Y0105135D01*
X0248002Y0105376D01*
X0248185Y0105612D01*
X0248374Y0105844D01*
X0248568Y0106070D01*
X0248768Y0106293D01*
X0248973Y0106510D01*
X0249184Y0106722D01*
X0249399Y0106929D01*
X0249620Y0107130D01*
X0249845Y0107326D01*
X0250075Y0107517D01*
X0250310Y0107702D01*
X0250549Y0107881D01*
X0250793Y0108054D01*
X0251040Y0108221D01*
X0251292Y0108382D01*
X0251547Y0108537D01*
X0251806Y0108686D01*
X0252069Y0108828D01*
X0252335Y0108964D01*
X0252604Y0109093D01*
X0252877Y0109216D01*
X0253152Y0109332D01*
X0253430Y0109441D01*
X0253711Y0109543D01*
X0253994Y0109639D01*
X0254005Y0109604D01*
X0253723Y0109508D01*
X0253443Y0109406D01*
X0253166Y0109298D01*
X0252891Y0109182D01*
X0252620Y0109060D01*
X0252351Y0108931D01*
X0252086Y0108795D01*
X0251824Y0108654D01*
X0251566Y0108505D01*
X0251311Y0108351D01*
X0251060Y0108190D01*
X0250814Y0108024D01*
X0250571Y0107851D01*
X0250332Y0107672D01*
X0250099Y0107488D01*
X0249869Y0107298D01*
X0249644Y0107103D01*
X0249425Y0106902D01*
X0249210Y0106695D01*
X0249000Y0106484D01*
X0248795Y0106267D01*
X0248596Y0106046D01*
X0248403Y0105820D01*
X0248214Y0105589D01*
X0248032Y0105353D01*
X0247855Y0105114D01*
X0247685Y0104870D01*
X0247520Y0104621D01*
X0247361Y0104369D01*
X0247209Y0104114D01*
X0247063Y0103854D01*
X0246923Y0103591D01*
X0246790Y0103325D01*
X0246663Y0103055D01*
X0246543Y0102783D01*
X0246429Y0102507D01*
X0246323Y0102229D01*
X0246223Y0101948D01*
X0246130Y0101666D01*
X0246044Y0101380D01*
X0245965Y0101093D01*
X0245893Y0100804D01*
X0245828Y0100514D01*
X0245770Y0100221D01*
X0245719Y0099928D01*
X0245676Y0099633D01*
X0245640Y0099338D01*
X0245611Y0099041D01*
X0245589Y0098744D01*
X0245574Y0098447D01*
X0245567Y0098149D01*
X0245567Y0097851D01*
X0245574Y0097553D01*
X0245589Y0097256D01*
X0245611Y0096959D01*
X0245640Y0096662D01*
X0245676Y0096367D01*
X0245719Y0096072D01*
X0245770Y0095779D01*
X0245828Y0095486D01*
X0245893Y0095196D01*
X0245965Y0094907D01*
X0246044Y0094620D01*
X0246130Y0094334D01*
X0246223Y0094052D01*
X0246323Y0093771D01*
X0246429Y0093493D01*
X0246543Y0093217D01*
X0246663Y0092945D01*
X0246790Y0092675D01*
X0246923Y0092409D01*
X0247063Y0092146D01*
X0247209Y0091886D01*
X0247361Y0091631D01*
X0247520Y0091379D01*
X0247685Y0091130D01*
X0247855Y0090886D01*
X0248032Y0090647D01*
X0248214Y0090411D01*
X0248403Y0090180D01*
X0248596Y0089954D01*
X0248795Y0089733D01*
X0249000Y0089516D01*
X0249210Y0089305D01*
X0249425Y0089098D01*
X0249644Y0088897D01*
X0249869Y0088702D01*
X0250099Y0088512D01*
X0250332Y0088328D01*
X0250571Y0088149D01*
X0250814Y0087976D01*
X0251060Y0087810D01*
X0251311Y0087649D01*
X0251566Y0087495D01*
X0251824Y0087346D01*
X0252086Y0087205D01*
X0252351Y0087069D01*
X0252620Y0086940D01*
X0252891Y0086818D01*
X0253166Y0086702D01*
X0253443Y0086594D01*
X0253723Y0086492D01*
X0254005Y0086396D01*
X0254017Y0086432D01*
X0253735Y0086526D01*
X0253456Y0086628D01*
X0253180Y0086737D01*
X0252906Y0086852D01*
X0252635Y0086974D01*
X0252368Y0087102D01*
X0252103Y0087237D01*
X0251842Y0087379D01*
X0251585Y0087527D01*
X0251331Y0087681D01*
X0251081Y0087841D01*
X0250835Y0088007D01*
X0250593Y0088179D01*
X0250355Y0088357D01*
X0250122Y0088541D01*
X0249893Y0088730D01*
X0249669Y0088925D01*
X0249450Y0089125D01*
X0249236Y0089331D01*
X0249027Y0089542D01*
X0248823Y0089758D01*
X0248624Y0089978D01*
X0248431Y0090204D01*
X0248243Y0090434D01*
X0248061Y0090669D01*
X0247885Y0090908D01*
X0247715Y0091151D01*
X0247551Y0091399D01*
X0247393Y0091650D01*
X0247241Y0091905D01*
X0247095Y0092164D01*
X0246956Y0092426D01*
X0246823Y0092692D01*
X0246697Y0092960D01*
X0246577Y0093232D01*
X0246464Y0093507D01*
X0246357Y0093784D01*
X0246258Y0094064D01*
X0246165Y0094346D01*
X0246079Y0094630D01*
X0246001Y0094916D01*
X0245929Y0095204D01*
X0245864Y0095494D01*
X0245806Y0095785D01*
X0245756Y0096078D01*
X0245713Y0096372D01*
X0245676Y0096666D01*
X0245647Y0096962D01*
X0245626Y0097258D01*
X0245611Y0097555D01*
X0245604Y0097852D01*
X0245604Y0098148D01*
X0245611Y0098445D01*
X0245626Y0098742D01*
X0245647Y0099038D01*
X0245676Y0099334D01*
X0245713Y0099628D01*
X0245756Y0099922D01*
X0245806Y0100215D01*
X0245864Y0100506D01*
X0245929Y0100796D01*
X0246001Y0101084D01*
X0246079Y0101370D01*
X0246165Y0101654D01*
X0246258Y0101936D01*
X0246357Y0102216D01*
X0246464Y0102493D01*
X0246577Y0102768D01*
X0246697Y0103040D01*
X0246823Y0103308D01*
X0246956Y0103574D01*
X0247095Y0103836D01*
X0247241Y0104095D01*
X0247393Y0104350D01*
X0247551Y0104601D01*
X0247715Y0104849D01*
X0247885Y0105092D01*
X0248061Y0105331D01*
X0248243Y0105566D01*
X0248431Y0105796D01*
X0248624Y0106022D01*
X0248823Y0106242D01*
X0249027Y0106458D01*
X0249236Y0106669D01*
X0249450Y0106875D01*
X0249669Y0107075D01*
X0249893Y0107270D01*
X0250122Y0107459D01*
X0250355Y0107643D01*
X0250593Y0107821D01*
X0250835Y0107993D01*
X0251081Y0108159D01*
X0251331Y0108319D01*
X0251585Y0108473D01*
X0251842Y0108621D01*
X0252103Y0108763D01*
X0252368Y0108898D01*
X0252635Y0109026D01*
X0252906Y0109148D01*
X0253180Y0109263D01*
X0253456Y0109372D01*
X0253735Y0109474D01*
X0254017Y0109568D01*
X0254028Y0109533D01*
X0253747Y0109439D01*
X0253469Y0109337D01*
X0253194Y0109229D01*
X0252921Y0109114D01*
X0252651Y0108992D01*
X0252384Y0108864D01*
X0252120Y0108730D01*
X0251860Y0108589D01*
X0251603Y0108442D01*
X0251350Y0108288D01*
X0251101Y0108128D01*
X0250856Y0107963D01*
X0250614Y0107791D01*
X0250378Y0107614D01*
X0250145Y0107430D01*
X0249917Y0107242D01*
X0249694Y0107047D01*
X0249475Y0106848D01*
X0249262Y0106643D01*
X0249053Y0106432D01*
X0248850Y0106217D01*
X0248652Y0105997D01*
X0248459Y0105772D01*
X0248272Y0105543D01*
X0248091Y0105309D01*
X0247915Y0105070D01*
X0247746Y0104828D01*
X0247582Y0104581D01*
X0247424Y0104331D01*
X0247273Y0104076D01*
X0247128Y0103818D01*
X0246989Y0103557D01*
X0246856Y0103292D01*
X0246730Y0103024D01*
X0246611Y0102754D01*
X0246498Y0102480D01*
X0246392Y0102203D01*
X0246293Y0101924D01*
X0246200Y0101643D01*
X0246115Y0101360D01*
X0246036Y0101074D01*
X0245965Y0100787D01*
X0245900Y0100498D01*
X0245843Y0100208D01*
X0245792Y0099916D01*
X0245749Y0099623D01*
X0245713Y0099329D01*
X0245684Y0099035D01*
X0245663Y0098740D01*
X0245648Y0098444D01*
X0245641Y0098148D01*
X0245641Y0097852D01*
X0245648Y0097556D01*
X0245663Y0097260D01*
X0245684Y0096965D01*
X0245713Y0096671D01*
X0245749Y0096377D01*
X0245792Y0096084D01*
X0245843Y0095792D01*
X0245900Y0095502D01*
X0245965Y0095213D01*
X0246036Y0094926D01*
X0246115Y0094640D01*
X0246200Y0094357D01*
X0246293Y0094076D01*
X0246392Y0093797D01*
X0246498Y0093520D01*
X0246611Y0093246D01*
X0246730Y0092976D01*
X0246856Y0092708D01*
X0246989Y0092443D01*
X0247128Y0092182D01*
X0247273Y0091924D01*
X0247424Y0091669D01*
X0247582Y0091419D01*
X0247746Y0091172D01*
X0247915Y0090930D01*
X0248091Y0090691D01*
X0248272Y0090457D01*
X0248459Y0090228D01*
X0248652Y0090003D01*
X0248850Y0089783D01*
X0249053Y0089568D01*
X0249262Y0089357D01*
X0249475Y0089152D01*
X0249694Y0088953D01*
X0249917Y0088758D01*
X0250145Y0088570D01*
X0250378Y0088386D01*
X0250614Y0088209D01*
X0250856Y0088037D01*
X0251101Y0087872D01*
X0251350Y0087712D01*
X0251603Y0087558D01*
X0251860Y0087411D01*
X0252120Y0087270D01*
X0252384Y0087136D01*
X0252651Y0087008D01*
X0252921Y0086886D01*
X0253194Y0086771D01*
X0253469Y0086663D01*
X0253747Y0086561D01*
X0254028Y0086467D01*
X0254039Y0086502D01*
X0253760Y0086596D01*
X0253482Y0086697D01*
X0253208Y0086805D01*
X0252936Y0086920D01*
X0252667Y0087041D01*
X0252401Y0087169D01*
X0252138Y0087303D01*
X0251878Y0087444D01*
X0251622Y0087590D01*
X0251370Y0087743D01*
X0251121Y0087903D01*
X0250877Y0088068D01*
X0250636Y0088239D01*
X0250400Y0088416D01*
X0250168Y0088598D01*
X0249941Y0088787D01*
X0249718Y0088980D01*
X0249500Y0089179D01*
X0249288Y0089384D01*
X0249080Y0089593D01*
X0248877Y0089808D01*
X0248680Y0090027D01*
X0248488Y0090251D01*
X0248301Y0090480D01*
X0248120Y0090714D01*
X0247945Y0090951D01*
X0247776Y0091193D01*
X0247613Y0091439D01*
X0247456Y0091689D01*
X0247305Y0091942D01*
X0247160Y0092199D01*
X0247022Y0092460D01*
X0246889Y0092724D01*
X0246764Y0092991D01*
X0246645Y0093261D01*
X0246532Y0093534D01*
X0246427Y0093809D01*
X0246328Y0094087D01*
X0246236Y0094368D01*
X0246150Y0094650D01*
X0246072Y0094935D01*
X0246001Y0095221D01*
X0245936Y0095509D01*
X0245879Y0095799D01*
X0245829Y0096090D01*
X0245786Y0096382D01*
X0245750Y0096675D01*
X0245721Y0096968D01*
X0245700Y0097263D01*
X0245685Y0097557D01*
X0245678Y0097852D01*
X0245678Y0098148D01*
X0245685Y0098443D01*
X0245700Y0098737D01*
X0245721Y0099032D01*
X0245750Y0099325D01*
X0245786Y0099618D01*
X0245829Y0099910D01*
X0245879Y0100201D01*
X0245936Y0100491D01*
X0246001Y0100779D01*
X0246072Y0101065D01*
X0246150Y0101350D01*
X0246236Y0101632D01*
X0246328Y0101913D01*
X0246427Y0102191D01*
X0246532Y0102466D01*
X0246645Y0102739D01*
X0246764Y0103009D01*
X0246889Y0103276D01*
X0247022Y0103540D01*
X0247160Y0103801D01*
X0247305Y0104058D01*
X0247456Y0104311D01*
X0247613Y0104561D01*
X0247776Y0104807D01*
X0247945Y0105049D01*
X0248120Y0105286D01*
X0248301Y0105520D01*
X0248488Y0105749D01*
X0248680Y0105973D01*
X0248877Y0106192D01*
X0249080Y0106407D01*
X0249288Y0106616D01*
X0249500Y0106821D01*
X0249718Y0107020D01*
X0249941Y0107213D01*
X0250168Y0107402D01*
X0250400Y0107584D01*
X0250636Y0107761D01*
X0250877Y0107932D01*
X0251121Y0108097D01*
X0251370Y0108257D01*
X0251622Y0108410D01*
X0251878Y0108556D01*
X0252138Y0108697D01*
X0252401Y0108831D01*
X0252667Y0108959D01*
X0252936Y0109080D01*
X0253208Y0109195D01*
X0253482Y0109303D01*
X0253760Y0109404D01*
X0254039Y0109498D01*
X0254051Y0109463D01*
X0253772Y0109369D01*
X0253495Y0109268D01*
X0253222Y0109160D01*
X0252950Y0109046D01*
X0252682Y0108925D01*
X0252417Y0108798D01*
X0252155Y0108664D01*
X0251896Y0108524D01*
X0251641Y0108378D01*
X0251389Y0108225D01*
X0251142Y0108067D01*
X0250898Y0107902D01*
X0250658Y0107731D01*
X0250423Y0107555D01*
X0250191Y0107373D01*
X0249965Y0107185D01*
X0249743Y0106992D01*
X0249526Y0106793D01*
X0249313Y0106590D01*
X0249106Y0106381D01*
X0248904Y0106167D01*
X0248707Y0105948D01*
X0248516Y0105725D01*
X0248330Y0105497D01*
X0248150Y0105264D01*
X0247975Y0105027D01*
X0247807Y0104786D01*
X0247644Y0104541D01*
X0247487Y0104292D01*
X0247337Y0104039D01*
X0247192Y0103783D01*
X0247054Y0103523D01*
X0246923Y0103260D01*
X0246798Y0102994D01*
X0246679Y0102724D01*
X0246567Y0102452D01*
X0246461Y0102178D01*
X0246363Y0101901D01*
X0246271Y0101621D01*
X0246186Y0101339D01*
X0246108Y0101056D01*
X0246037Y0100770D01*
X0245973Y0100483D01*
X0245916Y0100194D01*
X0245865Y0099904D01*
X0245823Y0099613D01*
X0245787Y0099321D01*
X0245758Y0099029D01*
X0245736Y0098735D01*
X0245722Y0098441D01*
X0245715Y0098147D01*
X0245715Y0097853D01*
X0245722Y0097559D01*
X0245736Y0097265D01*
X0245758Y0096971D01*
X0245787Y0096679D01*
X0245823Y0096387D01*
X0245865Y0096096D01*
X0245916Y0095806D01*
X0245973Y0095517D01*
X0246037Y0095230D01*
X0246108Y0094944D01*
X0246186Y0094661D01*
X0246271Y0094379D01*
X0246363Y0094099D01*
X0246461Y0093822D01*
X0246567Y0093548D01*
X0246679Y0093276D01*
X0246798Y0093006D01*
X0246923Y0092740D01*
X0247054Y0092477D01*
X0247192Y0092217D01*
X0247337Y0091961D01*
X0247487Y0091708D01*
X0247644Y0091459D01*
X0247807Y0091214D01*
X0247975Y0090973D01*
X0248150Y0090736D01*
X0248330Y0090503D01*
X0248516Y0090275D01*
X0248707Y0090052D01*
X0248904Y0089833D01*
X0249106Y0089619D01*
X0249313Y0089410D01*
X0249526Y0089207D01*
X0249743Y0089008D01*
X0249965Y0088815D01*
X0250191Y0088627D01*
X0250423Y0088445D01*
X0250658Y0088269D01*
X0250898Y0088098D01*
X0251142Y0087933D01*
X0251389Y0087775D01*
X0251641Y0087622D01*
X0251896Y0087476D01*
X0252155Y0087336D01*
X0252417Y0087202D01*
X0252682Y0087075D01*
X0252950Y0086954D01*
X0253222Y0086840D01*
X0253495Y0086732D01*
X0253772Y0086631D01*
X0254051Y0086537D01*
D23*
X0179775Y0089693D02*
X0168751Y0089693D01*
X0168751Y0101307D01*
X0179775Y0101307D01*
X0179775Y0089693D01*
X0176144Y0092902D02*
X0176146Y0092957D01*
X0176152Y0093011D01*
X0176162Y0093065D01*
X0176175Y0093118D01*
X0176193Y0093169D01*
X0176214Y0093220D01*
X0176239Y0093269D01*
X0176267Y0093315D01*
X0176298Y0093360D01*
X0176333Y0093402D01*
X0176371Y0093442D01*
X0176411Y0093479D01*
X0176454Y0093513D01*
X0176499Y0093543D01*
X0176546Y0093571D01*
X0176596Y0093595D01*
X0176646Y0093615D01*
X0176698Y0093631D01*
X0176752Y0093644D01*
X0176806Y0093653D01*
X0176860Y0093658D01*
X0176915Y0093659D01*
X0176969Y0093656D01*
X0177023Y0093649D01*
X0177077Y0093638D01*
X0177130Y0093624D01*
X0177181Y0093605D01*
X0177231Y0093583D01*
X0177279Y0093558D01*
X0177326Y0093529D01*
X0177370Y0093496D01*
X0177412Y0093461D01*
X0177451Y0093423D01*
X0177487Y0093382D01*
X0177520Y0093338D01*
X0177550Y0093292D01*
X0177576Y0093244D01*
X0177599Y0093195D01*
X0177618Y0093144D01*
X0177634Y0093091D01*
X0177646Y0093038D01*
X0177654Y0092984D01*
X0177658Y0092929D01*
X0177658Y0092875D01*
X0177654Y0092820D01*
X0177646Y0092766D01*
X0177634Y0092713D01*
X0177618Y0092660D01*
X0177599Y0092609D01*
X0177576Y0092560D01*
X0177550Y0092512D01*
X0177520Y0092466D01*
X0177487Y0092422D01*
X0177451Y0092381D01*
X0177412Y0092343D01*
X0177370Y0092308D01*
X0177326Y0092275D01*
X0177280Y0092246D01*
X0177231Y0092221D01*
X0177181Y0092199D01*
X0177130Y0092180D01*
X0177077Y0092166D01*
X0177023Y0092155D01*
X0176969Y0092148D01*
X0176915Y0092145D01*
X0176860Y0092146D01*
X0176806Y0092151D01*
X0176752Y0092160D01*
X0176698Y0092173D01*
X0176646Y0092189D01*
X0176596Y0092209D01*
X0176546Y0092233D01*
X0176499Y0092261D01*
X0176454Y0092291D01*
X0176411Y0092325D01*
X0176371Y0092362D01*
X0176333Y0092402D01*
X0176298Y0092444D01*
X0176267Y0092489D01*
X0176239Y0092535D01*
X0176214Y0092584D01*
X0176193Y0092635D01*
X0176175Y0092686D01*
X0176162Y0092739D01*
X0176152Y0092793D01*
X0176146Y0092847D01*
X0176144Y0092902D01*
M02*
