G75*
%MOIN*%
%OFA0B0*%
%FSLAX25Y25*%
%IPPOS*%
%LPD*%
%AMOC8*
5,1,8,0,0,1.08239X$1,22.5*
%
%ADD10R,0.07400X0.07400*%
%ADD11C,0.07400*%
%ADD12C,0.04362*%
%ADD13C,0.02400*%
%ADD14C,0.01600*%
%ADD15C,0.01200*%
%ADD16C,0.01000*%
D10*
X0012263Y0050500D03*
X0222263Y0058500D03*
D11*
X0232263Y0058500D03*
X0242263Y0058500D03*
X0252263Y0058500D03*
X0257263Y0068500D03*
X0247263Y0068500D03*
X0237263Y0068500D03*
X0227263Y0068500D03*
X0229763Y0035500D03*
X0239763Y0035500D03*
X0249763Y0035500D03*
X0169263Y0031500D03*
X0159263Y0031500D03*
X0149263Y0031500D03*
X0139263Y0031500D03*
X0129263Y0031500D03*
X0119263Y0031500D03*
X0057263Y0030500D03*
X0047263Y0030500D03*
X0037263Y0030500D03*
X0027263Y0030500D03*
X0012263Y0060500D03*
X0012263Y0070500D03*
X0012263Y0080500D03*
X0137263Y0110500D03*
X0147263Y0110500D03*
X0157263Y0110500D03*
X0167263Y0110500D03*
X0177263Y0110500D03*
X0169822Y0130500D03*
X0159822Y0130500D03*
D12*
X0162263Y0117232D03*
X0142420Y0117232D03*
X0130263Y0111500D03*
X0113680Y0105815D03*
X0091263Y0098000D03*
X0074263Y0089000D03*
X0099263Y0082500D03*
X0106263Y0085500D03*
X0098263Y0075500D03*
X0084263Y0072500D03*
X0077263Y0067500D03*
X0068263Y0071500D03*
X0066263Y0062500D03*
X0077263Y0059500D03*
X0064263Y0053500D03*
X0051763Y0060500D03*
X0044263Y0060500D03*
X0048263Y0070500D03*
X0021263Y0090000D03*
X0044763Y0098000D03*
X0053763Y0103500D03*
X0058763Y0105500D03*
X0049763Y0108000D03*
X0034263Y0112000D03*
X0020263Y0106000D03*
X0068109Y0107504D03*
X0123263Y0086000D03*
X0124763Y0078500D03*
X0137263Y0084500D03*
X0143763Y0082500D03*
X0144763Y0088000D03*
X0157263Y0092500D03*
X0161263Y0088000D03*
X0160263Y0076000D03*
X0159263Y0067500D03*
X0167263Y0067000D03*
X0188263Y0066000D03*
X0193263Y0058500D03*
X0208263Y0075000D03*
X0191263Y0083500D03*
X0214263Y0085500D03*
X0226763Y0088000D03*
X0237263Y0090500D03*
X0197263Y0105500D03*
X0136763Y0069500D03*
X0124263Y0069500D03*
X0124763Y0058000D03*
X0131263Y0058000D03*
X0137763Y0058000D03*
X0159263Y0052500D03*
X0137263Y0041500D03*
X0124263Y0041500D03*
X0110263Y0045500D03*
X0103263Y0041500D03*
X0099263Y0048500D03*
X0095263Y0065500D03*
X0110263Y0030500D03*
X0179263Y0039500D03*
X0017263Y0035500D03*
X0010263Y0032500D03*
D13*
X0008722Y0028550D02*
X0006748Y0029985D01*
X0005313Y0031959D01*
X0004559Y0034280D01*
X0004463Y0035500D01*
X0004463Y0041623D01*
X0009059Y0037027D01*
X0009790Y0036296D01*
X0010746Y0035900D01*
X0013082Y0035900D01*
X0013082Y0034668D01*
X0013718Y0033132D01*
X0014895Y0031955D01*
X0016431Y0031319D01*
X0018095Y0031319D01*
X0019631Y0031955D01*
X0020808Y0033132D01*
X0021444Y0034668D01*
X0021444Y0036332D01*
X0020808Y0037868D01*
X0019631Y0039045D01*
X0018095Y0039681D01*
X0016759Y0039681D01*
X0015736Y0040704D01*
X0014780Y0041100D01*
X0012340Y0041100D01*
X0008640Y0044800D01*
X0016791Y0044800D01*
X0017963Y0045972D01*
X0017963Y0051675D01*
X0018588Y0052300D01*
X0054900Y0052300D01*
X0056076Y0052787D01*
X0062588Y0059300D01*
X0063550Y0059300D01*
X0063895Y0058955D01*
X0065431Y0058319D01*
X0067095Y0058319D01*
X0068631Y0058955D01*
X0069808Y0060132D01*
X0070444Y0061668D01*
X0070444Y0063332D01*
X0069808Y0064868D01*
X0068631Y0066045D01*
X0067095Y0066681D01*
X0065431Y0066681D01*
X0063895Y0066045D01*
X0063550Y0065700D01*
X0060626Y0065700D01*
X0059450Y0065213D01*
X0058550Y0064313D01*
X0052937Y0058700D01*
X0048043Y0058700D01*
X0048444Y0059668D01*
X0048444Y0061332D01*
X0048043Y0062300D01*
X0052900Y0062300D01*
X0054076Y0062787D01*
X0059588Y0068300D01*
X0065550Y0068300D01*
X0065895Y0067955D01*
X0067431Y0067319D01*
X0069095Y0067319D01*
X0070631Y0067955D01*
X0071808Y0069132D01*
X0072444Y0070668D01*
X0072444Y0072332D01*
X0071808Y0073868D01*
X0070631Y0075045D01*
X0069095Y0075681D01*
X0067431Y0075681D01*
X0065895Y0075045D01*
X0065550Y0074700D01*
X0057626Y0074700D01*
X0056450Y0074213D01*
X0055550Y0073313D01*
X0052444Y0070207D01*
X0052444Y0071332D01*
X0051808Y0072868D01*
X0050631Y0074045D01*
X0049095Y0074681D01*
X0047431Y0074681D01*
X0045895Y0074045D01*
X0045550Y0073700D01*
X0023588Y0073700D01*
X0017951Y0079337D01*
X0017963Y0079366D01*
X0017963Y0081634D01*
X0017438Y0082900D01*
X0027780Y0082900D01*
X0028736Y0083296D01*
X0029467Y0084027D01*
X0033340Y0087900D01*
X0047780Y0087900D01*
X0048736Y0088296D01*
X0049467Y0089027D01*
X0051967Y0091527D01*
X0052363Y0092483D01*
X0052363Y0099554D01*
X0052931Y0099319D01*
X0054267Y0099319D01*
X0055290Y0098296D01*
X0056246Y0097900D01*
X0083780Y0097900D01*
X0084736Y0098296D01*
X0085467Y0099027D01*
X0085467Y0099027D01*
X0086340Y0099900D01*
X0087524Y0099900D01*
X0087082Y0098832D01*
X0087082Y0097779D01*
X0074889Y0085586D01*
X0074463Y0084557D01*
X0074463Y0070613D01*
X0073718Y0069868D01*
X0073082Y0068332D01*
X0073082Y0066668D01*
X0073718Y0065132D01*
X0074895Y0063955D01*
X0076431Y0063319D01*
X0078095Y0063319D01*
X0079631Y0063955D01*
X0080808Y0065132D01*
X0081444Y0066668D01*
X0081444Y0068332D01*
X0080808Y0069868D01*
X0080063Y0070613D01*
X0080063Y0082840D01*
X0091042Y0093819D01*
X0092095Y0093819D01*
X0093631Y0094455D01*
X0094808Y0095632D01*
X0095444Y0097168D01*
X0095444Y0098142D01*
X0104352Y0089234D01*
X0103895Y0089045D01*
X0102718Y0087868D01*
X0102082Y0086332D01*
X0102082Y0084668D01*
X0102718Y0083132D01*
X0103895Y0081955D01*
X0105431Y0081319D01*
X0106484Y0081319D01*
X0115503Y0072300D01*
X0105423Y0072300D01*
X0102444Y0075279D01*
X0102444Y0076332D01*
X0101808Y0077868D01*
X0100631Y0079045D01*
X0099095Y0079681D01*
X0097431Y0079681D01*
X0095895Y0079045D01*
X0094718Y0077868D01*
X0094082Y0076332D01*
X0094082Y0074668D01*
X0094718Y0073132D01*
X0095895Y0071955D01*
X0097431Y0071319D01*
X0098484Y0071319D01*
X0101889Y0067914D01*
X0102677Y0067126D01*
X0103706Y0066700D01*
X0121150Y0066700D01*
X0121895Y0065955D01*
X0123431Y0065319D01*
X0125095Y0065319D01*
X0126631Y0065955D01*
X0127808Y0067132D01*
X0128444Y0068668D01*
X0128444Y0070332D01*
X0128292Y0070700D01*
X0132734Y0070700D01*
X0132582Y0070332D01*
X0132582Y0069279D01*
X0128889Y0065586D01*
X0128463Y0064557D01*
X0128463Y0061113D01*
X0128013Y0060663D01*
X0127131Y0061545D01*
X0125595Y0062181D01*
X0124542Y0062181D01*
X0123849Y0062874D01*
X0122820Y0063300D01*
X0093423Y0063300D01*
X0087199Y0069523D01*
X0087808Y0070132D01*
X0088444Y0071668D01*
X0088444Y0073332D01*
X0087808Y0074868D01*
X0086631Y0076045D01*
X0085095Y0076681D01*
X0083431Y0076681D01*
X0081895Y0076045D01*
X0080718Y0074868D01*
X0080082Y0073332D01*
X0080082Y0071668D01*
X0080718Y0070132D01*
X0081463Y0069387D01*
X0081463Y0067943D01*
X0081889Y0066914D01*
X0089889Y0058914D01*
X0090677Y0058126D01*
X0091706Y0057700D01*
X0120582Y0057700D01*
X0120582Y0057168D01*
X0120776Y0056700D01*
X0066976Y0056700D01*
X0066631Y0057045D01*
X0065095Y0057681D01*
X0063431Y0057681D01*
X0061895Y0057045D01*
X0060718Y0055868D01*
X0060082Y0054332D01*
X0060082Y0052668D01*
X0060718Y0051132D01*
X0061895Y0049955D01*
X0063431Y0049319D01*
X0065095Y0049319D01*
X0066631Y0049955D01*
X0066976Y0050300D01*
X0095483Y0050300D01*
X0095082Y0049332D01*
X0095082Y0047668D01*
X0095718Y0046132D01*
X0096895Y0044955D01*
X0098431Y0044319D01*
X0100095Y0044319D01*
X0100221Y0044371D01*
X0099718Y0043868D01*
X0099082Y0042332D01*
X0099082Y0040668D01*
X0099234Y0040300D01*
X0076423Y0040300D01*
X0074637Y0042086D01*
X0073849Y0042874D01*
X0072820Y0043300D01*
X0036706Y0043300D01*
X0035677Y0042874D01*
X0028826Y0036022D01*
X0028397Y0036200D01*
X0026129Y0036200D01*
X0024034Y0035332D01*
X0022431Y0033729D01*
X0021563Y0031634D01*
X0021563Y0029366D01*
X0022253Y0027700D01*
X0012263Y0027700D01*
X0011043Y0027796D01*
X0008722Y0028550D01*
X0010727Y0027899D02*
X0022171Y0027899D01*
X0021563Y0030297D02*
X0006521Y0030297D01*
X0005074Y0032696D02*
X0014154Y0032696D01*
X0013082Y0035094D02*
X0004495Y0035094D01*
X0004463Y0037493D02*
X0008593Y0037493D01*
X0006195Y0039891D02*
X0004463Y0039891D01*
X0011150Y0042290D02*
X0035093Y0042290D01*
X0032694Y0039891D02*
X0016549Y0039891D01*
X0020963Y0037493D02*
X0030296Y0037493D01*
X0023796Y0035094D02*
X0021444Y0035094D01*
X0022003Y0032696D02*
X0020371Y0032696D01*
X0008752Y0044688D02*
X0097540Y0044688D01*
X0095323Y0047087D02*
X0017963Y0047087D01*
X0017963Y0049485D02*
X0063030Y0049485D01*
X0065496Y0049485D02*
X0095145Y0049485D01*
X0099082Y0042290D02*
X0074433Y0042290D01*
X0065103Y0033700D02*
X0062231Y0033700D01*
X0062309Y0033592D01*
X0062731Y0032765D01*
X0063018Y0031882D01*
X0063163Y0030964D01*
X0063163Y0030500D01*
X0057263Y0030500D01*
X0057263Y0030500D01*
X0063163Y0030500D01*
X0063163Y0030036D01*
X0063018Y0029118D01*
X0062731Y0028235D01*
X0062458Y0027700D01*
X0107150Y0027700D01*
X0107150Y0027700D01*
X0071706Y0027700D01*
X0070677Y0028126D01*
X0069889Y0028914D01*
X0065103Y0033700D01*
X0066108Y0032696D02*
X0062753Y0032696D01*
X0063163Y0030297D02*
X0068506Y0030297D01*
X0071227Y0027899D02*
X0062559Y0027899D01*
X0060407Y0051884D02*
X0018172Y0051884D01*
X0017263Y0055500D02*
X0012263Y0050500D01*
X0017263Y0055500D02*
X0054263Y0055500D01*
X0061263Y0062500D01*
X0066263Y0062500D01*
X0070219Y0063876D02*
X0075086Y0063876D01*
X0079440Y0063876D02*
X0084927Y0063876D01*
X0087326Y0061478D02*
X0070365Y0061478D01*
X0068755Y0059079D02*
X0089724Y0059079D01*
X0092847Y0063876D02*
X0128463Y0063876D01*
X0128463Y0061478D02*
X0127198Y0061478D01*
X0126951Y0066275D02*
X0129578Y0066275D01*
X0128444Y0068673D02*
X0131976Y0068673D01*
X0121575Y0066275D02*
X0090448Y0066275D01*
X0088050Y0068673D02*
X0101130Y0068673D01*
X0098731Y0071072D02*
X0088197Y0071072D01*
X0088387Y0073470D02*
X0094578Y0073470D01*
X0094082Y0075869D02*
X0086807Y0075869D01*
X0081719Y0075869D02*
X0080063Y0075869D01*
X0080063Y0078267D02*
X0095117Y0078267D01*
X0101409Y0078267D02*
X0109536Y0078267D01*
X0111934Y0075869D02*
X0102444Y0075869D01*
X0104253Y0073470D02*
X0114333Y0073470D01*
X0107137Y0080666D02*
X0080063Y0080666D01*
X0080287Y0083064D02*
X0102786Y0083064D01*
X0102082Y0085463D02*
X0082686Y0085463D01*
X0085084Y0087861D02*
X0102715Y0087861D01*
X0103326Y0090260D02*
X0087483Y0090260D01*
X0089881Y0092658D02*
X0100928Y0092658D01*
X0098529Y0095057D02*
X0094233Y0095057D01*
X0095444Y0097455D02*
X0096131Y0097455D01*
X0087505Y0099854D02*
X0086294Y0099854D01*
X0086759Y0097455D02*
X0052363Y0097455D01*
X0052363Y0095057D02*
X0084360Y0095057D01*
X0081962Y0092658D02*
X0052363Y0092658D01*
X0047163Y0094077D02*
X0046186Y0093100D01*
X0031746Y0093100D01*
X0030790Y0092704D01*
X0026186Y0088100D01*
X0018340Y0088100D01*
X0016967Y0089473D01*
X0016236Y0090204D01*
X0015280Y0090600D01*
X0009246Y0090600D01*
X0008290Y0090204D01*
X0004463Y0086377D01*
X0004463Y0105500D01*
X0004559Y0106720D01*
X0005313Y0109041D01*
X0005313Y0109041D01*
X0006748Y0111015D01*
X0008722Y0112450D01*
X0011043Y0113204D01*
X0012263Y0113300D01*
X0109586Y0113300D01*
X0113961Y0114472D01*
X0117883Y0116737D01*
X0121085Y0119939D01*
X0123350Y0123861D01*
X0124522Y0128236D01*
X0124522Y0130500D01*
X0124632Y0132171D01*
X0125496Y0135398D01*
X0127167Y0138292D01*
X0129530Y0140655D01*
X0132424Y0142326D01*
X0135651Y0143190D01*
X0137322Y0143300D01*
X0192322Y0143300D01*
X0193993Y0143190D01*
X0197220Y0142326D01*
X0200114Y0140655D01*
X0202477Y0138292D01*
X0204148Y0135398D01*
X0205013Y0132171D01*
X0205122Y0130500D01*
X0205122Y0128236D01*
X0206294Y0123861D01*
X0208559Y0119939D01*
X0211761Y0116737D01*
X0215683Y0114472D01*
X0220058Y0113300D01*
X0262263Y0113300D01*
X0263483Y0113204D01*
X0265804Y0112450D01*
X0267778Y0111015D01*
X0269213Y0109041D01*
X0269967Y0106720D01*
X0270063Y0105500D01*
X0270063Y0036879D01*
X0269468Y0038314D01*
X0267077Y0040705D01*
X0263954Y0041999D01*
X0260572Y0041999D01*
X0257449Y0040705D01*
X0255058Y0038314D01*
X0254912Y0037963D01*
X0254595Y0038729D01*
X0252992Y0040332D01*
X0250897Y0041200D01*
X0248629Y0041200D01*
X0246534Y0040332D01*
X0244931Y0038729D01*
X0244845Y0038522D01*
X0244809Y0038592D01*
X0244263Y0039344D01*
X0243607Y0040000D01*
X0242855Y0040546D01*
X0242028Y0040968D01*
X0241145Y0041255D01*
X0240227Y0041400D01*
X0239763Y0041400D01*
X0239763Y0035500D01*
X0239763Y0035500D01*
X0239763Y0029600D01*
X0240227Y0029600D01*
X0241145Y0029745D01*
X0242028Y0030032D01*
X0242855Y0030454D01*
X0243607Y0031000D01*
X0244263Y0031656D01*
X0244809Y0032408D01*
X0244845Y0032478D01*
X0244931Y0032271D01*
X0246534Y0030668D01*
X0248629Y0029800D01*
X0250897Y0029800D01*
X0252992Y0030668D01*
X0253872Y0031548D01*
X0255058Y0028686D01*
X0256043Y0027700D01*
X0223483Y0027700D01*
X0224468Y0028686D01*
X0225654Y0031548D01*
X0226534Y0030668D01*
X0228629Y0029800D01*
X0230897Y0029800D01*
X0232992Y0030668D01*
X0234595Y0032271D01*
X0234681Y0032478D01*
X0234717Y0032408D01*
X0235263Y0031656D01*
X0235919Y0031000D01*
X0236671Y0030454D01*
X0237498Y0030032D01*
X0238381Y0029745D01*
X0239299Y0029600D01*
X0239763Y0029600D01*
X0239763Y0035500D01*
X0239763Y0035500D01*
X0239763Y0041400D01*
X0239299Y0041400D01*
X0238381Y0041255D01*
X0237498Y0040968D01*
X0236671Y0040546D01*
X0235919Y0040000D01*
X0235263Y0039344D01*
X0234717Y0038592D01*
X0234681Y0038522D01*
X0234595Y0038729D01*
X0232992Y0040332D01*
X0230897Y0041200D01*
X0228629Y0041200D01*
X0226534Y0040332D01*
X0224931Y0038729D01*
X0224614Y0037963D01*
X0224468Y0038314D01*
X0222077Y0040705D01*
X0218954Y0041999D01*
X0215572Y0041999D01*
X0212449Y0040705D01*
X0210058Y0038314D01*
X0208764Y0035191D01*
X0208764Y0031809D01*
X0210058Y0028686D01*
X0211043Y0027700D01*
X0173524Y0027700D01*
X0174095Y0028271D01*
X0174963Y0030366D01*
X0174963Y0032634D01*
X0174095Y0034729D01*
X0172492Y0036332D01*
X0171604Y0036700D01*
X0176150Y0036700D01*
X0176895Y0035955D01*
X0178431Y0035319D01*
X0180095Y0035319D01*
X0181631Y0035955D01*
X0182808Y0037132D01*
X0183444Y0038668D01*
X0183444Y0040332D01*
X0182808Y0041868D01*
X0181631Y0043045D01*
X0180095Y0043681D01*
X0178431Y0043681D01*
X0176895Y0043045D01*
X0176150Y0042300D01*
X0146706Y0042300D01*
X0145677Y0041874D01*
X0140826Y0037022D01*
X0140397Y0037200D01*
X0138129Y0037200D01*
X0137700Y0037022D01*
X0135637Y0039086D01*
X0134849Y0039874D01*
X0133820Y0040300D01*
X0128292Y0040300D01*
X0128444Y0040668D01*
X0128444Y0042332D01*
X0128292Y0042700D01*
X0162820Y0042700D01*
X0163849Y0043126D01*
X0168423Y0047700D01*
X0194103Y0047700D01*
X0197889Y0043914D01*
X0198677Y0043126D01*
X0199706Y0042700D01*
X0239820Y0042700D01*
X0240849Y0043126D01*
X0241637Y0043914D01*
X0250700Y0052978D01*
X0251129Y0052800D01*
X0253397Y0052800D01*
X0255492Y0053668D01*
X0257095Y0055271D01*
X0257963Y0057366D01*
X0257963Y0059634D01*
X0257095Y0061729D01*
X0255950Y0062874D01*
X0256129Y0062800D01*
X0258397Y0062800D01*
X0260492Y0063668D01*
X0262095Y0065271D01*
X0262963Y0067366D01*
X0262963Y0069634D01*
X0262095Y0071729D01*
X0260492Y0073332D01*
X0258397Y0074200D01*
X0256129Y0074200D01*
X0254034Y0073332D01*
X0252431Y0071729D01*
X0252263Y0071324D01*
X0252095Y0071729D01*
X0250492Y0073332D01*
X0248397Y0074200D01*
X0246129Y0074200D01*
X0244034Y0073332D01*
X0242431Y0071729D01*
X0242263Y0071324D01*
X0242095Y0071729D01*
X0240492Y0073332D01*
X0238397Y0074200D01*
X0236129Y0074200D01*
X0235700Y0074022D01*
X0225884Y0083838D01*
X0225931Y0083819D01*
X0227595Y0083819D01*
X0229131Y0084455D01*
X0230308Y0085632D01*
X0230944Y0087168D01*
X0230944Y0088832D01*
X0230308Y0090368D01*
X0229131Y0091545D01*
X0227595Y0092181D01*
X0226259Y0092181D01*
X0205736Y0112704D01*
X0204780Y0113100D01*
X0188340Y0113100D01*
X0176736Y0124704D01*
X0175780Y0125100D01*
X0171680Y0125100D01*
X0173051Y0125668D01*
X0174654Y0127271D01*
X0175522Y0129366D01*
X0175522Y0131634D01*
X0174654Y0133729D01*
X0173051Y0135332D01*
X0170956Y0136200D01*
X0168688Y0136200D01*
X0166593Y0135332D01*
X0164990Y0133729D01*
X0164904Y0133522D01*
X0164868Y0133592D01*
X0164322Y0134344D01*
X0163666Y0135000D01*
X0162914Y0135546D01*
X0162087Y0135968D01*
X0161204Y0136255D01*
X0160286Y0136400D01*
X0159822Y0136400D01*
X0159358Y0136400D01*
X0158440Y0136255D01*
X0157557Y0135968D01*
X0156730Y0135546D01*
X0155978Y0135000D01*
X0155322Y0134344D01*
X0154776Y0133592D01*
X0154354Y0132765D01*
X0154067Y0131882D01*
X0153922Y0130964D01*
X0153922Y0130500D01*
X0159822Y0130500D01*
X0159822Y0130500D01*
X0153922Y0130500D01*
X0153922Y0130036D01*
X0154067Y0129118D01*
X0154354Y0128235D01*
X0154776Y0127408D01*
X0155322Y0126656D01*
X0155978Y0126000D01*
X0156730Y0125454D01*
X0157424Y0125100D01*
X0142942Y0125100D01*
X0144527Y0126686D01*
X0145821Y0129809D01*
X0145821Y0133191D01*
X0144527Y0136314D01*
X0142136Y0138705D01*
X0139013Y0139999D01*
X0135631Y0139999D01*
X0132508Y0138705D01*
X0130117Y0136314D01*
X0128823Y0133191D01*
X0128823Y0129809D01*
X0130117Y0126686D01*
X0131702Y0125100D01*
X0130242Y0125100D01*
X0129286Y0124704D01*
X0128555Y0123973D01*
X0116934Y0112352D01*
X0069840Y0112352D01*
X0068885Y0111956D01*
X0068614Y0111685D01*
X0067278Y0111685D01*
X0065741Y0111048D01*
X0064565Y0109872D01*
X0063928Y0108336D01*
X0063928Y0106672D01*
X0064373Y0105600D01*
X0062944Y0105600D01*
X0062944Y0106332D01*
X0062308Y0107868D01*
X0061131Y0109045D01*
X0059595Y0109681D01*
X0057931Y0109681D01*
X0056395Y0109045D01*
X0055218Y0107868D01*
X0055061Y0107488D01*
X0054595Y0107681D01*
X0053944Y0107681D01*
X0053944Y0108832D01*
X0053308Y0110368D01*
X0052131Y0111545D01*
X0050595Y0112181D01*
X0048931Y0112181D01*
X0047395Y0111545D01*
X0046218Y0110368D01*
X0045582Y0108832D01*
X0045582Y0107168D01*
X0046218Y0105632D01*
X0047163Y0104687D01*
X0047163Y0101513D01*
X0047131Y0101545D01*
X0045595Y0102181D01*
X0044259Y0102181D01*
X0038967Y0107473D01*
X0038236Y0108204D01*
X0037280Y0108600D01*
X0023576Y0108600D01*
X0022631Y0109545D01*
X0021095Y0110181D01*
X0019431Y0110181D01*
X0017895Y0109545D01*
X0016718Y0108368D01*
X0016082Y0106832D01*
X0016082Y0105168D01*
X0016718Y0103632D01*
X0017895Y0102455D01*
X0019431Y0101819D01*
X0021095Y0101819D01*
X0022631Y0102455D01*
X0023576Y0103400D01*
X0035686Y0103400D01*
X0040582Y0098504D01*
X0040582Y0097168D01*
X0041218Y0095632D01*
X0042395Y0094455D01*
X0043931Y0093819D01*
X0045595Y0093819D01*
X0047131Y0094455D01*
X0047163Y0094487D01*
X0047163Y0094077D01*
X0041793Y0095057D02*
X0004463Y0095057D01*
X0004463Y0092658D02*
X0030744Y0092658D01*
X0028346Y0090260D02*
X0016101Y0090260D01*
X0008425Y0090260D02*
X0004463Y0090260D01*
X0004463Y0087861D02*
X0005947Y0087861D01*
X0012263Y0080500D02*
X0022263Y0070500D01*
X0048263Y0070500D01*
X0052444Y0071072D02*
X0053309Y0071072D01*
X0051206Y0073470D02*
X0055708Y0073470D01*
X0058263Y0071500D02*
X0068263Y0071500D01*
X0071349Y0068673D02*
X0073223Y0068673D01*
X0073245Y0066275D02*
X0068076Y0066275D01*
X0064450Y0066275D02*
X0057563Y0066275D01*
X0058114Y0063876D02*
X0055165Y0063876D01*
X0052263Y0065500D02*
X0058263Y0071500D01*
X0052263Y0065500D02*
X0017263Y0065500D01*
X0012263Y0070500D01*
X0021420Y0075869D02*
X0074463Y0075869D01*
X0074463Y0078267D02*
X0019021Y0078267D01*
X0017963Y0080666D02*
X0074463Y0080666D01*
X0074463Y0083064D02*
X0028177Y0083064D01*
X0030903Y0085463D02*
X0074838Y0085463D01*
X0077164Y0087861D02*
X0033301Y0087861D01*
X0040582Y0097455D02*
X0004463Y0097455D01*
X0004463Y0099854D02*
X0039232Y0099854D01*
X0036834Y0102252D02*
X0022141Y0102252D01*
X0018385Y0102252D02*
X0004463Y0102252D01*
X0004463Y0104651D02*
X0016296Y0104651D01*
X0016172Y0107049D02*
X0004666Y0107049D01*
X0005609Y0109448D02*
X0017798Y0109448D01*
X0022728Y0109448D02*
X0045837Y0109448D01*
X0048123Y0111846D02*
X0007891Y0111846D01*
X0039391Y0107049D02*
X0045631Y0107049D01*
X0047163Y0104651D02*
X0041789Y0104651D01*
X0044188Y0102252D02*
X0047163Y0102252D01*
X0053689Y0109448D02*
X0057368Y0109448D01*
X0060158Y0109448D02*
X0064389Y0109448D01*
X0068775Y0111846D02*
X0051403Y0111846D01*
X0062647Y0107049D02*
X0063928Y0107049D01*
X0050700Y0090260D02*
X0079563Y0090260D01*
X0080063Y0073470D02*
X0080139Y0073470D01*
X0080063Y0071072D02*
X0080329Y0071072D01*
X0081303Y0068673D02*
X0081463Y0068673D01*
X0081281Y0066275D02*
X0082528Y0066275D01*
X0074463Y0071072D02*
X0072444Y0071072D01*
X0071972Y0073470D02*
X0074463Y0073470D01*
X0055715Y0061478D02*
X0048384Y0061478D01*
X0048200Y0059079D02*
X0053317Y0059079D01*
X0059969Y0056681D02*
X0061531Y0056681D01*
X0060082Y0054282D02*
X0057571Y0054282D01*
X0064263Y0053500D02*
X0148263Y0053500D01*
X0153263Y0058500D01*
X0193263Y0058500D01*
X0194717Y0047087D02*
X0167809Y0047087D01*
X0165411Y0044688D02*
X0197115Y0044688D01*
X0183444Y0039891D02*
X0211634Y0039891D01*
X0209717Y0037493D02*
X0182957Y0037493D01*
X0182386Y0042290D02*
X0270063Y0042290D01*
X0270063Y0044688D02*
X0242411Y0044688D01*
X0241637Y0043914D02*
X0241637Y0043914D01*
X0244809Y0047087D02*
X0270063Y0047087D01*
X0270063Y0049485D02*
X0247208Y0049485D01*
X0249606Y0051884D02*
X0270063Y0051884D01*
X0270063Y0054282D02*
X0256106Y0054282D01*
X0257679Y0056681D02*
X0270063Y0056681D01*
X0270063Y0059079D02*
X0257963Y0059079D01*
X0257199Y0061478D02*
X0270063Y0061478D01*
X0270063Y0063876D02*
X0260700Y0063876D01*
X0262511Y0066275D02*
X0270063Y0066275D01*
X0270063Y0068673D02*
X0262963Y0068673D01*
X0262367Y0071072D02*
X0270063Y0071072D01*
X0270063Y0073470D02*
X0260159Y0073470D01*
X0254367Y0073470D02*
X0250159Y0073470D01*
X0244367Y0073470D02*
X0240159Y0073470D01*
X0233854Y0075869D02*
X0270063Y0075869D01*
X0270063Y0078267D02*
X0231456Y0078267D01*
X0229057Y0080666D02*
X0270063Y0080666D01*
X0270063Y0083064D02*
X0226658Y0083064D01*
X0230139Y0085463D02*
X0270063Y0085463D01*
X0270063Y0087861D02*
X0230944Y0087861D01*
X0230353Y0090260D02*
X0270063Y0090260D01*
X0270063Y0092658D02*
X0225782Y0092658D01*
X0223383Y0095057D02*
X0270063Y0095057D01*
X0270063Y0097455D02*
X0220985Y0097455D01*
X0218586Y0099854D02*
X0270063Y0099854D01*
X0270063Y0102252D02*
X0216188Y0102252D01*
X0213789Y0104651D02*
X0270063Y0104651D01*
X0269860Y0107049D02*
X0211391Y0107049D01*
X0208992Y0109448D02*
X0268917Y0109448D01*
X0266635Y0111846D02*
X0206594Y0111846D01*
X0203186Y0107900D02*
X0222582Y0088504D01*
X0222582Y0087168D01*
X0222601Y0087121D01*
X0221849Y0087874D01*
X0220820Y0088300D01*
X0217376Y0088300D01*
X0216631Y0089045D01*
X0215095Y0089681D01*
X0213431Y0089681D01*
X0211895Y0089045D01*
X0210718Y0087868D01*
X0210172Y0086550D01*
X0201849Y0094874D01*
X0200820Y0095300D01*
X0160376Y0095300D01*
X0159631Y0096045D01*
X0158095Y0096681D01*
X0156431Y0096681D01*
X0154895Y0096045D01*
X0153718Y0094868D01*
X0153082Y0093332D01*
X0153082Y0091668D01*
X0153718Y0090132D01*
X0154895Y0088955D01*
X0156431Y0088319D01*
X0157082Y0088319D01*
X0157082Y0087168D01*
X0157649Y0085800D01*
X0150923Y0085800D01*
X0148944Y0087779D01*
X0148944Y0088832D01*
X0148308Y0090368D01*
X0147131Y0091545D01*
X0145595Y0092181D01*
X0143931Y0092181D01*
X0142395Y0091545D01*
X0141218Y0090368D01*
X0141175Y0090265D01*
X0124467Y0106973D01*
X0123736Y0107704D01*
X0122780Y0108100D01*
X0120036Y0108100D01*
X0131836Y0119900D01*
X0139175Y0119900D01*
X0138876Y0119601D01*
X0138239Y0118064D01*
X0138239Y0116401D01*
X0138322Y0116200D01*
X0136129Y0116200D01*
X0134034Y0115332D01*
X0133189Y0114487D01*
X0132631Y0115045D01*
X0131095Y0115681D01*
X0129431Y0115681D01*
X0127895Y0115045D01*
X0126718Y0113868D01*
X0126082Y0112332D01*
X0126082Y0110668D01*
X0126718Y0109132D01*
X0127663Y0108187D01*
X0127663Y0106983D01*
X0128059Y0106027D01*
X0131059Y0103027D01*
X0131790Y0102296D01*
X0132746Y0101900D01*
X0141780Y0101900D01*
X0142736Y0102296D01*
X0145500Y0105060D01*
X0146129Y0104800D01*
X0148397Y0104800D01*
X0150492Y0105668D01*
X0152095Y0107271D01*
X0152263Y0107676D01*
X0152431Y0107271D01*
X0154034Y0105668D01*
X0156129Y0104800D01*
X0158397Y0104800D01*
X0160492Y0105668D01*
X0162095Y0107271D01*
X0162263Y0107676D01*
X0162431Y0107271D01*
X0164034Y0105668D01*
X0166129Y0104800D01*
X0168397Y0104800D01*
X0170492Y0105668D01*
X0172095Y0107271D01*
X0172263Y0107676D01*
X0172431Y0107271D01*
X0174034Y0105668D01*
X0176129Y0104800D01*
X0178397Y0104800D01*
X0180492Y0105668D01*
X0182095Y0107271D01*
X0182963Y0109366D01*
X0182963Y0111123D01*
X0185790Y0108296D01*
X0186746Y0107900D01*
X0203186Y0107900D01*
X0204037Y0107049D02*
X0181873Y0107049D01*
X0182963Y0109448D02*
X0184638Y0109448D01*
X0187195Y0114245D02*
X0216531Y0114245D01*
X0211922Y0116643D02*
X0184796Y0116643D01*
X0182398Y0119042D02*
X0209456Y0119042D01*
X0208559Y0119939D02*
X0208559Y0119939D01*
X0207692Y0121440D02*
X0179999Y0121440D01*
X0177601Y0123839D02*
X0188608Y0123839D01*
X0187508Y0124295D02*
X0190631Y0123001D01*
X0194013Y0123001D01*
X0197136Y0124295D01*
X0199527Y0126686D01*
X0200821Y0129809D01*
X0200821Y0133191D01*
X0199527Y0136314D01*
X0197136Y0138705D01*
X0194013Y0139999D01*
X0190631Y0139999D01*
X0187508Y0138705D01*
X0185117Y0136314D01*
X0183823Y0133191D01*
X0183823Y0129809D01*
X0185117Y0126686D01*
X0187508Y0124295D01*
X0185565Y0126237D02*
X0173621Y0126237D01*
X0175220Y0128636D02*
X0184309Y0128636D01*
X0183823Y0131034D02*
X0175522Y0131034D01*
X0174777Y0133433D02*
X0183923Y0133433D01*
X0184917Y0135832D02*
X0171845Y0135832D01*
X0167799Y0135832D02*
X0162354Y0135832D01*
X0159822Y0135832D02*
X0159822Y0135832D01*
X0159822Y0136400D02*
X0159822Y0130500D01*
X0159822Y0130500D01*
X0159822Y0136400D01*
X0157290Y0135832D02*
X0144727Y0135832D01*
X0142612Y0138230D02*
X0187032Y0138230D01*
X0194603Y0143027D02*
X0135041Y0143027D01*
X0129504Y0140629D02*
X0200141Y0140629D01*
X0202513Y0138230D02*
X0197612Y0138230D01*
X0199727Y0135832D02*
X0203898Y0135832D01*
X0204674Y0133433D02*
X0200721Y0133433D01*
X0200821Y0131034D02*
X0205087Y0131034D01*
X0205122Y0128636D02*
X0200335Y0128636D01*
X0199079Y0126237D02*
X0205657Y0126237D01*
X0206294Y0123861D02*
X0206294Y0123861D01*
X0206307Y0123839D02*
X0196036Y0123839D01*
X0211761Y0116737D02*
X0211761Y0116737D01*
X0206435Y0104651D02*
X0145091Y0104651D01*
X0142631Y0102252D02*
X0208834Y0102252D01*
X0211232Y0099854D02*
X0131586Y0099854D01*
X0133985Y0097455D02*
X0213631Y0097455D01*
X0216029Y0095057D02*
X0201407Y0095057D01*
X0204064Y0092658D02*
X0218428Y0092658D01*
X0220826Y0090260D02*
X0206463Y0090260D01*
X0208861Y0087861D02*
X0210715Y0087861D01*
X0221861Y0087861D02*
X0222582Y0087861D01*
X0242263Y0065676D02*
X0242431Y0065271D01*
X0243410Y0064292D01*
X0242727Y0064400D01*
X0242263Y0064400D01*
X0242263Y0058500D01*
X0242263Y0058500D01*
X0242263Y0052600D01*
X0242403Y0052600D01*
X0238103Y0048300D01*
X0230740Y0048300D01*
X0233736Y0051296D01*
X0234467Y0052027D01*
X0234863Y0052983D01*
X0234863Y0053407D01*
X0235492Y0053668D01*
X0237095Y0055271D01*
X0237181Y0055478D01*
X0237217Y0055408D01*
X0237763Y0054656D01*
X0238419Y0054000D01*
X0239171Y0053454D01*
X0239998Y0053032D01*
X0240881Y0052745D01*
X0241799Y0052600D01*
X0242263Y0052600D01*
X0242263Y0058500D01*
X0242263Y0058500D01*
X0242263Y0064400D01*
X0241799Y0064400D01*
X0241116Y0064292D01*
X0242095Y0065271D01*
X0242263Y0065676D01*
X0242263Y0063876D02*
X0242263Y0063876D01*
X0242263Y0061478D02*
X0242263Y0061478D01*
X0242263Y0059079D02*
X0242263Y0059079D01*
X0242263Y0056681D02*
X0242263Y0056681D01*
X0242263Y0054282D02*
X0242263Y0054282D01*
X0238137Y0054282D02*
X0236106Y0054282D01*
X0234324Y0051884D02*
X0241687Y0051884D01*
X0239288Y0049485D02*
X0231925Y0049485D01*
X0233433Y0039891D02*
X0235810Y0039891D01*
X0239763Y0039891D02*
X0239763Y0039891D01*
X0239763Y0037493D02*
X0239763Y0037493D01*
X0239763Y0035094D02*
X0239763Y0035094D01*
X0239763Y0032696D02*
X0239763Y0032696D01*
X0239763Y0030297D02*
X0239763Y0030297D01*
X0242547Y0030297D02*
X0247429Y0030297D01*
X0252097Y0030297D02*
X0254390Y0030297D01*
X0255845Y0027899D02*
X0223681Y0027899D01*
X0225136Y0030297D02*
X0227429Y0030297D01*
X0232097Y0030297D02*
X0236979Y0030297D01*
X0243716Y0039891D02*
X0246093Y0039891D01*
X0253433Y0039891D02*
X0256634Y0039891D01*
X0267892Y0039891D02*
X0270063Y0039891D01*
X0270063Y0037493D02*
X0269809Y0037493D01*
X0226093Y0039891D02*
X0222892Y0039891D01*
X0208764Y0035094D02*
X0173730Y0035094D01*
X0174937Y0032696D02*
X0208764Y0032696D01*
X0209390Y0030297D02*
X0174934Y0030297D01*
X0173723Y0027899D02*
X0210845Y0027899D01*
X0146681Y0042290D02*
X0128444Y0042290D01*
X0134807Y0039891D02*
X0143694Y0039891D01*
X0141296Y0037493D02*
X0137230Y0037493D01*
X0063771Y0059079D02*
X0062368Y0059079D01*
X0044263Y0060500D02*
X0012263Y0060500D01*
X0113113Y0114245D02*
X0118827Y0114245D01*
X0117722Y0116643D02*
X0121226Y0116643D01*
X0117883Y0116737D02*
X0117883Y0116737D01*
X0113961Y0114472D02*
X0113961Y0114472D01*
X0120188Y0119042D02*
X0123624Y0119042D01*
X0121085Y0119939D02*
X0121085Y0119939D01*
X0121952Y0121440D02*
X0126023Y0121440D01*
X0128421Y0123839D02*
X0123337Y0123839D01*
X0123350Y0123861D02*
X0123350Y0123861D01*
X0123987Y0126237D02*
X0130565Y0126237D01*
X0129309Y0128636D02*
X0124522Y0128636D01*
X0124557Y0131034D02*
X0128823Y0131034D01*
X0128923Y0133433D02*
X0124970Y0133433D01*
X0125746Y0135832D02*
X0129917Y0135832D01*
X0132032Y0138230D02*
X0127131Y0138230D01*
X0145721Y0133433D02*
X0154695Y0133433D01*
X0153933Y0131034D02*
X0145821Y0131034D01*
X0145335Y0128636D02*
X0154224Y0128636D01*
X0155741Y0126237D02*
X0144079Y0126237D01*
X0138644Y0119042D02*
X0130978Y0119042D01*
X0128579Y0116643D02*
X0138239Y0116643D01*
X0127095Y0114245D02*
X0126181Y0114245D01*
X0126082Y0111846D02*
X0123782Y0111846D01*
X0121384Y0109448D02*
X0126587Y0109448D01*
X0127663Y0107049D02*
X0124391Y0107049D01*
X0126789Y0104651D02*
X0129435Y0104651D01*
X0129188Y0102252D02*
X0131895Y0102252D01*
X0136383Y0095057D02*
X0153907Y0095057D01*
X0153082Y0092658D02*
X0138782Y0092658D01*
X0148353Y0090260D02*
X0153665Y0090260D01*
X0157082Y0087861D02*
X0148944Y0087861D01*
X0151873Y0107049D02*
X0152653Y0107049D01*
X0161873Y0107049D02*
X0162653Y0107049D01*
X0171873Y0107049D02*
X0172653Y0107049D01*
X0159822Y0131034D02*
X0159822Y0131034D01*
X0159822Y0133433D02*
X0159822Y0133433D01*
D14*
X0091263Y0098000D02*
X0077263Y0084000D01*
X0077263Y0080500D01*
X0077263Y0067500D01*
X0084263Y0068500D02*
X0092263Y0060500D01*
X0122263Y0060500D01*
X0124763Y0058000D01*
X0131263Y0058000D02*
X0131263Y0064000D01*
X0136763Y0069500D01*
X0124263Y0069500D02*
X0104263Y0069500D01*
X0098263Y0075500D01*
X0084263Y0072500D02*
X0084263Y0068500D01*
X0106263Y0085500D02*
X0118263Y0073500D01*
X0153263Y0073500D01*
X0159263Y0067500D01*
X0167263Y0067000D02*
X0167263Y0076500D01*
X0160763Y0083000D01*
X0149763Y0083000D01*
X0144763Y0088000D01*
X0157263Y0092500D02*
X0200263Y0092500D01*
X0224263Y0068500D01*
X0227263Y0068500D01*
X0237263Y0068500D02*
X0220263Y0085500D01*
X0214263Y0085500D01*
X0198763Y0076000D02*
X0191263Y0083500D01*
X0198763Y0076000D02*
X0198763Y0054000D01*
X0195263Y0050500D01*
X0200263Y0045500D01*
X0239263Y0045500D01*
X0252263Y0058500D01*
X0222263Y0058500D02*
X0222263Y0061000D01*
X0208263Y0075000D01*
X0188263Y0066000D02*
X0184763Y0062500D01*
X0150763Y0062500D01*
X0146263Y0058000D01*
X0137763Y0058000D01*
X0156263Y0049500D02*
X0159263Y0052500D01*
X0156263Y0049500D02*
X0100263Y0049500D01*
X0099263Y0048500D01*
X0103263Y0041500D02*
X0124263Y0041500D01*
X0133263Y0037500D02*
X0075263Y0037500D01*
X0072263Y0040500D01*
X0037263Y0040500D01*
X0027263Y0030500D01*
X0037263Y0030500D02*
X0043263Y0036500D01*
X0066263Y0036500D01*
X0072263Y0030500D01*
X0110263Y0030500D01*
X0133263Y0037500D02*
X0139263Y0031500D01*
X0147263Y0039500D01*
X0179263Y0039500D01*
X0167263Y0050500D02*
X0162263Y0045500D01*
X0110263Y0045500D01*
X0157763Y0078500D02*
X0160263Y0076000D01*
X0157763Y0078500D02*
X0124763Y0078500D01*
X0167263Y0050500D02*
X0195263Y0050500D01*
D15*
X0203263Y0055500D02*
X0208263Y0050500D01*
X0229263Y0050500D01*
X0232263Y0053500D01*
X0232263Y0058500D01*
X0203263Y0055500D02*
X0203263Y0080500D01*
X0226763Y0088000D02*
X0204263Y0110500D01*
X0187263Y0110500D01*
X0175263Y0122500D01*
X0130759Y0122500D01*
X0118011Y0109752D01*
X0070357Y0109752D01*
X0068109Y0107504D01*
X0061263Y0103000D02*
X0058763Y0105500D01*
X0061263Y0103000D02*
X0081263Y0103000D01*
X0083763Y0105500D01*
X0097263Y0105500D01*
X0106763Y0096000D01*
X0118763Y0096000D01*
X0130263Y0084500D01*
X0137263Y0084500D01*
X0141263Y0085000D02*
X0141263Y0086500D01*
X0122263Y0105500D01*
X0113995Y0105500D01*
X0113680Y0105815D01*
X0130263Y0107500D02*
X0133263Y0104500D01*
X0141263Y0104500D01*
X0147263Y0110500D01*
X0130263Y0111500D02*
X0130263Y0107500D01*
X0111263Y0086000D02*
X0094763Y0102500D01*
X0085263Y0102500D01*
X0083263Y0100500D01*
X0056763Y0100500D01*
X0053763Y0103500D01*
X0049763Y0108000D02*
X0049763Y0093000D01*
X0047263Y0090500D01*
X0032263Y0090500D01*
X0027263Y0085500D01*
X0017263Y0085500D01*
X0014763Y0088000D01*
X0009763Y0088000D01*
X0005263Y0083500D01*
X0005263Y0044500D01*
X0011263Y0038500D01*
X0014263Y0038500D01*
X0017263Y0035500D01*
X0111263Y0086000D02*
X0123263Y0086000D01*
X0141263Y0085000D02*
X0143763Y0082500D01*
X0044763Y0098000D02*
X0036763Y0106000D01*
X0020263Y0106000D01*
D16*
X0142420Y0117232D02*
X0162263Y0117232D01*
X0161263Y0088000D02*
X0195763Y0088000D01*
X0203263Y0080500D01*
M02*
