G75*
%MOIN*%
%OFA0B0*%
%FSLAX25Y25*%
%IPPOS*%
%LPD*%
%AMOC8*
5,1,8,0,0,1.08239X$1,22.5*
%
%ADD10R,0.02362X0.08661*%
%ADD11R,0.03150X0.04724*%
%ADD12R,0.03937X0.04331*%
%ADD13R,0.04331X0.03937*%
%ADD14R,0.07400X0.07400*%
%ADD15C,0.07400*%
%ADD16R,0.05000X0.02200*%
%ADD17R,0.02200X0.05000*%
%ADD18R,0.12500X0.01181*%
%ADD19R,0.05512X0.11811*%
%ADD20R,0.06299X0.01181*%
%ADD21C,0.01181*%
%ADD22R,0.02756X0.03937*%
%ADD23R,0.04724X0.04528*%
%ADD24R,0.05709X0.04528*%
%ADD25R,0.03937X0.02756*%
%ADD26R,0.05512X0.03543*%
%ADD27C,0.04362*%
%ADD28C,0.02400*%
%ADD29C,0.01000*%
%ADD30C,0.01200*%
%ADD31C,0.01600*%
D10*
X0038763Y0045390D03*
X0043763Y0045390D03*
X0048763Y0045390D03*
X0053763Y0045390D03*
X0058763Y0045390D03*
X0063763Y0045390D03*
X0068763Y0045390D03*
X0073763Y0045390D03*
X0078763Y0045390D03*
X0083763Y0045390D03*
X0088763Y0045390D03*
X0093763Y0045390D03*
X0093763Y0081610D03*
X0088763Y0081610D03*
X0083763Y0081610D03*
X0078763Y0081610D03*
X0073763Y0081610D03*
X0068763Y0081610D03*
X0063763Y0081610D03*
X0058763Y0081610D03*
X0053763Y0081610D03*
X0048763Y0081610D03*
X0043763Y0081610D03*
X0038763Y0081610D03*
D11*
X0058220Y0089500D03*
X0065306Y0089500D03*
X0067720Y0032500D03*
X0074806Y0032500D03*
D12*
X0032763Y0057654D03*
X0025763Y0057654D03*
X0025763Y0064346D03*
X0032763Y0064346D03*
X0033763Y0078654D03*
X0026763Y0078654D03*
X0026763Y0085346D03*
X0033763Y0085346D03*
X0014763Y0103654D03*
X0014763Y0110346D03*
X0109401Y0099366D03*
X0109401Y0092673D03*
X0122263Y0105154D03*
X0122263Y0111846D03*
X0166263Y0082846D03*
X0172763Y0082846D03*
X0179263Y0082846D03*
X0179263Y0076154D03*
X0172763Y0076154D03*
X0166263Y0076154D03*
X0189763Y0090654D03*
X0196263Y0090654D03*
X0196263Y0097346D03*
X0189763Y0097346D03*
D13*
X0211917Y0093000D03*
X0218609Y0093000D03*
X0179609Y0067500D03*
X0172917Y0067500D03*
X0118109Y0053000D03*
X0111417Y0053000D03*
X0094609Y0032500D03*
X0087917Y0032500D03*
X0032609Y0044500D03*
X0025917Y0044500D03*
X0079917Y0089000D03*
X0086609Y0089000D03*
X0092417Y0090000D03*
X0099109Y0090000D03*
X0096417Y0098000D03*
X0103109Y0098000D03*
X0032609Y0100500D03*
X0025917Y0100500D03*
X0025917Y0094500D03*
X0032609Y0094500D03*
X0017109Y0095000D03*
X0010417Y0095000D03*
X0025917Y0106500D03*
X0032609Y0106500D03*
D14*
X0012263Y0050500D03*
X0222263Y0058500D03*
D15*
X0232263Y0058500D03*
X0242263Y0058500D03*
X0252263Y0058500D03*
X0257263Y0068500D03*
X0247263Y0068500D03*
X0237263Y0068500D03*
X0227263Y0068500D03*
X0229763Y0035500D03*
X0239763Y0035500D03*
X0249763Y0035500D03*
X0169263Y0031500D03*
X0159263Y0031500D03*
X0149263Y0031500D03*
X0139263Y0031500D03*
X0129263Y0031500D03*
X0119263Y0031500D03*
X0057263Y0030500D03*
X0047263Y0030500D03*
X0037263Y0030500D03*
X0027263Y0030500D03*
X0012263Y0060500D03*
X0012263Y0070500D03*
X0012263Y0080500D03*
X0137263Y0110500D03*
X0147263Y0110500D03*
X0157263Y0110500D03*
X0167263Y0110500D03*
X0177263Y0110500D03*
X0169822Y0130500D03*
X0159822Y0130500D03*
D16*
X0151163Y0091524D03*
X0151163Y0088374D03*
X0151163Y0085224D03*
X0151163Y0082075D03*
X0151163Y0078925D03*
X0151163Y0075776D03*
X0151163Y0072626D03*
X0151163Y0069476D03*
X0117363Y0069476D03*
X0117363Y0072626D03*
X0117363Y0075776D03*
X0117363Y0078925D03*
X0117363Y0082075D03*
X0117363Y0085224D03*
X0117363Y0088374D03*
X0117363Y0091524D03*
D17*
X0123239Y0097400D03*
X0126389Y0097400D03*
X0129539Y0097400D03*
X0132688Y0097400D03*
X0135838Y0097400D03*
X0138987Y0097400D03*
X0142137Y0097400D03*
X0145287Y0097400D03*
X0145287Y0063600D03*
X0142137Y0063600D03*
X0138987Y0063600D03*
X0135838Y0063600D03*
X0132688Y0063600D03*
X0129539Y0063600D03*
X0126389Y0063600D03*
X0123239Y0063600D03*
D18*
X0105263Y0063500D03*
X0105263Y0067240D03*
X0105263Y0059760D03*
D19*
X0257763Y0088551D03*
X0257763Y0107449D03*
D20*
X0180956Y0099339D03*
X0180956Y0096780D03*
X0180956Y0094220D03*
X0180956Y0091661D03*
X0167570Y0091661D03*
X0167570Y0094220D03*
X0167570Y0096780D03*
X0167570Y0099339D03*
D21*
X0210432Y0099378D02*
X0210432Y0096622D01*
X0210432Y0099378D02*
X0213188Y0099378D01*
X0213188Y0096622D01*
X0210432Y0096622D01*
X0210432Y0097802D02*
X0213188Y0097802D01*
X0213188Y0098982D02*
X0210432Y0098982D01*
X0217338Y0099378D02*
X0217338Y0096622D01*
X0217338Y0099378D02*
X0220094Y0099378D01*
X0220094Y0096622D01*
X0217338Y0096622D01*
X0217338Y0097802D02*
X0220094Y0097802D01*
X0220094Y0098982D02*
X0217338Y0098982D01*
D22*
X0079920Y0097657D03*
X0075590Y0097657D03*
X0071259Y0097657D03*
X0066928Y0097657D03*
X0062598Y0097657D03*
X0058267Y0097657D03*
X0053936Y0097657D03*
X0049606Y0097657D03*
D23*
X0084153Y0101791D03*
X0084153Y0111988D03*
D24*
X0043208Y0103524D03*
D25*
X0042322Y0108051D03*
D26*
X0043109Y0112579D03*
D27*
X0049763Y0108000D03*
X0053763Y0103500D03*
X0058763Y0105500D03*
X0068109Y0107504D03*
X0044763Y0098000D03*
X0034263Y0112000D03*
X0020263Y0106000D03*
X0021263Y0090000D03*
X0048263Y0070500D03*
X0051763Y0060500D03*
X0044263Y0060500D03*
X0064263Y0053500D03*
X0077263Y0059500D03*
X0066263Y0062500D03*
X0077263Y0067500D03*
X0068263Y0071500D03*
X0084263Y0072500D03*
X0095263Y0065500D03*
X0098263Y0075500D03*
X0099263Y0082500D03*
X0106263Y0085500D03*
X0123263Y0086000D03*
X0124763Y0078500D03*
X0137263Y0084500D03*
X0143763Y0082500D03*
X0144763Y0088000D03*
X0157263Y0092500D03*
X0161263Y0088000D03*
X0160263Y0076000D03*
X0159263Y0067500D03*
X0167263Y0067000D03*
X0188263Y0066000D03*
X0193263Y0058500D03*
X0208263Y0075000D03*
X0191263Y0083500D03*
X0214263Y0085500D03*
X0226763Y0088000D03*
X0237263Y0090500D03*
X0197263Y0105500D03*
X0162263Y0117232D03*
X0142420Y0117232D03*
X0130263Y0111500D03*
X0113680Y0105815D03*
X0091263Y0098000D03*
X0074263Y0089000D03*
X0124263Y0069500D03*
X0136763Y0069500D03*
X0137763Y0058000D03*
X0131263Y0058000D03*
X0124763Y0058000D03*
X0110263Y0045500D03*
X0103263Y0041500D03*
X0099263Y0048500D03*
X0124263Y0041500D03*
X0137263Y0041500D03*
X0159263Y0052500D03*
X0179263Y0039500D03*
X0110263Y0030500D03*
X0017263Y0035500D03*
X0010263Y0032500D03*
D28*
X0008722Y0028550D02*
X0006748Y0029985D01*
X0005313Y0031959D01*
X0004559Y0034280D01*
X0004463Y0035500D01*
X0004463Y0042340D01*
X0007889Y0038914D01*
X0008677Y0038126D01*
X0009706Y0037700D01*
X0013649Y0037700D01*
X0013082Y0036332D01*
X0013082Y0034668D01*
X0013718Y0033132D01*
X0014895Y0031955D01*
X0016431Y0031319D01*
X0018095Y0031319D01*
X0019631Y0031955D01*
X0020808Y0033132D01*
X0021333Y0034400D01*
X0023102Y0034400D01*
X0022431Y0033729D01*
X0021563Y0031634D01*
X0021563Y0029366D01*
X0022253Y0027700D01*
X0012263Y0027700D01*
X0011043Y0027796D01*
X0008722Y0028550D01*
X0010727Y0027899D02*
X0022171Y0027899D01*
X0021563Y0030297D02*
X0006521Y0030297D01*
X0005074Y0032696D02*
X0014154Y0032696D01*
X0013082Y0035094D02*
X0004495Y0035094D01*
X0004463Y0037493D02*
X0013563Y0037493D01*
X0006912Y0039891D02*
X0004463Y0039891D01*
X0004463Y0042290D02*
X0004514Y0042290D01*
X0020371Y0032696D02*
X0022003Y0032696D01*
X0047923Y0036200D02*
X0051137Y0039414D01*
X0051143Y0039430D01*
X0051263Y0039550D01*
X0051753Y0039059D01*
X0055773Y0039059D01*
X0056263Y0039550D01*
X0056753Y0039059D01*
X0060773Y0039059D01*
X0061122Y0039408D01*
X0061231Y0039299D01*
X0061733Y0039009D01*
X0062292Y0038859D01*
X0063763Y0038859D01*
X0065234Y0038859D01*
X0065793Y0039009D01*
X0066263Y0039280D01*
X0066733Y0039009D01*
X0067292Y0038859D01*
X0068763Y0038859D01*
X0070234Y0038859D01*
X0070793Y0039009D01*
X0070963Y0039107D01*
X0070963Y0036305D01*
X0070645Y0036623D01*
X0070144Y0036912D01*
X0069584Y0037062D01*
X0067720Y0037062D01*
X0067720Y0032500D01*
X0067720Y0027938D01*
X0069584Y0027938D01*
X0070144Y0028088D01*
X0070645Y0028377D01*
X0071055Y0028787D01*
X0071311Y0029230D01*
X0072403Y0028138D01*
X0077210Y0028138D01*
X0078381Y0029309D01*
X0078381Y0035691D01*
X0077210Y0036862D01*
X0076563Y0036862D01*
X0076563Y0039250D01*
X0076753Y0039059D01*
X0080773Y0039059D01*
X0081263Y0039550D01*
X0081753Y0039059D01*
X0085117Y0039059D01*
X0085117Y0036468D01*
X0084923Y0036468D01*
X0083751Y0035297D01*
X0083751Y0029703D01*
X0084923Y0028531D01*
X0090910Y0028531D01*
X0091263Y0028884D01*
X0091616Y0028531D01*
X0097603Y0028531D01*
X0098775Y0029703D01*
X0098775Y0032706D01*
X0103388Y0037319D01*
X0104095Y0037319D01*
X0105631Y0037955D01*
X0106808Y0039132D01*
X0107444Y0040668D01*
X0107444Y0042332D01*
X0107392Y0042458D01*
X0107463Y0042387D01*
X0107463Y0033613D01*
X0106718Y0032868D01*
X0106082Y0031332D01*
X0106082Y0029668D01*
X0106718Y0028132D01*
X0107150Y0027700D01*
X0062458Y0027700D01*
X0062731Y0028235D01*
X0063018Y0029118D01*
X0063163Y0030036D01*
X0063163Y0030500D01*
X0063163Y0030964D01*
X0063018Y0031882D01*
X0062731Y0032765D01*
X0062309Y0033592D01*
X0061763Y0034344D01*
X0061107Y0035000D01*
X0060355Y0035546D01*
X0059528Y0035968D01*
X0058645Y0036255D01*
X0057727Y0036400D01*
X0057263Y0036400D01*
X0057263Y0030500D01*
X0063163Y0030500D01*
X0057263Y0030500D01*
X0057263Y0030500D01*
X0057263Y0030500D01*
X0057263Y0036400D01*
X0056799Y0036400D01*
X0055881Y0036255D01*
X0054998Y0035968D01*
X0054171Y0035546D01*
X0053419Y0035000D01*
X0052763Y0034344D01*
X0052217Y0033592D01*
X0052181Y0033522D01*
X0052095Y0033729D01*
X0050492Y0035332D01*
X0048397Y0036200D01*
X0047923Y0036200D01*
X0049215Y0037493D02*
X0070963Y0037493D01*
X0068763Y0038859D02*
X0068763Y0045390D01*
X0068763Y0045390D01*
X0068763Y0051920D01*
X0068134Y0051920D01*
X0068444Y0052668D01*
X0068444Y0054332D01*
X0067808Y0055868D01*
X0066631Y0057045D01*
X0065095Y0057681D01*
X0063431Y0057681D01*
X0061963Y0057073D01*
X0061963Y0075168D01*
X0062292Y0075080D01*
X0063763Y0075080D01*
X0065234Y0075080D01*
X0065793Y0075229D01*
X0066263Y0075501D01*
X0066569Y0075324D01*
X0065895Y0075045D01*
X0064718Y0073868D01*
X0064082Y0072332D01*
X0064082Y0070668D01*
X0064718Y0069132D01*
X0065895Y0067955D01*
X0067431Y0067319D01*
X0069095Y0067319D01*
X0070631Y0067955D01*
X0070976Y0068300D01*
X0073082Y0068300D01*
X0073082Y0066668D01*
X0073718Y0065132D01*
X0074895Y0063955D01*
X0076431Y0063319D01*
X0077484Y0063319D01*
X0080963Y0059840D01*
X0080963Y0052325D01*
X0080576Y0052713D01*
X0070444Y0062844D01*
X0070444Y0063332D01*
X0069808Y0064868D01*
X0068631Y0066045D01*
X0067095Y0066681D01*
X0065431Y0066681D01*
X0063895Y0066045D01*
X0062718Y0064868D01*
X0062082Y0063332D01*
X0062082Y0061668D01*
X0062718Y0060132D01*
X0063895Y0058955D01*
X0065431Y0058319D01*
X0065919Y0058319D01*
X0072517Y0051720D01*
X0071753Y0051720D01*
X0071404Y0051371D01*
X0071295Y0051481D01*
X0070793Y0051771D01*
X0070234Y0051920D01*
X0068763Y0051920D01*
X0068763Y0045390D01*
X0068763Y0045390D01*
X0063763Y0045390D01*
X0063763Y0045390D01*
X0065382Y0045390D01*
X0068763Y0045390D01*
X0068763Y0045390D01*
X0068763Y0038859D01*
X0068763Y0039891D02*
X0068763Y0039891D01*
X0067720Y0037062D02*
X0065855Y0037062D01*
X0065296Y0036912D01*
X0064794Y0036623D01*
X0064384Y0036213D01*
X0064095Y0035711D01*
X0063945Y0035152D01*
X0063945Y0032500D01*
X0067720Y0032500D01*
X0067720Y0032500D01*
X0067720Y0032500D01*
X0067720Y0027938D01*
X0065855Y0027938D01*
X0065296Y0028088D01*
X0064794Y0028377D01*
X0064384Y0028787D01*
X0064095Y0029289D01*
X0063945Y0029848D01*
X0063945Y0032500D01*
X0067720Y0032500D01*
X0067720Y0037062D01*
X0063763Y0038859D02*
X0063763Y0045390D01*
X0063763Y0045390D01*
X0063763Y0038859D01*
X0063763Y0039891D02*
X0063763Y0039891D01*
X0063763Y0042290D02*
X0063763Y0042290D01*
X0068763Y0042290D02*
X0068763Y0042290D01*
X0068763Y0044688D02*
X0068763Y0044688D01*
X0068763Y0047087D02*
X0068763Y0047087D01*
X0063763Y0044688D02*
X0063763Y0044688D01*
X0058763Y0045390D02*
X0058763Y0050500D01*
X0061763Y0053500D01*
X0064263Y0053500D01*
X0068444Y0054282D02*
X0069955Y0054282D01*
X0067557Y0056681D02*
X0066995Y0056681D01*
X0063771Y0059079D02*
X0061963Y0059079D01*
X0061963Y0061478D02*
X0062161Y0061478D01*
X0066263Y0062500D02*
X0078763Y0050000D01*
X0078763Y0045390D01*
X0072354Y0051884D02*
X0070371Y0051884D01*
X0068763Y0051884D02*
X0068763Y0051884D01*
X0068763Y0049485D02*
X0068763Y0049485D01*
X0058763Y0052000D02*
X0058763Y0081610D01*
X0063763Y0081610D02*
X0063763Y0085138D01*
X0063763Y0081610D01*
X0063763Y0075080D01*
X0063763Y0081610D01*
X0063763Y0081610D01*
X0063763Y0081610D01*
X0068763Y0081610D01*
X0068763Y0081610D01*
X0065382Y0081610D01*
X0063763Y0081610D01*
X0063763Y0081610D01*
X0063763Y0080666D02*
X0063763Y0080666D01*
X0063763Y0083064D02*
X0063763Y0083064D01*
X0063763Y0085138D02*
X0063763Y0085138D01*
X0058220Y0089500D02*
X0054445Y0089500D01*
X0054445Y0091500D01*
X0047440Y0091500D01*
X0050236Y0088704D01*
X0050967Y0087973D01*
X0051127Y0087586D01*
X0051263Y0087450D01*
X0051753Y0087941D01*
X0054445Y0087941D01*
X0054445Y0089500D01*
X0058220Y0089500D01*
X0058220Y0089500D01*
X0054445Y0090260D02*
X0048680Y0090260D01*
X0051013Y0087861D02*
X0051674Y0087861D01*
X0053763Y0081610D02*
X0053763Y0076000D01*
X0048263Y0070500D01*
X0052032Y0068673D02*
X0055563Y0068673D01*
X0055563Y0066275D02*
X0036931Y0066275D01*
X0036931Y0066801D02*
X0036782Y0067361D01*
X0036492Y0067863D01*
X0036082Y0068272D01*
X0035581Y0068562D01*
X0035021Y0068712D01*
X0032763Y0068712D01*
X0032763Y0064347D01*
X0032763Y0068712D01*
X0030505Y0068712D01*
X0029945Y0068562D01*
X0029444Y0068272D01*
X0029263Y0068092D01*
X0029082Y0068272D01*
X0028581Y0068562D01*
X0028021Y0068712D01*
X0025763Y0068712D01*
X0025763Y0064347D01*
X0025763Y0068712D01*
X0023505Y0068712D01*
X0022945Y0068562D01*
X0022444Y0068272D01*
X0022063Y0067892D01*
X0022063Y0084057D01*
X0021637Y0085086D01*
X0015891Y0090831D01*
X0017109Y0090831D01*
X0017109Y0095000D01*
X0017109Y0099168D01*
X0014654Y0099168D01*
X0014095Y0099019D01*
X0014078Y0099009D01*
X0014557Y0099488D01*
X0017560Y0099488D01*
X0018731Y0100660D01*
X0018731Y0102109D01*
X0019431Y0101819D01*
X0021095Y0101819D01*
X0021751Y0102091D01*
X0021751Y0097703D01*
X0021861Y0097594D01*
X0021701Y0097318D01*
X0021551Y0096758D01*
X0021551Y0094500D01*
X0025916Y0094500D01*
X0021551Y0094500D01*
X0021551Y0092242D01*
X0021701Y0091682D01*
X0021991Y0091181D01*
X0022400Y0090771D01*
X0022902Y0090481D01*
X0023462Y0090331D01*
X0025916Y0090331D01*
X0025916Y0094500D01*
X0025916Y0094500D01*
X0025917Y0094500D01*
X0025917Y0090331D01*
X0028372Y0090331D01*
X0028931Y0090481D01*
X0029397Y0090750D01*
X0029616Y0090531D01*
X0035603Y0090531D01*
X0035611Y0090539D01*
X0035963Y0090187D01*
X0035963Y0089712D01*
X0033763Y0089712D01*
X0033763Y0085347D01*
X0033763Y0089712D01*
X0031505Y0089712D01*
X0030945Y0089562D01*
X0030444Y0089272D01*
X0030263Y0089092D01*
X0030082Y0089272D01*
X0029581Y0089562D01*
X0029021Y0089712D01*
X0026763Y0089712D01*
X0026763Y0085347D01*
X0026763Y0089712D01*
X0024505Y0089712D01*
X0023945Y0089562D01*
X0023444Y0089272D01*
X0023034Y0088863D01*
X0022744Y0088361D01*
X0022594Y0087801D01*
X0022594Y0085347D01*
X0026763Y0085347D01*
X0026763Y0085347D01*
X0030931Y0085347D01*
X0033763Y0085347D01*
X0033763Y0085347D01*
X0033763Y0085346D01*
X0026763Y0085346D01*
X0026763Y0085347D01*
X0026763Y0085346D01*
X0022594Y0085346D01*
X0022594Y0082891D01*
X0022744Y0082332D01*
X0023013Y0081866D01*
X0022794Y0081647D01*
X0022794Y0075660D01*
X0023966Y0074488D01*
X0029560Y0074488D01*
X0030263Y0075191D01*
X0030963Y0074491D01*
X0030963Y0073443D01*
X0031389Y0072414D01*
X0033889Y0069914D01*
X0034677Y0069126D01*
X0035706Y0068700D01*
X0040820Y0068700D01*
X0041849Y0069126D01*
X0042637Y0069914D01*
X0044101Y0071379D01*
X0044082Y0071332D01*
X0044082Y0069668D01*
X0044718Y0068132D01*
X0045895Y0066955D01*
X0047431Y0066319D01*
X0049095Y0066319D01*
X0050631Y0066955D01*
X0051808Y0068132D01*
X0052444Y0069668D01*
X0052444Y0070156D01*
X0055563Y0073275D01*
X0055563Y0053725D01*
X0048444Y0060844D01*
X0048444Y0061332D01*
X0047808Y0062868D01*
X0046631Y0064045D01*
X0045095Y0064681D01*
X0043431Y0064681D01*
X0041895Y0064045D01*
X0040718Y0062868D01*
X0040082Y0061332D01*
X0040082Y0059668D01*
X0040718Y0058132D01*
X0041895Y0056955D01*
X0043431Y0056319D01*
X0043919Y0056319D01*
X0048517Y0051720D01*
X0046753Y0051720D01*
X0046263Y0051230D01*
X0045773Y0051720D01*
X0045002Y0051720D01*
X0037483Y0059240D01*
X0036731Y0059991D01*
X0036731Y0060647D01*
X0036513Y0060866D01*
X0036782Y0061332D01*
X0036931Y0061891D01*
X0036931Y0064346D01*
X0032763Y0064346D01*
X0032763Y0064347D01*
X0032763Y0064347D01*
X0032763Y0064346D01*
X0025763Y0064346D01*
X0025763Y0064347D01*
X0025763Y0064347D01*
X0028594Y0064347D01*
X0032763Y0064347D01*
X0036931Y0064347D01*
X0036931Y0066801D01*
X0035165Y0068673D02*
X0044494Y0068673D01*
X0044082Y0071072D02*
X0043794Y0071072D01*
X0053360Y0071072D02*
X0055563Y0071072D01*
X0061963Y0071072D02*
X0064082Y0071072D01*
X0064553Y0073470D02*
X0061963Y0073470D01*
X0063763Y0075869D02*
X0063763Y0075869D01*
X0063763Y0078267D02*
X0063763Y0078267D01*
X0068263Y0071500D02*
X0073263Y0071500D01*
X0078763Y0077000D01*
X0078763Y0081610D01*
X0075551Y0087941D02*
X0073579Y0087941D01*
X0073382Y0088416D01*
X0070882Y0090916D01*
X0070298Y0091500D01*
X0075616Y0091500D01*
X0075551Y0091258D01*
X0075551Y0089000D01*
X0079916Y0089000D01*
X0075551Y0089000D01*
X0075551Y0087941D01*
X0075551Y0090260D02*
X0071539Y0090260D01*
X0079916Y0089000D02*
X0079916Y0089000D01*
X0083298Y0096500D02*
X0083298Y0097328D01*
X0084153Y0097328D01*
X0086805Y0097328D01*
X0087082Y0097402D01*
X0087082Y0097168D01*
X0087359Y0096500D01*
X0083298Y0096500D01*
X0084153Y0097328D02*
X0084153Y0101791D01*
X0084153Y0097328D01*
X0084153Y0097455D02*
X0084153Y0097455D01*
X0084153Y0099854D02*
X0084153Y0099854D01*
X0084153Y0101791D02*
X0084153Y0101791D01*
X0084153Y0101791D01*
X0088715Y0101791D01*
X0088715Y0101365D01*
X0088895Y0101545D01*
X0090431Y0102181D01*
X0092095Y0102181D01*
X0093184Y0101730D01*
X0093423Y0101968D01*
X0099410Y0101968D01*
X0099763Y0101616D01*
X0100116Y0101968D01*
X0105272Y0101968D01*
X0105382Y0102381D01*
X0105672Y0102882D01*
X0106081Y0103292D01*
X0106583Y0103582D01*
X0107143Y0103731D01*
X0109401Y0103731D01*
X0109401Y0099366D01*
X0109401Y0099366D01*
X0113569Y0099366D01*
X0113569Y0096911D01*
X0113419Y0096352D01*
X0113150Y0095886D01*
X0113369Y0095667D01*
X0113369Y0094124D01*
X0113535Y0094124D01*
X0114035Y0094624D01*
X0120139Y0094624D01*
X0120139Y0100728D01*
X0120399Y0100988D01*
X0119466Y0100988D01*
X0118294Y0102160D01*
X0118294Y0108147D01*
X0118513Y0108366D01*
X0118244Y0108832D01*
X0118094Y0109391D01*
X0118094Y0111846D01*
X0122263Y0111846D01*
X0122263Y0111847D01*
X0122263Y0116212D01*
X0122263Y0111847D01*
X0122263Y0111847D01*
X0118094Y0111847D01*
X0118094Y0114301D01*
X0118244Y0114861D01*
X0118534Y0115363D01*
X0118944Y0115772D01*
X0119445Y0116062D01*
X0120005Y0116212D01*
X0122263Y0116212D01*
X0124521Y0116212D01*
X0125081Y0116062D01*
X0125582Y0115772D01*
X0125992Y0115363D01*
X0126282Y0114861D01*
X0126431Y0114301D01*
X0126431Y0113176D01*
X0126718Y0113868D01*
X0127895Y0115045D01*
X0129431Y0115681D01*
X0131095Y0115681D01*
X0132631Y0115045D01*
X0133189Y0114487D01*
X0134034Y0115332D01*
X0136129Y0116200D01*
X0138322Y0116200D01*
X0138239Y0116401D01*
X0138239Y0118064D01*
X0138876Y0119601D01*
X0140052Y0120777D01*
X0141589Y0121413D01*
X0143252Y0121413D01*
X0144789Y0120777D01*
X0145965Y0119601D01*
X0146602Y0118064D01*
X0146602Y0116401D01*
X0146518Y0116200D01*
X0148397Y0116200D01*
X0150492Y0115332D01*
X0150805Y0115019D01*
X0160405Y0124619D01*
X0160286Y0124600D01*
X0159822Y0124600D01*
X0159822Y0130500D01*
X0159822Y0130500D01*
X0153922Y0130500D01*
X0153922Y0130964D01*
X0154067Y0131882D01*
X0154354Y0132765D01*
X0154776Y0133592D01*
X0155322Y0134344D01*
X0155978Y0135000D01*
X0156730Y0135546D01*
X0157557Y0135968D01*
X0158440Y0136255D01*
X0159358Y0136400D01*
X0159822Y0136400D01*
X0159822Y0130500D01*
X0153922Y0130500D01*
X0153922Y0130036D01*
X0154067Y0129118D01*
X0154354Y0128235D01*
X0154776Y0127408D01*
X0155322Y0126656D01*
X0155978Y0126000D01*
X0156730Y0125454D01*
X0157557Y0125032D01*
X0158440Y0124745D01*
X0159358Y0124600D01*
X0159822Y0124600D01*
X0159822Y0130500D01*
X0159822Y0130500D01*
X0159822Y0130500D01*
X0159822Y0136400D01*
X0160286Y0136400D01*
X0161204Y0136255D01*
X0162087Y0135968D01*
X0162914Y0135546D01*
X0163666Y0135000D01*
X0164322Y0134344D01*
X0164868Y0133592D01*
X0164904Y0133522D01*
X0164990Y0133729D01*
X0166593Y0135332D01*
X0168688Y0136200D01*
X0170956Y0136200D01*
X0173051Y0135332D01*
X0174654Y0133729D01*
X0175522Y0131634D01*
X0175522Y0129366D01*
X0174654Y0127271D01*
X0173051Y0125668D01*
X0170956Y0124800D01*
X0168688Y0124800D01*
X0167959Y0125102D01*
X0163926Y0121069D01*
X0164631Y0120777D01*
X0165808Y0119601D01*
X0166444Y0118064D01*
X0166444Y0116401D01*
X0166361Y0116200D01*
X0168397Y0116200D01*
X0170492Y0115332D01*
X0172095Y0113729D01*
X0172263Y0113324D01*
X0172431Y0113729D01*
X0174034Y0115332D01*
X0176129Y0116200D01*
X0178397Y0116200D01*
X0180492Y0115332D01*
X0182095Y0113729D01*
X0182963Y0111634D01*
X0182963Y0109366D01*
X0182095Y0107271D01*
X0180492Y0105668D01*
X0179763Y0105366D01*
X0179763Y0104067D01*
X0181901Y0101929D01*
X0183157Y0101929D01*
X0184847Y0103619D01*
X0185766Y0104000D01*
X0192607Y0104000D01*
X0193526Y0103619D01*
X0194229Y0102916D01*
X0195633Y0101512D01*
X0199060Y0101512D01*
X0200231Y0100340D01*
X0200231Y0094353D01*
X0199879Y0094000D01*
X0200231Y0093647D01*
X0200231Y0087660D01*
X0199060Y0086488D01*
X0194188Y0086488D01*
X0194808Y0085868D01*
X0195444Y0084332D01*
X0195444Y0082668D01*
X0194808Y0081132D01*
X0193631Y0079955D01*
X0192095Y0079319D01*
X0190431Y0079319D01*
X0188895Y0079955D01*
X0187718Y0081132D01*
X0187082Y0082668D01*
X0187082Y0084156D01*
X0186963Y0084443D01*
X0186963Y0086491D01*
X0185794Y0087660D01*
X0185794Y0089649D01*
X0185456Y0089310D01*
X0184955Y0089021D01*
X0184395Y0088871D01*
X0180956Y0088871D01*
X0180956Y0091630D01*
X0180956Y0091630D01*
X0180956Y0088871D01*
X0178263Y0088871D01*
X0178263Y0087382D01*
X0178633Y0087012D01*
X0182060Y0087012D01*
X0183231Y0085840D01*
X0183231Y0079853D01*
X0182879Y0079500D01*
X0183231Y0079147D01*
X0183231Y0078954D01*
X0196757Y0078954D01*
X0204889Y0087086D01*
X0205677Y0087874D01*
X0206706Y0088300D01*
X0211150Y0088300D01*
X0211882Y0089031D01*
X0208923Y0089031D01*
X0207751Y0090203D01*
X0207751Y0095797D01*
X0207906Y0095952D01*
X0207842Y0096107D01*
X0207842Y0099893D01*
X0208236Y0100845D01*
X0208965Y0101574D01*
X0209917Y0101968D01*
X0213703Y0101968D01*
X0214656Y0101574D01*
X0215131Y0101098D01*
X0215170Y0101157D01*
X0215559Y0101546D01*
X0216016Y0101851D01*
X0216524Y0102061D01*
X0217063Y0102168D01*
X0218716Y0102168D01*
X0218716Y0098000D01*
X0222884Y0098000D01*
X0222884Y0099653D01*
X0222777Y0100192D01*
X0222567Y0100700D01*
X0222261Y0101157D01*
X0221873Y0101546D01*
X0221416Y0101851D01*
X0220908Y0102061D01*
X0220369Y0102168D01*
X0218716Y0102168D01*
X0218716Y0098000D01*
X0218716Y0098000D01*
X0222884Y0098000D01*
X0222884Y0096347D01*
X0222777Y0095808D01*
X0222773Y0095799D01*
X0222775Y0095797D01*
X0222775Y0090203D01*
X0221603Y0089031D01*
X0221303Y0089031D01*
X0220983Y0088260D01*
X0220196Y0087473D01*
X0218444Y0085721D01*
X0218444Y0084668D01*
X0217808Y0083132D01*
X0216631Y0081955D01*
X0215095Y0081319D01*
X0213431Y0081319D01*
X0211895Y0081955D01*
X0211150Y0082700D01*
X0208423Y0082700D01*
X0199503Y0073780D01*
X0198473Y0073354D01*
X0183231Y0073354D01*
X0183231Y0073160D01*
X0182063Y0071991D01*
X0182063Y0071468D01*
X0182603Y0071468D01*
X0183775Y0070297D01*
X0183775Y0064703D01*
X0182603Y0063531D01*
X0176616Y0063531D01*
X0176397Y0063750D01*
X0175931Y0063481D01*
X0175372Y0063331D01*
X0172917Y0063331D01*
X0172917Y0067500D01*
X0172916Y0067500D01*
X0172916Y0071668D01*
X0170462Y0071668D01*
X0169902Y0071519D01*
X0169400Y0071229D01*
X0168991Y0070819D01*
X0168986Y0070812D01*
X0168095Y0071181D01*
X0166431Y0071181D01*
X0164895Y0070545D01*
X0163718Y0069368D01*
X0163367Y0068519D01*
X0162808Y0069868D01*
X0161631Y0071045D01*
X0160095Y0071681D01*
X0158431Y0071681D01*
X0156895Y0071045D01*
X0155718Y0069868D01*
X0155663Y0069735D01*
X0155663Y0080039D01*
X0155713Y0080126D01*
X0155863Y0080685D01*
X0155863Y0082075D01*
X0155863Y0083464D01*
X0155713Y0084024D01*
X0155663Y0084111D01*
X0155663Y0085500D01*
X0157850Y0085500D01*
X0158895Y0084455D01*
X0160431Y0083819D01*
X0162095Y0083819D01*
X0162294Y0083902D01*
X0162294Y0079853D01*
X0162582Y0079565D01*
X0161095Y0080181D01*
X0159431Y0080181D01*
X0157895Y0079545D01*
X0156718Y0078368D01*
X0156082Y0076832D01*
X0156082Y0075168D01*
X0156718Y0073632D01*
X0157895Y0072455D01*
X0159431Y0071819D01*
X0161095Y0071819D01*
X0162631Y0072455D01*
X0162815Y0072639D01*
X0163466Y0071988D01*
X0169060Y0071988D01*
X0169513Y0072441D01*
X0169966Y0071988D01*
X0175560Y0071988D01*
X0176013Y0072441D01*
X0176463Y0071991D01*
X0176463Y0071316D01*
X0176397Y0071250D01*
X0175931Y0071519D01*
X0175372Y0071668D01*
X0172917Y0071668D01*
X0172917Y0067500D01*
X0172916Y0067500D01*
X0172916Y0063331D01*
X0170462Y0063331D01*
X0170063Y0063438D01*
X0170063Y0052660D01*
X0179042Y0043681D01*
X0180095Y0043681D01*
X0181631Y0043045D01*
X0182808Y0041868D01*
X0183436Y0040350D01*
X0184663Y0041577D01*
X0184663Y0059517D01*
X0185059Y0060473D01*
X0186706Y0062120D01*
X0185895Y0062455D01*
X0184718Y0063632D01*
X0184082Y0065168D01*
X0184082Y0066832D01*
X0184718Y0068368D01*
X0185895Y0069545D01*
X0187431Y0070181D01*
X0189095Y0070181D01*
X0190631Y0069545D01*
X0191376Y0068800D01*
X0198103Y0068800D01*
X0204082Y0074779D01*
X0204082Y0075832D01*
X0204718Y0077368D01*
X0205895Y0078545D01*
X0207431Y0079181D01*
X0209095Y0079181D01*
X0210631Y0078545D01*
X0211808Y0077368D01*
X0211997Y0076911D01*
X0222582Y0087496D01*
X0222582Y0088832D01*
X0223218Y0090368D01*
X0224395Y0091545D01*
X0225931Y0092181D01*
X0227595Y0092181D01*
X0229131Y0091545D01*
X0230308Y0090368D01*
X0230944Y0088832D01*
X0230944Y0087168D01*
X0230308Y0085632D01*
X0229131Y0084455D01*
X0228638Y0084251D01*
X0235348Y0084251D01*
X0236524Y0083764D01*
X0244063Y0076225D01*
X0244063Y0078688D01*
X0244550Y0079864D01*
X0253007Y0088321D01*
X0253007Y0095285D01*
X0254179Y0096457D01*
X0261347Y0096457D01*
X0262519Y0095285D01*
X0262519Y0081817D01*
X0261347Y0080646D01*
X0254383Y0080646D01*
X0250463Y0076726D01*
X0250463Y0073344D01*
X0250492Y0073332D01*
X0252095Y0071729D01*
X0252263Y0071324D01*
X0252431Y0071729D01*
X0254034Y0073332D01*
X0256129Y0074200D01*
X0258397Y0074200D01*
X0260492Y0073332D01*
X0262095Y0071729D01*
X0262963Y0069634D01*
X0262963Y0067366D01*
X0262095Y0065271D01*
X0260492Y0063668D01*
X0258397Y0062800D01*
X0256129Y0062800D01*
X0255950Y0062874D01*
X0257095Y0061729D01*
X0257963Y0059634D01*
X0257963Y0057366D01*
X0257095Y0055271D01*
X0255492Y0053668D01*
X0253397Y0052800D01*
X0252563Y0052800D01*
X0252563Y0040510D01*
X0252992Y0040332D01*
X0254595Y0038729D01*
X0254912Y0037963D01*
X0255058Y0038314D01*
X0257449Y0040705D01*
X0260572Y0041999D01*
X0263954Y0041999D01*
X0267077Y0040705D01*
X0269468Y0038314D01*
X0270063Y0036879D01*
X0270063Y0105500D01*
X0269967Y0106720D01*
X0269213Y0109041D01*
X0267778Y0111015D01*
X0265804Y0112450D01*
X0263483Y0113204D01*
X0262719Y0113264D01*
X0262719Y0107627D01*
X0257941Y0107627D01*
X0257941Y0107271D01*
X0262719Y0107271D01*
X0262719Y0101254D01*
X0262569Y0100694D01*
X0262279Y0100192D01*
X0261870Y0099783D01*
X0261368Y0099493D01*
X0260809Y0099343D01*
X0257941Y0099343D01*
X0257941Y0107271D01*
X0257585Y0107271D01*
X0252807Y0107271D01*
X0252807Y0101254D01*
X0252957Y0100694D01*
X0253247Y0100192D01*
X0253656Y0099783D01*
X0254158Y0099493D01*
X0254717Y0099343D01*
X0257585Y0099343D01*
X0257585Y0107271D01*
X0257585Y0107627D01*
X0252807Y0107627D01*
X0252807Y0113300D01*
X0220058Y0113300D01*
X0215683Y0114472D01*
X0211761Y0116737D01*
X0211761Y0116737D01*
X0208559Y0119939D01*
X0208559Y0119939D01*
X0206294Y0123861D01*
X0206294Y0123861D01*
X0205122Y0128236D01*
X0205122Y0130500D01*
X0205013Y0132171D01*
X0204148Y0135398D01*
X0202477Y0138292D01*
X0200114Y0140655D01*
X0197220Y0142326D01*
X0193993Y0143190D01*
X0192322Y0143300D01*
X0137322Y0143300D01*
X0135651Y0143190D01*
X0132424Y0142326D01*
X0129530Y0140655D01*
X0127167Y0138292D01*
X0125496Y0135398D01*
X0124632Y0132171D01*
X0124522Y0130500D01*
X0124522Y0128236D01*
X0123350Y0123861D01*
X0123350Y0123861D01*
X0121085Y0119939D01*
X0121085Y0119939D01*
X0117883Y0116737D01*
X0117883Y0116737D01*
X0113961Y0114472D01*
X0113961Y0114472D01*
X0109586Y0113300D01*
X0088715Y0113300D01*
X0088715Y0111988D01*
X0084153Y0111988D01*
X0084153Y0111988D01*
X0088715Y0111988D01*
X0088715Y0110761D01*
X0088754Y0110777D01*
X0111835Y0110777D01*
X0112791Y0110381D01*
X0113176Y0109996D01*
X0114512Y0109996D01*
X0116049Y0109360D01*
X0117225Y0108183D01*
X0117861Y0106647D01*
X0117861Y0104983D01*
X0117225Y0103447D01*
X0116049Y0102270D01*
X0114512Y0101634D01*
X0113569Y0101634D01*
X0113569Y0099366D01*
X0109401Y0099366D01*
X0109401Y0099366D01*
X0109401Y0103731D01*
X0110018Y0103731D01*
X0109499Y0104983D01*
X0109499Y0105577D01*
X0090348Y0105577D01*
X0090294Y0105523D01*
X0089563Y0104792D01*
X0088692Y0104431D01*
X0088715Y0104345D01*
X0088715Y0101791D01*
X0084153Y0101791D01*
X0079591Y0101791D01*
X0079591Y0101626D01*
X0078190Y0101626D01*
X0078190Y0102250D01*
X0079591Y0103651D01*
X0079591Y0101791D01*
X0084153Y0101791D01*
X0084153Y0101791D01*
X0088715Y0102252D02*
X0105348Y0102252D01*
X0109401Y0102252D02*
X0109401Y0102252D01*
X0109401Y0099854D02*
X0109401Y0099854D01*
X0113569Y0099854D02*
X0120139Y0099854D01*
X0120139Y0097455D02*
X0113569Y0097455D01*
X0113369Y0095057D02*
X0120139Y0095057D01*
X0118294Y0102252D02*
X0116005Y0102252D01*
X0117724Y0104651D02*
X0118294Y0104651D01*
X0118294Y0107049D02*
X0117695Y0107049D01*
X0118094Y0109448D02*
X0115835Y0109448D01*
X0118094Y0114245D02*
X0113113Y0114245D01*
X0117722Y0116643D02*
X0138239Y0116643D01*
X0138644Y0119042D02*
X0120188Y0119042D01*
X0121952Y0121440D02*
X0157227Y0121440D01*
X0159625Y0123839D02*
X0141036Y0123839D01*
X0142136Y0124295D02*
X0144527Y0126686D01*
X0145821Y0129809D01*
X0145821Y0133191D01*
X0144527Y0136314D01*
X0142136Y0138705D01*
X0139013Y0139999D01*
X0135631Y0139999D01*
X0132508Y0138705D01*
X0130117Y0136314D01*
X0128823Y0133191D01*
X0128823Y0129809D01*
X0130117Y0126686D01*
X0132508Y0124295D01*
X0135631Y0123001D01*
X0139013Y0123001D01*
X0142136Y0124295D01*
X0144079Y0126237D02*
X0155741Y0126237D01*
X0154224Y0128636D02*
X0145335Y0128636D01*
X0145821Y0131034D02*
X0153933Y0131034D01*
X0154695Y0133433D02*
X0145721Y0133433D01*
X0144727Y0135832D02*
X0157290Y0135832D01*
X0159822Y0135832D02*
X0159822Y0135832D01*
X0162354Y0135832D02*
X0167799Y0135832D01*
X0171845Y0135832D02*
X0184917Y0135832D01*
X0185117Y0136314D02*
X0183823Y0133191D01*
X0183823Y0129809D01*
X0185117Y0126686D01*
X0187508Y0124295D01*
X0190631Y0123001D01*
X0194013Y0123001D01*
X0197136Y0124295D01*
X0199527Y0126686D01*
X0200821Y0129809D01*
X0200821Y0133191D01*
X0199527Y0136314D01*
X0197136Y0138705D01*
X0194013Y0139999D01*
X0190631Y0139999D01*
X0187508Y0138705D01*
X0185117Y0136314D01*
X0187032Y0138230D02*
X0142612Y0138230D01*
X0135041Y0143027D02*
X0194603Y0143027D01*
X0200141Y0140629D02*
X0129504Y0140629D01*
X0127131Y0138230D02*
X0132032Y0138230D01*
X0129917Y0135832D02*
X0125746Y0135832D01*
X0124970Y0133433D02*
X0128923Y0133433D01*
X0128823Y0131034D02*
X0124557Y0131034D01*
X0124522Y0128636D02*
X0129309Y0128636D01*
X0130565Y0126237D02*
X0123987Y0126237D01*
X0123337Y0123839D02*
X0133608Y0123839D01*
X0146196Y0119042D02*
X0154828Y0119042D01*
X0152430Y0116643D02*
X0146602Y0116643D01*
X0164298Y0121440D02*
X0207692Y0121440D01*
X0206307Y0123839D02*
X0196036Y0123839D01*
X0199079Y0126237D02*
X0205657Y0126237D01*
X0205122Y0128636D02*
X0200335Y0128636D01*
X0200821Y0131034D02*
X0205087Y0131034D01*
X0204674Y0133433D02*
X0200721Y0133433D01*
X0199727Y0135832D02*
X0203898Y0135832D01*
X0202513Y0138230D02*
X0197612Y0138230D01*
X0183923Y0133433D02*
X0174777Y0133433D01*
X0175522Y0131034D02*
X0183823Y0131034D01*
X0184309Y0128636D02*
X0175220Y0128636D01*
X0173621Y0126237D02*
X0185565Y0126237D01*
X0188608Y0123839D02*
X0166697Y0123839D01*
X0166039Y0119042D02*
X0209456Y0119042D01*
X0211922Y0116643D02*
X0166444Y0116643D01*
X0171579Y0114245D02*
X0172947Y0114245D01*
X0181579Y0114245D02*
X0216531Y0114245D01*
X0194893Y0102252D02*
X0252807Y0102252D01*
X0252807Y0104651D02*
X0179763Y0104651D01*
X0181873Y0107049D02*
X0252807Y0107049D01*
X0252807Y0109448D02*
X0182963Y0109448D01*
X0182875Y0111846D02*
X0252807Y0111846D01*
X0257585Y0107049D02*
X0257941Y0107049D01*
X0257941Y0104651D02*
X0257585Y0104651D01*
X0257585Y0102252D02*
X0257941Y0102252D01*
X0257941Y0099854D02*
X0257585Y0099854D01*
X0261941Y0099854D02*
X0270063Y0099854D01*
X0270063Y0097455D02*
X0222884Y0097455D01*
X0222844Y0099854D02*
X0253585Y0099854D01*
X0253007Y0095057D02*
X0222775Y0095057D01*
X0222775Y0092658D02*
X0253007Y0092658D01*
X0253007Y0090260D02*
X0230353Y0090260D01*
X0230944Y0087861D02*
X0252548Y0087861D01*
X0250149Y0085463D02*
X0230139Y0085463D01*
X0237224Y0083064D02*
X0247751Y0083064D01*
X0245352Y0080666D02*
X0239623Y0080666D01*
X0234712Y0081051D02*
X0247263Y0068500D01*
X0247263Y0078051D01*
X0257763Y0088551D01*
X0262519Y0087861D02*
X0270063Y0087861D01*
X0270063Y0090260D02*
X0262519Y0090260D01*
X0262519Y0092658D02*
X0270063Y0092658D01*
X0270063Y0095057D02*
X0262519Y0095057D01*
X0262719Y0102252D02*
X0270063Y0102252D01*
X0270063Y0104651D02*
X0262719Y0104651D01*
X0262719Y0107049D02*
X0269860Y0107049D01*
X0268917Y0109448D02*
X0262719Y0109448D01*
X0262719Y0111846D02*
X0266635Y0111846D01*
X0223173Y0090260D02*
X0222775Y0090260D01*
X0222582Y0087861D02*
X0220584Y0087861D01*
X0220549Y0085463D02*
X0218444Y0085463D01*
X0218150Y0083064D02*
X0217740Y0083064D01*
X0215752Y0080666D02*
X0206389Y0080666D01*
X0205617Y0078267D02*
X0203990Y0078267D01*
X0204097Y0075869D02*
X0201592Y0075869D01*
X0202773Y0073470D02*
X0198755Y0073470D01*
X0200375Y0071072D02*
X0183000Y0071072D01*
X0183775Y0068673D02*
X0185023Y0068673D01*
X0184082Y0066275D02*
X0183775Y0066275D01*
X0182948Y0063876D02*
X0184617Y0063876D01*
X0186064Y0061478D02*
X0170063Y0061478D01*
X0170063Y0059079D02*
X0184663Y0059079D01*
X0184663Y0056681D02*
X0170063Y0056681D01*
X0170063Y0054282D02*
X0184663Y0054282D01*
X0184663Y0051884D02*
X0170839Y0051884D01*
X0173238Y0049485D02*
X0184663Y0049485D01*
X0184663Y0047087D02*
X0175636Y0047087D01*
X0178035Y0044688D02*
X0184663Y0044688D01*
X0184663Y0042290D02*
X0182386Y0042290D01*
X0193263Y0058500D02*
X0203263Y0058500D01*
X0225814Y0081051D01*
X0234712Y0081051D01*
X0242021Y0078267D02*
X0244063Y0078267D01*
X0250463Y0075869D02*
X0270063Y0075869D01*
X0270063Y0078267D02*
X0252005Y0078267D01*
X0250463Y0073470D02*
X0254367Y0073470D01*
X0260159Y0073470D02*
X0270063Y0073470D01*
X0270063Y0071072D02*
X0262367Y0071072D01*
X0262963Y0068673D02*
X0270063Y0068673D01*
X0270063Y0066275D02*
X0262511Y0066275D01*
X0260700Y0063876D02*
X0270063Y0063876D01*
X0270063Y0061478D02*
X0257199Y0061478D01*
X0257963Y0059079D02*
X0270063Y0059079D01*
X0270063Y0056681D02*
X0257679Y0056681D01*
X0256106Y0054282D02*
X0270063Y0054282D01*
X0270063Y0051884D02*
X0252563Y0051884D01*
X0252563Y0049485D02*
X0270063Y0049485D01*
X0270063Y0047087D02*
X0252563Y0047087D01*
X0252563Y0044688D02*
X0270063Y0044688D01*
X0270063Y0042290D02*
X0252563Y0042290D01*
X0253433Y0039891D02*
X0256634Y0039891D01*
X0246963Y0040510D02*
X0246534Y0040332D01*
X0244931Y0038729D01*
X0244845Y0038522D01*
X0244809Y0038592D01*
X0244263Y0039344D01*
X0243607Y0040000D01*
X0242855Y0040546D01*
X0242028Y0040968D01*
X0241145Y0041255D01*
X0240227Y0041400D01*
X0239763Y0041400D01*
X0239763Y0035500D01*
X0239763Y0035500D01*
X0239763Y0029600D01*
X0240227Y0029600D01*
X0241145Y0029745D01*
X0242028Y0030032D01*
X0242855Y0030454D01*
X0243607Y0031000D01*
X0244263Y0031656D01*
X0244809Y0032408D01*
X0244845Y0032478D01*
X0244931Y0032271D01*
X0246534Y0030668D01*
X0248629Y0029800D01*
X0250897Y0029800D01*
X0252992Y0030668D01*
X0253872Y0031548D01*
X0255058Y0028686D01*
X0256043Y0027700D01*
X0223483Y0027700D01*
X0224468Y0028686D01*
X0225654Y0031548D01*
X0226534Y0030668D01*
X0228629Y0029800D01*
X0230897Y0029800D01*
X0232992Y0030668D01*
X0234595Y0032271D01*
X0234681Y0032478D01*
X0234717Y0032408D01*
X0235263Y0031656D01*
X0235919Y0031000D01*
X0236671Y0030454D01*
X0237498Y0030032D01*
X0238381Y0029745D01*
X0239299Y0029600D01*
X0239763Y0029600D01*
X0239763Y0035500D01*
X0239763Y0035500D01*
X0239763Y0041400D01*
X0239299Y0041400D01*
X0238381Y0041255D01*
X0237498Y0040968D01*
X0236671Y0040546D01*
X0235919Y0040000D01*
X0235263Y0039344D01*
X0234717Y0038592D01*
X0234681Y0038522D01*
X0234595Y0038729D01*
X0232992Y0040332D01*
X0232563Y0040510D01*
X0232563Y0052800D01*
X0233397Y0052800D01*
X0235492Y0053668D01*
X0237095Y0055271D01*
X0237181Y0055478D01*
X0237217Y0055408D01*
X0237763Y0054656D01*
X0238419Y0054000D01*
X0239171Y0053454D01*
X0239998Y0053032D01*
X0240881Y0052745D01*
X0241799Y0052600D01*
X0242263Y0052600D01*
X0242727Y0052600D01*
X0243645Y0052745D01*
X0244528Y0053032D01*
X0245355Y0053454D01*
X0246107Y0054000D01*
X0246763Y0054656D01*
X0246963Y0054931D01*
X0246963Y0040510D01*
X0246093Y0039891D02*
X0243716Y0039891D01*
X0239763Y0039891D02*
X0239763Y0039891D01*
X0239763Y0037493D02*
X0239763Y0037493D01*
X0235810Y0039891D02*
X0233433Y0039891D01*
X0232563Y0042290D02*
X0246963Y0042290D01*
X0246963Y0044688D02*
X0232563Y0044688D01*
X0232563Y0047087D02*
X0246963Y0047087D01*
X0246963Y0049485D02*
X0232563Y0049485D01*
X0232563Y0051884D02*
X0246963Y0051884D01*
X0246963Y0054282D02*
X0246389Y0054282D01*
X0242263Y0054282D02*
X0242263Y0054282D01*
X0242263Y0052600D02*
X0242263Y0058500D01*
X0242263Y0058500D01*
X0242263Y0064400D01*
X0242727Y0064400D01*
X0243410Y0064292D01*
X0242431Y0065271D01*
X0242263Y0065676D01*
X0242095Y0065271D01*
X0241116Y0064292D01*
X0241799Y0064400D01*
X0242263Y0064400D01*
X0242263Y0058500D01*
X0242263Y0058500D01*
X0242263Y0052600D01*
X0238137Y0054282D02*
X0236106Y0054282D01*
X0242263Y0056681D02*
X0242263Y0056681D01*
X0242263Y0059079D02*
X0242263Y0059079D01*
X0242263Y0061478D02*
X0242263Y0061478D01*
X0242263Y0063876D02*
X0242263Y0063876D01*
X0213353Y0078267D02*
X0210909Y0078267D01*
X0200867Y0083064D02*
X0195444Y0083064D01*
X0194976Y0085463D02*
X0203266Y0085463D01*
X0205664Y0087861D02*
X0200231Y0087861D01*
X0200231Y0090260D02*
X0207751Y0090260D01*
X0207751Y0092658D02*
X0200231Y0092658D01*
X0200231Y0095057D02*
X0207751Y0095057D01*
X0207842Y0097455D02*
X0200231Y0097455D01*
X0200231Y0099854D02*
X0207842Y0099854D01*
X0218716Y0099854D02*
X0218716Y0099854D01*
X0218716Y0098000D02*
X0218716Y0098000D01*
X0198469Y0080666D02*
X0194342Y0080666D01*
X0188184Y0080666D02*
X0183231Y0080666D01*
X0183231Y0083064D02*
X0187082Y0083064D01*
X0186963Y0085463D02*
X0183231Y0085463D01*
X0185794Y0087861D02*
X0178263Y0087861D01*
X0180956Y0090260D02*
X0180956Y0090260D01*
X0162294Y0083064D02*
X0155863Y0083064D01*
X0155863Y0082075D02*
X0151163Y0082075D01*
X0151163Y0082075D01*
X0155863Y0082075D01*
X0155858Y0080666D02*
X0162294Y0080666D01*
X0156677Y0078267D02*
X0155663Y0078267D01*
X0155663Y0075869D02*
X0156082Y0075869D01*
X0155663Y0073470D02*
X0156880Y0073470D01*
X0156960Y0071072D02*
X0155663Y0071072D01*
X0161566Y0071072D02*
X0166167Y0071072D01*
X0168359Y0071072D02*
X0169243Y0071072D01*
X0172916Y0071072D02*
X0172917Y0071072D01*
X0172916Y0068673D02*
X0172917Y0068673D01*
X0172916Y0066275D02*
X0172917Y0066275D01*
X0172916Y0063876D02*
X0172917Y0063876D01*
X0163430Y0068673D02*
X0163303Y0068673D01*
X0139537Y0054209D02*
X0139537Y0038109D01*
X0139913Y0037200D01*
X0138129Y0037200D01*
X0136034Y0036332D01*
X0134431Y0034729D01*
X0134345Y0034522D01*
X0134309Y0034592D01*
X0133763Y0035344D01*
X0133107Y0036000D01*
X0132355Y0036546D01*
X0131528Y0036968D01*
X0130645Y0037255D01*
X0129727Y0037400D01*
X0129263Y0037400D01*
X0129263Y0031500D01*
X0129263Y0031500D01*
X0129263Y0037400D01*
X0128799Y0037400D01*
X0127881Y0037255D01*
X0126998Y0036968D01*
X0126171Y0036546D01*
X0125419Y0036000D01*
X0124763Y0035344D01*
X0124217Y0034592D01*
X0124181Y0034522D01*
X0124095Y0034729D01*
X0122492Y0036332D01*
X0122063Y0036510D01*
X0122063Y0037886D01*
X0123431Y0037319D01*
X0125095Y0037319D01*
X0126631Y0037955D01*
X0127808Y0039132D01*
X0128444Y0040668D01*
X0128444Y0041721D01*
X0132849Y0046126D01*
X0133637Y0046914D01*
X0134063Y0047943D01*
X0134063Y0054887D01*
X0134513Y0055337D01*
X0135395Y0054455D01*
X0136931Y0053819D01*
X0138595Y0053819D01*
X0139537Y0054209D01*
X0135813Y0054282D02*
X0134063Y0054282D01*
X0134063Y0051884D02*
X0139537Y0051884D01*
X0139537Y0049485D02*
X0134063Y0049485D01*
X0133708Y0047087D02*
X0139537Y0047087D01*
X0139537Y0044688D02*
X0131411Y0044688D01*
X0129012Y0042290D02*
X0139537Y0042290D01*
X0139537Y0039891D02*
X0128122Y0039891D01*
X0125514Y0037493D02*
X0139792Y0037493D01*
X0134796Y0035094D02*
X0133945Y0035094D01*
X0129263Y0035094D02*
X0129263Y0035094D01*
X0129263Y0032696D02*
X0129263Y0032696D01*
X0124581Y0035094D02*
X0123730Y0035094D01*
X0123012Y0037493D02*
X0122063Y0037493D01*
X0107463Y0037493D02*
X0104514Y0037493D01*
X0107122Y0039891D02*
X0107463Y0039891D01*
X0107444Y0042290D02*
X0107463Y0042290D01*
X0107463Y0035094D02*
X0101163Y0035094D01*
X0098775Y0032696D02*
X0106647Y0032696D01*
X0106082Y0030297D02*
X0098775Y0030297D01*
X0106952Y0027899D02*
X0062559Y0027899D01*
X0063163Y0030297D02*
X0063945Y0030297D01*
X0067720Y0030297D02*
X0067720Y0030297D01*
X0067720Y0032500D02*
X0067720Y0032500D01*
X0067720Y0032696D02*
X0067720Y0032696D01*
X0067720Y0035094D02*
X0067720Y0035094D01*
X0063945Y0035094D02*
X0060977Y0035094D01*
X0062753Y0032696D02*
X0063945Y0032696D01*
X0057263Y0032696D02*
X0057263Y0032696D01*
X0057263Y0035094D02*
X0057263Y0035094D01*
X0053548Y0035094D02*
X0050730Y0035094D01*
X0053763Y0045390D02*
X0053763Y0051000D01*
X0044263Y0060500D01*
X0048384Y0061478D02*
X0055563Y0061478D01*
X0055563Y0059079D02*
X0050209Y0059079D01*
X0052608Y0056681D02*
X0055563Y0056681D01*
X0055563Y0054282D02*
X0055006Y0054282D01*
X0048354Y0051884D02*
X0044839Y0051884D01*
X0045955Y0054282D02*
X0042441Y0054282D01*
X0042558Y0056681D02*
X0040042Y0056681D01*
X0040326Y0059079D02*
X0037644Y0059079D01*
X0036821Y0061478D02*
X0040142Y0061478D01*
X0041726Y0063876D02*
X0036931Y0063876D01*
X0032763Y0066275D02*
X0032763Y0066275D01*
X0032763Y0068673D02*
X0032763Y0068673D01*
X0030361Y0068673D02*
X0028165Y0068673D01*
X0025763Y0068673D02*
X0025763Y0068673D01*
X0025763Y0066275D02*
X0025763Y0066275D01*
X0023361Y0068673D02*
X0022063Y0068673D01*
X0022063Y0071072D02*
X0032731Y0071072D01*
X0030963Y0073470D02*
X0022063Y0073470D01*
X0022063Y0075869D02*
X0022794Y0075869D01*
X0022794Y0078267D02*
X0022063Y0078267D01*
X0022063Y0080666D02*
X0022794Y0080666D01*
X0026763Y0078654D02*
X0033763Y0078654D01*
X0033763Y0085463D02*
X0033763Y0085463D01*
X0033763Y0087861D02*
X0033763Y0087861D01*
X0035890Y0090260D02*
X0016463Y0090260D01*
X0017109Y0090831D02*
X0019564Y0090831D01*
X0020124Y0090981D01*
X0020626Y0091271D01*
X0021035Y0091681D01*
X0021325Y0092182D01*
X0021475Y0092742D01*
X0021475Y0095000D01*
X0021475Y0097258D01*
X0021325Y0097818D01*
X0021035Y0098319D01*
X0020626Y0098729D01*
X0020124Y0099019D01*
X0019564Y0099168D01*
X0017109Y0099168D01*
X0017109Y0095000D01*
X0017109Y0095000D01*
X0017109Y0095000D01*
X0017109Y0090831D01*
X0017109Y0092658D02*
X0017109Y0092658D01*
X0017110Y0095000D02*
X0017110Y0095000D01*
X0021475Y0095000D01*
X0017110Y0095000D01*
X0017109Y0095057D02*
X0017109Y0095057D01*
X0021475Y0095057D02*
X0021551Y0095057D01*
X0021551Y0092658D02*
X0021452Y0092658D01*
X0025916Y0092658D02*
X0025917Y0092658D01*
X0026763Y0087861D02*
X0026763Y0087861D01*
X0022611Y0087861D02*
X0018861Y0087861D01*
X0021260Y0085463D02*
X0022594Y0085463D01*
X0022594Y0083064D02*
X0022063Y0083064D01*
X0026763Y0085463D02*
X0026763Y0085463D01*
X0021781Y0097455D02*
X0021422Y0097455D01*
X0021751Y0099854D02*
X0017926Y0099854D01*
X0017109Y0097455D02*
X0017109Y0097455D01*
X0036775Y0109100D02*
X0036775Y0109297D01*
X0035603Y0110468D01*
X0029616Y0110468D01*
X0029263Y0110116D01*
X0028910Y0110468D01*
X0025908Y0110468D01*
X0024444Y0111933D01*
X0023656Y0112720D01*
X0022627Y0113146D01*
X0018731Y0113146D01*
X0018731Y0113300D01*
X0038354Y0113300D01*
X0038354Y0110365D01*
X0038303Y0110278D01*
X0038154Y0109719D01*
X0038154Y0108286D01*
X0037736Y0108704D01*
X0036780Y0109100D01*
X0036775Y0109100D01*
X0036624Y0109448D02*
X0038154Y0109448D01*
X0038354Y0111846D02*
X0024530Y0111846D01*
X0043208Y0103524D02*
X0048262Y0103524D01*
X0048262Y0104096D01*
X0048931Y0103819D01*
X0049582Y0103819D01*
X0049582Y0102668D01*
X0050014Y0101626D01*
X0048262Y0101626D01*
X0048262Y0103524D01*
X0043208Y0103524D01*
X0043208Y0103524D01*
X0048262Y0102252D02*
X0049754Y0102252D01*
X0063467Y0111973D02*
X0064802Y0110638D01*
X0064957Y0110264D01*
X0065741Y0111048D01*
X0067278Y0111685D01*
X0068941Y0111685D01*
X0070478Y0111048D01*
X0071654Y0109872D01*
X0072291Y0108336D01*
X0072291Y0106672D01*
X0071654Y0105136D01*
X0070478Y0103959D01*
X0069528Y0103566D01*
X0069528Y0101809D01*
X0069591Y0101826D01*
X0071259Y0101826D01*
X0071259Y0097658D01*
X0071259Y0097658D01*
X0071259Y0101826D01*
X0072927Y0101826D01*
X0072990Y0101809D01*
X0072990Y0102810D01*
X0072990Y0103844D01*
X0073386Y0104800D01*
X0077786Y0109200D01*
X0078742Y0109596D01*
X0079591Y0109596D01*
X0079591Y0111988D01*
X0084153Y0111988D01*
X0084153Y0111988D01*
X0079591Y0111988D01*
X0079591Y0113300D01*
X0047865Y0113300D01*
X0047865Y0111740D01*
X0048931Y0112181D01*
X0050267Y0112181D01*
X0050790Y0112704D01*
X0051746Y0113100D01*
X0061780Y0113100D01*
X0062736Y0112704D01*
X0063467Y0111973D01*
X0063594Y0111846D02*
X0079591Y0111846D01*
X0078384Y0109448D02*
X0071830Y0109448D01*
X0072291Y0107049D02*
X0075635Y0107049D01*
X0073324Y0104651D02*
X0071169Y0104651D01*
X0069528Y0102252D02*
X0072990Y0102252D01*
X0071259Y0099854D02*
X0071259Y0099854D01*
X0078192Y0102252D02*
X0079591Y0102252D01*
X0089222Y0104651D02*
X0109637Y0104651D01*
X0122263Y0111846D02*
X0088715Y0111846D01*
X0122263Y0114245D02*
X0122263Y0114245D01*
X0126431Y0114245D02*
X0127095Y0114245D01*
X0159822Y0126237D02*
X0159822Y0126237D01*
X0159822Y0128636D02*
X0159822Y0128636D01*
X0159822Y0131034D02*
X0159822Y0131034D01*
X0159822Y0133433D02*
X0159822Y0133433D01*
X0181578Y0102252D02*
X0183480Y0102252D01*
X0157887Y0085463D02*
X0155663Y0085463D01*
X0117363Y0085224D02*
X0112663Y0085224D01*
X0112663Y0083835D01*
X0112813Y0083275D01*
X0112863Y0083189D01*
X0112863Y0080961D01*
X0112813Y0080874D01*
X0112663Y0080315D01*
X0112663Y0078925D01*
X0112663Y0078576D01*
X0106982Y0078576D01*
X0105953Y0078149D01*
X0102425Y0074621D01*
X0102444Y0074668D01*
X0102444Y0076332D01*
X0101808Y0077868D01*
X0100631Y0079045D01*
X0099095Y0079681D01*
X0098042Y0079681D01*
X0096944Y0080779D01*
X0096944Y0086031D01*
X0102055Y0086031D01*
X0102082Y0086004D01*
X0102082Y0084668D01*
X0102718Y0083132D01*
X0103895Y0081955D01*
X0105431Y0081319D01*
X0107095Y0081319D01*
X0108631Y0081955D01*
X0109808Y0083132D01*
X0110444Y0084668D01*
X0110444Y0085574D01*
X0112663Y0085574D01*
X0112663Y0085224D01*
X0117363Y0085224D01*
X0117363Y0085224D01*
X0112663Y0085463D02*
X0110444Y0085463D01*
X0109740Y0083064D02*
X0112863Y0083064D01*
X0112757Y0080666D02*
X0097057Y0080666D01*
X0096944Y0083064D02*
X0102786Y0083064D01*
X0102082Y0085463D02*
X0096944Y0085463D01*
X0101409Y0078267D02*
X0106237Y0078267D01*
X0103672Y0075869D02*
X0102444Y0075869D01*
X0112663Y0078925D02*
X0117363Y0078925D01*
X0117363Y0078925D01*
X0112663Y0078925D01*
X0097054Y0068700D02*
X0093423Y0068700D01*
X0091563Y0066840D01*
X0091563Y0065160D01*
X0097013Y0059710D01*
X0097013Y0061179D01*
X0097323Y0061488D01*
X0097253Y0061559D01*
X0096963Y0062060D01*
X0096813Y0062620D01*
X0096813Y0063500D01*
X0105263Y0063500D01*
X0113713Y0063500D01*
X0113713Y0064380D01*
X0113563Y0064940D01*
X0113273Y0065441D01*
X0113203Y0065512D01*
X0113513Y0065821D01*
X0113513Y0066898D01*
X0114035Y0066376D01*
X0114563Y0066376D01*
X0114563Y0063760D01*
X0113713Y0062910D01*
X0113713Y0063500D01*
X0105263Y0063500D01*
X0105263Y0063500D01*
X0105263Y0063500D01*
X0096813Y0063500D01*
X0096813Y0064380D01*
X0096963Y0064940D01*
X0097253Y0065441D01*
X0097323Y0065512D01*
X0097013Y0065821D01*
X0097013Y0068659D01*
X0097054Y0068700D01*
X0097027Y0068673D02*
X0093396Y0068673D01*
X0091563Y0066275D02*
X0097013Y0066275D01*
X0096813Y0063876D02*
X0092847Y0063876D01*
X0095245Y0061478D02*
X0097312Y0061478D01*
X0080963Y0059079D02*
X0074209Y0059079D01*
X0071811Y0061478D02*
X0079326Y0061478D01*
X0075086Y0063876D02*
X0070219Y0063876D01*
X0068076Y0066275D02*
X0073245Y0066275D01*
X0065177Y0068673D02*
X0061963Y0068673D01*
X0061963Y0066275D02*
X0064450Y0066275D01*
X0062307Y0063876D02*
X0061963Y0063876D01*
X0055563Y0063876D02*
X0046800Y0063876D01*
X0076608Y0056681D02*
X0080963Y0056681D01*
X0080963Y0054282D02*
X0079006Y0054282D01*
X0076563Y0037493D02*
X0085117Y0037493D01*
X0083751Y0035094D02*
X0078381Y0035094D01*
X0078381Y0032696D02*
X0083751Y0032696D01*
X0083751Y0030297D02*
X0078381Y0030297D01*
X0113713Y0063876D02*
X0114563Y0063876D01*
X0114563Y0066275D02*
X0113513Y0066275D01*
X0048123Y0111846D02*
X0047865Y0111846D01*
X0223681Y0027899D02*
X0255845Y0027899D01*
X0254390Y0030297D02*
X0252097Y0030297D01*
X0247429Y0030297D02*
X0242547Y0030297D01*
X0239763Y0030297D02*
X0239763Y0030297D01*
X0236979Y0030297D02*
X0232097Y0030297D01*
X0227429Y0030297D02*
X0225136Y0030297D01*
X0239763Y0032696D02*
X0239763Y0032696D01*
X0239763Y0035094D02*
X0239763Y0035094D01*
X0267892Y0039891D02*
X0270063Y0039891D01*
X0270063Y0037493D02*
X0269809Y0037493D01*
X0270063Y0080666D02*
X0261367Y0080666D01*
X0262519Y0083064D02*
X0270063Y0083064D01*
X0270063Y0085463D02*
X0262519Y0085463D01*
D29*
X0196263Y0097346D02*
X0192109Y0101500D01*
X0186263Y0101500D01*
X0184102Y0099339D01*
X0180956Y0099339D01*
X0177263Y0103031D01*
X0177263Y0110500D01*
X0167263Y0110500D02*
X0167263Y0107000D01*
X0177483Y0096780D01*
X0180956Y0096780D01*
X0189763Y0096780D01*
X0189763Y0097346D01*
X0186196Y0094220D02*
X0189763Y0090654D01*
X0186196Y0094220D02*
X0180956Y0094220D01*
X0175763Y0095500D02*
X0175763Y0086346D01*
X0179263Y0082846D01*
X0172763Y0082846D02*
X0172763Y0095000D01*
X0170983Y0096780D01*
X0167570Y0096780D01*
X0156043Y0096780D01*
X0153763Y0094500D01*
X0148263Y0094500D01*
X0145263Y0091500D01*
X0138263Y0091500D01*
X0135838Y0093925D01*
X0135838Y0097400D01*
X0138987Y0097400D02*
X0138987Y0102224D01*
X0142263Y0105500D01*
X0142263Y0117075D01*
X0142420Y0117232D01*
X0152263Y0112941D02*
X0169822Y0130500D01*
X0162263Y0117232D02*
X0162263Y0104646D01*
X0167570Y0099339D01*
X0171924Y0099339D01*
X0175763Y0095500D01*
X0167570Y0094220D02*
X0167570Y0091661D01*
X0166263Y0090354D01*
X0166263Y0082846D01*
X0161263Y0088000D02*
X0151537Y0088000D01*
X0151163Y0088374D01*
X0144763Y0088000D02*
X0143263Y0089500D01*
X0135763Y0089500D01*
X0132688Y0092575D01*
X0132688Y0097400D01*
X0142137Y0097400D02*
X0142137Y0100374D01*
X0145763Y0104000D01*
X0150763Y0104000D01*
X0152263Y0105500D01*
X0152263Y0112941D01*
X0157263Y0110500D02*
X0157263Y0102000D01*
X0152663Y0097400D01*
X0145287Y0097400D01*
X0126263Y0091500D02*
X0126263Y0088000D01*
X0134263Y0080000D01*
X0134263Y0072000D01*
X0136763Y0069500D01*
X0126263Y0091500D02*
X0123239Y0094524D01*
X0123239Y0097400D01*
X0096417Y0098000D02*
X0091263Y0098000D01*
X0089263Y0094000D02*
X0092417Y0090846D01*
X0092417Y0090000D01*
X0092417Y0089154D01*
X0090763Y0087500D01*
X0090763Y0083610D01*
X0088763Y0081610D01*
X0083763Y0081610D02*
X0083763Y0086154D01*
X0086609Y0089000D01*
X0089263Y0094000D02*
X0046763Y0094000D01*
X0044763Y0096000D01*
X0044763Y0098000D01*
X0053763Y0097831D02*
X0053763Y0103500D01*
X0053763Y0097831D02*
X0053936Y0097657D01*
X0043208Y0103524D02*
X0042322Y0104409D01*
X0058220Y0089500D02*
X0063763Y0083957D01*
X0063763Y0081610D01*
X0071263Y0084110D02*
X0071263Y0087000D01*
X0068763Y0089500D01*
X0065306Y0089500D01*
X0071263Y0084110D02*
X0073763Y0081610D01*
D30*
X0048763Y0081610D02*
X0048763Y0086500D01*
X0037263Y0098000D01*
X0037263Y0100500D01*
X0037263Y0105500D01*
X0036263Y0106500D01*
X0032609Y0106500D01*
X0034263Y0112000D02*
X0038212Y0108051D01*
X0042322Y0108051D01*
X0042322Y0104409D01*
X0049763Y0108000D02*
X0052263Y0110500D01*
X0061263Y0110500D01*
X0062598Y0109165D01*
X0062598Y0097657D01*
X0058267Y0097657D02*
X0058267Y0105004D01*
X0058763Y0105500D01*
X0066928Y0106323D02*
X0068109Y0107504D01*
X0066928Y0106323D02*
X0066928Y0097657D01*
X0075590Y0097657D02*
X0075590Y0103327D01*
X0079259Y0106996D01*
X0088090Y0106996D01*
X0089271Y0108177D01*
X0111318Y0108177D01*
X0113680Y0105815D01*
X0103109Y0098000D02*
X0108436Y0092673D01*
X0109401Y0092673D01*
X0110550Y0091524D01*
X0117363Y0091524D01*
X0123263Y0086000D02*
X0129539Y0079724D01*
X0129539Y0063600D01*
X0142137Y0063600D02*
X0142137Y0075626D01*
X0137263Y0080500D01*
X0137263Y0084500D01*
X0143763Y0082500D02*
X0145287Y0080976D01*
X0145287Y0063600D01*
X0142137Y0063600D02*
X0142137Y0038626D01*
X0149263Y0031500D01*
X0169263Y0031500D02*
X0178263Y0031500D01*
X0187263Y0040500D01*
X0187263Y0059000D01*
X0191263Y0063000D01*
X0201763Y0063000D01*
X0226763Y0088000D01*
X0157263Y0092500D02*
X0156287Y0091524D01*
X0151163Y0091524D01*
X0106263Y0085500D02*
X0101763Y0090000D01*
X0099109Y0090000D01*
X0022070Y0110346D02*
X0020263Y0110346D01*
X0020263Y0106000D01*
X0018763Y0037000D02*
X0017263Y0035500D01*
X0018763Y0037000D02*
X0030763Y0037000D01*
X0037263Y0030500D01*
D31*
X0035263Y0037500D02*
X0032609Y0040154D01*
X0032609Y0044500D01*
X0025917Y0044500D02*
X0021917Y0040500D01*
X0010263Y0040500D01*
X0005263Y0045500D01*
X0005263Y0100846D01*
X0014763Y0110346D01*
X0022070Y0110346D01*
X0025917Y0106500D01*
X0025917Y0100500D01*
X0032609Y0100500D02*
X0032609Y0094500D01*
X0035609Y0094500D01*
X0038763Y0091346D01*
X0038763Y0081610D01*
X0043763Y0081610D02*
X0043763Y0075000D01*
X0040263Y0071500D01*
X0036263Y0071500D01*
X0033763Y0074000D01*
X0033763Y0078654D01*
X0019263Y0083500D02*
X0010417Y0092346D01*
X0010417Y0095000D01*
X0010417Y0099307D01*
X0014763Y0103654D01*
X0019263Y0083500D02*
X0019263Y0055500D01*
X0024263Y0050500D01*
X0033653Y0050500D01*
X0038763Y0045390D01*
X0043763Y0045390D02*
X0043763Y0049000D01*
X0035109Y0057654D01*
X0032763Y0057654D01*
X0025763Y0057654D01*
X0048763Y0045390D02*
X0048763Y0041000D01*
X0045263Y0037500D01*
X0035263Y0037500D01*
X0058763Y0050500D02*
X0058763Y0052000D01*
X0073763Y0045390D02*
X0073763Y0033543D01*
X0074806Y0032500D01*
X0087917Y0032500D02*
X0087917Y0043543D01*
X0089263Y0044890D01*
X0088763Y0045390D01*
X0093763Y0045390D02*
X0096153Y0045390D01*
X0099263Y0048500D01*
X0099763Y0053000D02*
X0088763Y0064000D01*
X0088763Y0068000D01*
X0092263Y0071500D01*
X0088763Y0075000D01*
X0088763Y0081610D01*
X0093763Y0081610D02*
X0093763Y0080000D01*
X0098263Y0075500D01*
X0103263Y0071500D02*
X0092263Y0071500D01*
X0084263Y0072500D02*
X0083763Y0073000D01*
X0083763Y0081610D01*
X0103263Y0071500D02*
X0107539Y0075776D01*
X0117363Y0075776D01*
X0122039Y0075776D01*
X0124763Y0078500D01*
X0121188Y0082075D01*
X0117363Y0082075D01*
X0117363Y0088374D02*
X0109137Y0088374D01*
X0106263Y0085500D01*
X0110649Y0072626D02*
X0105263Y0067240D01*
X0110649Y0072626D02*
X0117363Y0072626D01*
X0117363Y0069476D02*
X0117363Y0062600D01*
X0114523Y0059760D01*
X0105263Y0059760D01*
X0099763Y0053000D02*
X0111417Y0053000D01*
X0119263Y0045154D01*
X0119263Y0031500D01*
X0110263Y0030500D02*
X0110263Y0045500D01*
X0103263Y0041500D02*
X0103263Y0041154D01*
X0094609Y0032500D01*
X0083763Y0045390D02*
X0083763Y0061000D01*
X0077263Y0067500D01*
X0118109Y0058470D02*
X0118109Y0053000D01*
X0124763Y0058000D02*
X0126389Y0059626D01*
X0126389Y0063600D01*
X0123239Y0063600D02*
X0118109Y0058470D01*
X0123239Y0063600D02*
X0123239Y0068476D01*
X0124263Y0069500D01*
X0138987Y0063600D02*
X0138987Y0059224D01*
X0137763Y0058000D01*
X0131263Y0058000D02*
X0131263Y0048500D01*
X0124263Y0041500D01*
X0145287Y0045476D02*
X0145287Y0063600D01*
X0151163Y0069476D02*
X0151163Y0049600D01*
X0169263Y0031500D01*
X0159263Y0031500D02*
X0145287Y0045476D01*
X0159263Y0052500D02*
X0159263Y0067500D01*
X0167263Y0067000D02*
X0167263Y0051500D01*
X0179263Y0039500D01*
X0188263Y0066000D02*
X0199263Y0066000D01*
X0208263Y0075000D01*
X0197917Y0076154D02*
X0207263Y0085500D01*
X0214263Y0085500D01*
X0218609Y0089846D01*
X0218609Y0093000D01*
X0211917Y0093000D02*
X0211917Y0097894D01*
X0211810Y0098000D01*
X0196263Y0090654D02*
X0189763Y0090654D01*
X0189763Y0085000D01*
X0191263Y0083500D01*
X0197917Y0076154D02*
X0179263Y0076154D01*
X0179263Y0067846D01*
X0179609Y0067500D01*
X0179263Y0076154D02*
X0172763Y0076154D01*
X0166263Y0076154D01*
X0166109Y0076000D01*
X0160263Y0076000D01*
X0129539Y0097400D02*
X0129539Y0102776D01*
X0137263Y0110500D01*
X0130263Y0111248D02*
X0130263Y0111500D01*
X0130263Y0111248D02*
X0126389Y0107374D01*
X0126389Y0097400D01*
X0123239Y0097400D02*
X0123239Y0104177D01*
X0122263Y0105154D01*
X0229763Y0056000D02*
X0232263Y0058500D01*
X0229763Y0056000D02*
X0229763Y0035500D01*
X0249763Y0035500D02*
X0249763Y0056000D01*
X0252263Y0058500D01*
M02*
