G04 #@! TF.GenerationSoftware,KiCad,Pcbnew,(5.99.0-6632-gb710573c5)*
G04 #@! TF.CreationDate,2020-11-23T17:19:51-05:00*
G04 #@! TF.ProjectId,syringe_board,73797269-6e67-4655-9f62-6f6172642e6b,3.3*
G04 #@! TF.SameCoordinates,Original*
G04 #@! TF.FileFunction,Legend,Top*
G04 #@! TF.FilePolarity,Positive*
%FSLAX46Y46*%
G04 Gerber Fmt 4.6, Leading zero omitted, Abs format (unit mm)*
G04 Created by KiCad (PCBNEW (5.99.0-6632-gb710573c5)) date 2020-11-23 17:19:51*
%MOMM*%
%LPD*%
G01*
G04 APERTURE LIST*
%ADD10C,0.200000*%
%ADD11C,0.150000*%
%ADD12C,0.120000*%
%ADD13C,0.127000*%
G04 APERTURE END LIST*
D10*
X152599142Y-100945761D02*
X152742000Y-100993380D01*
X152980095Y-100993380D01*
X153075333Y-100945761D01*
X153122952Y-100898142D01*
X153170571Y-100802904D01*
X153170571Y-100707666D01*
X153122952Y-100612428D01*
X153075333Y-100564809D01*
X152980095Y-100517190D01*
X152789619Y-100469571D01*
X152694380Y-100421952D01*
X152646761Y-100374333D01*
X152599142Y-100279095D01*
X152599142Y-100183857D01*
X152646761Y-100088619D01*
X152694380Y-100041000D01*
X152789619Y-99993380D01*
X153027714Y-99993380D01*
X153170571Y-100041000D01*
X153503904Y-100326714D02*
X153742000Y-100993380D01*
X153980095Y-100326714D02*
X153742000Y-100993380D01*
X153646761Y-101231476D01*
X153599142Y-101279095D01*
X153503904Y-101326714D01*
X154361047Y-100993380D02*
X154361047Y-100326714D01*
X154361047Y-100517190D02*
X154408666Y-100421952D01*
X154456285Y-100374333D01*
X154551523Y-100326714D01*
X154646761Y-100326714D01*
X154980095Y-100993380D02*
X154980095Y-100326714D01*
X154980095Y-99993380D02*
X154932476Y-100041000D01*
X154980095Y-100088619D01*
X155027714Y-100041000D01*
X154980095Y-99993380D01*
X154980095Y-100088619D01*
X155456285Y-100326714D02*
X155456285Y-100993380D01*
X155456285Y-100421952D02*
X155503904Y-100374333D01*
X155599142Y-100326714D01*
X155742000Y-100326714D01*
X155837238Y-100374333D01*
X155884857Y-100469571D01*
X155884857Y-100993380D01*
X156789619Y-100326714D02*
X156789619Y-101136238D01*
X156742000Y-101231476D01*
X156694380Y-101279095D01*
X156599142Y-101326714D01*
X156456285Y-101326714D01*
X156361047Y-101279095D01*
X156789619Y-100945761D02*
X156694380Y-100993380D01*
X156503904Y-100993380D01*
X156408666Y-100945761D01*
X156361047Y-100898142D01*
X156313428Y-100802904D01*
X156313428Y-100517190D01*
X156361047Y-100421952D01*
X156408666Y-100374333D01*
X156503904Y-100326714D01*
X156694380Y-100326714D01*
X156789619Y-100374333D01*
X157646761Y-100945761D02*
X157551523Y-100993380D01*
X157361047Y-100993380D01*
X157265809Y-100945761D01*
X157218190Y-100850523D01*
X157218190Y-100469571D01*
X157265809Y-100374333D01*
X157361047Y-100326714D01*
X157551523Y-100326714D01*
X157646761Y-100374333D01*
X157694380Y-100469571D01*
X157694380Y-100564809D01*
X157218190Y-100660047D01*
X159456285Y-100898142D02*
X159408666Y-100945761D01*
X159265809Y-100993380D01*
X159170571Y-100993380D01*
X159027714Y-100945761D01*
X158932476Y-100850523D01*
X158884857Y-100755285D01*
X158837238Y-100564809D01*
X158837238Y-100421952D01*
X158884857Y-100231476D01*
X158932476Y-100136238D01*
X159027714Y-100041000D01*
X159170571Y-99993380D01*
X159265809Y-99993380D01*
X159408666Y-100041000D01*
X159456285Y-100088619D01*
X160027714Y-100993380D02*
X159932476Y-100945761D01*
X159884857Y-100898142D01*
X159837238Y-100802904D01*
X159837238Y-100517190D01*
X159884857Y-100421952D01*
X159932476Y-100374333D01*
X160027714Y-100326714D01*
X160170571Y-100326714D01*
X160265809Y-100374333D01*
X160313428Y-100421952D01*
X160361047Y-100517190D01*
X160361047Y-100802904D01*
X160313428Y-100898142D01*
X160265809Y-100945761D01*
X160170571Y-100993380D01*
X160027714Y-100993380D01*
X160789619Y-100326714D02*
X160789619Y-100993380D01*
X160789619Y-100421952D02*
X160837238Y-100374333D01*
X160932476Y-100326714D01*
X161075333Y-100326714D01*
X161170571Y-100374333D01*
X161218190Y-100469571D01*
X161218190Y-100993380D01*
X161551523Y-100326714D02*
X161932476Y-100326714D01*
X161694380Y-99993380D02*
X161694380Y-100850523D01*
X161742000Y-100945761D01*
X161837238Y-100993380D01*
X161932476Y-100993380D01*
X162265809Y-100993380D02*
X162265809Y-100326714D01*
X162265809Y-100517190D02*
X162313428Y-100421952D01*
X162361047Y-100374333D01*
X162456285Y-100326714D01*
X162551523Y-100326714D01*
X163027714Y-100993380D02*
X162932476Y-100945761D01*
X162884857Y-100898142D01*
X162837238Y-100802904D01*
X162837238Y-100517190D01*
X162884857Y-100421952D01*
X162932476Y-100374333D01*
X163027714Y-100326714D01*
X163170571Y-100326714D01*
X163265809Y-100374333D01*
X163313428Y-100421952D01*
X163361047Y-100517190D01*
X163361047Y-100802904D01*
X163313428Y-100898142D01*
X163265809Y-100945761D01*
X163170571Y-100993380D01*
X163027714Y-100993380D01*
X163932476Y-100993380D02*
X163837238Y-100945761D01*
X163789619Y-100850523D01*
X163789619Y-99993380D01*
X154694380Y-102079571D02*
X154837238Y-102127190D01*
X154884857Y-102174809D01*
X154932476Y-102270047D01*
X154932476Y-102412904D01*
X154884857Y-102508142D01*
X154837238Y-102555761D01*
X154742000Y-102603380D01*
X154361047Y-102603380D01*
X154361047Y-101603380D01*
X154694380Y-101603380D01*
X154789619Y-101651000D01*
X154837238Y-101698619D01*
X154884857Y-101793857D01*
X154884857Y-101889095D01*
X154837238Y-101984333D01*
X154789619Y-102031952D01*
X154694380Y-102079571D01*
X154361047Y-102079571D01*
X155503904Y-102603380D02*
X155408666Y-102555761D01*
X155361047Y-102508142D01*
X155313428Y-102412904D01*
X155313428Y-102127190D01*
X155361047Y-102031952D01*
X155408666Y-101984333D01*
X155503904Y-101936714D01*
X155646761Y-101936714D01*
X155742000Y-101984333D01*
X155789619Y-102031952D01*
X155837238Y-102127190D01*
X155837238Y-102412904D01*
X155789619Y-102508142D01*
X155742000Y-102555761D01*
X155646761Y-102603380D01*
X155503904Y-102603380D01*
X156694380Y-102603380D02*
X156694380Y-102079571D01*
X156646761Y-101984333D01*
X156551523Y-101936714D01*
X156361047Y-101936714D01*
X156265809Y-101984333D01*
X156694380Y-102555761D02*
X156599142Y-102603380D01*
X156361047Y-102603380D01*
X156265809Y-102555761D01*
X156218190Y-102460523D01*
X156218190Y-102365285D01*
X156265809Y-102270047D01*
X156361047Y-102222428D01*
X156599142Y-102222428D01*
X156694380Y-102174809D01*
X157170571Y-102603380D02*
X157170571Y-101936714D01*
X157170571Y-102127190D02*
X157218190Y-102031952D01*
X157265809Y-101984333D01*
X157361047Y-101936714D01*
X157456285Y-101936714D01*
X158218190Y-102603380D02*
X158218190Y-101603380D01*
X158218190Y-102555761D02*
X158122952Y-102603380D01*
X157932476Y-102603380D01*
X157837238Y-102555761D01*
X157789619Y-102508142D01*
X157742000Y-102412904D01*
X157742000Y-102127190D01*
X157789619Y-102031952D01*
X157837238Y-101984333D01*
X157932476Y-101936714D01*
X158122952Y-101936714D01*
X158218190Y-101984333D01*
X159361047Y-101936714D02*
X159599142Y-102603380D01*
X159837238Y-101936714D01*
X160646761Y-101936714D02*
X160646761Y-102603380D01*
X160408666Y-101555761D02*
X160170571Y-102270047D01*
X160789619Y-102270047D01*
X161170571Y-102508142D02*
X161218190Y-102555761D01*
X161170571Y-102603380D01*
X161122952Y-102555761D01*
X161170571Y-102508142D01*
X161170571Y-102603380D01*
X161837238Y-101603380D02*
X161932476Y-101603380D01*
X162027714Y-101651000D01*
X162075333Y-101698619D01*
X162122952Y-101793857D01*
X162170571Y-101984333D01*
X162170571Y-102222428D01*
X162122952Y-102412904D01*
X162075333Y-102508142D01*
X162027714Y-102555761D01*
X161932476Y-102603380D01*
X161837238Y-102603380D01*
X161742000Y-102555761D01*
X161694380Y-102508142D01*
X161646761Y-102412904D01*
X161599142Y-102222428D01*
X161599142Y-101984333D01*
X161646761Y-101793857D01*
X161694380Y-101698619D01*
X161742000Y-101651000D01*
X161837238Y-101603380D01*
D11*
X126293619Y-74509333D02*
X126293619Y-74033142D01*
X127293619Y-74033142D01*
X126293619Y-75366476D02*
X126293619Y-74795047D01*
X126293619Y-75080761D02*
X127293619Y-75080761D01*
X127150761Y-74985523D01*
X127055523Y-74890285D01*
X127007904Y-74795047D01*
X124261619Y-74509333D02*
X124261619Y-74033142D01*
X125261619Y-74033142D01*
X125166380Y-74795047D02*
X125214000Y-74842666D01*
X125261619Y-74937904D01*
X125261619Y-75176000D01*
X125214000Y-75271238D01*
X125166380Y-75318857D01*
X125071142Y-75366476D01*
X124975904Y-75366476D01*
X124833047Y-75318857D01*
X124261619Y-74747428D01*
X124261619Y-75366476D01*
X124261619Y-77049333D02*
X124261619Y-76573142D01*
X125261619Y-76573142D01*
X125166380Y-77335047D02*
X125214000Y-77382666D01*
X125261619Y-77477904D01*
X125261619Y-77716000D01*
X125214000Y-77811238D01*
X125166380Y-77858857D01*
X125071142Y-77906476D01*
X124975904Y-77906476D01*
X124833047Y-77858857D01*
X124261619Y-77287428D01*
X124261619Y-77906476D01*
X126293619Y-77049333D02*
X126293619Y-76573142D01*
X127293619Y-76573142D01*
X126293619Y-77906476D02*
X126293619Y-77335047D01*
X126293619Y-77620761D02*
X127293619Y-77620761D01*
X127150761Y-77525523D01*
X127055523Y-77430285D01*
X127007904Y-77335047D01*
X162123619Y-73509142D02*
X162076000Y-73556761D01*
X161933142Y-73604380D01*
X161837904Y-73604380D01*
X161695047Y-73556761D01*
X161599809Y-73461523D01*
X161552190Y-73366285D01*
X161504571Y-73175809D01*
X161504571Y-73032952D01*
X161552190Y-72842476D01*
X161599809Y-72747238D01*
X161695047Y-72652000D01*
X161837904Y-72604380D01*
X161933142Y-72604380D01*
X162076000Y-72652000D01*
X162123619Y-72699619D01*
X162695047Y-73604380D02*
X162599809Y-73556761D01*
X162552190Y-73509142D01*
X162504571Y-73413904D01*
X162504571Y-73128190D01*
X162552190Y-73032952D01*
X162599809Y-72985333D01*
X162695047Y-72937714D01*
X162837904Y-72937714D01*
X162933142Y-72985333D01*
X162980761Y-73032952D01*
X163028380Y-73128190D01*
X163028380Y-73413904D01*
X162980761Y-73509142D01*
X162933142Y-73556761D01*
X162837904Y-73604380D01*
X162695047Y-73604380D01*
X163456952Y-73604380D02*
X163456952Y-72937714D01*
X163456952Y-72604380D02*
X163409333Y-72652000D01*
X163456952Y-72699619D01*
X163504571Y-72652000D01*
X163456952Y-72604380D01*
X163456952Y-72699619D01*
X164076000Y-73604380D02*
X163980761Y-73556761D01*
X163933142Y-73461523D01*
X163933142Y-72604380D01*
X165171238Y-73318666D02*
X165647428Y-73318666D01*
X165076000Y-73604380D02*
X165409333Y-72604380D01*
X165742666Y-73604380D01*
X162306190Y-79351142D02*
X162258571Y-79398761D01*
X162115714Y-79446380D01*
X162020476Y-79446380D01*
X161877619Y-79398761D01*
X161782380Y-79303523D01*
X161734761Y-79208285D01*
X161687142Y-79017809D01*
X161687142Y-78874952D01*
X161734761Y-78684476D01*
X161782380Y-78589238D01*
X161877619Y-78494000D01*
X162020476Y-78446380D01*
X162115714Y-78446380D01*
X162258571Y-78494000D01*
X162306190Y-78541619D01*
X162877619Y-79446380D02*
X162782380Y-79398761D01*
X162734761Y-79351142D01*
X162687142Y-79255904D01*
X162687142Y-78970190D01*
X162734761Y-78874952D01*
X162782380Y-78827333D01*
X162877619Y-78779714D01*
X163020476Y-78779714D01*
X163115714Y-78827333D01*
X163163333Y-78874952D01*
X163210952Y-78970190D01*
X163210952Y-79255904D01*
X163163333Y-79351142D01*
X163115714Y-79398761D01*
X163020476Y-79446380D01*
X162877619Y-79446380D01*
X163639523Y-79446380D02*
X163639523Y-78779714D01*
X163639523Y-78446380D02*
X163591904Y-78494000D01*
X163639523Y-78541619D01*
X163687142Y-78494000D01*
X163639523Y-78446380D01*
X163639523Y-78541619D01*
X164258571Y-79446380D02*
X164163333Y-79398761D01*
X164115714Y-79303523D01*
X164115714Y-78446380D01*
X165734761Y-78922571D02*
X165877619Y-78970190D01*
X165925238Y-79017809D01*
X165972857Y-79113047D01*
X165972857Y-79255904D01*
X165925238Y-79351142D01*
X165877619Y-79398761D01*
X165782380Y-79446380D01*
X165401428Y-79446380D01*
X165401428Y-78446380D01*
X165734761Y-78446380D01*
X165830000Y-78494000D01*
X165877619Y-78541619D01*
X165925238Y-78636857D01*
X165925238Y-78732095D01*
X165877619Y-78827333D01*
X165830000Y-78874952D01*
X165734761Y-78922571D01*
X165401428Y-78922571D01*
X145994380Y-110402666D02*
X145518190Y-110736000D01*
X145994380Y-110974095D02*
X144994380Y-110974095D01*
X144994380Y-110593142D01*
X145042000Y-110497904D01*
X145089619Y-110450285D01*
X145184857Y-110402666D01*
X145327714Y-110402666D01*
X145422952Y-110450285D01*
X145470571Y-110497904D01*
X145518190Y-110593142D01*
X145518190Y-110974095D01*
X144994380Y-110069333D02*
X144994380Y-109450285D01*
X145375333Y-109783619D01*
X145375333Y-109640761D01*
X145422952Y-109545523D01*
X145470571Y-109497904D01*
X145565809Y-109450285D01*
X145803904Y-109450285D01*
X145899142Y-109497904D01*
X145946761Y-109545523D01*
X145994380Y-109640761D01*
X145994380Y-109926476D01*
X145946761Y-110021714D01*
X145899142Y-110069333D01*
X120463333Y-100528380D02*
X120130000Y-100052190D01*
X119891904Y-100528380D02*
X119891904Y-99528380D01*
X120272857Y-99528380D01*
X120368095Y-99576000D01*
X120415714Y-99623619D01*
X120463333Y-99718857D01*
X120463333Y-99861714D01*
X120415714Y-99956952D01*
X120368095Y-100004571D01*
X120272857Y-100052190D01*
X119891904Y-100052190D01*
X121368095Y-99528380D02*
X120891904Y-99528380D01*
X120844285Y-100004571D01*
X120891904Y-99956952D01*
X120987142Y-99909333D01*
X121225238Y-99909333D01*
X121320476Y-99956952D01*
X121368095Y-100004571D01*
X121415714Y-100099809D01*
X121415714Y-100337904D01*
X121368095Y-100433142D01*
X121320476Y-100480761D01*
X121225238Y-100528380D01*
X120987142Y-100528380D01*
X120891904Y-100480761D01*
X120844285Y-100433142D01*
X162413142Y-95542916D02*
X162460761Y-95590535D01*
X162508380Y-95733392D01*
X162508380Y-95828630D01*
X162460761Y-95971488D01*
X162365523Y-96066726D01*
X162270285Y-96114345D01*
X162079809Y-96161964D01*
X161936952Y-96161964D01*
X161746476Y-96114345D01*
X161651238Y-96066726D01*
X161556000Y-95971488D01*
X161508380Y-95828630D01*
X161508380Y-95733392D01*
X161556000Y-95590535D01*
X161603619Y-95542916D01*
X161936952Y-94971488D02*
X161889333Y-95066726D01*
X161841714Y-95114345D01*
X161746476Y-95161964D01*
X161698857Y-95161964D01*
X161603619Y-95114345D01*
X161556000Y-95066726D01*
X161508380Y-94971488D01*
X161508380Y-94781011D01*
X161556000Y-94685773D01*
X161603619Y-94638154D01*
X161698857Y-94590535D01*
X161746476Y-94590535D01*
X161841714Y-94638154D01*
X161889333Y-94685773D01*
X161936952Y-94781011D01*
X161936952Y-94971488D01*
X161984571Y-95066726D01*
X162032190Y-95114345D01*
X162127428Y-95161964D01*
X162317904Y-95161964D01*
X162413142Y-95114345D01*
X162460761Y-95066726D01*
X162508380Y-94971488D01*
X162508380Y-94781011D01*
X162460761Y-94685773D01*
X162413142Y-94638154D01*
X162317904Y-94590535D01*
X162127428Y-94590535D01*
X162032190Y-94638154D01*
X161984571Y-94685773D01*
X161936952Y-94781011D01*
X153523142Y-84874916D02*
X153570761Y-84922535D01*
X153618380Y-85065392D01*
X153618380Y-85160630D01*
X153570761Y-85303488D01*
X153475523Y-85398726D01*
X153380285Y-85446345D01*
X153189809Y-85493964D01*
X153046952Y-85493964D01*
X152856476Y-85446345D01*
X152761238Y-85398726D01*
X152666000Y-85303488D01*
X152618380Y-85160630D01*
X152618380Y-85065392D01*
X152666000Y-84922535D01*
X152713619Y-84874916D01*
X152618380Y-84017773D02*
X152618380Y-84208250D01*
X152666000Y-84303488D01*
X152713619Y-84351107D01*
X152856476Y-84446345D01*
X153046952Y-84493964D01*
X153427904Y-84493964D01*
X153523142Y-84446345D01*
X153570761Y-84398726D01*
X153618380Y-84303488D01*
X153618380Y-84113011D01*
X153570761Y-84017773D01*
X153523142Y-83970154D01*
X153427904Y-83922535D01*
X153189809Y-83922535D01*
X153094571Y-83970154D01*
X153046952Y-84017773D01*
X152999333Y-84113011D01*
X152999333Y-84303488D01*
X153046952Y-84398726D01*
X153094571Y-84446345D01*
X153189809Y-84493964D01*
X159202380Y-93511666D02*
X158726190Y-93845000D01*
X159202380Y-94083095D02*
X158202380Y-94083095D01*
X158202380Y-93702142D01*
X158250000Y-93606904D01*
X158297619Y-93559285D01*
X158392857Y-93511666D01*
X158535714Y-93511666D01*
X158630952Y-93559285D01*
X158678571Y-93606904D01*
X158726190Y-93702142D01*
X158726190Y-94083095D01*
X158630952Y-92940238D02*
X158583333Y-93035476D01*
X158535714Y-93083095D01*
X158440476Y-93130714D01*
X158392857Y-93130714D01*
X158297619Y-93083095D01*
X158250000Y-93035476D01*
X158202380Y-92940238D01*
X158202380Y-92749761D01*
X158250000Y-92654523D01*
X158297619Y-92606904D01*
X158392857Y-92559285D01*
X158440476Y-92559285D01*
X158535714Y-92606904D01*
X158583333Y-92654523D01*
X158630952Y-92749761D01*
X158630952Y-92940238D01*
X158678571Y-93035476D01*
X158726190Y-93083095D01*
X158821428Y-93130714D01*
X159011904Y-93130714D01*
X159107142Y-93083095D01*
X159154761Y-93035476D01*
X159202380Y-92940238D01*
X159202380Y-92749761D01*
X159154761Y-92654523D01*
X159107142Y-92606904D01*
X159011904Y-92559285D01*
X158821428Y-92559285D01*
X158726190Y-92606904D01*
X158678571Y-92654523D01*
X158630952Y-92749761D01*
X166981142Y-88526857D02*
X167028761Y-88574476D01*
X167076380Y-88717333D01*
X167076380Y-88812571D01*
X167028761Y-88955428D01*
X166933523Y-89050666D01*
X166838285Y-89098285D01*
X166647809Y-89145904D01*
X166504952Y-89145904D01*
X166314476Y-89098285D01*
X166219238Y-89050666D01*
X166124000Y-88955428D01*
X166076380Y-88812571D01*
X166076380Y-88717333D01*
X166124000Y-88574476D01*
X166171619Y-88526857D01*
X167076380Y-87574476D02*
X167076380Y-88145904D01*
X167076380Y-87860190D02*
X166076380Y-87860190D01*
X166219238Y-87955428D01*
X166314476Y-88050666D01*
X166362095Y-88145904D01*
X167076380Y-86622095D02*
X167076380Y-87193523D01*
X167076380Y-86907809D02*
X166076380Y-86907809D01*
X166219238Y-87003047D01*
X166314476Y-87098285D01*
X166362095Y-87193523D01*
X126087142Y-88050666D02*
X126134761Y-88098285D01*
X126182380Y-88241142D01*
X126182380Y-88336380D01*
X126134761Y-88479238D01*
X126039523Y-88574476D01*
X125944285Y-88622095D01*
X125753809Y-88669714D01*
X125610952Y-88669714D01*
X125420476Y-88622095D01*
X125325238Y-88574476D01*
X125230000Y-88479238D01*
X125182380Y-88336380D01*
X125182380Y-88241142D01*
X125230000Y-88098285D01*
X125277619Y-88050666D01*
X125182380Y-87145904D02*
X125182380Y-87622095D01*
X125658571Y-87669714D01*
X125610952Y-87622095D01*
X125563333Y-87526857D01*
X125563333Y-87288761D01*
X125610952Y-87193523D01*
X125658571Y-87145904D01*
X125753809Y-87098285D01*
X125991904Y-87098285D01*
X126087142Y-87145904D01*
X126134761Y-87193523D01*
X126182380Y-87288761D01*
X126182380Y-87526857D01*
X126134761Y-87622095D01*
X126087142Y-87669714D01*
X138628380Y-110402666D02*
X138152190Y-110736000D01*
X138628380Y-110974095D02*
X137628380Y-110974095D01*
X137628380Y-110593142D01*
X137676000Y-110497904D01*
X137723619Y-110450285D01*
X137818857Y-110402666D01*
X137961714Y-110402666D01*
X138056952Y-110450285D01*
X138104571Y-110497904D01*
X138152190Y-110593142D01*
X138152190Y-110974095D01*
X137961714Y-109545523D02*
X138628380Y-109545523D01*
X137580761Y-109783619D02*
X138295047Y-110021714D01*
X138295047Y-109402666D01*
X155392380Y-93511666D02*
X154916190Y-93845000D01*
X155392380Y-94083095D02*
X154392380Y-94083095D01*
X154392380Y-93702142D01*
X154440000Y-93606904D01*
X154487619Y-93559285D01*
X154582857Y-93511666D01*
X154725714Y-93511666D01*
X154820952Y-93559285D01*
X154868571Y-93606904D01*
X154916190Y-93702142D01*
X154916190Y-94083095D01*
X154392380Y-93178333D02*
X154392380Y-92511666D01*
X155392380Y-92940238D01*
X119911904Y-102052380D02*
X119911904Y-101052380D01*
X120150000Y-101052380D01*
X120292857Y-101100000D01*
X120388095Y-101195238D01*
X120435714Y-101290476D01*
X120483333Y-101480952D01*
X120483333Y-101623809D01*
X120435714Y-101814285D01*
X120388095Y-101909523D01*
X120292857Y-102004761D01*
X120150000Y-102052380D01*
X119911904Y-102052380D01*
X120864285Y-101147619D02*
X120911904Y-101100000D01*
X121007142Y-101052380D01*
X121245238Y-101052380D01*
X121340476Y-101100000D01*
X121388095Y-101147619D01*
X121435714Y-101242857D01*
X121435714Y-101338095D01*
X121388095Y-101480952D01*
X120816666Y-102052380D01*
X121435714Y-102052380D01*
X161929095Y-89875630D02*
X161929095Y-90685154D01*
X161976714Y-90780392D01*
X162024333Y-90828011D01*
X162119571Y-90875630D01*
X162310047Y-90875630D01*
X162405285Y-90828011D01*
X162452904Y-90780392D01*
X162500523Y-90685154D01*
X162500523Y-89875630D01*
X162881476Y-89875630D02*
X163500523Y-89875630D01*
X163167190Y-90256583D01*
X163310047Y-90256583D01*
X163405285Y-90304202D01*
X163452904Y-90351821D01*
X163500523Y-90447059D01*
X163500523Y-90685154D01*
X163452904Y-90780392D01*
X163405285Y-90828011D01*
X163310047Y-90875630D01*
X163024333Y-90875630D01*
X162929095Y-90828011D01*
X162881476Y-90780392D01*
X163937142Y-95542916D02*
X163984761Y-95590535D01*
X164032380Y-95733392D01*
X164032380Y-95828630D01*
X163984761Y-95971488D01*
X163889523Y-96066726D01*
X163794285Y-96114345D01*
X163603809Y-96161964D01*
X163460952Y-96161964D01*
X163270476Y-96114345D01*
X163175238Y-96066726D01*
X163080000Y-95971488D01*
X163032380Y-95828630D01*
X163032380Y-95733392D01*
X163080000Y-95590535D01*
X163127619Y-95542916D01*
X163032380Y-95209583D02*
X163032380Y-94542916D01*
X164032380Y-94971488D01*
X164711142Y-84177142D02*
X164663523Y-84224761D01*
X164520666Y-84272380D01*
X164425428Y-84272380D01*
X164282571Y-84224761D01*
X164187333Y-84129523D01*
X164139714Y-84034285D01*
X164092095Y-83843809D01*
X164092095Y-83700952D01*
X164139714Y-83510476D01*
X164187333Y-83415238D01*
X164282571Y-83320000D01*
X164425428Y-83272380D01*
X164520666Y-83272380D01*
X164663523Y-83320000D01*
X164711142Y-83367619D01*
X165663523Y-84272380D02*
X165092095Y-84272380D01*
X165377809Y-84272380D02*
X165377809Y-83272380D01*
X165282571Y-83415238D01*
X165187333Y-83510476D01*
X165092095Y-83558095D01*
X166282571Y-83272380D02*
X166377809Y-83272380D01*
X166473047Y-83320000D01*
X166520666Y-83367619D01*
X166568285Y-83462857D01*
X166615904Y-83653333D01*
X166615904Y-83891428D01*
X166568285Y-84081904D01*
X166520666Y-84177142D01*
X166473047Y-84224761D01*
X166377809Y-84272380D01*
X166282571Y-84272380D01*
X166187333Y-84224761D01*
X166139714Y-84177142D01*
X166092095Y-84081904D01*
X166044476Y-83891428D01*
X166044476Y-83653333D01*
X166092095Y-83462857D01*
X166139714Y-83367619D01*
X166187333Y-83320000D01*
X166282571Y-83272380D01*
X166858142Y-91732916D02*
X166905761Y-91780535D01*
X166953380Y-91923392D01*
X166953380Y-92018630D01*
X166905761Y-92161488D01*
X166810523Y-92256726D01*
X166715285Y-92304345D01*
X166524809Y-92351964D01*
X166381952Y-92351964D01*
X166191476Y-92304345D01*
X166096238Y-92256726D01*
X166001000Y-92161488D01*
X165953380Y-92018630D01*
X165953380Y-91923392D01*
X166001000Y-91780535D01*
X166048619Y-91732916D01*
X166953380Y-91256726D02*
X166953380Y-91066250D01*
X166905761Y-90971011D01*
X166858142Y-90923392D01*
X166715285Y-90828154D01*
X166524809Y-90780535D01*
X166143857Y-90780535D01*
X166048619Y-90828154D01*
X166001000Y-90875773D01*
X165953380Y-90971011D01*
X165953380Y-91161488D01*
X166001000Y-91256726D01*
X166048619Y-91304345D01*
X166143857Y-91351964D01*
X166381952Y-91351964D01*
X166477190Y-91304345D01*
X166524809Y-91256726D01*
X166572428Y-91161488D01*
X166572428Y-90971011D01*
X166524809Y-90875773D01*
X166477190Y-90828154D01*
X166381952Y-90780535D01*
X132024380Y-113958666D02*
X131548190Y-114292000D01*
X132024380Y-114530095D02*
X131024380Y-114530095D01*
X131024380Y-114149142D01*
X131072000Y-114053904D01*
X131119619Y-114006285D01*
X131214857Y-113958666D01*
X131357714Y-113958666D01*
X131452952Y-114006285D01*
X131500571Y-114053904D01*
X131548190Y-114149142D01*
X131548190Y-114530095D01*
X131119619Y-113577714D02*
X131072000Y-113530095D01*
X131024380Y-113434857D01*
X131024380Y-113196761D01*
X131072000Y-113101523D01*
X131119619Y-113053904D01*
X131214857Y-113006285D01*
X131310095Y-113006285D01*
X131452952Y-113053904D01*
X132024380Y-113625333D01*
X132024380Y-113006285D01*
X119911904Y-97480380D02*
X119911904Y-96480380D01*
X120150000Y-96480380D01*
X120292857Y-96528000D01*
X120388095Y-96623238D01*
X120435714Y-96718476D01*
X120483333Y-96908952D01*
X120483333Y-97051809D01*
X120435714Y-97242285D01*
X120388095Y-97337523D01*
X120292857Y-97432761D01*
X120150000Y-97480380D01*
X119911904Y-97480380D01*
X121435714Y-97480380D02*
X120864285Y-97480380D01*
X121150000Y-97480380D02*
X121150000Y-96480380D01*
X121054761Y-96623238D01*
X120959523Y-96718476D01*
X120864285Y-96766095D01*
X134453333Y-97607380D02*
X133977142Y-97607380D01*
X133977142Y-96607380D01*
X135310476Y-97607380D02*
X134739047Y-97607380D01*
X135024761Y-97607380D02*
X135024761Y-96607380D01*
X134929523Y-96750238D01*
X134834285Y-96845476D01*
X134739047Y-96893095D01*
X136967980Y-122478704D02*
X137777504Y-122478704D01*
X137872742Y-122431085D01*
X137920361Y-122383466D01*
X137967980Y-122288228D01*
X137967980Y-122097752D01*
X137920361Y-122002514D01*
X137872742Y-121954895D01*
X137777504Y-121907276D01*
X136967980Y-121907276D01*
X137063219Y-121478704D02*
X137015600Y-121431085D01*
X136967980Y-121335847D01*
X136967980Y-121097752D01*
X137015600Y-121002514D01*
X137063219Y-120954895D01*
X137158457Y-120907276D01*
X137253695Y-120907276D01*
X137396552Y-120954895D01*
X137967980Y-121526323D01*
X137967980Y-120907276D01*
X167560666Y-113498380D02*
X167560666Y-114212666D01*
X167513047Y-114355523D01*
X167417809Y-114450761D01*
X167274952Y-114498380D01*
X167179714Y-114498380D01*
X168465428Y-113498380D02*
X168274952Y-113498380D01*
X168179714Y-113546000D01*
X168132095Y-113593619D01*
X168036857Y-113736476D01*
X167989238Y-113926952D01*
X167989238Y-114307904D01*
X168036857Y-114403142D01*
X168084476Y-114450761D01*
X168179714Y-114498380D01*
X168370190Y-114498380D01*
X168465428Y-114450761D01*
X168513047Y-114403142D01*
X168560666Y-114307904D01*
X168560666Y-114069809D01*
X168513047Y-113974571D01*
X168465428Y-113926952D01*
X168370190Y-113879333D01*
X168179714Y-113879333D01*
X168084476Y-113926952D01*
X168036857Y-113974571D01*
X167989238Y-114069809D01*
X122439180Y-84762933D02*
X123153466Y-84762933D01*
X123296323Y-84810552D01*
X123391561Y-84905790D01*
X123439180Y-85048647D01*
X123439180Y-85143885D01*
X122772514Y-83858171D02*
X123439180Y-83858171D01*
X122391561Y-84096266D02*
X123105847Y-84334361D01*
X123105847Y-83715314D01*
X156554619Y-73772666D02*
X155840333Y-73772666D01*
X155697476Y-73725047D01*
X155602238Y-73629809D01*
X155554619Y-73486952D01*
X155554619Y-73391714D01*
X156554619Y-74153619D02*
X156554619Y-74820285D01*
X155554619Y-74391714D01*
X131929142Y-119800666D02*
X131976761Y-119848285D01*
X132024380Y-119991142D01*
X132024380Y-120086380D01*
X131976761Y-120229238D01*
X131881523Y-120324476D01*
X131786285Y-120372095D01*
X131595809Y-120419714D01*
X131452952Y-120419714D01*
X131262476Y-120372095D01*
X131167238Y-120324476D01*
X131072000Y-120229238D01*
X131024380Y-120086380D01*
X131024380Y-119991142D01*
X131072000Y-119848285D01*
X131119619Y-119800666D01*
X131119619Y-119419714D02*
X131072000Y-119372095D01*
X131024380Y-119276857D01*
X131024380Y-119038761D01*
X131072000Y-118943523D01*
X131119619Y-118895904D01*
X131214857Y-118848285D01*
X131310095Y-118848285D01*
X131452952Y-118895904D01*
X132024380Y-119467333D01*
X132024380Y-118848285D01*
X127530559Y-103608142D02*
X127482940Y-103655761D01*
X127340083Y-103703380D01*
X127244845Y-103703380D01*
X127101987Y-103655761D01*
X127006749Y-103560523D01*
X126959130Y-103465285D01*
X126911511Y-103274809D01*
X126911511Y-103131952D01*
X126959130Y-102941476D01*
X127006749Y-102846238D01*
X127101987Y-102751000D01*
X127244845Y-102703380D01*
X127340083Y-102703380D01*
X127482940Y-102751000D01*
X127530559Y-102798619D01*
X128387702Y-103036714D02*
X128387702Y-103703380D01*
X128149606Y-102655761D02*
X127911511Y-103370047D01*
X128530559Y-103370047D01*
X123063095Y-101916380D02*
X123063095Y-100916380D01*
X123063095Y-101392571D02*
X123634523Y-101392571D01*
X123634523Y-101916380D02*
X123634523Y-100916380D01*
X124015476Y-100916380D02*
X124634523Y-100916380D01*
X124301190Y-101297333D01*
X124444047Y-101297333D01*
X124539285Y-101344952D01*
X124586904Y-101392571D01*
X124634523Y-101487809D01*
X124634523Y-101725904D01*
X124586904Y-101821142D01*
X124539285Y-101868761D01*
X124444047Y-101916380D01*
X124158333Y-101916380D01*
X124063095Y-101868761D01*
X124015476Y-101821142D01*
X126833380Y-99186904D02*
X127642904Y-99186904D01*
X127738142Y-99139285D01*
X127785761Y-99091666D01*
X127833380Y-98996428D01*
X127833380Y-98805952D01*
X127785761Y-98710714D01*
X127738142Y-98663095D01*
X127642904Y-98615476D01*
X126833380Y-98615476D01*
X127833380Y-97615476D02*
X127833380Y-98186904D01*
X127833380Y-97901190D02*
X126833380Y-97901190D01*
X126976238Y-97996428D01*
X127071476Y-98091666D01*
X127119095Y-98186904D01*
X132275142Y-117006666D02*
X131798952Y-117340000D01*
X132275142Y-117578095D02*
X131275142Y-117578095D01*
X131275142Y-117197142D01*
X131322762Y-117101904D01*
X131370381Y-117054285D01*
X131465619Y-117006666D01*
X131608476Y-117006666D01*
X131703714Y-117054285D01*
X131751333Y-117101904D01*
X131798952Y-117197142D01*
X131798952Y-117578095D01*
X131275142Y-116149523D02*
X131275142Y-116340000D01*
X131322762Y-116435238D01*
X131370381Y-116482857D01*
X131513238Y-116578095D01*
X131703714Y-116625714D01*
X132084666Y-116625714D01*
X132179904Y-116578095D01*
X132227523Y-116530476D01*
X132275142Y-116435238D01*
X132275142Y-116244761D01*
X132227523Y-116149523D01*
X132179904Y-116101904D01*
X132084666Y-116054285D01*
X131846571Y-116054285D01*
X131751333Y-116101904D01*
X131703714Y-116149523D01*
X131656095Y-116244761D01*
X131656095Y-116435238D01*
X131703714Y-116530476D01*
X131751333Y-116578095D01*
X131846571Y-116625714D01*
X132584302Y-103608142D02*
X132536683Y-103655761D01*
X132393826Y-103703380D01*
X132298588Y-103703380D01*
X132155730Y-103655761D01*
X132060492Y-103560523D01*
X132012873Y-103465285D01*
X131965254Y-103274809D01*
X131965254Y-103131952D01*
X132012873Y-102941476D01*
X132060492Y-102846238D01*
X132155730Y-102751000D01*
X132298588Y-102703380D01*
X132393826Y-102703380D01*
X132536683Y-102751000D01*
X132584302Y-102798619D01*
X132917635Y-102703380D02*
X133536683Y-102703380D01*
X133203349Y-103084333D01*
X133346207Y-103084333D01*
X133441445Y-103131952D01*
X133489064Y-103179571D01*
X133536683Y-103274809D01*
X133536683Y-103512904D01*
X133489064Y-103608142D01*
X133441445Y-103655761D01*
X133346207Y-103703380D01*
X133060492Y-103703380D01*
X132965254Y-103655761D01*
X132917635Y-103608142D01*
X120463333Y-99004380D02*
X120130000Y-98528190D01*
X119891904Y-99004380D02*
X119891904Y-98004380D01*
X120272857Y-98004380D01*
X120368095Y-98052000D01*
X120415714Y-98099619D01*
X120463333Y-98194857D01*
X120463333Y-98337714D01*
X120415714Y-98432952D01*
X120368095Y-98480571D01*
X120272857Y-98528190D01*
X119891904Y-98528190D01*
X121415714Y-99004380D02*
X120844285Y-99004380D01*
X121130000Y-99004380D02*
X121130000Y-98004380D01*
X121034761Y-98147238D01*
X120939523Y-98242476D01*
X120844285Y-98290095D01*
X131918833Y-95099142D02*
X131871214Y-95146761D01*
X131728357Y-95194380D01*
X131633119Y-95194380D01*
X131490261Y-95146761D01*
X131395023Y-95051523D01*
X131347404Y-94956285D01*
X131299785Y-94765809D01*
X131299785Y-94622952D01*
X131347404Y-94432476D01*
X131395023Y-94337238D01*
X131490261Y-94242000D01*
X131633119Y-94194380D01*
X131728357Y-94194380D01*
X131871214Y-94242000D01*
X131918833Y-94289619D01*
X132871214Y-95194380D02*
X132299785Y-95194380D01*
X132585500Y-95194380D02*
X132585500Y-94194380D01*
X132490261Y-94337238D01*
X132395023Y-94432476D01*
X132299785Y-94480095D01*
D12*
X143493258Y-110731137D02*
X143018742Y-110731137D01*
X143493258Y-109686137D02*
X143018742Y-109686137D01*
X122932742Y-100598500D02*
X123407258Y-100598500D01*
X122932742Y-99553500D02*
X123407258Y-99553500D01*
X161546000Y-92976830D02*
X161546000Y-92695670D01*
X162566000Y-92976830D02*
X162566000Y-92695670D01*
X154180000Y-84593170D02*
X154180000Y-84874330D01*
X155200000Y-84593170D02*
X155200000Y-84874330D01*
X161013000Y-93571314D02*
X161013000Y-93117186D01*
X159543000Y-93571314D02*
X159543000Y-93117186D01*
X165614000Y-87896830D02*
X165614000Y-87615670D01*
X164594000Y-87896830D02*
X164594000Y-87615670D01*
X132520563Y-91294000D02*
X133585000Y-90229563D01*
X126765000Y-84474000D02*
X129115000Y-84474000D01*
X126765000Y-90229563D02*
X126765000Y-84474000D01*
X127829437Y-91294000D02*
X126765000Y-90229563D01*
X127933750Y-91927750D02*
X128721250Y-91927750D01*
X127829437Y-91294000D02*
X129115000Y-91294000D01*
X133585000Y-84474000D02*
X131235000Y-84474000D01*
X133585000Y-90229563D02*
X133585000Y-84474000D01*
X132520563Y-91294000D02*
X131235000Y-91294000D01*
X128327500Y-92321500D02*
X128327500Y-91534000D01*
X139970742Y-109686137D02*
X140445258Y-109686137D01*
X139970742Y-110731137D02*
X140445258Y-110731137D01*
X157203000Y-93117186D02*
X157203000Y-93571314D01*
X155733000Y-93117186D02*
X155733000Y-93571314D01*
X121705000Y-102335000D02*
X123990000Y-102335000D01*
X121705000Y-100865000D02*
X121705000Y-102335000D01*
X123990000Y-100865000D02*
X121705000Y-100865000D01*
X160639000Y-85146250D02*
X161364000Y-85146250D01*
X156144000Y-90366250D02*
X156144000Y-89641250D01*
X156869000Y-85146250D02*
X156144000Y-85146250D01*
X156869000Y-90366250D02*
X156144000Y-90366250D01*
X161364000Y-85146250D02*
X161364000Y-85871250D01*
X156144000Y-85146250D02*
X156144000Y-85871250D01*
X160639000Y-90366250D02*
X161364000Y-90366250D01*
X164090000Y-92695670D02*
X164090000Y-92976830D01*
X163070000Y-92695670D02*
X163070000Y-92976830D01*
X162450580Y-84329250D02*
X162169420Y-84329250D01*
X162450580Y-83309250D02*
X162169420Y-83309250D01*
X164594000Y-91706830D02*
X164594000Y-91425670D01*
X165614000Y-91706830D02*
X165614000Y-91425670D01*
X133491500Y-113554742D02*
X133491500Y-114029258D01*
X132446500Y-113554742D02*
X132446500Y-114029258D01*
X121705000Y-97763000D02*
X123990000Y-97763000D01*
X123990000Y-96293000D02*
X121705000Y-96293000D01*
X121705000Y-96293000D02*
X121705000Y-97763000D01*
X133590878Y-99112000D02*
X134390122Y-99112000D01*
X133590878Y-97992000D02*
X134390122Y-97992000D01*
X145469000Y-113738000D02*
X145019000Y-113738000D01*
X138699000Y-120958000D02*
X138699000Y-122248000D01*
X145469000Y-114188000D02*
X145469000Y-113738000D01*
X138249000Y-120958000D02*
X138699000Y-120958000D01*
X145469000Y-120508000D02*
X145469000Y-120958000D01*
X138249000Y-113738000D02*
X138699000Y-113738000D01*
X138249000Y-120508000D02*
X138249000Y-120958000D01*
X145469000Y-120958000D02*
X145019000Y-120958000D01*
X138249000Y-114188000D02*
X138249000Y-113738000D01*
X117945000Y-78648000D02*
X123145000Y-78648000D01*
X120545000Y-73448000D02*
X123145000Y-73448000D01*
X117945000Y-73448000D02*
X119275000Y-73448000D01*
X117945000Y-74778000D02*
X117945000Y-73448000D01*
X123145000Y-73448000D02*
X123145000Y-78648000D01*
X120545000Y-76048000D02*
X120545000Y-73448000D01*
X117945000Y-76048000D02*
X120545000Y-76048000D01*
X117945000Y-76048000D02*
X117945000Y-78648000D01*
X166718000Y-95812000D02*
X167048000Y-95812000D01*
X169708000Y-96472000D02*
X175708000Y-96472000D01*
X167048000Y-94862000D02*
X167048000Y-112762000D01*
X167048000Y-97462000D02*
X169708000Y-97462000D01*
X175708000Y-104192000D02*
X169708000Y-104192000D01*
X169708000Y-111052000D02*
X175708000Y-111052000D01*
X169708000Y-95872000D02*
X175708000Y-95872000D01*
X169708000Y-96232000D02*
X175708000Y-96232000D01*
X166650929Y-108512000D02*
X167048000Y-108512000D01*
X169708000Y-96352000D02*
X175708000Y-96352000D01*
X169708000Y-95992000D02*
X175708000Y-95992000D01*
X167048000Y-110162000D02*
X169708000Y-110162000D01*
X164338000Y-96192000D02*
X164338000Y-94922000D01*
X166650929Y-101652000D02*
X167048000Y-101652000D01*
X166650929Y-98352000D02*
X167048000Y-98352000D01*
X167048000Y-107622000D02*
X169708000Y-107622000D01*
X169708000Y-112762000D02*
X169708000Y-94862000D01*
X166718000Y-96572000D02*
X167048000Y-96572000D01*
X167048000Y-102542000D02*
X169708000Y-102542000D01*
X166650929Y-103432000D02*
X167048000Y-103432000D01*
X167048000Y-105082000D02*
X169708000Y-105082000D01*
X166650929Y-100892000D02*
X167048000Y-100892000D01*
X175708000Y-95812000D02*
X175708000Y-96572000D01*
X166650929Y-111052000D02*
X167048000Y-111052000D01*
X169708000Y-103432000D02*
X175708000Y-103432000D01*
X169708000Y-105972000D02*
X175708000Y-105972000D01*
X175708000Y-96572000D02*
X169708000Y-96572000D01*
X175708000Y-103432000D02*
X175708000Y-104192000D01*
X169708000Y-108512000D02*
X175708000Y-108512000D01*
X175708000Y-105972000D02*
X175708000Y-106732000D01*
X175708000Y-100892000D02*
X175708000Y-101652000D01*
X175708000Y-111812000D02*
X169708000Y-111812000D01*
X175708000Y-101652000D02*
X169708000Y-101652000D01*
X169708000Y-96112000D02*
X175708000Y-96112000D01*
X167048000Y-112762000D02*
X169708000Y-112762000D01*
X169708000Y-98352000D02*
X175708000Y-98352000D01*
X169708000Y-100892000D02*
X175708000Y-100892000D01*
X175708000Y-99112000D02*
X169708000Y-99112000D01*
X169708000Y-95812000D02*
X175708000Y-95812000D01*
X175708000Y-106732000D02*
X169708000Y-106732000D01*
X167048000Y-100002000D02*
X169708000Y-100002000D01*
X166650929Y-109272000D02*
X167048000Y-109272000D01*
X175708000Y-98352000D02*
X175708000Y-99112000D01*
X169708000Y-94862000D02*
X167048000Y-94862000D01*
X164338000Y-94922000D02*
X165608000Y-94922000D01*
X166650929Y-111812000D02*
X167048000Y-111812000D01*
X175708000Y-108512000D02*
X175708000Y-109272000D01*
X166650929Y-106732000D02*
X167048000Y-106732000D01*
X175708000Y-109272000D02*
X169708000Y-109272000D01*
X166650929Y-104192000D02*
X167048000Y-104192000D01*
X166650929Y-99112000D02*
X167048000Y-99112000D01*
X175708000Y-111052000D02*
X175708000Y-111812000D01*
X166650929Y-105972000D02*
X167048000Y-105972000D01*
X117094000Y-82931000D02*
X122174000Y-82931000D01*
X117094000Y-95631000D02*
X117094000Y-82931000D01*
X122174000Y-91186000D02*
X122174000Y-95631000D01*
X122174000Y-95631000D02*
X117094000Y-95631000D01*
X122174000Y-82931000D02*
X122174000Y-88646000D01*
X153147955Y-68396000D02*
X153147955Y-77026000D01*
X153597000Y-77026000D02*
X153597000Y-77376000D01*
X146887000Y-68396000D02*
X146887000Y-77026000D01*
X151967000Y-68396000D02*
X151967000Y-77026000D01*
X149427000Y-68396000D02*
X149427000Y-77026000D01*
X153620335Y-68396000D02*
X153620335Y-77026000D01*
X154447000Y-68396000D02*
X154447000Y-77026000D01*
X153502240Y-68396000D02*
X153502240Y-77026000D01*
X143437000Y-77026000D02*
X143437000Y-77436000D01*
X152877000Y-77026000D02*
X152877000Y-77376000D01*
X148517000Y-77026000D02*
X148517000Y-77436000D01*
X137637000Y-77026000D02*
X137637000Y-77436000D01*
X147797000Y-77026000D02*
X147797000Y-77436000D01*
X152321290Y-68396000D02*
X152321290Y-77026000D01*
X152911765Y-68396000D02*
X152911765Y-77026000D01*
X154567000Y-68396000D02*
X136667000Y-68396000D01*
X153266050Y-68396000D02*
X153266050Y-77026000D01*
X154210810Y-68396000D02*
X154210810Y-77026000D01*
X140897000Y-77026000D02*
X140897000Y-77436000D01*
X154567000Y-79596000D02*
X153237000Y-79596000D01*
X140177000Y-77026000D02*
X140177000Y-77436000D01*
X152439385Y-68396000D02*
X152439385Y-77026000D01*
X154567000Y-78486000D02*
X154567000Y-79596000D01*
X154567000Y-68396000D02*
X154567000Y-77026000D01*
X150337000Y-77026000D02*
X150337000Y-77436000D01*
X141807000Y-68396000D02*
X141807000Y-77026000D01*
X152557480Y-68396000D02*
X152557480Y-77026000D01*
X152085100Y-68396000D02*
X152085100Y-77026000D01*
X138357000Y-77026000D02*
X138357000Y-77436000D01*
X139267000Y-68396000D02*
X139267000Y-77026000D01*
X152793670Y-68396000D02*
X152793670Y-77026000D01*
X152203195Y-68396000D02*
X152203195Y-77026000D01*
X153856525Y-68396000D02*
X153856525Y-77026000D01*
X153738430Y-68396000D02*
X153738430Y-77026000D01*
X145257000Y-77026000D02*
X145257000Y-77436000D01*
X151057000Y-77026000D02*
X151057000Y-77436000D01*
X144347000Y-68396000D02*
X144347000Y-77026000D01*
X142717000Y-77026000D02*
X142717000Y-77436000D01*
X154567000Y-77026000D02*
X136667000Y-77026000D01*
X153384145Y-68396000D02*
X153384145Y-77026000D01*
X154328905Y-68396000D02*
X154328905Y-77026000D01*
X145977000Y-77026000D02*
X145977000Y-77436000D01*
X153029860Y-68396000D02*
X153029860Y-77026000D01*
X153974620Y-68396000D02*
X153974620Y-77026000D01*
X136667000Y-68396000D02*
X136667000Y-77026000D01*
X152675575Y-68396000D02*
X152675575Y-77026000D01*
X154092715Y-68396000D02*
X154092715Y-77026000D01*
X133479000Y-119747420D02*
X133479000Y-120028580D01*
X132459000Y-119747420D02*
X132459000Y-120028580D01*
X126991474Y-102383000D02*
X128413978Y-102383000D01*
X126991474Y-100563000D02*
X128413978Y-100563000D01*
X130180500Y-96992000D02*
X130980500Y-96992000D01*
X130180500Y-100112000D02*
X130980500Y-100112000D01*
X130180500Y-96992000D02*
X128380500Y-96992000D01*
X130180500Y-100112000D02*
X129380500Y-100112000D01*
X132730262Y-117077258D02*
X132730262Y-116602742D01*
X133775262Y-117077258D02*
X133775262Y-116602742D01*
X133467721Y-102383000D02*
X132045217Y-102383000D01*
X133467721Y-100563000D02*
X132045217Y-100563000D01*
X122932742Y-99074500D02*
X123407258Y-99074500D01*
X122932742Y-98029500D02*
X123407258Y-98029500D01*
D13*
X136398000Y-100396000D02*
X136398000Y-82296000D01*
X151638000Y-100396000D02*
X136398000Y-100396000D01*
X151638000Y-82296000D02*
X151638000Y-100396000D01*
X136398000Y-82296000D02*
X151638000Y-82296000D01*
D12*
X131944920Y-96522000D02*
X132226080Y-96522000D01*
X131944920Y-95502000D02*
X132226080Y-95502000D01*
M02*
