G04 #@! TF.GenerationSoftware,KiCad,Pcbnew,(5.1.5-0)*
G04 #@! TF.CreationDate,2019-12-11T17:32:03-05:00*
G04 #@! TF.ProjectId,syringe_board,73797269-6e67-4655-9f62-6f6172642e6b,3.3*
G04 #@! TF.SameCoordinates,Original*
G04 #@! TF.FileFunction,Copper,L2,Bot*
G04 #@! TF.FilePolarity,Positive*
%FSLAX46Y46*%
G04 Gerber Fmt 4.6, Leading zero omitted, Abs format (unit mm)*
G04 Created by KiCad (PCBNEW (5.1.5-0)) date 2019-12-11 17:32:03*
%MOMM*%
%LPD*%
G04 APERTURE LIST*
%ADD10O,5.000000X2.500000*%
%ADD11O,4.500000X2.250000*%
%ADD12C,0.100000*%
%ADD13C,0.500000*%
%ADD14C,1.609600*%
%ADD15C,6.000000*%
%ADD16C,1.524000*%
%ADD17C,1.500000*%
%ADD18C,1.055600*%
%ADD19C,0.800000*%
%ADD20C,0.482600*%
%ADD21C,0.609600*%
%ADD22C,0.457200*%
%ADD23C,0.304800*%
%ADD24C,0.250000*%
%ADD25C,0.254000*%
G04 APERTURE END LIST*
D10*
X136144000Y-75692000D03*
D11*
X136144000Y-69692000D03*
G04 #@! TA.AperFunction,Conductor*
D12*
G36*
X106942504Y-73173204D02*
G01*
X106966773Y-73176804D01*
X106990571Y-73182765D01*
X107013671Y-73191030D01*
X107035849Y-73201520D01*
X107056893Y-73214133D01*
X107076598Y-73228747D01*
X107094777Y-73245223D01*
X107111253Y-73263402D01*
X107125867Y-73283107D01*
X107138480Y-73304151D01*
X107148970Y-73326329D01*
X107157235Y-73349429D01*
X107163196Y-73373227D01*
X107166796Y-73397496D01*
X107168000Y-73422000D01*
X107168000Y-75422000D01*
X107166796Y-75446504D01*
X107163196Y-75470773D01*
X107157235Y-75494571D01*
X107148970Y-75517671D01*
X107138480Y-75539849D01*
X107125867Y-75560893D01*
X107111253Y-75580598D01*
X107094777Y-75598777D01*
X107076598Y-75615253D01*
X107056893Y-75629867D01*
X107035849Y-75642480D01*
X107013671Y-75652970D01*
X106990571Y-75661235D01*
X106966773Y-75667196D01*
X106942504Y-75670796D01*
X106918000Y-75672000D01*
X104918000Y-75672000D01*
X104893496Y-75670796D01*
X104869227Y-75667196D01*
X104845429Y-75661235D01*
X104822329Y-75652970D01*
X104800151Y-75642480D01*
X104779107Y-75629867D01*
X104759402Y-75615253D01*
X104741223Y-75598777D01*
X104724747Y-75580598D01*
X104710133Y-75560893D01*
X104697520Y-75539849D01*
X104687030Y-75517671D01*
X104678765Y-75494571D01*
X104672804Y-75470773D01*
X104669204Y-75446504D01*
X104668000Y-75422000D01*
X104668000Y-73422000D01*
X104669204Y-73397496D01*
X104672804Y-73373227D01*
X104678765Y-73349429D01*
X104687030Y-73326329D01*
X104697520Y-73304151D01*
X104710133Y-73283107D01*
X104724747Y-73263402D01*
X104741223Y-73245223D01*
X104759402Y-73228747D01*
X104779107Y-73214133D01*
X104800151Y-73201520D01*
X104822329Y-73191030D01*
X104845429Y-73182765D01*
X104869227Y-73176804D01*
X104893496Y-73173204D01*
X104918000Y-73172000D01*
X106918000Y-73172000D01*
X106942504Y-73173204D01*
G37*
G04 #@! TD.AperFunction*
D13*
X106918000Y-75422000D03*
X105918000Y-75422000D03*
X104918000Y-75422000D03*
X106918000Y-74422000D03*
X105918000Y-74422000D03*
X104918000Y-74422000D03*
X106918000Y-73422000D03*
X105918000Y-73422000D03*
X104918000Y-73422000D03*
D14*
X94742000Y-107188000D03*
X97282000Y-107188000D03*
X99822000Y-107188000D03*
X102362000Y-107188000D03*
X104902000Y-107188000D03*
X107442000Y-107188000D03*
X109982000Y-107188000D03*
X112522000Y-107188000D03*
X115062000Y-107188000D03*
X117602000Y-107188000D03*
X120142000Y-107188000D03*
X122682000Y-107188000D03*
X125222000Y-107188000D03*
X127762000Y-107188000D03*
X130302000Y-107188000D03*
X132842000Y-107188000D03*
X132842000Y-86868000D03*
X130302000Y-86868000D03*
X127762000Y-86868000D03*
X125222000Y-86868000D03*
X122682000Y-86868000D03*
X120142000Y-86868000D03*
X117602000Y-86868000D03*
X115062000Y-86868000D03*
X112522000Y-86868000D03*
X109982000Y-86868000D03*
X107442000Y-86868000D03*
X104902000Y-86868000D03*
D15*
X130810000Y-102616000D03*
X123698000Y-65786000D03*
X91440000Y-104140000D03*
X91440000Y-65786000D03*
D16*
X137668000Y-105918000D03*
X137668000Y-103378000D03*
X137668000Y-100838000D03*
X137668000Y-98298000D03*
X137668000Y-95758000D03*
X137668000Y-93218000D03*
X137668000Y-90678000D03*
X137668000Y-88138000D03*
D17*
X89662000Y-93020400D03*
X89662000Y-100019600D03*
D18*
X92362000Y-99020000D03*
X92362000Y-94020000D03*
D19*
X113157000Y-90932000D03*
X111233001Y-82822999D03*
X116967000Y-75946000D03*
X110744000Y-66040000D03*
X103886000Y-92619990D03*
X108204000Y-102235000D03*
X117602000Y-90678000D03*
X112522000Y-98044000D03*
X106014654Y-97251654D03*
X105156000Y-92964000D03*
X127762000Y-90678000D03*
X124968000Y-98552000D03*
X106172000Y-82296000D03*
X100838000Y-81280008D03*
X93472000Y-83566000D03*
X104775006Y-89153998D03*
X103886000Y-100584000D03*
X105561853Y-95222415D03*
X113152340Y-102992340D03*
X113157000Y-101854000D03*
X105282982Y-94234000D03*
X125984000Y-103378000D03*
X117856000Y-99568000D03*
X102362000Y-97917000D03*
X102302319Y-84545010D03*
X114807996Y-81534000D03*
X112268000Y-81534000D03*
X103087010Y-95885002D03*
X135382000Y-90170000D03*
X115062000Y-90678000D03*
X103713200Y-89255206D03*
X127171000Y-80181000D03*
X125984000Y-93995022D03*
X129032000Y-84328000D03*
X131064000Y-93995022D03*
X99709416Y-100598416D03*
X101473000Y-105537004D03*
X99314000Y-73405998D03*
X127254000Y-105410000D03*
X127254000Y-98552000D03*
X119126000Y-100584000D03*
X116332000Y-104013000D03*
X109347000Y-99695000D03*
X103751688Y-98224011D03*
X115316000Y-100330000D03*
X121539000Y-88265002D03*
X100203000Y-83820008D03*
X101128990Y-97333219D03*
X98301463Y-95632774D03*
X107418000Y-80288000D03*
X98170992Y-79883000D03*
X94488000Y-97536000D03*
X94488000Y-84582000D03*
X96012000Y-70866006D03*
X120903992Y-96012000D03*
X120650008Y-97282000D03*
X120142000Y-98298000D03*
X97561502Y-104902002D03*
X109999812Y-98407188D03*
X104198843Y-96461163D03*
X105918000Y-98933000D03*
X102108000Y-72390000D03*
X113538000Y-92710000D03*
X139192000Y-73406000D03*
X129032000Y-77724000D03*
X115062000Y-77216000D03*
X109982000Y-67564000D03*
X132080000Y-72390000D03*
X106426000Y-70485000D03*
X95213010Y-91713002D03*
X98029131Y-96594990D03*
X95630996Y-82296000D03*
X95758000Y-86614000D03*
X96673010Y-83185000D03*
X97028000Y-86360000D03*
D20*
X113157000Y-90932000D02*
X111233001Y-89008001D01*
X111233001Y-89008001D02*
X111233001Y-82822999D01*
D21*
X116967000Y-75946000D02*
X116967000Y-72263000D01*
X116967000Y-72263000D02*
X110744000Y-66040000D01*
X105918000Y-74422000D02*
X104670513Y-73174513D01*
X104670513Y-73174513D02*
X104267000Y-72771000D01*
X105918000Y-74422000D02*
X107569000Y-72771000D01*
X105918000Y-74422000D02*
X107569000Y-76073000D01*
X105918000Y-74422000D02*
X105918000Y-76073000D01*
X105918000Y-74422000D02*
X107696000Y-74422000D01*
X105918000Y-74422000D02*
X105918000Y-72644000D01*
X105918000Y-74422000D02*
X104267000Y-76073000D01*
X105918000Y-74422000D02*
X104140000Y-74422000D01*
D22*
X104394000Y-93853000D02*
X105156000Y-93091000D01*
X104394000Y-95250000D02*
X104394000Y-93853000D01*
X106014654Y-96870654D02*
X104394000Y-95250000D01*
X105156000Y-93091000D02*
X105156000Y-92964000D01*
X106014654Y-97251654D02*
X106014654Y-96870654D01*
X126929428Y-96590572D02*
X124968000Y-98552000D01*
X127762000Y-95758000D02*
X126929428Y-96590572D01*
X127762000Y-90678000D02*
X127762000Y-95758000D01*
D23*
X105156000Y-92964000D02*
X106172000Y-91948000D01*
X106172000Y-91948000D02*
X106172000Y-82296000D01*
D24*
X93472000Y-84131685D02*
X93472000Y-83566000D01*
X95123000Y-101346000D02*
X93472000Y-99695000D01*
X93472000Y-99695000D02*
X93472000Y-84131685D01*
X95123000Y-106807000D02*
X95123000Y-101346000D01*
X94742000Y-107188000D02*
X95123000Y-106807000D01*
X103124000Y-87502992D02*
X104375007Y-88753999D01*
X100838000Y-81280008D02*
X103124000Y-83566008D01*
X103124000Y-83566008D02*
X103124000Y-87502992D01*
X104375007Y-88753999D02*
X104775006Y-89153998D01*
X99822000Y-104648000D02*
X99822000Y-107188000D01*
X103886000Y-100584000D02*
X99822000Y-104648000D01*
X111633000Y-99015057D02*
X111633000Y-101473000D01*
X111633000Y-101473000D02*
X113152340Y-102992340D01*
X107840358Y-95222415D02*
X111633000Y-99015057D01*
X105561853Y-95222415D02*
X107840358Y-95222415D01*
X125984000Y-105410000D02*
X125984000Y-103943685D01*
X125984000Y-103943685D02*
X125984000Y-103378000D01*
X127762000Y-107188000D02*
X125984000Y-105410000D01*
X105848667Y-94234000D02*
X105282982Y-94234000D01*
X113157000Y-101854000D02*
X113157000Y-99902647D01*
X107488353Y-94234000D02*
X105848667Y-94234000D01*
X113157000Y-99902647D02*
X107488353Y-94234000D01*
X117856000Y-101219000D02*
X117856000Y-99568000D01*
X112522000Y-106553000D02*
X117856000Y-101219000D01*
X112522000Y-107188000D02*
X112522000Y-106553000D01*
X102362000Y-84604691D02*
X102302319Y-84545010D01*
X102362000Y-97917000D02*
X102362000Y-84604691D01*
D23*
X120142000Y-86868000D02*
X114808000Y-81534000D01*
X114808000Y-81534000D02*
X114807996Y-81534000D01*
X117602000Y-86868000D02*
X112268000Y-81534000D01*
D24*
X137668000Y-103378000D02*
X135382000Y-101092000D01*
X135382000Y-101092000D02*
X135382000Y-90735685D01*
X135382000Y-90735685D02*
X135382000Y-90170000D01*
X115062000Y-86868000D02*
X115062000Y-90678000D01*
X103087010Y-95885002D02*
X103087010Y-89881396D01*
X103313201Y-89655205D02*
X103713200Y-89255206D01*
X103087010Y-89881396D02*
X103313201Y-89655205D01*
X126375818Y-93603204D02*
X125984000Y-93995022D01*
X126375818Y-80976182D02*
X126375818Y-93603204D01*
X127171000Y-80181000D02*
X126375818Y-80976182D01*
X129032000Y-91963022D02*
X130664001Y-93595023D01*
X130664001Y-93595023D02*
X131064000Y-93995022D01*
X129032000Y-84328000D02*
X129032000Y-91963022D01*
X102038685Y-105537004D02*
X101473000Y-105537004D01*
X104902000Y-107188000D02*
X103251004Y-105537004D01*
X103251004Y-105537004D02*
X102038685Y-105537004D01*
X99709416Y-100032731D02*
X99314000Y-99637315D01*
X99709416Y-100598416D02*
X99709416Y-100032731D01*
X99314000Y-99637315D02*
X99314000Y-73405998D01*
X127254000Y-105410000D02*
X127254000Y-98552000D01*
X116731999Y-104412999D02*
X116332000Y-104013000D01*
X117602000Y-105283000D02*
X116731999Y-104412999D01*
X117602000Y-105791000D02*
X117602000Y-105283000D01*
X119126000Y-103759000D02*
X119126000Y-100584000D01*
X117602000Y-105283000D02*
X119126000Y-103759000D01*
X117602000Y-107188000D02*
X117602000Y-105283000D01*
X109347000Y-99695000D02*
X105222677Y-99695000D01*
X105222677Y-99695000D02*
X104151687Y-98624010D01*
X104151687Y-98624010D02*
X103751688Y-98224011D01*
X121539000Y-88830687D02*
X121539000Y-88265002D01*
X115316000Y-100330000D02*
X121539000Y-94107000D01*
X121539000Y-94107000D02*
X121539000Y-88830687D01*
X101128990Y-84745998D02*
X101128990Y-96767534D01*
X100203000Y-83820008D02*
X101128990Y-84745998D01*
X101128990Y-96767534D02*
X101128990Y-97333219D01*
D23*
X125222000Y-86868000D02*
X118642000Y-80288000D01*
X118642000Y-80288000D02*
X107418000Y-80288000D01*
X98301463Y-95632774D02*
X98301463Y-80013471D01*
X98301463Y-80013471D02*
X98170992Y-79883000D01*
D24*
X94488000Y-96970315D02*
X94488000Y-84582000D01*
X94488000Y-97536000D02*
X94488000Y-96970315D01*
X94488000Y-84582000D02*
X94488000Y-72390006D01*
X94488000Y-72390006D02*
X95612001Y-71266005D01*
X95612001Y-71266005D02*
X96012000Y-70866006D01*
X125222000Y-107188000D02*
X125222000Y-100330008D01*
X125222000Y-100330008D02*
X121303991Y-96411999D01*
X121303991Y-96411999D02*
X120903992Y-96012000D01*
X122682000Y-99313992D02*
X120650008Y-97282000D01*
X122682000Y-107188000D02*
X122682000Y-99313992D01*
X120142000Y-107188000D02*
X120142000Y-98298000D01*
X105156000Y-100584000D02*
X109531002Y-100584000D01*
X109531002Y-100584000D02*
X110399811Y-99715191D01*
X110399811Y-98807187D02*
X109999812Y-98407188D01*
X110399811Y-99715191D02*
X110399811Y-98807187D01*
X97561502Y-104902002D02*
X102631905Y-99831599D01*
X102631905Y-99831599D02*
X104403599Y-99831599D01*
X104403599Y-99831599D02*
X105156000Y-100584000D01*
X104598842Y-96861162D02*
X104198843Y-96461163D01*
X105918000Y-98933000D02*
X105918000Y-98180320D01*
X105918000Y-98180320D02*
X104598842Y-96861162D01*
D25*
X102108000Y-72390000D02*
X102108000Y-77156036D01*
X102108000Y-77156036D02*
X108712000Y-83760036D01*
X108712000Y-83760036D02*
X108712000Y-87884000D01*
X108712000Y-87884000D02*
X113138001Y-92310001D01*
X113138001Y-92310001D02*
X113538000Y-92710000D01*
X139192000Y-91694000D02*
X139192000Y-73971685D01*
X137668000Y-93218000D02*
X139192000Y-91694000D01*
X139192000Y-73971685D02*
X139192000Y-73406000D01*
X115570000Y-77724000D02*
X115062000Y-77216000D01*
X129032000Y-77724000D02*
X115570000Y-77724000D01*
X132080000Y-72390000D02*
X132080000Y-82550000D01*
X132080000Y-82550000D02*
X137668000Y-88138000D01*
X109347000Y-67564000D02*
X106426000Y-70485000D01*
X109982000Y-67564000D02*
X109347000Y-67564000D01*
D24*
X95213010Y-91713002D02*
X95213010Y-93778869D01*
X97629132Y-96194991D02*
X98029131Y-96594990D01*
X95213010Y-93778869D02*
X97629132Y-96194991D01*
X95630996Y-82296000D02*
X95630996Y-86486996D01*
X95630996Y-86486996D02*
X95758000Y-86614000D01*
X96673010Y-83185000D02*
X96673010Y-86005010D01*
X96673010Y-86005010D02*
X97028000Y-86360000D01*
D25*
G36*
X139327567Y-62294535D02*
G01*
X139702301Y-62407674D01*
X140047916Y-62591442D01*
X140351261Y-62838843D01*
X140600769Y-63140446D01*
X140786945Y-63484772D01*
X140902697Y-63858706D01*
X140944996Y-64261157D01*
X140945001Y-64262694D01*
X140945000Y-106412359D01*
X140905465Y-106815567D01*
X140792327Y-107190299D01*
X140608561Y-107535913D01*
X140361157Y-107839261D01*
X140059554Y-108088769D01*
X139715227Y-108274945D01*
X139341294Y-108390697D01*
X138938843Y-108432996D01*
X138937591Y-108433000D01*
X133578108Y-108433000D01*
X133586360Y-108428589D01*
X133658525Y-108184130D01*
X132842000Y-107367605D01*
X132025475Y-108184130D01*
X132097640Y-108428589D01*
X132106955Y-108433000D01*
X103098108Y-108433000D01*
X103106360Y-108428589D01*
X103178525Y-108184130D01*
X102362000Y-107367605D01*
X101545475Y-108184130D01*
X101617640Y-108428589D01*
X101626955Y-108433000D01*
X90183641Y-108433000D01*
X89780433Y-108393465D01*
X89405701Y-108280327D01*
X89060087Y-108096561D01*
X88756739Y-107849157D01*
X88507231Y-107547554D01*
X88321055Y-107203227D01*
X88205303Y-106829294D01*
X88163004Y-106426843D01*
X88163000Y-106425591D01*
X88163000Y-104719047D01*
X88240855Y-105110450D01*
X88491651Y-105715925D01*
X88855750Y-106260839D01*
X89319161Y-106724250D01*
X89864075Y-107088349D01*
X90469550Y-107339145D01*
X91112319Y-107467000D01*
X91767681Y-107467000D01*
X92410450Y-107339145D01*
X93015925Y-107088349D01*
X93560839Y-106724250D01*
X94024250Y-106260839D01*
X94388349Y-105715925D01*
X94639145Y-105110450D01*
X94671000Y-104950303D01*
X94671000Y-106056200D01*
X94630527Y-106056200D01*
X94411866Y-106099695D01*
X94205892Y-106185012D01*
X94020520Y-106308874D01*
X93862874Y-106466520D01*
X93739012Y-106651892D01*
X93653695Y-106857866D01*
X93610200Y-107076527D01*
X93610200Y-107299473D01*
X93653695Y-107518134D01*
X93739012Y-107724108D01*
X93862874Y-107909480D01*
X94020520Y-108067126D01*
X94205892Y-108190988D01*
X94411866Y-108276305D01*
X94630527Y-108319800D01*
X94853473Y-108319800D01*
X95072134Y-108276305D01*
X95278108Y-108190988D01*
X95463480Y-108067126D01*
X95621126Y-107909480D01*
X95744988Y-107724108D01*
X95830305Y-107518134D01*
X95873800Y-107299473D01*
X95873800Y-107076527D01*
X96150200Y-107076527D01*
X96150200Y-107299473D01*
X96193695Y-107518134D01*
X96279012Y-107724108D01*
X96402874Y-107909480D01*
X96560520Y-108067126D01*
X96745892Y-108190988D01*
X96951866Y-108276305D01*
X97170527Y-108319800D01*
X97393473Y-108319800D01*
X97612134Y-108276305D01*
X97818108Y-108190988D01*
X98003480Y-108067126D01*
X98161126Y-107909480D01*
X98284988Y-107724108D01*
X98370305Y-107518134D01*
X98413800Y-107299473D01*
X98413800Y-107076527D01*
X98370305Y-106857866D01*
X98284988Y-106651892D01*
X98161126Y-106466520D01*
X98003480Y-106308874D01*
X97818108Y-106185012D01*
X97612134Y-106099695D01*
X97393473Y-106056200D01*
X97170527Y-106056200D01*
X96951866Y-106099695D01*
X96745892Y-106185012D01*
X96560520Y-106308874D01*
X96402874Y-106466520D01*
X96279012Y-106651892D01*
X96193695Y-106857866D01*
X96150200Y-107076527D01*
X95873800Y-107076527D01*
X95830305Y-106857866D01*
X95744988Y-106651892D01*
X95621126Y-106466520D01*
X95575000Y-106420394D01*
X95575000Y-101368205D01*
X95577187Y-101346000D01*
X95568460Y-101257392D01*
X95542614Y-101172190D01*
X95537763Y-101163114D01*
X95500643Y-101093667D01*
X95444159Y-101024841D01*
X95426905Y-101010681D01*
X93924000Y-99507777D01*
X93924000Y-98000134D01*
X94024564Y-98100698D01*
X94143636Y-98180259D01*
X94275942Y-98235062D01*
X94416397Y-98263000D01*
X94559603Y-98263000D01*
X94700058Y-98235062D01*
X94832364Y-98180259D01*
X94951436Y-98100698D01*
X95052698Y-97999436D01*
X95132259Y-97880364D01*
X95187062Y-97748058D01*
X95215000Y-97607603D01*
X95215000Y-97464397D01*
X95187062Y-97323942D01*
X95132259Y-97191636D01*
X95052698Y-97072564D01*
X94951436Y-96971302D01*
X94940000Y-96963661D01*
X94940000Y-94145082D01*
X97304814Y-96509897D01*
X97302131Y-96523387D01*
X97302131Y-96666593D01*
X97330069Y-96807048D01*
X97384872Y-96939354D01*
X97464433Y-97058426D01*
X97565695Y-97159688D01*
X97684767Y-97239249D01*
X97817073Y-97294052D01*
X97957528Y-97321990D01*
X98100734Y-97321990D01*
X98241189Y-97294052D01*
X98373495Y-97239249D01*
X98492567Y-97159688D01*
X98593829Y-97058426D01*
X98673390Y-96939354D01*
X98728193Y-96807048D01*
X98756131Y-96666593D01*
X98756131Y-96523387D01*
X98728193Y-96382932D01*
X98675982Y-96256884D01*
X98764899Y-96197472D01*
X98862000Y-96100371D01*
X98862000Y-99615110D01*
X98859813Y-99637315D01*
X98868540Y-99725922D01*
X98886039Y-99783607D01*
X98894386Y-99811124D01*
X98936357Y-99889647D01*
X98992841Y-99958474D01*
X99010100Y-99972638D01*
X99158580Y-100121118D01*
X99144718Y-100134980D01*
X99065157Y-100254052D01*
X99010354Y-100386358D01*
X98982416Y-100526813D01*
X98982416Y-100670019D01*
X99010354Y-100810474D01*
X99065157Y-100942780D01*
X99144718Y-101061852D01*
X99245980Y-101163114D01*
X99365052Y-101242675D01*
X99497358Y-101297478D01*
X99637813Y-101325416D01*
X99781019Y-101325416D01*
X99921474Y-101297478D01*
X100053780Y-101242675D01*
X100172852Y-101163114D01*
X100274114Y-101061852D01*
X100353675Y-100942780D01*
X100408478Y-100810474D01*
X100436416Y-100670019D01*
X100436416Y-100526813D01*
X100408478Y-100386358D01*
X100353675Y-100254052D01*
X100274114Y-100134980D01*
X100172852Y-100033718D01*
X100163056Y-100027172D01*
X100154876Y-99944123D01*
X100129030Y-99858921D01*
X100107991Y-99819560D01*
X100087059Y-99780398D01*
X100030575Y-99711572D01*
X100013321Y-99697412D01*
X99766000Y-99450092D01*
X99766000Y-84402370D01*
X99858636Y-84464267D01*
X99990942Y-84519070D01*
X100131397Y-84547008D01*
X100274603Y-84547008D01*
X100288093Y-84544325D01*
X100676990Y-84933222D01*
X100676991Y-96745320D01*
X100676990Y-96745330D01*
X100676990Y-96760880D01*
X100665554Y-96768521D01*
X100564292Y-96869783D01*
X100484731Y-96988855D01*
X100429928Y-97121161D01*
X100401990Y-97261616D01*
X100401990Y-97404822D01*
X100429928Y-97545277D01*
X100484731Y-97677583D01*
X100564292Y-97796655D01*
X100665554Y-97897917D01*
X100784626Y-97977478D01*
X100916932Y-98032281D01*
X101057387Y-98060219D01*
X101200593Y-98060219D01*
X101341048Y-98032281D01*
X101473354Y-97977478D01*
X101592426Y-97897917D01*
X101635000Y-97855343D01*
X101635000Y-97988603D01*
X101662938Y-98129058D01*
X101717741Y-98261364D01*
X101797302Y-98380436D01*
X101898564Y-98481698D01*
X102017636Y-98561259D01*
X102149942Y-98616062D01*
X102290397Y-98644000D01*
X102433603Y-98644000D01*
X102574058Y-98616062D01*
X102706364Y-98561259D01*
X102825436Y-98481698D01*
X102926698Y-98380436D01*
X103006259Y-98261364D01*
X103024688Y-98216873D01*
X103024688Y-98295614D01*
X103052626Y-98436069D01*
X103107429Y-98568375D01*
X103186990Y-98687447D01*
X103288252Y-98788709D01*
X103407324Y-98868270D01*
X103539630Y-98923073D01*
X103680085Y-98951011D01*
X103823291Y-98951011D01*
X103836781Y-98948328D01*
X103847776Y-98959323D01*
X103847781Y-98959327D01*
X104268053Y-99379599D01*
X102654110Y-99379599D01*
X102631905Y-99377412D01*
X102543297Y-99386139D01*
X102458095Y-99411985D01*
X102379572Y-99453956D01*
X102310746Y-99510440D01*
X102296586Y-99527694D01*
X97646596Y-104177685D01*
X97633105Y-104175002D01*
X97489899Y-104175002D01*
X97349444Y-104202940D01*
X97217138Y-104257743D01*
X97098066Y-104337304D01*
X96996804Y-104438566D01*
X96917243Y-104557638D01*
X96862440Y-104689944D01*
X96834502Y-104830399D01*
X96834502Y-104973605D01*
X96862440Y-105114060D01*
X96917243Y-105246366D01*
X96996804Y-105365438D01*
X97098066Y-105466700D01*
X97217138Y-105546261D01*
X97349444Y-105601064D01*
X97489899Y-105629002D01*
X97633105Y-105629002D01*
X97773560Y-105601064D01*
X97905866Y-105546261D01*
X98024938Y-105466700D01*
X98126200Y-105365438D01*
X98205761Y-105246366D01*
X98260564Y-105114060D01*
X98288502Y-104973605D01*
X98288502Y-104830399D01*
X98285819Y-104816908D01*
X102819129Y-100283599D01*
X103223531Y-100283599D01*
X103186938Y-100371942D01*
X103159000Y-100512397D01*
X103159000Y-100655603D01*
X103161683Y-100669093D01*
X99518100Y-104312677D01*
X99500841Y-104326841D01*
X99444357Y-104395668D01*
X99428599Y-104425150D01*
X99402386Y-104474191D01*
X99376540Y-104559393D01*
X99367813Y-104648000D01*
X99370000Y-104670205D01*
X99370001Y-106150173D01*
X99285892Y-106185012D01*
X99100520Y-106308874D01*
X98942874Y-106466520D01*
X98819012Y-106651892D01*
X98733695Y-106857866D01*
X98690200Y-107076527D01*
X98690200Y-107299473D01*
X98733695Y-107518134D01*
X98819012Y-107724108D01*
X98942874Y-107909480D01*
X99100520Y-108067126D01*
X99285892Y-108190988D01*
X99491866Y-108276305D01*
X99710527Y-108319800D01*
X99933473Y-108319800D01*
X100152134Y-108276305D01*
X100358108Y-108190988D01*
X100543480Y-108067126D01*
X100701126Y-107909480D01*
X100824988Y-107724108D01*
X100910305Y-107518134D01*
X100936149Y-107388208D01*
X100958429Y-107538887D01*
X101053853Y-107805968D01*
X101121411Y-107932360D01*
X101365870Y-108004525D01*
X102182395Y-107188000D01*
X102168253Y-107173858D01*
X102347858Y-106994253D01*
X102362000Y-107008395D01*
X102376143Y-106994253D01*
X102555748Y-107173858D01*
X102541605Y-107188000D01*
X103358130Y-108004525D01*
X103602589Y-107932360D01*
X103723969Y-107676030D01*
X103791545Y-107406780D01*
X103813695Y-107518134D01*
X103899012Y-107724108D01*
X104022874Y-107909480D01*
X104180520Y-108067126D01*
X104365892Y-108190988D01*
X104571866Y-108276305D01*
X104790527Y-108319800D01*
X105013473Y-108319800D01*
X105232134Y-108276305D01*
X105438108Y-108190988D01*
X105623480Y-108067126D01*
X105781126Y-107909480D01*
X105904988Y-107724108D01*
X105990305Y-107518134D01*
X106033800Y-107299473D01*
X106033800Y-107076527D01*
X106310200Y-107076527D01*
X106310200Y-107299473D01*
X106353695Y-107518134D01*
X106439012Y-107724108D01*
X106562874Y-107909480D01*
X106720520Y-108067126D01*
X106905892Y-108190988D01*
X107111866Y-108276305D01*
X107330527Y-108319800D01*
X107553473Y-108319800D01*
X107772134Y-108276305D01*
X107978108Y-108190988D01*
X108163480Y-108067126D01*
X108321126Y-107909480D01*
X108444988Y-107724108D01*
X108530305Y-107518134D01*
X108573800Y-107299473D01*
X108573800Y-107076527D01*
X108850200Y-107076527D01*
X108850200Y-107299473D01*
X108893695Y-107518134D01*
X108979012Y-107724108D01*
X109102874Y-107909480D01*
X109260520Y-108067126D01*
X109445892Y-108190988D01*
X109651866Y-108276305D01*
X109870527Y-108319800D01*
X110093473Y-108319800D01*
X110312134Y-108276305D01*
X110518108Y-108190988D01*
X110703480Y-108067126D01*
X110861126Y-107909480D01*
X110984988Y-107724108D01*
X111070305Y-107518134D01*
X111113800Y-107299473D01*
X111113800Y-107076527D01*
X111390200Y-107076527D01*
X111390200Y-107299473D01*
X111433695Y-107518134D01*
X111519012Y-107724108D01*
X111642874Y-107909480D01*
X111800520Y-108067126D01*
X111985892Y-108190988D01*
X112191866Y-108276305D01*
X112410527Y-108319800D01*
X112633473Y-108319800D01*
X112852134Y-108276305D01*
X113058108Y-108190988D01*
X113243480Y-108067126D01*
X113401126Y-107909480D01*
X113524988Y-107724108D01*
X113610305Y-107518134D01*
X113653800Y-107299473D01*
X113653800Y-107076527D01*
X113930200Y-107076527D01*
X113930200Y-107299473D01*
X113973695Y-107518134D01*
X114059012Y-107724108D01*
X114182874Y-107909480D01*
X114340520Y-108067126D01*
X114525892Y-108190988D01*
X114731866Y-108276305D01*
X114950527Y-108319800D01*
X115173473Y-108319800D01*
X115392134Y-108276305D01*
X115598108Y-108190988D01*
X115783480Y-108067126D01*
X115941126Y-107909480D01*
X116064988Y-107724108D01*
X116150305Y-107518134D01*
X116193800Y-107299473D01*
X116193800Y-107076527D01*
X116150305Y-106857866D01*
X116064988Y-106651892D01*
X115941126Y-106466520D01*
X115783480Y-106308874D01*
X115598108Y-106185012D01*
X115392134Y-106099695D01*
X115173473Y-106056200D01*
X114950527Y-106056200D01*
X114731866Y-106099695D01*
X114525892Y-106185012D01*
X114340520Y-106308874D01*
X114182874Y-106466520D01*
X114059012Y-106651892D01*
X113973695Y-106857866D01*
X113930200Y-107076527D01*
X113653800Y-107076527D01*
X113610305Y-106857866D01*
X113524988Y-106651892D01*
X113401126Y-106466520D01*
X113324415Y-106389809D01*
X115609085Y-104105139D01*
X115632938Y-104225058D01*
X115687741Y-104357364D01*
X115767302Y-104476436D01*
X115868564Y-104577698D01*
X115987636Y-104657259D01*
X116119942Y-104712062D01*
X116260397Y-104740000D01*
X116403603Y-104740000D01*
X116417093Y-104737317D01*
X116428088Y-104748312D01*
X116428093Y-104748316D01*
X117150001Y-105470225D01*
X117150000Y-105813204D01*
X117150001Y-105813211D01*
X117150001Y-106150173D01*
X117065892Y-106185012D01*
X116880520Y-106308874D01*
X116722874Y-106466520D01*
X116599012Y-106651892D01*
X116513695Y-106857866D01*
X116470200Y-107076527D01*
X116470200Y-107299473D01*
X116513695Y-107518134D01*
X116599012Y-107724108D01*
X116722874Y-107909480D01*
X116880520Y-108067126D01*
X117065892Y-108190988D01*
X117271866Y-108276305D01*
X117490527Y-108319800D01*
X117713473Y-108319800D01*
X117932134Y-108276305D01*
X118138108Y-108190988D01*
X118323480Y-108067126D01*
X118481126Y-107909480D01*
X118604988Y-107724108D01*
X118690305Y-107518134D01*
X118733800Y-107299473D01*
X118733800Y-107076527D01*
X118690305Y-106857866D01*
X118604988Y-106651892D01*
X118481126Y-106466520D01*
X118323480Y-106308874D01*
X118138108Y-106185012D01*
X118054000Y-106150173D01*
X118054000Y-105470223D01*
X119429912Y-104094313D01*
X119447159Y-104080159D01*
X119503643Y-104011333D01*
X119545614Y-103932810D01*
X119571460Y-103847607D01*
X119578000Y-103781205D01*
X119578000Y-103781204D01*
X119580187Y-103759001D01*
X119578000Y-103736798D01*
X119578000Y-101156339D01*
X119589436Y-101148698D01*
X119690001Y-101048133D01*
X119690000Y-106150173D01*
X119605892Y-106185012D01*
X119420520Y-106308874D01*
X119262874Y-106466520D01*
X119139012Y-106651892D01*
X119053695Y-106857866D01*
X119010200Y-107076527D01*
X119010200Y-107299473D01*
X119053695Y-107518134D01*
X119139012Y-107724108D01*
X119262874Y-107909480D01*
X119420520Y-108067126D01*
X119605892Y-108190988D01*
X119811866Y-108276305D01*
X120030527Y-108319800D01*
X120253473Y-108319800D01*
X120472134Y-108276305D01*
X120678108Y-108190988D01*
X120863480Y-108067126D01*
X121021126Y-107909480D01*
X121144988Y-107724108D01*
X121230305Y-107518134D01*
X121273800Y-107299473D01*
X121273800Y-107076527D01*
X121230305Y-106857866D01*
X121144988Y-106651892D01*
X121021126Y-106466520D01*
X120863480Y-106308874D01*
X120678108Y-106185012D01*
X120594000Y-106150173D01*
X120594000Y-98870339D01*
X120605436Y-98862698D01*
X120706698Y-98761436D01*
X120786259Y-98642364D01*
X120841062Y-98510058D01*
X120869000Y-98369603D01*
X120869000Y-98226397D01*
X120847601Y-98118816D01*
X122230001Y-99501217D01*
X122230000Y-106150173D01*
X122145892Y-106185012D01*
X121960520Y-106308874D01*
X121802874Y-106466520D01*
X121679012Y-106651892D01*
X121593695Y-106857866D01*
X121550200Y-107076527D01*
X121550200Y-107299473D01*
X121593695Y-107518134D01*
X121679012Y-107724108D01*
X121802874Y-107909480D01*
X121960520Y-108067126D01*
X122145892Y-108190988D01*
X122351866Y-108276305D01*
X122570527Y-108319800D01*
X122793473Y-108319800D01*
X123012134Y-108276305D01*
X123218108Y-108190988D01*
X123403480Y-108067126D01*
X123561126Y-107909480D01*
X123684988Y-107724108D01*
X123770305Y-107518134D01*
X123813800Y-107299473D01*
X123813800Y-107076527D01*
X123770305Y-106857866D01*
X123684988Y-106651892D01*
X123561126Y-106466520D01*
X123403480Y-106308874D01*
X123218108Y-106185012D01*
X123134000Y-106150173D01*
X123134000Y-99336197D01*
X123136187Y-99313992D01*
X123127460Y-99225384D01*
X123101614Y-99140182D01*
X123092184Y-99122540D01*
X123059643Y-99061659D01*
X123003159Y-98992833D01*
X122985905Y-98978673D01*
X121374325Y-97367093D01*
X121377008Y-97353603D01*
X121377008Y-97210397D01*
X121355615Y-97102846D01*
X124770001Y-100517234D01*
X124770000Y-106150173D01*
X124685892Y-106185012D01*
X124500520Y-106308874D01*
X124342874Y-106466520D01*
X124219012Y-106651892D01*
X124133695Y-106857866D01*
X124090200Y-107076527D01*
X124090200Y-107299473D01*
X124133695Y-107518134D01*
X124219012Y-107724108D01*
X124342874Y-107909480D01*
X124500520Y-108067126D01*
X124685892Y-108190988D01*
X124891866Y-108276305D01*
X125110527Y-108319800D01*
X125333473Y-108319800D01*
X125552134Y-108276305D01*
X125758108Y-108190988D01*
X125943480Y-108067126D01*
X126101126Y-107909480D01*
X126224988Y-107724108D01*
X126310305Y-107518134D01*
X126353800Y-107299473D01*
X126353800Y-107076527D01*
X126310305Y-106857866D01*
X126224988Y-106651892D01*
X126101126Y-106466520D01*
X125943480Y-106308874D01*
X125758108Y-106185012D01*
X125674000Y-106150173D01*
X125674000Y-105740317D01*
X125680100Y-105745323D01*
X126708534Y-106773757D01*
X126673695Y-106857866D01*
X126630200Y-107076527D01*
X126630200Y-107299473D01*
X126673695Y-107518134D01*
X126759012Y-107724108D01*
X126882874Y-107909480D01*
X127040520Y-108067126D01*
X127225892Y-108190988D01*
X127431866Y-108276305D01*
X127650527Y-108319800D01*
X127873473Y-108319800D01*
X128092134Y-108276305D01*
X128298108Y-108190988D01*
X128483480Y-108067126D01*
X128641126Y-107909480D01*
X128764988Y-107724108D01*
X128850305Y-107518134D01*
X128893800Y-107299473D01*
X128893800Y-107076527D01*
X129170200Y-107076527D01*
X129170200Y-107299473D01*
X129213695Y-107518134D01*
X129299012Y-107724108D01*
X129422874Y-107909480D01*
X129580520Y-108067126D01*
X129765892Y-108190988D01*
X129971866Y-108276305D01*
X130190527Y-108319800D01*
X130413473Y-108319800D01*
X130632134Y-108276305D01*
X130838108Y-108190988D01*
X131023480Y-108067126D01*
X131181126Y-107909480D01*
X131304988Y-107724108D01*
X131390305Y-107518134D01*
X131416149Y-107388208D01*
X131438429Y-107538887D01*
X131533853Y-107805968D01*
X131601411Y-107932360D01*
X131845870Y-108004525D01*
X132662395Y-107188000D01*
X133021605Y-107188000D01*
X133838130Y-108004525D01*
X134082589Y-107932360D01*
X134203969Y-107676030D01*
X134273009Y-107400946D01*
X134287056Y-107117678D01*
X134252440Y-106883565D01*
X136882040Y-106883565D01*
X136949020Y-107123656D01*
X137198048Y-107240756D01*
X137465135Y-107307023D01*
X137740017Y-107319910D01*
X138012133Y-107278922D01*
X138271023Y-107185636D01*
X138386980Y-107123656D01*
X138453960Y-106883565D01*
X137668000Y-106097605D01*
X136882040Y-106883565D01*
X134252440Y-106883565D01*
X134245571Y-106837113D01*
X134150147Y-106570032D01*
X134082589Y-106443640D01*
X133838130Y-106371475D01*
X133021605Y-107188000D01*
X132662395Y-107188000D01*
X131845870Y-106371475D01*
X131601411Y-106443640D01*
X131480031Y-106699970D01*
X131412455Y-106969220D01*
X131390305Y-106857866D01*
X131304988Y-106651892D01*
X131181126Y-106466520D01*
X131023480Y-106308874D01*
X130848372Y-106191870D01*
X132025475Y-106191870D01*
X132842000Y-107008395D01*
X133658525Y-106191870D01*
X133598938Y-105990017D01*
X136266090Y-105990017D01*
X136307078Y-106262133D01*
X136400364Y-106521023D01*
X136462344Y-106636980D01*
X136702435Y-106703960D01*
X137488395Y-105918000D01*
X137847605Y-105918000D01*
X138633565Y-106703960D01*
X138873656Y-106636980D01*
X138990756Y-106387952D01*
X139057023Y-106120865D01*
X139069910Y-105845983D01*
X139028922Y-105573867D01*
X138935636Y-105314977D01*
X138873656Y-105199020D01*
X138633565Y-105132040D01*
X137847605Y-105918000D01*
X137488395Y-105918000D01*
X136702435Y-105132040D01*
X136462344Y-105199020D01*
X136345244Y-105448048D01*
X136278977Y-105715135D01*
X136266090Y-105990017D01*
X133598938Y-105990017D01*
X133586360Y-105947411D01*
X133330030Y-105826031D01*
X133054946Y-105756991D01*
X132771678Y-105742944D01*
X132491113Y-105784429D01*
X132224032Y-105879853D01*
X132097640Y-105947411D01*
X132025475Y-106191870D01*
X130848372Y-106191870D01*
X130838108Y-106185012D01*
X130632134Y-106099695D01*
X130413473Y-106056200D01*
X130190527Y-106056200D01*
X129971866Y-106099695D01*
X129765892Y-106185012D01*
X129580520Y-106308874D01*
X129422874Y-106466520D01*
X129299012Y-106651892D01*
X129213695Y-106857866D01*
X129170200Y-107076527D01*
X128893800Y-107076527D01*
X128850305Y-106857866D01*
X128764988Y-106651892D01*
X128641126Y-106466520D01*
X128483480Y-106308874D01*
X128298108Y-106185012D01*
X128092134Y-106099695D01*
X127873473Y-106056200D01*
X127650527Y-106056200D01*
X127541155Y-106077956D01*
X127598364Y-106054259D01*
X127717436Y-105974698D01*
X127818698Y-105873436D01*
X127898259Y-105754364D01*
X127953062Y-105622058D01*
X127981000Y-105481603D01*
X127981000Y-105338397D01*
X127953062Y-105197942D01*
X127898259Y-105065636D01*
X127818698Y-104946564D01*
X127717436Y-104845302D01*
X127706000Y-104837661D01*
X127706000Y-103816150D01*
X127861651Y-104191925D01*
X128225750Y-104736839D01*
X128689161Y-105200250D01*
X129234075Y-105564349D01*
X129839550Y-105815145D01*
X130482319Y-105943000D01*
X131137681Y-105943000D01*
X131780450Y-105815145D01*
X132385925Y-105564349D01*
X132930839Y-105200250D01*
X133178654Y-104952435D01*
X136882040Y-104952435D01*
X137668000Y-105738395D01*
X138453960Y-104952435D01*
X138386980Y-104712344D01*
X138137952Y-104595244D01*
X137870865Y-104528977D01*
X137595983Y-104516090D01*
X137323867Y-104557078D01*
X137064977Y-104650364D01*
X136949020Y-104712344D01*
X136882040Y-104952435D01*
X133178654Y-104952435D01*
X133394250Y-104736839D01*
X133758349Y-104191925D01*
X134009145Y-103586450D01*
X134137000Y-102943681D01*
X134137000Y-102288319D01*
X134009145Y-101645550D01*
X133758349Y-101040075D01*
X133394250Y-100495161D01*
X132930839Y-100031750D01*
X132385925Y-99667651D01*
X131780450Y-99416855D01*
X131137681Y-99289000D01*
X130482319Y-99289000D01*
X129839550Y-99416855D01*
X129234075Y-99667651D01*
X128689161Y-100031750D01*
X128225750Y-100495161D01*
X127861651Y-101040075D01*
X127706000Y-101415850D01*
X127706000Y-99124339D01*
X127717436Y-99116698D01*
X127818698Y-99015436D01*
X127898259Y-98896364D01*
X127953062Y-98764058D01*
X127981000Y-98623603D01*
X127981000Y-98480397D01*
X127953062Y-98339942D01*
X127898259Y-98207636D01*
X127818698Y-98088564D01*
X127717436Y-97987302D01*
X127598364Y-97907741D01*
X127466058Y-97852938D01*
X127325603Y-97825000D01*
X127182397Y-97825000D01*
X127041942Y-97852938D01*
X126909636Y-97907741D01*
X126790564Y-97987302D01*
X126689302Y-98088564D01*
X126609741Y-98207636D01*
X126554938Y-98339942D01*
X126527000Y-98480397D01*
X126527000Y-98623603D01*
X126554938Y-98764058D01*
X126609741Y-98896364D01*
X126689302Y-99015436D01*
X126790564Y-99116698D01*
X126802001Y-99124340D01*
X126802000Y-104837661D01*
X126790564Y-104845302D01*
X126689302Y-104946564D01*
X126609741Y-105065636D01*
X126554938Y-105197942D01*
X126531085Y-105317862D01*
X126436000Y-105222777D01*
X126436000Y-103950339D01*
X126447436Y-103942698D01*
X126548698Y-103841436D01*
X126628259Y-103722364D01*
X126683062Y-103590058D01*
X126711000Y-103449603D01*
X126711000Y-103306397D01*
X126683062Y-103165942D01*
X126628259Y-103033636D01*
X126548698Y-102914564D01*
X126447436Y-102813302D01*
X126328364Y-102733741D01*
X126196058Y-102678938D01*
X126055603Y-102651000D01*
X125912397Y-102651000D01*
X125771942Y-102678938D01*
X125674000Y-102719507D01*
X125674000Y-100352210D01*
X125676187Y-100330007D01*
X125671290Y-100280289D01*
X125667460Y-100241401D01*
X125641614Y-100156198D01*
X125599643Y-100077675D01*
X125543159Y-100008849D01*
X125525911Y-99994694D01*
X124788818Y-99257601D01*
X124896397Y-99279000D01*
X125039603Y-99279000D01*
X125180058Y-99251062D01*
X125312364Y-99196259D01*
X125431436Y-99116698D01*
X125532698Y-99015436D01*
X125612259Y-98896364D01*
X125667062Y-98764058D01*
X125695000Y-98623603D01*
X125695000Y-98610736D01*
X127341595Y-96964142D01*
X127341599Y-96964137D01*
X128135571Y-96170166D01*
X128156769Y-96152769D01*
X128194838Y-96106383D01*
X128226200Y-96068168D01*
X128277791Y-95971648D01*
X128309561Y-95866917D01*
X128312390Y-95838191D01*
X128317600Y-95785293D01*
X128317600Y-95785285D01*
X128320287Y-95758000D01*
X128317600Y-95730715D01*
X128317600Y-91150534D01*
X128326698Y-91141436D01*
X128406259Y-91022364D01*
X128461062Y-90890058D01*
X128489000Y-90749603D01*
X128489000Y-90606397D01*
X128461062Y-90465942D01*
X128406259Y-90333636D01*
X128326698Y-90214564D01*
X128225436Y-90113302D01*
X128106364Y-90033741D01*
X127974058Y-89978938D01*
X127833603Y-89951000D01*
X127690397Y-89951000D01*
X127549942Y-89978938D01*
X127417636Y-90033741D01*
X127298564Y-90113302D01*
X127197302Y-90214564D01*
X127117741Y-90333636D01*
X127062938Y-90465942D01*
X127035000Y-90606397D01*
X127035000Y-90749603D01*
X127062938Y-90890058D01*
X127117741Y-91022364D01*
X127197302Y-91141436D01*
X127206400Y-91150534D01*
X127206401Y-95527862D01*
X126555863Y-96178401D01*
X126555858Y-96178405D01*
X124909264Y-97825000D01*
X124896397Y-97825000D01*
X124755942Y-97852938D01*
X124623636Y-97907741D01*
X124504564Y-97987302D01*
X124403302Y-98088564D01*
X124323741Y-98207636D01*
X124268938Y-98339942D01*
X124241000Y-98480397D01*
X124241000Y-98623603D01*
X124262399Y-98731182D01*
X121639309Y-96108093D01*
X121628309Y-96097093D01*
X121630992Y-96083603D01*
X121630992Y-95940397D01*
X121603054Y-95799942D01*
X121548251Y-95667636D01*
X121468690Y-95548564D01*
X121367428Y-95447302D01*
X121248356Y-95367741D01*
X121116050Y-95312938D01*
X120996138Y-95289086D01*
X121842906Y-94442318D01*
X121860159Y-94428159D01*
X121916643Y-94359333D01*
X121958614Y-94280810D01*
X121968637Y-94247769D01*
X121984460Y-94195608D01*
X121993187Y-94107000D01*
X121991000Y-94084795D01*
X121991000Y-88837341D01*
X122002436Y-88829700D01*
X122103698Y-88728438D01*
X122183259Y-88609366D01*
X122238062Y-88477060D01*
X122266000Y-88336605D01*
X122266000Y-88193399D01*
X122238062Y-88052944D01*
X122183259Y-87920638D01*
X122151688Y-87873389D01*
X122351866Y-87956305D01*
X122570527Y-87999800D01*
X122793473Y-87999800D01*
X123012134Y-87956305D01*
X123218108Y-87870988D01*
X123403480Y-87747126D01*
X123561126Y-87589480D01*
X123684988Y-87404108D01*
X123770305Y-87198134D01*
X123813800Y-86979473D01*
X123813800Y-86756527D01*
X123770305Y-86537866D01*
X123684988Y-86331892D01*
X123561126Y-86146520D01*
X123403480Y-85988874D01*
X123218108Y-85865012D01*
X123012134Y-85779695D01*
X122793473Y-85736200D01*
X122570527Y-85736200D01*
X122351866Y-85779695D01*
X122145892Y-85865012D01*
X121960520Y-85988874D01*
X121802874Y-86146520D01*
X121679012Y-86331892D01*
X121593695Y-86537866D01*
X121550200Y-86756527D01*
X121550200Y-86979473D01*
X121593695Y-87198134D01*
X121679012Y-87404108D01*
X121800955Y-87586608D01*
X121751058Y-87565940D01*
X121610603Y-87538002D01*
X121467397Y-87538002D01*
X121326942Y-87565940D01*
X121194636Y-87620743D01*
X121075564Y-87700304D01*
X120974302Y-87801566D01*
X120894741Y-87920638D01*
X120839938Y-88052944D01*
X120812000Y-88193399D01*
X120812000Y-88336605D01*
X120839938Y-88477060D01*
X120894741Y-88609366D01*
X120974302Y-88728438D01*
X121075564Y-88829700D01*
X121087000Y-88837341D01*
X121087000Y-88852891D01*
X121087001Y-88852901D01*
X121087000Y-93919776D01*
X115401094Y-99605683D01*
X115387603Y-99603000D01*
X115244397Y-99603000D01*
X115103942Y-99630938D01*
X114971636Y-99685741D01*
X114852564Y-99765302D01*
X114751302Y-99866564D01*
X114671741Y-99985636D01*
X114616938Y-100117942D01*
X114589000Y-100258397D01*
X114589000Y-100401603D01*
X114616938Y-100542058D01*
X114671741Y-100674364D01*
X114751302Y-100793436D01*
X114852564Y-100894698D01*
X114971636Y-100974259D01*
X115103942Y-101029062D01*
X115244397Y-101057000D01*
X115387603Y-101057000D01*
X115528058Y-101029062D01*
X115660364Y-100974259D01*
X115779436Y-100894698D01*
X115880698Y-100793436D01*
X115960259Y-100674364D01*
X116015062Y-100542058D01*
X116043000Y-100401603D01*
X116043000Y-100258397D01*
X116040317Y-100244906D01*
X120181078Y-96104146D01*
X120204930Y-96224058D01*
X120259733Y-96356364D01*
X120339294Y-96475436D01*
X120440556Y-96576698D01*
X120447155Y-96581107D01*
X120437950Y-96582938D01*
X120305644Y-96637741D01*
X120186572Y-96717302D01*
X120085310Y-96818564D01*
X120005749Y-96937636D01*
X119950946Y-97069942D01*
X119923008Y-97210397D01*
X119923008Y-97353603D01*
X119950946Y-97494058D01*
X119989483Y-97587095D01*
X119929942Y-97598938D01*
X119797636Y-97653741D01*
X119678564Y-97733302D01*
X119577302Y-97834564D01*
X119497741Y-97953636D01*
X119442938Y-98085942D01*
X119415000Y-98226397D01*
X119415000Y-98369603D01*
X119442938Y-98510058D01*
X119497741Y-98642364D01*
X119577302Y-98761436D01*
X119678564Y-98862698D01*
X119690001Y-98870340D01*
X119690001Y-100119867D01*
X119589436Y-100019302D01*
X119470364Y-99939741D01*
X119338058Y-99884938D01*
X119197603Y-99857000D01*
X119054397Y-99857000D01*
X118913942Y-99884938D01*
X118781636Y-99939741D01*
X118662564Y-100019302D01*
X118561302Y-100120564D01*
X118481741Y-100239636D01*
X118426938Y-100371942D01*
X118399000Y-100512397D01*
X118399000Y-100655603D01*
X118426938Y-100796058D01*
X118481741Y-100928364D01*
X118561302Y-101047436D01*
X118662564Y-101148698D01*
X118674001Y-101156340D01*
X118674000Y-103571775D01*
X117602000Y-104643776D01*
X117067316Y-104109093D01*
X117067312Y-104109088D01*
X117056317Y-104098093D01*
X117059000Y-104084603D01*
X117059000Y-103941397D01*
X117031062Y-103800942D01*
X116976259Y-103668636D01*
X116896698Y-103549564D01*
X116795436Y-103448302D01*
X116676364Y-103368741D01*
X116544058Y-103313938D01*
X116424139Y-103290085D01*
X118159912Y-101554313D01*
X118177159Y-101540159D01*
X118233643Y-101471333D01*
X118275614Y-101392810D01*
X118296058Y-101325416D01*
X118301460Y-101307608D01*
X118310187Y-101219001D01*
X118308000Y-101196796D01*
X118308000Y-100140339D01*
X118319436Y-100132698D01*
X118420698Y-100031436D01*
X118500259Y-99912364D01*
X118555062Y-99780058D01*
X118583000Y-99639603D01*
X118583000Y-99496397D01*
X118555062Y-99355942D01*
X118500259Y-99223636D01*
X118420698Y-99104564D01*
X118319436Y-99003302D01*
X118200364Y-98923741D01*
X118068058Y-98868938D01*
X117927603Y-98841000D01*
X117784397Y-98841000D01*
X117643942Y-98868938D01*
X117511636Y-98923741D01*
X117392564Y-99003302D01*
X117291302Y-99104564D01*
X117211741Y-99223636D01*
X117156938Y-99355942D01*
X117129000Y-99496397D01*
X117129000Y-99639603D01*
X117156938Y-99780058D01*
X117211741Y-99912364D01*
X117291302Y-100031436D01*
X117392564Y-100132698D01*
X117404001Y-100140340D01*
X117404000Y-101031775D01*
X112371892Y-106063885D01*
X112191866Y-106099695D01*
X111985892Y-106185012D01*
X111800520Y-106308874D01*
X111642874Y-106466520D01*
X111519012Y-106651892D01*
X111433695Y-106857866D01*
X111390200Y-107076527D01*
X111113800Y-107076527D01*
X111070305Y-106857866D01*
X110984988Y-106651892D01*
X110861126Y-106466520D01*
X110703480Y-106308874D01*
X110518108Y-106185012D01*
X110312134Y-106099695D01*
X110093473Y-106056200D01*
X109870527Y-106056200D01*
X109651866Y-106099695D01*
X109445892Y-106185012D01*
X109260520Y-106308874D01*
X109102874Y-106466520D01*
X108979012Y-106651892D01*
X108893695Y-106857866D01*
X108850200Y-107076527D01*
X108573800Y-107076527D01*
X108530305Y-106857866D01*
X108444988Y-106651892D01*
X108321126Y-106466520D01*
X108163480Y-106308874D01*
X107978108Y-106185012D01*
X107772134Y-106099695D01*
X107553473Y-106056200D01*
X107330527Y-106056200D01*
X107111866Y-106099695D01*
X106905892Y-106185012D01*
X106720520Y-106308874D01*
X106562874Y-106466520D01*
X106439012Y-106651892D01*
X106353695Y-106857866D01*
X106310200Y-107076527D01*
X106033800Y-107076527D01*
X105990305Y-106857866D01*
X105904988Y-106651892D01*
X105781126Y-106466520D01*
X105623480Y-106308874D01*
X105438108Y-106185012D01*
X105232134Y-106099695D01*
X105013473Y-106056200D01*
X104790527Y-106056200D01*
X104571866Y-106099695D01*
X104487757Y-106134534D01*
X103586327Y-105233104D01*
X103572163Y-105215845D01*
X103503337Y-105159361D01*
X103424814Y-105117390D01*
X103339611Y-105091544D01*
X103273209Y-105085004D01*
X103251004Y-105082817D01*
X103228799Y-105085004D01*
X102045339Y-105085004D01*
X102037698Y-105073568D01*
X101936436Y-104972306D01*
X101817364Y-104892745D01*
X101685058Y-104837942D01*
X101544603Y-104810004D01*
X101401397Y-104810004D01*
X101260942Y-104837942D01*
X101128636Y-104892745D01*
X101009564Y-104972306D01*
X100908302Y-105073568D01*
X100828741Y-105192640D01*
X100773938Y-105324946D01*
X100746000Y-105465401D01*
X100746000Y-105608607D01*
X100773938Y-105749062D01*
X100828741Y-105881368D01*
X100908302Y-106000440D01*
X101009564Y-106101702D01*
X101128636Y-106181263D01*
X101260942Y-106236066D01*
X101267468Y-106237364D01*
X101249612Y-106255220D01*
X101365868Y-106371476D01*
X101121411Y-106443640D01*
X101000031Y-106699970D01*
X100932455Y-106969220D01*
X100910305Y-106857866D01*
X100824988Y-106651892D01*
X100701126Y-106466520D01*
X100543480Y-106308874D01*
X100358108Y-106185012D01*
X100274000Y-106150173D01*
X100274000Y-104835223D01*
X103800907Y-101308317D01*
X103814397Y-101311000D01*
X103957603Y-101311000D01*
X104098058Y-101283062D01*
X104230364Y-101228259D01*
X104349436Y-101148698D01*
X104450698Y-101047436D01*
X104530259Y-100928364D01*
X104585062Y-100796058D01*
X104608915Y-100676139D01*
X104820681Y-100887905D01*
X104834841Y-100905159D01*
X104903667Y-100961643D01*
X104981777Y-101003393D01*
X104982190Y-101003614D01*
X105067392Y-101029460D01*
X105156000Y-101038187D01*
X105178205Y-101036000D01*
X109508797Y-101036000D01*
X109531002Y-101038187D01*
X109553207Y-101036000D01*
X109619609Y-101029460D01*
X109704812Y-101003614D01*
X109783335Y-100961643D01*
X109852161Y-100905159D01*
X109866325Y-100887900D01*
X110703722Y-100050504D01*
X110720970Y-100036350D01*
X110777454Y-99967524D01*
X110819425Y-99889001D01*
X110845271Y-99803798D01*
X110851811Y-99737396D01*
X110851811Y-99737395D01*
X110853998Y-99715192D01*
X110851811Y-99692989D01*
X110851811Y-98873092D01*
X111181000Y-99202281D01*
X111181001Y-101450785D01*
X111178813Y-101473000D01*
X111187540Y-101561607D01*
X111213386Y-101646809D01*
X111231829Y-101681313D01*
X111255358Y-101725333D01*
X111311842Y-101794159D01*
X111329096Y-101808319D01*
X112428023Y-102907248D01*
X112425340Y-102920737D01*
X112425340Y-103063943D01*
X112453278Y-103204398D01*
X112508081Y-103336704D01*
X112587642Y-103455776D01*
X112688904Y-103557038D01*
X112807976Y-103636599D01*
X112940282Y-103691402D01*
X113080737Y-103719340D01*
X113223943Y-103719340D01*
X113364398Y-103691402D01*
X113496704Y-103636599D01*
X113615776Y-103557038D01*
X113717038Y-103455776D01*
X113796599Y-103336704D01*
X113851402Y-103204398D01*
X113879340Y-103063943D01*
X113879340Y-102920737D01*
X113851402Y-102780282D01*
X113796599Y-102647976D01*
X113717038Y-102528904D01*
X113615776Y-102427642D01*
X113611413Y-102424727D01*
X113620436Y-102418698D01*
X113721698Y-102317436D01*
X113801259Y-102198364D01*
X113856062Y-102066058D01*
X113884000Y-101925603D01*
X113884000Y-101782397D01*
X113856062Y-101641942D01*
X113801259Y-101509636D01*
X113721698Y-101390564D01*
X113620436Y-101289302D01*
X113609000Y-101281661D01*
X113609000Y-99924849D01*
X113611187Y-99902646D01*
X113604189Y-99831599D01*
X113602460Y-99814040D01*
X113576614Y-99728837D01*
X113534643Y-99650314D01*
X113478159Y-99581488D01*
X113460911Y-99567333D01*
X107823676Y-93930100D01*
X107809512Y-93912841D01*
X107740686Y-93856357D01*
X107662163Y-93814386D01*
X107576960Y-93788540D01*
X107510558Y-93782000D01*
X107488353Y-93779813D01*
X107466148Y-93782000D01*
X105855321Y-93782000D01*
X105847680Y-93770564D01*
X105746418Y-93669302D01*
X105627346Y-93589741D01*
X105566067Y-93564358D01*
X105619436Y-93528698D01*
X105720698Y-93427436D01*
X105800259Y-93308364D01*
X105855062Y-93176058D01*
X105883000Y-93035603D01*
X105883000Y-92914973D01*
X106494335Y-92303638D01*
X106512627Y-92288627D01*
X106572535Y-92215629D01*
X106617050Y-92132346D01*
X106644463Y-92041979D01*
X106651400Y-91971546D01*
X106651400Y-91971545D01*
X106653719Y-91948000D01*
X106651400Y-91924455D01*
X106651400Y-87678006D01*
X106720520Y-87747126D01*
X106905892Y-87870988D01*
X107111866Y-87956305D01*
X107330527Y-87999800D01*
X107553473Y-87999800D01*
X107772134Y-87956305D01*
X107978108Y-87870988D01*
X108163480Y-87747126D01*
X108258001Y-87652605D01*
X108258001Y-87861702D01*
X108255805Y-87884000D01*
X108264570Y-87972999D01*
X108290530Y-88058578D01*
X108290531Y-88058579D01*
X108332688Y-88137449D01*
X108389422Y-88206579D01*
X108406738Y-88220790D01*
X112813214Y-92627267D01*
X112811000Y-92638397D01*
X112811000Y-92781603D01*
X112838938Y-92922058D01*
X112893741Y-93054364D01*
X112973302Y-93173436D01*
X113074564Y-93274698D01*
X113193636Y-93354259D01*
X113325942Y-93409062D01*
X113466397Y-93437000D01*
X113609603Y-93437000D01*
X113750058Y-93409062D01*
X113882364Y-93354259D01*
X114001436Y-93274698D01*
X114102698Y-93173436D01*
X114182259Y-93054364D01*
X114237062Y-92922058D01*
X114265000Y-92781603D01*
X114265000Y-92638397D01*
X114237062Y-92497942D01*
X114182259Y-92365636D01*
X114102698Y-92246564D01*
X114001436Y-92145302D01*
X113882364Y-92065741D01*
X113750058Y-92010938D01*
X113609603Y-91983000D01*
X113466397Y-91983000D01*
X113455267Y-91985214D01*
X113129053Y-91659000D01*
X113228603Y-91659000D01*
X113369058Y-91631062D01*
X113501364Y-91576259D01*
X113620436Y-91496698D01*
X113721698Y-91395436D01*
X113801259Y-91276364D01*
X113856062Y-91144058D01*
X113884000Y-91003603D01*
X113884000Y-90860397D01*
X113856062Y-90719942D01*
X113801259Y-90587636D01*
X113721698Y-90468564D01*
X113620436Y-90367302D01*
X113501364Y-90287741D01*
X113369058Y-90232938D01*
X113234962Y-90206265D01*
X111801301Y-88772604D01*
X111801301Y-87747648D01*
X111985892Y-87870988D01*
X112191866Y-87956305D01*
X112410527Y-87999800D01*
X112633473Y-87999800D01*
X112852134Y-87956305D01*
X113058108Y-87870988D01*
X113243480Y-87747126D01*
X113401126Y-87589480D01*
X113524988Y-87404108D01*
X113610305Y-87198134D01*
X113653800Y-86979473D01*
X113653800Y-86756527D01*
X113930200Y-86756527D01*
X113930200Y-86979473D01*
X113973695Y-87198134D01*
X114059012Y-87404108D01*
X114182874Y-87589480D01*
X114340520Y-87747126D01*
X114525892Y-87870988D01*
X114610000Y-87905827D01*
X114610001Y-90105660D01*
X114598564Y-90113302D01*
X114497302Y-90214564D01*
X114417741Y-90333636D01*
X114362938Y-90465942D01*
X114335000Y-90606397D01*
X114335000Y-90749603D01*
X114362938Y-90890058D01*
X114417741Y-91022364D01*
X114497302Y-91141436D01*
X114598564Y-91242698D01*
X114717636Y-91322259D01*
X114849942Y-91377062D01*
X114990397Y-91405000D01*
X115133603Y-91405000D01*
X115274058Y-91377062D01*
X115406364Y-91322259D01*
X115525436Y-91242698D01*
X115626698Y-91141436D01*
X115706259Y-91022364D01*
X115761062Y-90890058D01*
X115789000Y-90749603D01*
X115789000Y-90606397D01*
X115761062Y-90465942D01*
X115706259Y-90333636D01*
X115626698Y-90214564D01*
X115525436Y-90113302D01*
X115514000Y-90105661D01*
X115514000Y-87905827D01*
X115598108Y-87870988D01*
X115783480Y-87747126D01*
X115941126Y-87589480D01*
X116064988Y-87404108D01*
X116150305Y-87198134D01*
X116193800Y-86979473D01*
X116193800Y-86756527D01*
X116150305Y-86537866D01*
X116064988Y-86331892D01*
X115941126Y-86146520D01*
X115783480Y-85988874D01*
X115598108Y-85865012D01*
X115392134Y-85779695D01*
X115173473Y-85736200D01*
X114950527Y-85736200D01*
X114731866Y-85779695D01*
X114525892Y-85865012D01*
X114340520Y-85988874D01*
X114182874Y-86146520D01*
X114059012Y-86331892D01*
X113973695Y-86537866D01*
X113930200Y-86756527D01*
X113653800Y-86756527D01*
X113610305Y-86537866D01*
X113524988Y-86331892D01*
X113401126Y-86146520D01*
X113243480Y-85988874D01*
X113058108Y-85865012D01*
X112852134Y-85779695D01*
X112633473Y-85736200D01*
X112410527Y-85736200D01*
X112191866Y-85779695D01*
X111985892Y-85865012D01*
X111801301Y-85988352D01*
X111801301Y-83281044D01*
X111877260Y-83167363D01*
X111932063Y-83035057D01*
X111960001Y-82894602D01*
X111960001Y-82751396D01*
X111932063Y-82610941D01*
X111877260Y-82478635D01*
X111797699Y-82359563D01*
X111696437Y-82258301D01*
X111577365Y-82178740D01*
X111445059Y-82123937D01*
X111304604Y-82095999D01*
X111161398Y-82095999D01*
X111020943Y-82123937D01*
X110888637Y-82178740D01*
X110769565Y-82258301D01*
X110668303Y-82359563D01*
X110588742Y-82478635D01*
X110533939Y-82610941D01*
X110506001Y-82751396D01*
X110506001Y-82894602D01*
X110533939Y-83035057D01*
X110588742Y-83167363D01*
X110664702Y-83281046D01*
X110664701Y-85962963D01*
X110518108Y-85865012D01*
X110312134Y-85779695D01*
X110093473Y-85736200D01*
X109870527Y-85736200D01*
X109651866Y-85779695D01*
X109445892Y-85865012D01*
X109260520Y-85988874D01*
X109166000Y-86083394D01*
X109166000Y-83782323D01*
X109168195Y-83760035D01*
X109166000Y-83737747D01*
X109166000Y-83737741D01*
X109159430Y-83671037D01*
X109133470Y-83585457D01*
X109091313Y-83506587D01*
X109034579Y-83437457D01*
X109017264Y-83423247D01*
X107056414Y-81462397D01*
X111541000Y-81462397D01*
X111541000Y-81605603D01*
X111568938Y-81746058D01*
X111623741Y-81878364D01*
X111703302Y-81997436D01*
X111804564Y-82098698D01*
X111923636Y-82178259D01*
X112055942Y-82233062D01*
X112196397Y-82261000D01*
X112317027Y-82261000D01*
X116537184Y-86481158D01*
X116513695Y-86537866D01*
X116470200Y-86756527D01*
X116470200Y-86979473D01*
X116513695Y-87198134D01*
X116599012Y-87404108D01*
X116722874Y-87589480D01*
X116880520Y-87747126D01*
X117065892Y-87870988D01*
X117271866Y-87956305D01*
X117490527Y-87999800D01*
X117713473Y-87999800D01*
X117932134Y-87956305D01*
X118138108Y-87870988D01*
X118323480Y-87747126D01*
X118481126Y-87589480D01*
X118604988Y-87404108D01*
X118690305Y-87198134D01*
X118733800Y-86979473D01*
X118733800Y-86756527D01*
X118690305Y-86537866D01*
X118604988Y-86331892D01*
X118481126Y-86146520D01*
X118323480Y-85988874D01*
X118138108Y-85865012D01*
X117932134Y-85779695D01*
X117713473Y-85736200D01*
X117490527Y-85736200D01*
X117271866Y-85779695D01*
X117215158Y-85803184D01*
X112995000Y-81583027D01*
X112995000Y-81462397D01*
X114080996Y-81462397D01*
X114080996Y-81605603D01*
X114108934Y-81746058D01*
X114163737Y-81878364D01*
X114243298Y-81997436D01*
X114344560Y-82098698D01*
X114463632Y-82178259D01*
X114595938Y-82233062D01*
X114736393Y-82261000D01*
X114857027Y-82261000D01*
X119077184Y-86481158D01*
X119053695Y-86537866D01*
X119010200Y-86756527D01*
X119010200Y-86979473D01*
X119053695Y-87198134D01*
X119139012Y-87404108D01*
X119262874Y-87589480D01*
X119420520Y-87747126D01*
X119605892Y-87870988D01*
X119811866Y-87956305D01*
X120030527Y-87999800D01*
X120253473Y-87999800D01*
X120472134Y-87956305D01*
X120678108Y-87870988D01*
X120863480Y-87747126D01*
X121021126Y-87589480D01*
X121144988Y-87404108D01*
X121230305Y-87198134D01*
X121273800Y-86979473D01*
X121273800Y-86756527D01*
X121230305Y-86537866D01*
X121144988Y-86331892D01*
X121021126Y-86146520D01*
X120863480Y-85988874D01*
X120678108Y-85865012D01*
X120472134Y-85779695D01*
X120253473Y-85736200D01*
X120030527Y-85736200D01*
X119811866Y-85779695D01*
X119755158Y-85803184D01*
X115534996Y-81583023D01*
X115534996Y-81462397D01*
X115507058Y-81321942D01*
X115452255Y-81189636D01*
X115372694Y-81070564D01*
X115271432Y-80969302D01*
X115152360Y-80889741D01*
X115020054Y-80834938D01*
X114879599Y-80807000D01*
X114736393Y-80807000D01*
X114595938Y-80834938D01*
X114463632Y-80889741D01*
X114344560Y-80969302D01*
X114243298Y-81070564D01*
X114163737Y-81189636D01*
X114108934Y-81321942D01*
X114080996Y-81462397D01*
X112995000Y-81462397D01*
X112967062Y-81321942D01*
X112912259Y-81189636D01*
X112832698Y-81070564D01*
X112731436Y-80969302D01*
X112612364Y-80889741D01*
X112480058Y-80834938D01*
X112339603Y-80807000D01*
X112196397Y-80807000D01*
X112055942Y-80834938D01*
X111923636Y-80889741D01*
X111804564Y-80969302D01*
X111703302Y-81070564D01*
X111623741Y-81189636D01*
X111568938Y-81321942D01*
X111541000Y-81462397D01*
X107056414Y-81462397D01*
X105810414Y-80216397D01*
X106691000Y-80216397D01*
X106691000Y-80359603D01*
X106718938Y-80500058D01*
X106773741Y-80632364D01*
X106853302Y-80751436D01*
X106954564Y-80852698D01*
X107073636Y-80932259D01*
X107205942Y-80987062D01*
X107346397Y-81015000D01*
X107489603Y-81015000D01*
X107630058Y-80987062D01*
X107762364Y-80932259D01*
X107881436Y-80852698D01*
X107966734Y-80767400D01*
X118443427Y-80767400D01*
X124157184Y-86481158D01*
X124133695Y-86537866D01*
X124090200Y-86756527D01*
X124090200Y-86979473D01*
X124133695Y-87198134D01*
X124219012Y-87404108D01*
X124342874Y-87589480D01*
X124500520Y-87747126D01*
X124685892Y-87870988D01*
X124891866Y-87956305D01*
X125110527Y-87999800D01*
X125333473Y-87999800D01*
X125552134Y-87956305D01*
X125758108Y-87870988D01*
X125923819Y-87760263D01*
X125923819Y-93268022D01*
X125912397Y-93268022D01*
X125771942Y-93295960D01*
X125639636Y-93350763D01*
X125520564Y-93430324D01*
X125419302Y-93531586D01*
X125339741Y-93650658D01*
X125284938Y-93782964D01*
X125257000Y-93923419D01*
X125257000Y-94066625D01*
X125284938Y-94207080D01*
X125339741Y-94339386D01*
X125419302Y-94458458D01*
X125520564Y-94559720D01*
X125639636Y-94639281D01*
X125771942Y-94694084D01*
X125912397Y-94722022D01*
X126055603Y-94722022D01*
X126196058Y-94694084D01*
X126328364Y-94639281D01*
X126447436Y-94559720D01*
X126548698Y-94458458D01*
X126628259Y-94339386D01*
X126683062Y-94207080D01*
X126711000Y-94066625D01*
X126711000Y-93923419D01*
X126708415Y-93910425D01*
X126753461Y-93855537D01*
X126795432Y-93777014D01*
X126821278Y-93691811D01*
X126824110Y-93663062D01*
X126830005Y-93603205D01*
X126827818Y-93581000D01*
X126827818Y-87507083D01*
X126882874Y-87589480D01*
X127040520Y-87747126D01*
X127225892Y-87870988D01*
X127431866Y-87956305D01*
X127650527Y-87999800D01*
X127873473Y-87999800D01*
X128092134Y-87956305D01*
X128298108Y-87870988D01*
X128483480Y-87747126D01*
X128580000Y-87650606D01*
X128580001Y-91940807D01*
X128577813Y-91963022D01*
X128586540Y-92051629D01*
X128612386Y-92136831D01*
X128654358Y-92215355D01*
X128710842Y-92284181D01*
X128728096Y-92298341D01*
X130339683Y-93909929D01*
X130337000Y-93923419D01*
X130337000Y-94066625D01*
X130364938Y-94207080D01*
X130419741Y-94339386D01*
X130499302Y-94458458D01*
X130600564Y-94559720D01*
X130719636Y-94639281D01*
X130851942Y-94694084D01*
X130992397Y-94722022D01*
X131135603Y-94722022D01*
X131276058Y-94694084D01*
X131408364Y-94639281D01*
X131527436Y-94559720D01*
X131628698Y-94458458D01*
X131708259Y-94339386D01*
X131763062Y-94207080D01*
X131791000Y-94066625D01*
X131791000Y-93923419D01*
X131763062Y-93782964D01*
X131708259Y-93650658D01*
X131628698Y-93531586D01*
X131527436Y-93430324D01*
X131408364Y-93350763D01*
X131276058Y-93295960D01*
X131135603Y-93268022D01*
X130992397Y-93268022D01*
X130978907Y-93270705D01*
X129484000Y-91775799D01*
X129484000Y-90098397D01*
X134655000Y-90098397D01*
X134655000Y-90241603D01*
X134682938Y-90382058D01*
X134737741Y-90514364D01*
X134817302Y-90633436D01*
X134918564Y-90734698D01*
X134930000Y-90742339D01*
X134930000Y-90757889D01*
X134930001Y-90757899D01*
X134930000Y-101069795D01*
X134927813Y-101092000D01*
X134930000Y-101114204D01*
X134936540Y-101180606D01*
X134962386Y-101265809D01*
X135004357Y-101344332D01*
X135060841Y-101413159D01*
X135078100Y-101427323D01*
X136647291Y-102996516D01*
X136620850Y-103060350D01*
X136579000Y-103270743D01*
X136579000Y-103485257D01*
X136620850Y-103695650D01*
X136702941Y-103893835D01*
X136822119Y-104072197D01*
X136973803Y-104223881D01*
X137152165Y-104343059D01*
X137350350Y-104425150D01*
X137560743Y-104467000D01*
X137775257Y-104467000D01*
X137985650Y-104425150D01*
X138183835Y-104343059D01*
X138362197Y-104223881D01*
X138513881Y-104072197D01*
X138633059Y-103893835D01*
X138715150Y-103695650D01*
X138757000Y-103485257D01*
X138757000Y-103270743D01*
X138715150Y-103060350D01*
X138633059Y-102862165D01*
X138513881Y-102683803D01*
X138362197Y-102532119D01*
X138183835Y-102412941D01*
X137985650Y-102330850D01*
X137775257Y-102289000D01*
X137560743Y-102289000D01*
X137350350Y-102330850D01*
X137286516Y-102357291D01*
X136994059Y-102064834D01*
X137198048Y-102160756D01*
X137465135Y-102227023D01*
X137740017Y-102239910D01*
X138012133Y-102198922D01*
X138271023Y-102105636D01*
X138386980Y-102043656D01*
X138453960Y-101803565D01*
X137668000Y-101017605D01*
X137653858Y-101031748D01*
X137474253Y-100852143D01*
X137488395Y-100838000D01*
X137847605Y-100838000D01*
X138633565Y-101623960D01*
X138873656Y-101556980D01*
X138990756Y-101307952D01*
X139057023Y-101040865D01*
X139069910Y-100765983D01*
X139028922Y-100493867D01*
X138935636Y-100234977D01*
X138873656Y-100119020D01*
X138633565Y-100052040D01*
X137847605Y-100838000D01*
X137488395Y-100838000D01*
X136702435Y-100052040D01*
X136462344Y-100119020D01*
X136345244Y-100368048D01*
X136278977Y-100635135D01*
X136266090Y-100910017D01*
X136307078Y-101182133D01*
X136400364Y-101441023D01*
X136434947Y-101505723D01*
X135834000Y-100904777D01*
X135834000Y-99872435D01*
X136882040Y-99872435D01*
X137668000Y-100658395D01*
X138453960Y-99872435D01*
X138386980Y-99632344D01*
X138137952Y-99515244D01*
X137870865Y-99448977D01*
X137595983Y-99436090D01*
X137323867Y-99477078D01*
X137064977Y-99570364D01*
X136949020Y-99632344D01*
X136882040Y-99872435D01*
X135834000Y-99872435D01*
X135834000Y-98190743D01*
X136579000Y-98190743D01*
X136579000Y-98405257D01*
X136620850Y-98615650D01*
X136702941Y-98813835D01*
X136822119Y-98992197D01*
X136973803Y-99143881D01*
X137152165Y-99263059D01*
X137350350Y-99345150D01*
X137560743Y-99387000D01*
X137775257Y-99387000D01*
X137985650Y-99345150D01*
X138183835Y-99263059D01*
X138362197Y-99143881D01*
X138513881Y-98992197D01*
X138633059Y-98813835D01*
X138715150Y-98615650D01*
X138757000Y-98405257D01*
X138757000Y-98190743D01*
X138715150Y-97980350D01*
X138633059Y-97782165D01*
X138513881Y-97603803D01*
X138362197Y-97452119D01*
X138183835Y-97332941D01*
X137985650Y-97250850D01*
X137775257Y-97209000D01*
X137560743Y-97209000D01*
X137350350Y-97250850D01*
X137152165Y-97332941D01*
X136973803Y-97452119D01*
X136822119Y-97603803D01*
X136702941Y-97782165D01*
X136620850Y-97980350D01*
X136579000Y-98190743D01*
X135834000Y-98190743D01*
X135834000Y-95650743D01*
X136579000Y-95650743D01*
X136579000Y-95865257D01*
X136620850Y-96075650D01*
X136702941Y-96273835D01*
X136822119Y-96452197D01*
X136973803Y-96603881D01*
X137152165Y-96723059D01*
X137350350Y-96805150D01*
X137560743Y-96847000D01*
X137775257Y-96847000D01*
X137985650Y-96805150D01*
X138183835Y-96723059D01*
X138362197Y-96603881D01*
X138513881Y-96452197D01*
X138633059Y-96273835D01*
X138715150Y-96075650D01*
X138757000Y-95865257D01*
X138757000Y-95650743D01*
X138715150Y-95440350D01*
X138633059Y-95242165D01*
X138513881Y-95063803D01*
X138362197Y-94912119D01*
X138183835Y-94792941D01*
X137985650Y-94710850D01*
X137775257Y-94669000D01*
X137560743Y-94669000D01*
X137350350Y-94710850D01*
X137152165Y-94792941D01*
X136973803Y-94912119D01*
X136822119Y-95063803D01*
X136702941Y-95242165D01*
X136620850Y-95440350D01*
X136579000Y-95650743D01*
X135834000Y-95650743D01*
X135834000Y-90742339D01*
X135845436Y-90734698D01*
X135946698Y-90633436D01*
X136026259Y-90514364D01*
X136081062Y-90382058D01*
X136109000Y-90241603D01*
X136109000Y-90098397D01*
X136081062Y-89957942D01*
X136026259Y-89825636D01*
X135946698Y-89706564D01*
X135845436Y-89605302D01*
X135726364Y-89525741D01*
X135594058Y-89470938D01*
X135453603Y-89443000D01*
X135310397Y-89443000D01*
X135169942Y-89470938D01*
X135037636Y-89525741D01*
X134918564Y-89605302D01*
X134817302Y-89706564D01*
X134737741Y-89825636D01*
X134682938Y-89957942D01*
X134655000Y-90098397D01*
X129484000Y-90098397D01*
X129484000Y-87650606D01*
X129580520Y-87747126D01*
X129765892Y-87870988D01*
X129971866Y-87956305D01*
X130190527Y-87999800D01*
X130413473Y-87999800D01*
X130632134Y-87956305D01*
X130838108Y-87870988D01*
X131023480Y-87747126D01*
X131181126Y-87589480D01*
X131304988Y-87404108D01*
X131390305Y-87198134D01*
X131433800Y-86979473D01*
X131433800Y-86756527D01*
X131710200Y-86756527D01*
X131710200Y-86979473D01*
X131753695Y-87198134D01*
X131839012Y-87404108D01*
X131962874Y-87589480D01*
X132120520Y-87747126D01*
X132305892Y-87870988D01*
X132511866Y-87956305D01*
X132730527Y-87999800D01*
X132953473Y-87999800D01*
X133172134Y-87956305D01*
X133378108Y-87870988D01*
X133563480Y-87747126D01*
X133721126Y-87589480D01*
X133844988Y-87404108D01*
X133930305Y-87198134D01*
X133973800Y-86979473D01*
X133973800Y-86756527D01*
X133930305Y-86537866D01*
X133844988Y-86331892D01*
X133721126Y-86146520D01*
X133563480Y-85988874D01*
X133378108Y-85865012D01*
X133172134Y-85779695D01*
X132953473Y-85736200D01*
X132730527Y-85736200D01*
X132511866Y-85779695D01*
X132305892Y-85865012D01*
X132120520Y-85988874D01*
X131962874Y-86146520D01*
X131839012Y-86331892D01*
X131753695Y-86537866D01*
X131710200Y-86756527D01*
X131433800Y-86756527D01*
X131390305Y-86537866D01*
X131304988Y-86331892D01*
X131181126Y-86146520D01*
X131023480Y-85988874D01*
X130838108Y-85865012D01*
X130632134Y-85779695D01*
X130413473Y-85736200D01*
X130190527Y-85736200D01*
X129971866Y-85779695D01*
X129765892Y-85865012D01*
X129580520Y-85988874D01*
X129484000Y-86085394D01*
X129484000Y-84900339D01*
X129495436Y-84892698D01*
X129596698Y-84791436D01*
X129676259Y-84672364D01*
X129731062Y-84540058D01*
X129759000Y-84399603D01*
X129759000Y-84256397D01*
X129731062Y-84115942D01*
X129676259Y-83983636D01*
X129596698Y-83864564D01*
X129495436Y-83763302D01*
X129376364Y-83683741D01*
X129244058Y-83628938D01*
X129103603Y-83601000D01*
X128960397Y-83601000D01*
X128819942Y-83628938D01*
X128687636Y-83683741D01*
X128568564Y-83763302D01*
X128467302Y-83864564D01*
X128387741Y-83983636D01*
X128332938Y-84115942D01*
X128305000Y-84256397D01*
X128305000Y-84399603D01*
X128332938Y-84540058D01*
X128387741Y-84672364D01*
X128467302Y-84791436D01*
X128568564Y-84892698D01*
X128580000Y-84900339D01*
X128580000Y-86085394D01*
X128483480Y-85988874D01*
X128298108Y-85865012D01*
X128092134Y-85779695D01*
X127873473Y-85736200D01*
X127650527Y-85736200D01*
X127431866Y-85779695D01*
X127225892Y-85865012D01*
X127040520Y-85988874D01*
X126882874Y-86146520D01*
X126827818Y-86228917D01*
X126827818Y-81163405D01*
X127085907Y-80905317D01*
X127099397Y-80908000D01*
X127242603Y-80908000D01*
X127383058Y-80880062D01*
X127515364Y-80825259D01*
X127634436Y-80745698D01*
X127735698Y-80644436D01*
X127815259Y-80525364D01*
X127870062Y-80393058D01*
X127898000Y-80252603D01*
X127898000Y-80109397D01*
X127870062Y-79968942D01*
X127815259Y-79836636D01*
X127735698Y-79717564D01*
X127634436Y-79616302D01*
X127515364Y-79536741D01*
X127383058Y-79481938D01*
X127242603Y-79454000D01*
X127099397Y-79454000D01*
X126958942Y-79481938D01*
X126826636Y-79536741D01*
X126707564Y-79616302D01*
X126606302Y-79717564D01*
X126526741Y-79836636D01*
X126471938Y-79968942D01*
X126444000Y-80109397D01*
X126444000Y-80252603D01*
X126446683Y-80266093D01*
X126071918Y-80640859D01*
X126054659Y-80655023D01*
X125998176Y-80723849D01*
X125956204Y-80802373D01*
X125930358Y-80887575D01*
X125921631Y-80976182D01*
X125923818Y-80998387D01*
X125923818Y-85975736D01*
X125758108Y-85865012D01*
X125552134Y-85779695D01*
X125333473Y-85736200D01*
X125110527Y-85736200D01*
X124891866Y-85779695D01*
X124835158Y-85803184D01*
X118997643Y-79965670D01*
X118982627Y-79947373D01*
X118909629Y-79887465D01*
X118826346Y-79842950D01*
X118735979Y-79815537D01*
X118665546Y-79808600D01*
X118665545Y-79808600D01*
X118642000Y-79806281D01*
X118618455Y-79808600D01*
X107966734Y-79808600D01*
X107881436Y-79723302D01*
X107762364Y-79643741D01*
X107630058Y-79588938D01*
X107489603Y-79561000D01*
X107346397Y-79561000D01*
X107205942Y-79588938D01*
X107073636Y-79643741D01*
X106954564Y-79723302D01*
X106853302Y-79824564D01*
X106773741Y-79943636D01*
X106718938Y-80075942D01*
X106691000Y-80216397D01*
X105810414Y-80216397D01*
X102738414Y-77144397D01*
X114335000Y-77144397D01*
X114335000Y-77287603D01*
X114362938Y-77428058D01*
X114417741Y-77560364D01*
X114497302Y-77679436D01*
X114598564Y-77780698D01*
X114717636Y-77860259D01*
X114849942Y-77915062D01*
X114990397Y-77943000D01*
X115133603Y-77943000D01*
X115144733Y-77940786D01*
X115233210Y-78029263D01*
X115247421Y-78046579D01*
X115316551Y-78103313D01*
X115395421Y-78145470D01*
X115481001Y-78171430D01*
X115547705Y-78178000D01*
X115547714Y-78178000D01*
X115569999Y-78180195D01*
X115592284Y-78178000D01*
X128460997Y-78178000D01*
X128467302Y-78187436D01*
X128568564Y-78288698D01*
X128687636Y-78368259D01*
X128819942Y-78423062D01*
X128960397Y-78451000D01*
X129103603Y-78451000D01*
X129244058Y-78423062D01*
X129376364Y-78368259D01*
X129495436Y-78288698D01*
X129596698Y-78187436D01*
X129676259Y-78068364D01*
X129731062Y-77936058D01*
X129759000Y-77795603D01*
X129759000Y-77652397D01*
X129731062Y-77511942D01*
X129676259Y-77379636D01*
X129596698Y-77260564D01*
X129495436Y-77159302D01*
X129376364Y-77079741D01*
X129244058Y-77024938D01*
X129103603Y-76997000D01*
X128960397Y-76997000D01*
X128819942Y-77024938D01*
X128687636Y-77079741D01*
X128568564Y-77159302D01*
X128467302Y-77260564D01*
X128460997Y-77270000D01*
X115789000Y-77270000D01*
X115789000Y-77144397D01*
X115761062Y-77003942D01*
X115706259Y-76871636D01*
X115626698Y-76752564D01*
X115525436Y-76651302D01*
X115406364Y-76571741D01*
X115274058Y-76516938D01*
X115133603Y-76489000D01*
X114990397Y-76489000D01*
X114849942Y-76516938D01*
X114717636Y-76571741D01*
X114598564Y-76651302D01*
X114497302Y-76752564D01*
X114417741Y-76871636D01*
X114362938Y-77003942D01*
X114335000Y-77144397D01*
X102738414Y-77144397D01*
X102562000Y-76967984D01*
X102562000Y-73172000D01*
X104029928Y-73172000D01*
X104033000Y-74136250D01*
X104065856Y-74169106D01*
X104032887Y-74335998D01*
X104033116Y-74510328D01*
X104066039Y-74674711D01*
X104033000Y-74707750D01*
X104029928Y-75672000D01*
X104042188Y-75796482D01*
X104078498Y-75916180D01*
X104137463Y-76026494D01*
X104216815Y-76123185D01*
X104313506Y-76202537D01*
X104423820Y-76261502D01*
X104543518Y-76297812D01*
X104668000Y-76310072D01*
X105632250Y-76307000D01*
X105665106Y-76274144D01*
X105831998Y-76307113D01*
X106006328Y-76306884D01*
X106170711Y-76273961D01*
X106203750Y-76307000D01*
X107168000Y-76310072D01*
X107292482Y-76297812D01*
X107412180Y-76261502D01*
X107522494Y-76202537D01*
X107619185Y-76123185D01*
X107698537Y-76026494D01*
X107757502Y-75916180D01*
X107793812Y-75796482D01*
X107806072Y-75672000D01*
X107803000Y-74707750D01*
X107770144Y-74674894D01*
X107803113Y-74508002D01*
X107802884Y-74333672D01*
X107769961Y-74169289D01*
X107803000Y-74136250D01*
X107806072Y-73172000D01*
X107793812Y-73047518D01*
X107757502Y-72927820D01*
X107698537Y-72817506D01*
X107619185Y-72720815D01*
X107522494Y-72641463D01*
X107412180Y-72582498D01*
X107292482Y-72546188D01*
X107168000Y-72533928D01*
X106203750Y-72537000D01*
X106170894Y-72569856D01*
X106004002Y-72536887D01*
X105829672Y-72537116D01*
X105665289Y-72570039D01*
X105632250Y-72537000D01*
X104668000Y-72533928D01*
X104543518Y-72546188D01*
X104423820Y-72582498D01*
X104313506Y-72641463D01*
X104216815Y-72720815D01*
X104137463Y-72817506D01*
X104078498Y-72927820D01*
X104042188Y-73047518D01*
X104029928Y-73172000D01*
X102562000Y-73172000D01*
X102562000Y-72961003D01*
X102571436Y-72954698D01*
X102672698Y-72853436D01*
X102752259Y-72734364D01*
X102807062Y-72602058D01*
X102835000Y-72461603D01*
X102835000Y-72318397D01*
X102807062Y-72177942D01*
X102752259Y-72045636D01*
X102672698Y-71926564D01*
X102571436Y-71825302D01*
X102452364Y-71745741D01*
X102320058Y-71690938D01*
X102179603Y-71663000D01*
X102036397Y-71663000D01*
X101895942Y-71690938D01*
X101763636Y-71745741D01*
X101644564Y-71825302D01*
X101543302Y-71926564D01*
X101463741Y-72045636D01*
X101408938Y-72177942D01*
X101381000Y-72318397D01*
X101381000Y-72461603D01*
X101408938Y-72602058D01*
X101463741Y-72734364D01*
X101543302Y-72853436D01*
X101644564Y-72954698D01*
X101654000Y-72961003D01*
X101654001Y-77133738D01*
X101651805Y-77156036D01*
X101660570Y-77245035D01*
X101686530Y-77330614D01*
X101706154Y-77367327D01*
X101728688Y-77409485D01*
X101785422Y-77478615D01*
X101802738Y-77492826D01*
X105922400Y-81612488D01*
X105827636Y-81651741D01*
X105708564Y-81731302D01*
X105607302Y-81832564D01*
X105527741Y-81951636D01*
X105472938Y-82083942D01*
X105445000Y-82224397D01*
X105445000Y-82367603D01*
X105472938Y-82508058D01*
X105527741Y-82640364D01*
X105607302Y-82759436D01*
X105692601Y-82844735D01*
X105692601Y-86057995D01*
X105623480Y-85988874D01*
X105438108Y-85865012D01*
X105232134Y-85779695D01*
X105013473Y-85736200D01*
X104790527Y-85736200D01*
X104571866Y-85779695D01*
X104365892Y-85865012D01*
X104180520Y-85988874D01*
X104022874Y-86146520D01*
X103899012Y-86331892D01*
X103813695Y-86537866D01*
X103770200Y-86756527D01*
X103770200Y-86979473D01*
X103813695Y-87198134D01*
X103899012Y-87404108D01*
X104022874Y-87589480D01*
X104180520Y-87747126D01*
X104365892Y-87870988D01*
X104571866Y-87956305D01*
X104790527Y-87999800D01*
X105013473Y-87999800D01*
X105232134Y-87956305D01*
X105438108Y-87870988D01*
X105623480Y-87747126D01*
X105692600Y-87678006D01*
X105692600Y-91749426D01*
X105205027Y-92237000D01*
X105084397Y-92237000D01*
X104943942Y-92264938D01*
X104811636Y-92319741D01*
X104692564Y-92399302D01*
X104591302Y-92500564D01*
X104511741Y-92619636D01*
X104456938Y-92751942D01*
X104429000Y-92892397D01*
X104429000Y-93032263D01*
X104020429Y-93440835D01*
X103999232Y-93458231D01*
X103981835Y-93479429D01*
X103981833Y-93479431D01*
X103929800Y-93542832D01*
X103878209Y-93639353D01*
X103846440Y-93744083D01*
X103835713Y-93853000D01*
X103838401Y-93880292D01*
X103838400Y-95222717D01*
X103835713Y-95250000D01*
X103838400Y-95277283D01*
X103838400Y-95277292D01*
X103846439Y-95358916D01*
X103878209Y-95463647D01*
X103929800Y-95560168D01*
X103999231Y-95644769D01*
X104020434Y-95662170D01*
X104098203Y-95739939D01*
X103986785Y-95762101D01*
X103854479Y-95816904D01*
X103814010Y-95843944D01*
X103814010Y-95813399D01*
X103786072Y-95672944D01*
X103731269Y-95540638D01*
X103651708Y-95421566D01*
X103550446Y-95320304D01*
X103539010Y-95312663D01*
X103539010Y-90068620D01*
X103628107Y-89979523D01*
X103641597Y-89982206D01*
X103784803Y-89982206D01*
X103925258Y-89954268D01*
X104057564Y-89899465D01*
X104176636Y-89819904D01*
X104277898Y-89718642D01*
X104291363Y-89698489D01*
X104311570Y-89718696D01*
X104430642Y-89798257D01*
X104562948Y-89853060D01*
X104703403Y-89880998D01*
X104846609Y-89880998D01*
X104987064Y-89853060D01*
X105119370Y-89798257D01*
X105238442Y-89718696D01*
X105339704Y-89617434D01*
X105419265Y-89498362D01*
X105474068Y-89366056D01*
X105502006Y-89225601D01*
X105502006Y-89082395D01*
X105474068Y-88941940D01*
X105419265Y-88809634D01*
X105339704Y-88690562D01*
X105238442Y-88589300D01*
X105119370Y-88509739D01*
X104987064Y-88454936D01*
X104846609Y-88426998D01*
X104703403Y-88426998D01*
X104689914Y-88429681D01*
X103576000Y-87315769D01*
X103576000Y-83588212D01*
X103578187Y-83566007D01*
X103569460Y-83477400D01*
X103557343Y-83437457D01*
X103543614Y-83392198D01*
X103501643Y-83313675D01*
X103445159Y-83244849D01*
X103427912Y-83230695D01*
X101562317Y-81365101D01*
X101565000Y-81351611D01*
X101565000Y-81208405D01*
X101537062Y-81067950D01*
X101482259Y-80935644D01*
X101402698Y-80816572D01*
X101301436Y-80715310D01*
X101182364Y-80635749D01*
X101050058Y-80580946D01*
X100909603Y-80553008D01*
X100766397Y-80553008D01*
X100625942Y-80580946D01*
X100493636Y-80635749D01*
X100374564Y-80715310D01*
X100273302Y-80816572D01*
X100193741Y-80935644D01*
X100138938Y-81067950D01*
X100111000Y-81208405D01*
X100111000Y-81351611D01*
X100138938Y-81492066D01*
X100193741Y-81624372D01*
X100273302Y-81743444D01*
X100374564Y-81844706D01*
X100493636Y-81924267D01*
X100625942Y-81979070D01*
X100766397Y-82007008D01*
X100909603Y-82007008D01*
X100923093Y-82004325D01*
X102672000Y-83753233D01*
X102672000Y-83917667D01*
X102646683Y-83900751D01*
X102514377Y-83845948D01*
X102373922Y-83818010D01*
X102230716Y-83818010D01*
X102090261Y-83845948D01*
X101957955Y-83900751D01*
X101838883Y-83980312D01*
X101737621Y-84081574D01*
X101658060Y-84200646D01*
X101603257Y-84332952D01*
X101575319Y-84473407D01*
X101575319Y-84616613D01*
X101603257Y-84757068D01*
X101658060Y-84889374D01*
X101737621Y-85008446D01*
X101838883Y-85109708D01*
X101910001Y-85157227D01*
X101910000Y-97344661D01*
X101898564Y-97352302D01*
X101855990Y-97394876D01*
X101855990Y-97261616D01*
X101828052Y-97121161D01*
X101773249Y-96988855D01*
X101693688Y-96869783D01*
X101592426Y-96768521D01*
X101580990Y-96760880D01*
X101580990Y-84768203D01*
X101583177Y-84745998D01*
X101574450Y-84657390D01*
X101548604Y-84572188D01*
X101541980Y-84559795D01*
X101506633Y-84493665D01*
X101450149Y-84424839D01*
X101432896Y-84410680D01*
X100927317Y-83905101D01*
X100930000Y-83891611D01*
X100930000Y-83748405D01*
X100902062Y-83607950D01*
X100847259Y-83475644D01*
X100767698Y-83356572D01*
X100666436Y-83255310D01*
X100547364Y-83175749D01*
X100415058Y-83120946D01*
X100274603Y-83093008D01*
X100131397Y-83093008D01*
X99990942Y-83120946D01*
X99858636Y-83175749D01*
X99766000Y-83237646D01*
X99766000Y-73978337D01*
X99777436Y-73970696D01*
X99878698Y-73869434D01*
X99958259Y-73750362D01*
X100013062Y-73618056D01*
X100041000Y-73477601D01*
X100041000Y-73334395D01*
X100013062Y-73193940D01*
X99958259Y-73061634D01*
X99878698Y-72942562D01*
X99777436Y-72841300D01*
X99658364Y-72761739D01*
X99526058Y-72706936D01*
X99385603Y-72678998D01*
X99242397Y-72678998D01*
X99101942Y-72706936D01*
X98969636Y-72761739D01*
X98850564Y-72841300D01*
X98749302Y-72942562D01*
X98669741Y-73061634D01*
X98614938Y-73193940D01*
X98587000Y-73334395D01*
X98587000Y-73477601D01*
X98614938Y-73618056D01*
X98669741Y-73750362D01*
X98749302Y-73869434D01*
X98850564Y-73970696D01*
X98862001Y-73978338D01*
X98862001Y-79651500D01*
X98815251Y-79538636D01*
X98735690Y-79419564D01*
X98634428Y-79318302D01*
X98515356Y-79238741D01*
X98383050Y-79183938D01*
X98242595Y-79156000D01*
X98099389Y-79156000D01*
X97958934Y-79183938D01*
X97826628Y-79238741D01*
X97707556Y-79318302D01*
X97606294Y-79419564D01*
X97526733Y-79538636D01*
X97471930Y-79670942D01*
X97443992Y-79811397D01*
X97443992Y-79954603D01*
X97471930Y-80095058D01*
X97526733Y-80227364D01*
X97606294Y-80346436D01*
X97707556Y-80447698D01*
X97822064Y-80524209D01*
X97822063Y-95084040D01*
X97736765Y-95169338D01*
X97657204Y-95288410D01*
X97602401Y-95420716D01*
X97584430Y-95511065D01*
X95665010Y-93591646D01*
X95665010Y-92285341D01*
X95676446Y-92277700D01*
X95777708Y-92176438D01*
X95857269Y-92057366D01*
X95912072Y-91925060D01*
X95940010Y-91784605D01*
X95940010Y-91641399D01*
X95912072Y-91500944D01*
X95857269Y-91368638D01*
X95777708Y-91249566D01*
X95676446Y-91148304D01*
X95557374Y-91068743D01*
X95425068Y-91013940D01*
X95284613Y-90986002D01*
X95141407Y-90986002D01*
X95000952Y-91013940D01*
X94940000Y-91039187D01*
X94940000Y-85154339D01*
X94951436Y-85146698D01*
X95052698Y-85045436D01*
X95132259Y-84926364D01*
X95178997Y-84813530D01*
X95178997Y-86171973D01*
X95113741Y-86269636D01*
X95058938Y-86401942D01*
X95031000Y-86542397D01*
X95031000Y-86685603D01*
X95058938Y-86826058D01*
X95113741Y-86958364D01*
X95193302Y-87077436D01*
X95294564Y-87178698D01*
X95413636Y-87258259D01*
X95545942Y-87313062D01*
X95686397Y-87341000D01*
X95829603Y-87341000D01*
X95970058Y-87313062D01*
X96102364Y-87258259D01*
X96221436Y-87178698D01*
X96322698Y-87077436D01*
X96402259Y-86958364D01*
X96457062Y-86826058D01*
X96458895Y-86816841D01*
X96463302Y-86823436D01*
X96564564Y-86924698D01*
X96683636Y-87004259D01*
X96815942Y-87059062D01*
X96956397Y-87087000D01*
X97099603Y-87087000D01*
X97240058Y-87059062D01*
X97372364Y-87004259D01*
X97491436Y-86924698D01*
X97592698Y-86823436D01*
X97672259Y-86704364D01*
X97727062Y-86572058D01*
X97755000Y-86431603D01*
X97755000Y-86288397D01*
X97727062Y-86147942D01*
X97672259Y-86015636D01*
X97592698Y-85896564D01*
X97491436Y-85795302D01*
X97372364Y-85715741D01*
X97240058Y-85660938D01*
X97125010Y-85638054D01*
X97125010Y-83757339D01*
X97136446Y-83749698D01*
X97237708Y-83648436D01*
X97317269Y-83529364D01*
X97372072Y-83397058D01*
X97400010Y-83256603D01*
X97400010Y-83113397D01*
X97372072Y-82972942D01*
X97317269Y-82840636D01*
X97237708Y-82721564D01*
X97136446Y-82620302D01*
X97017374Y-82540741D01*
X96885068Y-82485938D01*
X96744613Y-82458000D01*
X96601407Y-82458000D01*
X96460952Y-82485938D01*
X96328646Y-82540741D01*
X96311880Y-82551944D01*
X96330058Y-82508058D01*
X96357996Y-82367603D01*
X96357996Y-82224397D01*
X96330058Y-82083942D01*
X96275255Y-81951636D01*
X96195694Y-81832564D01*
X96094432Y-81731302D01*
X95975360Y-81651741D01*
X95843054Y-81596938D01*
X95702599Y-81569000D01*
X95559393Y-81569000D01*
X95418938Y-81596938D01*
X95286632Y-81651741D01*
X95167560Y-81731302D01*
X95066298Y-81832564D01*
X94986737Y-81951636D01*
X94940000Y-82064469D01*
X94940000Y-72577229D01*
X95926908Y-71590323D01*
X95940397Y-71593006D01*
X96083603Y-71593006D01*
X96224058Y-71565068D01*
X96356364Y-71510265D01*
X96475436Y-71430704D01*
X96576698Y-71329442D01*
X96656259Y-71210370D01*
X96711062Y-71078064D01*
X96739000Y-70937609D01*
X96739000Y-70794403D01*
X96711062Y-70653948D01*
X96656259Y-70521642D01*
X96583933Y-70413397D01*
X105699000Y-70413397D01*
X105699000Y-70556603D01*
X105726938Y-70697058D01*
X105781741Y-70829364D01*
X105861302Y-70948436D01*
X105962564Y-71049698D01*
X106081636Y-71129259D01*
X106213942Y-71184062D01*
X106354397Y-71212000D01*
X106497603Y-71212000D01*
X106638058Y-71184062D01*
X106770364Y-71129259D01*
X106889436Y-71049698D01*
X106990698Y-70948436D01*
X107070259Y-70829364D01*
X107125062Y-70697058D01*
X107153000Y-70556603D01*
X107153000Y-70413397D01*
X107150786Y-70402266D01*
X109471459Y-68081593D01*
X109518564Y-68128698D01*
X109637636Y-68208259D01*
X109769942Y-68263062D01*
X109910397Y-68291000D01*
X110053603Y-68291000D01*
X110194058Y-68263062D01*
X110326364Y-68208259D01*
X110445436Y-68128698D01*
X110546698Y-68027436D01*
X110626259Y-67908364D01*
X110681062Y-67776058D01*
X110709000Y-67635603D01*
X110709000Y-67492397D01*
X110681062Y-67351942D01*
X110626259Y-67219636D01*
X110546698Y-67100564D01*
X110445436Y-66999302D01*
X110326364Y-66919741D01*
X110194058Y-66864938D01*
X110053603Y-66837000D01*
X109910397Y-66837000D01*
X109769942Y-66864938D01*
X109637636Y-66919741D01*
X109518564Y-66999302D01*
X109417302Y-67100564D01*
X109410997Y-67110000D01*
X109369288Y-67110000D01*
X109347000Y-67107805D01*
X109324712Y-67110000D01*
X109324705Y-67110000D01*
X109266421Y-67115741D01*
X109258000Y-67116570D01*
X109172421Y-67142530D01*
X109093551Y-67184687D01*
X109024421Y-67241421D01*
X109010210Y-67258737D01*
X106508734Y-69760214D01*
X106497603Y-69758000D01*
X106354397Y-69758000D01*
X106213942Y-69785938D01*
X106081636Y-69840741D01*
X105962564Y-69920302D01*
X105861302Y-70021564D01*
X105781741Y-70140636D01*
X105726938Y-70272942D01*
X105699000Y-70413397D01*
X96583933Y-70413397D01*
X96576698Y-70402570D01*
X96475436Y-70301308D01*
X96356364Y-70221747D01*
X96224058Y-70166944D01*
X96083603Y-70139006D01*
X95940397Y-70139006D01*
X95799942Y-70166944D01*
X95667636Y-70221747D01*
X95548564Y-70301308D01*
X95447302Y-70402570D01*
X95367741Y-70521642D01*
X95312938Y-70653948D01*
X95285000Y-70794403D01*
X95285000Y-70937609D01*
X95287683Y-70951098D01*
X94184096Y-72054687D01*
X94166842Y-72068847D01*
X94111279Y-72136551D01*
X94110358Y-72137673D01*
X94068386Y-72216197D01*
X94042540Y-72301399D01*
X94033813Y-72390006D01*
X94036001Y-72412221D01*
X94036000Y-83101866D01*
X93935436Y-83001302D01*
X93816364Y-82921741D01*
X93684058Y-82866938D01*
X93543603Y-82839000D01*
X93400397Y-82839000D01*
X93259942Y-82866938D01*
X93127636Y-82921741D01*
X93008564Y-83001302D01*
X92907302Y-83102564D01*
X92827741Y-83221636D01*
X92772938Y-83353942D01*
X92745000Y-83494397D01*
X92745000Y-83637603D01*
X92772938Y-83778058D01*
X92827741Y-83910364D01*
X92907302Y-84029436D01*
X93008564Y-84130698D01*
X93020000Y-84138339D01*
X93020000Y-84153889D01*
X93020001Y-84153899D01*
X93020000Y-93182392D01*
X92980476Y-93221916D01*
X92941969Y-93005675D01*
X92732940Y-92912019D01*
X92509655Y-92860942D01*
X92280697Y-92854407D01*
X92054863Y-92892665D01*
X91840833Y-92974246D01*
X91782031Y-93005675D01*
X91743524Y-93221919D01*
X92362000Y-93840395D01*
X92376143Y-93826253D01*
X92555748Y-94005858D01*
X92541605Y-94020000D01*
X92555748Y-94034143D01*
X92376143Y-94213748D01*
X92362000Y-94199605D01*
X91743524Y-94818081D01*
X91782031Y-95034325D01*
X91991060Y-95127981D01*
X92214345Y-95179058D01*
X92443303Y-95185593D01*
X92669137Y-95147335D01*
X92883167Y-95065754D01*
X92941969Y-95034325D01*
X92980476Y-94818084D01*
X93020000Y-94857608D01*
X93020000Y-98182392D01*
X92980476Y-98221916D01*
X92941969Y-98005675D01*
X92732940Y-97912019D01*
X92509655Y-97860942D01*
X92280697Y-97854407D01*
X92054863Y-97892665D01*
X91840833Y-97974246D01*
X91782031Y-98005675D01*
X91743524Y-98221919D01*
X92362000Y-98840395D01*
X92376143Y-98826253D01*
X92555748Y-99005858D01*
X92541605Y-99020000D01*
X92555748Y-99034143D01*
X92376143Y-99213748D01*
X92362000Y-99199605D01*
X91743524Y-99818081D01*
X91782031Y-100034325D01*
X91991060Y-100127981D01*
X92214345Y-100179058D01*
X92443303Y-100185593D01*
X92669137Y-100147335D01*
X92883167Y-100065754D01*
X92941969Y-100034325D01*
X92980476Y-99818084D01*
X93076712Y-99914320D01*
X93094357Y-99947332D01*
X93150841Y-100016159D01*
X93168100Y-100030323D01*
X94671001Y-101533225D01*
X94671001Y-103329699D01*
X94639145Y-103169550D01*
X94388349Y-102564075D01*
X94024250Y-102019161D01*
X93560839Y-101555750D01*
X93015925Y-101191651D01*
X92410450Y-100940855D01*
X91767681Y-100813000D01*
X91112319Y-100813000D01*
X90714199Y-100892191D01*
X90618995Y-100796987D01*
X90857860Y-100731463D01*
X90973760Y-100484484D01*
X91039250Y-100219640D01*
X91051812Y-99947108D01*
X91010965Y-99677362D01*
X90918277Y-99420768D01*
X90857860Y-99307737D01*
X90618993Y-99242212D01*
X89841605Y-100019600D01*
X89855748Y-100033743D01*
X89676143Y-100213348D01*
X89662000Y-100199205D01*
X88884612Y-100976593D01*
X88950137Y-101215460D01*
X89197116Y-101331360D01*
X89461960Y-101396850D01*
X89550841Y-101400947D01*
X89319161Y-101555750D01*
X88855750Y-102019161D01*
X88491651Y-102564075D01*
X88240855Y-103169550D01*
X88163000Y-103560953D01*
X88163000Y-100092092D01*
X88272188Y-100092092D01*
X88313035Y-100361838D01*
X88405723Y-100618432D01*
X88466140Y-100731463D01*
X88705007Y-100796988D01*
X89482395Y-100019600D01*
X88705007Y-99242212D01*
X88466140Y-99307737D01*
X88350240Y-99554716D01*
X88284750Y-99819560D01*
X88272188Y-100092092D01*
X88163000Y-100092092D01*
X88163000Y-99062607D01*
X88884612Y-99062607D01*
X89662000Y-99839995D01*
X90400692Y-99101303D01*
X91196407Y-99101303D01*
X91234665Y-99327137D01*
X91316246Y-99541167D01*
X91347675Y-99599969D01*
X91563919Y-99638476D01*
X92182395Y-99020000D01*
X91563919Y-98401524D01*
X91347675Y-98440031D01*
X91254019Y-98649060D01*
X91202942Y-98872345D01*
X91196407Y-99101303D01*
X90400692Y-99101303D01*
X90439388Y-99062607D01*
X90373863Y-98823740D01*
X90126884Y-98707840D01*
X89862040Y-98642350D01*
X89589508Y-98629788D01*
X89319762Y-98670635D01*
X89063168Y-98763323D01*
X88950137Y-98823740D01*
X88884612Y-99062607D01*
X88163000Y-99062607D01*
X88163000Y-93977393D01*
X88884612Y-93977393D01*
X88950137Y-94216260D01*
X89197116Y-94332160D01*
X89461960Y-94397650D01*
X89734492Y-94410212D01*
X90004238Y-94369365D01*
X90260832Y-94276677D01*
X90373863Y-94216260D01*
X90405397Y-94101303D01*
X91196407Y-94101303D01*
X91234665Y-94327137D01*
X91316246Y-94541167D01*
X91347675Y-94599969D01*
X91563919Y-94638476D01*
X92182395Y-94020000D01*
X91563919Y-93401524D01*
X91347675Y-93440031D01*
X91254019Y-93649060D01*
X91202942Y-93872345D01*
X91196407Y-94101303D01*
X90405397Y-94101303D01*
X90439388Y-93977393D01*
X89662000Y-93200005D01*
X88884612Y-93977393D01*
X88163000Y-93977393D01*
X88163000Y-93092892D01*
X88272188Y-93092892D01*
X88313035Y-93362638D01*
X88405723Y-93619232D01*
X88466140Y-93732263D01*
X88705007Y-93797788D01*
X89482395Y-93020400D01*
X89841605Y-93020400D01*
X90618993Y-93797788D01*
X90857860Y-93732263D01*
X90973760Y-93485284D01*
X91039250Y-93220440D01*
X91051812Y-92947908D01*
X91010965Y-92678162D01*
X90918277Y-92421568D01*
X90857860Y-92308537D01*
X90618993Y-92243012D01*
X89841605Y-93020400D01*
X89482395Y-93020400D01*
X88705007Y-92243012D01*
X88466140Y-92308537D01*
X88350240Y-92555516D01*
X88284750Y-92820360D01*
X88272188Y-93092892D01*
X88163000Y-93092892D01*
X88163000Y-92063407D01*
X88884612Y-92063407D01*
X89662000Y-92840795D01*
X90439388Y-92063407D01*
X90373863Y-91824540D01*
X90126884Y-91708640D01*
X89862040Y-91643150D01*
X89589508Y-91630588D01*
X89319762Y-91671435D01*
X89063168Y-91764123D01*
X88950137Y-91824540D01*
X88884612Y-92063407D01*
X88163000Y-92063407D01*
X88163000Y-66365047D01*
X88240855Y-66756450D01*
X88491651Y-67361925D01*
X88855750Y-67906839D01*
X89319161Y-68370250D01*
X89864075Y-68734349D01*
X90469550Y-68985145D01*
X91112319Y-69113000D01*
X91767681Y-69113000D01*
X92410450Y-68985145D01*
X93015925Y-68734349D01*
X93560839Y-68370250D01*
X94024250Y-67906839D01*
X94388349Y-67361925D01*
X94639145Y-66756450D01*
X94767000Y-66113681D01*
X94767000Y-65968397D01*
X110017000Y-65968397D01*
X110017000Y-66111603D01*
X110044938Y-66252058D01*
X110099741Y-66384364D01*
X110179302Y-66503436D01*
X110280564Y-66604698D01*
X110399636Y-66684259D01*
X110531942Y-66739062D01*
X110553938Y-66743437D01*
X116335201Y-72524701D01*
X116335200Y-75582990D01*
X116322741Y-75601636D01*
X116267938Y-75733942D01*
X116240000Y-75874397D01*
X116240000Y-76017603D01*
X116267938Y-76158058D01*
X116322741Y-76290364D01*
X116402302Y-76409436D01*
X116503564Y-76510698D01*
X116622636Y-76590259D01*
X116754942Y-76645062D01*
X116895397Y-76673000D01*
X117038603Y-76673000D01*
X117179058Y-76645062D01*
X117311364Y-76590259D01*
X117430436Y-76510698D01*
X117531698Y-76409436D01*
X117611259Y-76290364D01*
X117666062Y-76158058D01*
X117694000Y-76017603D01*
X117694000Y-75874397D01*
X117666062Y-75733942D01*
X117611259Y-75601636D01*
X117598800Y-75582990D01*
X117598800Y-72318397D01*
X131353000Y-72318397D01*
X131353000Y-72461603D01*
X131380938Y-72602058D01*
X131435741Y-72734364D01*
X131515302Y-72853436D01*
X131616564Y-72954698D01*
X131626000Y-72961003D01*
X131626001Y-82527702D01*
X131623805Y-82550000D01*
X131632570Y-82638999D01*
X131658530Y-82724578D01*
X131678154Y-82761291D01*
X131700688Y-82803449D01*
X131757422Y-82872579D01*
X131774738Y-82886790D01*
X136646463Y-87758516D01*
X136620850Y-87820350D01*
X136579000Y-88030743D01*
X136579000Y-88245257D01*
X136620850Y-88455650D01*
X136702941Y-88653835D01*
X136822119Y-88832197D01*
X136973803Y-88983881D01*
X137152165Y-89103059D01*
X137350350Y-89185150D01*
X137560743Y-89227000D01*
X137775257Y-89227000D01*
X137985650Y-89185150D01*
X138183835Y-89103059D01*
X138362197Y-88983881D01*
X138513881Y-88832197D01*
X138633059Y-88653835D01*
X138715150Y-88455650D01*
X138738000Y-88340775D01*
X138738000Y-90475224D01*
X138715150Y-90360350D01*
X138633059Y-90162165D01*
X138513881Y-89983803D01*
X138362197Y-89832119D01*
X138183835Y-89712941D01*
X137985650Y-89630850D01*
X137775257Y-89589000D01*
X137560743Y-89589000D01*
X137350350Y-89630850D01*
X137152165Y-89712941D01*
X136973803Y-89832119D01*
X136822119Y-89983803D01*
X136702941Y-90162165D01*
X136620850Y-90360350D01*
X136579000Y-90570743D01*
X136579000Y-90785257D01*
X136620850Y-90995650D01*
X136702941Y-91193835D01*
X136822119Y-91372197D01*
X136973803Y-91523881D01*
X137152165Y-91643059D01*
X137350350Y-91725150D01*
X137560743Y-91767000D01*
X137775257Y-91767000D01*
X137985650Y-91725150D01*
X138183835Y-91643059D01*
X138362197Y-91523881D01*
X138513881Y-91372197D01*
X138633059Y-91193835D01*
X138715150Y-90995650D01*
X138738000Y-90880776D01*
X138738000Y-91505947D01*
X138047485Y-92196463D01*
X137985650Y-92170850D01*
X137775257Y-92129000D01*
X137560743Y-92129000D01*
X137350350Y-92170850D01*
X137152165Y-92252941D01*
X136973803Y-92372119D01*
X136822119Y-92523803D01*
X136702941Y-92702165D01*
X136620850Y-92900350D01*
X136579000Y-93110743D01*
X136579000Y-93325257D01*
X136620850Y-93535650D01*
X136702941Y-93733835D01*
X136822119Y-93912197D01*
X136973803Y-94063881D01*
X137152165Y-94183059D01*
X137350350Y-94265150D01*
X137560743Y-94307000D01*
X137775257Y-94307000D01*
X137985650Y-94265150D01*
X138183835Y-94183059D01*
X138362197Y-94063881D01*
X138513881Y-93912197D01*
X138633059Y-93733835D01*
X138715150Y-93535650D01*
X138757000Y-93325257D01*
X138757000Y-93110743D01*
X138715150Y-92900350D01*
X138689537Y-92838515D01*
X139497264Y-92030789D01*
X139514579Y-92016579D01*
X139571313Y-91947449D01*
X139613470Y-91868579D01*
X139639430Y-91782999D01*
X139646000Y-91716295D01*
X139646000Y-91716286D01*
X139648195Y-91694001D01*
X139646000Y-91671716D01*
X139646000Y-73977003D01*
X139655436Y-73970698D01*
X139756698Y-73869436D01*
X139836259Y-73750364D01*
X139891062Y-73618058D01*
X139919000Y-73477603D01*
X139919000Y-73334397D01*
X139891062Y-73193942D01*
X139836259Y-73061636D01*
X139756698Y-72942564D01*
X139655436Y-72841302D01*
X139536364Y-72761741D01*
X139404058Y-72706938D01*
X139263603Y-72679000D01*
X139120397Y-72679000D01*
X138979942Y-72706938D01*
X138847636Y-72761741D01*
X138728564Y-72841302D01*
X138627302Y-72942564D01*
X138547741Y-73061636D01*
X138492938Y-73193942D01*
X138465000Y-73334397D01*
X138465000Y-73477603D01*
X138492938Y-73618058D01*
X138547741Y-73750364D01*
X138627302Y-73869436D01*
X138728564Y-73970698D01*
X138738000Y-73977003D01*
X138738000Y-73993979D01*
X138738001Y-73993989D01*
X138738001Y-74861072D01*
X138711572Y-74811627D01*
X138514503Y-74571497D01*
X138274373Y-74374428D01*
X138000412Y-74227993D01*
X137703146Y-74137818D01*
X137471469Y-74115000D01*
X134816531Y-74115000D01*
X134584854Y-74137818D01*
X134287588Y-74227993D01*
X134013627Y-74374428D01*
X133773497Y-74571497D01*
X133576428Y-74811627D01*
X133429993Y-75085588D01*
X133339818Y-75382854D01*
X133309370Y-75692000D01*
X133339818Y-76001146D01*
X133429993Y-76298412D01*
X133576428Y-76572373D01*
X133773497Y-76812503D01*
X134013627Y-77009572D01*
X134287588Y-77156007D01*
X134584854Y-77246182D01*
X134816531Y-77269000D01*
X137471469Y-77269000D01*
X137703146Y-77246182D01*
X138000412Y-77156007D01*
X138274373Y-77009572D01*
X138514503Y-76812503D01*
X138711572Y-76572373D01*
X138738001Y-76522928D01*
X138738000Y-87935225D01*
X138715150Y-87820350D01*
X138633059Y-87622165D01*
X138513881Y-87443803D01*
X138362197Y-87292119D01*
X138183835Y-87172941D01*
X137985650Y-87090850D01*
X137775257Y-87049000D01*
X137560743Y-87049000D01*
X137350350Y-87090850D01*
X137288516Y-87116463D01*
X132534000Y-82361948D01*
X132534000Y-72961003D01*
X132543436Y-72954698D01*
X132644698Y-72853436D01*
X132724259Y-72734364D01*
X132779062Y-72602058D01*
X132807000Y-72461603D01*
X132807000Y-72318397D01*
X132779062Y-72177942D01*
X132724259Y-72045636D01*
X132644698Y-71926564D01*
X132543436Y-71825302D01*
X132424364Y-71745741D01*
X132292058Y-71690938D01*
X132151603Y-71663000D01*
X132008397Y-71663000D01*
X131867942Y-71690938D01*
X131735636Y-71745741D01*
X131616564Y-71825302D01*
X131515302Y-71926564D01*
X131435741Y-72045636D01*
X131380938Y-72177942D01*
X131353000Y-72318397D01*
X117598800Y-72318397D01*
X117598800Y-72294037D01*
X117601857Y-72263000D01*
X117589658Y-72139146D01*
X117568333Y-72068847D01*
X117553531Y-72020051D01*
X117494864Y-71910292D01*
X117415912Y-71814088D01*
X117391800Y-71794300D01*
X114889457Y-69291957D01*
X133305067Y-69291957D01*
X133422794Y-69565000D01*
X134353219Y-69565000D01*
X134351526Y-69573246D01*
X134351146Y-69577123D01*
X134342160Y-69675859D01*
X134342337Y-69701113D01*
X134342160Y-69726434D01*
X134342541Y-69730311D01*
X134351863Y-69819000D01*
X133422794Y-69819000D01*
X133305067Y-70092043D01*
X133344371Y-70248190D01*
X133485056Y-70564207D01*
X133684689Y-70846705D01*
X133935599Y-71084829D01*
X134228144Y-71269427D01*
X134551081Y-71393406D01*
X134892000Y-71452000D01*
X136017000Y-71452000D01*
X136017000Y-70484600D01*
X136271000Y-70484600D01*
X136271000Y-71452000D01*
X137396000Y-71452000D01*
X137736919Y-71393406D01*
X138059856Y-71269427D01*
X138352401Y-71084829D01*
X138603311Y-70846705D01*
X138802944Y-70564207D01*
X138943629Y-70248190D01*
X138982933Y-70092043D01*
X138865206Y-69819000D01*
X137936764Y-69819000D01*
X137936854Y-69818077D01*
X137945840Y-69719341D01*
X137945663Y-69694086D01*
X137945840Y-69668765D01*
X137945459Y-69664889D01*
X137935095Y-69566287D01*
X137934831Y-69565000D01*
X138865206Y-69565000D01*
X138982933Y-69291957D01*
X138943629Y-69135810D01*
X138802944Y-68819793D01*
X138603311Y-68537295D01*
X138352401Y-68299171D01*
X138059856Y-68114573D01*
X137736919Y-67990594D01*
X137396000Y-67932000D01*
X136271000Y-67932000D01*
X136271000Y-68910600D01*
X136017000Y-68910600D01*
X136017000Y-67932000D01*
X134892000Y-67932000D01*
X134551081Y-67990594D01*
X134228144Y-68114573D01*
X133935599Y-68299171D01*
X133684689Y-68537295D01*
X133485056Y-68819793D01*
X133344371Y-69135810D01*
X133305067Y-69291957D01*
X114889457Y-69291957D01*
X111447437Y-65849938D01*
X111443062Y-65827942D01*
X111388259Y-65695636D01*
X111308698Y-65576564D01*
X111207436Y-65475302D01*
X111182020Y-65458319D01*
X120371000Y-65458319D01*
X120371000Y-66113681D01*
X120498855Y-66756450D01*
X120749651Y-67361925D01*
X121113750Y-67906839D01*
X121577161Y-68370250D01*
X122122075Y-68734349D01*
X122727550Y-68985145D01*
X123370319Y-69113000D01*
X124025681Y-69113000D01*
X124668450Y-68985145D01*
X125273925Y-68734349D01*
X125818839Y-68370250D01*
X126282250Y-67906839D01*
X126646349Y-67361925D01*
X126897145Y-66756450D01*
X127025000Y-66113681D01*
X127025000Y-65458319D01*
X126897145Y-64815550D01*
X126646349Y-64210075D01*
X126282250Y-63665161D01*
X125818839Y-63201750D01*
X125273925Y-62837651D01*
X124668450Y-62586855D01*
X124025681Y-62459000D01*
X123370319Y-62459000D01*
X122727550Y-62586855D01*
X122122075Y-62837651D01*
X121577161Y-63201750D01*
X121113750Y-63665161D01*
X120749651Y-64210075D01*
X120498855Y-64815550D01*
X120371000Y-65458319D01*
X111182020Y-65458319D01*
X111088364Y-65395741D01*
X110956058Y-65340938D01*
X110815603Y-65313000D01*
X110672397Y-65313000D01*
X110531942Y-65340938D01*
X110399636Y-65395741D01*
X110280564Y-65475302D01*
X110179302Y-65576564D01*
X110099741Y-65695636D01*
X110044938Y-65827942D01*
X110017000Y-65968397D01*
X94767000Y-65968397D01*
X94767000Y-65458319D01*
X94639145Y-64815550D01*
X94388349Y-64210075D01*
X94024250Y-63665161D01*
X93560839Y-63201750D01*
X93015925Y-62837651D01*
X92410450Y-62586855D01*
X91767681Y-62459000D01*
X91112319Y-62459000D01*
X90469550Y-62586855D01*
X89864075Y-62837651D01*
X89319161Y-63201750D01*
X88855750Y-63665161D01*
X88491651Y-64210075D01*
X88240855Y-64815550D01*
X88163000Y-65206953D01*
X88163000Y-64275641D01*
X88202535Y-63872433D01*
X88315674Y-63497699D01*
X88499442Y-63152084D01*
X88746843Y-62848739D01*
X89048446Y-62599231D01*
X89392772Y-62413055D01*
X89766706Y-62297303D01*
X90169157Y-62255004D01*
X90170409Y-62255000D01*
X138924359Y-62255000D01*
X139327567Y-62294535D01*
G37*
X139327567Y-62294535D02*
X139702301Y-62407674D01*
X140047916Y-62591442D01*
X140351261Y-62838843D01*
X140600769Y-63140446D01*
X140786945Y-63484772D01*
X140902697Y-63858706D01*
X140944996Y-64261157D01*
X140945001Y-64262694D01*
X140945000Y-106412359D01*
X140905465Y-106815567D01*
X140792327Y-107190299D01*
X140608561Y-107535913D01*
X140361157Y-107839261D01*
X140059554Y-108088769D01*
X139715227Y-108274945D01*
X139341294Y-108390697D01*
X138938843Y-108432996D01*
X138937591Y-108433000D01*
X133578108Y-108433000D01*
X133586360Y-108428589D01*
X133658525Y-108184130D01*
X132842000Y-107367605D01*
X132025475Y-108184130D01*
X132097640Y-108428589D01*
X132106955Y-108433000D01*
X103098108Y-108433000D01*
X103106360Y-108428589D01*
X103178525Y-108184130D01*
X102362000Y-107367605D01*
X101545475Y-108184130D01*
X101617640Y-108428589D01*
X101626955Y-108433000D01*
X90183641Y-108433000D01*
X89780433Y-108393465D01*
X89405701Y-108280327D01*
X89060087Y-108096561D01*
X88756739Y-107849157D01*
X88507231Y-107547554D01*
X88321055Y-107203227D01*
X88205303Y-106829294D01*
X88163004Y-106426843D01*
X88163000Y-106425591D01*
X88163000Y-104719047D01*
X88240855Y-105110450D01*
X88491651Y-105715925D01*
X88855750Y-106260839D01*
X89319161Y-106724250D01*
X89864075Y-107088349D01*
X90469550Y-107339145D01*
X91112319Y-107467000D01*
X91767681Y-107467000D01*
X92410450Y-107339145D01*
X93015925Y-107088349D01*
X93560839Y-106724250D01*
X94024250Y-106260839D01*
X94388349Y-105715925D01*
X94639145Y-105110450D01*
X94671000Y-104950303D01*
X94671000Y-106056200D01*
X94630527Y-106056200D01*
X94411866Y-106099695D01*
X94205892Y-106185012D01*
X94020520Y-106308874D01*
X93862874Y-106466520D01*
X93739012Y-106651892D01*
X93653695Y-106857866D01*
X93610200Y-107076527D01*
X93610200Y-107299473D01*
X93653695Y-107518134D01*
X93739012Y-107724108D01*
X93862874Y-107909480D01*
X94020520Y-108067126D01*
X94205892Y-108190988D01*
X94411866Y-108276305D01*
X94630527Y-108319800D01*
X94853473Y-108319800D01*
X95072134Y-108276305D01*
X95278108Y-108190988D01*
X95463480Y-108067126D01*
X95621126Y-107909480D01*
X95744988Y-107724108D01*
X95830305Y-107518134D01*
X95873800Y-107299473D01*
X95873800Y-107076527D01*
X96150200Y-107076527D01*
X96150200Y-107299473D01*
X96193695Y-107518134D01*
X96279012Y-107724108D01*
X96402874Y-107909480D01*
X96560520Y-108067126D01*
X96745892Y-108190988D01*
X96951866Y-108276305D01*
X97170527Y-108319800D01*
X97393473Y-108319800D01*
X97612134Y-108276305D01*
X97818108Y-108190988D01*
X98003480Y-108067126D01*
X98161126Y-107909480D01*
X98284988Y-107724108D01*
X98370305Y-107518134D01*
X98413800Y-107299473D01*
X98413800Y-107076527D01*
X98370305Y-106857866D01*
X98284988Y-106651892D01*
X98161126Y-106466520D01*
X98003480Y-106308874D01*
X97818108Y-106185012D01*
X97612134Y-106099695D01*
X97393473Y-106056200D01*
X97170527Y-106056200D01*
X96951866Y-106099695D01*
X96745892Y-106185012D01*
X96560520Y-106308874D01*
X96402874Y-106466520D01*
X96279012Y-106651892D01*
X96193695Y-106857866D01*
X96150200Y-107076527D01*
X95873800Y-107076527D01*
X95830305Y-106857866D01*
X95744988Y-106651892D01*
X95621126Y-106466520D01*
X95575000Y-106420394D01*
X95575000Y-101368205D01*
X95577187Y-101346000D01*
X95568460Y-101257392D01*
X95542614Y-101172190D01*
X95537763Y-101163114D01*
X95500643Y-101093667D01*
X95444159Y-101024841D01*
X95426905Y-101010681D01*
X93924000Y-99507777D01*
X93924000Y-98000134D01*
X94024564Y-98100698D01*
X94143636Y-98180259D01*
X94275942Y-98235062D01*
X94416397Y-98263000D01*
X94559603Y-98263000D01*
X94700058Y-98235062D01*
X94832364Y-98180259D01*
X94951436Y-98100698D01*
X95052698Y-97999436D01*
X95132259Y-97880364D01*
X95187062Y-97748058D01*
X95215000Y-97607603D01*
X95215000Y-97464397D01*
X95187062Y-97323942D01*
X95132259Y-97191636D01*
X95052698Y-97072564D01*
X94951436Y-96971302D01*
X94940000Y-96963661D01*
X94940000Y-94145082D01*
X97304814Y-96509897D01*
X97302131Y-96523387D01*
X97302131Y-96666593D01*
X97330069Y-96807048D01*
X97384872Y-96939354D01*
X97464433Y-97058426D01*
X97565695Y-97159688D01*
X97684767Y-97239249D01*
X97817073Y-97294052D01*
X97957528Y-97321990D01*
X98100734Y-97321990D01*
X98241189Y-97294052D01*
X98373495Y-97239249D01*
X98492567Y-97159688D01*
X98593829Y-97058426D01*
X98673390Y-96939354D01*
X98728193Y-96807048D01*
X98756131Y-96666593D01*
X98756131Y-96523387D01*
X98728193Y-96382932D01*
X98675982Y-96256884D01*
X98764899Y-96197472D01*
X98862000Y-96100371D01*
X98862000Y-99615110D01*
X98859813Y-99637315D01*
X98868540Y-99725922D01*
X98886039Y-99783607D01*
X98894386Y-99811124D01*
X98936357Y-99889647D01*
X98992841Y-99958474D01*
X99010100Y-99972638D01*
X99158580Y-100121118D01*
X99144718Y-100134980D01*
X99065157Y-100254052D01*
X99010354Y-100386358D01*
X98982416Y-100526813D01*
X98982416Y-100670019D01*
X99010354Y-100810474D01*
X99065157Y-100942780D01*
X99144718Y-101061852D01*
X99245980Y-101163114D01*
X99365052Y-101242675D01*
X99497358Y-101297478D01*
X99637813Y-101325416D01*
X99781019Y-101325416D01*
X99921474Y-101297478D01*
X100053780Y-101242675D01*
X100172852Y-101163114D01*
X100274114Y-101061852D01*
X100353675Y-100942780D01*
X100408478Y-100810474D01*
X100436416Y-100670019D01*
X100436416Y-100526813D01*
X100408478Y-100386358D01*
X100353675Y-100254052D01*
X100274114Y-100134980D01*
X100172852Y-100033718D01*
X100163056Y-100027172D01*
X100154876Y-99944123D01*
X100129030Y-99858921D01*
X100107991Y-99819560D01*
X100087059Y-99780398D01*
X100030575Y-99711572D01*
X100013321Y-99697412D01*
X99766000Y-99450092D01*
X99766000Y-84402370D01*
X99858636Y-84464267D01*
X99990942Y-84519070D01*
X100131397Y-84547008D01*
X100274603Y-84547008D01*
X100288093Y-84544325D01*
X100676990Y-84933222D01*
X100676991Y-96745320D01*
X100676990Y-96745330D01*
X100676990Y-96760880D01*
X100665554Y-96768521D01*
X100564292Y-96869783D01*
X100484731Y-96988855D01*
X100429928Y-97121161D01*
X100401990Y-97261616D01*
X100401990Y-97404822D01*
X100429928Y-97545277D01*
X100484731Y-97677583D01*
X100564292Y-97796655D01*
X100665554Y-97897917D01*
X100784626Y-97977478D01*
X100916932Y-98032281D01*
X101057387Y-98060219D01*
X101200593Y-98060219D01*
X101341048Y-98032281D01*
X101473354Y-97977478D01*
X101592426Y-97897917D01*
X101635000Y-97855343D01*
X101635000Y-97988603D01*
X101662938Y-98129058D01*
X101717741Y-98261364D01*
X101797302Y-98380436D01*
X101898564Y-98481698D01*
X102017636Y-98561259D01*
X102149942Y-98616062D01*
X102290397Y-98644000D01*
X102433603Y-98644000D01*
X102574058Y-98616062D01*
X102706364Y-98561259D01*
X102825436Y-98481698D01*
X102926698Y-98380436D01*
X103006259Y-98261364D01*
X103024688Y-98216873D01*
X103024688Y-98295614D01*
X103052626Y-98436069D01*
X103107429Y-98568375D01*
X103186990Y-98687447D01*
X103288252Y-98788709D01*
X103407324Y-98868270D01*
X103539630Y-98923073D01*
X103680085Y-98951011D01*
X103823291Y-98951011D01*
X103836781Y-98948328D01*
X103847776Y-98959323D01*
X103847781Y-98959327D01*
X104268053Y-99379599D01*
X102654110Y-99379599D01*
X102631905Y-99377412D01*
X102543297Y-99386139D01*
X102458095Y-99411985D01*
X102379572Y-99453956D01*
X102310746Y-99510440D01*
X102296586Y-99527694D01*
X97646596Y-104177685D01*
X97633105Y-104175002D01*
X97489899Y-104175002D01*
X97349444Y-104202940D01*
X97217138Y-104257743D01*
X97098066Y-104337304D01*
X96996804Y-104438566D01*
X96917243Y-104557638D01*
X96862440Y-104689944D01*
X96834502Y-104830399D01*
X96834502Y-104973605D01*
X96862440Y-105114060D01*
X96917243Y-105246366D01*
X96996804Y-105365438D01*
X97098066Y-105466700D01*
X97217138Y-105546261D01*
X97349444Y-105601064D01*
X97489899Y-105629002D01*
X97633105Y-105629002D01*
X97773560Y-105601064D01*
X97905866Y-105546261D01*
X98024938Y-105466700D01*
X98126200Y-105365438D01*
X98205761Y-105246366D01*
X98260564Y-105114060D01*
X98288502Y-104973605D01*
X98288502Y-104830399D01*
X98285819Y-104816908D01*
X102819129Y-100283599D01*
X103223531Y-100283599D01*
X103186938Y-100371942D01*
X103159000Y-100512397D01*
X103159000Y-100655603D01*
X103161683Y-100669093D01*
X99518100Y-104312677D01*
X99500841Y-104326841D01*
X99444357Y-104395668D01*
X99428599Y-104425150D01*
X99402386Y-104474191D01*
X99376540Y-104559393D01*
X99367813Y-104648000D01*
X99370000Y-104670205D01*
X99370001Y-106150173D01*
X99285892Y-106185012D01*
X99100520Y-106308874D01*
X98942874Y-106466520D01*
X98819012Y-106651892D01*
X98733695Y-106857866D01*
X98690200Y-107076527D01*
X98690200Y-107299473D01*
X98733695Y-107518134D01*
X98819012Y-107724108D01*
X98942874Y-107909480D01*
X99100520Y-108067126D01*
X99285892Y-108190988D01*
X99491866Y-108276305D01*
X99710527Y-108319800D01*
X99933473Y-108319800D01*
X100152134Y-108276305D01*
X100358108Y-108190988D01*
X100543480Y-108067126D01*
X100701126Y-107909480D01*
X100824988Y-107724108D01*
X100910305Y-107518134D01*
X100936149Y-107388208D01*
X100958429Y-107538887D01*
X101053853Y-107805968D01*
X101121411Y-107932360D01*
X101365870Y-108004525D01*
X102182395Y-107188000D01*
X102168253Y-107173858D01*
X102347858Y-106994253D01*
X102362000Y-107008395D01*
X102376143Y-106994253D01*
X102555748Y-107173858D01*
X102541605Y-107188000D01*
X103358130Y-108004525D01*
X103602589Y-107932360D01*
X103723969Y-107676030D01*
X103791545Y-107406780D01*
X103813695Y-107518134D01*
X103899012Y-107724108D01*
X104022874Y-107909480D01*
X104180520Y-108067126D01*
X104365892Y-108190988D01*
X104571866Y-108276305D01*
X104790527Y-108319800D01*
X105013473Y-108319800D01*
X105232134Y-108276305D01*
X105438108Y-108190988D01*
X105623480Y-108067126D01*
X105781126Y-107909480D01*
X105904988Y-107724108D01*
X105990305Y-107518134D01*
X106033800Y-107299473D01*
X106033800Y-107076527D01*
X106310200Y-107076527D01*
X106310200Y-107299473D01*
X106353695Y-107518134D01*
X106439012Y-107724108D01*
X106562874Y-107909480D01*
X106720520Y-108067126D01*
X106905892Y-108190988D01*
X107111866Y-108276305D01*
X107330527Y-108319800D01*
X107553473Y-108319800D01*
X107772134Y-108276305D01*
X107978108Y-108190988D01*
X108163480Y-108067126D01*
X108321126Y-107909480D01*
X108444988Y-107724108D01*
X108530305Y-107518134D01*
X108573800Y-107299473D01*
X108573800Y-107076527D01*
X108850200Y-107076527D01*
X108850200Y-107299473D01*
X108893695Y-107518134D01*
X108979012Y-107724108D01*
X109102874Y-107909480D01*
X109260520Y-108067126D01*
X109445892Y-108190988D01*
X109651866Y-108276305D01*
X109870527Y-108319800D01*
X110093473Y-108319800D01*
X110312134Y-108276305D01*
X110518108Y-108190988D01*
X110703480Y-108067126D01*
X110861126Y-107909480D01*
X110984988Y-107724108D01*
X111070305Y-107518134D01*
X111113800Y-107299473D01*
X111113800Y-107076527D01*
X111390200Y-107076527D01*
X111390200Y-107299473D01*
X111433695Y-107518134D01*
X111519012Y-107724108D01*
X111642874Y-107909480D01*
X111800520Y-108067126D01*
X111985892Y-108190988D01*
X112191866Y-108276305D01*
X112410527Y-108319800D01*
X112633473Y-108319800D01*
X112852134Y-108276305D01*
X113058108Y-108190988D01*
X113243480Y-108067126D01*
X113401126Y-107909480D01*
X113524988Y-107724108D01*
X113610305Y-107518134D01*
X113653800Y-107299473D01*
X113653800Y-107076527D01*
X113930200Y-107076527D01*
X113930200Y-107299473D01*
X113973695Y-107518134D01*
X114059012Y-107724108D01*
X114182874Y-107909480D01*
X114340520Y-108067126D01*
X114525892Y-108190988D01*
X114731866Y-108276305D01*
X114950527Y-108319800D01*
X115173473Y-108319800D01*
X115392134Y-108276305D01*
X115598108Y-108190988D01*
X115783480Y-108067126D01*
X115941126Y-107909480D01*
X116064988Y-107724108D01*
X116150305Y-107518134D01*
X116193800Y-107299473D01*
X116193800Y-107076527D01*
X116150305Y-106857866D01*
X116064988Y-106651892D01*
X115941126Y-106466520D01*
X115783480Y-106308874D01*
X115598108Y-106185012D01*
X115392134Y-106099695D01*
X115173473Y-106056200D01*
X114950527Y-106056200D01*
X114731866Y-106099695D01*
X114525892Y-106185012D01*
X114340520Y-106308874D01*
X114182874Y-106466520D01*
X114059012Y-106651892D01*
X113973695Y-106857866D01*
X113930200Y-107076527D01*
X113653800Y-107076527D01*
X113610305Y-106857866D01*
X113524988Y-106651892D01*
X113401126Y-106466520D01*
X113324415Y-106389809D01*
X115609085Y-104105139D01*
X115632938Y-104225058D01*
X115687741Y-104357364D01*
X115767302Y-104476436D01*
X115868564Y-104577698D01*
X115987636Y-104657259D01*
X116119942Y-104712062D01*
X116260397Y-104740000D01*
X116403603Y-104740000D01*
X116417093Y-104737317D01*
X116428088Y-104748312D01*
X116428093Y-104748316D01*
X117150001Y-105470225D01*
X117150000Y-105813204D01*
X117150001Y-105813211D01*
X117150001Y-106150173D01*
X117065892Y-106185012D01*
X116880520Y-106308874D01*
X116722874Y-106466520D01*
X116599012Y-106651892D01*
X116513695Y-106857866D01*
X116470200Y-107076527D01*
X116470200Y-107299473D01*
X116513695Y-107518134D01*
X116599012Y-107724108D01*
X116722874Y-107909480D01*
X116880520Y-108067126D01*
X117065892Y-108190988D01*
X117271866Y-108276305D01*
X117490527Y-108319800D01*
X117713473Y-108319800D01*
X117932134Y-108276305D01*
X118138108Y-108190988D01*
X118323480Y-108067126D01*
X118481126Y-107909480D01*
X118604988Y-107724108D01*
X118690305Y-107518134D01*
X118733800Y-107299473D01*
X118733800Y-107076527D01*
X118690305Y-106857866D01*
X118604988Y-106651892D01*
X118481126Y-106466520D01*
X118323480Y-106308874D01*
X118138108Y-106185012D01*
X118054000Y-106150173D01*
X118054000Y-105470223D01*
X119429912Y-104094313D01*
X119447159Y-104080159D01*
X119503643Y-104011333D01*
X119545614Y-103932810D01*
X119571460Y-103847607D01*
X119578000Y-103781205D01*
X119578000Y-103781204D01*
X119580187Y-103759001D01*
X119578000Y-103736798D01*
X119578000Y-101156339D01*
X119589436Y-101148698D01*
X119690001Y-101048133D01*
X119690000Y-106150173D01*
X119605892Y-106185012D01*
X119420520Y-106308874D01*
X119262874Y-106466520D01*
X119139012Y-106651892D01*
X119053695Y-106857866D01*
X119010200Y-107076527D01*
X119010200Y-107299473D01*
X119053695Y-107518134D01*
X119139012Y-107724108D01*
X119262874Y-107909480D01*
X119420520Y-108067126D01*
X119605892Y-108190988D01*
X119811866Y-108276305D01*
X120030527Y-108319800D01*
X120253473Y-108319800D01*
X120472134Y-108276305D01*
X120678108Y-108190988D01*
X120863480Y-108067126D01*
X121021126Y-107909480D01*
X121144988Y-107724108D01*
X121230305Y-107518134D01*
X121273800Y-107299473D01*
X121273800Y-107076527D01*
X121230305Y-106857866D01*
X121144988Y-106651892D01*
X121021126Y-106466520D01*
X120863480Y-106308874D01*
X120678108Y-106185012D01*
X120594000Y-106150173D01*
X120594000Y-98870339D01*
X120605436Y-98862698D01*
X120706698Y-98761436D01*
X120786259Y-98642364D01*
X120841062Y-98510058D01*
X120869000Y-98369603D01*
X120869000Y-98226397D01*
X120847601Y-98118816D01*
X122230001Y-99501217D01*
X122230000Y-106150173D01*
X122145892Y-106185012D01*
X121960520Y-106308874D01*
X121802874Y-106466520D01*
X121679012Y-106651892D01*
X121593695Y-106857866D01*
X121550200Y-107076527D01*
X121550200Y-107299473D01*
X121593695Y-107518134D01*
X121679012Y-107724108D01*
X121802874Y-107909480D01*
X121960520Y-108067126D01*
X122145892Y-108190988D01*
X122351866Y-108276305D01*
X122570527Y-108319800D01*
X122793473Y-108319800D01*
X123012134Y-108276305D01*
X123218108Y-108190988D01*
X123403480Y-108067126D01*
X123561126Y-107909480D01*
X123684988Y-107724108D01*
X123770305Y-107518134D01*
X123813800Y-107299473D01*
X123813800Y-107076527D01*
X123770305Y-106857866D01*
X123684988Y-106651892D01*
X123561126Y-106466520D01*
X123403480Y-106308874D01*
X123218108Y-106185012D01*
X123134000Y-106150173D01*
X123134000Y-99336197D01*
X123136187Y-99313992D01*
X123127460Y-99225384D01*
X123101614Y-99140182D01*
X123092184Y-99122540D01*
X123059643Y-99061659D01*
X123003159Y-98992833D01*
X122985905Y-98978673D01*
X121374325Y-97367093D01*
X121377008Y-97353603D01*
X121377008Y-97210397D01*
X121355615Y-97102846D01*
X124770001Y-100517234D01*
X124770000Y-106150173D01*
X124685892Y-106185012D01*
X124500520Y-106308874D01*
X124342874Y-106466520D01*
X124219012Y-106651892D01*
X124133695Y-106857866D01*
X124090200Y-107076527D01*
X124090200Y-107299473D01*
X124133695Y-107518134D01*
X124219012Y-107724108D01*
X124342874Y-107909480D01*
X124500520Y-108067126D01*
X124685892Y-108190988D01*
X124891866Y-108276305D01*
X125110527Y-108319800D01*
X125333473Y-108319800D01*
X125552134Y-108276305D01*
X125758108Y-108190988D01*
X125943480Y-108067126D01*
X126101126Y-107909480D01*
X126224988Y-107724108D01*
X126310305Y-107518134D01*
X126353800Y-107299473D01*
X126353800Y-107076527D01*
X126310305Y-106857866D01*
X126224988Y-106651892D01*
X126101126Y-106466520D01*
X125943480Y-106308874D01*
X125758108Y-106185012D01*
X125674000Y-106150173D01*
X125674000Y-105740317D01*
X125680100Y-105745323D01*
X126708534Y-106773757D01*
X126673695Y-106857866D01*
X126630200Y-107076527D01*
X126630200Y-107299473D01*
X126673695Y-107518134D01*
X126759012Y-107724108D01*
X126882874Y-107909480D01*
X127040520Y-108067126D01*
X127225892Y-108190988D01*
X127431866Y-108276305D01*
X127650527Y-108319800D01*
X127873473Y-108319800D01*
X128092134Y-108276305D01*
X128298108Y-108190988D01*
X128483480Y-108067126D01*
X128641126Y-107909480D01*
X128764988Y-107724108D01*
X128850305Y-107518134D01*
X128893800Y-107299473D01*
X128893800Y-107076527D01*
X129170200Y-107076527D01*
X129170200Y-107299473D01*
X129213695Y-107518134D01*
X129299012Y-107724108D01*
X129422874Y-107909480D01*
X129580520Y-108067126D01*
X129765892Y-108190988D01*
X129971866Y-108276305D01*
X130190527Y-108319800D01*
X130413473Y-108319800D01*
X130632134Y-108276305D01*
X130838108Y-108190988D01*
X131023480Y-108067126D01*
X131181126Y-107909480D01*
X131304988Y-107724108D01*
X131390305Y-107518134D01*
X131416149Y-107388208D01*
X131438429Y-107538887D01*
X131533853Y-107805968D01*
X131601411Y-107932360D01*
X131845870Y-108004525D01*
X132662395Y-107188000D01*
X133021605Y-107188000D01*
X133838130Y-108004525D01*
X134082589Y-107932360D01*
X134203969Y-107676030D01*
X134273009Y-107400946D01*
X134287056Y-107117678D01*
X134252440Y-106883565D01*
X136882040Y-106883565D01*
X136949020Y-107123656D01*
X137198048Y-107240756D01*
X137465135Y-107307023D01*
X137740017Y-107319910D01*
X138012133Y-107278922D01*
X138271023Y-107185636D01*
X138386980Y-107123656D01*
X138453960Y-106883565D01*
X137668000Y-106097605D01*
X136882040Y-106883565D01*
X134252440Y-106883565D01*
X134245571Y-106837113D01*
X134150147Y-106570032D01*
X134082589Y-106443640D01*
X133838130Y-106371475D01*
X133021605Y-107188000D01*
X132662395Y-107188000D01*
X131845870Y-106371475D01*
X131601411Y-106443640D01*
X131480031Y-106699970D01*
X131412455Y-106969220D01*
X131390305Y-106857866D01*
X131304988Y-106651892D01*
X131181126Y-106466520D01*
X131023480Y-106308874D01*
X130848372Y-106191870D01*
X132025475Y-106191870D01*
X132842000Y-107008395D01*
X133658525Y-106191870D01*
X133598938Y-105990017D01*
X136266090Y-105990017D01*
X136307078Y-106262133D01*
X136400364Y-106521023D01*
X136462344Y-106636980D01*
X136702435Y-106703960D01*
X137488395Y-105918000D01*
X137847605Y-105918000D01*
X138633565Y-106703960D01*
X138873656Y-106636980D01*
X138990756Y-106387952D01*
X139057023Y-106120865D01*
X139069910Y-105845983D01*
X139028922Y-105573867D01*
X138935636Y-105314977D01*
X138873656Y-105199020D01*
X138633565Y-105132040D01*
X137847605Y-105918000D01*
X137488395Y-105918000D01*
X136702435Y-105132040D01*
X136462344Y-105199020D01*
X136345244Y-105448048D01*
X136278977Y-105715135D01*
X136266090Y-105990017D01*
X133598938Y-105990017D01*
X133586360Y-105947411D01*
X133330030Y-105826031D01*
X133054946Y-105756991D01*
X132771678Y-105742944D01*
X132491113Y-105784429D01*
X132224032Y-105879853D01*
X132097640Y-105947411D01*
X132025475Y-106191870D01*
X130848372Y-106191870D01*
X130838108Y-106185012D01*
X130632134Y-106099695D01*
X130413473Y-106056200D01*
X130190527Y-106056200D01*
X129971866Y-106099695D01*
X129765892Y-106185012D01*
X129580520Y-106308874D01*
X129422874Y-106466520D01*
X129299012Y-106651892D01*
X129213695Y-106857866D01*
X129170200Y-107076527D01*
X128893800Y-107076527D01*
X128850305Y-106857866D01*
X128764988Y-106651892D01*
X128641126Y-106466520D01*
X128483480Y-106308874D01*
X128298108Y-106185012D01*
X128092134Y-106099695D01*
X127873473Y-106056200D01*
X127650527Y-106056200D01*
X127541155Y-106077956D01*
X127598364Y-106054259D01*
X127717436Y-105974698D01*
X127818698Y-105873436D01*
X127898259Y-105754364D01*
X127953062Y-105622058D01*
X127981000Y-105481603D01*
X127981000Y-105338397D01*
X127953062Y-105197942D01*
X127898259Y-105065636D01*
X127818698Y-104946564D01*
X127717436Y-104845302D01*
X127706000Y-104837661D01*
X127706000Y-103816150D01*
X127861651Y-104191925D01*
X128225750Y-104736839D01*
X128689161Y-105200250D01*
X129234075Y-105564349D01*
X129839550Y-105815145D01*
X130482319Y-105943000D01*
X131137681Y-105943000D01*
X131780450Y-105815145D01*
X132385925Y-105564349D01*
X132930839Y-105200250D01*
X133178654Y-104952435D01*
X136882040Y-104952435D01*
X137668000Y-105738395D01*
X138453960Y-104952435D01*
X138386980Y-104712344D01*
X138137952Y-104595244D01*
X137870865Y-104528977D01*
X137595983Y-104516090D01*
X137323867Y-104557078D01*
X137064977Y-104650364D01*
X136949020Y-104712344D01*
X136882040Y-104952435D01*
X133178654Y-104952435D01*
X133394250Y-104736839D01*
X133758349Y-104191925D01*
X134009145Y-103586450D01*
X134137000Y-102943681D01*
X134137000Y-102288319D01*
X134009145Y-101645550D01*
X133758349Y-101040075D01*
X133394250Y-100495161D01*
X132930839Y-100031750D01*
X132385925Y-99667651D01*
X131780450Y-99416855D01*
X131137681Y-99289000D01*
X130482319Y-99289000D01*
X129839550Y-99416855D01*
X129234075Y-99667651D01*
X128689161Y-100031750D01*
X128225750Y-100495161D01*
X127861651Y-101040075D01*
X127706000Y-101415850D01*
X127706000Y-99124339D01*
X127717436Y-99116698D01*
X127818698Y-99015436D01*
X127898259Y-98896364D01*
X127953062Y-98764058D01*
X127981000Y-98623603D01*
X127981000Y-98480397D01*
X127953062Y-98339942D01*
X127898259Y-98207636D01*
X127818698Y-98088564D01*
X127717436Y-97987302D01*
X127598364Y-97907741D01*
X127466058Y-97852938D01*
X127325603Y-97825000D01*
X127182397Y-97825000D01*
X127041942Y-97852938D01*
X126909636Y-97907741D01*
X126790564Y-97987302D01*
X126689302Y-98088564D01*
X126609741Y-98207636D01*
X126554938Y-98339942D01*
X126527000Y-98480397D01*
X126527000Y-98623603D01*
X126554938Y-98764058D01*
X126609741Y-98896364D01*
X126689302Y-99015436D01*
X126790564Y-99116698D01*
X126802001Y-99124340D01*
X126802000Y-104837661D01*
X126790564Y-104845302D01*
X126689302Y-104946564D01*
X126609741Y-105065636D01*
X126554938Y-105197942D01*
X126531085Y-105317862D01*
X126436000Y-105222777D01*
X126436000Y-103950339D01*
X126447436Y-103942698D01*
X126548698Y-103841436D01*
X126628259Y-103722364D01*
X126683062Y-103590058D01*
X126711000Y-103449603D01*
X126711000Y-103306397D01*
X126683062Y-103165942D01*
X126628259Y-103033636D01*
X126548698Y-102914564D01*
X126447436Y-102813302D01*
X126328364Y-102733741D01*
X126196058Y-102678938D01*
X126055603Y-102651000D01*
X125912397Y-102651000D01*
X125771942Y-102678938D01*
X125674000Y-102719507D01*
X125674000Y-100352210D01*
X125676187Y-100330007D01*
X125671290Y-100280289D01*
X125667460Y-100241401D01*
X125641614Y-100156198D01*
X125599643Y-100077675D01*
X125543159Y-100008849D01*
X125525911Y-99994694D01*
X124788818Y-99257601D01*
X124896397Y-99279000D01*
X125039603Y-99279000D01*
X125180058Y-99251062D01*
X125312364Y-99196259D01*
X125431436Y-99116698D01*
X125532698Y-99015436D01*
X125612259Y-98896364D01*
X125667062Y-98764058D01*
X125695000Y-98623603D01*
X125695000Y-98610736D01*
X127341595Y-96964142D01*
X127341599Y-96964137D01*
X128135571Y-96170166D01*
X128156769Y-96152769D01*
X128194838Y-96106383D01*
X128226200Y-96068168D01*
X128277791Y-95971648D01*
X128309561Y-95866917D01*
X128312390Y-95838191D01*
X128317600Y-95785293D01*
X128317600Y-95785285D01*
X128320287Y-95758000D01*
X128317600Y-95730715D01*
X128317600Y-91150534D01*
X128326698Y-91141436D01*
X128406259Y-91022364D01*
X128461062Y-90890058D01*
X128489000Y-90749603D01*
X128489000Y-90606397D01*
X128461062Y-90465942D01*
X128406259Y-90333636D01*
X128326698Y-90214564D01*
X128225436Y-90113302D01*
X128106364Y-90033741D01*
X127974058Y-89978938D01*
X127833603Y-89951000D01*
X127690397Y-89951000D01*
X127549942Y-89978938D01*
X127417636Y-90033741D01*
X127298564Y-90113302D01*
X127197302Y-90214564D01*
X127117741Y-90333636D01*
X127062938Y-90465942D01*
X127035000Y-90606397D01*
X127035000Y-90749603D01*
X127062938Y-90890058D01*
X127117741Y-91022364D01*
X127197302Y-91141436D01*
X127206400Y-91150534D01*
X127206401Y-95527862D01*
X126555863Y-96178401D01*
X126555858Y-96178405D01*
X124909264Y-97825000D01*
X124896397Y-97825000D01*
X124755942Y-97852938D01*
X124623636Y-97907741D01*
X124504564Y-97987302D01*
X124403302Y-98088564D01*
X124323741Y-98207636D01*
X124268938Y-98339942D01*
X124241000Y-98480397D01*
X124241000Y-98623603D01*
X124262399Y-98731182D01*
X121639309Y-96108093D01*
X121628309Y-96097093D01*
X121630992Y-96083603D01*
X121630992Y-95940397D01*
X121603054Y-95799942D01*
X121548251Y-95667636D01*
X121468690Y-95548564D01*
X121367428Y-95447302D01*
X121248356Y-95367741D01*
X121116050Y-95312938D01*
X120996138Y-95289086D01*
X121842906Y-94442318D01*
X121860159Y-94428159D01*
X121916643Y-94359333D01*
X121958614Y-94280810D01*
X121968637Y-94247769D01*
X121984460Y-94195608D01*
X121993187Y-94107000D01*
X121991000Y-94084795D01*
X121991000Y-88837341D01*
X122002436Y-88829700D01*
X122103698Y-88728438D01*
X122183259Y-88609366D01*
X122238062Y-88477060D01*
X122266000Y-88336605D01*
X122266000Y-88193399D01*
X122238062Y-88052944D01*
X122183259Y-87920638D01*
X122151688Y-87873389D01*
X122351866Y-87956305D01*
X122570527Y-87999800D01*
X122793473Y-87999800D01*
X123012134Y-87956305D01*
X123218108Y-87870988D01*
X123403480Y-87747126D01*
X123561126Y-87589480D01*
X123684988Y-87404108D01*
X123770305Y-87198134D01*
X123813800Y-86979473D01*
X123813800Y-86756527D01*
X123770305Y-86537866D01*
X123684988Y-86331892D01*
X123561126Y-86146520D01*
X123403480Y-85988874D01*
X123218108Y-85865012D01*
X123012134Y-85779695D01*
X122793473Y-85736200D01*
X122570527Y-85736200D01*
X122351866Y-85779695D01*
X122145892Y-85865012D01*
X121960520Y-85988874D01*
X121802874Y-86146520D01*
X121679012Y-86331892D01*
X121593695Y-86537866D01*
X121550200Y-86756527D01*
X121550200Y-86979473D01*
X121593695Y-87198134D01*
X121679012Y-87404108D01*
X121800955Y-87586608D01*
X121751058Y-87565940D01*
X121610603Y-87538002D01*
X121467397Y-87538002D01*
X121326942Y-87565940D01*
X121194636Y-87620743D01*
X121075564Y-87700304D01*
X120974302Y-87801566D01*
X120894741Y-87920638D01*
X120839938Y-88052944D01*
X120812000Y-88193399D01*
X120812000Y-88336605D01*
X120839938Y-88477060D01*
X120894741Y-88609366D01*
X120974302Y-88728438D01*
X121075564Y-88829700D01*
X121087000Y-88837341D01*
X121087000Y-88852891D01*
X121087001Y-88852901D01*
X121087000Y-93919776D01*
X115401094Y-99605683D01*
X115387603Y-99603000D01*
X115244397Y-99603000D01*
X115103942Y-99630938D01*
X114971636Y-99685741D01*
X114852564Y-99765302D01*
X114751302Y-99866564D01*
X114671741Y-99985636D01*
X114616938Y-100117942D01*
X114589000Y-100258397D01*
X114589000Y-100401603D01*
X114616938Y-100542058D01*
X114671741Y-100674364D01*
X114751302Y-100793436D01*
X114852564Y-100894698D01*
X114971636Y-100974259D01*
X115103942Y-101029062D01*
X115244397Y-101057000D01*
X115387603Y-101057000D01*
X115528058Y-101029062D01*
X115660364Y-100974259D01*
X115779436Y-100894698D01*
X115880698Y-100793436D01*
X115960259Y-100674364D01*
X116015062Y-100542058D01*
X116043000Y-100401603D01*
X116043000Y-100258397D01*
X116040317Y-100244906D01*
X120181078Y-96104146D01*
X120204930Y-96224058D01*
X120259733Y-96356364D01*
X120339294Y-96475436D01*
X120440556Y-96576698D01*
X120447155Y-96581107D01*
X120437950Y-96582938D01*
X120305644Y-96637741D01*
X120186572Y-96717302D01*
X120085310Y-96818564D01*
X120005749Y-96937636D01*
X119950946Y-97069942D01*
X119923008Y-97210397D01*
X119923008Y-97353603D01*
X119950946Y-97494058D01*
X119989483Y-97587095D01*
X119929942Y-97598938D01*
X119797636Y-97653741D01*
X119678564Y-97733302D01*
X119577302Y-97834564D01*
X119497741Y-97953636D01*
X119442938Y-98085942D01*
X119415000Y-98226397D01*
X119415000Y-98369603D01*
X119442938Y-98510058D01*
X119497741Y-98642364D01*
X119577302Y-98761436D01*
X119678564Y-98862698D01*
X119690001Y-98870340D01*
X119690001Y-100119867D01*
X119589436Y-100019302D01*
X119470364Y-99939741D01*
X119338058Y-99884938D01*
X119197603Y-99857000D01*
X119054397Y-99857000D01*
X118913942Y-99884938D01*
X118781636Y-99939741D01*
X118662564Y-100019302D01*
X118561302Y-100120564D01*
X118481741Y-100239636D01*
X118426938Y-100371942D01*
X118399000Y-100512397D01*
X118399000Y-100655603D01*
X118426938Y-100796058D01*
X118481741Y-100928364D01*
X118561302Y-101047436D01*
X118662564Y-101148698D01*
X118674001Y-101156340D01*
X118674000Y-103571775D01*
X117602000Y-104643776D01*
X117067316Y-104109093D01*
X117067312Y-104109088D01*
X117056317Y-104098093D01*
X117059000Y-104084603D01*
X117059000Y-103941397D01*
X117031062Y-103800942D01*
X116976259Y-103668636D01*
X116896698Y-103549564D01*
X116795436Y-103448302D01*
X116676364Y-103368741D01*
X116544058Y-103313938D01*
X116424139Y-103290085D01*
X118159912Y-101554313D01*
X118177159Y-101540159D01*
X118233643Y-101471333D01*
X118275614Y-101392810D01*
X118296058Y-101325416D01*
X118301460Y-101307608D01*
X118310187Y-101219001D01*
X118308000Y-101196796D01*
X118308000Y-100140339D01*
X118319436Y-100132698D01*
X118420698Y-100031436D01*
X118500259Y-99912364D01*
X118555062Y-99780058D01*
X118583000Y-99639603D01*
X118583000Y-99496397D01*
X118555062Y-99355942D01*
X118500259Y-99223636D01*
X118420698Y-99104564D01*
X118319436Y-99003302D01*
X118200364Y-98923741D01*
X118068058Y-98868938D01*
X117927603Y-98841000D01*
X117784397Y-98841000D01*
X117643942Y-98868938D01*
X117511636Y-98923741D01*
X117392564Y-99003302D01*
X117291302Y-99104564D01*
X117211741Y-99223636D01*
X117156938Y-99355942D01*
X117129000Y-99496397D01*
X117129000Y-99639603D01*
X117156938Y-99780058D01*
X117211741Y-99912364D01*
X117291302Y-100031436D01*
X117392564Y-100132698D01*
X117404001Y-100140340D01*
X117404000Y-101031775D01*
X112371892Y-106063885D01*
X112191866Y-106099695D01*
X111985892Y-106185012D01*
X111800520Y-106308874D01*
X111642874Y-106466520D01*
X111519012Y-106651892D01*
X111433695Y-106857866D01*
X111390200Y-107076527D01*
X111113800Y-107076527D01*
X111070305Y-106857866D01*
X110984988Y-106651892D01*
X110861126Y-106466520D01*
X110703480Y-106308874D01*
X110518108Y-106185012D01*
X110312134Y-106099695D01*
X110093473Y-106056200D01*
X109870527Y-106056200D01*
X109651866Y-106099695D01*
X109445892Y-106185012D01*
X109260520Y-106308874D01*
X109102874Y-106466520D01*
X108979012Y-106651892D01*
X108893695Y-106857866D01*
X108850200Y-107076527D01*
X108573800Y-107076527D01*
X108530305Y-106857866D01*
X108444988Y-106651892D01*
X108321126Y-106466520D01*
X108163480Y-106308874D01*
X107978108Y-106185012D01*
X107772134Y-106099695D01*
X107553473Y-106056200D01*
X107330527Y-106056200D01*
X107111866Y-106099695D01*
X106905892Y-106185012D01*
X106720520Y-106308874D01*
X106562874Y-106466520D01*
X106439012Y-106651892D01*
X106353695Y-106857866D01*
X106310200Y-107076527D01*
X106033800Y-107076527D01*
X105990305Y-106857866D01*
X105904988Y-106651892D01*
X105781126Y-106466520D01*
X105623480Y-106308874D01*
X105438108Y-106185012D01*
X105232134Y-106099695D01*
X105013473Y-106056200D01*
X104790527Y-106056200D01*
X104571866Y-106099695D01*
X104487757Y-106134534D01*
X103586327Y-105233104D01*
X103572163Y-105215845D01*
X103503337Y-105159361D01*
X103424814Y-105117390D01*
X103339611Y-105091544D01*
X103273209Y-105085004D01*
X103251004Y-105082817D01*
X103228799Y-105085004D01*
X102045339Y-105085004D01*
X102037698Y-105073568D01*
X101936436Y-104972306D01*
X101817364Y-104892745D01*
X101685058Y-104837942D01*
X101544603Y-104810004D01*
X101401397Y-104810004D01*
X101260942Y-104837942D01*
X101128636Y-104892745D01*
X101009564Y-104972306D01*
X100908302Y-105073568D01*
X100828741Y-105192640D01*
X100773938Y-105324946D01*
X100746000Y-105465401D01*
X100746000Y-105608607D01*
X100773938Y-105749062D01*
X100828741Y-105881368D01*
X100908302Y-106000440D01*
X101009564Y-106101702D01*
X101128636Y-106181263D01*
X101260942Y-106236066D01*
X101267468Y-106237364D01*
X101249612Y-106255220D01*
X101365868Y-106371476D01*
X101121411Y-106443640D01*
X101000031Y-106699970D01*
X100932455Y-106969220D01*
X100910305Y-106857866D01*
X100824988Y-106651892D01*
X100701126Y-106466520D01*
X100543480Y-106308874D01*
X100358108Y-106185012D01*
X100274000Y-106150173D01*
X100274000Y-104835223D01*
X103800907Y-101308317D01*
X103814397Y-101311000D01*
X103957603Y-101311000D01*
X104098058Y-101283062D01*
X104230364Y-101228259D01*
X104349436Y-101148698D01*
X104450698Y-101047436D01*
X104530259Y-100928364D01*
X104585062Y-100796058D01*
X104608915Y-100676139D01*
X104820681Y-100887905D01*
X104834841Y-100905159D01*
X104903667Y-100961643D01*
X104981777Y-101003393D01*
X104982190Y-101003614D01*
X105067392Y-101029460D01*
X105156000Y-101038187D01*
X105178205Y-101036000D01*
X109508797Y-101036000D01*
X109531002Y-101038187D01*
X109553207Y-101036000D01*
X109619609Y-101029460D01*
X109704812Y-101003614D01*
X109783335Y-100961643D01*
X109852161Y-100905159D01*
X109866325Y-100887900D01*
X110703722Y-100050504D01*
X110720970Y-100036350D01*
X110777454Y-99967524D01*
X110819425Y-99889001D01*
X110845271Y-99803798D01*
X110851811Y-99737396D01*
X110851811Y-99737395D01*
X110853998Y-99715192D01*
X110851811Y-99692989D01*
X110851811Y-98873092D01*
X111181000Y-99202281D01*
X111181001Y-101450785D01*
X111178813Y-101473000D01*
X111187540Y-101561607D01*
X111213386Y-101646809D01*
X111231829Y-101681313D01*
X111255358Y-101725333D01*
X111311842Y-101794159D01*
X111329096Y-101808319D01*
X112428023Y-102907248D01*
X112425340Y-102920737D01*
X112425340Y-103063943D01*
X112453278Y-103204398D01*
X112508081Y-103336704D01*
X112587642Y-103455776D01*
X112688904Y-103557038D01*
X112807976Y-103636599D01*
X112940282Y-103691402D01*
X113080737Y-103719340D01*
X113223943Y-103719340D01*
X113364398Y-103691402D01*
X113496704Y-103636599D01*
X113615776Y-103557038D01*
X113717038Y-103455776D01*
X113796599Y-103336704D01*
X113851402Y-103204398D01*
X113879340Y-103063943D01*
X113879340Y-102920737D01*
X113851402Y-102780282D01*
X113796599Y-102647976D01*
X113717038Y-102528904D01*
X113615776Y-102427642D01*
X113611413Y-102424727D01*
X113620436Y-102418698D01*
X113721698Y-102317436D01*
X113801259Y-102198364D01*
X113856062Y-102066058D01*
X113884000Y-101925603D01*
X113884000Y-101782397D01*
X113856062Y-101641942D01*
X113801259Y-101509636D01*
X113721698Y-101390564D01*
X113620436Y-101289302D01*
X113609000Y-101281661D01*
X113609000Y-99924849D01*
X113611187Y-99902646D01*
X113604189Y-99831599D01*
X113602460Y-99814040D01*
X113576614Y-99728837D01*
X113534643Y-99650314D01*
X113478159Y-99581488D01*
X113460911Y-99567333D01*
X107823676Y-93930100D01*
X107809512Y-93912841D01*
X107740686Y-93856357D01*
X107662163Y-93814386D01*
X107576960Y-93788540D01*
X107510558Y-93782000D01*
X107488353Y-93779813D01*
X107466148Y-93782000D01*
X105855321Y-93782000D01*
X105847680Y-93770564D01*
X105746418Y-93669302D01*
X105627346Y-93589741D01*
X105566067Y-93564358D01*
X105619436Y-93528698D01*
X105720698Y-93427436D01*
X105800259Y-93308364D01*
X105855062Y-93176058D01*
X105883000Y-93035603D01*
X105883000Y-92914973D01*
X106494335Y-92303638D01*
X106512627Y-92288627D01*
X106572535Y-92215629D01*
X106617050Y-92132346D01*
X106644463Y-92041979D01*
X106651400Y-91971546D01*
X106651400Y-91971545D01*
X106653719Y-91948000D01*
X106651400Y-91924455D01*
X106651400Y-87678006D01*
X106720520Y-87747126D01*
X106905892Y-87870988D01*
X107111866Y-87956305D01*
X107330527Y-87999800D01*
X107553473Y-87999800D01*
X107772134Y-87956305D01*
X107978108Y-87870988D01*
X108163480Y-87747126D01*
X108258001Y-87652605D01*
X108258001Y-87861702D01*
X108255805Y-87884000D01*
X108264570Y-87972999D01*
X108290530Y-88058578D01*
X108290531Y-88058579D01*
X108332688Y-88137449D01*
X108389422Y-88206579D01*
X108406738Y-88220790D01*
X112813214Y-92627267D01*
X112811000Y-92638397D01*
X112811000Y-92781603D01*
X112838938Y-92922058D01*
X112893741Y-93054364D01*
X112973302Y-93173436D01*
X113074564Y-93274698D01*
X113193636Y-93354259D01*
X113325942Y-93409062D01*
X113466397Y-93437000D01*
X113609603Y-93437000D01*
X113750058Y-93409062D01*
X113882364Y-93354259D01*
X114001436Y-93274698D01*
X114102698Y-93173436D01*
X114182259Y-93054364D01*
X114237062Y-92922058D01*
X114265000Y-92781603D01*
X114265000Y-92638397D01*
X114237062Y-92497942D01*
X114182259Y-92365636D01*
X114102698Y-92246564D01*
X114001436Y-92145302D01*
X113882364Y-92065741D01*
X113750058Y-92010938D01*
X113609603Y-91983000D01*
X113466397Y-91983000D01*
X113455267Y-91985214D01*
X113129053Y-91659000D01*
X113228603Y-91659000D01*
X113369058Y-91631062D01*
X113501364Y-91576259D01*
X113620436Y-91496698D01*
X113721698Y-91395436D01*
X113801259Y-91276364D01*
X113856062Y-91144058D01*
X113884000Y-91003603D01*
X113884000Y-90860397D01*
X113856062Y-90719942D01*
X113801259Y-90587636D01*
X113721698Y-90468564D01*
X113620436Y-90367302D01*
X113501364Y-90287741D01*
X113369058Y-90232938D01*
X113234962Y-90206265D01*
X111801301Y-88772604D01*
X111801301Y-87747648D01*
X111985892Y-87870988D01*
X112191866Y-87956305D01*
X112410527Y-87999800D01*
X112633473Y-87999800D01*
X112852134Y-87956305D01*
X113058108Y-87870988D01*
X113243480Y-87747126D01*
X113401126Y-87589480D01*
X113524988Y-87404108D01*
X113610305Y-87198134D01*
X113653800Y-86979473D01*
X113653800Y-86756527D01*
X113930200Y-86756527D01*
X113930200Y-86979473D01*
X113973695Y-87198134D01*
X114059012Y-87404108D01*
X114182874Y-87589480D01*
X114340520Y-87747126D01*
X114525892Y-87870988D01*
X114610000Y-87905827D01*
X114610001Y-90105660D01*
X114598564Y-90113302D01*
X114497302Y-90214564D01*
X114417741Y-90333636D01*
X114362938Y-90465942D01*
X114335000Y-90606397D01*
X114335000Y-90749603D01*
X114362938Y-90890058D01*
X114417741Y-91022364D01*
X114497302Y-91141436D01*
X114598564Y-91242698D01*
X114717636Y-91322259D01*
X114849942Y-91377062D01*
X114990397Y-91405000D01*
X115133603Y-91405000D01*
X115274058Y-91377062D01*
X115406364Y-91322259D01*
X115525436Y-91242698D01*
X115626698Y-91141436D01*
X115706259Y-91022364D01*
X115761062Y-90890058D01*
X115789000Y-90749603D01*
X115789000Y-90606397D01*
X115761062Y-90465942D01*
X115706259Y-90333636D01*
X115626698Y-90214564D01*
X115525436Y-90113302D01*
X115514000Y-90105661D01*
X115514000Y-87905827D01*
X115598108Y-87870988D01*
X115783480Y-87747126D01*
X115941126Y-87589480D01*
X116064988Y-87404108D01*
X116150305Y-87198134D01*
X116193800Y-86979473D01*
X116193800Y-86756527D01*
X116150305Y-86537866D01*
X116064988Y-86331892D01*
X115941126Y-86146520D01*
X115783480Y-85988874D01*
X115598108Y-85865012D01*
X115392134Y-85779695D01*
X115173473Y-85736200D01*
X114950527Y-85736200D01*
X114731866Y-85779695D01*
X114525892Y-85865012D01*
X114340520Y-85988874D01*
X114182874Y-86146520D01*
X114059012Y-86331892D01*
X113973695Y-86537866D01*
X113930200Y-86756527D01*
X113653800Y-86756527D01*
X113610305Y-86537866D01*
X113524988Y-86331892D01*
X113401126Y-86146520D01*
X113243480Y-85988874D01*
X113058108Y-85865012D01*
X112852134Y-85779695D01*
X112633473Y-85736200D01*
X112410527Y-85736200D01*
X112191866Y-85779695D01*
X111985892Y-85865012D01*
X111801301Y-85988352D01*
X111801301Y-83281044D01*
X111877260Y-83167363D01*
X111932063Y-83035057D01*
X111960001Y-82894602D01*
X111960001Y-82751396D01*
X111932063Y-82610941D01*
X111877260Y-82478635D01*
X111797699Y-82359563D01*
X111696437Y-82258301D01*
X111577365Y-82178740D01*
X111445059Y-82123937D01*
X111304604Y-82095999D01*
X111161398Y-82095999D01*
X111020943Y-82123937D01*
X110888637Y-82178740D01*
X110769565Y-82258301D01*
X110668303Y-82359563D01*
X110588742Y-82478635D01*
X110533939Y-82610941D01*
X110506001Y-82751396D01*
X110506001Y-82894602D01*
X110533939Y-83035057D01*
X110588742Y-83167363D01*
X110664702Y-83281046D01*
X110664701Y-85962963D01*
X110518108Y-85865012D01*
X110312134Y-85779695D01*
X110093473Y-85736200D01*
X109870527Y-85736200D01*
X109651866Y-85779695D01*
X109445892Y-85865012D01*
X109260520Y-85988874D01*
X109166000Y-86083394D01*
X109166000Y-83782323D01*
X109168195Y-83760035D01*
X109166000Y-83737747D01*
X109166000Y-83737741D01*
X109159430Y-83671037D01*
X109133470Y-83585457D01*
X109091313Y-83506587D01*
X109034579Y-83437457D01*
X109017264Y-83423247D01*
X107056414Y-81462397D01*
X111541000Y-81462397D01*
X111541000Y-81605603D01*
X111568938Y-81746058D01*
X111623741Y-81878364D01*
X111703302Y-81997436D01*
X111804564Y-82098698D01*
X111923636Y-82178259D01*
X112055942Y-82233062D01*
X112196397Y-82261000D01*
X112317027Y-82261000D01*
X116537184Y-86481158D01*
X116513695Y-86537866D01*
X116470200Y-86756527D01*
X116470200Y-86979473D01*
X116513695Y-87198134D01*
X116599012Y-87404108D01*
X116722874Y-87589480D01*
X116880520Y-87747126D01*
X117065892Y-87870988D01*
X117271866Y-87956305D01*
X117490527Y-87999800D01*
X117713473Y-87999800D01*
X117932134Y-87956305D01*
X118138108Y-87870988D01*
X118323480Y-87747126D01*
X118481126Y-87589480D01*
X118604988Y-87404108D01*
X118690305Y-87198134D01*
X118733800Y-86979473D01*
X118733800Y-86756527D01*
X118690305Y-86537866D01*
X118604988Y-86331892D01*
X118481126Y-86146520D01*
X118323480Y-85988874D01*
X118138108Y-85865012D01*
X117932134Y-85779695D01*
X117713473Y-85736200D01*
X117490527Y-85736200D01*
X117271866Y-85779695D01*
X117215158Y-85803184D01*
X112995000Y-81583027D01*
X112995000Y-81462397D01*
X114080996Y-81462397D01*
X114080996Y-81605603D01*
X114108934Y-81746058D01*
X114163737Y-81878364D01*
X114243298Y-81997436D01*
X114344560Y-82098698D01*
X114463632Y-82178259D01*
X114595938Y-82233062D01*
X114736393Y-82261000D01*
X114857027Y-82261000D01*
X119077184Y-86481158D01*
X119053695Y-86537866D01*
X119010200Y-86756527D01*
X119010200Y-86979473D01*
X119053695Y-87198134D01*
X119139012Y-87404108D01*
X119262874Y-87589480D01*
X119420520Y-87747126D01*
X119605892Y-87870988D01*
X119811866Y-87956305D01*
X120030527Y-87999800D01*
X120253473Y-87999800D01*
X120472134Y-87956305D01*
X120678108Y-87870988D01*
X120863480Y-87747126D01*
X121021126Y-87589480D01*
X121144988Y-87404108D01*
X121230305Y-87198134D01*
X121273800Y-86979473D01*
X121273800Y-86756527D01*
X121230305Y-86537866D01*
X121144988Y-86331892D01*
X121021126Y-86146520D01*
X120863480Y-85988874D01*
X120678108Y-85865012D01*
X120472134Y-85779695D01*
X120253473Y-85736200D01*
X120030527Y-85736200D01*
X119811866Y-85779695D01*
X119755158Y-85803184D01*
X115534996Y-81583023D01*
X115534996Y-81462397D01*
X115507058Y-81321942D01*
X115452255Y-81189636D01*
X115372694Y-81070564D01*
X115271432Y-80969302D01*
X115152360Y-80889741D01*
X115020054Y-80834938D01*
X114879599Y-80807000D01*
X114736393Y-80807000D01*
X114595938Y-80834938D01*
X114463632Y-80889741D01*
X114344560Y-80969302D01*
X114243298Y-81070564D01*
X114163737Y-81189636D01*
X114108934Y-81321942D01*
X114080996Y-81462397D01*
X112995000Y-81462397D01*
X112967062Y-81321942D01*
X112912259Y-81189636D01*
X112832698Y-81070564D01*
X112731436Y-80969302D01*
X112612364Y-80889741D01*
X112480058Y-80834938D01*
X112339603Y-80807000D01*
X112196397Y-80807000D01*
X112055942Y-80834938D01*
X111923636Y-80889741D01*
X111804564Y-80969302D01*
X111703302Y-81070564D01*
X111623741Y-81189636D01*
X111568938Y-81321942D01*
X111541000Y-81462397D01*
X107056414Y-81462397D01*
X105810414Y-80216397D01*
X106691000Y-80216397D01*
X106691000Y-80359603D01*
X106718938Y-80500058D01*
X106773741Y-80632364D01*
X106853302Y-80751436D01*
X106954564Y-80852698D01*
X107073636Y-80932259D01*
X107205942Y-80987062D01*
X107346397Y-81015000D01*
X107489603Y-81015000D01*
X107630058Y-80987062D01*
X107762364Y-80932259D01*
X107881436Y-80852698D01*
X107966734Y-80767400D01*
X118443427Y-80767400D01*
X124157184Y-86481158D01*
X124133695Y-86537866D01*
X124090200Y-86756527D01*
X124090200Y-86979473D01*
X124133695Y-87198134D01*
X124219012Y-87404108D01*
X124342874Y-87589480D01*
X124500520Y-87747126D01*
X124685892Y-87870988D01*
X124891866Y-87956305D01*
X125110527Y-87999800D01*
X125333473Y-87999800D01*
X125552134Y-87956305D01*
X125758108Y-87870988D01*
X125923819Y-87760263D01*
X125923819Y-93268022D01*
X125912397Y-93268022D01*
X125771942Y-93295960D01*
X125639636Y-93350763D01*
X125520564Y-93430324D01*
X125419302Y-93531586D01*
X125339741Y-93650658D01*
X125284938Y-93782964D01*
X125257000Y-93923419D01*
X125257000Y-94066625D01*
X125284938Y-94207080D01*
X125339741Y-94339386D01*
X125419302Y-94458458D01*
X125520564Y-94559720D01*
X125639636Y-94639281D01*
X125771942Y-94694084D01*
X125912397Y-94722022D01*
X126055603Y-94722022D01*
X126196058Y-94694084D01*
X126328364Y-94639281D01*
X126447436Y-94559720D01*
X126548698Y-94458458D01*
X126628259Y-94339386D01*
X126683062Y-94207080D01*
X126711000Y-94066625D01*
X126711000Y-93923419D01*
X126708415Y-93910425D01*
X126753461Y-93855537D01*
X126795432Y-93777014D01*
X126821278Y-93691811D01*
X126824110Y-93663062D01*
X126830005Y-93603205D01*
X126827818Y-93581000D01*
X126827818Y-87507083D01*
X126882874Y-87589480D01*
X127040520Y-87747126D01*
X127225892Y-87870988D01*
X127431866Y-87956305D01*
X127650527Y-87999800D01*
X127873473Y-87999800D01*
X128092134Y-87956305D01*
X128298108Y-87870988D01*
X128483480Y-87747126D01*
X128580000Y-87650606D01*
X128580001Y-91940807D01*
X128577813Y-91963022D01*
X128586540Y-92051629D01*
X128612386Y-92136831D01*
X128654358Y-92215355D01*
X128710842Y-92284181D01*
X128728096Y-92298341D01*
X130339683Y-93909929D01*
X130337000Y-93923419D01*
X130337000Y-94066625D01*
X130364938Y-94207080D01*
X130419741Y-94339386D01*
X130499302Y-94458458D01*
X130600564Y-94559720D01*
X130719636Y-94639281D01*
X130851942Y-94694084D01*
X130992397Y-94722022D01*
X131135603Y-94722022D01*
X131276058Y-94694084D01*
X131408364Y-94639281D01*
X131527436Y-94559720D01*
X131628698Y-94458458D01*
X131708259Y-94339386D01*
X131763062Y-94207080D01*
X131791000Y-94066625D01*
X131791000Y-93923419D01*
X131763062Y-93782964D01*
X131708259Y-93650658D01*
X131628698Y-93531586D01*
X131527436Y-93430324D01*
X131408364Y-93350763D01*
X131276058Y-93295960D01*
X131135603Y-93268022D01*
X130992397Y-93268022D01*
X130978907Y-93270705D01*
X129484000Y-91775799D01*
X129484000Y-90098397D01*
X134655000Y-90098397D01*
X134655000Y-90241603D01*
X134682938Y-90382058D01*
X134737741Y-90514364D01*
X134817302Y-90633436D01*
X134918564Y-90734698D01*
X134930000Y-90742339D01*
X134930000Y-90757889D01*
X134930001Y-90757899D01*
X134930000Y-101069795D01*
X134927813Y-101092000D01*
X134930000Y-101114204D01*
X134936540Y-101180606D01*
X134962386Y-101265809D01*
X135004357Y-101344332D01*
X135060841Y-101413159D01*
X135078100Y-101427323D01*
X136647291Y-102996516D01*
X136620850Y-103060350D01*
X136579000Y-103270743D01*
X136579000Y-103485257D01*
X136620850Y-103695650D01*
X136702941Y-103893835D01*
X136822119Y-104072197D01*
X136973803Y-104223881D01*
X137152165Y-104343059D01*
X137350350Y-104425150D01*
X137560743Y-104467000D01*
X137775257Y-104467000D01*
X137985650Y-104425150D01*
X138183835Y-104343059D01*
X138362197Y-104223881D01*
X138513881Y-104072197D01*
X138633059Y-103893835D01*
X138715150Y-103695650D01*
X138757000Y-103485257D01*
X138757000Y-103270743D01*
X138715150Y-103060350D01*
X138633059Y-102862165D01*
X138513881Y-102683803D01*
X138362197Y-102532119D01*
X138183835Y-102412941D01*
X137985650Y-102330850D01*
X137775257Y-102289000D01*
X137560743Y-102289000D01*
X137350350Y-102330850D01*
X137286516Y-102357291D01*
X136994059Y-102064834D01*
X137198048Y-102160756D01*
X137465135Y-102227023D01*
X137740017Y-102239910D01*
X138012133Y-102198922D01*
X138271023Y-102105636D01*
X138386980Y-102043656D01*
X138453960Y-101803565D01*
X137668000Y-101017605D01*
X137653858Y-101031748D01*
X137474253Y-100852143D01*
X137488395Y-100838000D01*
X137847605Y-100838000D01*
X138633565Y-101623960D01*
X138873656Y-101556980D01*
X138990756Y-101307952D01*
X139057023Y-101040865D01*
X139069910Y-100765983D01*
X139028922Y-100493867D01*
X138935636Y-100234977D01*
X138873656Y-100119020D01*
X138633565Y-100052040D01*
X137847605Y-100838000D01*
X137488395Y-100838000D01*
X136702435Y-100052040D01*
X136462344Y-100119020D01*
X136345244Y-100368048D01*
X136278977Y-100635135D01*
X136266090Y-100910017D01*
X136307078Y-101182133D01*
X136400364Y-101441023D01*
X136434947Y-101505723D01*
X135834000Y-100904777D01*
X135834000Y-99872435D01*
X136882040Y-99872435D01*
X137668000Y-100658395D01*
X138453960Y-99872435D01*
X138386980Y-99632344D01*
X138137952Y-99515244D01*
X137870865Y-99448977D01*
X137595983Y-99436090D01*
X137323867Y-99477078D01*
X137064977Y-99570364D01*
X136949020Y-99632344D01*
X136882040Y-99872435D01*
X135834000Y-99872435D01*
X135834000Y-98190743D01*
X136579000Y-98190743D01*
X136579000Y-98405257D01*
X136620850Y-98615650D01*
X136702941Y-98813835D01*
X136822119Y-98992197D01*
X136973803Y-99143881D01*
X137152165Y-99263059D01*
X137350350Y-99345150D01*
X137560743Y-99387000D01*
X137775257Y-99387000D01*
X137985650Y-99345150D01*
X138183835Y-99263059D01*
X138362197Y-99143881D01*
X138513881Y-98992197D01*
X138633059Y-98813835D01*
X138715150Y-98615650D01*
X138757000Y-98405257D01*
X138757000Y-98190743D01*
X138715150Y-97980350D01*
X138633059Y-97782165D01*
X138513881Y-97603803D01*
X138362197Y-97452119D01*
X138183835Y-97332941D01*
X137985650Y-97250850D01*
X137775257Y-97209000D01*
X137560743Y-97209000D01*
X137350350Y-97250850D01*
X137152165Y-97332941D01*
X136973803Y-97452119D01*
X136822119Y-97603803D01*
X136702941Y-97782165D01*
X136620850Y-97980350D01*
X136579000Y-98190743D01*
X135834000Y-98190743D01*
X135834000Y-95650743D01*
X136579000Y-95650743D01*
X136579000Y-95865257D01*
X136620850Y-96075650D01*
X136702941Y-96273835D01*
X136822119Y-96452197D01*
X136973803Y-96603881D01*
X137152165Y-96723059D01*
X137350350Y-96805150D01*
X137560743Y-96847000D01*
X137775257Y-96847000D01*
X137985650Y-96805150D01*
X138183835Y-96723059D01*
X138362197Y-96603881D01*
X138513881Y-96452197D01*
X138633059Y-96273835D01*
X138715150Y-96075650D01*
X138757000Y-95865257D01*
X138757000Y-95650743D01*
X138715150Y-95440350D01*
X138633059Y-95242165D01*
X138513881Y-95063803D01*
X138362197Y-94912119D01*
X138183835Y-94792941D01*
X137985650Y-94710850D01*
X137775257Y-94669000D01*
X137560743Y-94669000D01*
X137350350Y-94710850D01*
X137152165Y-94792941D01*
X136973803Y-94912119D01*
X136822119Y-95063803D01*
X136702941Y-95242165D01*
X136620850Y-95440350D01*
X136579000Y-95650743D01*
X135834000Y-95650743D01*
X135834000Y-90742339D01*
X135845436Y-90734698D01*
X135946698Y-90633436D01*
X136026259Y-90514364D01*
X136081062Y-90382058D01*
X136109000Y-90241603D01*
X136109000Y-90098397D01*
X136081062Y-89957942D01*
X136026259Y-89825636D01*
X135946698Y-89706564D01*
X135845436Y-89605302D01*
X135726364Y-89525741D01*
X135594058Y-89470938D01*
X135453603Y-89443000D01*
X135310397Y-89443000D01*
X135169942Y-89470938D01*
X135037636Y-89525741D01*
X134918564Y-89605302D01*
X134817302Y-89706564D01*
X134737741Y-89825636D01*
X134682938Y-89957942D01*
X134655000Y-90098397D01*
X129484000Y-90098397D01*
X129484000Y-87650606D01*
X129580520Y-87747126D01*
X129765892Y-87870988D01*
X129971866Y-87956305D01*
X130190527Y-87999800D01*
X130413473Y-87999800D01*
X130632134Y-87956305D01*
X130838108Y-87870988D01*
X131023480Y-87747126D01*
X131181126Y-87589480D01*
X131304988Y-87404108D01*
X131390305Y-87198134D01*
X131433800Y-86979473D01*
X131433800Y-86756527D01*
X131710200Y-86756527D01*
X131710200Y-86979473D01*
X131753695Y-87198134D01*
X131839012Y-87404108D01*
X131962874Y-87589480D01*
X132120520Y-87747126D01*
X132305892Y-87870988D01*
X132511866Y-87956305D01*
X132730527Y-87999800D01*
X132953473Y-87999800D01*
X133172134Y-87956305D01*
X133378108Y-87870988D01*
X133563480Y-87747126D01*
X133721126Y-87589480D01*
X133844988Y-87404108D01*
X133930305Y-87198134D01*
X133973800Y-86979473D01*
X133973800Y-86756527D01*
X133930305Y-86537866D01*
X133844988Y-86331892D01*
X133721126Y-86146520D01*
X133563480Y-85988874D01*
X133378108Y-85865012D01*
X133172134Y-85779695D01*
X132953473Y-85736200D01*
X132730527Y-85736200D01*
X132511866Y-85779695D01*
X132305892Y-85865012D01*
X132120520Y-85988874D01*
X131962874Y-86146520D01*
X131839012Y-86331892D01*
X131753695Y-86537866D01*
X131710200Y-86756527D01*
X131433800Y-86756527D01*
X131390305Y-86537866D01*
X131304988Y-86331892D01*
X131181126Y-86146520D01*
X131023480Y-85988874D01*
X130838108Y-85865012D01*
X130632134Y-85779695D01*
X130413473Y-85736200D01*
X130190527Y-85736200D01*
X129971866Y-85779695D01*
X129765892Y-85865012D01*
X129580520Y-85988874D01*
X129484000Y-86085394D01*
X129484000Y-84900339D01*
X129495436Y-84892698D01*
X129596698Y-84791436D01*
X129676259Y-84672364D01*
X129731062Y-84540058D01*
X129759000Y-84399603D01*
X129759000Y-84256397D01*
X129731062Y-84115942D01*
X129676259Y-83983636D01*
X129596698Y-83864564D01*
X129495436Y-83763302D01*
X129376364Y-83683741D01*
X129244058Y-83628938D01*
X129103603Y-83601000D01*
X128960397Y-83601000D01*
X128819942Y-83628938D01*
X128687636Y-83683741D01*
X128568564Y-83763302D01*
X128467302Y-83864564D01*
X128387741Y-83983636D01*
X128332938Y-84115942D01*
X128305000Y-84256397D01*
X128305000Y-84399603D01*
X128332938Y-84540058D01*
X128387741Y-84672364D01*
X128467302Y-84791436D01*
X128568564Y-84892698D01*
X128580000Y-84900339D01*
X128580000Y-86085394D01*
X128483480Y-85988874D01*
X128298108Y-85865012D01*
X128092134Y-85779695D01*
X127873473Y-85736200D01*
X127650527Y-85736200D01*
X127431866Y-85779695D01*
X127225892Y-85865012D01*
X127040520Y-85988874D01*
X126882874Y-86146520D01*
X126827818Y-86228917D01*
X126827818Y-81163405D01*
X127085907Y-80905317D01*
X127099397Y-80908000D01*
X127242603Y-80908000D01*
X127383058Y-80880062D01*
X127515364Y-80825259D01*
X127634436Y-80745698D01*
X127735698Y-80644436D01*
X127815259Y-80525364D01*
X127870062Y-80393058D01*
X127898000Y-80252603D01*
X127898000Y-80109397D01*
X127870062Y-79968942D01*
X127815259Y-79836636D01*
X127735698Y-79717564D01*
X127634436Y-79616302D01*
X127515364Y-79536741D01*
X127383058Y-79481938D01*
X127242603Y-79454000D01*
X127099397Y-79454000D01*
X126958942Y-79481938D01*
X126826636Y-79536741D01*
X126707564Y-79616302D01*
X126606302Y-79717564D01*
X126526741Y-79836636D01*
X126471938Y-79968942D01*
X126444000Y-80109397D01*
X126444000Y-80252603D01*
X126446683Y-80266093D01*
X126071918Y-80640859D01*
X126054659Y-80655023D01*
X125998176Y-80723849D01*
X125956204Y-80802373D01*
X125930358Y-80887575D01*
X125921631Y-80976182D01*
X125923818Y-80998387D01*
X125923818Y-85975736D01*
X125758108Y-85865012D01*
X125552134Y-85779695D01*
X125333473Y-85736200D01*
X125110527Y-85736200D01*
X124891866Y-85779695D01*
X124835158Y-85803184D01*
X118997643Y-79965670D01*
X118982627Y-79947373D01*
X118909629Y-79887465D01*
X118826346Y-79842950D01*
X118735979Y-79815537D01*
X118665546Y-79808600D01*
X118665545Y-79808600D01*
X118642000Y-79806281D01*
X118618455Y-79808600D01*
X107966734Y-79808600D01*
X107881436Y-79723302D01*
X107762364Y-79643741D01*
X107630058Y-79588938D01*
X107489603Y-79561000D01*
X107346397Y-79561000D01*
X107205942Y-79588938D01*
X107073636Y-79643741D01*
X106954564Y-79723302D01*
X106853302Y-79824564D01*
X106773741Y-79943636D01*
X106718938Y-80075942D01*
X106691000Y-80216397D01*
X105810414Y-80216397D01*
X102738414Y-77144397D01*
X114335000Y-77144397D01*
X114335000Y-77287603D01*
X114362938Y-77428058D01*
X114417741Y-77560364D01*
X114497302Y-77679436D01*
X114598564Y-77780698D01*
X114717636Y-77860259D01*
X114849942Y-77915062D01*
X114990397Y-77943000D01*
X115133603Y-77943000D01*
X115144733Y-77940786D01*
X115233210Y-78029263D01*
X115247421Y-78046579D01*
X115316551Y-78103313D01*
X115395421Y-78145470D01*
X115481001Y-78171430D01*
X115547705Y-78178000D01*
X115547714Y-78178000D01*
X115569999Y-78180195D01*
X115592284Y-78178000D01*
X128460997Y-78178000D01*
X128467302Y-78187436D01*
X128568564Y-78288698D01*
X128687636Y-78368259D01*
X128819942Y-78423062D01*
X128960397Y-78451000D01*
X129103603Y-78451000D01*
X129244058Y-78423062D01*
X129376364Y-78368259D01*
X129495436Y-78288698D01*
X129596698Y-78187436D01*
X129676259Y-78068364D01*
X129731062Y-77936058D01*
X129759000Y-77795603D01*
X129759000Y-77652397D01*
X129731062Y-77511942D01*
X129676259Y-77379636D01*
X129596698Y-77260564D01*
X129495436Y-77159302D01*
X129376364Y-77079741D01*
X129244058Y-77024938D01*
X129103603Y-76997000D01*
X128960397Y-76997000D01*
X128819942Y-77024938D01*
X128687636Y-77079741D01*
X128568564Y-77159302D01*
X128467302Y-77260564D01*
X128460997Y-77270000D01*
X115789000Y-77270000D01*
X115789000Y-77144397D01*
X115761062Y-77003942D01*
X115706259Y-76871636D01*
X115626698Y-76752564D01*
X115525436Y-76651302D01*
X115406364Y-76571741D01*
X115274058Y-76516938D01*
X115133603Y-76489000D01*
X114990397Y-76489000D01*
X114849942Y-76516938D01*
X114717636Y-76571741D01*
X114598564Y-76651302D01*
X114497302Y-76752564D01*
X114417741Y-76871636D01*
X114362938Y-77003942D01*
X114335000Y-77144397D01*
X102738414Y-77144397D01*
X102562000Y-76967984D01*
X102562000Y-73172000D01*
X104029928Y-73172000D01*
X104033000Y-74136250D01*
X104065856Y-74169106D01*
X104032887Y-74335998D01*
X104033116Y-74510328D01*
X104066039Y-74674711D01*
X104033000Y-74707750D01*
X104029928Y-75672000D01*
X104042188Y-75796482D01*
X104078498Y-75916180D01*
X104137463Y-76026494D01*
X104216815Y-76123185D01*
X104313506Y-76202537D01*
X104423820Y-76261502D01*
X104543518Y-76297812D01*
X104668000Y-76310072D01*
X105632250Y-76307000D01*
X105665106Y-76274144D01*
X105831998Y-76307113D01*
X106006328Y-76306884D01*
X106170711Y-76273961D01*
X106203750Y-76307000D01*
X107168000Y-76310072D01*
X107292482Y-76297812D01*
X107412180Y-76261502D01*
X107522494Y-76202537D01*
X107619185Y-76123185D01*
X107698537Y-76026494D01*
X107757502Y-75916180D01*
X107793812Y-75796482D01*
X107806072Y-75672000D01*
X107803000Y-74707750D01*
X107770144Y-74674894D01*
X107803113Y-74508002D01*
X107802884Y-74333672D01*
X107769961Y-74169289D01*
X107803000Y-74136250D01*
X107806072Y-73172000D01*
X107793812Y-73047518D01*
X107757502Y-72927820D01*
X107698537Y-72817506D01*
X107619185Y-72720815D01*
X107522494Y-72641463D01*
X107412180Y-72582498D01*
X107292482Y-72546188D01*
X107168000Y-72533928D01*
X106203750Y-72537000D01*
X106170894Y-72569856D01*
X106004002Y-72536887D01*
X105829672Y-72537116D01*
X105665289Y-72570039D01*
X105632250Y-72537000D01*
X104668000Y-72533928D01*
X104543518Y-72546188D01*
X104423820Y-72582498D01*
X104313506Y-72641463D01*
X104216815Y-72720815D01*
X104137463Y-72817506D01*
X104078498Y-72927820D01*
X104042188Y-73047518D01*
X104029928Y-73172000D01*
X102562000Y-73172000D01*
X102562000Y-72961003D01*
X102571436Y-72954698D01*
X102672698Y-72853436D01*
X102752259Y-72734364D01*
X102807062Y-72602058D01*
X102835000Y-72461603D01*
X102835000Y-72318397D01*
X102807062Y-72177942D01*
X102752259Y-72045636D01*
X102672698Y-71926564D01*
X102571436Y-71825302D01*
X102452364Y-71745741D01*
X102320058Y-71690938D01*
X102179603Y-71663000D01*
X102036397Y-71663000D01*
X101895942Y-71690938D01*
X101763636Y-71745741D01*
X101644564Y-71825302D01*
X101543302Y-71926564D01*
X101463741Y-72045636D01*
X101408938Y-72177942D01*
X101381000Y-72318397D01*
X101381000Y-72461603D01*
X101408938Y-72602058D01*
X101463741Y-72734364D01*
X101543302Y-72853436D01*
X101644564Y-72954698D01*
X101654000Y-72961003D01*
X101654001Y-77133738D01*
X101651805Y-77156036D01*
X101660570Y-77245035D01*
X101686530Y-77330614D01*
X101706154Y-77367327D01*
X101728688Y-77409485D01*
X101785422Y-77478615D01*
X101802738Y-77492826D01*
X105922400Y-81612488D01*
X105827636Y-81651741D01*
X105708564Y-81731302D01*
X105607302Y-81832564D01*
X105527741Y-81951636D01*
X105472938Y-82083942D01*
X105445000Y-82224397D01*
X105445000Y-82367603D01*
X105472938Y-82508058D01*
X105527741Y-82640364D01*
X105607302Y-82759436D01*
X105692601Y-82844735D01*
X105692601Y-86057995D01*
X105623480Y-85988874D01*
X105438108Y-85865012D01*
X105232134Y-85779695D01*
X105013473Y-85736200D01*
X104790527Y-85736200D01*
X104571866Y-85779695D01*
X104365892Y-85865012D01*
X104180520Y-85988874D01*
X104022874Y-86146520D01*
X103899012Y-86331892D01*
X103813695Y-86537866D01*
X103770200Y-86756527D01*
X103770200Y-86979473D01*
X103813695Y-87198134D01*
X103899012Y-87404108D01*
X104022874Y-87589480D01*
X104180520Y-87747126D01*
X104365892Y-87870988D01*
X104571866Y-87956305D01*
X104790527Y-87999800D01*
X105013473Y-87999800D01*
X105232134Y-87956305D01*
X105438108Y-87870988D01*
X105623480Y-87747126D01*
X105692600Y-87678006D01*
X105692600Y-91749426D01*
X105205027Y-92237000D01*
X105084397Y-92237000D01*
X104943942Y-92264938D01*
X104811636Y-92319741D01*
X104692564Y-92399302D01*
X104591302Y-92500564D01*
X104511741Y-92619636D01*
X104456938Y-92751942D01*
X104429000Y-92892397D01*
X104429000Y-93032263D01*
X104020429Y-93440835D01*
X103999232Y-93458231D01*
X103981835Y-93479429D01*
X103981833Y-93479431D01*
X103929800Y-93542832D01*
X103878209Y-93639353D01*
X103846440Y-93744083D01*
X103835713Y-93853000D01*
X103838401Y-93880292D01*
X103838400Y-95222717D01*
X103835713Y-95250000D01*
X103838400Y-95277283D01*
X103838400Y-95277292D01*
X103846439Y-95358916D01*
X103878209Y-95463647D01*
X103929800Y-95560168D01*
X103999231Y-95644769D01*
X104020434Y-95662170D01*
X104098203Y-95739939D01*
X103986785Y-95762101D01*
X103854479Y-95816904D01*
X103814010Y-95843944D01*
X103814010Y-95813399D01*
X103786072Y-95672944D01*
X103731269Y-95540638D01*
X103651708Y-95421566D01*
X103550446Y-95320304D01*
X103539010Y-95312663D01*
X103539010Y-90068620D01*
X103628107Y-89979523D01*
X103641597Y-89982206D01*
X103784803Y-89982206D01*
X103925258Y-89954268D01*
X104057564Y-89899465D01*
X104176636Y-89819904D01*
X104277898Y-89718642D01*
X104291363Y-89698489D01*
X104311570Y-89718696D01*
X104430642Y-89798257D01*
X104562948Y-89853060D01*
X104703403Y-89880998D01*
X104846609Y-89880998D01*
X104987064Y-89853060D01*
X105119370Y-89798257D01*
X105238442Y-89718696D01*
X105339704Y-89617434D01*
X105419265Y-89498362D01*
X105474068Y-89366056D01*
X105502006Y-89225601D01*
X105502006Y-89082395D01*
X105474068Y-88941940D01*
X105419265Y-88809634D01*
X105339704Y-88690562D01*
X105238442Y-88589300D01*
X105119370Y-88509739D01*
X104987064Y-88454936D01*
X104846609Y-88426998D01*
X104703403Y-88426998D01*
X104689914Y-88429681D01*
X103576000Y-87315769D01*
X103576000Y-83588212D01*
X103578187Y-83566007D01*
X103569460Y-83477400D01*
X103557343Y-83437457D01*
X103543614Y-83392198D01*
X103501643Y-83313675D01*
X103445159Y-83244849D01*
X103427912Y-83230695D01*
X101562317Y-81365101D01*
X101565000Y-81351611D01*
X101565000Y-81208405D01*
X101537062Y-81067950D01*
X101482259Y-80935644D01*
X101402698Y-80816572D01*
X101301436Y-80715310D01*
X101182364Y-80635749D01*
X101050058Y-80580946D01*
X100909603Y-80553008D01*
X100766397Y-80553008D01*
X100625942Y-80580946D01*
X100493636Y-80635749D01*
X100374564Y-80715310D01*
X100273302Y-80816572D01*
X100193741Y-80935644D01*
X100138938Y-81067950D01*
X100111000Y-81208405D01*
X100111000Y-81351611D01*
X100138938Y-81492066D01*
X100193741Y-81624372D01*
X100273302Y-81743444D01*
X100374564Y-81844706D01*
X100493636Y-81924267D01*
X100625942Y-81979070D01*
X100766397Y-82007008D01*
X100909603Y-82007008D01*
X100923093Y-82004325D01*
X102672000Y-83753233D01*
X102672000Y-83917667D01*
X102646683Y-83900751D01*
X102514377Y-83845948D01*
X102373922Y-83818010D01*
X102230716Y-83818010D01*
X102090261Y-83845948D01*
X101957955Y-83900751D01*
X101838883Y-83980312D01*
X101737621Y-84081574D01*
X101658060Y-84200646D01*
X101603257Y-84332952D01*
X101575319Y-84473407D01*
X101575319Y-84616613D01*
X101603257Y-84757068D01*
X101658060Y-84889374D01*
X101737621Y-85008446D01*
X101838883Y-85109708D01*
X101910001Y-85157227D01*
X101910000Y-97344661D01*
X101898564Y-97352302D01*
X101855990Y-97394876D01*
X101855990Y-97261616D01*
X101828052Y-97121161D01*
X101773249Y-96988855D01*
X101693688Y-96869783D01*
X101592426Y-96768521D01*
X101580990Y-96760880D01*
X101580990Y-84768203D01*
X101583177Y-84745998D01*
X101574450Y-84657390D01*
X101548604Y-84572188D01*
X101541980Y-84559795D01*
X101506633Y-84493665D01*
X101450149Y-84424839D01*
X101432896Y-84410680D01*
X100927317Y-83905101D01*
X100930000Y-83891611D01*
X100930000Y-83748405D01*
X100902062Y-83607950D01*
X100847259Y-83475644D01*
X100767698Y-83356572D01*
X100666436Y-83255310D01*
X100547364Y-83175749D01*
X100415058Y-83120946D01*
X100274603Y-83093008D01*
X100131397Y-83093008D01*
X99990942Y-83120946D01*
X99858636Y-83175749D01*
X99766000Y-83237646D01*
X99766000Y-73978337D01*
X99777436Y-73970696D01*
X99878698Y-73869434D01*
X99958259Y-73750362D01*
X100013062Y-73618056D01*
X100041000Y-73477601D01*
X100041000Y-73334395D01*
X100013062Y-73193940D01*
X99958259Y-73061634D01*
X99878698Y-72942562D01*
X99777436Y-72841300D01*
X99658364Y-72761739D01*
X99526058Y-72706936D01*
X99385603Y-72678998D01*
X99242397Y-72678998D01*
X99101942Y-72706936D01*
X98969636Y-72761739D01*
X98850564Y-72841300D01*
X98749302Y-72942562D01*
X98669741Y-73061634D01*
X98614938Y-73193940D01*
X98587000Y-73334395D01*
X98587000Y-73477601D01*
X98614938Y-73618056D01*
X98669741Y-73750362D01*
X98749302Y-73869434D01*
X98850564Y-73970696D01*
X98862001Y-73978338D01*
X98862001Y-79651500D01*
X98815251Y-79538636D01*
X98735690Y-79419564D01*
X98634428Y-79318302D01*
X98515356Y-79238741D01*
X98383050Y-79183938D01*
X98242595Y-79156000D01*
X98099389Y-79156000D01*
X97958934Y-79183938D01*
X97826628Y-79238741D01*
X97707556Y-79318302D01*
X97606294Y-79419564D01*
X97526733Y-79538636D01*
X97471930Y-79670942D01*
X97443992Y-79811397D01*
X97443992Y-79954603D01*
X97471930Y-80095058D01*
X97526733Y-80227364D01*
X97606294Y-80346436D01*
X97707556Y-80447698D01*
X97822064Y-80524209D01*
X97822063Y-95084040D01*
X97736765Y-95169338D01*
X97657204Y-95288410D01*
X97602401Y-95420716D01*
X97584430Y-95511065D01*
X95665010Y-93591646D01*
X95665010Y-92285341D01*
X95676446Y-92277700D01*
X95777708Y-92176438D01*
X95857269Y-92057366D01*
X95912072Y-91925060D01*
X95940010Y-91784605D01*
X95940010Y-91641399D01*
X95912072Y-91500944D01*
X95857269Y-91368638D01*
X95777708Y-91249566D01*
X95676446Y-91148304D01*
X95557374Y-91068743D01*
X95425068Y-91013940D01*
X95284613Y-90986002D01*
X95141407Y-90986002D01*
X95000952Y-91013940D01*
X94940000Y-91039187D01*
X94940000Y-85154339D01*
X94951436Y-85146698D01*
X95052698Y-85045436D01*
X95132259Y-84926364D01*
X95178997Y-84813530D01*
X95178997Y-86171973D01*
X95113741Y-86269636D01*
X95058938Y-86401942D01*
X95031000Y-86542397D01*
X95031000Y-86685603D01*
X95058938Y-86826058D01*
X95113741Y-86958364D01*
X95193302Y-87077436D01*
X95294564Y-87178698D01*
X95413636Y-87258259D01*
X95545942Y-87313062D01*
X95686397Y-87341000D01*
X95829603Y-87341000D01*
X95970058Y-87313062D01*
X96102364Y-87258259D01*
X96221436Y-87178698D01*
X96322698Y-87077436D01*
X96402259Y-86958364D01*
X96457062Y-86826058D01*
X96458895Y-86816841D01*
X96463302Y-86823436D01*
X96564564Y-86924698D01*
X96683636Y-87004259D01*
X96815942Y-87059062D01*
X96956397Y-87087000D01*
X97099603Y-87087000D01*
X97240058Y-87059062D01*
X97372364Y-87004259D01*
X97491436Y-86924698D01*
X97592698Y-86823436D01*
X97672259Y-86704364D01*
X97727062Y-86572058D01*
X97755000Y-86431603D01*
X97755000Y-86288397D01*
X97727062Y-86147942D01*
X97672259Y-86015636D01*
X97592698Y-85896564D01*
X97491436Y-85795302D01*
X97372364Y-85715741D01*
X97240058Y-85660938D01*
X97125010Y-85638054D01*
X97125010Y-83757339D01*
X97136446Y-83749698D01*
X97237708Y-83648436D01*
X97317269Y-83529364D01*
X97372072Y-83397058D01*
X97400010Y-83256603D01*
X97400010Y-83113397D01*
X97372072Y-82972942D01*
X97317269Y-82840636D01*
X97237708Y-82721564D01*
X97136446Y-82620302D01*
X97017374Y-82540741D01*
X96885068Y-82485938D01*
X96744613Y-82458000D01*
X96601407Y-82458000D01*
X96460952Y-82485938D01*
X96328646Y-82540741D01*
X96311880Y-82551944D01*
X96330058Y-82508058D01*
X96357996Y-82367603D01*
X96357996Y-82224397D01*
X96330058Y-82083942D01*
X96275255Y-81951636D01*
X96195694Y-81832564D01*
X96094432Y-81731302D01*
X95975360Y-81651741D01*
X95843054Y-81596938D01*
X95702599Y-81569000D01*
X95559393Y-81569000D01*
X95418938Y-81596938D01*
X95286632Y-81651741D01*
X95167560Y-81731302D01*
X95066298Y-81832564D01*
X94986737Y-81951636D01*
X94940000Y-82064469D01*
X94940000Y-72577229D01*
X95926908Y-71590323D01*
X95940397Y-71593006D01*
X96083603Y-71593006D01*
X96224058Y-71565068D01*
X96356364Y-71510265D01*
X96475436Y-71430704D01*
X96576698Y-71329442D01*
X96656259Y-71210370D01*
X96711062Y-71078064D01*
X96739000Y-70937609D01*
X96739000Y-70794403D01*
X96711062Y-70653948D01*
X96656259Y-70521642D01*
X96583933Y-70413397D01*
X105699000Y-70413397D01*
X105699000Y-70556603D01*
X105726938Y-70697058D01*
X105781741Y-70829364D01*
X105861302Y-70948436D01*
X105962564Y-71049698D01*
X106081636Y-71129259D01*
X106213942Y-71184062D01*
X106354397Y-71212000D01*
X106497603Y-71212000D01*
X106638058Y-71184062D01*
X106770364Y-71129259D01*
X106889436Y-71049698D01*
X106990698Y-70948436D01*
X107070259Y-70829364D01*
X107125062Y-70697058D01*
X107153000Y-70556603D01*
X107153000Y-70413397D01*
X107150786Y-70402266D01*
X109471459Y-68081593D01*
X109518564Y-68128698D01*
X109637636Y-68208259D01*
X109769942Y-68263062D01*
X109910397Y-68291000D01*
X110053603Y-68291000D01*
X110194058Y-68263062D01*
X110326364Y-68208259D01*
X110445436Y-68128698D01*
X110546698Y-68027436D01*
X110626259Y-67908364D01*
X110681062Y-67776058D01*
X110709000Y-67635603D01*
X110709000Y-67492397D01*
X110681062Y-67351942D01*
X110626259Y-67219636D01*
X110546698Y-67100564D01*
X110445436Y-66999302D01*
X110326364Y-66919741D01*
X110194058Y-66864938D01*
X110053603Y-66837000D01*
X109910397Y-66837000D01*
X109769942Y-66864938D01*
X109637636Y-66919741D01*
X109518564Y-66999302D01*
X109417302Y-67100564D01*
X109410997Y-67110000D01*
X109369288Y-67110000D01*
X109347000Y-67107805D01*
X109324712Y-67110000D01*
X109324705Y-67110000D01*
X109266421Y-67115741D01*
X109258000Y-67116570D01*
X109172421Y-67142530D01*
X109093551Y-67184687D01*
X109024421Y-67241421D01*
X109010210Y-67258737D01*
X106508734Y-69760214D01*
X106497603Y-69758000D01*
X106354397Y-69758000D01*
X106213942Y-69785938D01*
X106081636Y-69840741D01*
X105962564Y-69920302D01*
X105861302Y-70021564D01*
X105781741Y-70140636D01*
X105726938Y-70272942D01*
X105699000Y-70413397D01*
X96583933Y-70413397D01*
X96576698Y-70402570D01*
X96475436Y-70301308D01*
X96356364Y-70221747D01*
X96224058Y-70166944D01*
X96083603Y-70139006D01*
X95940397Y-70139006D01*
X95799942Y-70166944D01*
X95667636Y-70221747D01*
X95548564Y-70301308D01*
X95447302Y-70402570D01*
X95367741Y-70521642D01*
X95312938Y-70653948D01*
X95285000Y-70794403D01*
X95285000Y-70937609D01*
X95287683Y-70951098D01*
X94184096Y-72054687D01*
X94166842Y-72068847D01*
X94111279Y-72136551D01*
X94110358Y-72137673D01*
X94068386Y-72216197D01*
X94042540Y-72301399D01*
X94033813Y-72390006D01*
X94036001Y-72412221D01*
X94036000Y-83101866D01*
X93935436Y-83001302D01*
X93816364Y-82921741D01*
X93684058Y-82866938D01*
X93543603Y-82839000D01*
X93400397Y-82839000D01*
X93259942Y-82866938D01*
X93127636Y-82921741D01*
X93008564Y-83001302D01*
X92907302Y-83102564D01*
X92827741Y-83221636D01*
X92772938Y-83353942D01*
X92745000Y-83494397D01*
X92745000Y-83637603D01*
X92772938Y-83778058D01*
X92827741Y-83910364D01*
X92907302Y-84029436D01*
X93008564Y-84130698D01*
X93020000Y-84138339D01*
X93020000Y-84153889D01*
X93020001Y-84153899D01*
X93020000Y-93182392D01*
X92980476Y-93221916D01*
X92941969Y-93005675D01*
X92732940Y-92912019D01*
X92509655Y-92860942D01*
X92280697Y-92854407D01*
X92054863Y-92892665D01*
X91840833Y-92974246D01*
X91782031Y-93005675D01*
X91743524Y-93221919D01*
X92362000Y-93840395D01*
X92376143Y-93826253D01*
X92555748Y-94005858D01*
X92541605Y-94020000D01*
X92555748Y-94034143D01*
X92376143Y-94213748D01*
X92362000Y-94199605D01*
X91743524Y-94818081D01*
X91782031Y-95034325D01*
X91991060Y-95127981D01*
X92214345Y-95179058D01*
X92443303Y-95185593D01*
X92669137Y-95147335D01*
X92883167Y-95065754D01*
X92941969Y-95034325D01*
X92980476Y-94818084D01*
X93020000Y-94857608D01*
X93020000Y-98182392D01*
X92980476Y-98221916D01*
X92941969Y-98005675D01*
X92732940Y-97912019D01*
X92509655Y-97860942D01*
X92280697Y-97854407D01*
X92054863Y-97892665D01*
X91840833Y-97974246D01*
X91782031Y-98005675D01*
X91743524Y-98221919D01*
X92362000Y-98840395D01*
X92376143Y-98826253D01*
X92555748Y-99005858D01*
X92541605Y-99020000D01*
X92555748Y-99034143D01*
X92376143Y-99213748D01*
X92362000Y-99199605D01*
X91743524Y-99818081D01*
X91782031Y-100034325D01*
X91991060Y-100127981D01*
X92214345Y-100179058D01*
X92443303Y-100185593D01*
X92669137Y-100147335D01*
X92883167Y-100065754D01*
X92941969Y-100034325D01*
X92980476Y-99818084D01*
X93076712Y-99914320D01*
X93094357Y-99947332D01*
X93150841Y-100016159D01*
X93168100Y-100030323D01*
X94671001Y-101533225D01*
X94671001Y-103329699D01*
X94639145Y-103169550D01*
X94388349Y-102564075D01*
X94024250Y-102019161D01*
X93560839Y-101555750D01*
X93015925Y-101191651D01*
X92410450Y-100940855D01*
X91767681Y-100813000D01*
X91112319Y-100813000D01*
X90714199Y-100892191D01*
X90618995Y-100796987D01*
X90857860Y-100731463D01*
X90973760Y-100484484D01*
X91039250Y-100219640D01*
X91051812Y-99947108D01*
X91010965Y-99677362D01*
X90918277Y-99420768D01*
X90857860Y-99307737D01*
X90618993Y-99242212D01*
X89841605Y-100019600D01*
X89855748Y-100033743D01*
X89676143Y-100213348D01*
X89662000Y-100199205D01*
X88884612Y-100976593D01*
X88950137Y-101215460D01*
X89197116Y-101331360D01*
X89461960Y-101396850D01*
X89550841Y-101400947D01*
X89319161Y-101555750D01*
X88855750Y-102019161D01*
X88491651Y-102564075D01*
X88240855Y-103169550D01*
X88163000Y-103560953D01*
X88163000Y-100092092D01*
X88272188Y-100092092D01*
X88313035Y-100361838D01*
X88405723Y-100618432D01*
X88466140Y-100731463D01*
X88705007Y-100796988D01*
X89482395Y-100019600D01*
X88705007Y-99242212D01*
X88466140Y-99307737D01*
X88350240Y-99554716D01*
X88284750Y-99819560D01*
X88272188Y-100092092D01*
X88163000Y-100092092D01*
X88163000Y-99062607D01*
X88884612Y-99062607D01*
X89662000Y-99839995D01*
X90400692Y-99101303D01*
X91196407Y-99101303D01*
X91234665Y-99327137D01*
X91316246Y-99541167D01*
X91347675Y-99599969D01*
X91563919Y-99638476D01*
X92182395Y-99020000D01*
X91563919Y-98401524D01*
X91347675Y-98440031D01*
X91254019Y-98649060D01*
X91202942Y-98872345D01*
X91196407Y-99101303D01*
X90400692Y-99101303D01*
X90439388Y-99062607D01*
X90373863Y-98823740D01*
X90126884Y-98707840D01*
X89862040Y-98642350D01*
X89589508Y-98629788D01*
X89319762Y-98670635D01*
X89063168Y-98763323D01*
X88950137Y-98823740D01*
X88884612Y-99062607D01*
X88163000Y-99062607D01*
X88163000Y-93977393D01*
X88884612Y-93977393D01*
X88950137Y-94216260D01*
X89197116Y-94332160D01*
X89461960Y-94397650D01*
X89734492Y-94410212D01*
X90004238Y-94369365D01*
X90260832Y-94276677D01*
X90373863Y-94216260D01*
X90405397Y-94101303D01*
X91196407Y-94101303D01*
X91234665Y-94327137D01*
X91316246Y-94541167D01*
X91347675Y-94599969D01*
X91563919Y-94638476D01*
X92182395Y-94020000D01*
X91563919Y-93401524D01*
X91347675Y-93440031D01*
X91254019Y-93649060D01*
X91202942Y-93872345D01*
X91196407Y-94101303D01*
X90405397Y-94101303D01*
X90439388Y-93977393D01*
X89662000Y-93200005D01*
X88884612Y-93977393D01*
X88163000Y-93977393D01*
X88163000Y-93092892D01*
X88272188Y-93092892D01*
X88313035Y-93362638D01*
X88405723Y-93619232D01*
X88466140Y-93732263D01*
X88705007Y-93797788D01*
X89482395Y-93020400D01*
X89841605Y-93020400D01*
X90618993Y-93797788D01*
X90857860Y-93732263D01*
X90973760Y-93485284D01*
X91039250Y-93220440D01*
X91051812Y-92947908D01*
X91010965Y-92678162D01*
X90918277Y-92421568D01*
X90857860Y-92308537D01*
X90618993Y-92243012D01*
X89841605Y-93020400D01*
X89482395Y-93020400D01*
X88705007Y-92243012D01*
X88466140Y-92308537D01*
X88350240Y-92555516D01*
X88284750Y-92820360D01*
X88272188Y-93092892D01*
X88163000Y-93092892D01*
X88163000Y-92063407D01*
X88884612Y-92063407D01*
X89662000Y-92840795D01*
X90439388Y-92063407D01*
X90373863Y-91824540D01*
X90126884Y-91708640D01*
X89862040Y-91643150D01*
X89589508Y-91630588D01*
X89319762Y-91671435D01*
X89063168Y-91764123D01*
X88950137Y-91824540D01*
X88884612Y-92063407D01*
X88163000Y-92063407D01*
X88163000Y-66365047D01*
X88240855Y-66756450D01*
X88491651Y-67361925D01*
X88855750Y-67906839D01*
X89319161Y-68370250D01*
X89864075Y-68734349D01*
X90469550Y-68985145D01*
X91112319Y-69113000D01*
X91767681Y-69113000D01*
X92410450Y-68985145D01*
X93015925Y-68734349D01*
X93560839Y-68370250D01*
X94024250Y-67906839D01*
X94388349Y-67361925D01*
X94639145Y-66756450D01*
X94767000Y-66113681D01*
X94767000Y-65968397D01*
X110017000Y-65968397D01*
X110017000Y-66111603D01*
X110044938Y-66252058D01*
X110099741Y-66384364D01*
X110179302Y-66503436D01*
X110280564Y-66604698D01*
X110399636Y-66684259D01*
X110531942Y-66739062D01*
X110553938Y-66743437D01*
X116335201Y-72524701D01*
X116335200Y-75582990D01*
X116322741Y-75601636D01*
X116267938Y-75733942D01*
X116240000Y-75874397D01*
X116240000Y-76017603D01*
X116267938Y-76158058D01*
X116322741Y-76290364D01*
X116402302Y-76409436D01*
X116503564Y-76510698D01*
X116622636Y-76590259D01*
X116754942Y-76645062D01*
X116895397Y-76673000D01*
X117038603Y-76673000D01*
X117179058Y-76645062D01*
X117311364Y-76590259D01*
X117430436Y-76510698D01*
X117531698Y-76409436D01*
X117611259Y-76290364D01*
X117666062Y-76158058D01*
X117694000Y-76017603D01*
X117694000Y-75874397D01*
X117666062Y-75733942D01*
X117611259Y-75601636D01*
X117598800Y-75582990D01*
X117598800Y-72318397D01*
X131353000Y-72318397D01*
X131353000Y-72461603D01*
X131380938Y-72602058D01*
X131435741Y-72734364D01*
X131515302Y-72853436D01*
X131616564Y-72954698D01*
X131626000Y-72961003D01*
X131626001Y-82527702D01*
X131623805Y-82550000D01*
X131632570Y-82638999D01*
X131658530Y-82724578D01*
X131678154Y-82761291D01*
X131700688Y-82803449D01*
X131757422Y-82872579D01*
X131774738Y-82886790D01*
X136646463Y-87758516D01*
X136620850Y-87820350D01*
X136579000Y-88030743D01*
X136579000Y-88245257D01*
X136620850Y-88455650D01*
X136702941Y-88653835D01*
X136822119Y-88832197D01*
X136973803Y-88983881D01*
X137152165Y-89103059D01*
X137350350Y-89185150D01*
X137560743Y-89227000D01*
X137775257Y-89227000D01*
X137985650Y-89185150D01*
X138183835Y-89103059D01*
X138362197Y-88983881D01*
X138513881Y-88832197D01*
X138633059Y-88653835D01*
X138715150Y-88455650D01*
X138738000Y-88340775D01*
X138738000Y-90475224D01*
X138715150Y-90360350D01*
X138633059Y-90162165D01*
X138513881Y-89983803D01*
X138362197Y-89832119D01*
X138183835Y-89712941D01*
X137985650Y-89630850D01*
X137775257Y-89589000D01*
X137560743Y-89589000D01*
X137350350Y-89630850D01*
X137152165Y-89712941D01*
X136973803Y-89832119D01*
X136822119Y-89983803D01*
X136702941Y-90162165D01*
X136620850Y-90360350D01*
X136579000Y-90570743D01*
X136579000Y-90785257D01*
X136620850Y-90995650D01*
X136702941Y-91193835D01*
X136822119Y-91372197D01*
X136973803Y-91523881D01*
X137152165Y-91643059D01*
X137350350Y-91725150D01*
X137560743Y-91767000D01*
X137775257Y-91767000D01*
X137985650Y-91725150D01*
X138183835Y-91643059D01*
X138362197Y-91523881D01*
X138513881Y-91372197D01*
X138633059Y-91193835D01*
X138715150Y-90995650D01*
X138738000Y-90880776D01*
X138738000Y-91505947D01*
X138047485Y-92196463D01*
X137985650Y-92170850D01*
X137775257Y-92129000D01*
X137560743Y-92129000D01*
X137350350Y-92170850D01*
X137152165Y-92252941D01*
X136973803Y-92372119D01*
X136822119Y-92523803D01*
X136702941Y-92702165D01*
X136620850Y-92900350D01*
X136579000Y-93110743D01*
X136579000Y-93325257D01*
X136620850Y-93535650D01*
X136702941Y-93733835D01*
X136822119Y-93912197D01*
X136973803Y-94063881D01*
X137152165Y-94183059D01*
X137350350Y-94265150D01*
X137560743Y-94307000D01*
X137775257Y-94307000D01*
X137985650Y-94265150D01*
X138183835Y-94183059D01*
X138362197Y-94063881D01*
X138513881Y-93912197D01*
X138633059Y-93733835D01*
X138715150Y-93535650D01*
X138757000Y-93325257D01*
X138757000Y-93110743D01*
X138715150Y-92900350D01*
X138689537Y-92838515D01*
X139497264Y-92030789D01*
X139514579Y-92016579D01*
X139571313Y-91947449D01*
X139613470Y-91868579D01*
X139639430Y-91782999D01*
X139646000Y-91716295D01*
X139646000Y-91716286D01*
X139648195Y-91694001D01*
X139646000Y-91671716D01*
X139646000Y-73977003D01*
X139655436Y-73970698D01*
X139756698Y-73869436D01*
X139836259Y-73750364D01*
X139891062Y-73618058D01*
X139919000Y-73477603D01*
X139919000Y-73334397D01*
X139891062Y-73193942D01*
X139836259Y-73061636D01*
X139756698Y-72942564D01*
X139655436Y-72841302D01*
X139536364Y-72761741D01*
X139404058Y-72706938D01*
X139263603Y-72679000D01*
X139120397Y-72679000D01*
X138979942Y-72706938D01*
X138847636Y-72761741D01*
X138728564Y-72841302D01*
X138627302Y-72942564D01*
X138547741Y-73061636D01*
X138492938Y-73193942D01*
X138465000Y-73334397D01*
X138465000Y-73477603D01*
X138492938Y-73618058D01*
X138547741Y-73750364D01*
X138627302Y-73869436D01*
X138728564Y-73970698D01*
X138738000Y-73977003D01*
X138738000Y-73993979D01*
X138738001Y-73993989D01*
X138738001Y-74861072D01*
X138711572Y-74811627D01*
X138514503Y-74571497D01*
X138274373Y-74374428D01*
X138000412Y-74227993D01*
X137703146Y-74137818D01*
X137471469Y-74115000D01*
X134816531Y-74115000D01*
X134584854Y-74137818D01*
X134287588Y-74227993D01*
X134013627Y-74374428D01*
X133773497Y-74571497D01*
X133576428Y-74811627D01*
X133429993Y-75085588D01*
X133339818Y-75382854D01*
X133309370Y-75692000D01*
X133339818Y-76001146D01*
X133429993Y-76298412D01*
X133576428Y-76572373D01*
X133773497Y-76812503D01*
X134013627Y-77009572D01*
X134287588Y-77156007D01*
X134584854Y-77246182D01*
X134816531Y-77269000D01*
X137471469Y-77269000D01*
X137703146Y-77246182D01*
X138000412Y-77156007D01*
X138274373Y-77009572D01*
X138514503Y-76812503D01*
X138711572Y-76572373D01*
X138738001Y-76522928D01*
X138738000Y-87935225D01*
X138715150Y-87820350D01*
X138633059Y-87622165D01*
X138513881Y-87443803D01*
X138362197Y-87292119D01*
X138183835Y-87172941D01*
X137985650Y-87090850D01*
X137775257Y-87049000D01*
X137560743Y-87049000D01*
X137350350Y-87090850D01*
X137288516Y-87116463D01*
X132534000Y-82361948D01*
X132534000Y-72961003D01*
X132543436Y-72954698D01*
X132644698Y-72853436D01*
X132724259Y-72734364D01*
X132779062Y-72602058D01*
X132807000Y-72461603D01*
X132807000Y-72318397D01*
X132779062Y-72177942D01*
X132724259Y-72045636D01*
X132644698Y-71926564D01*
X132543436Y-71825302D01*
X132424364Y-71745741D01*
X132292058Y-71690938D01*
X132151603Y-71663000D01*
X132008397Y-71663000D01*
X131867942Y-71690938D01*
X131735636Y-71745741D01*
X131616564Y-71825302D01*
X131515302Y-71926564D01*
X131435741Y-72045636D01*
X131380938Y-72177942D01*
X131353000Y-72318397D01*
X117598800Y-72318397D01*
X117598800Y-72294037D01*
X117601857Y-72263000D01*
X117589658Y-72139146D01*
X117568333Y-72068847D01*
X117553531Y-72020051D01*
X117494864Y-71910292D01*
X117415912Y-71814088D01*
X117391800Y-71794300D01*
X114889457Y-69291957D01*
X133305067Y-69291957D01*
X133422794Y-69565000D01*
X134353219Y-69565000D01*
X134351526Y-69573246D01*
X134351146Y-69577123D01*
X134342160Y-69675859D01*
X134342337Y-69701113D01*
X134342160Y-69726434D01*
X134342541Y-69730311D01*
X134351863Y-69819000D01*
X133422794Y-69819000D01*
X133305067Y-70092043D01*
X133344371Y-70248190D01*
X133485056Y-70564207D01*
X133684689Y-70846705D01*
X133935599Y-71084829D01*
X134228144Y-71269427D01*
X134551081Y-71393406D01*
X134892000Y-71452000D01*
X136017000Y-71452000D01*
X136017000Y-70484600D01*
X136271000Y-70484600D01*
X136271000Y-71452000D01*
X137396000Y-71452000D01*
X137736919Y-71393406D01*
X138059856Y-71269427D01*
X138352401Y-71084829D01*
X138603311Y-70846705D01*
X138802944Y-70564207D01*
X138943629Y-70248190D01*
X138982933Y-70092043D01*
X138865206Y-69819000D01*
X137936764Y-69819000D01*
X137936854Y-69818077D01*
X137945840Y-69719341D01*
X137945663Y-69694086D01*
X137945840Y-69668765D01*
X137945459Y-69664889D01*
X137935095Y-69566287D01*
X137934831Y-69565000D01*
X138865206Y-69565000D01*
X138982933Y-69291957D01*
X138943629Y-69135810D01*
X138802944Y-68819793D01*
X138603311Y-68537295D01*
X138352401Y-68299171D01*
X138059856Y-68114573D01*
X137736919Y-67990594D01*
X137396000Y-67932000D01*
X136271000Y-67932000D01*
X136271000Y-68910600D01*
X136017000Y-68910600D01*
X136017000Y-67932000D01*
X134892000Y-67932000D01*
X134551081Y-67990594D01*
X134228144Y-68114573D01*
X133935599Y-68299171D01*
X133684689Y-68537295D01*
X133485056Y-68819793D01*
X133344371Y-69135810D01*
X133305067Y-69291957D01*
X114889457Y-69291957D01*
X111447437Y-65849938D01*
X111443062Y-65827942D01*
X111388259Y-65695636D01*
X111308698Y-65576564D01*
X111207436Y-65475302D01*
X111182020Y-65458319D01*
X120371000Y-65458319D01*
X120371000Y-66113681D01*
X120498855Y-66756450D01*
X120749651Y-67361925D01*
X121113750Y-67906839D01*
X121577161Y-68370250D01*
X122122075Y-68734349D01*
X122727550Y-68985145D01*
X123370319Y-69113000D01*
X124025681Y-69113000D01*
X124668450Y-68985145D01*
X125273925Y-68734349D01*
X125818839Y-68370250D01*
X126282250Y-67906839D01*
X126646349Y-67361925D01*
X126897145Y-66756450D01*
X127025000Y-66113681D01*
X127025000Y-65458319D01*
X126897145Y-64815550D01*
X126646349Y-64210075D01*
X126282250Y-63665161D01*
X125818839Y-63201750D01*
X125273925Y-62837651D01*
X124668450Y-62586855D01*
X124025681Y-62459000D01*
X123370319Y-62459000D01*
X122727550Y-62586855D01*
X122122075Y-62837651D01*
X121577161Y-63201750D01*
X121113750Y-63665161D01*
X120749651Y-64210075D01*
X120498855Y-64815550D01*
X120371000Y-65458319D01*
X111182020Y-65458319D01*
X111088364Y-65395741D01*
X110956058Y-65340938D01*
X110815603Y-65313000D01*
X110672397Y-65313000D01*
X110531942Y-65340938D01*
X110399636Y-65395741D01*
X110280564Y-65475302D01*
X110179302Y-65576564D01*
X110099741Y-65695636D01*
X110044938Y-65827942D01*
X110017000Y-65968397D01*
X94767000Y-65968397D01*
X94767000Y-65458319D01*
X94639145Y-64815550D01*
X94388349Y-64210075D01*
X94024250Y-63665161D01*
X93560839Y-63201750D01*
X93015925Y-62837651D01*
X92410450Y-62586855D01*
X91767681Y-62459000D01*
X91112319Y-62459000D01*
X90469550Y-62586855D01*
X89864075Y-62837651D01*
X89319161Y-63201750D01*
X88855750Y-63665161D01*
X88491651Y-64210075D01*
X88240855Y-64815550D01*
X88163000Y-65206953D01*
X88163000Y-64275641D01*
X88202535Y-63872433D01*
X88315674Y-63497699D01*
X88499442Y-63152084D01*
X88746843Y-62848739D01*
X89048446Y-62599231D01*
X89392772Y-62413055D01*
X89766706Y-62297303D01*
X90169157Y-62255004D01*
X90170409Y-62255000D01*
X138924359Y-62255000D01*
X139327567Y-62294535D01*
G36*
X105831998Y-75307113D02*
G01*
X106006328Y-75306884D01*
X106010032Y-75306142D01*
X106034042Y-75330152D01*
X106032887Y-75335998D01*
X106033116Y-75510328D01*
X106033858Y-75514032D01*
X105934971Y-75612919D01*
X105918000Y-75595948D01*
X105901029Y-75612919D01*
X105801958Y-75513848D01*
X105803113Y-75508002D01*
X105802884Y-75333672D01*
X105802142Y-75329968D01*
X105826152Y-75305958D01*
X105831998Y-75307113D01*
G37*
X105831998Y-75307113D02*
X106006328Y-75306884D01*
X106010032Y-75306142D01*
X106034042Y-75330152D01*
X106032887Y-75335998D01*
X106033116Y-75510328D01*
X106033858Y-75514032D01*
X105934971Y-75612919D01*
X105918000Y-75595948D01*
X105901029Y-75612919D01*
X105801958Y-75513848D01*
X105803113Y-75508002D01*
X105802884Y-75333672D01*
X105802142Y-75329968D01*
X105826152Y-75305958D01*
X105831998Y-75307113D01*
G36*
X105831998Y-74307113D02*
G01*
X106006328Y-74306884D01*
X106010032Y-74306142D01*
X106034042Y-74330152D01*
X106032887Y-74335998D01*
X106033116Y-74510328D01*
X106033858Y-74514032D01*
X106009848Y-74538042D01*
X106004002Y-74536887D01*
X105829672Y-74537116D01*
X105825968Y-74537858D01*
X105801958Y-74513848D01*
X105803113Y-74508002D01*
X105802884Y-74333672D01*
X105802142Y-74329968D01*
X105826152Y-74305958D01*
X105831998Y-74307113D01*
G37*
X105831998Y-74307113D02*
X106006328Y-74306884D01*
X106010032Y-74306142D01*
X106034042Y-74330152D01*
X106032887Y-74335998D01*
X106033116Y-74510328D01*
X106033858Y-74514032D01*
X106009848Y-74538042D01*
X106004002Y-74536887D01*
X105829672Y-74537116D01*
X105825968Y-74537858D01*
X105801958Y-74513848D01*
X105803113Y-74508002D01*
X105802884Y-74333672D01*
X105802142Y-74329968D01*
X105826152Y-74305958D01*
X105831998Y-74307113D01*
G36*
X106831998Y-74307113D02*
G01*
X107006328Y-74306884D01*
X107010032Y-74306142D01*
X107108919Y-74405029D01*
X107091948Y-74422000D01*
X107108919Y-74438971D01*
X107009848Y-74538042D01*
X107004002Y-74536887D01*
X106829672Y-74537116D01*
X106825968Y-74537858D01*
X106801958Y-74513848D01*
X106803113Y-74508002D01*
X106802884Y-74333672D01*
X106802142Y-74329968D01*
X106826152Y-74305958D01*
X106831998Y-74307113D01*
G37*
X106831998Y-74307113D02*
X107006328Y-74306884D01*
X107010032Y-74306142D01*
X107108919Y-74405029D01*
X107091948Y-74422000D01*
X107108919Y-74438971D01*
X107009848Y-74538042D01*
X107004002Y-74536887D01*
X106829672Y-74537116D01*
X106825968Y-74537858D01*
X106801958Y-74513848D01*
X106803113Y-74508002D01*
X106802884Y-74333672D01*
X106802142Y-74329968D01*
X106826152Y-74305958D01*
X106831998Y-74307113D01*
G36*
X104831998Y-74307113D02*
G01*
X105006328Y-74306884D01*
X105010032Y-74306142D01*
X105034042Y-74330152D01*
X105032887Y-74335998D01*
X105033116Y-74510328D01*
X105033858Y-74514032D01*
X105009848Y-74538042D01*
X105004002Y-74536887D01*
X104829672Y-74537116D01*
X104825968Y-74537858D01*
X104727081Y-74438971D01*
X104744052Y-74422000D01*
X104727081Y-74405029D01*
X104826152Y-74305958D01*
X104831998Y-74307113D01*
G37*
X104831998Y-74307113D02*
X105006328Y-74306884D01*
X105010032Y-74306142D01*
X105034042Y-74330152D01*
X105032887Y-74335998D01*
X105033116Y-74510328D01*
X105033858Y-74514032D01*
X105009848Y-74538042D01*
X105004002Y-74536887D01*
X104829672Y-74537116D01*
X104825968Y-74537858D01*
X104727081Y-74438971D01*
X104744052Y-74422000D01*
X104727081Y-74405029D01*
X104826152Y-74305958D01*
X104831998Y-74307113D01*
G36*
X106034042Y-73330152D02*
G01*
X106032887Y-73335998D01*
X106033116Y-73510328D01*
X106033858Y-73514032D01*
X106009848Y-73538042D01*
X106004002Y-73536887D01*
X105829672Y-73537116D01*
X105825968Y-73537858D01*
X105801958Y-73513848D01*
X105803113Y-73508002D01*
X105802884Y-73333672D01*
X105802142Y-73329968D01*
X105901029Y-73231081D01*
X105918000Y-73248052D01*
X105934971Y-73231081D01*
X106034042Y-73330152D01*
G37*
X106034042Y-73330152D02*
X106032887Y-73335998D01*
X106033116Y-73510328D01*
X106033858Y-73514032D01*
X106009848Y-73538042D01*
X106004002Y-73536887D01*
X105829672Y-73537116D01*
X105825968Y-73537858D01*
X105801958Y-73513848D01*
X105803113Y-73508002D01*
X105802884Y-73333672D01*
X105802142Y-73329968D01*
X105901029Y-73231081D01*
X105918000Y-73248052D01*
X105934971Y-73231081D01*
X106034042Y-73330152D01*
G36*
X136271000Y-69565000D02*
G01*
X137344362Y-69565000D01*
X137348741Y-69570293D01*
X137369873Y-69609377D01*
X137383013Y-69651823D01*
X137387657Y-69696008D01*
X137383629Y-69740261D01*
X137371085Y-69782883D01*
X137352203Y-69819000D01*
X136271000Y-69819000D01*
X136271000Y-69926600D01*
X136017000Y-69926600D01*
X136017000Y-69819000D01*
X134936065Y-69819000D01*
X134918127Y-69785823D01*
X134904987Y-69743377D01*
X134900343Y-69699192D01*
X134904371Y-69654939D01*
X134916915Y-69612317D01*
X134937500Y-69572942D01*
X134943886Y-69565000D01*
X136017000Y-69565000D01*
X136017000Y-69468600D01*
X136271000Y-69468600D01*
X136271000Y-69565000D01*
G37*
X136271000Y-69565000D02*
X137344362Y-69565000D01*
X137348741Y-69570293D01*
X137369873Y-69609377D01*
X137383013Y-69651823D01*
X137387657Y-69696008D01*
X137383629Y-69740261D01*
X137371085Y-69782883D01*
X137352203Y-69819000D01*
X136271000Y-69819000D01*
X136271000Y-69926600D01*
X136017000Y-69926600D01*
X136017000Y-69819000D01*
X134936065Y-69819000D01*
X134918127Y-69785823D01*
X134904987Y-69743377D01*
X134900343Y-69699192D01*
X134904371Y-69654939D01*
X134916915Y-69612317D01*
X134937500Y-69572942D01*
X134943886Y-69565000D01*
X136017000Y-69565000D01*
X136017000Y-69468600D01*
X136271000Y-69468600D01*
X136271000Y-69565000D01*
M02*
