G04 #@! TF.GenerationSoftware,KiCad,Pcbnew,(5.1.2-1)-1*
G04 #@! TF.CreationDate,2019-06-19T14:35:12-04:00*
G04 #@! TF.ProjectId,syringe_board,73797269-6e67-4655-9f62-6f6172642e6b,rev?*
G04 #@! TF.SameCoordinates,Original*
G04 #@! TF.FileFunction,Paste,Top*
G04 #@! TF.FilePolarity,Positive*
%FSLAX46Y46*%
G04 Gerber Fmt 4.6, Leading zero omitted, Abs format (unit mm)*
G04 Created by KiCad (PCBNEW (5.1.2-1)-1) date 2019-06-19 14:35:12*
%MOMM*%
%LPD*%
G04 APERTURE LIST*
%ADD10R,0.400000X1.900000*%
%ADD11C,0.100000*%
%ADD12C,0.300000*%
%ADD13C,0.890668*%
%ADD14R,2.500000X2.500000*%
%ADD15C,1.600000*%
%ADD16C,0.975000*%
%ADD17C,0.875000*%
%ADD18R,1.600000X1.400000*%
%ADD19R,0.550000X1.500000*%
%ADD20R,1.500000X0.550000*%
%ADD21R,1.350000X0.400000*%
%ADD22R,3.700000X2.200000*%
%ADD23R,0.760000X6.350000*%
G04 APERTURE END LIST*
D10*
X102800000Y-87503000D03*
X101600000Y-87503000D03*
X100400000Y-87503000D03*
D11*
G36*
X108242351Y-77339361D02*
G01*
X108249632Y-77340441D01*
X108256771Y-77342229D01*
X108263701Y-77344709D01*
X108270355Y-77347856D01*
X108276668Y-77351640D01*
X108282579Y-77356024D01*
X108288033Y-77360967D01*
X108292976Y-77366421D01*
X108297360Y-77372332D01*
X108301144Y-77378645D01*
X108304291Y-77385299D01*
X108306771Y-77392229D01*
X108308559Y-77399368D01*
X108309639Y-77406649D01*
X108310000Y-77414000D01*
X108310000Y-78739000D01*
X108309639Y-78746351D01*
X108308559Y-78753632D01*
X108306771Y-78760771D01*
X108304291Y-78767701D01*
X108301144Y-78774355D01*
X108297360Y-78780668D01*
X108292976Y-78786579D01*
X108288033Y-78792033D01*
X108282579Y-78796976D01*
X108276668Y-78801360D01*
X108270355Y-78805144D01*
X108263701Y-78808291D01*
X108256771Y-78810771D01*
X108249632Y-78812559D01*
X108242351Y-78813639D01*
X108235000Y-78814000D01*
X108085000Y-78814000D01*
X108077649Y-78813639D01*
X108070368Y-78812559D01*
X108063229Y-78810771D01*
X108056299Y-78808291D01*
X108049645Y-78805144D01*
X108043332Y-78801360D01*
X108037421Y-78796976D01*
X108031967Y-78792033D01*
X108027024Y-78786579D01*
X108022640Y-78780668D01*
X108018856Y-78774355D01*
X108015709Y-78767701D01*
X108013229Y-78760771D01*
X108011441Y-78753632D01*
X108010361Y-78746351D01*
X108010000Y-78739000D01*
X108010000Y-77414000D01*
X108010361Y-77406649D01*
X108011441Y-77399368D01*
X108013229Y-77392229D01*
X108015709Y-77385299D01*
X108018856Y-77378645D01*
X108022640Y-77372332D01*
X108027024Y-77366421D01*
X108031967Y-77360967D01*
X108037421Y-77356024D01*
X108043332Y-77351640D01*
X108049645Y-77347856D01*
X108056299Y-77344709D01*
X108063229Y-77342229D01*
X108070368Y-77340441D01*
X108077649Y-77339361D01*
X108085000Y-77339000D01*
X108235000Y-77339000D01*
X108242351Y-77339361D01*
X108242351Y-77339361D01*
G37*
D12*
X108160000Y-78076500D03*
D11*
G36*
X107742351Y-77339361D02*
G01*
X107749632Y-77340441D01*
X107756771Y-77342229D01*
X107763701Y-77344709D01*
X107770355Y-77347856D01*
X107776668Y-77351640D01*
X107782579Y-77356024D01*
X107788033Y-77360967D01*
X107792976Y-77366421D01*
X107797360Y-77372332D01*
X107801144Y-77378645D01*
X107804291Y-77385299D01*
X107806771Y-77392229D01*
X107808559Y-77399368D01*
X107809639Y-77406649D01*
X107810000Y-77414000D01*
X107810000Y-78739000D01*
X107809639Y-78746351D01*
X107808559Y-78753632D01*
X107806771Y-78760771D01*
X107804291Y-78767701D01*
X107801144Y-78774355D01*
X107797360Y-78780668D01*
X107792976Y-78786579D01*
X107788033Y-78792033D01*
X107782579Y-78796976D01*
X107776668Y-78801360D01*
X107770355Y-78805144D01*
X107763701Y-78808291D01*
X107756771Y-78810771D01*
X107749632Y-78812559D01*
X107742351Y-78813639D01*
X107735000Y-78814000D01*
X107585000Y-78814000D01*
X107577649Y-78813639D01*
X107570368Y-78812559D01*
X107563229Y-78810771D01*
X107556299Y-78808291D01*
X107549645Y-78805144D01*
X107543332Y-78801360D01*
X107537421Y-78796976D01*
X107531967Y-78792033D01*
X107527024Y-78786579D01*
X107522640Y-78780668D01*
X107518856Y-78774355D01*
X107515709Y-78767701D01*
X107513229Y-78760771D01*
X107511441Y-78753632D01*
X107510361Y-78746351D01*
X107510000Y-78739000D01*
X107510000Y-77414000D01*
X107510361Y-77406649D01*
X107511441Y-77399368D01*
X107513229Y-77392229D01*
X107515709Y-77385299D01*
X107518856Y-77378645D01*
X107522640Y-77372332D01*
X107527024Y-77366421D01*
X107531967Y-77360967D01*
X107537421Y-77356024D01*
X107543332Y-77351640D01*
X107549645Y-77347856D01*
X107556299Y-77344709D01*
X107563229Y-77342229D01*
X107570368Y-77340441D01*
X107577649Y-77339361D01*
X107585000Y-77339000D01*
X107735000Y-77339000D01*
X107742351Y-77339361D01*
X107742351Y-77339361D01*
G37*
D12*
X107660000Y-78076500D03*
D11*
G36*
X107242351Y-77339361D02*
G01*
X107249632Y-77340441D01*
X107256771Y-77342229D01*
X107263701Y-77344709D01*
X107270355Y-77347856D01*
X107276668Y-77351640D01*
X107282579Y-77356024D01*
X107288033Y-77360967D01*
X107292976Y-77366421D01*
X107297360Y-77372332D01*
X107301144Y-77378645D01*
X107304291Y-77385299D01*
X107306771Y-77392229D01*
X107308559Y-77399368D01*
X107309639Y-77406649D01*
X107310000Y-77414000D01*
X107310000Y-78739000D01*
X107309639Y-78746351D01*
X107308559Y-78753632D01*
X107306771Y-78760771D01*
X107304291Y-78767701D01*
X107301144Y-78774355D01*
X107297360Y-78780668D01*
X107292976Y-78786579D01*
X107288033Y-78792033D01*
X107282579Y-78796976D01*
X107276668Y-78801360D01*
X107270355Y-78805144D01*
X107263701Y-78808291D01*
X107256771Y-78810771D01*
X107249632Y-78812559D01*
X107242351Y-78813639D01*
X107235000Y-78814000D01*
X107085000Y-78814000D01*
X107077649Y-78813639D01*
X107070368Y-78812559D01*
X107063229Y-78810771D01*
X107056299Y-78808291D01*
X107049645Y-78805144D01*
X107043332Y-78801360D01*
X107037421Y-78796976D01*
X107031967Y-78792033D01*
X107027024Y-78786579D01*
X107022640Y-78780668D01*
X107018856Y-78774355D01*
X107015709Y-78767701D01*
X107013229Y-78760771D01*
X107011441Y-78753632D01*
X107010361Y-78746351D01*
X107010000Y-78739000D01*
X107010000Y-77414000D01*
X107010361Y-77406649D01*
X107011441Y-77399368D01*
X107013229Y-77392229D01*
X107015709Y-77385299D01*
X107018856Y-77378645D01*
X107022640Y-77372332D01*
X107027024Y-77366421D01*
X107031967Y-77360967D01*
X107037421Y-77356024D01*
X107043332Y-77351640D01*
X107049645Y-77347856D01*
X107056299Y-77344709D01*
X107063229Y-77342229D01*
X107070368Y-77340441D01*
X107077649Y-77339361D01*
X107085000Y-77339000D01*
X107235000Y-77339000D01*
X107242351Y-77339361D01*
X107242351Y-77339361D01*
G37*
D12*
X107160000Y-78076500D03*
D11*
G36*
X106742351Y-77339361D02*
G01*
X106749632Y-77340441D01*
X106756771Y-77342229D01*
X106763701Y-77344709D01*
X106770355Y-77347856D01*
X106776668Y-77351640D01*
X106782579Y-77356024D01*
X106788033Y-77360967D01*
X106792976Y-77366421D01*
X106797360Y-77372332D01*
X106801144Y-77378645D01*
X106804291Y-77385299D01*
X106806771Y-77392229D01*
X106808559Y-77399368D01*
X106809639Y-77406649D01*
X106810000Y-77414000D01*
X106810000Y-78739000D01*
X106809639Y-78746351D01*
X106808559Y-78753632D01*
X106806771Y-78760771D01*
X106804291Y-78767701D01*
X106801144Y-78774355D01*
X106797360Y-78780668D01*
X106792976Y-78786579D01*
X106788033Y-78792033D01*
X106782579Y-78796976D01*
X106776668Y-78801360D01*
X106770355Y-78805144D01*
X106763701Y-78808291D01*
X106756771Y-78810771D01*
X106749632Y-78812559D01*
X106742351Y-78813639D01*
X106735000Y-78814000D01*
X106585000Y-78814000D01*
X106577649Y-78813639D01*
X106570368Y-78812559D01*
X106563229Y-78810771D01*
X106556299Y-78808291D01*
X106549645Y-78805144D01*
X106543332Y-78801360D01*
X106537421Y-78796976D01*
X106531967Y-78792033D01*
X106527024Y-78786579D01*
X106522640Y-78780668D01*
X106518856Y-78774355D01*
X106515709Y-78767701D01*
X106513229Y-78760771D01*
X106511441Y-78753632D01*
X106510361Y-78746351D01*
X106510000Y-78739000D01*
X106510000Y-77414000D01*
X106510361Y-77406649D01*
X106511441Y-77399368D01*
X106513229Y-77392229D01*
X106515709Y-77385299D01*
X106518856Y-77378645D01*
X106522640Y-77372332D01*
X106527024Y-77366421D01*
X106531967Y-77360967D01*
X106537421Y-77356024D01*
X106543332Y-77351640D01*
X106549645Y-77347856D01*
X106556299Y-77344709D01*
X106563229Y-77342229D01*
X106570368Y-77340441D01*
X106577649Y-77339361D01*
X106585000Y-77339000D01*
X106735000Y-77339000D01*
X106742351Y-77339361D01*
X106742351Y-77339361D01*
G37*
D12*
X106660000Y-78076500D03*
D11*
G36*
X106242351Y-77339361D02*
G01*
X106249632Y-77340441D01*
X106256771Y-77342229D01*
X106263701Y-77344709D01*
X106270355Y-77347856D01*
X106276668Y-77351640D01*
X106282579Y-77356024D01*
X106288033Y-77360967D01*
X106292976Y-77366421D01*
X106297360Y-77372332D01*
X106301144Y-77378645D01*
X106304291Y-77385299D01*
X106306771Y-77392229D01*
X106308559Y-77399368D01*
X106309639Y-77406649D01*
X106310000Y-77414000D01*
X106310000Y-78739000D01*
X106309639Y-78746351D01*
X106308559Y-78753632D01*
X106306771Y-78760771D01*
X106304291Y-78767701D01*
X106301144Y-78774355D01*
X106297360Y-78780668D01*
X106292976Y-78786579D01*
X106288033Y-78792033D01*
X106282579Y-78796976D01*
X106276668Y-78801360D01*
X106270355Y-78805144D01*
X106263701Y-78808291D01*
X106256771Y-78810771D01*
X106249632Y-78812559D01*
X106242351Y-78813639D01*
X106235000Y-78814000D01*
X106085000Y-78814000D01*
X106077649Y-78813639D01*
X106070368Y-78812559D01*
X106063229Y-78810771D01*
X106056299Y-78808291D01*
X106049645Y-78805144D01*
X106043332Y-78801360D01*
X106037421Y-78796976D01*
X106031967Y-78792033D01*
X106027024Y-78786579D01*
X106022640Y-78780668D01*
X106018856Y-78774355D01*
X106015709Y-78767701D01*
X106013229Y-78760771D01*
X106011441Y-78753632D01*
X106010361Y-78746351D01*
X106010000Y-78739000D01*
X106010000Y-77414000D01*
X106010361Y-77406649D01*
X106011441Y-77399368D01*
X106013229Y-77392229D01*
X106015709Y-77385299D01*
X106018856Y-77378645D01*
X106022640Y-77372332D01*
X106027024Y-77366421D01*
X106031967Y-77360967D01*
X106037421Y-77356024D01*
X106043332Y-77351640D01*
X106049645Y-77347856D01*
X106056299Y-77344709D01*
X106063229Y-77342229D01*
X106070368Y-77340441D01*
X106077649Y-77339361D01*
X106085000Y-77339000D01*
X106235000Y-77339000D01*
X106242351Y-77339361D01*
X106242351Y-77339361D01*
G37*
D12*
X106160000Y-78076500D03*
D11*
G36*
X105742351Y-77339361D02*
G01*
X105749632Y-77340441D01*
X105756771Y-77342229D01*
X105763701Y-77344709D01*
X105770355Y-77347856D01*
X105776668Y-77351640D01*
X105782579Y-77356024D01*
X105788033Y-77360967D01*
X105792976Y-77366421D01*
X105797360Y-77372332D01*
X105801144Y-77378645D01*
X105804291Y-77385299D01*
X105806771Y-77392229D01*
X105808559Y-77399368D01*
X105809639Y-77406649D01*
X105810000Y-77414000D01*
X105810000Y-78739000D01*
X105809639Y-78746351D01*
X105808559Y-78753632D01*
X105806771Y-78760771D01*
X105804291Y-78767701D01*
X105801144Y-78774355D01*
X105797360Y-78780668D01*
X105792976Y-78786579D01*
X105788033Y-78792033D01*
X105782579Y-78796976D01*
X105776668Y-78801360D01*
X105770355Y-78805144D01*
X105763701Y-78808291D01*
X105756771Y-78810771D01*
X105749632Y-78812559D01*
X105742351Y-78813639D01*
X105735000Y-78814000D01*
X105585000Y-78814000D01*
X105577649Y-78813639D01*
X105570368Y-78812559D01*
X105563229Y-78810771D01*
X105556299Y-78808291D01*
X105549645Y-78805144D01*
X105543332Y-78801360D01*
X105537421Y-78796976D01*
X105531967Y-78792033D01*
X105527024Y-78786579D01*
X105522640Y-78780668D01*
X105518856Y-78774355D01*
X105515709Y-78767701D01*
X105513229Y-78760771D01*
X105511441Y-78753632D01*
X105510361Y-78746351D01*
X105510000Y-78739000D01*
X105510000Y-77414000D01*
X105510361Y-77406649D01*
X105511441Y-77399368D01*
X105513229Y-77392229D01*
X105515709Y-77385299D01*
X105518856Y-77378645D01*
X105522640Y-77372332D01*
X105527024Y-77366421D01*
X105531967Y-77360967D01*
X105537421Y-77356024D01*
X105543332Y-77351640D01*
X105549645Y-77347856D01*
X105556299Y-77344709D01*
X105563229Y-77342229D01*
X105570368Y-77340441D01*
X105577649Y-77339361D01*
X105585000Y-77339000D01*
X105735000Y-77339000D01*
X105742351Y-77339361D01*
X105742351Y-77339361D01*
G37*
D12*
X105660000Y-78076500D03*
D11*
G36*
X105242351Y-77339361D02*
G01*
X105249632Y-77340441D01*
X105256771Y-77342229D01*
X105263701Y-77344709D01*
X105270355Y-77347856D01*
X105276668Y-77351640D01*
X105282579Y-77356024D01*
X105288033Y-77360967D01*
X105292976Y-77366421D01*
X105297360Y-77372332D01*
X105301144Y-77378645D01*
X105304291Y-77385299D01*
X105306771Y-77392229D01*
X105308559Y-77399368D01*
X105309639Y-77406649D01*
X105310000Y-77414000D01*
X105310000Y-78739000D01*
X105309639Y-78746351D01*
X105308559Y-78753632D01*
X105306771Y-78760771D01*
X105304291Y-78767701D01*
X105301144Y-78774355D01*
X105297360Y-78780668D01*
X105292976Y-78786579D01*
X105288033Y-78792033D01*
X105282579Y-78796976D01*
X105276668Y-78801360D01*
X105270355Y-78805144D01*
X105263701Y-78808291D01*
X105256771Y-78810771D01*
X105249632Y-78812559D01*
X105242351Y-78813639D01*
X105235000Y-78814000D01*
X105085000Y-78814000D01*
X105077649Y-78813639D01*
X105070368Y-78812559D01*
X105063229Y-78810771D01*
X105056299Y-78808291D01*
X105049645Y-78805144D01*
X105043332Y-78801360D01*
X105037421Y-78796976D01*
X105031967Y-78792033D01*
X105027024Y-78786579D01*
X105022640Y-78780668D01*
X105018856Y-78774355D01*
X105015709Y-78767701D01*
X105013229Y-78760771D01*
X105011441Y-78753632D01*
X105010361Y-78746351D01*
X105010000Y-78739000D01*
X105010000Y-77414000D01*
X105010361Y-77406649D01*
X105011441Y-77399368D01*
X105013229Y-77392229D01*
X105015709Y-77385299D01*
X105018856Y-77378645D01*
X105022640Y-77372332D01*
X105027024Y-77366421D01*
X105031967Y-77360967D01*
X105037421Y-77356024D01*
X105043332Y-77351640D01*
X105049645Y-77347856D01*
X105056299Y-77344709D01*
X105063229Y-77342229D01*
X105070368Y-77340441D01*
X105077649Y-77339361D01*
X105085000Y-77339000D01*
X105235000Y-77339000D01*
X105242351Y-77339361D01*
X105242351Y-77339361D01*
G37*
D12*
X105160000Y-78076500D03*
D11*
G36*
X104742351Y-77339361D02*
G01*
X104749632Y-77340441D01*
X104756771Y-77342229D01*
X104763701Y-77344709D01*
X104770355Y-77347856D01*
X104776668Y-77351640D01*
X104782579Y-77356024D01*
X104788033Y-77360967D01*
X104792976Y-77366421D01*
X104797360Y-77372332D01*
X104801144Y-77378645D01*
X104804291Y-77385299D01*
X104806771Y-77392229D01*
X104808559Y-77399368D01*
X104809639Y-77406649D01*
X104810000Y-77414000D01*
X104810000Y-78739000D01*
X104809639Y-78746351D01*
X104808559Y-78753632D01*
X104806771Y-78760771D01*
X104804291Y-78767701D01*
X104801144Y-78774355D01*
X104797360Y-78780668D01*
X104792976Y-78786579D01*
X104788033Y-78792033D01*
X104782579Y-78796976D01*
X104776668Y-78801360D01*
X104770355Y-78805144D01*
X104763701Y-78808291D01*
X104756771Y-78810771D01*
X104749632Y-78812559D01*
X104742351Y-78813639D01*
X104735000Y-78814000D01*
X104585000Y-78814000D01*
X104577649Y-78813639D01*
X104570368Y-78812559D01*
X104563229Y-78810771D01*
X104556299Y-78808291D01*
X104549645Y-78805144D01*
X104543332Y-78801360D01*
X104537421Y-78796976D01*
X104531967Y-78792033D01*
X104527024Y-78786579D01*
X104522640Y-78780668D01*
X104518856Y-78774355D01*
X104515709Y-78767701D01*
X104513229Y-78760771D01*
X104511441Y-78753632D01*
X104510361Y-78746351D01*
X104510000Y-78739000D01*
X104510000Y-77414000D01*
X104510361Y-77406649D01*
X104511441Y-77399368D01*
X104513229Y-77392229D01*
X104515709Y-77385299D01*
X104518856Y-77378645D01*
X104522640Y-77372332D01*
X104527024Y-77366421D01*
X104531967Y-77360967D01*
X104537421Y-77356024D01*
X104543332Y-77351640D01*
X104549645Y-77347856D01*
X104556299Y-77344709D01*
X104563229Y-77342229D01*
X104570368Y-77340441D01*
X104577649Y-77339361D01*
X104585000Y-77339000D01*
X104735000Y-77339000D01*
X104742351Y-77339361D01*
X104742351Y-77339361D01*
G37*
D12*
X104660000Y-78076500D03*
D11*
G36*
X104242351Y-77339361D02*
G01*
X104249632Y-77340441D01*
X104256771Y-77342229D01*
X104263701Y-77344709D01*
X104270355Y-77347856D01*
X104276668Y-77351640D01*
X104282579Y-77356024D01*
X104288033Y-77360967D01*
X104292976Y-77366421D01*
X104297360Y-77372332D01*
X104301144Y-77378645D01*
X104304291Y-77385299D01*
X104306771Y-77392229D01*
X104308559Y-77399368D01*
X104309639Y-77406649D01*
X104310000Y-77414000D01*
X104310000Y-78739000D01*
X104309639Y-78746351D01*
X104308559Y-78753632D01*
X104306771Y-78760771D01*
X104304291Y-78767701D01*
X104301144Y-78774355D01*
X104297360Y-78780668D01*
X104292976Y-78786579D01*
X104288033Y-78792033D01*
X104282579Y-78796976D01*
X104276668Y-78801360D01*
X104270355Y-78805144D01*
X104263701Y-78808291D01*
X104256771Y-78810771D01*
X104249632Y-78812559D01*
X104242351Y-78813639D01*
X104235000Y-78814000D01*
X104085000Y-78814000D01*
X104077649Y-78813639D01*
X104070368Y-78812559D01*
X104063229Y-78810771D01*
X104056299Y-78808291D01*
X104049645Y-78805144D01*
X104043332Y-78801360D01*
X104037421Y-78796976D01*
X104031967Y-78792033D01*
X104027024Y-78786579D01*
X104022640Y-78780668D01*
X104018856Y-78774355D01*
X104015709Y-78767701D01*
X104013229Y-78760771D01*
X104011441Y-78753632D01*
X104010361Y-78746351D01*
X104010000Y-78739000D01*
X104010000Y-77414000D01*
X104010361Y-77406649D01*
X104011441Y-77399368D01*
X104013229Y-77392229D01*
X104015709Y-77385299D01*
X104018856Y-77378645D01*
X104022640Y-77372332D01*
X104027024Y-77366421D01*
X104031967Y-77360967D01*
X104037421Y-77356024D01*
X104043332Y-77351640D01*
X104049645Y-77347856D01*
X104056299Y-77344709D01*
X104063229Y-77342229D01*
X104070368Y-77340441D01*
X104077649Y-77339361D01*
X104085000Y-77339000D01*
X104235000Y-77339000D01*
X104242351Y-77339361D01*
X104242351Y-77339361D01*
G37*
D12*
X104160000Y-78076500D03*
D11*
G36*
X103742351Y-77339361D02*
G01*
X103749632Y-77340441D01*
X103756771Y-77342229D01*
X103763701Y-77344709D01*
X103770355Y-77347856D01*
X103776668Y-77351640D01*
X103782579Y-77356024D01*
X103788033Y-77360967D01*
X103792976Y-77366421D01*
X103797360Y-77372332D01*
X103801144Y-77378645D01*
X103804291Y-77385299D01*
X103806771Y-77392229D01*
X103808559Y-77399368D01*
X103809639Y-77406649D01*
X103810000Y-77414000D01*
X103810000Y-78739000D01*
X103809639Y-78746351D01*
X103808559Y-78753632D01*
X103806771Y-78760771D01*
X103804291Y-78767701D01*
X103801144Y-78774355D01*
X103797360Y-78780668D01*
X103792976Y-78786579D01*
X103788033Y-78792033D01*
X103782579Y-78796976D01*
X103776668Y-78801360D01*
X103770355Y-78805144D01*
X103763701Y-78808291D01*
X103756771Y-78810771D01*
X103749632Y-78812559D01*
X103742351Y-78813639D01*
X103735000Y-78814000D01*
X103585000Y-78814000D01*
X103577649Y-78813639D01*
X103570368Y-78812559D01*
X103563229Y-78810771D01*
X103556299Y-78808291D01*
X103549645Y-78805144D01*
X103543332Y-78801360D01*
X103537421Y-78796976D01*
X103531967Y-78792033D01*
X103527024Y-78786579D01*
X103522640Y-78780668D01*
X103518856Y-78774355D01*
X103515709Y-78767701D01*
X103513229Y-78760771D01*
X103511441Y-78753632D01*
X103510361Y-78746351D01*
X103510000Y-78739000D01*
X103510000Y-77414000D01*
X103510361Y-77406649D01*
X103511441Y-77399368D01*
X103513229Y-77392229D01*
X103515709Y-77385299D01*
X103518856Y-77378645D01*
X103522640Y-77372332D01*
X103527024Y-77366421D01*
X103531967Y-77360967D01*
X103537421Y-77356024D01*
X103543332Y-77351640D01*
X103549645Y-77347856D01*
X103556299Y-77344709D01*
X103563229Y-77342229D01*
X103570368Y-77340441D01*
X103577649Y-77339361D01*
X103585000Y-77339000D01*
X103735000Y-77339000D01*
X103742351Y-77339361D01*
X103742351Y-77339361D01*
G37*
D12*
X103660000Y-78076500D03*
D11*
G36*
X103242351Y-77339361D02*
G01*
X103249632Y-77340441D01*
X103256771Y-77342229D01*
X103263701Y-77344709D01*
X103270355Y-77347856D01*
X103276668Y-77351640D01*
X103282579Y-77356024D01*
X103288033Y-77360967D01*
X103292976Y-77366421D01*
X103297360Y-77372332D01*
X103301144Y-77378645D01*
X103304291Y-77385299D01*
X103306771Y-77392229D01*
X103308559Y-77399368D01*
X103309639Y-77406649D01*
X103310000Y-77414000D01*
X103310000Y-78739000D01*
X103309639Y-78746351D01*
X103308559Y-78753632D01*
X103306771Y-78760771D01*
X103304291Y-78767701D01*
X103301144Y-78774355D01*
X103297360Y-78780668D01*
X103292976Y-78786579D01*
X103288033Y-78792033D01*
X103282579Y-78796976D01*
X103276668Y-78801360D01*
X103270355Y-78805144D01*
X103263701Y-78808291D01*
X103256771Y-78810771D01*
X103249632Y-78812559D01*
X103242351Y-78813639D01*
X103235000Y-78814000D01*
X103085000Y-78814000D01*
X103077649Y-78813639D01*
X103070368Y-78812559D01*
X103063229Y-78810771D01*
X103056299Y-78808291D01*
X103049645Y-78805144D01*
X103043332Y-78801360D01*
X103037421Y-78796976D01*
X103031967Y-78792033D01*
X103027024Y-78786579D01*
X103022640Y-78780668D01*
X103018856Y-78774355D01*
X103015709Y-78767701D01*
X103013229Y-78760771D01*
X103011441Y-78753632D01*
X103010361Y-78746351D01*
X103010000Y-78739000D01*
X103010000Y-77414000D01*
X103010361Y-77406649D01*
X103011441Y-77399368D01*
X103013229Y-77392229D01*
X103015709Y-77385299D01*
X103018856Y-77378645D01*
X103022640Y-77372332D01*
X103027024Y-77366421D01*
X103031967Y-77360967D01*
X103037421Y-77356024D01*
X103043332Y-77351640D01*
X103049645Y-77347856D01*
X103056299Y-77344709D01*
X103063229Y-77342229D01*
X103070368Y-77340441D01*
X103077649Y-77339361D01*
X103085000Y-77339000D01*
X103235000Y-77339000D01*
X103242351Y-77339361D01*
X103242351Y-77339361D01*
G37*
D12*
X103160000Y-78076500D03*
D11*
G36*
X102742351Y-77339361D02*
G01*
X102749632Y-77340441D01*
X102756771Y-77342229D01*
X102763701Y-77344709D01*
X102770355Y-77347856D01*
X102776668Y-77351640D01*
X102782579Y-77356024D01*
X102788033Y-77360967D01*
X102792976Y-77366421D01*
X102797360Y-77372332D01*
X102801144Y-77378645D01*
X102804291Y-77385299D01*
X102806771Y-77392229D01*
X102808559Y-77399368D01*
X102809639Y-77406649D01*
X102810000Y-77414000D01*
X102810000Y-78739000D01*
X102809639Y-78746351D01*
X102808559Y-78753632D01*
X102806771Y-78760771D01*
X102804291Y-78767701D01*
X102801144Y-78774355D01*
X102797360Y-78780668D01*
X102792976Y-78786579D01*
X102788033Y-78792033D01*
X102782579Y-78796976D01*
X102776668Y-78801360D01*
X102770355Y-78805144D01*
X102763701Y-78808291D01*
X102756771Y-78810771D01*
X102749632Y-78812559D01*
X102742351Y-78813639D01*
X102735000Y-78814000D01*
X102585000Y-78814000D01*
X102577649Y-78813639D01*
X102570368Y-78812559D01*
X102563229Y-78810771D01*
X102556299Y-78808291D01*
X102549645Y-78805144D01*
X102543332Y-78801360D01*
X102537421Y-78796976D01*
X102531967Y-78792033D01*
X102527024Y-78786579D01*
X102522640Y-78780668D01*
X102518856Y-78774355D01*
X102515709Y-78767701D01*
X102513229Y-78760771D01*
X102511441Y-78753632D01*
X102510361Y-78746351D01*
X102510000Y-78739000D01*
X102510000Y-77414000D01*
X102510361Y-77406649D01*
X102511441Y-77399368D01*
X102513229Y-77392229D01*
X102515709Y-77385299D01*
X102518856Y-77378645D01*
X102522640Y-77372332D01*
X102527024Y-77366421D01*
X102531967Y-77360967D01*
X102537421Y-77356024D01*
X102543332Y-77351640D01*
X102549645Y-77347856D01*
X102556299Y-77344709D01*
X102563229Y-77342229D01*
X102570368Y-77340441D01*
X102577649Y-77339361D01*
X102585000Y-77339000D01*
X102735000Y-77339000D01*
X102742351Y-77339361D01*
X102742351Y-77339361D01*
G37*
D12*
X102660000Y-78076500D03*
D11*
G36*
X101917351Y-76514361D02*
G01*
X101924632Y-76515441D01*
X101931771Y-76517229D01*
X101938701Y-76519709D01*
X101945355Y-76522856D01*
X101951668Y-76526640D01*
X101957579Y-76531024D01*
X101963033Y-76535967D01*
X101967976Y-76541421D01*
X101972360Y-76547332D01*
X101976144Y-76553645D01*
X101979291Y-76560299D01*
X101981771Y-76567229D01*
X101983559Y-76574368D01*
X101984639Y-76581649D01*
X101985000Y-76589000D01*
X101985000Y-76739000D01*
X101984639Y-76746351D01*
X101983559Y-76753632D01*
X101981771Y-76760771D01*
X101979291Y-76767701D01*
X101976144Y-76774355D01*
X101972360Y-76780668D01*
X101967976Y-76786579D01*
X101963033Y-76792033D01*
X101957579Y-76796976D01*
X101951668Y-76801360D01*
X101945355Y-76805144D01*
X101938701Y-76808291D01*
X101931771Y-76810771D01*
X101924632Y-76812559D01*
X101917351Y-76813639D01*
X101910000Y-76814000D01*
X100585000Y-76814000D01*
X100577649Y-76813639D01*
X100570368Y-76812559D01*
X100563229Y-76810771D01*
X100556299Y-76808291D01*
X100549645Y-76805144D01*
X100543332Y-76801360D01*
X100537421Y-76796976D01*
X100531967Y-76792033D01*
X100527024Y-76786579D01*
X100522640Y-76780668D01*
X100518856Y-76774355D01*
X100515709Y-76767701D01*
X100513229Y-76760771D01*
X100511441Y-76753632D01*
X100510361Y-76746351D01*
X100510000Y-76739000D01*
X100510000Y-76589000D01*
X100510361Y-76581649D01*
X100511441Y-76574368D01*
X100513229Y-76567229D01*
X100515709Y-76560299D01*
X100518856Y-76553645D01*
X100522640Y-76547332D01*
X100527024Y-76541421D01*
X100531967Y-76535967D01*
X100537421Y-76531024D01*
X100543332Y-76526640D01*
X100549645Y-76522856D01*
X100556299Y-76519709D01*
X100563229Y-76517229D01*
X100570368Y-76515441D01*
X100577649Y-76514361D01*
X100585000Y-76514000D01*
X101910000Y-76514000D01*
X101917351Y-76514361D01*
X101917351Y-76514361D01*
G37*
D12*
X101247500Y-76664000D03*
D11*
G36*
X101917351Y-76014361D02*
G01*
X101924632Y-76015441D01*
X101931771Y-76017229D01*
X101938701Y-76019709D01*
X101945355Y-76022856D01*
X101951668Y-76026640D01*
X101957579Y-76031024D01*
X101963033Y-76035967D01*
X101967976Y-76041421D01*
X101972360Y-76047332D01*
X101976144Y-76053645D01*
X101979291Y-76060299D01*
X101981771Y-76067229D01*
X101983559Y-76074368D01*
X101984639Y-76081649D01*
X101985000Y-76089000D01*
X101985000Y-76239000D01*
X101984639Y-76246351D01*
X101983559Y-76253632D01*
X101981771Y-76260771D01*
X101979291Y-76267701D01*
X101976144Y-76274355D01*
X101972360Y-76280668D01*
X101967976Y-76286579D01*
X101963033Y-76292033D01*
X101957579Y-76296976D01*
X101951668Y-76301360D01*
X101945355Y-76305144D01*
X101938701Y-76308291D01*
X101931771Y-76310771D01*
X101924632Y-76312559D01*
X101917351Y-76313639D01*
X101910000Y-76314000D01*
X100585000Y-76314000D01*
X100577649Y-76313639D01*
X100570368Y-76312559D01*
X100563229Y-76310771D01*
X100556299Y-76308291D01*
X100549645Y-76305144D01*
X100543332Y-76301360D01*
X100537421Y-76296976D01*
X100531967Y-76292033D01*
X100527024Y-76286579D01*
X100522640Y-76280668D01*
X100518856Y-76274355D01*
X100515709Y-76267701D01*
X100513229Y-76260771D01*
X100511441Y-76253632D01*
X100510361Y-76246351D01*
X100510000Y-76239000D01*
X100510000Y-76089000D01*
X100510361Y-76081649D01*
X100511441Y-76074368D01*
X100513229Y-76067229D01*
X100515709Y-76060299D01*
X100518856Y-76053645D01*
X100522640Y-76047332D01*
X100527024Y-76041421D01*
X100531967Y-76035967D01*
X100537421Y-76031024D01*
X100543332Y-76026640D01*
X100549645Y-76022856D01*
X100556299Y-76019709D01*
X100563229Y-76017229D01*
X100570368Y-76015441D01*
X100577649Y-76014361D01*
X100585000Y-76014000D01*
X101910000Y-76014000D01*
X101917351Y-76014361D01*
X101917351Y-76014361D01*
G37*
D12*
X101247500Y-76164000D03*
D11*
G36*
X101917351Y-75514361D02*
G01*
X101924632Y-75515441D01*
X101931771Y-75517229D01*
X101938701Y-75519709D01*
X101945355Y-75522856D01*
X101951668Y-75526640D01*
X101957579Y-75531024D01*
X101963033Y-75535967D01*
X101967976Y-75541421D01*
X101972360Y-75547332D01*
X101976144Y-75553645D01*
X101979291Y-75560299D01*
X101981771Y-75567229D01*
X101983559Y-75574368D01*
X101984639Y-75581649D01*
X101985000Y-75589000D01*
X101985000Y-75739000D01*
X101984639Y-75746351D01*
X101983559Y-75753632D01*
X101981771Y-75760771D01*
X101979291Y-75767701D01*
X101976144Y-75774355D01*
X101972360Y-75780668D01*
X101967976Y-75786579D01*
X101963033Y-75792033D01*
X101957579Y-75796976D01*
X101951668Y-75801360D01*
X101945355Y-75805144D01*
X101938701Y-75808291D01*
X101931771Y-75810771D01*
X101924632Y-75812559D01*
X101917351Y-75813639D01*
X101910000Y-75814000D01*
X100585000Y-75814000D01*
X100577649Y-75813639D01*
X100570368Y-75812559D01*
X100563229Y-75810771D01*
X100556299Y-75808291D01*
X100549645Y-75805144D01*
X100543332Y-75801360D01*
X100537421Y-75796976D01*
X100531967Y-75792033D01*
X100527024Y-75786579D01*
X100522640Y-75780668D01*
X100518856Y-75774355D01*
X100515709Y-75767701D01*
X100513229Y-75760771D01*
X100511441Y-75753632D01*
X100510361Y-75746351D01*
X100510000Y-75739000D01*
X100510000Y-75589000D01*
X100510361Y-75581649D01*
X100511441Y-75574368D01*
X100513229Y-75567229D01*
X100515709Y-75560299D01*
X100518856Y-75553645D01*
X100522640Y-75547332D01*
X100527024Y-75541421D01*
X100531967Y-75535967D01*
X100537421Y-75531024D01*
X100543332Y-75526640D01*
X100549645Y-75522856D01*
X100556299Y-75519709D01*
X100563229Y-75517229D01*
X100570368Y-75515441D01*
X100577649Y-75514361D01*
X100585000Y-75514000D01*
X101910000Y-75514000D01*
X101917351Y-75514361D01*
X101917351Y-75514361D01*
G37*
D12*
X101247500Y-75664000D03*
D11*
G36*
X101917351Y-75014361D02*
G01*
X101924632Y-75015441D01*
X101931771Y-75017229D01*
X101938701Y-75019709D01*
X101945355Y-75022856D01*
X101951668Y-75026640D01*
X101957579Y-75031024D01*
X101963033Y-75035967D01*
X101967976Y-75041421D01*
X101972360Y-75047332D01*
X101976144Y-75053645D01*
X101979291Y-75060299D01*
X101981771Y-75067229D01*
X101983559Y-75074368D01*
X101984639Y-75081649D01*
X101985000Y-75089000D01*
X101985000Y-75239000D01*
X101984639Y-75246351D01*
X101983559Y-75253632D01*
X101981771Y-75260771D01*
X101979291Y-75267701D01*
X101976144Y-75274355D01*
X101972360Y-75280668D01*
X101967976Y-75286579D01*
X101963033Y-75292033D01*
X101957579Y-75296976D01*
X101951668Y-75301360D01*
X101945355Y-75305144D01*
X101938701Y-75308291D01*
X101931771Y-75310771D01*
X101924632Y-75312559D01*
X101917351Y-75313639D01*
X101910000Y-75314000D01*
X100585000Y-75314000D01*
X100577649Y-75313639D01*
X100570368Y-75312559D01*
X100563229Y-75310771D01*
X100556299Y-75308291D01*
X100549645Y-75305144D01*
X100543332Y-75301360D01*
X100537421Y-75296976D01*
X100531967Y-75292033D01*
X100527024Y-75286579D01*
X100522640Y-75280668D01*
X100518856Y-75274355D01*
X100515709Y-75267701D01*
X100513229Y-75260771D01*
X100511441Y-75253632D01*
X100510361Y-75246351D01*
X100510000Y-75239000D01*
X100510000Y-75089000D01*
X100510361Y-75081649D01*
X100511441Y-75074368D01*
X100513229Y-75067229D01*
X100515709Y-75060299D01*
X100518856Y-75053645D01*
X100522640Y-75047332D01*
X100527024Y-75041421D01*
X100531967Y-75035967D01*
X100537421Y-75031024D01*
X100543332Y-75026640D01*
X100549645Y-75022856D01*
X100556299Y-75019709D01*
X100563229Y-75017229D01*
X100570368Y-75015441D01*
X100577649Y-75014361D01*
X100585000Y-75014000D01*
X101910000Y-75014000D01*
X101917351Y-75014361D01*
X101917351Y-75014361D01*
G37*
D12*
X101247500Y-75164000D03*
D11*
G36*
X101917351Y-74514361D02*
G01*
X101924632Y-74515441D01*
X101931771Y-74517229D01*
X101938701Y-74519709D01*
X101945355Y-74522856D01*
X101951668Y-74526640D01*
X101957579Y-74531024D01*
X101963033Y-74535967D01*
X101967976Y-74541421D01*
X101972360Y-74547332D01*
X101976144Y-74553645D01*
X101979291Y-74560299D01*
X101981771Y-74567229D01*
X101983559Y-74574368D01*
X101984639Y-74581649D01*
X101985000Y-74589000D01*
X101985000Y-74739000D01*
X101984639Y-74746351D01*
X101983559Y-74753632D01*
X101981771Y-74760771D01*
X101979291Y-74767701D01*
X101976144Y-74774355D01*
X101972360Y-74780668D01*
X101967976Y-74786579D01*
X101963033Y-74792033D01*
X101957579Y-74796976D01*
X101951668Y-74801360D01*
X101945355Y-74805144D01*
X101938701Y-74808291D01*
X101931771Y-74810771D01*
X101924632Y-74812559D01*
X101917351Y-74813639D01*
X101910000Y-74814000D01*
X100585000Y-74814000D01*
X100577649Y-74813639D01*
X100570368Y-74812559D01*
X100563229Y-74810771D01*
X100556299Y-74808291D01*
X100549645Y-74805144D01*
X100543332Y-74801360D01*
X100537421Y-74796976D01*
X100531967Y-74792033D01*
X100527024Y-74786579D01*
X100522640Y-74780668D01*
X100518856Y-74774355D01*
X100515709Y-74767701D01*
X100513229Y-74760771D01*
X100511441Y-74753632D01*
X100510361Y-74746351D01*
X100510000Y-74739000D01*
X100510000Y-74589000D01*
X100510361Y-74581649D01*
X100511441Y-74574368D01*
X100513229Y-74567229D01*
X100515709Y-74560299D01*
X100518856Y-74553645D01*
X100522640Y-74547332D01*
X100527024Y-74541421D01*
X100531967Y-74535967D01*
X100537421Y-74531024D01*
X100543332Y-74526640D01*
X100549645Y-74522856D01*
X100556299Y-74519709D01*
X100563229Y-74517229D01*
X100570368Y-74515441D01*
X100577649Y-74514361D01*
X100585000Y-74514000D01*
X101910000Y-74514000D01*
X101917351Y-74514361D01*
X101917351Y-74514361D01*
G37*
D12*
X101247500Y-74664000D03*
D11*
G36*
X101917351Y-74014361D02*
G01*
X101924632Y-74015441D01*
X101931771Y-74017229D01*
X101938701Y-74019709D01*
X101945355Y-74022856D01*
X101951668Y-74026640D01*
X101957579Y-74031024D01*
X101963033Y-74035967D01*
X101967976Y-74041421D01*
X101972360Y-74047332D01*
X101976144Y-74053645D01*
X101979291Y-74060299D01*
X101981771Y-74067229D01*
X101983559Y-74074368D01*
X101984639Y-74081649D01*
X101985000Y-74089000D01*
X101985000Y-74239000D01*
X101984639Y-74246351D01*
X101983559Y-74253632D01*
X101981771Y-74260771D01*
X101979291Y-74267701D01*
X101976144Y-74274355D01*
X101972360Y-74280668D01*
X101967976Y-74286579D01*
X101963033Y-74292033D01*
X101957579Y-74296976D01*
X101951668Y-74301360D01*
X101945355Y-74305144D01*
X101938701Y-74308291D01*
X101931771Y-74310771D01*
X101924632Y-74312559D01*
X101917351Y-74313639D01*
X101910000Y-74314000D01*
X100585000Y-74314000D01*
X100577649Y-74313639D01*
X100570368Y-74312559D01*
X100563229Y-74310771D01*
X100556299Y-74308291D01*
X100549645Y-74305144D01*
X100543332Y-74301360D01*
X100537421Y-74296976D01*
X100531967Y-74292033D01*
X100527024Y-74286579D01*
X100522640Y-74280668D01*
X100518856Y-74274355D01*
X100515709Y-74267701D01*
X100513229Y-74260771D01*
X100511441Y-74253632D01*
X100510361Y-74246351D01*
X100510000Y-74239000D01*
X100510000Y-74089000D01*
X100510361Y-74081649D01*
X100511441Y-74074368D01*
X100513229Y-74067229D01*
X100515709Y-74060299D01*
X100518856Y-74053645D01*
X100522640Y-74047332D01*
X100527024Y-74041421D01*
X100531967Y-74035967D01*
X100537421Y-74031024D01*
X100543332Y-74026640D01*
X100549645Y-74022856D01*
X100556299Y-74019709D01*
X100563229Y-74017229D01*
X100570368Y-74015441D01*
X100577649Y-74014361D01*
X100585000Y-74014000D01*
X101910000Y-74014000D01*
X101917351Y-74014361D01*
X101917351Y-74014361D01*
G37*
D12*
X101247500Y-74164000D03*
D11*
G36*
X101917351Y-73514361D02*
G01*
X101924632Y-73515441D01*
X101931771Y-73517229D01*
X101938701Y-73519709D01*
X101945355Y-73522856D01*
X101951668Y-73526640D01*
X101957579Y-73531024D01*
X101963033Y-73535967D01*
X101967976Y-73541421D01*
X101972360Y-73547332D01*
X101976144Y-73553645D01*
X101979291Y-73560299D01*
X101981771Y-73567229D01*
X101983559Y-73574368D01*
X101984639Y-73581649D01*
X101985000Y-73589000D01*
X101985000Y-73739000D01*
X101984639Y-73746351D01*
X101983559Y-73753632D01*
X101981771Y-73760771D01*
X101979291Y-73767701D01*
X101976144Y-73774355D01*
X101972360Y-73780668D01*
X101967976Y-73786579D01*
X101963033Y-73792033D01*
X101957579Y-73796976D01*
X101951668Y-73801360D01*
X101945355Y-73805144D01*
X101938701Y-73808291D01*
X101931771Y-73810771D01*
X101924632Y-73812559D01*
X101917351Y-73813639D01*
X101910000Y-73814000D01*
X100585000Y-73814000D01*
X100577649Y-73813639D01*
X100570368Y-73812559D01*
X100563229Y-73810771D01*
X100556299Y-73808291D01*
X100549645Y-73805144D01*
X100543332Y-73801360D01*
X100537421Y-73796976D01*
X100531967Y-73792033D01*
X100527024Y-73786579D01*
X100522640Y-73780668D01*
X100518856Y-73774355D01*
X100515709Y-73767701D01*
X100513229Y-73760771D01*
X100511441Y-73753632D01*
X100510361Y-73746351D01*
X100510000Y-73739000D01*
X100510000Y-73589000D01*
X100510361Y-73581649D01*
X100511441Y-73574368D01*
X100513229Y-73567229D01*
X100515709Y-73560299D01*
X100518856Y-73553645D01*
X100522640Y-73547332D01*
X100527024Y-73541421D01*
X100531967Y-73535967D01*
X100537421Y-73531024D01*
X100543332Y-73526640D01*
X100549645Y-73522856D01*
X100556299Y-73519709D01*
X100563229Y-73517229D01*
X100570368Y-73515441D01*
X100577649Y-73514361D01*
X100585000Y-73514000D01*
X101910000Y-73514000D01*
X101917351Y-73514361D01*
X101917351Y-73514361D01*
G37*
D12*
X101247500Y-73664000D03*
D11*
G36*
X101917351Y-73014361D02*
G01*
X101924632Y-73015441D01*
X101931771Y-73017229D01*
X101938701Y-73019709D01*
X101945355Y-73022856D01*
X101951668Y-73026640D01*
X101957579Y-73031024D01*
X101963033Y-73035967D01*
X101967976Y-73041421D01*
X101972360Y-73047332D01*
X101976144Y-73053645D01*
X101979291Y-73060299D01*
X101981771Y-73067229D01*
X101983559Y-73074368D01*
X101984639Y-73081649D01*
X101985000Y-73089000D01*
X101985000Y-73239000D01*
X101984639Y-73246351D01*
X101983559Y-73253632D01*
X101981771Y-73260771D01*
X101979291Y-73267701D01*
X101976144Y-73274355D01*
X101972360Y-73280668D01*
X101967976Y-73286579D01*
X101963033Y-73292033D01*
X101957579Y-73296976D01*
X101951668Y-73301360D01*
X101945355Y-73305144D01*
X101938701Y-73308291D01*
X101931771Y-73310771D01*
X101924632Y-73312559D01*
X101917351Y-73313639D01*
X101910000Y-73314000D01*
X100585000Y-73314000D01*
X100577649Y-73313639D01*
X100570368Y-73312559D01*
X100563229Y-73310771D01*
X100556299Y-73308291D01*
X100549645Y-73305144D01*
X100543332Y-73301360D01*
X100537421Y-73296976D01*
X100531967Y-73292033D01*
X100527024Y-73286579D01*
X100522640Y-73280668D01*
X100518856Y-73274355D01*
X100515709Y-73267701D01*
X100513229Y-73260771D01*
X100511441Y-73253632D01*
X100510361Y-73246351D01*
X100510000Y-73239000D01*
X100510000Y-73089000D01*
X100510361Y-73081649D01*
X100511441Y-73074368D01*
X100513229Y-73067229D01*
X100515709Y-73060299D01*
X100518856Y-73053645D01*
X100522640Y-73047332D01*
X100527024Y-73041421D01*
X100531967Y-73035967D01*
X100537421Y-73031024D01*
X100543332Y-73026640D01*
X100549645Y-73022856D01*
X100556299Y-73019709D01*
X100563229Y-73017229D01*
X100570368Y-73015441D01*
X100577649Y-73014361D01*
X100585000Y-73014000D01*
X101910000Y-73014000D01*
X101917351Y-73014361D01*
X101917351Y-73014361D01*
G37*
D12*
X101247500Y-73164000D03*
D11*
G36*
X101917351Y-72514361D02*
G01*
X101924632Y-72515441D01*
X101931771Y-72517229D01*
X101938701Y-72519709D01*
X101945355Y-72522856D01*
X101951668Y-72526640D01*
X101957579Y-72531024D01*
X101963033Y-72535967D01*
X101967976Y-72541421D01*
X101972360Y-72547332D01*
X101976144Y-72553645D01*
X101979291Y-72560299D01*
X101981771Y-72567229D01*
X101983559Y-72574368D01*
X101984639Y-72581649D01*
X101985000Y-72589000D01*
X101985000Y-72739000D01*
X101984639Y-72746351D01*
X101983559Y-72753632D01*
X101981771Y-72760771D01*
X101979291Y-72767701D01*
X101976144Y-72774355D01*
X101972360Y-72780668D01*
X101967976Y-72786579D01*
X101963033Y-72792033D01*
X101957579Y-72796976D01*
X101951668Y-72801360D01*
X101945355Y-72805144D01*
X101938701Y-72808291D01*
X101931771Y-72810771D01*
X101924632Y-72812559D01*
X101917351Y-72813639D01*
X101910000Y-72814000D01*
X100585000Y-72814000D01*
X100577649Y-72813639D01*
X100570368Y-72812559D01*
X100563229Y-72810771D01*
X100556299Y-72808291D01*
X100549645Y-72805144D01*
X100543332Y-72801360D01*
X100537421Y-72796976D01*
X100531967Y-72792033D01*
X100527024Y-72786579D01*
X100522640Y-72780668D01*
X100518856Y-72774355D01*
X100515709Y-72767701D01*
X100513229Y-72760771D01*
X100511441Y-72753632D01*
X100510361Y-72746351D01*
X100510000Y-72739000D01*
X100510000Y-72589000D01*
X100510361Y-72581649D01*
X100511441Y-72574368D01*
X100513229Y-72567229D01*
X100515709Y-72560299D01*
X100518856Y-72553645D01*
X100522640Y-72547332D01*
X100527024Y-72541421D01*
X100531967Y-72535967D01*
X100537421Y-72531024D01*
X100543332Y-72526640D01*
X100549645Y-72522856D01*
X100556299Y-72519709D01*
X100563229Y-72517229D01*
X100570368Y-72515441D01*
X100577649Y-72514361D01*
X100585000Y-72514000D01*
X101910000Y-72514000D01*
X101917351Y-72514361D01*
X101917351Y-72514361D01*
G37*
D12*
X101247500Y-72664000D03*
D11*
G36*
X101917351Y-72014361D02*
G01*
X101924632Y-72015441D01*
X101931771Y-72017229D01*
X101938701Y-72019709D01*
X101945355Y-72022856D01*
X101951668Y-72026640D01*
X101957579Y-72031024D01*
X101963033Y-72035967D01*
X101967976Y-72041421D01*
X101972360Y-72047332D01*
X101976144Y-72053645D01*
X101979291Y-72060299D01*
X101981771Y-72067229D01*
X101983559Y-72074368D01*
X101984639Y-72081649D01*
X101985000Y-72089000D01*
X101985000Y-72239000D01*
X101984639Y-72246351D01*
X101983559Y-72253632D01*
X101981771Y-72260771D01*
X101979291Y-72267701D01*
X101976144Y-72274355D01*
X101972360Y-72280668D01*
X101967976Y-72286579D01*
X101963033Y-72292033D01*
X101957579Y-72296976D01*
X101951668Y-72301360D01*
X101945355Y-72305144D01*
X101938701Y-72308291D01*
X101931771Y-72310771D01*
X101924632Y-72312559D01*
X101917351Y-72313639D01*
X101910000Y-72314000D01*
X100585000Y-72314000D01*
X100577649Y-72313639D01*
X100570368Y-72312559D01*
X100563229Y-72310771D01*
X100556299Y-72308291D01*
X100549645Y-72305144D01*
X100543332Y-72301360D01*
X100537421Y-72296976D01*
X100531967Y-72292033D01*
X100527024Y-72286579D01*
X100522640Y-72280668D01*
X100518856Y-72274355D01*
X100515709Y-72267701D01*
X100513229Y-72260771D01*
X100511441Y-72253632D01*
X100510361Y-72246351D01*
X100510000Y-72239000D01*
X100510000Y-72089000D01*
X100510361Y-72081649D01*
X100511441Y-72074368D01*
X100513229Y-72067229D01*
X100515709Y-72060299D01*
X100518856Y-72053645D01*
X100522640Y-72047332D01*
X100527024Y-72041421D01*
X100531967Y-72035967D01*
X100537421Y-72031024D01*
X100543332Y-72026640D01*
X100549645Y-72022856D01*
X100556299Y-72019709D01*
X100563229Y-72017229D01*
X100570368Y-72015441D01*
X100577649Y-72014361D01*
X100585000Y-72014000D01*
X101910000Y-72014000D01*
X101917351Y-72014361D01*
X101917351Y-72014361D01*
G37*
D12*
X101247500Y-72164000D03*
D11*
G36*
X101917351Y-71514361D02*
G01*
X101924632Y-71515441D01*
X101931771Y-71517229D01*
X101938701Y-71519709D01*
X101945355Y-71522856D01*
X101951668Y-71526640D01*
X101957579Y-71531024D01*
X101963033Y-71535967D01*
X101967976Y-71541421D01*
X101972360Y-71547332D01*
X101976144Y-71553645D01*
X101979291Y-71560299D01*
X101981771Y-71567229D01*
X101983559Y-71574368D01*
X101984639Y-71581649D01*
X101985000Y-71589000D01*
X101985000Y-71739000D01*
X101984639Y-71746351D01*
X101983559Y-71753632D01*
X101981771Y-71760771D01*
X101979291Y-71767701D01*
X101976144Y-71774355D01*
X101972360Y-71780668D01*
X101967976Y-71786579D01*
X101963033Y-71792033D01*
X101957579Y-71796976D01*
X101951668Y-71801360D01*
X101945355Y-71805144D01*
X101938701Y-71808291D01*
X101931771Y-71810771D01*
X101924632Y-71812559D01*
X101917351Y-71813639D01*
X101910000Y-71814000D01*
X100585000Y-71814000D01*
X100577649Y-71813639D01*
X100570368Y-71812559D01*
X100563229Y-71810771D01*
X100556299Y-71808291D01*
X100549645Y-71805144D01*
X100543332Y-71801360D01*
X100537421Y-71796976D01*
X100531967Y-71792033D01*
X100527024Y-71786579D01*
X100522640Y-71780668D01*
X100518856Y-71774355D01*
X100515709Y-71767701D01*
X100513229Y-71760771D01*
X100511441Y-71753632D01*
X100510361Y-71746351D01*
X100510000Y-71739000D01*
X100510000Y-71589000D01*
X100510361Y-71581649D01*
X100511441Y-71574368D01*
X100513229Y-71567229D01*
X100515709Y-71560299D01*
X100518856Y-71553645D01*
X100522640Y-71547332D01*
X100527024Y-71541421D01*
X100531967Y-71535967D01*
X100537421Y-71531024D01*
X100543332Y-71526640D01*
X100549645Y-71522856D01*
X100556299Y-71519709D01*
X100563229Y-71517229D01*
X100570368Y-71515441D01*
X100577649Y-71514361D01*
X100585000Y-71514000D01*
X101910000Y-71514000D01*
X101917351Y-71514361D01*
X101917351Y-71514361D01*
G37*
D12*
X101247500Y-71664000D03*
D11*
G36*
X101917351Y-71014361D02*
G01*
X101924632Y-71015441D01*
X101931771Y-71017229D01*
X101938701Y-71019709D01*
X101945355Y-71022856D01*
X101951668Y-71026640D01*
X101957579Y-71031024D01*
X101963033Y-71035967D01*
X101967976Y-71041421D01*
X101972360Y-71047332D01*
X101976144Y-71053645D01*
X101979291Y-71060299D01*
X101981771Y-71067229D01*
X101983559Y-71074368D01*
X101984639Y-71081649D01*
X101985000Y-71089000D01*
X101985000Y-71239000D01*
X101984639Y-71246351D01*
X101983559Y-71253632D01*
X101981771Y-71260771D01*
X101979291Y-71267701D01*
X101976144Y-71274355D01*
X101972360Y-71280668D01*
X101967976Y-71286579D01*
X101963033Y-71292033D01*
X101957579Y-71296976D01*
X101951668Y-71301360D01*
X101945355Y-71305144D01*
X101938701Y-71308291D01*
X101931771Y-71310771D01*
X101924632Y-71312559D01*
X101917351Y-71313639D01*
X101910000Y-71314000D01*
X100585000Y-71314000D01*
X100577649Y-71313639D01*
X100570368Y-71312559D01*
X100563229Y-71310771D01*
X100556299Y-71308291D01*
X100549645Y-71305144D01*
X100543332Y-71301360D01*
X100537421Y-71296976D01*
X100531967Y-71292033D01*
X100527024Y-71286579D01*
X100522640Y-71280668D01*
X100518856Y-71274355D01*
X100515709Y-71267701D01*
X100513229Y-71260771D01*
X100511441Y-71253632D01*
X100510361Y-71246351D01*
X100510000Y-71239000D01*
X100510000Y-71089000D01*
X100510361Y-71081649D01*
X100511441Y-71074368D01*
X100513229Y-71067229D01*
X100515709Y-71060299D01*
X100518856Y-71053645D01*
X100522640Y-71047332D01*
X100527024Y-71041421D01*
X100531967Y-71035967D01*
X100537421Y-71031024D01*
X100543332Y-71026640D01*
X100549645Y-71022856D01*
X100556299Y-71019709D01*
X100563229Y-71017229D01*
X100570368Y-71015441D01*
X100577649Y-71014361D01*
X100585000Y-71014000D01*
X101910000Y-71014000D01*
X101917351Y-71014361D01*
X101917351Y-71014361D01*
G37*
D12*
X101247500Y-71164000D03*
D11*
G36*
X102742351Y-69014361D02*
G01*
X102749632Y-69015441D01*
X102756771Y-69017229D01*
X102763701Y-69019709D01*
X102770355Y-69022856D01*
X102776668Y-69026640D01*
X102782579Y-69031024D01*
X102788033Y-69035967D01*
X102792976Y-69041421D01*
X102797360Y-69047332D01*
X102801144Y-69053645D01*
X102804291Y-69060299D01*
X102806771Y-69067229D01*
X102808559Y-69074368D01*
X102809639Y-69081649D01*
X102810000Y-69089000D01*
X102810000Y-70414000D01*
X102809639Y-70421351D01*
X102808559Y-70428632D01*
X102806771Y-70435771D01*
X102804291Y-70442701D01*
X102801144Y-70449355D01*
X102797360Y-70455668D01*
X102792976Y-70461579D01*
X102788033Y-70467033D01*
X102782579Y-70471976D01*
X102776668Y-70476360D01*
X102770355Y-70480144D01*
X102763701Y-70483291D01*
X102756771Y-70485771D01*
X102749632Y-70487559D01*
X102742351Y-70488639D01*
X102735000Y-70489000D01*
X102585000Y-70489000D01*
X102577649Y-70488639D01*
X102570368Y-70487559D01*
X102563229Y-70485771D01*
X102556299Y-70483291D01*
X102549645Y-70480144D01*
X102543332Y-70476360D01*
X102537421Y-70471976D01*
X102531967Y-70467033D01*
X102527024Y-70461579D01*
X102522640Y-70455668D01*
X102518856Y-70449355D01*
X102515709Y-70442701D01*
X102513229Y-70435771D01*
X102511441Y-70428632D01*
X102510361Y-70421351D01*
X102510000Y-70414000D01*
X102510000Y-69089000D01*
X102510361Y-69081649D01*
X102511441Y-69074368D01*
X102513229Y-69067229D01*
X102515709Y-69060299D01*
X102518856Y-69053645D01*
X102522640Y-69047332D01*
X102527024Y-69041421D01*
X102531967Y-69035967D01*
X102537421Y-69031024D01*
X102543332Y-69026640D01*
X102549645Y-69022856D01*
X102556299Y-69019709D01*
X102563229Y-69017229D01*
X102570368Y-69015441D01*
X102577649Y-69014361D01*
X102585000Y-69014000D01*
X102735000Y-69014000D01*
X102742351Y-69014361D01*
X102742351Y-69014361D01*
G37*
D12*
X102660000Y-69751500D03*
D11*
G36*
X103242351Y-69014361D02*
G01*
X103249632Y-69015441D01*
X103256771Y-69017229D01*
X103263701Y-69019709D01*
X103270355Y-69022856D01*
X103276668Y-69026640D01*
X103282579Y-69031024D01*
X103288033Y-69035967D01*
X103292976Y-69041421D01*
X103297360Y-69047332D01*
X103301144Y-69053645D01*
X103304291Y-69060299D01*
X103306771Y-69067229D01*
X103308559Y-69074368D01*
X103309639Y-69081649D01*
X103310000Y-69089000D01*
X103310000Y-70414000D01*
X103309639Y-70421351D01*
X103308559Y-70428632D01*
X103306771Y-70435771D01*
X103304291Y-70442701D01*
X103301144Y-70449355D01*
X103297360Y-70455668D01*
X103292976Y-70461579D01*
X103288033Y-70467033D01*
X103282579Y-70471976D01*
X103276668Y-70476360D01*
X103270355Y-70480144D01*
X103263701Y-70483291D01*
X103256771Y-70485771D01*
X103249632Y-70487559D01*
X103242351Y-70488639D01*
X103235000Y-70489000D01*
X103085000Y-70489000D01*
X103077649Y-70488639D01*
X103070368Y-70487559D01*
X103063229Y-70485771D01*
X103056299Y-70483291D01*
X103049645Y-70480144D01*
X103043332Y-70476360D01*
X103037421Y-70471976D01*
X103031967Y-70467033D01*
X103027024Y-70461579D01*
X103022640Y-70455668D01*
X103018856Y-70449355D01*
X103015709Y-70442701D01*
X103013229Y-70435771D01*
X103011441Y-70428632D01*
X103010361Y-70421351D01*
X103010000Y-70414000D01*
X103010000Y-69089000D01*
X103010361Y-69081649D01*
X103011441Y-69074368D01*
X103013229Y-69067229D01*
X103015709Y-69060299D01*
X103018856Y-69053645D01*
X103022640Y-69047332D01*
X103027024Y-69041421D01*
X103031967Y-69035967D01*
X103037421Y-69031024D01*
X103043332Y-69026640D01*
X103049645Y-69022856D01*
X103056299Y-69019709D01*
X103063229Y-69017229D01*
X103070368Y-69015441D01*
X103077649Y-69014361D01*
X103085000Y-69014000D01*
X103235000Y-69014000D01*
X103242351Y-69014361D01*
X103242351Y-69014361D01*
G37*
D12*
X103160000Y-69751500D03*
D11*
G36*
X103742351Y-69014361D02*
G01*
X103749632Y-69015441D01*
X103756771Y-69017229D01*
X103763701Y-69019709D01*
X103770355Y-69022856D01*
X103776668Y-69026640D01*
X103782579Y-69031024D01*
X103788033Y-69035967D01*
X103792976Y-69041421D01*
X103797360Y-69047332D01*
X103801144Y-69053645D01*
X103804291Y-69060299D01*
X103806771Y-69067229D01*
X103808559Y-69074368D01*
X103809639Y-69081649D01*
X103810000Y-69089000D01*
X103810000Y-70414000D01*
X103809639Y-70421351D01*
X103808559Y-70428632D01*
X103806771Y-70435771D01*
X103804291Y-70442701D01*
X103801144Y-70449355D01*
X103797360Y-70455668D01*
X103792976Y-70461579D01*
X103788033Y-70467033D01*
X103782579Y-70471976D01*
X103776668Y-70476360D01*
X103770355Y-70480144D01*
X103763701Y-70483291D01*
X103756771Y-70485771D01*
X103749632Y-70487559D01*
X103742351Y-70488639D01*
X103735000Y-70489000D01*
X103585000Y-70489000D01*
X103577649Y-70488639D01*
X103570368Y-70487559D01*
X103563229Y-70485771D01*
X103556299Y-70483291D01*
X103549645Y-70480144D01*
X103543332Y-70476360D01*
X103537421Y-70471976D01*
X103531967Y-70467033D01*
X103527024Y-70461579D01*
X103522640Y-70455668D01*
X103518856Y-70449355D01*
X103515709Y-70442701D01*
X103513229Y-70435771D01*
X103511441Y-70428632D01*
X103510361Y-70421351D01*
X103510000Y-70414000D01*
X103510000Y-69089000D01*
X103510361Y-69081649D01*
X103511441Y-69074368D01*
X103513229Y-69067229D01*
X103515709Y-69060299D01*
X103518856Y-69053645D01*
X103522640Y-69047332D01*
X103527024Y-69041421D01*
X103531967Y-69035967D01*
X103537421Y-69031024D01*
X103543332Y-69026640D01*
X103549645Y-69022856D01*
X103556299Y-69019709D01*
X103563229Y-69017229D01*
X103570368Y-69015441D01*
X103577649Y-69014361D01*
X103585000Y-69014000D01*
X103735000Y-69014000D01*
X103742351Y-69014361D01*
X103742351Y-69014361D01*
G37*
D12*
X103660000Y-69751500D03*
D11*
G36*
X104242351Y-69014361D02*
G01*
X104249632Y-69015441D01*
X104256771Y-69017229D01*
X104263701Y-69019709D01*
X104270355Y-69022856D01*
X104276668Y-69026640D01*
X104282579Y-69031024D01*
X104288033Y-69035967D01*
X104292976Y-69041421D01*
X104297360Y-69047332D01*
X104301144Y-69053645D01*
X104304291Y-69060299D01*
X104306771Y-69067229D01*
X104308559Y-69074368D01*
X104309639Y-69081649D01*
X104310000Y-69089000D01*
X104310000Y-70414000D01*
X104309639Y-70421351D01*
X104308559Y-70428632D01*
X104306771Y-70435771D01*
X104304291Y-70442701D01*
X104301144Y-70449355D01*
X104297360Y-70455668D01*
X104292976Y-70461579D01*
X104288033Y-70467033D01*
X104282579Y-70471976D01*
X104276668Y-70476360D01*
X104270355Y-70480144D01*
X104263701Y-70483291D01*
X104256771Y-70485771D01*
X104249632Y-70487559D01*
X104242351Y-70488639D01*
X104235000Y-70489000D01*
X104085000Y-70489000D01*
X104077649Y-70488639D01*
X104070368Y-70487559D01*
X104063229Y-70485771D01*
X104056299Y-70483291D01*
X104049645Y-70480144D01*
X104043332Y-70476360D01*
X104037421Y-70471976D01*
X104031967Y-70467033D01*
X104027024Y-70461579D01*
X104022640Y-70455668D01*
X104018856Y-70449355D01*
X104015709Y-70442701D01*
X104013229Y-70435771D01*
X104011441Y-70428632D01*
X104010361Y-70421351D01*
X104010000Y-70414000D01*
X104010000Y-69089000D01*
X104010361Y-69081649D01*
X104011441Y-69074368D01*
X104013229Y-69067229D01*
X104015709Y-69060299D01*
X104018856Y-69053645D01*
X104022640Y-69047332D01*
X104027024Y-69041421D01*
X104031967Y-69035967D01*
X104037421Y-69031024D01*
X104043332Y-69026640D01*
X104049645Y-69022856D01*
X104056299Y-69019709D01*
X104063229Y-69017229D01*
X104070368Y-69015441D01*
X104077649Y-69014361D01*
X104085000Y-69014000D01*
X104235000Y-69014000D01*
X104242351Y-69014361D01*
X104242351Y-69014361D01*
G37*
D12*
X104160000Y-69751500D03*
D11*
G36*
X104742351Y-69014361D02*
G01*
X104749632Y-69015441D01*
X104756771Y-69017229D01*
X104763701Y-69019709D01*
X104770355Y-69022856D01*
X104776668Y-69026640D01*
X104782579Y-69031024D01*
X104788033Y-69035967D01*
X104792976Y-69041421D01*
X104797360Y-69047332D01*
X104801144Y-69053645D01*
X104804291Y-69060299D01*
X104806771Y-69067229D01*
X104808559Y-69074368D01*
X104809639Y-69081649D01*
X104810000Y-69089000D01*
X104810000Y-70414000D01*
X104809639Y-70421351D01*
X104808559Y-70428632D01*
X104806771Y-70435771D01*
X104804291Y-70442701D01*
X104801144Y-70449355D01*
X104797360Y-70455668D01*
X104792976Y-70461579D01*
X104788033Y-70467033D01*
X104782579Y-70471976D01*
X104776668Y-70476360D01*
X104770355Y-70480144D01*
X104763701Y-70483291D01*
X104756771Y-70485771D01*
X104749632Y-70487559D01*
X104742351Y-70488639D01*
X104735000Y-70489000D01*
X104585000Y-70489000D01*
X104577649Y-70488639D01*
X104570368Y-70487559D01*
X104563229Y-70485771D01*
X104556299Y-70483291D01*
X104549645Y-70480144D01*
X104543332Y-70476360D01*
X104537421Y-70471976D01*
X104531967Y-70467033D01*
X104527024Y-70461579D01*
X104522640Y-70455668D01*
X104518856Y-70449355D01*
X104515709Y-70442701D01*
X104513229Y-70435771D01*
X104511441Y-70428632D01*
X104510361Y-70421351D01*
X104510000Y-70414000D01*
X104510000Y-69089000D01*
X104510361Y-69081649D01*
X104511441Y-69074368D01*
X104513229Y-69067229D01*
X104515709Y-69060299D01*
X104518856Y-69053645D01*
X104522640Y-69047332D01*
X104527024Y-69041421D01*
X104531967Y-69035967D01*
X104537421Y-69031024D01*
X104543332Y-69026640D01*
X104549645Y-69022856D01*
X104556299Y-69019709D01*
X104563229Y-69017229D01*
X104570368Y-69015441D01*
X104577649Y-69014361D01*
X104585000Y-69014000D01*
X104735000Y-69014000D01*
X104742351Y-69014361D01*
X104742351Y-69014361D01*
G37*
D12*
X104660000Y-69751500D03*
D11*
G36*
X105242351Y-69014361D02*
G01*
X105249632Y-69015441D01*
X105256771Y-69017229D01*
X105263701Y-69019709D01*
X105270355Y-69022856D01*
X105276668Y-69026640D01*
X105282579Y-69031024D01*
X105288033Y-69035967D01*
X105292976Y-69041421D01*
X105297360Y-69047332D01*
X105301144Y-69053645D01*
X105304291Y-69060299D01*
X105306771Y-69067229D01*
X105308559Y-69074368D01*
X105309639Y-69081649D01*
X105310000Y-69089000D01*
X105310000Y-70414000D01*
X105309639Y-70421351D01*
X105308559Y-70428632D01*
X105306771Y-70435771D01*
X105304291Y-70442701D01*
X105301144Y-70449355D01*
X105297360Y-70455668D01*
X105292976Y-70461579D01*
X105288033Y-70467033D01*
X105282579Y-70471976D01*
X105276668Y-70476360D01*
X105270355Y-70480144D01*
X105263701Y-70483291D01*
X105256771Y-70485771D01*
X105249632Y-70487559D01*
X105242351Y-70488639D01*
X105235000Y-70489000D01*
X105085000Y-70489000D01*
X105077649Y-70488639D01*
X105070368Y-70487559D01*
X105063229Y-70485771D01*
X105056299Y-70483291D01*
X105049645Y-70480144D01*
X105043332Y-70476360D01*
X105037421Y-70471976D01*
X105031967Y-70467033D01*
X105027024Y-70461579D01*
X105022640Y-70455668D01*
X105018856Y-70449355D01*
X105015709Y-70442701D01*
X105013229Y-70435771D01*
X105011441Y-70428632D01*
X105010361Y-70421351D01*
X105010000Y-70414000D01*
X105010000Y-69089000D01*
X105010361Y-69081649D01*
X105011441Y-69074368D01*
X105013229Y-69067229D01*
X105015709Y-69060299D01*
X105018856Y-69053645D01*
X105022640Y-69047332D01*
X105027024Y-69041421D01*
X105031967Y-69035967D01*
X105037421Y-69031024D01*
X105043332Y-69026640D01*
X105049645Y-69022856D01*
X105056299Y-69019709D01*
X105063229Y-69017229D01*
X105070368Y-69015441D01*
X105077649Y-69014361D01*
X105085000Y-69014000D01*
X105235000Y-69014000D01*
X105242351Y-69014361D01*
X105242351Y-69014361D01*
G37*
D12*
X105160000Y-69751500D03*
D11*
G36*
X105742351Y-69014361D02*
G01*
X105749632Y-69015441D01*
X105756771Y-69017229D01*
X105763701Y-69019709D01*
X105770355Y-69022856D01*
X105776668Y-69026640D01*
X105782579Y-69031024D01*
X105788033Y-69035967D01*
X105792976Y-69041421D01*
X105797360Y-69047332D01*
X105801144Y-69053645D01*
X105804291Y-69060299D01*
X105806771Y-69067229D01*
X105808559Y-69074368D01*
X105809639Y-69081649D01*
X105810000Y-69089000D01*
X105810000Y-70414000D01*
X105809639Y-70421351D01*
X105808559Y-70428632D01*
X105806771Y-70435771D01*
X105804291Y-70442701D01*
X105801144Y-70449355D01*
X105797360Y-70455668D01*
X105792976Y-70461579D01*
X105788033Y-70467033D01*
X105782579Y-70471976D01*
X105776668Y-70476360D01*
X105770355Y-70480144D01*
X105763701Y-70483291D01*
X105756771Y-70485771D01*
X105749632Y-70487559D01*
X105742351Y-70488639D01*
X105735000Y-70489000D01*
X105585000Y-70489000D01*
X105577649Y-70488639D01*
X105570368Y-70487559D01*
X105563229Y-70485771D01*
X105556299Y-70483291D01*
X105549645Y-70480144D01*
X105543332Y-70476360D01*
X105537421Y-70471976D01*
X105531967Y-70467033D01*
X105527024Y-70461579D01*
X105522640Y-70455668D01*
X105518856Y-70449355D01*
X105515709Y-70442701D01*
X105513229Y-70435771D01*
X105511441Y-70428632D01*
X105510361Y-70421351D01*
X105510000Y-70414000D01*
X105510000Y-69089000D01*
X105510361Y-69081649D01*
X105511441Y-69074368D01*
X105513229Y-69067229D01*
X105515709Y-69060299D01*
X105518856Y-69053645D01*
X105522640Y-69047332D01*
X105527024Y-69041421D01*
X105531967Y-69035967D01*
X105537421Y-69031024D01*
X105543332Y-69026640D01*
X105549645Y-69022856D01*
X105556299Y-69019709D01*
X105563229Y-69017229D01*
X105570368Y-69015441D01*
X105577649Y-69014361D01*
X105585000Y-69014000D01*
X105735000Y-69014000D01*
X105742351Y-69014361D01*
X105742351Y-69014361D01*
G37*
D12*
X105660000Y-69751500D03*
D11*
G36*
X106242351Y-69014361D02*
G01*
X106249632Y-69015441D01*
X106256771Y-69017229D01*
X106263701Y-69019709D01*
X106270355Y-69022856D01*
X106276668Y-69026640D01*
X106282579Y-69031024D01*
X106288033Y-69035967D01*
X106292976Y-69041421D01*
X106297360Y-69047332D01*
X106301144Y-69053645D01*
X106304291Y-69060299D01*
X106306771Y-69067229D01*
X106308559Y-69074368D01*
X106309639Y-69081649D01*
X106310000Y-69089000D01*
X106310000Y-70414000D01*
X106309639Y-70421351D01*
X106308559Y-70428632D01*
X106306771Y-70435771D01*
X106304291Y-70442701D01*
X106301144Y-70449355D01*
X106297360Y-70455668D01*
X106292976Y-70461579D01*
X106288033Y-70467033D01*
X106282579Y-70471976D01*
X106276668Y-70476360D01*
X106270355Y-70480144D01*
X106263701Y-70483291D01*
X106256771Y-70485771D01*
X106249632Y-70487559D01*
X106242351Y-70488639D01*
X106235000Y-70489000D01*
X106085000Y-70489000D01*
X106077649Y-70488639D01*
X106070368Y-70487559D01*
X106063229Y-70485771D01*
X106056299Y-70483291D01*
X106049645Y-70480144D01*
X106043332Y-70476360D01*
X106037421Y-70471976D01*
X106031967Y-70467033D01*
X106027024Y-70461579D01*
X106022640Y-70455668D01*
X106018856Y-70449355D01*
X106015709Y-70442701D01*
X106013229Y-70435771D01*
X106011441Y-70428632D01*
X106010361Y-70421351D01*
X106010000Y-70414000D01*
X106010000Y-69089000D01*
X106010361Y-69081649D01*
X106011441Y-69074368D01*
X106013229Y-69067229D01*
X106015709Y-69060299D01*
X106018856Y-69053645D01*
X106022640Y-69047332D01*
X106027024Y-69041421D01*
X106031967Y-69035967D01*
X106037421Y-69031024D01*
X106043332Y-69026640D01*
X106049645Y-69022856D01*
X106056299Y-69019709D01*
X106063229Y-69017229D01*
X106070368Y-69015441D01*
X106077649Y-69014361D01*
X106085000Y-69014000D01*
X106235000Y-69014000D01*
X106242351Y-69014361D01*
X106242351Y-69014361D01*
G37*
D12*
X106160000Y-69751500D03*
D11*
G36*
X106742351Y-69014361D02*
G01*
X106749632Y-69015441D01*
X106756771Y-69017229D01*
X106763701Y-69019709D01*
X106770355Y-69022856D01*
X106776668Y-69026640D01*
X106782579Y-69031024D01*
X106788033Y-69035967D01*
X106792976Y-69041421D01*
X106797360Y-69047332D01*
X106801144Y-69053645D01*
X106804291Y-69060299D01*
X106806771Y-69067229D01*
X106808559Y-69074368D01*
X106809639Y-69081649D01*
X106810000Y-69089000D01*
X106810000Y-70414000D01*
X106809639Y-70421351D01*
X106808559Y-70428632D01*
X106806771Y-70435771D01*
X106804291Y-70442701D01*
X106801144Y-70449355D01*
X106797360Y-70455668D01*
X106792976Y-70461579D01*
X106788033Y-70467033D01*
X106782579Y-70471976D01*
X106776668Y-70476360D01*
X106770355Y-70480144D01*
X106763701Y-70483291D01*
X106756771Y-70485771D01*
X106749632Y-70487559D01*
X106742351Y-70488639D01*
X106735000Y-70489000D01*
X106585000Y-70489000D01*
X106577649Y-70488639D01*
X106570368Y-70487559D01*
X106563229Y-70485771D01*
X106556299Y-70483291D01*
X106549645Y-70480144D01*
X106543332Y-70476360D01*
X106537421Y-70471976D01*
X106531967Y-70467033D01*
X106527024Y-70461579D01*
X106522640Y-70455668D01*
X106518856Y-70449355D01*
X106515709Y-70442701D01*
X106513229Y-70435771D01*
X106511441Y-70428632D01*
X106510361Y-70421351D01*
X106510000Y-70414000D01*
X106510000Y-69089000D01*
X106510361Y-69081649D01*
X106511441Y-69074368D01*
X106513229Y-69067229D01*
X106515709Y-69060299D01*
X106518856Y-69053645D01*
X106522640Y-69047332D01*
X106527024Y-69041421D01*
X106531967Y-69035967D01*
X106537421Y-69031024D01*
X106543332Y-69026640D01*
X106549645Y-69022856D01*
X106556299Y-69019709D01*
X106563229Y-69017229D01*
X106570368Y-69015441D01*
X106577649Y-69014361D01*
X106585000Y-69014000D01*
X106735000Y-69014000D01*
X106742351Y-69014361D01*
X106742351Y-69014361D01*
G37*
D12*
X106660000Y-69751500D03*
D11*
G36*
X107242351Y-69014361D02*
G01*
X107249632Y-69015441D01*
X107256771Y-69017229D01*
X107263701Y-69019709D01*
X107270355Y-69022856D01*
X107276668Y-69026640D01*
X107282579Y-69031024D01*
X107288033Y-69035967D01*
X107292976Y-69041421D01*
X107297360Y-69047332D01*
X107301144Y-69053645D01*
X107304291Y-69060299D01*
X107306771Y-69067229D01*
X107308559Y-69074368D01*
X107309639Y-69081649D01*
X107310000Y-69089000D01*
X107310000Y-70414000D01*
X107309639Y-70421351D01*
X107308559Y-70428632D01*
X107306771Y-70435771D01*
X107304291Y-70442701D01*
X107301144Y-70449355D01*
X107297360Y-70455668D01*
X107292976Y-70461579D01*
X107288033Y-70467033D01*
X107282579Y-70471976D01*
X107276668Y-70476360D01*
X107270355Y-70480144D01*
X107263701Y-70483291D01*
X107256771Y-70485771D01*
X107249632Y-70487559D01*
X107242351Y-70488639D01*
X107235000Y-70489000D01*
X107085000Y-70489000D01*
X107077649Y-70488639D01*
X107070368Y-70487559D01*
X107063229Y-70485771D01*
X107056299Y-70483291D01*
X107049645Y-70480144D01*
X107043332Y-70476360D01*
X107037421Y-70471976D01*
X107031967Y-70467033D01*
X107027024Y-70461579D01*
X107022640Y-70455668D01*
X107018856Y-70449355D01*
X107015709Y-70442701D01*
X107013229Y-70435771D01*
X107011441Y-70428632D01*
X107010361Y-70421351D01*
X107010000Y-70414000D01*
X107010000Y-69089000D01*
X107010361Y-69081649D01*
X107011441Y-69074368D01*
X107013229Y-69067229D01*
X107015709Y-69060299D01*
X107018856Y-69053645D01*
X107022640Y-69047332D01*
X107027024Y-69041421D01*
X107031967Y-69035967D01*
X107037421Y-69031024D01*
X107043332Y-69026640D01*
X107049645Y-69022856D01*
X107056299Y-69019709D01*
X107063229Y-69017229D01*
X107070368Y-69015441D01*
X107077649Y-69014361D01*
X107085000Y-69014000D01*
X107235000Y-69014000D01*
X107242351Y-69014361D01*
X107242351Y-69014361D01*
G37*
D12*
X107160000Y-69751500D03*
D11*
G36*
X107742351Y-69014361D02*
G01*
X107749632Y-69015441D01*
X107756771Y-69017229D01*
X107763701Y-69019709D01*
X107770355Y-69022856D01*
X107776668Y-69026640D01*
X107782579Y-69031024D01*
X107788033Y-69035967D01*
X107792976Y-69041421D01*
X107797360Y-69047332D01*
X107801144Y-69053645D01*
X107804291Y-69060299D01*
X107806771Y-69067229D01*
X107808559Y-69074368D01*
X107809639Y-69081649D01*
X107810000Y-69089000D01*
X107810000Y-70414000D01*
X107809639Y-70421351D01*
X107808559Y-70428632D01*
X107806771Y-70435771D01*
X107804291Y-70442701D01*
X107801144Y-70449355D01*
X107797360Y-70455668D01*
X107792976Y-70461579D01*
X107788033Y-70467033D01*
X107782579Y-70471976D01*
X107776668Y-70476360D01*
X107770355Y-70480144D01*
X107763701Y-70483291D01*
X107756771Y-70485771D01*
X107749632Y-70487559D01*
X107742351Y-70488639D01*
X107735000Y-70489000D01*
X107585000Y-70489000D01*
X107577649Y-70488639D01*
X107570368Y-70487559D01*
X107563229Y-70485771D01*
X107556299Y-70483291D01*
X107549645Y-70480144D01*
X107543332Y-70476360D01*
X107537421Y-70471976D01*
X107531967Y-70467033D01*
X107527024Y-70461579D01*
X107522640Y-70455668D01*
X107518856Y-70449355D01*
X107515709Y-70442701D01*
X107513229Y-70435771D01*
X107511441Y-70428632D01*
X107510361Y-70421351D01*
X107510000Y-70414000D01*
X107510000Y-69089000D01*
X107510361Y-69081649D01*
X107511441Y-69074368D01*
X107513229Y-69067229D01*
X107515709Y-69060299D01*
X107518856Y-69053645D01*
X107522640Y-69047332D01*
X107527024Y-69041421D01*
X107531967Y-69035967D01*
X107537421Y-69031024D01*
X107543332Y-69026640D01*
X107549645Y-69022856D01*
X107556299Y-69019709D01*
X107563229Y-69017229D01*
X107570368Y-69015441D01*
X107577649Y-69014361D01*
X107585000Y-69014000D01*
X107735000Y-69014000D01*
X107742351Y-69014361D01*
X107742351Y-69014361D01*
G37*
D12*
X107660000Y-69751500D03*
D11*
G36*
X108242351Y-69014361D02*
G01*
X108249632Y-69015441D01*
X108256771Y-69017229D01*
X108263701Y-69019709D01*
X108270355Y-69022856D01*
X108276668Y-69026640D01*
X108282579Y-69031024D01*
X108288033Y-69035967D01*
X108292976Y-69041421D01*
X108297360Y-69047332D01*
X108301144Y-69053645D01*
X108304291Y-69060299D01*
X108306771Y-69067229D01*
X108308559Y-69074368D01*
X108309639Y-69081649D01*
X108310000Y-69089000D01*
X108310000Y-70414000D01*
X108309639Y-70421351D01*
X108308559Y-70428632D01*
X108306771Y-70435771D01*
X108304291Y-70442701D01*
X108301144Y-70449355D01*
X108297360Y-70455668D01*
X108292976Y-70461579D01*
X108288033Y-70467033D01*
X108282579Y-70471976D01*
X108276668Y-70476360D01*
X108270355Y-70480144D01*
X108263701Y-70483291D01*
X108256771Y-70485771D01*
X108249632Y-70487559D01*
X108242351Y-70488639D01*
X108235000Y-70489000D01*
X108085000Y-70489000D01*
X108077649Y-70488639D01*
X108070368Y-70487559D01*
X108063229Y-70485771D01*
X108056299Y-70483291D01*
X108049645Y-70480144D01*
X108043332Y-70476360D01*
X108037421Y-70471976D01*
X108031967Y-70467033D01*
X108027024Y-70461579D01*
X108022640Y-70455668D01*
X108018856Y-70449355D01*
X108015709Y-70442701D01*
X108013229Y-70435771D01*
X108011441Y-70428632D01*
X108010361Y-70421351D01*
X108010000Y-70414000D01*
X108010000Y-69089000D01*
X108010361Y-69081649D01*
X108011441Y-69074368D01*
X108013229Y-69067229D01*
X108015709Y-69060299D01*
X108018856Y-69053645D01*
X108022640Y-69047332D01*
X108027024Y-69041421D01*
X108031967Y-69035967D01*
X108037421Y-69031024D01*
X108043332Y-69026640D01*
X108049645Y-69022856D01*
X108056299Y-69019709D01*
X108063229Y-69017229D01*
X108070368Y-69015441D01*
X108077649Y-69014361D01*
X108085000Y-69014000D01*
X108235000Y-69014000D01*
X108242351Y-69014361D01*
X108242351Y-69014361D01*
G37*
D12*
X108160000Y-69751500D03*
D11*
G36*
X110242351Y-71014361D02*
G01*
X110249632Y-71015441D01*
X110256771Y-71017229D01*
X110263701Y-71019709D01*
X110270355Y-71022856D01*
X110276668Y-71026640D01*
X110282579Y-71031024D01*
X110288033Y-71035967D01*
X110292976Y-71041421D01*
X110297360Y-71047332D01*
X110301144Y-71053645D01*
X110304291Y-71060299D01*
X110306771Y-71067229D01*
X110308559Y-71074368D01*
X110309639Y-71081649D01*
X110310000Y-71089000D01*
X110310000Y-71239000D01*
X110309639Y-71246351D01*
X110308559Y-71253632D01*
X110306771Y-71260771D01*
X110304291Y-71267701D01*
X110301144Y-71274355D01*
X110297360Y-71280668D01*
X110292976Y-71286579D01*
X110288033Y-71292033D01*
X110282579Y-71296976D01*
X110276668Y-71301360D01*
X110270355Y-71305144D01*
X110263701Y-71308291D01*
X110256771Y-71310771D01*
X110249632Y-71312559D01*
X110242351Y-71313639D01*
X110235000Y-71314000D01*
X108910000Y-71314000D01*
X108902649Y-71313639D01*
X108895368Y-71312559D01*
X108888229Y-71310771D01*
X108881299Y-71308291D01*
X108874645Y-71305144D01*
X108868332Y-71301360D01*
X108862421Y-71296976D01*
X108856967Y-71292033D01*
X108852024Y-71286579D01*
X108847640Y-71280668D01*
X108843856Y-71274355D01*
X108840709Y-71267701D01*
X108838229Y-71260771D01*
X108836441Y-71253632D01*
X108835361Y-71246351D01*
X108835000Y-71239000D01*
X108835000Y-71089000D01*
X108835361Y-71081649D01*
X108836441Y-71074368D01*
X108838229Y-71067229D01*
X108840709Y-71060299D01*
X108843856Y-71053645D01*
X108847640Y-71047332D01*
X108852024Y-71041421D01*
X108856967Y-71035967D01*
X108862421Y-71031024D01*
X108868332Y-71026640D01*
X108874645Y-71022856D01*
X108881299Y-71019709D01*
X108888229Y-71017229D01*
X108895368Y-71015441D01*
X108902649Y-71014361D01*
X108910000Y-71014000D01*
X110235000Y-71014000D01*
X110242351Y-71014361D01*
X110242351Y-71014361D01*
G37*
D12*
X109572500Y-71164000D03*
D11*
G36*
X110242351Y-71514361D02*
G01*
X110249632Y-71515441D01*
X110256771Y-71517229D01*
X110263701Y-71519709D01*
X110270355Y-71522856D01*
X110276668Y-71526640D01*
X110282579Y-71531024D01*
X110288033Y-71535967D01*
X110292976Y-71541421D01*
X110297360Y-71547332D01*
X110301144Y-71553645D01*
X110304291Y-71560299D01*
X110306771Y-71567229D01*
X110308559Y-71574368D01*
X110309639Y-71581649D01*
X110310000Y-71589000D01*
X110310000Y-71739000D01*
X110309639Y-71746351D01*
X110308559Y-71753632D01*
X110306771Y-71760771D01*
X110304291Y-71767701D01*
X110301144Y-71774355D01*
X110297360Y-71780668D01*
X110292976Y-71786579D01*
X110288033Y-71792033D01*
X110282579Y-71796976D01*
X110276668Y-71801360D01*
X110270355Y-71805144D01*
X110263701Y-71808291D01*
X110256771Y-71810771D01*
X110249632Y-71812559D01*
X110242351Y-71813639D01*
X110235000Y-71814000D01*
X108910000Y-71814000D01*
X108902649Y-71813639D01*
X108895368Y-71812559D01*
X108888229Y-71810771D01*
X108881299Y-71808291D01*
X108874645Y-71805144D01*
X108868332Y-71801360D01*
X108862421Y-71796976D01*
X108856967Y-71792033D01*
X108852024Y-71786579D01*
X108847640Y-71780668D01*
X108843856Y-71774355D01*
X108840709Y-71767701D01*
X108838229Y-71760771D01*
X108836441Y-71753632D01*
X108835361Y-71746351D01*
X108835000Y-71739000D01*
X108835000Y-71589000D01*
X108835361Y-71581649D01*
X108836441Y-71574368D01*
X108838229Y-71567229D01*
X108840709Y-71560299D01*
X108843856Y-71553645D01*
X108847640Y-71547332D01*
X108852024Y-71541421D01*
X108856967Y-71535967D01*
X108862421Y-71531024D01*
X108868332Y-71526640D01*
X108874645Y-71522856D01*
X108881299Y-71519709D01*
X108888229Y-71517229D01*
X108895368Y-71515441D01*
X108902649Y-71514361D01*
X108910000Y-71514000D01*
X110235000Y-71514000D01*
X110242351Y-71514361D01*
X110242351Y-71514361D01*
G37*
D12*
X109572500Y-71664000D03*
D11*
G36*
X110242351Y-72014361D02*
G01*
X110249632Y-72015441D01*
X110256771Y-72017229D01*
X110263701Y-72019709D01*
X110270355Y-72022856D01*
X110276668Y-72026640D01*
X110282579Y-72031024D01*
X110288033Y-72035967D01*
X110292976Y-72041421D01*
X110297360Y-72047332D01*
X110301144Y-72053645D01*
X110304291Y-72060299D01*
X110306771Y-72067229D01*
X110308559Y-72074368D01*
X110309639Y-72081649D01*
X110310000Y-72089000D01*
X110310000Y-72239000D01*
X110309639Y-72246351D01*
X110308559Y-72253632D01*
X110306771Y-72260771D01*
X110304291Y-72267701D01*
X110301144Y-72274355D01*
X110297360Y-72280668D01*
X110292976Y-72286579D01*
X110288033Y-72292033D01*
X110282579Y-72296976D01*
X110276668Y-72301360D01*
X110270355Y-72305144D01*
X110263701Y-72308291D01*
X110256771Y-72310771D01*
X110249632Y-72312559D01*
X110242351Y-72313639D01*
X110235000Y-72314000D01*
X108910000Y-72314000D01*
X108902649Y-72313639D01*
X108895368Y-72312559D01*
X108888229Y-72310771D01*
X108881299Y-72308291D01*
X108874645Y-72305144D01*
X108868332Y-72301360D01*
X108862421Y-72296976D01*
X108856967Y-72292033D01*
X108852024Y-72286579D01*
X108847640Y-72280668D01*
X108843856Y-72274355D01*
X108840709Y-72267701D01*
X108838229Y-72260771D01*
X108836441Y-72253632D01*
X108835361Y-72246351D01*
X108835000Y-72239000D01*
X108835000Y-72089000D01*
X108835361Y-72081649D01*
X108836441Y-72074368D01*
X108838229Y-72067229D01*
X108840709Y-72060299D01*
X108843856Y-72053645D01*
X108847640Y-72047332D01*
X108852024Y-72041421D01*
X108856967Y-72035967D01*
X108862421Y-72031024D01*
X108868332Y-72026640D01*
X108874645Y-72022856D01*
X108881299Y-72019709D01*
X108888229Y-72017229D01*
X108895368Y-72015441D01*
X108902649Y-72014361D01*
X108910000Y-72014000D01*
X110235000Y-72014000D01*
X110242351Y-72014361D01*
X110242351Y-72014361D01*
G37*
D12*
X109572500Y-72164000D03*
D11*
G36*
X110242351Y-72514361D02*
G01*
X110249632Y-72515441D01*
X110256771Y-72517229D01*
X110263701Y-72519709D01*
X110270355Y-72522856D01*
X110276668Y-72526640D01*
X110282579Y-72531024D01*
X110288033Y-72535967D01*
X110292976Y-72541421D01*
X110297360Y-72547332D01*
X110301144Y-72553645D01*
X110304291Y-72560299D01*
X110306771Y-72567229D01*
X110308559Y-72574368D01*
X110309639Y-72581649D01*
X110310000Y-72589000D01*
X110310000Y-72739000D01*
X110309639Y-72746351D01*
X110308559Y-72753632D01*
X110306771Y-72760771D01*
X110304291Y-72767701D01*
X110301144Y-72774355D01*
X110297360Y-72780668D01*
X110292976Y-72786579D01*
X110288033Y-72792033D01*
X110282579Y-72796976D01*
X110276668Y-72801360D01*
X110270355Y-72805144D01*
X110263701Y-72808291D01*
X110256771Y-72810771D01*
X110249632Y-72812559D01*
X110242351Y-72813639D01*
X110235000Y-72814000D01*
X108910000Y-72814000D01*
X108902649Y-72813639D01*
X108895368Y-72812559D01*
X108888229Y-72810771D01*
X108881299Y-72808291D01*
X108874645Y-72805144D01*
X108868332Y-72801360D01*
X108862421Y-72796976D01*
X108856967Y-72792033D01*
X108852024Y-72786579D01*
X108847640Y-72780668D01*
X108843856Y-72774355D01*
X108840709Y-72767701D01*
X108838229Y-72760771D01*
X108836441Y-72753632D01*
X108835361Y-72746351D01*
X108835000Y-72739000D01*
X108835000Y-72589000D01*
X108835361Y-72581649D01*
X108836441Y-72574368D01*
X108838229Y-72567229D01*
X108840709Y-72560299D01*
X108843856Y-72553645D01*
X108847640Y-72547332D01*
X108852024Y-72541421D01*
X108856967Y-72535967D01*
X108862421Y-72531024D01*
X108868332Y-72526640D01*
X108874645Y-72522856D01*
X108881299Y-72519709D01*
X108888229Y-72517229D01*
X108895368Y-72515441D01*
X108902649Y-72514361D01*
X108910000Y-72514000D01*
X110235000Y-72514000D01*
X110242351Y-72514361D01*
X110242351Y-72514361D01*
G37*
D12*
X109572500Y-72664000D03*
D11*
G36*
X110242351Y-73014361D02*
G01*
X110249632Y-73015441D01*
X110256771Y-73017229D01*
X110263701Y-73019709D01*
X110270355Y-73022856D01*
X110276668Y-73026640D01*
X110282579Y-73031024D01*
X110288033Y-73035967D01*
X110292976Y-73041421D01*
X110297360Y-73047332D01*
X110301144Y-73053645D01*
X110304291Y-73060299D01*
X110306771Y-73067229D01*
X110308559Y-73074368D01*
X110309639Y-73081649D01*
X110310000Y-73089000D01*
X110310000Y-73239000D01*
X110309639Y-73246351D01*
X110308559Y-73253632D01*
X110306771Y-73260771D01*
X110304291Y-73267701D01*
X110301144Y-73274355D01*
X110297360Y-73280668D01*
X110292976Y-73286579D01*
X110288033Y-73292033D01*
X110282579Y-73296976D01*
X110276668Y-73301360D01*
X110270355Y-73305144D01*
X110263701Y-73308291D01*
X110256771Y-73310771D01*
X110249632Y-73312559D01*
X110242351Y-73313639D01*
X110235000Y-73314000D01*
X108910000Y-73314000D01*
X108902649Y-73313639D01*
X108895368Y-73312559D01*
X108888229Y-73310771D01*
X108881299Y-73308291D01*
X108874645Y-73305144D01*
X108868332Y-73301360D01*
X108862421Y-73296976D01*
X108856967Y-73292033D01*
X108852024Y-73286579D01*
X108847640Y-73280668D01*
X108843856Y-73274355D01*
X108840709Y-73267701D01*
X108838229Y-73260771D01*
X108836441Y-73253632D01*
X108835361Y-73246351D01*
X108835000Y-73239000D01*
X108835000Y-73089000D01*
X108835361Y-73081649D01*
X108836441Y-73074368D01*
X108838229Y-73067229D01*
X108840709Y-73060299D01*
X108843856Y-73053645D01*
X108847640Y-73047332D01*
X108852024Y-73041421D01*
X108856967Y-73035967D01*
X108862421Y-73031024D01*
X108868332Y-73026640D01*
X108874645Y-73022856D01*
X108881299Y-73019709D01*
X108888229Y-73017229D01*
X108895368Y-73015441D01*
X108902649Y-73014361D01*
X108910000Y-73014000D01*
X110235000Y-73014000D01*
X110242351Y-73014361D01*
X110242351Y-73014361D01*
G37*
D12*
X109572500Y-73164000D03*
D11*
G36*
X110242351Y-73514361D02*
G01*
X110249632Y-73515441D01*
X110256771Y-73517229D01*
X110263701Y-73519709D01*
X110270355Y-73522856D01*
X110276668Y-73526640D01*
X110282579Y-73531024D01*
X110288033Y-73535967D01*
X110292976Y-73541421D01*
X110297360Y-73547332D01*
X110301144Y-73553645D01*
X110304291Y-73560299D01*
X110306771Y-73567229D01*
X110308559Y-73574368D01*
X110309639Y-73581649D01*
X110310000Y-73589000D01*
X110310000Y-73739000D01*
X110309639Y-73746351D01*
X110308559Y-73753632D01*
X110306771Y-73760771D01*
X110304291Y-73767701D01*
X110301144Y-73774355D01*
X110297360Y-73780668D01*
X110292976Y-73786579D01*
X110288033Y-73792033D01*
X110282579Y-73796976D01*
X110276668Y-73801360D01*
X110270355Y-73805144D01*
X110263701Y-73808291D01*
X110256771Y-73810771D01*
X110249632Y-73812559D01*
X110242351Y-73813639D01*
X110235000Y-73814000D01*
X108910000Y-73814000D01*
X108902649Y-73813639D01*
X108895368Y-73812559D01*
X108888229Y-73810771D01*
X108881299Y-73808291D01*
X108874645Y-73805144D01*
X108868332Y-73801360D01*
X108862421Y-73796976D01*
X108856967Y-73792033D01*
X108852024Y-73786579D01*
X108847640Y-73780668D01*
X108843856Y-73774355D01*
X108840709Y-73767701D01*
X108838229Y-73760771D01*
X108836441Y-73753632D01*
X108835361Y-73746351D01*
X108835000Y-73739000D01*
X108835000Y-73589000D01*
X108835361Y-73581649D01*
X108836441Y-73574368D01*
X108838229Y-73567229D01*
X108840709Y-73560299D01*
X108843856Y-73553645D01*
X108847640Y-73547332D01*
X108852024Y-73541421D01*
X108856967Y-73535967D01*
X108862421Y-73531024D01*
X108868332Y-73526640D01*
X108874645Y-73522856D01*
X108881299Y-73519709D01*
X108888229Y-73517229D01*
X108895368Y-73515441D01*
X108902649Y-73514361D01*
X108910000Y-73514000D01*
X110235000Y-73514000D01*
X110242351Y-73514361D01*
X110242351Y-73514361D01*
G37*
D12*
X109572500Y-73664000D03*
D11*
G36*
X110242351Y-74014361D02*
G01*
X110249632Y-74015441D01*
X110256771Y-74017229D01*
X110263701Y-74019709D01*
X110270355Y-74022856D01*
X110276668Y-74026640D01*
X110282579Y-74031024D01*
X110288033Y-74035967D01*
X110292976Y-74041421D01*
X110297360Y-74047332D01*
X110301144Y-74053645D01*
X110304291Y-74060299D01*
X110306771Y-74067229D01*
X110308559Y-74074368D01*
X110309639Y-74081649D01*
X110310000Y-74089000D01*
X110310000Y-74239000D01*
X110309639Y-74246351D01*
X110308559Y-74253632D01*
X110306771Y-74260771D01*
X110304291Y-74267701D01*
X110301144Y-74274355D01*
X110297360Y-74280668D01*
X110292976Y-74286579D01*
X110288033Y-74292033D01*
X110282579Y-74296976D01*
X110276668Y-74301360D01*
X110270355Y-74305144D01*
X110263701Y-74308291D01*
X110256771Y-74310771D01*
X110249632Y-74312559D01*
X110242351Y-74313639D01*
X110235000Y-74314000D01*
X108910000Y-74314000D01*
X108902649Y-74313639D01*
X108895368Y-74312559D01*
X108888229Y-74310771D01*
X108881299Y-74308291D01*
X108874645Y-74305144D01*
X108868332Y-74301360D01*
X108862421Y-74296976D01*
X108856967Y-74292033D01*
X108852024Y-74286579D01*
X108847640Y-74280668D01*
X108843856Y-74274355D01*
X108840709Y-74267701D01*
X108838229Y-74260771D01*
X108836441Y-74253632D01*
X108835361Y-74246351D01*
X108835000Y-74239000D01*
X108835000Y-74089000D01*
X108835361Y-74081649D01*
X108836441Y-74074368D01*
X108838229Y-74067229D01*
X108840709Y-74060299D01*
X108843856Y-74053645D01*
X108847640Y-74047332D01*
X108852024Y-74041421D01*
X108856967Y-74035967D01*
X108862421Y-74031024D01*
X108868332Y-74026640D01*
X108874645Y-74022856D01*
X108881299Y-74019709D01*
X108888229Y-74017229D01*
X108895368Y-74015441D01*
X108902649Y-74014361D01*
X108910000Y-74014000D01*
X110235000Y-74014000D01*
X110242351Y-74014361D01*
X110242351Y-74014361D01*
G37*
D12*
X109572500Y-74164000D03*
D11*
G36*
X110242351Y-74514361D02*
G01*
X110249632Y-74515441D01*
X110256771Y-74517229D01*
X110263701Y-74519709D01*
X110270355Y-74522856D01*
X110276668Y-74526640D01*
X110282579Y-74531024D01*
X110288033Y-74535967D01*
X110292976Y-74541421D01*
X110297360Y-74547332D01*
X110301144Y-74553645D01*
X110304291Y-74560299D01*
X110306771Y-74567229D01*
X110308559Y-74574368D01*
X110309639Y-74581649D01*
X110310000Y-74589000D01*
X110310000Y-74739000D01*
X110309639Y-74746351D01*
X110308559Y-74753632D01*
X110306771Y-74760771D01*
X110304291Y-74767701D01*
X110301144Y-74774355D01*
X110297360Y-74780668D01*
X110292976Y-74786579D01*
X110288033Y-74792033D01*
X110282579Y-74796976D01*
X110276668Y-74801360D01*
X110270355Y-74805144D01*
X110263701Y-74808291D01*
X110256771Y-74810771D01*
X110249632Y-74812559D01*
X110242351Y-74813639D01*
X110235000Y-74814000D01*
X108910000Y-74814000D01*
X108902649Y-74813639D01*
X108895368Y-74812559D01*
X108888229Y-74810771D01*
X108881299Y-74808291D01*
X108874645Y-74805144D01*
X108868332Y-74801360D01*
X108862421Y-74796976D01*
X108856967Y-74792033D01*
X108852024Y-74786579D01*
X108847640Y-74780668D01*
X108843856Y-74774355D01*
X108840709Y-74767701D01*
X108838229Y-74760771D01*
X108836441Y-74753632D01*
X108835361Y-74746351D01*
X108835000Y-74739000D01*
X108835000Y-74589000D01*
X108835361Y-74581649D01*
X108836441Y-74574368D01*
X108838229Y-74567229D01*
X108840709Y-74560299D01*
X108843856Y-74553645D01*
X108847640Y-74547332D01*
X108852024Y-74541421D01*
X108856967Y-74535967D01*
X108862421Y-74531024D01*
X108868332Y-74526640D01*
X108874645Y-74522856D01*
X108881299Y-74519709D01*
X108888229Y-74517229D01*
X108895368Y-74515441D01*
X108902649Y-74514361D01*
X108910000Y-74514000D01*
X110235000Y-74514000D01*
X110242351Y-74514361D01*
X110242351Y-74514361D01*
G37*
D12*
X109572500Y-74664000D03*
D11*
G36*
X110242351Y-75014361D02*
G01*
X110249632Y-75015441D01*
X110256771Y-75017229D01*
X110263701Y-75019709D01*
X110270355Y-75022856D01*
X110276668Y-75026640D01*
X110282579Y-75031024D01*
X110288033Y-75035967D01*
X110292976Y-75041421D01*
X110297360Y-75047332D01*
X110301144Y-75053645D01*
X110304291Y-75060299D01*
X110306771Y-75067229D01*
X110308559Y-75074368D01*
X110309639Y-75081649D01*
X110310000Y-75089000D01*
X110310000Y-75239000D01*
X110309639Y-75246351D01*
X110308559Y-75253632D01*
X110306771Y-75260771D01*
X110304291Y-75267701D01*
X110301144Y-75274355D01*
X110297360Y-75280668D01*
X110292976Y-75286579D01*
X110288033Y-75292033D01*
X110282579Y-75296976D01*
X110276668Y-75301360D01*
X110270355Y-75305144D01*
X110263701Y-75308291D01*
X110256771Y-75310771D01*
X110249632Y-75312559D01*
X110242351Y-75313639D01*
X110235000Y-75314000D01*
X108910000Y-75314000D01*
X108902649Y-75313639D01*
X108895368Y-75312559D01*
X108888229Y-75310771D01*
X108881299Y-75308291D01*
X108874645Y-75305144D01*
X108868332Y-75301360D01*
X108862421Y-75296976D01*
X108856967Y-75292033D01*
X108852024Y-75286579D01*
X108847640Y-75280668D01*
X108843856Y-75274355D01*
X108840709Y-75267701D01*
X108838229Y-75260771D01*
X108836441Y-75253632D01*
X108835361Y-75246351D01*
X108835000Y-75239000D01*
X108835000Y-75089000D01*
X108835361Y-75081649D01*
X108836441Y-75074368D01*
X108838229Y-75067229D01*
X108840709Y-75060299D01*
X108843856Y-75053645D01*
X108847640Y-75047332D01*
X108852024Y-75041421D01*
X108856967Y-75035967D01*
X108862421Y-75031024D01*
X108868332Y-75026640D01*
X108874645Y-75022856D01*
X108881299Y-75019709D01*
X108888229Y-75017229D01*
X108895368Y-75015441D01*
X108902649Y-75014361D01*
X108910000Y-75014000D01*
X110235000Y-75014000D01*
X110242351Y-75014361D01*
X110242351Y-75014361D01*
G37*
D12*
X109572500Y-75164000D03*
D11*
G36*
X110242351Y-75514361D02*
G01*
X110249632Y-75515441D01*
X110256771Y-75517229D01*
X110263701Y-75519709D01*
X110270355Y-75522856D01*
X110276668Y-75526640D01*
X110282579Y-75531024D01*
X110288033Y-75535967D01*
X110292976Y-75541421D01*
X110297360Y-75547332D01*
X110301144Y-75553645D01*
X110304291Y-75560299D01*
X110306771Y-75567229D01*
X110308559Y-75574368D01*
X110309639Y-75581649D01*
X110310000Y-75589000D01*
X110310000Y-75739000D01*
X110309639Y-75746351D01*
X110308559Y-75753632D01*
X110306771Y-75760771D01*
X110304291Y-75767701D01*
X110301144Y-75774355D01*
X110297360Y-75780668D01*
X110292976Y-75786579D01*
X110288033Y-75792033D01*
X110282579Y-75796976D01*
X110276668Y-75801360D01*
X110270355Y-75805144D01*
X110263701Y-75808291D01*
X110256771Y-75810771D01*
X110249632Y-75812559D01*
X110242351Y-75813639D01*
X110235000Y-75814000D01*
X108910000Y-75814000D01*
X108902649Y-75813639D01*
X108895368Y-75812559D01*
X108888229Y-75810771D01*
X108881299Y-75808291D01*
X108874645Y-75805144D01*
X108868332Y-75801360D01*
X108862421Y-75796976D01*
X108856967Y-75792033D01*
X108852024Y-75786579D01*
X108847640Y-75780668D01*
X108843856Y-75774355D01*
X108840709Y-75767701D01*
X108838229Y-75760771D01*
X108836441Y-75753632D01*
X108835361Y-75746351D01*
X108835000Y-75739000D01*
X108835000Y-75589000D01*
X108835361Y-75581649D01*
X108836441Y-75574368D01*
X108838229Y-75567229D01*
X108840709Y-75560299D01*
X108843856Y-75553645D01*
X108847640Y-75547332D01*
X108852024Y-75541421D01*
X108856967Y-75535967D01*
X108862421Y-75531024D01*
X108868332Y-75526640D01*
X108874645Y-75522856D01*
X108881299Y-75519709D01*
X108888229Y-75517229D01*
X108895368Y-75515441D01*
X108902649Y-75514361D01*
X108910000Y-75514000D01*
X110235000Y-75514000D01*
X110242351Y-75514361D01*
X110242351Y-75514361D01*
G37*
D12*
X109572500Y-75664000D03*
D11*
G36*
X110242351Y-76014361D02*
G01*
X110249632Y-76015441D01*
X110256771Y-76017229D01*
X110263701Y-76019709D01*
X110270355Y-76022856D01*
X110276668Y-76026640D01*
X110282579Y-76031024D01*
X110288033Y-76035967D01*
X110292976Y-76041421D01*
X110297360Y-76047332D01*
X110301144Y-76053645D01*
X110304291Y-76060299D01*
X110306771Y-76067229D01*
X110308559Y-76074368D01*
X110309639Y-76081649D01*
X110310000Y-76089000D01*
X110310000Y-76239000D01*
X110309639Y-76246351D01*
X110308559Y-76253632D01*
X110306771Y-76260771D01*
X110304291Y-76267701D01*
X110301144Y-76274355D01*
X110297360Y-76280668D01*
X110292976Y-76286579D01*
X110288033Y-76292033D01*
X110282579Y-76296976D01*
X110276668Y-76301360D01*
X110270355Y-76305144D01*
X110263701Y-76308291D01*
X110256771Y-76310771D01*
X110249632Y-76312559D01*
X110242351Y-76313639D01*
X110235000Y-76314000D01*
X108910000Y-76314000D01*
X108902649Y-76313639D01*
X108895368Y-76312559D01*
X108888229Y-76310771D01*
X108881299Y-76308291D01*
X108874645Y-76305144D01*
X108868332Y-76301360D01*
X108862421Y-76296976D01*
X108856967Y-76292033D01*
X108852024Y-76286579D01*
X108847640Y-76280668D01*
X108843856Y-76274355D01*
X108840709Y-76267701D01*
X108838229Y-76260771D01*
X108836441Y-76253632D01*
X108835361Y-76246351D01*
X108835000Y-76239000D01*
X108835000Y-76089000D01*
X108835361Y-76081649D01*
X108836441Y-76074368D01*
X108838229Y-76067229D01*
X108840709Y-76060299D01*
X108843856Y-76053645D01*
X108847640Y-76047332D01*
X108852024Y-76041421D01*
X108856967Y-76035967D01*
X108862421Y-76031024D01*
X108868332Y-76026640D01*
X108874645Y-76022856D01*
X108881299Y-76019709D01*
X108888229Y-76017229D01*
X108895368Y-76015441D01*
X108902649Y-76014361D01*
X108910000Y-76014000D01*
X110235000Y-76014000D01*
X110242351Y-76014361D01*
X110242351Y-76014361D01*
G37*
D12*
X109572500Y-76164000D03*
D11*
G36*
X110242351Y-76514361D02*
G01*
X110249632Y-76515441D01*
X110256771Y-76517229D01*
X110263701Y-76519709D01*
X110270355Y-76522856D01*
X110276668Y-76526640D01*
X110282579Y-76531024D01*
X110288033Y-76535967D01*
X110292976Y-76541421D01*
X110297360Y-76547332D01*
X110301144Y-76553645D01*
X110304291Y-76560299D01*
X110306771Y-76567229D01*
X110308559Y-76574368D01*
X110309639Y-76581649D01*
X110310000Y-76589000D01*
X110310000Y-76739000D01*
X110309639Y-76746351D01*
X110308559Y-76753632D01*
X110306771Y-76760771D01*
X110304291Y-76767701D01*
X110301144Y-76774355D01*
X110297360Y-76780668D01*
X110292976Y-76786579D01*
X110288033Y-76792033D01*
X110282579Y-76796976D01*
X110276668Y-76801360D01*
X110270355Y-76805144D01*
X110263701Y-76808291D01*
X110256771Y-76810771D01*
X110249632Y-76812559D01*
X110242351Y-76813639D01*
X110235000Y-76814000D01*
X108910000Y-76814000D01*
X108902649Y-76813639D01*
X108895368Y-76812559D01*
X108888229Y-76810771D01*
X108881299Y-76808291D01*
X108874645Y-76805144D01*
X108868332Y-76801360D01*
X108862421Y-76796976D01*
X108856967Y-76792033D01*
X108852024Y-76786579D01*
X108847640Y-76780668D01*
X108843856Y-76774355D01*
X108840709Y-76767701D01*
X108838229Y-76760771D01*
X108836441Y-76753632D01*
X108835361Y-76746351D01*
X108835000Y-76739000D01*
X108835000Y-76589000D01*
X108835361Y-76581649D01*
X108836441Y-76574368D01*
X108838229Y-76567229D01*
X108840709Y-76560299D01*
X108843856Y-76553645D01*
X108847640Y-76547332D01*
X108852024Y-76541421D01*
X108856967Y-76535967D01*
X108862421Y-76531024D01*
X108868332Y-76526640D01*
X108874645Y-76522856D01*
X108881299Y-76519709D01*
X108888229Y-76517229D01*
X108895368Y-76515441D01*
X108902649Y-76514361D01*
X108910000Y-76514000D01*
X110235000Y-76514000D01*
X110242351Y-76514361D01*
X110242351Y-76514361D01*
G37*
D12*
X109572500Y-76664000D03*
D13*
X103722500Y-72226500D03*
D11*
G36*
X103218609Y-72564766D02*
G01*
X103218609Y-71888234D01*
X103384234Y-71722609D01*
X104060766Y-71722609D01*
X104226391Y-71888234D01*
X104226391Y-72564766D01*
X104060766Y-72730391D01*
X103384234Y-72730391D01*
X103218609Y-72564766D01*
X103218609Y-72564766D01*
G37*
D13*
X103722500Y-73351500D03*
D11*
G36*
X103218609Y-73689766D02*
G01*
X103218609Y-73013234D01*
X103384234Y-72847609D01*
X104060766Y-72847609D01*
X104226391Y-73013234D01*
X104226391Y-73689766D01*
X104060766Y-73855391D01*
X103384234Y-73855391D01*
X103218609Y-73689766D01*
X103218609Y-73689766D01*
G37*
D13*
X103722500Y-74476500D03*
D11*
G36*
X103218609Y-74814766D02*
G01*
X103218609Y-74138234D01*
X103384234Y-73972609D01*
X104060766Y-73972609D01*
X104226391Y-74138234D01*
X104226391Y-74814766D01*
X104060766Y-74980391D01*
X103384234Y-74980391D01*
X103218609Y-74814766D01*
X103218609Y-74814766D01*
G37*
D13*
X103722500Y-75601500D03*
D11*
G36*
X103218609Y-75939766D02*
G01*
X103218609Y-75263234D01*
X103384234Y-75097609D01*
X104060766Y-75097609D01*
X104226391Y-75263234D01*
X104226391Y-75939766D01*
X104060766Y-76105391D01*
X103384234Y-76105391D01*
X103218609Y-75939766D01*
X103218609Y-75939766D01*
G37*
D13*
X104847500Y-72226500D03*
D11*
G36*
X104343609Y-72564766D02*
G01*
X104343609Y-71888234D01*
X104509234Y-71722609D01*
X105185766Y-71722609D01*
X105351391Y-71888234D01*
X105351391Y-72564766D01*
X105185766Y-72730391D01*
X104509234Y-72730391D01*
X104343609Y-72564766D01*
X104343609Y-72564766D01*
G37*
D13*
X104847500Y-73351500D03*
D11*
G36*
X104343609Y-73689766D02*
G01*
X104343609Y-73013234D01*
X104509234Y-72847609D01*
X105185766Y-72847609D01*
X105351391Y-73013234D01*
X105351391Y-73689766D01*
X105185766Y-73855391D01*
X104509234Y-73855391D01*
X104343609Y-73689766D01*
X104343609Y-73689766D01*
G37*
D13*
X104847500Y-74476500D03*
D11*
G36*
X104343609Y-74814766D02*
G01*
X104343609Y-74138234D01*
X104509234Y-73972609D01*
X105185766Y-73972609D01*
X105351391Y-74138234D01*
X105351391Y-74814766D01*
X105185766Y-74980391D01*
X104509234Y-74980391D01*
X104343609Y-74814766D01*
X104343609Y-74814766D01*
G37*
D13*
X104847500Y-75601500D03*
D11*
G36*
X104343609Y-75939766D02*
G01*
X104343609Y-75263234D01*
X104509234Y-75097609D01*
X105185766Y-75097609D01*
X105351391Y-75263234D01*
X105351391Y-75939766D01*
X105185766Y-76105391D01*
X104509234Y-76105391D01*
X104343609Y-75939766D01*
X104343609Y-75939766D01*
G37*
D13*
X105972500Y-72226500D03*
D11*
G36*
X105468609Y-72564766D02*
G01*
X105468609Y-71888234D01*
X105634234Y-71722609D01*
X106310766Y-71722609D01*
X106476391Y-71888234D01*
X106476391Y-72564766D01*
X106310766Y-72730391D01*
X105634234Y-72730391D01*
X105468609Y-72564766D01*
X105468609Y-72564766D01*
G37*
D13*
X105972500Y-73351500D03*
D11*
G36*
X105468609Y-73689766D02*
G01*
X105468609Y-73013234D01*
X105634234Y-72847609D01*
X106310766Y-72847609D01*
X106476391Y-73013234D01*
X106476391Y-73689766D01*
X106310766Y-73855391D01*
X105634234Y-73855391D01*
X105468609Y-73689766D01*
X105468609Y-73689766D01*
G37*
D13*
X105972500Y-74476500D03*
D11*
G36*
X105468609Y-74814766D02*
G01*
X105468609Y-74138234D01*
X105634234Y-73972609D01*
X106310766Y-73972609D01*
X106476391Y-74138234D01*
X106476391Y-74814766D01*
X106310766Y-74980391D01*
X105634234Y-74980391D01*
X105468609Y-74814766D01*
X105468609Y-74814766D01*
G37*
D13*
X105972500Y-75601500D03*
D11*
G36*
X105468609Y-75939766D02*
G01*
X105468609Y-75263234D01*
X105634234Y-75097609D01*
X106310766Y-75097609D01*
X106476391Y-75263234D01*
X106476391Y-75939766D01*
X106310766Y-76105391D01*
X105634234Y-76105391D01*
X105468609Y-75939766D01*
X105468609Y-75939766D01*
G37*
D13*
X107097500Y-72226500D03*
D11*
G36*
X106593609Y-72564766D02*
G01*
X106593609Y-71888234D01*
X106759234Y-71722609D01*
X107435766Y-71722609D01*
X107601391Y-71888234D01*
X107601391Y-72564766D01*
X107435766Y-72730391D01*
X106759234Y-72730391D01*
X106593609Y-72564766D01*
X106593609Y-72564766D01*
G37*
D13*
X107097500Y-73351500D03*
D11*
G36*
X106593609Y-73689766D02*
G01*
X106593609Y-73013234D01*
X106759234Y-72847609D01*
X107435766Y-72847609D01*
X107601391Y-73013234D01*
X107601391Y-73689766D01*
X107435766Y-73855391D01*
X106759234Y-73855391D01*
X106593609Y-73689766D01*
X106593609Y-73689766D01*
G37*
D13*
X107097500Y-74476500D03*
D11*
G36*
X106593609Y-74814766D02*
G01*
X106593609Y-74138234D01*
X106759234Y-73972609D01*
X107435766Y-73972609D01*
X107601391Y-74138234D01*
X107601391Y-74814766D01*
X107435766Y-74980391D01*
X106759234Y-74980391D01*
X106593609Y-74814766D01*
X106593609Y-74814766D01*
G37*
D13*
X107097500Y-75601500D03*
D11*
G36*
X106593609Y-75939766D02*
G01*
X106593609Y-75263234D01*
X106759234Y-75097609D01*
X107435766Y-75097609D01*
X107601391Y-75263234D01*
X107601391Y-75939766D01*
X107435766Y-76105391D01*
X106759234Y-76105391D01*
X106593609Y-75939766D01*
X106593609Y-75939766D01*
G37*
D14*
X121582000Y-102270000D03*
X121582000Y-90770000D03*
X111082000Y-102270000D03*
X111082000Y-90770000D03*
D11*
G36*
X140368504Y-80862204D02*
G01*
X140392773Y-80865804D01*
X140416571Y-80871765D01*
X140439671Y-80880030D01*
X140461849Y-80890520D01*
X140482893Y-80903133D01*
X140502598Y-80917747D01*
X140520777Y-80934223D01*
X140537253Y-80952402D01*
X140551867Y-80972107D01*
X140564480Y-80993151D01*
X140574970Y-81015329D01*
X140583235Y-81038429D01*
X140589196Y-81062227D01*
X140592796Y-81086496D01*
X140594000Y-81111000D01*
X140594000Y-82211000D01*
X140592796Y-82235504D01*
X140589196Y-82259773D01*
X140583235Y-82283571D01*
X140574970Y-82306671D01*
X140564480Y-82328849D01*
X140551867Y-82349893D01*
X140537253Y-82369598D01*
X140520777Y-82387777D01*
X140502598Y-82404253D01*
X140482893Y-82418867D01*
X140461849Y-82431480D01*
X140439671Y-82441970D01*
X140416571Y-82450235D01*
X140392773Y-82456196D01*
X140368504Y-82459796D01*
X140344000Y-82461000D01*
X137344000Y-82461000D01*
X137319496Y-82459796D01*
X137295227Y-82456196D01*
X137271429Y-82450235D01*
X137248329Y-82441970D01*
X137226151Y-82431480D01*
X137205107Y-82418867D01*
X137185402Y-82404253D01*
X137167223Y-82387777D01*
X137150747Y-82369598D01*
X137136133Y-82349893D01*
X137123520Y-82328849D01*
X137113030Y-82306671D01*
X137104765Y-82283571D01*
X137098804Y-82259773D01*
X137095204Y-82235504D01*
X137094000Y-82211000D01*
X137094000Y-81111000D01*
X137095204Y-81086496D01*
X137098804Y-81062227D01*
X137104765Y-81038429D01*
X137113030Y-81015329D01*
X137123520Y-80993151D01*
X137136133Y-80972107D01*
X137150747Y-80952402D01*
X137167223Y-80934223D01*
X137185402Y-80917747D01*
X137205107Y-80903133D01*
X137226151Y-80890520D01*
X137248329Y-80880030D01*
X137271429Y-80871765D01*
X137295227Y-80865804D01*
X137319496Y-80862204D01*
X137344000Y-80861000D01*
X140344000Y-80861000D01*
X140368504Y-80862204D01*
X140368504Y-80862204D01*
G37*
D15*
X138844000Y-81661000D03*
D11*
G36*
X134968504Y-80862204D02*
G01*
X134992773Y-80865804D01*
X135016571Y-80871765D01*
X135039671Y-80880030D01*
X135061849Y-80890520D01*
X135082893Y-80903133D01*
X135102598Y-80917747D01*
X135120777Y-80934223D01*
X135137253Y-80952402D01*
X135151867Y-80972107D01*
X135164480Y-80993151D01*
X135174970Y-81015329D01*
X135183235Y-81038429D01*
X135189196Y-81062227D01*
X135192796Y-81086496D01*
X135194000Y-81111000D01*
X135194000Y-82211000D01*
X135192796Y-82235504D01*
X135189196Y-82259773D01*
X135183235Y-82283571D01*
X135174970Y-82306671D01*
X135164480Y-82328849D01*
X135151867Y-82349893D01*
X135137253Y-82369598D01*
X135120777Y-82387777D01*
X135102598Y-82404253D01*
X135082893Y-82418867D01*
X135061849Y-82431480D01*
X135039671Y-82441970D01*
X135016571Y-82450235D01*
X134992773Y-82456196D01*
X134968504Y-82459796D01*
X134944000Y-82461000D01*
X131944000Y-82461000D01*
X131919496Y-82459796D01*
X131895227Y-82456196D01*
X131871429Y-82450235D01*
X131848329Y-82441970D01*
X131826151Y-82431480D01*
X131805107Y-82418867D01*
X131785402Y-82404253D01*
X131767223Y-82387777D01*
X131750747Y-82369598D01*
X131736133Y-82349893D01*
X131723520Y-82328849D01*
X131713030Y-82306671D01*
X131704765Y-82283571D01*
X131698804Y-82259773D01*
X131695204Y-82235504D01*
X131694000Y-82211000D01*
X131694000Y-81111000D01*
X131695204Y-81086496D01*
X131698804Y-81062227D01*
X131704765Y-81038429D01*
X131713030Y-81015329D01*
X131723520Y-80993151D01*
X131736133Y-80972107D01*
X131750747Y-80952402D01*
X131767223Y-80934223D01*
X131785402Y-80917747D01*
X131805107Y-80903133D01*
X131826151Y-80890520D01*
X131848329Y-80880030D01*
X131871429Y-80871765D01*
X131895227Y-80865804D01*
X131919496Y-80862204D01*
X131944000Y-80861000D01*
X134944000Y-80861000D01*
X134968504Y-80862204D01*
X134968504Y-80862204D01*
G37*
D15*
X133444000Y-81661000D03*
D11*
G36*
X106779142Y-65124174D02*
G01*
X106802803Y-65127684D01*
X106826007Y-65133496D01*
X106848529Y-65141554D01*
X106870153Y-65151782D01*
X106890670Y-65164079D01*
X106909883Y-65178329D01*
X106927607Y-65194393D01*
X106943671Y-65212117D01*
X106957921Y-65231330D01*
X106970218Y-65251847D01*
X106980446Y-65273471D01*
X106988504Y-65295993D01*
X106994316Y-65319197D01*
X106997826Y-65342858D01*
X106999000Y-65366750D01*
X106999000Y-65854250D01*
X106997826Y-65878142D01*
X106994316Y-65901803D01*
X106988504Y-65925007D01*
X106980446Y-65947529D01*
X106970218Y-65969153D01*
X106957921Y-65989670D01*
X106943671Y-66008883D01*
X106927607Y-66026607D01*
X106909883Y-66042671D01*
X106890670Y-66056921D01*
X106870153Y-66069218D01*
X106848529Y-66079446D01*
X106826007Y-66087504D01*
X106802803Y-66093316D01*
X106779142Y-66096826D01*
X106755250Y-66098000D01*
X105842750Y-66098000D01*
X105818858Y-66096826D01*
X105795197Y-66093316D01*
X105771993Y-66087504D01*
X105749471Y-66079446D01*
X105727847Y-66069218D01*
X105707330Y-66056921D01*
X105688117Y-66042671D01*
X105670393Y-66026607D01*
X105654329Y-66008883D01*
X105640079Y-65989670D01*
X105627782Y-65969153D01*
X105617554Y-65947529D01*
X105609496Y-65925007D01*
X105603684Y-65901803D01*
X105600174Y-65878142D01*
X105599000Y-65854250D01*
X105599000Y-65366750D01*
X105600174Y-65342858D01*
X105603684Y-65319197D01*
X105609496Y-65295993D01*
X105617554Y-65273471D01*
X105627782Y-65251847D01*
X105640079Y-65231330D01*
X105654329Y-65212117D01*
X105670393Y-65194393D01*
X105688117Y-65178329D01*
X105707330Y-65164079D01*
X105727847Y-65151782D01*
X105749471Y-65141554D01*
X105771993Y-65133496D01*
X105795197Y-65127684D01*
X105818858Y-65124174D01*
X105842750Y-65123000D01*
X106755250Y-65123000D01*
X106779142Y-65124174D01*
X106779142Y-65124174D01*
G37*
D16*
X106299000Y-65610500D03*
D11*
G36*
X106779142Y-66999174D02*
G01*
X106802803Y-67002684D01*
X106826007Y-67008496D01*
X106848529Y-67016554D01*
X106870153Y-67026782D01*
X106890670Y-67039079D01*
X106909883Y-67053329D01*
X106927607Y-67069393D01*
X106943671Y-67087117D01*
X106957921Y-67106330D01*
X106970218Y-67126847D01*
X106980446Y-67148471D01*
X106988504Y-67170993D01*
X106994316Y-67194197D01*
X106997826Y-67217858D01*
X106999000Y-67241750D01*
X106999000Y-67729250D01*
X106997826Y-67753142D01*
X106994316Y-67776803D01*
X106988504Y-67800007D01*
X106980446Y-67822529D01*
X106970218Y-67844153D01*
X106957921Y-67864670D01*
X106943671Y-67883883D01*
X106927607Y-67901607D01*
X106909883Y-67917671D01*
X106890670Y-67931921D01*
X106870153Y-67944218D01*
X106848529Y-67954446D01*
X106826007Y-67962504D01*
X106802803Y-67968316D01*
X106779142Y-67971826D01*
X106755250Y-67973000D01*
X105842750Y-67973000D01*
X105818858Y-67971826D01*
X105795197Y-67968316D01*
X105771993Y-67962504D01*
X105749471Y-67954446D01*
X105727847Y-67944218D01*
X105707330Y-67931921D01*
X105688117Y-67917671D01*
X105670393Y-67901607D01*
X105654329Y-67883883D01*
X105640079Y-67864670D01*
X105627782Y-67844153D01*
X105617554Y-67822529D01*
X105609496Y-67800007D01*
X105603684Y-67776803D01*
X105600174Y-67753142D01*
X105599000Y-67729250D01*
X105599000Y-67241750D01*
X105600174Y-67217858D01*
X105603684Y-67194197D01*
X105609496Y-67170993D01*
X105617554Y-67148471D01*
X105627782Y-67126847D01*
X105640079Y-67106330D01*
X105654329Y-67087117D01*
X105670393Y-67069393D01*
X105688117Y-67053329D01*
X105707330Y-67039079D01*
X105727847Y-67026782D01*
X105749471Y-67016554D01*
X105771993Y-67008496D01*
X105795197Y-67002684D01*
X105818858Y-66999174D01*
X105842750Y-66998000D01*
X106755250Y-66998000D01*
X106779142Y-66999174D01*
X106779142Y-66999174D01*
G37*
D16*
X106299000Y-67485500D03*
D11*
G36*
X108176142Y-82160674D02*
G01*
X108199803Y-82164184D01*
X108223007Y-82169996D01*
X108245529Y-82178054D01*
X108267153Y-82188282D01*
X108287670Y-82200579D01*
X108306883Y-82214829D01*
X108324607Y-82230893D01*
X108340671Y-82248617D01*
X108354921Y-82267830D01*
X108367218Y-82288347D01*
X108377446Y-82309971D01*
X108385504Y-82332493D01*
X108391316Y-82355697D01*
X108394826Y-82379358D01*
X108396000Y-82403250D01*
X108396000Y-82890750D01*
X108394826Y-82914642D01*
X108391316Y-82938303D01*
X108385504Y-82961507D01*
X108377446Y-82984029D01*
X108367218Y-83005653D01*
X108354921Y-83026170D01*
X108340671Y-83045383D01*
X108324607Y-83063107D01*
X108306883Y-83079171D01*
X108287670Y-83093421D01*
X108267153Y-83105718D01*
X108245529Y-83115946D01*
X108223007Y-83124004D01*
X108199803Y-83129816D01*
X108176142Y-83133326D01*
X108152250Y-83134500D01*
X107239750Y-83134500D01*
X107215858Y-83133326D01*
X107192197Y-83129816D01*
X107168993Y-83124004D01*
X107146471Y-83115946D01*
X107124847Y-83105718D01*
X107104330Y-83093421D01*
X107085117Y-83079171D01*
X107067393Y-83063107D01*
X107051329Y-83045383D01*
X107037079Y-83026170D01*
X107024782Y-83005653D01*
X107014554Y-82984029D01*
X107006496Y-82961507D01*
X107000684Y-82938303D01*
X106997174Y-82914642D01*
X106996000Y-82890750D01*
X106996000Y-82403250D01*
X106997174Y-82379358D01*
X107000684Y-82355697D01*
X107006496Y-82332493D01*
X107014554Y-82309971D01*
X107024782Y-82288347D01*
X107037079Y-82267830D01*
X107051329Y-82248617D01*
X107067393Y-82230893D01*
X107085117Y-82214829D01*
X107104330Y-82200579D01*
X107124847Y-82188282D01*
X107146471Y-82178054D01*
X107168993Y-82169996D01*
X107192197Y-82164184D01*
X107215858Y-82160674D01*
X107239750Y-82159500D01*
X108152250Y-82159500D01*
X108176142Y-82160674D01*
X108176142Y-82160674D01*
G37*
D16*
X107696000Y-82647000D03*
D11*
G36*
X108176142Y-80285674D02*
G01*
X108199803Y-80289184D01*
X108223007Y-80294996D01*
X108245529Y-80303054D01*
X108267153Y-80313282D01*
X108287670Y-80325579D01*
X108306883Y-80339829D01*
X108324607Y-80355893D01*
X108340671Y-80373617D01*
X108354921Y-80392830D01*
X108367218Y-80413347D01*
X108377446Y-80434971D01*
X108385504Y-80457493D01*
X108391316Y-80480697D01*
X108394826Y-80504358D01*
X108396000Y-80528250D01*
X108396000Y-81015750D01*
X108394826Y-81039642D01*
X108391316Y-81063303D01*
X108385504Y-81086507D01*
X108377446Y-81109029D01*
X108367218Y-81130653D01*
X108354921Y-81151170D01*
X108340671Y-81170383D01*
X108324607Y-81188107D01*
X108306883Y-81204171D01*
X108287670Y-81218421D01*
X108267153Y-81230718D01*
X108245529Y-81240946D01*
X108223007Y-81249004D01*
X108199803Y-81254816D01*
X108176142Y-81258326D01*
X108152250Y-81259500D01*
X107239750Y-81259500D01*
X107215858Y-81258326D01*
X107192197Y-81254816D01*
X107168993Y-81249004D01*
X107146471Y-81240946D01*
X107124847Y-81230718D01*
X107104330Y-81218421D01*
X107085117Y-81204171D01*
X107067393Y-81188107D01*
X107051329Y-81170383D01*
X107037079Y-81151170D01*
X107024782Y-81130653D01*
X107014554Y-81109029D01*
X107006496Y-81086507D01*
X107000684Y-81063303D01*
X106997174Y-81039642D01*
X106996000Y-81015750D01*
X106996000Y-80528250D01*
X106997174Y-80504358D01*
X107000684Y-80480697D01*
X107006496Y-80457493D01*
X107014554Y-80434971D01*
X107024782Y-80413347D01*
X107037079Y-80392830D01*
X107051329Y-80373617D01*
X107067393Y-80355893D01*
X107085117Y-80339829D01*
X107104330Y-80325579D01*
X107124847Y-80313282D01*
X107146471Y-80303054D01*
X107168993Y-80294996D01*
X107192197Y-80289184D01*
X107215858Y-80285674D01*
X107239750Y-80284500D01*
X108152250Y-80284500D01*
X108176142Y-80285674D01*
X108176142Y-80285674D01*
G37*
D16*
X107696000Y-80772000D03*
D11*
G36*
X98004691Y-79536053D02*
G01*
X98025926Y-79539203D01*
X98046750Y-79544419D01*
X98066962Y-79551651D01*
X98086368Y-79560830D01*
X98104781Y-79571866D01*
X98122024Y-79584654D01*
X98137930Y-79599070D01*
X98152346Y-79614976D01*
X98165134Y-79632219D01*
X98176170Y-79650632D01*
X98185349Y-79670038D01*
X98192581Y-79690250D01*
X98197797Y-79711074D01*
X98200947Y-79732309D01*
X98202000Y-79753750D01*
X98202000Y-80266250D01*
X98200947Y-80287691D01*
X98197797Y-80308926D01*
X98192581Y-80329750D01*
X98185349Y-80349962D01*
X98176170Y-80369368D01*
X98165134Y-80387781D01*
X98152346Y-80405024D01*
X98137930Y-80420930D01*
X98122024Y-80435346D01*
X98104781Y-80448134D01*
X98086368Y-80459170D01*
X98066962Y-80468349D01*
X98046750Y-80475581D01*
X98025926Y-80480797D01*
X98004691Y-80483947D01*
X97983250Y-80485000D01*
X97545750Y-80485000D01*
X97524309Y-80483947D01*
X97503074Y-80480797D01*
X97482250Y-80475581D01*
X97462038Y-80468349D01*
X97442632Y-80459170D01*
X97424219Y-80448134D01*
X97406976Y-80435346D01*
X97391070Y-80420930D01*
X97376654Y-80405024D01*
X97363866Y-80387781D01*
X97352830Y-80369368D01*
X97343651Y-80349962D01*
X97336419Y-80329750D01*
X97331203Y-80308926D01*
X97328053Y-80287691D01*
X97327000Y-80266250D01*
X97327000Y-79753750D01*
X97328053Y-79732309D01*
X97331203Y-79711074D01*
X97336419Y-79690250D01*
X97343651Y-79670038D01*
X97352830Y-79650632D01*
X97363866Y-79632219D01*
X97376654Y-79614976D01*
X97391070Y-79599070D01*
X97406976Y-79584654D01*
X97424219Y-79571866D01*
X97442632Y-79560830D01*
X97462038Y-79551651D01*
X97482250Y-79544419D01*
X97503074Y-79539203D01*
X97524309Y-79536053D01*
X97545750Y-79535000D01*
X97983250Y-79535000D01*
X98004691Y-79536053D01*
X98004691Y-79536053D01*
G37*
D17*
X97764500Y-80010000D03*
D11*
G36*
X99579691Y-79536053D02*
G01*
X99600926Y-79539203D01*
X99621750Y-79544419D01*
X99641962Y-79551651D01*
X99661368Y-79560830D01*
X99679781Y-79571866D01*
X99697024Y-79584654D01*
X99712930Y-79599070D01*
X99727346Y-79614976D01*
X99740134Y-79632219D01*
X99751170Y-79650632D01*
X99760349Y-79670038D01*
X99767581Y-79690250D01*
X99772797Y-79711074D01*
X99775947Y-79732309D01*
X99777000Y-79753750D01*
X99777000Y-80266250D01*
X99775947Y-80287691D01*
X99772797Y-80308926D01*
X99767581Y-80329750D01*
X99760349Y-80349962D01*
X99751170Y-80369368D01*
X99740134Y-80387781D01*
X99727346Y-80405024D01*
X99712930Y-80420930D01*
X99697024Y-80435346D01*
X99679781Y-80448134D01*
X99661368Y-80459170D01*
X99641962Y-80468349D01*
X99621750Y-80475581D01*
X99600926Y-80480797D01*
X99579691Y-80483947D01*
X99558250Y-80485000D01*
X99120750Y-80485000D01*
X99099309Y-80483947D01*
X99078074Y-80480797D01*
X99057250Y-80475581D01*
X99037038Y-80468349D01*
X99017632Y-80459170D01*
X98999219Y-80448134D01*
X98981976Y-80435346D01*
X98966070Y-80420930D01*
X98951654Y-80405024D01*
X98938866Y-80387781D01*
X98927830Y-80369368D01*
X98918651Y-80349962D01*
X98911419Y-80329750D01*
X98906203Y-80308926D01*
X98903053Y-80287691D01*
X98902000Y-80266250D01*
X98902000Y-79753750D01*
X98903053Y-79732309D01*
X98906203Y-79711074D01*
X98911419Y-79690250D01*
X98918651Y-79670038D01*
X98927830Y-79650632D01*
X98938866Y-79632219D01*
X98951654Y-79614976D01*
X98966070Y-79599070D01*
X98981976Y-79584654D01*
X98999219Y-79571866D01*
X99017632Y-79560830D01*
X99037038Y-79551651D01*
X99057250Y-79544419D01*
X99078074Y-79539203D01*
X99099309Y-79536053D01*
X99120750Y-79535000D01*
X99558250Y-79535000D01*
X99579691Y-79536053D01*
X99579691Y-79536053D01*
G37*
D17*
X99339500Y-80010000D03*
D11*
G36*
X102258691Y-82139053D02*
G01*
X102279926Y-82142203D01*
X102300750Y-82147419D01*
X102320962Y-82154651D01*
X102340368Y-82163830D01*
X102358781Y-82174866D01*
X102376024Y-82187654D01*
X102391930Y-82202070D01*
X102406346Y-82217976D01*
X102419134Y-82235219D01*
X102430170Y-82253632D01*
X102439349Y-82273038D01*
X102446581Y-82293250D01*
X102451797Y-82314074D01*
X102454947Y-82335309D01*
X102456000Y-82356750D01*
X102456000Y-82794250D01*
X102454947Y-82815691D01*
X102451797Y-82836926D01*
X102446581Y-82857750D01*
X102439349Y-82877962D01*
X102430170Y-82897368D01*
X102419134Y-82915781D01*
X102406346Y-82933024D01*
X102391930Y-82948930D01*
X102376024Y-82963346D01*
X102358781Y-82976134D01*
X102340368Y-82987170D01*
X102320962Y-82996349D01*
X102300750Y-83003581D01*
X102279926Y-83008797D01*
X102258691Y-83011947D01*
X102237250Y-83013000D01*
X101724750Y-83013000D01*
X101703309Y-83011947D01*
X101682074Y-83008797D01*
X101661250Y-83003581D01*
X101641038Y-82996349D01*
X101621632Y-82987170D01*
X101603219Y-82976134D01*
X101585976Y-82963346D01*
X101570070Y-82948930D01*
X101555654Y-82933024D01*
X101542866Y-82915781D01*
X101531830Y-82897368D01*
X101522651Y-82877962D01*
X101515419Y-82857750D01*
X101510203Y-82836926D01*
X101507053Y-82815691D01*
X101506000Y-82794250D01*
X101506000Y-82356750D01*
X101507053Y-82335309D01*
X101510203Y-82314074D01*
X101515419Y-82293250D01*
X101522651Y-82273038D01*
X101531830Y-82253632D01*
X101542866Y-82235219D01*
X101555654Y-82217976D01*
X101570070Y-82202070D01*
X101585976Y-82187654D01*
X101603219Y-82174866D01*
X101621632Y-82163830D01*
X101641038Y-82154651D01*
X101661250Y-82147419D01*
X101682074Y-82142203D01*
X101703309Y-82139053D01*
X101724750Y-82138000D01*
X102237250Y-82138000D01*
X102258691Y-82139053D01*
X102258691Y-82139053D01*
G37*
D17*
X101981000Y-82575500D03*
D11*
G36*
X102258691Y-80564053D02*
G01*
X102279926Y-80567203D01*
X102300750Y-80572419D01*
X102320962Y-80579651D01*
X102340368Y-80588830D01*
X102358781Y-80599866D01*
X102376024Y-80612654D01*
X102391930Y-80627070D01*
X102406346Y-80642976D01*
X102419134Y-80660219D01*
X102430170Y-80678632D01*
X102439349Y-80698038D01*
X102446581Y-80718250D01*
X102451797Y-80739074D01*
X102454947Y-80760309D01*
X102456000Y-80781750D01*
X102456000Y-81219250D01*
X102454947Y-81240691D01*
X102451797Y-81261926D01*
X102446581Y-81282750D01*
X102439349Y-81302962D01*
X102430170Y-81322368D01*
X102419134Y-81340781D01*
X102406346Y-81358024D01*
X102391930Y-81373930D01*
X102376024Y-81388346D01*
X102358781Y-81401134D01*
X102340368Y-81412170D01*
X102320962Y-81421349D01*
X102300750Y-81428581D01*
X102279926Y-81433797D01*
X102258691Y-81436947D01*
X102237250Y-81438000D01*
X101724750Y-81438000D01*
X101703309Y-81436947D01*
X101682074Y-81433797D01*
X101661250Y-81428581D01*
X101641038Y-81421349D01*
X101621632Y-81412170D01*
X101603219Y-81401134D01*
X101585976Y-81388346D01*
X101570070Y-81373930D01*
X101555654Y-81358024D01*
X101542866Y-81340781D01*
X101531830Y-81322368D01*
X101522651Y-81302962D01*
X101515419Y-81282750D01*
X101510203Y-81261926D01*
X101507053Y-81240691D01*
X101506000Y-81219250D01*
X101506000Y-80781750D01*
X101507053Y-80760309D01*
X101510203Y-80739074D01*
X101515419Y-80718250D01*
X101522651Y-80698038D01*
X101531830Y-80678632D01*
X101542866Y-80660219D01*
X101555654Y-80642976D01*
X101570070Y-80627070D01*
X101585976Y-80612654D01*
X101603219Y-80599866D01*
X101621632Y-80588830D01*
X101641038Y-80579651D01*
X101661250Y-80572419D01*
X101682074Y-80567203D01*
X101703309Y-80564053D01*
X101724750Y-80563000D01*
X102237250Y-80563000D01*
X102258691Y-80564053D01*
X102258691Y-80564053D01*
G37*
D17*
X101981000Y-81000500D03*
D11*
G36*
X97369691Y-76488053D02*
G01*
X97390926Y-76491203D01*
X97411750Y-76496419D01*
X97431962Y-76503651D01*
X97451368Y-76512830D01*
X97469781Y-76523866D01*
X97487024Y-76536654D01*
X97502930Y-76551070D01*
X97517346Y-76566976D01*
X97530134Y-76584219D01*
X97541170Y-76602632D01*
X97550349Y-76622038D01*
X97557581Y-76642250D01*
X97562797Y-76663074D01*
X97565947Y-76684309D01*
X97567000Y-76705750D01*
X97567000Y-77218250D01*
X97565947Y-77239691D01*
X97562797Y-77260926D01*
X97557581Y-77281750D01*
X97550349Y-77301962D01*
X97541170Y-77321368D01*
X97530134Y-77339781D01*
X97517346Y-77357024D01*
X97502930Y-77372930D01*
X97487024Y-77387346D01*
X97469781Y-77400134D01*
X97451368Y-77411170D01*
X97431962Y-77420349D01*
X97411750Y-77427581D01*
X97390926Y-77432797D01*
X97369691Y-77435947D01*
X97348250Y-77437000D01*
X96910750Y-77437000D01*
X96889309Y-77435947D01*
X96868074Y-77432797D01*
X96847250Y-77427581D01*
X96827038Y-77420349D01*
X96807632Y-77411170D01*
X96789219Y-77400134D01*
X96771976Y-77387346D01*
X96756070Y-77372930D01*
X96741654Y-77357024D01*
X96728866Y-77339781D01*
X96717830Y-77321368D01*
X96708651Y-77301962D01*
X96701419Y-77281750D01*
X96696203Y-77260926D01*
X96693053Y-77239691D01*
X96692000Y-77218250D01*
X96692000Y-76705750D01*
X96693053Y-76684309D01*
X96696203Y-76663074D01*
X96701419Y-76642250D01*
X96708651Y-76622038D01*
X96717830Y-76602632D01*
X96728866Y-76584219D01*
X96741654Y-76566976D01*
X96756070Y-76551070D01*
X96771976Y-76536654D01*
X96789219Y-76523866D01*
X96807632Y-76512830D01*
X96827038Y-76503651D01*
X96847250Y-76496419D01*
X96868074Y-76491203D01*
X96889309Y-76488053D01*
X96910750Y-76487000D01*
X97348250Y-76487000D01*
X97369691Y-76488053D01*
X97369691Y-76488053D01*
G37*
D17*
X97129500Y-76962000D03*
D11*
G36*
X98944691Y-76488053D02*
G01*
X98965926Y-76491203D01*
X98986750Y-76496419D01*
X99006962Y-76503651D01*
X99026368Y-76512830D01*
X99044781Y-76523866D01*
X99062024Y-76536654D01*
X99077930Y-76551070D01*
X99092346Y-76566976D01*
X99105134Y-76584219D01*
X99116170Y-76602632D01*
X99125349Y-76622038D01*
X99132581Y-76642250D01*
X99137797Y-76663074D01*
X99140947Y-76684309D01*
X99142000Y-76705750D01*
X99142000Y-77218250D01*
X99140947Y-77239691D01*
X99137797Y-77260926D01*
X99132581Y-77281750D01*
X99125349Y-77301962D01*
X99116170Y-77321368D01*
X99105134Y-77339781D01*
X99092346Y-77357024D01*
X99077930Y-77372930D01*
X99062024Y-77387346D01*
X99044781Y-77400134D01*
X99026368Y-77411170D01*
X99006962Y-77420349D01*
X98986750Y-77427581D01*
X98965926Y-77432797D01*
X98944691Y-77435947D01*
X98923250Y-77437000D01*
X98485750Y-77437000D01*
X98464309Y-77435947D01*
X98443074Y-77432797D01*
X98422250Y-77427581D01*
X98402038Y-77420349D01*
X98382632Y-77411170D01*
X98364219Y-77400134D01*
X98346976Y-77387346D01*
X98331070Y-77372930D01*
X98316654Y-77357024D01*
X98303866Y-77339781D01*
X98292830Y-77321368D01*
X98283651Y-77301962D01*
X98276419Y-77281750D01*
X98271203Y-77260926D01*
X98268053Y-77239691D01*
X98267000Y-77218250D01*
X98267000Y-76705750D01*
X98268053Y-76684309D01*
X98271203Y-76663074D01*
X98276419Y-76642250D01*
X98283651Y-76622038D01*
X98292830Y-76602632D01*
X98303866Y-76584219D01*
X98316654Y-76566976D01*
X98331070Y-76551070D01*
X98346976Y-76536654D01*
X98364219Y-76523866D01*
X98382632Y-76512830D01*
X98402038Y-76503651D01*
X98422250Y-76496419D01*
X98443074Y-76491203D01*
X98464309Y-76488053D01*
X98485750Y-76487000D01*
X98923250Y-76487000D01*
X98944691Y-76488053D01*
X98944691Y-76488053D01*
G37*
D17*
X98704500Y-76962000D03*
D11*
G36*
X98944691Y-74710053D02*
G01*
X98965926Y-74713203D01*
X98986750Y-74718419D01*
X99006962Y-74725651D01*
X99026368Y-74734830D01*
X99044781Y-74745866D01*
X99062024Y-74758654D01*
X99077930Y-74773070D01*
X99092346Y-74788976D01*
X99105134Y-74806219D01*
X99116170Y-74824632D01*
X99125349Y-74844038D01*
X99132581Y-74864250D01*
X99137797Y-74885074D01*
X99140947Y-74906309D01*
X99142000Y-74927750D01*
X99142000Y-75440250D01*
X99140947Y-75461691D01*
X99137797Y-75482926D01*
X99132581Y-75503750D01*
X99125349Y-75523962D01*
X99116170Y-75543368D01*
X99105134Y-75561781D01*
X99092346Y-75579024D01*
X99077930Y-75594930D01*
X99062024Y-75609346D01*
X99044781Y-75622134D01*
X99026368Y-75633170D01*
X99006962Y-75642349D01*
X98986750Y-75649581D01*
X98965926Y-75654797D01*
X98944691Y-75657947D01*
X98923250Y-75659000D01*
X98485750Y-75659000D01*
X98464309Y-75657947D01*
X98443074Y-75654797D01*
X98422250Y-75649581D01*
X98402038Y-75642349D01*
X98382632Y-75633170D01*
X98364219Y-75622134D01*
X98346976Y-75609346D01*
X98331070Y-75594930D01*
X98316654Y-75579024D01*
X98303866Y-75561781D01*
X98292830Y-75543368D01*
X98283651Y-75523962D01*
X98276419Y-75503750D01*
X98271203Y-75482926D01*
X98268053Y-75461691D01*
X98267000Y-75440250D01*
X98267000Y-74927750D01*
X98268053Y-74906309D01*
X98271203Y-74885074D01*
X98276419Y-74864250D01*
X98283651Y-74844038D01*
X98292830Y-74824632D01*
X98303866Y-74806219D01*
X98316654Y-74788976D01*
X98331070Y-74773070D01*
X98346976Y-74758654D01*
X98364219Y-74745866D01*
X98382632Y-74734830D01*
X98402038Y-74725651D01*
X98422250Y-74718419D01*
X98443074Y-74713203D01*
X98464309Y-74710053D01*
X98485750Y-74709000D01*
X98923250Y-74709000D01*
X98944691Y-74710053D01*
X98944691Y-74710053D01*
G37*
D17*
X98704500Y-75184000D03*
D11*
G36*
X97369691Y-74710053D02*
G01*
X97390926Y-74713203D01*
X97411750Y-74718419D01*
X97431962Y-74725651D01*
X97451368Y-74734830D01*
X97469781Y-74745866D01*
X97487024Y-74758654D01*
X97502930Y-74773070D01*
X97517346Y-74788976D01*
X97530134Y-74806219D01*
X97541170Y-74824632D01*
X97550349Y-74844038D01*
X97557581Y-74864250D01*
X97562797Y-74885074D01*
X97565947Y-74906309D01*
X97567000Y-74927750D01*
X97567000Y-75440250D01*
X97565947Y-75461691D01*
X97562797Y-75482926D01*
X97557581Y-75503750D01*
X97550349Y-75523962D01*
X97541170Y-75543368D01*
X97530134Y-75561781D01*
X97517346Y-75579024D01*
X97502930Y-75594930D01*
X97487024Y-75609346D01*
X97469781Y-75622134D01*
X97451368Y-75633170D01*
X97431962Y-75642349D01*
X97411750Y-75649581D01*
X97390926Y-75654797D01*
X97369691Y-75657947D01*
X97348250Y-75659000D01*
X96910750Y-75659000D01*
X96889309Y-75657947D01*
X96868074Y-75654797D01*
X96847250Y-75649581D01*
X96827038Y-75642349D01*
X96807632Y-75633170D01*
X96789219Y-75622134D01*
X96771976Y-75609346D01*
X96756070Y-75594930D01*
X96741654Y-75579024D01*
X96728866Y-75561781D01*
X96717830Y-75543368D01*
X96708651Y-75523962D01*
X96701419Y-75503750D01*
X96696203Y-75482926D01*
X96693053Y-75461691D01*
X96692000Y-75440250D01*
X96692000Y-74927750D01*
X96693053Y-74906309D01*
X96696203Y-74885074D01*
X96701419Y-74864250D01*
X96708651Y-74844038D01*
X96717830Y-74824632D01*
X96728866Y-74806219D01*
X96741654Y-74788976D01*
X96756070Y-74773070D01*
X96771976Y-74758654D01*
X96789219Y-74745866D01*
X96807632Y-74734830D01*
X96827038Y-74725651D01*
X96847250Y-74718419D01*
X96868074Y-74713203D01*
X96889309Y-74710053D01*
X96910750Y-74709000D01*
X97348250Y-74709000D01*
X97369691Y-74710053D01*
X97369691Y-74710053D01*
G37*
D17*
X97129500Y-75184000D03*
D11*
G36*
X98944691Y-72932053D02*
G01*
X98965926Y-72935203D01*
X98986750Y-72940419D01*
X99006962Y-72947651D01*
X99026368Y-72956830D01*
X99044781Y-72967866D01*
X99062024Y-72980654D01*
X99077930Y-72995070D01*
X99092346Y-73010976D01*
X99105134Y-73028219D01*
X99116170Y-73046632D01*
X99125349Y-73066038D01*
X99132581Y-73086250D01*
X99137797Y-73107074D01*
X99140947Y-73128309D01*
X99142000Y-73149750D01*
X99142000Y-73662250D01*
X99140947Y-73683691D01*
X99137797Y-73704926D01*
X99132581Y-73725750D01*
X99125349Y-73745962D01*
X99116170Y-73765368D01*
X99105134Y-73783781D01*
X99092346Y-73801024D01*
X99077930Y-73816930D01*
X99062024Y-73831346D01*
X99044781Y-73844134D01*
X99026368Y-73855170D01*
X99006962Y-73864349D01*
X98986750Y-73871581D01*
X98965926Y-73876797D01*
X98944691Y-73879947D01*
X98923250Y-73881000D01*
X98485750Y-73881000D01*
X98464309Y-73879947D01*
X98443074Y-73876797D01*
X98422250Y-73871581D01*
X98402038Y-73864349D01*
X98382632Y-73855170D01*
X98364219Y-73844134D01*
X98346976Y-73831346D01*
X98331070Y-73816930D01*
X98316654Y-73801024D01*
X98303866Y-73783781D01*
X98292830Y-73765368D01*
X98283651Y-73745962D01*
X98276419Y-73725750D01*
X98271203Y-73704926D01*
X98268053Y-73683691D01*
X98267000Y-73662250D01*
X98267000Y-73149750D01*
X98268053Y-73128309D01*
X98271203Y-73107074D01*
X98276419Y-73086250D01*
X98283651Y-73066038D01*
X98292830Y-73046632D01*
X98303866Y-73028219D01*
X98316654Y-73010976D01*
X98331070Y-72995070D01*
X98346976Y-72980654D01*
X98364219Y-72967866D01*
X98382632Y-72956830D01*
X98402038Y-72947651D01*
X98422250Y-72940419D01*
X98443074Y-72935203D01*
X98464309Y-72932053D01*
X98485750Y-72931000D01*
X98923250Y-72931000D01*
X98944691Y-72932053D01*
X98944691Y-72932053D01*
G37*
D17*
X98704500Y-73406000D03*
D11*
G36*
X97369691Y-72932053D02*
G01*
X97390926Y-72935203D01*
X97411750Y-72940419D01*
X97431962Y-72947651D01*
X97451368Y-72956830D01*
X97469781Y-72967866D01*
X97487024Y-72980654D01*
X97502930Y-72995070D01*
X97517346Y-73010976D01*
X97530134Y-73028219D01*
X97541170Y-73046632D01*
X97550349Y-73066038D01*
X97557581Y-73086250D01*
X97562797Y-73107074D01*
X97565947Y-73128309D01*
X97567000Y-73149750D01*
X97567000Y-73662250D01*
X97565947Y-73683691D01*
X97562797Y-73704926D01*
X97557581Y-73725750D01*
X97550349Y-73745962D01*
X97541170Y-73765368D01*
X97530134Y-73783781D01*
X97517346Y-73801024D01*
X97502930Y-73816930D01*
X97487024Y-73831346D01*
X97469781Y-73844134D01*
X97451368Y-73855170D01*
X97431962Y-73864349D01*
X97411750Y-73871581D01*
X97390926Y-73876797D01*
X97369691Y-73879947D01*
X97348250Y-73881000D01*
X96910750Y-73881000D01*
X96889309Y-73879947D01*
X96868074Y-73876797D01*
X96847250Y-73871581D01*
X96827038Y-73864349D01*
X96807632Y-73855170D01*
X96789219Y-73844134D01*
X96771976Y-73831346D01*
X96756070Y-73816930D01*
X96741654Y-73801024D01*
X96728866Y-73783781D01*
X96717830Y-73765368D01*
X96708651Y-73745962D01*
X96701419Y-73725750D01*
X96696203Y-73704926D01*
X96693053Y-73683691D01*
X96692000Y-73662250D01*
X96692000Y-73149750D01*
X96693053Y-73128309D01*
X96696203Y-73107074D01*
X96701419Y-73086250D01*
X96708651Y-73066038D01*
X96717830Y-73046632D01*
X96728866Y-73028219D01*
X96741654Y-73010976D01*
X96756070Y-72995070D01*
X96771976Y-72980654D01*
X96789219Y-72967866D01*
X96807632Y-72956830D01*
X96827038Y-72947651D01*
X96847250Y-72940419D01*
X96868074Y-72935203D01*
X96889309Y-72932053D01*
X96910750Y-72931000D01*
X97348250Y-72931000D01*
X97369691Y-72932053D01*
X97369691Y-72932053D01*
G37*
D17*
X97129500Y-73406000D03*
D11*
G36*
X105814691Y-80564053D02*
G01*
X105835926Y-80567203D01*
X105856750Y-80572419D01*
X105876962Y-80579651D01*
X105896368Y-80588830D01*
X105914781Y-80599866D01*
X105932024Y-80612654D01*
X105947930Y-80627070D01*
X105962346Y-80642976D01*
X105975134Y-80660219D01*
X105986170Y-80678632D01*
X105995349Y-80698038D01*
X106002581Y-80718250D01*
X106007797Y-80739074D01*
X106010947Y-80760309D01*
X106012000Y-80781750D01*
X106012000Y-81219250D01*
X106010947Y-81240691D01*
X106007797Y-81261926D01*
X106002581Y-81282750D01*
X105995349Y-81302962D01*
X105986170Y-81322368D01*
X105975134Y-81340781D01*
X105962346Y-81358024D01*
X105947930Y-81373930D01*
X105932024Y-81388346D01*
X105914781Y-81401134D01*
X105896368Y-81412170D01*
X105876962Y-81421349D01*
X105856750Y-81428581D01*
X105835926Y-81433797D01*
X105814691Y-81436947D01*
X105793250Y-81438000D01*
X105280750Y-81438000D01*
X105259309Y-81436947D01*
X105238074Y-81433797D01*
X105217250Y-81428581D01*
X105197038Y-81421349D01*
X105177632Y-81412170D01*
X105159219Y-81401134D01*
X105141976Y-81388346D01*
X105126070Y-81373930D01*
X105111654Y-81358024D01*
X105098866Y-81340781D01*
X105087830Y-81322368D01*
X105078651Y-81302962D01*
X105071419Y-81282750D01*
X105066203Y-81261926D01*
X105063053Y-81240691D01*
X105062000Y-81219250D01*
X105062000Y-80781750D01*
X105063053Y-80760309D01*
X105066203Y-80739074D01*
X105071419Y-80718250D01*
X105078651Y-80698038D01*
X105087830Y-80678632D01*
X105098866Y-80660219D01*
X105111654Y-80642976D01*
X105126070Y-80627070D01*
X105141976Y-80612654D01*
X105159219Y-80599866D01*
X105177632Y-80588830D01*
X105197038Y-80579651D01*
X105217250Y-80572419D01*
X105238074Y-80567203D01*
X105259309Y-80564053D01*
X105280750Y-80563000D01*
X105793250Y-80563000D01*
X105814691Y-80564053D01*
X105814691Y-80564053D01*
G37*
D17*
X105537000Y-81000500D03*
D11*
G36*
X105814691Y-82139053D02*
G01*
X105835926Y-82142203D01*
X105856750Y-82147419D01*
X105876962Y-82154651D01*
X105896368Y-82163830D01*
X105914781Y-82174866D01*
X105932024Y-82187654D01*
X105947930Y-82202070D01*
X105962346Y-82217976D01*
X105975134Y-82235219D01*
X105986170Y-82253632D01*
X105995349Y-82273038D01*
X106002581Y-82293250D01*
X106007797Y-82314074D01*
X106010947Y-82335309D01*
X106012000Y-82356750D01*
X106012000Y-82794250D01*
X106010947Y-82815691D01*
X106007797Y-82836926D01*
X106002581Y-82857750D01*
X105995349Y-82877962D01*
X105986170Y-82897368D01*
X105975134Y-82915781D01*
X105962346Y-82933024D01*
X105947930Y-82948930D01*
X105932024Y-82963346D01*
X105914781Y-82976134D01*
X105896368Y-82987170D01*
X105876962Y-82996349D01*
X105856750Y-83003581D01*
X105835926Y-83008797D01*
X105814691Y-83011947D01*
X105793250Y-83013000D01*
X105280750Y-83013000D01*
X105259309Y-83011947D01*
X105238074Y-83008797D01*
X105217250Y-83003581D01*
X105197038Y-82996349D01*
X105177632Y-82987170D01*
X105159219Y-82976134D01*
X105141976Y-82963346D01*
X105126070Y-82948930D01*
X105111654Y-82933024D01*
X105098866Y-82915781D01*
X105087830Y-82897368D01*
X105078651Y-82877962D01*
X105071419Y-82857750D01*
X105066203Y-82836926D01*
X105063053Y-82815691D01*
X105062000Y-82794250D01*
X105062000Y-82356750D01*
X105063053Y-82335309D01*
X105066203Y-82314074D01*
X105071419Y-82293250D01*
X105078651Y-82273038D01*
X105087830Y-82253632D01*
X105098866Y-82235219D01*
X105111654Y-82217976D01*
X105126070Y-82202070D01*
X105141976Y-82187654D01*
X105159219Y-82174866D01*
X105177632Y-82163830D01*
X105197038Y-82154651D01*
X105217250Y-82147419D01*
X105238074Y-82142203D01*
X105259309Y-82139053D01*
X105280750Y-82138000D01*
X105793250Y-82138000D01*
X105814691Y-82139053D01*
X105814691Y-82139053D01*
G37*
D17*
X105537000Y-82575500D03*
D11*
G36*
X104405691Y-66963053D02*
G01*
X104426926Y-66966203D01*
X104447750Y-66971419D01*
X104467962Y-66978651D01*
X104487368Y-66987830D01*
X104505781Y-66998866D01*
X104523024Y-67011654D01*
X104538930Y-67026070D01*
X104553346Y-67041976D01*
X104566134Y-67059219D01*
X104577170Y-67077632D01*
X104586349Y-67097038D01*
X104593581Y-67117250D01*
X104598797Y-67138074D01*
X104601947Y-67159309D01*
X104603000Y-67180750D01*
X104603000Y-67693250D01*
X104601947Y-67714691D01*
X104598797Y-67735926D01*
X104593581Y-67756750D01*
X104586349Y-67776962D01*
X104577170Y-67796368D01*
X104566134Y-67814781D01*
X104553346Y-67832024D01*
X104538930Y-67847930D01*
X104523024Y-67862346D01*
X104505781Y-67875134D01*
X104487368Y-67886170D01*
X104467962Y-67895349D01*
X104447750Y-67902581D01*
X104426926Y-67907797D01*
X104405691Y-67910947D01*
X104384250Y-67912000D01*
X103946750Y-67912000D01*
X103925309Y-67910947D01*
X103904074Y-67907797D01*
X103883250Y-67902581D01*
X103863038Y-67895349D01*
X103843632Y-67886170D01*
X103825219Y-67875134D01*
X103807976Y-67862346D01*
X103792070Y-67847930D01*
X103777654Y-67832024D01*
X103764866Y-67814781D01*
X103753830Y-67796368D01*
X103744651Y-67776962D01*
X103737419Y-67756750D01*
X103732203Y-67735926D01*
X103729053Y-67714691D01*
X103728000Y-67693250D01*
X103728000Y-67180750D01*
X103729053Y-67159309D01*
X103732203Y-67138074D01*
X103737419Y-67117250D01*
X103744651Y-67097038D01*
X103753830Y-67077632D01*
X103764866Y-67059219D01*
X103777654Y-67041976D01*
X103792070Y-67026070D01*
X103807976Y-67011654D01*
X103825219Y-66998866D01*
X103843632Y-66987830D01*
X103863038Y-66978651D01*
X103883250Y-66971419D01*
X103904074Y-66966203D01*
X103925309Y-66963053D01*
X103946750Y-66962000D01*
X104384250Y-66962000D01*
X104405691Y-66963053D01*
X104405691Y-66963053D01*
G37*
D17*
X104165500Y-67437000D03*
D11*
G36*
X102830691Y-66963053D02*
G01*
X102851926Y-66966203D01*
X102872750Y-66971419D01*
X102892962Y-66978651D01*
X102912368Y-66987830D01*
X102930781Y-66998866D01*
X102948024Y-67011654D01*
X102963930Y-67026070D01*
X102978346Y-67041976D01*
X102991134Y-67059219D01*
X103002170Y-67077632D01*
X103011349Y-67097038D01*
X103018581Y-67117250D01*
X103023797Y-67138074D01*
X103026947Y-67159309D01*
X103028000Y-67180750D01*
X103028000Y-67693250D01*
X103026947Y-67714691D01*
X103023797Y-67735926D01*
X103018581Y-67756750D01*
X103011349Y-67776962D01*
X103002170Y-67796368D01*
X102991134Y-67814781D01*
X102978346Y-67832024D01*
X102963930Y-67847930D01*
X102948024Y-67862346D01*
X102930781Y-67875134D01*
X102912368Y-67886170D01*
X102892962Y-67895349D01*
X102872750Y-67902581D01*
X102851926Y-67907797D01*
X102830691Y-67910947D01*
X102809250Y-67912000D01*
X102371750Y-67912000D01*
X102350309Y-67910947D01*
X102329074Y-67907797D01*
X102308250Y-67902581D01*
X102288038Y-67895349D01*
X102268632Y-67886170D01*
X102250219Y-67875134D01*
X102232976Y-67862346D01*
X102217070Y-67847930D01*
X102202654Y-67832024D01*
X102189866Y-67814781D01*
X102178830Y-67796368D01*
X102169651Y-67776962D01*
X102162419Y-67756750D01*
X102157203Y-67735926D01*
X102154053Y-67714691D01*
X102153000Y-67693250D01*
X102153000Y-67180750D01*
X102154053Y-67159309D01*
X102157203Y-67138074D01*
X102162419Y-67117250D01*
X102169651Y-67097038D01*
X102178830Y-67077632D01*
X102189866Y-67059219D01*
X102202654Y-67041976D01*
X102217070Y-67026070D01*
X102232976Y-67011654D01*
X102250219Y-66998866D01*
X102268632Y-66987830D01*
X102288038Y-66978651D01*
X102308250Y-66971419D01*
X102329074Y-66966203D01*
X102350309Y-66963053D01*
X102371750Y-66962000D01*
X102809250Y-66962000D01*
X102830691Y-66963053D01*
X102830691Y-66963053D01*
G37*
D17*
X102590500Y-67437000D03*
D11*
G36*
X104036691Y-82139053D02*
G01*
X104057926Y-82142203D01*
X104078750Y-82147419D01*
X104098962Y-82154651D01*
X104118368Y-82163830D01*
X104136781Y-82174866D01*
X104154024Y-82187654D01*
X104169930Y-82202070D01*
X104184346Y-82217976D01*
X104197134Y-82235219D01*
X104208170Y-82253632D01*
X104217349Y-82273038D01*
X104224581Y-82293250D01*
X104229797Y-82314074D01*
X104232947Y-82335309D01*
X104234000Y-82356750D01*
X104234000Y-82794250D01*
X104232947Y-82815691D01*
X104229797Y-82836926D01*
X104224581Y-82857750D01*
X104217349Y-82877962D01*
X104208170Y-82897368D01*
X104197134Y-82915781D01*
X104184346Y-82933024D01*
X104169930Y-82948930D01*
X104154024Y-82963346D01*
X104136781Y-82976134D01*
X104118368Y-82987170D01*
X104098962Y-82996349D01*
X104078750Y-83003581D01*
X104057926Y-83008797D01*
X104036691Y-83011947D01*
X104015250Y-83013000D01*
X103502750Y-83013000D01*
X103481309Y-83011947D01*
X103460074Y-83008797D01*
X103439250Y-83003581D01*
X103419038Y-82996349D01*
X103399632Y-82987170D01*
X103381219Y-82976134D01*
X103363976Y-82963346D01*
X103348070Y-82948930D01*
X103333654Y-82933024D01*
X103320866Y-82915781D01*
X103309830Y-82897368D01*
X103300651Y-82877962D01*
X103293419Y-82857750D01*
X103288203Y-82836926D01*
X103285053Y-82815691D01*
X103284000Y-82794250D01*
X103284000Y-82356750D01*
X103285053Y-82335309D01*
X103288203Y-82314074D01*
X103293419Y-82293250D01*
X103300651Y-82273038D01*
X103309830Y-82253632D01*
X103320866Y-82235219D01*
X103333654Y-82217976D01*
X103348070Y-82202070D01*
X103363976Y-82187654D01*
X103381219Y-82174866D01*
X103399632Y-82163830D01*
X103419038Y-82154651D01*
X103439250Y-82147419D01*
X103460074Y-82142203D01*
X103481309Y-82139053D01*
X103502750Y-82138000D01*
X104015250Y-82138000D01*
X104036691Y-82139053D01*
X104036691Y-82139053D01*
G37*
D17*
X103759000Y-82575500D03*
D11*
G36*
X104036691Y-80564053D02*
G01*
X104057926Y-80567203D01*
X104078750Y-80572419D01*
X104098962Y-80579651D01*
X104118368Y-80588830D01*
X104136781Y-80599866D01*
X104154024Y-80612654D01*
X104169930Y-80627070D01*
X104184346Y-80642976D01*
X104197134Y-80660219D01*
X104208170Y-80678632D01*
X104217349Y-80698038D01*
X104224581Y-80718250D01*
X104229797Y-80739074D01*
X104232947Y-80760309D01*
X104234000Y-80781750D01*
X104234000Y-81219250D01*
X104232947Y-81240691D01*
X104229797Y-81261926D01*
X104224581Y-81282750D01*
X104217349Y-81302962D01*
X104208170Y-81322368D01*
X104197134Y-81340781D01*
X104184346Y-81358024D01*
X104169930Y-81373930D01*
X104154024Y-81388346D01*
X104136781Y-81401134D01*
X104118368Y-81412170D01*
X104098962Y-81421349D01*
X104078750Y-81428581D01*
X104057926Y-81433797D01*
X104036691Y-81436947D01*
X104015250Y-81438000D01*
X103502750Y-81438000D01*
X103481309Y-81436947D01*
X103460074Y-81433797D01*
X103439250Y-81428581D01*
X103419038Y-81421349D01*
X103399632Y-81412170D01*
X103381219Y-81401134D01*
X103363976Y-81388346D01*
X103348070Y-81373930D01*
X103333654Y-81358024D01*
X103320866Y-81340781D01*
X103309830Y-81322368D01*
X103300651Y-81302962D01*
X103293419Y-81282750D01*
X103288203Y-81261926D01*
X103285053Y-81240691D01*
X103284000Y-81219250D01*
X103284000Y-80781750D01*
X103285053Y-80760309D01*
X103288203Y-80739074D01*
X103293419Y-80718250D01*
X103300651Y-80698038D01*
X103309830Y-80678632D01*
X103320866Y-80660219D01*
X103333654Y-80642976D01*
X103348070Y-80627070D01*
X103363976Y-80612654D01*
X103381219Y-80599866D01*
X103399632Y-80588830D01*
X103419038Y-80579651D01*
X103439250Y-80572419D01*
X103460074Y-80567203D01*
X103481309Y-80564053D01*
X103502750Y-80563000D01*
X104015250Y-80563000D01*
X104036691Y-80564053D01*
X104036691Y-80564053D01*
G37*
D17*
X103759000Y-81000500D03*
D11*
G36*
X89597191Y-70392053D02*
G01*
X89618426Y-70395203D01*
X89639250Y-70400419D01*
X89659462Y-70407651D01*
X89678868Y-70416830D01*
X89697281Y-70427866D01*
X89714524Y-70440654D01*
X89730430Y-70455070D01*
X89744846Y-70470976D01*
X89757634Y-70488219D01*
X89768670Y-70506632D01*
X89777849Y-70526038D01*
X89785081Y-70546250D01*
X89790297Y-70567074D01*
X89793447Y-70588309D01*
X89794500Y-70609750D01*
X89794500Y-71122250D01*
X89793447Y-71143691D01*
X89790297Y-71164926D01*
X89785081Y-71185750D01*
X89777849Y-71205962D01*
X89768670Y-71225368D01*
X89757634Y-71243781D01*
X89744846Y-71261024D01*
X89730430Y-71276930D01*
X89714524Y-71291346D01*
X89697281Y-71304134D01*
X89678868Y-71315170D01*
X89659462Y-71324349D01*
X89639250Y-71331581D01*
X89618426Y-71336797D01*
X89597191Y-71339947D01*
X89575750Y-71341000D01*
X89138250Y-71341000D01*
X89116809Y-71339947D01*
X89095574Y-71336797D01*
X89074750Y-71331581D01*
X89054538Y-71324349D01*
X89035132Y-71315170D01*
X89016719Y-71304134D01*
X88999476Y-71291346D01*
X88983570Y-71276930D01*
X88969154Y-71261024D01*
X88956366Y-71243781D01*
X88945330Y-71225368D01*
X88936151Y-71205962D01*
X88928919Y-71185750D01*
X88923703Y-71164926D01*
X88920553Y-71143691D01*
X88919500Y-71122250D01*
X88919500Y-70609750D01*
X88920553Y-70588309D01*
X88923703Y-70567074D01*
X88928919Y-70546250D01*
X88936151Y-70526038D01*
X88945330Y-70506632D01*
X88956366Y-70488219D01*
X88969154Y-70470976D01*
X88983570Y-70455070D01*
X88999476Y-70440654D01*
X89016719Y-70427866D01*
X89035132Y-70416830D01*
X89054538Y-70407651D01*
X89074750Y-70400419D01*
X89095574Y-70395203D01*
X89116809Y-70392053D01*
X89138250Y-70391000D01*
X89575750Y-70391000D01*
X89597191Y-70392053D01*
X89597191Y-70392053D01*
G37*
D17*
X89357000Y-70866000D03*
D11*
G36*
X91172191Y-70392053D02*
G01*
X91193426Y-70395203D01*
X91214250Y-70400419D01*
X91234462Y-70407651D01*
X91253868Y-70416830D01*
X91272281Y-70427866D01*
X91289524Y-70440654D01*
X91305430Y-70455070D01*
X91319846Y-70470976D01*
X91332634Y-70488219D01*
X91343670Y-70506632D01*
X91352849Y-70526038D01*
X91360081Y-70546250D01*
X91365297Y-70567074D01*
X91368447Y-70588309D01*
X91369500Y-70609750D01*
X91369500Y-71122250D01*
X91368447Y-71143691D01*
X91365297Y-71164926D01*
X91360081Y-71185750D01*
X91352849Y-71205962D01*
X91343670Y-71225368D01*
X91332634Y-71243781D01*
X91319846Y-71261024D01*
X91305430Y-71276930D01*
X91289524Y-71291346D01*
X91272281Y-71304134D01*
X91253868Y-71315170D01*
X91234462Y-71324349D01*
X91214250Y-71331581D01*
X91193426Y-71336797D01*
X91172191Y-71339947D01*
X91150750Y-71341000D01*
X90713250Y-71341000D01*
X90691809Y-71339947D01*
X90670574Y-71336797D01*
X90649750Y-71331581D01*
X90629538Y-71324349D01*
X90610132Y-71315170D01*
X90591719Y-71304134D01*
X90574476Y-71291346D01*
X90558570Y-71276930D01*
X90544154Y-71261024D01*
X90531366Y-71243781D01*
X90520330Y-71225368D01*
X90511151Y-71205962D01*
X90503919Y-71185750D01*
X90498703Y-71164926D01*
X90495553Y-71143691D01*
X90494500Y-71122250D01*
X90494500Y-70609750D01*
X90495553Y-70588309D01*
X90498703Y-70567074D01*
X90503919Y-70546250D01*
X90511151Y-70526038D01*
X90520330Y-70506632D01*
X90531366Y-70488219D01*
X90544154Y-70470976D01*
X90558570Y-70455070D01*
X90574476Y-70440654D01*
X90591719Y-70427866D01*
X90610132Y-70416830D01*
X90629538Y-70407651D01*
X90649750Y-70400419D01*
X90670574Y-70395203D01*
X90691809Y-70392053D01*
X90713250Y-70391000D01*
X91150750Y-70391000D01*
X91172191Y-70392053D01*
X91172191Y-70392053D01*
G37*
D17*
X90932000Y-70866000D03*
D11*
G36*
X94779191Y-70392053D02*
G01*
X94800426Y-70395203D01*
X94821250Y-70400419D01*
X94841462Y-70407651D01*
X94860868Y-70416830D01*
X94879281Y-70427866D01*
X94896524Y-70440654D01*
X94912430Y-70455070D01*
X94926846Y-70470976D01*
X94939634Y-70488219D01*
X94950670Y-70506632D01*
X94959849Y-70526038D01*
X94967081Y-70546250D01*
X94972297Y-70567074D01*
X94975447Y-70588309D01*
X94976500Y-70609750D01*
X94976500Y-71122250D01*
X94975447Y-71143691D01*
X94972297Y-71164926D01*
X94967081Y-71185750D01*
X94959849Y-71205962D01*
X94950670Y-71225368D01*
X94939634Y-71243781D01*
X94926846Y-71261024D01*
X94912430Y-71276930D01*
X94896524Y-71291346D01*
X94879281Y-71304134D01*
X94860868Y-71315170D01*
X94841462Y-71324349D01*
X94821250Y-71331581D01*
X94800426Y-71336797D01*
X94779191Y-71339947D01*
X94757750Y-71341000D01*
X94320250Y-71341000D01*
X94298809Y-71339947D01*
X94277574Y-71336797D01*
X94256750Y-71331581D01*
X94236538Y-71324349D01*
X94217132Y-71315170D01*
X94198719Y-71304134D01*
X94181476Y-71291346D01*
X94165570Y-71276930D01*
X94151154Y-71261024D01*
X94138366Y-71243781D01*
X94127330Y-71225368D01*
X94118151Y-71205962D01*
X94110919Y-71185750D01*
X94105703Y-71164926D01*
X94102553Y-71143691D01*
X94101500Y-71122250D01*
X94101500Y-70609750D01*
X94102553Y-70588309D01*
X94105703Y-70567074D01*
X94110919Y-70546250D01*
X94118151Y-70526038D01*
X94127330Y-70506632D01*
X94138366Y-70488219D01*
X94151154Y-70470976D01*
X94165570Y-70455070D01*
X94181476Y-70440654D01*
X94198719Y-70427866D01*
X94217132Y-70416830D01*
X94236538Y-70407651D01*
X94256750Y-70400419D01*
X94277574Y-70395203D01*
X94298809Y-70392053D01*
X94320250Y-70391000D01*
X94757750Y-70391000D01*
X94779191Y-70392053D01*
X94779191Y-70392053D01*
G37*
D17*
X94539000Y-70866000D03*
D11*
G36*
X93204191Y-70392053D02*
G01*
X93225426Y-70395203D01*
X93246250Y-70400419D01*
X93266462Y-70407651D01*
X93285868Y-70416830D01*
X93304281Y-70427866D01*
X93321524Y-70440654D01*
X93337430Y-70455070D01*
X93351846Y-70470976D01*
X93364634Y-70488219D01*
X93375670Y-70506632D01*
X93384849Y-70526038D01*
X93392081Y-70546250D01*
X93397297Y-70567074D01*
X93400447Y-70588309D01*
X93401500Y-70609750D01*
X93401500Y-71122250D01*
X93400447Y-71143691D01*
X93397297Y-71164926D01*
X93392081Y-71185750D01*
X93384849Y-71205962D01*
X93375670Y-71225368D01*
X93364634Y-71243781D01*
X93351846Y-71261024D01*
X93337430Y-71276930D01*
X93321524Y-71291346D01*
X93304281Y-71304134D01*
X93285868Y-71315170D01*
X93266462Y-71324349D01*
X93246250Y-71331581D01*
X93225426Y-71336797D01*
X93204191Y-71339947D01*
X93182750Y-71341000D01*
X92745250Y-71341000D01*
X92723809Y-71339947D01*
X92702574Y-71336797D01*
X92681750Y-71331581D01*
X92661538Y-71324349D01*
X92642132Y-71315170D01*
X92623719Y-71304134D01*
X92606476Y-71291346D01*
X92590570Y-71276930D01*
X92576154Y-71261024D01*
X92563366Y-71243781D01*
X92552330Y-71225368D01*
X92543151Y-71205962D01*
X92535919Y-71185750D01*
X92530703Y-71164926D01*
X92527553Y-71143691D01*
X92526500Y-71122250D01*
X92526500Y-70609750D01*
X92527553Y-70588309D01*
X92530703Y-70567074D01*
X92535919Y-70546250D01*
X92543151Y-70526038D01*
X92552330Y-70506632D01*
X92563366Y-70488219D01*
X92576154Y-70470976D01*
X92590570Y-70455070D01*
X92606476Y-70440654D01*
X92623719Y-70427866D01*
X92642132Y-70416830D01*
X92661538Y-70407651D01*
X92681750Y-70400419D01*
X92702574Y-70395203D01*
X92723809Y-70392053D01*
X92745250Y-70391000D01*
X93182750Y-70391000D01*
X93204191Y-70392053D01*
X93204191Y-70392053D01*
G37*
D17*
X92964000Y-70866000D03*
D11*
G36*
X129563691Y-88692053D02*
G01*
X129584926Y-88695203D01*
X129605750Y-88700419D01*
X129625962Y-88707651D01*
X129645368Y-88716830D01*
X129663781Y-88727866D01*
X129681024Y-88740654D01*
X129696930Y-88755070D01*
X129711346Y-88770976D01*
X129724134Y-88788219D01*
X129735170Y-88806632D01*
X129744349Y-88826038D01*
X129751581Y-88846250D01*
X129756797Y-88867074D01*
X129759947Y-88888309D01*
X129761000Y-88909750D01*
X129761000Y-89347250D01*
X129759947Y-89368691D01*
X129756797Y-89389926D01*
X129751581Y-89410750D01*
X129744349Y-89430962D01*
X129735170Y-89450368D01*
X129724134Y-89468781D01*
X129711346Y-89486024D01*
X129696930Y-89501930D01*
X129681024Y-89516346D01*
X129663781Y-89529134D01*
X129645368Y-89540170D01*
X129625962Y-89549349D01*
X129605750Y-89556581D01*
X129584926Y-89561797D01*
X129563691Y-89564947D01*
X129542250Y-89566000D01*
X129029750Y-89566000D01*
X129008309Y-89564947D01*
X128987074Y-89561797D01*
X128966250Y-89556581D01*
X128946038Y-89549349D01*
X128926632Y-89540170D01*
X128908219Y-89529134D01*
X128890976Y-89516346D01*
X128875070Y-89501930D01*
X128860654Y-89486024D01*
X128847866Y-89468781D01*
X128836830Y-89450368D01*
X128827651Y-89430962D01*
X128820419Y-89410750D01*
X128815203Y-89389926D01*
X128812053Y-89368691D01*
X128811000Y-89347250D01*
X128811000Y-88909750D01*
X128812053Y-88888309D01*
X128815203Y-88867074D01*
X128820419Y-88846250D01*
X128827651Y-88826038D01*
X128836830Y-88806632D01*
X128847866Y-88788219D01*
X128860654Y-88770976D01*
X128875070Y-88755070D01*
X128890976Y-88740654D01*
X128908219Y-88727866D01*
X128926632Y-88716830D01*
X128946038Y-88707651D01*
X128966250Y-88700419D01*
X128987074Y-88695203D01*
X129008309Y-88692053D01*
X129029750Y-88691000D01*
X129542250Y-88691000D01*
X129563691Y-88692053D01*
X129563691Y-88692053D01*
G37*
D17*
X129286000Y-89128500D03*
D11*
G36*
X129563691Y-90267053D02*
G01*
X129584926Y-90270203D01*
X129605750Y-90275419D01*
X129625962Y-90282651D01*
X129645368Y-90291830D01*
X129663781Y-90302866D01*
X129681024Y-90315654D01*
X129696930Y-90330070D01*
X129711346Y-90345976D01*
X129724134Y-90363219D01*
X129735170Y-90381632D01*
X129744349Y-90401038D01*
X129751581Y-90421250D01*
X129756797Y-90442074D01*
X129759947Y-90463309D01*
X129761000Y-90484750D01*
X129761000Y-90922250D01*
X129759947Y-90943691D01*
X129756797Y-90964926D01*
X129751581Y-90985750D01*
X129744349Y-91005962D01*
X129735170Y-91025368D01*
X129724134Y-91043781D01*
X129711346Y-91061024D01*
X129696930Y-91076930D01*
X129681024Y-91091346D01*
X129663781Y-91104134D01*
X129645368Y-91115170D01*
X129625962Y-91124349D01*
X129605750Y-91131581D01*
X129584926Y-91136797D01*
X129563691Y-91139947D01*
X129542250Y-91141000D01*
X129029750Y-91141000D01*
X129008309Y-91139947D01*
X128987074Y-91136797D01*
X128966250Y-91131581D01*
X128946038Y-91124349D01*
X128926632Y-91115170D01*
X128908219Y-91104134D01*
X128890976Y-91091346D01*
X128875070Y-91076930D01*
X128860654Y-91061024D01*
X128847866Y-91043781D01*
X128836830Y-91025368D01*
X128827651Y-91005962D01*
X128820419Y-90985750D01*
X128815203Y-90964926D01*
X128812053Y-90943691D01*
X128811000Y-90922250D01*
X128811000Y-90484750D01*
X128812053Y-90463309D01*
X128815203Y-90442074D01*
X128820419Y-90421250D01*
X128827651Y-90401038D01*
X128836830Y-90381632D01*
X128847866Y-90363219D01*
X128860654Y-90345976D01*
X128875070Y-90330070D01*
X128890976Y-90315654D01*
X128908219Y-90302866D01*
X128926632Y-90291830D01*
X128946038Y-90282651D01*
X128966250Y-90275419D01*
X128987074Y-90270203D01*
X129008309Y-90267053D01*
X129029750Y-90266000D01*
X129542250Y-90266000D01*
X129563691Y-90267053D01*
X129563691Y-90267053D01*
G37*
D17*
X129286000Y-90703500D03*
D11*
G36*
X132103691Y-88692053D02*
G01*
X132124926Y-88695203D01*
X132145750Y-88700419D01*
X132165962Y-88707651D01*
X132185368Y-88716830D01*
X132203781Y-88727866D01*
X132221024Y-88740654D01*
X132236930Y-88755070D01*
X132251346Y-88770976D01*
X132264134Y-88788219D01*
X132275170Y-88806632D01*
X132284349Y-88826038D01*
X132291581Y-88846250D01*
X132296797Y-88867074D01*
X132299947Y-88888309D01*
X132301000Y-88909750D01*
X132301000Y-89347250D01*
X132299947Y-89368691D01*
X132296797Y-89389926D01*
X132291581Y-89410750D01*
X132284349Y-89430962D01*
X132275170Y-89450368D01*
X132264134Y-89468781D01*
X132251346Y-89486024D01*
X132236930Y-89501930D01*
X132221024Y-89516346D01*
X132203781Y-89529134D01*
X132185368Y-89540170D01*
X132165962Y-89549349D01*
X132145750Y-89556581D01*
X132124926Y-89561797D01*
X132103691Y-89564947D01*
X132082250Y-89566000D01*
X131569750Y-89566000D01*
X131548309Y-89564947D01*
X131527074Y-89561797D01*
X131506250Y-89556581D01*
X131486038Y-89549349D01*
X131466632Y-89540170D01*
X131448219Y-89529134D01*
X131430976Y-89516346D01*
X131415070Y-89501930D01*
X131400654Y-89486024D01*
X131387866Y-89468781D01*
X131376830Y-89450368D01*
X131367651Y-89430962D01*
X131360419Y-89410750D01*
X131355203Y-89389926D01*
X131352053Y-89368691D01*
X131351000Y-89347250D01*
X131351000Y-88909750D01*
X131352053Y-88888309D01*
X131355203Y-88867074D01*
X131360419Y-88846250D01*
X131367651Y-88826038D01*
X131376830Y-88806632D01*
X131387866Y-88788219D01*
X131400654Y-88770976D01*
X131415070Y-88755070D01*
X131430976Y-88740654D01*
X131448219Y-88727866D01*
X131466632Y-88716830D01*
X131486038Y-88707651D01*
X131506250Y-88700419D01*
X131527074Y-88695203D01*
X131548309Y-88692053D01*
X131569750Y-88691000D01*
X132082250Y-88691000D01*
X132103691Y-88692053D01*
X132103691Y-88692053D01*
G37*
D17*
X131826000Y-89128500D03*
D11*
G36*
X132103691Y-90267053D02*
G01*
X132124926Y-90270203D01*
X132145750Y-90275419D01*
X132165962Y-90282651D01*
X132185368Y-90291830D01*
X132203781Y-90302866D01*
X132221024Y-90315654D01*
X132236930Y-90330070D01*
X132251346Y-90345976D01*
X132264134Y-90363219D01*
X132275170Y-90381632D01*
X132284349Y-90401038D01*
X132291581Y-90421250D01*
X132296797Y-90442074D01*
X132299947Y-90463309D01*
X132301000Y-90484750D01*
X132301000Y-90922250D01*
X132299947Y-90943691D01*
X132296797Y-90964926D01*
X132291581Y-90985750D01*
X132284349Y-91005962D01*
X132275170Y-91025368D01*
X132264134Y-91043781D01*
X132251346Y-91061024D01*
X132236930Y-91076930D01*
X132221024Y-91091346D01*
X132203781Y-91104134D01*
X132185368Y-91115170D01*
X132165962Y-91124349D01*
X132145750Y-91131581D01*
X132124926Y-91136797D01*
X132103691Y-91139947D01*
X132082250Y-91141000D01*
X131569750Y-91141000D01*
X131548309Y-91139947D01*
X131527074Y-91136797D01*
X131506250Y-91131581D01*
X131486038Y-91124349D01*
X131466632Y-91115170D01*
X131448219Y-91104134D01*
X131430976Y-91091346D01*
X131415070Y-91076930D01*
X131400654Y-91061024D01*
X131387866Y-91043781D01*
X131376830Y-91025368D01*
X131367651Y-91005962D01*
X131360419Y-90985750D01*
X131355203Y-90964926D01*
X131352053Y-90943691D01*
X131351000Y-90922250D01*
X131351000Y-90484750D01*
X131352053Y-90463309D01*
X131355203Y-90442074D01*
X131360419Y-90421250D01*
X131367651Y-90401038D01*
X131376830Y-90381632D01*
X131387866Y-90363219D01*
X131400654Y-90345976D01*
X131415070Y-90330070D01*
X131430976Y-90315654D01*
X131448219Y-90302866D01*
X131466632Y-90291830D01*
X131486038Y-90282651D01*
X131506250Y-90275419D01*
X131527074Y-90270203D01*
X131548309Y-90267053D01*
X131569750Y-90266000D01*
X132082250Y-90266000D01*
X132103691Y-90267053D01*
X132103691Y-90267053D01*
G37*
D17*
X131826000Y-90703500D03*
D11*
G36*
X91731191Y-88934053D02*
G01*
X91752426Y-88937203D01*
X91773250Y-88942419D01*
X91793462Y-88949651D01*
X91812868Y-88958830D01*
X91831281Y-88969866D01*
X91848524Y-88982654D01*
X91864430Y-88997070D01*
X91878846Y-89012976D01*
X91891634Y-89030219D01*
X91902670Y-89048632D01*
X91911849Y-89068038D01*
X91919081Y-89088250D01*
X91924297Y-89109074D01*
X91927447Y-89130309D01*
X91928500Y-89151750D01*
X91928500Y-89664250D01*
X91927447Y-89685691D01*
X91924297Y-89706926D01*
X91919081Y-89727750D01*
X91911849Y-89747962D01*
X91902670Y-89767368D01*
X91891634Y-89785781D01*
X91878846Y-89803024D01*
X91864430Y-89818930D01*
X91848524Y-89833346D01*
X91831281Y-89846134D01*
X91812868Y-89857170D01*
X91793462Y-89866349D01*
X91773250Y-89873581D01*
X91752426Y-89878797D01*
X91731191Y-89881947D01*
X91709750Y-89883000D01*
X91272250Y-89883000D01*
X91250809Y-89881947D01*
X91229574Y-89878797D01*
X91208750Y-89873581D01*
X91188538Y-89866349D01*
X91169132Y-89857170D01*
X91150719Y-89846134D01*
X91133476Y-89833346D01*
X91117570Y-89818930D01*
X91103154Y-89803024D01*
X91090366Y-89785781D01*
X91079330Y-89767368D01*
X91070151Y-89747962D01*
X91062919Y-89727750D01*
X91057703Y-89706926D01*
X91054553Y-89685691D01*
X91053500Y-89664250D01*
X91053500Y-89151750D01*
X91054553Y-89130309D01*
X91057703Y-89109074D01*
X91062919Y-89088250D01*
X91070151Y-89068038D01*
X91079330Y-89048632D01*
X91090366Y-89030219D01*
X91103154Y-89012976D01*
X91117570Y-88997070D01*
X91133476Y-88982654D01*
X91150719Y-88969866D01*
X91169132Y-88958830D01*
X91188538Y-88949651D01*
X91208750Y-88942419D01*
X91229574Y-88937203D01*
X91250809Y-88934053D01*
X91272250Y-88933000D01*
X91709750Y-88933000D01*
X91731191Y-88934053D01*
X91731191Y-88934053D01*
G37*
D17*
X91491000Y-89408000D03*
D11*
G36*
X90156191Y-88934053D02*
G01*
X90177426Y-88937203D01*
X90198250Y-88942419D01*
X90218462Y-88949651D01*
X90237868Y-88958830D01*
X90256281Y-88969866D01*
X90273524Y-88982654D01*
X90289430Y-88997070D01*
X90303846Y-89012976D01*
X90316634Y-89030219D01*
X90327670Y-89048632D01*
X90336849Y-89068038D01*
X90344081Y-89088250D01*
X90349297Y-89109074D01*
X90352447Y-89130309D01*
X90353500Y-89151750D01*
X90353500Y-89664250D01*
X90352447Y-89685691D01*
X90349297Y-89706926D01*
X90344081Y-89727750D01*
X90336849Y-89747962D01*
X90327670Y-89767368D01*
X90316634Y-89785781D01*
X90303846Y-89803024D01*
X90289430Y-89818930D01*
X90273524Y-89833346D01*
X90256281Y-89846134D01*
X90237868Y-89857170D01*
X90218462Y-89866349D01*
X90198250Y-89873581D01*
X90177426Y-89878797D01*
X90156191Y-89881947D01*
X90134750Y-89883000D01*
X89697250Y-89883000D01*
X89675809Y-89881947D01*
X89654574Y-89878797D01*
X89633750Y-89873581D01*
X89613538Y-89866349D01*
X89594132Y-89857170D01*
X89575719Y-89846134D01*
X89558476Y-89833346D01*
X89542570Y-89818930D01*
X89528154Y-89803024D01*
X89515366Y-89785781D01*
X89504330Y-89767368D01*
X89495151Y-89747962D01*
X89487919Y-89727750D01*
X89482703Y-89706926D01*
X89479553Y-89685691D01*
X89478500Y-89664250D01*
X89478500Y-89151750D01*
X89479553Y-89130309D01*
X89482703Y-89109074D01*
X89487919Y-89088250D01*
X89495151Y-89068038D01*
X89504330Y-89048632D01*
X89515366Y-89030219D01*
X89528154Y-89012976D01*
X89542570Y-88997070D01*
X89558476Y-88982654D01*
X89575719Y-88969866D01*
X89594132Y-88958830D01*
X89613538Y-88949651D01*
X89633750Y-88942419D01*
X89654574Y-88937203D01*
X89675809Y-88934053D01*
X89697250Y-88933000D01*
X90134750Y-88933000D01*
X90156191Y-88934053D01*
X90156191Y-88934053D01*
G37*
D17*
X89916000Y-89408000D03*
D11*
G36*
X97801691Y-104428053D02*
G01*
X97822926Y-104431203D01*
X97843750Y-104436419D01*
X97863962Y-104443651D01*
X97883368Y-104452830D01*
X97901781Y-104463866D01*
X97919024Y-104476654D01*
X97934930Y-104491070D01*
X97949346Y-104506976D01*
X97962134Y-104524219D01*
X97973170Y-104542632D01*
X97982349Y-104562038D01*
X97989581Y-104582250D01*
X97994797Y-104603074D01*
X97997947Y-104624309D01*
X97999000Y-104645750D01*
X97999000Y-105158250D01*
X97997947Y-105179691D01*
X97994797Y-105200926D01*
X97989581Y-105221750D01*
X97982349Y-105241962D01*
X97973170Y-105261368D01*
X97962134Y-105279781D01*
X97949346Y-105297024D01*
X97934930Y-105312930D01*
X97919024Y-105327346D01*
X97901781Y-105340134D01*
X97883368Y-105351170D01*
X97863962Y-105360349D01*
X97843750Y-105367581D01*
X97822926Y-105372797D01*
X97801691Y-105375947D01*
X97780250Y-105377000D01*
X97342750Y-105377000D01*
X97321309Y-105375947D01*
X97300074Y-105372797D01*
X97279250Y-105367581D01*
X97259038Y-105360349D01*
X97239632Y-105351170D01*
X97221219Y-105340134D01*
X97203976Y-105327346D01*
X97188070Y-105312930D01*
X97173654Y-105297024D01*
X97160866Y-105279781D01*
X97149830Y-105261368D01*
X97140651Y-105241962D01*
X97133419Y-105221750D01*
X97128203Y-105200926D01*
X97125053Y-105179691D01*
X97124000Y-105158250D01*
X97124000Y-104645750D01*
X97125053Y-104624309D01*
X97128203Y-104603074D01*
X97133419Y-104582250D01*
X97140651Y-104562038D01*
X97149830Y-104542632D01*
X97160866Y-104524219D01*
X97173654Y-104506976D01*
X97188070Y-104491070D01*
X97203976Y-104476654D01*
X97221219Y-104463866D01*
X97239632Y-104452830D01*
X97259038Y-104443651D01*
X97279250Y-104436419D01*
X97300074Y-104431203D01*
X97321309Y-104428053D01*
X97342750Y-104427000D01*
X97780250Y-104427000D01*
X97801691Y-104428053D01*
X97801691Y-104428053D01*
G37*
D17*
X97561500Y-104902000D03*
D11*
G36*
X96226691Y-104428053D02*
G01*
X96247926Y-104431203D01*
X96268750Y-104436419D01*
X96288962Y-104443651D01*
X96308368Y-104452830D01*
X96326781Y-104463866D01*
X96344024Y-104476654D01*
X96359930Y-104491070D01*
X96374346Y-104506976D01*
X96387134Y-104524219D01*
X96398170Y-104542632D01*
X96407349Y-104562038D01*
X96414581Y-104582250D01*
X96419797Y-104603074D01*
X96422947Y-104624309D01*
X96424000Y-104645750D01*
X96424000Y-105158250D01*
X96422947Y-105179691D01*
X96419797Y-105200926D01*
X96414581Y-105221750D01*
X96407349Y-105241962D01*
X96398170Y-105261368D01*
X96387134Y-105279781D01*
X96374346Y-105297024D01*
X96359930Y-105312930D01*
X96344024Y-105327346D01*
X96326781Y-105340134D01*
X96308368Y-105351170D01*
X96288962Y-105360349D01*
X96268750Y-105367581D01*
X96247926Y-105372797D01*
X96226691Y-105375947D01*
X96205250Y-105377000D01*
X95767750Y-105377000D01*
X95746309Y-105375947D01*
X95725074Y-105372797D01*
X95704250Y-105367581D01*
X95684038Y-105360349D01*
X95664632Y-105351170D01*
X95646219Y-105340134D01*
X95628976Y-105327346D01*
X95613070Y-105312930D01*
X95598654Y-105297024D01*
X95585866Y-105279781D01*
X95574830Y-105261368D01*
X95565651Y-105241962D01*
X95558419Y-105221750D01*
X95553203Y-105200926D01*
X95550053Y-105179691D01*
X95549000Y-105158250D01*
X95549000Y-104645750D01*
X95550053Y-104624309D01*
X95553203Y-104603074D01*
X95558419Y-104582250D01*
X95565651Y-104562038D01*
X95574830Y-104542632D01*
X95585866Y-104524219D01*
X95598654Y-104506976D01*
X95613070Y-104491070D01*
X95628976Y-104476654D01*
X95646219Y-104463866D01*
X95664632Y-104452830D01*
X95684038Y-104443651D01*
X95704250Y-104436419D01*
X95725074Y-104431203D01*
X95746309Y-104428053D01*
X95767750Y-104427000D01*
X96205250Y-104427000D01*
X96226691Y-104428053D01*
X96226691Y-104428053D01*
G37*
D17*
X95986500Y-104902000D03*
D18*
X94198000Y-73216000D03*
X94198000Y-81216000D03*
X89698000Y-73216000D03*
X89698000Y-81216000D03*
D19*
X106108000Y-102220000D03*
X105308000Y-102220000D03*
X104508000Y-102220000D03*
X103708000Y-102220000D03*
X102908000Y-102220000D03*
X102108000Y-102220000D03*
X101308000Y-102220000D03*
X100508000Y-102220000D03*
X99708000Y-102220000D03*
X98908000Y-102220000D03*
X98108000Y-102220000D03*
D20*
X96408000Y-100520000D03*
X96408000Y-99720000D03*
X96408000Y-98920000D03*
X96408000Y-98120000D03*
X96408000Y-97320000D03*
X96408000Y-96520000D03*
X96408000Y-95720000D03*
X96408000Y-94920000D03*
X96408000Y-94120000D03*
X96408000Y-93320000D03*
X96408000Y-92520000D03*
D19*
X98108000Y-90820000D03*
X98908000Y-90820000D03*
X99708000Y-90820000D03*
X100508000Y-90820000D03*
X101308000Y-90820000D03*
X102108000Y-90820000D03*
X102908000Y-90820000D03*
X103708000Y-90820000D03*
X104508000Y-90820000D03*
X105308000Y-90820000D03*
X106108000Y-90820000D03*
D20*
X107808000Y-92520000D03*
X107808000Y-93320000D03*
X107808000Y-94120000D03*
X107808000Y-94920000D03*
X107808000Y-95720000D03*
X107808000Y-96520000D03*
X107808000Y-97320000D03*
X107808000Y-98120000D03*
X107808000Y-98920000D03*
X107808000Y-99720000D03*
X107808000Y-100520000D03*
D21*
X92362000Y-97170000D03*
X92362000Y-96520000D03*
X92362000Y-97820000D03*
X92362000Y-95870000D03*
X92362000Y-95220000D03*
D22*
X114062000Y-69856000D03*
D23*
X116967000Y-80181000D03*
X118237000Y-80181000D03*
X119507000Y-80181000D03*
X120777000Y-80181000D03*
X125857000Y-80181000D03*
X124587000Y-80181000D03*
X123317000Y-80181000D03*
D22*
X128762000Y-69856000D03*
D23*
X122047000Y-80181000D03*
M02*
