M48
; DRILL file {KiCad (5.1.2-1)-1} date Wednesday, June 19, 2019 at 02:31:58 PM
; FORMAT={-:-/ absolute / inch / decimal}
; #@! TF.CreationDate,2019-06-19T14:31:58-04:00
; #@! TF.GenerationSoftware,Kicad,Pcbnew,(5.1.2-1)-1
FMAT,2
INCH
T1C0.0079
T2C0.0157
T3C0.0276
T4C0.0374
T5C0.0394
T6C0.1594
%
G90
G05
T1
X4.0614Y-2.8214
X4.0614Y-2.8657
X4.0614Y-2.91
X4.0614Y-2.9543
X4.0614Y-2.9986
X4.1057Y-2.8214
X4.1057Y-2.8657
X4.1057Y-2.91
X4.1057Y-2.9543
X4.1057Y-2.9986
X4.15Y-2.8214
X4.15Y-2.8657
X4.15Y-2.91
X4.15Y-2.9543
X4.15Y-2.9986
X4.1943Y-2.8214
X4.1943Y-2.8657
X4.1943Y-2.91
X4.1943Y-2.9543
X4.1943Y-2.9986
X4.2386Y-2.8214
X4.2386Y-2.8657
X4.2386Y-2.91
X4.2386Y-2.9543
X4.2386Y-2.9986
T2
X3.56Y-3.1
X3.64Y-3.455
X3.68Y-3.29
X3.72Y-3.35
X3.72Y-3.84
X3.7485Y-3.6107
X3.75Y-2.73
X3.765Y-3.24
X3.765Y-3.45
X3.806Y-3.275
X3.81Y-3.42
X3.841Y-4.13
X3.8515Y-2.515
X3.8515Y-3.68
X3.8596Y-3.803
X3.88Y-3.7656
X3.885Y-2.55
X3.9256Y-3.9606
X3.9267Y-2.8642
X3.945Y-3.285
X3.97Y-3.2
X3.9815Y-3.831
X3.995Y-2.61
X3.995Y-4.155
X4.0277Y-3.3273
X4.03Y-3.855
X4.0585Y-3.775
X4.0847Y-3.8671
X4.09Y-3.6465
X4.09Y-3.96
X4.095Y-3.51
X4.1023Y-3.7977
X4.12Y-3.15
X4.12Y-3.29
X4.14Y-3.66
X4.145Y-3.71
X4.1524Y-3.5077
X4.156Y-3.7489
X4.17Y-3.895
X4.1738Y-3.8288
X4.26Y-4.025
X4.305Y-3.925
X4.32Y-2.515
X4.3307Y-3.8743
X4.38Y-3.705
X4.383Y-2.9996
X4.395Y-2.825
X4.415Y-2.9681
X4.415Y-3.14
X4.43Y-3.86
X4.45Y-2.58
X4.45Y-3.03
X4.4548Y-4.0548
X4.455Y-3.58
X4.455Y-4.01
X4.485Y-2.675
X4.485Y-3.66
X4.53Y-2.94
X4.53Y-3.215
X4.53Y-3.57
X4.54Y-3.95
X4.5726Y-2.6274
X4.58Y-4.095
X4.58Y-3.73
X4.615Y-3.83
X4.625Y-2.85
X4.63Y-3.57
X4.635Y-2.55
X4.64Y-3.92
X4.675Y-2.9444
X4.69Y-3.96
X4.73Y-3.87
X4.74Y-2.83
X4.75Y-3.83
X4.76Y-3.78
X4.785Y-3.475
X4.8Y-2.88
X4.92Y-3.88
X4.96Y-3.7
X4.96Y-4.07
X5.0067Y-3.1567
X5.01Y-3.88
X5.01Y-4.15
X5.03Y-3.57
X5.0478Y-2.9128
X5.08Y-3.32
X5.16Y-3.7
X5.22Y-2.92
X5.33Y-3.55
T3
X3.6363Y-3.7016
X3.6363Y-3.8984
T4
X5.42Y-3.47
X5.42Y-3.57
X5.42Y-3.67
X5.42Y-3.77
X5.42Y-3.87
X5.42Y-3.97
X5.42Y-4.07
X5.42Y-4.17
T5
X3.73Y-4.22
X3.83Y-4.22
X3.93Y-4.22
X4.03Y-4.22
X4.13Y-3.42
X4.13Y-4.22
X4.23Y-3.42
X4.23Y-4.22
X4.33Y-3.42
X4.33Y-4.22
X4.43Y-3.42
X4.43Y-4.22
X4.53Y-3.42
X4.53Y-4.22
X4.63Y-3.42
X4.63Y-4.22
X4.73Y-3.42
X4.73Y-4.22
X4.83Y-3.42
X4.83Y-4.22
X4.93Y-3.42
X4.93Y-4.22
X5.03Y-3.42
X5.03Y-4.22
X5.13Y-3.42
X5.13Y-4.22
X5.23Y-3.42
X5.23Y-4.22
X3.53Y-3.6622
X3.53Y-3.9378
T6
X3.6Y-4.1
X4.87Y-2.59
X5.15Y-4.04
X3.6Y-2.59
T5
G00X5.3994Y-2.7438
M15
G01X5.3206Y-2.7438
M16
G05
G00X5.4092Y-2.98
M15
G01X5.3108Y-2.98
M16
G05
T0
M30
