M48
; DRILL file {KiCad (5.99.0-11099-g5a43392eae)} date Friday, July 16, 2021 at 11:07:11 AM
; FORMAT={-:-/ absolute / inch / decimal}
; #@! TF.CreationDate,2021-07-16T11:07:11-04:00
; #@! TF.GenerationSoftware,Kicad,Pcbnew,(5.99.0-11099-g5a43392eae)
; #@! TF.FileFunction,MixedPlating,1,2
FMAT,2
INCH
; #@! TA.AperFunction,Plated,PTH,ComponentDrill
T1C0.0079
; #@! TA.AperFunction,Plated,PTH,ViaDrill
T2C0.0157
; #@! TA.AperFunction,Plated,PTH,ComponentDrill
T3C0.0354
; #@! TA.AperFunction,Plated,PTH,ComponentDrill
T4C0.0394
; #@! TA.AperFunction,Plated,PTH,ComponentDrill
T5C0.0472
; #@! TA.AperFunction,NonPlated,NPTH,ComponentDrill
T6C0.0197
; #@! TA.AperFunction,NonPlated,NPTH,ComponentDrill
T7C0.0390
; #@! TA.AperFunction,NonPlated,NPTH,ComponentDrill
T8C0.1358
; #@! TA.AperFunction,NonPlated,NPTH,ComponentDrill
T9C0.1673
%
G90
G05
T1
X5.968Y-3.9409
X5.968Y-3.9803
X5.968Y-4.0197
X6.0073Y-3.9409
X6.0073Y-3.9803
X6.0073Y-4.0197
X6.0467Y-3.9409
X6.0467Y-3.9803
X6.0467Y-4.0197
T2
X4.9134Y-4.3228
X4.9213Y-3.4744
X5.0079Y-4.188
X5.1497Y-4.1064
X5.1575Y-3.9075
X5.1693Y-4.0394
X5.186Y-4.078
X5.2067Y-3.6417
X5.216Y-4.19
X5.2362Y-3.7106
X5.275Y-4.3014
X5.315Y-4.1249
X5.36Y-3.9
X5.365Y-3.77
X5.4409Y-4.1821
X5.5157Y-4.0433
X5.5157Y-4.0906
X5.5523Y-3.7751
X5.5536Y-3.7
X5.5551Y-4.0669
X5.5668Y-3.8585
X5.61Y-3.8595
X5.6102Y-3.9803
X5.626Y-4.158
X5.635Y-4.02
X5.6446Y-3.816
X5.6693Y-3.7
X5.68Y-3.42
X5.685Y-4.2913
X5.6893Y-3.8732
X5.7205Y-4.2666
X5.76Y-3.8642
X5.7638Y-4.2874
X5.78Y-4.13
X5.7953Y-4.3228
X5.796Y-3.434
X5.819Y-3.7915
X5.8387Y-3.7167
X5.842Y-3.5591
X5.8583Y-4.0354
X5.8701Y-3.9488
X5.9Y-4.122
X5.904Y-4.074
X5.91Y-3.76
X5.9578Y-4.1607
X5.984Y-3.698
X5.985Y-3.495
X6.0Y-3.83
X6.05Y-3.475
X6.076Y-4.308
X6.09Y-4.118
X6.1601Y-4.0104
X6.1614Y-4.3386
X6.1929Y-4.0394
X6.214Y-4.08
X6.34Y-3.93
X6.3465Y-3.4016
X6.3614Y-3.9921
X6.39Y-4.09
X6.3937Y-3.752
X6.412Y-3.388
T3
X4.705Y-3.8933
X4.755Y-3.7933
X4.805Y-3.8933
X4.855Y-3.7933
X4.905Y-3.8933
X4.955Y-3.7933
X5.005Y-3.8933
X5.055Y-3.7933
T4
X4.875Y-4.44
X4.975Y-4.44
X5.075Y-4.44
X5.175Y-4.44
X5.275Y-3.64
X5.275Y-4.44
X5.375Y-3.64
X5.375Y-4.44
X5.4285Y-3.0506
X5.475Y-3.64
X5.475Y-4.44
X5.5285Y-3.0506
X5.575Y-3.64
X5.575Y-4.44
X5.6285Y-3.0506
X5.675Y-3.64
X5.675Y-4.44
X5.7285Y-3.0506
X5.775Y-3.64
X5.775Y-4.44
X5.8285Y-3.0506
X5.875Y-3.64
X5.875Y-4.44
X5.9285Y-3.0506
X5.975Y-3.64
X5.975Y-4.44
X6.0285Y-3.0506
X6.075Y-3.64
X6.075Y-4.44
X6.175Y-3.64
X6.175Y-4.44
X6.275Y-3.64
X6.275Y-4.44
X6.375Y-3.64
X6.375Y-4.44
X6.4259Y-2.9046
X6.4259Y-3.0046
X6.52Y-3.7871
X6.52Y-3.8871
X6.52Y-3.9871
X6.52Y-4.0871
X6.52Y-4.1871
X6.52Y-4.2871
X6.52Y-4.3871
X6.5259Y-2.9046
X6.5259Y-3.0046
T5
X4.6959Y-2.9046
X4.6959Y-3.0046
X4.7959Y-2.9046
X4.7959Y-3.0046
T6
X4.9385Y-3.1467
X4.9385Y-3.2333
X4.97Y-3.1467
X4.97Y-3.2333
X5.0015Y-3.1467
X5.0015Y-3.2333
X6.2285Y-3.1467
X6.2285Y-3.2333
X6.26Y-3.1467
X6.26Y-3.2333
X6.2915Y-3.1467
X6.2915Y-3.2333
T7
X6.4797Y-3.3331
X6.5197Y-3.5331
X6.5597Y-3.3331
T8
X4.655Y-3.5433
X5.105Y-3.5433
T9
X4.6929Y-4.1061
X5.2408Y-2.9546
X6.2251Y-2.9546
T0
M30
