G04 #@! TF.GenerationSoftware,KiCad,Pcbnew,(5.1.5-0)*
G04 #@! TF.CreationDate,2019-12-11T17:32:03-05:00*
G04 #@! TF.ProjectId,syringe_board,73797269-6e67-4655-9f62-6f6172642e6b,3.3*
G04 #@! TF.SameCoordinates,Original*
G04 #@! TF.FileFunction,Paste,Top*
G04 #@! TF.FilePolarity,Positive*
%FSLAX46Y46*%
G04 Gerber Fmt 4.6, Leading zero omitted, Abs format (unit mm)*
G04 Created by KiCad (PCBNEW (5.1.5-0)) date 2019-12-11 17:32:03*
%MOMM*%
%LPD*%
G04 APERTURE LIST*
%ADD10R,1.600000X1.400000*%
%ADD11C,0.100000*%
%ADD12R,1.900000X0.400000*%
%ADD13R,2.500000X2.500000*%
%ADD14R,0.550000X1.500000*%
%ADD15R,1.500000X0.550000*%
%ADD16R,1.350000X0.400000*%
%ADD17R,3.700000X2.200000*%
%ADD18R,0.760000X6.350000*%
G04 APERTURE END LIST*
D10*
X94198000Y-73343000D03*
X94198000Y-81343000D03*
X89698000Y-73343000D03*
X89698000Y-81343000D03*
D11*
G36*
X110259691Y-76220553D02*
G01*
X110280926Y-76223703D01*
X110301750Y-76228919D01*
X110321962Y-76236151D01*
X110341368Y-76245330D01*
X110359781Y-76256366D01*
X110377024Y-76269154D01*
X110392930Y-76283570D01*
X110407346Y-76299476D01*
X110420134Y-76316719D01*
X110431170Y-76335132D01*
X110440349Y-76354538D01*
X110447581Y-76374750D01*
X110452797Y-76395574D01*
X110455947Y-76416809D01*
X110457000Y-76438250D01*
X110457000Y-76875750D01*
X110455947Y-76897191D01*
X110452797Y-76918426D01*
X110447581Y-76939250D01*
X110440349Y-76959462D01*
X110431170Y-76978868D01*
X110420134Y-76997281D01*
X110407346Y-77014524D01*
X110392930Y-77030430D01*
X110377024Y-77044846D01*
X110359781Y-77057634D01*
X110341368Y-77068670D01*
X110321962Y-77077849D01*
X110301750Y-77085081D01*
X110280926Y-77090297D01*
X110259691Y-77093447D01*
X110238250Y-77094500D01*
X109725750Y-77094500D01*
X109704309Y-77093447D01*
X109683074Y-77090297D01*
X109662250Y-77085081D01*
X109642038Y-77077849D01*
X109622632Y-77068670D01*
X109604219Y-77057634D01*
X109586976Y-77044846D01*
X109571070Y-77030430D01*
X109556654Y-77014524D01*
X109543866Y-76997281D01*
X109532830Y-76978868D01*
X109523651Y-76959462D01*
X109516419Y-76939250D01*
X109511203Y-76918426D01*
X109508053Y-76897191D01*
X109507000Y-76875750D01*
X109507000Y-76438250D01*
X109508053Y-76416809D01*
X109511203Y-76395574D01*
X109516419Y-76374750D01*
X109523651Y-76354538D01*
X109532830Y-76335132D01*
X109543866Y-76316719D01*
X109556654Y-76299476D01*
X109571070Y-76283570D01*
X109586976Y-76269154D01*
X109604219Y-76256366D01*
X109622632Y-76245330D01*
X109642038Y-76236151D01*
X109662250Y-76228919D01*
X109683074Y-76223703D01*
X109704309Y-76220553D01*
X109725750Y-76219500D01*
X110238250Y-76219500D01*
X110259691Y-76220553D01*
G37*
G36*
X110259691Y-77795553D02*
G01*
X110280926Y-77798703D01*
X110301750Y-77803919D01*
X110321962Y-77811151D01*
X110341368Y-77820330D01*
X110359781Y-77831366D01*
X110377024Y-77844154D01*
X110392930Y-77858570D01*
X110407346Y-77874476D01*
X110420134Y-77891719D01*
X110431170Y-77910132D01*
X110440349Y-77929538D01*
X110447581Y-77949750D01*
X110452797Y-77970574D01*
X110455947Y-77991809D01*
X110457000Y-78013250D01*
X110457000Y-78450750D01*
X110455947Y-78472191D01*
X110452797Y-78493426D01*
X110447581Y-78514250D01*
X110440349Y-78534462D01*
X110431170Y-78553868D01*
X110420134Y-78572281D01*
X110407346Y-78589524D01*
X110392930Y-78605430D01*
X110377024Y-78619846D01*
X110359781Y-78632634D01*
X110341368Y-78643670D01*
X110321962Y-78652849D01*
X110301750Y-78660081D01*
X110280926Y-78665297D01*
X110259691Y-78668447D01*
X110238250Y-78669500D01*
X109725750Y-78669500D01*
X109704309Y-78668447D01*
X109683074Y-78665297D01*
X109662250Y-78660081D01*
X109642038Y-78652849D01*
X109622632Y-78643670D01*
X109604219Y-78632634D01*
X109586976Y-78619846D01*
X109571070Y-78605430D01*
X109556654Y-78589524D01*
X109543866Y-78572281D01*
X109532830Y-78553868D01*
X109523651Y-78534462D01*
X109516419Y-78514250D01*
X109511203Y-78493426D01*
X109508053Y-78472191D01*
X109507000Y-78450750D01*
X109507000Y-78013250D01*
X109508053Y-77991809D01*
X109511203Y-77970574D01*
X109516419Y-77949750D01*
X109523651Y-77929538D01*
X109532830Y-77910132D01*
X109543866Y-77891719D01*
X109556654Y-77874476D01*
X109571070Y-77858570D01*
X109586976Y-77844154D01*
X109604219Y-77831366D01*
X109622632Y-77820330D01*
X109642038Y-77811151D01*
X109662250Y-77803919D01*
X109683074Y-77798703D01*
X109704309Y-77795553D01*
X109725750Y-77794500D01*
X110238250Y-77794500D01*
X110259691Y-77795553D01*
G37*
G36*
X101369691Y-68118053D02*
G01*
X101390926Y-68121203D01*
X101411750Y-68126419D01*
X101431962Y-68133651D01*
X101451368Y-68142830D01*
X101469781Y-68153866D01*
X101487024Y-68166654D01*
X101502930Y-68181070D01*
X101517346Y-68196976D01*
X101530134Y-68214219D01*
X101541170Y-68232632D01*
X101550349Y-68252038D01*
X101557581Y-68272250D01*
X101562797Y-68293074D01*
X101565947Y-68314309D01*
X101567000Y-68335750D01*
X101567000Y-68773250D01*
X101565947Y-68794691D01*
X101562797Y-68815926D01*
X101557581Y-68836750D01*
X101550349Y-68856962D01*
X101541170Y-68876368D01*
X101530134Y-68894781D01*
X101517346Y-68912024D01*
X101502930Y-68927930D01*
X101487024Y-68942346D01*
X101469781Y-68955134D01*
X101451368Y-68966170D01*
X101431962Y-68975349D01*
X101411750Y-68982581D01*
X101390926Y-68987797D01*
X101369691Y-68990947D01*
X101348250Y-68992000D01*
X100835750Y-68992000D01*
X100814309Y-68990947D01*
X100793074Y-68987797D01*
X100772250Y-68982581D01*
X100752038Y-68975349D01*
X100732632Y-68966170D01*
X100714219Y-68955134D01*
X100696976Y-68942346D01*
X100681070Y-68927930D01*
X100666654Y-68912024D01*
X100653866Y-68894781D01*
X100642830Y-68876368D01*
X100633651Y-68856962D01*
X100626419Y-68836750D01*
X100621203Y-68815926D01*
X100618053Y-68794691D01*
X100617000Y-68773250D01*
X100617000Y-68335750D01*
X100618053Y-68314309D01*
X100621203Y-68293074D01*
X100626419Y-68272250D01*
X100633651Y-68252038D01*
X100642830Y-68232632D01*
X100653866Y-68214219D01*
X100666654Y-68196976D01*
X100681070Y-68181070D01*
X100696976Y-68166654D01*
X100714219Y-68153866D01*
X100732632Y-68142830D01*
X100752038Y-68133651D01*
X100772250Y-68126419D01*
X100793074Y-68121203D01*
X100814309Y-68118053D01*
X100835750Y-68117000D01*
X101348250Y-68117000D01*
X101369691Y-68118053D01*
G37*
G36*
X101369691Y-69693053D02*
G01*
X101390926Y-69696203D01*
X101411750Y-69701419D01*
X101431962Y-69708651D01*
X101451368Y-69717830D01*
X101469781Y-69728866D01*
X101487024Y-69741654D01*
X101502930Y-69756070D01*
X101517346Y-69771976D01*
X101530134Y-69789219D01*
X101541170Y-69807632D01*
X101550349Y-69827038D01*
X101557581Y-69847250D01*
X101562797Y-69868074D01*
X101565947Y-69889309D01*
X101567000Y-69910750D01*
X101567000Y-70348250D01*
X101565947Y-70369691D01*
X101562797Y-70390926D01*
X101557581Y-70411750D01*
X101550349Y-70431962D01*
X101541170Y-70451368D01*
X101530134Y-70469781D01*
X101517346Y-70487024D01*
X101502930Y-70502930D01*
X101487024Y-70517346D01*
X101469781Y-70530134D01*
X101451368Y-70541170D01*
X101431962Y-70550349D01*
X101411750Y-70557581D01*
X101390926Y-70562797D01*
X101369691Y-70565947D01*
X101348250Y-70567000D01*
X100835750Y-70567000D01*
X100814309Y-70565947D01*
X100793074Y-70562797D01*
X100772250Y-70557581D01*
X100752038Y-70550349D01*
X100732632Y-70541170D01*
X100714219Y-70530134D01*
X100696976Y-70517346D01*
X100681070Y-70502930D01*
X100666654Y-70487024D01*
X100653866Y-70469781D01*
X100642830Y-70451368D01*
X100633651Y-70431962D01*
X100626419Y-70411750D01*
X100621203Y-70390926D01*
X100618053Y-70369691D01*
X100617000Y-70348250D01*
X100617000Y-69910750D01*
X100618053Y-69889309D01*
X100621203Y-69868074D01*
X100626419Y-69847250D01*
X100633651Y-69827038D01*
X100642830Y-69807632D01*
X100653866Y-69789219D01*
X100666654Y-69771976D01*
X100681070Y-69756070D01*
X100696976Y-69741654D01*
X100714219Y-69728866D01*
X100732632Y-69717830D01*
X100752038Y-69708651D01*
X100772250Y-69701419D01*
X100793074Y-69696203D01*
X100814309Y-69693053D01*
X100835750Y-69692000D01*
X101348250Y-69692000D01*
X101369691Y-69693053D01*
G37*
G36*
X104486626Y-71572301D02*
G01*
X104492693Y-71573201D01*
X104498643Y-71574691D01*
X104504418Y-71576758D01*
X104509962Y-71579380D01*
X104515223Y-71582533D01*
X104520150Y-71586187D01*
X104524694Y-71590306D01*
X104528813Y-71594850D01*
X104532467Y-71599777D01*
X104535620Y-71605038D01*
X104538242Y-71610582D01*
X104540309Y-71616357D01*
X104541799Y-71622307D01*
X104542699Y-71628374D01*
X104543000Y-71634500D01*
X104543000Y-72309500D01*
X104542699Y-72315626D01*
X104541799Y-72321693D01*
X104540309Y-72327643D01*
X104538242Y-72333418D01*
X104535620Y-72338962D01*
X104532467Y-72344223D01*
X104528813Y-72349150D01*
X104524694Y-72353694D01*
X104520150Y-72357813D01*
X104515223Y-72361467D01*
X104509962Y-72364620D01*
X104504418Y-72367242D01*
X104498643Y-72369309D01*
X104492693Y-72370799D01*
X104486626Y-72371699D01*
X104480500Y-72372000D01*
X104355500Y-72372000D01*
X104349374Y-72371699D01*
X104343307Y-72370799D01*
X104337357Y-72369309D01*
X104331582Y-72367242D01*
X104326038Y-72364620D01*
X104320777Y-72361467D01*
X104315850Y-72357813D01*
X104311306Y-72353694D01*
X104307187Y-72349150D01*
X104303533Y-72344223D01*
X104300380Y-72338962D01*
X104297758Y-72333418D01*
X104295691Y-72327643D01*
X104294201Y-72321693D01*
X104293301Y-72315626D01*
X104293000Y-72309500D01*
X104293000Y-71634500D01*
X104293301Y-71628374D01*
X104294201Y-71622307D01*
X104295691Y-71616357D01*
X104297758Y-71610582D01*
X104300380Y-71605038D01*
X104303533Y-71599777D01*
X104307187Y-71594850D01*
X104311306Y-71590306D01*
X104315850Y-71586187D01*
X104320777Y-71582533D01*
X104326038Y-71579380D01*
X104331582Y-71576758D01*
X104337357Y-71574691D01*
X104343307Y-71573201D01*
X104349374Y-71572301D01*
X104355500Y-71572000D01*
X104480500Y-71572000D01*
X104486626Y-71572301D01*
G37*
G36*
X104986626Y-71572301D02*
G01*
X104992693Y-71573201D01*
X104998643Y-71574691D01*
X105004418Y-71576758D01*
X105009962Y-71579380D01*
X105015223Y-71582533D01*
X105020150Y-71586187D01*
X105024694Y-71590306D01*
X105028813Y-71594850D01*
X105032467Y-71599777D01*
X105035620Y-71605038D01*
X105038242Y-71610582D01*
X105040309Y-71616357D01*
X105041799Y-71622307D01*
X105042699Y-71628374D01*
X105043000Y-71634500D01*
X105043000Y-72309500D01*
X105042699Y-72315626D01*
X105041799Y-72321693D01*
X105040309Y-72327643D01*
X105038242Y-72333418D01*
X105035620Y-72338962D01*
X105032467Y-72344223D01*
X105028813Y-72349150D01*
X105024694Y-72353694D01*
X105020150Y-72357813D01*
X105015223Y-72361467D01*
X105009962Y-72364620D01*
X105004418Y-72367242D01*
X104998643Y-72369309D01*
X104992693Y-72370799D01*
X104986626Y-72371699D01*
X104980500Y-72372000D01*
X104855500Y-72372000D01*
X104849374Y-72371699D01*
X104843307Y-72370799D01*
X104837357Y-72369309D01*
X104831582Y-72367242D01*
X104826038Y-72364620D01*
X104820777Y-72361467D01*
X104815850Y-72357813D01*
X104811306Y-72353694D01*
X104807187Y-72349150D01*
X104803533Y-72344223D01*
X104800380Y-72338962D01*
X104797758Y-72333418D01*
X104795691Y-72327643D01*
X104794201Y-72321693D01*
X104793301Y-72315626D01*
X104793000Y-72309500D01*
X104793000Y-71634500D01*
X104793301Y-71628374D01*
X104794201Y-71622307D01*
X104795691Y-71616357D01*
X104797758Y-71610582D01*
X104800380Y-71605038D01*
X104803533Y-71599777D01*
X104807187Y-71594850D01*
X104811306Y-71590306D01*
X104815850Y-71586187D01*
X104820777Y-71582533D01*
X104826038Y-71579380D01*
X104831582Y-71576758D01*
X104837357Y-71574691D01*
X104843307Y-71573201D01*
X104849374Y-71572301D01*
X104855500Y-71572000D01*
X104980500Y-71572000D01*
X104986626Y-71572301D01*
G37*
G36*
X105486626Y-71572301D02*
G01*
X105492693Y-71573201D01*
X105498643Y-71574691D01*
X105504418Y-71576758D01*
X105509962Y-71579380D01*
X105515223Y-71582533D01*
X105520150Y-71586187D01*
X105524694Y-71590306D01*
X105528813Y-71594850D01*
X105532467Y-71599777D01*
X105535620Y-71605038D01*
X105538242Y-71610582D01*
X105540309Y-71616357D01*
X105541799Y-71622307D01*
X105542699Y-71628374D01*
X105543000Y-71634500D01*
X105543000Y-72309500D01*
X105542699Y-72315626D01*
X105541799Y-72321693D01*
X105540309Y-72327643D01*
X105538242Y-72333418D01*
X105535620Y-72338962D01*
X105532467Y-72344223D01*
X105528813Y-72349150D01*
X105524694Y-72353694D01*
X105520150Y-72357813D01*
X105515223Y-72361467D01*
X105509962Y-72364620D01*
X105504418Y-72367242D01*
X105498643Y-72369309D01*
X105492693Y-72370799D01*
X105486626Y-72371699D01*
X105480500Y-72372000D01*
X105355500Y-72372000D01*
X105349374Y-72371699D01*
X105343307Y-72370799D01*
X105337357Y-72369309D01*
X105331582Y-72367242D01*
X105326038Y-72364620D01*
X105320777Y-72361467D01*
X105315850Y-72357813D01*
X105311306Y-72353694D01*
X105307187Y-72349150D01*
X105303533Y-72344223D01*
X105300380Y-72338962D01*
X105297758Y-72333418D01*
X105295691Y-72327643D01*
X105294201Y-72321693D01*
X105293301Y-72315626D01*
X105293000Y-72309500D01*
X105293000Y-71634500D01*
X105293301Y-71628374D01*
X105294201Y-71622307D01*
X105295691Y-71616357D01*
X105297758Y-71610582D01*
X105300380Y-71605038D01*
X105303533Y-71599777D01*
X105307187Y-71594850D01*
X105311306Y-71590306D01*
X105315850Y-71586187D01*
X105320777Y-71582533D01*
X105326038Y-71579380D01*
X105331582Y-71576758D01*
X105337357Y-71574691D01*
X105343307Y-71573201D01*
X105349374Y-71572301D01*
X105355500Y-71572000D01*
X105480500Y-71572000D01*
X105486626Y-71572301D01*
G37*
G36*
X105986626Y-71572301D02*
G01*
X105992693Y-71573201D01*
X105998643Y-71574691D01*
X106004418Y-71576758D01*
X106009962Y-71579380D01*
X106015223Y-71582533D01*
X106020150Y-71586187D01*
X106024694Y-71590306D01*
X106028813Y-71594850D01*
X106032467Y-71599777D01*
X106035620Y-71605038D01*
X106038242Y-71610582D01*
X106040309Y-71616357D01*
X106041799Y-71622307D01*
X106042699Y-71628374D01*
X106043000Y-71634500D01*
X106043000Y-72309500D01*
X106042699Y-72315626D01*
X106041799Y-72321693D01*
X106040309Y-72327643D01*
X106038242Y-72333418D01*
X106035620Y-72338962D01*
X106032467Y-72344223D01*
X106028813Y-72349150D01*
X106024694Y-72353694D01*
X106020150Y-72357813D01*
X106015223Y-72361467D01*
X106009962Y-72364620D01*
X106004418Y-72367242D01*
X105998643Y-72369309D01*
X105992693Y-72370799D01*
X105986626Y-72371699D01*
X105980500Y-72372000D01*
X105855500Y-72372000D01*
X105849374Y-72371699D01*
X105843307Y-72370799D01*
X105837357Y-72369309D01*
X105831582Y-72367242D01*
X105826038Y-72364620D01*
X105820777Y-72361467D01*
X105815850Y-72357813D01*
X105811306Y-72353694D01*
X105807187Y-72349150D01*
X105803533Y-72344223D01*
X105800380Y-72338962D01*
X105797758Y-72333418D01*
X105795691Y-72327643D01*
X105794201Y-72321693D01*
X105793301Y-72315626D01*
X105793000Y-72309500D01*
X105793000Y-71634500D01*
X105793301Y-71628374D01*
X105794201Y-71622307D01*
X105795691Y-71616357D01*
X105797758Y-71610582D01*
X105800380Y-71605038D01*
X105803533Y-71599777D01*
X105807187Y-71594850D01*
X105811306Y-71590306D01*
X105815850Y-71586187D01*
X105820777Y-71582533D01*
X105826038Y-71579380D01*
X105831582Y-71576758D01*
X105837357Y-71574691D01*
X105843307Y-71573201D01*
X105849374Y-71572301D01*
X105855500Y-71572000D01*
X105980500Y-71572000D01*
X105986626Y-71572301D01*
G37*
G36*
X106486626Y-71572301D02*
G01*
X106492693Y-71573201D01*
X106498643Y-71574691D01*
X106504418Y-71576758D01*
X106509962Y-71579380D01*
X106515223Y-71582533D01*
X106520150Y-71586187D01*
X106524694Y-71590306D01*
X106528813Y-71594850D01*
X106532467Y-71599777D01*
X106535620Y-71605038D01*
X106538242Y-71610582D01*
X106540309Y-71616357D01*
X106541799Y-71622307D01*
X106542699Y-71628374D01*
X106543000Y-71634500D01*
X106543000Y-72309500D01*
X106542699Y-72315626D01*
X106541799Y-72321693D01*
X106540309Y-72327643D01*
X106538242Y-72333418D01*
X106535620Y-72338962D01*
X106532467Y-72344223D01*
X106528813Y-72349150D01*
X106524694Y-72353694D01*
X106520150Y-72357813D01*
X106515223Y-72361467D01*
X106509962Y-72364620D01*
X106504418Y-72367242D01*
X106498643Y-72369309D01*
X106492693Y-72370799D01*
X106486626Y-72371699D01*
X106480500Y-72372000D01*
X106355500Y-72372000D01*
X106349374Y-72371699D01*
X106343307Y-72370799D01*
X106337357Y-72369309D01*
X106331582Y-72367242D01*
X106326038Y-72364620D01*
X106320777Y-72361467D01*
X106315850Y-72357813D01*
X106311306Y-72353694D01*
X106307187Y-72349150D01*
X106303533Y-72344223D01*
X106300380Y-72338962D01*
X106297758Y-72333418D01*
X106295691Y-72327643D01*
X106294201Y-72321693D01*
X106293301Y-72315626D01*
X106293000Y-72309500D01*
X106293000Y-71634500D01*
X106293301Y-71628374D01*
X106294201Y-71622307D01*
X106295691Y-71616357D01*
X106297758Y-71610582D01*
X106300380Y-71605038D01*
X106303533Y-71599777D01*
X106307187Y-71594850D01*
X106311306Y-71590306D01*
X106315850Y-71586187D01*
X106320777Y-71582533D01*
X106326038Y-71579380D01*
X106331582Y-71576758D01*
X106337357Y-71574691D01*
X106343307Y-71573201D01*
X106349374Y-71572301D01*
X106355500Y-71572000D01*
X106480500Y-71572000D01*
X106486626Y-71572301D01*
G37*
G36*
X106986626Y-71572301D02*
G01*
X106992693Y-71573201D01*
X106998643Y-71574691D01*
X107004418Y-71576758D01*
X107009962Y-71579380D01*
X107015223Y-71582533D01*
X107020150Y-71586187D01*
X107024694Y-71590306D01*
X107028813Y-71594850D01*
X107032467Y-71599777D01*
X107035620Y-71605038D01*
X107038242Y-71610582D01*
X107040309Y-71616357D01*
X107041799Y-71622307D01*
X107042699Y-71628374D01*
X107043000Y-71634500D01*
X107043000Y-72309500D01*
X107042699Y-72315626D01*
X107041799Y-72321693D01*
X107040309Y-72327643D01*
X107038242Y-72333418D01*
X107035620Y-72338962D01*
X107032467Y-72344223D01*
X107028813Y-72349150D01*
X107024694Y-72353694D01*
X107020150Y-72357813D01*
X107015223Y-72361467D01*
X107009962Y-72364620D01*
X107004418Y-72367242D01*
X106998643Y-72369309D01*
X106992693Y-72370799D01*
X106986626Y-72371699D01*
X106980500Y-72372000D01*
X106855500Y-72372000D01*
X106849374Y-72371699D01*
X106843307Y-72370799D01*
X106837357Y-72369309D01*
X106831582Y-72367242D01*
X106826038Y-72364620D01*
X106820777Y-72361467D01*
X106815850Y-72357813D01*
X106811306Y-72353694D01*
X106807187Y-72349150D01*
X106803533Y-72344223D01*
X106800380Y-72338962D01*
X106797758Y-72333418D01*
X106795691Y-72327643D01*
X106794201Y-72321693D01*
X106793301Y-72315626D01*
X106793000Y-72309500D01*
X106793000Y-71634500D01*
X106793301Y-71628374D01*
X106794201Y-71622307D01*
X106795691Y-71616357D01*
X106797758Y-71610582D01*
X106800380Y-71605038D01*
X106803533Y-71599777D01*
X106807187Y-71594850D01*
X106811306Y-71590306D01*
X106815850Y-71586187D01*
X106820777Y-71582533D01*
X106826038Y-71579380D01*
X106831582Y-71576758D01*
X106837357Y-71574691D01*
X106843307Y-71573201D01*
X106849374Y-71572301D01*
X106855500Y-71572000D01*
X106980500Y-71572000D01*
X106986626Y-71572301D01*
G37*
G36*
X107486626Y-71572301D02*
G01*
X107492693Y-71573201D01*
X107498643Y-71574691D01*
X107504418Y-71576758D01*
X107509962Y-71579380D01*
X107515223Y-71582533D01*
X107520150Y-71586187D01*
X107524694Y-71590306D01*
X107528813Y-71594850D01*
X107532467Y-71599777D01*
X107535620Y-71605038D01*
X107538242Y-71610582D01*
X107540309Y-71616357D01*
X107541799Y-71622307D01*
X107542699Y-71628374D01*
X107543000Y-71634500D01*
X107543000Y-72309500D01*
X107542699Y-72315626D01*
X107541799Y-72321693D01*
X107540309Y-72327643D01*
X107538242Y-72333418D01*
X107535620Y-72338962D01*
X107532467Y-72344223D01*
X107528813Y-72349150D01*
X107524694Y-72353694D01*
X107520150Y-72357813D01*
X107515223Y-72361467D01*
X107509962Y-72364620D01*
X107504418Y-72367242D01*
X107498643Y-72369309D01*
X107492693Y-72370799D01*
X107486626Y-72371699D01*
X107480500Y-72372000D01*
X107355500Y-72372000D01*
X107349374Y-72371699D01*
X107343307Y-72370799D01*
X107337357Y-72369309D01*
X107331582Y-72367242D01*
X107326038Y-72364620D01*
X107320777Y-72361467D01*
X107315850Y-72357813D01*
X107311306Y-72353694D01*
X107307187Y-72349150D01*
X107303533Y-72344223D01*
X107300380Y-72338962D01*
X107297758Y-72333418D01*
X107295691Y-72327643D01*
X107294201Y-72321693D01*
X107293301Y-72315626D01*
X107293000Y-72309500D01*
X107293000Y-71634500D01*
X107293301Y-71628374D01*
X107294201Y-71622307D01*
X107295691Y-71616357D01*
X107297758Y-71610582D01*
X107300380Y-71605038D01*
X107303533Y-71599777D01*
X107307187Y-71594850D01*
X107311306Y-71590306D01*
X107315850Y-71586187D01*
X107320777Y-71582533D01*
X107326038Y-71579380D01*
X107331582Y-71576758D01*
X107337357Y-71574691D01*
X107343307Y-71573201D01*
X107349374Y-71572301D01*
X107355500Y-71572000D01*
X107480500Y-71572000D01*
X107486626Y-71572301D01*
G37*
G36*
X108711626Y-72797301D02*
G01*
X108717693Y-72798201D01*
X108723643Y-72799691D01*
X108729418Y-72801758D01*
X108734962Y-72804380D01*
X108740223Y-72807533D01*
X108745150Y-72811187D01*
X108749694Y-72815306D01*
X108753813Y-72819850D01*
X108757467Y-72824777D01*
X108760620Y-72830038D01*
X108763242Y-72835582D01*
X108765309Y-72841357D01*
X108766799Y-72847307D01*
X108767699Y-72853374D01*
X108768000Y-72859500D01*
X108768000Y-72984500D01*
X108767699Y-72990626D01*
X108766799Y-72996693D01*
X108765309Y-73002643D01*
X108763242Y-73008418D01*
X108760620Y-73013962D01*
X108757467Y-73019223D01*
X108753813Y-73024150D01*
X108749694Y-73028694D01*
X108745150Y-73032813D01*
X108740223Y-73036467D01*
X108734962Y-73039620D01*
X108729418Y-73042242D01*
X108723643Y-73044309D01*
X108717693Y-73045799D01*
X108711626Y-73046699D01*
X108705500Y-73047000D01*
X108030500Y-73047000D01*
X108024374Y-73046699D01*
X108018307Y-73045799D01*
X108012357Y-73044309D01*
X108006582Y-73042242D01*
X108001038Y-73039620D01*
X107995777Y-73036467D01*
X107990850Y-73032813D01*
X107986306Y-73028694D01*
X107982187Y-73024150D01*
X107978533Y-73019223D01*
X107975380Y-73013962D01*
X107972758Y-73008418D01*
X107970691Y-73002643D01*
X107969201Y-72996693D01*
X107968301Y-72990626D01*
X107968000Y-72984500D01*
X107968000Y-72859500D01*
X107968301Y-72853374D01*
X107969201Y-72847307D01*
X107970691Y-72841357D01*
X107972758Y-72835582D01*
X107975380Y-72830038D01*
X107978533Y-72824777D01*
X107982187Y-72819850D01*
X107986306Y-72815306D01*
X107990850Y-72811187D01*
X107995777Y-72807533D01*
X108001038Y-72804380D01*
X108006582Y-72801758D01*
X108012357Y-72799691D01*
X108018307Y-72798201D01*
X108024374Y-72797301D01*
X108030500Y-72797000D01*
X108705500Y-72797000D01*
X108711626Y-72797301D01*
G37*
G36*
X108711626Y-73297301D02*
G01*
X108717693Y-73298201D01*
X108723643Y-73299691D01*
X108729418Y-73301758D01*
X108734962Y-73304380D01*
X108740223Y-73307533D01*
X108745150Y-73311187D01*
X108749694Y-73315306D01*
X108753813Y-73319850D01*
X108757467Y-73324777D01*
X108760620Y-73330038D01*
X108763242Y-73335582D01*
X108765309Y-73341357D01*
X108766799Y-73347307D01*
X108767699Y-73353374D01*
X108768000Y-73359500D01*
X108768000Y-73484500D01*
X108767699Y-73490626D01*
X108766799Y-73496693D01*
X108765309Y-73502643D01*
X108763242Y-73508418D01*
X108760620Y-73513962D01*
X108757467Y-73519223D01*
X108753813Y-73524150D01*
X108749694Y-73528694D01*
X108745150Y-73532813D01*
X108740223Y-73536467D01*
X108734962Y-73539620D01*
X108729418Y-73542242D01*
X108723643Y-73544309D01*
X108717693Y-73545799D01*
X108711626Y-73546699D01*
X108705500Y-73547000D01*
X108030500Y-73547000D01*
X108024374Y-73546699D01*
X108018307Y-73545799D01*
X108012357Y-73544309D01*
X108006582Y-73542242D01*
X108001038Y-73539620D01*
X107995777Y-73536467D01*
X107990850Y-73532813D01*
X107986306Y-73528694D01*
X107982187Y-73524150D01*
X107978533Y-73519223D01*
X107975380Y-73513962D01*
X107972758Y-73508418D01*
X107970691Y-73502643D01*
X107969201Y-73496693D01*
X107968301Y-73490626D01*
X107968000Y-73484500D01*
X107968000Y-73359500D01*
X107968301Y-73353374D01*
X107969201Y-73347307D01*
X107970691Y-73341357D01*
X107972758Y-73335582D01*
X107975380Y-73330038D01*
X107978533Y-73324777D01*
X107982187Y-73319850D01*
X107986306Y-73315306D01*
X107990850Y-73311187D01*
X107995777Y-73307533D01*
X108001038Y-73304380D01*
X108006582Y-73301758D01*
X108012357Y-73299691D01*
X108018307Y-73298201D01*
X108024374Y-73297301D01*
X108030500Y-73297000D01*
X108705500Y-73297000D01*
X108711626Y-73297301D01*
G37*
G36*
X108711626Y-73797301D02*
G01*
X108717693Y-73798201D01*
X108723643Y-73799691D01*
X108729418Y-73801758D01*
X108734962Y-73804380D01*
X108740223Y-73807533D01*
X108745150Y-73811187D01*
X108749694Y-73815306D01*
X108753813Y-73819850D01*
X108757467Y-73824777D01*
X108760620Y-73830038D01*
X108763242Y-73835582D01*
X108765309Y-73841357D01*
X108766799Y-73847307D01*
X108767699Y-73853374D01*
X108768000Y-73859500D01*
X108768000Y-73984500D01*
X108767699Y-73990626D01*
X108766799Y-73996693D01*
X108765309Y-74002643D01*
X108763242Y-74008418D01*
X108760620Y-74013962D01*
X108757467Y-74019223D01*
X108753813Y-74024150D01*
X108749694Y-74028694D01*
X108745150Y-74032813D01*
X108740223Y-74036467D01*
X108734962Y-74039620D01*
X108729418Y-74042242D01*
X108723643Y-74044309D01*
X108717693Y-74045799D01*
X108711626Y-74046699D01*
X108705500Y-74047000D01*
X108030500Y-74047000D01*
X108024374Y-74046699D01*
X108018307Y-74045799D01*
X108012357Y-74044309D01*
X108006582Y-74042242D01*
X108001038Y-74039620D01*
X107995777Y-74036467D01*
X107990850Y-74032813D01*
X107986306Y-74028694D01*
X107982187Y-74024150D01*
X107978533Y-74019223D01*
X107975380Y-74013962D01*
X107972758Y-74008418D01*
X107970691Y-74002643D01*
X107969201Y-73996693D01*
X107968301Y-73990626D01*
X107968000Y-73984500D01*
X107968000Y-73859500D01*
X107968301Y-73853374D01*
X107969201Y-73847307D01*
X107970691Y-73841357D01*
X107972758Y-73835582D01*
X107975380Y-73830038D01*
X107978533Y-73824777D01*
X107982187Y-73819850D01*
X107986306Y-73815306D01*
X107990850Y-73811187D01*
X107995777Y-73807533D01*
X108001038Y-73804380D01*
X108006582Y-73801758D01*
X108012357Y-73799691D01*
X108018307Y-73798201D01*
X108024374Y-73797301D01*
X108030500Y-73797000D01*
X108705500Y-73797000D01*
X108711626Y-73797301D01*
G37*
G36*
X108711626Y-74297301D02*
G01*
X108717693Y-74298201D01*
X108723643Y-74299691D01*
X108729418Y-74301758D01*
X108734962Y-74304380D01*
X108740223Y-74307533D01*
X108745150Y-74311187D01*
X108749694Y-74315306D01*
X108753813Y-74319850D01*
X108757467Y-74324777D01*
X108760620Y-74330038D01*
X108763242Y-74335582D01*
X108765309Y-74341357D01*
X108766799Y-74347307D01*
X108767699Y-74353374D01*
X108768000Y-74359500D01*
X108768000Y-74484500D01*
X108767699Y-74490626D01*
X108766799Y-74496693D01*
X108765309Y-74502643D01*
X108763242Y-74508418D01*
X108760620Y-74513962D01*
X108757467Y-74519223D01*
X108753813Y-74524150D01*
X108749694Y-74528694D01*
X108745150Y-74532813D01*
X108740223Y-74536467D01*
X108734962Y-74539620D01*
X108729418Y-74542242D01*
X108723643Y-74544309D01*
X108717693Y-74545799D01*
X108711626Y-74546699D01*
X108705500Y-74547000D01*
X108030500Y-74547000D01*
X108024374Y-74546699D01*
X108018307Y-74545799D01*
X108012357Y-74544309D01*
X108006582Y-74542242D01*
X108001038Y-74539620D01*
X107995777Y-74536467D01*
X107990850Y-74532813D01*
X107986306Y-74528694D01*
X107982187Y-74524150D01*
X107978533Y-74519223D01*
X107975380Y-74513962D01*
X107972758Y-74508418D01*
X107970691Y-74502643D01*
X107969201Y-74496693D01*
X107968301Y-74490626D01*
X107968000Y-74484500D01*
X107968000Y-74359500D01*
X107968301Y-74353374D01*
X107969201Y-74347307D01*
X107970691Y-74341357D01*
X107972758Y-74335582D01*
X107975380Y-74330038D01*
X107978533Y-74324777D01*
X107982187Y-74319850D01*
X107986306Y-74315306D01*
X107990850Y-74311187D01*
X107995777Y-74307533D01*
X108001038Y-74304380D01*
X108006582Y-74301758D01*
X108012357Y-74299691D01*
X108018307Y-74298201D01*
X108024374Y-74297301D01*
X108030500Y-74297000D01*
X108705500Y-74297000D01*
X108711626Y-74297301D01*
G37*
G36*
X108711626Y-74797301D02*
G01*
X108717693Y-74798201D01*
X108723643Y-74799691D01*
X108729418Y-74801758D01*
X108734962Y-74804380D01*
X108740223Y-74807533D01*
X108745150Y-74811187D01*
X108749694Y-74815306D01*
X108753813Y-74819850D01*
X108757467Y-74824777D01*
X108760620Y-74830038D01*
X108763242Y-74835582D01*
X108765309Y-74841357D01*
X108766799Y-74847307D01*
X108767699Y-74853374D01*
X108768000Y-74859500D01*
X108768000Y-74984500D01*
X108767699Y-74990626D01*
X108766799Y-74996693D01*
X108765309Y-75002643D01*
X108763242Y-75008418D01*
X108760620Y-75013962D01*
X108757467Y-75019223D01*
X108753813Y-75024150D01*
X108749694Y-75028694D01*
X108745150Y-75032813D01*
X108740223Y-75036467D01*
X108734962Y-75039620D01*
X108729418Y-75042242D01*
X108723643Y-75044309D01*
X108717693Y-75045799D01*
X108711626Y-75046699D01*
X108705500Y-75047000D01*
X108030500Y-75047000D01*
X108024374Y-75046699D01*
X108018307Y-75045799D01*
X108012357Y-75044309D01*
X108006582Y-75042242D01*
X108001038Y-75039620D01*
X107995777Y-75036467D01*
X107990850Y-75032813D01*
X107986306Y-75028694D01*
X107982187Y-75024150D01*
X107978533Y-75019223D01*
X107975380Y-75013962D01*
X107972758Y-75008418D01*
X107970691Y-75002643D01*
X107969201Y-74996693D01*
X107968301Y-74990626D01*
X107968000Y-74984500D01*
X107968000Y-74859500D01*
X107968301Y-74853374D01*
X107969201Y-74847307D01*
X107970691Y-74841357D01*
X107972758Y-74835582D01*
X107975380Y-74830038D01*
X107978533Y-74824777D01*
X107982187Y-74819850D01*
X107986306Y-74815306D01*
X107990850Y-74811187D01*
X107995777Y-74807533D01*
X108001038Y-74804380D01*
X108006582Y-74801758D01*
X108012357Y-74799691D01*
X108018307Y-74798201D01*
X108024374Y-74797301D01*
X108030500Y-74797000D01*
X108705500Y-74797000D01*
X108711626Y-74797301D01*
G37*
G36*
X108711626Y-75297301D02*
G01*
X108717693Y-75298201D01*
X108723643Y-75299691D01*
X108729418Y-75301758D01*
X108734962Y-75304380D01*
X108740223Y-75307533D01*
X108745150Y-75311187D01*
X108749694Y-75315306D01*
X108753813Y-75319850D01*
X108757467Y-75324777D01*
X108760620Y-75330038D01*
X108763242Y-75335582D01*
X108765309Y-75341357D01*
X108766799Y-75347307D01*
X108767699Y-75353374D01*
X108768000Y-75359500D01*
X108768000Y-75484500D01*
X108767699Y-75490626D01*
X108766799Y-75496693D01*
X108765309Y-75502643D01*
X108763242Y-75508418D01*
X108760620Y-75513962D01*
X108757467Y-75519223D01*
X108753813Y-75524150D01*
X108749694Y-75528694D01*
X108745150Y-75532813D01*
X108740223Y-75536467D01*
X108734962Y-75539620D01*
X108729418Y-75542242D01*
X108723643Y-75544309D01*
X108717693Y-75545799D01*
X108711626Y-75546699D01*
X108705500Y-75547000D01*
X108030500Y-75547000D01*
X108024374Y-75546699D01*
X108018307Y-75545799D01*
X108012357Y-75544309D01*
X108006582Y-75542242D01*
X108001038Y-75539620D01*
X107995777Y-75536467D01*
X107990850Y-75532813D01*
X107986306Y-75528694D01*
X107982187Y-75524150D01*
X107978533Y-75519223D01*
X107975380Y-75513962D01*
X107972758Y-75508418D01*
X107970691Y-75502643D01*
X107969201Y-75496693D01*
X107968301Y-75490626D01*
X107968000Y-75484500D01*
X107968000Y-75359500D01*
X107968301Y-75353374D01*
X107969201Y-75347307D01*
X107970691Y-75341357D01*
X107972758Y-75335582D01*
X107975380Y-75330038D01*
X107978533Y-75324777D01*
X107982187Y-75319850D01*
X107986306Y-75315306D01*
X107990850Y-75311187D01*
X107995777Y-75307533D01*
X108001038Y-75304380D01*
X108006582Y-75301758D01*
X108012357Y-75299691D01*
X108018307Y-75298201D01*
X108024374Y-75297301D01*
X108030500Y-75297000D01*
X108705500Y-75297000D01*
X108711626Y-75297301D01*
G37*
G36*
X108711626Y-75797301D02*
G01*
X108717693Y-75798201D01*
X108723643Y-75799691D01*
X108729418Y-75801758D01*
X108734962Y-75804380D01*
X108740223Y-75807533D01*
X108745150Y-75811187D01*
X108749694Y-75815306D01*
X108753813Y-75819850D01*
X108757467Y-75824777D01*
X108760620Y-75830038D01*
X108763242Y-75835582D01*
X108765309Y-75841357D01*
X108766799Y-75847307D01*
X108767699Y-75853374D01*
X108768000Y-75859500D01*
X108768000Y-75984500D01*
X108767699Y-75990626D01*
X108766799Y-75996693D01*
X108765309Y-76002643D01*
X108763242Y-76008418D01*
X108760620Y-76013962D01*
X108757467Y-76019223D01*
X108753813Y-76024150D01*
X108749694Y-76028694D01*
X108745150Y-76032813D01*
X108740223Y-76036467D01*
X108734962Y-76039620D01*
X108729418Y-76042242D01*
X108723643Y-76044309D01*
X108717693Y-76045799D01*
X108711626Y-76046699D01*
X108705500Y-76047000D01*
X108030500Y-76047000D01*
X108024374Y-76046699D01*
X108018307Y-76045799D01*
X108012357Y-76044309D01*
X108006582Y-76042242D01*
X108001038Y-76039620D01*
X107995777Y-76036467D01*
X107990850Y-76032813D01*
X107986306Y-76028694D01*
X107982187Y-76024150D01*
X107978533Y-76019223D01*
X107975380Y-76013962D01*
X107972758Y-76008418D01*
X107970691Y-76002643D01*
X107969201Y-75996693D01*
X107968301Y-75990626D01*
X107968000Y-75984500D01*
X107968000Y-75859500D01*
X107968301Y-75853374D01*
X107969201Y-75847307D01*
X107970691Y-75841357D01*
X107972758Y-75835582D01*
X107975380Y-75830038D01*
X107978533Y-75824777D01*
X107982187Y-75819850D01*
X107986306Y-75815306D01*
X107990850Y-75811187D01*
X107995777Y-75807533D01*
X108001038Y-75804380D01*
X108006582Y-75801758D01*
X108012357Y-75799691D01*
X108018307Y-75798201D01*
X108024374Y-75797301D01*
X108030500Y-75797000D01*
X108705500Y-75797000D01*
X108711626Y-75797301D01*
G37*
G36*
X107486626Y-76472301D02*
G01*
X107492693Y-76473201D01*
X107498643Y-76474691D01*
X107504418Y-76476758D01*
X107509962Y-76479380D01*
X107515223Y-76482533D01*
X107520150Y-76486187D01*
X107524694Y-76490306D01*
X107528813Y-76494850D01*
X107532467Y-76499777D01*
X107535620Y-76505038D01*
X107538242Y-76510582D01*
X107540309Y-76516357D01*
X107541799Y-76522307D01*
X107542699Y-76528374D01*
X107543000Y-76534500D01*
X107543000Y-77209500D01*
X107542699Y-77215626D01*
X107541799Y-77221693D01*
X107540309Y-77227643D01*
X107538242Y-77233418D01*
X107535620Y-77238962D01*
X107532467Y-77244223D01*
X107528813Y-77249150D01*
X107524694Y-77253694D01*
X107520150Y-77257813D01*
X107515223Y-77261467D01*
X107509962Y-77264620D01*
X107504418Y-77267242D01*
X107498643Y-77269309D01*
X107492693Y-77270799D01*
X107486626Y-77271699D01*
X107480500Y-77272000D01*
X107355500Y-77272000D01*
X107349374Y-77271699D01*
X107343307Y-77270799D01*
X107337357Y-77269309D01*
X107331582Y-77267242D01*
X107326038Y-77264620D01*
X107320777Y-77261467D01*
X107315850Y-77257813D01*
X107311306Y-77253694D01*
X107307187Y-77249150D01*
X107303533Y-77244223D01*
X107300380Y-77238962D01*
X107297758Y-77233418D01*
X107295691Y-77227643D01*
X107294201Y-77221693D01*
X107293301Y-77215626D01*
X107293000Y-77209500D01*
X107293000Y-76534500D01*
X107293301Y-76528374D01*
X107294201Y-76522307D01*
X107295691Y-76516357D01*
X107297758Y-76510582D01*
X107300380Y-76505038D01*
X107303533Y-76499777D01*
X107307187Y-76494850D01*
X107311306Y-76490306D01*
X107315850Y-76486187D01*
X107320777Y-76482533D01*
X107326038Y-76479380D01*
X107331582Y-76476758D01*
X107337357Y-76474691D01*
X107343307Y-76473201D01*
X107349374Y-76472301D01*
X107355500Y-76472000D01*
X107480500Y-76472000D01*
X107486626Y-76472301D01*
G37*
G36*
X106986626Y-76472301D02*
G01*
X106992693Y-76473201D01*
X106998643Y-76474691D01*
X107004418Y-76476758D01*
X107009962Y-76479380D01*
X107015223Y-76482533D01*
X107020150Y-76486187D01*
X107024694Y-76490306D01*
X107028813Y-76494850D01*
X107032467Y-76499777D01*
X107035620Y-76505038D01*
X107038242Y-76510582D01*
X107040309Y-76516357D01*
X107041799Y-76522307D01*
X107042699Y-76528374D01*
X107043000Y-76534500D01*
X107043000Y-77209500D01*
X107042699Y-77215626D01*
X107041799Y-77221693D01*
X107040309Y-77227643D01*
X107038242Y-77233418D01*
X107035620Y-77238962D01*
X107032467Y-77244223D01*
X107028813Y-77249150D01*
X107024694Y-77253694D01*
X107020150Y-77257813D01*
X107015223Y-77261467D01*
X107009962Y-77264620D01*
X107004418Y-77267242D01*
X106998643Y-77269309D01*
X106992693Y-77270799D01*
X106986626Y-77271699D01*
X106980500Y-77272000D01*
X106855500Y-77272000D01*
X106849374Y-77271699D01*
X106843307Y-77270799D01*
X106837357Y-77269309D01*
X106831582Y-77267242D01*
X106826038Y-77264620D01*
X106820777Y-77261467D01*
X106815850Y-77257813D01*
X106811306Y-77253694D01*
X106807187Y-77249150D01*
X106803533Y-77244223D01*
X106800380Y-77238962D01*
X106797758Y-77233418D01*
X106795691Y-77227643D01*
X106794201Y-77221693D01*
X106793301Y-77215626D01*
X106793000Y-77209500D01*
X106793000Y-76534500D01*
X106793301Y-76528374D01*
X106794201Y-76522307D01*
X106795691Y-76516357D01*
X106797758Y-76510582D01*
X106800380Y-76505038D01*
X106803533Y-76499777D01*
X106807187Y-76494850D01*
X106811306Y-76490306D01*
X106815850Y-76486187D01*
X106820777Y-76482533D01*
X106826038Y-76479380D01*
X106831582Y-76476758D01*
X106837357Y-76474691D01*
X106843307Y-76473201D01*
X106849374Y-76472301D01*
X106855500Y-76472000D01*
X106980500Y-76472000D01*
X106986626Y-76472301D01*
G37*
G36*
X106486626Y-76472301D02*
G01*
X106492693Y-76473201D01*
X106498643Y-76474691D01*
X106504418Y-76476758D01*
X106509962Y-76479380D01*
X106515223Y-76482533D01*
X106520150Y-76486187D01*
X106524694Y-76490306D01*
X106528813Y-76494850D01*
X106532467Y-76499777D01*
X106535620Y-76505038D01*
X106538242Y-76510582D01*
X106540309Y-76516357D01*
X106541799Y-76522307D01*
X106542699Y-76528374D01*
X106543000Y-76534500D01*
X106543000Y-77209500D01*
X106542699Y-77215626D01*
X106541799Y-77221693D01*
X106540309Y-77227643D01*
X106538242Y-77233418D01*
X106535620Y-77238962D01*
X106532467Y-77244223D01*
X106528813Y-77249150D01*
X106524694Y-77253694D01*
X106520150Y-77257813D01*
X106515223Y-77261467D01*
X106509962Y-77264620D01*
X106504418Y-77267242D01*
X106498643Y-77269309D01*
X106492693Y-77270799D01*
X106486626Y-77271699D01*
X106480500Y-77272000D01*
X106355500Y-77272000D01*
X106349374Y-77271699D01*
X106343307Y-77270799D01*
X106337357Y-77269309D01*
X106331582Y-77267242D01*
X106326038Y-77264620D01*
X106320777Y-77261467D01*
X106315850Y-77257813D01*
X106311306Y-77253694D01*
X106307187Y-77249150D01*
X106303533Y-77244223D01*
X106300380Y-77238962D01*
X106297758Y-77233418D01*
X106295691Y-77227643D01*
X106294201Y-77221693D01*
X106293301Y-77215626D01*
X106293000Y-77209500D01*
X106293000Y-76534500D01*
X106293301Y-76528374D01*
X106294201Y-76522307D01*
X106295691Y-76516357D01*
X106297758Y-76510582D01*
X106300380Y-76505038D01*
X106303533Y-76499777D01*
X106307187Y-76494850D01*
X106311306Y-76490306D01*
X106315850Y-76486187D01*
X106320777Y-76482533D01*
X106326038Y-76479380D01*
X106331582Y-76476758D01*
X106337357Y-76474691D01*
X106343307Y-76473201D01*
X106349374Y-76472301D01*
X106355500Y-76472000D01*
X106480500Y-76472000D01*
X106486626Y-76472301D01*
G37*
G36*
X105986626Y-76472301D02*
G01*
X105992693Y-76473201D01*
X105998643Y-76474691D01*
X106004418Y-76476758D01*
X106009962Y-76479380D01*
X106015223Y-76482533D01*
X106020150Y-76486187D01*
X106024694Y-76490306D01*
X106028813Y-76494850D01*
X106032467Y-76499777D01*
X106035620Y-76505038D01*
X106038242Y-76510582D01*
X106040309Y-76516357D01*
X106041799Y-76522307D01*
X106042699Y-76528374D01*
X106043000Y-76534500D01*
X106043000Y-77209500D01*
X106042699Y-77215626D01*
X106041799Y-77221693D01*
X106040309Y-77227643D01*
X106038242Y-77233418D01*
X106035620Y-77238962D01*
X106032467Y-77244223D01*
X106028813Y-77249150D01*
X106024694Y-77253694D01*
X106020150Y-77257813D01*
X106015223Y-77261467D01*
X106009962Y-77264620D01*
X106004418Y-77267242D01*
X105998643Y-77269309D01*
X105992693Y-77270799D01*
X105986626Y-77271699D01*
X105980500Y-77272000D01*
X105855500Y-77272000D01*
X105849374Y-77271699D01*
X105843307Y-77270799D01*
X105837357Y-77269309D01*
X105831582Y-77267242D01*
X105826038Y-77264620D01*
X105820777Y-77261467D01*
X105815850Y-77257813D01*
X105811306Y-77253694D01*
X105807187Y-77249150D01*
X105803533Y-77244223D01*
X105800380Y-77238962D01*
X105797758Y-77233418D01*
X105795691Y-77227643D01*
X105794201Y-77221693D01*
X105793301Y-77215626D01*
X105793000Y-77209500D01*
X105793000Y-76534500D01*
X105793301Y-76528374D01*
X105794201Y-76522307D01*
X105795691Y-76516357D01*
X105797758Y-76510582D01*
X105800380Y-76505038D01*
X105803533Y-76499777D01*
X105807187Y-76494850D01*
X105811306Y-76490306D01*
X105815850Y-76486187D01*
X105820777Y-76482533D01*
X105826038Y-76479380D01*
X105831582Y-76476758D01*
X105837357Y-76474691D01*
X105843307Y-76473201D01*
X105849374Y-76472301D01*
X105855500Y-76472000D01*
X105980500Y-76472000D01*
X105986626Y-76472301D01*
G37*
G36*
X105486626Y-76472301D02*
G01*
X105492693Y-76473201D01*
X105498643Y-76474691D01*
X105504418Y-76476758D01*
X105509962Y-76479380D01*
X105515223Y-76482533D01*
X105520150Y-76486187D01*
X105524694Y-76490306D01*
X105528813Y-76494850D01*
X105532467Y-76499777D01*
X105535620Y-76505038D01*
X105538242Y-76510582D01*
X105540309Y-76516357D01*
X105541799Y-76522307D01*
X105542699Y-76528374D01*
X105543000Y-76534500D01*
X105543000Y-77209500D01*
X105542699Y-77215626D01*
X105541799Y-77221693D01*
X105540309Y-77227643D01*
X105538242Y-77233418D01*
X105535620Y-77238962D01*
X105532467Y-77244223D01*
X105528813Y-77249150D01*
X105524694Y-77253694D01*
X105520150Y-77257813D01*
X105515223Y-77261467D01*
X105509962Y-77264620D01*
X105504418Y-77267242D01*
X105498643Y-77269309D01*
X105492693Y-77270799D01*
X105486626Y-77271699D01*
X105480500Y-77272000D01*
X105355500Y-77272000D01*
X105349374Y-77271699D01*
X105343307Y-77270799D01*
X105337357Y-77269309D01*
X105331582Y-77267242D01*
X105326038Y-77264620D01*
X105320777Y-77261467D01*
X105315850Y-77257813D01*
X105311306Y-77253694D01*
X105307187Y-77249150D01*
X105303533Y-77244223D01*
X105300380Y-77238962D01*
X105297758Y-77233418D01*
X105295691Y-77227643D01*
X105294201Y-77221693D01*
X105293301Y-77215626D01*
X105293000Y-77209500D01*
X105293000Y-76534500D01*
X105293301Y-76528374D01*
X105294201Y-76522307D01*
X105295691Y-76516357D01*
X105297758Y-76510582D01*
X105300380Y-76505038D01*
X105303533Y-76499777D01*
X105307187Y-76494850D01*
X105311306Y-76490306D01*
X105315850Y-76486187D01*
X105320777Y-76482533D01*
X105326038Y-76479380D01*
X105331582Y-76476758D01*
X105337357Y-76474691D01*
X105343307Y-76473201D01*
X105349374Y-76472301D01*
X105355500Y-76472000D01*
X105480500Y-76472000D01*
X105486626Y-76472301D01*
G37*
G36*
X104986626Y-76472301D02*
G01*
X104992693Y-76473201D01*
X104998643Y-76474691D01*
X105004418Y-76476758D01*
X105009962Y-76479380D01*
X105015223Y-76482533D01*
X105020150Y-76486187D01*
X105024694Y-76490306D01*
X105028813Y-76494850D01*
X105032467Y-76499777D01*
X105035620Y-76505038D01*
X105038242Y-76510582D01*
X105040309Y-76516357D01*
X105041799Y-76522307D01*
X105042699Y-76528374D01*
X105043000Y-76534500D01*
X105043000Y-77209500D01*
X105042699Y-77215626D01*
X105041799Y-77221693D01*
X105040309Y-77227643D01*
X105038242Y-77233418D01*
X105035620Y-77238962D01*
X105032467Y-77244223D01*
X105028813Y-77249150D01*
X105024694Y-77253694D01*
X105020150Y-77257813D01*
X105015223Y-77261467D01*
X105009962Y-77264620D01*
X105004418Y-77267242D01*
X104998643Y-77269309D01*
X104992693Y-77270799D01*
X104986626Y-77271699D01*
X104980500Y-77272000D01*
X104855500Y-77272000D01*
X104849374Y-77271699D01*
X104843307Y-77270799D01*
X104837357Y-77269309D01*
X104831582Y-77267242D01*
X104826038Y-77264620D01*
X104820777Y-77261467D01*
X104815850Y-77257813D01*
X104811306Y-77253694D01*
X104807187Y-77249150D01*
X104803533Y-77244223D01*
X104800380Y-77238962D01*
X104797758Y-77233418D01*
X104795691Y-77227643D01*
X104794201Y-77221693D01*
X104793301Y-77215626D01*
X104793000Y-77209500D01*
X104793000Y-76534500D01*
X104793301Y-76528374D01*
X104794201Y-76522307D01*
X104795691Y-76516357D01*
X104797758Y-76510582D01*
X104800380Y-76505038D01*
X104803533Y-76499777D01*
X104807187Y-76494850D01*
X104811306Y-76490306D01*
X104815850Y-76486187D01*
X104820777Y-76482533D01*
X104826038Y-76479380D01*
X104831582Y-76476758D01*
X104837357Y-76474691D01*
X104843307Y-76473201D01*
X104849374Y-76472301D01*
X104855500Y-76472000D01*
X104980500Y-76472000D01*
X104986626Y-76472301D01*
G37*
G36*
X104486626Y-76472301D02*
G01*
X104492693Y-76473201D01*
X104498643Y-76474691D01*
X104504418Y-76476758D01*
X104509962Y-76479380D01*
X104515223Y-76482533D01*
X104520150Y-76486187D01*
X104524694Y-76490306D01*
X104528813Y-76494850D01*
X104532467Y-76499777D01*
X104535620Y-76505038D01*
X104538242Y-76510582D01*
X104540309Y-76516357D01*
X104541799Y-76522307D01*
X104542699Y-76528374D01*
X104543000Y-76534500D01*
X104543000Y-77209500D01*
X104542699Y-77215626D01*
X104541799Y-77221693D01*
X104540309Y-77227643D01*
X104538242Y-77233418D01*
X104535620Y-77238962D01*
X104532467Y-77244223D01*
X104528813Y-77249150D01*
X104524694Y-77253694D01*
X104520150Y-77257813D01*
X104515223Y-77261467D01*
X104509962Y-77264620D01*
X104504418Y-77267242D01*
X104498643Y-77269309D01*
X104492693Y-77270799D01*
X104486626Y-77271699D01*
X104480500Y-77272000D01*
X104355500Y-77272000D01*
X104349374Y-77271699D01*
X104343307Y-77270799D01*
X104337357Y-77269309D01*
X104331582Y-77267242D01*
X104326038Y-77264620D01*
X104320777Y-77261467D01*
X104315850Y-77257813D01*
X104311306Y-77253694D01*
X104307187Y-77249150D01*
X104303533Y-77244223D01*
X104300380Y-77238962D01*
X104297758Y-77233418D01*
X104295691Y-77227643D01*
X104294201Y-77221693D01*
X104293301Y-77215626D01*
X104293000Y-77209500D01*
X104293000Y-76534500D01*
X104293301Y-76528374D01*
X104294201Y-76522307D01*
X104295691Y-76516357D01*
X104297758Y-76510582D01*
X104300380Y-76505038D01*
X104303533Y-76499777D01*
X104307187Y-76494850D01*
X104311306Y-76490306D01*
X104315850Y-76486187D01*
X104320777Y-76482533D01*
X104326038Y-76479380D01*
X104331582Y-76476758D01*
X104337357Y-76474691D01*
X104343307Y-76473201D01*
X104349374Y-76472301D01*
X104355500Y-76472000D01*
X104480500Y-76472000D01*
X104486626Y-76472301D01*
G37*
G36*
X103811626Y-75797301D02*
G01*
X103817693Y-75798201D01*
X103823643Y-75799691D01*
X103829418Y-75801758D01*
X103834962Y-75804380D01*
X103840223Y-75807533D01*
X103845150Y-75811187D01*
X103849694Y-75815306D01*
X103853813Y-75819850D01*
X103857467Y-75824777D01*
X103860620Y-75830038D01*
X103863242Y-75835582D01*
X103865309Y-75841357D01*
X103866799Y-75847307D01*
X103867699Y-75853374D01*
X103868000Y-75859500D01*
X103868000Y-75984500D01*
X103867699Y-75990626D01*
X103866799Y-75996693D01*
X103865309Y-76002643D01*
X103863242Y-76008418D01*
X103860620Y-76013962D01*
X103857467Y-76019223D01*
X103853813Y-76024150D01*
X103849694Y-76028694D01*
X103845150Y-76032813D01*
X103840223Y-76036467D01*
X103834962Y-76039620D01*
X103829418Y-76042242D01*
X103823643Y-76044309D01*
X103817693Y-76045799D01*
X103811626Y-76046699D01*
X103805500Y-76047000D01*
X103130500Y-76047000D01*
X103124374Y-76046699D01*
X103118307Y-76045799D01*
X103112357Y-76044309D01*
X103106582Y-76042242D01*
X103101038Y-76039620D01*
X103095777Y-76036467D01*
X103090850Y-76032813D01*
X103086306Y-76028694D01*
X103082187Y-76024150D01*
X103078533Y-76019223D01*
X103075380Y-76013962D01*
X103072758Y-76008418D01*
X103070691Y-76002643D01*
X103069201Y-75996693D01*
X103068301Y-75990626D01*
X103068000Y-75984500D01*
X103068000Y-75859500D01*
X103068301Y-75853374D01*
X103069201Y-75847307D01*
X103070691Y-75841357D01*
X103072758Y-75835582D01*
X103075380Y-75830038D01*
X103078533Y-75824777D01*
X103082187Y-75819850D01*
X103086306Y-75815306D01*
X103090850Y-75811187D01*
X103095777Y-75807533D01*
X103101038Y-75804380D01*
X103106582Y-75801758D01*
X103112357Y-75799691D01*
X103118307Y-75798201D01*
X103124374Y-75797301D01*
X103130500Y-75797000D01*
X103805500Y-75797000D01*
X103811626Y-75797301D01*
G37*
G36*
X103811626Y-75297301D02*
G01*
X103817693Y-75298201D01*
X103823643Y-75299691D01*
X103829418Y-75301758D01*
X103834962Y-75304380D01*
X103840223Y-75307533D01*
X103845150Y-75311187D01*
X103849694Y-75315306D01*
X103853813Y-75319850D01*
X103857467Y-75324777D01*
X103860620Y-75330038D01*
X103863242Y-75335582D01*
X103865309Y-75341357D01*
X103866799Y-75347307D01*
X103867699Y-75353374D01*
X103868000Y-75359500D01*
X103868000Y-75484500D01*
X103867699Y-75490626D01*
X103866799Y-75496693D01*
X103865309Y-75502643D01*
X103863242Y-75508418D01*
X103860620Y-75513962D01*
X103857467Y-75519223D01*
X103853813Y-75524150D01*
X103849694Y-75528694D01*
X103845150Y-75532813D01*
X103840223Y-75536467D01*
X103834962Y-75539620D01*
X103829418Y-75542242D01*
X103823643Y-75544309D01*
X103817693Y-75545799D01*
X103811626Y-75546699D01*
X103805500Y-75547000D01*
X103130500Y-75547000D01*
X103124374Y-75546699D01*
X103118307Y-75545799D01*
X103112357Y-75544309D01*
X103106582Y-75542242D01*
X103101038Y-75539620D01*
X103095777Y-75536467D01*
X103090850Y-75532813D01*
X103086306Y-75528694D01*
X103082187Y-75524150D01*
X103078533Y-75519223D01*
X103075380Y-75513962D01*
X103072758Y-75508418D01*
X103070691Y-75502643D01*
X103069201Y-75496693D01*
X103068301Y-75490626D01*
X103068000Y-75484500D01*
X103068000Y-75359500D01*
X103068301Y-75353374D01*
X103069201Y-75347307D01*
X103070691Y-75341357D01*
X103072758Y-75335582D01*
X103075380Y-75330038D01*
X103078533Y-75324777D01*
X103082187Y-75319850D01*
X103086306Y-75315306D01*
X103090850Y-75311187D01*
X103095777Y-75307533D01*
X103101038Y-75304380D01*
X103106582Y-75301758D01*
X103112357Y-75299691D01*
X103118307Y-75298201D01*
X103124374Y-75297301D01*
X103130500Y-75297000D01*
X103805500Y-75297000D01*
X103811626Y-75297301D01*
G37*
G36*
X103811626Y-74797301D02*
G01*
X103817693Y-74798201D01*
X103823643Y-74799691D01*
X103829418Y-74801758D01*
X103834962Y-74804380D01*
X103840223Y-74807533D01*
X103845150Y-74811187D01*
X103849694Y-74815306D01*
X103853813Y-74819850D01*
X103857467Y-74824777D01*
X103860620Y-74830038D01*
X103863242Y-74835582D01*
X103865309Y-74841357D01*
X103866799Y-74847307D01*
X103867699Y-74853374D01*
X103868000Y-74859500D01*
X103868000Y-74984500D01*
X103867699Y-74990626D01*
X103866799Y-74996693D01*
X103865309Y-75002643D01*
X103863242Y-75008418D01*
X103860620Y-75013962D01*
X103857467Y-75019223D01*
X103853813Y-75024150D01*
X103849694Y-75028694D01*
X103845150Y-75032813D01*
X103840223Y-75036467D01*
X103834962Y-75039620D01*
X103829418Y-75042242D01*
X103823643Y-75044309D01*
X103817693Y-75045799D01*
X103811626Y-75046699D01*
X103805500Y-75047000D01*
X103130500Y-75047000D01*
X103124374Y-75046699D01*
X103118307Y-75045799D01*
X103112357Y-75044309D01*
X103106582Y-75042242D01*
X103101038Y-75039620D01*
X103095777Y-75036467D01*
X103090850Y-75032813D01*
X103086306Y-75028694D01*
X103082187Y-75024150D01*
X103078533Y-75019223D01*
X103075380Y-75013962D01*
X103072758Y-75008418D01*
X103070691Y-75002643D01*
X103069201Y-74996693D01*
X103068301Y-74990626D01*
X103068000Y-74984500D01*
X103068000Y-74859500D01*
X103068301Y-74853374D01*
X103069201Y-74847307D01*
X103070691Y-74841357D01*
X103072758Y-74835582D01*
X103075380Y-74830038D01*
X103078533Y-74824777D01*
X103082187Y-74819850D01*
X103086306Y-74815306D01*
X103090850Y-74811187D01*
X103095777Y-74807533D01*
X103101038Y-74804380D01*
X103106582Y-74801758D01*
X103112357Y-74799691D01*
X103118307Y-74798201D01*
X103124374Y-74797301D01*
X103130500Y-74797000D01*
X103805500Y-74797000D01*
X103811626Y-74797301D01*
G37*
G36*
X103811626Y-74297301D02*
G01*
X103817693Y-74298201D01*
X103823643Y-74299691D01*
X103829418Y-74301758D01*
X103834962Y-74304380D01*
X103840223Y-74307533D01*
X103845150Y-74311187D01*
X103849694Y-74315306D01*
X103853813Y-74319850D01*
X103857467Y-74324777D01*
X103860620Y-74330038D01*
X103863242Y-74335582D01*
X103865309Y-74341357D01*
X103866799Y-74347307D01*
X103867699Y-74353374D01*
X103868000Y-74359500D01*
X103868000Y-74484500D01*
X103867699Y-74490626D01*
X103866799Y-74496693D01*
X103865309Y-74502643D01*
X103863242Y-74508418D01*
X103860620Y-74513962D01*
X103857467Y-74519223D01*
X103853813Y-74524150D01*
X103849694Y-74528694D01*
X103845150Y-74532813D01*
X103840223Y-74536467D01*
X103834962Y-74539620D01*
X103829418Y-74542242D01*
X103823643Y-74544309D01*
X103817693Y-74545799D01*
X103811626Y-74546699D01*
X103805500Y-74547000D01*
X103130500Y-74547000D01*
X103124374Y-74546699D01*
X103118307Y-74545799D01*
X103112357Y-74544309D01*
X103106582Y-74542242D01*
X103101038Y-74539620D01*
X103095777Y-74536467D01*
X103090850Y-74532813D01*
X103086306Y-74528694D01*
X103082187Y-74524150D01*
X103078533Y-74519223D01*
X103075380Y-74513962D01*
X103072758Y-74508418D01*
X103070691Y-74502643D01*
X103069201Y-74496693D01*
X103068301Y-74490626D01*
X103068000Y-74484500D01*
X103068000Y-74359500D01*
X103068301Y-74353374D01*
X103069201Y-74347307D01*
X103070691Y-74341357D01*
X103072758Y-74335582D01*
X103075380Y-74330038D01*
X103078533Y-74324777D01*
X103082187Y-74319850D01*
X103086306Y-74315306D01*
X103090850Y-74311187D01*
X103095777Y-74307533D01*
X103101038Y-74304380D01*
X103106582Y-74301758D01*
X103112357Y-74299691D01*
X103118307Y-74298201D01*
X103124374Y-74297301D01*
X103130500Y-74297000D01*
X103805500Y-74297000D01*
X103811626Y-74297301D01*
G37*
G36*
X103811626Y-73797301D02*
G01*
X103817693Y-73798201D01*
X103823643Y-73799691D01*
X103829418Y-73801758D01*
X103834962Y-73804380D01*
X103840223Y-73807533D01*
X103845150Y-73811187D01*
X103849694Y-73815306D01*
X103853813Y-73819850D01*
X103857467Y-73824777D01*
X103860620Y-73830038D01*
X103863242Y-73835582D01*
X103865309Y-73841357D01*
X103866799Y-73847307D01*
X103867699Y-73853374D01*
X103868000Y-73859500D01*
X103868000Y-73984500D01*
X103867699Y-73990626D01*
X103866799Y-73996693D01*
X103865309Y-74002643D01*
X103863242Y-74008418D01*
X103860620Y-74013962D01*
X103857467Y-74019223D01*
X103853813Y-74024150D01*
X103849694Y-74028694D01*
X103845150Y-74032813D01*
X103840223Y-74036467D01*
X103834962Y-74039620D01*
X103829418Y-74042242D01*
X103823643Y-74044309D01*
X103817693Y-74045799D01*
X103811626Y-74046699D01*
X103805500Y-74047000D01*
X103130500Y-74047000D01*
X103124374Y-74046699D01*
X103118307Y-74045799D01*
X103112357Y-74044309D01*
X103106582Y-74042242D01*
X103101038Y-74039620D01*
X103095777Y-74036467D01*
X103090850Y-74032813D01*
X103086306Y-74028694D01*
X103082187Y-74024150D01*
X103078533Y-74019223D01*
X103075380Y-74013962D01*
X103072758Y-74008418D01*
X103070691Y-74002643D01*
X103069201Y-73996693D01*
X103068301Y-73990626D01*
X103068000Y-73984500D01*
X103068000Y-73859500D01*
X103068301Y-73853374D01*
X103069201Y-73847307D01*
X103070691Y-73841357D01*
X103072758Y-73835582D01*
X103075380Y-73830038D01*
X103078533Y-73824777D01*
X103082187Y-73819850D01*
X103086306Y-73815306D01*
X103090850Y-73811187D01*
X103095777Y-73807533D01*
X103101038Y-73804380D01*
X103106582Y-73801758D01*
X103112357Y-73799691D01*
X103118307Y-73798201D01*
X103124374Y-73797301D01*
X103130500Y-73797000D01*
X103805500Y-73797000D01*
X103811626Y-73797301D01*
G37*
G36*
X103811626Y-73297301D02*
G01*
X103817693Y-73298201D01*
X103823643Y-73299691D01*
X103829418Y-73301758D01*
X103834962Y-73304380D01*
X103840223Y-73307533D01*
X103845150Y-73311187D01*
X103849694Y-73315306D01*
X103853813Y-73319850D01*
X103857467Y-73324777D01*
X103860620Y-73330038D01*
X103863242Y-73335582D01*
X103865309Y-73341357D01*
X103866799Y-73347307D01*
X103867699Y-73353374D01*
X103868000Y-73359500D01*
X103868000Y-73484500D01*
X103867699Y-73490626D01*
X103866799Y-73496693D01*
X103865309Y-73502643D01*
X103863242Y-73508418D01*
X103860620Y-73513962D01*
X103857467Y-73519223D01*
X103853813Y-73524150D01*
X103849694Y-73528694D01*
X103845150Y-73532813D01*
X103840223Y-73536467D01*
X103834962Y-73539620D01*
X103829418Y-73542242D01*
X103823643Y-73544309D01*
X103817693Y-73545799D01*
X103811626Y-73546699D01*
X103805500Y-73547000D01*
X103130500Y-73547000D01*
X103124374Y-73546699D01*
X103118307Y-73545799D01*
X103112357Y-73544309D01*
X103106582Y-73542242D01*
X103101038Y-73539620D01*
X103095777Y-73536467D01*
X103090850Y-73532813D01*
X103086306Y-73528694D01*
X103082187Y-73524150D01*
X103078533Y-73519223D01*
X103075380Y-73513962D01*
X103072758Y-73508418D01*
X103070691Y-73502643D01*
X103069201Y-73496693D01*
X103068301Y-73490626D01*
X103068000Y-73484500D01*
X103068000Y-73359500D01*
X103068301Y-73353374D01*
X103069201Y-73347307D01*
X103070691Y-73341357D01*
X103072758Y-73335582D01*
X103075380Y-73330038D01*
X103078533Y-73324777D01*
X103082187Y-73319850D01*
X103086306Y-73315306D01*
X103090850Y-73311187D01*
X103095777Y-73307533D01*
X103101038Y-73304380D01*
X103106582Y-73301758D01*
X103112357Y-73299691D01*
X103118307Y-73298201D01*
X103124374Y-73297301D01*
X103130500Y-73297000D01*
X103805500Y-73297000D01*
X103811626Y-73297301D01*
G37*
G36*
X103811626Y-72797301D02*
G01*
X103817693Y-72798201D01*
X103823643Y-72799691D01*
X103829418Y-72801758D01*
X103834962Y-72804380D01*
X103840223Y-72807533D01*
X103845150Y-72811187D01*
X103849694Y-72815306D01*
X103853813Y-72819850D01*
X103857467Y-72824777D01*
X103860620Y-72830038D01*
X103863242Y-72835582D01*
X103865309Y-72841357D01*
X103866799Y-72847307D01*
X103867699Y-72853374D01*
X103868000Y-72859500D01*
X103868000Y-72984500D01*
X103867699Y-72990626D01*
X103866799Y-72996693D01*
X103865309Y-73002643D01*
X103863242Y-73008418D01*
X103860620Y-73013962D01*
X103857467Y-73019223D01*
X103853813Y-73024150D01*
X103849694Y-73028694D01*
X103845150Y-73032813D01*
X103840223Y-73036467D01*
X103834962Y-73039620D01*
X103829418Y-73042242D01*
X103823643Y-73044309D01*
X103817693Y-73045799D01*
X103811626Y-73046699D01*
X103805500Y-73047000D01*
X103130500Y-73047000D01*
X103124374Y-73046699D01*
X103118307Y-73045799D01*
X103112357Y-73044309D01*
X103106582Y-73042242D01*
X103101038Y-73039620D01*
X103095777Y-73036467D01*
X103090850Y-73032813D01*
X103086306Y-73028694D01*
X103082187Y-73024150D01*
X103078533Y-73019223D01*
X103075380Y-73013962D01*
X103072758Y-73008418D01*
X103070691Y-73002643D01*
X103069201Y-72996693D01*
X103068301Y-72990626D01*
X103068000Y-72984500D01*
X103068000Y-72859500D01*
X103068301Y-72853374D01*
X103069201Y-72847307D01*
X103070691Y-72841357D01*
X103072758Y-72835582D01*
X103075380Y-72830038D01*
X103078533Y-72824777D01*
X103082187Y-72819850D01*
X103086306Y-72815306D01*
X103090850Y-72811187D01*
X103095777Y-72807533D01*
X103101038Y-72804380D01*
X103106582Y-72801758D01*
X103112357Y-72799691D01*
X103118307Y-72798201D01*
X103124374Y-72797301D01*
X103130500Y-72797000D01*
X103805500Y-72797000D01*
X103811626Y-72797301D01*
G37*
G36*
X107441064Y-75489465D02*
G01*
X107461232Y-75495583D01*
X107479819Y-75505518D01*
X107496111Y-75518889D01*
X107509482Y-75535181D01*
X107519417Y-75553768D01*
X107525535Y-75573936D01*
X107527601Y-75594911D01*
X107527601Y-75924089D01*
X107525535Y-75945064D01*
X107519417Y-75965232D01*
X107509482Y-75983819D01*
X107496111Y-76000111D01*
X107479819Y-76013482D01*
X107461232Y-76023417D01*
X107441064Y-76029535D01*
X107420089Y-76031601D01*
X107090911Y-76031601D01*
X107069936Y-76029535D01*
X107049768Y-76023417D01*
X107031181Y-76013482D01*
X107014889Y-76000111D01*
X107001518Y-75983819D01*
X106991583Y-75965232D01*
X106985465Y-75945064D01*
X106983399Y-75924089D01*
X106983399Y-75683977D01*
X106985465Y-75663002D01*
X106991583Y-75642834D01*
X107001518Y-75624247D01*
X107014889Y-75607955D01*
X107103955Y-75518889D01*
X107120247Y-75505518D01*
X107138834Y-75495583D01*
X107159002Y-75489465D01*
X107179977Y-75487399D01*
X107420089Y-75487399D01*
X107441064Y-75489465D01*
G37*
G36*
X107441064Y-72814465D02*
G01*
X107461232Y-72820583D01*
X107479819Y-72830518D01*
X107496111Y-72843889D01*
X107509482Y-72860181D01*
X107519417Y-72878768D01*
X107525535Y-72898936D01*
X107527601Y-72919911D01*
X107527601Y-73249089D01*
X107525535Y-73270064D01*
X107519417Y-73290232D01*
X107509482Y-73308819D01*
X107496111Y-73325111D01*
X107479819Y-73338482D01*
X107461232Y-73348417D01*
X107441064Y-73354535D01*
X107420089Y-73356601D01*
X107179977Y-73356601D01*
X107159002Y-73354535D01*
X107138834Y-73348417D01*
X107120247Y-73338482D01*
X107103955Y-73325111D01*
X107014889Y-73236045D01*
X107001518Y-73219753D01*
X106991583Y-73201166D01*
X106985465Y-73180998D01*
X106983399Y-73160023D01*
X106983399Y-72919911D01*
X106985465Y-72898936D01*
X106991583Y-72878768D01*
X107001518Y-72860181D01*
X107014889Y-72843889D01*
X107031181Y-72830518D01*
X107049768Y-72820583D01*
X107069936Y-72814465D01*
X107090911Y-72812399D01*
X107420089Y-72812399D01*
X107441064Y-72814465D01*
G37*
G36*
X104676998Y-75489465D02*
G01*
X104697166Y-75495583D01*
X104715753Y-75505518D01*
X104732045Y-75518889D01*
X104821111Y-75607955D01*
X104834482Y-75624247D01*
X104844417Y-75642834D01*
X104850535Y-75663002D01*
X104852601Y-75683977D01*
X104852601Y-75924089D01*
X104850535Y-75945064D01*
X104844417Y-75965232D01*
X104834482Y-75983819D01*
X104821111Y-76000111D01*
X104804819Y-76013482D01*
X104786232Y-76023417D01*
X104766064Y-76029535D01*
X104745089Y-76031601D01*
X104415911Y-76031601D01*
X104394936Y-76029535D01*
X104374768Y-76023417D01*
X104356181Y-76013482D01*
X104339889Y-76000111D01*
X104326518Y-75983819D01*
X104316583Y-75965232D01*
X104310465Y-75945064D01*
X104308399Y-75924089D01*
X104308399Y-75594911D01*
X104310465Y-75573936D01*
X104316583Y-75553768D01*
X104326518Y-75535181D01*
X104339889Y-75518889D01*
X104356181Y-75505518D01*
X104374768Y-75495583D01*
X104394936Y-75489465D01*
X104415911Y-75487399D01*
X104656023Y-75487399D01*
X104676998Y-75489465D01*
G37*
G36*
X104766064Y-72814465D02*
G01*
X104786232Y-72820583D01*
X104804819Y-72830518D01*
X104821111Y-72843889D01*
X104834482Y-72860181D01*
X104844417Y-72878768D01*
X104850535Y-72898936D01*
X104852601Y-72919911D01*
X104852601Y-73160023D01*
X104850535Y-73180998D01*
X104844417Y-73201166D01*
X104834482Y-73219753D01*
X104821111Y-73236045D01*
X104732045Y-73325111D01*
X104715753Y-73338482D01*
X104697166Y-73348417D01*
X104676998Y-73354535D01*
X104656023Y-73356601D01*
X104415911Y-73356601D01*
X104394936Y-73354535D01*
X104374768Y-73348417D01*
X104356181Y-73338482D01*
X104339889Y-73325111D01*
X104326518Y-73308819D01*
X104316583Y-73290232D01*
X104310465Y-73270064D01*
X104308399Y-73249089D01*
X104308399Y-72919911D01*
X104310465Y-72898936D01*
X104316583Y-72878768D01*
X104326518Y-72860181D01*
X104339889Y-72843889D01*
X104356181Y-72830518D01*
X104374768Y-72820583D01*
X104394936Y-72814465D01*
X104415911Y-72812399D01*
X104745089Y-72812399D01*
X104766064Y-72814465D01*
G37*
G36*
X106681877Y-75489037D02*
G01*
X106697868Y-75493888D01*
X106712606Y-75501766D01*
X106725524Y-75512367D01*
X106796144Y-75582988D01*
X106806746Y-75595906D01*
X106814623Y-75610644D01*
X106819474Y-75626636D01*
X106821112Y-75643266D01*
X106821112Y-75946355D01*
X106819474Y-75962986D01*
X106814623Y-75978977D01*
X106806745Y-75993715D01*
X106796144Y-76006633D01*
X106783226Y-76017234D01*
X106768488Y-76025112D01*
X106752497Y-76029963D01*
X106735866Y-76031601D01*
X106100134Y-76031601D01*
X106083503Y-76029963D01*
X106067512Y-76025112D01*
X106052774Y-76017234D01*
X106039856Y-76006633D01*
X106029255Y-75993715D01*
X106021377Y-75978977D01*
X106016526Y-75962986D01*
X106014888Y-75946355D01*
X106014888Y-75643266D01*
X106016526Y-75626635D01*
X106021377Y-75610644D01*
X106029255Y-75595906D01*
X106039856Y-75582988D01*
X106110476Y-75512367D01*
X106123393Y-75501766D01*
X106138131Y-75493888D01*
X106154123Y-75489037D01*
X106170754Y-75487399D01*
X106665246Y-75487399D01*
X106681877Y-75489037D01*
G37*
G36*
X105681877Y-75489037D02*
G01*
X105697868Y-75493888D01*
X105712606Y-75501766D01*
X105725524Y-75512367D01*
X105796144Y-75582988D01*
X105806746Y-75595906D01*
X105814623Y-75610644D01*
X105819474Y-75626636D01*
X105821112Y-75643266D01*
X105821112Y-75946355D01*
X105819474Y-75962986D01*
X105814623Y-75978977D01*
X105806745Y-75993715D01*
X105796144Y-76006633D01*
X105783226Y-76017234D01*
X105768488Y-76025112D01*
X105752497Y-76029963D01*
X105735866Y-76031601D01*
X105100134Y-76031601D01*
X105083503Y-76029963D01*
X105067512Y-76025112D01*
X105052774Y-76017234D01*
X105039856Y-76006633D01*
X105029255Y-75993715D01*
X105021377Y-75978977D01*
X105016526Y-75962986D01*
X105014888Y-75946355D01*
X105014888Y-75643266D01*
X105016526Y-75626635D01*
X105021377Y-75610644D01*
X105029255Y-75595906D01*
X105039856Y-75582988D01*
X105110476Y-75512367D01*
X105123393Y-75501766D01*
X105138131Y-75493888D01*
X105154123Y-75489037D01*
X105170754Y-75487399D01*
X105665246Y-75487399D01*
X105681877Y-75489037D01*
G37*
G36*
X106752497Y-72814037D02*
G01*
X106768488Y-72818888D01*
X106783226Y-72826766D01*
X106796144Y-72837367D01*
X106806745Y-72850285D01*
X106814623Y-72865023D01*
X106819474Y-72881014D01*
X106821112Y-72897645D01*
X106821112Y-73200734D01*
X106819474Y-73217365D01*
X106814623Y-73233356D01*
X106806745Y-73248094D01*
X106796144Y-73261012D01*
X106725524Y-73331633D01*
X106712607Y-73342234D01*
X106697869Y-73350112D01*
X106681877Y-73354963D01*
X106665246Y-73356601D01*
X106170754Y-73356601D01*
X106154123Y-73354963D01*
X106138132Y-73350112D01*
X106123394Y-73342234D01*
X106110476Y-73331633D01*
X106039856Y-73261012D01*
X106029254Y-73248094D01*
X106021377Y-73233356D01*
X106016526Y-73217364D01*
X106014888Y-73200734D01*
X106014888Y-72897645D01*
X106016526Y-72881014D01*
X106021377Y-72865023D01*
X106029255Y-72850285D01*
X106039856Y-72837367D01*
X106052774Y-72826766D01*
X106067512Y-72818888D01*
X106083503Y-72814037D01*
X106100134Y-72812399D01*
X106735866Y-72812399D01*
X106752497Y-72814037D01*
G37*
G36*
X105752497Y-72814037D02*
G01*
X105768488Y-72818888D01*
X105783226Y-72826766D01*
X105796144Y-72837367D01*
X105806745Y-72850285D01*
X105814623Y-72865023D01*
X105819474Y-72881014D01*
X105821112Y-72897645D01*
X105821112Y-73200734D01*
X105819474Y-73217365D01*
X105814623Y-73233356D01*
X105806745Y-73248094D01*
X105796144Y-73261012D01*
X105725524Y-73331633D01*
X105712607Y-73342234D01*
X105697869Y-73350112D01*
X105681877Y-73354963D01*
X105665246Y-73356601D01*
X105170754Y-73356601D01*
X105154123Y-73354963D01*
X105138132Y-73350112D01*
X105123394Y-73342234D01*
X105110476Y-73331633D01*
X105039856Y-73261012D01*
X105029254Y-73248094D01*
X105021377Y-73233356D01*
X105016526Y-73217364D01*
X105014888Y-73200734D01*
X105014888Y-72897645D01*
X105016526Y-72881014D01*
X105021377Y-72865023D01*
X105029255Y-72850285D01*
X105039856Y-72837367D01*
X105052774Y-72826766D01*
X105067512Y-72818888D01*
X105083503Y-72814037D01*
X105100134Y-72812399D01*
X105735866Y-72812399D01*
X105752497Y-72814037D01*
G37*
G36*
X107458986Y-74520526D02*
G01*
X107474977Y-74525377D01*
X107489715Y-74533255D01*
X107502633Y-74543856D01*
X107513234Y-74556774D01*
X107521112Y-74571512D01*
X107525963Y-74587503D01*
X107527601Y-74604134D01*
X107527601Y-75239866D01*
X107525963Y-75256497D01*
X107521112Y-75272488D01*
X107513234Y-75287226D01*
X107502633Y-75300144D01*
X107489715Y-75310745D01*
X107474977Y-75318623D01*
X107458986Y-75323474D01*
X107442355Y-75325112D01*
X107139266Y-75325112D01*
X107122635Y-75323474D01*
X107106644Y-75318623D01*
X107091906Y-75310745D01*
X107078988Y-75300144D01*
X107008367Y-75229524D01*
X106997766Y-75216607D01*
X106989888Y-75201869D01*
X106985037Y-75185877D01*
X106983399Y-75169246D01*
X106983399Y-74674754D01*
X106985037Y-74658123D01*
X106989888Y-74642132D01*
X106997766Y-74627394D01*
X107008367Y-74614476D01*
X107078988Y-74543856D01*
X107091906Y-74533254D01*
X107106644Y-74525377D01*
X107122636Y-74520526D01*
X107139266Y-74518888D01*
X107442355Y-74518888D01*
X107458986Y-74520526D01*
G37*
G36*
X107458986Y-73520526D02*
G01*
X107474977Y-73525377D01*
X107489715Y-73533255D01*
X107502633Y-73543856D01*
X107513234Y-73556774D01*
X107521112Y-73571512D01*
X107525963Y-73587503D01*
X107527601Y-73604134D01*
X107527601Y-74239866D01*
X107525963Y-74256497D01*
X107521112Y-74272488D01*
X107513234Y-74287226D01*
X107502633Y-74300144D01*
X107489715Y-74310745D01*
X107474977Y-74318623D01*
X107458986Y-74323474D01*
X107442355Y-74325112D01*
X107139266Y-74325112D01*
X107122635Y-74323474D01*
X107106644Y-74318623D01*
X107091906Y-74310745D01*
X107078988Y-74300144D01*
X107008367Y-74229524D01*
X106997766Y-74216607D01*
X106989888Y-74201869D01*
X106985037Y-74185877D01*
X106983399Y-74169246D01*
X106983399Y-73674754D01*
X106985037Y-73658123D01*
X106989888Y-73642132D01*
X106997766Y-73627394D01*
X107008367Y-73614476D01*
X107078988Y-73543856D01*
X107091906Y-73533254D01*
X107106644Y-73525377D01*
X107122636Y-73520526D01*
X107139266Y-73518888D01*
X107442355Y-73518888D01*
X107458986Y-73520526D01*
G37*
G36*
X104713365Y-74520526D02*
G01*
X104729356Y-74525377D01*
X104744094Y-74533255D01*
X104757012Y-74543856D01*
X104827633Y-74614476D01*
X104838234Y-74627393D01*
X104846112Y-74642131D01*
X104850963Y-74658123D01*
X104852601Y-74674754D01*
X104852601Y-75169246D01*
X104850963Y-75185877D01*
X104846112Y-75201868D01*
X104838234Y-75216606D01*
X104827633Y-75229524D01*
X104757012Y-75300144D01*
X104744094Y-75310746D01*
X104729356Y-75318623D01*
X104713364Y-75323474D01*
X104696734Y-75325112D01*
X104393645Y-75325112D01*
X104377014Y-75323474D01*
X104361023Y-75318623D01*
X104346285Y-75310745D01*
X104333367Y-75300144D01*
X104322766Y-75287226D01*
X104314888Y-75272488D01*
X104310037Y-75256497D01*
X104308399Y-75239866D01*
X104308399Y-74604134D01*
X104310037Y-74587503D01*
X104314888Y-74571512D01*
X104322766Y-74556774D01*
X104333367Y-74543856D01*
X104346285Y-74533255D01*
X104361023Y-74525377D01*
X104377014Y-74520526D01*
X104393645Y-74518888D01*
X104696734Y-74518888D01*
X104713365Y-74520526D01*
G37*
G36*
X104713365Y-73520526D02*
G01*
X104729356Y-73525377D01*
X104744094Y-73533255D01*
X104757012Y-73543856D01*
X104827633Y-73614476D01*
X104838234Y-73627393D01*
X104846112Y-73642131D01*
X104850963Y-73658123D01*
X104852601Y-73674754D01*
X104852601Y-74169246D01*
X104850963Y-74185877D01*
X104846112Y-74201868D01*
X104838234Y-74216606D01*
X104827633Y-74229524D01*
X104757012Y-74300144D01*
X104744094Y-74310746D01*
X104729356Y-74318623D01*
X104713364Y-74323474D01*
X104696734Y-74325112D01*
X104393645Y-74325112D01*
X104377014Y-74323474D01*
X104361023Y-74318623D01*
X104346285Y-74310745D01*
X104333367Y-74300144D01*
X104322766Y-74287226D01*
X104314888Y-74272488D01*
X104310037Y-74256497D01*
X104308399Y-74239866D01*
X104308399Y-73604134D01*
X104310037Y-73587503D01*
X104314888Y-73571512D01*
X104322766Y-73556774D01*
X104333367Y-73543856D01*
X104346285Y-73533255D01*
X104361023Y-73525377D01*
X104377014Y-73520526D01*
X104393645Y-73518888D01*
X104696734Y-73518888D01*
X104713365Y-73520526D01*
G37*
G36*
X106639313Y-74519858D02*
G01*
X106658879Y-74522760D01*
X106678066Y-74527566D01*
X106696689Y-74534230D01*
X106714570Y-74542686D01*
X106731536Y-74552855D01*
X106747423Y-74564638D01*
X106762079Y-74577921D01*
X106775362Y-74592577D01*
X106787145Y-74608464D01*
X106797314Y-74625430D01*
X106805770Y-74643311D01*
X106812434Y-74661934D01*
X106817240Y-74681121D01*
X106820142Y-74700687D01*
X106821113Y-74720443D01*
X106821113Y-75123557D01*
X106820142Y-75143313D01*
X106817240Y-75162879D01*
X106812434Y-75182066D01*
X106805770Y-75200689D01*
X106797314Y-75218570D01*
X106787145Y-75235536D01*
X106775362Y-75251423D01*
X106762079Y-75266079D01*
X106747423Y-75279362D01*
X106731536Y-75291145D01*
X106714570Y-75301314D01*
X106696689Y-75309770D01*
X106678066Y-75316434D01*
X106658879Y-75321240D01*
X106639313Y-75324142D01*
X106619557Y-75325113D01*
X106216443Y-75325113D01*
X106196687Y-75324142D01*
X106177121Y-75321240D01*
X106157934Y-75316434D01*
X106139311Y-75309770D01*
X106121430Y-75301314D01*
X106104464Y-75291145D01*
X106088577Y-75279362D01*
X106073921Y-75266079D01*
X106060638Y-75251423D01*
X106048855Y-75235536D01*
X106038686Y-75218570D01*
X106030230Y-75200689D01*
X106023566Y-75182066D01*
X106018760Y-75162879D01*
X106015858Y-75143313D01*
X106014887Y-75123557D01*
X106014887Y-74720443D01*
X106015858Y-74700687D01*
X106018760Y-74681121D01*
X106023566Y-74661934D01*
X106030230Y-74643311D01*
X106038686Y-74625430D01*
X106048855Y-74608464D01*
X106060638Y-74592577D01*
X106073921Y-74577921D01*
X106088577Y-74564638D01*
X106104464Y-74552855D01*
X106121430Y-74542686D01*
X106139311Y-74534230D01*
X106157934Y-74527566D01*
X106177121Y-74522760D01*
X106196687Y-74519858D01*
X106216443Y-74518887D01*
X106619557Y-74518887D01*
X106639313Y-74519858D01*
G37*
G36*
X106639313Y-73519858D02*
G01*
X106658879Y-73522760D01*
X106678066Y-73527566D01*
X106696689Y-73534230D01*
X106714570Y-73542686D01*
X106731536Y-73552855D01*
X106747423Y-73564638D01*
X106762079Y-73577921D01*
X106775362Y-73592577D01*
X106787145Y-73608464D01*
X106797314Y-73625430D01*
X106805770Y-73643311D01*
X106812434Y-73661934D01*
X106817240Y-73681121D01*
X106820142Y-73700687D01*
X106821113Y-73720443D01*
X106821113Y-74123557D01*
X106820142Y-74143313D01*
X106817240Y-74162879D01*
X106812434Y-74182066D01*
X106805770Y-74200689D01*
X106797314Y-74218570D01*
X106787145Y-74235536D01*
X106775362Y-74251423D01*
X106762079Y-74266079D01*
X106747423Y-74279362D01*
X106731536Y-74291145D01*
X106714570Y-74301314D01*
X106696689Y-74309770D01*
X106678066Y-74316434D01*
X106658879Y-74321240D01*
X106639313Y-74324142D01*
X106619557Y-74325113D01*
X106216443Y-74325113D01*
X106196687Y-74324142D01*
X106177121Y-74321240D01*
X106157934Y-74316434D01*
X106139311Y-74309770D01*
X106121430Y-74301314D01*
X106104464Y-74291145D01*
X106088577Y-74279362D01*
X106073921Y-74266079D01*
X106060638Y-74251423D01*
X106048855Y-74235536D01*
X106038686Y-74218570D01*
X106030230Y-74200689D01*
X106023566Y-74182066D01*
X106018760Y-74162879D01*
X106015858Y-74143313D01*
X106014887Y-74123557D01*
X106014887Y-73720443D01*
X106015858Y-73700687D01*
X106018760Y-73681121D01*
X106023566Y-73661934D01*
X106030230Y-73643311D01*
X106038686Y-73625430D01*
X106048855Y-73608464D01*
X106060638Y-73592577D01*
X106073921Y-73577921D01*
X106088577Y-73564638D01*
X106104464Y-73552855D01*
X106121430Y-73542686D01*
X106139311Y-73534230D01*
X106157934Y-73527566D01*
X106177121Y-73522760D01*
X106196687Y-73519858D01*
X106216443Y-73518887D01*
X106619557Y-73518887D01*
X106639313Y-73519858D01*
G37*
G36*
X105639313Y-74519858D02*
G01*
X105658879Y-74522760D01*
X105678066Y-74527566D01*
X105696689Y-74534230D01*
X105714570Y-74542686D01*
X105731536Y-74552855D01*
X105747423Y-74564638D01*
X105762079Y-74577921D01*
X105775362Y-74592577D01*
X105787145Y-74608464D01*
X105797314Y-74625430D01*
X105805770Y-74643311D01*
X105812434Y-74661934D01*
X105817240Y-74681121D01*
X105820142Y-74700687D01*
X105821113Y-74720443D01*
X105821113Y-75123557D01*
X105820142Y-75143313D01*
X105817240Y-75162879D01*
X105812434Y-75182066D01*
X105805770Y-75200689D01*
X105797314Y-75218570D01*
X105787145Y-75235536D01*
X105775362Y-75251423D01*
X105762079Y-75266079D01*
X105747423Y-75279362D01*
X105731536Y-75291145D01*
X105714570Y-75301314D01*
X105696689Y-75309770D01*
X105678066Y-75316434D01*
X105658879Y-75321240D01*
X105639313Y-75324142D01*
X105619557Y-75325113D01*
X105216443Y-75325113D01*
X105196687Y-75324142D01*
X105177121Y-75321240D01*
X105157934Y-75316434D01*
X105139311Y-75309770D01*
X105121430Y-75301314D01*
X105104464Y-75291145D01*
X105088577Y-75279362D01*
X105073921Y-75266079D01*
X105060638Y-75251423D01*
X105048855Y-75235536D01*
X105038686Y-75218570D01*
X105030230Y-75200689D01*
X105023566Y-75182066D01*
X105018760Y-75162879D01*
X105015858Y-75143313D01*
X105014887Y-75123557D01*
X105014887Y-74720443D01*
X105015858Y-74700687D01*
X105018760Y-74681121D01*
X105023566Y-74661934D01*
X105030230Y-74643311D01*
X105038686Y-74625430D01*
X105048855Y-74608464D01*
X105060638Y-74592577D01*
X105073921Y-74577921D01*
X105088577Y-74564638D01*
X105104464Y-74552855D01*
X105121430Y-74542686D01*
X105139311Y-74534230D01*
X105157934Y-74527566D01*
X105177121Y-74522760D01*
X105196687Y-74519858D01*
X105216443Y-74518887D01*
X105619557Y-74518887D01*
X105639313Y-74519858D01*
G37*
G36*
X105639313Y-73519858D02*
G01*
X105658879Y-73522760D01*
X105678066Y-73527566D01*
X105696689Y-73534230D01*
X105714570Y-73542686D01*
X105731536Y-73552855D01*
X105747423Y-73564638D01*
X105762079Y-73577921D01*
X105775362Y-73592577D01*
X105787145Y-73608464D01*
X105797314Y-73625430D01*
X105805770Y-73643311D01*
X105812434Y-73661934D01*
X105817240Y-73681121D01*
X105820142Y-73700687D01*
X105821113Y-73720443D01*
X105821113Y-74123557D01*
X105820142Y-74143313D01*
X105817240Y-74162879D01*
X105812434Y-74182066D01*
X105805770Y-74200689D01*
X105797314Y-74218570D01*
X105787145Y-74235536D01*
X105775362Y-74251423D01*
X105762079Y-74266079D01*
X105747423Y-74279362D01*
X105731536Y-74291145D01*
X105714570Y-74301314D01*
X105696689Y-74309770D01*
X105678066Y-74316434D01*
X105658879Y-74321240D01*
X105639313Y-74324142D01*
X105619557Y-74325113D01*
X105216443Y-74325113D01*
X105196687Y-74324142D01*
X105177121Y-74321240D01*
X105157934Y-74316434D01*
X105139311Y-74309770D01*
X105121430Y-74301314D01*
X105104464Y-74291145D01*
X105088577Y-74279362D01*
X105073921Y-74266079D01*
X105060638Y-74251423D01*
X105048855Y-74235536D01*
X105038686Y-74218570D01*
X105030230Y-74200689D01*
X105023566Y-74182066D01*
X105018760Y-74162879D01*
X105015858Y-74143313D01*
X105014887Y-74123557D01*
X105014887Y-73720443D01*
X105015858Y-73700687D01*
X105018760Y-73681121D01*
X105023566Y-73661934D01*
X105030230Y-73643311D01*
X105038686Y-73625430D01*
X105048855Y-73608464D01*
X105060638Y-73592577D01*
X105073921Y-73577921D01*
X105088577Y-73564638D01*
X105104464Y-73552855D01*
X105121430Y-73542686D01*
X105139311Y-73534230D01*
X105157934Y-73527566D01*
X105177121Y-73522760D01*
X105196687Y-73519858D01*
X105216443Y-73518887D01*
X105619557Y-73518887D01*
X105639313Y-73519858D01*
G37*
D12*
X100076000Y-85414000D03*
X100076000Y-86614000D03*
X100076000Y-87814000D03*
D13*
X121582000Y-102270000D03*
X121582000Y-90770000D03*
X111082000Y-102270000D03*
X111082000Y-90770000D03*
D11*
G36*
X140368504Y-80862204D02*
G01*
X140392773Y-80865804D01*
X140416571Y-80871765D01*
X140439671Y-80880030D01*
X140461849Y-80890520D01*
X140482893Y-80903133D01*
X140502598Y-80917747D01*
X140520777Y-80934223D01*
X140537253Y-80952402D01*
X140551867Y-80972107D01*
X140564480Y-80993151D01*
X140574970Y-81015329D01*
X140583235Y-81038429D01*
X140589196Y-81062227D01*
X140592796Y-81086496D01*
X140594000Y-81111000D01*
X140594000Y-82211000D01*
X140592796Y-82235504D01*
X140589196Y-82259773D01*
X140583235Y-82283571D01*
X140574970Y-82306671D01*
X140564480Y-82328849D01*
X140551867Y-82349893D01*
X140537253Y-82369598D01*
X140520777Y-82387777D01*
X140502598Y-82404253D01*
X140482893Y-82418867D01*
X140461849Y-82431480D01*
X140439671Y-82441970D01*
X140416571Y-82450235D01*
X140392773Y-82456196D01*
X140368504Y-82459796D01*
X140344000Y-82461000D01*
X137344000Y-82461000D01*
X137319496Y-82459796D01*
X137295227Y-82456196D01*
X137271429Y-82450235D01*
X137248329Y-82441970D01*
X137226151Y-82431480D01*
X137205107Y-82418867D01*
X137185402Y-82404253D01*
X137167223Y-82387777D01*
X137150747Y-82369598D01*
X137136133Y-82349893D01*
X137123520Y-82328849D01*
X137113030Y-82306671D01*
X137104765Y-82283571D01*
X137098804Y-82259773D01*
X137095204Y-82235504D01*
X137094000Y-82211000D01*
X137094000Y-81111000D01*
X137095204Y-81086496D01*
X137098804Y-81062227D01*
X137104765Y-81038429D01*
X137113030Y-81015329D01*
X137123520Y-80993151D01*
X137136133Y-80972107D01*
X137150747Y-80952402D01*
X137167223Y-80934223D01*
X137185402Y-80917747D01*
X137205107Y-80903133D01*
X137226151Y-80890520D01*
X137248329Y-80880030D01*
X137271429Y-80871765D01*
X137295227Y-80865804D01*
X137319496Y-80862204D01*
X137344000Y-80861000D01*
X140344000Y-80861000D01*
X140368504Y-80862204D01*
G37*
G36*
X134968504Y-80862204D02*
G01*
X134992773Y-80865804D01*
X135016571Y-80871765D01*
X135039671Y-80880030D01*
X135061849Y-80890520D01*
X135082893Y-80903133D01*
X135102598Y-80917747D01*
X135120777Y-80934223D01*
X135137253Y-80952402D01*
X135151867Y-80972107D01*
X135164480Y-80993151D01*
X135174970Y-81015329D01*
X135183235Y-81038429D01*
X135189196Y-81062227D01*
X135192796Y-81086496D01*
X135194000Y-81111000D01*
X135194000Y-82211000D01*
X135192796Y-82235504D01*
X135189196Y-82259773D01*
X135183235Y-82283571D01*
X135174970Y-82306671D01*
X135164480Y-82328849D01*
X135151867Y-82349893D01*
X135137253Y-82369598D01*
X135120777Y-82387777D01*
X135102598Y-82404253D01*
X135082893Y-82418867D01*
X135061849Y-82431480D01*
X135039671Y-82441970D01*
X135016571Y-82450235D01*
X134992773Y-82456196D01*
X134968504Y-82459796D01*
X134944000Y-82461000D01*
X131944000Y-82461000D01*
X131919496Y-82459796D01*
X131895227Y-82456196D01*
X131871429Y-82450235D01*
X131848329Y-82441970D01*
X131826151Y-82431480D01*
X131805107Y-82418867D01*
X131785402Y-82404253D01*
X131767223Y-82387777D01*
X131750747Y-82369598D01*
X131736133Y-82349893D01*
X131723520Y-82328849D01*
X131713030Y-82306671D01*
X131704765Y-82283571D01*
X131698804Y-82259773D01*
X131695204Y-82235504D01*
X131694000Y-82211000D01*
X131694000Y-81111000D01*
X131695204Y-81086496D01*
X131698804Y-81062227D01*
X131704765Y-81038429D01*
X131713030Y-81015329D01*
X131723520Y-80993151D01*
X131736133Y-80972107D01*
X131750747Y-80952402D01*
X131767223Y-80934223D01*
X131785402Y-80917747D01*
X131805107Y-80903133D01*
X131826151Y-80890520D01*
X131848329Y-80880030D01*
X131871429Y-80871765D01*
X131895227Y-80865804D01*
X131919496Y-80862204D01*
X131944000Y-80861000D01*
X134944000Y-80861000D01*
X134968504Y-80862204D01*
G37*
G36*
X108684142Y-67410174D02*
G01*
X108707803Y-67413684D01*
X108731007Y-67419496D01*
X108753529Y-67427554D01*
X108775153Y-67437782D01*
X108795670Y-67450079D01*
X108814883Y-67464329D01*
X108832607Y-67480393D01*
X108848671Y-67498117D01*
X108862921Y-67517330D01*
X108875218Y-67537847D01*
X108885446Y-67559471D01*
X108893504Y-67581993D01*
X108899316Y-67605197D01*
X108902826Y-67628858D01*
X108904000Y-67652750D01*
X108904000Y-68140250D01*
X108902826Y-68164142D01*
X108899316Y-68187803D01*
X108893504Y-68211007D01*
X108885446Y-68233529D01*
X108875218Y-68255153D01*
X108862921Y-68275670D01*
X108848671Y-68294883D01*
X108832607Y-68312607D01*
X108814883Y-68328671D01*
X108795670Y-68342921D01*
X108775153Y-68355218D01*
X108753529Y-68365446D01*
X108731007Y-68373504D01*
X108707803Y-68379316D01*
X108684142Y-68382826D01*
X108660250Y-68384000D01*
X107747750Y-68384000D01*
X107723858Y-68382826D01*
X107700197Y-68379316D01*
X107676993Y-68373504D01*
X107654471Y-68365446D01*
X107632847Y-68355218D01*
X107612330Y-68342921D01*
X107593117Y-68328671D01*
X107575393Y-68312607D01*
X107559329Y-68294883D01*
X107545079Y-68275670D01*
X107532782Y-68255153D01*
X107522554Y-68233529D01*
X107514496Y-68211007D01*
X107508684Y-68187803D01*
X107505174Y-68164142D01*
X107504000Y-68140250D01*
X107504000Y-67652750D01*
X107505174Y-67628858D01*
X107508684Y-67605197D01*
X107514496Y-67581993D01*
X107522554Y-67559471D01*
X107532782Y-67537847D01*
X107545079Y-67517330D01*
X107559329Y-67498117D01*
X107575393Y-67480393D01*
X107593117Y-67464329D01*
X107612330Y-67450079D01*
X107632847Y-67437782D01*
X107654471Y-67427554D01*
X107676993Y-67419496D01*
X107700197Y-67413684D01*
X107723858Y-67410174D01*
X107747750Y-67409000D01*
X108660250Y-67409000D01*
X108684142Y-67410174D01*
G37*
G36*
X108684142Y-69285174D02*
G01*
X108707803Y-69288684D01*
X108731007Y-69294496D01*
X108753529Y-69302554D01*
X108775153Y-69312782D01*
X108795670Y-69325079D01*
X108814883Y-69339329D01*
X108832607Y-69355393D01*
X108848671Y-69373117D01*
X108862921Y-69392330D01*
X108875218Y-69412847D01*
X108885446Y-69434471D01*
X108893504Y-69456993D01*
X108899316Y-69480197D01*
X108902826Y-69503858D01*
X108904000Y-69527750D01*
X108904000Y-70015250D01*
X108902826Y-70039142D01*
X108899316Y-70062803D01*
X108893504Y-70086007D01*
X108885446Y-70108529D01*
X108875218Y-70130153D01*
X108862921Y-70150670D01*
X108848671Y-70169883D01*
X108832607Y-70187607D01*
X108814883Y-70203671D01*
X108795670Y-70217921D01*
X108775153Y-70230218D01*
X108753529Y-70240446D01*
X108731007Y-70248504D01*
X108707803Y-70254316D01*
X108684142Y-70257826D01*
X108660250Y-70259000D01*
X107747750Y-70259000D01*
X107723858Y-70257826D01*
X107700197Y-70254316D01*
X107676993Y-70248504D01*
X107654471Y-70240446D01*
X107632847Y-70230218D01*
X107612330Y-70217921D01*
X107593117Y-70203671D01*
X107575393Y-70187607D01*
X107559329Y-70169883D01*
X107545079Y-70150670D01*
X107532782Y-70130153D01*
X107522554Y-70108529D01*
X107514496Y-70086007D01*
X107508684Y-70062803D01*
X107505174Y-70039142D01*
X107504000Y-70015250D01*
X107504000Y-69527750D01*
X107505174Y-69503858D01*
X107508684Y-69480197D01*
X107514496Y-69456993D01*
X107522554Y-69434471D01*
X107532782Y-69412847D01*
X107545079Y-69392330D01*
X107559329Y-69373117D01*
X107575393Y-69355393D01*
X107593117Y-69339329D01*
X107612330Y-69325079D01*
X107632847Y-69312782D01*
X107654471Y-69302554D01*
X107676993Y-69294496D01*
X107700197Y-69288684D01*
X107723858Y-69285174D01*
X107747750Y-69284000D01*
X108660250Y-69284000D01*
X108684142Y-69285174D01*
G37*
G36*
X104874142Y-69285174D02*
G01*
X104897803Y-69288684D01*
X104921007Y-69294496D01*
X104943529Y-69302554D01*
X104965153Y-69312782D01*
X104985670Y-69325079D01*
X105004883Y-69339329D01*
X105022607Y-69355393D01*
X105038671Y-69373117D01*
X105052921Y-69392330D01*
X105065218Y-69412847D01*
X105075446Y-69434471D01*
X105083504Y-69456993D01*
X105089316Y-69480197D01*
X105092826Y-69503858D01*
X105094000Y-69527750D01*
X105094000Y-70015250D01*
X105092826Y-70039142D01*
X105089316Y-70062803D01*
X105083504Y-70086007D01*
X105075446Y-70108529D01*
X105065218Y-70130153D01*
X105052921Y-70150670D01*
X105038671Y-70169883D01*
X105022607Y-70187607D01*
X105004883Y-70203671D01*
X104985670Y-70217921D01*
X104965153Y-70230218D01*
X104943529Y-70240446D01*
X104921007Y-70248504D01*
X104897803Y-70254316D01*
X104874142Y-70257826D01*
X104850250Y-70259000D01*
X103937750Y-70259000D01*
X103913858Y-70257826D01*
X103890197Y-70254316D01*
X103866993Y-70248504D01*
X103844471Y-70240446D01*
X103822847Y-70230218D01*
X103802330Y-70217921D01*
X103783117Y-70203671D01*
X103765393Y-70187607D01*
X103749329Y-70169883D01*
X103735079Y-70150670D01*
X103722782Y-70130153D01*
X103712554Y-70108529D01*
X103704496Y-70086007D01*
X103698684Y-70062803D01*
X103695174Y-70039142D01*
X103694000Y-70015250D01*
X103694000Y-69527750D01*
X103695174Y-69503858D01*
X103698684Y-69480197D01*
X103704496Y-69456993D01*
X103712554Y-69434471D01*
X103722782Y-69412847D01*
X103735079Y-69392330D01*
X103749329Y-69373117D01*
X103765393Y-69355393D01*
X103783117Y-69339329D01*
X103802330Y-69325079D01*
X103822847Y-69312782D01*
X103844471Y-69302554D01*
X103866993Y-69294496D01*
X103890197Y-69288684D01*
X103913858Y-69285174D01*
X103937750Y-69284000D01*
X104850250Y-69284000D01*
X104874142Y-69285174D01*
G37*
G36*
X104874142Y-67410174D02*
G01*
X104897803Y-67413684D01*
X104921007Y-67419496D01*
X104943529Y-67427554D01*
X104965153Y-67437782D01*
X104985670Y-67450079D01*
X105004883Y-67464329D01*
X105022607Y-67480393D01*
X105038671Y-67498117D01*
X105052921Y-67517330D01*
X105065218Y-67537847D01*
X105075446Y-67559471D01*
X105083504Y-67581993D01*
X105089316Y-67605197D01*
X105092826Y-67628858D01*
X105094000Y-67652750D01*
X105094000Y-68140250D01*
X105092826Y-68164142D01*
X105089316Y-68187803D01*
X105083504Y-68211007D01*
X105075446Y-68233529D01*
X105065218Y-68255153D01*
X105052921Y-68275670D01*
X105038671Y-68294883D01*
X105022607Y-68312607D01*
X105004883Y-68328671D01*
X104985670Y-68342921D01*
X104965153Y-68355218D01*
X104943529Y-68365446D01*
X104921007Y-68373504D01*
X104897803Y-68379316D01*
X104874142Y-68382826D01*
X104850250Y-68384000D01*
X103937750Y-68384000D01*
X103913858Y-68382826D01*
X103890197Y-68379316D01*
X103866993Y-68373504D01*
X103844471Y-68365446D01*
X103822847Y-68355218D01*
X103802330Y-68342921D01*
X103783117Y-68328671D01*
X103765393Y-68312607D01*
X103749329Y-68294883D01*
X103735079Y-68275670D01*
X103722782Y-68255153D01*
X103712554Y-68233529D01*
X103704496Y-68211007D01*
X103698684Y-68187803D01*
X103695174Y-68164142D01*
X103694000Y-68140250D01*
X103694000Y-67652750D01*
X103695174Y-67628858D01*
X103698684Y-67605197D01*
X103704496Y-67581993D01*
X103712554Y-67559471D01*
X103722782Y-67537847D01*
X103735079Y-67517330D01*
X103749329Y-67498117D01*
X103765393Y-67480393D01*
X103783117Y-67464329D01*
X103802330Y-67450079D01*
X103822847Y-67437782D01*
X103844471Y-67427554D01*
X103866993Y-67419496D01*
X103890197Y-67413684D01*
X103913858Y-67410174D01*
X103937750Y-67409000D01*
X104850250Y-67409000D01*
X104874142Y-67410174D01*
G37*
G36*
X99274691Y-74202053D02*
G01*
X99295926Y-74205203D01*
X99316750Y-74210419D01*
X99336962Y-74217651D01*
X99356368Y-74226830D01*
X99374781Y-74237866D01*
X99392024Y-74250654D01*
X99407930Y-74265070D01*
X99422346Y-74280976D01*
X99435134Y-74298219D01*
X99446170Y-74316632D01*
X99455349Y-74336038D01*
X99462581Y-74356250D01*
X99467797Y-74377074D01*
X99470947Y-74398309D01*
X99472000Y-74419750D01*
X99472000Y-74932250D01*
X99470947Y-74953691D01*
X99467797Y-74974926D01*
X99462581Y-74995750D01*
X99455349Y-75015962D01*
X99446170Y-75035368D01*
X99435134Y-75053781D01*
X99422346Y-75071024D01*
X99407930Y-75086930D01*
X99392024Y-75101346D01*
X99374781Y-75114134D01*
X99356368Y-75125170D01*
X99336962Y-75134349D01*
X99316750Y-75141581D01*
X99295926Y-75146797D01*
X99274691Y-75149947D01*
X99253250Y-75151000D01*
X98815750Y-75151000D01*
X98794309Y-75149947D01*
X98773074Y-75146797D01*
X98752250Y-75141581D01*
X98732038Y-75134349D01*
X98712632Y-75125170D01*
X98694219Y-75114134D01*
X98676976Y-75101346D01*
X98661070Y-75086930D01*
X98646654Y-75071024D01*
X98633866Y-75053781D01*
X98622830Y-75035368D01*
X98613651Y-75015962D01*
X98606419Y-74995750D01*
X98601203Y-74974926D01*
X98598053Y-74953691D01*
X98597000Y-74932250D01*
X98597000Y-74419750D01*
X98598053Y-74398309D01*
X98601203Y-74377074D01*
X98606419Y-74356250D01*
X98613651Y-74336038D01*
X98622830Y-74316632D01*
X98633866Y-74298219D01*
X98646654Y-74280976D01*
X98661070Y-74265070D01*
X98676976Y-74250654D01*
X98694219Y-74237866D01*
X98712632Y-74226830D01*
X98732038Y-74217651D01*
X98752250Y-74210419D01*
X98773074Y-74205203D01*
X98794309Y-74202053D01*
X98815750Y-74201000D01*
X99253250Y-74201000D01*
X99274691Y-74202053D01*
G37*
G36*
X100849691Y-74202053D02*
G01*
X100870926Y-74205203D01*
X100891750Y-74210419D01*
X100911962Y-74217651D01*
X100931368Y-74226830D01*
X100949781Y-74237866D01*
X100967024Y-74250654D01*
X100982930Y-74265070D01*
X100997346Y-74280976D01*
X101010134Y-74298219D01*
X101021170Y-74316632D01*
X101030349Y-74336038D01*
X101037581Y-74356250D01*
X101042797Y-74377074D01*
X101045947Y-74398309D01*
X101047000Y-74419750D01*
X101047000Y-74932250D01*
X101045947Y-74953691D01*
X101042797Y-74974926D01*
X101037581Y-74995750D01*
X101030349Y-75015962D01*
X101021170Y-75035368D01*
X101010134Y-75053781D01*
X100997346Y-75071024D01*
X100982930Y-75086930D01*
X100967024Y-75101346D01*
X100949781Y-75114134D01*
X100931368Y-75125170D01*
X100911962Y-75134349D01*
X100891750Y-75141581D01*
X100870926Y-75146797D01*
X100849691Y-75149947D01*
X100828250Y-75151000D01*
X100390750Y-75151000D01*
X100369309Y-75149947D01*
X100348074Y-75146797D01*
X100327250Y-75141581D01*
X100307038Y-75134349D01*
X100287632Y-75125170D01*
X100269219Y-75114134D01*
X100251976Y-75101346D01*
X100236070Y-75086930D01*
X100221654Y-75071024D01*
X100208866Y-75053781D01*
X100197830Y-75035368D01*
X100188651Y-75015962D01*
X100181419Y-74995750D01*
X100176203Y-74974926D01*
X100173053Y-74953691D01*
X100172000Y-74932250D01*
X100172000Y-74419750D01*
X100173053Y-74398309D01*
X100176203Y-74377074D01*
X100181419Y-74356250D01*
X100188651Y-74336038D01*
X100197830Y-74316632D01*
X100208866Y-74298219D01*
X100221654Y-74280976D01*
X100236070Y-74265070D01*
X100251976Y-74250654D01*
X100269219Y-74237866D01*
X100287632Y-74226830D01*
X100307038Y-74217651D01*
X100327250Y-74210419D01*
X100348074Y-74205203D01*
X100369309Y-74202053D01*
X100390750Y-74201000D01*
X100828250Y-74201000D01*
X100849691Y-74202053D01*
G37*
G36*
X103389691Y-77885053D02*
G01*
X103410926Y-77888203D01*
X103431750Y-77893419D01*
X103451962Y-77900651D01*
X103471368Y-77909830D01*
X103489781Y-77920866D01*
X103507024Y-77933654D01*
X103522930Y-77948070D01*
X103537346Y-77963976D01*
X103550134Y-77981219D01*
X103561170Y-77999632D01*
X103570349Y-78019038D01*
X103577581Y-78039250D01*
X103582797Y-78060074D01*
X103585947Y-78081309D01*
X103587000Y-78102750D01*
X103587000Y-78615250D01*
X103585947Y-78636691D01*
X103582797Y-78657926D01*
X103577581Y-78678750D01*
X103570349Y-78698962D01*
X103561170Y-78718368D01*
X103550134Y-78736781D01*
X103537346Y-78754024D01*
X103522930Y-78769930D01*
X103507024Y-78784346D01*
X103489781Y-78797134D01*
X103471368Y-78808170D01*
X103451962Y-78817349D01*
X103431750Y-78824581D01*
X103410926Y-78829797D01*
X103389691Y-78832947D01*
X103368250Y-78834000D01*
X102930750Y-78834000D01*
X102909309Y-78832947D01*
X102888074Y-78829797D01*
X102867250Y-78824581D01*
X102847038Y-78817349D01*
X102827632Y-78808170D01*
X102809219Y-78797134D01*
X102791976Y-78784346D01*
X102776070Y-78769930D01*
X102761654Y-78754024D01*
X102748866Y-78736781D01*
X102737830Y-78718368D01*
X102728651Y-78698962D01*
X102721419Y-78678750D01*
X102716203Y-78657926D01*
X102713053Y-78636691D01*
X102712000Y-78615250D01*
X102712000Y-78102750D01*
X102713053Y-78081309D01*
X102716203Y-78060074D01*
X102721419Y-78039250D01*
X102728651Y-78019038D01*
X102737830Y-77999632D01*
X102748866Y-77981219D01*
X102761654Y-77963976D01*
X102776070Y-77948070D01*
X102791976Y-77933654D01*
X102809219Y-77920866D01*
X102827632Y-77909830D01*
X102847038Y-77900651D01*
X102867250Y-77893419D01*
X102888074Y-77888203D01*
X102909309Y-77885053D01*
X102930750Y-77884000D01*
X103368250Y-77884000D01*
X103389691Y-77885053D01*
G37*
G36*
X101814691Y-77885053D02*
G01*
X101835926Y-77888203D01*
X101856750Y-77893419D01*
X101876962Y-77900651D01*
X101896368Y-77909830D01*
X101914781Y-77920866D01*
X101932024Y-77933654D01*
X101947930Y-77948070D01*
X101962346Y-77963976D01*
X101975134Y-77981219D01*
X101986170Y-77999632D01*
X101995349Y-78019038D01*
X102002581Y-78039250D01*
X102007797Y-78060074D01*
X102010947Y-78081309D01*
X102012000Y-78102750D01*
X102012000Y-78615250D01*
X102010947Y-78636691D01*
X102007797Y-78657926D01*
X102002581Y-78678750D01*
X101995349Y-78698962D01*
X101986170Y-78718368D01*
X101975134Y-78736781D01*
X101962346Y-78754024D01*
X101947930Y-78769930D01*
X101932024Y-78784346D01*
X101914781Y-78797134D01*
X101896368Y-78808170D01*
X101876962Y-78817349D01*
X101856750Y-78824581D01*
X101835926Y-78829797D01*
X101814691Y-78832947D01*
X101793250Y-78834000D01*
X101355750Y-78834000D01*
X101334309Y-78832947D01*
X101313074Y-78829797D01*
X101292250Y-78824581D01*
X101272038Y-78817349D01*
X101252632Y-78808170D01*
X101234219Y-78797134D01*
X101216976Y-78784346D01*
X101201070Y-78769930D01*
X101186654Y-78754024D01*
X101173866Y-78736781D01*
X101162830Y-78718368D01*
X101153651Y-78698962D01*
X101146419Y-78678750D01*
X101141203Y-78657926D01*
X101138053Y-78636691D01*
X101137000Y-78615250D01*
X101137000Y-78102750D01*
X101138053Y-78081309D01*
X101141203Y-78060074D01*
X101146419Y-78039250D01*
X101153651Y-78019038D01*
X101162830Y-77999632D01*
X101173866Y-77981219D01*
X101186654Y-77963976D01*
X101201070Y-77948070D01*
X101216976Y-77933654D01*
X101234219Y-77920866D01*
X101252632Y-77909830D01*
X101272038Y-77900651D01*
X101292250Y-77893419D01*
X101313074Y-77888203D01*
X101334309Y-77885053D01*
X101355750Y-77884000D01*
X101793250Y-77884000D01*
X101814691Y-77885053D01*
G37*
G36*
X102893691Y-69693053D02*
G01*
X102914926Y-69696203D01*
X102935750Y-69701419D01*
X102955962Y-69708651D01*
X102975368Y-69717830D01*
X102993781Y-69728866D01*
X103011024Y-69741654D01*
X103026930Y-69756070D01*
X103041346Y-69771976D01*
X103054134Y-69789219D01*
X103065170Y-69807632D01*
X103074349Y-69827038D01*
X103081581Y-69847250D01*
X103086797Y-69868074D01*
X103089947Y-69889309D01*
X103091000Y-69910750D01*
X103091000Y-70348250D01*
X103089947Y-70369691D01*
X103086797Y-70390926D01*
X103081581Y-70411750D01*
X103074349Y-70431962D01*
X103065170Y-70451368D01*
X103054134Y-70469781D01*
X103041346Y-70487024D01*
X103026930Y-70502930D01*
X103011024Y-70517346D01*
X102993781Y-70530134D01*
X102975368Y-70541170D01*
X102955962Y-70550349D01*
X102935750Y-70557581D01*
X102914926Y-70562797D01*
X102893691Y-70565947D01*
X102872250Y-70567000D01*
X102359750Y-70567000D01*
X102338309Y-70565947D01*
X102317074Y-70562797D01*
X102296250Y-70557581D01*
X102276038Y-70550349D01*
X102256632Y-70541170D01*
X102238219Y-70530134D01*
X102220976Y-70517346D01*
X102205070Y-70502930D01*
X102190654Y-70487024D01*
X102177866Y-70469781D01*
X102166830Y-70451368D01*
X102157651Y-70431962D01*
X102150419Y-70411750D01*
X102145203Y-70390926D01*
X102142053Y-70369691D01*
X102141000Y-70348250D01*
X102141000Y-69910750D01*
X102142053Y-69889309D01*
X102145203Y-69868074D01*
X102150419Y-69847250D01*
X102157651Y-69827038D01*
X102166830Y-69807632D01*
X102177866Y-69789219D01*
X102190654Y-69771976D01*
X102205070Y-69756070D01*
X102220976Y-69741654D01*
X102238219Y-69728866D01*
X102256632Y-69717830D01*
X102276038Y-69708651D01*
X102296250Y-69701419D01*
X102317074Y-69696203D01*
X102338309Y-69693053D01*
X102359750Y-69692000D01*
X102872250Y-69692000D01*
X102893691Y-69693053D01*
G37*
G36*
X102893691Y-68118053D02*
G01*
X102914926Y-68121203D01*
X102935750Y-68126419D01*
X102955962Y-68133651D01*
X102975368Y-68142830D01*
X102993781Y-68153866D01*
X103011024Y-68166654D01*
X103026930Y-68181070D01*
X103041346Y-68196976D01*
X103054134Y-68214219D01*
X103065170Y-68232632D01*
X103074349Y-68252038D01*
X103081581Y-68272250D01*
X103086797Y-68293074D01*
X103089947Y-68314309D01*
X103091000Y-68335750D01*
X103091000Y-68773250D01*
X103089947Y-68794691D01*
X103086797Y-68815926D01*
X103081581Y-68836750D01*
X103074349Y-68856962D01*
X103065170Y-68876368D01*
X103054134Y-68894781D01*
X103041346Y-68912024D01*
X103026930Y-68927930D01*
X103011024Y-68942346D01*
X102993781Y-68955134D01*
X102975368Y-68966170D01*
X102955962Y-68975349D01*
X102935750Y-68982581D01*
X102914926Y-68987797D01*
X102893691Y-68990947D01*
X102872250Y-68992000D01*
X102359750Y-68992000D01*
X102338309Y-68990947D01*
X102317074Y-68987797D01*
X102296250Y-68982581D01*
X102276038Y-68975349D01*
X102256632Y-68966170D01*
X102238219Y-68955134D01*
X102220976Y-68942346D01*
X102205070Y-68927930D01*
X102190654Y-68912024D01*
X102177866Y-68894781D01*
X102166830Y-68876368D01*
X102157651Y-68856962D01*
X102150419Y-68836750D01*
X102145203Y-68815926D01*
X102142053Y-68794691D01*
X102141000Y-68773250D01*
X102141000Y-68335750D01*
X102142053Y-68314309D01*
X102145203Y-68293074D01*
X102150419Y-68272250D01*
X102157651Y-68252038D01*
X102166830Y-68232632D01*
X102177866Y-68214219D01*
X102190654Y-68196976D01*
X102205070Y-68181070D01*
X102220976Y-68166654D01*
X102238219Y-68153866D01*
X102256632Y-68142830D01*
X102276038Y-68133651D01*
X102296250Y-68126419D01*
X102317074Y-68121203D01*
X102338309Y-68118053D01*
X102359750Y-68117000D01*
X102872250Y-68117000D01*
X102893691Y-68118053D01*
G37*
G36*
X99845691Y-70963053D02*
G01*
X99866926Y-70966203D01*
X99887750Y-70971419D01*
X99907962Y-70978651D01*
X99927368Y-70987830D01*
X99945781Y-70998866D01*
X99963024Y-71011654D01*
X99978930Y-71026070D01*
X99993346Y-71041976D01*
X100006134Y-71059219D01*
X100017170Y-71077632D01*
X100026349Y-71097038D01*
X100033581Y-71117250D01*
X100038797Y-71138074D01*
X100041947Y-71159309D01*
X100043000Y-71180750D01*
X100043000Y-71618250D01*
X100041947Y-71639691D01*
X100038797Y-71660926D01*
X100033581Y-71681750D01*
X100026349Y-71701962D01*
X100017170Y-71721368D01*
X100006134Y-71739781D01*
X99993346Y-71757024D01*
X99978930Y-71772930D01*
X99963024Y-71787346D01*
X99945781Y-71800134D01*
X99927368Y-71811170D01*
X99907962Y-71820349D01*
X99887750Y-71827581D01*
X99866926Y-71832797D01*
X99845691Y-71835947D01*
X99824250Y-71837000D01*
X99311750Y-71837000D01*
X99290309Y-71835947D01*
X99269074Y-71832797D01*
X99248250Y-71827581D01*
X99228038Y-71820349D01*
X99208632Y-71811170D01*
X99190219Y-71800134D01*
X99172976Y-71787346D01*
X99157070Y-71772930D01*
X99142654Y-71757024D01*
X99129866Y-71739781D01*
X99118830Y-71721368D01*
X99109651Y-71701962D01*
X99102419Y-71681750D01*
X99097203Y-71660926D01*
X99094053Y-71639691D01*
X99093000Y-71618250D01*
X99093000Y-71180750D01*
X99094053Y-71159309D01*
X99097203Y-71138074D01*
X99102419Y-71117250D01*
X99109651Y-71097038D01*
X99118830Y-71077632D01*
X99129866Y-71059219D01*
X99142654Y-71041976D01*
X99157070Y-71026070D01*
X99172976Y-71011654D01*
X99190219Y-70998866D01*
X99208632Y-70987830D01*
X99228038Y-70978651D01*
X99248250Y-70971419D01*
X99269074Y-70966203D01*
X99290309Y-70963053D01*
X99311750Y-70962000D01*
X99824250Y-70962000D01*
X99845691Y-70963053D01*
G37*
G36*
X99845691Y-69388053D02*
G01*
X99866926Y-69391203D01*
X99887750Y-69396419D01*
X99907962Y-69403651D01*
X99927368Y-69412830D01*
X99945781Y-69423866D01*
X99963024Y-69436654D01*
X99978930Y-69451070D01*
X99993346Y-69466976D01*
X100006134Y-69484219D01*
X100017170Y-69502632D01*
X100026349Y-69522038D01*
X100033581Y-69542250D01*
X100038797Y-69563074D01*
X100041947Y-69584309D01*
X100043000Y-69605750D01*
X100043000Y-70043250D01*
X100041947Y-70064691D01*
X100038797Y-70085926D01*
X100033581Y-70106750D01*
X100026349Y-70126962D01*
X100017170Y-70146368D01*
X100006134Y-70164781D01*
X99993346Y-70182024D01*
X99978930Y-70197930D01*
X99963024Y-70212346D01*
X99945781Y-70225134D01*
X99927368Y-70236170D01*
X99907962Y-70245349D01*
X99887750Y-70252581D01*
X99866926Y-70257797D01*
X99845691Y-70260947D01*
X99824250Y-70262000D01*
X99311750Y-70262000D01*
X99290309Y-70260947D01*
X99269074Y-70257797D01*
X99248250Y-70252581D01*
X99228038Y-70245349D01*
X99208632Y-70236170D01*
X99190219Y-70225134D01*
X99172976Y-70212346D01*
X99157070Y-70197930D01*
X99142654Y-70182024D01*
X99129866Y-70164781D01*
X99118830Y-70146368D01*
X99109651Y-70126962D01*
X99102419Y-70106750D01*
X99097203Y-70085926D01*
X99094053Y-70064691D01*
X99093000Y-70043250D01*
X99093000Y-69605750D01*
X99094053Y-69584309D01*
X99097203Y-69563074D01*
X99102419Y-69542250D01*
X99109651Y-69522038D01*
X99118830Y-69502632D01*
X99129866Y-69484219D01*
X99142654Y-69466976D01*
X99157070Y-69451070D01*
X99172976Y-69436654D01*
X99190219Y-69423866D01*
X99208632Y-69412830D01*
X99228038Y-69403651D01*
X99248250Y-69396419D01*
X99269074Y-69391203D01*
X99290309Y-69388053D01*
X99311750Y-69387000D01*
X99824250Y-69387000D01*
X99845691Y-69388053D01*
G37*
G36*
X89597191Y-70392053D02*
G01*
X89618426Y-70395203D01*
X89639250Y-70400419D01*
X89659462Y-70407651D01*
X89678868Y-70416830D01*
X89697281Y-70427866D01*
X89714524Y-70440654D01*
X89730430Y-70455070D01*
X89744846Y-70470976D01*
X89757634Y-70488219D01*
X89768670Y-70506632D01*
X89777849Y-70526038D01*
X89785081Y-70546250D01*
X89790297Y-70567074D01*
X89793447Y-70588309D01*
X89794500Y-70609750D01*
X89794500Y-71122250D01*
X89793447Y-71143691D01*
X89790297Y-71164926D01*
X89785081Y-71185750D01*
X89777849Y-71205962D01*
X89768670Y-71225368D01*
X89757634Y-71243781D01*
X89744846Y-71261024D01*
X89730430Y-71276930D01*
X89714524Y-71291346D01*
X89697281Y-71304134D01*
X89678868Y-71315170D01*
X89659462Y-71324349D01*
X89639250Y-71331581D01*
X89618426Y-71336797D01*
X89597191Y-71339947D01*
X89575750Y-71341000D01*
X89138250Y-71341000D01*
X89116809Y-71339947D01*
X89095574Y-71336797D01*
X89074750Y-71331581D01*
X89054538Y-71324349D01*
X89035132Y-71315170D01*
X89016719Y-71304134D01*
X88999476Y-71291346D01*
X88983570Y-71276930D01*
X88969154Y-71261024D01*
X88956366Y-71243781D01*
X88945330Y-71225368D01*
X88936151Y-71205962D01*
X88928919Y-71185750D01*
X88923703Y-71164926D01*
X88920553Y-71143691D01*
X88919500Y-71122250D01*
X88919500Y-70609750D01*
X88920553Y-70588309D01*
X88923703Y-70567074D01*
X88928919Y-70546250D01*
X88936151Y-70526038D01*
X88945330Y-70506632D01*
X88956366Y-70488219D01*
X88969154Y-70470976D01*
X88983570Y-70455070D01*
X88999476Y-70440654D01*
X89016719Y-70427866D01*
X89035132Y-70416830D01*
X89054538Y-70407651D01*
X89074750Y-70400419D01*
X89095574Y-70395203D01*
X89116809Y-70392053D01*
X89138250Y-70391000D01*
X89575750Y-70391000D01*
X89597191Y-70392053D01*
G37*
G36*
X91172191Y-70392053D02*
G01*
X91193426Y-70395203D01*
X91214250Y-70400419D01*
X91234462Y-70407651D01*
X91253868Y-70416830D01*
X91272281Y-70427866D01*
X91289524Y-70440654D01*
X91305430Y-70455070D01*
X91319846Y-70470976D01*
X91332634Y-70488219D01*
X91343670Y-70506632D01*
X91352849Y-70526038D01*
X91360081Y-70546250D01*
X91365297Y-70567074D01*
X91368447Y-70588309D01*
X91369500Y-70609750D01*
X91369500Y-71122250D01*
X91368447Y-71143691D01*
X91365297Y-71164926D01*
X91360081Y-71185750D01*
X91352849Y-71205962D01*
X91343670Y-71225368D01*
X91332634Y-71243781D01*
X91319846Y-71261024D01*
X91305430Y-71276930D01*
X91289524Y-71291346D01*
X91272281Y-71304134D01*
X91253868Y-71315170D01*
X91234462Y-71324349D01*
X91214250Y-71331581D01*
X91193426Y-71336797D01*
X91172191Y-71339947D01*
X91150750Y-71341000D01*
X90713250Y-71341000D01*
X90691809Y-71339947D01*
X90670574Y-71336797D01*
X90649750Y-71331581D01*
X90629538Y-71324349D01*
X90610132Y-71315170D01*
X90591719Y-71304134D01*
X90574476Y-71291346D01*
X90558570Y-71276930D01*
X90544154Y-71261024D01*
X90531366Y-71243781D01*
X90520330Y-71225368D01*
X90511151Y-71205962D01*
X90503919Y-71185750D01*
X90498703Y-71164926D01*
X90495553Y-71143691D01*
X90494500Y-71122250D01*
X90494500Y-70609750D01*
X90495553Y-70588309D01*
X90498703Y-70567074D01*
X90503919Y-70546250D01*
X90511151Y-70526038D01*
X90520330Y-70506632D01*
X90531366Y-70488219D01*
X90544154Y-70470976D01*
X90558570Y-70455070D01*
X90574476Y-70440654D01*
X90591719Y-70427866D01*
X90610132Y-70416830D01*
X90629538Y-70407651D01*
X90649750Y-70400419D01*
X90670574Y-70395203D01*
X90691809Y-70392053D01*
X90713250Y-70391000D01*
X91150750Y-70391000D01*
X91172191Y-70392053D01*
G37*
G36*
X94779191Y-70392053D02*
G01*
X94800426Y-70395203D01*
X94821250Y-70400419D01*
X94841462Y-70407651D01*
X94860868Y-70416830D01*
X94879281Y-70427866D01*
X94896524Y-70440654D01*
X94912430Y-70455070D01*
X94926846Y-70470976D01*
X94939634Y-70488219D01*
X94950670Y-70506632D01*
X94959849Y-70526038D01*
X94967081Y-70546250D01*
X94972297Y-70567074D01*
X94975447Y-70588309D01*
X94976500Y-70609750D01*
X94976500Y-71122250D01*
X94975447Y-71143691D01*
X94972297Y-71164926D01*
X94967081Y-71185750D01*
X94959849Y-71205962D01*
X94950670Y-71225368D01*
X94939634Y-71243781D01*
X94926846Y-71261024D01*
X94912430Y-71276930D01*
X94896524Y-71291346D01*
X94879281Y-71304134D01*
X94860868Y-71315170D01*
X94841462Y-71324349D01*
X94821250Y-71331581D01*
X94800426Y-71336797D01*
X94779191Y-71339947D01*
X94757750Y-71341000D01*
X94320250Y-71341000D01*
X94298809Y-71339947D01*
X94277574Y-71336797D01*
X94256750Y-71331581D01*
X94236538Y-71324349D01*
X94217132Y-71315170D01*
X94198719Y-71304134D01*
X94181476Y-71291346D01*
X94165570Y-71276930D01*
X94151154Y-71261024D01*
X94138366Y-71243781D01*
X94127330Y-71225368D01*
X94118151Y-71205962D01*
X94110919Y-71185750D01*
X94105703Y-71164926D01*
X94102553Y-71143691D01*
X94101500Y-71122250D01*
X94101500Y-70609750D01*
X94102553Y-70588309D01*
X94105703Y-70567074D01*
X94110919Y-70546250D01*
X94118151Y-70526038D01*
X94127330Y-70506632D01*
X94138366Y-70488219D01*
X94151154Y-70470976D01*
X94165570Y-70455070D01*
X94181476Y-70440654D01*
X94198719Y-70427866D01*
X94217132Y-70416830D01*
X94236538Y-70407651D01*
X94256750Y-70400419D01*
X94277574Y-70395203D01*
X94298809Y-70392053D01*
X94320250Y-70391000D01*
X94757750Y-70391000D01*
X94779191Y-70392053D01*
G37*
G36*
X93204191Y-70392053D02*
G01*
X93225426Y-70395203D01*
X93246250Y-70400419D01*
X93266462Y-70407651D01*
X93285868Y-70416830D01*
X93304281Y-70427866D01*
X93321524Y-70440654D01*
X93337430Y-70455070D01*
X93351846Y-70470976D01*
X93364634Y-70488219D01*
X93375670Y-70506632D01*
X93384849Y-70526038D01*
X93392081Y-70546250D01*
X93397297Y-70567074D01*
X93400447Y-70588309D01*
X93401500Y-70609750D01*
X93401500Y-71122250D01*
X93400447Y-71143691D01*
X93397297Y-71164926D01*
X93392081Y-71185750D01*
X93384849Y-71205962D01*
X93375670Y-71225368D01*
X93364634Y-71243781D01*
X93351846Y-71261024D01*
X93337430Y-71276930D01*
X93321524Y-71291346D01*
X93304281Y-71304134D01*
X93285868Y-71315170D01*
X93266462Y-71324349D01*
X93246250Y-71331581D01*
X93225426Y-71336797D01*
X93204191Y-71339947D01*
X93182750Y-71341000D01*
X92745250Y-71341000D01*
X92723809Y-71339947D01*
X92702574Y-71336797D01*
X92681750Y-71331581D01*
X92661538Y-71324349D01*
X92642132Y-71315170D01*
X92623719Y-71304134D01*
X92606476Y-71291346D01*
X92590570Y-71276930D01*
X92576154Y-71261024D01*
X92563366Y-71243781D01*
X92552330Y-71225368D01*
X92543151Y-71205962D01*
X92535919Y-71185750D01*
X92530703Y-71164926D01*
X92527553Y-71143691D01*
X92526500Y-71122250D01*
X92526500Y-70609750D01*
X92527553Y-70588309D01*
X92530703Y-70567074D01*
X92535919Y-70546250D01*
X92543151Y-70526038D01*
X92552330Y-70506632D01*
X92563366Y-70488219D01*
X92576154Y-70470976D01*
X92590570Y-70455070D01*
X92606476Y-70440654D01*
X92623719Y-70427866D01*
X92642132Y-70416830D01*
X92661538Y-70407651D01*
X92681750Y-70400419D01*
X92702574Y-70395203D01*
X92723809Y-70392053D01*
X92745250Y-70391000D01*
X93182750Y-70391000D01*
X93204191Y-70392053D01*
G37*
G36*
X129563691Y-88692053D02*
G01*
X129584926Y-88695203D01*
X129605750Y-88700419D01*
X129625962Y-88707651D01*
X129645368Y-88716830D01*
X129663781Y-88727866D01*
X129681024Y-88740654D01*
X129696930Y-88755070D01*
X129711346Y-88770976D01*
X129724134Y-88788219D01*
X129735170Y-88806632D01*
X129744349Y-88826038D01*
X129751581Y-88846250D01*
X129756797Y-88867074D01*
X129759947Y-88888309D01*
X129761000Y-88909750D01*
X129761000Y-89347250D01*
X129759947Y-89368691D01*
X129756797Y-89389926D01*
X129751581Y-89410750D01*
X129744349Y-89430962D01*
X129735170Y-89450368D01*
X129724134Y-89468781D01*
X129711346Y-89486024D01*
X129696930Y-89501930D01*
X129681024Y-89516346D01*
X129663781Y-89529134D01*
X129645368Y-89540170D01*
X129625962Y-89549349D01*
X129605750Y-89556581D01*
X129584926Y-89561797D01*
X129563691Y-89564947D01*
X129542250Y-89566000D01*
X129029750Y-89566000D01*
X129008309Y-89564947D01*
X128987074Y-89561797D01*
X128966250Y-89556581D01*
X128946038Y-89549349D01*
X128926632Y-89540170D01*
X128908219Y-89529134D01*
X128890976Y-89516346D01*
X128875070Y-89501930D01*
X128860654Y-89486024D01*
X128847866Y-89468781D01*
X128836830Y-89450368D01*
X128827651Y-89430962D01*
X128820419Y-89410750D01*
X128815203Y-89389926D01*
X128812053Y-89368691D01*
X128811000Y-89347250D01*
X128811000Y-88909750D01*
X128812053Y-88888309D01*
X128815203Y-88867074D01*
X128820419Y-88846250D01*
X128827651Y-88826038D01*
X128836830Y-88806632D01*
X128847866Y-88788219D01*
X128860654Y-88770976D01*
X128875070Y-88755070D01*
X128890976Y-88740654D01*
X128908219Y-88727866D01*
X128926632Y-88716830D01*
X128946038Y-88707651D01*
X128966250Y-88700419D01*
X128987074Y-88695203D01*
X129008309Y-88692053D01*
X129029750Y-88691000D01*
X129542250Y-88691000D01*
X129563691Y-88692053D01*
G37*
G36*
X129563691Y-90267053D02*
G01*
X129584926Y-90270203D01*
X129605750Y-90275419D01*
X129625962Y-90282651D01*
X129645368Y-90291830D01*
X129663781Y-90302866D01*
X129681024Y-90315654D01*
X129696930Y-90330070D01*
X129711346Y-90345976D01*
X129724134Y-90363219D01*
X129735170Y-90381632D01*
X129744349Y-90401038D01*
X129751581Y-90421250D01*
X129756797Y-90442074D01*
X129759947Y-90463309D01*
X129761000Y-90484750D01*
X129761000Y-90922250D01*
X129759947Y-90943691D01*
X129756797Y-90964926D01*
X129751581Y-90985750D01*
X129744349Y-91005962D01*
X129735170Y-91025368D01*
X129724134Y-91043781D01*
X129711346Y-91061024D01*
X129696930Y-91076930D01*
X129681024Y-91091346D01*
X129663781Y-91104134D01*
X129645368Y-91115170D01*
X129625962Y-91124349D01*
X129605750Y-91131581D01*
X129584926Y-91136797D01*
X129563691Y-91139947D01*
X129542250Y-91141000D01*
X129029750Y-91141000D01*
X129008309Y-91139947D01*
X128987074Y-91136797D01*
X128966250Y-91131581D01*
X128946038Y-91124349D01*
X128926632Y-91115170D01*
X128908219Y-91104134D01*
X128890976Y-91091346D01*
X128875070Y-91076930D01*
X128860654Y-91061024D01*
X128847866Y-91043781D01*
X128836830Y-91025368D01*
X128827651Y-91005962D01*
X128820419Y-90985750D01*
X128815203Y-90964926D01*
X128812053Y-90943691D01*
X128811000Y-90922250D01*
X128811000Y-90484750D01*
X128812053Y-90463309D01*
X128815203Y-90442074D01*
X128820419Y-90421250D01*
X128827651Y-90401038D01*
X128836830Y-90381632D01*
X128847866Y-90363219D01*
X128860654Y-90345976D01*
X128875070Y-90330070D01*
X128890976Y-90315654D01*
X128908219Y-90302866D01*
X128926632Y-90291830D01*
X128946038Y-90282651D01*
X128966250Y-90275419D01*
X128987074Y-90270203D01*
X129008309Y-90267053D01*
X129029750Y-90266000D01*
X129542250Y-90266000D01*
X129563691Y-90267053D01*
G37*
G36*
X132103691Y-88692053D02*
G01*
X132124926Y-88695203D01*
X132145750Y-88700419D01*
X132165962Y-88707651D01*
X132185368Y-88716830D01*
X132203781Y-88727866D01*
X132221024Y-88740654D01*
X132236930Y-88755070D01*
X132251346Y-88770976D01*
X132264134Y-88788219D01*
X132275170Y-88806632D01*
X132284349Y-88826038D01*
X132291581Y-88846250D01*
X132296797Y-88867074D01*
X132299947Y-88888309D01*
X132301000Y-88909750D01*
X132301000Y-89347250D01*
X132299947Y-89368691D01*
X132296797Y-89389926D01*
X132291581Y-89410750D01*
X132284349Y-89430962D01*
X132275170Y-89450368D01*
X132264134Y-89468781D01*
X132251346Y-89486024D01*
X132236930Y-89501930D01*
X132221024Y-89516346D01*
X132203781Y-89529134D01*
X132185368Y-89540170D01*
X132165962Y-89549349D01*
X132145750Y-89556581D01*
X132124926Y-89561797D01*
X132103691Y-89564947D01*
X132082250Y-89566000D01*
X131569750Y-89566000D01*
X131548309Y-89564947D01*
X131527074Y-89561797D01*
X131506250Y-89556581D01*
X131486038Y-89549349D01*
X131466632Y-89540170D01*
X131448219Y-89529134D01*
X131430976Y-89516346D01*
X131415070Y-89501930D01*
X131400654Y-89486024D01*
X131387866Y-89468781D01*
X131376830Y-89450368D01*
X131367651Y-89430962D01*
X131360419Y-89410750D01*
X131355203Y-89389926D01*
X131352053Y-89368691D01*
X131351000Y-89347250D01*
X131351000Y-88909750D01*
X131352053Y-88888309D01*
X131355203Y-88867074D01*
X131360419Y-88846250D01*
X131367651Y-88826038D01*
X131376830Y-88806632D01*
X131387866Y-88788219D01*
X131400654Y-88770976D01*
X131415070Y-88755070D01*
X131430976Y-88740654D01*
X131448219Y-88727866D01*
X131466632Y-88716830D01*
X131486038Y-88707651D01*
X131506250Y-88700419D01*
X131527074Y-88695203D01*
X131548309Y-88692053D01*
X131569750Y-88691000D01*
X132082250Y-88691000D01*
X132103691Y-88692053D01*
G37*
G36*
X132103691Y-90267053D02*
G01*
X132124926Y-90270203D01*
X132145750Y-90275419D01*
X132165962Y-90282651D01*
X132185368Y-90291830D01*
X132203781Y-90302866D01*
X132221024Y-90315654D01*
X132236930Y-90330070D01*
X132251346Y-90345976D01*
X132264134Y-90363219D01*
X132275170Y-90381632D01*
X132284349Y-90401038D01*
X132291581Y-90421250D01*
X132296797Y-90442074D01*
X132299947Y-90463309D01*
X132301000Y-90484750D01*
X132301000Y-90922250D01*
X132299947Y-90943691D01*
X132296797Y-90964926D01*
X132291581Y-90985750D01*
X132284349Y-91005962D01*
X132275170Y-91025368D01*
X132264134Y-91043781D01*
X132251346Y-91061024D01*
X132236930Y-91076930D01*
X132221024Y-91091346D01*
X132203781Y-91104134D01*
X132185368Y-91115170D01*
X132165962Y-91124349D01*
X132145750Y-91131581D01*
X132124926Y-91136797D01*
X132103691Y-91139947D01*
X132082250Y-91141000D01*
X131569750Y-91141000D01*
X131548309Y-91139947D01*
X131527074Y-91136797D01*
X131506250Y-91131581D01*
X131486038Y-91124349D01*
X131466632Y-91115170D01*
X131448219Y-91104134D01*
X131430976Y-91091346D01*
X131415070Y-91076930D01*
X131400654Y-91061024D01*
X131387866Y-91043781D01*
X131376830Y-91025368D01*
X131367651Y-91005962D01*
X131360419Y-90985750D01*
X131355203Y-90964926D01*
X131352053Y-90943691D01*
X131351000Y-90922250D01*
X131351000Y-90484750D01*
X131352053Y-90463309D01*
X131355203Y-90442074D01*
X131360419Y-90421250D01*
X131367651Y-90401038D01*
X131376830Y-90381632D01*
X131387866Y-90363219D01*
X131400654Y-90345976D01*
X131415070Y-90330070D01*
X131430976Y-90315654D01*
X131448219Y-90302866D01*
X131466632Y-90291830D01*
X131486038Y-90282651D01*
X131506250Y-90275419D01*
X131527074Y-90270203D01*
X131548309Y-90267053D01*
X131569750Y-90266000D01*
X132082250Y-90266000D01*
X132103691Y-90267053D01*
G37*
G36*
X91731191Y-88934053D02*
G01*
X91752426Y-88937203D01*
X91773250Y-88942419D01*
X91793462Y-88949651D01*
X91812868Y-88958830D01*
X91831281Y-88969866D01*
X91848524Y-88982654D01*
X91864430Y-88997070D01*
X91878846Y-89012976D01*
X91891634Y-89030219D01*
X91902670Y-89048632D01*
X91911849Y-89068038D01*
X91919081Y-89088250D01*
X91924297Y-89109074D01*
X91927447Y-89130309D01*
X91928500Y-89151750D01*
X91928500Y-89664250D01*
X91927447Y-89685691D01*
X91924297Y-89706926D01*
X91919081Y-89727750D01*
X91911849Y-89747962D01*
X91902670Y-89767368D01*
X91891634Y-89785781D01*
X91878846Y-89803024D01*
X91864430Y-89818930D01*
X91848524Y-89833346D01*
X91831281Y-89846134D01*
X91812868Y-89857170D01*
X91793462Y-89866349D01*
X91773250Y-89873581D01*
X91752426Y-89878797D01*
X91731191Y-89881947D01*
X91709750Y-89883000D01*
X91272250Y-89883000D01*
X91250809Y-89881947D01*
X91229574Y-89878797D01*
X91208750Y-89873581D01*
X91188538Y-89866349D01*
X91169132Y-89857170D01*
X91150719Y-89846134D01*
X91133476Y-89833346D01*
X91117570Y-89818930D01*
X91103154Y-89803024D01*
X91090366Y-89785781D01*
X91079330Y-89767368D01*
X91070151Y-89747962D01*
X91062919Y-89727750D01*
X91057703Y-89706926D01*
X91054553Y-89685691D01*
X91053500Y-89664250D01*
X91053500Y-89151750D01*
X91054553Y-89130309D01*
X91057703Y-89109074D01*
X91062919Y-89088250D01*
X91070151Y-89068038D01*
X91079330Y-89048632D01*
X91090366Y-89030219D01*
X91103154Y-89012976D01*
X91117570Y-88997070D01*
X91133476Y-88982654D01*
X91150719Y-88969866D01*
X91169132Y-88958830D01*
X91188538Y-88949651D01*
X91208750Y-88942419D01*
X91229574Y-88937203D01*
X91250809Y-88934053D01*
X91272250Y-88933000D01*
X91709750Y-88933000D01*
X91731191Y-88934053D01*
G37*
G36*
X90156191Y-88934053D02*
G01*
X90177426Y-88937203D01*
X90198250Y-88942419D01*
X90218462Y-88949651D01*
X90237868Y-88958830D01*
X90256281Y-88969866D01*
X90273524Y-88982654D01*
X90289430Y-88997070D01*
X90303846Y-89012976D01*
X90316634Y-89030219D01*
X90327670Y-89048632D01*
X90336849Y-89068038D01*
X90344081Y-89088250D01*
X90349297Y-89109074D01*
X90352447Y-89130309D01*
X90353500Y-89151750D01*
X90353500Y-89664250D01*
X90352447Y-89685691D01*
X90349297Y-89706926D01*
X90344081Y-89727750D01*
X90336849Y-89747962D01*
X90327670Y-89767368D01*
X90316634Y-89785781D01*
X90303846Y-89803024D01*
X90289430Y-89818930D01*
X90273524Y-89833346D01*
X90256281Y-89846134D01*
X90237868Y-89857170D01*
X90218462Y-89866349D01*
X90198250Y-89873581D01*
X90177426Y-89878797D01*
X90156191Y-89881947D01*
X90134750Y-89883000D01*
X89697250Y-89883000D01*
X89675809Y-89881947D01*
X89654574Y-89878797D01*
X89633750Y-89873581D01*
X89613538Y-89866349D01*
X89594132Y-89857170D01*
X89575719Y-89846134D01*
X89558476Y-89833346D01*
X89542570Y-89818930D01*
X89528154Y-89803024D01*
X89515366Y-89785781D01*
X89504330Y-89767368D01*
X89495151Y-89747962D01*
X89487919Y-89727750D01*
X89482703Y-89706926D01*
X89479553Y-89685691D01*
X89478500Y-89664250D01*
X89478500Y-89151750D01*
X89479553Y-89130309D01*
X89482703Y-89109074D01*
X89487919Y-89088250D01*
X89495151Y-89068038D01*
X89504330Y-89048632D01*
X89515366Y-89030219D01*
X89528154Y-89012976D01*
X89542570Y-88997070D01*
X89558476Y-88982654D01*
X89575719Y-88969866D01*
X89594132Y-88958830D01*
X89613538Y-88949651D01*
X89633750Y-88942419D01*
X89654574Y-88937203D01*
X89675809Y-88934053D01*
X89697250Y-88933000D01*
X90134750Y-88933000D01*
X90156191Y-88934053D01*
G37*
G36*
X97801691Y-104428053D02*
G01*
X97822926Y-104431203D01*
X97843750Y-104436419D01*
X97863962Y-104443651D01*
X97883368Y-104452830D01*
X97901781Y-104463866D01*
X97919024Y-104476654D01*
X97934930Y-104491070D01*
X97949346Y-104506976D01*
X97962134Y-104524219D01*
X97973170Y-104542632D01*
X97982349Y-104562038D01*
X97989581Y-104582250D01*
X97994797Y-104603074D01*
X97997947Y-104624309D01*
X97999000Y-104645750D01*
X97999000Y-105158250D01*
X97997947Y-105179691D01*
X97994797Y-105200926D01*
X97989581Y-105221750D01*
X97982349Y-105241962D01*
X97973170Y-105261368D01*
X97962134Y-105279781D01*
X97949346Y-105297024D01*
X97934930Y-105312930D01*
X97919024Y-105327346D01*
X97901781Y-105340134D01*
X97883368Y-105351170D01*
X97863962Y-105360349D01*
X97843750Y-105367581D01*
X97822926Y-105372797D01*
X97801691Y-105375947D01*
X97780250Y-105377000D01*
X97342750Y-105377000D01*
X97321309Y-105375947D01*
X97300074Y-105372797D01*
X97279250Y-105367581D01*
X97259038Y-105360349D01*
X97239632Y-105351170D01*
X97221219Y-105340134D01*
X97203976Y-105327346D01*
X97188070Y-105312930D01*
X97173654Y-105297024D01*
X97160866Y-105279781D01*
X97149830Y-105261368D01*
X97140651Y-105241962D01*
X97133419Y-105221750D01*
X97128203Y-105200926D01*
X97125053Y-105179691D01*
X97124000Y-105158250D01*
X97124000Y-104645750D01*
X97125053Y-104624309D01*
X97128203Y-104603074D01*
X97133419Y-104582250D01*
X97140651Y-104562038D01*
X97149830Y-104542632D01*
X97160866Y-104524219D01*
X97173654Y-104506976D01*
X97188070Y-104491070D01*
X97203976Y-104476654D01*
X97221219Y-104463866D01*
X97239632Y-104452830D01*
X97259038Y-104443651D01*
X97279250Y-104436419D01*
X97300074Y-104431203D01*
X97321309Y-104428053D01*
X97342750Y-104427000D01*
X97780250Y-104427000D01*
X97801691Y-104428053D01*
G37*
G36*
X96226691Y-104428053D02*
G01*
X96247926Y-104431203D01*
X96268750Y-104436419D01*
X96288962Y-104443651D01*
X96308368Y-104452830D01*
X96326781Y-104463866D01*
X96344024Y-104476654D01*
X96359930Y-104491070D01*
X96374346Y-104506976D01*
X96387134Y-104524219D01*
X96398170Y-104542632D01*
X96407349Y-104562038D01*
X96414581Y-104582250D01*
X96419797Y-104603074D01*
X96422947Y-104624309D01*
X96424000Y-104645750D01*
X96424000Y-105158250D01*
X96422947Y-105179691D01*
X96419797Y-105200926D01*
X96414581Y-105221750D01*
X96407349Y-105241962D01*
X96398170Y-105261368D01*
X96387134Y-105279781D01*
X96374346Y-105297024D01*
X96359930Y-105312930D01*
X96344024Y-105327346D01*
X96326781Y-105340134D01*
X96308368Y-105351170D01*
X96288962Y-105360349D01*
X96268750Y-105367581D01*
X96247926Y-105372797D01*
X96226691Y-105375947D01*
X96205250Y-105377000D01*
X95767750Y-105377000D01*
X95746309Y-105375947D01*
X95725074Y-105372797D01*
X95704250Y-105367581D01*
X95684038Y-105360349D01*
X95664632Y-105351170D01*
X95646219Y-105340134D01*
X95628976Y-105327346D01*
X95613070Y-105312930D01*
X95598654Y-105297024D01*
X95585866Y-105279781D01*
X95574830Y-105261368D01*
X95565651Y-105241962D01*
X95558419Y-105221750D01*
X95553203Y-105200926D01*
X95550053Y-105179691D01*
X95549000Y-105158250D01*
X95549000Y-104645750D01*
X95550053Y-104624309D01*
X95553203Y-104603074D01*
X95558419Y-104582250D01*
X95565651Y-104562038D01*
X95574830Y-104542632D01*
X95585866Y-104524219D01*
X95598654Y-104506976D01*
X95613070Y-104491070D01*
X95628976Y-104476654D01*
X95646219Y-104463866D01*
X95664632Y-104452830D01*
X95684038Y-104443651D01*
X95704250Y-104436419D01*
X95725074Y-104431203D01*
X95746309Y-104428053D01*
X95767750Y-104427000D01*
X96205250Y-104427000D01*
X96226691Y-104428053D01*
G37*
D14*
X106108000Y-102220000D03*
X105308000Y-102220000D03*
X104508000Y-102220000D03*
X103708000Y-102220000D03*
X102908000Y-102220000D03*
X102108000Y-102220000D03*
X101308000Y-102220000D03*
X100508000Y-102220000D03*
X99708000Y-102220000D03*
X98908000Y-102220000D03*
X98108000Y-102220000D03*
D15*
X96408000Y-100520000D03*
X96408000Y-99720000D03*
X96408000Y-98920000D03*
X96408000Y-98120000D03*
X96408000Y-97320000D03*
X96408000Y-96520000D03*
X96408000Y-95720000D03*
X96408000Y-94920000D03*
X96408000Y-94120000D03*
X96408000Y-93320000D03*
X96408000Y-92520000D03*
D14*
X98108000Y-90820000D03*
X98908000Y-90820000D03*
X99708000Y-90820000D03*
X100508000Y-90820000D03*
X101308000Y-90820000D03*
X102108000Y-90820000D03*
X102908000Y-90820000D03*
X103708000Y-90820000D03*
X104508000Y-90820000D03*
X105308000Y-90820000D03*
X106108000Y-90820000D03*
D15*
X107808000Y-92520000D03*
X107808000Y-93320000D03*
X107808000Y-94120000D03*
X107808000Y-94920000D03*
X107808000Y-95720000D03*
X107808000Y-96520000D03*
X107808000Y-97320000D03*
X107808000Y-98120000D03*
X107808000Y-98920000D03*
X107808000Y-99720000D03*
X107808000Y-100520000D03*
D16*
X92362000Y-97170000D03*
X92362000Y-96520000D03*
X92362000Y-97820000D03*
X92362000Y-95870000D03*
X92362000Y-95220000D03*
D17*
X114062000Y-69856000D03*
D18*
X116967000Y-80181000D03*
X118237000Y-80181000D03*
X119507000Y-80181000D03*
X120777000Y-80181000D03*
X125857000Y-80181000D03*
X124587000Y-80181000D03*
X123317000Y-80181000D03*
D17*
X128762000Y-69856000D03*
D18*
X122047000Y-80181000D03*
M02*
