G04 #@! TF.GenerationSoftware,KiCad,Pcbnew,(5.99.0-11678-ga208dac8d8)*
G04 #@! TF.CreationDate,2021-09-02T09:18:58-04:00*
G04 #@! TF.ProjectId,syringe_board,73797269-6e67-4655-9f62-6f6172642e6b,4.5*
G04 #@! TF.SameCoordinates,Original*
G04 #@! TF.FileFunction,Legend,Top*
G04 #@! TF.FilePolarity,Positive*
%FSLAX46Y46*%
G04 Gerber Fmt 4.6, Leading zero omitted, Abs format (unit mm)*
G04 Created by KiCad (PCBNEW (5.99.0-11678-ga208dac8d8)) date 2021-09-02 09:18:58*
%MOMM*%
%LPD*%
G01*
G04 APERTURE LIST*
%ADD10C,0.120000*%
%ADD11C,0.300000*%
%ADD12C,0.050000*%
%ADD13C,0.150000*%
G04 APERTURE END LIST*
D10*
X137900000Y-79600000D02*
X137900000Y-79100000D01*
X147800000Y-79000000D02*
G75*
G03*
X147800000Y-79000000I-400000J0D01*
G01*
X146600000Y-79000000D02*
G75*
G03*
X146600000Y-79000000I-400000J0D01*
G01*
X150500000Y-79000000D02*
X150500000Y-79600000D01*
X147000000Y-79000000D02*
G75*
G03*
X147000000Y-79000000I-400000J0D01*
G01*
X145400000Y-79000000D02*
X145400000Y-79600000D01*
X147400000Y-79000000D02*
G75*
G03*
X147400000Y-79000000I-400000J0D01*
G01*
X146200000Y-79000000D02*
G75*
G03*
X146200000Y-79000000I-400000J0D01*
G01*
X138300000Y-78800000D02*
X137500000Y-78800000D01*
X137300000Y-79100000D02*
X138500000Y-79100000D01*
X151700000Y-79000000D02*
G75*
G03*
X151700000Y-79000000I-400000J0D01*
G01*
X153300000Y-79000000D02*
G75*
G03*
X153300000Y-79000000I-400000J0D01*
G01*
X151300000Y-79000000D02*
G75*
G03*
X151300000Y-79000000I-400000J0D01*
G01*
X153300000Y-79000000D02*
X153300000Y-79600000D01*
X148200000Y-79000000D02*
G75*
G03*
X148200000Y-79000000I-400000J0D01*
G01*
X152900000Y-79000000D02*
G75*
G03*
X152900000Y-79000000I-400000J0D01*
G01*
X137800000Y-78500000D02*
X138000000Y-78500000D01*
X148200000Y-79000000D02*
X148200000Y-79600000D01*
X152100000Y-79000000D02*
G75*
G03*
X152100000Y-79000000I-400000J0D01*
G01*
X152500000Y-79000000D02*
G75*
G03*
X152500000Y-79000000I-400000J0D01*
G01*
D11*
X131357142Y-72178571D02*
X131047619Y-71311904D01*
X130738095Y-72178571D01*
X129685714Y-72178571D02*
X129685714Y-71311904D01*
X129995238Y-72673809D02*
X130304761Y-71745238D01*
X129500000Y-71745238D01*
X129004761Y-71435714D02*
X128942857Y-71373809D01*
X129004761Y-71311904D01*
X129066666Y-71373809D01*
X129004761Y-71435714D01*
X129004761Y-71311904D01*
X127766666Y-72611904D02*
X128385714Y-72611904D01*
X128447619Y-71992857D01*
X128385714Y-72054761D01*
X128261904Y-72116666D01*
X127952380Y-72116666D01*
X127828571Y-72054761D01*
X127766666Y-71992857D01*
X127704761Y-71869047D01*
X127704761Y-71559523D01*
X127766666Y-71435714D01*
X127828571Y-71373809D01*
X127952380Y-71311904D01*
X128261904Y-71311904D01*
X128385714Y-71373809D01*
X128447619Y-71435714D01*
D12*
X167985128Y-88270590D02*
X168294652Y-88270590D01*
X168127985Y-88461066D01*
X168199414Y-88461066D01*
X168247033Y-88484876D01*
X168270842Y-88508685D01*
X168294652Y-88556304D01*
X168294652Y-88675352D01*
X168270842Y-88722971D01*
X168247033Y-88746780D01*
X168199414Y-88770590D01*
X168056557Y-88770590D01*
X168008938Y-88746780D01*
X167985128Y-88722971D01*
X168437509Y-88270590D02*
X168604176Y-88770590D01*
X168770842Y-88270590D01*
X168040652Y-86973600D02*
X167993033Y-86949790D01*
X167921604Y-86949790D01*
X167850176Y-86973600D01*
X167802557Y-87021219D01*
X167778747Y-87068838D01*
X167754938Y-87164076D01*
X167754938Y-87235504D01*
X167778747Y-87330742D01*
X167802557Y-87378361D01*
X167850176Y-87425980D01*
X167921604Y-87449790D01*
X167969223Y-87449790D01*
X168040652Y-87425980D01*
X168064461Y-87402171D01*
X168064461Y-87235504D01*
X167969223Y-87235504D01*
X168278747Y-87449790D02*
X168278747Y-86949790D01*
X168564461Y-87449790D01*
X168564461Y-86949790D01*
X168802557Y-87449790D02*
X168802557Y-86949790D01*
X168921604Y-86949790D01*
X168993033Y-86973600D01*
X169040652Y-87021219D01*
X169064461Y-87068838D01*
X169088271Y-87164076D01*
X169088271Y-87235504D01*
X169064461Y-87330742D01*
X169040652Y-87378361D01*
X168993033Y-87425980D01*
X168921604Y-87449790D01*
X168802557Y-87449790D01*
X162869047Y-87425980D02*
X162940476Y-87449790D01*
X163059523Y-87449790D01*
X163107142Y-87425980D01*
X163130952Y-87402171D01*
X163154761Y-87354552D01*
X163154761Y-87306933D01*
X163130952Y-87259314D01*
X163107142Y-87235504D01*
X163059523Y-87211695D01*
X162964285Y-87187885D01*
X162916666Y-87164076D01*
X162892857Y-87140266D01*
X162869047Y-87092647D01*
X162869047Y-87045028D01*
X162892857Y-86997409D01*
X162916666Y-86973600D01*
X162964285Y-86949790D01*
X163083333Y-86949790D01*
X163154761Y-86973600D01*
X163321428Y-86949790D02*
X163440476Y-87449790D01*
X163535714Y-87092647D01*
X163630952Y-87449790D01*
X163750000Y-86949790D01*
X164226190Y-87402171D02*
X164202380Y-87425980D01*
X164130952Y-87449790D01*
X164083333Y-87449790D01*
X164011904Y-87425980D01*
X163964285Y-87378361D01*
X163940476Y-87330742D01*
X163916666Y-87235504D01*
X163916666Y-87164076D01*
X163940476Y-87068838D01*
X163964285Y-87021219D01*
X164011904Y-86973600D01*
X164083333Y-86949790D01*
X164130952Y-86949790D01*
X164202380Y-86973600D01*
X164226190Y-86997409D01*
X164678571Y-87449790D02*
X164440476Y-87449790D01*
X164440476Y-86949790D01*
X164845238Y-87449790D02*
X164845238Y-86949790D01*
X165130952Y-87449790D02*
X164916666Y-87164076D01*
X165130952Y-86949790D02*
X164845238Y-87235504D01*
D13*
X140566666Y-78547619D02*
X141042857Y-78547619D01*
X141042857Y-79547619D01*
X140280952Y-79452380D02*
X140233333Y-79500000D01*
X140138095Y-79547619D01*
X139900000Y-79547619D01*
X139804761Y-79500000D01*
X139757142Y-79452380D01*
X139709523Y-79357142D01*
X139709523Y-79261904D01*
X139757142Y-79119047D01*
X140328571Y-78547619D01*
X139709523Y-78547619D01*
D12*
X162940476Y-88802380D02*
X163011904Y-88826190D01*
X163130952Y-88826190D01*
X163178571Y-88802380D01*
X163202380Y-88778571D01*
X163226190Y-88730952D01*
X163226190Y-88683333D01*
X163202380Y-88635714D01*
X163178571Y-88611904D01*
X163130952Y-88588095D01*
X163035714Y-88564285D01*
X162988095Y-88540476D01*
X162964285Y-88516666D01*
X162940476Y-88469047D01*
X162940476Y-88421428D01*
X162964285Y-88373809D01*
X162988095Y-88350000D01*
X163035714Y-88326190D01*
X163154761Y-88326190D01*
X163226190Y-88350000D01*
X163392857Y-88326190D02*
X163511904Y-88826190D01*
X163607142Y-88469047D01*
X163702380Y-88826190D01*
X163821428Y-88326190D01*
X164011904Y-88826190D02*
X164011904Y-88326190D01*
X164130952Y-88326190D01*
X164202380Y-88350000D01*
X164250000Y-88397619D01*
X164273809Y-88445238D01*
X164297619Y-88540476D01*
X164297619Y-88611904D01*
X164273809Y-88707142D01*
X164250000Y-88754761D01*
X164202380Y-88802380D01*
X164130952Y-88826190D01*
X164011904Y-88826190D01*
X164511904Y-88826190D02*
X164511904Y-88326190D01*
X164845238Y-88326190D02*
X164940476Y-88326190D01*
X164988095Y-88350000D01*
X165035714Y-88397619D01*
X165059523Y-88492857D01*
X165059523Y-88659523D01*
X165035714Y-88754761D01*
X164988095Y-88802380D01*
X164940476Y-88826190D01*
X164845238Y-88826190D01*
X164797619Y-88802380D01*
X164750000Y-88754761D01*
X164726190Y-88659523D01*
X164726190Y-88492857D01*
X164750000Y-88397619D01*
X164797619Y-88350000D01*
X164845238Y-88326190D01*
D13*
X143166666Y-78547619D02*
X143642857Y-78547619D01*
X143642857Y-79547619D01*
X142309523Y-78547619D02*
X142880952Y-78547619D01*
X142595238Y-78547619D02*
X142595238Y-79547619D01*
X142690476Y-79404761D01*
X142785714Y-79309523D01*
X142880952Y-79261904D01*
D12*
X168064461Y-86179790D02*
X167897795Y-85941695D01*
X167778747Y-86179790D02*
X167778747Y-85679790D01*
X167969223Y-85679790D01*
X168016842Y-85703600D01*
X168040652Y-85727409D01*
X168064461Y-85775028D01*
X168064461Y-85846457D01*
X168040652Y-85894076D01*
X168016842Y-85917885D01*
X167969223Y-85941695D01*
X167778747Y-85941695D01*
X168254938Y-86155980D02*
X168326366Y-86179790D01*
X168445414Y-86179790D01*
X168493033Y-86155980D01*
X168516842Y-86132171D01*
X168540652Y-86084552D01*
X168540652Y-86036933D01*
X168516842Y-85989314D01*
X168493033Y-85965504D01*
X168445414Y-85941695D01*
X168350176Y-85917885D01*
X168302557Y-85894076D01*
X168278747Y-85870266D01*
X168254938Y-85822647D01*
X168254938Y-85775028D01*
X168278747Y-85727409D01*
X168302557Y-85703600D01*
X168350176Y-85679790D01*
X168469223Y-85679790D01*
X168540652Y-85703600D01*
X168683509Y-85679790D02*
X168969223Y-85679790D01*
X168826366Y-86179790D02*
X168826366Y-85679790D01*
D13*
X113202380Y-101663096D02*
X113202380Y-101044048D01*
X113583333Y-101377381D01*
X113583333Y-101234524D01*
X113630952Y-101139286D01*
X113678571Y-101091667D01*
X113773809Y-101044048D01*
X114011904Y-101044048D01*
X114107142Y-101091667D01*
X114154761Y-101139286D01*
X114202380Y-101234524D01*
X114202380Y-101520239D01*
X114154761Y-101615477D01*
X114107142Y-101663096D01*
X113297619Y-100663096D02*
X113250000Y-100615477D01*
X113202380Y-100520239D01*
X113202380Y-100282143D01*
X113250000Y-100186905D01*
X113297619Y-100139286D01*
X113392857Y-100091667D01*
X113488095Y-100091667D01*
X113630952Y-100139286D01*
X114202380Y-100710715D01*
X114202380Y-100091667D01*
X114107142Y-99663096D02*
X114154761Y-99615477D01*
X114202380Y-99663096D01*
X114154761Y-99710715D01*
X114107142Y-99663096D01*
X114202380Y-99663096D01*
X113202380Y-99282143D02*
X113202380Y-98663096D01*
X113583333Y-98996429D01*
X113583333Y-98853572D01*
X113630952Y-98758334D01*
X113678571Y-98710715D01*
X113773809Y-98663096D01*
X114011904Y-98663096D01*
X114107142Y-98710715D01*
X114154761Y-98758334D01*
X114202380Y-98853572D01*
X114202380Y-99139286D01*
X114154761Y-99234524D01*
X114107142Y-99282143D01*
X114202380Y-97472620D02*
X113535714Y-97472620D01*
X113630952Y-97472620D02*
X113583333Y-97425001D01*
X113535714Y-97329762D01*
X113535714Y-97186905D01*
X113583333Y-97091667D01*
X113678571Y-97044048D01*
X114202380Y-97044048D01*
X113678571Y-97044048D02*
X113583333Y-96996429D01*
X113535714Y-96901191D01*
X113535714Y-96758334D01*
X113583333Y-96663096D01*
X113678571Y-96615477D01*
X114202380Y-96615477D01*
X114202380Y-96139286D02*
X113535714Y-96139286D01*
X113630952Y-96139286D02*
X113583333Y-96091667D01*
X113535714Y-95996429D01*
X113535714Y-95853572D01*
X113583333Y-95758334D01*
X113678571Y-95710715D01*
X114202380Y-95710715D01*
X113678571Y-95710715D02*
X113583333Y-95663096D01*
X113535714Y-95567858D01*
X113535714Y-95425001D01*
X113583333Y-95329762D01*
X113678571Y-95282143D01*
X114202380Y-95282143D01*
D10*
X116500000Y-82296000D02*
X113163580Y-82296000D01*
X116500000Y-114554002D02*
X113163580Y-114554002D01*
X113750000Y-82296000D02*
X113750000Y-94469048D01*
X113750000Y-102380953D02*
X113750000Y-114554002D01*
X113750000Y-82296000D02*
X113163579Y-83422504D01*
X113750000Y-82296000D02*
X114336421Y-83422504D01*
X113750000Y-114554002D02*
X114336421Y-113427498D01*
X113750000Y-114554002D02*
X113163579Y-113427498D01*
D13*
X139335214Y-65785714D02*
X139335214Y-66452380D01*
X139097119Y-65404761D02*
X138859023Y-66119047D01*
X139478071Y-66119047D01*
X139906642Y-66452380D02*
X140097119Y-66452380D01*
X140192357Y-66404761D01*
X140239976Y-66357142D01*
X140335214Y-66214285D01*
X140382833Y-66023809D01*
X140382833Y-65642857D01*
X140335214Y-65547619D01*
X140287595Y-65500000D01*
X140192357Y-65452380D01*
X140001880Y-65452380D01*
X139906642Y-65500000D01*
X139859023Y-65547619D01*
X139811404Y-65642857D01*
X139811404Y-65880952D01*
X139859023Y-65976190D01*
X139906642Y-66023809D01*
X140001880Y-66071428D01*
X140192357Y-66071428D01*
X140287595Y-66023809D01*
X140335214Y-65976190D01*
X140382833Y-65880952D01*
X140811404Y-66357142D02*
X140859023Y-66404761D01*
X140811404Y-66452380D01*
X140763785Y-66404761D01*
X140811404Y-66357142D01*
X140811404Y-66452380D01*
X141335214Y-66452380D02*
X141525690Y-66452380D01*
X141620928Y-66404761D01*
X141668547Y-66357142D01*
X141763785Y-66214285D01*
X141811404Y-66023809D01*
X141811404Y-65642857D01*
X141763785Y-65547619D01*
X141716166Y-65500000D01*
X141620928Y-65452380D01*
X141430452Y-65452380D01*
X141335214Y-65500000D01*
X141287595Y-65547619D01*
X141239976Y-65642857D01*
X141239976Y-65880952D01*
X141287595Y-65976190D01*
X141335214Y-66023809D01*
X141430452Y-66071428D01*
X141620928Y-66071428D01*
X141716166Y-66023809D01*
X141763785Y-65976190D01*
X141811404Y-65880952D01*
X143001880Y-66452380D02*
X143001880Y-65785714D01*
X143001880Y-65880952D02*
X143049500Y-65833333D01*
X143144738Y-65785714D01*
X143287595Y-65785714D01*
X143382833Y-65833333D01*
X143430452Y-65928571D01*
X143430452Y-66452380D01*
X143430452Y-65928571D02*
X143478071Y-65833333D01*
X143573309Y-65785714D01*
X143716166Y-65785714D01*
X143811404Y-65833333D01*
X143859023Y-65928571D01*
X143859023Y-66452380D01*
X144335214Y-66452380D02*
X144335214Y-65785714D01*
X144335214Y-65880952D02*
X144382833Y-65833333D01*
X144478071Y-65785714D01*
X144620928Y-65785714D01*
X144716166Y-65833333D01*
X144763785Y-65928571D01*
X144763785Y-66452380D01*
X144763785Y-65928571D02*
X144811404Y-65833333D01*
X144906642Y-65785714D01*
X145049500Y-65785714D01*
X145144738Y-65833333D01*
X145192357Y-65928571D01*
X145192357Y-66452380D01*
D10*
X117094000Y-71787000D02*
X117094000Y-65413580D01*
X167005000Y-65413580D02*
X167005000Y-71787000D01*
X117094000Y-66000000D02*
X138093548Y-66000000D01*
X146005453Y-66000000D02*
X167005000Y-66000000D01*
X117094000Y-66000000D02*
X118220504Y-66586421D01*
X117094000Y-66000000D02*
X118220504Y-65413579D01*
X167005000Y-66000000D02*
X165878496Y-65413579D01*
X167005000Y-66000000D02*
X165878496Y-66586421D01*
D13*
X139833333Y-116452380D02*
X139357142Y-116452380D01*
X139309523Y-116928571D01*
X139357142Y-116880952D01*
X139452380Y-116833333D01*
X139690476Y-116833333D01*
X139785714Y-116880952D01*
X139833333Y-116928571D01*
X139880952Y-117023809D01*
X139880952Y-117261904D01*
X139833333Y-117357142D01*
X139785714Y-117404761D01*
X139690476Y-117452380D01*
X139452380Y-117452380D01*
X139357142Y-117404761D01*
X139309523Y-117357142D01*
X140214285Y-116452380D02*
X140833333Y-116452380D01*
X140500000Y-116833333D01*
X140642857Y-116833333D01*
X140738095Y-116880952D01*
X140785714Y-116928571D01*
X140833333Y-117023809D01*
X140833333Y-117261904D01*
X140785714Y-117357142D01*
X140738095Y-117404761D01*
X140642857Y-117452380D01*
X140357142Y-117452380D01*
X140261904Y-117404761D01*
X140214285Y-117357142D01*
X141261904Y-117357142D02*
X141309523Y-117404761D01*
X141261904Y-117452380D01*
X141214285Y-117404761D01*
X141261904Y-117357142D01*
X141261904Y-117452380D01*
X142166666Y-116452380D02*
X141976190Y-116452380D01*
X141880952Y-116500000D01*
X141833333Y-116547619D01*
X141738095Y-116690476D01*
X141690476Y-116880952D01*
X141690476Y-117261904D01*
X141738095Y-117357142D01*
X141785714Y-117404761D01*
X141880952Y-117452380D01*
X142071428Y-117452380D01*
X142166666Y-117404761D01*
X142214285Y-117357142D01*
X142261904Y-117261904D01*
X142261904Y-117023809D01*
X142214285Y-116928571D01*
X142166666Y-116880952D01*
X142071428Y-116833333D01*
X141880952Y-116833333D01*
X141785714Y-116880952D01*
X141738095Y-116928571D01*
X141690476Y-117023809D01*
X143452380Y-117452380D02*
X143452380Y-116785714D01*
X143452380Y-116880952D02*
X143500000Y-116833333D01*
X143595238Y-116785714D01*
X143738095Y-116785714D01*
X143833333Y-116833333D01*
X143880952Y-116928571D01*
X143880952Y-117452380D01*
X143880952Y-116928571D02*
X143928571Y-116833333D01*
X144023809Y-116785714D01*
X144166666Y-116785714D01*
X144261904Y-116833333D01*
X144309523Y-116928571D01*
X144309523Y-117452380D01*
X144785714Y-117452380D02*
X144785714Y-116785714D01*
X144785714Y-116880952D02*
X144833333Y-116833333D01*
X144928571Y-116785714D01*
X145071428Y-116785714D01*
X145166666Y-116833333D01*
X145214285Y-116928571D01*
X145214285Y-117452380D01*
X145214285Y-116928571D02*
X145261904Y-116833333D01*
X145357142Y-116785714D01*
X145500000Y-116785714D01*
X145595238Y-116833333D01*
X145642857Y-116928571D01*
X145642857Y-117452380D01*
D10*
X169291002Y-113500000D02*
X169291002Y-117586420D01*
X115714000Y-117586420D02*
X115714000Y-113500000D01*
X169291002Y-117000000D02*
X146455953Y-117000000D01*
X138544048Y-117000000D02*
X115714000Y-117000000D01*
X169291002Y-117000000D02*
X168164498Y-116413579D01*
X169291002Y-117000000D02*
X168164498Y-117586421D01*
X115714000Y-117000000D02*
X116840504Y-117586421D01*
X115714000Y-117000000D02*
X116840504Y-116413579D01*
D13*
X173230952Y-89696379D02*
X172659523Y-89696379D01*
X172945238Y-89696379D02*
X172945238Y-88696379D01*
X172850000Y-88839237D01*
X172754761Y-88934475D01*
X172659523Y-88982094D01*
X173564285Y-88696379D02*
X174183333Y-88696379D01*
X173850000Y-89077332D01*
X173992857Y-89077332D01*
X174088095Y-89124951D01*
X174135714Y-89172570D01*
X174183333Y-89267808D01*
X174183333Y-89505903D01*
X174135714Y-89601141D01*
X174088095Y-89648760D01*
X173992857Y-89696379D01*
X173707142Y-89696379D01*
X173611904Y-89648760D01*
X173564285Y-89601141D01*
X174611904Y-89601141D02*
X174659523Y-89648760D01*
X174611904Y-89696379D01*
X174564285Y-89648760D01*
X174611904Y-89601141D01*
X174611904Y-89696379D01*
X175135714Y-89696379D02*
X175326190Y-89696379D01*
X175421428Y-89648760D01*
X175469047Y-89601141D01*
X175564285Y-89458284D01*
X175611904Y-89267808D01*
X175611904Y-88886856D01*
X175564285Y-88791618D01*
X175516666Y-88743999D01*
X175421428Y-88696379D01*
X175230952Y-88696379D01*
X175135714Y-88743999D01*
X175088095Y-88791618D01*
X175040476Y-88886856D01*
X175040476Y-89124951D01*
X175088095Y-89220189D01*
X175135714Y-89267808D01*
X175230952Y-89315427D01*
X175421428Y-89315427D01*
X175516666Y-89267808D01*
X175564285Y-89220189D01*
X175611904Y-89124951D01*
X176802380Y-89696379D02*
X176802380Y-89029713D01*
X176802380Y-89124951D02*
X176850000Y-89077332D01*
X176945238Y-89029713D01*
X177088095Y-89029713D01*
X177183333Y-89077332D01*
X177230952Y-89172570D01*
X177230952Y-89696379D01*
X177230952Y-89172570D02*
X177278571Y-89077332D01*
X177373809Y-89029713D01*
X177516666Y-89029713D01*
X177611904Y-89077332D01*
X177659523Y-89172570D01*
X177659523Y-89696379D01*
X178135714Y-89696379D02*
X178135714Y-89029713D01*
X178135714Y-89124951D02*
X178183333Y-89077332D01*
X178278571Y-89029713D01*
X178421428Y-89029713D01*
X178516666Y-89077332D01*
X178564285Y-89172570D01*
X178564285Y-89696379D01*
X178564285Y-89172570D02*
X178611904Y-89077332D01*
X178707142Y-89029713D01*
X178850000Y-89029713D01*
X178945238Y-89077332D01*
X178992857Y-89172570D01*
X178992857Y-89696379D01*
D10*
X176208000Y-96192000D02*
X177586420Y-96192000D01*
X177586420Y-82295998D02*
X168500000Y-82295998D01*
X177000000Y-96192000D02*
X177000000Y-90423999D01*
X177000000Y-88063999D02*
X177000000Y-82295998D01*
X177000000Y-96192000D02*
X177586421Y-95065496D01*
X177000000Y-96192000D02*
X176413579Y-95065496D01*
X177000000Y-82295998D02*
X176413579Y-83422502D01*
X177000000Y-82295998D02*
X177586421Y-83422502D01*
D13*
X113630952Y-77846810D02*
X113583333Y-77942048D01*
X113535714Y-77989667D01*
X113440476Y-78037286D01*
X113392857Y-78037286D01*
X113297619Y-77989667D01*
X113250000Y-77942048D01*
X113202380Y-77846810D01*
X113202380Y-77656334D01*
X113250000Y-77561096D01*
X113297619Y-77513477D01*
X113392857Y-77465858D01*
X113440476Y-77465858D01*
X113535714Y-77513477D01*
X113583333Y-77561096D01*
X113630952Y-77656334D01*
X113630952Y-77846810D01*
X113678571Y-77942048D01*
X113726190Y-77989667D01*
X113821428Y-78037286D01*
X114011904Y-78037286D01*
X114107142Y-77989667D01*
X114154761Y-77942048D01*
X114202380Y-77846810D01*
X114202380Y-77656334D01*
X114154761Y-77561096D01*
X114107142Y-77513477D01*
X114011904Y-77465858D01*
X113821428Y-77465858D01*
X113726190Y-77513477D01*
X113678571Y-77561096D01*
X113630952Y-77656334D01*
X114107142Y-77037286D02*
X114154761Y-76989667D01*
X114202380Y-77037286D01*
X114154761Y-77084905D01*
X114107142Y-77037286D01*
X114202380Y-77037286D01*
X114202380Y-76513477D02*
X114202380Y-76323001D01*
X114154761Y-76227762D01*
X114107142Y-76180143D01*
X113964285Y-76084905D01*
X113773809Y-76037286D01*
X113392857Y-76037286D01*
X113297619Y-76084905D01*
X113250000Y-76132524D01*
X113202380Y-76227762D01*
X113202380Y-76418239D01*
X113250000Y-76513477D01*
X113297619Y-76561096D01*
X113392857Y-76608715D01*
X113630952Y-76608715D01*
X113726190Y-76561096D01*
X113773809Y-76513477D01*
X113821428Y-76418239D01*
X113821428Y-76227762D01*
X113773809Y-76132524D01*
X113726190Y-76084905D01*
X113630952Y-76037286D01*
X114202380Y-74846810D02*
X113535714Y-74846810D01*
X113630952Y-74846810D02*
X113583333Y-74799191D01*
X113535714Y-74703953D01*
X113535714Y-74561096D01*
X113583333Y-74465858D01*
X113678571Y-74418239D01*
X114202380Y-74418239D01*
X113678571Y-74418239D02*
X113583333Y-74370620D01*
X113535714Y-74275381D01*
X113535714Y-74132524D01*
X113583333Y-74037286D01*
X113678571Y-73989667D01*
X114202380Y-73989667D01*
X114202380Y-73513477D02*
X113535714Y-73513477D01*
X113630952Y-73513477D02*
X113583333Y-73465858D01*
X113535714Y-73370620D01*
X113535714Y-73227762D01*
X113583333Y-73132524D01*
X113678571Y-73084905D01*
X114202380Y-73084905D01*
X113678571Y-73084905D02*
X113583333Y-73037286D01*
X113535714Y-72942048D01*
X113535714Y-72799191D01*
X113583333Y-72703953D01*
X113678571Y-72656334D01*
X114202380Y-72656334D01*
D10*
X117991000Y-79756000D02*
X113163580Y-79756000D01*
X113163580Y-70890002D02*
X117990998Y-70890002D01*
X113750000Y-79756000D02*
X113750000Y-78802763D01*
X113750000Y-71843239D02*
X113750000Y-70890002D01*
X113750000Y-79756000D02*
X114336421Y-78629496D01*
X113750000Y-79756000D02*
X113163579Y-78629496D01*
X113750000Y-70890002D02*
X113163579Y-72016506D01*
X113750000Y-70890002D02*
X114336421Y-72016506D01*
D13*
X140955733Y-96108780D02*
X140622400Y-95632590D01*
X140384304Y-96108780D02*
X140384304Y-95108780D01*
X140765257Y-95108780D01*
X140860495Y-95156400D01*
X140908114Y-95204019D01*
X140955733Y-95299257D01*
X140955733Y-95442114D01*
X140908114Y-95537352D01*
X140860495Y-95584971D01*
X140765257Y-95632590D01*
X140384304Y-95632590D01*
X141908114Y-96108780D02*
X141336685Y-96108780D01*
X141622400Y-96108780D02*
X141622400Y-95108780D01*
X141527161Y-95251638D01*
X141431923Y-95346876D01*
X141336685Y-95394495D01*
X156313142Y-108886666D02*
X156360761Y-108934285D01*
X156408380Y-109077142D01*
X156408380Y-109172380D01*
X156360761Y-109315238D01*
X156265523Y-109410476D01*
X156170285Y-109458095D01*
X155979809Y-109505714D01*
X155836952Y-109505714D01*
X155646476Y-109458095D01*
X155551238Y-109410476D01*
X155456000Y-109315238D01*
X155408380Y-109172380D01*
X155408380Y-109077142D01*
X155456000Y-108934285D01*
X155503619Y-108886666D01*
X155408380Y-108553333D02*
X155408380Y-107886666D01*
X156408380Y-108315238D01*
X147118342Y-100547466D02*
X147165961Y-100595085D01*
X147213580Y-100737942D01*
X147213580Y-100833180D01*
X147165961Y-100976038D01*
X147070723Y-101071276D01*
X146975485Y-101118895D01*
X146785009Y-101166514D01*
X146642152Y-101166514D01*
X146451676Y-101118895D01*
X146356438Y-101071276D01*
X146261200Y-100976038D01*
X146213580Y-100833180D01*
X146213580Y-100737942D01*
X146261200Y-100595085D01*
X146308819Y-100547466D01*
X146213580Y-99642704D02*
X146213580Y-100118895D01*
X146689771Y-100166514D01*
X146642152Y-100118895D01*
X146594533Y-100023657D01*
X146594533Y-99785561D01*
X146642152Y-99690323D01*
X146689771Y-99642704D01*
X146785009Y-99595085D01*
X147023104Y-99595085D01*
X147118342Y-99642704D01*
X147165961Y-99690323D01*
X147213580Y-99785561D01*
X147213580Y-100023657D01*
X147165961Y-100118895D01*
X147118342Y-100166514D01*
X153333333Y-109352380D02*
X153000000Y-108876190D01*
X152761904Y-109352380D02*
X152761904Y-108352380D01*
X153142857Y-108352380D01*
X153238095Y-108400000D01*
X153285714Y-108447619D01*
X153333333Y-108542857D01*
X153333333Y-108685714D01*
X153285714Y-108780952D01*
X153238095Y-108828571D01*
X153142857Y-108876190D01*
X152761904Y-108876190D01*
X154190476Y-108352380D02*
X154000000Y-108352380D01*
X153904761Y-108400000D01*
X153857142Y-108447619D01*
X153761904Y-108590476D01*
X153714285Y-108780952D01*
X153714285Y-109161904D01*
X153761904Y-109257142D01*
X153809523Y-109304761D01*
X153904761Y-109352380D01*
X154095238Y-109352380D01*
X154190476Y-109304761D01*
X154238095Y-109257142D01*
X154285714Y-109161904D01*
X154285714Y-108923809D01*
X154238095Y-108828571D01*
X154190476Y-108780952D01*
X154095238Y-108733333D01*
X153904761Y-108733333D01*
X153809523Y-108780952D01*
X153761904Y-108828571D01*
X153714285Y-108923809D01*
X160813642Y-101870607D02*
X160861261Y-101918226D01*
X160908880Y-102061083D01*
X160908880Y-102156321D01*
X160861261Y-102299178D01*
X160766023Y-102394416D01*
X160670785Y-102442035D01*
X160480309Y-102489654D01*
X160337452Y-102489654D01*
X160146976Y-102442035D01*
X160051738Y-102394416D01*
X159956500Y-102299178D01*
X159908880Y-102156321D01*
X159908880Y-102061083D01*
X159956500Y-101918226D01*
X160004119Y-101870607D01*
X160908880Y-100918226D02*
X160908880Y-101489654D01*
X160908880Y-101203940D02*
X159908880Y-101203940D01*
X160051738Y-101299178D01*
X160146976Y-101394416D01*
X160194595Y-101489654D01*
X159908880Y-100299178D02*
X159908880Y-100203940D01*
X159956500Y-100108702D01*
X160004119Y-100061083D01*
X160099357Y-100013464D01*
X160289833Y-99965845D01*
X160527928Y-99965845D01*
X160718404Y-100013464D01*
X160813642Y-100061083D01*
X160861261Y-100108702D01*
X160908880Y-100203940D01*
X160908880Y-100299178D01*
X160861261Y-100394416D01*
X160813642Y-100442035D01*
X160718404Y-100489654D01*
X160527928Y-100537273D01*
X160289833Y-100537273D01*
X160099357Y-100489654D01*
X160004119Y-100442035D01*
X159956500Y-100394416D01*
X159908880Y-100299178D01*
X131557142Y-110166666D02*
X131604761Y-110214285D01*
X131652380Y-110357142D01*
X131652380Y-110452380D01*
X131604761Y-110595238D01*
X131509523Y-110690476D01*
X131414285Y-110738095D01*
X131223809Y-110785714D01*
X131080952Y-110785714D01*
X130890476Y-110738095D01*
X130795238Y-110690476D01*
X130700000Y-110595238D01*
X130652380Y-110452380D01*
X130652380Y-110357142D01*
X130700000Y-110214285D01*
X130747619Y-110166666D01*
X130985714Y-109309523D02*
X131652380Y-109309523D01*
X130604761Y-109547619D02*
X131319047Y-109785714D01*
X131319047Y-109166666D01*
X137856933Y-96108780D02*
X137523600Y-95632590D01*
X137285504Y-96108780D02*
X137285504Y-95108780D01*
X137666457Y-95108780D01*
X137761695Y-95156400D01*
X137809314Y-95204019D01*
X137856933Y-95299257D01*
X137856933Y-95442114D01*
X137809314Y-95537352D01*
X137761695Y-95584971D01*
X137666457Y-95632590D01*
X137285504Y-95632590D01*
X138237885Y-95204019D02*
X138285504Y-95156400D01*
X138380742Y-95108780D01*
X138618838Y-95108780D01*
X138714076Y-95156400D01*
X138761695Y-95204019D01*
X138809314Y-95299257D01*
X138809314Y-95394495D01*
X138761695Y-95537352D01*
X138190266Y-96108780D01*
X138809314Y-96108780D01*
X148852380Y-106766666D02*
X148376190Y-107100000D01*
X148852380Y-107338095D02*
X147852380Y-107338095D01*
X147852380Y-106957142D01*
X147900000Y-106861904D01*
X147947619Y-106814285D01*
X148042857Y-106766666D01*
X148185714Y-106766666D01*
X148280952Y-106814285D01*
X148328571Y-106861904D01*
X148376190Y-106957142D01*
X148376190Y-107338095D01*
X148185714Y-105909523D02*
X148852380Y-105909523D01*
X147804761Y-106147619D02*
X148519047Y-106385714D01*
X148519047Y-105766666D01*
X155938095Y-102952380D02*
X155938095Y-103761904D01*
X155985714Y-103857142D01*
X156033333Y-103904761D01*
X156128571Y-103952380D01*
X156319047Y-103952380D01*
X156414285Y-103904761D01*
X156461904Y-103857142D01*
X156509523Y-103761904D01*
X156509523Y-102952380D01*
X156890476Y-102952380D02*
X157509523Y-102952380D01*
X157176190Y-103333333D01*
X157319047Y-103333333D01*
X157414285Y-103380952D01*
X157461904Y-103428571D01*
X157509523Y-103523809D01*
X157509523Y-103761904D01*
X157461904Y-103857142D01*
X157414285Y-103904761D01*
X157319047Y-103952380D01*
X157033333Y-103952380D01*
X156938095Y-103904761D01*
X156890476Y-103857142D01*
X157938742Y-108886666D02*
X157986361Y-108934285D01*
X158033980Y-109077142D01*
X158033980Y-109172380D01*
X157986361Y-109315238D01*
X157891123Y-109410476D01*
X157795885Y-109458095D01*
X157605409Y-109505714D01*
X157462552Y-109505714D01*
X157272076Y-109458095D01*
X157176838Y-109410476D01*
X157081600Y-109315238D01*
X157033980Y-109172380D01*
X157033980Y-109077142D01*
X157081600Y-108934285D01*
X157129219Y-108886666D01*
X157033980Y-108029523D02*
X157033980Y-108220000D01*
X157081600Y-108315238D01*
X157129219Y-108362857D01*
X157272076Y-108458095D01*
X157462552Y-108505714D01*
X157843504Y-108505714D01*
X157938742Y-108458095D01*
X157986361Y-108410476D01*
X158033980Y-108315238D01*
X158033980Y-108124761D01*
X157986361Y-108029523D01*
X157938742Y-107981904D01*
X157843504Y-107934285D01*
X157605409Y-107934285D01*
X157510171Y-107981904D01*
X157462552Y-108029523D01*
X157414933Y-108124761D01*
X157414933Y-108315238D01*
X157462552Y-108410476D01*
X157510171Y-108458095D01*
X157605409Y-108505714D01*
X156033333Y-96057142D02*
X155985714Y-96104761D01*
X155842857Y-96152380D01*
X155747619Y-96152380D01*
X155604761Y-96104761D01*
X155509523Y-96009523D01*
X155461904Y-95914285D01*
X155414285Y-95723809D01*
X155414285Y-95580952D01*
X155461904Y-95390476D01*
X155509523Y-95295238D01*
X155604761Y-95200000D01*
X155747619Y-95152380D01*
X155842857Y-95152380D01*
X155985714Y-95200000D01*
X156033333Y-95247619D01*
X156509523Y-96152380D02*
X156700000Y-96152380D01*
X156795238Y-96104761D01*
X156842857Y-96057142D01*
X156938095Y-95914285D01*
X156985714Y-95723809D01*
X156985714Y-95342857D01*
X156938095Y-95247619D01*
X156890476Y-95200000D01*
X156795238Y-95152380D01*
X156604761Y-95152380D01*
X156509523Y-95200000D01*
X156461904Y-95247619D01*
X156414285Y-95342857D01*
X156414285Y-95580952D01*
X156461904Y-95676190D01*
X156509523Y-95723809D01*
X156604761Y-95771428D01*
X156795238Y-95771428D01*
X156890476Y-95723809D01*
X156938095Y-95676190D01*
X156985714Y-95580952D01*
X160690642Y-105076666D02*
X160738261Y-105124285D01*
X160785880Y-105267142D01*
X160785880Y-105362380D01*
X160738261Y-105505238D01*
X160643023Y-105600476D01*
X160547785Y-105648095D01*
X160357309Y-105695714D01*
X160214452Y-105695714D01*
X160023976Y-105648095D01*
X159928738Y-105600476D01*
X159833500Y-105505238D01*
X159785880Y-105362380D01*
X159785880Y-105267142D01*
X159833500Y-105124285D01*
X159881119Y-105076666D01*
X160214452Y-104505238D02*
X160166833Y-104600476D01*
X160119214Y-104648095D01*
X160023976Y-104695714D01*
X159976357Y-104695714D01*
X159881119Y-104648095D01*
X159833500Y-104600476D01*
X159785880Y-104505238D01*
X159785880Y-104314761D01*
X159833500Y-104219523D01*
X159881119Y-104171904D01*
X159976357Y-104124285D01*
X160023976Y-104124285D01*
X160119214Y-104171904D01*
X160166833Y-104219523D01*
X160214452Y-104314761D01*
X160214452Y-104505238D01*
X160262071Y-104600476D01*
X160309690Y-104648095D01*
X160404928Y-104695714D01*
X160595404Y-104695714D01*
X160690642Y-104648095D01*
X160738261Y-104600476D01*
X160785880Y-104505238D01*
X160785880Y-104314761D01*
X160738261Y-104219523D01*
X160690642Y-104171904D01*
X160595404Y-104124285D01*
X160404928Y-104124285D01*
X160309690Y-104171904D01*
X160262071Y-104219523D01*
X160214452Y-104314761D01*
X157088095Y-87184761D02*
X157230952Y-87232380D01*
X157469047Y-87232380D01*
X157564285Y-87184761D01*
X157611904Y-87137142D01*
X157659523Y-87041904D01*
X157659523Y-86946666D01*
X157611904Y-86851428D01*
X157564285Y-86803809D01*
X157469047Y-86756190D01*
X157278571Y-86708571D01*
X157183333Y-86660952D01*
X157135714Y-86613333D01*
X157088095Y-86518095D01*
X157088095Y-86422857D01*
X157135714Y-86327619D01*
X157183333Y-86280000D01*
X157278571Y-86232380D01*
X157516666Y-86232380D01*
X157659523Y-86280000D01*
X158611904Y-87232380D02*
X158040476Y-87232380D01*
X158326190Y-87232380D02*
X158326190Y-86232380D01*
X158230952Y-86375238D01*
X158135714Y-86470476D01*
X158040476Y-86518095D01*
X143752380Y-96961904D02*
X144561904Y-96961904D01*
X144657142Y-96914285D01*
X144704761Y-96866666D01*
X144752380Y-96771428D01*
X144752380Y-96580952D01*
X144704761Y-96485714D01*
X144657142Y-96438095D01*
X144561904Y-96390476D01*
X143752380Y-96390476D01*
X144085714Y-95485714D02*
X144752380Y-95485714D01*
X143704761Y-95723809D02*
X144419047Y-95961904D01*
X144419047Y-95342857D01*
X135882380Y-99466666D02*
X135406190Y-99800000D01*
X135882380Y-100038095D02*
X134882380Y-100038095D01*
X134882380Y-99657142D01*
X134930000Y-99561904D01*
X134977619Y-99514285D01*
X135072857Y-99466666D01*
X135215714Y-99466666D01*
X135310952Y-99514285D01*
X135358571Y-99561904D01*
X135406190Y-99657142D01*
X135406190Y-100038095D01*
X134882380Y-99133333D02*
X134882380Y-98514285D01*
X135263333Y-98847619D01*
X135263333Y-98704761D01*
X135310952Y-98609523D01*
X135358571Y-98561904D01*
X135453809Y-98514285D01*
X135691904Y-98514285D01*
X135787142Y-98561904D01*
X135834761Y-98609523D01*
X135882380Y-98704761D01*
X135882380Y-98990476D01*
X135834761Y-99085714D01*
X135787142Y-99133333D01*
X135610695Y-107453180D02*
X135610695Y-108262704D01*
X135658314Y-108357942D01*
X135705933Y-108405561D01*
X135801171Y-108453180D01*
X135991647Y-108453180D01*
X136086885Y-108405561D01*
X136134504Y-108357942D01*
X136182123Y-108262704D01*
X136182123Y-107453180D01*
X136610695Y-107548419D02*
X136658314Y-107500800D01*
X136753552Y-107453180D01*
X136991647Y-107453180D01*
X137086885Y-107500800D01*
X137134504Y-107548419D01*
X137182123Y-107643657D01*
X137182123Y-107738895D01*
X137134504Y-107881752D01*
X136563076Y-108453180D01*
X137182123Y-108453180D01*
X167763866Y-93229180D02*
X167763866Y-93943466D01*
X167716247Y-94086323D01*
X167621009Y-94181561D01*
X167478152Y-94229180D01*
X167382914Y-94229180D01*
X168668628Y-93562514D02*
X168668628Y-94229180D01*
X168430533Y-93181561D02*
X168192438Y-93895847D01*
X168811485Y-93895847D01*
X135888095Y-87184761D02*
X136030952Y-87232380D01*
X136269047Y-87232380D01*
X136364285Y-87184761D01*
X136411904Y-87137142D01*
X136459523Y-87041904D01*
X136459523Y-86946666D01*
X136411904Y-86851428D01*
X136364285Y-86803809D01*
X136269047Y-86756190D01*
X136078571Y-86708571D01*
X135983333Y-86660952D01*
X135935714Y-86613333D01*
X135888095Y-86518095D01*
X135888095Y-86422857D01*
X135935714Y-86327619D01*
X135983333Y-86280000D01*
X136078571Y-86232380D01*
X136316666Y-86232380D01*
X136459523Y-86280000D01*
X136792857Y-86232380D02*
X137411904Y-86232380D01*
X137078571Y-86613333D01*
X137221428Y-86613333D01*
X137316666Y-86660952D01*
X137364285Y-86708571D01*
X137411904Y-86803809D01*
X137411904Y-87041904D01*
X137364285Y-87137142D01*
X137316666Y-87184761D01*
X137221428Y-87232380D01*
X136935714Y-87232380D01*
X136840476Y-87184761D01*
X136792857Y-87137142D01*
X156133333Y-72347619D02*
X156133333Y-71633333D01*
X156180952Y-71490476D01*
X156276190Y-71395238D01*
X156419047Y-71347619D01*
X156514285Y-71347619D01*
X155752380Y-72347619D02*
X155085714Y-72347619D01*
X155514285Y-71347619D01*
X132589542Y-105424266D02*
X132637161Y-105471885D01*
X132684780Y-105614742D01*
X132684780Y-105709980D01*
X132637161Y-105852838D01*
X132541923Y-105948076D01*
X132446685Y-105995695D01*
X132256209Y-106043314D01*
X132113352Y-106043314D01*
X131922876Y-105995695D01*
X131827638Y-105948076D01*
X131732400Y-105852838D01*
X131684780Y-105709980D01*
X131684780Y-105614742D01*
X131732400Y-105471885D01*
X131780019Y-105424266D01*
X132684780Y-104471885D02*
X132684780Y-105043314D01*
X132684780Y-104757600D02*
X131684780Y-104757600D01*
X131827638Y-104852838D01*
X131922876Y-104948076D01*
X131970495Y-105043314D01*
X123157142Y-101966666D02*
X123204761Y-102014285D01*
X123252380Y-102157142D01*
X123252380Y-102252380D01*
X123204761Y-102395238D01*
X123109523Y-102490476D01*
X123014285Y-102538095D01*
X122823809Y-102585714D01*
X122680952Y-102585714D01*
X122490476Y-102538095D01*
X122395238Y-102490476D01*
X122300000Y-102395238D01*
X122252380Y-102252380D01*
X122252380Y-102157142D01*
X122300000Y-102014285D01*
X122347619Y-101966666D01*
X122252380Y-101633333D02*
X122252380Y-101014285D01*
X122633333Y-101347619D01*
X122633333Y-101204761D01*
X122680952Y-101109523D01*
X122728571Y-101061904D01*
X122823809Y-101014285D01*
X123061904Y-101014285D01*
X123157142Y-101061904D01*
X123204761Y-101109523D01*
X123252380Y-101204761D01*
X123252380Y-101490476D01*
X123204761Y-101585714D01*
X123157142Y-101633333D01*
X126968095Y-99052380D02*
X126968095Y-99861904D01*
X127015714Y-99957142D01*
X127063333Y-100004761D01*
X127158571Y-100052380D01*
X127349047Y-100052380D01*
X127444285Y-100004761D01*
X127491904Y-99957142D01*
X127539523Y-99861904D01*
X127539523Y-99052380D01*
X128539523Y-100052380D02*
X127968095Y-100052380D01*
X128253809Y-100052380D02*
X128253809Y-99052380D01*
X128158571Y-99195238D01*
X128063333Y-99290476D01*
X127968095Y-99338095D01*
X131552380Y-102166666D02*
X131076190Y-102500000D01*
X131552380Y-102738095D02*
X130552380Y-102738095D01*
X130552380Y-102357142D01*
X130600000Y-102261904D01*
X130647619Y-102214285D01*
X130742857Y-102166666D01*
X130885714Y-102166666D01*
X130980952Y-102214285D01*
X131028571Y-102261904D01*
X131076190Y-102357142D01*
X131076190Y-102738095D01*
X130552380Y-101261904D02*
X130552380Y-101738095D01*
X131028571Y-101785714D01*
X130980952Y-101738095D01*
X130933333Y-101642857D01*
X130933333Y-101404761D01*
X130980952Y-101309523D01*
X131028571Y-101261904D01*
X131123809Y-101214285D01*
X131361904Y-101214285D01*
X131457142Y-101261904D01*
X131504761Y-101309523D01*
X131552380Y-101404761D01*
X131552380Y-101642857D01*
X131504761Y-101738095D01*
X131457142Y-101785714D01*
X134033333Y-95757142D02*
X133985714Y-95804761D01*
X133842857Y-95852380D01*
X133747619Y-95852380D01*
X133604761Y-95804761D01*
X133509523Y-95709523D01*
X133461904Y-95614285D01*
X133414285Y-95423809D01*
X133414285Y-95280952D01*
X133461904Y-95090476D01*
X133509523Y-94995238D01*
X133604761Y-94900000D01*
X133747619Y-94852380D01*
X133842857Y-94852380D01*
X133985714Y-94900000D01*
X134033333Y-94947619D01*
X134414285Y-94947619D02*
X134461904Y-94900000D01*
X134557142Y-94852380D01*
X134795238Y-94852380D01*
X134890476Y-94900000D01*
X134938095Y-94947619D01*
X134985714Y-95042857D01*
X134985714Y-95138095D01*
X134938095Y-95280952D01*
X134366666Y-95852380D01*
X134985714Y-95852380D01*
X146488095Y-87184761D02*
X146630952Y-87232380D01*
X146869047Y-87232380D01*
X146964285Y-87184761D01*
X147011904Y-87137142D01*
X147059523Y-87041904D01*
X147059523Y-86946666D01*
X147011904Y-86851428D01*
X146964285Y-86803809D01*
X146869047Y-86756190D01*
X146678571Y-86708571D01*
X146583333Y-86660952D01*
X146535714Y-86613333D01*
X146488095Y-86518095D01*
X146488095Y-86422857D01*
X146535714Y-86327619D01*
X146583333Y-86280000D01*
X146678571Y-86232380D01*
X146916666Y-86232380D01*
X147059523Y-86280000D01*
X147440476Y-86327619D02*
X147488095Y-86280000D01*
X147583333Y-86232380D01*
X147821428Y-86232380D01*
X147916666Y-86280000D01*
X147964285Y-86327619D01*
X148011904Y-86422857D01*
X148011904Y-86518095D01*
X147964285Y-86660952D01*
X147392857Y-87232380D01*
X148011904Y-87232380D01*
X122416666Y-89202380D02*
X122416666Y-89916666D01*
X122369047Y-90059523D01*
X122273809Y-90154761D01*
X122130952Y-90202380D01*
X122035714Y-90202380D01*
X123416666Y-90202380D02*
X122845238Y-90202380D01*
X123130952Y-90202380D02*
X123130952Y-89202380D01*
X123035714Y-89345238D01*
X122940476Y-89440476D01*
X122845238Y-89488095D01*
D10*
X141334258Y-97523137D02*
X140859742Y-97523137D01*
X141334258Y-96478137D02*
X140859742Y-96478137D01*
X155378500Y-106320580D02*
X155378500Y-106039420D01*
X156398500Y-106320580D02*
X156398500Y-106039420D01*
X148610000Y-100440580D02*
X148610000Y-100159420D01*
X147590000Y-100440580D02*
X147590000Y-100159420D01*
X154235000Y-106727064D02*
X154235000Y-106272936D01*
X152765000Y-106727064D02*
X152765000Y-106272936D01*
X159446500Y-101240580D02*
X159446500Y-100959420D01*
X158426500Y-101240580D02*
X158426500Y-100959420D01*
X123390000Y-110143163D02*
X124454437Y-111207600D01*
X130210000Y-104387600D02*
X130210000Y-106737600D01*
X124454437Y-104387600D02*
X130210000Y-104387600D01*
X123390000Y-105452037D02*
X124454437Y-104387600D01*
X122406250Y-109203850D02*
X122406250Y-109991350D01*
X123390000Y-105452037D02*
X123390000Y-106737600D01*
X130210000Y-111207600D02*
X130210000Y-108857600D01*
X124454437Y-111207600D02*
X130210000Y-111207600D01*
X123390000Y-110143163D02*
X123390000Y-108857600D01*
X122012500Y-109597600D02*
X122800000Y-109597600D01*
X137811742Y-96478137D02*
X138286258Y-96478137D01*
X137811742Y-97523137D02*
X138286258Y-97523137D01*
X149277400Y-106656136D02*
X149277400Y-107110264D01*
X150747400Y-106656136D02*
X150747400Y-107110264D01*
X154471500Y-98490000D02*
X155196500Y-98490000D01*
X149976500Y-103710000D02*
X149976500Y-102985000D01*
X150701500Y-98490000D02*
X149976500Y-98490000D01*
X150701500Y-103710000D02*
X149976500Y-103710000D01*
X155196500Y-98490000D02*
X155196500Y-99215000D01*
X149976500Y-98490000D02*
X149976500Y-99215000D01*
X154471500Y-103710000D02*
X155196500Y-103710000D01*
X157922500Y-106039420D02*
X157922500Y-106320580D01*
X156902500Y-106039420D02*
X156902500Y-106320580D01*
X156283080Y-97673000D02*
X156001920Y-97673000D01*
X156283080Y-96653000D02*
X156001920Y-96653000D01*
X158426500Y-105050580D02*
X158426500Y-104769420D01*
X159446500Y-105050580D02*
X159446500Y-104769420D01*
X154510000Y-86070000D02*
X154510000Y-86300000D01*
X154510000Y-86070000D02*
X155050000Y-86070000D01*
X153990000Y-82400000D02*
X153990000Y-86300000D01*
X161190000Y-86070000D02*
X161190000Y-86300000D01*
X153990000Y-82400000D02*
X161710000Y-82400000D01*
X160650000Y-86070000D02*
X161190000Y-86070000D01*
X156150000Y-86070000D02*
X159550000Y-86070000D01*
X161710000Y-82400000D02*
X161710000Y-86300000D01*
G36*
X162792230Y-72021615D02*
G01*
X162614430Y-72021615D01*
X162551565Y-72008915D01*
X162530610Y-71964465D01*
X162534420Y-71918745D01*
X162595380Y-71892075D01*
X162673485Y-71874295D01*
X162696980Y-71801270D01*
X162674120Y-71728245D01*
X162605540Y-71710465D01*
X162534420Y-71700305D01*
X162510925Y-71674905D01*
X162503940Y-71626645D01*
X162523942Y-71561875D01*
X162583950Y-71540285D01*
X162792230Y-71540285D01*
X162792230Y-72021615D01*
G37*
G36*
X162167001Y-72401398D02*
G01*
X162108339Y-72392697D01*
X162050812Y-72378287D01*
X161994975Y-72358308D01*
X161941364Y-72332952D01*
X161890498Y-72302464D01*
X161842864Y-72267137D01*
X161798923Y-72227311D01*
X161759097Y-72183369D01*
X161723769Y-72135736D01*
X161693281Y-72084869D01*
X161667925Y-72031259D01*
X161647946Y-71975421D01*
X161633537Y-71917895D01*
X161624835Y-71859233D01*
X161621925Y-71800000D01*
X161624835Y-71740767D01*
X161633537Y-71682105D01*
X161647946Y-71624579D01*
X161651751Y-71613945D01*
X162279150Y-71613945D01*
X162287476Y-71685206D01*
X162312452Y-71751669D01*
X162354080Y-71813335D01*
X162317885Y-71886678D01*
X162305820Y-71967005D01*
X162314992Y-72040383D01*
X162342509Y-72106423D01*
X162388370Y-72165125D01*
X162445097Y-72210281D01*
X162510290Y-72237374D01*
X162583950Y-72246405D01*
X162903990Y-72246405D01*
X162969395Y-72237833D01*
X163003050Y-72212115D01*
X163015115Y-72179095D01*
X163017020Y-72134645D01*
X163017020Y-71429795D01*
X163016434Y-71424715D01*
X163408180Y-71424715D01*
X163433580Y-71514885D01*
X163455170Y-71525680D01*
X163490095Y-71527585D01*
X163523750Y-71539650D01*
X163531370Y-71597435D01*
X163531370Y-72185445D01*
X163533275Y-72229895D01*
X163545340Y-72264185D01*
X163578995Y-72289903D01*
X163641860Y-72298475D01*
X163707265Y-72289903D01*
X163740920Y-72264185D01*
X163751715Y-72230530D01*
X163753620Y-72186715D01*
X163753620Y-72184175D01*
X163855220Y-72184175D01*
X163857125Y-72227990D01*
X163869190Y-72261645D01*
X163901575Y-72287363D01*
X163965710Y-72295935D01*
X164031115Y-72287363D01*
X164064770Y-72261645D01*
X164075565Y-72229260D01*
X164077470Y-72185445D01*
X164075565Y-72141630D01*
X164064135Y-72107975D01*
X164050513Y-72097180D01*
X164922020Y-72097180D01*
X164955040Y-72157505D01*
X164990600Y-72180365D01*
X165021080Y-72198145D01*
X165114425Y-72235610D01*
X165175544Y-72249421D01*
X165235710Y-72254025D01*
X165319389Y-72246405D01*
X165402786Y-72223545D01*
X165485900Y-72185445D01*
X165548289Y-72145599D01*
X165603375Y-72097180D01*
X165650206Y-72037490D01*
X165687830Y-71963830D01*
X165712595Y-71878581D01*
X165720850Y-71784125D01*
X165712436Y-71688716D01*
X165687195Y-71600610D01*
X165648936Y-71523775D01*
X165601470Y-71462180D01*
X165546066Y-71412332D01*
X165483995Y-71370740D01*
X165419543Y-71338672D01*
X165356995Y-71317400D01*
X165295718Y-71305494D01*
X165235075Y-71301525D01*
X165173639Y-71306605D01*
X165109980Y-71321845D01*
X165024255Y-71354865D01*
X164980440Y-71381535D01*
X164940435Y-71413285D01*
X164923290Y-71457735D01*
X164951230Y-71528855D01*
X164995363Y-71582195D01*
X165036320Y-71599975D01*
X165097280Y-71574575D01*
X165120140Y-71558065D01*
X165170305Y-71537745D01*
X165244600Y-71527585D01*
X165326833Y-71541555D01*
X165405890Y-71583465D01*
X165470660Y-71663475D01*
X165489710Y-71717609D01*
X165496060Y-71778410D01*
X165489710Y-71839211D01*
X165470660Y-71893345D01*
X165407160Y-71972085D01*
X165326515Y-72014948D01*
X165244600Y-72029235D01*
X165164590Y-72018440D01*
X165102360Y-71986055D01*
X165037590Y-71958115D01*
X164995680Y-71975260D01*
X164948690Y-72026695D01*
X164922020Y-72097180D01*
X164050513Y-72097180D01*
X164030480Y-72081305D01*
X163966345Y-72073685D01*
X163902210Y-72081305D01*
X163868555Y-72107340D01*
X163857125Y-72140360D01*
X163855220Y-72184175D01*
X163753620Y-72184175D01*
X163753620Y-71582195D01*
X163744730Y-71464720D01*
X163731500Y-71424715D01*
X163855220Y-71424715D01*
X163855220Y-71869215D01*
X163856490Y-71906045D01*
X163879350Y-71960655D01*
X163965710Y-71982245D01*
X164031115Y-71973990D01*
X164064770Y-71949225D01*
X164075565Y-71915570D01*
X164077470Y-71871755D01*
X164077470Y-71649505D01*
X164160020Y-71649505D01*
X164171732Y-71745108D01*
X164206869Y-71828716D01*
X164265430Y-71900330D01*
X164339231Y-71955011D01*
X164420088Y-71987819D01*
X164508000Y-71998755D01*
X164596053Y-71987748D01*
X164677333Y-71954728D01*
X164751840Y-71899695D01*
X164811107Y-71827728D01*
X164846667Y-71743908D01*
X164858520Y-71648235D01*
X164845026Y-71551874D01*
X164804545Y-71465990D01*
X164744379Y-71395187D01*
X164671830Y-71344070D01*
X164591820Y-71313114D01*
X164509270Y-71302795D01*
X164426879Y-71312479D01*
X164347345Y-71341530D01*
X164275114Y-71391060D01*
X164214630Y-71462180D01*
X164173673Y-71549969D01*
X164160020Y-71649505D01*
X164077470Y-71649505D01*
X164077470Y-71425985D01*
X164075565Y-71381535D01*
X164064770Y-71348515D01*
X164031433Y-71322797D01*
X163966980Y-71314225D01*
X163901892Y-71322480D01*
X163869190Y-71347245D01*
X163857125Y-71380900D01*
X163855220Y-71424715D01*
X163731500Y-71424715D01*
X163718060Y-71384075D01*
X163671705Y-71341847D01*
X163591060Y-71319305D01*
X163489460Y-71313590D01*
X163433580Y-71326925D01*
X163414530Y-71360262D01*
X163408180Y-71424715D01*
X163016434Y-71424715D01*
X163009400Y-71363755D01*
X162975745Y-71327560D01*
X162905260Y-71315495D01*
X162571250Y-71315495D01*
X162494838Y-71325020D01*
X162426470Y-71353595D01*
X162366145Y-71401220D01*
X162318943Y-71462956D01*
X162289945Y-71533864D01*
X162279150Y-71613945D01*
X161651751Y-71613945D01*
X161667925Y-71568741D01*
X161693281Y-71515131D01*
X161723769Y-71464264D01*
X161759097Y-71416631D01*
X161798923Y-71372689D01*
X161842864Y-71332863D01*
X161890498Y-71297536D01*
X161941364Y-71267048D01*
X161994975Y-71241692D01*
X162050812Y-71221713D01*
X162108339Y-71207303D01*
X162167001Y-71198602D01*
X162226233Y-71195692D01*
X165773767Y-71195692D01*
X165832999Y-71198602D01*
X165891661Y-71207303D01*
X165949188Y-71221713D01*
X166005025Y-71241692D01*
X166058636Y-71267048D01*
X166109502Y-71297536D01*
X166157136Y-71332863D01*
X166201077Y-71372689D01*
X166240903Y-71416631D01*
X166276231Y-71464264D01*
X166306719Y-71515131D01*
X166332075Y-71568741D01*
X166352054Y-71624579D01*
X166366463Y-71682105D01*
X166375165Y-71740767D01*
X166378075Y-71800000D01*
X166375165Y-71859233D01*
X166366463Y-71917895D01*
X166352054Y-71975421D01*
X166332075Y-72031259D01*
X166306719Y-72084869D01*
X166276231Y-72135736D01*
X166240903Y-72183369D01*
X166201077Y-72227311D01*
X166157136Y-72267137D01*
X166109502Y-72302464D01*
X166058636Y-72332952D01*
X166005025Y-72358308D01*
X165949188Y-72378287D01*
X165891661Y-72392697D01*
X165832999Y-72401398D01*
X165773767Y-72404308D01*
X162226233Y-72404308D01*
X162167001Y-72401398D01*
G37*
G36*
X164593090Y-71557430D02*
G01*
X164623570Y-71596165D01*
X164633730Y-71650140D01*
X164623888Y-71704274D01*
X164594360Y-71743485D01*
X164509270Y-71775235D01*
X164424180Y-71744755D01*
X164394653Y-71706337D01*
X164384810Y-71652045D01*
X164395288Y-71597435D01*
X164426720Y-71558065D01*
X164510540Y-71526315D01*
X164593090Y-71557430D01*
G37*
X147000000Y-97860000D02*
X147800000Y-97860000D01*
X147000000Y-94740000D02*
X147800000Y-94740000D01*
X147000000Y-97860000D02*
X146200000Y-97860000D01*
X147000000Y-94740000D02*
X145200000Y-94740000D01*
X134522500Y-99462742D02*
X134522500Y-99937258D01*
X133477500Y-99462742D02*
X133477500Y-99937258D01*
X144326000Y-100022000D02*
X143876000Y-100022000D01*
X137556000Y-107242000D02*
X137556000Y-108532000D01*
X144326000Y-100472000D02*
X144326000Y-100022000D01*
X137106000Y-107242000D02*
X137556000Y-107242000D01*
X144326000Y-106792000D02*
X144326000Y-107242000D01*
X137106000Y-100022000D02*
X137556000Y-100022000D01*
X137106000Y-106792000D02*
X137106000Y-107242000D01*
X144326000Y-107242000D02*
X143876000Y-107242000D01*
X137106000Y-100472000D02*
X137106000Y-100022000D01*
G36*
X126943849Y-77502402D02*
G01*
X126933086Y-77574959D01*
X126915263Y-77646112D01*
X126890552Y-77715176D01*
X126859190Y-77781484D01*
X126821480Y-77844399D01*
X126777785Y-77903316D01*
X126728525Y-77957665D01*
X126674176Y-78006925D01*
X126615260Y-78050620D01*
X126552345Y-78088330D01*
X126486036Y-78119691D01*
X126416973Y-78144403D01*
X126345820Y-78162225D01*
X126273263Y-78172988D01*
X126200000Y-78176587D01*
X126126737Y-78172988D01*
X126054180Y-78162225D01*
X125983027Y-78144403D01*
X125913964Y-78119691D01*
X125847655Y-78088330D01*
X125784740Y-78050620D01*
X125725824Y-78006925D01*
X125671475Y-77957665D01*
X125622215Y-77903316D01*
X125578520Y-77844399D01*
X125540810Y-77781484D01*
X125509448Y-77715176D01*
X125484737Y-77646112D01*
X125466914Y-77574959D01*
X125456151Y-77502402D01*
X125452552Y-77429140D01*
X125452552Y-77221706D01*
X125584844Y-77221706D01*
X125595559Y-77303462D01*
X125627706Y-77345531D01*
X125669775Y-77360612D01*
X125724544Y-77362994D01*
X126608781Y-77362994D01*
X126692919Y-77355056D01*
X126727050Y-77332831D01*
X126745306Y-77291556D01*
X126753244Y-77216150D01*
X126711969Y-77126456D01*
X126708794Y-77121694D01*
X126473844Y-76861344D01*
X126380181Y-76804194D01*
X126281756Y-76854200D01*
X126226194Y-76950244D01*
X126275406Y-77061369D01*
X126294456Y-77082006D01*
X125727719Y-77082006D01*
X125669775Y-77084387D01*
X125626119Y-77099469D01*
X125595162Y-77141934D01*
X125584844Y-77221706D01*
X125452552Y-77221706D01*
X125452552Y-76172369D01*
X125588019Y-76172369D01*
X125590400Y-76225550D01*
X125603894Y-76267619D01*
X125645566Y-76300956D01*
X125726131Y-76312069D01*
X125832494Y-76275556D01*
X125847575Y-76233487D01*
X125849956Y-76176337D01*
X125869006Y-76125537D01*
X125930919Y-76112044D01*
X126149994Y-76112044D01*
X126143644Y-76215231D01*
X126146025Y-76270000D01*
X126159519Y-76312069D01*
X126201191Y-76344216D01*
X126281756Y-76354931D01*
X126363116Y-76344612D01*
X126403994Y-76313656D01*
X126419075Y-76271587D01*
X126421456Y-76217612D01*
X126415106Y-76112044D01*
X126570681Y-76112044D01*
X126651644Y-76104106D01*
X126695697Y-76061641D01*
X126710381Y-75975519D01*
X126700459Y-75894159D01*
X126670694Y-75853281D01*
X126632594Y-75838200D01*
X126578619Y-75835819D01*
X126415106Y-75835819D01*
X126421456Y-75783431D01*
X126400819Y-75719931D01*
X126358750Y-75697706D01*
X126264294Y-75689769D01*
X126172219Y-75712787D01*
X126145231Y-75770731D01*
X126149994Y-75835819D01*
X125915044Y-75835819D01*
X125807976Y-75845344D01*
X125723838Y-75873919D01*
X125662631Y-75921544D01*
X125621180Y-75987513D01*
X125596309Y-76071122D01*
X125588019Y-76172369D01*
X125452552Y-76172369D01*
X125452552Y-75462756D01*
X125588019Y-75462756D01*
X125598337Y-75544116D01*
X125629294Y-75584994D01*
X125671362Y-75600075D01*
X125726131Y-75602456D01*
X126281756Y-75602456D01*
X126327794Y-75600869D01*
X126396056Y-75572294D01*
X126423044Y-75464344D01*
X126422944Y-75463550D01*
X126537344Y-75463550D01*
X126546869Y-75543719D01*
X126579413Y-75585787D01*
X126620688Y-75600075D01*
X126675456Y-75602456D01*
X126730225Y-75600075D01*
X126772294Y-75584994D01*
X126804441Y-75544512D01*
X126815156Y-75464344D01*
X126804441Y-75382587D01*
X126772294Y-75340519D01*
X126731813Y-75327025D01*
X126677044Y-75324644D01*
X126622275Y-75327025D01*
X126580206Y-75341312D01*
X126546869Y-75383381D01*
X126537344Y-75463550D01*
X126422944Y-75463550D01*
X126412725Y-75382587D01*
X126381769Y-75340519D01*
X126339700Y-75327025D01*
X126284931Y-75324644D01*
X125727719Y-75324644D01*
X125672156Y-75327025D01*
X125630881Y-75340519D01*
X125598734Y-75382191D01*
X125588019Y-75462756D01*
X125452552Y-75462756D01*
X125452552Y-74111794D01*
X125588019Y-74111794D01*
X125598337Y-74192756D01*
X125629294Y-74235619D01*
X125671362Y-74250700D01*
X125726131Y-74253081D01*
X126007119Y-74253081D01*
X126110703Y-74276894D01*
X126145231Y-74348331D01*
X126110703Y-74422150D01*
X126007119Y-74446756D01*
X125729306Y-74446756D01*
X125674537Y-74449137D01*
X125632469Y-74462631D01*
X125599131Y-74504303D01*
X125588019Y-74584869D01*
X125598734Y-74666625D01*
X125630881Y-74708694D01*
X125672156Y-74723775D01*
X125727719Y-74726156D01*
X126005531Y-74726156D01*
X126108719Y-74746000D01*
X126145231Y-74821406D01*
X126110703Y-74895225D01*
X126007119Y-74919831D01*
X125729306Y-74919831D01*
X125674537Y-74922212D01*
X125632469Y-74935706D01*
X125599131Y-74977378D01*
X125588019Y-75057944D01*
X125598734Y-75139303D01*
X125630881Y-75180181D01*
X125672950Y-75195262D01*
X125727719Y-75197644D01*
X126005531Y-75197644D01*
X126141615Y-75188119D01*
X126249301Y-75159544D01*
X126328588Y-75111919D01*
X126401811Y-75015875D01*
X126426219Y-74899194D01*
X126395263Y-74788069D01*
X126338113Y-74709487D01*
X126288106Y-74667419D01*
X126364835Y-74605330D01*
X126410873Y-74524897D01*
X126426219Y-74426119D01*
X126398041Y-74328884D01*
X126313506Y-74246731D01*
X126396056Y-74219744D01*
X126424631Y-74103856D01*
X126413916Y-74031228D01*
X126381769Y-73991144D01*
X126341288Y-73976062D01*
X126286519Y-73973681D01*
X125727719Y-73973681D01*
X125672156Y-73976062D01*
X125630881Y-73989556D01*
X125598734Y-74031228D01*
X125588019Y-74111794D01*
X125452552Y-74111794D01*
X125452552Y-73706981D01*
X125588019Y-73706981D01*
X125598337Y-73788341D01*
X125629294Y-73829219D01*
X125671362Y-73844300D01*
X125726131Y-73846681D01*
X126281756Y-73846681D01*
X126327794Y-73845094D01*
X126396056Y-73816519D01*
X126423044Y-73708569D01*
X126422944Y-73707775D01*
X126537344Y-73707775D01*
X126546869Y-73787944D01*
X126579413Y-73830012D01*
X126620688Y-73844300D01*
X126675456Y-73846681D01*
X126730225Y-73844300D01*
X126772294Y-73829219D01*
X126804441Y-73788737D01*
X126815156Y-73708569D01*
X126804441Y-73626812D01*
X126772294Y-73584744D01*
X126731813Y-73571250D01*
X126677044Y-73568869D01*
X126622275Y-73571250D01*
X126580206Y-73585537D01*
X126546869Y-73627606D01*
X126537344Y-73707775D01*
X126422944Y-73707775D01*
X126412725Y-73626812D01*
X126381769Y-73584744D01*
X126339700Y-73571250D01*
X126284931Y-73568869D01*
X125727719Y-73568869D01*
X125672156Y-73571250D01*
X125630881Y-73584744D01*
X125598734Y-73626416D01*
X125588019Y-73706981D01*
X125452552Y-73706981D01*
X125452552Y-72776706D01*
X125588019Y-72776706D01*
X125588019Y-73348206D01*
X125603894Y-73430756D01*
X125638819Y-73457744D01*
X125706287Y-73465681D01*
X125773756Y-73457744D01*
X125811062Y-73425994D01*
X125822969Y-73349794D01*
X125822969Y-72917994D01*
X126610369Y-72917994D01*
X126692919Y-72910056D01*
X126736972Y-72866797D01*
X126751656Y-72778294D01*
X126740941Y-72696537D01*
X126708794Y-72654469D01*
X126666725Y-72639387D01*
X126611956Y-72637006D01*
X125729306Y-72637006D01*
X125648344Y-72646531D01*
X125603100Y-72688600D01*
X125588019Y-72776706D01*
X125452552Y-72776706D01*
X125452552Y-72570860D01*
X125456151Y-72497598D01*
X125466914Y-72425041D01*
X125484737Y-72353888D01*
X125509448Y-72284824D01*
X125540810Y-72218516D01*
X125578520Y-72155601D01*
X125622215Y-72096684D01*
X125671475Y-72042335D01*
X125725824Y-71993075D01*
X125784740Y-71949380D01*
X125847655Y-71911670D01*
X125913964Y-71880309D01*
X125983027Y-71855597D01*
X126054180Y-71837775D01*
X126126737Y-71827012D01*
X126200000Y-71823413D01*
X126273263Y-71827012D01*
X126345820Y-71837775D01*
X126416973Y-71855597D01*
X126486036Y-71880309D01*
X126552345Y-71911670D01*
X126615260Y-71949380D01*
X126674176Y-71993075D01*
X126728525Y-72042335D01*
X126777785Y-72096684D01*
X126821480Y-72155601D01*
X126859190Y-72218516D01*
X126890552Y-72284824D01*
X126915263Y-72353888D01*
X126933086Y-72425041D01*
X126943849Y-72497598D01*
X126947448Y-72570860D01*
X126947448Y-77429140D01*
X126943849Y-77502402D01*
G37*
X117945000Y-77648000D02*
X123145000Y-77648000D01*
X117945000Y-72448000D02*
X123145000Y-72448000D01*
X123145000Y-72448000D02*
X123145000Y-77648000D01*
X120545000Y-77648000D02*
X120545000Y-72448000D01*
X117945000Y-72448000D02*
X117945000Y-77648000D01*
G36*
X154403758Y-90199022D02*
G01*
X154464718Y-90224740D01*
X154464718Y-90712420D01*
X154413283Y-90718135D01*
X154359943Y-90720040D01*
X154274456Y-90700990D01*
X154216115Y-90643840D01*
X154182539Y-90556686D01*
X154171348Y-90447625D01*
X154180873Y-90336659D01*
X154209448Y-90255220D01*
X154258978Y-90205214D01*
X154331368Y-90188545D01*
X154403758Y-90199022D01*
G37*
G36*
X150678530Y-90421908D02*
G01*
X150732823Y-90544780D01*
X150713773Y-90629553D01*
X150665195Y-90680988D01*
X150597568Y-90705753D01*
X150519463Y-90712420D01*
X150461360Y-90710515D01*
X150407068Y-90704800D01*
X150407068Y-90384760D01*
X150532798Y-90384760D01*
X150678530Y-90421908D01*
G37*
G36*
X151582691Y-90204976D02*
G01*
X151638650Y-90259982D01*
X151670797Y-90344993D01*
X151681513Y-90453340D01*
X151669844Y-90561925D01*
X151634840Y-90647650D01*
X151576976Y-90703371D01*
X151496728Y-90721945D01*
X151414574Y-90703371D01*
X151358615Y-90647650D01*
X151326468Y-90561925D01*
X151315753Y-90453340D01*
X151327421Y-90344993D01*
X151362425Y-90259982D01*
X151420289Y-90204976D01*
X151500538Y-90186640D01*
X151582691Y-90204976D01*
G37*
G36*
X150576613Y-89917082D02*
G01*
X150629953Y-89936132D01*
X150666148Y-89976137D01*
X150679483Y-90043765D01*
X150633763Y-90151397D01*
X150498508Y-90190450D01*
X150407068Y-90190450D01*
X150407068Y-89919940D01*
X150458503Y-89914225D01*
X150513748Y-89912320D01*
X150576613Y-89917082D01*
G37*
G36*
X143962691Y-90204976D02*
G01*
X144018650Y-90259982D01*
X144050797Y-90344993D01*
X144061512Y-90453340D01*
X144049844Y-90561925D01*
X144014840Y-90647650D01*
X143956976Y-90703371D01*
X143876727Y-90721945D01*
X143794574Y-90703371D01*
X143738615Y-90647650D01*
X143706468Y-90561925D01*
X143695752Y-90453340D01*
X143707421Y-90344993D01*
X143742425Y-90259982D01*
X143800289Y-90204976D01*
X143880537Y-90186640D01*
X143962691Y-90204976D01*
G37*
G36*
X140142927Y-90179020D02*
G01*
X140190552Y-90186640D01*
X140190552Y-90617170D01*
X140130545Y-90641935D01*
X140059107Y-90651460D01*
X139933377Y-90593358D01*
X139903374Y-90522158D01*
X139893372Y-90424765D01*
X139916232Y-90287182D01*
X139984812Y-90204632D01*
X140099112Y-90177115D01*
X140142927Y-90179020D01*
G37*
G36*
X152534953Y-90515253D02*
G01*
X152590198Y-90521920D01*
X152590198Y-90727660D01*
X152527333Y-90732423D01*
X152453038Y-90733375D01*
X152334928Y-90707658D01*
X152289208Y-90620980D01*
X152304448Y-90565735D01*
X152345405Y-90533350D01*
X152405413Y-90517158D01*
X152475898Y-90512395D01*
X152534953Y-90515253D01*
G37*
G36*
X134905924Y-89420195D02*
G01*
X160081959Y-89420195D01*
X159494076Y-91379805D01*
X134318041Y-91379805D01*
X134375953Y-91186765D01*
X135820482Y-91186765D01*
X135901445Y-91211530D01*
X136009077Y-91221055D01*
X136131950Y-91203910D01*
X136227200Y-91151523D01*
X136305305Y-91061035D01*
X136376742Y-90929590D01*
X136422701Y-90823386D01*
X136465325Y-90714325D01*
X136505092Y-90602644D01*
X136542477Y-90488583D01*
X136577958Y-90371901D01*
X136612010Y-90252362D01*
X136646062Y-90130204D01*
X136664718Y-90064720D01*
X136904427Y-90064720D01*
X136904427Y-90901015D01*
X137140647Y-90901015D01*
X137140647Y-90236170D01*
X137237802Y-90218072D01*
X137334957Y-90213310D01*
X137386392Y-90215215D01*
X137449257Y-90221882D01*
X137513075Y-90232360D01*
X137567367Y-90243790D01*
X137575823Y-90199975D01*
X137755962Y-90199975D01*
X138003612Y-90199975D01*
X138003612Y-90529540D01*
X138007422Y-90617646D01*
X138018852Y-90695275D01*
X138071240Y-90818148D01*
X138170300Y-90895300D01*
X138239594Y-90915303D01*
X138323652Y-90921970D01*
X138440810Y-90909588D01*
X138577017Y-90862915D01*
X138546537Y-90674320D01*
X138443667Y-90709563D01*
X138365562Y-90718135D01*
X138267455Y-90679083D01*
X138237927Y-90560020D01*
X138237927Y-90034240D01*
X138759897Y-90034240D01*
X138759897Y-90901015D01*
X138994212Y-90901015D01*
X138994212Y-90198070D01*
X139048505Y-90192355D01*
X139100892Y-90190450D01*
X139217097Y-90245695D01*
X139238529Y-90318561D01*
X139245672Y-90426670D01*
X139245672Y-90901015D01*
X139479987Y-90901015D01*
X139479987Y-90424765D01*
X139655247Y-90424765D01*
X139665302Y-90546050D01*
X139695464Y-90648285D01*
X139745735Y-90731470D01*
X139815479Y-90792853D01*
X139904062Y-90829683D01*
X140011482Y-90841960D01*
X140100065Y-90832435D01*
X140190552Y-90803860D01*
X140190552Y-90840055D01*
X140181027Y-90911493D01*
X140148642Y-90969595D01*
X140085777Y-91008648D01*
X139984812Y-91022935D01*
X139832412Y-91004838D01*
X139716207Y-90965785D01*
X139672392Y-91163905D01*
X139820030Y-91203910D01*
X139898849Y-91216769D01*
X139981002Y-91221055D01*
X140122925Y-91209413D01*
X140236272Y-91174488D01*
X140321045Y-91116280D01*
X140379782Y-91033730D01*
X140415025Y-90925780D01*
X140426772Y-90792430D01*
X140426772Y-90460960D01*
X140603937Y-90460960D01*
X140612510Y-90568116D01*
X140638227Y-90660985D01*
X140679899Y-90739804D01*
X140736335Y-90804813D01*
X140806820Y-90855771D01*
X140890640Y-90892443D01*
X140987081Y-90914588D01*
X141095427Y-90921970D01*
X141249732Y-90907683D01*
X141379272Y-90872440D01*
X141346887Y-90672415D01*
X141239255Y-90702895D01*
X141104952Y-90718135D01*
X141001130Y-90705514D01*
X140918262Y-90667653D01*
X140863970Y-90607883D01*
X140845872Y-90529540D01*
X141426897Y-90529540D01*
X141429755Y-90489535D01*
X141430707Y-90441910D01*
X141419812Y-90310465D01*
X142501317Y-90310465D01*
X142509533Y-90449649D01*
X142534179Y-90571926D01*
X142575255Y-90677297D01*
X142632762Y-90765760D01*
X142733516Y-90854660D01*
X142860516Y-90908000D01*
X143013762Y-90925780D01*
X143117823Y-90919351D01*
X143209025Y-90900062D01*
X143343327Y-90843865D01*
X143284272Y-90659080D01*
X143188070Y-90700990D01*
X143036622Y-90721945D01*
X142900653Y-90695037D01*
X142808975Y-90614313D01*
X142770346Y-90532080D01*
X142752231Y-90451435D01*
X143457627Y-90451435D01*
X143465247Y-90553114D01*
X143488107Y-90644793D01*
X143525017Y-90725517D01*
X143574785Y-90794335D01*
X143636221Y-90850056D01*
X143708135Y-90891490D01*
X143789812Y-90917208D01*
X143880537Y-90925780D01*
X143971263Y-90917208D01*
X144052940Y-90891490D01*
X144124616Y-90850056D01*
X144185337Y-90794335D01*
X144234391Y-90725517D01*
X144271062Y-90644793D01*
X144293922Y-90553114D01*
X144301542Y-90451435D01*
X144293922Y-90351184D01*
X144271062Y-90259982D01*
X144234153Y-90179496D01*
X144184385Y-90111392D01*
X144122949Y-90056624D01*
X144083185Y-90034240D01*
X144474897Y-90034240D01*
X144474897Y-90901015D01*
X144709212Y-90901015D01*
X144709212Y-90198070D01*
X144763505Y-90192355D01*
X144815892Y-90190450D01*
X144932097Y-90245695D01*
X144953529Y-90318561D01*
X144960672Y-90426670D01*
X144960672Y-90901015D01*
X145194988Y-90901015D01*
X145194988Y-90396190D01*
X145190701Y-90308798D01*
X145177842Y-90229502D01*
X145119740Y-90099962D01*
X145008297Y-90016142D01*
X144970669Y-90005665D01*
X145375962Y-90005665D01*
X145375962Y-90199975D01*
X145579797Y-90199975D01*
X145579797Y-90567640D01*
X145585512Y-90669319D01*
X145602657Y-90749568D01*
X145669332Y-90857200D01*
X145776012Y-90908635D01*
X145920792Y-90921970D01*
X146066525Y-90910540D01*
X146206542Y-90872440D01*
X146174157Y-90670510D01*
X146114150Y-90695275D01*
X146060810Y-90709563D01*
X146007470Y-90716230D01*
X145947462Y-90718135D01*
X145892217Y-90712420D01*
X145850307Y-90689560D01*
X145823637Y-90641935D01*
X145814112Y-90561925D01*
X145814112Y-90199975D01*
X146189397Y-90199975D01*
X146189397Y-90064720D01*
X146429427Y-90064720D01*
X146429427Y-90901015D01*
X146665647Y-90901015D01*
X146665647Y-90451435D01*
X147267628Y-90451435D01*
X147275248Y-90553114D01*
X147298108Y-90644793D01*
X147335017Y-90725517D01*
X147384785Y-90794335D01*
X147446221Y-90850056D01*
X147518135Y-90891490D01*
X147599812Y-90917208D01*
X147690538Y-90925780D01*
X147781263Y-90917208D01*
X147862940Y-90891490D01*
X147934616Y-90850056D01*
X147995338Y-90794335D01*
X148044391Y-90725517D01*
X148081063Y-90644793D01*
X148103923Y-90553114D01*
X148111543Y-90451435D01*
X148103923Y-90351184D01*
X148081063Y-90259982D01*
X148044153Y-90179496D01*
X147994385Y-90111392D01*
X147932949Y-90056624D01*
X147861035Y-90016142D01*
X147779834Y-89991139D01*
X147690538Y-89982805D01*
X147602431Y-89991139D01*
X147520993Y-90016142D01*
X147448364Y-90056624D01*
X147386690Y-90111392D01*
X147336684Y-90179496D01*
X147299060Y-90259982D01*
X147275486Y-90351184D01*
X147267628Y-90451435D01*
X146665647Y-90451435D01*
X146665647Y-90236170D01*
X146762802Y-90218072D01*
X146859957Y-90213310D01*
X146911392Y-90215215D01*
X146974257Y-90221882D01*
X147038075Y-90232360D01*
X147092367Y-90243790D01*
X147134277Y-90026620D01*
X147060935Y-90008522D01*
X146979972Y-89997092D01*
X146904725Y-89990425D01*
X146850432Y-89988520D01*
X146727322Y-89993759D01*
X146620880Y-90009475D01*
X146523963Y-90033764D01*
X146429427Y-90064720D01*
X146189397Y-90064720D01*
X146189397Y-90005665D01*
X145814112Y-90005665D01*
X145814112Y-89742775D01*
X145579797Y-89780875D01*
X145579797Y-90005665D01*
X145375962Y-90005665D01*
X144970669Y-90005665D01*
X144928764Y-89993997D01*
X144831132Y-89986615D01*
X144726596Y-89990425D01*
X144630155Y-90001855D01*
X144545144Y-90017571D01*
X144474897Y-90034240D01*
X144083185Y-90034240D01*
X144051035Y-90016142D01*
X143969834Y-89991139D01*
X143880537Y-89982805D01*
X143792431Y-89991139D01*
X143710992Y-90016142D01*
X143638364Y-90056624D01*
X143576690Y-90111392D01*
X143526684Y-90179496D01*
X143489060Y-90259982D01*
X143465486Y-90351184D01*
X143457627Y-90451435D01*
X142752231Y-90451435D01*
X142747168Y-90428893D01*
X142739442Y-90304750D01*
X142745872Y-90198070D01*
X142765160Y-90110440D01*
X142831835Y-89985662D01*
X142925180Y-89918987D01*
X143032812Y-89898985D01*
X143174735Y-89918987D01*
X143280462Y-89967565D01*
X143341422Y-89780875D01*
X143302370Y-89758015D01*
X143238552Y-89729440D01*
X143149970Y-89705627D01*
X143036622Y-89695150D01*
X142924942Y-89705389D01*
X142822310Y-89736107D01*
X142730870Y-89786590D01*
X142652765Y-89856122D01*
X142589186Y-89943991D01*
X142541322Y-90049480D01*
X142511319Y-90171876D01*
X142501317Y-90310465D01*
X141419812Y-90310465D01*
X141419277Y-90304009D01*
X141384987Y-90190027D01*
X141327837Y-90099962D01*
X141248674Y-90034875D01*
X141148344Y-89995822D01*
X141026847Y-89982805D01*
X140947790Y-89990425D01*
X140870637Y-90013285D01*
X140798724Y-90051147D01*
X140735382Y-90103772D01*
X140682042Y-90171162D01*
X140640132Y-90253315D01*
X140612986Y-90349994D01*
X140603937Y-90460960D01*
X140426772Y-90460960D01*
X140426772Y-90034240D01*
X140315224Y-90007782D01*
X140209179Y-89991907D01*
X140108637Y-89986615D01*
X139978674Y-89998680D01*
X139868184Y-90034875D01*
X139777167Y-90095200D01*
X139709434Y-90180078D01*
X139668794Y-90289933D01*
X139655247Y-90424765D01*
X139479987Y-90424765D01*
X139479987Y-90396190D01*
X139475701Y-90308798D01*
X139462842Y-90229502D01*
X139404740Y-90099962D01*
X139293297Y-90016142D01*
X139213764Y-89993997D01*
X139116132Y-89986615D01*
X139011596Y-89990425D01*
X138915155Y-90001855D01*
X138830144Y-90017571D01*
X138759897Y-90034240D01*
X138237927Y-90034240D01*
X138237927Y-90005665D01*
X137755962Y-90005665D01*
X137755962Y-90199975D01*
X137575823Y-90199975D01*
X137609277Y-90026620D01*
X137535935Y-90008522D01*
X137454972Y-89997092D01*
X137379725Y-89990425D01*
X137325432Y-89988520D01*
X137202322Y-89993759D01*
X137095880Y-90009475D01*
X136998963Y-90033764D01*
X136904427Y-90064720D01*
X136664718Y-90064720D01*
X136681542Y-90005665D01*
X136441512Y-90005665D01*
X136408175Y-90158065D01*
X136389839Y-90237837D01*
X136371027Y-90317132D01*
X136351501Y-90395714D01*
X136331022Y-90473343D01*
X136291017Y-90617170D01*
X136234820Y-90473343D01*
X136207912Y-90395476D01*
X136182432Y-90316180D01*
X136158382Y-90236170D01*
X136135760Y-90156160D01*
X136096707Y-90005665D01*
X135852867Y-90005665D01*
X135888110Y-90133360D01*
X135925257Y-90255458D01*
X135964310Y-90371961D01*
X136005267Y-90482868D01*
X136061147Y-90621615D01*
X136117027Y-90749568D01*
X136172907Y-90866725D01*
X136106232Y-90975310D01*
X135995742Y-91021030D01*
X135931925Y-91014363D01*
X135864297Y-90990550D01*
X135820482Y-91186765D01*
X134375953Y-91186765D01*
X134481109Y-90836245D01*
X134906082Y-90836245D01*
X135037527Y-90894348D01*
X135139921Y-90917922D01*
X135271842Y-90925780D01*
X135405510Y-90915726D01*
X135514412Y-90885563D01*
X135598550Y-90835293D01*
X135679274Y-90725993D01*
X135706182Y-90579070D01*
X135698086Y-90490249D01*
X135673797Y-90418098D01*
X135590930Y-90311417D01*
X135480440Y-90242837D01*
X135365187Y-90196165D01*
X135291845Y-90167590D01*
X135225170Y-90132347D01*
X135176592Y-90086627D01*
X135157542Y-90026620D01*
X135178286Y-89951478D01*
X135240516Y-89906393D01*
X135344232Y-89891365D01*
X135478535Y-89910415D01*
X135584262Y-89956135D01*
X135652842Y-89775160D01*
X135587087Y-89748490D01*
X137933127Y-89748490D01*
X137975990Y-89857075D01*
X138079812Y-89897080D01*
X138184587Y-89857075D01*
X138228402Y-89748490D01*
X138184587Y-89638000D01*
X138079812Y-89597995D01*
X137975990Y-89638000D01*
X137933127Y-89748490D01*
X135587087Y-89748490D01*
X135516635Y-89719915D01*
X135428767Y-89701341D01*
X135327087Y-89695150D01*
X135210353Y-89705522D01*
X135111611Y-89736637D01*
X135030860Y-89788495D01*
X134950136Y-89899938D01*
X134923227Y-90047575D01*
X134953707Y-90187592D01*
X135030860Y-90281890D01*
X135134682Y-90344755D01*
X135245172Y-90388570D01*
X135325182Y-90421908D01*
X135397572Y-90461913D01*
X135450912Y-90512395D01*
X135471867Y-90577165D01*
X135463295Y-90633363D01*
X135431862Y-90682893D01*
X135369950Y-90717183D01*
X135271842Y-90729565D01*
X135176831Y-90722898D01*
X135097535Y-90702895D01*
X134974662Y-90645745D01*
X134906082Y-90836245D01*
X134481109Y-90836245D01*
X134854870Y-89590375D01*
X148233463Y-89590375D01*
X148233463Y-89784685D01*
X148481113Y-89784685D01*
X148481113Y-90544780D01*
X148499686Y-90707419D01*
X148555408Y-90825768D01*
X148651610Y-90897919D01*
X148791628Y-90921970D01*
X148897355Y-90914350D01*
X148976413Y-90896253D01*
X149028800Y-90876250D01*
X149054518Y-90862915D01*
X149024038Y-90674320D01*
X148961173Y-90699085D01*
X148843063Y-90718135D01*
X148751623Y-90685750D01*
X148715428Y-90561925D01*
X148715428Y-89737060D01*
X150172753Y-89737060D01*
X150172753Y-90881965D01*
X150255144Y-90896967D01*
X150338488Y-90907683D01*
X150420879Y-90914112D01*
X150500413Y-90916255D01*
X150594472Y-90911731D01*
X150682340Y-90898158D01*
X150761398Y-90873869D01*
X150829025Y-90837198D01*
X150927133Y-90722898D01*
X150954279Y-90642649D01*
X150963328Y-90544780D01*
X150952612Y-90464770D01*
X150946986Y-90451435D01*
X151077628Y-90451435D01*
X151085248Y-90553114D01*
X151108108Y-90644793D01*
X151145017Y-90725517D01*
X151194785Y-90794335D01*
X151256221Y-90850056D01*
X151328135Y-90891490D01*
X151409812Y-90917208D01*
X151500538Y-90925780D01*
X151591263Y-90917208D01*
X151672940Y-90891490D01*
X151744616Y-90850056D01*
X151805338Y-90794335D01*
X151854391Y-90725517D01*
X151891063Y-90644793D01*
X151895576Y-90626695D01*
X152058703Y-90626695D01*
X152085373Y-90764808D01*
X152161573Y-90856248D01*
X152280635Y-90906730D01*
X152435893Y-90921970D01*
X152555431Y-90918160D01*
X152662588Y-90906730D01*
X152814988Y-90880060D01*
X152814988Y-90346660D01*
X152795938Y-90195212D01*
X152733073Y-90080912D01*
X152706867Y-90064720D01*
X153096928Y-90064720D01*
X153096928Y-90901015D01*
X153333148Y-90901015D01*
X153333148Y-90459055D01*
X153933223Y-90459055D01*
X153945182Y-90592405D01*
X153981059Y-90705435D01*
X154040855Y-90798145D01*
X154123934Y-90866937D01*
X154229662Y-90908212D01*
X154358038Y-90921970D01*
X154448525Y-90918636D01*
X154540918Y-90908635D01*
X154627119Y-90893395D01*
X154699033Y-90874345D01*
X154699033Y-90005665D01*
X155811553Y-90005665D01*
X155852093Y-90138241D01*
X155893706Y-90265459D01*
X155936390Y-90387320D01*
X155980145Y-90503823D01*
X156038883Y-90649132D01*
X156096985Y-90781529D01*
X156154453Y-90901015D01*
X156350668Y-90901015D01*
X156409088Y-90781529D01*
X156470048Y-90649132D01*
X156533548Y-90503823D01*
X156554910Y-90451435D01*
X156788818Y-90451435D01*
X156788818Y-90622885D01*
X157280308Y-90622885D01*
X157280308Y-90901015D01*
X157514623Y-90901015D01*
X157514623Y-90750520D01*
X157996588Y-90750520D01*
X158010875Y-90823863D01*
X158048975Y-90877203D01*
X158103268Y-90910540D01*
X158168038Y-90921970D01*
X158286148Y-90878155D01*
X158291522Y-90864820D01*
X158709058Y-90864820D01*
X158763350Y-90885775D01*
X158842408Y-90905778D01*
X158933848Y-90920065D01*
X159027193Y-90925780D01*
X159136254Y-90918636D01*
X159231028Y-90897205D01*
X159311514Y-90862915D01*
X159377713Y-90817195D01*
X159465343Y-90696228D01*
X159493918Y-90544780D01*
X159481006Y-90434290D01*
X159442271Y-90341580D01*
X159377713Y-90266650D01*
X159286908Y-90209923D01*
X159169433Y-90171823D01*
X159025288Y-90152350D01*
X159034813Y-90043765D01*
X159044338Y-89916130D01*
X159450103Y-89916130D01*
X159450103Y-89721820D01*
X158848123Y-89721820D01*
X158840979Y-89867314D01*
X158830978Y-90018047D01*
X158817643Y-90173067D01*
X158800498Y-90331420D01*
X158931466Y-90335468D01*
X159034813Y-90347612D01*
X159172925Y-90393332D01*
X159237695Y-90463818D01*
X159253888Y-90554305D01*
X159244363Y-90617170D01*
X159209120Y-90671463D01*
X159138635Y-90710515D01*
X159025288Y-90725755D01*
X158936229Y-90721469D01*
X158863363Y-90708610D01*
X158756683Y-90670510D01*
X158709058Y-90864820D01*
X158291522Y-90864820D01*
X158337583Y-90750520D01*
X158286148Y-90626695D01*
X158168038Y-90582880D01*
X158103268Y-90594310D01*
X158048975Y-90626695D01*
X158010875Y-90679083D01*
X157996588Y-90750520D01*
X157514623Y-90750520D01*
X157514623Y-90622885D01*
X157642258Y-90622885D01*
X157642258Y-90430480D01*
X157514623Y-90430480D01*
X157514623Y-89721820D01*
X157305073Y-89721820D01*
X157228873Y-89803021D01*
X157152673Y-89894222D01*
X157078378Y-89991139D01*
X157007893Y-90089485D01*
X156942170Y-90187354D01*
X156882163Y-90282842D01*
X156830251Y-90372139D01*
X156788818Y-90451435D01*
X156554910Y-90451435D01*
X156581053Y-90387320D01*
X156626416Y-90265459D01*
X156669636Y-90138241D01*
X156710713Y-90005665D01*
X156472588Y-90005665D01*
X156452823Y-90080436D01*
X156427820Y-90159970D01*
X156399721Y-90242123D01*
X156370670Y-90324752D01*
X156340904Y-90406429D01*
X156310663Y-90485725D01*
X156255418Y-90628600D01*
X156203030Y-90485725D01*
X156175646Y-90406429D01*
X156148738Y-90324752D01*
X156122782Y-90242123D01*
X156098255Y-90159970D01*
X156076109Y-90080436D01*
X156057298Y-90005665D01*
X155811553Y-90005665D01*
X154699033Y-90005665D01*
X154699033Y-89578945D01*
X154464718Y-89618950D01*
X154464718Y-90026620D01*
X154384708Y-89997092D01*
X154291363Y-89986615D01*
X154182883Y-90000691D01*
X154093666Y-90042918D01*
X154023710Y-90113297D01*
X153973439Y-90208018D01*
X153943277Y-90323271D01*
X153933223Y-90459055D01*
X153333148Y-90459055D01*
X153333148Y-90236170D01*
X153430303Y-90218072D01*
X153527458Y-90213310D01*
X153578893Y-90215215D01*
X153641758Y-90221882D01*
X153705575Y-90232360D01*
X153759868Y-90243790D01*
X153801778Y-90026620D01*
X153728435Y-90008522D01*
X153647473Y-89997092D01*
X153572225Y-89990425D01*
X153517933Y-89988520D01*
X153394822Y-89993759D01*
X153288380Y-90009475D01*
X153191463Y-90033764D01*
X153096928Y-90064720D01*
X152706867Y-90064720D01*
X152615915Y-90008522D01*
X152533286Y-89989234D01*
X152432083Y-89982805D01*
X152347786Y-89985901D01*
X152266348Y-89995187D01*
X152142523Y-90022810D01*
X152174908Y-90211405D01*
X152274920Y-90188545D01*
X152403508Y-90179020D01*
X152491138Y-90190212D01*
X152548288Y-90223787D01*
X152590198Y-90335230D01*
X152590198Y-90363805D01*
X152514474Y-90352375D01*
X152428273Y-90348565D01*
X152289208Y-90362852D01*
X152171098Y-90409525D01*
X152089183Y-90495250D01*
X152058703Y-90626695D01*
X151895576Y-90626695D01*
X151913923Y-90553114D01*
X151921543Y-90451435D01*
X151913923Y-90351184D01*
X151891063Y-90259982D01*
X151854153Y-90179496D01*
X151804385Y-90111392D01*
X151742949Y-90056624D01*
X151671035Y-90016142D01*
X151589834Y-89991139D01*
X151500538Y-89982805D01*
X151412431Y-89991139D01*
X151330992Y-90016142D01*
X151258364Y-90056624D01*
X151196690Y-90111392D01*
X151146684Y-90179496D01*
X151109060Y-90259982D01*
X151085486Y-90351184D01*
X151077628Y-90451435D01*
X150946986Y-90451435D01*
X150920465Y-90388570D01*
X150858314Y-90321895D01*
X150757588Y-90270460D01*
X150867125Y-90167590D01*
X150897843Y-90098057D01*
X150908083Y-90019000D01*
X150890938Y-89908510D01*
X150826168Y-89808497D01*
X150694723Y-89736107D01*
X150598520Y-89715391D01*
X150477553Y-89708485D01*
X150319438Y-89717057D01*
X150172753Y-89737060D01*
X148715428Y-89737060D01*
X148715428Y-89590375D01*
X148233463Y-89590375D01*
X134854870Y-89590375D01*
X134905924Y-89420195D01*
G37*
G36*
X147772691Y-90204976D02*
G01*
X147828650Y-90259982D01*
X147860797Y-90344993D01*
X147871513Y-90453340D01*
X147859844Y-90561925D01*
X147824840Y-90647650D01*
X147766976Y-90703371D01*
X147686728Y-90721945D01*
X147604574Y-90703371D01*
X147548615Y-90647650D01*
X147516468Y-90561925D01*
X147505753Y-90453340D01*
X147517421Y-90344993D01*
X147552425Y-90259982D01*
X147610289Y-90204976D01*
X147690538Y-90186640D01*
X147772691Y-90204976D01*
G37*
G36*
X141110667Y-90195212D02*
G01*
X141164007Y-90238075D01*
X141194487Y-90298082D01*
X141204012Y-90367615D01*
X140845872Y-90367615D01*
X140862065Y-90297130D01*
X140896355Y-90236170D01*
X140951600Y-90194260D01*
X141030657Y-90179020D01*
X141110667Y-90195212D01*
G37*
G36*
X157280308Y-90430480D02*
G01*
X157013608Y-90430480D01*
X157070758Y-90321895D01*
X157138385Y-90212357D01*
X157209823Y-90108535D01*
X157280308Y-90015190D01*
X157280308Y-90430480D01*
G37*
X166718000Y-95812000D02*
X167048000Y-95812000D01*
X169708000Y-96472000D02*
X175708000Y-96472000D01*
X167048000Y-94862000D02*
X167048000Y-112762000D01*
X167048000Y-97462000D02*
X169708000Y-97462000D01*
X175708000Y-104192000D02*
X169708000Y-104192000D01*
X169708000Y-111052000D02*
X175708000Y-111052000D01*
X169708000Y-95872000D02*
X175708000Y-95872000D01*
X169708000Y-96232000D02*
X175708000Y-96232000D01*
X166650929Y-108512000D02*
X167048000Y-108512000D01*
X169708000Y-96352000D02*
X175708000Y-96352000D01*
X169708000Y-95992000D02*
X175708000Y-95992000D01*
X167048000Y-110162000D02*
X169708000Y-110162000D01*
X164338000Y-96192000D02*
X164338000Y-94922000D01*
X166650929Y-101652000D02*
X167048000Y-101652000D01*
X166650929Y-98352000D02*
X167048000Y-98352000D01*
X167048000Y-107622000D02*
X169708000Y-107622000D01*
X169708000Y-112762000D02*
X169708000Y-94862000D01*
X166718000Y-96572000D02*
X167048000Y-96572000D01*
X167048000Y-102542000D02*
X169708000Y-102542000D01*
X166650929Y-103432000D02*
X167048000Y-103432000D01*
X167048000Y-105082000D02*
X169708000Y-105082000D01*
X166650929Y-100892000D02*
X167048000Y-100892000D01*
X175708000Y-95812000D02*
X175708000Y-96572000D01*
X166650929Y-111052000D02*
X167048000Y-111052000D01*
X169708000Y-103432000D02*
X175708000Y-103432000D01*
X169708000Y-105972000D02*
X175708000Y-105972000D01*
X175708000Y-96572000D02*
X169708000Y-96572000D01*
X175708000Y-103432000D02*
X175708000Y-104192000D01*
X169708000Y-108512000D02*
X175708000Y-108512000D01*
X175708000Y-105972000D02*
X175708000Y-106732000D01*
X175708000Y-100892000D02*
X175708000Y-101652000D01*
X175708000Y-111812000D02*
X169708000Y-111812000D01*
X175708000Y-101652000D02*
X169708000Y-101652000D01*
X169708000Y-96112000D02*
X175708000Y-96112000D01*
X167048000Y-112762000D02*
X169708000Y-112762000D01*
X169708000Y-98352000D02*
X175708000Y-98352000D01*
X169708000Y-100892000D02*
X175708000Y-100892000D01*
X175708000Y-99112000D02*
X169708000Y-99112000D01*
X169708000Y-95812000D02*
X175708000Y-95812000D01*
X175708000Y-106732000D02*
X169708000Y-106732000D01*
X167048000Y-100002000D02*
X169708000Y-100002000D01*
X166650929Y-109272000D02*
X167048000Y-109272000D01*
X175708000Y-98352000D02*
X175708000Y-99112000D01*
X169708000Y-94862000D02*
X167048000Y-94862000D01*
X164338000Y-94922000D02*
X165608000Y-94922000D01*
X166650929Y-111812000D02*
X167048000Y-111812000D01*
X175708000Y-108512000D02*
X175708000Y-109272000D01*
X166650929Y-106732000D02*
X167048000Y-106732000D01*
X175708000Y-109272000D02*
X169708000Y-109272000D01*
X166650929Y-104192000D02*
X167048000Y-104192000D01*
X166650929Y-99112000D02*
X167048000Y-99112000D01*
X175708000Y-111052000D02*
X175708000Y-111812000D01*
X166650929Y-105972000D02*
X167048000Y-105972000D01*
X167670000Y-89105000D02*
X167035000Y-89105000D01*
X167670000Y-88470000D02*
X167670000Y-89105000D01*
X133310000Y-86070000D02*
X133310000Y-86300000D01*
X132790000Y-82400000D02*
X132790000Y-86300000D01*
X132790000Y-82400000D02*
X140510000Y-82400000D01*
X139450000Y-86070000D02*
X139990000Y-86070000D01*
X140510000Y-82400000D02*
X140510000Y-86300000D01*
X133310000Y-86070000D02*
X133850000Y-86070000D01*
X139990000Y-86070000D02*
X139990000Y-86300000D01*
X134950000Y-86070000D02*
X138350000Y-86070000D01*
X153035955Y-67396000D02*
X153035955Y-76026000D01*
X153485000Y-76026000D02*
X153485000Y-76376000D01*
X146775000Y-67396000D02*
X146775000Y-76026000D01*
X151855000Y-67396000D02*
X151855000Y-76026000D01*
X149315000Y-67396000D02*
X149315000Y-76026000D01*
X153508335Y-67396000D02*
X153508335Y-76026000D01*
X154335000Y-67396000D02*
X154335000Y-76026000D01*
X153390240Y-67396000D02*
X153390240Y-76026000D01*
X143325000Y-76026000D02*
X143325000Y-76436000D01*
X152765000Y-76026000D02*
X152765000Y-76376000D01*
X148405000Y-76026000D02*
X148405000Y-76436000D01*
X137525000Y-76026000D02*
X137525000Y-76436000D01*
X147685000Y-76026000D02*
X147685000Y-76436000D01*
X152209290Y-67396000D02*
X152209290Y-76026000D01*
X152799765Y-67396000D02*
X152799765Y-76026000D01*
X154455000Y-67396000D02*
X136555000Y-67396000D01*
X153154050Y-67396000D02*
X153154050Y-76026000D01*
X154098810Y-67396000D02*
X154098810Y-76026000D01*
X140785000Y-76026000D02*
X140785000Y-76436000D01*
X140065000Y-76026000D02*
X140065000Y-76436000D01*
X152327385Y-67396000D02*
X152327385Y-76026000D01*
X154455000Y-67396000D02*
X154455000Y-76026000D01*
X150225000Y-76026000D02*
X150225000Y-76436000D01*
X141695000Y-67396000D02*
X141695000Y-76026000D01*
X152445480Y-67396000D02*
X152445480Y-76026000D01*
X151973100Y-67396000D02*
X151973100Y-76026000D01*
X138245000Y-76026000D02*
X138245000Y-76436000D01*
X139155000Y-67396000D02*
X139155000Y-76026000D01*
X152681670Y-67396000D02*
X152681670Y-76026000D01*
X152091195Y-67396000D02*
X152091195Y-76026000D01*
X153744525Y-67396000D02*
X153744525Y-76026000D01*
X153626430Y-67396000D02*
X153626430Y-76026000D01*
X145145000Y-76026000D02*
X145145000Y-76436000D01*
X150945000Y-76026000D02*
X150945000Y-76436000D01*
X144235000Y-67396000D02*
X144235000Y-76026000D01*
X142605000Y-76026000D02*
X142605000Y-76436000D01*
X154455000Y-76026000D02*
X136555000Y-76026000D01*
X153272145Y-67396000D02*
X153272145Y-76026000D01*
X154216905Y-67396000D02*
X154216905Y-76026000D01*
X145865000Y-76026000D02*
X145865000Y-76436000D01*
X152917860Y-67396000D02*
X152917860Y-76026000D01*
X153862620Y-67396000D02*
X153862620Y-76026000D01*
X136555000Y-67396000D02*
X136555000Y-76026000D01*
X152563575Y-67396000D02*
X152563575Y-76026000D01*
X153980715Y-67396000D02*
X153980715Y-76026000D01*
X134368000Y-105142420D02*
X134368000Y-105423580D01*
X133348000Y-105142420D02*
X133348000Y-105423580D01*
G36*
X162664595Y-78474295D02*
G01*
X162579505Y-78300305D01*
X162748415Y-78300305D01*
X162664595Y-78474295D01*
G37*
G36*
X162085086Y-79001398D02*
G01*
X162026424Y-78992697D01*
X161968897Y-78978287D01*
X161913060Y-78958308D01*
X161859449Y-78932952D01*
X161808583Y-78902464D01*
X161760949Y-78867137D01*
X161717008Y-78827311D01*
X161677182Y-78783369D01*
X161641854Y-78735736D01*
X161611366Y-78684869D01*
X161586010Y-78631259D01*
X161566031Y-78575421D01*
X161551622Y-78517895D01*
X161542920Y-78459233D01*
X161540010Y-78400000D01*
X161542920Y-78340767D01*
X161551622Y-78282105D01*
X161566031Y-78224579D01*
X161586010Y-78168741D01*
X161611366Y-78115131D01*
X161641854Y-78064264D01*
X161677182Y-78016631D01*
X161687121Y-78005665D01*
X162197235Y-78005665D01*
X162218825Y-78070435D01*
X162561725Y-78779095D01*
X162603635Y-78828625D01*
X162663325Y-78845135D01*
X162723650Y-78827355D01*
X162766195Y-78780365D01*
X163109095Y-78070435D01*
X163124335Y-78024715D01*
X163490095Y-78024715D01*
X163515495Y-78114885D01*
X163537085Y-78125680D01*
X163572010Y-78127585D01*
X163605665Y-78139650D01*
X163613285Y-78197435D01*
X163613285Y-78785445D01*
X163615190Y-78829895D01*
X163627255Y-78864185D01*
X163660910Y-78889903D01*
X163723775Y-78898475D01*
X163789180Y-78889903D01*
X163822835Y-78864185D01*
X163833630Y-78830530D01*
X163835535Y-78786715D01*
X163835535Y-78784175D01*
X163937135Y-78784175D01*
X163939040Y-78827990D01*
X163951105Y-78861645D01*
X163983490Y-78887363D01*
X164047625Y-78895935D01*
X164113030Y-78887363D01*
X164146685Y-78861645D01*
X164157480Y-78829260D01*
X164159385Y-78785445D01*
X164157480Y-78741630D01*
X164146050Y-78707975D01*
X164132428Y-78697180D01*
X165003935Y-78697180D01*
X165036955Y-78757505D01*
X165072515Y-78780365D01*
X165102995Y-78798145D01*
X165196340Y-78835610D01*
X165257459Y-78849421D01*
X165317625Y-78854025D01*
X165401304Y-78846405D01*
X165484701Y-78823545D01*
X165567815Y-78785445D01*
X165630204Y-78745599D01*
X165685290Y-78697180D01*
X165732121Y-78637490D01*
X165769745Y-78563830D01*
X165794510Y-78478581D01*
X165802765Y-78384125D01*
X165794351Y-78288716D01*
X165769110Y-78200610D01*
X165730851Y-78123775D01*
X165683385Y-78062180D01*
X165627981Y-78012332D01*
X165565910Y-77970740D01*
X165501457Y-77938672D01*
X165438910Y-77917400D01*
X165377632Y-77905494D01*
X165316990Y-77901525D01*
X165255554Y-77906605D01*
X165191895Y-77921845D01*
X165106170Y-77954865D01*
X165062355Y-77981535D01*
X165022350Y-78013285D01*
X165005205Y-78057735D01*
X165033145Y-78128855D01*
X165077277Y-78182195D01*
X165118235Y-78199975D01*
X165179195Y-78174575D01*
X165202055Y-78158065D01*
X165252220Y-78137745D01*
X165326515Y-78127585D01*
X165408747Y-78141555D01*
X165487805Y-78183465D01*
X165552575Y-78263475D01*
X165571625Y-78317609D01*
X165577975Y-78378410D01*
X165571625Y-78439211D01*
X165552575Y-78493345D01*
X165489075Y-78572085D01*
X165408430Y-78614948D01*
X165326515Y-78629235D01*
X165246505Y-78618440D01*
X165184275Y-78586055D01*
X165119505Y-78558115D01*
X165077595Y-78575260D01*
X165030605Y-78626695D01*
X165003935Y-78697180D01*
X164132428Y-78697180D01*
X164112395Y-78681305D01*
X164048260Y-78673685D01*
X163984125Y-78681305D01*
X163950470Y-78707340D01*
X163939040Y-78740360D01*
X163937135Y-78784175D01*
X163835535Y-78784175D01*
X163835535Y-78182195D01*
X163826645Y-78064720D01*
X163813415Y-78024715D01*
X163937135Y-78024715D01*
X163937135Y-78469215D01*
X163938405Y-78506045D01*
X163961265Y-78560655D01*
X164047625Y-78582245D01*
X164113030Y-78573990D01*
X164146685Y-78549225D01*
X164157480Y-78515570D01*
X164159385Y-78471755D01*
X164159385Y-78249505D01*
X164241935Y-78249505D01*
X164253647Y-78345108D01*
X164288784Y-78428716D01*
X164347345Y-78500330D01*
X164421146Y-78555011D01*
X164502003Y-78587819D01*
X164589915Y-78598755D01*
X164677968Y-78587748D01*
X164759248Y-78554728D01*
X164833755Y-78499695D01*
X164893022Y-78427728D01*
X164928582Y-78343908D01*
X164940435Y-78248235D01*
X164926941Y-78151874D01*
X164886460Y-78065990D01*
X164826294Y-77995187D01*
X164753745Y-77944070D01*
X164673735Y-77913114D01*
X164591185Y-77902795D01*
X164508794Y-77912479D01*
X164429260Y-77941530D01*
X164357029Y-77991060D01*
X164296545Y-78062180D01*
X164255587Y-78149969D01*
X164241935Y-78249505D01*
X164159385Y-78249505D01*
X164159385Y-78025985D01*
X164157480Y-77981535D01*
X164146685Y-77948515D01*
X164113347Y-77922797D01*
X164048895Y-77914225D01*
X163983807Y-77922480D01*
X163951105Y-77947245D01*
X163939040Y-77980900D01*
X163937135Y-78024715D01*
X163813415Y-78024715D01*
X163799975Y-77984075D01*
X163753620Y-77941847D01*
X163672975Y-77919305D01*
X163571375Y-77913590D01*
X163515495Y-77926925D01*
X163496445Y-77960262D01*
X163490095Y-78024715D01*
X163124335Y-78024715D01*
X163130685Y-78005665D01*
X163112270Y-77962485D01*
X163057025Y-77924385D01*
X162989080Y-77902795D01*
X162948440Y-77914860D01*
X162925580Y-77938355D01*
X162905895Y-77975185D01*
X162839855Y-78112345D01*
X162488065Y-78112345D01*
X162422025Y-77975185D01*
X162402340Y-77937085D01*
X162379480Y-77912955D01*
X162338840Y-77901525D01*
X162270895Y-77923115D01*
X162215650Y-77962167D01*
X162197235Y-78005665D01*
X161687121Y-78005665D01*
X161717008Y-77972689D01*
X161760949Y-77932863D01*
X161808583Y-77897536D01*
X161859449Y-77867048D01*
X161913060Y-77841692D01*
X161968897Y-77821713D01*
X162026424Y-77807303D01*
X162085086Y-77798602D01*
X162144318Y-77795692D01*
X165855682Y-77795692D01*
X165914914Y-77798602D01*
X165973576Y-77807303D01*
X166031103Y-77821713D01*
X166086940Y-77841692D01*
X166140551Y-77867048D01*
X166191417Y-77897536D01*
X166239051Y-77932863D01*
X166282992Y-77972689D01*
X166322818Y-78016631D01*
X166358146Y-78064264D01*
X166388634Y-78115131D01*
X166413990Y-78168741D01*
X166433969Y-78224579D01*
X166448378Y-78282105D01*
X166457080Y-78340767D01*
X166459990Y-78400000D01*
X166457080Y-78459233D01*
X166448378Y-78517895D01*
X166433969Y-78575421D01*
X166413990Y-78631259D01*
X166388634Y-78684869D01*
X166358146Y-78735736D01*
X166322818Y-78783369D01*
X166282992Y-78827311D01*
X166239051Y-78867137D01*
X166191417Y-78902464D01*
X166140551Y-78932952D01*
X166086940Y-78958308D01*
X166031103Y-78978287D01*
X165973576Y-78992697D01*
X165914914Y-79001398D01*
X165855682Y-79004308D01*
X162144318Y-79004308D01*
X162085086Y-79001398D01*
G37*
G36*
X164675005Y-78157430D02*
G01*
X164705485Y-78196165D01*
X164715645Y-78250140D01*
X164705802Y-78304274D01*
X164676275Y-78343485D01*
X164591185Y-78375235D01*
X164506095Y-78344755D01*
X164476567Y-78306337D01*
X164466725Y-78252045D01*
X164477202Y-78197435D01*
X164508635Y-78158065D01*
X164592455Y-78126315D01*
X164675005Y-78157430D01*
G37*
X123840000Y-102060580D02*
X123840000Y-101779420D01*
X124860000Y-102060580D02*
X124860000Y-101779420D01*
X161987000Y-75048000D02*
X166987000Y-75048000D01*
X166987000Y-75048000D02*
X166987000Y-77548000D01*
X166987000Y-77548000D02*
X161987000Y-77548000D01*
X161987000Y-77548000D02*
X161987000Y-75048000D01*
X166987000Y-72548000D02*
X161987000Y-72548000D01*
X161987000Y-72548000D02*
X161987000Y-75048000D01*
X161987000Y-75048000D02*
X166987000Y-75048000D01*
X166987000Y-75048000D02*
X166987000Y-72548000D01*
X127730000Y-103560000D02*
X126930000Y-103560000D01*
X127730000Y-100440000D02*
X125930000Y-100440000D01*
X127730000Y-100440000D02*
X128530000Y-100440000D01*
X127730000Y-103560000D02*
X128530000Y-103560000D01*
X133437258Y-102630500D02*
X132962742Y-102630500D01*
X133437258Y-101585500D02*
X132962742Y-101585500D01*
X134390580Y-96240000D02*
X134109420Y-96240000D01*
X134390580Y-97260000D02*
X134109420Y-97260000D01*
X143390000Y-82400000D02*
X151110000Y-82400000D01*
X145550000Y-86070000D02*
X148950000Y-86070000D01*
X150590000Y-86070000D02*
X150590000Y-86300000D01*
X151110000Y-82400000D02*
X151110000Y-86300000D01*
X143910000Y-86070000D02*
X143910000Y-86300000D01*
X143390000Y-82400000D02*
X143390000Y-86300000D01*
X143910000Y-86070000D02*
X144450000Y-86070000D01*
X150050000Y-86070000D02*
X150590000Y-86070000D01*
X116097000Y-100139998D02*
X131817000Y-100139998D01*
X131817000Y-100139998D02*
X131817000Y-82379998D01*
X131897000Y-96349998D02*
X132397000Y-96849998D01*
X132397000Y-96849998D02*
X132397000Y-95849998D01*
X116087000Y-100139998D02*
X116087000Y-82379998D01*
X132397000Y-95849998D02*
X131897000Y-96349998D01*
X116087000Y-82379998D02*
X131817000Y-82379998D01*
G36*
X125143849Y-77682584D02*
G01*
X125133086Y-77755141D01*
X125115263Y-77826294D01*
X125090552Y-77895357D01*
X125059190Y-77961665D01*
X125021480Y-78024581D01*
X124977785Y-78083497D01*
X124928525Y-78137846D01*
X124874176Y-78187106D01*
X124815260Y-78230801D01*
X124752345Y-78268511D01*
X124686036Y-78299873D01*
X124616973Y-78324584D01*
X124545820Y-78342407D01*
X124473263Y-78353170D01*
X124400000Y-78356769D01*
X124326737Y-78353170D01*
X124254180Y-78342407D01*
X124183027Y-78324584D01*
X124113964Y-78299873D01*
X124047655Y-78268511D01*
X123984740Y-78230801D01*
X123925824Y-78187106D01*
X123871475Y-78137846D01*
X123822215Y-78083497D01*
X123778520Y-78024581D01*
X123740810Y-77961665D01*
X123709448Y-77895357D01*
X123684737Y-77826294D01*
X123666914Y-77755141D01*
X123656151Y-77682584D01*
X123652552Y-77609321D01*
X123652552Y-76779587D01*
X123784844Y-76779587D01*
X123784844Y-77400300D01*
X123803894Y-77498725D01*
X123845169Y-77532856D01*
X123925337Y-77543175D01*
X124006300Y-77533650D01*
X124052337Y-77496344D01*
X124067419Y-77403475D01*
X124067419Y-77112962D01*
X124075356Y-77112962D01*
X124091231Y-77152650D01*
X124144809Y-77251075D01*
X124232519Y-77362200D01*
X124289669Y-77413794D01*
X124362694Y-77457450D01*
X124446038Y-77487216D01*
X124534144Y-77497137D01*
X124643240Y-77483908D01*
X124744047Y-77444221D01*
X124836563Y-77378075D01*
X124910205Y-77290674D01*
X124954390Y-77187222D01*
X124969119Y-77067719D01*
X124954567Y-76948303D01*
X124910910Y-76845116D01*
X124838150Y-76758156D01*
X124747045Y-76692451D01*
X124648356Y-76653028D01*
X124542081Y-76639887D01*
X124461119Y-76647825D01*
X124415875Y-76691084D01*
X124400794Y-76779587D01*
X124410319Y-76860550D01*
X124438894Y-76903412D01*
X124478581Y-76918494D01*
X124530969Y-76920875D01*
X124540494Y-76920875D01*
X124577006Y-76927225D01*
X124650825Y-76969294D01*
X124688131Y-77057400D01*
X124673844Y-77136775D01*
X124642888Y-77178844D01*
X124600025Y-77203450D01*
X124559544Y-77214562D01*
X124490091Y-77199680D01*
X124424606Y-77155031D01*
X124364480Y-77089348D01*
X124311100Y-77011362D01*
X124260697Y-76927225D01*
X124209500Y-76843087D01*
X124152747Y-76765102D01*
X124085675Y-76699419D01*
X124010070Y-76654770D01*
X123927719Y-76639887D01*
X123827706Y-76681162D01*
X123784844Y-76779587D01*
X123652552Y-76779587D01*
X123652552Y-75992187D01*
X123788019Y-75992187D01*
X123790400Y-76045369D01*
X123803894Y-76087437D01*
X123845566Y-76120775D01*
X123926131Y-76131887D01*
X124032494Y-76095375D01*
X124047575Y-76053306D01*
X124049956Y-75996156D01*
X124069006Y-75945356D01*
X124130919Y-75931862D01*
X124349994Y-75931862D01*
X124343644Y-76035050D01*
X124346025Y-76089819D01*
X124359519Y-76131887D01*
X124401191Y-76164034D01*
X124481756Y-76174750D01*
X124563116Y-76164431D01*
X124603994Y-76133475D01*
X124619075Y-76091406D01*
X124621456Y-76037431D01*
X124615106Y-75931862D01*
X124770681Y-75931862D01*
X124851644Y-75923925D01*
X124895697Y-75881459D01*
X124910381Y-75795337D01*
X124900459Y-75713978D01*
X124870694Y-75673100D01*
X124832594Y-75658019D01*
X124778619Y-75655637D01*
X124615106Y-75655637D01*
X124621456Y-75603250D01*
X124600819Y-75539750D01*
X124558750Y-75517525D01*
X124464294Y-75509587D01*
X124372219Y-75532606D01*
X124345231Y-75590550D01*
X124349994Y-75655637D01*
X124115044Y-75655637D01*
X124007976Y-75665162D01*
X123923838Y-75693737D01*
X123862631Y-75741362D01*
X123821180Y-75807332D01*
X123796309Y-75890940D01*
X123788019Y-75992187D01*
X123652552Y-75992187D01*
X123652552Y-75282575D01*
X123788019Y-75282575D01*
X123798337Y-75363934D01*
X123829294Y-75404812D01*
X123871362Y-75419894D01*
X123926131Y-75422275D01*
X124481756Y-75422275D01*
X124527794Y-75420687D01*
X124596056Y-75392112D01*
X124623044Y-75284162D01*
X124622944Y-75283369D01*
X124737344Y-75283369D01*
X124746869Y-75363537D01*
X124779413Y-75405606D01*
X124820688Y-75419894D01*
X124875456Y-75422275D01*
X124930225Y-75419894D01*
X124972294Y-75404812D01*
X125004441Y-75364331D01*
X125015156Y-75284162D01*
X125004441Y-75202406D01*
X124972294Y-75160337D01*
X124931813Y-75146844D01*
X124877044Y-75144462D01*
X124822275Y-75146844D01*
X124780206Y-75161131D01*
X124746869Y-75203200D01*
X124737344Y-75283369D01*
X124622944Y-75283369D01*
X124612725Y-75202406D01*
X124581769Y-75160337D01*
X124539700Y-75146844D01*
X124484931Y-75144462D01*
X123927719Y-75144462D01*
X123872156Y-75146844D01*
X123830881Y-75160337D01*
X123798734Y-75202009D01*
X123788019Y-75282575D01*
X123652552Y-75282575D01*
X123652552Y-73931612D01*
X123788019Y-73931612D01*
X123798337Y-74012575D01*
X123829294Y-74055437D01*
X123871362Y-74070519D01*
X123926131Y-74072900D01*
X124207119Y-74072900D01*
X124310703Y-74096712D01*
X124345231Y-74168150D01*
X124310703Y-74241969D01*
X124207119Y-74266575D01*
X123929306Y-74266575D01*
X123874537Y-74268956D01*
X123832469Y-74282450D01*
X123799131Y-74324122D01*
X123788019Y-74404687D01*
X123798734Y-74486444D01*
X123830881Y-74528512D01*
X123872156Y-74543594D01*
X123927719Y-74545975D01*
X124205531Y-74545975D01*
X124308719Y-74565819D01*
X124345231Y-74641225D01*
X124310703Y-74715044D01*
X124207119Y-74739650D01*
X123929306Y-74739650D01*
X123874537Y-74742031D01*
X123832469Y-74755525D01*
X123799131Y-74797197D01*
X123788019Y-74877762D01*
X123798734Y-74959122D01*
X123830881Y-75000000D01*
X123872950Y-75015081D01*
X123927719Y-75017462D01*
X124205531Y-75017462D01*
X124341615Y-75007937D01*
X124449301Y-74979362D01*
X124528588Y-74931737D01*
X124601811Y-74835694D01*
X124626219Y-74719012D01*
X124595263Y-74607887D01*
X124538113Y-74529306D01*
X124488106Y-74487237D01*
X124564835Y-74425149D01*
X124610873Y-74344715D01*
X124626219Y-74245937D01*
X124598041Y-74148703D01*
X124513506Y-74066550D01*
X124596056Y-74039562D01*
X124624631Y-73923675D01*
X124613916Y-73851047D01*
X124581769Y-73810962D01*
X124541288Y-73795881D01*
X124486519Y-73793500D01*
X123927719Y-73793500D01*
X123872156Y-73795881D01*
X123830881Y-73809375D01*
X123798734Y-73851047D01*
X123788019Y-73931612D01*
X123652552Y-73931612D01*
X123652552Y-73526800D01*
X123788019Y-73526800D01*
X123798337Y-73608159D01*
X123829294Y-73649037D01*
X123871362Y-73664119D01*
X123926131Y-73666500D01*
X124481756Y-73666500D01*
X124527794Y-73664912D01*
X124596056Y-73636337D01*
X124623044Y-73528387D01*
X124622944Y-73527594D01*
X124737344Y-73527594D01*
X124746869Y-73607762D01*
X124779413Y-73649831D01*
X124820688Y-73664119D01*
X124875456Y-73666500D01*
X124930225Y-73664119D01*
X124972294Y-73649037D01*
X125004441Y-73608556D01*
X125015156Y-73528387D01*
X125004441Y-73446631D01*
X124972294Y-73404562D01*
X124931813Y-73391069D01*
X124877044Y-73388687D01*
X124822275Y-73391069D01*
X124780206Y-73405356D01*
X124746869Y-73447425D01*
X124737344Y-73527594D01*
X124622944Y-73527594D01*
X124612725Y-73446631D01*
X124581769Y-73404562D01*
X124539700Y-73391069D01*
X124484931Y-73388687D01*
X123927719Y-73388687D01*
X123872156Y-73391069D01*
X123830881Y-73404562D01*
X123798734Y-73446234D01*
X123788019Y-73526800D01*
X123652552Y-73526800D01*
X123652552Y-72596525D01*
X123788019Y-72596525D01*
X123788019Y-73168025D01*
X123803894Y-73250575D01*
X123838819Y-73277562D01*
X123906287Y-73285500D01*
X123973756Y-73277562D01*
X124011062Y-73245812D01*
X124022969Y-73169612D01*
X124022969Y-72737812D01*
X124810369Y-72737812D01*
X124892919Y-72729875D01*
X124936972Y-72686616D01*
X124951656Y-72598112D01*
X124940941Y-72516356D01*
X124908794Y-72474287D01*
X124866725Y-72459206D01*
X124811956Y-72456825D01*
X123929306Y-72456825D01*
X123848344Y-72466350D01*
X123803100Y-72508419D01*
X123788019Y-72596525D01*
X123652552Y-72596525D01*
X123652552Y-72390679D01*
X123656151Y-72317416D01*
X123666914Y-72244859D01*
X123684737Y-72173706D01*
X123709448Y-72104643D01*
X123740810Y-72038335D01*
X123778520Y-71975419D01*
X123822215Y-71916503D01*
X123871475Y-71862154D01*
X123925824Y-71812894D01*
X123984740Y-71769199D01*
X124047655Y-71731489D01*
X124113964Y-71700127D01*
X124183027Y-71675416D01*
X124254180Y-71657593D01*
X124326737Y-71646830D01*
X124400000Y-71643231D01*
X124473263Y-71646830D01*
X124545820Y-71657593D01*
X124616973Y-71675416D01*
X124686036Y-71700127D01*
X124752345Y-71731489D01*
X124815260Y-71769199D01*
X124874176Y-71812894D01*
X124928525Y-71862154D01*
X124977785Y-71916503D01*
X125021480Y-71975419D01*
X125059190Y-72038335D01*
X125090552Y-72104643D01*
X125115263Y-72173706D01*
X125133086Y-72244859D01*
X125143849Y-72317416D01*
X125147448Y-72390679D01*
X125147448Y-77609321D01*
X125143849Y-77682584D01*
G37*
M02*
