M48
; DRILL file {KiCad (5.99.0-6632-gb710573c5)} date Monday, November 23, 2020 at 05:19:49 PM
; FORMAT={-:-/ absolute / inch / decimal}
; #@! TF.CreationDate,2020-11-23T17:19:49-05:00
; #@! TF.GenerationSoftware,Kicad,Pcbnew,(5.99.0-6632-gb710573c5)
; #@! TF.FileFunction,Plated,1,2,PTH
FMAT,2
INCH
T1C0.0079
T2C0.0157
T3C0.0394
%
G90
G05
T1
X6.2108Y-3.4156
X6.2108Y-3.455
X6.2108Y-3.4943
X6.2502Y-3.4156
X6.2502Y-3.455
X6.2502Y-3.4943
X6.2895Y-3.4156
X6.2895Y-3.455
X6.2895Y-3.4943
T2
X4.63Y-4.74
X4.71Y-4.69
X4.97Y-3.89
X5.28Y-3.46
X5.29Y-4.51
X5.3226Y-4.7397
X5.33Y-4.69
X5.34Y-4.6
X5.35Y-4.0
X5.36Y-4.88
X5.4Y-4.36
X5.42Y-3.68
X5.49Y-4.714
X5.52Y-4.4
X5.5498Y-4.8498
X5.57Y-3.36
X5.57Y-4.56
X5.57Y-4.62
X5.59Y-4.16
X5.6Y-4.2674
X5.6Y-4.39
X5.6226Y-4.5202
X5.64Y-4.725
X5.6615Y-4.5263
X5.7498Y-4.4198
X5.835Y-4.309
X5.8772Y-4.5994
X5.885Y-3.475
X5.89Y-4.78
X5.936Y-4.11
X5.955Y-4.615
X5.9559Y-2.97
X5.99Y-4.865
X5.995Y-3.42
X6.03Y-4.38
X6.04Y-4.58
X6.06Y-3.63
X6.08Y-4.08
X6.1044Y-4.6603
X6.13Y-4.52
X6.16Y-3.5947
X6.19Y-4.14
X6.19Y-4.69
X6.25Y-3.3
X6.405Y-3.485
X6.4093Y-3.624
X6.44Y-4.94
X6.45Y-3.515
T3
X4.6959Y-2.944
X4.6959Y-3.044
X4.7959Y-2.944
X4.7959Y-3.044
X4.835Y-5.02
X4.935Y-5.02
X5.035Y-5.02
X5.135Y-5.02
X5.235Y-4.22
X5.235Y-5.02
X5.335Y-4.22
X5.335Y-5.02
X5.435Y-4.22
X5.435Y-5.02
X5.535Y-4.22
X5.535Y-5.02
X5.635Y-4.22
X5.635Y-5.02
X5.735Y-4.22
X5.735Y-5.02
X5.835Y-4.22
X5.835Y-5.02
X5.935Y-4.22
X5.935Y-5.02
X6.035Y-4.22
X6.035Y-5.02
X6.135Y-4.22
X6.135Y-5.02
X6.235Y-4.22
X6.235Y-5.02
X6.335Y-4.22
X6.335Y-5.02
X5.433Y-3.09
X5.533Y-3.09
X5.633Y-3.09
X5.733Y-3.09
X5.833Y-3.09
X5.933Y-3.09
X6.033Y-3.09
X6.52Y-3.7871
X6.52Y-3.8871
X6.52Y-3.9871
X6.52Y-4.0871
X6.52Y-4.1871
X6.52Y-4.2871
X6.52Y-4.3871
X6.4259Y-2.944
X6.4259Y-3.044
X6.5259Y-2.944
X6.5259Y-3.044
T0
M30
