G04 #@! TF.GenerationSoftware,KiCad,Pcbnew,(5.99.0-6632-gb710573c5)*
G04 #@! TF.CreationDate,2020-11-23T17:19:52-05:00*
G04 #@! TF.ProjectId,syringe_board,73797269-6e67-4655-9f62-6f6172642e6b,3.3*
G04 #@! TF.SameCoordinates,Original*
G04 #@! TF.FileFunction,Profile,NP*
%FSLAX46Y46*%
G04 Gerber Fmt 4.6, Leading zero omitted, Abs format (unit mm)*
G04 Created by KiCad (PCBNEW (5.99.0-6632-gb710573c5)) date 2020-11-23 17:19:52*
%MOMM*%
%LPD*%
G01*
G04 APERTURE LIST*
G04 #@! TA.AperFunction,Profile*
%ADD10C,0.050000*%
G04 #@! TD*
G04 APERTURE END LIST*
D10*
X115951000Y-84582000D02*
X115951000Y-126746000D01*
X169291000Y-126746000D02*
G75*
G02*
X167005000Y-129032000I-2286000J0D01*
G01*
X115951000Y-84582000D02*
G75*
G02*
X118237000Y-82296000I2286000J0D01*
G01*
X167005000Y-82296000D02*
G75*
G02*
X169291000Y-84582000I0J-2286000D01*
G01*
X118237000Y-82296000D02*
X123908000Y-82296000D01*
X118491000Y-72390000D02*
G75*
G03*
X117094000Y-73787000I0J-1397000D01*
G01*
X118237000Y-129032000D02*
X167005000Y-129032000D01*
X128568000Y-79756000D02*
X156674000Y-79756000D01*
X128568000Y-82296000D02*
X156674000Y-82296000D01*
X118491000Y-79756000D02*
X123908000Y-79756000D01*
X167005000Y-78359000D02*
G75*
G02*
X165608000Y-79756000I-1397000J0D01*
G01*
X167005000Y-78359000D02*
X167005000Y-73787000D01*
X165608000Y-79756000D02*
X161334000Y-79756000D01*
X169291000Y-126746000D02*
X169291000Y-84582000D01*
X118237000Y-129032000D02*
G75*
G02*
X115951000Y-126746000I0J2286000D01*
G01*
X117094000Y-78359000D02*
G75*
G03*
X118491000Y-79756000I1397000J0D01*
G01*
X167005000Y-73787000D02*
G75*
G03*
X165608000Y-72390000I-1397000J0D01*
G01*
X117094000Y-73787000D02*
X117094000Y-78359000D01*
X165608000Y-72390000D02*
X118491000Y-72390000D01*
X161334000Y-82296000D02*
X167005000Y-82296000D01*
X156674000Y-79756000D02*
G75*
G02*
X156674000Y-82296000I0J-1270000D01*
G01*
X161334000Y-79756000D02*
G75*
G03*
X161334000Y-82296000I0J-1270000D01*
G01*
X128568000Y-79756000D02*
G75*
G03*
X128568000Y-82296000I0J-1270000D01*
G01*
X123908000Y-79756000D02*
G75*
G02*
X123908000Y-82296000I0J-1270000D01*
G01*
M02*
