G04 #@! TF.GenerationSoftware,KiCad,Pcbnew,(5.1.5-0)*
G04 #@! TF.CreationDate,2019-12-11T17:32:03-05:00*
G04 #@! TF.ProjectId,syringe_board,73797269-6e67-4655-9f62-6f6172642e6b,3.3*
G04 #@! TF.SameCoordinates,Original*
G04 #@! TF.FileFunction,Soldermask,Top*
G04 #@! TF.FilePolarity,Negative*
%FSLAX46Y46*%
G04 Gerber Fmt 4.6, Leading zero omitted, Abs format (unit mm)*
G04 Created by KiCad (PCBNEW (5.1.5-0)) date 2019-12-11 17:32:03*
%MOMM*%
%LPD*%
G04 APERTURE LIST*
%ADD10C,0.100000*%
G04 APERTURE END LIST*
D10*
G36*
X133091569Y-106365280D02*
G01*
X133247278Y-106429776D01*
X133387413Y-106523412D01*
X133506588Y-106642587D01*
X133600224Y-106782722D01*
X133664720Y-106938431D01*
X133697600Y-107103729D01*
X133697600Y-107272271D01*
X133664720Y-107437569D01*
X133600224Y-107593278D01*
X133506588Y-107733413D01*
X133387413Y-107852588D01*
X133247278Y-107946224D01*
X133091569Y-108010720D01*
X132926271Y-108043600D01*
X132757729Y-108043600D01*
X132592431Y-108010720D01*
X132436722Y-107946224D01*
X132296587Y-107852588D01*
X132177412Y-107733413D01*
X132083776Y-107593278D01*
X132019280Y-107437569D01*
X131986400Y-107272271D01*
X131986400Y-107103729D01*
X132019280Y-106938431D01*
X132083776Y-106782722D01*
X132177412Y-106642587D01*
X132296587Y-106523412D01*
X132436722Y-106429776D01*
X132592431Y-106365280D01*
X132757729Y-106332400D01*
X132926271Y-106332400D01*
X133091569Y-106365280D01*
G37*
G36*
X130551569Y-106365280D02*
G01*
X130707278Y-106429776D01*
X130847413Y-106523412D01*
X130966588Y-106642587D01*
X131060224Y-106782722D01*
X131124720Y-106938431D01*
X131157600Y-107103729D01*
X131157600Y-107272271D01*
X131124720Y-107437569D01*
X131060224Y-107593278D01*
X130966588Y-107733413D01*
X130847413Y-107852588D01*
X130707278Y-107946224D01*
X130551569Y-108010720D01*
X130386271Y-108043600D01*
X130217729Y-108043600D01*
X130052431Y-108010720D01*
X129896722Y-107946224D01*
X129756587Y-107852588D01*
X129637412Y-107733413D01*
X129543776Y-107593278D01*
X129479280Y-107437569D01*
X129446400Y-107272271D01*
X129446400Y-107103729D01*
X129479280Y-106938431D01*
X129543776Y-106782722D01*
X129637412Y-106642587D01*
X129756587Y-106523412D01*
X129896722Y-106429776D01*
X130052431Y-106365280D01*
X130217729Y-106332400D01*
X130386271Y-106332400D01*
X130551569Y-106365280D01*
G37*
G36*
X128011569Y-106365280D02*
G01*
X128167278Y-106429776D01*
X128307413Y-106523412D01*
X128426588Y-106642587D01*
X128520224Y-106782722D01*
X128584720Y-106938431D01*
X128617600Y-107103729D01*
X128617600Y-107272271D01*
X128584720Y-107437569D01*
X128520224Y-107593278D01*
X128426588Y-107733413D01*
X128307413Y-107852588D01*
X128167278Y-107946224D01*
X128011569Y-108010720D01*
X127846271Y-108043600D01*
X127677729Y-108043600D01*
X127512431Y-108010720D01*
X127356722Y-107946224D01*
X127216587Y-107852588D01*
X127097412Y-107733413D01*
X127003776Y-107593278D01*
X126939280Y-107437569D01*
X126906400Y-107272271D01*
X126906400Y-107103729D01*
X126939280Y-106938431D01*
X127003776Y-106782722D01*
X127097412Y-106642587D01*
X127216587Y-106523412D01*
X127356722Y-106429776D01*
X127512431Y-106365280D01*
X127677729Y-106332400D01*
X127846271Y-106332400D01*
X128011569Y-106365280D01*
G37*
G36*
X125471569Y-106365280D02*
G01*
X125627278Y-106429776D01*
X125767413Y-106523412D01*
X125886588Y-106642587D01*
X125980224Y-106782722D01*
X126044720Y-106938431D01*
X126077600Y-107103729D01*
X126077600Y-107272271D01*
X126044720Y-107437569D01*
X125980224Y-107593278D01*
X125886588Y-107733413D01*
X125767413Y-107852588D01*
X125627278Y-107946224D01*
X125471569Y-108010720D01*
X125306271Y-108043600D01*
X125137729Y-108043600D01*
X124972431Y-108010720D01*
X124816722Y-107946224D01*
X124676587Y-107852588D01*
X124557412Y-107733413D01*
X124463776Y-107593278D01*
X124399280Y-107437569D01*
X124366400Y-107272271D01*
X124366400Y-107103729D01*
X124399280Y-106938431D01*
X124463776Y-106782722D01*
X124557412Y-106642587D01*
X124676587Y-106523412D01*
X124816722Y-106429776D01*
X124972431Y-106365280D01*
X125137729Y-106332400D01*
X125306271Y-106332400D01*
X125471569Y-106365280D01*
G37*
G36*
X122931569Y-106365280D02*
G01*
X123087278Y-106429776D01*
X123227413Y-106523412D01*
X123346588Y-106642587D01*
X123440224Y-106782722D01*
X123504720Y-106938431D01*
X123537600Y-107103729D01*
X123537600Y-107272271D01*
X123504720Y-107437569D01*
X123440224Y-107593278D01*
X123346588Y-107733413D01*
X123227413Y-107852588D01*
X123087278Y-107946224D01*
X122931569Y-108010720D01*
X122766271Y-108043600D01*
X122597729Y-108043600D01*
X122432431Y-108010720D01*
X122276722Y-107946224D01*
X122136587Y-107852588D01*
X122017412Y-107733413D01*
X121923776Y-107593278D01*
X121859280Y-107437569D01*
X121826400Y-107272271D01*
X121826400Y-107103729D01*
X121859280Y-106938431D01*
X121923776Y-106782722D01*
X122017412Y-106642587D01*
X122136587Y-106523412D01*
X122276722Y-106429776D01*
X122432431Y-106365280D01*
X122597729Y-106332400D01*
X122766271Y-106332400D01*
X122931569Y-106365280D01*
G37*
G36*
X120391569Y-106365280D02*
G01*
X120547278Y-106429776D01*
X120687413Y-106523412D01*
X120806588Y-106642587D01*
X120900224Y-106782722D01*
X120964720Y-106938431D01*
X120997600Y-107103729D01*
X120997600Y-107272271D01*
X120964720Y-107437569D01*
X120900224Y-107593278D01*
X120806588Y-107733413D01*
X120687413Y-107852588D01*
X120547278Y-107946224D01*
X120391569Y-108010720D01*
X120226271Y-108043600D01*
X120057729Y-108043600D01*
X119892431Y-108010720D01*
X119736722Y-107946224D01*
X119596587Y-107852588D01*
X119477412Y-107733413D01*
X119383776Y-107593278D01*
X119319280Y-107437569D01*
X119286400Y-107272271D01*
X119286400Y-107103729D01*
X119319280Y-106938431D01*
X119383776Y-106782722D01*
X119477412Y-106642587D01*
X119596587Y-106523412D01*
X119736722Y-106429776D01*
X119892431Y-106365280D01*
X120057729Y-106332400D01*
X120226271Y-106332400D01*
X120391569Y-106365280D01*
G37*
G36*
X117851569Y-106365280D02*
G01*
X118007278Y-106429776D01*
X118147413Y-106523412D01*
X118266588Y-106642587D01*
X118360224Y-106782722D01*
X118424720Y-106938431D01*
X118457600Y-107103729D01*
X118457600Y-107272271D01*
X118424720Y-107437569D01*
X118360224Y-107593278D01*
X118266588Y-107733413D01*
X118147413Y-107852588D01*
X118007278Y-107946224D01*
X117851569Y-108010720D01*
X117686271Y-108043600D01*
X117517729Y-108043600D01*
X117352431Y-108010720D01*
X117196722Y-107946224D01*
X117056587Y-107852588D01*
X116937412Y-107733413D01*
X116843776Y-107593278D01*
X116779280Y-107437569D01*
X116746400Y-107272271D01*
X116746400Y-107103729D01*
X116779280Y-106938431D01*
X116843776Y-106782722D01*
X116937412Y-106642587D01*
X117056587Y-106523412D01*
X117196722Y-106429776D01*
X117352431Y-106365280D01*
X117517729Y-106332400D01*
X117686271Y-106332400D01*
X117851569Y-106365280D01*
G37*
G36*
X115311569Y-106365280D02*
G01*
X115467278Y-106429776D01*
X115607413Y-106523412D01*
X115726588Y-106642587D01*
X115820224Y-106782722D01*
X115884720Y-106938431D01*
X115917600Y-107103729D01*
X115917600Y-107272271D01*
X115884720Y-107437569D01*
X115820224Y-107593278D01*
X115726588Y-107733413D01*
X115607413Y-107852588D01*
X115467278Y-107946224D01*
X115311569Y-108010720D01*
X115146271Y-108043600D01*
X114977729Y-108043600D01*
X114812431Y-108010720D01*
X114656722Y-107946224D01*
X114516587Y-107852588D01*
X114397412Y-107733413D01*
X114303776Y-107593278D01*
X114239280Y-107437569D01*
X114206400Y-107272271D01*
X114206400Y-107103729D01*
X114239280Y-106938431D01*
X114303776Y-106782722D01*
X114397412Y-106642587D01*
X114516587Y-106523412D01*
X114656722Y-106429776D01*
X114812431Y-106365280D01*
X114977729Y-106332400D01*
X115146271Y-106332400D01*
X115311569Y-106365280D01*
G37*
G36*
X112771569Y-106365280D02*
G01*
X112927278Y-106429776D01*
X113067413Y-106523412D01*
X113186588Y-106642587D01*
X113280224Y-106782722D01*
X113344720Y-106938431D01*
X113377600Y-107103729D01*
X113377600Y-107272271D01*
X113344720Y-107437569D01*
X113280224Y-107593278D01*
X113186588Y-107733413D01*
X113067413Y-107852588D01*
X112927278Y-107946224D01*
X112771569Y-108010720D01*
X112606271Y-108043600D01*
X112437729Y-108043600D01*
X112272431Y-108010720D01*
X112116722Y-107946224D01*
X111976587Y-107852588D01*
X111857412Y-107733413D01*
X111763776Y-107593278D01*
X111699280Y-107437569D01*
X111666400Y-107272271D01*
X111666400Y-107103729D01*
X111699280Y-106938431D01*
X111763776Y-106782722D01*
X111857412Y-106642587D01*
X111976587Y-106523412D01*
X112116722Y-106429776D01*
X112272431Y-106365280D01*
X112437729Y-106332400D01*
X112606271Y-106332400D01*
X112771569Y-106365280D01*
G37*
G36*
X110231569Y-106365280D02*
G01*
X110387278Y-106429776D01*
X110527413Y-106523412D01*
X110646588Y-106642587D01*
X110740224Y-106782722D01*
X110804720Y-106938431D01*
X110837600Y-107103729D01*
X110837600Y-107272271D01*
X110804720Y-107437569D01*
X110740224Y-107593278D01*
X110646588Y-107733413D01*
X110527413Y-107852588D01*
X110387278Y-107946224D01*
X110231569Y-108010720D01*
X110066271Y-108043600D01*
X109897729Y-108043600D01*
X109732431Y-108010720D01*
X109576722Y-107946224D01*
X109436587Y-107852588D01*
X109317412Y-107733413D01*
X109223776Y-107593278D01*
X109159280Y-107437569D01*
X109126400Y-107272271D01*
X109126400Y-107103729D01*
X109159280Y-106938431D01*
X109223776Y-106782722D01*
X109317412Y-106642587D01*
X109436587Y-106523412D01*
X109576722Y-106429776D01*
X109732431Y-106365280D01*
X109897729Y-106332400D01*
X110066271Y-106332400D01*
X110231569Y-106365280D01*
G37*
G36*
X107691569Y-106365280D02*
G01*
X107847278Y-106429776D01*
X107987413Y-106523412D01*
X108106588Y-106642587D01*
X108200224Y-106782722D01*
X108264720Y-106938431D01*
X108297600Y-107103729D01*
X108297600Y-107272271D01*
X108264720Y-107437569D01*
X108200224Y-107593278D01*
X108106588Y-107733413D01*
X107987413Y-107852588D01*
X107847278Y-107946224D01*
X107691569Y-108010720D01*
X107526271Y-108043600D01*
X107357729Y-108043600D01*
X107192431Y-108010720D01*
X107036722Y-107946224D01*
X106896587Y-107852588D01*
X106777412Y-107733413D01*
X106683776Y-107593278D01*
X106619280Y-107437569D01*
X106586400Y-107272271D01*
X106586400Y-107103729D01*
X106619280Y-106938431D01*
X106683776Y-106782722D01*
X106777412Y-106642587D01*
X106896587Y-106523412D01*
X107036722Y-106429776D01*
X107192431Y-106365280D01*
X107357729Y-106332400D01*
X107526271Y-106332400D01*
X107691569Y-106365280D01*
G37*
G36*
X105151569Y-106365280D02*
G01*
X105307278Y-106429776D01*
X105447413Y-106523412D01*
X105566588Y-106642587D01*
X105660224Y-106782722D01*
X105724720Y-106938431D01*
X105757600Y-107103729D01*
X105757600Y-107272271D01*
X105724720Y-107437569D01*
X105660224Y-107593278D01*
X105566588Y-107733413D01*
X105447413Y-107852588D01*
X105307278Y-107946224D01*
X105151569Y-108010720D01*
X104986271Y-108043600D01*
X104817729Y-108043600D01*
X104652431Y-108010720D01*
X104496722Y-107946224D01*
X104356587Y-107852588D01*
X104237412Y-107733413D01*
X104143776Y-107593278D01*
X104079280Y-107437569D01*
X104046400Y-107272271D01*
X104046400Y-107103729D01*
X104079280Y-106938431D01*
X104143776Y-106782722D01*
X104237412Y-106642587D01*
X104356587Y-106523412D01*
X104496722Y-106429776D01*
X104652431Y-106365280D01*
X104817729Y-106332400D01*
X104986271Y-106332400D01*
X105151569Y-106365280D01*
G37*
G36*
X102611569Y-106365280D02*
G01*
X102767278Y-106429776D01*
X102907413Y-106523412D01*
X103026588Y-106642587D01*
X103120224Y-106782722D01*
X103184720Y-106938431D01*
X103217600Y-107103729D01*
X103217600Y-107272271D01*
X103184720Y-107437569D01*
X103120224Y-107593278D01*
X103026588Y-107733413D01*
X102907413Y-107852588D01*
X102767278Y-107946224D01*
X102611569Y-108010720D01*
X102446271Y-108043600D01*
X102277729Y-108043600D01*
X102112431Y-108010720D01*
X101956722Y-107946224D01*
X101816587Y-107852588D01*
X101697412Y-107733413D01*
X101603776Y-107593278D01*
X101539280Y-107437569D01*
X101506400Y-107272271D01*
X101506400Y-107103729D01*
X101539280Y-106938431D01*
X101603776Y-106782722D01*
X101697412Y-106642587D01*
X101816587Y-106523412D01*
X101956722Y-106429776D01*
X102112431Y-106365280D01*
X102277729Y-106332400D01*
X102446271Y-106332400D01*
X102611569Y-106365280D01*
G37*
G36*
X100071569Y-106365280D02*
G01*
X100227278Y-106429776D01*
X100367413Y-106523412D01*
X100486588Y-106642587D01*
X100580224Y-106782722D01*
X100644720Y-106938431D01*
X100677600Y-107103729D01*
X100677600Y-107272271D01*
X100644720Y-107437569D01*
X100580224Y-107593278D01*
X100486588Y-107733413D01*
X100367413Y-107852588D01*
X100227278Y-107946224D01*
X100071569Y-108010720D01*
X99906271Y-108043600D01*
X99737729Y-108043600D01*
X99572431Y-108010720D01*
X99416722Y-107946224D01*
X99276587Y-107852588D01*
X99157412Y-107733413D01*
X99063776Y-107593278D01*
X98999280Y-107437569D01*
X98966400Y-107272271D01*
X98966400Y-107103729D01*
X98999280Y-106938431D01*
X99063776Y-106782722D01*
X99157412Y-106642587D01*
X99276587Y-106523412D01*
X99416722Y-106429776D01*
X99572431Y-106365280D01*
X99737729Y-106332400D01*
X99906271Y-106332400D01*
X100071569Y-106365280D01*
G37*
G36*
X97531569Y-106365280D02*
G01*
X97687278Y-106429776D01*
X97827413Y-106523412D01*
X97946588Y-106642587D01*
X98040224Y-106782722D01*
X98104720Y-106938431D01*
X98137600Y-107103729D01*
X98137600Y-107272271D01*
X98104720Y-107437569D01*
X98040224Y-107593278D01*
X97946588Y-107733413D01*
X97827413Y-107852588D01*
X97687278Y-107946224D01*
X97531569Y-108010720D01*
X97366271Y-108043600D01*
X97197729Y-108043600D01*
X97032431Y-108010720D01*
X96876722Y-107946224D01*
X96736587Y-107852588D01*
X96617412Y-107733413D01*
X96523776Y-107593278D01*
X96459280Y-107437569D01*
X96426400Y-107272271D01*
X96426400Y-107103729D01*
X96459280Y-106938431D01*
X96523776Y-106782722D01*
X96617412Y-106642587D01*
X96736587Y-106523412D01*
X96876722Y-106429776D01*
X97032431Y-106365280D01*
X97197729Y-106332400D01*
X97366271Y-106332400D01*
X97531569Y-106365280D01*
G37*
G36*
X94991569Y-106365280D02*
G01*
X95147278Y-106429776D01*
X95287413Y-106523412D01*
X95406588Y-106642587D01*
X95500224Y-106782722D01*
X95564720Y-106938431D01*
X95597600Y-107103729D01*
X95597600Y-107272271D01*
X95564720Y-107437569D01*
X95500224Y-107593278D01*
X95406588Y-107733413D01*
X95287413Y-107852588D01*
X95147278Y-107946224D01*
X94991569Y-108010720D01*
X94826271Y-108043600D01*
X94657729Y-108043600D01*
X94492431Y-108010720D01*
X94336722Y-107946224D01*
X94196587Y-107852588D01*
X94077412Y-107733413D01*
X93983776Y-107593278D01*
X93919280Y-107437569D01*
X93886400Y-107272271D01*
X93886400Y-107103729D01*
X93919280Y-106938431D01*
X93983776Y-106782722D01*
X94077412Y-106642587D01*
X94196587Y-106523412D01*
X94336722Y-106429776D01*
X94492431Y-106365280D01*
X94657729Y-106332400D01*
X94826271Y-106332400D01*
X94991569Y-106365280D01*
G37*
G36*
X92329943Y-101206248D02*
G01*
X92885189Y-101436238D01*
X92885190Y-101436239D01*
X93384899Y-101770134D01*
X93809866Y-102195101D01*
X93809867Y-102195103D01*
X94143762Y-102694811D01*
X94373752Y-103250057D01*
X94491000Y-103839501D01*
X94491000Y-104440499D01*
X94373752Y-105029943D01*
X94143762Y-105585189D01*
X94079838Y-105680858D01*
X93809866Y-106084899D01*
X93384899Y-106509866D01*
X93325584Y-106549499D01*
X92885189Y-106843762D01*
X92329943Y-107073752D01*
X91740499Y-107191000D01*
X91139501Y-107191000D01*
X90550057Y-107073752D01*
X89994811Y-106843762D01*
X89554416Y-106549499D01*
X89495101Y-106509866D01*
X89070134Y-106084899D01*
X88800162Y-105680858D01*
X88736238Y-105585189D01*
X88506248Y-105029943D01*
X88389000Y-104440499D01*
X88389000Y-103839501D01*
X88506248Y-103250057D01*
X88736238Y-102694811D01*
X89070133Y-102195103D01*
X89070134Y-102195101D01*
X89495101Y-101770134D01*
X89994810Y-101436239D01*
X89994811Y-101436238D01*
X90550057Y-101206248D01*
X91139501Y-101089000D01*
X91740499Y-101089000D01*
X92329943Y-101206248D01*
G37*
G36*
X137905142Y-105136242D02*
G01*
X138053101Y-105197529D01*
X138186255Y-105286499D01*
X138299501Y-105399745D01*
X138388471Y-105532899D01*
X138449758Y-105680858D01*
X138481000Y-105837925D01*
X138481000Y-105998075D01*
X138449758Y-106155142D01*
X138388471Y-106303101D01*
X138299501Y-106436255D01*
X138186255Y-106549501D01*
X138053101Y-106638471D01*
X137905142Y-106699758D01*
X137748075Y-106731000D01*
X137587925Y-106731000D01*
X137430858Y-106699758D01*
X137282899Y-106638471D01*
X137149745Y-106549501D01*
X137036499Y-106436255D01*
X136947529Y-106303101D01*
X136886242Y-106155142D01*
X136855000Y-105998075D01*
X136855000Y-105837925D01*
X136886242Y-105680858D01*
X136947529Y-105532899D01*
X137036499Y-105399745D01*
X137149745Y-105286499D01*
X137282899Y-105197529D01*
X137430858Y-105136242D01*
X137587925Y-105105000D01*
X137748075Y-105105000D01*
X137905142Y-105136242D01*
G37*
G36*
X131699943Y-99682248D02*
G01*
X132255189Y-99912238D01*
X132470706Y-100056242D01*
X132754899Y-100246134D01*
X133179866Y-100671101D01*
X133248807Y-100774279D01*
X133513762Y-101170811D01*
X133743752Y-101726057D01*
X133861000Y-102315501D01*
X133861000Y-102916499D01*
X133743752Y-103505943D01*
X133513762Y-104061189D01*
X133513761Y-104061190D01*
X133179866Y-104560899D01*
X132754899Y-104985866D01*
X132576602Y-105105000D01*
X132255189Y-105319762D01*
X131699943Y-105549752D01*
X131110499Y-105667000D01*
X130509501Y-105667000D01*
X129920057Y-105549752D01*
X129364811Y-105319762D01*
X129043398Y-105105000D01*
X128865101Y-104985866D01*
X128440134Y-104560899D01*
X128106239Y-104061190D01*
X128106238Y-104061189D01*
X127876248Y-103505943D01*
X127759000Y-102916499D01*
X127759000Y-102315501D01*
X127876248Y-101726057D01*
X128106238Y-101170811D01*
X128371193Y-100774279D01*
X128440134Y-100671101D01*
X128865101Y-100246134D01*
X129149294Y-100056242D01*
X129364811Y-99912238D01*
X129920057Y-99682248D01*
X130509501Y-99565000D01*
X131110499Y-99565000D01*
X131699943Y-99682248D01*
G37*
G36*
X97903591Y-104380085D02*
G01*
X97937569Y-104390393D01*
X97968890Y-104407134D01*
X97996339Y-104429661D01*
X98018866Y-104457110D01*
X98035607Y-104488431D01*
X98045915Y-104522409D01*
X98050000Y-104563890D01*
X98050000Y-105240110D01*
X98045915Y-105281591D01*
X98035607Y-105315569D01*
X98018866Y-105346890D01*
X97996339Y-105374339D01*
X97968890Y-105396866D01*
X97937569Y-105413607D01*
X97903591Y-105423915D01*
X97862110Y-105428000D01*
X97260890Y-105428000D01*
X97219409Y-105423915D01*
X97185431Y-105413607D01*
X97154110Y-105396866D01*
X97126661Y-105374339D01*
X97104134Y-105346890D01*
X97087393Y-105315569D01*
X97077085Y-105281591D01*
X97073000Y-105240110D01*
X97073000Y-104563890D01*
X97077085Y-104522409D01*
X97087393Y-104488431D01*
X97104134Y-104457110D01*
X97126661Y-104429661D01*
X97154110Y-104407134D01*
X97185431Y-104390393D01*
X97219409Y-104380085D01*
X97260890Y-104376000D01*
X97862110Y-104376000D01*
X97903591Y-104380085D01*
G37*
G36*
X96328591Y-104380085D02*
G01*
X96362569Y-104390393D01*
X96393890Y-104407134D01*
X96421339Y-104429661D01*
X96443866Y-104457110D01*
X96460607Y-104488431D01*
X96470915Y-104522409D01*
X96475000Y-104563890D01*
X96475000Y-105240110D01*
X96470915Y-105281591D01*
X96460607Y-105315569D01*
X96443866Y-105346890D01*
X96421339Y-105374339D01*
X96393890Y-105396866D01*
X96362569Y-105413607D01*
X96328591Y-105423915D01*
X96287110Y-105428000D01*
X95685890Y-105428000D01*
X95644409Y-105423915D01*
X95610431Y-105413607D01*
X95579110Y-105396866D01*
X95551661Y-105374339D01*
X95529134Y-105346890D01*
X95512393Y-105315569D01*
X95502085Y-105281591D01*
X95498000Y-105240110D01*
X95498000Y-104563890D01*
X95502085Y-104522409D01*
X95512393Y-104488431D01*
X95529134Y-104457110D01*
X95551661Y-104429661D01*
X95579110Y-104407134D01*
X95610431Y-104390393D01*
X95644409Y-104380085D01*
X95685890Y-104376000D01*
X96287110Y-104376000D01*
X96328591Y-104380085D01*
G37*
G36*
X137905142Y-102596242D02*
G01*
X138053101Y-102657529D01*
X138186255Y-102746499D01*
X138299501Y-102859745D01*
X138388471Y-102992899D01*
X138449758Y-103140858D01*
X138481000Y-103297925D01*
X138481000Y-103458075D01*
X138449758Y-103615142D01*
X138388471Y-103763101D01*
X138299501Y-103896255D01*
X138186255Y-104009501D01*
X138053101Y-104098471D01*
X137905142Y-104159758D01*
X137748075Y-104191000D01*
X137587925Y-104191000D01*
X137430858Y-104159758D01*
X137282899Y-104098471D01*
X137149745Y-104009501D01*
X137036499Y-103896255D01*
X136947529Y-103763101D01*
X136886242Y-103615142D01*
X136855000Y-103458075D01*
X136855000Y-103297925D01*
X136886242Y-103140858D01*
X136947529Y-102992899D01*
X137036499Y-102859745D01*
X137149745Y-102746499D01*
X137282899Y-102657529D01*
X137430858Y-102596242D01*
X137587925Y-102565000D01*
X137748075Y-102565000D01*
X137905142Y-102596242D01*
G37*
G36*
X122882800Y-103570800D02*
G01*
X120281200Y-103570800D01*
X120281200Y-100969200D01*
X122882800Y-100969200D01*
X122882800Y-103570800D01*
G37*
G36*
X112382800Y-103570800D02*
G01*
X109781200Y-103570800D01*
X109781200Y-100969200D01*
X112382800Y-100969200D01*
X112382800Y-103570800D01*
G37*
G36*
X106434000Y-103021000D02*
G01*
X97782000Y-103021000D01*
X97782000Y-101419000D01*
X106434000Y-101419000D01*
X106434000Y-103021000D01*
G37*
G36*
X137905142Y-100056242D02*
G01*
X138053101Y-100117529D01*
X138186255Y-100206499D01*
X138299501Y-100319745D01*
X138388471Y-100452899D01*
X138449758Y-100600858D01*
X138481000Y-100757925D01*
X138481000Y-100918075D01*
X138449758Y-101075142D01*
X138388471Y-101223101D01*
X138299501Y-101356255D01*
X138186255Y-101469501D01*
X138053101Y-101558471D01*
X137905142Y-101619758D01*
X137748075Y-101651000D01*
X137587925Y-101651000D01*
X137430858Y-101619758D01*
X137282899Y-101558471D01*
X137149745Y-101469501D01*
X137036499Y-101356255D01*
X136947529Y-101223101D01*
X136886242Y-101075142D01*
X136855000Y-100918075D01*
X136855000Y-100757925D01*
X136886242Y-100600858D01*
X136947529Y-100452899D01*
X137036499Y-100319745D01*
X137149745Y-100206499D01*
X137282899Y-100117529D01*
X137430858Y-100056242D01*
X137587925Y-100025000D01*
X137748075Y-100025000D01*
X137905142Y-100056242D01*
G37*
G36*
X89828139Y-99184363D02*
G01*
X89910403Y-99200726D01*
X90065384Y-99264921D01*
X90204864Y-99358119D01*
X90323481Y-99476736D01*
X90416679Y-99616216D01*
X90480874Y-99771197D01*
X90480874Y-99771199D01*
X90508929Y-99912239D01*
X90513600Y-99935725D01*
X90513600Y-100103475D01*
X90480874Y-100268003D01*
X90416679Y-100422984D01*
X90323481Y-100562464D01*
X90204864Y-100681081D01*
X90065384Y-100774279D01*
X89910403Y-100838474D01*
X89828139Y-100854837D01*
X89745877Y-100871200D01*
X89578123Y-100871200D01*
X89495861Y-100854837D01*
X89413597Y-100838474D01*
X89258616Y-100774279D01*
X89119136Y-100681081D01*
X89000519Y-100562464D01*
X88907321Y-100422984D01*
X88843126Y-100268003D01*
X88810400Y-100103475D01*
X88810400Y-99935725D01*
X88815072Y-99912239D01*
X88843126Y-99771199D01*
X88843126Y-99771197D01*
X88907321Y-99616216D01*
X89000519Y-99476736D01*
X89119136Y-99358119D01*
X89258616Y-99264921D01*
X89413597Y-99200726D01*
X89495861Y-99184363D01*
X89578123Y-99168000D01*
X89745877Y-99168000D01*
X89828139Y-99184363D01*
G37*
G36*
X97209000Y-100846000D02*
G01*
X95607000Y-100846000D01*
X95607000Y-92194000D01*
X97209000Y-92194000D01*
X97209000Y-100846000D01*
G37*
G36*
X108609000Y-100846000D02*
G01*
X107007000Y-100846000D01*
X107007000Y-92194000D01*
X108609000Y-92194000D01*
X108609000Y-100846000D01*
G37*
G36*
X92545588Y-98414787D02*
G01*
X92620943Y-98446000D01*
X92660133Y-98462233D01*
X92763219Y-98531113D01*
X92850887Y-98618781D01*
X92893864Y-98683101D01*
X92919768Y-98721869D01*
X92967213Y-98836412D01*
X92991400Y-98958008D01*
X92991400Y-99081992D01*
X92967213Y-99203588D01*
X92949645Y-99246000D01*
X92919767Y-99318133D01*
X92850887Y-99421219D01*
X92763219Y-99508887D01*
X92660133Y-99577767D01*
X92660132Y-99577768D01*
X92660131Y-99577768D01*
X92545588Y-99625213D01*
X92423992Y-99649400D01*
X92300008Y-99649400D01*
X92178412Y-99625213D01*
X92063869Y-99577768D01*
X92063868Y-99577768D01*
X92063867Y-99577767D01*
X91960781Y-99508887D01*
X91873113Y-99421219D01*
X91804233Y-99318133D01*
X91774355Y-99246000D01*
X91756787Y-99203588D01*
X91732600Y-99081992D01*
X91732600Y-98958008D01*
X91756787Y-98836412D01*
X91804232Y-98721869D01*
X91830136Y-98683101D01*
X91873113Y-98618781D01*
X91960781Y-98531113D01*
X92063867Y-98462233D01*
X92103057Y-98446000D01*
X92178412Y-98414787D01*
X92300008Y-98390600D01*
X92423992Y-98390600D01*
X92545588Y-98414787D01*
G37*
G36*
X137905142Y-97516242D02*
G01*
X138053101Y-97577529D01*
X138186255Y-97666499D01*
X138299501Y-97779745D01*
X138388471Y-97912899D01*
X138449758Y-98060858D01*
X138481000Y-98217925D01*
X138481000Y-98378075D01*
X138449758Y-98535142D01*
X138388471Y-98683101D01*
X138299501Y-98816255D01*
X138186255Y-98929501D01*
X138053101Y-99018471D01*
X137905142Y-99079758D01*
X137748075Y-99111000D01*
X137587925Y-99111000D01*
X137430858Y-99079758D01*
X137282899Y-99018471D01*
X137149745Y-98929501D01*
X137036499Y-98816255D01*
X136947529Y-98683101D01*
X136886242Y-98535142D01*
X136855000Y-98378075D01*
X136855000Y-98217925D01*
X136886242Y-98060858D01*
X136947529Y-97912899D01*
X137036499Y-97779745D01*
X137149745Y-97666499D01*
X137282899Y-97577529D01*
X137430858Y-97516242D01*
X137587925Y-97485000D01*
X137748075Y-97485000D01*
X137905142Y-97516242D01*
G37*
G36*
X93138600Y-98121600D02*
G01*
X91585400Y-98121600D01*
X91585400Y-94918400D01*
X93138600Y-94918400D01*
X93138600Y-98121600D01*
G37*
G36*
X137905142Y-94976242D02*
G01*
X138053101Y-95037529D01*
X138186255Y-95126499D01*
X138299501Y-95239745D01*
X138388471Y-95372899D01*
X138449758Y-95520858D01*
X138481000Y-95677925D01*
X138481000Y-95838075D01*
X138449758Y-95995142D01*
X138388471Y-96143101D01*
X138299501Y-96276255D01*
X138186255Y-96389501D01*
X138053101Y-96478471D01*
X137905142Y-96539758D01*
X137748075Y-96571000D01*
X137587925Y-96571000D01*
X137430858Y-96539758D01*
X137282899Y-96478471D01*
X137149745Y-96389501D01*
X137036499Y-96276255D01*
X136947529Y-96143101D01*
X136886242Y-95995142D01*
X136855000Y-95838075D01*
X136855000Y-95677925D01*
X136886242Y-95520858D01*
X136947529Y-95372899D01*
X137036499Y-95239745D01*
X137149745Y-95126499D01*
X137282899Y-95037529D01*
X137430858Y-94976242D01*
X137587925Y-94945000D01*
X137748075Y-94945000D01*
X137905142Y-94976242D01*
G37*
G36*
X130323999Y-94703737D02*
G01*
X130338528Y-94708145D01*
X130351711Y-94713606D01*
X130375745Y-94718388D01*
X130400249Y-94718389D01*
X130424282Y-94713609D01*
X130446921Y-94704232D01*
X130448765Y-94703000D01*
X131680050Y-94703000D01*
X131692164Y-94709475D01*
X131715613Y-94716588D01*
X131739999Y-94718990D01*
X131764385Y-94716588D01*
X131787834Y-94709475D01*
X131792746Y-94707152D01*
X131804001Y-94703737D01*
X131820140Y-94702148D01*
X132357861Y-94702148D01*
X132376199Y-94703954D01*
X132388450Y-94704556D01*
X132406869Y-94704556D01*
X132429149Y-94706750D01*
X132513233Y-94723476D01*
X132534660Y-94729976D01*
X132613858Y-94762780D01*
X132619303Y-94765691D01*
X132619309Y-94765693D01*
X132628169Y-94770429D01*
X132628173Y-94770432D01*
X132633614Y-94773340D01*
X132704899Y-94820971D01*
X132722204Y-94835172D01*
X132782828Y-94895796D01*
X132797029Y-94913101D01*
X132844660Y-94984386D01*
X132847568Y-94989827D01*
X132847571Y-94989831D01*
X132852307Y-94998691D01*
X132852309Y-94998697D01*
X132855220Y-95004142D01*
X132888024Y-95083340D01*
X132894524Y-95104767D01*
X132911250Y-95188851D01*
X132913444Y-95211131D01*
X132913444Y-95229550D01*
X132914046Y-95241801D01*
X132915852Y-95260139D01*
X132915852Y-95747862D01*
X132914046Y-95766199D01*
X132913444Y-95778450D01*
X132913444Y-95796869D01*
X132911250Y-95819149D01*
X132894524Y-95903233D01*
X132888024Y-95924660D01*
X132855220Y-96003858D01*
X132852309Y-96009303D01*
X132852307Y-96009309D01*
X132847571Y-96018169D01*
X132847568Y-96018173D01*
X132844660Y-96023614D01*
X132797029Y-96094899D01*
X132782828Y-96112204D01*
X132722204Y-96172828D01*
X132704899Y-96187029D01*
X132633614Y-96234660D01*
X132628173Y-96237568D01*
X132628169Y-96237571D01*
X132619309Y-96242307D01*
X132619303Y-96242309D01*
X132613858Y-96245220D01*
X132534660Y-96278024D01*
X132513233Y-96284524D01*
X132429149Y-96301250D01*
X132406869Y-96303444D01*
X132388450Y-96303444D01*
X132376199Y-96304046D01*
X132357862Y-96305852D01*
X131820140Y-96305852D01*
X131804001Y-96304263D01*
X131789472Y-96299855D01*
X131776289Y-96294394D01*
X131752255Y-96289612D01*
X131727751Y-96289611D01*
X131703718Y-96294391D01*
X131681079Y-96303768D01*
X131679235Y-96305000D01*
X130447950Y-96305000D01*
X130435836Y-96298525D01*
X130412387Y-96291412D01*
X130388001Y-96289010D01*
X130363615Y-96291412D01*
X130340166Y-96298525D01*
X130335254Y-96300848D01*
X130323999Y-96304263D01*
X130307860Y-96305852D01*
X129770138Y-96305852D01*
X129751801Y-96304046D01*
X129739550Y-96303444D01*
X129721131Y-96303444D01*
X129698851Y-96301250D01*
X129614767Y-96284524D01*
X129593340Y-96278024D01*
X129514142Y-96245220D01*
X129508697Y-96242309D01*
X129508691Y-96242307D01*
X129499831Y-96237571D01*
X129499827Y-96237568D01*
X129494386Y-96234660D01*
X129423101Y-96187029D01*
X129405796Y-96172828D01*
X129345172Y-96112204D01*
X129330971Y-96094899D01*
X129283340Y-96023614D01*
X129280432Y-96018173D01*
X129280429Y-96018169D01*
X129275693Y-96009309D01*
X129275691Y-96009303D01*
X129272780Y-96003858D01*
X129239976Y-95924660D01*
X129233476Y-95903233D01*
X129216750Y-95819149D01*
X129214556Y-95796869D01*
X129214556Y-95778450D01*
X129213954Y-95766199D01*
X129212148Y-95747862D01*
X129212148Y-95260139D01*
X129213954Y-95241801D01*
X129214556Y-95229550D01*
X129214556Y-95211131D01*
X129216750Y-95188851D01*
X129233476Y-95104767D01*
X129239976Y-95083340D01*
X129272780Y-95004142D01*
X129275691Y-94998697D01*
X129275693Y-94998691D01*
X129280429Y-94989831D01*
X129280432Y-94989827D01*
X129283340Y-94984386D01*
X129330971Y-94913101D01*
X129345172Y-94895796D01*
X129405796Y-94835172D01*
X129423101Y-94820971D01*
X129494386Y-94773340D01*
X129499827Y-94770432D01*
X129499831Y-94770429D01*
X129508691Y-94765693D01*
X129508697Y-94765691D01*
X129514142Y-94762780D01*
X129593340Y-94729976D01*
X129614767Y-94723476D01*
X129698851Y-94706750D01*
X129721131Y-94704556D01*
X129739550Y-94704556D01*
X129751801Y-94703954D01*
X129770139Y-94702148D01*
X130307860Y-94702148D01*
X130323999Y-94703737D01*
G37*
G36*
X125243999Y-94703737D02*
G01*
X125258528Y-94708145D01*
X125271711Y-94713606D01*
X125295745Y-94718388D01*
X125320249Y-94718389D01*
X125344282Y-94713609D01*
X125366921Y-94704232D01*
X125368765Y-94703000D01*
X126600050Y-94703000D01*
X126612164Y-94709475D01*
X126635613Y-94716588D01*
X126659999Y-94718990D01*
X126684385Y-94716588D01*
X126707834Y-94709475D01*
X126712746Y-94707152D01*
X126724001Y-94703737D01*
X126740140Y-94702148D01*
X127277861Y-94702148D01*
X127296199Y-94703954D01*
X127308450Y-94704556D01*
X127326869Y-94704556D01*
X127349149Y-94706750D01*
X127433233Y-94723476D01*
X127454660Y-94729976D01*
X127533858Y-94762780D01*
X127539303Y-94765691D01*
X127539309Y-94765693D01*
X127548169Y-94770429D01*
X127548173Y-94770432D01*
X127553614Y-94773340D01*
X127624899Y-94820971D01*
X127642204Y-94835172D01*
X127702828Y-94895796D01*
X127717029Y-94913101D01*
X127764660Y-94984386D01*
X127767568Y-94989827D01*
X127767571Y-94989831D01*
X127772307Y-94998691D01*
X127772309Y-94998697D01*
X127775220Y-95004142D01*
X127808024Y-95083340D01*
X127814524Y-95104767D01*
X127831250Y-95188851D01*
X127833444Y-95211131D01*
X127833444Y-95229550D01*
X127834046Y-95241801D01*
X127835852Y-95260139D01*
X127835852Y-95747862D01*
X127834046Y-95766199D01*
X127833444Y-95778450D01*
X127833444Y-95796869D01*
X127831250Y-95819149D01*
X127814524Y-95903233D01*
X127808024Y-95924660D01*
X127775220Y-96003858D01*
X127772309Y-96009303D01*
X127772307Y-96009309D01*
X127767571Y-96018169D01*
X127767568Y-96018173D01*
X127764660Y-96023614D01*
X127717029Y-96094899D01*
X127702828Y-96112204D01*
X127642204Y-96172828D01*
X127624899Y-96187029D01*
X127553614Y-96234660D01*
X127548173Y-96237568D01*
X127548169Y-96237571D01*
X127539309Y-96242307D01*
X127539303Y-96242309D01*
X127533858Y-96245220D01*
X127454660Y-96278024D01*
X127433233Y-96284524D01*
X127349149Y-96301250D01*
X127326869Y-96303444D01*
X127308450Y-96303444D01*
X127296199Y-96304046D01*
X127277862Y-96305852D01*
X126740140Y-96305852D01*
X126724001Y-96304263D01*
X126709472Y-96299855D01*
X126696289Y-96294394D01*
X126672255Y-96289612D01*
X126647751Y-96289611D01*
X126623718Y-96294391D01*
X126601079Y-96303768D01*
X126599235Y-96305000D01*
X125367950Y-96305000D01*
X125355836Y-96298525D01*
X125332387Y-96291412D01*
X125308001Y-96289010D01*
X125283615Y-96291412D01*
X125260166Y-96298525D01*
X125255254Y-96300848D01*
X125243999Y-96304263D01*
X125227860Y-96305852D01*
X124690138Y-96305852D01*
X124671801Y-96304046D01*
X124659550Y-96303444D01*
X124641131Y-96303444D01*
X124618851Y-96301250D01*
X124534767Y-96284524D01*
X124513340Y-96278024D01*
X124434142Y-96245220D01*
X124428697Y-96242309D01*
X124428691Y-96242307D01*
X124419831Y-96237571D01*
X124419827Y-96237568D01*
X124414386Y-96234660D01*
X124343101Y-96187029D01*
X124325796Y-96172828D01*
X124265172Y-96112204D01*
X124250971Y-96094899D01*
X124203340Y-96023614D01*
X124200432Y-96018173D01*
X124200429Y-96018169D01*
X124195693Y-96009309D01*
X124195691Y-96009303D01*
X124192780Y-96003858D01*
X124159976Y-95924660D01*
X124153476Y-95903233D01*
X124136750Y-95819149D01*
X124134556Y-95796869D01*
X124134556Y-95778450D01*
X124133954Y-95766199D01*
X124132148Y-95747862D01*
X124132148Y-95260139D01*
X124133954Y-95241801D01*
X124134556Y-95229550D01*
X124134556Y-95211131D01*
X124136750Y-95188851D01*
X124153476Y-95104767D01*
X124159976Y-95083340D01*
X124192780Y-95004142D01*
X124195691Y-94998697D01*
X124195693Y-94998691D01*
X124200429Y-94989831D01*
X124200432Y-94989827D01*
X124203340Y-94984386D01*
X124250971Y-94913101D01*
X124265172Y-94895796D01*
X124325796Y-94835172D01*
X124343101Y-94820971D01*
X124414386Y-94773340D01*
X124419827Y-94770432D01*
X124419831Y-94770429D01*
X124428691Y-94765693D01*
X124428697Y-94765691D01*
X124434142Y-94762780D01*
X124513340Y-94729976D01*
X124534767Y-94723476D01*
X124618851Y-94706750D01*
X124641131Y-94704556D01*
X124659550Y-94704556D01*
X124671801Y-94703954D01*
X124690139Y-94702148D01*
X125227860Y-94702148D01*
X125243999Y-94703737D01*
G37*
G36*
X92545588Y-93414787D02*
G01*
X92660131Y-93462232D01*
X92660133Y-93462233D01*
X92763219Y-93531113D01*
X92850887Y-93618781D01*
X92919767Y-93721867D01*
X92919768Y-93721869D01*
X92967213Y-93836412D01*
X92991400Y-93958008D01*
X92991400Y-94081992D01*
X92967213Y-94203588D01*
X92919768Y-94318131D01*
X92919767Y-94318133D01*
X92850887Y-94421219D01*
X92763219Y-94508887D01*
X92660133Y-94577767D01*
X92660132Y-94577768D01*
X92660131Y-94577768D01*
X92545588Y-94625213D01*
X92423992Y-94649400D01*
X92300008Y-94649400D01*
X92178412Y-94625213D01*
X92063869Y-94577768D01*
X92063868Y-94577768D01*
X92063867Y-94577767D01*
X91960781Y-94508887D01*
X91873113Y-94421219D01*
X91804233Y-94318133D01*
X91804232Y-94318131D01*
X91756787Y-94203588D01*
X91732600Y-94081992D01*
X91732600Y-93958008D01*
X91756787Y-93836412D01*
X91804232Y-93721869D01*
X91804233Y-93721867D01*
X91873113Y-93618781D01*
X91960781Y-93531113D01*
X92063867Y-93462233D01*
X92063869Y-93462232D01*
X92178412Y-93414787D01*
X92300008Y-93390600D01*
X92423992Y-93390600D01*
X92545588Y-93414787D01*
G37*
G36*
X137905142Y-92436242D02*
G01*
X138053101Y-92497529D01*
X138186255Y-92586499D01*
X138299501Y-92699745D01*
X138388471Y-92832899D01*
X138449758Y-92980858D01*
X138481000Y-93137925D01*
X138481000Y-93298075D01*
X138449758Y-93455142D01*
X138388471Y-93603101D01*
X138299501Y-93736255D01*
X138186255Y-93849501D01*
X138053101Y-93938471D01*
X137905142Y-93999758D01*
X137748075Y-94031000D01*
X137587925Y-94031000D01*
X137430858Y-93999758D01*
X137282899Y-93938471D01*
X137149745Y-93849501D01*
X137036499Y-93736255D01*
X136947529Y-93603101D01*
X136886242Y-93455142D01*
X136855000Y-93298075D01*
X136855000Y-93137925D01*
X136886242Y-92980858D01*
X136947529Y-92832899D01*
X137036499Y-92699745D01*
X137149745Y-92586499D01*
X137282899Y-92497529D01*
X137430858Y-92436242D01*
X137587925Y-92405000D01*
X137748075Y-92405000D01*
X137905142Y-92436242D01*
G37*
G36*
X89828139Y-92185163D02*
G01*
X89910403Y-92201526D01*
X90065384Y-92265721D01*
X90204864Y-92358919D01*
X90323481Y-92477536D01*
X90416679Y-92617016D01*
X90480874Y-92771997D01*
X90513600Y-92936525D01*
X90513600Y-93104275D01*
X90480874Y-93268803D01*
X90416679Y-93423784D01*
X90323481Y-93563264D01*
X90204864Y-93681881D01*
X90065384Y-93775079D01*
X89910403Y-93839274D01*
X89858997Y-93849499D01*
X89745877Y-93872000D01*
X89578123Y-93872000D01*
X89465003Y-93849499D01*
X89413597Y-93839274D01*
X89258616Y-93775079D01*
X89119136Y-93681881D01*
X89000519Y-93563264D01*
X88907321Y-93423784D01*
X88843126Y-93268803D01*
X88810400Y-93104275D01*
X88810400Y-92936525D01*
X88843126Y-92771997D01*
X88907321Y-92617016D01*
X89000519Y-92477536D01*
X89119136Y-92358919D01*
X89258616Y-92265721D01*
X89413597Y-92201526D01*
X89495861Y-92185163D01*
X89578123Y-92168800D01*
X89745877Y-92168800D01*
X89828139Y-92185163D01*
G37*
G36*
X122882800Y-92070800D02*
G01*
X120281200Y-92070800D01*
X120281200Y-89469200D01*
X122882800Y-89469200D01*
X122882800Y-92070800D01*
G37*
G36*
X112382800Y-92070800D02*
G01*
X109781200Y-92070800D01*
X109781200Y-89469200D01*
X112382800Y-89469200D01*
X112382800Y-92070800D01*
G37*
G36*
X106434000Y-91621000D02*
G01*
X97782000Y-91621000D01*
X97782000Y-90019000D01*
X106434000Y-90019000D01*
X106434000Y-91621000D01*
G37*
G36*
X137905142Y-89896242D02*
G01*
X138053101Y-89957529D01*
X138186255Y-90046499D01*
X138299501Y-90159745D01*
X138388471Y-90292899D01*
X138449758Y-90440858D01*
X138481000Y-90597925D01*
X138481000Y-90758075D01*
X138449758Y-90915142D01*
X138388471Y-91063101D01*
X138299501Y-91196255D01*
X138186255Y-91309501D01*
X138053101Y-91398471D01*
X137905142Y-91459758D01*
X137748075Y-91491000D01*
X137587925Y-91491000D01*
X137430858Y-91459758D01*
X137282899Y-91398471D01*
X137149745Y-91309501D01*
X137036499Y-91196255D01*
X136947529Y-91063101D01*
X136886242Y-90915142D01*
X136855000Y-90758075D01*
X136855000Y-90597925D01*
X136886242Y-90440858D01*
X136947529Y-90292899D01*
X137036499Y-90159745D01*
X137149745Y-90046499D01*
X137282899Y-89957529D01*
X137430858Y-89896242D01*
X137587925Y-89865000D01*
X137748075Y-89865000D01*
X137905142Y-89896242D01*
G37*
G36*
X132205591Y-90219085D02*
G01*
X132239569Y-90229393D01*
X132270890Y-90246134D01*
X132298339Y-90268661D01*
X132320866Y-90296110D01*
X132337607Y-90327431D01*
X132347915Y-90361409D01*
X132352000Y-90402890D01*
X132352000Y-91004110D01*
X132347915Y-91045591D01*
X132337607Y-91079569D01*
X132320866Y-91110890D01*
X132298339Y-91138339D01*
X132270890Y-91160866D01*
X132239569Y-91177607D01*
X132205591Y-91187915D01*
X132164110Y-91192000D01*
X131487890Y-91192000D01*
X131446409Y-91187915D01*
X131412431Y-91177607D01*
X131381110Y-91160866D01*
X131353661Y-91138339D01*
X131331134Y-91110890D01*
X131314393Y-91079569D01*
X131304085Y-91045591D01*
X131300000Y-91004110D01*
X131300000Y-90402890D01*
X131304085Y-90361409D01*
X131314393Y-90327431D01*
X131331134Y-90296110D01*
X131353661Y-90268661D01*
X131381110Y-90246134D01*
X131412431Y-90229393D01*
X131446409Y-90219085D01*
X131487890Y-90215000D01*
X132164110Y-90215000D01*
X132205591Y-90219085D01*
G37*
G36*
X129665591Y-90219085D02*
G01*
X129699569Y-90229393D01*
X129730890Y-90246134D01*
X129758339Y-90268661D01*
X129780866Y-90296110D01*
X129797607Y-90327431D01*
X129807915Y-90361409D01*
X129812000Y-90402890D01*
X129812000Y-91004110D01*
X129807915Y-91045591D01*
X129797607Y-91079569D01*
X129780866Y-91110890D01*
X129758339Y-91138339D01*
X129730890Y-91160866D01*
X129699569Y-91177607D01*
X129665591Y-91187915D01*
X129624110Y-91192000D01*
X128947890Y-91192000D01*
X128906409Y-91187915D01*
X128872431Y-91177607D01*
X128841110Y-91160866D01*
X128813661Y-91138339D01*
X128791134Y-91110890D01*
X128774393Y-91079569D01*
X128764085Y-91045591D01*
X128760000Y-91004110D01*
X128760000Y-90402890D01*
X128764085Y-90361409D01*
X128774393Y-90327431D01*
X128791134Y-90296110D01*
X128813661Y-90268661D01*
X128841110Y-90246134D01*
X128872431Y-90229393D01*
X128906409Y-90219085D01*
X128947890Y-90215000D01*
X129624110Y-90215000D01*
X129665591Y-90219085D01*
G37*
G36*
X91833091Y-88886085D02*
G01*
X91867069Y-88896393D01*
X91898390Y-88913134D01*
X91925839Y-88935661D01*
X91948366Y-88963110D01*
X91965107Y-88994431D01*
X91975415Y-89028409D01*
X91979500Y-89069890D01*
X91979500Y-89746110D01*
X91975415Y-89787591D01*
X91965107Y-89821569D01*
X91948366Y-89852890D01*
X91925839Y-89880339D01*
X91898390Y-89902866D01*
X91867069Y-89919607D01*
X91833091Y-89929915D01*
X91791610Y-89934000D01*
X91190390Y-89934000D01*
X91148909Y-89929915D01*
X91114931Y-89919607D01*
X91083610Y-89902866D01*
X91056161Y-89880339D01*
X91033634Y-89852890D01*
X91016893Y-89821569D01*
X91006585Y-89787591D01*
X91002500Y-89746110D01*
X91002500Y-89069890D01*
X91006585Y-89028409D01*
X91016893Y-88994431D01*
X91033634Y-88963110D01*
X91056161Y-88935661D01*
X91083610Y-88913134D01*
X91114931Y-88896393D01*
X91148909Y-88886085D01*
X91190390Y-88882000D01*
X91791610Y-88882000D01*
X91833091Y-88886085D01*
G37*
G36*
X90258091Y-88886085D02*
G01*
X90292069Y-88896393D01*
X90323390Y-88913134D01*
X90350839Y-88935661D01*
X90373366Y-88963110D01*
X90390107Y-88994431D01*
X90400415Y-89028409D01*
X90404500Y-89069890D01*
X90404500Y-89746110D01*
X90400415Y-89787591D01*
X90390107Y-89821569D01*
X90373366Y-89852890D01*
X90350839Y-89880339D01*
X90323390Y-89902866D01*
X90292069Y-89919607D01*
X90258091Y-89929915D01*
X90216610Y-89934000D01*
X89615390Y-89934000D01*
X89573909Y-89929915D01*
X89539931Y-89919607D01*
X89508610Y-89902866D01*
X89481161Y-89880339D01*
X89458634Y-89852890D01*
X89441893Y-89821569D01*
X89431585Y-89787591D01*
X89427500Y-89746110D01*
X89427500Y-89069890D01*
X89431585Y-89028409D01*
X89441893Y-88994431D01*
X89458634Y-88963110D01*
X89481161Y-88935661D01*
X89508610Y-88913134D01*
X89539931Y-88896393D01*
X89573909Y-88886085D01*
X89615390Y-88882000D01*
X90216610Y-88882000D01*
X90258091Y-88886085D01*
G37*
G36*
X132205591Y-88644085D02*
G01*
X132239569Y-88654393D01*
X132270890Y-88671134D01*
X132298339Y-88693661D01*
X132320866Y-88721110D01*
X132337607Y-88752431D01*
X132347915Y-88786409D01*
X132352000Y-88827890D01*
X132352000Y-89429110D01*
X132347915Y-89470591D01*
X132337607Y-89504569D01*
X132320866Y-89535890D01*
X132298339Y-89563339D01*
X132270890Y-89585866D01*
X132239569Y-89602607D01*
X132205591Y-89612915D01*
X132164110Y-89617000D01*
X131487890Y-89617000D01*
X131446409Y-89612915D01*
X131412431Y-89602607D01*
X131381110Y-89585866D01*
X131353661Y-89563339D01*
X131331134Y-89535890D01*
X131314393Y-89504569D01*
X131304085Y-89470591D01*
X131300000Y-89429110D01*
X131300000Y-88827890D01*
X131304085Y-88786409D01*
X131314393Y-88752431D01*
X131331134Y-88721110D01*
X131353661Y-88693661D01*
X131381110Y-88671134D01*
X131412431Y-88654393D01*
X131446409Y-88644085D01*
X131487890Y-88640000D01*
X132164110Y-88640000D01*
X132205591Y-88644085D01*
G37*
G36*
X129665591Y-88644085D02*
G01*
X129699569Y-88654393D01*
X129730890Y-88671134D01*
X129758339Y-88693661D01*
X129780866Y-88721110D01*
X129797607Y-88752431D01*
X129807915Y-88786409D01*
X129812000Y-88827890D01*
X129812000Y-89429110D01*
X129807915Y-89470591D01*
X129797607Y-89504569D01*
X129780866Y-89535890D01*
X129758339Y-89563339D01*
X129730890Y-89585866D01*
X129699569Y-89602607D01*
X129665591Y-89612915D01*
X129624110Y-89617000D01*
X128947890Y-89617000D01*
X128906409Y-89612915D01*
X128872431Y-89602607D01*
X128841110Y-89585866D01*
X128813661Y-89563339D01*
X128791134Y-89535890D01*
X128774393Y-89504569D01*
X128764085Y-89470591D01*
X128760000Y-89429110D01*
X128760000Y-88827890D01*
X128764085Y-88786409D01*
X128774393Y-88752431D01*
X128791134Y-88721110D01*
X128813661Y-88693661D01*
X128841110Y-88671134D01*
X128872431Y-88654393D01*
X128906409Y-88644085D01*
X128947890Y-88640000D01*
X129624110Y-88640000D01*
X129665591Y-88644085D01*
G37*
G36*
X137905142Y-87356242D02*
G01*
X138053101Y-87417529D01*
X138186255Y-87506499D01*
X138299501Y-87619745D01*
X138388471Y-87752899D01*
X138449758Y-87900858D01*
X138481000Y-88057925D01*
X138481000Y-88218075D01*
X138449758Y-88375142D01*
X138388471Y-88523101D01*
X138299501Y-88656255D01*
X138186255Y-88769501D01*
X138053101Y-88858471D01*
X137905142Y-88919758D01*
X137748075Y-88951000D01*
X137587925Y-88951000D01*
X137430858Y-88919758D01*
X137282899Y-88858471D01*
X137149745Y-88769501D01*
X137036499Y-88656255D01*
X136947529Y-88523101D01*
X136886242Y-88375142D01*
X136855000Y-88218075D01*
X136855000Y-88057925D01*
X136886242Y-87900858D01*
X136947529Y-87752899D01*
X137036499Y-87619745D01*
X137149745Y-87506499D01*
X137282899Y-87417529D01*
X137430858Y-87356242D01*
X137587925Y-87325000D01*
X137748075Y-87325000D01*
X137905142Y-87356242D01*
G37*
G36*
X101077000Y-88065000D02*
G01*
X99075000Y-88065000D01*
X99075000Y-87563000D01*
X101077000Y-87563000D01*
X101077000Y-88065000D01*
G37*
G36*
X105151569Y-86045280D02*
G01*
X105307278Y-86109776D01*
X105447413Y-86203412D01*
X105566588Y-86322587D01*
X105660224Y-86462722D01*
X105724720Y-86618431D01*
X105757600Y-86783729D01*
X105757600Y-86952271D01*
X105724720Y-87117569D01*
X105660224Y-87273278D01*
X105566588Y-87413413D01*
X105447413Y-87532588D01*
X105307278Y-87626224D01*
X105151569Y-87690720D01*
X104986271Y-87723600D01*
X104817729Y-87723600D01*
X104652431Y-87690720D01*
X104496722Y-87626224D01*
X104356587Y-87532588D01*
X104237412Y-87413413D01*
X104143776Y-87273278D01*
X104079280Y-87117569D01*
X104046400Y-86952271D01*
X104046400Y-86783729D01*
X104079280Y-86618431D01*
X104143776Y-86462722D01*
X104237412Y-86322587D01*
X104356587Y-86203412D01*
X104496722Y-86109776D01*
X104652431Y-86045280D01*
X104817729Y-86012400D01*
X104986271Y-86012400D01*
X105151569Y-86045280D01*
G37*
G36*
X125471569Y-86045280D02*
G01*
X125627278Y-86109776D01*
X125767413Y-86203412D01*
X125886588Y-86322587D01*
X125980224Y-86462722D01*
X126044720Y-86618431D01*
X126077600Y-86783729D01*
X126077600Y-86952271D01*
X126044720Y-87117569D01*
X125980224Y-87273278D01*
X125886588Y-87413413D01*
X125767413Y-87532588D01*
X125627278Y-87626224D01*
X125471569Y-87690720D01*
X125306271Y-87723600D01*
X125137729Y-87723600D01*
X124972431Y-87690720D01*
X124816722Y-87626224D01*
X124676587Y-87532588D01*
X124557412Y-87413413D01*
X124463776Y-87273278D01*
X124399280Y-87117569D01*
X124366400Y-86952271D01*
X124366400Y-86783729D01*
X124399280Y-86618431D01*
X124463776Y-86462722D01*
X124557412Y-86322587D01*
X124676587Y-86203412D01*
X124816722Y-86109776D01*
X124972431Y-86045280D01*
X125137729Y-86012400D01*
X125306271Y-86012400D01*
X125471569Y-86045280D01*
G37*
G36*
X117851569Y-86045280D02*
G01*
X118007278Y-86109776D01*
X118147413Y-86203412D01*
X118266588Y-86322587D01*
X118360224Y-86462722D01*
X118424720Y-86618431D01*
X118457600Y-86783729D01*
X118457600Y-86952271D01*
X118424720Y-87117569D01*
X118360224Y-87273278D01*
X118266588Y-87413413D01*
X118147413Y-87532588D01*
X118007278Y-87626224D01*
X117851569Y-87690720D01*
X117686271Y-87723600D01*
X117517729Y-87723600D01*
X117352431Y-87690720D01*
X117196722Y-87626224D01*
X117056587Y-87532588D01*
X116937412Y-87413413D01*
X116843776Y-87273278D01*
X116779280Y-87117569D01*
X116746400Y-86952271D01*
X116746400Y-86783729D01*
X116779280Y-86618431D01*
X116843776Y-86462722D01*
X116937412Y-86322587D01*
X117056587Y-86203412D01*
X117196722Y-86109776D01*
X117352431Y-86045280D01*
X117517729Y-86012400D01*
X117686271Y-86012400D01*
X117851569Y-86045280D01*
G37*
G36*
X115311569Y-86045280D02*
G01*
X115467278Y-86109776D01*
X115607413Y-86203412D01*
X115726588Y-86322587D01*
X115820224Y-86462722D01*
X115884720Y-86618431D01*
X115917600Y-86783729D01*
X115917600Y-86952271D01*
X115884720Y-87117569D01*
X115820224Y-87273278D01*
X115726588Y-87413413D01*
X115607413Y-87532588D01*
X115467278Y-87626224D01*
X115311569Y-87690720D01*
X115146271Y-87723600D01*
X114977729Y-87723600D01*
X114812431Y-87690720D01*
X114656722Y-87626224D01*
X114516587Y-87532588D01*
X114397412Y-87413413D01*
X114303776Y-87273278D01*
X114239280Y-87117569D01*
X114206400Y-86952271D01*
X114206400Y-86783729D01*
X114239280Y-86618431D01*
X114303776Y-86462722D01*
X114397412Y-86322587D01*
X114516587Y-86203412D01*
X114656722Y-86109776D01*
X114812431Y-86045280D01*
X114977729Y-86012400D01*
X115146271Y-86012400D01*
X115311569Y-86045280D01*
G37*
G36*
X112771569Y-86045280D02*
G01*
X112927278Y-86109776D01*
X113067413Y-86203412D01*
X113186588Y-86322587D01*
X113280224Y-86462722D01*
X113344720Y-86618431D01*
X113377600Y-86783729D01*
X113377600Y-86952271D01*
X113344720Y-87117569D01*
X113280224Y-87273278D01*
X113186588Y-87413413D01*
X113067413Y-87532588D01*
X112927278Y-87626224D01*
X112771569Y-87690720D01*
X112606271Y-87723600D01*
X112437729Y-87723600D01*
X112272431Y-87690720D01*
X112116722Y-87626224D01*
X111976587Y-87532588D01*
X111857412Y-87413413D01*
X111763776Y-87273278D01*
X111699280Y-87117569D01*
X111666400Y-86952271D01*
X111666400Y-86783729D01*
X111699280Y-86618431D01*
X111763776Y-86462722D01*
X111857412Y-86322587D01*
X111976587Y-86203412D01*
X112116722Y-86109776D01*
X112272431Y-86045280D01*
X112437729Y-86012400D01*
X112606271Y-86012400D01*
X112771569Y-86045280D01*
G37*
G36*
X107691569Y-86045280D02*
G01*
X107847278Y-86109776D01*
X107987413Y-86203412D01*
X108106588Y-86322587D01*
X108200224Y-86462722D01*
X108264720Y-86618431D01*
X108297600Y-86783729D01*
X108297600Y-86952271D01*
X108264720Y-87117569D01*
X108200224Y-87273278D01*
X108106588Y-87413413D01*
X107987413Y-87532588D01*
X107847278Y-87626224D01*
X107691569Y-87690720D01*
X107526271Y-87723600D01*
X107357729Y-87723600D01*
X107192431Y-87690720D01*
X107036722Y-87626224D01*
X106896587Y-87532588D01*
X106777412Y-87413413D01*
X106683776Y-87273278D01*
X106619280Y-87117569D01*
X106586400Y-86952271D01*
X106586400Y-86783729D01*
X106619280Y-86618431D01*
X106683776Y-86462722D01*
X106777412Y-86322587D01*
X106896587Y-86203412D01*
X107036722Y-86109776D01*
X107192431Y-86045280D01*
X107357729Y-86012400D01*
X107526271Y-86012400D01*
X107691569Y-86045280D01*
G37*
G36*
X133091569Y-86045280D02*
G01*
X133247278Y-86109776D01*
X133387413Y-86203412D01*
X133506588Y-86322587D01*
X133600224Y-86462722D01*
X133664720Y-86618431D01*
X133697600Y-86783729D01*
X133697600Y-86952271D01*
X133664720Y-87117569D01*
X133600224Y-87273278D01*
X133506588Y-87413413D01*
X133387413Y-87532588D01*
X133247278Y-87626224D01*
X133091569Y-87690720D01*
X132926271Y-87723600D01*
X132757729Y-87723600D01*
X132592431Y-87690720D01*
X132436722Y-87626224D01*
X132296587Y-87532588D01*
X132177412Y-87413413D01*
X132083776Y-87273278D01*
X132019280Y-87117569D01*
X131986400Y-86952271D01*
X131986400Y-86783729D01*
X132019280Y-86618431D01*
X132083776Y-86462722D01*
X132177412Y-86322587D01*
X132296587Y-86203412D01*
X132436722Y-86109776D01*
X132592431Y-86045280D01*
X132757729Y-86012400D01*
X132926271Y-86012400D01*
X133091569Y-86045280D01*
G37*
G36*
X122931569Y-86045280D02*
G01*
X123087278Y-86109776D01*
X123227413Y-86203412D01*
X123346588Y-86322587D01*
X123440224Y-86462722D01*
X123504720Y-86618431D01*
X123537600Y-86783729D01*
X123537600Y-86952271D01*
X123504720Y-87117569D01*
X123440224Y-87273278D01*
X123346588Y-87413413D01*
X123227413Y-87532588D01*
X123087278Y-87626224D01*
X122931569Y-87690720D01*
X122766271Y-87723600D01*
X122597729Y-87723600D01*
X122432431Y-87690720D01*
X122276722Y-87626224D01*
X122136587Y-87532588D01*
X122017412Y-87413413D01*
X121923776Y-87273278D01*
X121859280Y-87117569D01*
X121826400Y-86952271D01*
X121826400Y-86783729D01*
X121859280Y-86618431D01*
X121923776Y-86462722D01*
X122017412Y-86322587D01*
X122136587Y-86203412D01*
X122276722Y-86109776D01*
X122432431Y-86045280D01*
X122597729Y-86012400D01*
X122766271Y-86012400D01*
X122931569Y-86045280D01*
G37*
G36*
X110231569Y-86045280D02*
G01*
X110387278Y-86109776D01*
X110527413Y-86203412D01*
X110646588Y-86322587D01*
X110740224Y-86462722D01*
X110804720Y-86618431D01*
X110837600Y-86783729D01*
X110837600Y-86952271D01*
X110804720Y-87117569D01*
X110740224Y-87273278D01*
X110646588Y-87413413D01*
X110527413Y-87532588D01*
X110387278Y-87626224D01*
X110231569Y-87690720D01*
X110066271Y-87723600D01*
X109897729Y-87723600D01*
X109732431Y-87690720D01*
X109576722Y-87626224D01*
X109436587Y-87532588D01*
X109317412Y-87413413D01*
X109223776Y-87273278D01*
X109159280Y-87117569D01*
X109126400Y-86952271D01*
X109126400Y-86783729D01*
X109159280Y-86618431D01*
X109223776Y-86462722D01*
X109317412Y-86322587D01*
X109436587Y-86203412D01*
X109576722Y-86109776D01*
X109732431Y-86045280D01*
X109897729Y-86012400D01*
X110066271Y-86012400D01*
X110231569Y-86045280D01*
G37*
G36*
X128011569Y-86045280D02*
G01*
X128167278Y-86109776D01*
X128307413Y-86203412D01*
X128426588Y-86322587D01*
X128520224Y-86462722D01*
X128584720Y-86618431D01*
X128617600Y-86783729D01*
X128617600Y-86952271D01*
X128584720Y-87117569D01*
X128520224Y-87273278D01*
X128426588Y-87413413D01*
X128307413Y-87532588D01*
X128167278Y-87626224D01*
X128011569Y-87690720D01*
X127846271Y-87723600D01*
X127677729Y-87723600D01*
X127512431Y-87690720D01*
X127356722Y-87626224D01*
X127216587Y-87532588D01*
X127097412Y-87413413D01*
X127003776Y-87273278D01*
X126939280Y-87117569D01*
X126906400Y-86952271D01*
X126906400Y-86783729D01*
X126939280Y-86618431D01*
X127003776Y-86462722D01*
X127097412Y-86322587D01*
X127216587Y-86203412D01*
X127356722Y-86109776D01*
X127512431Y-86045280D01*
X127677729Y-86012400D01*
X127846271Y-86012400D01*
X128011569Y-86045280D01*
G37*
G36*
X130551569Y-86045280D02*
G01*
X130707278Y-86109776D01*
X130847413Y-86203412D01*
X130966588Y-86322587D01*
X131060224Y-86462722D01*
X131124720Y-86618431D01*
X131157600Y-86783729D01*
X131157600Y-86952271D01*
X131124720Y-87117569D01*
X131060224Y-87273278D01*
X130966588Y-87413413D01*
X130847413Y-87532588D01*
X130707278Y-87626224D01*
X130551569Y-87690720D01*
X130386271Y-87723600D01*
X130217729Y-87723600D01*
X130052431Y-87690720D01*
X129896722Y-87626224D01*
X129756587Y-87532588D01*
X129637412Y-87413413D01*
X129543776Y-87273278D01*
X129479280Y-87117569D01*
X129446400Y-86952271D01*
X129446400Y-86783729D01*
X129479280Y-86618431D01*
X129543776Y-86462722D01*
X129637412Y-86322587D01*
X129756587Y-86203412D01*
X129896722Y-86109776D01*
X130052431Y-86045280D01*
X130217729Y-86012400D01*
X130386271Y-86012400D01*
X130551569Y-86045280D01*
G37*
G36*
X120391569Y-86045280D02*
G01*
X120547278Y-86109776D01*
X120687413Y-86203412D01*
X120806588Y-86322587D01*
X120900224Y-86462722D01*
X120964720Y-86618431D01*
X120997600Y-86783729D01*
X120997600Y-86952271D01*
X120964720Y-87117569D01*
X120900224Y-87273278D01*
X120806588Y-87413413D01*
X120687413Y-87532588D01*
X120547278Y-87626224D01*
X120391569Y-87690720D01*
X120226271Y-87723600D01*
X120057729Y-87723600D01*
X119892431Y-87690720D01*
X119736722Y-87626224D01*
X119596587Y-87532588D01*
X119477412Y-87413413D01*
X119383776Y-87273278D01*
X119319280Y-87117569D01*
X119286400Y-86952271D01*
X119286400Y-86783729D01*
X119319280Y-86618431D01*
X119383776Y-86462722D01*
X119477412Y-86322587D01*
X119596587Y-86203412D01*
X119736722Y-86109776D01*
X119892431Y-86045280D01*
X120057729Y-86012400D01*
X120226271Y-86012400D01*
X120391569Y-86045280D01*
G37*
G36*
X101077000Y-86865000D02*
G01*
X99075000Y-86865000D01*
X99075000Y-86363000D01*
X101077000Y-86363000D01*
X101077000Y-86865000D01*
G37*
G36*
X101077000Y-85665000D02*
G01*
X99075000Y-85665000D01*
X99075000Y-85163000D01*
X101077000Y-85163000D01*
X101077000Y-85665000D01*
G37*
G36*
X122478000Y-83407000D02*
G01*
X121616000Y-83407000D01*
X121616000Y-76955000D01*
X122478000Y-76955000D01*
X122478000Y-83407000D01*
G37*
G36*
X117398000Y-83407000D02*
G01*
X116536000Y-83407000D01*
X116536000Y-76955000D01*
X117398000Y-76955000D01*
X117398000Y-83407000D01*
G37*
G36*
X118668000Y-83407000D02*
G01*
X117806000Y-83407000D01*
X117806000Y-76955000D01*
X118668000Y-76955000D01*
X118668000Y-83407000D01*
G37*
G36*
X119938000Y-83407000D02*
G01*
X119076000Y-83407000D01*
X119076000Y-76955000D01*
X119938000Y-76955000D01*
X119938000Y-83407000D01*
G37*
G36*
X121208000Y-83407000D02*
G01*
X120346000Y-83407000D01*
X120346000Y-76955000D01*
X121208000Y-76955000D01*
X121208000Y-83407000D01*
G37*
G36*
X123748000Y-83407000D02*
G01*
X122886000Y-83407000D01*
X122886000Y-76955000D01*
X123748000Y-76955000D01*
X123748000Y-83407000D01*
G37*
G36*
X125018000Y-83407000D02*
G01*
X124156000Y-83407000D01*
X124156000Y-76955000D01*
X125018000Y-76955000D01*
X125018000Y-83407000D01*
G37*
G36*
X126288000Y-83407000D02*
G01*
X125426000Y-83407000D01*
X125426000Y-76955000D01*
X126288000Y-76955000D01*
X126288000Y-83407000D01*
G37*
G36*
X140499997Y-80814051D02*
G01*
X140533652Y-80824261D01*
X140564665Y-80840838D01*
X140591851Y-80863149D01*
X140614162Y-80890335D01*
X140630739Y-80921348D01*
X140640949Y-80955003D01*
X140645000Y-80996138D01*
X140645000Y-82325862D01*
X140640949Y-82366997D01*
X140630739Y-82400652D01*
X140614162Y-82431665D01*
X140591851Y-82458851D01*
X140564665Y-82481162D01*
X140533652Y-82497739D01*
X140499997Y-82507949D01*
X140458862Y-82512000D01*
X137229138Y-82512000D01*
X137188003Y-82507949D01*
X137154348Y-82497739D01*
X137123335Y-82481162D01*
X137096149Y-82458851D01*
X137073838Y-82431665D01*
X137057261Y-82400652D01*
X137047051Y-82366997D01*
X137043000Y-82325862D01*
X137043000Y-80996138D01*
X137047051Y-80955003D01*
X137057261Y-80921348D01*
X137073838Y-80890335D01*
X137096149Y-80863149D01*
X137123335Y-80840838D01*
X137154348Y-80824261D01*
X137188003Y-80814051D01*
X137229138Y-80810000D01*
X140458862Y-80810000D01*
X140499997Y-80814051D01*
G37*
G36*
X135099997Y-80814051D02*
G01*
X135133652Y-80824261D01*
X135164665Y-80840838D01*
X135191851Y-80863149D01*
X135214162Y-80890335D01*
X135230739Y-80921348D01*
X135240949Y-80955003D01*
X135245000Y-80996138D01*
X135245000Y-82325862D01*
X135240949Y-82366997D01*
X135230739Y-82400652D01*
X135214162Y-82431665D01*
X135191851Y-82458851D01*
X135164665Y-82481162D01*
X135133652Y-82497739D01*
X135099997Y-82507949D01*
X135058862Y-82512000D01*
X131829138Y-82512000D01*
X131788003Y-82507949D01*
X131754348Y-82497739D01*
X131723335Y-82481162D01*
X131696149Y-82458851D01*
X131673838Y-82431665D01*
X131657261Y-82400652D01*
X131647051Y-82366997D01*
X131643000Y-82325862D01*
X131643000Y-80996138D01*
X131647051Y-80955003D01*
X131657261Y-80921348D01*
X131673838Y-80890335D01*
X131696149Y-80863149D01*
X131723335Y-80840838D01*
X131754348Y-80824261D01*
X131788003Y-80814051D01*
X131829138Y-80810000D01*
X135058862Y-80810000D01*
X135099997Y-80814051D01*
G37*
G36*
X95049000Y-82094000D02*
G01*
X93347000Y-82094000D01*
X93347000Y-80592000D01*
X95049000Y-80592000D01*
X95049000Y-82094000D01*
G37*
G36*
X90549000Y-82094000D02*
G01*
X88847000Y-82094000D01*
X88847000Y-80592000D01*
X90549000Y-80592000D01*
X90549000Y-82094000D01*
G37*
G36*
X101916591Y-77837085D02*
G01*
X101950569Y-77847393D01*
X101981890Y-77864134D01*
X102009339Y-77886661D01*
X102031866Y-77914110D01*
X102048607Y-77945431D01*
X102058915Y-77979409D01*
X102063000Y-78020890D01*
X102063000Y-78697110D01*
X102058915Y-78738591D01*
X102048607Y-78772569D01*
X102031866Y-78803890D01*
X102009339Y-78831339D01*
X101981890Y-78853866D01*
X101950569Y-78870607D01*
X101916591Y-78880915D01*
X101875110Y-78885000D01*
X101273890Y-78885000D01*
X101232409Y-78880915D01*
X101198431Y-78870607D01*
X101167110Y-78853866D01*
X101139661Y-78831339D01*
X101117134Y-78803890D01*
X101100393Y-78772569D01*
X101090085Y-78738591D01*
X101086000Y-78697110D01*
X101086000Y-78020890D01*
X101090085Y-77979409D01*
X101100393Y-77945431D01*
X101117134Y-77914110D01*
X101139661Y-77886661D01*
X101167110Y-77864134D01*
X101198431Y-77847393D01*
X101232409Y-77837085D01*
X101273890Y-77833000D01*
X101875110Y-77833000D01*
X101916591Y-77837085D01*
G37*
G36*
X103491591Y-77837085D02*
G01*
X103525569Y-77847393D01*
X103556890Y-77864134D01*
X103584339Y-77886661D01*
X103606866Y-77914110D01*
X103623607Y-77945431D01*
X103633915Y-77979409D01*
X103638000Y-78020890D01*
X103638000Y-78697110D01*
X103633915Y-78738591D01*
X103623607Y-78772569D01*
X103606866Y-78803890D01*
X103584339Y-78831339D01*
X103556890Y-78853866D01*
X103525569Y-78870607D01*
X103491591Y-78880915D01*
X103450110Y-78885000D01*
X102848890Y-78885000D01*
X102807409Y-78880915D01*
X102773431Y-78870607D01*
X102742110Y-78853866D01*
X102714661Y-78831339D01*
X102692134Y-78803890D01*
X102675393Y-78772569D01*
X102665085Y-78738591D01*
X102661000Y-78697110D01*
X102661000Y-78020890D01*
X102665085Y-77979409D01*
X102675393Y-77945431D01*
X102692134Y-77914110D01*
X102714661Y-77886661D01*
X102742110Y-77864134D01*
X102773431Y-77847393D01*
X102807409Y-77837085D01*
X102848890Y-77833000D01*
X103450110Y-77833000D01*
X103491591Y-77837085D01*
G37*
G36*
X110361591Y-77747585D02*
G01*
X110395569Y-77757893D01*
X110426890Y-77774634D01*
X110454339Y-77797161D01*
X110476866Y-77824610D01*
X110493607Y-77855931D01*
X110503915Y-77889909D01*
X110508000Y-77931390D01*
X110508000Y-78532610D01*
X110503915Y-78574091D01*
X110493607Y-78608069D01*
X110476866Y-78639390D01*
X110454339Y-78666839D01*
X110426890Y-78689366D01*
X110395569Y-78706107D01*
X110361591Y-78716415D01*
X110320110Y-78720500D01*
X109643890Y-78720500D01*
X109602409Y-78716415D01*
X109568431Y-78706107D01*
X109537110Y-78689366D01*
X109509661Y-78666839D01*
X109487134Y-78639390D01*
X109470393Y-78608069D01*
X109460085Y-78574091D01*
X109456000Y-78532610D01*
X109456000Y-77931390D01*
X109460085Y-77889909D01*
X109470393Y-77855931D01*
X109487134Y-77824610D01*
X109509661Y-77797161D01*
X109537110Y-77774634D01*
X109568431Y-77757893D01*
X109602409Y-77747585D01*
X109643890Y-77743500D01*
X110320110Y-77743500D01*
X110361591Y-77747585D01*
G37*
G36*
X104573355Y-76422083D02*
G01*
X104578029Y-76423501D01*
X104582330Y-76425800D01*
X104588702Y-76431029D01*
X104609076Y-76444643D01*
X104631715Y-76454020D01*
X104655749Y-76458800D01*
X104680253Y-76458800D01*
X104704286Y-76454019D01*
X104726925Y-76444642D01*
X104747298Y-76431029D01*
X104753670Y-76425800D01*
X104757971Y-76423501D01*
X104762645Y-76422083D01*
X104773641Y-76421000D01*
X105062359Y-76421000D01*
X105073355Y-76422083D01*
X105078029Y-76423501D01*
X105082330Y-76425800D01*
X105088702Y-76431029D01*
X105109076Y-76444643D01*
X105131715Y-76454020D01*
X105155749Y-76458800D01*
X105180253Y-76458800D01*
X105204286Y-76454019D01*
X105226925Y-76444642D01*
X105247298Y-76431029D01*
X105253670Y-76425800D01*
X105257971Y-76423501D01*
X105262645Y-76422083D01*
X105273641Y-76421000D01*
X105562359Y-76421000D01*
X105573355Y-76422083D01*
X105578029Y-76423501D01*
X105582330Y-76425800D01*
X105588702Y-76431029D01*
X105609076Y-76444643D01*
X105631715Y-76454020D01*
X105655749Y-76458800D01*
X105680253Y-76458800D01*
X105704286Y-76454019D01*
X105726925Y-76444642D01*
X105747298Y-76431029D01*
X105753670Y-76425800D01*
X105757971Y-76423501D01*
X105762645Y-76422083D01*
X105773641Y-76421000D01*
X106062359Y-76421000D01*
X106073355Y-76422083D01*
X106078029Y-76423501D01*
X106082330Y-76425800D01*
X106088702Y-76431029D01*
X106109076Y-76444643D01*
X106131715Y-76454020D01*
X106155749Y-76458800D01*
X106180253Y-76458800D01*
X106204286Y-76454019D01*
X106226925Y-76444642D01*
X106247298Y-76431029D01*
X106253670Y-76425800D01*
X106257971Y-76423501D01*
X106262645Y-76422083D01*
X106273641Y-76421000D01*
X106562359Y-76421000D01*
X106573355Y-76422083D01*
X106578029Y-76423501D01*
X106582330Y-76425800D01*
X106588702Y-76431029D01*
X106609076Y-76444643D01*
X106631715Y-76454020D01*
X106655749Y-76458800D01*
X106680253Y-76458800D01*
X106704286Y-76454019D01*
X106726925Y-76444642D01*
X106747298Y-76431029D01*
X106753670Y-76425800D01*
X106757971Y-76423501D01*
X106762645Y-76422083D01*
X106773641Y-76421000D01*
X107062359Y-76421000D01*
X107073355Y-76422083D01*
X107078029Y-76423501D01*
X107082330Y-76425800D01*
X107088702Y-76431029D01*
X107109076Y-76444643D01*
X107131715Y-76454020D01*
X107155749Y-76458800D01*
X107180253Y-76458800D01*
X107204286Y-76454019D01*
X107226925Y-76444642D01*
X107247298Y-76431029D01*
X107253670Y-76425800D01*
X107257971Y-76423501D01*
X107262645Y-76422083D01*
X107273641Y-76421000D01*
X107562359Y-76421000D01*
X107573355Y-76422083D01*
X107578029Y-76423501D01*
X107582331Y-76425800D01*
X107586104Y-76428896D01*
X107589200Y-76432669D01*
X107591499Y-76436971D01*
X107592917Y-76441645D01*
X107594000Y-76452641D01*
X107594000Y-77291359D01*
X107592917Y-77302355D01*
X107591499Y-77307029D01*
X107589200Y-77311331D01*
X107586104Y-77315104D01*
X107582331Y-77318200D01*
X107578029Y-77320499D01*
X107573355Y-77321917D01*
X107562359Y-77323000D01*
X107273641Y-77323000D01*
X107262645Y-77321917D01*
X107257971Y-77320499D01*
X107253670Y-77318200D01*
X107247298Y-77312971D01*
X107226924Y-77299357D01*
X107204285Y-77289980D01*
X107180251Y-77285200D01*
X107155747Y-77285200D01*
X107131714Y-77289981D01*
X107109075Y-77299358D01*
X107088702Y-77312971D01*
X107082330Y-77318200D01*
X107078029Y-77320499D01*
X107073355Y-77321917D01*
X107062359Y-77323000D01*
X106773641Y-77323000D01*
X106762645Y-77321917D01*
X106757971Y-77320499D01*
X106753670Y-77318200D01*
X106747298Y-77312971D01*
X106726924Y-77299357D01*
X106704285Y-77289980D01*
X106680251Y-77285200D01*
X106655747Y-77285200D01*
X106631714Y-77289981D01*
X106609075Y-77299358D01*
X106588702Y-77312971D01*
X106582330Y-77318200D01*
X106578029Y-77320499D01*
X106573355Y-77321917D01*
X106562359Y-77323000D01*
X106273641Y-77323000D01*
X106262645Y-77321917D01*
X106257971Y-77320499D01*
X106253670Y-77318200D01*
X106247298Y-77312971D01*
X106226924Y-77299357D01*
X106204285Y-77289980D01*
X106180251Y-77285200D01*
X106155747Y-77285200D01*
X106131714Y-77289981D01*
X106109075Y-77299358D01*
X106088702Y-77312971D01*
X106082330Y-77318200D01*
X106078029Y-77320499D01*
X106073355Y-77321917D01*
X106062359Y-77323000D01*
X105773641Y-77323000D01*
X105762645Y-77321917D01*
X105757971Y-77320499D01*
X105753670Y-77318200D01*
X105747298Y-77312971D01*
X105726924Y-77299357D01*
X105704285Y-77289980D01*
X105680251Y-77285200D01*
X105655747Y-77285200D01*
X105631714Y-77289981D01*
X105609075Y-77299358D01*
X105588702Y-77312971D01*
X105582330Y-77318200D01*
X105578029Y-77320499D01*
X105573355Y-77321917D01*
X105562359Y-77323000D01*
X105273641Y-77323000D01*
X105262645Y-77321917D01*
X105257971Y-77320499D01*
X105253670Y-77318200D01*
X105247298Y-77312971D01*
X105226924Y-77299357D01*
X105204285Y-77289980D01*
X105180251Y-77285200D01*
X105155747Y-77285200D01*
X105131714Y-77289981D01*
X105109075Y-77299358D01*
X105088702Y-77312971D01*
X105082330Y-77318200D01*
X105078029Y-77320499D01*
X105073355Y-77321917D01*
X105062359Y-77323000D01*
X104773641Y-77323000D01*
X104762645Y-77321917D01*
X104757971Y-77320499D01*
X104753670Y-77318200D01*
X104747298Y-77312971D01*
X104726924Y-77299357D01*
X104704285Y-77289980D01*
X104680251Y-77285200D01*
X104655747Y-77285200D01*
X104631714Y-77289981D01*
X104609075Y-77299358D01*
X104588702Y-77312971D01*
X104582330Y-77318200D01*
X104578029Y-77320499D01*
X104573355Y-77321917D01*
X104562359Y-77323000D01*
X104273641Y-77323000D01*
X104262645Y-77321917D01*
X104257971Y-77320499D01*
X104253669Y-77318200D01*
X104249896Y-77315104D01*
X104246800Y-77311331D01*
X104244501Y-77307029D01*
X104243083Y-77302355D01*
X104242000Y-77291359D01*
X104242000Y-76452641D01*
X104243083Y-76441645D01*
X104244501Y-76436971D01*
X104246800Y-76432669D01*
X104249896Y-76428896D01*
X104253669Y-76425800D01*
X104257971Y-76423501D01*
X104262645Y-76422083D01*
X104273641Y-76421000D01*
X104562359Y-76421000D01*
X104573355Y-76422083D01*
G37*
G36*
X110361591Y-76172585D02*
G01*
X110395569Y-76182893D01*
X110426890Y-76199634D01*
X110454339Y-76222161D01*
X110476866Y-76249610D01*
X110493607Y-76280931D01*
X110503915Y-76314909D01*
X110508000Y-76356390D01*
X110508000Y-76957610D01*
X110503915Y-76999091D01*
X110493607Y-77033069D01*
X110476866Y-77064390D01*
X110454339Y-77091839D01*
X110426890Y-77114366D01*
X110395569Y-77131107D01*
X110361591Y-77141415D01*
X110320110Y-77145500D01*
X109643890Y-77145500D01*
X109602409Y-77141415D01*
X109568431Y-77131107D01*
X109537110Y-77114366D01*
X109509661Y-77091839D01*
X109487134Y-77064390D01*
X109470393Y-77033069D01*
X109460085Y-76999091D01*
X109456000Y-76957610D01*
X109456000Y-76356390D01*
X109460085Y-76314909D01*
X109470393Y-76280931D01*
X109487134Y-76249610D01*
X109509661Y-76222161D01*
X109537110Y-76199634D01*
X109568431Y-76182893D01*
X109602409Y-76172585D01*
X109643890Y-76168500D01*
X110320110Y-76168500D01*
X110361591Y-76172585D01*
G37*
G36*
X137553472Y-74400412D02*
G01*
X137649040Y-74409825D01*
X137894280Y-74484218D01*
X138120294Y-74605025D01*
X138171899Y-74647376D01*
X138318397Y-74767603D01*
X138438624Y-74914101D01*
X138480975Y-74965706D01*
X138601782Y-75191720D01*
X138676175Y-75436960D01*
X138701294Y-75692000D01*
X138676175Y-75947040D01*
X138603356Y-76187092D01*
X138601781Y-76192282D01*
X138556470Y-76277052D01*
X138480975Y-76418294D01*
X138459351Y-76444643D01*
X138318397Y-76616397D01*
X138171899Y-76736624D01*
X138120294Y-76778975D01*
X137894280Y-76899782D01*
X137649040Y-76974175D01*
X137553472Y-76983588D01*
X137457906Y-76993000D01*
X134830094Y-76993000D01*
X134734528Y-76983588D01*
X134638960Y-76974175D01*
X134393720Y-76899782D01*
X134167706Y-76778975D01*
X134116101Y-76736624D01*
X133969603Y-76616397D01*
X133828649Y-76444643D01*
X133807025Y-76418294D01*
X133731530Y-76277052D01*
X133686219Y-76192282D01*
X133684645Y-76187092D01*
X133611825Y-75947040D01*
X133586706Y-75692000D01*
X133611825Y-75436960D01*
X133686218Y-75191720D01*
X133807025Y-74965706D01*
X133849376Y-74914101D01*
X133969603Y-74767603D01*
X134116101Y-74647376D01*
X134167706Y-74605025D01*
X134393720Y-74484218D01*
X134638960Y-74409825D01*
X134734528Y-74400412D01*
X134830094Y-74391000D01*
X137457906Y-74391000D01*
X137553472Y-74400412D01*
G37*
G36*
X107522124Y-72699499D02*
G01*
X107550387Y-72708073D01*
X107576434Y-72721996D01*
X107599267Y-72740733D01*
X107618004Y-72763566D01*
X107631927Y-72789613D01*
X107640501Y-72817876D01*
X107644000Y-72853408D01*
X107644000Y-75990592D01*
X107640501Y-76026124D01*
X107631927Y-76054387D01*
X107618004Y-76080434D01*
X107599267Y-76103267D01*
X107576434Y-76122004D01*
X107550387Y-76135927D01*
X107522124Y-76144501D01*
X107486592Y-76148000D01*
X104349408Y-76148000D01*
X104313876Y-76144501D01*
X104285613Y-76135927D01*
X104259566Y-76122004D01*
X104236733Y-76103267D01*
X104217996Y-76080434D01*
X104204073Y-76054387D01*
X104195499Y-76026124D01*
X104192000Y-75990592D01*
X104192000Y-72853408D01*
X104195499Y-72817876D01*
X104204073Y-72789613D01*
X104217996Y-72763566D01*
X104236733Y-72740733D01*
X104259566Y-72721996D01*
X104285613Y-72708073D01*
X104313876Y-72699499D01*
X104349408Y-72696000D01*
X107486592Y-72696000D01*
X107522124Y-72699499D01*
G37*
G36*
X103898355Y-72747083D02*
G01*
X103903029Y-72748501D01*
X103907331Y-72750800D01*
X103911104Y-72753896D01*
X103914200Y-72757669D01*
X103916499Y-72761971D01*
X103917917Y-72766645D01*
X103919000Y-72777641D01*
X103919000Y-73066359D01*
X103917917Y-73077355D01*
X103916499Y-73082029D01*
X103914200Y-73086330D01*
X103908971Y-73092702D01*
X103895357Y-73113076D01*
X103885980Y-73135715D01*
X103881200Y-73159749D01*
X103881200Y-73184253D01*
X103885981Y-73208286D01*
X103895358Y-73230925D01*
X103908971Y-73251298D01*
X103914200Y-73257670D01*
X103916499Y-73261971D01*
X103917917Y-73266645D01*
X103919000Y-73277641D01*
X103919000Y-73566359D01*
X103917917Y-73577355D01*
X103916499Y-73582029D01*
X103914200Y-73586330D01*
X103908971Y-73592702D01*
X103895357Y-73613076D01*
X103885980Y-73635715D01*
X103881200Y-73659749D01*
X103881200Y-73684253D01*
X103885981Y-73708286D01*
X103895358Y-73730925D01*
X103908971Y-73751298D01*
X103914200Y-73757670D01*
X103916499Y-73761971D01*
X103917917Y-73766645D01*
X103919000Y-73777641D01*
X103919000Y-74066359D01*
X103917917Y-74077355D01*
X103916499Y-74082029D01*
X103914200Y-74086330D01*
X103908971Y-74092702D01*
X103895357Y-74113076D01*
X103885980Y-74135715D01*
X103881200Y-74159749D01*
X103881200Y-74184253D01*
X103885981Y-74208286D01*
X103895358Y-74230925D01*
X103908971Y-74251298D01*
X103914200Y-74257670D01*
X103916499Y-74261971D01*
X103917917Y-74266645D01*
X103919000Y-74277641D01*
X103919000Y-74566359D01*
X103917917Y-74577355D01*
X103916499Y-74582029D01*
X103914200Y-74586330D01*
X103908971Y-74592702D01*
X103895357Y-74613076D01*
X103885980Y-74635715D01*
X103881200Y-74659749D01*
X103881200Y-74684253D01*
X103885981Y-74708286D01*
X103895358Y-74730925D01*
X103908971Y-74751298D01*
X103914200Y-74757670D01*
X103916499Y-74761971D01*
X103917917Y-74766645D01*
X103919000Y-74777641D01*
X103919000Y-75066359D01*
X103917917Y-75077355D01*
X103916499Y-75082029D01*
X103914200Y-75086330D01*
X103908971Y-75092702D01*
X103895357Y-75113076D01*
X103885980Y-75135715D01*
X103881200Y-75159749D01*
X103881200Y-75184253D01*
X103885981Y-75208286D01*
X103895358Y-75230925D01*
X103908971Y-75251298D01*
X103914200Y-75257670D01*
X103916499Y-75261971D01*
X103917917Y-75266645D01*
X103919000Y-75277641D01*
X103919000Y-75566359D01*
X103917917Y-75577355D01*
X103916499Y-75582029D01*
X103914200Y-75586330D01*
X103908971Y-75592702D01*
X103895357Y-75613076D01*
X103885980Y-75635715D01*
X103881200Y-75659749D01*
X103881200Y-75684253D01*
X103885981Y-75708286D01*
X103895358Y-75730925D01*
X103908971Y-75751298D01*
X103914200Y-75757670D01*
X103916499Y-75761971D01*
X103917917Y-75766645D01*
X103919000Y-75777641D01*
X103919000Y-76066359D01*
X103917917Y-76077355D01*
X103916499Y-76082029D01*
X103914200Y-76086331D01*
X103911104Y-76090104D01*
X103907331Y-76093200D01*
X103903029Y-76095499D01*
X103898355Y-76096917D01*
X103887359Y-76098000D01*
X103048641Y-76098000D01*
X103037645Y-76096917D01*
X103032971Y-76095499D01*
X103028669Y-76093200D01*
X103024896Y-76090104D01*
X103021800Y-76086331D01*
X103019501Y-76082029D01*
X103018083Y-76077355D01*
X103017000Y-76066359D01*
X103017000Y-75777641D01*
X103018083Y-75766645D01*
X103019501Y-75761971D01*
X103021800Y-75757670D01*
X103027029Y-75751298D01*
X103040643Y-75730924D01*
X103050020Y-75708285D01*
X103054800Y-75684251D01*
X103054800Y-75659747D01*
X103050019Y-75635714D01*
X103040642Y-75613075D01*
X103027029Y-75592702D01*
X103021800Y-75586330D01*
X103019501Y-75582029D01*
X103018083Y-75577355D01*
X103017000Y-75566359D01*
X103017000Y-75277641D01*
X103018083Y-75266645D01*
X103019501Y-75261971D01*
X103021800Y-75257670D01*
X103027029Y-75251298D01*
X103040643Y-75230924D01*
X103050020Y-75208285D01*
X103054800Y-75184251D01*
X103054800Y-75159747D01*
X103050019Y-75135714D01*
X103040642Y-75113075D01*
X103027029Y-75092702D01*
X103021800Y-75086330D01*
X103019501Y-75082029D01*
X103018083Y-75077355D01*
X103017000Y-75066359D01*
X103017000Y-74777641D01*
X103018083Y-74766645D01*
X103019501Y-74761971D01*
X103021800Y-74757670D01*
X103027029Y-74751298D01*
X103040643Y-74730924D01*
X103050020Y-74708285D01*
X103054800Y-74684251D01*
X103054800Y-74659747D01*
X103050019Y-74635714D01*
X103040642Y-74613075D01*
X103027029Y-74592702D01*
X103021800Y-74586330D01*
X103019501Y-74582029D01*
X103018083Y-74577355D01*
X103017000Y-74566359D01*
X103017000Y-74277641D01*
X103018083Y-74266645D01*
X103019501Y-74261971D01*
X103021800Y-74257670D01*
X103027029Y-74251298D01*
X103040643Y-74230924D01*
X103050020Y-74208285D01*
X103054800Y-74184251D01*
X103054800Y-74159747D01*
X103050019Y-74135714D01*
X103040642Y-74113075D01*
X103027029Y-74092702D01*
X103021800Y-74086330D01*
X103019501Y-74082029D01*
X103018083Y-74077355D01*
X103017000Y-74066359D01*
X103017000Y-73777641D01*
X103018083Y-73766645D01*
X103019501Y-73761971D01*
X103021800Y-73757670D01*
X103027029Y-73751298D01*
X103040643Y-73730924D01*
X103050020Y-73708285D01*
X103054800Y-73684251D01*
X103054800Y-73659747D01*
X103050019Y-73635714D01*
X103040642Y-73613075D01*
X103027029Y-73592702D01*
X103021800Y-73586330D01*
X103019501Y-73582029D01*
X103018083Y-73577355D01*
X103017000Y-73566359D01*
X103017000Y-73277641D01*
X103018083Y-73266645D01*
X103019501Y-73261971D01*
X103021800Y-73257670D01*
X103027029Y-73251298D01*
X103040643Y-73230924D01*
X103050020Y-73208285D01*
X103054800Y-73184251D01*
X103054800Y-73159747D01*
X103050019Y-73135714D01*
X103040642Y-73113075D01*
X103027029Y-73092702D01*
X103021800Y-73086330D01*
X103019501Y-73082029D01*
X103018083Y-73077355D01*
X103017000Y-73066359D01*
X103017000Y-72777641D01*
X103018083Y-72766645D01*
X103019501Y-72761971D01*
X103021800Y-72757669D01*
X103024896Y-72753896D01*
X103028669Y-72750800D01*
X103032971Y-72748501D01*
X103037645Y-72747083D01*
X103048641Y-72746000D01*
X103887359Y-72746000D01*
X103898355Y-72747083D01*
G37*
G36*
X108798355Y-72747083D02*
G01*
X108803029Y-72748501D01*
X108807331Y-72750800D01*
X108811104Y-72753896D01*
X108814200Y-72757669D01*
X108816499Y-72761971D01*
X108817917Y-72766645D01*
X108819000Y-72777641D01*
X108819000Y-73066359D01*
X108817917Y-73077355D01*
X108816499Y-73082029D01*
X108814200Y-73086330D01*
X108808971Y-73092702D01*
X108795357Y-73113076D01*
X108785980Y-73135715D01*
X108781200Y-73159749D01*
X108781200Y-73184253D01*
X108785981Y-73208286D01*
X108795358Y-73230925D01*
X108808971Y-73251298D01*
X108814200Y-73257670D01*
X108816499Y-73261971D01*
X108817917Y-73266645D01*
X108819000Y-73277641D01*
X108819000Y-73566359D01*
X108817917Y-73577355D01*
X108816499Y-73582029D01*
X108814200Y-73586330D01*
X108808971Y-73592702D01*
X108795357Y-73613076D01*
X108785980Y-73635715D01*
X108781200Y-73659749D01*
X108781200Y-73684253D01*
X108785981Y-73708286D01*
X108795358Y-73730925D01*
X108808971Y-73751298D01*
X108814200Y-73757670D01*
X108816499Y-73761971D01*
X108817917Y-73766645D01*
X108819000Y-73777641D01*
X108819000Y-74066359D01*
X108817917Y-74077355D01*
X108816499Y-74082029D01*
X108814200Y-74086330D01*
X108808971Y-74092702D01*
X108795357Y-74113076D01*
X108785980Y-74135715D01*
X108781200Y-74159749D01*
X108781200Y-74184253D01*
X108785981Y-74208286D01*
X108795358Y-74230925D01*
X108808971Y-74251298D01*
X108814200Y-74257670D01*
X108816499Y-74261971D01*
X108817917Y-74266645D01*
X108819000Y-74277641D01*
X108819000Y-74566359D01*
X108817917Y-74577355D01*
X108816499Y-74582029D01*
X108814200Y-74586330D01*
X108808971Y-74592702D01*
X108795357Y-74613076D01*
X108785980Y-74635715D01*
X108781200Y-74659749D01*
X108781200Y-74684253D01*
X108785981Y-74708286D01*
X108795358Y-74730925D01*
X108808971Y-74751298D01*
X108814200Y-74757670D01*
X108816499Y-74761971D01*
X108817917Y-74766645D01*
X108819000Y-74777641D01*
X108819000Y-75066359D01*
X108817917Y-75077355D01*
X108816499Y-75082029D01*
X108814200Y-75086330D01*
X108808971Y-75092702D01*
X108795357Y-75113076D01*
X108785980Y-75135715D01*
X108781200Y-75159749D01*
X108781200Y-75184253D01*
X108785981Y-75208286D01*
X108795358Y-75230925D01*
X108808971Y-75251298D01*
X108814200Y-75257670D01*
X108816499Y-75261971D01*
X108817917Y-75266645D01*
X108819000Y-75277641D01*
X108819000Y-75566359D01*
X108817917Y-75577355D01*
X108816499Y-75582029D01*
X108814200Y-75586330D01*
X108808971Y-75592702D01*
X108795357Y-75613076D01*
X108785980Y-75635715D01*
X108781200Y-75659749D01*
X108781200Y-75684253D01*
X108785981Y-75708286D01*
X108795358Y-75730925D01*
X108808971Y-75751298D01*
X108814200Y-75757670D01*
X108816499Y-75761971D01*
X108817917Y-75766645D01*
X108819000Y-75777641D01*
X108819000Y-76066359D01*
X108817917Y-76077355D01*
X108816499Y-76082029D01*
X108814200Y-76086331D01*
X108811104Y-76090104D01*
X108807331Y-76093200D01*
X108803029Y-76095499D01*
X108798355Y-76096917D01*
X108787359Y-76098000D01*
X107948641Y-76098000D01*
X107937645Y-76096917D01*
X107932971Y-76095499D01*
X107928669Y-76093200D01*
X107924896Y-76090104D01*
X107921800Y-76086331D01*
X107919501Y-76082029D01*
X107918083Y-76077355D01*
X107917000Y-76066359D01*
X107917000Y-75777641D01*
X107918083Y-75766645D01*
X107919501Y-75761971D01*
X107921800Y-75757670D01*
X107927029Y-75751298D01*
X107940643Y-75730924D01*
X107950020Y-75708285D01*
X107954800Y-75684251D01*
X107954800Y-75659747D01*
X107950019Y-75635714D01*
X107940642Y-75613075D01*
X107927029Y-75592702D01*
X107921800Y-75586330D01*
X107919501Y-75582029D01*
X107918083Y-75577355D01*
X107917000Y-75566359D01*
X107917000Y-75277641D01*
X107918083Y-75266645D01*
X107919501Y-75261971D01*
X107921800Y-75257670D01*
X107927029Y-75251298D01*
X107940643Y-75230924D01*
X107950020Y-75208285D01*
X107954800Y-75184251D01*
X107954800Y-75159747D01*
X107950019Y-75135714D01*
X107940642Y-75113075D01*
X107927029Y-75092702D01*
X107921800Y-75086330D01*
X107919501Y-75082029D01*
X107918083Y-75077355D01*
X107917000Y-75066359D01*
X107917000Y-74777641D01*
X107918083Y-74766645D01*
X107919501Y-74761971D01*
X107921800Y-74757670D01*
X107927029Y-74751298D01*
X107940643Y-74730924D01*
X107950020Y-74708285D01*
X107954800Y-74684251D01*
X107954800Y-74659747D01*
X107950019Y-74635714D01*
X107940642Y-74613075D01*
X107927029Y-74592702D01*
X107921800Y-74586330D01*
X107919501Y-74582029D01*
X107918083Y-74577355D01*
X107917000Y-74566359D01*
X107917000Y-74277641D01*
X107918083Y-74266645D01*
X107919501Y-74261971D01*
X107921800Y-74257670D01*
X107927029Y-74251298D01*
X107940643Y-74230924D01*
X107950020Y-74208285D01*
X107954800Y-74184251D01*
X107954800Y-74159747D01*
X107950019Y-74135714D01*
X107940642Y-74113075D01*
X107927029Y-74092702D01*
X107921800Y-74086330D01*
X107919501Y-74082029D01*
X107918083Y-74077355D01*
X107917000Y-74066359D01*
X107917000Y-73777641D01*
X107918083Y-73766645D01*
X107919501Y-73761971D01*
X107921800Y-73757670D01*
X107927029Y-73751298D01*
X107940643Y-73730924D01*
X107950020Y-73708285D01*
X107954800Y-73684251D01*
X107954800Y-73659747D01*
X107950019Y-73635714D01*
X107940642Y-73613075D01*
X107927029Y-73592702D01*
X107921800Y-73586330D01*
X107919501Y-73582029D01*
X107918083Y-73577355D01*
X107917000Y-73566359D01*
X107917000Y-73277641D01*
X107918083Y-73266645D01*
X107919501Y-73261971D01*
X107921800Y-73257670D01*
X107927029Y-73251298D01*
X107940643Y-73230924D01*
X107950020Y-73208285D01*
X107954800Y-73184251D01*
X107954800Y-73159747D01*
X107950019Y-73135714D01*
X107940642Y-73113075D01*
X107927029Y-73092702D01*
X107921800Y-73086330D01*
X107919501Y-73082029D01*
X107918083Y-73077355D01*
X107917000Y-73066359D01*
X107917000Y-72777641D01*
X107918083Y-72766645D01*
X107919501Y-72761971D01*
X107921800Y-72757669D01*
X107924896Y-72753896D01*
X107928669Y-72750800D01*
X107932971Y-72748501D01*
X107937645Y-72747083D01*
X107948641Y-72746000D01*
X108787359Y-72746000D01*
X108798355Y-72747083D01*
G37*
G36*
X99376591Y-74154085D02*
G01*
X99410569Y-74164393D01*
X99441890Y-74181134D01*
X99469339Y-74203661D01*
X99491866Y-74231110D01*
X99508607Y-74262431D01*
X99518915Y-74296409D01*
X99523000Y-74337890D01*
X99523000Y-75014110D01*
X99518915Y-75055591D01*
X99508607Y-75089569D01*
X99491866Y-75120890D01*
X99469339Y-75148339D01*
X99441890Y-75170866D01*
X99410569Y-75187607D01*
X99376591Y-75197915D01*
X99335110Y-75202000D01*
X98733890Y-75202000D01*
X98692409Y-75197915D01*
X98658431Y-75187607D01*
X98627110Y-75170866D01*
X98599661Y-75148339D01*
X98577134Y-75120890D01*
X98560393Y-75089569D01*
X98550085Y-75055591D01*
X98546000Y-75014110D01*
X98546000Y-74337890D01*
X98550085Y-74296409D01*
X98560393Y-74262431D01*
X98577134Y-74231110D01*
X98599661Y-74203661D01*
X98627110Y-74181134D01*
X98658431Y-74164393D01*
X98692409Y-74154085D01*
X98733890Y-74150000D01*
X99335110Y-74150000D01*
X99376591Y-74154085D01*
G37*
G36*
X100951591Y-74154085D02*
G01*
X100985569Y-74164393D01*
X101016890Y-74181134D01*
X101044339Y-74203661D01*
X101066866Y-74231110D01*
X101083607Y-74262431D01*
X101093915Y-74296409D01*
X101098000Y-74337890D01*
X101098000Y-75014110D01*
X101093915Y-75055591D01*
X101083607Y-75089569D01*
X101066866Y-75120890D01*
X101044339Y-75148339D01*
X101016890Y-75170866D01*
X100985569Y-75187607D01*
X100951591Y-75197915D01*
X100910110Y-75202000D01*
X100308890Y-75202000D01*
X100267409Y-75197915D01*
X100233431Y-75187607D01*
X100202110Y-75170866D01*
X100174661Y-75148339D01*
X100152134Y-75120890D01*
X100135393Y-75089569D01*
X100125085Y-75055591D01*
X100121000Y-75014110D01*
X100121000Y-74337890D01*
X100125085Y-74296409D01*
X100135393Y-74262431D01*
X100152134Y-74231110D01*
X100174661Y-74203661D01*
X100202110Y-74181134D01*
X100233431Y-74164393D01*
X100267409Y-74154085D01*
X100308890Y-74150000D01*
X100910110Y-74150000D01*
X100951591Y-74154085D01*
G37*
G36*
X95049000Y-74094000D02*
G01*
X93347000Y-74094000D01*
X93347000Y-72592000D01*
X95049000Y-72592000D01*
X95049000Y-74094000D01*
G37*
G36*
X90549000Y-74094000D02*
G01*
X88847000Y-74094000D01*
X88847000Y-72592000D01*
X90549000Y-72592000D01*
X90549000Y-74094000D01*
G37*
G36*
X104573355Y-71522083D02*
G01*
X104578029Y-71523501D01*
X104582330Y-71525800D01*
X104588702Y-71531029D01*
X104609076Y-71544643D01*
X104631715Y-71554020D01*
X104655749Y-71558800D01*
X104680253Y-71558800D01*
X104704286Y-71554019D01*
X104726925Y-71544642D01*
X104747298Y-71531029D01*
X104753670Y-71525800D01*
X104757971Y-71523501D01*
X104762645Y-71522083D01*
X104773641Y-71521000D01*
X105062359Y-71521000D01*
X105073355Y-71522083D01*
X105078029Y-71523501D01*
X105082330Y-71525800D01*
X105088702Y-71531029D01*
X105109076Y-71544643D01*
X105131715Y-71554020D01*
X105155749Y-71558800D01*
X105180253Y-71558800D01*
X105204286Y-71554019D01*
X105226925Y-71544642D01*
X105247298Y-71531029D01*
X105253670Y-71525800D01*
X105257971Y-71523501D01*
X105262645Y-71522083D01*
X105273641Y-71521000D01*
X105562359Y-71521000D01*
X105573355Y-71522083D01*
X105578029Y-71523501D01*
X105582330Y-71525800D01*
X105588702Y-71531029D01*
X105609076Y-71544643D01*
X105631715Y-71554020D01*
X105655749Y-71558800D01*
X105680253Y-71558800D01*
X105704286Y-71554019D01*
X105726925Y-71544642D01*
X105747298Y-71531029D01*
X105753670Y-71525800D01*
X105757971Y-71523501D01*
X105762645Y-71522083D01*
X105773641Y-71521000D01*
X106062359Y-71521000D01*
X106073355Y-71522083D01*
X106078029Y-71523501D01*
X106082330Y-71525800D01*
X106088702Y-71531029D01*
X106109076Y-71544643D01*
X106131715Y-71554020D01*
X106155749Y-71558800D01*
X106180253Y-71558800D01*
X106204286Y-71554019D01*
X106226925Y-71544642D01*
X106247298Y-71531029D01*
X106253670Y-71525800D01*
X106257971Y-71523501D01*
X106262645Y-71522083D01*
X106273641Y-71521000D01*
X106562359Y-71521000D01*
X106573355Y-71522083D01*
X106578029Y-71523501D01*
X106582330Y-71525800D01*
X106588702Y-71531029D01*
X106609076Y-71544643D01*
X106631715Y-71554020D01*
X106655749Y-71558800D01*
X106680253Y-71558800D01*
X106704286Y-71554019D01*
X106726925Y-71544642D01*
X106747298Y-71531029D01*
X106753670Y-71525800D01*
X106757971Y-71523501D01*
X106762645Y-71522083D01*
X106773641Y-71521000D01*
X107062359Y-71521000D01*
X107073355Y-71522083D01*
X107078029Y-71523501D01*
X107082330Y-71525800D01*
X107088702Y-71531029D01*
X107109076Y-71544643D01*
X107131715Y-71554020D01*
X107155749Y-71558800D01*
X107180253Y-71558800D01*
X107204286Y-71554019D01*
X107226925Y-71544642D01*
X107247298Y-71531029D01*
X107253670Y-71525800D01*
X107257971Y-71523501D01*
X107262645Y-71522083D01*
X107273641Y-71521000D01*
X107562359Y-71521000D01*
X107573355Y-71522083D01*
X107578029Y-71523501D01*
X107582331Y-71525800D01*
X107586104Y-71528896D01*
X107589200Y-71532669D01*
X107591499Y-71536971D01*
X107592917Y-71541645D01*
X107594000Y-71552641D01*
X107594000Y-72391359D01*
X107592917Y-72402355D01*
X107591499Y-72407029D01*
X107589200Y-72411331D01*
X107586104Y-72415104D01*
X107582331Y-72418200D01*
X107578029Y-72420499D01*
X107573355Y-72421917D01*
X107562359Y-72423000D01*
X107273641Y-72423000D01*
X107262645Y-72421917D01*
X107257971Y-72420499D01*
X107253670Y-72418200D01*
X107247298Y-72412971D01*
X107226924Y-72399357D01*
X107204285Y-72389980D01*
X107180251Y-72385200D01*
X107155747Y-72385200D01*
X107131714Y-72389981D01*
X107109075Y-72399358D01*
X107088702Y-72412971D01*
X107082330Y-72418200D01*
X107078029Y-72420499D01*
X107073355Y-72421917D01*
X107062359Y-72423000D01*
X106773641Y-72423000D01*
X106762645Y-72421917D01*
X106757971Y-72420499D01*
X106753670Y-72418200D01*
X106747298Y-72412971D01*
X106726924Y-72399357D01*
X106704285Y-72389980D01*
X106680251Y-72385200D01*
X106655747Y-72385200D01*
X106631714Y-72389981D01*
X106609075Y-72399358D01*
X106588702Y-72412971D01*
X106582330Y-72418200D01*
X106578029Y-72420499D01*
X106573355Y-72421917D01*
X106562359Y-72423000D01*
X106273641Y-72423000D01*
X106262645Y-72421917D01*
X106257971Y-72420499D01*
X106253670Y-72418200D01*
X106247298Y-72412971D01*
X106226924Y-72399357D01*
X106204285Y-72389980D01*
X106180251Y-72385200D01*
X106155747Y-72385200D01*
X106131714Y-72389981D01*
X106109075Y-72399358D01*
X106088702Y-72412971D01*
X106082330Y-72418200D01*
X106078029Y-72420499D01*
X106073355Y-72421917D01*
X106062359Y-72423000D01*
X105773641Y-72423000D01*
X105762645Y-72421917D01*
X105757971Y-72420499D01*
X105753670Y-72418200D01*
X105747298Y-72412971D01*
X105726924Y-72399357D01*
X105704285Y-72389980D01*
X105680251Y-72385200D01*
X105655747Y-72385200D01*
X105631714Y-72389981D01*
X105609075Y-72399358D01*
X105588702Y-72412971D01*
X105582330Y-72418200D01*
X105578029Y-72420499D01*
X105573355Y-72421917D01*
X105562359Y-72423000D01*
X105273641Y-72423000D01*
X105262645Y-72421917D01*
X105257971Y-72420499D01*
X105253670Y-72418200D01*
X105247298Y-72412971D01*
X105226924Y-72399357D01*
X105204285Y-72389980D01*
X105180251Y-72385200D01*
X105155747Y-72385200D01*
X105131714Y-72389981D01*
X105109075Y-72399358D01*
X105088702Y-72412971D01*
X105082330Y-72418200D01*
X105078029Y-72420499D01*
X105073355Y-72421917D01*
X105062359Y-72423000D01*
X104773641Y-72423000D01*
X104762645Y-72421917D01*
X104757971Y-72420499D01*
X104753670Y-72418200D01*
X104747298Y-72412971D01*
X104726924Y-72399357D01*
X104704285Y-72389980D01*
X104680251Y-72385200D01*
X104655747Y-72385200D01*
X104631714Y-72389981D01*
X104609075Y-72399358D01*
X104588702Y-72412971D01*
X104582330Y-72418200D01*
X104578029Y-72420499D01*
X104573355Y-72421917D01*
X104562359Y-72423000D01*
X104273641Y-72423000D01*
X104262645Y-72421917D01*
X104257971Y-72420499D01*
X104253669Y-72418200D01*
X104249896Y-72415104D01*
X104246800Y-72411331D01*
X104244501Y-72407029D01*
X104243083Y-72402355D01*
X104242000Y-72391359D01*
X104242000Y-71552641D01*
X104243083Y-71541645D01*
X104244501Y-71536971D01*
X104246800Y-71532669D01*
X104249896Y-71528896D01*
X104253669Y-71525800D01*
X104257971Y-71523501D01*
X104262645Y-71522083D01*
X104273641Y-71521000D01*
X104562359Y-71521000D01*
X104573355Y-71522083D01*
G37*
G36*
X99947591Y-70915085D02*
G01*
X99981569Y-70925393D01*
X100012890Y-70942134D01*
X100040339Y-70964661D01*
X100062866Y-70992110D01*
X100079607Y-71023431D01*
X100089915Y-71057409D01*
X100094000Y-71098890D01*
X100094000Y-71700110D01*
X100089915Y-71741591D01*
X100079607Y-71775569D01*
X100062866Y-71806890D01*
X100040339Y-71834339D01*
X100012890Y-71856866D01*
X99981569Y-71873607D01*
X99947591Y-71883915D01*
X99906110Y-71888000D01*
X99229890Y-71888000D01*
X99188409Y-71883915D01*
X99154431Y-71873607D01*
X99123110Y-71856866D01*
X99095661Y-71834339D01*
X99073134Y-71806890D01*
X99056393Y-71775569D01*
X99046085Y-71741591D01*
X99042000Y-71700110D01*
X99042000Y-71098890D01*
X99046085Y-71057409D01*
X99056393Y-71023431D01*
X99073134Y-70992110D01*
X99095661Y-70964661D01*
X99123110Y-70942134D01*
X99154431Y-70925393D01*
X99188409Y-70915085D01*
X99229890Y-70911000D01*
X99906110Y-70911000D01*
X99947591Y-70915085D01*
G37*
G36*
X89699091Y-70344085D02*
G01*
X89733069Y-70354393D01*
X89764390Y-70371134D01*
X89791839Y-70393661D01*
X89814366Y-70421110D01*
X89831107Y-70452431D01*
X89841415Y-70486409D01*
X89845500Y-70527890D01*
X89845500Y-71204110D01*
X89841415Y-71245591D01*
X89831107Y-71279569D01*
X89814366Y-71310890D01*
X89791839Y-71338339D01*
X89764390Y-71360866D01*
X89733069Y-71377607D01*
X89699091Y-71387915D01*
X89657610Y-71392000D01*
X89056390Y-71392000D01*
X89014909Y-71387915D01*
X88980931Y-71377607D01*
X88949610Y-71360866D01*
X88922161Y-71338339D01*
X88899634Y-71310890D01*
X88882893Y-71279569D01*
X88872585Y-71245591D01*
X88868500Y-71204110D01*
X88868500Y-70527890D01*
X88872585Y-70486409D01*
X88882893Y-70452431D01*
X88899634Y-70421110D01*
X88922161Y-70393661D01*
X88949610Y-70371134D01*
X88980931Y-70354393D01*
X89014909Y-70344085D01*
X89056390Y-70340000D01*
X89657610Y-70340000D01*
X89699091Y-70344085D01*
G37*
G36*
X91274091Y-70344085D02*
G01*
X91308069Y-70354393D01*
X91339390Y-70371134D01*
X91366839Y-70393661D01*
X91389366Y-70421110D01*
X91406107Y-70452431D01*
X91416415Y-70486409D01*
X91420500Y-70527890D01*
X91420500Y-71204110D01*
X91416415Y-71245591D01*
X91406107Y-71279569D01*
X91389366Y-71310890D01*
X91366839Y-71338339D01*
X91339390Y-71360866D01*
X91308069Y-71377607D01*
X91274091Y-71387915D01*
X91232610Y-71392000D01*
X90631390Y-71392000D01*
X90589909Y-71387915D01*
X90555931Y-71377607D01*
X90524610Y-71360866D01*
X90497161Y-71338339D01*
X90474634Y-71310890D01*
X90457893Y-71279569D01*
X90447585Y-71245591D01*
X90443500Y-71204110D01*
X90443500Y-70527890D01*
X90447585Y-70486409D01*
X90457893Y-70452431D01*
X90474634Y-70421110D01*
X90497161Y-70393661D01*
X90524610Y-70371134D01*
X90555931Y-70354393D01*
X90589909Y-70344085D01*
X90631390Y-70340000D01*
X91232610Y-70340000D01*
X91274091Y-70344085D01*
G37*
G36*
X93306091Y-70344085D02*
G01*
X93340069Y-70354393D01*
X93371390Y-70371134D01*
X93398839Y-70393661D01*
X93421366Y-70421110D01*
X93438107Y-70452431D01*
X93448415Y-70486409D01*
X93452500Y-70527890D01*
X93452500Y-71204110D01*
X93448415Y-71245591D01*
X93438107Y-71279569D01*
X93421366Y-71310890D01*
X93398839Y-71338339D01*
X93371390Y-71360866D01*
X93340069Y-71377607D01*
X93306091Y-71387915D01*
X93264610Y-71392000D01*
X92663390Y-71392000D01*
X92621909Y-71387915D01*
X92587931Y-71377607D01*
X92556610Y-71360866D01*
X92529161Y-71338339D01*
X92506634Y-71310890D01*
X92489893Y-71279569D01*
X92479585Y-71245591D01*
X92475500Y-71204110D01*
X92475500Y-70527890D01*
X92479585Y-70486409D01*
X92489893Y-70452431D01*
X92506634Y-70421110D01*
X92529161Y-70393661D01*
X92556610Y-70371134D01*
X92587931Y-70354393D01*
X92621909Y-70344085D01*
X92663390Y-70340000D01*
X93264610Y-70340000D01*
X93306091Y-70344085D01*
G37*
G36*
X94881091Y-70344085D02*
G01*
X94915069Y-70354393D01*
X94946390Y-70371134D01*
X94973839Y-70393661D01*
X94996366Y-70421110D01*
X95013107Y-70452431D01*
X95023415Y-70486409D01*
X95027500Y-70527890D01*
X95027500Y-71204110D01*
X95023415Y-71245591D01*
X95013107Y-71279569D01*
X94996366Y-71310890D01*
X94973839Y-71338339D01*
X94946390Y-71360866D01*
X94915069Y-71377607D01*
X94881091Y-71387915D01*
X94839610Y-71392000D01*
X94238390Y-71392000D01*
X94196909Y-71387915D01*
X94162931Y-71377607D01*
X94131610Y-71360866D01*
X94104161Y-71338339D01*
X94081634Y-71310890D01*
X94064893Y-71279569D01*
X94054585Y-71245591D01*
X94050500Y-71204110D01*
X94050500Y-70527890D01*
X94054585Y-70486409D01*
X94064893Y-70452431D01*
X94081634Y-70421110D01*
X94104161Y-70393661D01*
X94131610Y-70371134D01*
X94162931Y-70354393D01*
X94196909Y-70344085D01*
X94238390Y-70340000D01*
X94839610Y-70340000D01*
X94881091Y-70344085D01*
G37*
G36*
X130663000Y-71007000D02*
G01*
X126861000Y-71007000D01*
X126861000Y-68705000D01*
X130663000Y-68705000D01*
X130663000Y-71007000D01*
G37*
G36*
X115963000Y-71007000D02*
G01*
X112161000Y-71007000D01*
X112161000Y-68705000D01*
X115963000Y-68705000D01*
X115963000Y-71007000D01*
G37*
G36*
X137499536Y-68533016D02*
G01*
X137721213Y-68600261D01*
X137925512Y-68709461D01*
X138104581Y-68856419D01*
X138251539Y-69035488D01*
X138360739Y-69239787D01*
X138427984Y-69461464D01*
X138450690Y-69692000D01*
X138427984Y-69922536D01*
X138360739Y-70144213D01*
X138251539Y-70348512D01*
X138104581Y-70527581D01*
X137925512Y-70674539D01*
X137721213Y-70783739D01*
X137499536Y-70850984D01*
X137326771Y-70868000D01*
X134961229Y-70868000D01*
X134788464Y-70850984D01*
X134566787Y-70783739D01*
X134362488Y-70674539D01*
X134183419Y-70527581D01*
X134036461Y-70348512D01*
X133927261Y-70144213D01*
X133860016Y-69922536D01*
X133837310Y-69692000D01*
X133860016Y-69461464D01*
X133927261Y-69239787D01*
X134036461Y-69035488D01*
X134183419Y-68856419D01*
X134362488Y-68709461D01*
X134566787Y-68600261D01*
X134788464Y-68533016D01*
X134961229Y-68516000D01*
X137326771Y-68516000D01*
X137499536Y-68533016D01*
G37*
G36*
X102995591Y-69645085D02*
G01*
X103029569Y-69655393D01*
X103060890Y-69672134D01*
X103088339Y-69694661D01*
X103110866Y-69722110D01*
X103127607Y-69753431D01*
X103137915Y-69787409D01*
X103142000Y-69828890D01*
X103142000Y-70430110D01*
X103137915Y-70471591D01*
X103127607Y-70505569D01*
X103110866Y-70536890D01*
X103088339Y-70564339D01*
X103060890Y-70586866D01*
X103029569Y-70603607D01*
X102995591Y-70613915D01*
X102954110Y-70618000D01*
X102277890Y-70618000D01*
X102236409Y-70613915D01*
X102202431Y-70603607D01*
X102171110Y-70586866D01*
X102143661Y-70564339D01*
X102121134Y-70536890D01*
X102104393Y-70505569D01*
X102094085Y-70471591D01*
X102090000Y-70430110D01*
X102090000Y-69828890D01*
X102094085Y-69787409D01*
X102104393Y-69753431D01*
X102121134Y-69722110D01*
X102143661Y-69694661D01*
X102171110Y-69672134D01*
X102202431Y-69655393D01*
X102236409Y-69645085D01*
X102277890Y-69641000D01*
X102954110Y-69641000D01*
X102995591Y-69645085D01*
G37*
G36*
X101471591Y-69645085D02*
G01*
X101505569Y-69655393D01*
X101536890Y-69672134D01*
X101564339Y-69694661D01*
X101586866Y-69722110D01*
X101603607Y-69753431D01*
X101613915Y-69787409D01*
X101618000Y-69828890D01*
X101618000Y-70430110D01*
X101613915Y-70471591D01*
X101603607Y-70505569D01*
X101586866Y-70536890D01*
X101564339Y-70564339D01*
X101536890Y-70586866D01*
X101505569Y-70603607D01*
X101471591Y-70613915D01*
X101430110Y-70618000D01*
X100753890Y-70618000D01*
X100712409Y-70613915D01*
X100678431Y-70603607D01*
X100647110Y-70586866D01*
X100619661Y-70564339D01*
X100597134Y-70536890D01*
X100580393Y-70505569D01*
X100570085Y-70471591D01*
X100566000Y-70430110D01*
X100566000Y-69828890D01*
X100570085Y-69787409D01*
X100580393Y-69753431D01*
X100597134Y-69722110D01*
X100619661Y-69694661D01*
X100647110Y-69672134D01*
X100678431Y-69655393D01*
X100712409Y-69645085D01*
X100753890Y-69641000D01*
X101430110Y-69641000D01*
X101471591Y-69645085D01*
G37*
G36*
X99947591Y-69340085D02*
G01*
X99981569Y-69350393D01*
X100012890Y-69367134D01*
X100040339Y-69389661D01*
X100062866Y-69417110D01*
X100079607Y-69448431D01*
X100089915Y-69482409D01*
X100094000Y-69523890D01*
X100094000Y-70125110D01*
X100089915Y-70166591D01*
X100079607Y-70200569D01*
X100062866Y-70231890D01*
X100040339Y-70259339D01*
X100012890Y-70281866D01*
X99981569Y-70298607D01*
X99947591Y-70308915D01*
X99906110Y-70313000D01*
X99229890Y-70313000D01*
X99188409Y-70308915D01*
X99154431Y-70298607D01*
X99123110Y-70281866D01*
X99095661Y-70259339D01*
X99073134Y-70231890D01*
X99056393Y-70200569D01*
X99046085Y-70166591D01*
X99042000Y-70125110D01*
X99042000Y-69523890D01*
X99046085Y-69482409D01*
X99056393Y-69448431D01*
X99073134Y-69417110D01*
X99095661Y-69389661D01*
X99123110Y-69367134D01*
X99154431Y-69350393D01*
X99188409Y-69340085D01*
X99229890Y-69336000D01*
X99906110Y-69336000D01*
X99947591Y-69340085D01*
G37*
G36*
X104978468Y-69237565D02*
G01*
X105017138Y-69249296D01*
X105052777Y-69268346D01*
X105084017Y-69293983D01*
X105109654Y-69325223D01*
X105128704Y-69360862D01*
X105140435Y-69399532D01*
X105145000Y-69445888D01*
X105145000Y-70097112D01*
X105140435Y-70143468D01*
X105128704Y-70182138D01*
X105109654Y-70217777D01*
X105084017Y-70249017D01*
X105052777Y-70274654D01*
X105017138Y-70293704D01*
X104978468Y-70305435D01*
X104932112Y-70310000D01*
X103855888Y-70310000D01*
X103809532Y-70305435D01*
X103770862Y-70293704D01*
X103735223Y-70274654D01*
X103703983Y-70249017D01*
X103678346Y-70217777D01*
X103659296Y-70182138D01*
X103647565Y-70143468D01*
X103643000Y-70097112D01*
X103643000Y-69445888D01*
X103647565Y-69399532D01*
X103659296Y-69360862D01*
X103678346Y-69325223D01*
X103703983Y-69293983D01*
X103735223Y-69268346D01*
X103770862Y-69249296D01*
X103809532Y-69237565D01*
X103855888Y-69233000D01*
X104932112Y-69233000D01*
X104978468Y-69237565D01*
G37*
G36*
X108788468Y-69237565D02*
G01*
X108827138Y-69249296D01*
X108862777Y-69268346D01*
X108894017Y-69293983D01*
X108919654Y-69325223D01*
X108938704Y-69360862D01*
X108950435Y-69399532D01*
X108955000Y-69445888D01*
X108955000Y-70097112D01*
X108950435Y-70143468D01*
X108938704Y-70182138D01*
X108919654Y-70217777D01*
X108894017Y-70249017D01*
X108862777Y-70274654D01*
X108827138Y-70293704D01*
X108788468Y-70305435D01*
X108742112Y-70310000D01*
X107665888Y-70310000D01*
X107619532Y-70305435D01*
X107580862Y-70293704D01*
X107545223Y-70274654D01*
X107513983Y-70249017D01*
X107488346Y-70217777D01*
X107469296Y-70182138D01*
X107457565Y-70143468D01*
X107453000Y-70097112D01*
X107453000Y-69445888D01*
X107457565Y-69399532D01*
X107469296Y-69360862D01*
X107488346Y-69325223D01*
X107513983Y-69293983D01*
X107545223Y-69268346D01*
X107580862Y-69249296D01*
X107619532Y-69237565D01*
X107665888Y-69233000D01*
X108742112Y-69233000D01*
X108788468Y-69237565D01*
G37*
G36*
X102995591Y-68070085D02*
G01*
X103029569Y-68080393D01*
X103060890Y-68097134D01*
X103088339Y-68119661D01*
X103110866Y-68147110D01*
X103127607Y-68178431D01*
X103137915Y-68212409D01*
X103142000Y-68253890D01*
X103142000Y-68855110D01*
X103137915Y-68896591D01*
X103127607Y-68930569D01*
X103110866Y-68961890D01*
X103088339Y-68989339D01*
X103060890Y-69011866D01*
X103029569Y-69028607D01*
X102995591Y-69038915D01*
X102954110Y-69043000D01*
X102277890Y-69043000D01*
X102236409Y-69038915D01*
X102202431Y-69028607D01*
X102171110Y-69011866D01*
X102143661Y-68989339D01*
X102121134Y-68961890D01*
X102104393Y-68930569D01*
X102094085Y-68896591D01*
X102090000Y-68855110D01*
X102090000Y-68253890D01*
X102094085Y-68212409D01*
X102104393Y-68178431D01*
X102121134Y-68147110D01*
X102143661Y-68119661D01*
X102171110Y-68097134D01*
X102202431Y-68080393D01*
X102236409Y-68070085D01*
X102277890Y-68066000D01*
X102954110Y-68066000D01*
X102995591Y-68070085D01*
G37*
G36*
X101471591Y-68070085D02*
G01*
X101505569Y-68080393D01*
X101536890Y-68097134D01*
X101564339Y-68119661D01*
X101586866Y-68147110D01*
X101603607Y-68178431D01*
X101613915Y-68212409D01*
X101618000Y-68253890D01*
X101618000Y-68855110D01*
X101613915Y-68896591D01*
X101603607Y-68930569D01*
X101586866Y-68961890D01*
X101564339Y-68989339D01*
X101536890Y-69011866D01*
X101505569Y-69028607D01*
X101471591Y-69038915D01*
X101430110Y-69043000D01*
X100753890Y-69043000D01*
X100712409Y-69038915D01*
X100678431Y-69028607D01*
X100647110Y-69011866D01*
X100619661Y-68989339D01*
X100597134Y-68961890D01*
X100580393Y-68930569D01*
X100570085Y-68896591D01*
X100566000Y-68855110D01*
X100566000Y-68253890D01*
X100570085Y-68212409D01*
X100580393Y-68178431D01*
X100597134Y-68147110D01*
X100619661Y-68119661D01*
X100647110Y-68097134D01*
X100678431Y-68080393D01*
X100712409Y-68070085D01*
X100753890Y-68066000D01*
X101430110Y-68066000D01*
X101471591Y-68070085D01*
G37*
G36*
X92329943Y-62852248D02*
G01*
X92885189Y-63082238D01*
X92885190Y-63082239D01*
X93384899Y-63416134D01*
X93809866Y-63841101D01*
X93809867Y-63841103D01*
X94143762Y-64340811D01*
X94373752Y-64896057D01*
X94491000Y-65485501D01*
X94491000Y-66086499D01*
X94373752Y-66675943D01*
X94143762Y-67231189D01*
X94143761Y-67231190D01*
X93809866Y-67730899D01*
X93384899Y-68155866D01*
X93153847Y-68310250D01*
X92885189Y-68489762D01*
X92329943Y-68719752D01*
X91740499Y-68837000D01*
X91139501Y-68837000D01*
X90550057Y-68719752D01*
X89994811Y-68489762D01*
X89726153Y-68310250D01*
X89495101Y-68155866D01*
X89070134Y-67730899D01*
X88736239Y-67231190D01*
X88736238Y-67231189D01*
X88506248Y-66675943D01*
X88389000Y-66086499D01*
X88389000Y-65485501D01*
X88506248Y-64896057D01*
X88736238Y-64340811D01*
X89070133Y-63841103D01*
X89070134Y-63841101D01*
X89495101Y-63416134D01*
X89994810Y-63082239D01*
X89994811Y-63082238D01*
X90550057Y-62852248D01*
X91139501Y-62735000D01*
X91740499Y-62735000D01*
X92329943Y-62852248D01*
G37*
G36*
X124587943Y-62852248D02*
G01*
X125143189Y-63082238D01*
X125143190Y-63082239D01*
X125642899Y-63416134D01*
X126067866Y-63841101D01*
X126067867Y-63841103D01*
X126401762Y-64340811D01*
X126631752Y-64896057D01*
X126749000Y-65485501D01*
X126749000Y-66086499D01*
X126631752Y-66675943D01*
X126401762Y-67231189D01*
X126401761Y-67231190D01*
X126067866Y-67730899D01*
X125642899Y-68155866D01*
X125411847Y-68310250D01*
X125143189Y-68489762D01*
X124587943Y-68719752D01*
X123998499Y-68837000D01*
X123397501Y-68837000D01*
X122808057Y-68719752D01*
X122252811Y-68489762D01*
X121984153Y-68310250D01*
X121753101Y-68155866D01*
X121328134Y-67730899D01*
X120994239Y-67231190D01*
X120994238Y-67231189D01*
X120764248Y-66675943D01*
X120647000Y-66086499D01*
X120647000Y-65485501D01*
X120764248Y-64896057D01*
X120994238Y-64340811D01*
X121328133Y-63841103D01*
X121328134Y-63841101D01*
X121753101Y-63416134D01*
X122252810Y-63082239D01*
X122252811Y-63082238D01*
X122808057Y-62852248D01*
X123397501Y-62735000D01*
X123998499Y-62735000D01*
X124587943Y-62852248D01*
G37*
G36*
X104978468Y-67362565D02*
G01*
X105017138Y-67374296D01*
X105052777Y-67393346D01*
X105084017Y-67418983D01*
X105109654Y-67450223D01*
X105128704Y-67485862D01*
X105140435Y-67524532D01*
X105145000Y-67570888D01*
X105145000Y-68222112D01*
X105140435Y-68268468D01*
X105128704Y-68307138D01*
X105109654Y-68342777D01*
X105084017Y-68374017D01*
X105052777Y-68399654D01*
X105017138Y-68418704D01*
X104978468Y-68430435D01*
X104932112Y-68435000D01*
X103855888Y-68435000D01*
X103809532Y-68430435D01*
X103770862Y-68418704D01*
X103735223Y-68399654D01*
X103703983Y-68374017D01*
X103678346Y-68342777D01*
X103659296Y-68307138D01*
X103647565Y-68268468D01*
X103643000Y-68222112D01*
X103643000Y-67570888D01*
X103647565Y-67524532D01*
X103659296Y-67485862D01*
X103678346Y-67450223D01*
X103703983Y-67418983D01*
X103735223Y-67393346D01*
X103770862Y-67374296D01*
X103809532Y-67362565D01*
X103855888Y-67358000D01*
X104932112Y-67358000D01*
X104978468Y-67362565D01*
G37*
G36*
X108788468Y-67362565D02*
G01*
X108827138Y-67374296D01*
X108862777Y-67393346D01*
X108894017Y-67418983D01*
X108919654Y-67450223D01*
X108938704Y-67485862D01*
X108950435Y-67524532D01*
X108955000Y-67570888D01*
X108955000Y-68222112D01*
X108950435Y-68268468D01*
X108938704Y-68307138D01*
X108919654Y-68342777D01*
X108894017Y-68374017D01*
X108862777Y-68399654D01*
X108827138Y-68418704D01*
X108788468Y-68430435D01*
X108742112Y-68435000D01*
X107665888Y-68435000D01*
X107619532Y-68430435D01*
X107580862Y-68418704D01*
X107545223Y-68399654D01*
X107513983Y-68374017D01*
X107488346Y-68342777D01*
X107469296Y-68307138D01*
X107457565Y-68268468D01*
X107453000Y-68222112D01*
X107453000Y-67570888D01*
X107457565Y-67524532D01*
X107469296Y-67485862D01*
X107488346Y-67450223D01*
X107513983Y-67418983D01*
X107545223Y-67393346D01*
X107580862Y-67374296D01*
X107619532Y-67362565D01*
X107665888Y-67358000D01*
X108742112Y-67358000D01*
X108788468Y-67362565D01*
G37*
M02*
