G04 #@! TF.GenerationSoftware,KiCad,Pcbnew,(5.1.5-0)*
G04 #@! TF.CreationDate,2019-12-11T17:32:03-05:00*
G04 #@! TF.ProjectId,syringe_board,73797269-6e67-4655-9f62-6f6172642e6b,3.3*
G04 #@! TF.SameCoordinates,Original*
G04 #@! TF.FileFunction,Legend,Top*
G04 #@! TF.FilePolarity,Positive*
%FSLAX46Y46*%
G04 Gerber Fmt 4.6, Leading zero omitted, Abs format (unit mm)*
G04 Created by KiCad (PCBNEW (5.1.5-0)) date 2019-12-11 17:32:03*
%MOMM*%
%LPD*%
G04 APERTURE LIST*
%ADD10C,0.508000*%
%ADD11C,0.150000*%
%ADD12C,0.279400*%
%ADD13C,0.120000*%
%ADD14C,0.127000*%
%ADD15C,0.400000*%
%ADD16C,0.100000*%
G04 APERTURE END LIST*
D10*
X106426000Y-100584000D02*
G75*
G03X106426000Y-100584000I-254000J0D01*
G01*
D11*
X125530428Y-92800714D02*
X125530428Y-93417571D01*
X125566714Y-93490142D01*
X125603000Y-93526428D01*
X125675571Y-93562714D01*
X125820714Y-93562714D01*
X125893285Y-93526428D01*
X125929571Y-93490142D01*
X125965857Y-93417571D01*
X125965857Y-92800714D01*
X126292428Y-93345000D02*
X126655285Y-93345000D01*
X126219857Y-93562714D02*
X126473857Y-92800714D01*
X126727857Y-93562714D01*
X127417285Y-93562714D02*
X127163285Y-93199857D01*
X126981857Y-93562714D02*
X126981857Y-92800714D01*
X127272142Y-92800714D01*
X127344714Y-92837000D01*
X127381000Y-92873285D01*
X127417285Y-92945857D01*
X127417285Y-93054714D01*
X127381000Y-93127285D01*
X127344714Y-93163571D01*
X127272142Y-93199857D01*
X126981857Y-93199857D01*
X127635000Y-92800714D02*
X128070428Y-92800714D01*
X127852714Y-93562714D02*
X127852714Y-92800714D01*
X130610428Y-92800714D02*
X130610428Y-93417571D01*
X130646714Y-93490142D01*
X130683000Y-93526428D01*
X130755571Y-93562714D01*
X130900714Y-93562714D01*
X130973285Y-93526428D01*
X131009571Y-93490142D01*
X131045857Y-93417571D01*
X131045857Y-92800714D01*
X131372428Y-93345000D02*
X131735285Y-93345000D01*
X131299857Y-93562714D02*
X131553857Y-92800714D01*
X131807857Y-93562714D01*
X132497285Y-93562714D02*
X132243285Y-93199857D01*
X132061857Y-93562714D02*
X132061857Y-92800714D01*
X132352142Y-92800714D01*
X132424714Y-92837000D01*
X132461000Y-92873285D01*
X132497285Y-92945857D01*
X132497285Y-93054714D01*
X132461000Y-93127285D01*
X132424714Y-93163571D01*
X132352142Y-93199857D01*
X132061857Y-93199857D01*
X132715000Y-92800714D02*
X133150428Y-92800714D01*
X132932714Y-93562714D02*
X132932714Y-92800714D01*
D12*
X96362761Y-81459311D02*
X96598619Y-81537930D01*
X96991714Y-81537930D01*
X97148952Y-81459311D01*
X97227571Y-81380692D01*
X97306190Y-81223454D01*
X97306190Y-81066216D01*
X97227571Y-80908978D01*
X97148952Y-80830359D01*
X96991714Y-80751740D01*
X96677238Y-80673121D01*
X96520000Y-80594502D01*
X96441380Y-80515883D01*
X96362761Y-80358645D01*
X96362761Y-80201407D01*
X96441380Y-80044169D01*
X96520000Y-79965550D01*
X96677238Y-79886930D01*
X97070333Y-79886930D01*
X97306190Y-79965550D01*
X97856523Y-80437264D02*
X98249619Y-81537930D01*
X98642714Y-80437264D02*
X98249619Y-81537930D01*
X98092380Y-81931026D01*
X98013761Y-82009645D01*
X97856523Y-82088264D01*
X99271666Y-81537930D02*
X99271666Y-80437264D01*
X99271666Y-80751740D02*
X99350285Y-80594502D01*
X99428904Y-80515883D01*
X99586142Y-80437264D01*
X99743380Y-80437264D01*
X100293714Y-81537930D02*
X100293714Y-80437264D01*
X100293714Y-79886930D02*
X100215095Y-79965550D01*
X100293714Y-80044169D01*
X100372333Y-79965550D01*
X100293714Y-79886930D01*
X100293714Y-80044169D01*
X101079904Y-80437264D02*
X101079904Y-81537930D01*
X101079904Y-80594502D02*
X101158523Y-80515883D01*
X101315761Y-80437264D01*
X101551619Y-80437264D01*
X101708857Y-80515883D01*
X101787476Y-80673121D01*
X101787476Y-81537930D01*
X103281238Y-80437264D02*
X103281238Y-81773788D01*
X103202619Y-81931026D01*
X103124000Y-82009645D01*
X102966761Y-82088264D01*
X102730904Y-82088264D01*
X102573666Y-82009645D01*
X103281238Y-81459311D02*
X103124000Y-81537930D01*
X102809523Y-81537930D01*
X102652285Y-81459311D01*
X102573666Y-81380692D01*
X102495047Y-81223454D01*
X102495047Y-80751740D01*
X102573666Y-80594502D01*
X102652285Y-80515883D01*
X102809523Y-80437264D01*
X103124000Y-80437264D01*
X103281238Y-80515883D01*
X104696380Y-81459311D02*
X104539142Y-81537930D01*
X104224666Y-81537930D01*
X104067428Y-81459311D01*
X103988809Y-81302073D01*
X103988809Y-80673121D01*
X104067428Y-80515883D01*
X104224666Y-80437264D01*
X104539142Y-80437264D01*
X104696380Y-80515883D01*
X104775000Y-80673121D01*
X104775000Y-80830359D01*
X103988809Y-80987597D01*
X107290809Y-80673121D02*
X107526666Y-80751740D01*
X107605285Y-80830359D01*
X107683904Y-80987597D01*
X107683904Y-81223454D01*
X107605285Y-81380692D01*
X107526666Y-81459311D01*
X107369428Y-81537930D01*
X106740476Y-81537930D01*
X106740476Y-79886930D01*
X107290809Y-79886930D01*
X107448047Y-79965550D01*
X107526666Y-80044169D01*
X107605285Y-80201407D01*
X107605285Y-80358645D01*
X107526666Y-80515883D01*
X107448047Y-80594502D01*
X107290809Y-80673121D01*
X106740476Y-80673121D01*
X108627333Y-81537930D02*
X108470095Y-81459311D01*
X108391476Y-81380692D01*
X108312857Y-81223454D01*
X108312857Y-80751740D01*
X108391476Y-80594502D01*
X108470095Y-80515883D01*
X108627333Y-80437264D01*
X108863190Y-80437264D01*
X109020428Y-80515883D01*
X109099047Y-80594502D01*
X109177666Y-80751740D01*
X109177666Y-81223454D01*
X109099047Y-81380692D01*
X109020428Y-81459311D01*
X108863190Y-81537930D01*
X108627333Y-81537930D01*
X110592809Y-81537930D02*
X110592809Y-80673121D01*
X110514190Y-80515883D01*
X110356952Y-80437264D01*
X110042476Y-80437264D01*
X109885238Y-80515883D01*
X110592809Y-81459311D02*
X110435571Y-81537930D01*
X110042476Y-81537930D01*
X109885238Y-81459311D01*
X109806619Y-81302073D01*
X109806619Y-81144835D01*
X109885238Y-80987597D01*
X110042476Y-80908978D01*
X110435571Y-80908978D01*
X110592809Y-80830359D01*
X111379000Y-81537930D02*
X111379000Y-80437264D01*
X111379000Y-80751740D02*
X111457619Y-80594502D01*
X111536238Y-80515883D01*
X111693476Y-80437264D01*
X111850714Y-80437264D01*
X113108619Y-81537930D02*
X113108619Y-79886930D01*
X113108619Y-81459311D02*
X112951380Y-81537930D01*
X112636904Y-81537930D01*
X112479666Y-81459311D01*
X112401047Y-81380692D01*
X112322428Y-81223454D01*
X112322428Y-80751740D01*
X112401047Y-80594502D01*
X112479666Y-80515883D01*
X112636904Y-80437264D01*
X112951380Y-80437264D01*
X113108619Y-80515883D01*
X102416428Y-83193164D02*
X102809523Y-84293830D01*
X103202619Y-83193164D01*
X103674333Y-82642830D02*
X104696380Y-82642830D01*
X104146047Y-83271783D01*
X104381904Y-83271783D01*
X104539142Y-83350402D01*
X104617761Y-83429021D01*
X104696380Y-83586259D01*
X104696380Y-83979354D01*
X104617761Y-84136592D01*
X104539142Y-84215211D01*
X104381904Y-84293830D01*
X103910190Y-84293830D01*
X103752952Y-84215211D01*
X103674333Y-84136592D01*
X105403952Y-84136592D02*
X105482571Y-84215211D01*
X105403952Y-84293830D01*
X105325333Y-84215211D01*
X105403952Y-84136592D01*
X105403952Y-84293830D01*
X106032904Y-82642830D02*
X107054952Y-82642830D01*
X106504619Y-83271783D01*
X106740476Y-83271783D01*
X106897714Y-83350402D01*
X106976333Y-83429021D01*
X107054952Y-83586259D01*
X107054952Y-83979354D01*
X106976333Y-84136592D01*
X106897714Y-84215211D01*
X106740476Y-84293830D01*
X106268761Y-84293830D01*
X106111523Y-84215211D01*
X106032904Y-84136592D01*
D13*
X103572000Y-86868000D02*
X103572000Y-85538000D01*
X103572000Y-85538000D02*
X104902000Y-85538000D01*
X106172000Y-85538000D02*
X134172000Y-85538000D01*
X134172000Y-88198000D02*
X134172000Y-85538000D01*
X106172000Y-88198000D02*
X134172000Y-88198000D01*
X106172000Y-88198000D02*
X106172000Y-85538000D01*
X93412000Y-107188000D02*
X93412000Y-105858000D01*
X93412000Y-105858000D02*
X94742000Y-105858000D01*
X96012000Y-105858000D02*
X134172000Y-105858000D01*
X134172000Y-108518000D02*
X134172000Y-105858000D01*
X96012000Y-108518000D02*
X134172000Y-108518000D01*
X96012000Y-108518000D02*
X96012000Y-105858000D01*
D14*
X131644000Y-61992000D02*
X140644000Y-61992000D01*
X140644000Y-61992000D02*
X140644000Y-76492000D01*
X140644000Y-76492000D02*
X138794000Y-76492000D01*
X131644000Y-76492000D02*
X131644000Y-61992000D01*
X133594000Y-76492000D02*
X131644000Y-76492000D01*
D15*
X136344000Y-77692000D02*
G75*
G03X136344000Y-77692000I-200000J0D01*
G01*
D13*
X90648000Y-74193000D02*
X93248000Y-74193000D01*
X95398000Y-80493000D02*
X95148000Y-80493000D01*
X95398000Y-74193000D02*
X95398000Y-80493000D01*
X95148000Y-74193000D02*
X95398000Y-74193000D01*
X93248000Y-80493000D02*
X90648000Y-80493000D01*
X88498000Y-74193000D02*
X88748000Y-74193000D01*
X88498000Y-80493000D02*
X88498000Y-74193000D01*
X88748000Y-80493000D02*
X88498000Y-80493000D01*
X110492000Y-77607279D02*
X110492000Y-77281721D01*
X109472000Y-77607279D02*
X109472000Y-77281721D01*
X101602000Y-69504779D02*
X101602000Y-69179221D01*
X100582000Y-69504779D02*
X100582000Y-69179221D01*
X104033000Y-71812000D02*
X103308000Y-71812000D01*
X108528000Y-77032000D02*
X108528000Y-76307000D01*
X107803000Y-77032000D02*
X108528000Y-77032000D01*
X103308000Y-77032000D02*
X103308000Y-76307000D01*
X104033000Y-77032000D02*
X103308000Y-77032000D01*
X108528000Y-71812000D02*
X108528000Y-72537000D01*
X107803000Y-71812000D02*
X108528000Y-71812000D01*
X100876000Y-88614000D02*
X101276000Y-88614000D01*
X100876000Y-88414000D02*
X101276000Y-88414000D01*
X100876000Y-84814000D02*
X101276000Y-84814000D01*
X98876000Y-88614000D02*
X100876000Y-88614000D01*
X101276000Y-87414000D02*
X101676000Y-87414000D01*
X101276000Y-87414000D02*
X101276000Y-88414000D01*
X100876000Y-88414000D02*
X98876000Y-88414000D01*
X98876000Y-88414000D02*
X98876000Y-87414000D01*
X98876000Y-85614000D02*
X98876000Y-84814000D01*
X98876000Y-84814000D02*
X100876000Y-84814000D01*
X101276000Y-84814000D02*
X101276000Y-85614000D01*
D14*
X110082000Y-103270000D02*
X110082000Y-89770000D01*
X122582000Y-103270000D02*
X110082000Y-103270000D01*
X122582000Y-89770000D02*
X122582000Y-103270000D01*
X110082000Y-89770000D02*
X122582000Y-89770000D01*
D16*
G36*
X111332000Y-96270000D02*
G01*
X115332000Y-96270000D01*
X115332000Y-100270000D01*
X111332000Y-100270000D01*
X111332000Y-96270000D01*
G37*
D14*
X120568065Y-94270000D02*
G75*
G03X120568065Y-94270000I-2236065J0D01*
G01*
D13*
X132100250Y-79419750D02*
X132100250Y-80207250D01*
X131706500Y-79813500D02*
X132494000Y-79813500D01*
X132734000Y-84006563D02*
X133798437Y-85071000D01*
X132734000Y-79315437D02*
X133798437Y-78251000D01*
X132734000Y-79315437D02*
X132734000Y-80601000D01*
X132734000Y-84006563D02*
X132734000Y-82721000D01*
X133798437Y-85071000D02*
X139554000Y-85071000D01*
X133798437Y-78251000D02*
X139554000Y-78251000D01*
X139554000Y-78251000D02*
X139554000Y-80601000D01*
X139554000Y-85071000D02*
X139554000Y-82721000D01*
X108914000Y-69092578D02*
X108914000Y-68575422D01*
X107494000Y-69092578D02*
X107494000Y-68575422D01*
X103684000Y-68575422D02*
X103684000Y-69092578D01*
X105104000Y-68575422D02*
X105104000Y-69092578D01*
X99984779Y-74166000D02*
X99659221Y-74166000D01*
X99984779Y-75186000D02*
X99659221Y-75186000D01*
X102199221Y-78869000D02*
X102524779Y-78869000D01*
X102199221Y-77849000D02*
X102524779Y-77849000D01*
X102106000Y-69179221D02*
X102106000Y-69504779D01*
X103126000Y-69179221D02*
X103126000Y-69504779D01*
X99058000Y-70449221D02*
X99058000Y-70774779D01*
X100078000Y-70449221D02*
X100078000Y-70774779D01*
X128034000Y-95804000D02*
G75*
G02X127334000Y-96504000I-700000J0D01*
G01*
X127334000Y-94504000D02*
G75*
G02X128034000Y-95204000I0J-700000D01*
G01*
X123934000Y-95204000D02*
G75*
G02X124634000Y-94504000I700000J0D01*
G01*
X124634000Y-96504000D02*
G75*
G02X123934000Y-95804000I0J700000D01*
G01*
X127384000Y-96504000D02*
X124584000Y-96504000D01*
X123934000Y-95804000D02*
X123934000Y-95204000D01*
X124584000Y-94504000D02*
X127384000Y-94504000D01*
X128034000Y-95204000D02*
X128034000Y-95804000D01*
X127184000Y-94304000D02*
X127484000Y-94004000D01*
X127484000Y-94004000D02*
X126884000Y-94004000D01*
X127184000Y-94304000D02*
X126884000Y-94004000D01*
X133114000Y-95804000D02*
G75*
G02X132414000Y-96504000I-700000J0D01*
G01*
X132414000Y-94504000D02*
G75*
G02X133114000Y-95204000I0J-700000D01*
G01*
X129014000Y-95204000D02*
G75*
G02X129714000Y-94504000I700000J0D01*
G01*
X129714000Y-96504000D02*
G75*
G02X129014000Y-95804000I0J700000D01*
G01*
X132464000Y-96504000D02*
X129664000Y-96504000D01*
X129014000Y-95804000D02*
X129014000Y-95204000D01*
X129664000Y-94504000D02*
X132464000Y-94504000D01*
X133114000Y-95204000D02*
X133114000Y-95804000D01*
X132264000Y-94304000D02*
X132564000Y-94004000D01*
X132564000Y-94004000D02*
X131964000Y-94004000D01*
X132264000Y-94304000D02*
X131964000Y-94004000D01*
X90307279Y-70356000D02*
X89981721Y-70356000D01*
X90307279Y-71376000D02*
X89981721Y-71376000D01*
X92266500Y-71601000D02*
X94551500Y-71601000D01*
X92266500Y-70131000D02*
X92266500Y-71601000D01*
X94551500Y-70131000D02*
X92266500Y-70131000D01*
X129796000Y-90078779D02*
X129796000Y-89753221D01*
X128776000Y-90078779D02*
X128776000Y-89753221D01*
X132336000Y-90078779D02*
X132336000Y-89753221D01*
X131316000Y-90078779D02*
X131316000Y-89753221D01*
X90540721Y-89918000D02*
X90866279Y-89918000D01*
X90540721Y-88898000D02*
X90866279Y-88898000D01*
X96611221Y-105412000D02*
X96936779Y-105412000D01*
X96611221Y-104392000D02*
X96936779Y-104392000D01*
X134418000Y-107388000D02*
X134418000Y-86668000D01*
X140918000Y-107388000D02*
X134418000Y-107388000D01*
X140918000Y-86668000D02*
X140918000Y-107388000D01*
X134418000Y-86668000D02*
X140918000Y-86668000D01*
D11*
X107283000Y-101120000D02*
X108558000Y-101120000D01*
X96933000Y-101695000D02*
X97608000Y-101695000D01*
X96933000Y-91345000D02*
X97608000Y-91345000D01*
X107283000Y-91345000D02*
X106608000Y-91345000D01*
X107283000Y-101695000D02*
X106608000Y-101695000D01*
X107283000Y-91345000D02*
X107283000Y-92020000D01*
X96933000Y-91345000D02*
X96933000Y-92020000D01*
X96933000Y-101695000D02*
X96933000Y-101020000D01*
X107283000Y-101695000D02*
X107283000Y-101120000D01*
D14*
X113792000Y-61976000D02*
X129032000Y-61976000D01*
X113792000Y-80076000D02*
X113792000Y-61976000D01*
X129032000Y-80076000D02*
X113792000Y-80076000D01*
X129032000Y-61976000D02*
X129032000Y-80076000D01*
D11*
X118665666Y-83907380D02*
X118665666Y-84621666D01*
X118618047Y-84764523D01*
X118522809Y-84859761D01*
X118379952Y-84907380D01*
X118284714Y-84907380D01*
X119570428Y-83907380D02*
X119379952Y-83907380D01*
X119284714Y-83955000D01*
X119237095Y-84002619D01*
X119141857Y-84145476D01*
X119094238Y-84335952D01*
X119094238Y-84716904D01*
X119141857Y-84812142D01*
X119189476Y-84859761D01*
X119284714Y-84907380D01*
X119475190Y-84907380D01*
X119570428Y-84859761D01*
X119618047Y-84812142D01*
X119665666Y-84716904D01*
X119665666Y-84478809D01*
X119618047Y-84383571D01*
X119570428Y-84335952D01*
X119475190Y-84288333D01*
X119284714Y-84288333D01*
X119189476Y-84335952D01*
X119141857Y-84383571D01*
X119094238Y-84478809D01*
X112315666Y-104227380D02*
X112315666Y-104941666D01*
X112268047Y-105084523D01*
X112172809Y-105179761D01*
X112029952Y-105227380D01*
X111934714Y-105227380D01*
X113268047Y-104227380D02*
X112791857Y-104227380D01*
X112744238Y-104703571D01*
X112791857Y-104655952D01*
X112887095Y-104608333D01*
X113125190Y-104608333D01*
X113220428Y-104655952D01*
X113268047Y-104703571D01*
X113315666Y-104798809D01*
X113315666Y-105036904D01*
X113268047Y-105132142D01*
X113220428Y-105179761D01*
X113125190Y-105227380D01*
X112887095Y-105227380D01*
X112791857Y-105179761D01*
X112744238Y-105132142D01*
X129246380Y-74755333D02*
X129960666Y-74755333D01*
X130103523Y-74802952D01*
X130198761Y-74898190D01*
X130246380Y-75041047D01*
X130246380Y-75136285D01*
X130246380Y-73755333D02*
X130246380Y-74326761D01*
X130246380Y-74041047D02*
X129246380Y-74041047D01*
X129389238Y-74136285D01*
X129484476Y-74231523D01*
X129532095Y-74326761D01*
X91186095Y-73810761D02*
X91328952Y-73858380D01*
X91567047Y-73858380D01*
X91662285Y-73810761D01*
X91709904Y-73763142D01*
X91757523Y-73667904D01*
X91757523Y-73572666D01*
X91709904Y-73477428D01*
X91662285Y-73429809D01*
X91567047Y-73382190D01*
X91376571Y-73334571D01*
X91281333Y-73286952D01*
X91233714Y-73239333D01*
X91186095Y-73144095D01*
X91186095Y-73048857D01*
X91233714Y-72953619D01*
X91281333Y-72906000D01*
X91376571Y-72858380D01*
X91614666Y-72858380D01*
X91757523Y-72906000D01*
X92709904Y-73858380D02*
X92138476Y-73858380D01*
X92424190Y-73858380D02*
X92424190Y-72858380D01*
X92328952Y-73001238D01*
X92233714Y-73096476D01*
X92138476Y-73144095D01*
X111863142Y-77636666D02*
X111910761Y-77684285D01*
X111958380Y-77827142D01*
X111958380Y-77922380D01*
X111910761Y-78065238D01*
X111815523Y-78160476D01*
X111720285Y-78208095D01*
X111529809Y-78255714D01*
X111386952Y-78255714D01*
X111196476Y-78208095D01*
X111101238Y-78160476D01*
X111006000Y-78065238D01*
X110958380Y-77922380D01*
X110958380Y-77827142D01*
X111006000Y-77684285D01*
X111053619Y-77636666D01*
X110958380Y-76731904D02*
X110958380Y-77208095D01*
X111434571Y-77255714D01*
X111386952Y-77208095D01*
X111339333Y-77112857D01*
X111339333Y-76874761D01*
X111386952Y-76779523D01*
X111434571Y-76731904D01*
X111529809Y-76684285D01*
X111767904Y-76684285D01*
X111863142Y-76731904D01*
X111910761Y-76779523D01*
X111958380Y-76874761D01*
X111958380Y-77112857D01*
X111910761Y-77208095D01*
X111863142Y-77255714D01*
X101449142Y-66968666D02*
X101496761Y-67016285D01*
X101544380Y-67159142D01*
X101544380Y-67254380D01*
X101496761Y-67397238D01*
X101401523Y-67492476D01*
X101306285Y-67540095D01*
X101115809Y-67587714D01*
X100972952Y-67587714D01*
X100782476Y-67540095D01*
X100687238Y-67492476D01*
X100592000Y-67397238D01*
X100544380Y-67254380D01*
X100544380Y-67159142D01*
X100592000Y-67016285D01*
X100639619Y-66968666D01*
X100639619Y-66587714D02*
X100592000Y-66540095D01*
X100544380Y-66444857D01*
X100544380Y-66206761D01*
X100592000Y-66111523D01*
X100639619Y-66063904D01*
X100734857Y-66016285D01*
X100830095Y-66016285D01*
X100972952Y-66063904D01*
X101544380Y-66635333D01*
X101544380Y-66016285D01*
X101219095Y-71207380D02*
X101219095Y-72016904D01*
X101266714Y-72112142D01*
X101314333Y-72159761D01*
X101409571Y-72207380D01*
X101600047Y-72207380D01*
X101695285Y-72159761D01*
X101742904Y-72112142D01*
X101790523Y-72016904D01*
X101790523Y-71207380D01*
X102790523Y-72207380D02*
X102219095Y-72207380D01*
X102504809Y-72207380D02*
X102504809Y-71207380D01*
X102409571Y-71350238D01*
X102314333Y-71445476D01*
X102219095Y-71493095D01*
X98147190Y-87217190D02*
X98623380Y-87217190D01*
X97623380Y-87550523D02*
X98147190Y-87217190D01*
X97623380Y-86883857D01*
X98623380Y-86026714D02*
X98623380Y-86598142D01*
X98623380Y-86312428D02*
X97623380Y-86312428D01*
X97766238Y-86407666D01*
X97861476Y-86502904D01*
X97909095Y-86598142D01*
X123002523Y-100633119D02*
X124030619Y-100633119D01*
X124151571Y-100572642D01*
X124212047Y-100512166D01*
X124272523Y-100391214D01*
X124272523Y-100149309D01*
X124212047Y-100028357D01*
X124151571Y-99967880D01*
X124030619Y-99907404D01*
X123002523Y-99907404D01*
X123123476Y-99363119D02*
X123063000Y-99302642D01*
X123002523Y-99181690D01*
X123002523Y-98879309D01*
X123063000Y-98758357D01*
X123123476Y-98697880D01*
X123244428Y-98637404D01*
X123365380Y-98637404D01*
X123546809Y-98697880D01*
X124272523Y-99423595D01*
X124272523Y-98637404D01*
X131278333Y-83986642D02*
X131230714Y-84034261D01*
X131087857Y-84081880D01*
X130992619Y-84081880D01*
X130849761Y-84034261D01*
X130754523Y-83939023D01*
X130706904Y-83843785D01*
X130659285Y-83653309D01*
X130659285Y-83510452D01*
X130706904Y-83319976D01*
X130754523Y-83224738D01*
X130849761Y-83129500D01*
X130992619Y-83081880D01*
X131087857Y-83081880D01*
X131230714Y-83129500D01*
X131278333Y-83177119D01*
X131611666Y-83081880D02*
X132278333Y-83081880D01*
X131849761Y-84081880D01*
X108656380Y-66206666D02*
X108180190Y-66540000D01*
X108656380Y-66778095D02*
X107656380Y-66778095D01*
X107656380Y-66397142D01*
X107704000Y-66301904D01*
X107751619Y-66254285D01*
X107846857Y-66206666D01*
X107989714Y-66206666D01*
X108084952Y-66254285D01*
X108132571Y-66301904D01*
X108180190Y-66397142D01*
X108180190Y-66778095D01*
X107751619Y-65825714D02*
X107704000Y-65778095D01*
X107656380Y-65682857D01*
X107656380Y-65444761D01*
X107704000Y-65349523D01*
X107751619Y-65301904D01*
X107846857Y-65254285D01*
X107942095Y-65254285D01*
X108084952Y-65301904D01*
X108656380Y-65873333D01*
X108656380Y-65254285D01*
X104846380Y-66206666D02*
X104370190Y-66540000D01*
X104846380Y-66778095D02*
X103846380Y-66778095D01*
X103846380Y-66397142D01*
X103894000Y-66301904D01*
X103941619Y-66254285D01*
X104036857Y-66206666D01*
X104179714Y-66206666D01*
X104274952Y-66254285D01*
X104322571Y-66301904D01*
X104370190Y-66397142D01*
X104370190Y-66778095D01*
X104846380Y-65254285D02*
X104846380Y-65825714D01*
X104846380Y-65540000D02*
X103846380Y-65540000D01*
X103989238Y-65635238D01*
X104084476Y-65730476D01*
X104132095Y-65825714D01*
X97242333Y-75033142D02*
X97194714Y-75080761D01*
X97051857Y-75128380D01*
X96956619Y-75128380D01*
X96813761Y-75080761D01*
X96718523Y-74985523D01*
X96670904Y-74890285D01*
X96623285Y-74699809D01*
X96623285Y-74556952D01*
X96670904Y-74366476D01*
X96718523Y-74271238D01*
X96813761Y-74176000D01*
X96956619Y-74128380D01*
X97051857Y-74128380D01*
X97194714Y-74176000D01*
X97242333Y-74223619D01*
X98194714Y-75128380D02*
X97623285Y-75128380D01*
X97909000Y-75128380D02*
X97909000Y-74128380D01*
X97813761Y-74271238D01*
X97718523Y-74366476D01*
X97623285Y-74414095D01*
X99528333Y-78716142D02*
X99480714Y-78763761D01*
X99337857Y-78811380D01*
X99242619Y-78811380D01*
X99099761Y-78763761D01*
X99004523Y-78668523D01*
X98956904Y-78573285D01*
X98909285Y-78382809D01*
X98909285Y-78239952D01*
X98956904Y-78049476D01*
X99004523Y-77954238D01*
X99099761Y-77859000D01*
X99242619Y-77811380D01*
X99337857Y-77811380D01*
X99480714Y-77859000D01*
X99528333Y-77906619D01*
X100385476Y-77811380D02*
X100195000Y-77811380D01*
X100099761Y-77859000D01*
X100052142Y-77906619D01*
X99956904Y-78049476D01*
X99909285Y-78239952D01*
X99909285Y-78620904D01*
X99956904Y-78716142D01*
X100004523Y-78763761D01*
X100099761Y-78811380D01*
X100290238Y-78811380D01*
X100385476Y-78763761D01*
X100433095Y-78716142D01*
X100480714Y-78620904D01*
X100480714Y-78382809D01*
X100433095Y-78287571D01*
X100385476Y-78239952D01*
X100290238Y-78192333D01*
X100099761Y-78192333D01*
X100004523Y-78239952D01*
X99956904Y-78287571D01*
X99909285Y-78382809D01*
X102973142Y-66968666D02*
X103020761Y-67016285D01*
X103068380Y-67159142D01*
X103068380Y-67254380D01*
X103020761Y-67397238D01*
X102925523Y-67492476D01*
X102830285Y-67540095D01*
X102639809Y-67587714D01*
X102496952Y-67587714D01*
X102306476Y-67540095D01*
X102211238Y-67492476D01*
X102116000Y-67397238D01*
X102068380Y-67254380D01*
X102068380Y-67159142D01*
X102116000Y-67016285D01*
X102163619Y-66968666D01*
X102068380Y-66635333D02*
X102068380Y-66016285D01*
X102449333Y-66349619D01*
X102449333Y-66206761D01*
X102496952Y-66111523D01*
X102544571Y-66063904D01*
X102639809Y-66016285D01*
X102877904Y-66016285D01*
X102973142Y-66063904D01*
X103020761Y-66111523D01*
X103068380Y-66206761D01*
X103068380Y-66492476D01*
X103020761Y-66587714D01*
X102973142Y-66635333D01*
X98528142Y-70778666D02*
X98575761Y-70826285D01*
X98623380Y-70969142D01*
X98623380Y-71064380D01*
X98575761Y-71207238D01*
X98480523Y-71302476D01*
X98385285Y-71350095D01*
X98194809Y-71397714D01*
X98051952Y-71397714D01*
X97861476Y-71350095D01*
X97766238Y-71302476D01*
X97671000Y-71207238D01*
X97623380Y-71064380D01*
X97623380Y-70969142D01*
X97671000Y-70826285D01*
X97718619Y-70778666D01*
X97956714Y-69921523D02*
X98623380Y-69921523D01*
X97575761Y-70159619D02*
X98290047Y-70397714D01*
X98290047Y-69778666D01*
X89241333Y-69921380D02*
X88908000Y-69445190D01*
X88669904Y-69921380D02*
X88669904Y-68921380D01*
X89050857Y-68921380D01*
X89146095Y-68969000D01*
X89193714Y-69016619D01*
X89241333Y-69111857D01*
X89241333Y-69254714D01*
X89193714Y-69349952D01*
X89146095Y-69397571D01*
X89050857Y-69445190D01*
X88669904Y-69445190D01*
X89574666Y-68921380D02*
X90193714Y-68921380D01*
X89860380Y-69302333D01*
X90003238Y-69302333D01*
X90098476Y-69349952D01*
X90146095Y-69397571D01*
X90193714Y-69492809D01*
X90193714Y-69730904D01*
X90146095Y-69826142D01*
X90098476Y-69873761D01*
X90003238Y-69921380D01*
X89717523Y-69921380D01*
X89622285Y-69873761D01*
X89574666Y-69826142D01*
X93013404Y-69921380D02*
X93013404Y-68921380D01*
X93251500Y-68921380D01*
X93394357Y-68969000D01*
X93489595Y-69064238D01*
X93537214Y-69159476D01*
X93584833Y-69349952D01*
X93584833Y-69492809D01*
X93537214Y-69683285D01*
X93489595Y-69778523D01*
X93394357Y-69873761D01*
X93251500Y-69921380D01*
X93013404Y-69921380D01*
X94537214Y-69921380D02*
X93965785Y-69921380D01*
X94251500Y-69921380D02*
X94251500Y-68921380D01*
X94156261Y-69064238D01*
X94061023Y-69159476D01*
X93965785Y-69207095D01*
X128341380Y-90082666D02*
X127865190Y-90416000D01*
X128341380Y-90654095D02*
X127341380Y-90654095D01*
X127341380Y-90273142D01*
X127389000Y-90177904D01*
X127436619Y-90130285D01*
X127531857Y-90082666D01*
X127674714Y-90082666D01*
X127769952Y-90130285D01*
X127817571Y-90177904D01*
X127865190Y-90273142D01*
X127865190Y-90654095D01*
X127341380Y-89177904D02*
X127341380Y-89654095D01*
X127817571Y-89701714D01*
X127769952Y-89654095D01*
X127722333Y-89558857D01*
X127722333Y-89320761D01*
X127769952Y-89225523D01*
X127817571Y-89177904D01*
X127912809Y-89130285D01*
X128150904Y-89130285D01*
X128246142Y-89177904D01*
X128293761Y-89225523D01*
X128341380Y-89320761D01*
X128341380Y-89558857D01*
X128293761Y-89654095D01*
X128246142Y-89701714D01*
X133802380Y-90082666D02*
X133326190Y-90416000D01*
X133802380Y-90654095D02*
X132802380Y-90654095D01*
X132802380Y-90273142D01*
X132850000Y-90177904D01*
X132897619Y-90130285D01*
X132992857Y-90082666D01*
X133135714Y-90082666D01*
X133230952Y-90130285D01*
X133278571Y-90177904D01*
X133326190Y-90273142D01*
X133326190Y-90654095D01*
X133135714Y-89225523D02*
X133802380Y-89225523D01*
X132754761Y-89463619D02*
X133469047Y-89701714D01*
X133469047Y-89082666D01*
X90536833Y-88430380D02*
X90203500Y-87954190D01*
X89965404Y-88430380D02*
X89965404Y-87430380D01*
X90346357Y-87430380D01*
X90441595Y-87478000D01*
X90489214Y-87525619D01*
X90536833Y-87620857D01*
X90536833Y-87763714D01*
X90489214Y-87858952D01*
X90441595Y-87906571D01*
X90346357Y-87954190D01*
X89965404Y-87954190D01*
X90870166Y-87430380D02*
X91536833Y-87430380D01*
X91108261Y-88430380D01*
X96162833Y-104020880D02*
X95829500Y-103544690D01*
X95591404Y-104020880D02*
X95591404Y-103020880D01*
X95972357Y-103020880D01*
X96067595Y-103068500D01*
X96115214Y-103116119D01*
X96162833Y-103211357D01*
X96162833Y-103354214D01*
X96115214Y-103449452D01*
X96067595Y-103497071D01*
X95972357Y-103544690D01*
X95591404Y-103544690D01*
X97019976Y-103020880D02*
X96829500Y-103020880D01*
X96734261Y-103068500D01*
X96686642Y-103116119D01*
X96591404Y-103258976D01*
X96543785Y-103449452D01*
X96543785Y-103830404D01*
X96591404Y-103925642D01*
X96639023Y-103973261D01*
X96734261Y-104020880D01*
X96924738Y-104020880D01*
X97019976Y-103973261D01*
X97067595Y-103925642D01*
X97115214Y-103830404D01*
X97115214Y-103592309D01*
X97067595Y-103497071D01*
X97019976Y-103449452D01*
X96924738Y-103401833D01*
X96734261Y-103401833D01*
X96639023Y-103449452D01*
X96591404Y-103497071D01*
X96543785Y-103592309D01*
X133183380Y-98758333D02*
X133897666Y-98758333D01*
X134040523Y-98805952D01*
X134135761Y-98901190D01*
X134183380Y-99044047D01*
X134183380Y-99139285D01*
X133183380Y-98377380D02*
X133183380Y-97758333D01*
X133564333Y-98091666D01*
X133564333Y-97948809D01*
X133611952Y-97853571D01*
X133659571Y-97805952D01*
X133754809Y-97758333D01*
X133992904Y-97758333D01*
X134088142Y-97805952D01*
X134135761Y-97853571D01*
X134183380Y-97948809D01*
X134183380Y-98234523D01*
X134135761Y-98329761D01*
X134088142Y-98377380D01*
X106918880Y-101984023D02*
X106918880Y-103012119D01*
X106979357Y-103133071D01*
X107039833Y-103193547D01*
X107160785Y-103254023D01*
X107402690Y-103254023D01*
X107523642Y-103193547D01*
X107584119Y-103133071D01*
X107644595Y-103012119D01*
X107644595Y-101984023D01*
X108128404Y-101984023D02*
X108914595Y-101984023D01*
X108491261Y-102467833D01*
X108672690Y-102467833D01*
X108793642Y-102528309D01*
X108854119Y-102588785D01*
X108914595Y-102709738D01*
X108914595Y-103012119D01*
X108854119Y-103133071D01*
X108793642Y-103193547D01*
X108672690Y-103254023D01*
X108309833Y-103254023D01*
X108188880Y-103193547D01*
X108128404Y-103133071D01*
X92376666Y-91908380D02*
X92376666Y-92622666D01*
X92329047Y-92765523D01*
X92233809Y-92860761D01*
X92090952Y-92908380D01*
X91995714Y-92908380D01*
X93281428Y-92241714D02*
X93281428Y-92908380D01*
X93043333Y-91860761D02*
X92805238Y-92575047D01*
X93424285Y-92575047D01*
X127508738Y-80711523D02*
X127508738Y-81618666D01*
X127448261Y-81800095D01*
X127327309Y-81921047D01*
X127145880Y-81981523D01*
X127024928Y-81981523D01*
X128053023Y-80832476D02*
X128113500Y-80772000D01*
X128234452Y-80711523D01*
X128536833Y-80711523D01*
X128657785Y-80772000D01*
X128718261Y-80832476D01*
X128778738Y-80953428D01*
X128778738Y-81074380D01*
X128718261Y-81255809D01*
X127992547Y-81981523D01*
X128778738Y-81981523D01*
M02*
