G04 #@! TF.GenerationSoftware,KiCad,Pcbnew,(5.1.5-0)*
G04 #@! TF.CreationDate,2019-12-11T17:32:03-05:00*
G04 #@! TF.ProjectId,syringe_board,73797269-6e67-4655-9f62-6f6172642e6b,3.3*
G04 #@! TF.SameCoordinates,Original*
G04 #@! TF.FileFunction,Legend,Bot*
G04 #@! TF.FilePolarity,Positive*
%FSLAX46Y46*%
G04 Gerber Fmt 4.6, Leading zero omitted, Abs format (unit mm)*
G04 Created by KiCad (PCBNEW (5.1.5-0)) date 2019-12-11 17:32:03*
%MOMM*%
%LPD*%
G04 APERTURE LIST*
%ADD10C,0.076200*%
G04 APERTURE END LIST*
D10*
X102616000Y-105639809D02*
X102646238Y-105700285D01*
X102646238Y-105791000D01*
X102616000Y-105881714D01*
X102555523Y-105942190D01*
X102495047Y-105972428D01*
X102374095Y-106002666D01*
X102283380Y-106002666D01*
X102162428Y-105972428D01*
X102101952Y-105942190D01*
X102041476Y-105881714D01*
X102011238Y-105791000D01*
X102011238Y-105730523D01*
X102041476Y-105639809D01*
X102071714Y-105609571D01*
X102283380Y-105609571D01*
X102283380Y-105730523D01*
X102011238Y-105337428D02*
X102646238Y-105337428D01*
X102011238Y-104974571D01*
X102646238Y-104974571D01*
X102011238Y-104672190D02*
X102646238Y-104672190D01*
X102646238Y-104521000D01*
X102616000Y-104430285D01*
X102555523Y-104369809D01*
X102495047Y-104339571D01*
X102374095Y-104309333D01*
X102283380Y-104309333D01*
X102162428Y-104339571D01*
X102101952Y-104369809D01*
X102041476Y-104430285D01*
X102011238Y-104521000D01*
X102011238Y-104672190D01*
X97566238Y-106011738D02*
X97566238Y-105618642D01*
X97324333Y-105830309D01*
X97324333Y-105739595D01*
X97294095Y-105679119D01*
X97263857Y-105648880D01*
X97203380Y-105618642D01*
X97052190Y-105618642D01*
X96991714Y-105648880D01*
X96961476Y-105679119D01*
X96931238Y-105739595D01*
X96931238Y-105921023D01*
X96961476Y-105981500D01*
X96991714Y-106011738D01*
X96991714Y-105346500D02*
X96961476Y-105316261D01*
X96931238Y-105346500D01*
X96961476Y-105376738D01*
X96991714Y-105346500D01*
X96931238Y-105346500D01*
X97566238Y-105104595D02*
X97566238Y-104711500D01*
X97324333Y-104923166D01*
X97324333Y-104832452D01*
X97294095Y-104771976D01*
X97263857Y-104741738D01*
X97203380Y-104711500D01*
X97052190Y-104711500D01*
X96991714Y-104741738D01*
X96961476Y-104771976D01*
X96931238Y-104832452D01*
X96931238Y-105013880D01*
X96961476Y-105074357D01*
X96991714Y-105104595D01*
X104551238Y-106026857D02*
X105186238Y-106026857D01*
X104732666Y-105815190D01*
X105186238Y-105603523D01*
X104551238Y-105603523D01*
X105186238Y-105391857D02*
X105186238Y-105029000D01*
X104551238Y-105210428D02*
X105186238Y-105210428D01*
X104551238Y-104454476D02*
X104853619Y-104666142D01*
X104551238Y-104817333D02*
X105186238Y-104817333D01*
X105186238Y-104575428D01*
X105156000Y-104514952D01*
X105125761Y-104484714D01*
X105065285Y-104454476D01*
X104974571Y-104454476D01*
X104914095Y-104484714D01*
X104883857Y-104514952D01*
X104853619Y-104575428D01*
X104853619Y-104817333D01*
X104490761Y-104333523D02*
X104490761Y-103849714D01*
X104883857Y-103698523D02*
X104883857Y-103486857D01*
X104551238Y-103396142D02*
X104551238Y-103698523D01*
X105186238Y-103698523D01*
X105186238Y-103396142D01*
X104551238Y-103124000D02*
X105186238Y-103124000D01*
X104551238Y-102761142D01*
X105186238Y-102761142D01*
M02*
