G04 #@! TF.GenerationSoftware,KiCad,Pcbnew,(5.99.0-10090-g11a7729ab8)*
G04 #@! TF.CreationDate,2021-04-12T14:48:57-04:00*
G04 #@! TF.ProjectId,syringe_board,73797269-6e67-4655-9f62-6f6172642e6b,4.2*
G04 #@! TF.SameCoordinates,Original*
G04 #@! TF.FileFunction,Soldermask,Bot*
G04 #@! TF.FilePolarity,Negative*
%FSLAX46Y46*%
G04 Gerber Fmt 4.6, Leading zero omitted, Abs format (unit mm)*
G04 Created by KiCad (PCBNEW (5.99.0-10090-g11a7729ab8)) date 2021-04-12 14:48:57*
%MOMM*%
%LPD*%
G01*
G04 APERTURE LIST*
%ADD10C,1.711200*%
%ADD11C,0.500000*%
%ADD12O,1.900000X1.900000*%
%ADD13R,1.700000X1.700000*%
%ADD14O,1.700000X1.700000*%
%ADD15C,0.990600*%
%ADD16C,3.200000*%
%ADD17C,5.600000*%
G04 APERTURE END LIST*
D10*
X123825000Y-112776000D03*
X126365000Y-112776000D03*
X128905000Y-112776000D03*
X131445000Y-112776000D03*
X133985000Y-112776000D03*
X136525000Y-112776000D03*
X139065000Y-112776000D03*
X141605000Y-112776000D03*
X144145000Y-112776000D03*
X146685000Y-112776000D03*
X149225000Y-112776000D03*
X151765000Y-112776000D03*
X154305000Y-112776000D03*
X156845000Y-112776000D03*
X159385000Y-112776000D03*
X161925000Y-112776000D03*
X161925000Y-92456000D03*
X159385000Y-92456000D03*
X156845000Y-92456000D03*
X154305000Y-92456000D03*
X151765000Y-92456000D03*
X149225000Y-92456000D03*
X146685000Y-92456000D03*
X144145000Y-92456000D03*
X141605000Y-92456000D03*
X139065000Y-92456000D03*
X136525000Y-92456000D03*
X133985000Y-92456000D03*
D11*
X159004000Y-79926000D03*
X158204000Y-79926000D03*
X158204000Y-82126000D03*
X159004000Y-82126000D03*
X159804000Y-82126000D03*
X159804000Y-79926000D03*
D12*
X119275000Y-74778000D03*
X121815000Y-74778000D03*
X119275000Y-77318000D03*
X121815000Y-77318000D03*
D13*
X165608000Y-96192000D03*
D14*
X165608000Y-98732000D03*
X165608000Y-101272000D03*
X165608000Y-103812000D03*
X165608000Y-106352000D03*
X165608000Y-108892000D03*
X165608000Y-111432000D03*
D15*
X164584000Y-84660000D03*
X166616000Y-84660000D03*
X165600000Y-89740000D03*
D13*
X153125000Y-78486000D03*
D14*
X150585000Y-78486000D03*
X148045000Y-78486000D03*
X145505000Y-78486000D03*
X142965000Y-78486000D03*
X140425000Y-78486000D03*
X137885000Y-78486000D03*
D11*
X126238000Y-79926000D03*
X126238000Y-82126000D03*
X125438000Y-82126000D03*
X127038000Y-82126000D03*
X127038000Y-79926000D03*
X125438000Y-79926000D03*
D16*
X133117000Y-76048000D03*
D13*
X163217000Y-74778000D03*
D14*
X165757000Y-74778000D03*
X163217000Y-77318000D03*
X165757000Y-77318000D03*
D17*
X117708000Y-107296000D03*
D16*
X158117000Y-76048000D03*
M02*
