G04 #@! TF.GenerationSoftware,KiCad,Pcbnew,(5.99.0-6632-gb710573c5)*
G04 #@! TF.CreationDate,2020-11-23T17:19:51-05:00*
G04 #@! TF.ProjectId,syringe_board,73797269-6e67-4655-9f62-6f6172642e6b,3.3*
G04 #@! TF.SameCoordinates,Original*
G04 #@! TF.FileFunction,Copper,L2,Bot*
G04 #@! TF.FilePolarity,Positive*
%FSLAX46Y46*%
G04 Gerber Fmt 4.6, Leading zero omitted, Abs format (unit mm)*
G04 Created by KiCad (PCBNEW (5.99.0-6632-gb710573c5)) date 2020-11-23 17:19:51*
%MOMM*%
%LPD*%
G01*
G04 APERTURE LIST*
G04 #@! TA.AperFunction,ComponentPad*
%ADD10C,1.609600*%
G04 #@! TD*
G04 #@! TA.AperFunction,ComponentPad*
%ADD11C,0.500000*%
G04 #@! TD*
G04 #@! TA.AperFunction,SMDPad,CuDef*
%ADD12R,2.500000X2.500000*%
G04 #@! TD*
G04 #@! TA.AperFunction,ComponentPad*
%ADD13R,1.700000X1.700000*%
G04 #@! TD*
G04 #@! TA.AperFunction,ComponentPad*
%ADD14O,1.700000X1.700000*%
G04 #@! TD*
G04 #@! TA.AperFunction,ViaPad*
%ADD15C,0.800000*%
G04 #@! TD*
G04 #@! TA.AperFunction,Conductor*
%ADD16C,0.609600*%
G04 #@! TD*
G04 #@! TA.AperFunction,Conductor*
%ADD17C,0.457200*%
G04 #@! TD*
G04 #@! TA.AperFunction,Conductor*
%ADD18C,0.254000*%
G04 #@! TD*
G04 #@! TA.AperFunction,Conductor*
%ADD19C,0.250000*%
G04 #@! TD*
G04 APERTURE END LIST*
D10*
X122809000Y-127508000D03*
X125349000Y-127508000D03*
X127889000Y-127508000D03*
X130429000Y-127508000D03*
X132969000Y-127508000D03*
X135509000Y-127508000D03*
X138049000Y-127508000D03*
X140589000Y-127508000D03*
X143129000Y-127508000D03*
X145669000Y-127508000D03*
X148209000Y-127508000D03*
X150749000Y-127508000D03*
X153289000Y-127508000D03*
X155829000Y-127508000D03*
X158369000Y-127508000D03*
X160909000Y-127508000D03*
X160909000Y-107188000D03*
X158369000Y-107188000D03*
X155829000Y-107188000D03*
X153289000Y-107188000D03*
X150749000Y-107188000D03*
X148209000Y-107188000D03*
X145669000Y-107188000D03*
X143129000Y-107188000D03*
X140589000Y-107188000D03*
X138049000Y-107188000D03*
X135509000Y-107188000D03*
X132969000Y-107188000D03*
D11*
X158754000Y-88756250D03*
X157754000Y-87756250D03*
X159754000Y-88756250D03*
X159754000Y-86756250D03*
X157754000Y-86756250D03*
X157754000Y-88756250D03*
X158754000Y-86756250D03*
X159754000Y-87756250D03*
X158754000Y-87756250D03*
D12*
X158754000Y-87756250D03*
D13*
X119275000Y-74778000D03*
D14*
X121815000Y-74778000D03*
X119275000Y-77318000D03*
X121815000Y-77318000D03*
D13*
X165608000Y-96192000D03*
D14*
X165608000Y-98732000D03*
X165608000Y-101272000D03*
X165608000Y-103812000D03*
X165608000Y-106352000D03*
X165608000Y-108892000D03*
X165608000Y-111432000D03*
D13*
X153237000Y-78486000D03*
D14*
X150697000Y-78486000D03*
X148157000Y-78486000D03*
X145617000Y-78486000D03*
X143077000Y-78486000D03*
X140537000Y-78486000D03*
X137997000Y-78486000D03*
D13*
X163217000Y-74778000D03*
D14*
X165757000Y-74778000D03*
X163217000Y-77318000D03*
X165757000Y-77318000D03*
D15*
X153924000Y-92202002D03*
X162796500Y-92048750D03*
X156464000Y-91304250D03*
X139446000Y-119735600D03*
X126238000Y-98806000D03*
X135636000Y-116840000D03*
X141478000Y-117348000D03*
X141478000Y-85344000D03*
X137160000Y-110744000D03*
X135890000Y-101600000D03*
X137668000Y-93472000D03*
X154432000Y-103632000D03*
X155052586Y-118370990D03*
X141478000Y-115824000D03*
X142240000Y-108391390D03*
X142240000Y-111506000D03*
X141986000Y-105664000D03*
X140208000Y-111760000D03*
X134366000Y-114554000D03*
X134112000Y-87884000D03*
X149281719Y-116825010D03*
X151257000Y-117221000D03*
X153416000Y-116332000D03*
X157226000Y-105156000D03*
X157226000Y-119126000D03*
X149479000Y-88265000D03*
X143256000Y-120015000D03*
X152146000Y-123571000D03*
X152273000Y-86868000D03*
X150774400Y-104394000D03*
X149606000Y-121412000D03*
X155702000Y-114808000D03*
X146043976Y-112261976D03*
X158750000Y-83820000D03*
X143800990Y-114967441D03*
X148209000Y-109448600D03*
X142812816Y-114814026D03*
X153162000Y-111252000D03*
X136144000Y-123952000D03*
X163576000Y-125476000D03*
X162687000Y-88519000D03*
X117602000Y-120396000D03*
X135194610Y-120389198D03*
X119634000Y-119126000D03*
X135382000Y-119126000D03*
X151279000Y-75438000D03*
X163830000Y-89281000D03*
X140965331Y-123185331D03*
D16*
X156464000Y-91304250D02*
X162052000Y-91304250D01*
X156464000Y-91304250D02*
X154821752Y-91304250D01*
X162052000Y-91304250D02*
X162796500Y-92048750D01*
X154821752Y-91304250D02*
X153924000Y-92202002D01*
D17*
X137160000Y-110744000D02*
X136760001Y-110344001D01*
X136760001Y-110344001D02*
X136760001Y-102470001D01*
X135890000Y-95250000D02*
X135890000Y-101600000D01*
X137668000Y-93472000D02*
X135890000Y-95250000D01*
X136760001Y-102470001D02*
X135890000Y-101600000D01*
D18*
X155829000Y-127508000D02*
X155829000Y-119147404D01*
D19*
X154432000Y-117750404D02*
X155052586Y-118370990D01*
X154432000Y-103632000D02*
X154432000Y-117750404D01*
D18*
X155829000Y-119147404D02*
X155052586Y-118370990D01*
D19*
X141478000Y-108077000D02*
X140589000Y-107188000D01*
X141478000Y-115824000D02*
X141478000Y-108077000D01*
X142240000Y-111506000D02*
X142240000Y-108391390D01*
X140440894Y-105664000D02*
X141986000Y-105664000D01*
X140208000Y-111760000D02*
X139459199Y-111011199D01*
X139459199Y-106645695D02*
X140440894Y-105664000D01*
X139459199Y-111011199D02*
X139459199Y-106645695D01*
X134112000Y-87884000D02*
X134112000Y-114300000D01*
X134112000Y-114300000D02*
X134366000Y-114554000D01*
X148209000Y-117897729D02*
X149281719Y-116825010D01*
X148209000Y-127508000D02*
X148209000Y-117897729D01*
X151257000Y-127000000D02*
X151257000Y-117221000D01*
X150749000Y-127508000D02*
X151257000Y-127000000D01*
X153289000Y-127508000D02*
X153289000Y-116459000D01*
X153289000Y-116459000D02*
X153416000Y-116332000D01*
X157226000Y-126365000D02*
X158369000Y-127508000D01*
X157226000Y-105156000D02*
X157226000Y-126365000D01*
X143256000Y-118618000D02*
X149479000Y-112395000D01*
X143256000Y-120015000D02*
X143256000Y-118618000D01*
X149479000Y-112395000D02*
X149479000Y-88265000D01*
X152273000Y-86868000D02*
X152146000Y-86995000D01*
X152146000Y-86995000D02*
X152146000Y-123571000D01*
X150749000Y-107188000D02*
X150749000Y-104419400D01*
X149606000Y-121412000D02*
X150266400Y-120751600D01*
X150749000Y-104419400D02*
X150774400Y-104394000D01*
X150266400Y-120751600D02*
X150266400Y-107670600D01*
X150266400Y-107670600D02*
X150749000Y-107188000D01*
D18*
X155829000Y-114681000D02*
X155702000Y-114808000D01*
X155829000Y-107188000D02*
X155829000Y-114681000D01*
D19*
X152298400Y-83820000D02*
X158750000Y-83820000D01*
X145669000Y-107188000D02*
X145669000Y-90449400D01*
D18*
X145669000Y-111887000D02*
X146043976Y-112261976D01*
X145669000Y-107188000D02*
X145669000Y-111887000D01*
D19*
X145669000Y-90449400D02*
X152298400Y-83820000D01*
D18*
X148209000Y-109448600D02*
X148209000Y-111125116D01*
X148209000Y-111125116D02*
X144366675Y-114967441D01*
X148209000Y-107188000D02*
X148209000Y-109448600D01*
X144366675Y-114967441D02*
X143800990Y-114967441D01*
X143129000Y-107188000D02*
X143129000Y-114497842D01*
X143129000Y-114497842D02*
X142812816Y-114814026D01*
D19*
X153162000Y-111252000D02*
X153162000Y-107315000D01*
X153162000Y-107315000D02*
X153289000Y-107188000D01*
X162687000Y-88773000D02*
X162687000Y-88519000D01*
X162814000Y-90551000D02*
X162814000Y-88900000D01*
D18*
X142113000Y-123952000D02*
X136144000Y-123952000D01*
D19*
X162814000Y-88900000D02*
X162687000Y-88773000D01*
D18*
X145669000Y-127508000D02*
X142113000Y-123952000D01*
D19*
X163576000Y-91313000D02*
X162814000Y-90551000D01*
X163576000Y-125476000D02*
X163576000Y-91313000D01*
X117608802Y-120389198D02*
X117602000Y-120396000D01*
X135194610Y-120389198D02*
X117608802Y-120389198D01*
X135382000Y-119126000D02*
X119634000Y-119126000D01*
D16*
X148157000Y-76782000D02*
X148157000Y-78486000D01*
X163217000Y-77318000D02*
X159305000Y-73406000D01*
X159305000Y-73406000D02*
X151533000Y-73406000D01*
X151533000Y-73406000D02*
X148157000Y-76782000D01*
X165757000Y-77470000D02*
X164554199Y-78672801D01*
X156799801Y-78672801D02*
X153565000Y-75438000D01*
X164554199Y-78672801D02*
X156799801Y-78672801D01*
X153565000Y-75438000D02*
X151279000Y-75438000D01*
D18*
X165608000Y-95294250D02*
X165608000Y-91059000D01*
X165608000Y-91059000D02*
X163830000Y-89281000D01*
D16*
X123339000Y-78740000D02*
X122069000Y-77470000D01*
X137743000Y-78740000D02*
X123339000Y-78740000D01*
X119529000Y-77318000D02*
X122069000Y-77318000D01*
X137997000Y-78486000D02*
X137743000Y-78740000D01*
D19*
X127889000Y-127508000D02*
X132211669Y-123185331D01*
X132211669Y-123185331D02*
X140965331Y-123185331D01*
G04 #@! TA.AperFunction,Conductor*
G36*
X157706614Y-82178105D02*
G01*
X157773176Y-82255771D01*
X157792304Y-82319730D01*
X157797535Y-82327558D01*
X157797536Y-82327561D01*
X157862235Y-82424390D01*
X157867468Y-82432221D01*
X157972386Y-82517638D01*
X157981117Y-82521174D01*
X157981118Y-82521175D01*
X158030319Y-82541103D01*
X158097782Y-82568428D01*
X158107167Y-82569241D01*
X158107168Y-82569241D01*
X158223190Y-82579290D01*
X158223193Y-82579290D01*
X158232570Y-82580102D01*
X158241771Y-82578121D01*
X158241773Y-82578121D01*
X158355627Y-82553609D01*
X158355630Y-82553608D01*
X158364831Y-82551627D01*
X158373043Y-82547028D01*
X158373046Y-82547027D01*
X158459177Y-82498791D01*
X158482873Y-82485521D01*
X158511791Y-82455207D01*
X158573280Y-82419724D01*
X158644196Y-82423118D01*
X158682509Y-82444467D01*
X158698678Y-82457630D01*
X158751482Y-82500619D01*
X158772386Y-82517638D01*
X158781117Y-82521174D01*
X158781118Y-82521175D01*
X158830319Y-82541103D01*
X158897782Y-82568428D01*
X158907167Y-82569241D01*
X158907168Y-82569241D01*
X159023190Y-82579290D01*
X159023193Y-82579290D01*
X159032570Y-82580102D01*
X159041771Y-82578121D01*
X159041773Y-82578121D01*
X159155627Y-82553609D01*
X159155630Y-82553608D01*
X159164831Y-82551627D01*
X159173043Y-82547028D01*
X159173046Y-82547027D01*
X159259177Y-82498791D01*
X159282873Y-82485521D01*
X159311791Y-82455207D01*
X159373280Y-82419724D01*
X159444196Y-82423118D01*
X159482509Y-82444467D01*
X159498678Y-82457630D01*
X159551482Y-82500619D01*
X159572386Y-82517638D01*
X159581117Y-82521174D01*
X159581118Y-82521175D01*
X159630319Y-82541103D01*
X159697782Y-82568428D01*
X159707167Y-82569241D01*
X159707168Y-82569241D01*
X159823190Y-82579290D01*
X159823193Y-82579290D01*
X159832570Y-82580102D01*
X159841771Y-82578121D01*
X159841773Y-82578121D01*
X159955627Y-82553609D01*
X159955630Y-82553608D01*
X159964831Y-82551627D01*
X159973043Y-82547028D01*
X159973046Y-82547027D01*
X160059177Y-82498791D01*
X160082873Y-82485521D01*
X160176258Y-82387627D01*
X160236731Y-82266603D01*
X160238278Y-82257309D01*
X160238844Y-82255567D01*
X160278919Y-82196962D01*
X160344316Y-82169326D01*
X160439669Y-82197985D01*
X160466400Y-82220415D01*
X160469700Y-82223184D01*
X160474537Y-82227459D01*
X160482476Y-82234850D01*
X160486088Y-82236936D01*
X160489142Y-82239498D01*
X160495429Y-82242722D01*
X160495432Y-82242724D01*
X160498731Y-82244415D01*
X160504233Y-82247411D01*
X160537474Y-82266603D01*
X160690717Y-82355080D01*
X160696245Y-82358465D01*
X160699342Y-82360472D01*
X160705327Y-82364351D01*
X160709246Y-82365777D01*
X160712699Y-82367771D01*
X160723024Y-82370957D01*
X160728953Y-82372950D01*
X160925446Y-82444467D01*
X160931240Y-82446576D01*
X160937282Y-82448953D01*
X160940715Y-82450407D01*
X160940720Y-82450408D01*
X160947281Y-82453187D01*
X160951395Y-82453912D01*
X160955136Y-82455274D01*
X160962159Y-82456155D01*
X160962158Y-82456155D01*
X160965823Y-82456615D01*
X160972007Y-82457547D01*
X161063384Y-82473659D01*
X161179166Y-82494074D01*
X161188109Y-82495988D01*
X161189746Y-82496401D01*
X161189751Y-82496402D01*
X161196660Y-82498145D01*
X161202949Y-82498278D01*
X161202964Y-82498280D01*
X161203038Y-82498283D01*
X161209082Y-82499349D01*
X161217905Y-82498910D01*
X161226819Y-82498782D01*
X161273508Y-82499768D01*
X161344517Y-82501268D01*
X161344520Y-82501268D01*
X161351586Y-82501417D01*
X161365300Y-82498592D01*
X161390722Y-82496000D01*
X166945572Y-82496000D01*
X166965561Y-82498431D01*
X166965618Y-82497994D01*
X166972692Y-82498912D01*
X166979606Y-82500619D01*
X167080540Y-82502238D01*
X167132364Y-82503069D01*
X167146789Y-82504131D01*
X167403195Y-82537887D01*
X167419360Y-82541102D01*
X167666602Y-82607350D01*
X167682210Y-82612648D01*
X167918694Y-82710604D01*
X167933466Y-82717889D01*
X168155142Y-82845874D01*
X168168832Y-82855022D01*
X168276486Y-82937628D01*
X168371911Y-83010851D01*
X168384302Y-83021718D01*
X168565286Y-83202702D01*
X168576154Y-83215093D01*
X168731978Y-83418168D01*
X168741134Y-83431871D01*
X168869117Y-83653542D01*
X168876398Y-83668309D01*
X168922808Y-83780352D01*
X168974353Y-83904794D01*
X168979651Y-83920401D01*
X169045897Y-84167635D01*
X169049112Y-84183800D01*
X169082869Y-84440211D01*
X169083931Y-84454636D01*
X169086378Y-84607202D01*
X169088061Y-84614069D01*
X169088965Y-84621085D01*
X169088569Y-84621136D01*
X169091001Y-84641281D01*
X169091000Y-126686572D01*
X169088569Y-126706561D01*
X169089006Y-126706618D01*
X169088088Y-126713692D01*
X169086381Y-126720606D01*
X169085378Y-126783140D01*
X169083931Y-126873364D01*
X169082869Y-126887789D01*
X169049113Y-127144194D01*
X169045898Y-127160359D01*
X168979651Y-127407600D01*
X168974353Y-127423207D01*
X168886970Y-127634169D01*
X168876399Y-127659689D01*
X168869115Y-127674460D01*
X168741136Y-127896125D01*
X168731980Y-127909827D01*
X168576161Y-128112898D01*
X168565294Y-128125290D01*
X168384306Y-128306280D01*
X168371914Y-128317147D01*
X168168834Y-128472976D01*
X168155135Y-128482130D01*
X168044301Y-128546120D01*
X167933472Y-128610107D01*
X167918691Y-128617397D01*
X167682206Y-128715354D01*
X167666598Y-128720652D01*
X167419365Y-128786897D01*
X167403200Y-128790112D01*
X167146789Y-128823869D01*
X167132364Y-128824931D01*
X167095379Y-128825524D01*
X166979798Y-128827378D01*
X166972931Y-128829061D01*
X166965915Y-128829965D01*
X166965864Y-128829568D01*
X166945723Y-128832000D01*
X161706525Y-128832000D01*
X161638404Y-128811998D01*
X161591911Y-128758342D01*
X161581807Y-128688068D01*
X161619271Y-128627152D01*
X161614174Y-128623078D01*
X161633860Y-128598450D01*
X161626794Y-128585005D01*
X160921811Y-127880021D01*
X160907868Y-127872408D01*
X160906034Y-127872539D01*
X160899420Y-127876790D01*
X160190483Y-128585728D01*
X160184056Y-128597498D01*
X160205062Y-128624649D01*
X160202688Y-128626485D01*
X160228073Y-128658241D01*
X160235384Y-128728860D01*
X160203355Y-128792221D01*
X160111475Y-128832000D01*
X131226525Y-128832000D01*
X131158404Y-128811998D01*
X131111911Y-128758342D01*
X131101807Y-128688068D01*
X131139271Y-128627152D01*
X131134174Y-128623078D01*
X131153860Y-128598450D01*
X131146794Y-128585005D01*
X130441811Y-127880021D01*
X130427868Y-127872408D01*
X130426034Y-127872539D01*
X130419420Y-127876790D01*
X129710483Y-128585728D01*
X129704056Y-128597498D01*
X129725062Y-128624649D01*
X129722688Y-128626485D01*
X129748073Y-128658241D01*
X129755384Y-128728860D01*
X129723355Y-128792221D01*
X129631475Y-128832000D01*
X118296428Y-128832000D01*
X118276439Y-128829569D01*
X118276382Y-128830006D01*
X118269308Y-128829088D01*
X118262394Y-128827381D01*
X118161460Y-128825762D01*
X118109636Y-128824931D01*
X118095211Y-128823869D01*
X117838806Y-128790113D01*
X117822641Y-128786898D01*
X117575400Y-128720651D01*
X117559793Y-128715353D01*
X117493921Y-128688068D01*
X117323306Y-128617397D01*
X117308540Y-128610115D01*
X117086871Y-128482134D01*
X117073173Y-128472980D01*
X116870102Y-128317161D01*
X116857710Y-128306294D01*
X116676720Y-128125306D01*
X116665853Y-128112914D01*
X116510024Y-127909834D01*
X116500867Y-127896130D01*
X116500865Y-127896125D01*
X116405734Y-127731354D01*
X116372893Y-127674472D01*
X116365603Y-127659691D01*
X116343587Y-127606539D01*
X121804019Y-127606539D01*
X121844360Y-127806606D01*
X121875523Y-127880021D01*
X121886632Y-127906191D01*
X121924106Y-127994475D01*
X122039999Y-128162471D01*
X122187305Y-128303733D01*
X122192701Y-128307131D01*
X122354604Y-128409088D01*
X122354608Y-128409090D01*
X122360007Y-128412490D01*
X122365976Y-128414734D01*
X122365981Y-128414736D01*
X122478164Y-128456902D01*
X122551051Y-128484298D01*
X122557349Y-128485296D01*
X122557351Y-128485296D01*
X122640502Y-128498466D01*
X122752631Y-128516225D01*
X122956515Y-128506967D01*
X122962697Y-128505403D01*
X122962702Y-128505402D01*
X123148176Y-128458470D01*
X123148178Y-128458469D01*
X123154372Y-128456902D01*
X123160125Y-128454121D01*
X123332373Y-128370853D01*
X123332375Y-128370852D01*
X123338121Y-128368074D01*
X123343190Y-128364198D01*
X123343194Y-128364196D01*
X123495182Y-128247992D01*
X123500256Y-128244113D01*
X123634153Y-128090081D01*
X123734343Y-127912272D01*
X123796733Y-127717949D01*
X123808835Y-127606539D01*
X124344019Y-127606539D01*
X124384360Y-127806606D01*
X124415523Y-127880021D01*
X124426632Y-127906191D01*
X124464106Y-127994475D01*
X124579999Y-128162471D01*
X124727305Y-128303733D01*
X124732701Y-128307131D01*
X124894604Y-128409088D01*
X124894608Y-128409090D01*
X124900007Y-128412490D01*
X124905976Y-128414734D01*
X124905981Y-128414736D01*
X125018164Y-128456902D01*
X125091051Y-128484298D01*
X125097349Y-128485296D01*
X125097351Y-128485296D01*
X125180502Y-128498466D01*
X125292631Y-128516225D01*
X125496515Y-128506967D01*
X125502697Y-128505403D01*
X125502702Y-128505402D01*
X125688176Y-128458470D01*
X125688178Y-128458469D01*
X125694372Y-128456902D01*
X125700125Y-128454121D01*
X125872373Y-128370853D01*
X125872375Y-128370852D01*
X125878121Y-128368074D01*
X125883190Y-128364198D01*
X125883194Y-128364196D01*
X126035182Y-128247992D01*
X126040256Y-128244113D01*
X126174153Y-128090081D01*
X126274343Y-127912272D01*
X126336733Y-127717949D01*
X126348835Y-127606539D01*
X126884019Y-127606539D01*
X126924360Y-127806606D01*
X126955523Y-127880021D01*
X126966632Y-127906191D01*
X127004106Y-127994475D01*
X127119999Y-128162471D01*
X127267305Y-128303733D01*
X127272701Y-128307131D01*
X127434604Y-128409088D01*
X127434608Y-128409090D01*
X127440007Y-128412490D01*
X127445976Y-128414734D01*
X127445981Y-128414736D01*
X127558164Y-128456902D01*
X127631051Y-128484298D01*
X127637349Y-128485296D01*
X127637351Y-128485296D01*
X127720502Y-128498466D01*
X127832631Y-128516225D01*
X128036515Y-128506967D01*
X128042697Y-128505403D01*
X128042702Y-128505402D01*
X128228176Y-128458470D01*
X128228178Y-128458469D01*
X128234372Y-128456902D01*
X128240125Y-128454121D01*
X128412373Y-128370853D01*
X128412375Y-128370852D01*
X128418121Y-128368074D01*
X128423190Y-128364198D01*
X128423194Y-128364196D01*
X128575182Y-128247992D01*
X128580256Y-128244113D01*
X128714153Y-128090081D01*
X128814343Y-127912272D01*
X128876733Y-127717949D01*
X128877422Y-127711607D01*
X128877423Y-127711602D01*
X128877996Y-127706323D01*
X128905236Y-127640761D01*
X128963598Y-127600333D01*
X129034552Y-127597876D01*
X129095571Y-127634169D01*
X129128779Y-127708945D01*
X129130739Y-127731345D01*
X129132644Y-127742147D01*
X129189250Y-127953404D01*
X129192996Y-127963696D01*
X129285427Y-128161915D01*
X129290906Y-128171405D01*
X129328074Y-128224486D01*
X129338550Y-128232860D01*
X129351998Y-128225791D01*
X130068657Y-127509132D01*
X130793408Y-127509132D01*
X130793539Y-127510966D01*
X130797790Y-127517580D01*
X131506728Y-128226517D01*
X131518498Y-128232944D01*
X131530513Y-128223648D01*
X131567094Y-128171405D01*
X131572573Y-128161915D01*
X131665004Y-127963696D01*
X131668750Y-127953404D01*
X131725356Y-127742147D01*
X131727259Y-127731355D01*
X131730311Y-127696474D01*
X131756175Y-127630356D01*
X131813678Y-127588717D01*
X131884565Y-127584776D01*
X131946330Y-127619785D01*
X131979346Y-127682551D01*
X132004360Y-127806606D01*
X132035523Y-127880021D01*
X132046632Y-127906191D01*
X132084106Y-127994475D01*
X132199999Y-128162471D01*
X132347305Y-128303733D01*
X132352701Y-128307131D01*
X132514604Y-128409088D01*
X132514608Y-128409090D01*
X132520007Y-128412490D01*
X132525976Y-128414734D01*
X132525981Y-128414736D01*
X132638164Y-128456902D01*
X132711051Y-128484298D01*
X132717349Y-128485296D01*
X132717351Y-128485296D01*
X132800502Y-128498466D01*
X132912631Y-128516225D01*
X133116515Y-128506967D01*
X133122697Y-128505403D01*
X133122702Y-128505402D01*
X133308176Y-128458470D01*
X133308178Y-128458469D01*
X133314372Y-128456902D01*
X133320125Y-128454121D01*
X133492373Y-128370853D01*
X133492375Y-128370852D01*
X133498121Y-128368074D01*
X133503190Y-128364198D01*
X133503194Y-128364196D01*
X133655182Y-128247992D01*
X133660256Y-128244113D01*
X133794153Y-128090081D01*
X133894343Y-127912272D01*
X133956733Y-127717949D01*
X133968835Y-127606539D01*
X134504019Y-127606539D01*
X134544360Y-127806606D01*
X134575523Y-127880021D01*
X134586632Y-127906191D01*
X134624106Y-127994475D01*
X134739999Y-128162471D01*
X134887305Y-128303733D01*
X134892701Y-128307131D01*
X135054604Y-128409088D01*
X135054608Y-128409090D01*
X135060007Y-128412490D01*
X135065976Y-128414734D01*
X135065981Y-128414736D01*
X135178164Y-128456902D01*
X135251051Y-128484298D01*
X135257349Y-128485296D01*
X135257351Y-128485296D01*
X135340502Y-128498466D01*
X135452631Y-128516225D01*
X135656515Y-128506967D01*
X135662697Y-128505403D01*
X135662702Y-128505402D01*
X135848176Y-128458470D01*
X135848178Y-128458469D01*
X135854372Y-128456902D01*
X135860125Y-128454121D01*
X136032373Y-128370853D01*
X136032375Y-128370852D01*
X136038121Y-128368074D01*
X136043190Y-128364198D01*
X136043194Y-128364196D01*
X136195182Y-128247992D01*
X136200256Y-128244113D01*
X136334153Y-128090081D01*
X136434343Y-127912272D01*
X136496733Y-127717949D01*
X136508835Y-127606539D01*
X137044019Y-127606539D01*
X137084360Y-127806606D01*
X137115523Y-127880021D01*
X137126632Y-127906191D01*
X137164106Y-127994475D01*
X137279999Y-128162471D01*
X137427305Y-128303733D01*
X137432701Y-128307131D01*
X137594604Y-128409088D01*
X137594608Y-128409090D01*
X137600007Y-128412490D01*
X137605976Y-128414734D01*
X137605981Y-128414736D01*
X137718164Y-128456902D01*
X137791051Y-128484298D01*
X137797349Y-128485296D01*
X137797351Y-128485296D01*
X137880502Y-128498466D01*
X137992631Y-128516225D01*
X138196515Y-128506967D01*
X138202697Y-128505403D01*
X138202702Y-128505402D01*
X138388176Y-128458470D01*
X138388178Y-128458469D01*
X138394372Y-128456902D01*
X138400125Y-128454121D01*
X138572373Y-128370853D01*
X138572375Y-128370852D01*
X138578121Y-128368074D01*
X138583190Y-128364198D01*
X138583194Y-128364196D01*
X138735182Y-128247992D01*
X138740256Y-128244113D01*
X138874153Y-128090081D01*
X138974343Y-127912272D01*
X139036733Y-127717949D01*
X139048835Y-127606539D01*
X139584019Y-127606539D01*
X139624360Y-127806606D01*
X139655523Y-127880021D01*
X139666632Y-127906191D01*
X139704106Y-127994475D01*
X139819999Y-128162471D01*
X139967305Y-128303733D01*
X139972701Y-128307131D01*
X140134604Y-128409088D01*
X140134608Y-128409090D01*
X140140007Y-128412490D01*
X140145976Y-128414734D01*
X140145981Y-128414736D01*
X140258164Y-128456902D01*
X140331051Y-128484298D01*
X140337349Y-128485296D01*
X140337351Y-128485296D01*
X140420502Y-128498466D01*
X140532631Y-128516225D01*
X140736515Y-128506967D01*
X140742697Y-128505403D01*
X140742702Y-128505402D01*
X140928176Y-128458470D01*
X140928178Y-128458469D01*
X140934372Y-128456902D01*
X140940125Y-128454121D01*
X141112373Y-128370853D01*
X141112375Y-128370852D01*
X141118121Y-128368074D01*
X141123190Y-128364198D01*
X141123194Y-128364196D01*
X141275182Y-128247992D01*
X141280256Y-128244113D01*
X141414153Y-128090081D01*
X141514343Y-127912272D01*
X141576733Y-127717949D01*
X141588835Y-127606539D01*
X142124019Y-127606539D01*
X142164360Y-127806606D01*
X142195523Y-127880021D01*
X142206632Y-127906191D01*
X142244106Y-127994475D01*
X142359999Y-128162471D01*
X142507305Y-128303733D01*
X142512701Y-128307131D01*
X142674604Y-128409088D01*
X142674608Y-128409090D01*
X142680007Y-128412490D01*
X142685976Y-128414734D01*
X142685981Y-128414736D01*
X142798164Y-128456902D01*
X142871051Y-128484298D01*
X142877349Y-128485296D01*
X142877351Y-128485296D01*
X142960502Y-128498466D01*
X143072631Y-128516225D01*
X143276515Y-128506967D01*
X143282697Y-128505403D01*
X143282702Y-128505402D01*
X143468176Y-128458470D01*
X143468178Y-128458469D01*
X143474372Y-128456902D01*
X143480125Y-128454121D01*
X143652373Y-128370853D01*
X143652375Y-128370852D01*
X143658121Y-128368074D01*
X143663190Y-128364198D01*
X143663194Y-128364196D01*
X143815182Y-128247992D01*
X143820256Y-128244113D01*
X143954153Y-128090081D01*
X144054343Y-127912272D01*
X144116733Y-127717949D01*
X144134323Y-127556029D01*
X144138420Y-127518321D01*
X144138420Y-127518314D01*
X144138775Y-127515050D01*
X144138800Y-127508000D01*
X144118175Y-127304952D01*
X144057143Y-127110197D01*
X143958196Y-126931693D01*
X143825378Y-126776731D01*
X143664112Y-126651641D01*
X143480988Y-126561533D01*
X143474810Y-126559924D01*
X143474808Y-126559923D01*
X143289667Y-126511697D01*
X143289664Y-126511697D01*
X143283485Y-126510087D01*
X143195902Y-126505497D01*
X143086053Y-126499740D01*
X143086049Y-126499740D01*
X143079672Y-126499406D01*
X142916903Y-126524022D01*
X142884187Y-126528970D01*
X142884186Y-126528970D01*
X142877873Y-126529925D01*
X142871887Y-126532128D01*
X142871881Y-126532129D01*
X142778256Y-126566577D01*
X142686333Y-126600398D01*
X142680917Y-126603756D01*
X142680913Y-126603758D01*
X142518298Y-126704583D01*
X142518294Y-126704586D01*
X142512875Y-126707946D01*
X142508237Y-126712332D01*
X142425888Y-126790206D01*
X142364586Y-126848176D01*
X142360924Y-126853406D01*
X142360923Y-126853407D01*
X142253599Y-127006682D01*
X142247523Y-127015359D01*
X142231538Y-127052299D01*
X142184774Y-127160365D01*
X142166468Y-127202667D01*
X142165163Y-127208914D01*
X142165162Y-127208917D01*
X142126038Y-127396193D01*
X142126037Y-127396198D01*
X142124732Y-127402447D01*
X142124649Y-127426276D01*
X142124159Y-127566560D01*
X142124019Y-127606539D01*
X141588835Y-127606539D01*
X141594323Y-127556029D01*
X141598420Y-127518321D01*
X141598420Y-127518314D01*
X141598775Y-127515050D01*
X141598800Y-127508000D01*
X141578175Y-127304952D01*
X141517143Y-127110197D01*
X141418196Y-126931693D01*
X141285378Y-126776731D01*
X141124112Y-126651641D01*
X140940988Y-126561533D01*
X140934810Y-126559924D01*
X140934808Y-126559923D01*
X140749667Y-126511697D01*
X140749664Y-126511697D01*
X140743485Y-126510087D01*
X140655902Y-126505497D01*
X140546053Y-126499740D01*
X140546049Y-126499740D01*
X140539672Y-126499406D01*
X140376903Y-126524022D01*
X140344187Y-126528970D01*
X140344186Y-126528970D01*
X140337873Y-126529925D01*
X140331887Y-126532128D01*
X140331881Y-126532129D01*
X140238256Y-126566577D01*
X140146333Y-126600398D01*
X140140917Y-126603756D01*
X140140913Y-126603758D01*
X139978298Y-126704583D01*
X139978294Y-126704586D01*
X139972875Y-126707946D01*
X139968237Y-126712332D01*
X139885888Y-126790206D01*
X139824586Y-126848176D01*
X139820924Y-126853406D01*
X139820923Y-126853407D01*
X139713599Y-127006682D01*
X139707523Y-127015359D01*
X139691538Y-127052299D01*
X139644774Y-127160365D01*
X139626468Y-127202667D01*
X139625163Y-127208914D01*
X139625162Y-127208917D01*
X139586038Y-127396193D01*
X139586037Y-127396198D01*
X139584732Y-127402447D01*
X139584649Y-127426276D01*
X139584159Y-127566560D01*
X139584019Y-127606539D01*
X139048835Y-127606539D01*
X139054323Y-127556029D01*
X139058420Y-127518321D01*
X139058420Y-127518314D01*
X139058775Y-127515050D01*
X139058800Y-127508000D01*
X139038175Y-127304952D01*
X138977143Y-127110197D01*
X138878196Y-126931693D01*
X138745378Y-126776731D01*
X138584112Y-126651641D01*
X138400988Y-126561533D01*
X138394810Y-126559924D01*
X138394808Y-126559923D01*
X138209667Y-126511697D01*
X138209664Y-126511697D01*
X138203485Y-126510087D01*
X138115902Y-126505497D01*
X138006053Y-126499740D01*
X138006049Y-126499740D01*
X137999672Y-126499406D01*
X137836903Y-126524022D01*
X137804187Y-126528970D01*
X137804186Y-126528970D01*
X137797873Y-126529925D01*
X137791887Y-126532128D01*
X137791881Y-126532129D01*
X137698256Y-126566577D01*
X137606333Y-126600398D01*
X137600917Y-126603756D01*
X137600913Y-126603758D01*
X137438298Y-126704583D01*
X137438294Y-126704586D01*
X137432875Y-126707946D01*
X137428237Y-126712332D01*
X137345888Y-126790206D01*
X137284586Y-126848176D01*
X137280924Y-126853406D01*
X137280923Y-126853407D01*
X137173599Y-127006682D01*
X137167523Y-127015359D01*
X137151538Y-127052299D01*
X137104774Y-127160365D01*
X137086468Y-127202667D01*
X137085163Y-127208914D01*
X137085162Y-127208917D01*
X137046038Y-127396193D01*
X137046037Y-127396198D01*
X137044732Y-127402447D01*
X137044649Y-127426276D01*
X137044159Y-127566560D01*
X137044019Y-127606539D01*
X136508835Y-127606539D01*
X136514323Y-127556029D01*
X136518420Y-127518321D01*
X136518420Y-127518314D01*
X136518775Y-127515050D01*
X136518800Y-127508000D01*
X136498175Y-127304952D01*
X136437143Y-127110197D01*
X136338196Y-126931693D01*
X136205378Y-126776731D01*
X136044112Y-126651641D01*
X135860988Y-126561533D01*
X135854810Y-126559924D01*
X135854808Y-126559923D01*
X135669667Y-126511697D01*
X135669664Y-126511697D01*
X135663485Y-126510087D01*
X135575902Y-126505497D01*
X135466053Y-126499740D01*
X135466049Y-126499740D01*
X135459672Y-126499406D01*
X135296903Y-126524022D01*
X135264187Y-126528970D01*
X135264186Y-126528970D01*
X135257873Y-126529925D01*
X135251887Y-126532128D01*
X135251881Y-126532129D01*
X135158256Y-126566577D01*
X135066333Y-126600398D01*
X135060917Y-126603756D01*
X135060913Y-126603758D01*
X134898298Y-126704583D01*
X134898294Y-126704586D01*
X134892875Y-126707946D01*
X134888237Y-126712332D01*
X134805888Y-126790206D01*
X134744586Y-126848176D01*
X134740924Y-126853406D01*
X134740923Y-126853407D01*
X134633599Y-127006682D01*
X134627523Y-127015359D01*
X134611538Y-127052299D01*
X134564774Y-127160365D01*
X134546468Y-127202667D01*
X134545163Y-127208914D01*
X134545162Y-127208917D01*
X134506038Y-127396193D01*
X134506037Y-127396198D01*
X134504732Y-127402447D01*
X134504649Y-127426276D01*
X134504159Y-127566560D01*
X134504019Y-127606539D01*
X133968835Y-127606539D01*
X133974323Y-127556029D01*
X133978420Y-127518321D01*
X133978420Y-127518314D01*
X133978775Y-127515050D01*
X133978800Y-127508000D01*
X133958175Y-127304952D01*
X133897143Y-127110197D01*
X133798196Y-126931693D01*
X133665378Y-126776731D01*
X133504112Y-126651641D01*
X133320988Y-126561533D01*
X133314810Y-126559924D01*
X133314808Y-126559923D01*
X133129667Y-126511697D01*
X133129664Y-126511697D01*
X133123485Y-126510087D01*
X133035902Y-126505497D01*
X132926053Y-126499740D01*
X132926049Y-126499740D01*
X132919672Y-126499406D01*
X132756903Y-126524022D01*
X132724187Y-126528970D01*
X132724186Y-126528970D01*
X132717873Y-126529925D01*
X132711887Y-126532128D01*
X132711881Y-126532129D01*
X132618256Y-126566577D01*
X132526333Y-126600398D01*
X132520917Y-126603756D01*
X132520913Y-126603758D01*
X132358298Y-126704583D01*
X132358294Y-126704586D01*
X132352875Y-126707946D01*
X132348237Y-126712332D01*
X132265888Y-126790206D01*
X132204586Y-126848176D01*
X132200924Y-126853406D01*
X132200923Y-126853407D01*
X132093599Y-127006682D01*
X132087523Y-127015359D01*
X132071538Y-127052299D01*
X132024774Y-127160365D01*
X132006468Y-127202667D01*
X131998470Y-127240953D01*
X131979109Y-127333628D01*
X131945599Y-127396218D01*
X131883570Y-127430756D01*
X131812715Y-127426276D01*
X131755530Y-127384200D01*
X131730251Y-127318842D01*
X131727259Y-127284645D01*
X131725356Y-127273853D01*
X131668750Y-127062596D01*
X131665004Y-127052304D01*
X131572573Y-126854085D01*
X131567094Y-126844595D01*
X131529926Y-126791514D01*
X131519450Y-126783140D01*
X131506005Y-126790206D01*
X130801021Y-127495189D01*
X130793408Y-127509132D01*
X130068657Y-127509132D01*
X130429000Y-127148790D01*
X131147515Y-126430274D01*
X131153943Y-126418502D01*
X131144647Y-126406486D01*
X131092405Y-126369906D01*
X131082915Y-126364427D01*
X130884696Y-126271996D01*
X130874404Y-126268250D01*
X130663147Y-126211644D01*
X130652354Y-126209741D01*
X130434475Y-126190679D01*
X130423525Y-126190679D01*
X130205646Y-126209741D01*
X130194853Y-126211644D01*
X129983596Y-126268250D01*
X129973304Y-126271996D01*
X129893970Y-126308990D01*
X129823778Y-126319651D01*
X129758965Y-126290671D01*
X129720109Y-126231251D01*
X129719546Y-126160257D01*
X129751625Y-126105700D01*
X130676446Y-125180880D01*
X132309590Y-123547736D01*
X132398685Y-123510831D01*
X135488384Y-123510831D01*
X135556505Y-123530833D01*
X135602998Y-123584489D01*
X135604793Y-123685049D01*
X135565752Y-123779302D01*
X135559132Y-123795285D01*
X135538500Y-123952000D01*
X135559132Y-124108715D01*
X135619622Y-124254750D01*
X135715847Y-124380153D01*
X135841250Y-124476378D01*
X135987285Y-124536868D01*
X136144000Y-124557500D01*
X136152188Y-124556422D01*
X136292527Y-124537946D01*
X136300715Y-124536868D01*
X136446750Y-124476378D01*
X136572153Y-124380153D01*
X136577179Y-124373603D01*
X136577182Y-124373600D01*
X136611561Y-124328796D01*
X136668899Y-124286929D01*
X136711523Y-124279500D01*
X141925156Y-124279500D01*
X142014251Y-124316405D01*
X144704527Y-127006682D01*
X144738553Y-127068994D01*
X144731069Y-127145817D01*
X144724774Y-127160365D01*
X144706468Y-127202667D01*
X144705163Y-127208914D01*
X144705162Y-127208917D01*
X144666038Y-127396193D01*
X144666037Y-127396198D01*
X144664732Y-127402447D01*
X144664649Y-127426276D01*
X144664159Y-127566560D01*
X144664019Y-127606539D01*
X144704360Y-127806606D01*
X144735523Y-127880021D01*
X144746632Y-127906191D01*
X144784106Y-127994475D01*
X144899999Y-128162471D01*
X145047305Y-128303733D01*
X145052701Y-128307131D01*
X145214604Y-128409088D01*
X145214608Y-128409090D01*
X145220007Y-128412490D01*
X145225976Y-128414734D01*
X145225981Y-128414736D01*
X145338164Y-128456902D01*
X145411051Y-128484298D01*
X145417349Y-128485296D01*
X145417351Y-128485296D01*
X145500502Y-128498466D01*
X145612631Y-128516225D01*
X145816515Y-128506967D01*
X145822697Y-128505403D01*
X145822702Y-128505402D01*
X146008176Y-128458470D01*
X146008178Y-128458469D01*
X146014372Y-128456902D01*
X146020125Y-128454121D01*
X146192373Y-128370853D01*
X146192375Y-128370852D01*
X146198121Y-128368074D01*
X146203190Y-128364198D01*
X146203194Y-128364196D01*
X146355182Y-128247992D01*
X146360256Y-128244113D01*
X146494153Y-128090081D01*
X146594343Y-127912272D01*
X146656733Y-127717949D01*
X146674323Y-127556029D01*
X146678420Y-127518321D01*
X146678420Y-127518314D01*
X146678775Y-127515050D01*
X146678800Y-127508000D01*
X146658175Y-127304952D01*
X146597143Y-127110197D01*
X146498196Y-126931693D01*
X146365378Y-126776731D01*
X146204112Y-126651641D01*
X146020988Y-126561533D01*
X146014810Y-126559924D01*
X146014808Y-126559923D01*
X145829667Y-126511697D01*
X145829664Y-126511697D01*
X145823485Y-126510087D01*
X145735902Y-126505497D01*
X145626053Y-126499740D01*
X145626049Y-126499740D01*
X145619672Y-126499406D01*
X145456903Y-126524022D01*
X145424187Y-126528970D01*
X145424186Y-126528970D01*
X145417873Y-126529925D01*
X145411884Y-126532128D01*
X145411882Y-126532129D01*
X145395254Y-126538247D01*
X145300654Y-126573053D01*
X145229819Y-126577803D01*
X145168053Y-126543898D01*
X142358173Y-123734019D01*
X142350746Y-123725915D01*
X142333812Y-123705734D01*
X142326727Y-123697290D01*
X142293859Y-123678314D01*
X142284591Y-123672408D01*
X142262553Y-123656977D01*
X142262549Y-123656975D01*
X142253520Y-123650653D01*
X142242871Y-123647800D01*
X142239620Y-123646284D01*
X142236269Y-123645064D01*
X142226722Y-123639552D01*
X142215865Y-123637638D01*
X142215863Y-123637637D01*
X142198142Y-123634513D01*
X142189349Y-123632962D01*
X142178618Y-123630583D01*
X142152626Y-123623618D01*
X142152621Y-123623618D01*
X142141979Y-123620766D01*
X142131004Y-123621726D01*
X142131003Y-123621726D01*
X142104773Y-123624021D01*
X142093792Y-123624500D01*
X141621775Y-123624500D01*
X141553654Y-123604498D01*
X141507161Y-123550842D01*
X141505366Y-123450282D01*
X141547039Y-123349675D01*
X141550199Y-123342046D01*
X141570831Y-123185331D01*
X141550199Y-123028616D01*
X141489709Y-122882581D01*
X141393484Y-122757178D01*
X141268081Y-122660953D01*
X141122046Y-122600463D01*
X140965331Y-122579831D01*
X140808616Y-122600463D01*
X140662581Y-122660953D01*
X140537178Y-122757178D01*
X140532155Y-122763724D01*
X140496236Y-122810535D01*
X140438898Y-122852402D01*
X140396273Y-122859831D01*
X132231141Y-122859831D01*
X132220159Y-122859352D01*
X132182863Y-122856089D01*
X132172216Y-122858942D01*
X132172214Y-122858942D01*
X132153512Y-122863953D01*
X132146469Y-122865841D01*
X132135745Y-122868218D01*
X132125435Y-122870036D01*
X132109484Y-122872849D01*
X132109483Y-122872849D01*
X132098631Y-122874763D01*
X132089087Y-122880273D01*
X132085815Y-122881464D01*
X132082642Y-122882944D01*
X132071994Y-122885797D01*
X132041125Y-122907411D01*
X132031879Y-122913302D01*
X131999228Y-122932153D01*
X131992141Y-122940598D01*
X131992142Y-122940598D01*
X131975156Y-122960841D01*
X131967729Y-122968945D01*
X128394686Y-126541988D01*
X128332374Y-126576014D01*
X128252805Y-126566296D01*
X128252701Y-126566577D01*
X128251525Y-126566140D01*
X128249964Y-126565949D01*
X128246720Y-126564353D01*
X128246715Y-126564351D01*
X128240988Y-126561533D01*
X128234810Y-126559924D01*
X128234808Y-126559923D01*
X128049667Y-126511697D01*
X128049664Y-126511697D01*
X128043485Y-126510087D01*
X127955902Y-126505497D01*
X127846053Y-126499740D01*
X127846049Y-126499740D01*
X127839672Y-126499406D01*
X127676903Y-126524022D01*
X127644187Y-126528970D01*
X127644186Y-126528970D01*
X127637873Y-126529925D01*
X127631887Y-126532128D01*
X127631881Y-126532129D01*
X127538256Y-126566577D01*
X127446333Y-126600398D01*
X127440917Y-126603756D01*
X127440913Y-126603758D01*
X127278298Y-126704583D01*
X127278294Y-126704586D01*
X127272875Y-126707946D01*
X127268237Y-126712332D01*
X127185888Y-126790206D01*
X127124586Y-126848176D01*
X127120924Y-126853406D01*
X127120923Y-126853407D01*
X127013599Y-127006682D01*
X127007523Y-127015359D01*
X126991538Y-127052299D01*
X126944774Y-127160365D01*
X126926468Y-127202667D01*
X126925163Y-127208914D01*
X126925162Y-127208917D01*
X126886038Y-127396193D01*
X126886037Y-127396198D01*
X126884732Y-127402447D01*
X126884649Y-127426276D01*
X126884159Y-127566560D01*
X126884019Y-127606539D01*
X126348835Y-127606539D01*
X126354323Y-127556029D01*
X126358420Y-127518321D01*
X126358420Y-127518314D01*
X126358775Y-127515050D01*
X126358800Y-127508000D01*
X126338175Y-127304952D01*
X126277143Y-127110197D01*
X126178196Y-126931693D01*
X126045378Y-126776731D01*
X125884112Y-126651641D01*
X125700988Y-126561533D01*
X125694810Y-126559924D01*
X125694808Y-126559923D01*
X125509667Y-126511697D01*
X125509664Y-126511697D01*
X125503485Y-126510087D01*
X125415902Y-126505497D01*
X125306053Y-126499740D01*
X125306049Y-126499740D01*
X125299672Y-126499406D01*
X125136903Y-126524022D01*
X125104187Y-126528970D01*
X125104186Y-126528970D01*
X125097873Y-126529925D01*
X125091887Y-126532128D01*
X125091881Y-126532129D01*
X124998256Y-126566577D01*
X124906333Y-126600398D01*
X124900917Y-126603756D01*
X124900913Y-126603758D01*
X124738298Y-126704583D01*
X124738294Y-126704586D01*
X124732875Y-126707946D01*
X124728237Y-126712332D01*
X124645888Y-126790206D01*
X124584586Y-126848176D01*
X124580924Y-126853406D01*
X124580923Y-126853407D01*
X124473599Y-127006682D01*
X124467523Y-127015359D01*
X124451538Y-127052299D01*
X124404774Y-127160365D01*
X124386468Y-127202667D01*
X124385163Y-127208914D01*
X124385162Y-127208917D01*
X124346038Y-127396193D01*
X124346037Y-127396198D01*
X124344732Y-127402447D01*
X124344649Y-127426276D01*
X124344159Y-127566560D01*
X124344019Y-127606539D01*
X123808835Y-127606539D01*
X123814323Y-127556029D01*
X123818420Y-127518321D01*
X123818420Y-127518314D01*
X123818775Y-127515050D01*
X123818800Y-127508000D01*
X123798175Y-127304952D01*
X123737143Y-127110197D01*
X123638196Y-126931693D01*
X123505378Y-126776731D01*
X123344112Y-126651641D01*
X123160988Y-126561533D01*
X123154810Y-126559924D01*
X123154808Y-126559923D01*
X122969667Y-126511697D01*
X122969664Y-126511697D01*
X122963485Y-126510087D01*
X122875902Y-126505497D01*
X122766053Y-126499740D01*
X122766049Y-126499740D01*
X122759672Y-126499406D01*
X122596903Y-126524022D01*
X122564187Y-126528970D01*
X122564186Y-126528970D01*
X122557873Y-126529925D01*
X122551887Y-126532128D01*
X122551881Y-126532129D01*
X122458256Y-126566577D01*
X122366333Y-126600398D01*
X122360917Y-126603756D01*
X122360913Y-126603758D01*
X122198298Y-126704583D01*
X122198294Y-126704586D01*
X122192875Y-126707946D01*
X122188237Y-126712332D01*
X122105888Y-126790206D01*
X122044586Y-126848176D01*
X122040924Y-126853406D01*
X122040923Y-126853407D01*
X121933599Y-127006682D01*
X121927523Y-127015359D01*
X121911538Y-127052299D01*
X121864774Y-127160365D01*
X121846468Y-127202667D01*
X121845163Y-127208914D01*
X121845162Y-127208917D01*
X121806038Y-127396193D01*
X121806037Y-127396198D01*
X121804732Y-127402447D01*
X121804649Y-127426276D01*
X121804159Y-127566560D01*
X121804019Y-127606539D01*
X116343587Y-127606539D01*
X116267646Y-127423206D01*
X116262348Y-127407598D01*
X116196103Y-127160365D01*
X116192888Y-127144200D01*
X116159131Y-126887789D01*
X116158069Y-126873364D01*
X116156838Y-126796599D01*
X116155622Y-126720798D01*
X116153939Y-126713931D01*
X116153035Y-126706915D01*
X116153432Y-126706864D01*
X116151000Y-126686723D01*
X116151000Y-120396000D01*
X116996500Y-120396000D01*
X116997578Y-120404188D01*
X117015159Y-120537725D01*
X117017132Y-120552715D01*
X117077622Y-120698750D01*
X117131852Y-120769424D01*
X117168203Y-120816797D01*
X117173847Y-120824153D01*
X117180393Y-120829176D01*
X117208708Y-120850903D01*
X117299250Y-120920378D01*
X117445285Y-120980868D01*
X117602000Y-121001500D01*
X117610188Y-121000422D01*
X117750527Y-120981946D01*
X117758715Y-120980868D01*
X117904750Y-120920378D01*
X117991536Y-120853785D01*
X118023602Y-120829180D01*
X118023603Y-120829179D01*
X118030153Y-120824153D01*
X118035179Y-120817603D01*
X118035182Y-120817600D01*
X118076315Y-120763994D01*
X118133653Y-120722127D01*
X118176277Y-120714698D01*
X134625552Y-120714698D01*
X134693673Y-120734700D01*
X134725515Y-120763994D01*
X134766457Y-120817351D01*
X134773003Y-120822374D01*
X134777799Y-120826054D01*
X134891860Y-120913576D01*
X135037895Y-120974066D01*
X135046083Y-120975144D01*
X135074035Y-120978824D01*
X135194610Y-120994698D01*
X135202798Y-120993620D01*
X135217861Y-120991637D01*
X135315185Y-120978824D01*
X135343137Y-120975144D01*
X135351325Y-120974066D01*
X135497360Y-120913576D01*
X135611421Y-120826054D01*
X135616217Y-120822374D01*
X135622763Y-120817351D01*
X135718988Y-120691948D01*
X135779478Y-120545913D01*
X135800110Y-120389198D01*
X135789699Y-120310120D01*
X135780556Y-120240671D01*
X135779478Y-120232483D01*
X135718988Y-120086448D01*
X135622763Y-119961045D01*
X135616217Y-119956022D01*
X135616213Y-119956018D01*
X135554701Y-119908818D01*
X135512834Y-119851480D01*
X135508612Y-119780609D01*
X135543376Y-119718706D01*
X135583187Y-119692447D01*
X135583933Y-119692138D01*
X135684750Y-119650378D01*
X135810153Y-119554153D01*
X135906378Y-119428750D01*
X135966868Y-119282715D01*
X135987500Y-119126000D01*
X135966868Y-118969285D01*
X135906378Y-118823250D01*
X135810153Y-118697847D01*
X135684750Y-118601622D01*
X135538715Y-118541132D01*
X135382000Y-118520500D01*
X135225285Y-118541132D01*
X135079250Y-118601622D01*
X134953847Y-118697847D01*
X134948824Y-118704393D01*
X134912905Y-118751204D01*
X134855567Y-118793071D01*
X134812942Y-118800500D01*
X120203058Y-118800500D01*
X120134937Y-118780498D01*
X120103095Y-118751204D01*
X120067176Y-118704393D01*
X120062153Y-118697847D01*
X119936750Y-118601622D01*
X119790715Y-118541132D01*
X119634000Y-118520500D01*
X119477285Y-118541132D01*
X119331250Y-118601622D01*
X119205847Y-118697847D01*
X119109622Y-118823250D01*
X119049132Y-118969285D01*
X119028500Y-119126000D01*
X119049132Y-119282715D01*
X119109622Y-119428750D01*
X119205847Y-119554153D01*
X119331250Y-119650378D01*
X119477285Y-119710868D01*
X119634000Y-119731500D01*
X119642188Y-119730422D01*
X119782527Y-119711946D01*
X119790715Y-119710868D01*
X119936750Y-119650378D01*
X120062153Y-119554153D01*
X120103095Y-119500796D01*
X120160433Y-119458929D01*
X120203058Y-119451500D01*
X134812942Y-119451500D01*
X134881063Y-119471502D01*
X134912905Y-119500796D01*
X134953847Y-119554153D01*
X134960393Y-119559176D01*
X134960397Y-119559180D01*
X135021909Y-119606380D01*
X135063776Y-119663718D01*
X135067998Y-119734589D01*
X135033234Y-119796492D01*
X134993423Y-119822751D01*
X134891860Y-119864820D01*
X134766457Y-119961045D01*
X134761434Y-119967591D01*
X134725515Y-120014402D01*
X134668177Y-120056269D01*
X134625552Y-120063698D01*
X118165839Y-120063698D01*
X118097718Y-120043696D01*
X118065877Y-120014402D01*
X118035180Y-119974397D01*
X118035176Y-119974393D01*
X118030153Y-119967847D01*
X118021289Y-119961045D01*
X117911301Y-119876649D01*
X117904750Y-119871622D01*
X117758715Y-119811132D01*
X117602000Y-119790500D01*
X117445285Y-119811132D01*
X117299250Y-119871622D01*
X117292699Y-119876649D01*
X117182712Y-119961045D01*
X117173847Y-119967847D01*
X117077622Y-120093250D01*
X117017132Y-120239285D01*
X116996500Y-120396000D01*
X116151000Y-120396000D01*
X116151000Y-105616751D01*
X122020619Y-105616751D01*
X122020843Y-105621418D01*
X122020843Y-105621423D01*
X122023774Y-105682433D01*
X122033454Y-105883974D01*
X122045048Y-105942260D01*
X122084616Y-106141181D01*
X122085647Y-106146365D01*
X122087226Y-106150763D01*
X122087228Y-106150770D01*
X122138468Y-106293485D01*
X122176050Y-106398160D01*
X122302678Y-106633826D01*
X122305473Y-106637570D01*
X122305475Y-106637572D01*
X122459957Y-106844449D01*
X122459962Y-106844455D01*
X122462749Y-106848187D01*
X122466058Y-106851467D01*
X122466063Y-106851473D01*
X122649429Y-107033245D01*
X122652746Y-107036533D01*
X122656508Y-107039291D01*
X122656511Y-107039294D01*
X122863832Y-107191307D01*
X122868496Y-107194727D01*
X122872627Y-107196901D01*
X122872628Y-107196901D01*
X123101123Y-107317118D01*
X123101129Y-107317120D01*
X123105258Y-107319293D01*
X123109665Y-107320832D01*
X123109672Y-107320835D01*
X123347901Y-107404028D01*
X123357832Y-107407496D01*
X123362425Y-107408368D01*
X123616079Y-107456526D01*
X123616082Y-107456526D01*
X123620668Y-107457397D01*
X123747695Y-107462388D01*
X123883326Y-107467717D01*
X123883331Y-107467717D01*
X123887994Y-107467900D01*
X123983897Y-107457397D01*
X124149282Y-107439285D01*
X124149288Y-107439284D01*
X124153935Y-107438775D01*
X124158459Y-107437584D01*
X124408128Y-107371852D01*
X124408130Y-107371851D01*
X124412651Y-107370661D01*
X124500712Y-107332827D01*
X124608450Y-107286539D01*
X131964019Y-107286539D01*
X132004360Y-107486606D01*
X132006854Y-107492481D01*
X132065705Y-107631124D01*
X132084106Y-107674475D01*
X132199999Y-107842471D01*
X132347305Y-107983733D01*
X132352701Y-107987131D01*
X132514604Y-108089088D01*
X132514608Y-108089090D01*
X132520007Y-108092490D01*
X132525976Y-108094734D01*
X132525981Y-108094736D01*
X132641700Y-108138231D01*
X132711051Y-108164298D01*
X132717349Y-108165296D01*
X132717351Y-108165296D01*
X132772724Y-108174066D01*
X132912631Y-108196225D01*
X133116515Y-108186967D01*
X133122697Y-108185403D01*
X133122702Y-108185402D01*
X133308176Y-108138470D01*
X133308178Y-108138469D01*
X133314372Y-108136902D01*
X133320125Y-108134121D01*
X133492373Y-108050853D01*
X133492375Y-108050852D01*
X133498121Y-108048074D01*
X133503190Y-108044198D01*
X133503194Y-108044196D01*
X133576641Y-107988041D01*
X133583973Y-107982436D01*
X133650237Y-107956951D01*
X133719760Y-107971337D01*
X133770470Y-108021027D01*
X133786501Y-108082532D01*
X133786501Y-114280516D01*
X133786022Y-114291498D01*
X133782758Y-114328805D01*
X133785611Y-114339454D01*
X133786572Y-114350434D01*
X133782930Y-114350753D01*
X133782939Y-114392923D01*
X133781132Y-114397285D01*
X133760500Y-114554000D01*
X133781132Y-114710715D01*
X133841622Y-114856750D01*
X133846649Y-114863301D01*
X133918184Y-114956527D01*
X133937847Y-114982153D01*
X134063250Y-115078378D01*
X134209285Y-115138868D01*
X134366000Y-115159500D01*
X134374188Y-115158422D01*
X134514527Y-115139946D01*
X134522715Y-115138868D01*
X134668750Y-115078378D01*
X134794153Y-114982153D01*
X134813817Y-114956527D01*
X134885351Y-114863301D01*
X134890378Y-114856750D01*
X134950868Y-114710715D01*
X134971500Y-114554000D01*
X134950868Y-114397285D01*
X134947100Y-114388187D01*
X134931594Y-114350753D01*
X134890378Y-114251250D01*
X134794153Y-114125847D01*
X134668750Y-114029622D01*
X134522715Y-113969132D01*
X134523269Y-113967794D01*
X134470263Y-113935482D01*
X134437500Y-113850731D01*
X134437500Y-107808513D01*
X134457502Y-107740392D01*
X134511158Y-107693899D01*
X134581432Y-107683795D01*
X134667214Y-107736963D01*
X134739999Y-107842471D01*
X134887305Y-107983733D01*
X134892701Y-107987131D01*
X135054604Y-108089088D01*
X135054608Y-108089090D01*
X135060007Y-108092490D01*
X135065976Y-108094734D01*
X135065981Y-108094736D01*
X135181700Y-108138231D01*
X135251051Y-108164298D01*
X135257349Y-108165296D01*
X135257351Y-108165296D01*
X135312724Y-108174066D01*
X135452631Y-108196225D01*
X135656515Y-108186967D01*
X135662697Y-108185403D01*
X135662702Y-108185402D01*
X135848176Y-108138470D01*
X135848178Y-108138469D01*
X135854372Y-108136902D01*
X135860125Y-108134121D01*
X136032373Y-108050853D01*
X136032375Y-108050852D01*
X136038121Y-108048074D01*
X136043190Y-108044198D01*
X136043194Y-108044196D01*
X136116641Y-107988041D01*
X136128373Y-107979072D01*
X136194637Y-107953587D01*
X136264160Y-107967973D01*
X136314870Y-108017663D01*
X136330901Y-108079168D01*
X136330901Y-110309774D01*
X136330028Y-110324583D01*
X136326116Y-110357636D01*
X136327808Y-110366901D01*
X136327808Y-110366902D01*
X136336140Y-110412525D01*
X136336790Y-110416428D01*
X136345091Y-110471643D01*
X136348069Y-110477844D01*
X136349305Y-110484613D01*
X136353647Y-110492971D01*
X136353648Y-110492975D01*
X136375043Y-110534161D01*
X136376812Y-110537702D01*
X136394281Y-110574080D01*
X136400965Y-110588000D01*
X136405634Y-110593051D01*
X136408807Y-110599159D01*
X136411655Y-110602493D01*
X136445697Y-110636535D01*
X136449126Y-110640101D01*
X136488583Y-110682786D01*
X136495030Y-110686531D01*
X136501387Y-110692225D01*
X136524459Y-110715297D01*
X136560286Y-110787945D01*
X136575132Y-110900715D01*
X136635622Y-111046750D01*
X136731847Y-111172153D01*
X136738393Y-111177176D01*
X136744324Y-111181727D01*
X136857250Y-111268378D01*
X137003285Y-111328868D01*
X137160000Y-111349500D01*
X137168188Y-111348422D01*
X137308527Y-111329946D01*
X137316715Y-111328868D01*
X137462750Y-111268378D01*
X137575676Y-111181727D01*
X137581607Y-111177176D01*
X137588153Y-111172153D01*
X137684378Y-111046750D01*
X137744868Y-110900715D01*
X137765500Y-110744000D01*
X137744868Y-110587285D01*
X137684378Y-110441250D01*
X137588153Y-110315847D01*
X137462750Y-110219622D01*
X137316715Y-110159132D01*
X137298653Y-110156754D01*
X137233726Y-110128031D01*
X137194635Y-110068765D01*
X137189101Y-110031832D01*
X137189101Y-108050707D01*
X137209103Y-107982586D01*
X137262759Y-107936093D01*
X137333033Y-107925989D01*
X137402310Y-107959765D01*
X137422697Y-107979315D01*
X137422702Y-107979319D01*
X137427305Y-107983733D01*
X137432701Y-107987131D01*
X137594604Y-108089088D01*
X137594608Y-108089090D01*
X137600007Y-108092490D01*
X137605976Y-108094734D01*
X137605981Y-108094736D01*
X137721700Y-108138231D01*
X137791051Y-108164298D01*
X137797349Y-108165296D01*
X137797351Y-108165296D01*
X137852724Y-108174066D01*
X137992631Y-108196225D01*
X138196515Y-108186967D01*
X138202697Y-108185403D01*
X138202702Y-108185402D01*
X138388176Y-108138470D01*
X138388178Y-108138469D01*
X138394372Y-108136902D01*
X138400125Y-108134121D01*
X138572373Y-108050853D01*
X138572375Y-108050852D01*
X138578121Y-108048074D01*
X138583190Y-108044198D01*
X138583194Y-108044196D01*
X138722975Y-107937325D01*
X138740256Y-107924113D01*
X138874153Y-107770081D01*
X138897927Y-107727889D01*
X138948794Y-107678360D01*
X139018363Y-107664195D01*
X139084547Y-107689890D01*
X139126332Y-107747288D01*
X139133700Y-107789741D01*
X139133699Y-109440412D01*
X139133699Y-110991726D01*
X139133220Y-111002708D01*
X139129957Y-111040004D01*
X139132810Y-111050651D01*
X139132810Y-111050653D01*
X139139708Y-111076395D01*
X139142086Y-111087122D01*
X139148631Y-111124236D01*
X139154141Y-111133780D01*
X139155332Y-111137052D01*
X139156812Y-111140225D01*
X139159665Y-111150873D01*
X139181279Y-111181742D01*
X139187170Y-111190988D01*
X139206021Y-111223639D01*
X139234710Y-111247712D01*
X139242803Y-111255128D01*
X139575453Y-111587779D01*
X139609478Y-111650091D01*
X139611279Y-111693318D01*
X139602500Y-111760000D01*
X139623132Y-111916715D01*
X139683622Y-112062750D01*
X139779847Y-112188153D01*
X139905250Y-112284378D01*
X140051285Y-112344868D01*
X140208000Y-112365500D01*
X140216188Y-112364422D01*
X140356527Y-112345946D01*
X140364715Y-112344868D01*
X140510750Y-112284378D01*
X140636153Y-112188153D01*
X140732378Y-112062750D01*
X140792868Y-111916715D01*
X140813500Y-111760000D01*
X140792868Y-111603285D01*
X140732378Y-111457250D01*
X140648871Y-111348422D01*
X140641176Y-111338393D01*
X140636153Y-111331847D01*
X140628153Y-111325708D01*
X140585358Y-111292871D01*
X140510750Y-111235622D01*
X140364715Y-111175132D01*
X140208000Y-111154500D01*
X140141318Y-111163279D01*
X140071171Y-111152340D01*
X140035778Y-111127452D01*
X139821604Y-110913278D01*
X139784699Y-110824183D01*
X139784699Y-108096989D01*
X139804701Y-108028868D01*
X139858357Y-107982375D01*
X139928631Y-107972271D01*
X139977842Y-107990369D01*
X140134604Y-108089088D01*
X140134608Y-108089090D01*
X140140007Y-108092490D01*
X140145976Y-108094734D01*
X140145981Y-108094736D01*
X140261700Y-108138231D01*
X140331051Y-108164298D01*
X140337349Y-108165296D01*
X140337351Y-108165296D01*
X140392724Y-108174066D01*
X140532631Y-108196225D01*
X140736515Y-108186967D01*
X140742697Y-108185403D01*
X140742702Y-108185402D01*
X140928176Y-108138470D01*
X140928178Y-108138469D01*
X140934372Y-108136902D01*
X140950294Y-108129205D01*
X141020330Y-108117567D01*
X141094225Y-108153552D01*
X141115596Y-108174923D01*
X141152501Y-108264018D01*
X141152500Y-115254942D01*
X141132498Y-115323063D01*
X141103204Y-115354905D01*
X141057848Y-115389708D01*
X141049847Y-115395847D01*
X140953622Y-115521250D01*
X140893132Y-115667285D01*
X140872500Y-115824000D01*
X140893132Y-115980715D01*
X140896292Y-115988344D01*
X140901737Y-116001489D01*
X140953622Y-116126750D01*
X141049847Y-116252153D01*
X141175250Y-116348378D01*
X141321285Y-116408868D01*
X141478000Y-116429500D01*
X141486188Y-116428422D01*
X141626527Y-116409946D01*
X141634715Y-116408868D01*
X141780750Y-116348378D01*
X141906153Y-116252153D01*
X142002378Y-116126750D01*
X142054263Y-116001489D01*
X142059708Y-115988344D01*
X142062868Y-115980715D01*
X142083500Y-115824000D01*
X142062868Y-115667285D01*
X142002378Y-115521250D01*
X141906153Y-115395847D01*
X141898153Y-115389708D01*
X141852796Y-115354905D01*
X141810929Y-115297567D01*
X141803500Y-115254942D01*
X141803500Y-112163549D01*
X141823502Y-112095428D01*
X141877158Y-112048935D01*
X141977717Y-112047140D01*
X142083285Y-112090868D01*
X142091473Y-112091946D01*
X142134822Y-112097653D01*
X142240000Y-112111500D01*
X142248188Y-112110422D01*
X142388527Y-112091946D01*
X142396715Y-112090868D01*
X142542750Y-112030378D01*
X142570529Y-112009063D01*
X142598797Y-111987372D01*
X142665018Y-111961772D01*
X142734567Y-111976037D01*
X142785362Y-112025638D01*
X142801501Y-112087335D01*
X142801501Y-114099517D01*
X142781499Y-114167638D01*
X142727843Y-114214131D01*
X142691948Y-114224439D01*
X142656101Y-114229158D01*
X142510066Y-114289648D01*
X142384663Y-114385873D01*
X142288438Y-114511276D01*
X142227948Y-114657311D01*
X142207316Y-114814026D01*
X142227948Y-114970741D01*
X142288438Y-115116776D01*
X142384663Y-115242179D01*
X142510066Y-115338404D01*
X142632314Y-115389041D01*
X142644156Y-115393946D01*
X142656101Y-115398894D01*
X142812816Y-115419526D01*
X142821004Y-115418448D01*
X142961343Y-115399972D01*
X142969531Y-115398894D01*
X142981477Y-115393946D01*
X142993318Y-115389041D01*
X143115566Y-115338404D01*
X143122114Y-115333380D01*
X143122122Y-115333375D01*
X143149913Y-115312050D01*
X143216134Y-115286450D01*
X143285682Y-115300715D01*
X143326578Y-115335308D01*
X143372837Y-115395594D01*
X143498240Y-115491819D01*
X143644275Y-115552309D01*
X143800990Y-115572941D01*
X143809178Y-115571863D01*
X143949517Y-115553387D01*
X143957705Y-115552309D01*
X144103740Y-115491819D01*
X144199359Y-115418448D01*
X144222592Y-115400621D01*
X144222593Y-115400620D01*
X144229143Y-115395594D01*
X144267227Y-115345962D01*
X144324564Y-115304095D01*
X144378173Y-115297146D01*
X144384675Y-115297715D01*
X144384678Y-115297715D01*
X144395654Y-115298675D01*
X144406296Y-115295823D01*
X144406301Y-115295823D01*
X144432293Y-115288858D01*
X144443024Y-115286479D01*
X144451817Y-115284928D01*
X144469538Y-115281804D01*
X144469540Y-115281803D01*
X144480397Y-115279889D01*
X144489944Y-115274377D01*
X144493295Y-115273157D01*
X144496546Y-115271641D01*
X144507195Y-115268788D01*
X144516224Y-115262466D01*
X144516228Y-115262464D01*
X144538266Y-115247033D01*
X144547535Y-115241127D01*
X144570857Y-115227662D01*
X144580402Y-115222151D01*
X144604421Y-115193526D01*
X144611848Y-115185422D01*
X148426987Y-111370284D01*
X148435091Y-111362857D01*
X148455265Y-111345929D01*
X148463710Y-111338843D01*
X148482686Y-111305975D01*
X148488581Y-111296723D01*
X148510347Y-111265637D01*
X148513200Y-111254989D01*
X148514712Y-111251747D01*
X148515935Y-111248386D01*
X148521448Y-111238838D01*
X148525811Y-111214093D01*
X148528039Y-111201461D01*
X148530418Y-111190733D01*
X148537380Y-111164747D01*
X148540234Y-111154096D01*
X148536980Y-111116905D01*
X148536500Y-111105923D01*
X148536500Y-110016123D01*
X148556502Y-109948002D01*
X148585796Y-109916161D01*
X148630600Y-109881782D01*
X148630603Y-109881779D01*
X148637153Y-109876753D01*
X148649496Y-109860668D01*
X148728351Y-109757901D01*
X148733378Y-109751350D01*
X148793868Y-109605315D01*
X148814500Y-109448600D01*
X148793868Y-109291885D01*
X148733378Y-109145850D01*
X148637153Y-109020447D01*
X148630603Y-109015421D01*
X148630600Y-109015418D01*
X148585796Y-108981039D01*
X148543929Y-108923701D01*
X148536500Y-108881077D01*
X148536500Y-108224581D01*
X148556502Y-108156460D01*
X148607661Y-108111141D01*
X148732373Y-108050853D01*
X148732375Y-108050852D01*
X148738121Y-108048074D01*
X148743190Y-108044198D01*
X148743194Y-108044196D01*
X148882975Y-107937325D01*
X148900256Y-107924113D01*
X148932407Y-107887128D01*
X148992193Y-107848839D01*
X149063189Y-107848951D01*
X149122855Y-107887429D01*
X149153500Y-107969791D01*
X149153500Y-112207984D01*
X149116595Y-112297079D01*
X143039615Y-118374060D01*
X143031511Y-118381487D01*
X143002823Y-118405559D01*
X142997312Y-118415104D01*
X142997309Y-118415108D01*
X142983980Y-118438195D01*
X142978075Y-118447465D01*
X142956466Y-118478326D01*
X142953613Y-118488974D01*
X142952143Y-118492126D01*
X142950947Y-118495411D01*
X142945433Y-118504962D01*
X142943519Y-118515818D01*
X142943518Y-118515820D01*
X142938891Y-118542064D01*
X142936511Y-118552798D01*
X142926758Y-118589195D01*
X142929373Y-118619079D01*
X142930022Y-118626502D01*
X142930501Y-118637484D01*
X142930500Y-119445942D01*
X142910498Y-119514063D01*
X142881206Y-119545903D01*
X142827847Y-119586847D01*
X142731622Y-119712250D01*
X142671132Y-119858285D01*
X142650500Y-120015000D01*
X142671132Y-120171715D01*
X142731622Y-120317750D01*
X142827847Y-120443153D01*
X142953250Y-120539378D01*
X143099285Y-120599868D01*
X143256000Y-120620500D01*
X143264188Y-120619422D01*
X143404527Y-120600946D01*
X143412715Y-120599868D01*
X143558750Y-120539378D01*
X143684153Y-120443153D01*
X143780378Y-120317750D01*
X143840868Y-120171715D01*
X143861500Y-120015000D01*
X143840868Y-119858285D01*
X143780378Y-119712250D01*
X143684153Y-119586847D01*
X143630795Y-119545904D01*
X143588929Y-119488567D01*
X143581500Y-119445942D01*
X143581500Y-118805015D01*
X143618405Y-118715920D01*
X149695393Y-112638933D01*
X149703498Y-112631506D01*
X149732178Y-112607441D01*
X149734485Y-112610190D01*
X149777498Y-112581578D01*
X149848486Y-112580456D01*
X149908811Y-112617892D01*
X149940901Y-112701897D01*
X149940900Y-114516537D01*
X149940900Y-116326754D01*
X149920898Y-116394875D01*
X149867242Y-116441368D01*
X149796968Y-116451471D01*
X149722250Y-116407738D01*
X149720740Y-116409248D01*
X149714966Y-116403474D01*
X149714937Y-116403457D01*
X149714897Y-116403405D01*
X149714895Y-116403403D01*
X149709872Y-116396857D01*
X149584469Y-116300632D01*
X149438434Y-116240142D01*
X149281719Y-116219510D01*
X149125004Y-116240142D01*
X148978969Y-116300632D01*
X148853566Y-116396857D01*
X148848543Y-116403403D01*
X148848502Y-116403457D01*
X148757341Y-116522260D01*
X148696851Y-116668295D01*
X148676219Y-116825010D01*
X148684998Y-116891691D01*
X148674059Y-116961838D01*
X148649172Y-116997231D01*
X147992609Y-117653795D01*
X147984505Y-117661221D01*
X147955823Y-117685288D01*
X147950312Y-117694833D01*
X147950309Y-117694837D01*
X147936980Y-117717924D01*
X147931075Y-117727194D01*
X147909466Y-117758055D01*
X147906613Y-117768703D01*
X147905143Y-117771855D01*
X147903947Y-117775140D01*
X147898433Y-117784691D01*
X147896519Y-117795547D01*
X147896518Y-117795549D01*
X147891891Y-117821793D01*
X147889511Y-117832527D01*
X147879758Y-117868924D01*
X147880719Y-117879903D01*
X147883022Y-117906231D01*
X147883501Y-117917213D01*
X147883500Y-126469390D01*
X147863498Y-126537511D01*
X147801008Y-126587640D01*
X147766333Y-126600398D01*
X147760917Y-126603756D01*
X147760913Y-126603758D01*
X147598298Y-126704583D01*
X147598294Y-126704586D01*
X147592875Y-126707946D01*
X147588237Y-126712332D01*
X147505888Y-126790206D01*
X147444586Y-126848176D01*
X147440924Y-126853406D01*
X147440923Y-126853407D01*
X147333599Y-127006682D01*
X147327523Y-127015359D01*
X147311538Y-127052299D01*
X147264774Y-127160365D01*
X147246468Y-127202667D01*
X147245163Y-127208914D01*
X147245162Y-127208917D01*
X147206038Y-127396193D01*
X147206037Y-127396198D01*
X147204732Y-127402447D01*
X147204649Y-127426276D01*
X147204159Y-127566560D01*
X147204019Y-127606539D01*
X147244360Y-127806606D01*
X147275523Y-127880021D01*
X147286632Y-127906191D01*
X147324106Y-127994475D01*
X147439999Y-128162471D01*
X147587305Y-128303733D01*
X147592701Y-128307131D01*
X147754604Y-128409088D01*
X147754608Y-128409090D01*
X147760007Y-128412490D01*
X147765976Y-128414734D01*
X147765981Y-128414736D01*
X147878164Y-128456902D01*
X147951051Y-128484298D01*
X147957349Y-128485296D01*
X147957351Y-128485296D01*
X148040502Y-128498466D01*
X148152631Y-128516225D01*
X148356515Y-128506967D01*
X148362697Y-128505403D01*
X148362702Y-128505402D01*
X148548176Y-128458470D01*
X148548178Y-128458469D01*
X148554372Y-128456902D01*
X148560125Y-128454121D01*
X148732373Y-128370853D01*
X148732375Y-128370852D01*
X148738121Y-128368074D01*
X148743190Y-128364198D01*
X148743194Y-128364196D01*
X148895182Y-128247992D01*
X148900256Y-128244113D01*
X149034153Y-128090081D01*
X149134343Y-127912272D01*
X149196733Y-127717949D01*
X149214323Y-127556029D01*
X149218420Y-127518321D01*
X149218420Y-127518314D01*
X149218775Y-127515050D01*
X149218800Y-127508000D01*
X149198175Y-127304952D01*
X149137143Y-127110197D01*
X149038196Y-126931693D01*
X148905378Y-126776731D01*
X148744112Y-126651641D01*
X148738391Y-126648826D01*
X148738388Y-126648824D01*
X148604871Y-126583126D01*
X148552580Y-126535103D01*
X148534500Y-126470071D01*
X148534500Y-118084745D01*
X148571405Y-117995649D01*
X149109498Y-117457557D01*
X149171810Y-117423532D01*
X149215037Y-117421731D01*
X149281719Y-117430510D01*
X149289907Y-117429432D01*
X149430246Y-117410956D01*
X149438434Y-117409878D01*
X149584469Y-117349388D01*
X149709872Y-117253163D01*
X149714895Y-117246617D01*
X149714897Y-117246615D01*
X149714937Y-117246563D01*
X149714981Y-117246531D01*
X149720740Y-117240772D01*
X149721638Y-117241670D01*
X149772274Y-117204695D01*
X149843145Y-117200473D01*
X149905048Y-117235236D01*
X149940900Y-117323266D01*
X149940900Y-120564582D01*
X149903996Y-120653677D01*
X149778222Y-120779452D01*
X149715910Y-120813477D01*
X149672682Y-120815279D01*
X149606000Y-120806500D01*
X149553005Y-120813477D01*
X149487416Y-120822112D01*
X149449285Y-120827132D01*
X149303250Y-120887622D01*
X149269426Y-120913576D01*
X149185848Y-120977708D01*
X149177847Y-120983847D01*
X149172824Y-120990393D01*
X149170348Y-120993620D01*
X149081622Y-121109250D01*
X149021132Y-121255285D01*
X149000500Y-121412000D01*
X149021132Y-121568715D01*
X149081622Y-121714750D01*
X149177847Y-121840153D01*
X149303250Y-121936378D01*
X149449285Y-121996868D01*
X149606000Y-122017500D01*
X149614188Y-122016422D01*
X149754527Y-121997946D01*
X149762715Y-121996868D01*
X149908750Y-121936378D01*
X150034153Y-121840153D01*
X150130378Y-121714750D01*
X150190868Y-121568715D01*
X150211500Y-121412000D01*
X150202721Y-121345319D01*
X150213660Y-121275172D01*
X150238548Y-121239778D01*
X150482799Y-120995528D01*
X150490903Y-120988102D01*
X150511132Y-120971128D01*
X150519578Y-120964041D01*
X150538419Y-120931406D01*
X150544323Y-120922140D01*
X150559611Y-120900307D01*
X150559614Y-120900301D01*
X150565934Y-120891275D01*
X150568787Y-120880630D01*
X150570265Y-120877459D01*
X150571458Y-120874182D01*
X150576968Y-120864638D01*
X150583513Y-120827524D01*
X150585891Y-120816797D01*
X150592789Y-120791055D01*
X150592789Y-120791053D01*
X150595642Y-120780406D01*
X150592379Y-120743110D01*
X150591900Y-120732128D01*
X150591900Y-117711542D01*
X150611902Y-117643421D01*
X150665558Y-117596928D01*
X150735832Y-117586824D01*
X150817863Y-117634839D01*
X150823822Y-117642605D01*
X150823824Y-117642607D01*
X150828847Y-117649153D01*
X150835393Y-117654176D01*
X150882205Y-117690096D01*
X150924072Y-117747434D01*
X150931501Y-117790059D01*
X150931500Y-126378779D01*
X150911498Y-126446900D01*
X150857842Y-126493393D01*
X150798906Y-126504606D01*
X150706054Y-126499740D01*
X150706050Y-126499740D01*
X150699672Y-126499406D01*
X150536903Y-126524022D01*
X150504187Y-126528970D01*
X150504186Y-126528970D01*
X150497873Y-126529925D01*
X150491887Y-126532128D01*
X150491881Y-126532129D01*
X150398256Y-126566577D01*
X150306333Y-126600398D01*
X150300917Y-126603756D01*
X150300913Y-126603758D01*
X150138298Y-126704583D01*
X150138294Y-126704586D01*
X150132875Y-126707946D01*
X150128237Y-126712332D01*
X150045888Y-126790206D01*
X149984586Y-126848176D01*
X149980924Y-126853406D01*
X149980923Y-126853407D01*
X149873599Y-127006682D01*
X149867523Y-127015359D01*
X149851538Y-127052299D01*
X149804774Y-127160365D01*
X149786468Y-127202667D01*
X149785163Y-127208914D01*
X149785162Y-127208917D01*
X149746038Y-127396193D01*
X149746037Y-127396198D01*
X149744732Y-127402447D01*
X149744649Y-127426276D01*
X149744159Y-127566560D01*
X149744019Y-127606539D01*
X149784360Y-127806606D01*
X149815523Y-127880021D01*
X149826632Y-127906191D01*
X149864106Y-127994475D01*
X149979999Y-128162471D01*
X150127305Y-128303733D01*
X150132701Y-128307131D01*
X150294604Y-128409088D01*
X150294608Y-128409090D01*
X150300007Y-128412490D01*
X150305976Y-128414734D01*
X150305981Y-128414736D01*
X150418164Y-128456902D01*
X150491051Y-128484298D01*
X150497349Y-128485296D01*
X150497351Y-128485296D01*
X150580502Y-128498466D01*
X150692631Y-128516225D01*
X150896515Y-128506967D01*
X150902697Y-128505403D01*
X150902702Y-128505402D01*
X151088176Y-128458470D01*
X151088178Y-128458469D01*
X151094372Y-128456902D01*
X151100125Y-128454121D01*
X151272373Y-128370853D01*
X151272375Y-128370852D01*
X151278121Y-128368074D01*
X151283190Y-128364198D01*
X151283194Y-128364196D01*
X151435182Y-128247992D01*
X151440256Y-128244113D01*
X151574153Y-128090081D01*
X151674343Y-127912272D01*
X151736733Y-127717949D01*
X151754323Y-127556029D01*
X151758420Y-127518321D01*
X151758420Y-127518314D01*
X151758775Y-127515050D01*
X151758800Y-127508000D01*
X151738175Y-127304952D01*
X151677143Y-127110197D01*
X151598298Y-126967958D01*
X151582500Y-126906872D01*
X151582500Y-124150801D01*
X151602502Y-124082680D01*
X151656158Y-124036187D01*
X151726432Y-124026083D01*
X151785205Y-124050838D01*
X151843250Y-124095378D01*
X151989285Y-124155868D01*
X152146000Y-124176500D01*
X152154188Y-124175422D01*
X152294527Y-124156946D01*
X152302715Y-124155868D01*
X152448750Y-124095378D01*
X152574153Y-123999153D01*
X152670378Y-123873750D01*
X152721092Y-123751317D01*
X152765639Y-123696037D01*
X152833003Y-123673616D01*
X152901794Y-123691174D01*
X152950172Y-123743136D01*
X152963500Y-123799536D01*
X152963500Y-126469390D01*
X152943498Y-126537511D01*
X152881008Y-126587640D01*
X152846333Y-126600398D01*
X152840917Y-126603756D01*
X152840913Y-126603758D01*
X152678298Y-126704583D01*
X152678294Y-126704586D01*
X152672875Y-126707946D01*
X152668237Y-126712332D01*
X152585888Y-126790206D01*
X152524586Y-126848176D01*
X152520924Y-126853406D01*
X152520923Y-126853407D01*
X152413599Y-127006682D01*
X152407523Y-127015359D01*
X152391538Y-127052299D01*
X152344774Y-127160365D01*
X152326468Y-127202667D01*
X152325163Y-127208914D01*
X152325162Y-127208917D01*
X152286038Y-127396193D01*
X152286037Y-127396198D01*
X152284732Y-127402447D01*
X152284649Y-127426276D01*
X152284159Y-127566560D01*
X152284019Y-127606539D01*
X152324360Y-127806606D01*
X152355523Y-127880021D01*
X152366632Y-127906191D01*
X152404106Y-127994475D01*
X152519999Y-128162471D01*
X152667305Y-128303733D01*
X152672701Y-128307131D01*
X152834604Y-128409088D01*
X152834608Y-128409090D01*
X152840007Y-128412490D01*
X152845976Y-128414734D01*
X152845981Y-128414736D01*
X152958164Y-128456902D01*
X153031051Y-128484298D01*
X153037349Y-128485296D01*
X153037351Y-128485296D01*
X153120502Y-128498466D01*
X153232631Y-128516225D01*
X153436515Y-128506967D01*
X153442697Y-128505403D01*
X153442702Y-128505402D01*
X153628176Y-128458470D01*
X153628178Y-128458469D01*
X153634372Y-128456902D01*
X153640125Y-128454121D01*
X153812373Y-128370853D01*
X153812375Y-128370852D01*
X153818121Y-128368074D01*
X153823190Y-128364198D01*
X153823194Y-128364196D01*
X153975182Y-128247992D01*
X153980256Y-128244113D01*
X154114153Y-128090081D01*
X154214343Y-127912272D01*
X154276733Y-127717949D01*
X154294323Y-127556029D01*
X154298420Y-127518321D01*
X154298420Y-127518314D01*
X154298775Y-127515050D01*
X154298800Y-127508000D01*
X154278175Y-127304952D01*
X154217143Y-127110197D01*
X154118196Y-126931693D01*
X153985378Y-126776731D01*
X153824112Y-126651641D01*
X153818391Y-126648826D01*
X153818388Y-126648824D01*
X153684871Y-126583126D01*
X153632580Y-126535103D01*
X153614500Y-126470071D01*
X153614500Y-116983750D01*
X153634502Y-116915629D01*
X153692283Y-116867341D01*
X153718750Y-116856378D01*
X153844153Y-116760153D01*
X153880538Y-116712735D01*
X153937876Y-116670868D01*
X154008747Y-116666646D01*
X154070650Y-116701410D01*
X154106501Y-116789439D01*
X154106501Y-117730920D01*
X154106022Y-117741902D01*
X154102758Y-117779209D01*
X154112511Y-117815606D01*
X154114891Y-117826340D01*
X154119352Y-117851639D01*
X154121433Y-117863442D01*
X154126947Y-117872993D01*
X154128143Y-117876278D01*
X154129613Y-117879430D01*
X154132466Y-117890078D01*
X154147610Y-117911706D01*
X154154075Y-117920939D01*
X154159980Y-117930209D01*
X154173309Y-117953296D01*
X154173312Y-117953300D01*
X154178823Y-117962845D01*
X154187268Y-117969931D01*
X154207504Y-117986911D01*
X154215608Y-117994338D01*
X154420038Y-118198768D01*
X154454064Y-118261080D01*
X154455865Y-118304308D01*
X154447086Y-118370990D01*
X154467718Y-118527705D01*
X154528208Y-118673740D01*
X154624433Y-118799143D01*
X154630979Y-118804166D01*
X154647312Y-118816699D01*
X154749836Y-118895368D01*
X154895871Y-118955858D01*
X155052586Y-118976490D01*
X155116768Y-118968040D01*
X155186915Y-118978979D01*
X155222308Y-119003867D01*
X155464596Y-119246155D01*
X155501501Y-119335250D01*
X155501500Y-126470126D01*
X155481498Y-126538247D01*
X155419010Y-126588375D01*
X155386333Y-126600398D01*
X155380913Y-126603758D01*
X155380912Y-126603759D01*
X155218298Y-126704583D01*
X155218294Y-126704586D01*
X155212875Y-126707946D01*
X155208237Y-126712332D01*
X155125888Y-126790206D01*
X155064586Y-126848176D01*
X155060924Y-126853406D01*
X155060923Y-126853407D01*
X154953599Y-127006682D01*
X154947523Y-127015359D01*
X154931538Y-127052299D01*
X154884774Y-127160365D01*
X154866468Y-127202667D01*
X154865163Y-127208914D01*
X154865162Y-127208917D01*
X154826038Y-127396193D01*
X154826037Y-127396198D01*
X154824732Y-127402447D01*
X154824649Y-127426276D01*
X154824159Y-127566560D01*
X154824019Y-127606539D01*
X154864360Y-127806606D01*
X154895523Y-127880021D01*
X154906632Y-127906191D01*
X154944106Y-127994475D01*
X155059999Y-128162471D01*
X155207305Y-128303733D01*
X155212701Y-128307131D01*
X155374604Y-128409088D01*
X155374608Y-128409090D01*
X155380007Y-128412490D01*
X155385976Y-128414734D01*
X155385981Y-128414736D01*
X155498164Y-128456902D01*
X155571051Y-128484298D01*
X155577349Y-128485296D01*
X155577351Y-128485296D01*
X155660502Y-128498466D01*
X155772631Y-128516225D01*
X155976515Y-128506967D01*
X155982697Y-128505403D01*
X155982702Y-128505402D01*
X156168176Y-128458470D01*
X156168178Y-128458469D01*
X156174372Y-128456902D01*
X156180125Y-128454121D01*
X156352373Y-128370853D01*
X156352375Y-128370852D01*
X156358121Y-128368074D01*
X156363190Y-128364198D01*
X156363194Y-128364196D01*
X156515182Y-128247992D01*
X156520256Y-128244113D01*
X156654153Y-128090081D01*
X156754343Y-127912272D01*
X156816733Y-127717949D01*
X156834323Y-127556029D01*
X156838420Y-127518321D01*
X156838420Y-127518314D01*
X156838775Y-127515050D01*
X156838800Y-127508000D01*
X156818175Y-127304952D01*
X156757143Y-127110197D01*
X156658196Y-126931693D01*
X156525378Y-126776731D01*
X156364112Y-126651641D01*
X156358391Y-126648826D01*
X156358388Y-126648824D01*
X156226871Y-126584110D01*
X156174580Y-126536087D01*
X156156500Y-126471055D01*
X156156500Y-119166597D01*
X156156980Y-119155615D01*
X156159273Y-119129406D01*
X156160234Y-119118424D01*
X156150418Y-119081787D01*
X156148039Y-119071059D01*
X156143362Y-119044537D01*
X156141448Y-119033682D01*
X156135935Y-119024134D01*
X156134712Y-119020773D01*
X156133200Y-119017531D01*
X156130347Y-119006883D01*
X156108581Y-118975797D01*
X156102684Y-118966541D01*
X156098867Y-118959930D01*
X156083710Y-118933677D01*
X156055091Y-118909663D01*
X156046987Y-118902236D01*
X155685463Y-118540712D01*
X155651437Y-118478400D01*
X155649636Y-118435170D01*
X155652278Y-118415108D01*
X155658086Y-118370990D01*
X155637454Y-118214275D01*
X155576964Y-118068240D01*
X155496092Y-117962845D01*
X155485762Y-117949383D01*
X155480739Y-117942837D01*
X155355336Y-117846612D01*
X155209301Y-117786122D01*
X155052586Y-117765490D01*
X154985904Y-117774269D01*
X154915757Y-117763330D01*
X154880364Y-117738442D01*
X154794405Y-117652483D01*
X154757500Y-117563388D01*
X154757500Y-107808513D01*
X154777502Y-107740392D01*
X154831158Y-107693899D01*
X154901432Y-107683795D01*
X154987214Y-107736963D01*
X155059999Y-107842471D01*
X155207305Y-107983733D01*
X155212701Y-107987131D01*
X155374604Y-108089088D01*
X155374608Y-108089090D01*
X155380007Y-108092490D01*
X155385981Y-108094735D01*
X155385984Y-108094737D01*
X155419831Y-108107459D01*
X155476559Y-108150150D01*
X155501500Y-108225403D01*
X155501501Y-114157078D01*
X155481499Y-114225199D01*
X155423718Y-114273487D01*
X155399250Y-114283622D01*
X155273847Y-114379847D01*
X155268824Y-114386393D01*
X155247500Y-114414183D01*
X155177622Y-114505250D01*
X155117132Y-114651285D01*
X155096500Y-114808000D01*
X155117132Y-114964715D01*
X155177622Y-115110750D01*
X155273847Y-115236153D01*
X155399250Y-115332378D01*
X155545285Y-115392868D01*
X155702000Y-115413500D01*
X155710188Y-115412422D01*
X155850527Y-115393946D01*
X155858715Y-115392868D01*
X156004750Y-115332378D01*
X156130153Y-115236153D01*
X156226378Y-115110750D01*
X156286868Y-114964715D01*
X156307500Y-114808000D01*
X156286868Y-114651285D01*
X156226378Y-114505250D01*
X156182537Y-114448115D01*
X156156500Y-114371411D01*
X156156500Y-108224581D01*
X156176502Y-108156460D01*
X156227661Y-108111141D01*
X156352373Y-108050853D01*
X156352375Y-108050852D01*
X156358121Y-108048074D01*
X156363190Y-108044198D01*
X156363194Y-108044196D01*
X156502975Y-107937325D01*
X156520256Y-107924113D01*
X156654153Y-107770081D01*
X156657287Y-107764519D01*
X156657290Y-107764515D01*
X156664727Y-107751316D01*
X156715593Y-107701787D01*
X156785162Y-107687621D01*
X156851346Y-107713316D01*
X156893132Y-107770713D01*
X156900500Y-107813169D01*
X156900501Y-118556941D01*
X156880499Y-118625062D01*
X156851205Y-118656904D01*
X156839208Y-118666110D01*
X156797847Y-118697847D01*
X156701622Y-118823250D01*
X156641132Y-118969285D01*
X156620500Y-119126000D01*
X156641132Y-119282715D01*
X156701622Y-119428750D01*
X156797847Y-119554153D01*
X156804393Y-119559176D01*
X156851205Y-119595096D01*
X156893072Y-119652434D01*
X156900501Y-119695059D01*
X156900501Y-126345516D01*
X156900022Y-126356498D01*
X156896758Y-126393805D01*
X156899611Y-126404452D01*
X156906511Y-126430202D01*
X156908891Y-126440936D01*
X156909943Y-126446900D01*
X156915433Y-126478038D01*
X156920947Y-126487589D01*
X156922143Y-126490874D01*
X156923613Y-126494026D01*
X156926466Y-126504674D01*
X156935366Y-126517384D01*
X156948075Y-126535535D01*
X156953980Y-126544805D01*
X156967309Y-126567892D01*
X156967312Y-126567896D01*
X156972823Y-126577441D01*
X156981268Y-126584527D01*
X157001511Y-126601513D01*
X157009615Y-126608940D01*
X157405382Y-127004707D01*
X157439408Y-127067019D01*
X157431924Y-127143841D01*
X157406468Y-127202667D01*
X157405162Y-127208919D01*
X157366038Y-127396193D01*
X157366037Y-127396198D01*
X157364732Y-127402447D01*
X157364649Y-127426276D01*
X157364159Y-127566560D01*
X157364019Y-127606539D01*
X157404360Y-127806606D01*
X157435523Y-127880021D01*
X157446632Y-127906191D01*
X157484106Y-127994475D01*
X157599999Y-128162471D01*
X157747305Y-128303733D01*
X157752701Y-128307131D01*
X157914604Y-128409088D01*
X157914608Y-128409090D01*
X157920007Y-128412490D01*
X157925976Y-128414734D01*
X157925981Y-128414736D01*
X158038164Y-128456902D01*
X158111051Y-128484298D01*
X158117349Y-128485296D01*
X158117351Y-128485296D01*
X158200502Y-128498466D01*
X158312631Y-128516225D01*
X158516515Y-128506967D01*
X158522697Y-128505403D01*
X158522702Y-128505402D01*
X158708176Y-128458470D01*
X158708178Y-128458469D01*
X158714372Y-128456902D01*
X158720125Y-128454121D01*
X158892373Y-128370853D01*
X158892375Y-128370852D01*
X158898121Y-128368074D01*
X158903190Y-128364198D01*
X158903194Y-128364196D01*
X159055182Y-128247992D01*
X159060256Y-128244113D01*
X159194153Y-128090081D01*
X159294343Y-127912272D01*
X159356733Y-127717949D01*
X159357422Y-127711607D01*
X159357423Y-127711602D01*
X159357996Y-127706323D01*
X159385236Y-127640761D01*
X159443598Y-127600333D01*
X159514552Y-127597876D01*
X159575571Y-127634169D01*
X159608779Y-127708945D01*
X159610739Y-127731345D01*
X159612644Y-127742147D01*
X159669250Y-127953404D01*
X159672996Y-127963696D01*
X159765427Y-128161915D01*
X159770906Y-128171405D01*
X159808074Y-128224486D01*
X159818550Y-128232860D01*
X159831995Y-128225794D01*
X160536979Y-127520811D01*
X160543355Y-127509132D01*
X161273408Y-127509132D01*
X161273539Y-127510966D01*
X161277790Y-127517580D01*
X161986728Y-128226517D01*
X161998498Y-128232944D01*
X162010513Y-128223648D01*
X162047094Y-128171405D01*
X162052573Y-128161915D01*
X162145004Y-127963696D01*
X162148750Y-127953404D01*
X162205356Y-127742147D01*
X162207259Y-127731354D01*
X162226321Y-127513475D01*
X162226321Y-127502525D01*
X162207259Y-127284646D01*
X162205356Y-127273853D01*
X162148750Y-127062596D01*
X162145004Y-127052304D01*
X162052573Y-126854085D01*
X162047094Y-126844595D01*
X162009926Y-126791514D01*
X161999450Y-126783140D01*
X161986005Y-126790206D01*
X161281021Y-127495189D01*
X161273408Y-127509132D01*
X160543355Y-127509132D01*
X160544592Y-127506868D01*
X160544461Y-127505034D01*
X160540210Y-127498420D01*
X159831272Y-126789483D01*
X159819502Y-126783056D01*
X159807487Y-126792352D01*
X159770906Y-126844595D01*
X159765427Y-126854085D01*
X159672996Y-127052304D01*
X159669250Y-127062596D01*
X159612644Y-127273853D01*
X159610741Y-127284646D01*
X159609087Y-127303550D01*
X159583225Y-127369668D01*
X159525722Y-127411309D01*
X159454835Y-127415251D01*
X159393070Y-127380242D01*
X159363545Y-127316850D01*
X159360104Y-127317556D01*
X159358820Y-127311301D01*
X159358175Y-127304952D01*
X159297143Y-127110197D01*
X159198196Y-126931693D01*
X159065378Y-126776731D01*
X158904112Y-126651641D01*
X158720988Y-126561533D01*
X158714810Y-126559924D01*
X158714808Y-126559923D01*
X158529667Y-126511697D01*
X158529664Y-126511697D01*
X158523485Y-126510087D01*
X158435902Y-126505497D01*
X158326053Y-126499740D01*
X158326049Y-126499740D01*
X158319672Y-126499406D01*
X158156903Y-126524022D01*
X158124187Y-126528970D01*
X158124186Y-126528970D01*
X158117873Y-126529925D01*
X158111885Y-126532128D01*
X158111878Y-126532130D01*
X157998587Y-126573813D01*
X157927750Y-126578563D01*
X157865985Y-126544659D01*
X157738876Y-126417550D01*
X160184140Y-126417550D01*
X160191206Y-126430995D01*
X160896189Y-127135979D01*
X160910132Y-127143592D01*
X160911966Y-127143461D01*
X160918580Y-127139210D01*
X161627517Y-126430272D01*
X161633944Y-126418502D01*
X161624648Y-126406487D01*
X161572405Y-126369906D01*
X161562915Y-126364427D01*
X161364696Y-126271996D01*
X161354404Y-126268250D01*
X161143147Y-126211644D01*
X161132354Y-126209741D01*
X160914475Y-126190679D01*
X160903525Y-126190679D01*
X160685646Y-126209741D01*
X160674853Y-126211644D01*
X160463596Y-126268250D01*
X160453304Y-126271996D01*
X160255085Y-126364427D01*
X160245595Y-126369906D01*
X160192514Y-126407074D01*
X160184140Y-126417550D01*
X157738876Y-126417550D01*
X157588405Y-126267080D01*
X157551500Y-126177984D01*
X157551500Y-119695058D01*
X157571502Y-119626937D01*
X157600796Y-119595095D01*
X157647607Y-119559176D01*
X157654153Y-119554153D01*
X157750378Y-119428750D01*
X157810868Y-119282715D01*
X157831500Y-119126000D01*
X157810868Y-118969285D01*
X157750378Y-118823250D01*
X157654153Y-118697847D01*
X157631274Y-118680291D01*
X157600796Y-118656905D01*
X157558929Y-118599567D01*
X157551500Y-118556942D01*
X157551500Y-108088273D01*
X157571502Y-108020152D01*
X157625158Y-107973659D01*
X157695432Y-107963555D01*
X157746342Y-107985263D01*
X157747305Y-107983733D01*
X157914604Y-108089088D01*
X157914608Y-108089090D01*
X157920007Y-108092490D01*
X157925976Y-108094734D01*
X157925981Y-108094736D01*
X158041700Y-108138231D01*
X158111051Y-108164298D01*
X158117349Y-108165296D01*
X158117351Y-108165296D01*
X158172724Y-108174066D01*
X158312631Y-108196225D01*
X158516515Y-108186967D01*
X158522697Y-108185403D01*
X158522702Y-108185402D01*
X158708176Y-108138470D01*
X158708178Y-108138469D01*
X158714372Y-108136902D01*
X158720125Y-108134121D01*
X158892373Y-108050853D01*
X158892375Y-108050852D01*
X158898121Y-108048074D01*
X158903190Y-108044198D01*
X158903194Y-108044196D01*
X159042975Y-107937325D01*
X159060256Y-107924113D01*
X159194153Y-107770081D01*
X159294343Y-107592272D01*
X159356733Y-107397949D01*
X159368836Y-107286539D01*
X159904019Y-107286539D01*
X159944360Y-107486606D01*
X159946854Y-107492481D01*
X160005705Y-107631124D01*
X160024106Y-107674475D01*
X160139999Y-107842471D01*
X160287305Y-107983733D01*
X160292701Y-107987131D01*
X160454604Y-108089088D01*
X160454608Y-108089090D01*
X160460007Y-108092490D01*
X160465976Y-108094734D01*
X160465981Y-108094736D01*
X160581700Y-108138231D01*
X160651051Y-108164298D01*
X160657349Y-108165296D01*
X160657351Y-108165296D01*
X160712724Y-108174066D01*
X160852631Y-108196225D01*
X161056515Y-108186967D01*
X161062697Y-108185403D01*
X161062702Y-108185402D01*
X161248176Y-108138470D01*
X161248178Y-108138469D01*
X161254372Y-108136902D01*
X161260125Y-108134121D01*
X161432373Y-108050853D01*
X161432375Y-108050852D01*
X161438121Y-108048074D01*
X161443190Y-108044198D01*
X161443194Y-108044196D01*
X161582975Y-107937325D01*
X161600256Y-107924113D01*
X161734153Y-107770081D01*
X161834343Y-107592272D01*
X161896733Y-107397949D01*
X161911170Y-107265055D01*
X161918420Y-107198321D01*
X161918420Y-107198314D01*
X161918775Y-107195050D01*
X161918800Y-107188000D01*
X161898175Y-106984952D01*
X161837143Y-106790197D01*
X161738196Y-106611693D01*
X161605378Y-106456731D01*
X161596344Y-106449723D01*
X161474877Y-106355505D01*
X161444112Y-106331641D01*
X161260988Y-106241533D01*
X161254810Y-106239924D01*
X161254808Y-106239923D01*
X161069667Y-106191697D01*
X161069664Y-106191697D01*
X161063485Y-106190087D01*
X160975902Y-106185497D01*
X160866053Y-106179740D01*
X160866049Y-106179740D01*
X160859672Y-106179406D01*
X160717522Y-106200904D01*
X160664187Y-106208970D01*
X160664186Y-106208970D01*
X160657873Y-106209925D01*
X160651887Y-106212128D01*
X160651881Y-106212129D01*
X160552029Y-106248868D01*
X160466333Y-106280398D01*
X160460917Y-106283756D01*
X160460913Y-106283758D01*
X160298298Y-106384583D01*
X160298297Y-106384584D01*
X160292875Y-106387946D01*
X160274151Y-106405652D01*
X160152160Y-106521014D01*
X160144586Y-106528176D01*
X160140924Y-106533406D01*
X160140923Y-106533407D01*
X160052985Y-106658996D01*
X160027523Y-106695359D01*
X159946468Y-106882667D01*
X159945163Y-106888914D01*
X159945162Y-106888917D01*
X159906038Y-107076193D01*
X159906037Y-107076198D01*
X159904732Y-107082447D01*
X159904586Y-107124276D01*
X159904088Y-107266900D01*
X159904019Y-107286539D01*
X159368836Y-107286539D01*
X159371170Y-107265055D01*
X159378420Y-107198321D01*
X159378420Y-107198314D01*
X159378775Y-107195050D01*
X159378800Y-107188000D01*
X159358175Y-106984952D01*
X159297143Y-106790197D01*
X159198196Y-106611693D01*
X159065378Y-106456731D01*
X159056344Y-106449723D01*
X158934877Y-106355505D01*
X158904112Y-106331641D01*
X158720988Y-106241533D01*
X158714810Y-106239924D01*
X158714808Y-106239923D01*
X158529667Y-106191697D01*
X158529664Y-106191697D01*
X158523485Y-106190087D01*
X158435902Y-106185497D01*
X158326053Y-106179740D01*
X158326049Y-106179740D01*
X158319672Y-106179406D01*
X158177522Y-106200904D01*
X158124187Y-106208970D01*
X158124186Y-106208970D01*
X158117873Y-106209925D01*
X158111887Y-106212128D01*
X158111881Y-106212129D01*
X158012029Y-106248868D01*
X157926333Y-106280398D01*
X157920917Y-106283756D01*
X157920913Y-106283758D01*
X157834607Y-106337270D01*
X157752875Y-106387946D01*
X157752444Y-106388353D01*
X157688205Y-106413318D01*
X157618631Y-106399176D01*
X157567748Y-106349665D01*
X157551500Y-106287774D01*
X157551500Y-105725058D01*
X157571502Y-105656937D01*
X157600796Y-105625095D01*
X157605582Y-105621423D01*
X157654153Y-105584153D01*
X157750378Y-105458750D01*
X157810868Y-105312715D01*
X157831500Y-105156000D01*
X157810868Y-104999285D01*
X157750378Y-104853250D01*
X157654153Y-104727847D01*
X157528750Y-104631622D01*
X157382715Y-104571132D01*
X157226000Y-104550500D01*
X157069285Y-104571132D01*
X156923250Y-104631622D01*
X156797847Y-104727847D01*
X156701622Y-104853250D01*
X156641132Y-104999285D01*
X156620500Y-105156000D01*
X156641132Y-105312715D01*
X156701622Y-105458750D01*
X156797847Y-105584153D01*
X156846419Y-105621423D01*
X156851204Y-105625095D01*
X156893071Y-105682433D01*
X156900500Y-105725058D01*
X156900500Y-106561615D01*
X156880498Y-106629736D01*
X156826842Y-106676229D01*
X156756568Y-106686333D01*
X156691988Y-106656839D01*
X156664299Y-106622702D01*
X156661294Y-106617281D01*
X156661292Y-106617277D01*
X156658196Y-106611693D01*
X156525378Y-106456731D01*
X156516344Y-106449723D01*
X156394877Y-106355505D01*
X156364112Y-106331641D01*
X156180988Y-106241533D01*
X156174810Y-106239924D01*
X156174808Y-106239923D01*
X155989667Y-106191697D01*
X155989664Y-106191697D01*
X155983485Y-106190087D01*
X155895902Y-106185497D01*
X155786053Y-106179740D01*
X155786049Y-106179740D01*
X155779672Y-106179406D01*
X155637522Y-106200904D01*
X155584187Y-106208970D01*
X155584186Y-106208970D01*
X155577873Y-106209925D01*
X155571887Y-106212128D01*
X155571881Y-106212129D01*
X155472029Y-106248868D01*
X155386333Y-106280398D01*
X155380917Y-106283756D01*
X155380913Y-106283758D01*
X155218298Y-106384583D01*
X155218297Y-106384584D01*
X155212875Y-106387946D01*
X155194151Y-106405652D01*
X155072160Y-106521014D01*
X155064586Y-106528176D01*
X155060924Y-106533406D01*
X155060923Y-106533407D01*
X154986713Y-106639390D01*
X154931256Y-106683718D01*
X154860637Y-106691027D01*
X154797276Y-106658996D01*
X154757500Y-106567119D01*
X154757500Y-104201058D01*
X154777502Y-104132937D01*
X154806796Y-104101095D01*
X154853607Y-104065176D01*
X154860153Y-104060153D01*
X154956378Y-103934750D01*
X155016868Y-103788715D01*
X155037500Y-103632000D01*
X155016868Y-103475285D01*
X154956378Y-103329250D01*
X154860153Y-103203847D01*
X154734750Y-103107622D01*
X154588715Y-103047132D01*
X154432000Y-103026500D01*
X154275285Y-103047132D01*
X154129250Y-103107622D01*
X154003847Y-103203847D01*
X153907622Y-103329250D01*
X153847132Y-103475285D01*
X153826500Y-103632000D01*
X153847132Y-103788715D01*
X153907622Y-103934750D01*
X154003847Y-104060153D01*
X154010393Y-104065176D01*
X154057204Y-104101095D01*
X154099071Y-104158433D01*
X154106500Y-104201058D01*
X154106500Y-106293485D01*
X154086498Y-106361606D01*
X154032842Y-106408099D01*
X153962568Y-106418203D01*
X153903274Y-106393045D01*
X153888335Y-106381457D01*
X153824112Y-106331641D01*
X153640988Y-106241533D01*
X153634810Y-106239924D01*
X153634808Y-106239923D01*
X153449667Y-106191697D01*
X153449664Y-106191697D01*
X153443485Y-106190087D01*
X153355902Y-106185497D01*
X153246053Y-106179740D01*
X153246049Y-106179740D01*
X153239672Y-106179406D01*
X153097522Y-106200904D01*
X153044187Y-106208970D01*
X153044186Y-106208970D01*
X153037873Y-106209925D01*
X153031887Y-106212128D01*
X153031881Y-106212129D01*
X152932029Y-106248868D01*
X152846333Y-106280398D01*
X152840917Y-106283756D01*
X152840913Y-106283758D01*
X152754607Y-106337270D01*
X152672875Y-106387946D01*
X152672444Y-106388353D01*
X152608205Y-106413318D01*
X152538631Y-106399176D01*
X152487748Y-106349665D01*
X152471500Y-106287774D01*
X152471500Y-92202002D01*
X153318500Y-92202002D01*
X153339132Y-92358717D01*
X153399622Y-92504752D01*
X153495847Y-92630155D01*
X153621250Y-92726380D01*
X153767285Y-92786870D01*
X153924000Y-92807502D01*
X153932188Y-92806424D01*
X154072527Y-92787948D01*
X154080715Y-92786870D01*
X154226750Y-92726380D01*
X154352153Y-92630155D01*
X154448378Y-92504752D01*
X154508868Y-92358717D01*
X154509446Y-92354324D01*
X154541093Y-92299510D01*
X154994150Y-91846454D01*
X155083245Y-91809550D01*
X156096600Y-91809550D01*
X156157736Y-91825931D01*
X156161250Y-91828628D01*
X156168876Y-91831787D01*
X156168878Y-91831788D01*
X156299656Y-91885958D01*
X156307285Y-91889118D01*
X156464000Y-91909750D01*
X156472188Y-91908672D01*
X156485785Y-91906882D01*
X156620715Y-91889118D01*
X156628344Y-91885958D01*
X156759122Y-91831788D01*
X156759124Y-91831787D01*
X156766750Y-91828628D01*
X156770264Y-91825931D01*
X156831400Y-91809550D01*
X161790508Y-91809550D01*
X161879604Y-91846455D01*
X162179408Y-92146260D01*
X162211054Y-92201072D01*
X162211632Y-92205465D01*
X162272122Y-92351500D01*
X162368347Y-92476903D01*
X162493750Y-92573128D01*
X162639785Y-92633618D01*
X162796500Y-92654250D01*
X162804688Y-92653172D01*
X162945027Y-92634696D01*
X162953215Y-92633618D01*
X163076284Y-92582641D01*
X163146872Y-92575052D01*
X163210359Y-92606831D01*
X163250501Y-92699050D01*
X163250500Y-124906942D01*
X163230498Y-124975063D01*
X163201204Y-125006905D01*
X163147847Y-125047847D01*
X163051622Y-125173250D01*
X162991132Y-125319285D01*
X162970500Y-125476000D01*
X162991132Y-125632715D01*
X163051622Y-125778750D01*
X163147847Y-125904153D01*
X163273250Y-126000378D01*
X163419285Y-126060868D01*
X163576000Y-126081500D01*
X163584188Y-126080422D01*
X163724527Y-126061946D01*
X163732715Y-126060868D01*
X163878750Y-126000378D01*
X164004153Y-125904153D01*
X164100378Y-125778750D01*
X164160868Y-125632715D01*
X164181500Y-125476000D01*
X164160868Y-125319285D01*
X164100378Y-125173250D01*
X164004153Y-125047847D01*
X163950796Y-125006905D01*
X163908929Y-124949567D01*
X163901500Y-124906942D01*
X163901500Y-111704423D01*
X164276255Y-111704423D01*
X164284638Y-111756471D01*
X164287212Y-111766793D01*
X164358230Y-111974810D01*
X164362497Y-111984533D01*
X164467556Y-112177625D01*
X164473402Y-112186491D01*
X164609486Y-112359113D01*
X164616750Y-112366875D01*
X164779967Y-112514094D01*
X164788444Y-112520528D01*
X164974122Y-112638136D01*
X164983567Y-112643053D01*
X165186406Y-112727694D01*
X165196545Y-112730950D01*
X165336345Y-112763096D01*
X165348566Y-112762368D01*
X165354000Y-112746356D01*
X165354000Y-111704115D01*
X165352659Y-111699548D01*
X165862000Y-111699548D01*
X165862000Y-112751941D01*
X165866151Y-112766079D01*
X165876798Y-112767774D01*
X165880192Y-112767096D01*
X166091333Y-112705954D01*
X166101259Y-112702143D01*
X166299065Y-112606307D01*
X166308212Y-112600876D01*
X166487041Y-112473083D01*
X166495149Y-112466182D01*
X166649893Y-112310082D01*
X166656706Y-112301933D01*
X166782940Y-112121988D01*
X166788295Y-112112787D01*
X166882399Y-111914156D01*
X166886123Y-111904197D01*
X166943968Y-111697718D01*
X166942430Y-111689351D01*
X166930137Y-111686000D01*
X165880115Y-111686000D01*
X165864876Y-111690475D01*
X165863671Y-111691865D01*
X165862000Y-111699548D01*
X165352659Y-111699548D01*
X165349525Y-111688876D01*
X165348135Y-111687671D01*
X165340452Y-111686000D01*
X164291403Y-111686000D01*
X164278222Y-111689870D01*
X164276255Y-111704423D01*
X163901500Y-111704423D01*
X163901500Y-111160174D01*
X164277008Y-111160174D01*
X164278427Y-111173414D01*
X164293062Y-111178000D01*
X166927079Y-111178000D01*
X166938190Y-111174738D01*
X166939741Y-111156992D01*
X166894954Y-110984433D01*
X166891419Y-110974395D01*
X166801147Y-110773998D01*
X166795967Y-110764692D01*
X166673218Y-110582366D01*
X166666557Y-110574080D01*
X166514830Y-110415030D01*
X166506873Y-110407990D01*
X166330523Y-110276782D01*
X166321486Y-110271178D01*
X166125550Y-110171559D01*
X166115699Y-110167559D01*
X165969070Y-110122030D01*
X165909945Y-110082727D01*
X165881454Y-110017698D01*
X165892644Y-109947588D01*
X165972553Y-109880338D01*
X165983580Y-109877260D01*
X165983591Y-109877256D01*
X165989514Y-109875602D01*
X166000205Y-109870202D01*
X166076080Y-109831874D01*
X166173297Y-109782766D01*
X166335549Y-109656001D01*
X166358977Y-109628860D01*
X166466061Y-109504801D01*
X166470088Y-109500136D01*
X166571790Y-109321107D01*
X166636783Y-109125734D01*
X166659841Y-108943213D01*
X166662147Y-108924960D01*
X166662148Y-108924951D01*
X166662589Y-108921457D01*
X166663000Y-108892000D01*
X166642908Y-108687083D01*
X166583396Y-108489971D01*
X166486732Y-108308172D01*
X166482842Y-108303402D01*
X166482839Y-108303398D01*
X166360492Y-108153386D01*
X166360489Y-108153383D01*
X166356597Y-108148611D01*
X166347910Y-108141424D01*
X166272655Y-108079168D01*
X166197949Y-108017365D01*
X166016829Y-107919434D01*
X165820137Y-107858548D01*
X165814012Y-107857904D01*
X165814011Y-107857904D01*
X165621494Y-107837670D01*
X165621492Y-107837670D01*
X165615365Y-107837026D01*
X165529232Y-107844865D01*
X165416452Y-107855128D01*
X165416449Y-107855129D01*
X165410313Y-107855687D01*
X165404407Y-107857425D01*
X165404403Y-107857426D01*
X165358263Y-107871006D01*
X165212790Y-107913821D01*
X165207332Y-107916674D01*
X165207328Y-107916676D01*
X165136725Y-107953587D01*
X165030321Y-108009214D01*
X165025523Y-108013072D01*
X165025521Y-108013073D01*
X164978714Y-108050707D01*
X164869855Y-108138231D01*
X164737505Y-108295960D01*
X164734541Y-108301352D01*
X164734538Y-108301356D01*
X164723625Y-108321207D01*
X164638312Y-108476391D01*
X164636451Y-108482258D01*
X164636450Y-108482260D01*
X164597667Y-108604520D01*
X164576054Y-108672653D01*
X164553103Y-108877270D01*
X164570332Y-109082448D01*
X164627086Y-109280371D01*
X164721202Y-109463502D01*
X164725025Y-109468326D01*
X164725028Y-109468330D01*
X164843167Y-109617383D01*
X164849097Y-109624865D01*
X164853790Y-109628859D01*
X164853791Y-109628860D01*
X164997717Y-109751350D01*
X165005897Y-109758312D01*
X165185632Y-109858763D01*
X165237458Y-109875602D01*
X165248762Y-109879275D01*
X165307368Y-109919348D01*
X165335006Y-109984744D01*
X165322900Y-110054701D01*
X165274894Y-110107008D01*
X165235702Y-110122423D01*
X165221553Y-110125392D01*
X165211358Y-110128451D01*
X165006932Y-110209182D01*
X164997396Y-110213916D01*
X164809486Y-110327942D01*
X164800896Y-110334206D01*
X164634884Y-110478264D01*
X164627464Y-110485895D01*
X164488100Y-110655860D01*
X164482075Y-110664627D01*
X164373342Y-110855644D01*
X164368877Y-110865308D01*
X164293882Y-111071916D01*
X164291111Y-111082184D01*
X164277008Y-111160174D01*
X163901500Y-111160174D01*
X163901500Y-106337270D01*
X164553103Y-106337270D01*
X164570332Y-106542448D01*
X164627086Y-106740371D01*
X164652693Y-106790197D01*
X164680575Y-106844449D01*
X164721202Y-106923502D01*
X164725025Y-106928326D01*
X164725028Y-106928330D01*
X164774939Y-106991301D01*
X164849097Y-107084865D01*
X164853790Y-107088859D01*
X164853791Y-107088860D01*
X164982408Y-107198321D01*
X165005897Y-107218312D01*
X165185632Y-107318763D01*
X165381454Y-107382389D01*
X165585906Y-107406769D01*
X165592041Y-107406297D01*
X165592043Y-107406297D01*
X165785058Y-107391445D01*
X165785063Y-107391444D01*
X165791199Y-107390972D01*
X165797129Y-107389316D01*
X165797131Y-107389316D01*
X165983586Y-107337257D01*
X165983585Y-107337257D01*
X165989514Y-107335602D01*
X166022850Y-107318763D01*
X166125520Y-107266900D01*
X166173297Y-107242766D01*
X166238320Y-107191965D01*
X166330693Y-107119795D01*
X166335549Y-107116001D01*
X166358977Y-107088860D01*
X166466061Y-106964801D01*
X166470088Y-106960136D01*
X166531817Y-106851473D01*
X166568747Y-106786464D01*
X166568748Y-106786463D01*
X166571790Y-106781107D01*
X166636783Y-106585734D01*
X166641503Y-106548368D01*
X166662147Y-106384960D01*
X166662148Y-106384951D01*
X166662589Y-106381457D01*
X166663000Y-106352000D01*
X166642908Y-106147083D01*
X166583396Y-105949971D01*
X166486732Y-105768172D01*
X166482842Y-105763402D01*
X166482839Y-105763398D01*
X166360492Y-105613386D01*
X166360489Y-105613383D01*
X166356597Y-105608611D01*
X166333105Y-105589176D01*
X166202698Y-105481294D01*
X166197949Y-105477365D01*
X166016829Y-105379434D01*
X165820137Y-105318548D01*
X165814012Y-105317904D01*
X165814011Y-105317904D01*
X165621494Y-105297670D01*
X165621492Y-105297670D01*
X165615365Y-105297026D01*
X165532942Y-105304527D01*
X165416452Y-105315128D01*
X165416449Y-105315129D01*
X165410313Y-105315687D01*
X165404407Y-105317425D01*
X165404403Y-105317426D01*
X165312384Y-105344509D01*
X165212790Y-105373821D01*
X165207332Y-105376674D01*
X165207328Y-105376676D01*
X165159139Y-105401869D01*
X165030321Y-105469214D01*
X165025523Y-105473072D01*
X165025521Y-105473073D01*
X164982970Y-105507285D01*
X164869855Y-105598231D01*
X164737505Y-105755960D01*
X164734541Y-105761352D01*
X164734538Y-105761356D01*
X164664606Y-105888562D01*
X164638312Y-105936391D01*
X164636451Y-105942258D01*
X164636450Y-105942260D01*
X164609137Y-106028363D01*
X164576054Y-106132653D01*
X164553103Y-106337270D01*
X163901500Y-106337270D01*
X163901500Y-103797270D01*
X164553103Y-103797270D01*
X164570332Y-104002448D01*
X164627086Y-104200371D01*
X164721202Y-104383502D01*
X164725025Y-104388326D01*
X164725028Y-104388330D01*
X164769596Y-104444560D01*
X164849097Y-104544865D01*
X164853790Y-104548859D01*
X164853791Y-104548860D01*
X164982871Y-104658715D01*
X165005897Y-104678312D01*
X165185632Y-104778763D01*
X165381454Y-104842389D01*
X165585906Y-104866769D01*
X165592041Y-104866297D01*
X165592043Y-104866297D01*
X165785058Y-104851445D01*
X165785063Y-104851444D01*
X165791199Y-104850972D01*
X165797129Y-104849316D01*
X165797131Y-104849316D01*
X165983586Y-104797257D01*
X165983585Y-104797257D01*
X165989514Y-104795602D01*
X166022850Y-104778763D01*
X166076080Y-104751874D01*
X166173297Y-104702766D01*
X166335549Y-104576001D01*
X166358977Y-104548860D01*
X166382541Y-104521560D01*
X166470088Y-104420136D01*
X166571790Y-104241107D01*
X166575600Y-104229656D01*
X166616505Y-104106691D01*
X166636783Y-104045734D01*
X166649976Y-103941301D01*
X166662147Y-103844960D01*
X166662148Y-103844951D01*
X166662589Y-103841457D01*
X166663000Y-103812000D01*
X166642908Y-103607083D01*
X166583396Y-103409971D01*
X166486732Y-103228172D01*
X166482842Y-103223402D01*
X166482839Y-103223398D01*
X166360492Y-103073386D01*
X166360489Y-103073383D01*
X166356597Y-103068611D01*
X166334454Y-103050292D01*
X166202698Y-102941294D01*
X166197949Y-102937365D01*
X166016829Y-102839434D01*
X165820137Y-102778548D01*
X165814012Y-102777904D01*
X165814011Y-102777904D01*
X165621494Y-102757670D01*
X165621492Y-102757670D01*
X165615365Y-102757026D01*
X165529232Y-102764865D01*
X165416452Y-102775128D01*
X165416449Y-102775129D01*
X165410313Y-102775687D01*
X165404407Y-102777425D01*
X165404403Y-102777426D01*
X165295740Y-102809407D01*
X165212790Y-102833821D01*
X165207332Y-102836674D01*
X165207328Y-102836676D01*
X165107303Y-102888969D01*
X165030321Y-102929214D01*
X164869855Y-103058231D01*
X164737505Y-103215960D01*
X164734541Y-103221352D01*
X164734538Y-103221356D01*
X164651988Y-103371515D01*
X164638312Y-103396391D01*
X164636451Y-103402258D01*
X164636450Y-103402260D01*
X164615705Y-103467656D01*
X164576054Y-103592653D01*
X164553103Y-103797270D01*
X163901500Y-103797270D01*
X163901500Y-101257270D01*
X164553103Y-101257270D01*
X164570332Y-101462448D01*
X164627086Y-101660371D01*
X164721202Y-101843502D01*
X164725025Y-101848326D01*
X164725028Y-101848330D01*
X164843167Y-101997383D01*
X164849097Y-102004865D01*
X164853790Y-102008859D01*
X164853791Y-102008860D01*
X164993238Y-102127538D01*
X165005897Y-102138312D01*
X165185632Y-102238763D01*
X165381454Y-102302389D01*
X165585906Y-102326769D01*
X165592041Y-102326297D01*
X165592043Y-102326297D01*
X165785058Y-102311445D01*
X165785063Y-102311444D01*
X165791199Y-102310972D01*
X165797129Y-102309316D01*
X165797131Y-102309316D01*
X165983586Y-102257257D01*
X165983585Y-102257257D01*
X165989514Y-102255602D01*
X166022850Y-102238763D01*
X166100153Y-102199714D01*
X166173297Y-102162766D01*
X166204833Y-102138128D01*
X166330693Y-102039795D01*
X166335549Y-102036001D01*
X166358977Y-102008860D01*
X166466061Y-101884801D01*
X166470088Y-101880136D01*
X166535867Y-101764344D01*
X166568747Y-101706464D01*
X166568748Y-101706463D01*
X166571790Y-101701107D01*
X166636783Y-101505734D01*
X166645636Y-101435656D01*
X166662147Y-101304960D01*
X166662148Y-101304951D01*
X166662589Y-101301457D01*
X166663000Y-101272000D01*
X166642908Y-101067083D01*
X166583396Y-100869971D01*
X166486732Y-100688172D01*
X166482842Y-100683402D01*
X166482839Y-100683398D01*
X166360492Y-100533386D01*
X166360489Y-100533383D01*
X166356597Y-100528611D01*
X166197949Y-100397365D01*
X166016829Y-100299434D01*
X165820137Y-100238548D01*
X165814012Y-100237904D01*
X165814011Y-100237904D01*
X165621494Y-100217670D01*
X165621492Y-100217670D01*
X165615365Y-100217026D01*
X165529232Y-100224865D01*
X165416452Y-100235128D01*
X165416449Y-100235129D01*
X165410313Y-100235687D01*
X165404407Y-100237425D01*
X165404403Y-100237426D01*
X165295740Y-100269407D01*
X165212790Y-100293821D01*
X165207332Y-100296674D01*
X165207328Y-100296676D01*
X165107303Y-100348969D01*
X165030321Y-100389214D01*
X164869855Y-100518231D01*
X164737505Y-100675960D01*
X164734541Y-100681352D01*
X164734538Y-100681356D01*
X164651988Y-100831515D01*
X164638312Y-100856391D01*
X164636451Y-100862258D01*
X164636450Y-100862260D01*
X164577916Y-101046783D01*
X164576054Y-101052653D01*
X164553103Y-101257270D01*
X163901500Y-101257270D01*
X163901500Y-98717270D01*
X164553103Y-98717270D01*
X164570332Y-98922448D01*
X164627086Y-99120371D01*
X164721202Y-99303502D01*
X164725025Y-99308326D01*
X164725028Y-99308330D01*
X164753935Y-99344801D01*
X164849097Y-99464865D01*
X164853790Y-99468859D01*
X164853791Y-99468860D01*
X164880202Y-99491337D01*
X165005897Y-99598312D01*
X165185632Y-99698763D01*
X165381454Y-99762389D01*
X165585906Y-99786769D01*
X165592041Y-99786297D01*
X165592043Y-99786297D01*
X165785058Y-99771445D01*
X165785063Y-99771444D01*
X165791199Y-99770972D01*
X165797129Y-99769316D01*
X165797131Y-99769316D01*
X165983586Y-99717257D01*
X165983585Y-99717257D01*
X165989514Y-99715602D01*
X166022850Y-99698763D01*
X166076080Y-99671874D01*
X166173297Y-99622766D01*
X166335549Y-99496001D01*
X166358977Y-99468860D01*
X166466061Y-99344801D01*
X166470088Y-99340136D01*
X166571790Y-99161107D01*
X166636783Y-98965734D01*
X166643027Y-98916309D01*
X166662147Y-98764960D01*
X166662148Y-98764951D01*
X166662589Y-98761457D01*
X166663000Y-98732000D01*
X166642908Y-98527083D01*
X166583396Y-98329971D01*
X166486732Y-98148172D01*
X166482842Y-98143402D01*
X166482839Y-98143398D01*
X166360492Y-97993386D01*
X166360489Y-97993383D01*
X166356597Y-97988611D01*
X166197949Y-97857365D01*
X166016829Y-97759434D01*
X165820137Y-97698548D01*
X165814012Y-97697904D01*
X165814011Y-97697904D01*
X165621494Y-97677670D01*
X165621492Y-97677670D01*
X165615365Y-97677026D01*
X165529232Y-97684865D01*
X165416452Y-97695128D01*
X165416449Y-97695129D01*
X165410313Y-97695687D01*
X165404407Y-97697425D01*
X165404403Y-97697426D01*
X165295740Y-97729407D01*
X165212790Y-97753821D01*
X165207332Y-97756674D01*
X165207328Y-97756676D01*
X165107303Y-97808969D01*
X165030321Y-97849214D01*
X164869855Y-97978231D01*
X164737505Y-98135960D01*
X164734541Y-98141352D01*
X164734538Y-98141356D01*
X164651988Y-98291515D01*
X164638312Y-98316391D01*
X164636451Y-98322258D01*
X164636450Y-98322260D01*
X164577916Y-98506783D01*
X164576054Y-98512653D01*
X164553103Y-98717270D01*
X163901500Y-98717270D01*
X163901500Y-91332472D01*
X163901979Y-91321490D01*
X163904281Y-91295176D01*
X163905242Y-91284194D01*
X163895490Y-91247800D01*
X163893112Y-91237073D01*
X163888482Y-91210815D01*
X163888482Y-91210814D01*
X163886568Y-91199962D01*
X163881058Y-91190418D01*
X163879865Y-91187141D01*
X163878387Y-91183970D01*
X163875534Y-91173325D01*
X163869214Y-91164299D01*
X163869211Y-91164293D01*
X163853923Y-91142460D01*
X163848016Y-91133189D01*
X163834690Y-91110107D01*
X163829178Y-91100559D01*
X163800501Y-91076497D01*
X163792396Y-91069070D01*
X163176405Y-90453080D01*
X163139500Y-90363984D01*
X163139500Y-89738440D01*
X163159502Y-89670319D01*
X163213158Y-89623826D01*
X163283432Y-89613722D01*
X163365463Y-89661737D01*
X163396821Y-89702604D01*
X163396824Y-89702607D01*
X163401847Y-89709153D01*
X163527250Y-89805378D01*
X163673285Y-89865868D01*
X163830000Y-89886500D01*
X163894183Y-89878050D01*
X163964330Y-89888989D01*
X163999723Y-89913877D01*
X165243596Y-91157751D01*
X165280501Y-91246846D01*
X165280500Y-95011000D01*
X165260498Y-95079121D01*
X165206842Y-95125614D01*
X165154500Y-95137000D01*
X164758000Y-95137000D01*
X164679550Y-95152605D01*
X164669233Y-95159499D01*
X164669232Y-95159499D01*
X164625179Y-95188934D01*
X164613043Y-95197043D01*
X164568605Y-95263550D01*
X164553000Y-95342000D01*
X164553000Y-97042000D01*
X164568605Y-97120450D01*
X164613043Y-97186957D01*
X164679550Y-97231395D01*
X164758000Y-97247000D01*
X166458000Y-97247000D01*
X166536450Y-97231395D01*
X166602957Y-97186957D01*
X166647395Y-97120450D01*
X166663000Y-97042000D01*
X166663000Y-95342000D01*
X166647395Y-95263550D01*
X166602957Y-95197043D01*
X166590821Y-95188934D01*
X166546768Y-95159499D01*
X166546767Y-95159499D01*
X166536450Y-95152605D01*
X166458000Y-95137000D01*
X166061500Y-95137000D01*
X165993379Y-95116998D01*
X165946886Y-95063342D01*
X165935500Y-95011000D01*
X165935500Y-91078205D01*
X165935980Y-91067223D01*
X165938274Y-91041007D01*
X165938274Y-91041005D01*
X165939235Y-91030020D01*
X165929461Y-90993543D01*
X165929416Y-90993375D01*
X165927036Y-90982642D01*
X165922362Y-90956135D01*
X165920448Y-90945278D01*
X165914937Y-90935732D01*
X165913716Y-90932378D01*
X165912200Y-90929128D01*
X165909347Y-90918479D01*
X165887586Y-90887401D01*
X165881682Y-90878133D01*
X165868221Y-90854818D01*
X165862710Y-90845273D01*
X165834091Y-90821259D01*
X165825987Y-90813832D01*
X164462877Y-89450723D01*
X164428852Y-89388411D01*
X164427050Y-89345181D01*
X164434422Y-89289187D01*
X164435500Y-89281000D01*
X164414868Y-89124285D01*
X164354378Y-88978250D01*
X164258153Y-88852847D01*
X164132750Y-88756622D01*
X163986715Y-88696132D01*
X163830000Y-88675500D01*
X163673285Y-88696132D01*
X163527250Y-88756622D01*
X163520699Y-88761649D01*
X163520694Y-88761652D01*
X163471556Y-88799357D01*
X163405336Y-88824958D01*
X163335787Y-88810694D01*
X163284991Y-88761093D01*
X163274306Y-88676036D01*
X163271868Y-88675715D01*
X163291422Y-88527188D01*
X163292500Y-88519000D01*
X163271868Y-88362285D01*
X163211378Y-88216250D01*
X163135191Y-88116961D01*
X163120176Y-88097393D01*
X163115153Y-88090847D01*
X162989750Y-87994622D01*
X162843715Y-87934132D01*
X162687000Y-87913500D01*
X162530285Y-87934132D01*
X162384250Y-87994622D01*
X162258847Y-88090847D01*
X162253824Y-88097393D01*
X162238809Y-88116961D01*
X162162622Y-88216250D01*
X162102132Y-88362285D01*
X162081500Y-88519000D01*
X162102132Y-88675715D01*
X162162622Y-88821750D01*
X162258847Y-88947153D01*
X162384250Y-89043378D01*
X162410720Y-89054342D01*
X162466000Y-89098891D01*
X162488501Y-89170751D01*
X162488500Y-90531527D01*
X162488021Y-90542509D01*
X162484758Y-90579805D01*
X162487611Y-90590452D01*
X162487611Y-90590454D01*
X162494509Y-90616196D01*
X162496887Y-90626923D01*
X162503432Y-90664037D01*
X162508942Y-90673581D01*
X162510133Y-90676853D01*
X162511613Y-90680026D01*
X162514466Y-90690674D01*
X162536080Y-90721543D01*
X162541967Y-90730783D01*
X162547591Y-90740522D01*
X162564326Y-90809516D01*
X162541104Y-90876607D01*
X162485296Y-90920493D01*
X162414621Y-90927241D01*
X162355063Y-90897960D01*
X162332166Y-90877738D01*
X162324038Y-90873922D01*
X162321278Y-90872109D01*
X162307108Y-90863595D01*
X162304236Y-90862023D01*
X162297058Y-90856643D01*
X162288658Y-90853494D01*
X162288656Y-90853493D01*
X162253059Y-90840149D01*
X162243736Y-90836220D01*
X162209322Y-90820062D01*
X162209318Y-90820061D01*
X162201197Y-90816248D01*
X162192333Y-90814868D01*
X162189200Y-90813910D01*
X162173207Y-90809715D01*
X162169984Y-90809006D01*
X162161578Y-90805855D01*
X162152630Y-90805190D01*
X162114722Y-90802373D01*
X162104673Y-90801219D01*
X162094914Y-90799699D01*
X162094910Y-90799699D01*
X162090102Y-90798950D01*
X162073336Y-90798950D01*
X162063998Y-90798603D01*
X162026244Y-90795797D01*
X162026242Y-90795797D01*
X162017293Y-90795132D01*
X162008519Y-90797005D01*
X161999555Y-90797616D01*
X161999549Y-90797531D01*
X161986107Y-90798950D01*
X156831400Y-90798950D01*
X156770264Y-90782569D01*
X156766750Y-90779872D01*
X156759124Y-90776713D01*
X156759122Y-90776712D01*
X156628344Y-90722542D01*
X156620715Y-90719382D01*
X156464000Y-90698750D01*
X156307285Y-90719382D01*
X156299656Y-90722542D01*
X156168878Y-90776712D01*
X156168876Y-90776713D01*
X156161250Y-90779872D01*
X156157736Y-90782569D01*
X156096600Y-90798950D01*
X154891586Y-90798950D01*
X154880430Y-90797703D01*
X154880382Y-90798295D01*
X154871431Y-90797575D01*
X154862677Y-90795594D01*
X154819145Y-90798295D01*
X154812488Y-90798708D01*
X154804685Y-90798950D01*
X154786838Y-90798950D01*
X154782398Y-90799586D01*
X154782395Y-90799586D01*
X154775217Y-90800614D01*
X154765163Y-90801644D01*
X154718269Y-90804554D01*
X154709823Y-90807603D01*
X154706560Y-90808279D01*
X154690559Y-90812268D01*
X154687408Y-90813189D01*
X154678528Y-90814461D01*
X154670361Y-90818174D01*
X154670359Y-90818175D01*
X154635736Y-90833918D01*
X154626366Y-90837732D01*
X154590625Y-90850634D01*
X154590623Y-90850635D01*
X154582180Y-90853683D01*
X154574931Y-90858979D01*
X154571997Y-90860539D01*
X154557779Y-90868848D01*
X154554992Y-90870630D01*
X154546817Y-90874347D01*
X154540014Y-90880209D01*
X154511214Y-90905025D01*
X154503296Y-90911312D01*
X154491393Y-90920007D01*
X154479553Y-90931847D01*
X154472705Y-90938205D01*
X154444010Y-90962930D01*
X154444007Y-90962934D01*
X154437209Y-90968791D01*
X154432329Y-90976320D01*
X154426424Y-90983089D01*
X154426360Y-90983033D01*
X154417857Y-90993543D01*
X154116225Y-91295176D01*
X153826492Y-91584909D01*
X153771678Y-91616556D01*
X153767285Y-91617134D01*
X153759658Y-91620293D01*
X153759655Y-91620294D01*
X153694268Y-91647379D01*
X153621250Y-91677624D01*
X153495847Y-91773849D01*
X153399622Y-91899252D01*
X153339132Y-92045287D01*
X153318500Y-92202002D01*
X152471500Y-92202002D01*
X152471500Y-88023797D01*
X156991000Y-88023797D01*
X156991000Y-88999493D01*
X156992437Y-89012855D01*
X157034962Y-89208339D01*
X157043455Y-89228844D01*
X157111426Y-89334610D01*
X157123112Y-89348097D01*
X157219840Y-89431912D01*
X157234848Y-89441557D01*
X157351275Y-89494727D01*
X157368388Y-89499752D01*
X157499554Y-89518611D01*
X157508495Y-89519250D01*
X158481885Y-89519250D01*
X158497124Y-89514775D01*
X158498329Y-89513385D01*
X158500000Y-89505702D01*
X158500000Y-89384220D01*
X159007999Y-89384220D01*
X159007999Y-89501135D01*
X159012474Y-89516374D01*
X159013864Y-89517579D01*
X159021547Y-89519250D01*
X159997243Y-89519250D01*
X160010605Y-89517813D01*
X160206089Y-89475288D01*
X160226594Y-89466795D01*
X160332360Y-89398824D01*
X160345847Y-89387138D01*
X160429662Y-89290410D01*
X160439307Y-89275402D01*
X160492477Y-89158975D01*
X160497502Y-89141862D01*
X160516361Y-89010696D01*
X160517000Y-89001755D01*
X160517000Y-88028365D01*
X160512525Y-88013126D01*
X160511135Y-88011921D01*
X160503452Y-88010250D01*
X160379668Y-88010250D01*
X160370161Y-88013041D01*
X160375992Y-88024689D01*
X160405952Y-88054649D01*
X160439978Y-88116961D01*
X160434913Y-88187776D01*
X160405952Y-88232839D01*
X160395351Y-88243440D01*
X160387740Y-88257378D01*
X160387871Y-88259216D01*
X160392124Y-88265833D01*
X160405952Y-88279661D01*
X160439978Y-88341973D01*
X160434913Y-88412788D01*
X160405952Y-88457851D01*
X159455601Y-89408202D01*
X159393289Y-89442228D01*
X159322474Y-89437163D01*
X159277411Y-89408202D01*
X159266810Y-89397601D01*
X159252872Y-89389990D01*
X159251034Y-89390121D01*
X159244417Y-89394374D01*
X159230589Y-89408202D01*
X159168277Y-89442228D01*
X159097462Y-89437163D01*
X159052399Y-89408202D01*
X159020811Y-89376614D01*
X159012112Y-89371864D01*
X159007999Y-89384220D01*
X158500000Y-89384220D01*
X158500000Y-89381918D01*
X158497209Y-89372411D01*
X158485561Y-89378242D01*
X158455601Y-89408202D01*
X158393289Y-89442228D01*
X158322474Y-89437163D01*
X158277411Y-89408202D01*
X158266810Y-89397601D01*
X158252872Y-89389990D01*
X158251034Y-89390121D01*
X158244417Y-89394374D01*
X158230589Y-89408202D01*
X158168277Y-89442228D01*
X158097462Y-89437163D01*
X158052399Y-89408202D01*
X157401579Y-88757382D01*
X158112751Y-88757382D01*
X158112882Y-88759215D01*
X158117133Y-88765830D01*
X158241188Y-88889885D01*
X158255132Y-88897499D01*
X158256965Y-88897368D01*
X158263580Y-88893117D01*
X158387635Y-88769062D01*
X158394012Y-88757382D01*
X159112751Y-88757382D01*
X159112882Y-88759215D01*
X159117133Y-88765830D01*
X159241188Y-88889885D01*
X159255132Y-88897499D01*
X159256965Y-88897368D01*
X159263580Y-88893117D01*
X159387635Y-88769062D01*
X159395249Y-88755118D01*
X159395118Y-88753285D01*
X159390867Y-88746670D01*
X159266812Y-88622615D01*
X159252868Y-88615001D01*
X159251035Y-88615132D01*
X159244420Y-88619383D01*
X159120365Y-88743438D01*
X159112751Y-88757382D01*
X158394012Y-88757382D01*
X158395249Y-88755118D01*
X158395118Y-88753285D01*
X158390867Y-88746670D01*
X158266812Y-88622615D01*
X158252868Y-88615001D01*
X158251035Y-88615132D01*
X158244420Y-88619383D01*
X158120365Y-88743438D01*
X158112751Y-88757382D01*
X157401579Y-88757382D01*
X157102048Y-88457851D01*
X157068022Y-88395539D01*
X157073087Y-88324724D01*
X157102048Y-88279661D01*
X157112649Y-88269060D01*
X157119025Y-88257382D01*
X157612751Y-88257382D01*
X157612882Y-88259215D01*
X157617133Y-88265830D01*
X157741188Y-88389885D01*
X157755132Y-88397499D01*
X157756965Y-88397368D01*
X157763580Y-88393117D01*
X157887635Y-88269062D01*
X157894012Y-88257382D01*
X159612751Y-88257382D01*
X159612882Y-88259215D01*
X159617133Y-88265830D01*
X159741188Y-88389885D01*
X159755132Y-88397499D01*
X159756965Y-88397368D01*
X159763580Y-88393117D01*
X159887635Y-88269062D01*
X159895249Y-88255118D01*
X159895118Y-88253285D01*
X159890867Y-88246670D01*
X159766812Y-88122615D01*
X159752868Y-88115001D01*
X159751035Y-88115132D01*
X159744420Y-88119383D01*
X159620365Y-88243438D01*
X159612751Y-88257382D01*
X157894012Y-88257382D01*
X157895249Y-88255118D01*
X157895118Y-88253285D01*
X157890867Y-88246670D01*
X157766812Y-88122615D01*
X157752868Y-88115001D01*
X157751035Y-88115132D01*
X157744420Y-88119383D01*
X157620365Y-88243438D01*
X157612751Y-88257382D01*
X157119025Y-88257382D01*
X157120260Y-88255122D01*
X157120129Y-88253284D01*
X157115876Y-88246667D01*
X157102048Y-88232839D01*
X157068022Y-88170527D01*
X157073087Y-88099712D01*
X157102048Y-88054649D01*
X157133636Y-88023061D01*
X157138386Y-88014362D01*
X157126030Y-88010249D01*
X157009115Y-88010249D01*
X156993876Y-88014724D01*
X156992671Y-88016114D01*
X156991000Y-88023797D01*
X152471500Y-88023797D01*
X152471500Y-87519750D01*
X152491502Y-87451629D01*
X152549283Y-87403341D01*
X152575750Y-87392378D01*
X152686764Y-87307194D01*
X152694607Y-87301176D01*
X152701153Y-87296153D01*
X152797378Y-87170750D01*
X152857868Y-87024715D01*
X152878500Y-86868000D01*
X152857868Y-86711285D01*
X152797378Y-86565250D01*
X152755555Y-86510745D01*
X156991000Y-86510745D01*
X156991000Y-87484135D01*
X156995475Y-87499374D01*
X156996865Y-87500579D01*
X157004548Y-87502250D01*
X157128332Y-87502250D01*
X157137839Y-87499459D01*
X157132008Y-87487811D01*
X157102048Y-87457851D01*
X157068022Y-87395539D01*
X157073087Y-87324724D01*
X157102048Y-87279661D01*
X157112649Y-87269060D01*
X157119025Y-87257382D01*
X157612751Y-87257382D01*
X157612882Y-87259215D01*
X157617133Y-87265830D01*
X157741188Y-87389885D01*
X157755132Y-87397499D01*
X157756965Y-87397368D01*
X157763580Y-87393117D01*
X157887635Y-87269062D01*
X157894012Y-87257382D01*
X159612751Y-87257382D01*
X159612882Y-87259215D01*
X159617133Y-87265830D01*
X159741188Y-87389885D01*
X159755132Y-87397499D01*
X159756965Y-87397368D01*
X159763580Y-87393117D01*
X159887635Y-87269062D01*
X159895249Y-87255118D01*
X159895118Y-87253285D01*
X159890867Y-87246670D01*
X159766812Y-87122615D01*
X159752868Y-87115001D01*
X159751035Y-87115132D01*
X159744420Y-87119383D01*
X159620365Y-87243438D01*
X159612751Y-87257382D01*
X157894012Y-87257382D01*
X157895249Y-87255118D01*
X157895118Y-87253285D01*
X157890867Y-87246670D01*
X157766812Y-87122615D01*
X157752868Y-87115001D01*
X157751035Y-87115132D01*
X157744420Y-87119383D01*
X157620365Y-87243438D01*
X157612751Y-87257382D01*
X157119025Y-87257382D01*
X157120260Y-87255122D01*
X157120129Y-87253284D01*
X157115876Y-87246667D01*
X157102048Y-87232839D01*
X157068022Y-87170527D01*
X157073087Y-87099712D01*
X157102048Y-87054649D01*
X157399315Y-86757382D01*
X158112751Y-86757382D01*
X158112882Y-86759215D01*
X158117133Y-86765830D01*
X158241188Y-86889885D01*
X158255132Y-86897499D01*
X158256965Y-86897368D01*
X158263580Y-86893117D01*
X158387635Y-86769062D01*
X158394012Y-86757382D01*
X159112751Y-86757382D01*
X159112882Y-86759215D01*
X159117133Y-86765830D01*
X159241188Y-86889885D01*
X159255132Y-86897499D01*
X159256965Y-86897368D01*
X159263580Y-86893117D01*
X159387635Y-86769062D01*
X159395249Y-86755118D01*
X159395118Y-86753285D01*
X159390867Y-86746670D01*
X159266812Y-86622615D01*
X159252868Y-86615001D01*
X159251035Y-86615132D01*
X159244420Y-86619383D01*
X159120365Y-86743438D01*
X159112751Y-86757382D01*
X158394012Y-86757382D01*
X158395249Y-86755118D01*
X158395118Y-86753285D01*
X158390867Y-86746670D01*
X158266812Y-86622615D01*
X158252868Y-86615001D01*
X158251035Y-86615132D01*
X158244420Y-86619383D01*
X158120365Y-86743438D01*
X158112751Y-86757382D01*
X157399315Y-86757382D01*
X158052399Y-86104298D01*
X158114711Y-86070272D01*
X158185526Y-86075337D01*
X158230589Y-86104298D01*
X158241190Y-86114899D01*
X158255128Y-86122510D01*
X158256966Y-86122379D01*
X158263583Y-86118126D01*
X158277411Y-86104298D01*
X158339723Y-86070272D01*
X158410538Y-86075337D01*
X158455601Y-86104298D01*
X158487189Y-86135886D01*
X158495888Y-86140636D01*
X158500001Y-86128280D01*
X158500001Y-86011365D01*
X158498660Y-86006798D01*
X159008000Y-86006798D01*
X159008000Y-86130582D01*
X159010791Y-86140089D01*
X159022439Y-86134258D01*
X159052399Y-86104298D01*
X159114711Y-86070272D01*
X159185526Y-86075337D01*
X159230589Y-86104298D01*
X159241190Y-86114899D01*
X159255128Y-86122510D01*
X159256966Y-86122379D01*
X159263583Y-86118126D01*
X159277411Y-86104298D01*
X159339723Y-86070272D01*
X159410538Y-86075337D01*
X159455601Y-86104298D01*
X160405952Y-87054649D01*
X160439978Y-87116961D01*
X160434913Y-87187776D01*
X160405952Y-87232839D01*
X160395351Y-87243440D01*
X160387740Y-87257378D01*
X160387871Y-87259216D01*
X160392124Y-87265833D01*
X160405952Y-87279661D01*
X160439978Y-87341973D01*
X160434913Y-87412788D01*
X160405952Y-87457851D01*
X160374364Y-87489439D01*
X160369614Y-87498138D01*
X160381970Y-87502251D01*
X160498885Y-87502251D01*
X160514124Y-87497776D01*
X160515329Y-87496386D01*
X160517000Y-87488703D01*
X160517000Y-86513007D01*
X160515563Y-86499645D01*
X160473038Y-86304161D01*
X160464545Y-86283656D01*
X160396574Y-86177890D01*
X160384888Y-86164403D01*
X160288160Y-86080588D01*
X160273152Y-86070943D01*
X160156725Y-86017773D01*
X160139612Y-86012748D01*
X160008446Y-85993889D01*
X159999505Y-85993250D01*
X159026115Y-85993250D01*
X159010876Y-85997725D01*
X159009671Y-85999115D01*
X159008000Y-86006798D01*
X158498660Y-86006798D01*
X158495526Y-85996126D01*
X158494136Y-85994921D01*
X158486453Y-85993250D01*
X157510757Y-85993250D01*
X157497395Y-85994687D01*
X157301911Y-86037212D01*
X157281406Y-86045705D01*
X157175640Y-86113676D01*
X157162153Y-86125362D01*
X157078338Y-86222090D01*
X157068693Y-86237098D01*
X157015523Y-86353525D01*
X157010498Y-86370638D01*
X156991639Y-86501804D01*
X156991000Y-86510745D01*
X152755555Y-86510745D01*
X152701153Y-86439847D01*
X152575750Y-86343622D01*
X152429715Y-86283132D01*
X152273000Y-86262500D01*
X152116285Y-86283132D01*
X151970250Y-86343622D01*
X151844847Y-86439847D01*
X151748622Y-86565250D01*
X151688132Y-86711285D01*
X151667500Y-86868000D01*
X151688132Y-87024715D01*
X151748622Y-87170750D01*
X151794464Y-87230492D01*
X151820500Y-87307194D01*
X151820501Y-102138312D01*
X151820501Y-106561616D01*
X151800499Y-106629737D01*
X151746843Y-106676230D01*
X151676569Y-106686334D01*
X151611989Y-106656840D01*
X151584302Y-106622707D01*
X151581294Y-106617281D01*
X151581292Y-106617277D01*
X151578196Y-106611693D01*
X151445378Y-106456731D01*
X151436344Y-106449723D01*
X151314877Y-106355505D01*
X151284112Y-106331641D01*
X151278391Y-106328826D01*
X151278388Y-106328824D01*
X151144871Y-106263126D01*
X151092580Y-106215103D01*
X151074500Y-106150071D01*
X151074500Y-104982548D01*
X151094502Y-104914427D01*
X151123796Y-104882585D01*
X151162027Y-104853250D01*
X151202553Y-104822153D01*
X151298778Y-104696750D01*
X151359268Y-104550715D01*
X151379900Y-104394000D01*
X151359268Y-104237285D01*
X151298778Y-104091250D01*
X151223003Y-103992498D01*
X151207576Y-103972393D01*
X151202553Y-103965847D01*
X151077150Y-103869622D01*
X150931115Y-103809132D01*
X150774400Y-103788500D01*
X150617685Y-103809132D01*
X150471650Y-103869622D01*
X150346247Y-103965847D01*
X150341224Y-103972393D01*
X150325797Y-103992498D01*
X150250022Y-104091250D01*
X150189532Y-104237285D01*
X150168900Y-104394000D01*
X150189532Y-104550715D01*
X150250022Y-104696750D01*
X150346247Y-104822153D01*
X150352793Y-104827176D01*
X150352797Y-104827180D01*
X150374205Y-104843607D01*
X150416072Y-104900945D01*
X150423501Y-104943569D01*
X150423500Y-106149390D01*
X150403498Y-106217511D01*
X150341008Y-106267640D01*
X150306333Y-106280398D01*
X150300917Y-106283756D01*
X150300913Y-106283758D01*
X150138298Y-106384583D01*
X150138297Y-106384584D01*
X150132875Y-106387946D01*
X150017563Y-106496992D01*
X150017073Y-106497455D01*
X149953835Y-106529727D01*
X149883189Y-106522687D01*
X149827563Y-106478570D01*
X149804500Y-106405907D01*
X149804500Y-88834058D01*
X149824502Y-88765937D01*
X149853796Y-88734095D01*
X149900607Y-88698176D01*
X149907153Y-88693153D01*
X149926817Y-88667527D01*
X149963759Y-88619383D01*
X150003378Y-88567750D01*
X150063868Y-88421715D01*
X150084500Y-88265000D01*
X150063868Y-88108285D01*
X150003378Y-87962250D01*
X149907153Y-87836847D01*
X149781750Y-87740622D01*
X149635715Y-87680132D01*
X149479000Y-87659500D01*
X149322285Y-87680132D01*
X149314658Y-87683291D01*
X149314655Y-87683292D01*
X149184223Y-87737319D01*
X149113633Y-87744908D01*
X149050146Y-87713129D01*
X149013919Y-87652071D01*
X149016453Y-87581119D01*
X149046910Y-87531815D01*
X149214077Y-87364649D01*
X152396321Y-84182405D01*
X152485416Y-84145500D01*
X158180942Y-84145500D01*
X158249063Y-84165502D01*
X158280905Y-84194796D01*
X158321847Y-84248153D01*
X158447250Y-84344378D01*
X158593285Y-84404868D01*
X158750000Y-84425500D01*
X158758188Y-84424422D01*
X158812650Y-84417252D01*
X158906715Y-84404868D01*
X159052750Y-84344378D01*
X159178153Y-84248153D01*
X159274378Y-84122750D01*
X159334868Y-83976715D01*
X159355500Y-83820000D01*
X159334868Y-83663285D01*
X159330827Y-83653528D01*
X159308537Y-83599717D01*
X159274378Y-83517250D01*
X159178153Y-83391847D01*
X159052750Y-83295622D01*
X158906715Y-83235132D01*
X158750000Y-83214500D01*
X158593285Y-83235132D01*
X158447250Y-83295622D01*
X158321847Y-83391847D01*
X158316824Y-83398393D01*
X158280905Y-83445204D01*
X158223567Y-83487071D01*
X158180942Y-83494500D01*
X152317858Y-83494500D01*
X152306875Y-83494020D01*
X152280581Y-83491719D01*
X152280579Y-83491719D01*
X152269594Y-83490758D01*
X152258944Y-83493612D01*
X152258942Y-83493612D01*
X152233205Y-83500509D01*
X152222472Y-83502889D01*
X152185362Y-83509432D01*
X152175814Y-83514945D01*
X152172533Y-83516139D01*
X152169371Y-83517614D01*
X152158724Y-83520466D01*
X152149698Y-83526786D01*
X152149692Y-83526789D01*
X152127861Y-83542076D01*
X152118589Y-83547983D01*
X152085959Y-83566822D01*
X152078872Y-83575267D01*
X152078873Y-83575267D01*
X152061887Y-83595510D01*
X152054460Y-83603614D01*
X145452615Y-90205460D01*
X145444511Y-90212887D01*
X145415823Y-90236959D01*
X145410312Y-90246504D01*
X145410309Y-90246508D01*
X145396980Y-90269595D01*
X145391075Y-90278865D01*
X145369466Y-90309726D01*
X145366613Y-90320374D01*
X145365143Y-90323526D01*
X145363947Y-90326811D01*
X145358433Y-90336362D01*
X145356519Y-90347218D01*
X145356518Y-90347220D01*
X145351891Y-90373464D01*
X145349511Y-90384198D01*
X145339758Y-90420595D01*
X145340719Y-90431574D01*
X145343022Y-90457902D01*
X145343501Y-90468884D01*
X145343500Y-106149390D01*
X145323498Y-106217511D01*
X145261008Y-106267640D01*
X145226333Y-106280398D01*
X145220917Y-106283756D01*
X145220913Y-106283758D01*
X145058298Y-106384583D01*
X145058297Y-106384584D01*
X145052875Y-106387946D01*
X145034151Y-106405652D01*
X144912160Y-106521014D01*
X144904586Y-106528176D01*
X144900924Y-106533406D01*
X144900923Y-106533407D01*
X144812985Y-106658996D01*
X144787523Y-106695359D01*
X144706468Y-106882667D01*
X144705163Y-106888914D01*
X144705162Y-106888917D01*
X144666038Y-107076193D01*
X144666037Y-107076198D01*
X144664732Y-107082447D01*
X144664586Y-107124276D01*
X144664088Y-107266900D01*
X144664019Y-107286539D01*
X144704360Y-107486606D01*
X144706854Y-107492481D01*
X144765705Y-107631124D01*
X144784106Y-107674475D01*
X144899999Y-107842471D01*
X145047305Y-107983733D01*
X145052701Y-107987131D01*
X145214604Y-108089088D01*
X145214608Y-108089090D01*
X145220007Y-108092490D01*
X145225981Y-108094735D01*
X145225984Y-108094737D01*
X145259831Y-108107459D01*
X145316559Y-108150150D01*
X145341500Y-108225403D01*
X145341501Y-111867780D01*
X145341022Y-111878761D01*
X145337766Y-111915979D01*
X145340618Y-111926621D01*
X145340618Y-111926626D01*
X145347586Y-111952629D01*
X145349966Y-111963363D01*
X145353699Y-111984533D01*
X145356553Y-112000722D01*
X145362065Y-112010269D01*
X145363292Y-112013640D01*
X145364801Y-112016876D01*
X145367653Y-112027520D01*
X145373973Y-112036546D01*
X145373976Y-112036552D01*
X145389416Y-112058602D01*
X145395322Y-112067872D01*
X145408599Y-112090868D01*
X145414291Y-112100727D01*
X145418859Y-112104560D01*
X145446648Y-112199902D01*
X145440641Y-112245527D01*
X145438476Y-112261976D01*
X145459108Y-112418691D01*
X145519598Y-112564726D01*
X145615823Y-112690129D01*
X145741226Y-112786354D01*
X145809816Y-112814765D01*
X145865096Y-112859314D01*
X145887517Y-112926678D01*
X145850692Y-113020269D01*
X144365293Y-114505669D01*
X144302981Y-114539694D01*
X144232166Y-114534630D01*
X144199494Y-114516537D01*
X144110291Y-114448090D01*
X144103740Y-114443063D01*
X143957705Y-114382573D01*
X143800990Y-114361941D01*
X143644275Y-114382573D01*
X143636648Y-114385732D01*
X143636645Y-114385733D01*
X143630722Y-114388187D01*
X143560132Y-114395779D01*
X143496644Y-114364001D01*
X143456500Y-114271780D01*
X143456500Y-108224581D01*
X143476502Y-108156460D01*
X143527661Y-108111141D01*
X143652373Y-108050853D01*
X143652375Y-108050852D01*
X143658121Y-108048074D01*
X143663190Y-108044198D01*
X143663194Y-108044196D01*
X143802975Y-107937325D01*
X143820256Y-107924113D01*
X143954153Y-107770081D01*
X144054343Y-107592272D01*
X144116733Y-107397949D01*
X144131170Y-107265055D01*
X144138420Y-107198321D01*
X144138420Y-107198314D01*
X144138775Y-107195050D01*
X144138800Y-107188000D01*
X144118175Y-106984952D01*
X144057143Y-106790197D01*
X143958196Y-106611693D01*
X143825378Y-106456731D01*
X143816344Y-106449723D01*
X143694877Y-106355505D01*
X143664112Y-106331641D01*
X143480988Y-106241533D01*
X143474810Y-106239924D01*
X143474808Y-106239923D01*
X143289667Y-106191697D01*
X143289664Y-106191697D01*
X143283485Y-106190087D01*
X143195902Y-106185497D01*
X143086053Y-106179740D01*
X143086049Y-106179740D01*
X143079672Y-106179406D01*
X142937522Y-106200904D01*
X142884187Y-106208970D01*
X142884186Y-106208970D01*
X142877873Y-106209925D01*
X142871887Y-106212128D01*
X142871881Y-106212129D01*
X142772029Y-106248868D01*
X142686333Y-106280398D01*
X142680917Y-106283756D01*
X142680913Y-106283758D01*
X142518298Y-106384583D01*
X142518297Y-106384584D01*
X142512875Y-106387946D01*
X142494151Y-106405652D01*
X142372160Y-106521014D01*
X142364586Y-106528176D01*
X142360924Y-106533406D01*
X142360923Y-106533407D01*
X142272985Y-106658996D01*
X142247523Y-106695359D01*
X142166468Y-106882667D01*
X142165163Y-106888914D01*
X142165162Y-106888917D01*
X142126038Y-107076193D01*
X142126037Y-107076198D01*
X142124732Y-107082447D01*
X142124586Y-107124276D01*
X142124088Y-107266900D01*
X142124019Y-107286539D01*
X142164360Y-107486606D01*
X142166854Y-107492481D01*
X142166857Y-107492490D01*
X142223934Y-107626955D01*
X142232140Y-107697475D01*
X142200916Y-107761237D01*
X142124399Y-107801109D01*
X142091472Y-107805444D01*
X142091471Y-107805444D01*
X142083285Y-107806522D01*
X141937250Y-107867012D01*
X141930699Y-107872039D01*
X141907316Y-107889981D01*
X141841095Y-107915581D01*
X141771546Y-107901316D01*
X141735612Y-107872239D01*
X141731178Y-107864559D01*
X141702496Y-107840492D01*
X141694392Y-107833065D01*
X141553964Y-107692637D01*
X141519938Y-107630325D01*
X141523091Y-107565025D01*
X141554438Y-107467391D01*
X141576733Y-107397949D01*
X141591170Y-107265055D01*
X141598420Y-107198321D01*
X141598420Y-107198314D01*
X141598775Y-107195050D01*
X141598800Y-107188000D01*
X141578175Y-106984952D01*
X141517143Y-106790197D01*
X141418196Y-106611693D01*
X141285378Y-106456731D01*
X141276344Y-106449723D01*
X141154877Y-106355505D01*
X141124112Y-106331641D01*
X140940988Y-106241533D01*
X140934812Y-106239924D01*
X140934806Y-106239922D01*
X140925241Y-106237431D01*
X140864361Y-106200904D01*
X140832895Y-106137262D01*
X140840831Y-106066710D01*
X140885650Y-106011649D01*
X140957001Y-105989500D01*
X141416942Y-105989500D01*
X141485063Y-106009502D01*
X141516905Y-106038796D01*
X141557847Y-106092153D01*
X141683250Y-106188378D01*
X141829285Y-106248868D01*
X141986000Y-106269500D01*
X141994188Y-106268422D01*
X142134527Y-106249946D01*
X142142715Y-106248868D01*
X142288750Y-106188378D01*
X142414153Y-106092153D01*
X142510378Y-105966750D01*
X142570868Y-105820715D01*
X142591500Y-105664000D01*
X142570868Y-105507285D01*
X142510378Y-105361250D01*
X142414153Y-105235847D01*
X142288750Y-105139622D01*
X142142715Y-105079132D01*
X141986000Y-105058500D01*
X141829285Y-105079132D01*
X141683250Y-105139622D01*
X141557847Y-105235847D01*
X141552824Y-105242393D01*
X141516905Y-105289204D01*
X141459567Y-105331071D01*
X141416942Y-105338500D01*
X140460352Y-105338500D01*
X140449369Y-105338020D01*
X140423075Y-105335719D01*
X140423073Y-105335719D01*
X140412088Y-105334758D01*
X140401438Y-105337612D01*
X140401436Y-105337612D01*
X140375699Y-105344509D01*
X140364966Y-105346889D01*
X140327856Y-105353432D01*
X140318308Y-105358945D01*
X140315027Y-105360139D01*
X140311865Y-105361614D01*
X140301218Y-105364466D01*
X140292192Y-105370786D01*
X140292186Y-105370789D01*
X140270355Y-105386076D01*
X140261083Y-105391983D01*
X140228453Y-105410822D01*
X140221366Y-105419267D01*
X140221367Y-105419267D01*
X140204387Y-105439503D01*
X140196961Y-105447607D01*
X139242808Y-106401761D01*
X139234704Y-106409187D01*
X139206022Y-106433254D01*
X139200511Y-106442799D01*
X139200508Y-106442803D01*
X139187179Y-106465890D01*
X139181274Y-106475160D01*
X139159665Y-106506021D01*
X139156812Y-106516669D01*
X139155342Y-106519821D01*
X139154146Y-106523106D01*
X139148632Y-106532657D01*
X139146718Y-106543513D01*
X139146717Y-106543515D01*
X139142090Y-106569759D01*
X139139710Y-106580493D01*
X139129957Y-106616890D01*
X139126259Y-106615899D01*
X139107751Y-106663224D01*
X139050250Y-106704867D01*
X138979363Y-106708812D01*
X138897887Y-106647217D01*
X138893549Y-106639390D01*
X138878196Y-106611693D01*
X138745378Y-106456731D01*
X138736344Y-106449723D01*
X138614877Y-106355505D01*
X138584112Y-106331641D01*
X138400988Y-106241533D01*
X138394810Y-106239924D01*
X138394808Y-106239923D01*
X138209667Y-106191697D01*
X138209664Y-106191697D01*
X138203485Y-106190087D01*
X138115902Y-106185497D01*
X138006053Y-106179740D01*
X138006049Y-106179740D01*
X137999672Y-106179406D01*
X137857522Y-106200904D01*
X137804187Y-106208970D01*
X137804186Y-106208970D01*
X137797873Y-106209925D01*
X137791887Y-106212128D01*
X137791881Y-106212129D01*
X137692029Y-106248868D01*
X137606333Y-106280398D01*
X137600917Y-106283756D01*
X137600913Y-106283758D01*
X137438298Y-106384583D01*
X137438297Y-106384584D01*
X137432875Y-106387946D01*
X137401672Y-106417453D01*
X137338435Y-106449723D01*
X137267789Y-106442683D01*
X137212163Y-106398566D01*
X137189101Y-106325903D01*
X137189101Y-102504227D01*
X137189974Y-102489418D01*
X137192779Y-102465717D01*
X137193886Y-102456365D01*
X137183862Y-102401477D01*
X137183212Y-102397574D01*
X137176311Y-102351673D01*
X137174911Y-102342358D01*
X137171932Y-102336153D01*
X137170696Y-102329388D01*
X137144953Y-102279830D01*
X137143204Y-102276328D01*
X137133252Y-102255602D01*
X137119037Y-102226001D01*
X137114368Y-102220950D01*
X137111195Y-102214842D01*
X137108347Y-102211508D01*
X137074312Y-102177473D01*
X137070882Y-102173907D01*
X137037809Y-102138128D01*
X137037807Y-102138126D01*
X137031419Y-102131216D01*
X137024976Y-102127474D01*
X137018621Y-102121782D01*
X136776975Y-101880136D01*
X136525541Y-101628703D01*
X136489714Y-101556053D01*
X136483090Y-101505734D01*
X136474868Y-101443285D01*
X136414378Y-101297250D01*
X136345137Y-101207013D01*
X136319100Y-101130309D01*
X136319100Y-95479928D01*
X136356005Y-95390833D01*
X137639298Y-94107541D01*
X137711946Y-94071714D01*
X137824715Y-94056868D01*
X137970750Y-93996378D01*
X138096153Y-93900153D01*
X138192378Y-93774750D01*
X138252868Y-93628715D01*
X138273500Y-93472000D01*
X138252868Y-93315285D01*
X138192378Y-93169250D01*
X138096153Y-93043847D01*
X137970750Y-92947622D01*
X137824715Y-92887132D01*
X137668000Y-92866500D01*
X137511285Y-92887132D01*
X137365250Y-92947622D01*
X137239847Y-93043847D01*
X137143622Y-93169250D01*
X137083132Y-93315285D01*
X137082054Y-93323473D01*
X137068286Y-93428053D01*
X137032459Y-93500702D01*
X135610795Y-94922367D01*
X135599706Y-94932222D01*
X135573555Y-94952838D01*
X135568200Y-94960585D01*
X135568199Y-94960587D01*
X135541819Y-94998757D01*
X135539524Y-95001969D01*
X135506358Y-95046872D01*
X135504079Y-95053361D01*
X135500166Y-95059023D01*
X135497328Y-95067997D01*
X135497326Y-95068001D01*
X135483331Y-95112255D01*
X135482078Y-95116011D01*
X135466711Y-95159768D01*
X135466710Y-95159774D01*
X135463590Y-95168658D01*
X135463320Y-95175529D01*
X135461244Y-95182093D01*
X135460900Y-95186464D01*
X135460900Y-95234638D01*
X135460803Y-95239584D01*
X135458522Y-95297635D01*
X135460431Y-95304837D01*
X135460900Y-95313350D01*
X135460901Y-101130308D01*
X135434864Y-101207012D01*
X135365622Y-101297250D01*
X135305132Y-101443285D01*
X135284500Y-101600000D01*
X135305132Y-101756715D01*
X135365622Y-101902750D01*
X135370649Y-101909301D01*
X135443978Y-102004865D01*
X135461847Y-102028153D01*
X135587250Y-102124378D01*
X135733285Y-102184868D01*
X135846053Y-102199714D01*
X135918703Y-102235541D01*
X136293998Y-102610837D01*
X136330902Y-102699932D01*
X136330901Y-106296899D01*
X136310899Y-106365020D01*
X136257243Y-106411513D01*
X136186969Y-106421616D01*
X136127675Y-106396459D01*
X136123274Y-106393045D01*
X136044112Y-106331641D01*
X135860988Y-106241533D01*
X135854810Y-106239924D01*
X135854808Y-106239923D01*
X135669667Y-106191697D01*
X135669664Y-106191697D01*
X135663485Y-106190087D01*
X135575902Y-106185497D01*
X135466053Y-106179740D01*
X135466049Y-106179740D01*
X135459672Y-106179406D01*
X135317522Y-106200904D01*
X135264187Y-106208970D01*
X135264186Y-106208970D01*
X135257873Y-106209925D01*
X135251887Y-106212128D01*
X135251881Y-106212129D01*
X135152029Y-106248868D01*
X135066333Y-106280398D01*
X135060917Y-106283756D01*
X135060913Y-106283758D01*
X134898298Y-106384583D01*
X134898297Y-106384584D01*
X134892875Y-106387946D01*
X134874151Y-106405652D01*
X134752160Y-106521014D01*
X134744586Y-106528176D01*
X134740924Y-106533406D01*
X134740923Y-106533407D01*
X134666713Y-106639390D01*
X134611256Y-106683718D01*
X134540637Y-106691027D01*
X134477276Y-106658996D01*
X134437500Y-106567119D01*
X134437500Y-88453058D01*
X134457502Y-88384937D01*
X134486796Y-88353095D01*
X134533607Y-88317176D01*
X134540153Y-88312153D01*
X134636378Y-88186750D01*
X134696868Y-88040715D01*
X134717500Y-87884000D01*
X134696868Y-87727285D01*
X134636378Y-87581250D01*
X134540153Y-87455847D01*
X134414750Y-87359622D01*
X134268715Y-87299132D01*
X134112000Y-87278500D01*
X133955285Y-87299132D01*
X133809250Y-87359622D01*
X133683847Y-87455847D01*
X133587622Y-87581250D01*
X133527132Y-87727285D01*
X133506500Y-87884000D01*
X133527132Y-88040715D01*
X133587622Y-88186750D01*
X133683847Y-88312153D01*
X133690393Y-88317176D01*
X133737204Y-88353095D01*
X133779071Y-88410433D01*
X133786500Y-88453058D01*
X133786501Y-106293486D01*
X133766499Y-106361607D01*
X133712843Y-106408100D01*
X133642569Y-106418204D01*
X133583275Y-106393046D01*
X133582355Y-106392332D01*
X133504112Y-106331641D01*
X133320988Y-106241533D01*
X133314810Y-106239924D01*
X133314808Y-106239923D01*
X133129667Y-106191697D01*
X133129664Y-106191697D01*
X133123485Y-106190087D01*
X133035902Y-106185497D01*
X132926053Y-106179740D01*
X132926049Y-106179740D01*
X132919672Y-106179406D01*
X132777522Y-106200904D01*
X132724187Y-106208970D01*
X132724186Y-106208970D01*
X132717873Y-106209925D01*
X132711887Y-106212128D01*
X132711881Y-106212129D01*
X132612029Y-106248868D01*
X132526333Y-106280398D01*
X132520917Y-106283756D01*
X132520913Y-106283758D01*
X132358298Y-106384583D01*
X132358297Y-106384584D01*
X132352875Y-106387946D01*
X132334151Y-106405652D01*
X132212160Y-106521014D01*
X132204586Y-106528176D01*
X132200924Y-106533406D01*
X132200923Y-106533407D01*
X132112985Y-106658996D01*
X132087523Y-106695359D01*
X132006468Y-106882667D01*
X132005163Y-106888914D01*
X132005162Y-106888917D01*
X131966038Y-107076193D01*
X131966037Y-107076198D01*
X131964732Y-107082447D01*
X131964586Y-107124276D01*
X131964088Y-107266900D01*
X131964019Y-107286539D01*
X124608450Y-107286539D01*
X124654162Y-107266900D01*
X124654164Y-107266899D01*
X124658456Y-107265055D01*
X124766297Y-107198321D01*
X124881979Y-107126735D01*
X124881983Y-107126732D01*
X124885952Y-107124276D01*
X125090141Y-106951417D01*
X125150433Y-106882667D01*
X125263455Y-106753791D01*
X125263459Y-106753786D01*
X125266537Y-106750276D01*
X125411265Y-106525272D01*
X125521145Y-106281346D01*
X125581679Y-106066710D01*
X125592494Y-106028363D01*
X125592495Y-106028360D01*
X125593764Y-106023859D01*
X125610976Y-105888562D01*
X125627128Y-105761596D01*
X125627128Y-105761592D01*
X125627526Y-105758466D01*
X125627716Y-105751242D01*
X125629517Y-105682433D01*
X125630000Y-105664000D01*
X125624440Y-105589176D01*
X125610521Y-105401869D01*
X125610520Y-105401865D01*
X125610174Y-105397204D01*
X125602039Y-105361250D01*
X125552161Y-105140826D01*
X125551130Y-105136269D01*
X125531951Y-105086951D01*
X125455859Y-104891280D01*
X125455858Y-104891278D01*
X125454166Y-104886927D01*
X125451685Y-104882585D01*
X125401970Y-104795602D01*
X125321413Y-104654657D01*
X125155786Y-104444560D01*
X124960923Y-104261252D01*
X124957076Y-104258583D01*
X124744949Y-104111424D01*
X124744946Y-104111422D01*
X124741107Y-104108759D01*
X124725566Y-104101095D01*
X124505353Y-103992498D01*
X124505350Y-103992497D01*
X124501165Y-103990433D01*
X124447664Y-103973307D01*
X124327212Y-103934750D01*
X124246369Y-103908872D01*
X124101111Y-103885216D01*
X123986928Y-103866620D01*
X123986927Y-103866620D01*
X123982316Y-103865869D01*
X123848561Y-103864118D01*
X123719484Y-103862428D01*
X123719481Y-103862428D01*
X123714807Y-103862367D01*
X123449719Y-103898444D01*
X123192876Y-103973307D01*
X122949919Y-104085311D01*
X122917309Y-104106691D01*
X122730099Y-104229431D01*
X122730094Y-104229435D01*
X122726186Y-104231997D01*
X122526592Y-104410142D01*
X122355521Y-104615831D01*
X122353092Y-104619834D01*
X122219198Y-104840485D01*
X122216733Y-104844547D01*
X122113276Y-105091265D01*
X122112125Y-105095797D01*
X122050712Y-105337612D01*
X122047422Y-105350565D01*
X122020619Y-105616751D01*
X116151000Y-105616751D01*
X116151000Y-84641428D01*
X116153431Y-84621439D01*
X116152994Y-84621382D01*
X116153912Y-84614308D01*
X116155619Y-84607394D01*
X116158069Y-84454636D01*
X116159131Y-84440211D01*
X116192887Y-84183805D01*
X116196102Y-84167640D01*
X116262350Y-83920398D01*
X116267648Y-83904791D01*
X116326934Y-83761663D01*
X116365604Y-83668306D01*
X116372892Y-83653528D01*
X116418077Y-83575267D01*
X116500874Y-83431858D01*
X116510029Y-83418158D01*
X116525196Y-83398393D01*
X116665851Y-83215089D01*
X116676718Y-83202698D01*
X116857702Y-83021714D01*
X116870093Y-83010846D01*
X117073168Y-82855022D01*
X117086871Y-82845866D01*
X117308542Y-82717883D01*
X117323309Y-82710602D01*
X117492952Y-82640333D01*
X117559794Y-82612647D01*
X117575401Y-82607349D01*
X117822635Y-82541103D01*
X117838800Y-82537888D01*
X118095211Y-82504131D01*
X118109636Y-82503069D01*
X118146621Y-82502476D01*
X118262202Y-82500622D01*
X118269069Y-82498939D01*
X118276085Y-82498035D01*
X118276136Y-82498432D01*
X118296277Y-82496000D01*
X123851183Y-82496000D01*
X123876822Y-82498636D01*
X123890222Y-82501421D01*
X123897340Y-82501271D01*
X123897344Y-82501271D01*
X124014784Y-82498791D01*
X124023922Y-82498930D01*
X124025606Y-82499017D01*
X124025615Y-82499016D01*
X124032728Y-82499383D01*
X124038930Y-82498289D01*
X124038939Y-82498289D01*
X124039006Y-82498279D01*
X124045148Y-82498149D01*
X124053716Y-82496003D01*
X124062449Y-82494142D01*
X124111341Y-82485521D01*
X124269523Y-82457630D01*
X124275936Y-82456669D01*
X124276373Y-82456615D01*
X124286683Y-82455340D01*
X124290606Y-82453912D01*
X124294531Y-82453220D01*
X124301046Y-82450475D01*
X124301048Y-82450474D01*
X124304474Y-82449030D01*
X124310300Y-82446744D01*
X124512612Y-82373109D01*
X124518761Y-82371048D01*
X124522310Y-82369960D01*
X124522315Y-82369958D01*
X124529133Y-82367867D01*
X124532747Y-82365780D01*
X124536493Y-82364417D01*
X124542437Y-82360579D01*
X124542441Y-82360577D01*
X124545563Y-82358561D01*
X124550904Y-82355297D01*
X124737355Y-82247650D01*
X124743051Y-82244554D01*
X124746350Y-82242869D01*
X124752709Y-82239622D01*
X124755907Y-82236938D01*
X124759358Y-82234946D01*
X124767264Y-82227612D01*
X124771964Y-82223465D01*
X124805468Y-82195352D01*
X124870509Y-82166888D01*
X124940614Y-82178105D01*
X125007176Y-82255771D01*
X125026304Y-82319730D01*
X125031535Y-82327558D01*
X125031536Y-82327561D01*
X125096235Y-82424390D01*
X125101468Y-82432221D01*
X125206386Y-82517638D01*
X125215117Y-82521174D01*
X125215118Y-82521175D01*
X125264319Y-82541103D01*
X125331782Y-82568428D01*
X125341167Y-82569241D01*
X125341168Y-82569241D01*
X125457190Y-82579290D01*
X125457193Y-82579290D01*
X125466570Y-82580102D01*
X125475771Y-82578121D01*
X125475773Y-82578121D01*
X125589627Y-82553609D01*
X125589630Y-82553608D01*
X125598831Y-82551627D01*
X125607043Y-82547028D01*
X125607046Y-82547027D01*
X125693177Y-82498791D01*
X125716873Y-82485521D01*
X125745791Y-82455207D01*
X125807280Y-82419724D01*
X125878196Y-82423118D01*
X125916509Y-82444467D01*
X125932678Y-82457630D01*
X125985482Y-82500619D01*
X126006386Y-82517638D01*
X126015117Y-82521174D01*
X126015118Y-82521175D01*
X126064319Y-82541103D01*
X126131782Y-82568428D01*
X126141167Y-82569241D01*
X126141168Y-82569241D01*
X126257190Y-82579290D01*
X126257193Y-82579290D01*
X126266570Y-82580102D01*
X126275771Y-82578121D01*
X126275773Y-82578121D01*
X126389627Y-82553609D01*
X126389630Y-82553608D01*
X126398831Y-82551627D01*
X126407043Y-82547028D01*
X126407046Y-82547027D01*
X126493177Y-82498791D01*
X126516873Y-82485521D01*
X126545791Y-82455207D01*
X126607280Y-82419724D01*
X126678196Y-82423118D01*
X126716509Y-82444467D01*
X126732678Y-82457630D01*
X126785482Y-82500619D01*
X126806386Y-82517638D01*
X126815117Y-82521174D01*
X126815118Y-82521175D01*
X126864319Y-82541103D01*
X126931782Y-82568428D01*
X126941167Y-82569241D01*
X126941168Y-82569241D01*
X127057190Y-82579290D01*
X127057193Y-82579290D01*
X127066570Y-82580102D01*
X127075771Y-82578121D01*
X127075773Y-82578121D01*
X127189627Y-82553609D01*
X127189630Y-82553608D01*
X127198831Y-82551627D01*
X127207043Y-82547028D01*
X127207046Y-82547027D01*
X127293177Y-82498791D01*
X127316873Y-82485521D01*
X127410258Y-82387627D01*
X127470731Y-82266603D01*
X127472278Y-82257309D01*
X127472844Y-82255567D01*
X127512919Y-82196962D01*
X127578316Y-82169326D01*
X127673669Y-82197985D01*
X127700400Y-82220415D01*
X127703700Y-82223184D01*
X127708537Y-82227459D01*
X127716476Y-82234850D01*
X127720088Y-82236936D01*
X127723142Y-82239498D01*
X127729429Y-82242722D01*
X127729432Y-82242724D01*
X127732731Y-82244415D01*
X127738233Y-82247411D01*
X127771474Y-82266603D01*
X127924717Y-82355080D01*
X127930245Y-82358465D01*
X127933342Y-82360472D01*
X127939327Y-82364351D01*
X127943246Y-82365777D01*
X127946699Y-82367771D01*
X127957024Y-82370957D01*
X127962953Y-82372950D01*
X128159446Y-82444467D01*
X128165240Y-82446576D01*
X128171282Y-82448953D01*
X128174715Y-82450407D01*
X128174720Y-82450408D01*
X128181281Y-82453187D01*
X128185395Y-82453912D01*
X128189136Y-82455274D01*
X128196159Y-82456155D01*
X128196158Y-82456155D01*
X128199823Y-82456615D01*
X128206007Y-82457547D01*
X128297384Y-82473659D01*
X128413166Y-82494074D01*
X128422109Y-82495988D01*
X128423746Y-82496401D01*
X128423751Y-82496402D01*
X128430660Y-82498145D01*
X128436949Y-82498278D01*
X128436964Y-82498280D01*
X128437038Y-82498283D01*
X128443082Y-82499349D01*
X128451905Y-82498910D01*
X128460819Y-82498782D01*
X128507508Y-82499768D01*
X128578517Y-82501268D01*
X128578520Y-82501268D01*
X128585586Y-82501417D01*
X128599300Y-82498592D01*
X128624722Y-82496000D01*
X156617183Y-82496000D01*
X156642822Y-82498636D01*
X156656222Y-82501421D01*
X156663340Y-82501271D01*
X156663344Y-82501271D01*
X156780784Y-82498791D01*
X156789922Y-82498930D01*
X156791606Y-82499017D01*
X156791615Y-82499016D01*
X156798728Y-82499383D01*
X156804930Y-82498289D01*
X156804939Y-82498289D01*
X156805006Y-82498279D01*
X156811148Y-82498149D01*
X156819716Y-82496003D01*
X156828449Y-82494142D01*
X156877341Y-82485521D01*
X157035523Y-82457630D01*
X157041936Y-82456669D01*
X157042373Y-82456615D01*
X157052683Y-82455340D01*
X157056606Y-82453912D01*
X157060531Y-82453220D01*
X157067046Y-82450475D01*
X157067048Y-82450474D01*
X157070474Y-82449030D01*
X157076300Y-82446744D01*
X157278612Y-82373109D01*
X157284761Y-82371048D01*
X157288310Y-82369960D01*
X157288315Y-82369958D01*
X157295133Y-82367867D01*
X157298747Y-82365780D01*
X157302493Y-82364417D01*
X157308437Y-82360579D01*
X157308441Y-82360577D01*
X157311563Y-82358561D01*
X157316904Y-82355297D01*
X157503355Y-82247650D01*
X157509051Y-82244554D01*
X157512350Y-82242869D01*
X157518709Y-82239622D01*
X157521907Y-82236938D01*
X157525358Y-82234946D01*
X157533264Y-82227612D01*
X157537964Y-82223465D01*
X157571468Y-82195352D01*
X157636509Y-82166888D01*
X157706614Y-82178105D01*
G37*
G04 #@! TD.AperFunction*
M02*
