M48
; DRILL file {KiCad (5.1.5-0)} date Wednesday, December 11, 2019 at 05:32:06 PM
; FORMAT={2:4/ absolute / inch / keep zeros}
; #@! TF.CreationDate,2019-12-11T17:32:06-05:00
; #@! TF.GenerationSoftware,Kicad,Pcbnew,(5.1.5-0)
FMAT,2
INCH
T1C0.0079
T2C0.0157
T3C0.0276
T4C0.0374
T5C0.0394
T6C0.1673
%
G90
G05
T1
X041306Y-028906
X041306Y-029300
X041306Y-029694
X041700Y-028906
X041700Y-029300
X041700Y-029694
X042094Y-028906
X042094Y-029300
X042094Y-029694
T2
X036800Y-032900
X037200Y-033300
X037200Y-038400
X037485Y-036107
X037650Y-032400
X037700Y-034100
X037800Y-027900
X038060Y-032750
X038200Y-034000
X038410Y-041300
X038594Y-038030
X038650Y-031450
X038701Y-037651
X039100Y-028900
X039256Y-039606
X039450Y-033000
X039700Y-032000
X039815Y-038320
X039950Y-041550
X040200Y-028500
X040277Y-033285
X040300Y-038550
X040585Y-037750
X040832Y-035140
X040847Y-038671
X040900Y-036465
X040900Y-039600
X041023Y-037977
X041250Y-035100
X041400Y-036600
X041450Y-037100
X041560Y-037489
X041700Y-038950
X041738Y-038288
X041800Y-032400
X041900Y-027750
X042291Y-031609
X042600Y-040250
X043050Y-039250
X043300Y-026600
X043307Y-038743
X043600Y-026000
X043793Y-032607
X044200Y-032100
X044300Y-038600
X044548Y-040548
X044550Y-035800
X044550Y-040100
X044700Y-036500
X045200Y-032100
X045300Y-030400
X045300Y-035700
X045400Y-039500
X045800Y-040950
X046050Y-029900
X046300Y-035700
X046400Y-039200
X046900Y-039600
X047300Y-038700
X047500Y-038300
X047600Y-037800
X047850Y-034750
X049200Y-038800
X049600Y-037006
X049600Y-040700
X050067Y-031567
X050100Y-038800
X050100Y-041500
X050300Y-035700
X050800Y-030600
X050800Y-033200
X051600Y-037006
X052000Y-028500
X053300Y-035500
X054800Y-028900
T3
X036363Y-037016
X036363Y-038984
T4
X054200Y-034700
X054200Y-035700
X054200Y-036700
X054200Y-037700
X054200Y-038700
X054200Y-039700
X054200Y-040700
X054200Y-041700
T5
X035300Y-036622
X035300Y-039378
X037300Y-042200
X038300Y-042200
X039300Y-042200
X040300Y-042200
X041300Y-034200
X041300Y-042200
X042300Y-034200
X042300Y-042200
X043300Y-034200
X043300Y-042200
X044300Y-034200
X044300Y-042200
X045300Y-034200
X045300Y-042200
X046300Y-034200
X046300Y-042200
X047300Y-034200
X047300Y-042200
X048300Y-034200
X048300Y-042200
X049300Y-034200
X049300Y-042200
X050300Y-034200
X050300Y-042200
X051300Y-034200
X051300Y-042200
X052300Y-034200
X052300Y-042200
T6
X051500Y-040400
X048700Y-025900
X036000Y-041000
X036000Y-025900
T5
G00X053994Y-027438
M15
G01X053206Y-027438
M16
G05
G00X054092Y-029800
M15
G01X053108Y-029800
M16
G05
T0
M30
