G04 #@! TF.GenerationSoftware,KiCad,Pcbnew,(5.99.0-11099-g5a43392eae)*
G04 #@! TF.CreationDate,2021-07-16T11:07:13-04:00*
G04 #@! TF.ProjectId,syringe_board,73797269-6e67-4655-9f62-6f6172642e6b,4.4*
G04 #@! TF.SameCoordinates,Original*
G04 #@! TF.FileFunction,Paste,Top*
G04 #@! TF.FilePolarity,Positive*
%FSLAX46Y46*%
G04 Gerber Fmt 4.6, Leading zero omitted, Abs format (unit mm)*
G04 Created by KiCad (PCBNEW (5.99.0-11099-g5a43392eae)) date 2021-07-16 11:07:13*
%MOMM*%
%LPD*%
G01*
G04 APERTURE LIST*
G04 Aperture macros list*
%AMRoundRect*
0 Rectangle with rounded corners*
0 $1 Rounding radius*
0 $2 $3 $4 $5 $6 $7 $8 $9 X,Y pos of 4 corners*
0 Add a 4 corners polygon primitive as box body*
4,1,4,$2,$3,$4,$5,$6,$7,$8,$9,$2,$3,0*
0 Add four circle primitives for the rounded corners*
1,1,$1+$1,$2,$3*
1,1,$1+$1,$4,$5*
1,1,$1+$1,$6,$7*
1,1,$1+$1,$8,$9*
0 Add four rect primitives between the rounded corners*
20,1,$1+$1,$2,$3,$4,$5,0*
20,1,$1+$1,$4,$5,$6,$7,0*
20,1,$1+$1,$6,$7,$8,$9,0*
20,1,$1+$1,$8,$9,$2,$3,0*%
%AMFreePoly0*
4,1,51,0.252459,0.271182,0.254676,0.271776,0.258073,0.270192,0.276402,0.266960,0.290658,0.254997,0.307524,0.247133,0.378144,0.176512,0.381179,0.172177,0.383168,0.171029,0.384451,0.167505,0.395125,0.152260,0.396747,0.133722,0.403112,0.116234,0.403112,-0.186855,0.401159,-0.197929,0.401817,-0.201658,0.399924,-0.204937,0.397971,-0.216011,0.383735,-0.232977,0.372661,-0.252157,
0.365433,-0.254788,0.360489,-0.260680,0.338678,-0.264526,0.317866,-0.272101,-0.317866,-0.272101,-0.328940,-0.270148,-0.332669,-0.270806,-0.335948,-0.268913,-0.347022,-0.266960,-0.363988,-0.252724,-0.383168,-0.241650,-0.385799,-0.234422,-0.391691,-0.229478,-0.395537,-0.207667,-0.403112,-0.186855,-0.403112,0.116234,-0.402193,0.121446,-0.402787,0.123663,-0.401203,0.127060,-0.397971,0.145390,
-0.386008,0.159647,-0.378144,0.176512,-0.307525,0.247132,-0.303189,0.250168,-0.302041,0.252157,-0.298517,0.253440,-0.283273,0.264114,-0.264734,0.265736,-0.247246,0.272101,0.247246,0.272101,0.252459,0.271182,0.252459,0.271182,$1*%
%AMFreePoly1*
4,1,51,0.328940,0.270148,0.332669,0.270806,0.335948,0.268913,0.347022,0.266960,0.363988,0.252724,0.383168,0.241650,0.385799,0.234422,0.391691,0.229478,0.395537,0.207667,0.403112,0.186855,0.403112,-0.116234,0.402193,-0.121446,0.402787,-0.123663,0.401203,-0.127060,0.397971,-0.145390,0.386008,-0.159647,0.378144,-0.176512,0.307524,-0.247133,0.303189,-0.250168,0.302041,-0.252157,
0.298518,-0.253439,0.283273,-0.264114,0.264734,-0.265736,0.247246,-0.272101,-0.247246,-0.272101,-0.252459,-0.271182,-0.254677,-0.271776,-0.258075,-0.270192,-0.276402,-0.266960,-0.290659,-0.254997,-0.307525,-0.247132,-0.378144,-0.176512,-0.381179,-0.172177,-0.383168,-0.171029,-0.384451,-0.167505,-0.395125,-0.152260,-0.396747,-0.133722,-0.403112,-0.116234,-0.403112,0.186855,-0.401159,0.197929,
-0.401817,0.201658,-0.399924,0.204937,-0.397971,0.216011,-0.383735,0.232977,-0.372661,0.252157,-0.365433,0.254788,-0.360489,0.260680,-0.338678,0.264526,-0.317866,0.272101,0.317866,0.272101,0.328940,0.270148,0.328940,0.270148,$1*%
%AMFreePoly2*
4,1,48,0.180784,0.266839,0.197812,0.266839,0.211588,0.256830,0.227783,0.251568,0.237792,0.237792,0.251568,0.227783,0.256830,0.211588,0.266839,0.197812,0.266839,0.180784,0.272101,0.164589,0.272101,-0.164589,0.266839,-0.180784,0.266839,-0.197812,0.256830,-0.211588,0.251568,-0.227783,0.237792,-0.237792,0.227783,-0.251568,0.211588,-0.256830,0.197812,-0.266839,0.180784,-0.266839,
0.164589,-0.272101,-0.075523,-0.272101,-0.083774,-0.269420,-0.092342,-0.270777,-0.114773,-0.259348,-0.138717,-0.251568,-0.143816,-0.244550,-0.151546,-0.240611,-0.240611,-0.151545,-0.244549,-0.143817,-0.251568,-0.138717,-0.259348,-0.114772,-0.270777,-0.092342,-0.269420,-0.083774,-0.272101,-0.075523,-0.272101,0.164589,-0.266839,0.180784,-0.266839,0.197812,-0.256830,0.211588,-0.251568,0.227783,
-0.237792,0.237792,-0.227783,0.251568,-0.211588,0.256830,-0.197812,0.266839,-0.180784,0.266839,-0.164589,0.272101,0.164589,0.272101,0.180784,0.266839,0.180784,0.266839,$1*%
%AMFreePoly3*
4,1,51,0.197929,0.401159,0.201658,0.401817,0.204937,0.399924,0.216011,0.397971,0.232977,0.383735,0.252157,0.372661,0.254788,0.365433,0.260680,0.360489,0.264526,0.338678,0.272101,0.317866,0.272101,-0.317866,0.270148,-0.328940,0.270806,-0.332669,0.268913,-0.335948,0.266960,-0.347022,0.252724,-0.363988,0.241650,-0.383168,0.234422,-0.385799,0.229478,-0.391691,0.207667,-0.395537,
0.186855,-0.403112,-0.116234,-0.403112,-0.121446,-0.402193,-0.123663,-0.402787,-0.127060,-0.401203,-0.145390,-0.397971,-0.159647,-0.386008,-0.176512,-0.378144,-0.247133,-0.307524,-0.250168,-0.303189,-0.252157,-0.302041,-0.253439,-0.298518,-0.264114,-0.283273,-0.265736,-0.264734,-0.272101,-0.247246,-0.272101,0.247246,-0.271182,0.252459,-0.271776,0.254676,-0.270192,0.258073,-0.266960,0.276402,
-0.254997,0.290658,-0.247133,0.307524,-0.176512,0.378144,-0.172177,0.381179,-0.171029,0.383168,-0.167505,0.384451,-0.152260,0.395125,-0.133722,0.396747,-0.116234,0.403112,0.186855,0.403112,0.197929,0.401159,0.197929,0.401159,$1*%
%AMFreePoly4*
4,1,51,0.121446,0.402193,0.123663,0.402787,0.127060,0.401203,0.145390,0.397971,0.159647,0.386008,0.176512,0.378144,0.247132,0.307525,0.250168,0.303189,0.252157,0.302041,0.253440,0.298517,0.264114,0.283273,0.265736,0.264734,0.272101,0.247246,0.272101,-0.247246,0.271182,-0.252459,0.271776,-0.254677,0.270192,-0.258075,0.266960,-0.276402,0.254997,-0.290659,0.247132,-0.307525,
0.176512,-0.378144,0.172177,-0.381179,0.171029,-0.383168,0.167505,-0.384451,0.152260,-0.395125,0.133722,-0.396747,0.116234,-0.403112,-0.186855,-0.403112,-0.197929,-0.401159,-0.201658,-0.401817,-0.204937,-0.399924,-0.216011,-0.397971,-0.232977,-0.383735,-0.252157,-0.372661,-0.254788,-0.365433,-0.260680,-0.360489,-0.264526,-0.338678,-0.272101,-0.317866,-0.272101,0.317866,-0.270148,0.328940,
-0.270806,0.332669,-0.268913,0.335948,-0.266960,0.347022,-0.252724,0.363988,-0.241650,0.383168,-0.234422,0.385799,-0.229478,0.391691,-0.207667,0.395537,-0.186855,0.403112,0.116234,0.403112,0.121446,0.402193,0.121446,0.402193,$1*%
%AMFreePoly5*
4,1,48,0.180784,0.266839,0.197812,0.266839,0.211588,0.256830,0.227783,0.251568,0.237792,0.237792,0.251568,0.227783,0.256830,0.211588,0.266839,0.197812,0.266839,0.180784,0.272101,0.164589,0.272101,-0.075523,0.269420,-0.083774,0.270777,-0.092342,0.259348,-0.114773,0.251568,-0.138717,0.244550,-0.143816,0.240611,-0.151546,0.151545,-0.240611,0.143817,-0.244549,0.138717,-0.251568,
0.114772,-0.259348,0.092342,-0.270777,0.083774,-0.269420,0.075523,-0.272101,-0.164589,-0.272101,-0.180784,-0.266839,-0.197812,-0.266839,-0.211588,-0.256830,-0.227783,-0.251568,-0.237792,-0.237792,-0.251568,-0.227783,-0.256830,-0.211588,-0.266839,-0.197812,-0.266839,-0.180784,-0.272101,-0.164589,-0.272101,0.164589,-0.266839,0.180784,-0.266839,0.197812,-0.256830,0.211588,-0.251568,0.227783,
-0.237792,0.237792,-0.227783,0.251568,-0.211588,0.256830,-0.197812,0.266839,-0.180784,0.266839,-0.164589,0.272101,0.164589,0.272101,0.180784,0.266839,0.180784,0.266839,$1*%
%AMFreePoly6*
4,1,48,0.180784,0.266839,0.197812,0.266839,0.211588,0.256830,0.227783,0.251568,0.237792,0.237792,0.251568,0.227783,0.256830,0.211588,0.266839,0.197812,0.266839,0.180784,0.272101,0.164589,0.272101,-0.164589,0.266839,-0.180784,0.266839,-0.197812,0.256830,-0.211588,0.251568,-0.227783,0.237792,-0.237792,0.227783,-0.251568,0.211588,-0.256830,0.197812,-0.266839,0.180784,-0.266839,
0.164589,-0.272101,-0.164589,-0.272101,-0.180784,-0.266839,-0.197812,-0.266839,-0.211588,-0.256830,-0.227783,-0.251568,-0.237792,-0.237792,-0.251568,-0.227783,-0.256830,-0.211588,-0.266839,-0.197812,-0.266839,-0.180784,-0.272101,-0.164589,-0.272101,0.075523,-0.269420,0.083774,-0.270777,0.092342,-0.259348,0.114772,-0.251568,0.138717,-0.244549,0.143817,-0.240611,0.151545,-0.151546,0.240611,
-0.143816,0.244550,-0.138717,0.251568,-0.114773,0.259348,-0.092342,0.270777,-0.083774,0.269420,-0.075523,0.272101,0.164589,0.272101,0.180784,0.266839,0.180784,0.266839,$1*%
%AMFreePoly7*
4,1,48,0.083774,0.269420,0.092342,0.270777,0.114772,0.259348,0.138717,0.251568,0.143817,0.244549,0.151545,0.240611,0.240611,0.151546,0.244550,0.143816,0.251568,0.138717,0.259348,0.114773,0.270777,0.092342,0.269420,0.083774,0.272101,0.075523,0.272101,-0.164589,0.266839,-0.180784,0.266839,-0.197812,0.256830,-0.211588,0.251568,-0.227783,0.237792,-0.237792,0.227783,-0.251568,
0.211588,-0.256830,0.197812,-0.266839,0.180784,-0.266839,0.164589,-0.272101,-0.164589,-0.272101,-0.180784,-0.266839,-0.197812,-0.266839,-0.211588,-0.256830,-0.227783,-0.251568,-0.237792,-0.237792,-0.251568,-0.227783,-0.256830,-0.211588,-0.266839,-0.197812,-0.266839,-0.180784,-0.272101,-0.164589,-0.272101,0.164589,-0.266839,0.180784,-0.266839,0.197812,-0.256830,0.211588,-0.251568,0.227783,
-0.237792,0.237792,-0.227783,0.251568,-0.211588,0.256830,-0.197812,0.266839,-0.180784,0.266839,-0.164589,0.272101,0.075523,0.272101,0.083774,0.269420,0.083774,0.269420,$1*%
G04 Aperture macros list end*
%ADD10RoundRect,0.250000X0.325000X0.650000X-0.325000X0.650000X-0.325000X-0.650000X0.325000X-0.650000X0*%
%ADD11RoundRect,0.200000X0.200000X0.275000X-0.200000X0.275000X-0.200000X-0.275000X0.200000X-0.275000X0*%
%ADD12R,2.000000X3.800000*%
%ADD13R,2.000000X1.500000*%
%ADD14RoundRect,0.250000X0.650000X-0.325000X0.650000X0.325000X-0.650000X0.325000X-0.650000X-0.325000X0*%
%ADD15RoundRect,0.225000X-0.250000X0.225000X-0.250000X-0.225000X0.250000X-0.225000X0.250000X0.225000X0*%
%ADD16RoundRect,0.075000X0.075000X-0.662500X0.075000X0.662500X-0.075000X0.662500X-0.075000X-0.662500X0*%
%ADD17RoundRect,0.075000X0.662500X-0.075000X0.662500X0.075000X-0.662500X0.075000X-0.662500X-0.075000X0*%
%ADD18RoundRect,0.200000X-0.275000X0.200000X-0.275000X-0.200000X0.275000X-0.200000X0.275000X0.200000X0*%
%ADD19RoundRect,0.150000X-0.512500X-0.150000X0.512500X-0.150000X0.512500X0.150000X-0.512500X0.150000X0*%
%ADD20RoundRect,0.225000X0.250000X-0.225000X0.250000X0.225000X-0.250000X0.225000X-0.250000X-0.225000X0*%
%ADD21RoundRect,0.225000X0.225000X0.250000X-0.225000X0.250000X-0.225000X-0.250000X0.225000X-0.250000X0*%
%ADD22RoundRect,0.062500X0.062500X0.337500X-0.062500X0.337500X-0.062500X-0.337500X0.062500X-0.337500X0*%
%ADD23RoundRect,0.062500X0.337500X0.062500X-0.337500X0.062500X-0.337500X-0.062500X0.337500X-0.062500X0*%
%ADD24FreePoly0,180.000000*%
%ADD25FreePoly1,180.000000*%
%ADD26FreePoly2,180.000000*%
%ADD27RoundRect,0.201557X0.201556X0.201556X-0.201556X0.201556X-0.201556X-0.201556X0.201556X-0.201556X0*%
%ADD28FreePoly3,180.000000*%
%ADD29FreePoly4,180.000000*%
%ADD30FreePoly5,180.000000*%
%ADD31FreePoly6,180.000000*%
%ADD32FreePoly7,180.000000*%
%ADD33RoundRect,0.250000X-0.450000X0.262500X-0.450000X-0.262500X0.450000X-0.262500X0.450000X0.262500X0*%
%ADD34RoundRect,0.200000X-0.200000X-0.275000X0.200000X-0.275000X0.200000X0.275000X-0.200000X0.275000X0*%
%ADD35RoundRect,0.250000X-1.500000X-0.550000X1.500000X-0.550000X1.500000X0.550000X-1.500000X0.550000X0*%
%ADD36RoundRect,0.250000X0.450000X-0.262500X0.450000X0.262500X-0.450000X0.262500X-0.450000X-0.262500X0*%
G04 APERTURE END LIST*
D10*
X145747000Y-89916000D03*
X142797000Y-89916000D03*
D11*
X134025000Y-102108000D03*
X132375000Y-102108000D03*
D12*
X142342000Y-86233000D03*
D13*
X136042000Y-88533000D03*
X136042000Y-86233000D03*
X136042000Y-83933000D03*
D14*
X133096000Y-86819000D03*
X133096000Y-83869000D03*
D15*
X133858000Y-104508000D03*
X133858000Y-106058000D03*
D16*
X137966000Y-107794500D03*
X138466000Y-107794500D03*
X138966000Y-107794500D03*
X139466000Y-107794500D03*
X139966000Y-107794500D03*
X140466000Y-107794500D03*
X140966000Y-107794500D03*
X141466000Y-107794500D03*
X141966000Y-107794500D03*
X142466000Y-107794500D03*
X142966000Y-107794500D03*
X143466000Y-107794500D03*
D17*
X144878500Y-106382000D03*
X144878500Y-105882000D03*
X144878500Y-105382000D03*
X144878500Y-104882000D03*
X144878500Y-104382000D03*
X144878500Y-103882000D03*
X144878500Y-103382000D03*
X144878500Y-102882000D03*
X144878500Y-102382000D03*
X144878500Y-101882000D03*
X144878500Y-101382000D03*
X144878500Y-100882000D03*
D16*
X143466000Y-99469500D03*
X142966000Y-99469500D03*
X142466000Y-99469500D03*
X141966000Y-99469500D03*
X141466000Y-99469500D03*
X140966000Y-99469500D03*
X140466000Y-99469500D03*
X139966000Y-99469500D03*
X139466000Y-99469500D03*
X138966000Y-99469500D03*
X138466000Y-99469500D03*
X137966000Y-99469500D03*
D17*
X136553500Y-100882000D03*
X136553500Y-101382000D03*
X136553500Y-101882000D03*
X136553500Y-102382000D03*
X136553500Y-102882000D03*
X136553500Y-103382000D03*
X136553500Y-103882000D03*
X136553500Y-104382000D03*
X136553500Y-104882000D03*
X136553500Y-105382000D03*
X136553500Y-105882000D03*
X136553500Y-106382000D03*
D18*
X134000000Y-98875000D03*
X134000000Y-100525000D03*
D19*
X145862500Y-95350000D03*
X145862500Y-96300000D03*
X145862500Y-97250000D03*
X148137500Y-97250000D03*
X148137500Y-95350000D03*
D20*
X158936500Y-105685000D03*
X158936500Y-104135000D03*
D21*
X156917500Y-97163000D03*
X155367500Y-97163000D03*
D15*
X157412500Y-105405000D03*
X157412500Y-106955000D03*
D22*
X154086500Y-103550000D03*
X153586500Y-103550000D03*
X153086500Y-103550000D03*
X152586500Y-103550000D03*
X152086500Y-103550000D03*
X151586500Y-103550000D03*
X151086500Y-103550000D03*
D23*
X150136500Y-102600000D03*
X150136500Y-102100000D03*
X150136500Y-101600000D03*
X150136500Y-101100000D03*
X150136500Y-100600000D03*
X150136500Y-100100000D03*
X150136500Y-99600000D03*
D22*
X151086500Y-98650000D03*
X151586500Y-98650000D03*
X152086500Y-98650000D03*
X152586500Y-98650000D03*
X153086500Y-98650000D03*
X153586500Y-98650000D03*
X154086500Y-98650000D03*
D23*
X155036500Y-99600000D03*
X155036500Y-100100000D03*
X155036500Y-100600000D03*
X155036500Y-101100000D03*
X155036500Y-101600000D03*
X155036500Y-102100000D03*
X155036500Y-102600000D03*
D24*
X152086500Y-99762500D03*
D25*
X152086500Y-102437500D03*
D26*
X151249000Y-102437500D03*
D27*
X153086500Y-101600000D03*
D28*
X151249000Y-101600000D03*
D29*
X153924000Y-101600000D03*
D30*
X153924000Y-102437500D03*
D27*
X153086500Y-100600000D03*
D25*
X153086500Y-102437500D03*
D31*
X151249000Y-99762500D03*
D32*
X153924000Y-99762500D03*
D27*
X152086500Y-100600000D03*
D24*
X153086500Y-99762500D03*
D27*
X152086500Y-101600000D03*
D29*
X153924000Y-100600000D03*
D28*
X151249000Y-100600000D03*
D33*
X150012400Y-105970700D03*
X150012400Y-107795700D03*
D34*
X137224000Y-97000637D03*
X138874000Y-97000637D03*
D35*
X129500000Y-107797600D03*
X124100000Y-107797600D03*
D20*
X158936500Y-101875000D03*
X158936500Y-100325000D03*
D36*
X153500000Y-107412500D03*
X153500000Y-105587500D03*
D20*
X148100000Y-101075000D03*
X148100000Y-99525000D03*
X155888500Y-106955000D03*
X155888500Y-105405000D03*
D11*
X141922000Y-97000637D03*
X140272000Y-97000637D03*
M02*
