G04 #@! TF.GenerationSoftware,KiCad,Pcbnew,(5.99.0-11678-ga208dac8d8)*
G04 #@! TF.CreationDate,2021-09-02T09:18:58-04:00*
G04 #@! TF.ProjectId,syringe_board,73797269-6e67-4655-9f62-6f6172642e6b,4.5*
G04 #@! TF.SameCoordinates,Original*
G04 #@! TF.FileFunction,Soldermask,Top*
G04 #@! TF.FilePolarity,Negative*
%FSLAX46Y46*%
G04 Gerber Fmt 4.6, Leading zero omitted, Abs format (unit mm)*
G04 Created by KiCad (PCBNEW (5.99.0-11678-ga208dac8d8)) date 2021-09-02 09:18:58*
%MOMM*%
%LPD*%
G01*
G04 APERTURE LIST*
G04 Aperture macros list*
%AMRoundRect*
0 Rectangle with rounded corners*
0 $1 Rounding radius*
0 $2 $3 $4 $5 $6 $7 $8 $9 X,Y pos of 4 corners*
0 Add a 4 corners polygon primitive as box body*
4,1,4,$2,$3,$4,$5,$6,$7,$8,$9,$2,$3,0*
0 Add four circle primitives for the rounded corners*
1,1,$1+$1,$2,$3*
1,1,$1+$1,$4,$5*
1,1,$1+$1,$6,$7*
1,1,$1+$1,$8,$9*
0 Add four rect primitives between the rounded corners*
20,1,$1+$1,$2,$3,$4,$5,0*
20,1,$1+$1,$4,$5,$6,$7,0*
20,1,$1+$1,$6,$7,$8,$9,0*
20,1,$1+$1,$8,$9,$2,$3,0*%
G04 Aperture macros list end*
%ADD10RoundRect,0.200000X0.200000X0.275000X-0.200000X0.275000X-0.200000X-0.275000X0.200000X-0.275000X0*%
%ADD11C,1.711200*%
%ADD12RoundRect,0.225000X0.250000X-0.225000X0.250000X0.225000X-0.250000X0.225000X-0.250000X-0.225000X0*%
%ADD13RoundRect,0.250000X0.450000X-0.262500X0.450000X0.262500X-0.450000X0.262500X-0.450000X-0.262500X0*%
%ADD14RoundRect,0.250000X-1.500000X-0.550000X1.500000X-0.550000X1.500000X0.550000X-1.500000X0.550000X0*%
%ADD15RoundRect,0.200000X-0.200000X-0.275000X0.200000X-0.275000X0.200000X0.275000X-0.200000X0.275000X0*%
%ADD16RoundRect,0.250000X-0.450000X0.262500X-0.450000X-0.262500X0.450000X-0.262500X0.450000X0.262500X0*%
%ADD17RoundRect,0.062500X0.337500X0.062500X-0.337500X0.062500X-0.337500X-0.062500X0.337500X-0.062500X0*%
%ADD18RoundRect,0.062500X0.062500X0.337500X-0.062500X0.337500X-0.062500X-0.337500X0.062500X-0.337500X0*%
%ADD19R,3.350000X3.350000*%
%ADD20RoundRect,0.225000X-0.250000X0.225000X-0.250000X-0.225000X0.250000X-0.225000X0.250000X0.225000X0*%
%ADD21RoundRect,0.225000X0.225000X0.250000X-0.225000X0.250000X-0.225000X-0.250000X0.225000X-0.250000X0*%
%ADD22C,2.100000*%
%ADD23C,1.750000*%
%ADD24RoundRect,0.150000X-0.512500X-0.150000X0.512500X-0.150000X0.512500X0.150000X-0.512500X0.150000X0*%
%ADD25RoundRect,0.200000X-0.275000X0.200000X-0.275000X-0.200000X0.275000X-0.200000X0.275000X0.200000X0*%
%ADD26C,6.000000*%
%ADD27RoundRect,0.075000X0.075000X-0.662500X0.075000X0.662500X-0.075000X0.662500X-0.075000X-0.662500X0*%
%ADD28RoundRect,0.075000X0.662500X-0.075000X0.662500X0.075000X-0.662500X0.075000X-0.662500X-0.075000X0*%
%ADD29C,0.500000*%
%ADD30O,1.900000X1.900000*%
%ADD31R,1.700000X1.700000*%
%ADD32O,1.700000X1.700000*%
%ADD33C,0.990600*%
%ADD34C,0.787400*%
%ADD35C,3.650000*%
%ADD36R,1.500000X1.500000*%
%ADD37C,1.500000*%
G04 APERTURE END LIST*
D10*
X141922000Y-97000637D03*
X140272000Y-97000637D03*
D11*
X123825000Y-112776000D03*
X126365000Y-112776000D03*
X128905000Y-112776000D03*
X131445000Y-112776000D03*
X133985000Y-112776000D03*
X136525000Y-112776000D03*
X139065000Y-112776000D03*
X141605000Y-112776000D03*
X144145000Y-112776000D03*
X146685000Y-112776000D03*
X149225000Y-112776000D03*
X151765000Y-112776000D03*
X154305000Y-112776000D03*
X156845000Y-112776000D03*
X159385000Y-112776000D03*
X161925000Y-112776000D03*
X161925000Y-92456000D03*
X159385000Y-92456000D03*
X156845000Y-92456000D03*
X154305000Y-92456000D03*
X151765000Y-92456000D03*
X149225000Y-92456000D03*
X146685000Y-92456000D03*
X144145000Y-92456000D03*
X141605000Y-92456000D03*
X139065000Y-92456000D03*
X136525000Y-92456000D03*
X133985000Y-92456000D03*
D12*
X155888500Y-106955000D03*
X155888500Y-105405000D03*
X148100000Y-101075000D03*
X148100000Y-99525000D03*
D13*
X153500000Y-107412500D03*
X153500000Y-105587500D03*
D12*
X158936500Y-101875000D03*
X158936500Y-100325000D03*
D14*
X124100000Y-107797600D03*
X129500000Y-107797600D03*
D15*
X137224000Y-97000637D03*
X138874000Y-97000637D03*
D16*
X150012400Y-105970700D03*
X150012400Y-107795700D03*
D17*
X155036500Y-102600000D03*
X155036500Y-102100000D03*
X155036500Y-101600000D03*
X155036500Y-101100000D03*
X155036500Y-100600000D03*
X155036500Y-100100000D03*
X155036500Y-99600000D03*
D18*
X154086500Y-98650000D03*
X153586500Y-98650000D03*
X153086500Y-98650000D03*
X152586500Y-98650000D03*
X152086500Y-98650000D03*
X151586500Y-98650000D03*
X151086500Y-98650000D03*
D17*
X150136500Y-99600000D03*
X150136500Y-100100000D03*
X150136500Y-100600000D03*
X150136500Y-101100000D03*
X150136500Y-101600000D03*
X150136500Y-102100000D03*
X150136500Y-102600000D03*
D18*
X151086500Y-103550000D03*
X151586500Y-103550000D03*
X152086500Y-103550000D03*
X152586500Y-103550000D03*
X153086500Y-103550000D03*
X153586500Y-103550000D03*
X154086500Y-103550000D03*
D19*
X152586500Y-101100000D03*
D20*
X157412500Y-105405000D03*
X157412500Y-106955000D03*
D21*
X156917500Y-97163000D03*
X155367500Y-97163000D03*
D12*
X158936500Y-105685000D03*
X158936500Y-104135000D03*
D22*
X154350000Y-87590000D03*
X161360000Y-87590000D03*
D23*
X155600000Y-85100000D03*
X160100000Y-85100000D03*
D24*
X145862500Y-95350000D03*
X145862500Y-96300000D03*
X145862500Y-97250000D03*
X148137500Y-97250000D03*
X148137500Y-95350000D03*
D25*
X134000000Y-98875000D03*
X134000000Y-100525000D03*
D26*
X158117000Y-75048000D03*
X133117000Y-75048000D03*
D27*
X137966000Y-107794500D03*
X138466000Y-107794500D03*
X138966000Y-107794500D03*
X139466000Y-107794500D03*
X139966000Y-107794500D03*
X140466000Y-107794500D03*
X140966000Y-107794500D03*
X141466000Y-107794500D03*
X141966000Y-107794500D03*
X142466000Y-107794500D03*
X142966000Y-107794500D03*
X143466000Y-107794500D03*
D28*
X144878500Y-106382000D03*
X144878500Y-105882000D03*
X144878500Y-105382000D03*
X144878500Y-104882000D03*
X144878500Y-104382000D03*
X144878500Y-103882000D03*
X144878500Y-103382000D03*
X144878500Y-102882000D03*
X144878500Y-102382000D03*
X144878500Y-101882000D03*
X144878500Y-101382000D03*
X144878500Y-100882000D03*
D27*
X143466000Y-99469500D03*
X142966000Y-99469500D03*
X142466000Y-99469500D03*
X141966000Y-99469500D03*
X141466000Y-99469500D03*
X140966000Y-99469500D03*
X140466000Y-99469500D03*
X139966000Y-99469500D03*
X139466000Y-99469500D03*
X138966000Y-99469500D03*
X138466000Y-99469500D03*
X137966000Y-99469500D03*
D28*
X136553500Y-100882000D03*
X136553500Y-101382000D03*
X136553500Y-101882000D03*
X136553500Y-102382000D03*
X136553500Y-102882000D03*
X136553500Y-103382000D03*
X136553500Y-103882000D03*
X136553500Y-104382000D03*
X136553500Y-104882000D03*
X136553500Y-105382000D03*
X136553500Y-105882000D03*
X136553500Y-106382000D03*
D29*
X159004000Y-79926000D03*
X158204000Y-79926000D03*
X158204000Y-82126000D03*
X159004000Y-82126000D03*
X159804000Y-82126000D03*
X159804000Y-79926000D03*
D30*
X119275000Y-73778000D03*
X121815000Y-73778000D03*
X119275000Y-76318000D03*
X121815000Y-76318000D03*
D31*
X165608000Y-96192000D03*
D32*
X165608000Y-98732000D03*
X165608000Y-101272000D03*
X165608000Y-103812000D03*
X165608000Y-106352000D03*
X165608000Y-108892000D03*
X165608000Y-111432000D03*
D33*
X165384000Y-84660000D03*
X167416000Y-84660000D03*
X166400000Y-89740000D03*
D34*
X167035000Y-88470000D03*
X165765000Y-88470000D03*
X167035000Y-87200000D03*
X165765000Y-87200000D03*
X167035000Y-85930000D03*
X165765000Y-85930000D03*
D22*
X140160000Y-87590000D03*
X133150000Y-87590000D03*
D23*
X134400000Y-85100000D03*
X138900000Y-85100000D03*
D31*
X153125000Y-77486000D03*
D32*
X150585000Y-77486000D03*
X148045000Y-77486000D03*
X145505000Y-77486000D03*
X142965000Y-77486000D03*
X140425000Y-77486000D03*
X137885000Y-77486000D03*
D29*
X126238000Y-79926000D03*
X126238000Y-82126000D03*
X125438000Y-82126000D03*
X127038000Y-82126000D03*
X127038000Y-79926000D03*
X125438000Y-79926000D03*
D20*
X133858000Y-104508000D03*
X133858000Y-106058000D03*
D12*
X124350000Y-102695000D03*
X124350000Y-101145000D03*
D31*
X163217000Y-73778000D03*
D32*
X165757000Y-73778000D03*
X163217000Y-76318000D03*
X165757000Y-76318000D03*
D24*
X126592500Y-101050000D03*
X126592500Y-102000000D03*
X126592500Y-102950000D03*
X128867500Y-102950000D03*
X128867500Y-101050000D03*
D10*
X134025000Y-102108000D03*
X132375000Y-102108000D03*
D21*
X135025000Y-96750000D03*
X133475000Y-96750000D03*
D22*
X143750000Y-87590000D03*
X150760000Y-87590000D03*
D23*
X145000000Y-85100000D03*
X149500000Y-85100000D03*
D35*
X118237000Y-89999998D03*
X129667000Y-89999998D03*
D36*
X128397000Y-96349998D03*
D37*
X127127000Y-98889998D03*
X125857000Y-96349998D03*
X124587000Y-98889998D03*
X123317000Y-96349998D03*
X122047000Y-98889998D03*
X120777000Y-96349998D03*
X119507000Y-98889998D03*
D26*
X119200000Y-104296000D03*
M02*
