G04 #@! TF.GenerationSoftware,KiCad,Pcbnew,(5.99.0-6632-gb710573c5)*
G04 #@! TF.CreationDate,2020-11-23T17:19:52-05:00*
G04 #@! TF.ProjectId,syringe_board,73797269-6e67-4655-9f62-6f6172642e6b,3.3*
G04 #@! TF.SameCoordinates,Original*
G04 #@! TF.FileFunction,Soldermask,Bot*
G04 #@! TF.FilePolarity,Negative*
%FSLAX46Y46*%
G04 Gerber Fmt 4.6, Leading zero omitted, Abs format (unit mm)*
G04 Created by KiCad (PCBNEW (5.99.0-6632-gb710573c5)) date 2020-11-23 17:19:52*
%MOMM*%
%LPD*%
G01*
G04 APERTURE LIST*
G04 Aperture macros list*
%AMRoundRect*
0 Rectangle with rounded corners*
0 $1 Rounding radius*
0 $2 $3 $4 $5 $6 $7 $8 $9 X,Y pos of 4 corners*
0 Add a 4 corners polygon primitive as box body*
4,1,4,$2,$3,$4,$5,$6,$7,$8,$9,$2,$3,0*
0 Add four circle primitives for the rounded corners*
1,1,$1+$1,$2,$3,0*
1,1,$1+$1,$4,$5,0*
1,1,$1+$1,$6,$7,0*
1,1,$1+$1,$8,$9,0*
0 Add four rect primitives between the rounded corners*
20,1,$1+$1,$2,$3,$4,$5,0*
20,1,$1+$1,$4,$5,$6,$7,0*
20,1,$1+$1,$6,$7,$8,$9,0*
20,1,$1+$1,$8,$9,$2,$3,0*%
G04 Aperture macros list end*
%ADD10C,1.711200*%
%ADD11C,0.601600*%
%ADD12RoundRect,0.050800X-0.850000X-0.850000X0.850000X-0.850000X0.850000X0.850000X-0.850000X0.850000X0*%
%ADD13O,1.801600X1.801600*%
%ADD14RoundRect,0.050800X-0.850000X0.850000X-0.850000X-0.850000X0.850000X-0.850000X0.850000X0.850000X0*%
%ADD15C,3.301600*%
G04 APERTURE END LIST*
D10*
X122809000Y-127508000D03*
X125349000Y-127508000D03*
X127889000Y-127508000D03*
X130429000Y-127508000D03*
X132969000Y-127508000D03*
X135509000Y-127508000D03*
X138049000Y-127508000D03*
X140589000Y-127508000D03*
X143129000Y-127508000D03*
X145669000Y-127508000D03*
X148209000Y-127508000D03*
X150749000Y-127508000D03*
X153289000Y-127508000D03*
X155829000Y-127508000D03*
X158369000Y-127508000D03*
X160909000Y-127508000D03*
X160909000Y-107188000D03*
X158369000Y-107188000D03*
X155829000Y-107188000D03*
X153289000Y-107188000D03*
X150749000Y-107188000D03*
X148209000Y-107188000D03*
X145669000Y-107188000D03*
X143129000Y-107188000D03*
X140589000Y-107188000D03*
X138049000Y-107188000D03*
X135509000Y-107188000D03*
X132969000Y-107188000D03*
D11*
X158204000Y-82126000D03*
X159804000Y-82126000D03*
X159004000Y-82126000D03*
X159004000Y-79926000D03*
X159804000Y-79926000D03*
X158204000Y-79926000D03*
D12*
X119275000Y-74778000D03*
D13*
X121815000Y-74778000D03*
X119275000Y-77318000D03*
X121815000Y-77318000D03*
D12*
X165608000Y-96192000D03*
D13*
X165608000Y-98732000D03*
X165608000Y-101272000D03*
X165608000Y-103812000D03*
X165608000Y-106352000D03*
X165608000Y-108892000D03*
X165608000Y-111432000D03*
D14*
X153237000Y-78486000D03*
D13*
X150697000Y-78486000D03*
X148157000Y-78486000D03*
X145617000Y-78486000D03*
X143077000Y-78486000D03*
X140537000Y-78486000D03*
X137997000Y-78486000D03*
D11*
X127038000Y-82126000D03*
X126238000Y-79926000D03*
X125438000Y-79926000D03*
X126238000Y-82126000D03*
X127038000Y-79926000D03*
X125438000Y-82126000D03*
D15*
X133117000Y-76048000D03*
D12*
X163217000Y-74778000D03*
D13*
X165757000Y-74778000D03*
X163217000Y-77318000D03*
X165757000Y-77318000D03*
D15*
X123825000Y-105664000D03*
X158117000Y-76048000D03*
G36*
X125969401Y-82004335D02*
G01*
X125969582Y-82006165D01*
X125944925Y-82067970D01*
X125943683Y-82177366D01*
X125968227Y-82243185D01*
X125967895Y-82245157D01*
X125966021Y-82245856D01*
X125964571Y-82244792D01*
X125947723Y-82211728D01*
X125899963Y-82161158D01*
X125832737Y-82144510D01*
X125767137Y-82166865D01*
X125728295Y-82211691D01*
X125721242Y-82225533D01*
X125719565Y-82226622D01*
X125717783Y-82225714D01*
X125717503Y-82224214D01*
X125736725Y-82132608D01*
X125736798Y-82126172D01*
X125719025Y-82030744D01*
X125719691Y-82028858D01*
X125721657Y-82028492D01*
X125722773Y-82029470D01*
X125728277Y-82040272D01*
X125776037Y-82090842D01*
X125843263Y-82107490D01*
X125908863Y-82085135D01*
X125947705Y-82040309D01*
X125965942Y-82004516D01*
X125967619Y-82003427D01*
X125969401Y-82004335D01*
G37*
G36*
X159535401Y-82004335D02*
G01*
X159535582Y-82006165D01*
X159510925Y-82067970D01*
X159509683Y-82177366D01*
X159534227Y-82243185D01*
X159533895Y-82245157D01*
X159532021Y-82245856D01*
X159530571Y-82244792D01*
X159513723Y-82211728D01*
X159465963Y-82161158D01*
X159398737Y-82144510D01*
X159333137Y-82166865D01*
X159294295Y-82211691D01*
X159287242Y-82225533D01*
X159285565Y-82226622D01*
X159283783Y-82225714D01*
X159283503Y-82224214D01*
X159302725Y-82132608D01*
X159302798Y-82126172D01*
X159285025Y-82030744D01*
X159285691Y-82028858D01*
X159287657Y-82028492D01*
X159288773Y-82029470D01*
X159294277Y-82040272D01*
X159342037Y-82090842D01*
X159409263Y-82107490D01*
X159474863Y-82085135D01*
X159513705Y-82040309D01*
X159531942Y-82004516D01*
X159533619Y-82003427D01*
X159535401Y-82004335D01*
G37*
G36*
X158735401Y-82004335D02*
G01*
X158735582Y-82006165D01*
X158710925Y-82067970D01*
X158709683Y-82177366D01*
X158734227Y-82243185D01*
X158733895Y-82245157D01*
X158732021Y-82245856D01*
X158730571Y-82244792D01*
X158713723Y-82211728D01*
X158665963Y-82161158D01*
X158598737Y-82144510D01*
X158533137Y-82166865D01*
X158494295Y-82211691D01*
X158487242Y-82225533D01*
X158485565Y-82226622D01*
X158483783Y-82225714D01*
X158483503Y-82224214D01*
X158502725Y-82132608D01*
X158502798Y-82126172D01*
X158485025Y-82030744D01*
X158485691Y-82028858D01*
X158487657Y-82028492D01*
X158488773Y-82029470D01*
X158494277Y-82040272D01*
X158542037Y-82090842D01*
X158609263Y-82107490D01*
X158674863Y-82085135D01*
X158713705Y-82040309D01*
X158731942Y-82004516D01*
X158733619Y-82003427D01*
X158735401Y-82004335D01*
G37*
G36*
X126769401Y-82004335D02*
G01*
X126769582Y-82006165D01*
X126744925Y-82067970D01*
X126743683Y-82177366D01*
X126768227Y-82243185D01*
X126767895Y-82245157D01*
X126766021Y-82245856D01*
X126764571Y-82244792D01*
X126747723Y-82211728D01*
X126699963Y-82161158D01*
X126632737Y-82144510D01*
X126567137Y-82166865D01*
X126528295Y-82211691D01*
X126521242Y-82225533D01*
X126519565Y-82226622D01*
X126517783Y-82225714D01*
X126517503Y-82224214D01*
X126536725Y-82132608D01*
X126536798Y-82126172D01*
X126519025Y-82030744D01*
X126519691Y-82028858D01*
X126521657Y-82028492D01*
X126522773Y-82029470D01*
X126528277Y-82040272D01*
X126576037Y-82090842D01*
X126643263Y-82107490D01*
X126708863Y-82085135D01*
X126747705Y-82040309D01*
X126765942Y-82004516D01*
X126767619Y-82003427D01*
X126769401Y-82004335D01*
G37*
G36*
X126769401Y-79804335D02*
G01*
X126769582Y-79806165D01*
X126744925Y-79867970D01*
X126743683Y-79977366D01*
X126768227Y-80043185D01*
X126767895Y-80045157D01*
X126766021Y-80045856D01*
X126764571Y-80044792D01*
X126747723Y-80011728D01*
X126699963Y-79961158D01*
X126632737Y-79944510D01*
X126567137Y-79966865D01*
X126528295Y-80011691D01*
X126521242Y-80025533D01*
X126519565Y-80026622D01*
X126517783Y-80025714D01*
X126517503Y-80024214D01*
X126536725Y-79932608D01*
X126536798Y-79926172D01*
X126519025Y-79830744D01*
X126519691Y-79828858D01*
X126521657Y-79828492D01*
X126522773Y-79829470D01*
X126528277Y-79840272D01*
X126576037Y-79890842D01*
X126643263Y-79907490D01*
X126708863Y-79885135D01*
X126747705Y-79840309D01*
X126765942Y-79804516D01*
X126767619Y-79803427D01*
X126769401Y-79804335D01*
G37*
G36*
X125969401Y-79804335D02*
G01*
X125969582Y-79806165D01*
X125944925Y-79867970D01*
X125943683Y-79977366D01*
X125968227Y-80043185D01*
X125967895Y-80045157D01*
X125966021Y-80045856D01*
X125964571Y-80044792D01*
X125947723Y-80011728D01*
X125899963Y-79961158D01*
X125832737Y-79944510D01*
X125767137Y-79966865D01*
X125728295Y-80011691D01*
X125721242Y-80025533D01*
X125719565Y-80026622D01*
X125717783Y-80025714D01*
X125717503Y-80024214D01*
X125736725Y-79932608D01*
X125736798Y-79926172D01*
X125719025Y-79830744D01*
X125719691Y-79828858D01*
X125721657Y-79828492D01*
X125722773Y-79829470D01*
X125728277Y-79840272D01*
X125776037Y-79890842D01*
X125843263Y-79907490D01*
X125908863Y-79885135D01*
X125947705Y-79840309D01*
X125965942Y-79804516D01*
X125967619Y-79803427D01*
X125969401Y-79804335D01*
G37*
G36*
X158735401Y-79804335D02*
G01*
X158735582Y-79806165D01*
X158710925Y-79867970D01*
X158709683Y-79977366D01*
X158734227Y-80043185D01*
X158733895Y-80045157D01*
X158732021Y-80045856D01*
X158730571Y-80044792D01*
X158713723Y-80011728D01*
X158665963Y-79961158D01*
X158598737Y-79944510D01*
X158533137Y-79966865D01*
X158494295Y-80011691D01*
X158487242Y-80025533D01*
X158485565Y-80026622D01*
X158483783Y-80025714D01*
X158483503Y-80024214D01*
X158502725Y-79932608D01*
X158502798Y-79926172D01*
X158485025Y-79830744D01*
X158485691Y-79828858D01*
X158487657Y-79828492D01*
X158488773Y-79829470D01*
X158494277Y-79840272D01*
X158542037Y-79890842D01*
X158609263Y-79907490D01*
X158674863Y-79885135D01*
X158713705Y-79840309D01*
X158731942Y-79804516D01*
X158733619Y-79803427D01*
X158735401Y-79804335D01*
G37*
G36*
X159535401Y-79804335D02*
G01*
X159535582Y-79806165D01*
X159510925Y-79867970D01*
X159509683Y-79977366D01*
X159534227Y-80043185D01*
X159533895Y-80045157D01*
X159532021Y-80045856D01*
X159530571Y-80044792D01*
X159513723Y-80011728D01*
X159465963Y-79961158D01*
X159398737Y-79944510D01*
X159333137Y-79966865D01*
X159294295Y-80011691D01*
X159287242Y-80025533D01*
X159285565Y-80026622D01*
X159283783Y-80025714D01*
X159283503Y-80024214D01*
X159302725Y-79932608D01*
X159302798Y-79926172D01*
X159285025Y-79830744D01*
X159285691Y-79828858D01*
X159287657Y-79828492D01*
X159288773Y-79829470D01*
X159294277Y-79840272D01*
X159342037Y-79890842D01*
X159409263Y-79907490D01*
X159474863Y-79885135D01*
X159513705Y-79840309D01*
X159531942Y-79804516D01*
X159533619Y-79803427D01*
X159535401Y-79804335D01*
G37*
M02*
