G04 #@! TF.GenerationSoftware,KiCad,Pcbnew,(5.1.2-1)-1*
G04 #@! TF.CreationDate,2019-06-19T14:35:12-04:00*
G04 #@! TF.ProjectId,syringe_board,73797269-6e67-4655-9f62-6f6172642e6b,rev?*
G04 #@! TF.SameCoordinates,Original*
G04 #@! TF.FileFunction,Legend,Bot*
G04 #@! TF.FilePolarity,Positive*
%FSLAX46Y46*%
G04 Gerber Fmt 4.6, Leading zero omitted, Abs format (unit mm)*
G04 Created by KiCad (PCBNEW (5.1.2-1)-1) date 2019-06-19 14:35:12*
%MOMM*%
%LPD*%
G04 APERTURE LIST*
%ADD10C,0.076200*%
G04 APERTURE END LIST*
D10*
X102616000Y-105639809D02*
X102646238Y-105700285D01*
X102646238Y-105791000D01*
X102616000Y-105881714D01*
X102555523Y-105942190D01*
X102495047Y-105972428D01*
X102374095Y-106002666D01*
X102283380Y-106002666D01*
X102162428Y-105972428D01*
X102101952Y-105942190D01*
X102041476Y-105881714D01*
X102011238Y-105791000D01*
X102011238Y-105730523D01*
X102041476Y-105639809D01*
X102071714Y-105609571D01*
X102283380Y-105609571D01*
X102283380Y-105730523D01*
X102011238Y-105337428D02*
X102646238Y-105337428D01*
X102011238Y-104974571D01*
X102646238Y-104974571D01*
X102011238Y-104672190D02*
X102646238Y-104672190D01*
X102646238Y-104521000D01*
X102616000Y-104430285D01*
X102555523Y-104369809D01*
X102495047Y-104339571D01*
X102374095Y-104309333D01*
X102283380Y-104309333D01*
X102162428Y-104339571D01*
X102101952Y-104369809D01*
X102041476Y-104430285D01*
X102011238Y-104521000D01*
X102011238Y-104672190D01*
X124807738Y-106090357D02*
X125442738Y-106090357D01*
X124989166Y-105878690D01*
X125442738Y-105667023D01*
X124807738Y-105667023D01*
X124807738Y-105364642D02*
X125442738Y-105364642D01*
X124837976Y-105092500D02*
X124807738Y-105001785D01*
X124807738Y-104850595D01*
X124837976Y-104790119D01*
X124868214Y-104759880D01*
X124928690Y-104729642D01*
X124989166Y-104729642D01*
X125049642Y-104759880D01*
X125079880Y-104790119D01*
X125110119Y-104850595D01*
X125140357Y-104971547D01*
X125170595Y-105032023D01*
X125200833Y-105062261D01*
X125261309Y-105092500D01*
X125321785Y-105092500D01*
X125382261Y-105062261D01*
X125412500Y-105032023D01*
X125442738Y-104971547D01*
X125442738Y-104820357D01*
X125412500Y-104729642D01*
X125442738Y-104336547D02*
X125442738Y-104215595D01*
X125412500Y-104155119D01*
X125352023Y-104094642D01*
X125231071Y-104064404D01*
X125019404Y-104064404D01*
X124898452Y-104094642D01*
X124837976Y-104155119D01*
X124807738Y-104215595D01*
X124807738Y-104336547D01*
X124837976Y-104397023D01*
X124898452Y-104457500D01*
X125019404Y-104487738D01*
X125231071Y-104487738D01*
X125352023Y-104457500D01*
X125412500Y-104397023D01*
X125442738Y-104336547D01*
X122394738Y-106026857D02*
X123029738Y-106026857D01*
X122576166Y-105815190D01*
X123029738Y-105603523D01*
X122394738Y-105603523D01*
X123029738Y-105180190D02*
X123029738Y-105059238D01*
X122999500Y-104998761D01*
X122939023Y-104938285D01*
X122818071Y-104908047D01*
X122606404Y-104908047D01*
X122485452Y-104938285D01*
X122424976Y-104998761D01*
X122394738Y-105059238D01*
X122394738Y-105180190D01*
X122424976Y-105240666D01*
X122485452Y-105301142D01*
X122606404Y-105331380D01*
X122818071Y-105331380D01*
X122939023Y-105301142D01*
X122999500Y-105240666D01*
X123029738Y-105180190D01*
X122424976Y-104666142D02*
X122394738Y-104575428D01*
X122394738Y-104424238D01*
X122424976Y-104363761D01*
X122455214Y-104333523D01*
X122515690Y-104303285D01*
X122576166Y-104303285D01*
X122636642Y-104333523D01*
X122666880Y-104363761D01*
X122697119Y-104424238D01*
X122727357Y-104545190D01*
X122757595Y-104605666D01*
X122787833Y-104635904D01*
X122848309Y-104666142D01*
X122908785Y-104666142D01*
X122969261Y-104635904D01*
X122999500Y-104605666D01*
X123029738Y-104545190D01*
X123029738Y-104394000D01*
X122999500Y-104303285D01*
X122394738Y-104031142D02*
X123029738Y-104031142D01*
X119821476Y-105972428D02*
X119791238Y-105881714D01*
X119791238Y-105730523D01*
X119821476Y-105670047D01*
X119851714Y-105639809D01*
X119912190Y-105609571D01*
X119972666Y-105609571D01*
X120033142Y-105639809D01*
X120063380Y-105670047D01*
X120093619Y-105730523D01*
X120123857Y-105851476D01*
X120154095Y-105911952D01*
X120184333Y-105942190D01*
X120244809Y-105972428D01*
X120305285Y-105972428D01*
X120365761Y-105942190D01*
X120396000Y-105911952D01*
X120426238Y-105851476D01*
X120426238Y-105700285D01*
X120396000Y-105609571D01*
X119851714Y-104974571D02*
X119821476Y-105004809D01*
X119791238Y-105095523D01*
X119791238Y-105156000D01*
X119821476Y-105246714D01*
X119881952Y-105307190D01*
X119942428Y-105337428D01*
X120063380Y-105367666D01*
X120154095Y-105367666D01*
X120275047Y-105337428D01*
X120335523Y-105307190D01*
X120396000Y-105246714D01*
X120426238Y-105156000D01*
X120426238Y-105095523D01*
X120396000Y-105004809D01*
X120365761Y-104974571D01*
X119791238Y-104702428D02*
X120426238Y-104702428D01*
X119791238Y-104339571D02*
X120154095Y-104611714D01*
X120426238Y-104339571D02*
X120063380Y-104702428D01*
X97566238Y-106011738D02*
X97566238Y-105618642D01*
X97324333Y-105830309D01*
X97324333Y-105739595D01*
X97294095Y-105679119D01*
X97263857Y-105648880D01*
X97203380Y-105618642D01*
X97052190Y-105618642D01*
X96991714Y-105648880D01*
X96961476Y-105679119D01*
X96931238Y-105739595D01*
X96931238Y-105921023D01*
X96961476Y-105981500D01*
X96991714Y-106011738D01*
X96991714Y-105346500D02*
X96961476Y-105316261D01*
X96931238Y-105346500D01*
X96961476Y-105376738D01*
X96991714Y-105346500D01*
X96931238Y-105346500D01*
X97566238Y-105104595D02*
X97566238Y-104711500D01*
X97324333Y-104923166D01*
X97324333Y-104832452D01*
X97294095Y-104771976D01*
X97263857Y-104741738D01*
X97203380Y-104711500D01*
X97052190Y-104711500D01*
X96991714Y-104741738D01*
X96961476Y-104771976D01*
X96931238Y-104832452D01*
X96931238Y-105013880D01*
X96961476Y-105074357D01*
X96991714Y-105104595D01*
X109691714Y-105642833D02*
X109661476Y-105673071D01*
X109631238Y-105763785D01*
X109631238Y-105824261D01*
X109661476Y-105914976D01*
X109721952Y-105975452D01*
X109782428Y-106005690D01*
X109903380Y-106035928D01*
X109994095Y-106035928D01*
X110115047Y-106005690D01*
X110175523Y-105975452D01*
X110236000Y-105914976D01*
X110266238Y-105824261D01*
X110266238Y-105763785D01*
X110236000Y-105673071D01*
X110205761Y-105642833D01*
X109661476Y-105400928D02*
X109631238Y-105310214D01*
X109631238Y-105159023D01*
X109661476Y-105098547D01*
X109691714Y-105068309D01*
X109752190Y-105038071D01*
X109812666Y-105038071D01*
X109873142Y-105068309D01*
X109903380Y-105098547D01*
X109933619Y-105159023D01*
X109963857Y-105279976D01*
X109994095Y-105340452D01*
X110024333Y-105370690D01*
X110084809Y-105400928D01*
X110145285Y-105400928D01*
X110205761Y-105370690D01*
X110236000Y-105340452D01*
X110266238Y-105279976D01*
X110266238Y-105128785D01*
X110236000Y-105038071D01*
X104551238Y-106026857D02*
X105186238Y-106026857D01*
X104732666Y-105815190D01*
X105186238Y-105603523D01*
X104551238Y-105603523D01*
X105186238Y-105391857D02*
X105186238Y-105029000D01*
X104551238Y-105210428D02*
X105186238Y-105210428D01*
X104551238Y-104454476D02*
X104853619Y-104666142D01*
X104551238Y-104817333D02*
X105186238Y-104817333D01*
X105186238Y-104575428D01*
X105156000Y-104514952D01*
X105125761Y-104484714D01*
X105065285Y-104454476D01*
X104974571Y-104454476D01*
X104914095Y-104484714D01*
X104883857Y-104514952D01*
X104853619Y-104575428D01*
X104853619Y-104817333D01*
X104490761Y-104333523D02*
X104490761Y-103849714D01*
X104883857Y-103698523D02*
X104883857Y-103486857D01*
X104551238Y-103396142D02*
X104551238Y-103698523D01*
X105186238Y-103698523D01*
X105186238Y-103396142D01*
X104551238Y-103124000D02*
X105186238Y-103124000D01*
X104551238Y-102761142D01*
X105186238Y-102761142D01*
M02*
