G04 #@! TF.GenerationSoftware,KiCad,Pcbnew,(5.1.5-0)*
G04 #@! TF.CreationDate,2019-12-11T17:32:03-05:00*
G04 #@! TF.ProjectId,syringe_board,73797269-6e67-4655-9f62-6f6172642e6b,3.3*
G04 #@! TF.SameCoordinates,Original*
G04 #@! TF.FileFunction,Soldermask,Bot*
G04 #@! TF.FilePolarity,Negative*
%FSLAX46Y46*%
G04 Gerber Fmt 4.6, Leading zero omitted, Abs format (unit mm)*
G04 Created by KiCad (PCBNEW (5.1.5-0)) date 2019-12-11 17:32:03*
%MOMM*%
%LPD*%
G04 APERTURE LIST*
%ADD10C,0.100000*%
G04 APERTURE END LIST*
D10*
G36*
X133091569Y-106365280D02*
G01*
X133247278Y-106429776D01*
X133387413Y-106523412D01*
X133506588Y-106642587D01*
X133600224Y-106782722D01*
X133664720Y-106938431D01*
X133697600Y-107103729D01*
X133697600Y-107272271D01*
X133664720Y-107437569D01*
X133600224Y-107593278D01*
X133506588Y-107733413D01*
X133387413Y-107852588D01*
X133247278Y-107946224D01*
X133091569Y-108010720D01*
X132926271Y-108043600D01*
X132757729Y-108043600D01*
X132592431Y-108010720D01*
X132436722Y-107946224D01*
X132296587Y-107852588D01*
X132177412Y-107733413D01*
X132083776Y-107593278D01*
X132019280Y-107437569D01*
X131986400Y-107272271D01*
X131986400Y-107103729D01*
X132019280Y-106938431D01*
X132083776Y-106782722D01*
X132177412Y-106642587D01*
X132296587Y-106523412D01*
X132436722Y-106429776D01*
X132592431Y-106365280D01*
X132757729Y-106332400D01*
X132926271Y-106332400D01*
X133091569Y-106365280D01*
G37*
G36*
X130551569Y-106365280D02*
G01*
X130707278Y-106429776D01*
X130847413Y-106523412D01*
X130966588Y-106642587D01*
X131060224Y-106782722D01*
X131124720Y-106938431D01*
X131157600Y-107103729D01*
X131157600Y-107272271D01*
X131124720Y-107437569D01*
X131060224Y-107593278D01*
X130966588Y-107733413D01*
X130847413Y-107852588D01*
X130707278Y-107946224D01*
X130551569Y-108010720D01*
X130386271Y-108043600D01*
X130217729Y-108043600D01*
X130052431Y-108010720D01*
X129896722Y-107946224D01*
X129756587Y-107852588D01*
X129637412Y-107733413D01*
X129543776Y-107593278D01*
X129479280Y-107437569D01*
X129446400Y-107272271D01*
X129446400Y-107103729D01*
X129479280Y-106938431D01*
X129543776Y-106782722D01*
X129637412Y-106642587D01*
X129756587Y-106523412D01*
X129896722Y-106429776D01*
X130052431Y-106365280D01*
X130217729Y-106332400D01*
X130386271Y-106332400D01*
X130551569Y-106365280D01*
G37*
G36*
X128011569Y-106365280D02*
G01*
X128167278Y-106429776D01*
X128307413Y-106523412D01*
X128426588Y-106642587D01*
X128520224Y-106782722D01*
X128584720Y-106938431D01*
X128617600Y-107103729D01*
X128617600Y-107272271D01*
X128584720Y-107437569D01*
X128520224Y-107593278D01*
X128426588Y-107733413D01*
X128307413Y-107852588D01*
X128167278Y-107946224D01*
X128011569Y-108010720D01*
X127846271Y-108043600D01*
X127677729Y-108043600D01*
X127512431Y-108010720D01*
X127356722Y-107946224D01*
X127216587Y-107852588D01*
X127097412Y-107733413D01*
X127003776Y-107593278D01*
X126939280Y-107437569D01*
X126906400Y-107272271D01*
X126906400Y-107103729D01*
X126939280Y-106938431D01*
X127003776Y-106782722D01*
X127097412Y-106642587D01*
X127216587Y-106523412D01*
X127356722Y-106429776D01*
X127512431Y-106365280D01*
X127677729Y-106332400D01*
X127846271Y-106332400D01*
X128011569Y-106365280D01*
G37*
G36*
X125471569Y-106365280D02*
G01*
X125627278Y-106429776D01*
X125767413Y-106523412D01*
X125886588Y-106642587D01*
X125980224Y-106782722D01*
X126044720Y-106938431D01*
X126077600Y-107103729D01*
X126077600Y-107272271D01*
X126044720Y-107437569D01*
X125980224Y-107593278D01*
X125886588Y-107733413D01*
X125767413Y-107852588D01*
X125627278Y-107946224D01*
X125471569Y-108010720D01*
X125306271Y-108043600D01*
X125137729Y-108043600D01*
X124972431Y-108010720D01*
X124816722Y-107946224D01*
X124676587Y-107852588D01*
X124557412Y-107733413D01*
X124463776Y-107593278D01*
X124399280Y-107437569D01*
X124366400Y-107272271D01*
X124366400Y-107103729D01*
X124399280Y-106938431D01*
X124463776Y-106782722D01*
X124557412Y-106642587D01*
X124676587Y-106523412D01*
X124816722Y-106429776D01*
X124972431Y-106365280D01*
X125137729Y-106332400D01*
X125306271Y-106332400D01*
X125471569Y-106365280D01*
G37*
G36*
X122931569Y-106365280D02*
G01*
X123087278Y-106429776D01*
X123227413Y-106523412D01*
X123346588Y-106642587D01*
X123440224Y-106782722D01*
X123504720Y-106938431D01*
X123537600Y-107103729D01*
X123537600Y-107272271D01*
X123504720Y-107437569D01*
X123440224Y-107593278D01*
X123346588Y-107733413D01*
X123227413Y-107852588D01*
X123087278Y-107946224D01*
X122931569Y-108010720D01*
X122766271Y-108043600D01*
X122597729Y-108043600D01*
X122432431Y-108010720D01*
X122276722Y-107946224D01*
X122136587Y-107852588D01*
X122017412Y-107733413D01*
X121923776Y-107593278D01*
X121859280Y-107437569D01*
X121826400Y-107272271D01*
X121826400Y-107103729D01*
X121859280Y-106938431D01*
X121923776Y-106782722D01*
X122017412Y-106642587D01*
X122136587Y-106523412D01*
X122276722Y-106429776D01*
X122432431Y-106365280D01*
X122597729Y-106332400D01*
X122766271Y-106332400D01*
X122931569Y-106365280D01*
G37*
G36*
X120391569Y-106365280D02*
G01*
X120547278Y-106429776D01*
X120687413Y-106523412D01*
X120806588Y-106642587D01*
X120900224Y-106782722D01*
X120964720Y-106938431D01*
X120997600Y-107103729D01*
X120997600Y-107272271D01*
X120964720Y-107437569D01*
X120900224Y-107593278D01*
X120806588Y-107733413D01*
X120687413Y-107852588D01*
X120547278Y-107946224D01*
X120391569Y-108010720D01*
X120226271Y-108043600D01*
X120057729Y-108043600D01*
X119892431Y-108010720D01*
X119736722Y-107946224D01*
X119596587Y-107852588D01*
X119477412Y-107733413D01*
X119383776Y-107593278D01*
X119319280Y-107437569D01*
X119286400Y-107272271D01*
X119286400Y-107103729D01*
X119319280Y-106938431D01*
X119383776Y-106782722D01*
X119477412Y-106642587D01*
X119596587Y-106523412D01*
X119736722Y-106429776D01*
X119892431Y-106365280D01*
X120057729Y-106332400D01*
X120226271Y-106332400D01*
X120391569Y-106365280D01*
G37*
G36*
X117851569Y-106365280D02*
G01*
X118007278Y-106429776D01*
X118147413Y-106523412D01*
X118266588Y-106642587D01*
X118360224Y-106782722D01*
X118424720Y-106938431D01*
X118457600Y-107103729D01*
X118457600Y-107272271D01*
X118424720Y-107437569D01*
X118360224Y-107593278D01*
X118266588Y-107733413D01*
X118147413Y-107852588D01*
X118007278Y-107946224D01*
X117851569Y-108010720D01*
X117686271Y-108043600D01*
X117517729Y-108043600D01*
X117352431Y-108010720D01*
X117196722Y-107946224D01*
X117056587Y-107852588D01*
X116937412Y-107733413D01*
X116843776Y-107593278D01*
X116779280Y-107437569D01*
X116746400Y-107272271D01*
X116746400Y-107103729D01*
X116779280Y-106938431D01*
X116843776Y-106782722D01*
X116937412Y-106642587D01*
X117056587Y-106523412D01*
X117196722Y-106429776D01*
X117352431Y-106365280D01*
X117517729Y-106332400D01*
X117686271Y-106332400D01*
X117851569Y-106365280D01*
G37*
G36*
X115311569Y-106365280D02*
G01*
X115467278Y-106429776D01*
X115607413Y-106523412D01*
X115726588Y-106642587D01*
X115820224Y-106782722D01*
X115884720Y-106938431D01*
X115917600Y-107103729D01*
X115917600Y-107272271D01*
X115884720Y-107437569D01*
X115820224Y-107593278D01*
X115726588Y-107733413D01*
X115607413Y-107852588D01*
X115467278Y-107946224D01*
X115311569Y-108010720D01*
X115146271Y-108043600D01*
X114977729Y-108043600D01*
X114812431Y-108010720D01*
X114656722Y-107946224D01*
X114516587Y-107852588D01*
X114397412Y-107733413D01*
X114303776Y-107593278D01*
X114239280Y-107437569D01*
X114206400Y-107272271D01*
X114206400Y-107103729D01*
X114239280Y-106938431D01*
X114303776Y-106782722D01*
X114397412Y-106642587D01*
X114516587Y-106523412D01*
X114656722Y-106429776D01*
X114812431Y-106365280D01*
X114977729Y-106332400D01*
X115146271Y-106332400D01*
X115311569Y-106365280D01*
G37*
G36*
X112771569Y-106365280D02*
G01*
X112927278Y-106429776D01*
X113067413Y-106523412D01*
X113186588Y-106642587D01*
X113280224Y-106782722D01*
X113344720Y-106938431D01*
X113377600Y-107103729D01*
X113377600Y-107272271D01*
X113344720Y-107437569D01*
X113280224Y-107593278D01*
X113186588Y-107733413D01*
X113067413Y-107852588D01*
X112927278Y-107946224D01*
X112771569Y-108010720D01*
X112606271Y-108043600D01*
X112437729Y-108043600D01*
X112272431Y-108010720D01*
X112116722Y-107946224D01*
X111976587Y-107852588D01*
X111857412Y-107733413D01*
X111763776Y-107593278D01*
X111699280Y-107437569D01*
X111666400Y-107272271D01*
X111666400Y-107103729D01*
X111699280Y-106938431D01*
X111763776Y-106782722D01*
X111857412Y-106642587D01*
X111976587Y-106523412D01*
X112116722Y-106429776D01*
X112272431Y-106365280D01*
X112437729Y-106332400D01*
X112606271Y-106332400D01*
X112771569Y-106365280D01*
G37*
G36*
X110231569Y-106365280D02*
G01*
X110387278Y-106429776D01*
X110527413Y-106523412D01*
X110646588Y-106642587D01*
X110740224Y-106782722D01*
X110804720Y-106938431D01*
X110837600Y-107103729D01*
X110837600Y-107272271D01*
X110804720Y-107437569D01*
X110740224Y-107593278D01*
X110646588Y-107733413D01*
X110527413Y-107852588D01*
X110387278Y-107946224D01*
X110231569Y-108010720D01*
X110066271Y-108043600D01*
X109897729Y-108043600D01*
X109732431Y-108010720D01*
X109576722Y-107946224D01*
X109436587Y-107852588D01*
X109317412Y-107733413D01*
X109223776Y-107593278D01*
X109159280Y-107437569D01*
X109126400Y-107272271D01*
X109126400Y-107103729D01*
X109159280Y-106938431D01*
X109223776Y-106782722D01*
X109317412Y-106642587D01*
X109436587Y-106523412D01*
X109576722Y-106429776D01*
X109732431Y-106365280D01*
X109897729Y-106332400D01*
X110066271Y-106332400D01*
X110231569Y-106365280D01*
G37*
G36*
X107691569Y-106365280D02*
G01*
X107847278Y-106429776D01*
X107987413Y-106523412D01*
X108106588Y-106642587D01*
X108200224Y-106782722D01*
X108264720Y-106938431D01*
X108297600Y-107103729D01*
X108297600Y-107272271D01*
X108264720Y-107437569D01*
X108200224Y-107593278D01*
X108106588Y-107733413D01*
X107987413Y-107852588D01*
X107847278Y-107946224D01*
X107691569Y-108010720D01*
X107526271Y-108043600D01*
X107357729Y-108043600D01*
X107192431Y-108010720D01*
X107036722Y-107946224D01*
X106896587Y-107852588D01*
X106777412Y-107733413D01*
X106683776Y-107593278D01*
X106619280Y-107437569D01*
X106586400Y-107272271D01*
X106586400Y-107103729D01*
X106619280Y-106938431D01*
X106683776Y-106782722D01*
X106777412Y-106642587D01*
X106896587Y-106523412D01*
X107036722Y-106429776D01*
X107192431Y-106365280D01*
X107357729Y-106332400D01*
X107526271Y-106332400D01*
X107691569Y-106365280D01*
G37*
G36*
X105151569Y-106365280D02*
G01*
X105307278Y-106429776D01*
X105447413Y-106523412D01*
X105566588Y-106642587D01*
X105660224Y-106782722D01*
X105724720Y-106938431D01*
X105757600Y-107103729D01*
X105757600Y-107272271D01*
X105724720Y-107437569D01*
X105660224Y-107593278D01*
X105566588Y-107733413D01*
X105447413Y-107852588D01*
X105307278Y-107946224D01*
X105151569Y-108010720D01*
X104986271Y-108043600D01*
X104817729Y-108043600D01*
X104652431Y-108010720D01*
X104496722Y-107946224D01*
X104356587Y-107852588D01*
X104237412Y-107733413D01*
X104143776Y-107593278D01*
X104079280Y-107437569D01*
X104046400Y-107272271D01*
X104046400Y-107103729D01*
X104079280Y-106938431D01*
X104143776Y-106782722D01*
X104237412Y-106642587D01*
X104356587Y-106523412D01*
X104496722Y-106429776D01*
X104652431Y-106365280D01*
X104817729Y-106332400D01*
X104986271Y-106332400D01*
X105151569Y-106365280D01*
G37*
G36*
X102611569Y-106365280D02*
G01*
X102767278Y-106429776D01*
X102907413Y-106523412D01*
X103026588Y-106642587D01*
X103120224Y-106782722D01*
X103184720Y-106938431D01*
X103217600Y-107103729D01*
X103217600Y-107272271D01*
X103184720Y-107437569D01*
X103120224Y-107593278D01*
X103026588Y-107733413D01*
X102907413Y-107852588D01*
X102767278Y-107946224D01*
X102611569Y-108010720D01*
X102446271Y-108043600D01*
X102277729Y-108043600D01*
X102112431Y-108010720D01*
X101956722Y-107946224D01*
X101816587Y-107852588D01*
X101697412Y-107733413D01*
X101603776Y-107593278D01*
X101539280Y-107437569D01*
X101506400Y-107272271D01*
X101506400Y-107103729D01*
X101539280Y-106938431D01*
X101603776Y-106782722D01*
X101697412Y-106642587D01*
X101816587Y-106523412D01*
X101956722Y-106429776D01*
X102112431Y-106365280D01*
X102277729Y-106332400D01*
X102446271Y-106332400D01*
X102611569Y-106365280D01*
G37*
G36*
X100071569Y-106365280D02*
G01*
X100227278Y-106429776D01*
X100367413Y-106523412D01*
X100486588Y-106642587D01*
X100580224Y-106782722D01*
X100644720Y-106938431D01*
X100677600Y-107103729D01*
X100677600Y-107272271D01*
X100644720Y-107437569D01*
X100580224Y-107593278D01*
X100486588Y-107733413D01*
X100367413Y-107852588D01*
X100227278Y-107946224D01*
X100071569Y-108010720D01*
X99906271Y-108043600D01*
X99737729Y-108043600D01*
X99572431Y-108010720D01*
X99416722Y-107946224D01*
X99276587Y-107852588D01*
X99157412Y-107733413D01*
X99063776Y-107593278D01*
X98999280Y-107437569D01*
X98966400Y-107272271D01*
X98966400Y-107103729D01*
X98999280Y-106938431D01*
X99063776Y-106782722D01*
X99157412Y-106642587D01*
X99276587Y-106523412D01*
X99416722Y-106429776D01*
X99572431Y-106365280D01*
X99737729Y-106332400D01*
X99906271Y-106332400D01*
X100071569Y-106365280D01*
G37*
G36*
X97531569Y-106365280D02*
G01*
X97687278Y-106429776D01*
X97827413Y-106523412D01*
X97946588Y-106642587D01*
X98040224Y-106782722D01*
X98104720Y-106938431D01*
X98137600Y-107103729D01*
X98137600Y-107272271D01*
X98104720Y-107437569D01*
X98040224Y-107593278D01*
X97946588Y-107733413D01*
X97827413Y-107852588D01*
X97687278Y-107946224D01*
X97531569Y-108010720D01*
X97366271Y-108043600D01*
X97197729Y-108043600D01*
X97032431Y-108010720D01*
X96876722Y-107946224D01*
X96736587Y-107852588D01*
X96617412Y-107733413D01*
X96523776Y-107593278D01*
X96459280Y-107437569D01*
X96426400Y-107272271D01*
X96426400Y-107103729D01*
X96459280Y-106938431D01*
X96523776Y-106782722D01*
X96617412Y-106642587D01*
X96736587Y-106523412D01*
X96876722Y-106429776D01*
X97032431Y-106365280D01*
X97197729Y-106332400D01*
X97366271Y-106332400D01*
X97531569Y-106365280D01*
G37*
G36*
X94991569Y-106365280D02*
G01*
X95147278Y-106429776D01*
X95287413Y-106523412D01*
X95406588Y-106642587D01*
X95500224Y-106782722D01*
X95564720Y-106938431D01*
X95597600Y-107103729D01*
X95597600Y-107272271D01*
X95564720Y-107437569D01*
X95500224Y-107593278D01*
X95406588Y-107733413D01*
X95287413Y-107852588D01*
X95147278Y-107946224D01*
X94991569Y-108010720D01*
X94826271Y-108043600D01*
X94657729Y-108043600D01*
X94492431Y-108010720D01*
X94336722Y-107946224D01*
X94196587Y-107852588D01*
X94077412Y-107733413D01*
X93983776Y-107593278D01*
X93919280Y-107437569D01*
X93886400Y-107272271D01*
X93886400Y-107103729D01*
X93919280Y-106938431D01*
X93983776Y-106782722D01*
X94077412Y-106642587D01*
X94196587Y-106523412D01*
X94336722Y-106429776D01*
X94492431Y-106365280D01*
X94657729Y-106332400D01*
X94826271Y-106332400D01*
X94991569Y-106365280D01*
G37*
G36*
X92329943Y-101206248D02*
G01*
X92885189Y-101436238D01*
X92885190Y-101436239D01*
X93384899Y-101770134D01*
X93809866Y-102195101D01*
X93809867Y-102195103D01*
X94143762Y-102694811D01*
X94373752Y-103250057D01*
X94491000Y-103839501D01*
X94491000Y-104440499D01*
X94373752Y-105029943D01*
X94143762Y-105585189D01*
X94079838Y-105680858D01*
X93809866Y-106084899D01*
X93384899Y-106509866D01*
X93364626Y-106523412D01*
X92885189Y-106843762D01*
X92329943Y-107073752D01*
X91740499Y-107191000D01*
X91139501Y-107191000D01*
X90550057Y-107073752D01*
X89994811Y-106843762D01*
X89515374Y-106523412D01*
X89495101Y-106509866D01*
X89070134Y-106084899D01*
X88800162Y-105680858D01*
X88736238Y-105585189D01*
X88506248Y-105029943D01*
X88389000Y-104440499D01*
X88389000Y-103839501D01*
X88506248Y-103250057D01*
X88736238Y-102694811D01*
X89070133Y-102195103D01*
X89070134Y-102195101D01*
X89495101Y-101770134D01*
X89994810Y-101436239D01*
X89994811Y-101436238D01*
X90550057Y-101206248D01*
X91139501Y-101089000D01*
X91740499Y-101089000D01*
X92329943Y-101206248D01*
G37*
G36*
X137905142Y-105136242D02*
G01*
X138053101Y-105197529D01*
X138186255Y-105286499D01*
X138299501Y-105399745D01*
X138388471Y-105532899D01*
X138449758Y-105680858D01*
X138481000Y-105837925D01*
X138481000Y-105998075D01*
X138449758Y-106155142D01*
X138388471Y-106303101D01*
X138299501Y-106436255D01*
X138186255Y-106549501D01*
X138053101Y-106638471D01*
X137905142Y-106699758D01*
X137748075Y-106731000D01*
X137587925Y-106731000D01*
X137430858Y-106699758D01*
X137282899Y-106638471D01*
X137149745Y-106549501D01*
X137036499Y-106436255D01*
X136947529Y-106303101D01*
X136886242Y-106155142D01*
X136855000Y-105998075D01*
X136855000Y-105837925D01*
X136886242Y-105680858D01*
X136947529Y-105532899D01*
X137036499Y-105399745D01*
X137149745Y-105286499D01*
X137282899Y-105197529D01*
X137430858Y-105136242D01*
X137587925Y-105105000D01*
X137748075Y-105105000D01*
X137905142Y-105136242D01*
G37*
G36*
X131699943Y-99682248D02*
G01*
X132255189Y-99912238D01*
X132423949Y-100025000D01*
X132754899Y-100246134D01*
X133179866Y-100671101D01*
X133248807Y-100774279D01*
X133513762Y-101170811D01*
X133743752Y-101726057D01*
X133861000Y-102315501D01*
X133861000Y-102916499D01*
X133743752Y-103505943D01*
X133513762Y-104061189D01*
X133513761Y-104061190D01*
X133179866Y-104560899D01*
X132754899Y-104985866D01*
X132576602Y-105105000D01*
X132255189Y-105319762D01*
X131699943Y-105549752D01*
X131110499Y-105667000D01*
X130509501Y-105667000D01*
X129920057Y-105549752D01*
X129364811Y-105319762D01*
X129043398Y-105105000D01*
X128865101Y-104985866D01*
X128440134Y-104560899D01*
X128106239Y-104061190D01*
X128106238Y-104061189D01*
X127876248Y-103505943D01*
X127759000Y-102916499D01*
X127759000Y-102315501D01*
X127876248Y-101726057D01*
X128106238Y-101170811D01*
X128371193Y-100774279D01*
X128440134Y-100671101D01*
X128865101Y-100246134D01*
X129196051Y-100025000D01*
X129364811Y-99912238D01*
X129920057Y-99682248D01*
X130509501Y-99565000D01*
X131110499Y-99565000D01*
X131699943Y-99682248D01*
G37*
G36*
X137905142Y-102596242D02*
G01*
X138053101Y-102657529D01*
X138186255Y-102746499D01*
X138299501Y-102859745D01*
X138388471Y-102992899D01*
X138449758Y-103140858D01*
X138481000Y-103297925D01*
X138481000Y-103458075D01*
X138449758Y-103615142D01*
X138388471Y-103763101D01*
X138299501Y-103896255D01*
X138186255Y-104009501D01*
X138053101Y-104098471D01*
X137905142Y-104159758D01*
X137748075Y-104191000D01*
X137587925Y-104191000D01*
X137430858Y-104159758D01*
X137282899Y-104098471D01*
X137149745Y-104009501D01*
X137036499Y-103896255D01*
X136947529Y-103763101D01*
X136886242Y-103615142D01*
X136855000Y-103458075D01*
X136855000Y-103297925D01*
X136886242Y-103140858D01*
X136947529Y-102992899D01*
X137036499Y-102859745D01*
X137149745Y-102746499D01*
X137282899Y-102657529D01*
X137430858Y-102596242D01*
X137587925Y-102565000D01*
X137748075Y-102565000D01*
X137905142Y-102596242D01*
G37*
G36*
X137905142Y-100056242D02*
G01*
X138053101Y-100117529D01*
X138186255Y-100206499D01*
X138299501Y-100319745D01*
X138388471Y-100452899D01*
X138449758Y-100600858D01*
X138481000Y-100757925D01*
X138481000Y-100918075D01*
X138449758Y-101075142D01*
X138388471Y-101223101D01*
X138299501Y-101356255D01*
X138186255Y-101469501D01*
X138053101Y-101558471D01*
X137905142Y-101619758D01*
X137748075Y-101651000D01*
X137587925Y-101651000D01*
X137430858Y-101619758D01*
X137282899Y-101558471D01*
X137149745Y-101469501D01*
X137036499Y-101356255D01*
X136947529Y-101223101D01*
X136886242Y-101075142D01*
X136855000Y-100918075D01*
X136855000Y-100757925D01*
X136886242Y-100600858D01*
X136947529Y-100452899D01*
X137036499Y-100319745D01*
X137149745Y-100206499D01*
X137282899Y-100117529D01*
X137430858Y-100056242D01*
X137587925Y-100025000D01*
X137748075Y-100025000D01*
X137905142Y-100056242D01*
G37*
G36*
X89828139Y-99184363D02*
G01*
X89910403Y-99200726D01*
X90065384Y-99264921D01*
X90204864Y-99358119D01*
X90323481Y-99476736D01*
X90416679Y-99616216D01*
X90480874Y-99771197D01*
X90480874Y-99771199D01*
X90508929Y-99912239D01*
X90513600Y-99935725D01*
X90513600Y-100103475D01*
X90480874Y-100268003D01*
X90416679Y-100422984D01*
X90323481Y-100562464D01*
X90204864Y-100681081D01*
X90065384Y-100774279D01*
X89910403Y-100838474D01*
X89828139Y-100854837D01*
X89745877Y-100871200D01*
X89578123Y-100871200D01*
X89495861Y-100854837D01*
X89413597Y-100838474D01*
X89258616Y-100774279D01*
X89119136Y-100681081D01*
X89000519Y-100562464D01*
X88907321Y-100422984D01*
X88843126Y-100268003D01*
X88810400Y-100103475D01*
X88810400Y-99935725D01*
X88815072Y-99912239D01*
X88843126Y-99771199D01*
X88843126Y-99771197D01*
X88907321Y-99616216D01*
X89000519Y-99476736D01*
X89119136Y-99358119D01*
X89258616Y-99264921D01*
X89413597Y-99200726D01*
X89495861Y-99184363D01*
X89578123Y-99168000D01*
X89745877Y-99168000D01*
X89828139Y-99184363D01*
G37*
G36*
X92545588Y-98414787D02*
G01*
X92660131Y-98462232D01*
X92660133Y-98462233D01*
X92763219Y-98531113D01*
X92850887Y-98618781D01*
X92893864Y-98683101D01*
X92919768Y-98721869D01*
X92967213Y-98836412D01*
X92991400Y-98958008D01*
X92991400Y-99081992D01*
X92967213Y-99203588D01*
X92941808Y-99264921D01*
X92919767Y-99318133D01*
X92850887Y-99421219D01*
X92763219Y-99508887D01*
X92660133Y-99577767D01*
X92660132Y-99577768D01*
X92660131Y-99577768D01*
X92545588Y-99625213D01*
X92423992Y-99649400D01*
X92300008Y-99649400D01*
X92178412Y-99625213D01*
X92063869Y-99577768D01*
X92063868Y-99577768D01*
X92063867Y-99577767D01*
X91960781Y-99508887D01*
X91873113Y-99421219D01*
X91804233Y-99318133D01*
X91782192Y-99264921D01*
X91756787Y-99203588D01*
X91732600Y-99081992D01*
X91732600Y-98958008D01*
X91756787Y-98836412D01*
X91804232Y-98721869D01*
X91830136Y-98683101D01*
X91873113Y-98618781D01*
X91960781Y-98531113D01*
X92063867Y-98462233D01*
X92063869Y-98462232D01*
X92178412Y-98414787D01*
X92300008Y-98390600D01*
X92423992Y-98390600D01*
X92545588Y-98414787D01*
G37*
G36*
X137905142Y-97516242D02*
G01*
X138053101Y-97577529D01*
X138186255Y-97666499D01*
X138299501Y-97779745D01*
X138388471Y-97912899D01*
X138449758Y-98060858D01*
X138481000Y-98217925D01*
X138481000Y-98378075D01*
X138449758Y-98535142D01*
X138388471Y-98683101D01*
X138299501Y-98816255D01*
X138186255Y-98929501D01*
X138053101Y-99018471D01*
X137905142Y-99079758D01*
X137748075Y-99111000D01*
X137587925Y-99111000D01*
X137430858Y-99079758D01*
X137282899Y-99018471D01*
X137149745Y-98929501D01*
X137036499Y-98816255D01*
X136947529Y-98683101D01*
X136886242Y-98535142D01*
X136855000Y-98378075D01*
X136855000Y-98217925D01*
X136886242Y-98060858D01*
X136947529Y-97912899D01*
X137036499Y-97779745D01*
X137149745Y-97666499D01*
X137282899Y-97577529D01*
X137430858Y-97516242D01*
X137587925Y-97485000D01*
X137748075Y-97485000D01*
X137905142Y-97516242D01*
G37*
G36*
X137905142Y-94976242D02*
G01*
X138053101Y-95037529D01*
X138186255Y-95126499D01*
X138299501Y-95239745D01*
X138388471Y-95372899D01*
X138449758Y-95520858D01*
X138481000Y-95677925D01*
X138481000Y-95838075D01*
X138449758Y-95995142D01*
X138388471Y-96143101D01*
X138299501Y-96276255D01*
X138186255Y-96389501D01*
X138053101Y-96478471D01*
X137905142Y-96539758D01*
X137748075Y-96571000D01*
X137587925Y-96571000D01*
X137430858Y-96539758D01*
X137282899Y-96478471D01*
X137149745Y-96389501D01*
X137036499Y-96276255D01*
X136947529Y-96143101D01*
X136886242Y-95995142D01*
X136855000Y-95838075D01*
X136855000Y-95677925D01*
X136886242Y-95520858D01*
X136947529Y-95372899D01*
X137036499Y-95239745D01*
X137149745Y-95126499D01*
X137282899Y-95037529D01*
X137430858Y-94976242D01*
X137587925Y-94945000D01*
X137748075Y-94945000D01*
X137905142Y-94976242D01*
G37*
G36*
X92545588Y-93414787D02*
G01*
X92660131Y-93462232D01*
X92660133Y-93462233D01*
X92763219Y-93531113D01*
X92850887Y-93618781D01*
X92919767Y-93721867D01*
X92919768Y-93721869D01*
X92967213Y-93836412D01*
X92991400Y-93958008D01*
X92991400Y-94081992D01*
X92967213Y-94203588D01*
X92919768Y-94318131D01*
X92919767Y-94318133D01*
X92850887Y-94421219D01*
X92763219Y-94508887D01*
X92660133Y-94577767D01*
X92660132Y-94577768D01*
X92660131Y-94577768D01*
X92545588Y-94625213D01*
X92423992Y-94649400D01*
X92300008Y-94649400D01*
X92178412Y-94625213D01*
X92063869Y-94577768D01*
X92063868Y-94577768D01*
X92063867Y-94577767D01*
X91960781Y-94508887D01*
X91873113Y-94421219D01*
X91804233Y-94318133D01*
X91804232Y-94318131D01*
X91756787Y-94203588D01*
X91732600Y-94081992D01*
X91732600Y-93958008D01*
X91756787Y-93836412D01*
X91804232Y-93721869D01*
X91804233Y-93721867D01*
X91873113Y-93618781D01*
X91960781Y-93531113D01*
X92063867Y-93462233D01*
X92063869Y-93462232D01*
X92178412Y-93414787D01*
X92300008Y-93390600D01*
X92423992Y-93390600D01*
X92545588Y-93414787D01*
G37*
G36*
X137905142Y-92436242D02*
G01*
X138053101Y-92497529D01*
X138186255Y-92586499D01*
X138299501Y-92699745D01*
X138388471Y-92832899D01*
X138449758Y-92980858D01*
X138481000Y-93137925D01*
X138481000Y-93298075D01*
X138449758Y-93455142D01*
X138388471Y-93603101D01*
X138299501Y-93736255D01*
X138186255Y-93849501D01*
X138053101Y-93938471D01*
X137905142Y-93999758D01*
X137748075Y-94031000D01*
X137587925Y-94031000D01*
X137430858Y-93999758D01*
X137282899Y-93938471D01*
X137149745Y-93849501D01*
X137036499Y-93736255D01*
X136947529Y-93603101D01*
X136886242Y-93455142D01*
X136855000Y-93298075D01*
X136855000Y-93137925D01*
X136886242Y-92980858D01*
X136947529Y-92832899D01*
X137036499Y-92699745D01*
X137149745Y-92586499D01*
X137282899Y-92497529D01*
X137430858Y-92436242D01*
X137587925Y-92405000D01*
X137748075Y-92405000D01*
X137905142Y-92436242D01*
G37*
G36*
X89828139Y-92185163D02*
G01*
X89910403Y-92201526D01*
X90065384Y-92265721D01*
X90204864Y-92358919D01*
X90323481Y-92477536D01*
X90416679Y-92617016D01*
X90480874Y-92771997D01*
X90513600Y-92936525D01*
X90513600Y-93104275D01*
X90480874Y-93268803D01*
X90416679Y-93423784D01*
X90323481Y-93563264D01*
X90204864Y-93681881D01*
X90065384Y-93775079D01*
X89910403Y-93839274D01*
X89858997Y-93849499D01*
X89745877Y-93872000D01*
X89578123Y-93872000D01*
X89465003Y-93849499D01*
X89413597Y-93839274D01*
X89258616Y-93775079D01*
X89119136Y-93681881D01*
X89000519Y-93563264D01*
X88907321Y-93423784D01*
X88843126Y-93268803D01*
X88810400Y-93104275D01*
X88810400Y-92936525D01*
X88843126Y-92771997D01*
X88907321Y-92617016D01*
X89000519Y-92477536D01*
X89119136Y-92358919D01*
X89258616Y-92265721D01*
X89413597Y-92201526D01*
X89495861Y-92185163D01*
X89578123Y-92168800D01*
X89745877Y-92168800D01*
X89828139Y-92185163D01*
G37*
G36*
X137905142Y-89896242D02*
G01*
X138053101Y-89957529D01*
X138186255Y-90046499D01*
X138299501Y-90159745D01*
X138388471Y-90292899D01*
X138449758Y-90440858D01*
X138481000Y-90597925D01*
X138481000Y-90758075D01*
X138449758Y-90915142D01*
X138388471Y-91063101D01*
X138299501Y-91196255D01*
X138186255Y-91309501D01*
X138053101Y-91398471D01*
X137905142Y-91459758D01*
X137748075Y-91491000D01*
X137587925Y-91491000D01*
X137430858Y-91459758D01*
X137282899Y-91398471D01*
X137149745Y-91309501D01*
X137036499Y-91196255D01*
X136947529Y-91063101D01*
X136886242Y-90915142D01*
X136855000Y-90758075D01*
X136855000Y-90597925D01*
X136886242Y-90440858D01*
X136947529Y-90292899D01*
X137036499Y-90159745D01*
X137149745Y-90046499D01*
X137282899Y-89957529D01*
X137430858Y-89896242D01*
X137587925Y-89865000D01*
X137748075Y-89865000D01*
X137905142Y-89896242D01*
G37*
G36*
X137905142Y-87356242D02*
G01*
X138053101Y-87417529D01*
X138186255Y-87506499D01*
X138299501Y-87619745D01*
X138388471Y-87752899D01*
X138449758Y-87900858D01*
X138481000Y-88057925D01*
X138481000Y-88218075D01*
X138449758Y-88375142D01*
X138388471Y-88523101D01*
X138299501Y-88656255D01*
X138186255Y-88769501D01*
X138053101Y-88858471D01*
X137905142Y-88919758D01*
X137748075Y-88951000D01*
X137587925Y-88951000D01*
X137430858Y-88919758D01*
X137282899Y-88858471D01*
X137149745Y-88769501D01*
X137036499Y-88656255D01*
X136947529Y-88523101D01*
X136886242Y-88375142D01*
X136855000Y-88218075D01*
X136855000Y-88057925D01*
X136886242Y-87900858D01*
X136947529Y-87752899D01*
X137036499Y-87619745D01*
X137149745Y-87506499D01*
X137282899Y-87417529D01*
X137430858Y-87356242D01*
X137587925Y-87325000D01*
X137748075Y-87325000D01*
X137905142Y-87356242D01*
G37*
G36*
X115311569Y-86045280D02*
G01*
X115467278Y-86109776D01*
X115607413Y-86203412D01*
X115726588Y-86322587D01*
X115820224Y-86462722D01*
X115884720Y-86618431D01*
X115917600Y-86783729D01*
X115917600Y-86952271D01*
X115884720Y-87117569D01*
X115820224Y-87273278D01*
X115726588Y-87413413D01*
X115607413Y-87532588D01*
X115467278Y-87626224D01*
X115311569Y-87690720D01*
X115146271Y-87723600D01*
X114977729Y-87723600D01*
X114812431Y-87690720D01*
X114656722Y-87626224D01*
X114516587Y-87532588D01*
X114397412Y-87413413D01*
X114303776Y-87273278D01*
X114239280Y-87117569D01*
X114206400Y-86952271D01*
X114206400Y-86783729D01*
X114239280Y-86618431D01*
X114303776Y-86462722D01*
X114397412Y-86322587D01*
X114516587Y-86203412D01*
X114656722Y-86109776D01*
X114812431Y-86045280D01*
X114977729Y-86012400D01*
X115146271Y-86012400D01*
X115311569Y-86045280D01*
G37*
G36*
X117851569Y-86045280D02*
G01*
X118007278Y-86109776D01*
X118147413Y-86203412D01*
X118266588Y-86322587D01*
X118360224Y-86462722D01*
X118424720Y-86618431D01*
X118457600Y-86783729D01*
X118457600Y-86952271D01*
X118424720Y-87117569D01*
X118360224Y-87273278D01*
X118266588Y-87413413D01*
X118147413Y-87532588D01*
X118007278Y-87626224D01*
X117851569Y-87690720D01*
X117686271Y-87723600D01*
X117517729Y-87723600D01*
X117352431Y-87690720D01*
X117196722Y-87626224D01*
X117056587Y-87532588D01*
X116937412Y-87413413D01*
X116843776Y-87273278D01*
X116779280Y-87117569D01*
X116746400Y-86952271D01*
X116746400Y-86783729D01*
X116779280Y-86618431D01*
X116843776Y-86462722D01*
X116937412Y-86322587D01*
X117056587Y-86203412D01*
X117196722Y-86109776D01*
X117352431Y-86045280D01*
X117517729Y-86012400D01*
X117686271Y-86012400D01*
X117851569Y-86045280D01*
G37*
G36*
X120391569Y-86045280D02*
G01*
X120547278Y-86109776D01*
X120687413Y-86203412D01*
X120806588Y-86322587D01*
X120900224Y-86462722D01*
X120964720Y-86618431D01*
X120997600Y-86783729D01*
X120997600Y-86952271D01*
X120964720Y-87117569D01*
X120900224Y-87273278D01*
X120806588Y-87413413D01*
X120687413Y-87532588D01*
X120547278Y-87626224D01*
X120391569Y-87690720D01*
X120226271Y-87723600D01*
X120057729Y-87723600D01*
X119892431Y-87690720D01*
X119736722Y-87626224D01*
X119596587Y-87532588D01*
X119477412Y-87413413D01*
X119383776Y-87273278D01*
X119319280Y-87117569D01*
X119286400Y-86952271D01*
X119286400Y-86783729D01*
X119319280Y-86618431D01*
X119383776Y-86462722D01*
X119477412Y-86322587D01*
X119596587Y-86203412D01*
X119736722Y-86109776D01*
X119892431Y-86045280D01*
X120057729Y-86012400D01*
X120226271Y-86012400D01*
X120391569Y-86045280D01*
G37*
G36*
X122931569Y-86045280D02*
G01*
X123087278Y-86109776D01*
X123227413Y-86203412D01*
X123346588Y-86322587D01*
X123440224Y-86462722D01*
X123504720Y-86618431D01*
X123537600Y-86783729D01*
X123537600Y-86952271D01*
X123504720Y-87117569D01*
X123440224Y-87273278D01*
X123346588Y-87413413D01*
X123227413Y-87532588D01*
X123087278Y-87626224D01*
X122931569Y-87690720D01*
X122766271Y-87723600D01*
X122597729Y-87723600D01*
X122432431Y-87690720D01*
X122276722Y-87626224D01*
X122136587Y-87532588D01*
X122017412Y-87413413D01*
X121923776Y-87273278D01*
X121859280Y-87117569D01*
X121826400Y-86952271D01*
X121826400Y-86783729D01*
X121859280Y-86618431D01*
X121923776Y-86462722D01*
X122017412Y-86322587D01*
X122136587Y-86203412D01*
X122276722Y-86109776D01*
X122432431Y-86045280D01*
X122597729Y-86012400D01*
X122766271Y-86012400D01*
X122931569Y-86045280D01*
G37*
G36*
X133091569Y-86045280D02*
G01*
X133247278Y-86109776D01*
X133387413Y-86203412D01*
X133506588Y-86322587D01*
X133600224Y-86462722D01*
X133664720Y-86618431D01*
X133697600Y-86783729D01*
X133697600Y-86952271D01*
X133664720Y-87117569D01*
X133600224Y-87273278D01*
X133506588Y-87413413D01*
X133387413Y-87532588D01*
X133247278Y-87626224D01*
X133091569Y-87690720D01*
X132926271Y-87723600D01*
X132757729Y-87723600D01*
X132592431Y-87690720D01*
X132436722Y-87626224D01*
X132296587Y-87532588D01*
X132177412Y-87413413D01*
X132083776Y-87273278D01*
X132019280Y-87117569D01*
X131986400Y-86952271D01*
X131986400Y-86783729D01*
X132019280Y-86618431D01*
X132083776Y-86462722D01*
X132177412Y-86322587D01*
X132296587Y-86203412D01*
X132436722Y-86109776D01*
X132592431Y-86045280D01*
X132757729Y-86012400D01*
X132926271Y-86012400D01*
X133091569Y-86045280D01*
G37*
G36*
X130551569Y-86045280D02*
G01*
X130707278Y-86109776D01*
X130847413Y-86203412D01*
X130966588Y-86322587D01*
X131060224Y-86462722D01*
X131124720Y-86618431D01*
X131157600Y-86783729D01*
X131157600Y-86952271D01*
X131124720Y-87117569D01*
X131060224Y-87273278D01*
X130966588Y-87413413D01*
X130847413Y-87532588D01*
X130707278Y-87626224D01*
X130551569Y-87690720D01*
X130386271Y-87723600D01*
X130217729Y-87723600D01*
X130052431Y-87690720D01*
X129896722Y-87626224D01*
X129756587Y-87532588D01*
X129637412Y-87413413D01*
X129543776Y-87273278D01*
X129479280Y-87117569D01*
X129446400Y-86952271D01*
X129446400Y-86783729D01*
X129479280Y-86618431D01*
X129543776Y-86462722D01*
X129637412Y-86322587D01*
X129756587Y-86203412D01*
X129896722Y-86109776D01*
X130052431Y-86045280D01*
X130217729Y-86012400D01*
X130386271Y-86012400D01*
X130551569Y-86045280D01*
G37*
G36*
X128011569Y-86045280D02*
G01*
X128167278Y-86109776D01*
X128307413Y-86203412D01*
X128426588Y-86322587D01*
X128520224Y-86462722D01*
X128584720Y-86618431D01*
X128617600Y-86783729D01*
X128617600Y-86952271D01*
X128584720Y-87117569D01*
X128520224Y-87273278D01*
X128426588Y-87413413D01*
X128307413Y-87532588D01*
X128167278Y-87626224D01*
X128011569Y-87690720D01*
X127846271Y-87723600D01*
X127677729Y-87723600D01*
X127512431Y-87690720D01*
X127356722Y-87626224D01*
X127216587Y-87532588D01*
X127097412Y-87413413D01*
X127003776Y-87273278D01*
X126939280Y-87117569D01*
X126906400Y-86952271D01*
X126906400Y-86783729D01*
X126939280Y-86618431D01*
X127003776Y-86462722D01*
X127097412Y-86322587D01*
X127216587Y-86203412D01*
X127356722Y-86109776D01*
X127512431Y-86045280D01*
X127677729Y-86012400D01*
X127846271Y-86012400D01*
X128011569Y-86045280D01*
G37*
G36*
X112771569Y-86045280D02*
G01*
X112927278Y-86109776D01*
X113067413Y-86203412D01*
X113186588Y-86322587D01*
X113280224Y-86462722D01*
X113344720Y-86618431D01*
X113377600Y-86783729D01*
X113377600Y-86952271D01*
X113344720Y-87117569D01*
X113280224Y-87273278D01*
X113186588Y-87413413D01*
X113067413Y-87532588D01*
X112927278Y-87626224D01*
X112771569Y-87690720D01*
X112606271Y-87723600D01*
X112437729Y-87723600D01*
X112272431Y-87690720D01*
X112116722Y-87626224D01*
X111976587Y-87532588D01*
X111857412Y-87413413D01*
X111763776Y-87273278D01*
X111699280Y-87117569D01*
X111666400Y-86952271D01*
X111666400Y-86783729D01*
X111699280Y-86618431D01*
X111763776Y-86462722D01*
X111857412Y-86322587D01*
X111976587Y-86203412D01*
X112116722Y-86109776D01*
X112272431Y-86045280D01*
X112437729Y-86012400D01*
X112606271Y-86012400D01*
X112771569Y-86045280D01*
G37*
G36*
X110231569Y-86045280D02*
G01*
X110387278Y-86109776D01*
X110527413Y-86203412D01*
X110646588Y-86322587D01*
X110740224Y-86462722D01*
X110804720Y-86618431D01*
X110837600Y-86783729D01*
X110837600Y-86952271D01*
X110804720Y-87117569D01*
X110740224Y-87273278D01*
X110646588Y-87413413D01*
X110527413Y-87532588D01*
X110387278Y-87626224D01*
X110231569Y-87690720D01*
X110066271Y-87723600D01*
X109897729Y-87723600D01*
X109732431Y-87690720D01*
X109576722Y-87626224D01*
X109436587Y-87532588D01*
X109317412Y-87413413D01*
X109223776Y-87273278D01*
X109159280Y-87117569D01*
X109126400Y-86952271D01*
X109126400Y-86783729D01*
X109159280Y-86618431D01*
X109223776Y-86462722D01*
X109317412Y-86322587D01*
X109436587Y-86203412D01*
X109576722Y-86109776D01*
X109732431Y-86045280D01*
X109897729Y-86012400D01*
X110066271Y-86012400D01*
X110231569Y-86045280D01*
G37*
G36*
X107691569Y-86045280D02*
G01*
X107847278Y-86109776D01*
X107987413Y-86203412D01*
X108106588Y-86322587D01*
X108200224Y-86462722D01*
X108264720Y-86618431D01*
X108297600Y-86783729D01*
X108297600Y-86952271D01*
X108264720Y-87117569D01*
X108200224Y-87273278D01*
X108106588Y-87413413D01*
X107987413Y-87532588D01*
X107847278Y-87626224D01*
X107691569Y-87690720D01*
X107526271Y-87723600D01*
X107357729Y-87723600D01*
X107192431Y-87690720D01*
X107036722Y-87626224D01*
X106896587Y-87532588D01*
X106777412Y-87413413D01*
X106683776Y-87273278D01*
X106619280Y-87117569D01*
X106586400Y-86952271D01*
X106586400Y-86783729D01*
X106619280Y-86618431D01*
X106683776Y-86462722D01*
X106777412Y-86322587D01*
X106896587Y-86203412D01*
X107036722Y-86109776D01*
X107192431Y-86045280D01*
X107357729Y-86012400D01*
X107526271Y-86012400D01*
X107691569Y-86045280D01*
G37*
G36*
X105151569Y-86045280D02*
G01*
X105307278Y-86109776D01*
X105447413Y-86203412D01*
X105566588Y-86322587D01*
X105660224Y-86462722D01*
X105724720Y-86618431D01*
X105757600Y-86783729D01*
X105757600Y-86952271D01*
X105724720Y-87117569D01*
X105660224Y-87273278D01*
X105566588Y-87413413D01*
X105447413Y-87532588D01*
X105307278Y-87626224D01*
X105151569Y-87690720D01*
X104986271Y-87723600D01*
X104817729Y-87723600D01*
X104652431Y-87690720D01*
X104496722Y-87626224D01*
X104356587Y-87532588D01*
X104237412Y-87413413D01*
X104143776Y-87273278D01*
X104079280Y-87117569D01*
X104046400Y-86952271D01*
X104046400Y-86783729D01*
X104079280Y-86618431D01*
X104143776Y-86462722D01*
X104237412Y-86322587D01*
X104356587Y-86203412D01*
X104496722Y-86109776D01*
X104652431Y-86045280D01*
X104817729Y-86012400D01*
X104986271Y-86012400D01*
X105151569Y-86045280D01*
G37*
G36*
X125471569Y-86045280D02*
G01*
X125627278Y-86109776D01*
X125767413Y-86203412D01*
X125886588Y-86322587D01*
X125980224Y-86462722D01*
X126044720Y-86618431D01*
X126077600Y-86783729D01*
X126077600Y-86952271D01*
X126044720Y-87117569D01*
X125980224Y-87273278D01*
X125886588Y-87413413D01*
X125767413Y-87532588D01*
X125627278Y-87626224D01*
X125471569Y-87690720D01*
X125306271Y-87723600D01*
X125137729Y-87723600D01*
X124972431Y-87690720D01*
X124816722Y-87626224D01*
X124676587Y-87532588D01*
X124557412Y-87413413D01*
X124463776Y-87273278D01*
X124399280Y-87117569D01*
X124366400Y-86952271D01*
X124366400Y-86783729D01*
X124399280Y-86618431D01*
X124463776Y-86462722D01*
X124557412Y-86322587D01*
X124676587Y-86203412D01*
X124816722Y-86109776D01*
X124972431Y-86045280D01*
X125137729Y-86012400D01*
X125306271Y-86012400D01*
X125471569Y-86045280D01*
G37*
G36*
X137553472Y-74400412D02*
G01*
X137649040Y-74409825D01*
X137894280Y-74484218D01*
X138120294Y-74605025D01*
X138171899Y-74647376D01*
X138318397Y-74767603D01*
X138438624Y-74914101D01*
X138480975Y-74965706D01*
X138601782Y-75191720D01*
X138676175Y-75436960D01*
X138701294Y-75692000D01*
X138676175Y-75947040D01*
X138601782Y-76192280D01*
X138480975Y-76418294D01*
X138438624Y-76469899D01*
X138318397Y-76616397D01*
X138171899Y-76736624D01*
X138120294Y-76778975D01*
X137894280Y-76899782D01*
X137649040Y-76974175D01*
X137553472Y-76983588D01*
X137457906Y-76993000D01*
X134830094Y-76993000D01*
X134734528Y-76983588D01*
X134638960Y-76974175D01*
X134393720Y-76899782D01*
X134167706Y-76778975D01*
X134116101Y-76736624D01*
X133969603Y-76616397D01*
X133849376Y-76469899D01*
X133807025Y-76418294D01*
X133686218Y-76192280D01*
X133611825Y-75947040D01*
X133586706Y-75692000D01*
X133611825Y-75436960D01*
X133686218Y-75191720D01*
X133807025Y-74965706D01*
X133849376Y-74914101D01*
X133969603Y-74767603D01*
X134116101Y-74647376D01*
X134167706Y-74605025D01*
X134393720Y-74484218D01*
X134638960Y-74409825D01*
X134734528Y-74400412D01*
X134830094Y-74391000D01*
X137457906Y-74391000D01*
X137553472Y-74400412D01*
G37*
G36*
X137499536Y-68533016D02*
G01*
X137721213Y-68600261D01*
X137925512Y-68709461D01*
X138104581Y-68856419D01*
X138251539Y-69035488D01*
X138360739Y-69239787D01*
X138427984Y-69461464D01*
X138450690Y-69692000D01*
X138427984Y-69922536D01*
X138360739Y-70144213D01*
X138251539Y-70348512D01*
X138104581Y-70527581D01*
X137925512Y-70674539D01*
X137721213Y-70783739D01*
X137499536Y-70850984D01*
X137326771Y-70868000D01*
X134961229Y-70868000D01*
X134788464Y-70850984D01*
X134566787Y-70783739D01*
X134362488Y-70674539D01*
X134183419Y-70527581D01*
X134036461Y-70348512D01*
X133927261Y-70144213D01*
X133860016Y-69922536D01*
X133837310Y-69692000D01*
X133860016Y-69461464D01*
X133927261Y-69239787D01*
X134036461Y-69035488D01*
X134183419Y-68856419D01*
X134362488Y-68709461D01*
X134566787Y-68600261D01*
X134788464Y-68533016D01*
X134961229Y-68516000D01*
X137326771Y-68516000D01*
X137499536Y-68533016D01*
G37*
G36*
X124587943Y-62852248D02*
G01*
X125143189Y-63082238D01*
X125143190Y-63082239D01*
X125642899Y-63416134D01*
X126067866Y-63841101D01*
X126067867Y-63841103D01*
X126401762Y-64340811D01*
X126631752Y-64896057D01*
X126749000Y-65485501D01*
X126749000Y-66086499D01*
X126631752Y-66675943D01*
X126401762Y-67231189D01*
X126401761Y-67231190D01*
X126067866Y-67730899D01*
X125642899Y-68155866D01*
X125391347Y-68323948D01*
X125143189Y-68489762D01*
X124587943Y-68719752D01*
X123998499Y-68837000D01*
X123397501Y-68837000D01*
X122808057Y-68719752D01*
X122252811Y-68489762D01*
X122004653Y-68323948D01*
X121753101Y-68155866D01*
X121328134Y-67730899D01*
X120994239Y-67231190D01*
X120994238Y-67231189D01*
X120764248Y-66675943D01*
X120647000Y-66086499D01*
X120647000Y-65485501D01*
X120764248Y-64896057D01*
X120994238Y-64340811D01*
X121328133Y-63841103D01*
X121328134Y-63841101D01*
X121753101Y-63416134D01*
X122252810Y-63082239D01*
X122252811Y-63082238D01*
X122808057Y-62852248D01*
X123397501Y-62735000D01*
X123998499Y-62735000D01*
X124587943Y-62852248D01*
G37*
G36*
X92329943Y-62852248D02*
G01*
X92885189Y-63082238D01*
X92885190Y-63082239D01*
X93384899Y-63416134D01*
X93809866Y-63841101D01*
X93809867Y-63841103D01*
X94143762Y-64340811D01*
X94373752Y-64896057D01*
X94491000Y-65485501D01*
X94491000Y-66086499D01*
X94373752Y-66675943D01*
X94143762Y-67231189D01*
X94143761Y-67231190D01*
X93809866Y-67730899D01*
X93384899Y-68155866D01*
X93133347Y-68323948D01*
X92885189Y-68489762D01*
X92329943Y-68719752D01*
X91740499Y-68837000D01*
X91139501Y-68837000D01*
X90550057Y-68719752D01*
X89994811Y-68489762D01*
X89746653Y-68323948D01*
X89495101Y-68155866D01*
X89070134Y-67730899D01*
X88736239Y-67231190D01*
X88736238Y-67231189D01*
X88506248Y-66675943D01*
X88389000Y-66086499D01*
X88389000Y-65485501D01*
X88506248Y-64896057D01*
X88736238Y-64340811D01*
X89070133Y-63841103D01*
X89070134Y-63841101D01*
X89495101Y-63416134D01*
X89994810Y-63082239D01*
X89994811Y-63082238D01*
X90550057Y-62852248D01*
X91139501Y-62735000D01*
X91740499Y-62735000D01*
X92329943Y-62852248D01*
G37*
M02*
