G04 #@! TF.GenerationSoftware,KiCad,Pcbnew,(5.1.2-1)-1*
G04 #@! TF.CreationDate,2019-06-19T14:35:12-04:00*
G04 #@! TF.ProjectId,syringe_board,73797269-6e67-4655-9f62-6f6172642e6b,rev?*
G04 #@! TF.SameCoordinates,Original*
G04 #@! TF.FileFunction,Copper,L2,Bot*
G04 #@! TF.FilePolarity,Positive*
%FSLAX46Y46*%
G04 Gerber Fmt 4.6, Leading zero omitted, Abs format (unit mm)*
G04 Created by KiCad (PCBNEW (5.1.2-1)-1) date 2019-06-19 14:35:12*
%MOMM*%
%LPD*%
G04 APERTURE LIST*
%ADD10C,1.609600*%
%ADD11C,6.000000*%
%ADD12C,0.100000*%
%ADD13C,5.000000*%
%ADD14C,0.500000*%
%ADD15C,1.524000*%
%ADD16O,5.000000X2.500000*%
%ADD17O,4.500000X2.250000*%
%ADD18C,1.500000*%
%ADD19C,1.055600*%
%ADD20C,0.800000*%
%ADD21C,0.482600*%
%ADD22C,0.609600*%
%ADD23C,0.457200*%
%ADD24C,0.250000*%
%ADD25C,0.406400*%
%ADD26C,0.254000*%
G04 APERTURE END LIST*
D10*
X94742000Y-107188000D03*
X97282000Y-107188000D03*
X99822000Y-107188000D03*
X102362000Y-107188000D03*
X104902000Y-107188000D03*
X107442000Y-107188000D03*
X109982000Y-107188000D03*
X112522000Y-107188000D03*
X115062000Y-107188000D03*
X117602000Y-107188000D03*
X120142000Y-107188000D03*
X122682000Y-107188000D03*
X125222000Y-107188000D03*
X127762000Y-107188000D03*
X130302000Y-107188000D03*
X132842000Y-107188000D03*
X132842000Y-86868000D03*
X130302000Y-86868000D03*
X127762000Y-86868000D03*
X125222000Y-86868000D03*
X122682000Y-86868000D03*
X120142000Y-86868000D03*
X117602000Y-86868000D03*
X115062000Y-86868000D03*
X112522000Y-86868000D03*
X109982000Y-86868000D03*
X107442000Y-86868000D03*
X104902000Y-86868000D03*
D11*
X130810000Y-102616000D03*
X123698000Y-65786000D03*
X91440000Y-104140000D03*
X91440000Y-65786000D03*
D12*
G36*
X107684504Y-71415204D02*
G01*
X107708773Y-71418804D01*
X107732571Y-71424765D01*
X107755671Y-71433030D01*
X107777849Y-71443520D01*
X107798893Y-71456133D01*
X107818598Y-71470747D01*
X107836777Y-71487223D01*
X107853253Y-71505402D01*
X107867867Y-71525107D01*
X107880480Y-71546151D01*
X107890970Y-71568329D01*
X107899235Y-71591429D01*
X107905196Y-71615227D01*
X107908796Y-71639496D01*
X107910000Y-71664000D01*
X107910000Y-76164000D01*
X107908796Y-76188504D01*
X107905196Y-76212773D01*
X107899235Y-76236571D01*
X107890970Y-76259671D01*
X107880480Y-76281849D01*
X107867867Y-76302893D01*
X107853253Y-76322598D01*
X107836777Y-76340777D01*
X107818598Y-76357253D01*
X107798893Y-76371867D01*
X107777849Y-76384480D01*
X107755671Y-76394970D01*
X107732571Y-76403235D01*
X107708773Y-76409196D01*
X107684504Y-76412796D01*
X107660000Y-76414000D01*
X103160000Y-76414000D01*
X103135496Y-76412796D01*
X103111227Y-76409196D01*
X103087429Y-76403235D01*
X103064329Y-76394970D01*
X103042151Y-76384480D01*
X103021107Y-76371867D01*
X103001402Y-76357253D01*
X102983223Y-76340777D01*
X102966747Y-76322598D01*
X102952133Y-76302893D01*
X102939520Y-76281849D01*
X102929030Y-76259671D01*
X102920765Y-76236571D01*
X102914804Y-76212773D01*
X102911204Y-76188504D01*
X102910000Y-76164000D01*
X102910000Y-71664000D01*
X102911204Y-71639496D01*
X102914804Y-71615227D01*
X102920765Y-71591429D01*
X102929030Y-71568329D01*
X102939520Y-71546151D01*
X102952133Y-71525107D01*
X102966747Y-71505402D01*
X102983223Y-71487223D01*
X103001402Y-71470747D01*
X103021107Y-71456133D01*
X103042151Y-71443520D01*
X103064329Y-71433030D01*
X103087429Y-71424765D01*
X103111227Y-71418804D01*
X103135496Y-71415204D01*
X103160000Y-71414000D01*
X107660000Y-71414000D01*
X107684504Y-71415204D01*
X107684504Y-71415204D01*
G37*
D13*
X105410000Y-73914000D03*
D14*
X103160000Y-71664000D03*
X104285000Y-71664000D03*
X105410000Y-71664000D03*
X106535000Y-71664000D03*
X107660000Y-71664000D03*
X103160000Y-72789000D03*
X104285000Y-72789000D03*
X105410000Y-72789000D03*
X106535000Y-72789000D03*
X107660000Y-72789000D03*
X103160000Y-73914000D03*
X104285000Y-73914000D03*
X105410000Y-73914000D03*
X106535000Y-73914000D03*
X107660000Y-73914000D03*
X103160000Y-75039000D03*
X104285000Y-75039000D03*
X105410000Y-75039000D03*
X106535000Y-75039000D03*
X107660000Y-75039000D03*
X103160000Y-76164000D03*
X104285000Y-76164000D03*
X105410000Y-76164000D03*
X106535000Y-76164000D03*
X107660000Y-76164000D03*
D15*
X137668000Y-105918000D03*
X137668000Y-103378000D03*
X137668000Y-100838000D03*
X137668000Y-98298000D03*
X137668000Y-95758000D03*
X137668000Y-93218000D03*
X137668000Y-90678000D03*
X137668000Y-88138000D03*
D16*
X136144000Y-75692000D03*
D17*
X136144000Y-69692000D03*
D18*
X89662000Y-93020400D03*
X89662000Y-100019600D03*
D19*
X92362000Y-99020000D03*
X92362000Y-94020000D03*
D20*
X113157000Y-90932000D03*
X112141000Y-79756000D03*
X90424000Y-78740000D03*
X92456000Y-87757000D03*
X103886000Y-92619990D03*
X108204000Y-102235000D03*
X117602000Y-90678000D03*
X112522000Y-98044000D03*
X104648000Y-83566000D03*
X106014654Y-97251654D03*
X97827000Y-93472000D03*
X105156000Y-92964000D03*
X111633000Y-71755000D03*
X97827000Y-63881006D03*
X109728000Y-63881000D03*
X127762000Y-90678000D03*
X124968000Y-98552000D03*
X100838000Y-81280008D03*
X93472000Y-83566000D03*
X105470868Y-89095310D03*
X103886000Y-100584000D03*
X105561853Y-95222415D03*
X113152340Y-102992340D03*
X113157000Y-101854000D03*
X105282982Y-94234000D03*
X125984000Y-103378000D03*
X117856000Y-99568000D03*
X120396000Y-71882000D03*
X102362000Y-97917000D03*
X102302319Y-84513031D03*
X117474994Y-72390000D03*
X103087010Y-95885002D03*
X135382000Y-90170000D03*
X115062000Y-90678000D03*
X104013002Y-89153986D03*
X127171000Y-80181000D03*
X125984000Y-93980010D03*
X129032000Y-84328000D03*
X131064000Y-93980000D03*
X99709416Y-100598416D03*
X99737877Y-72751422D03*
X101473000Y-105537004D03*
X127254000Y-105410000D03*
X127254000Y-98552000D03*
X119126000Y-100584000D03*
X116332000Y-104013000D03*
X109347000Y-99695000D03*
X103751688Y-98224011D03*
X115316000Y-100330000D03*
X121539000Y-88265002D03*
X101128990Y-97308368D03*
X100203000Y-83439000D03*
X117729000Y-64770000D03*
X98679000Y-64770000D03*
X98552000Y-95645010D03*
X94488000Y-97536000D03*
X95250000Y-69342000D03*
X94488000Y-85089994D03*
X121920000Y-73152000D03*
X120903992Y-96012000D03*
X117221000Y-97282000D03*
X118745000Y-74787190D03*
X120650008Y-97282000D03*
X120142000Y-98298000D03*
X112141000Y-75389000D03*
X111251996Y-94107000D03*
X104648000Y-80010000D03*
X101473000Y-66294000D03*
X111327205Y-76191000D03*
X97561502Y-104902002D03*
X109999812Y-98407188D03*
X104198843Y-96461163D03*
X105918000Y-98933000D03*
X116145044Y-66734956D03*
X116332002Y-94742000D03*
X113919000Y-67945000D03*
X113919000Y-92964000D03*
X115062000Y-74676000D03*
X115062000Y-81661006D03*
X128212985Y-73983985D03*
X113030000Y-76962004D03*
X113030000Y-65531998D03*
X132588000Y-74168000D03*
X98032818Y-96594990D03*
X95213010Y-91713002D03*
X95630996Y-82296000D03*
X95631000Y-87630000D03*
X96673010Y-83185000D03*
X96774000Y-86868006D03*
D21*
X111233001Y-89008001D02*
X111233001Y-80663999D01*
X111233001Y-80663999D02*
X111741001Y-80155999D01*
X113157000Y-90932000D02*
X111233001Y-89008001D01*
X111741001Y-80155999D02*
X112141000Y-79756000D01*
D22*
X105410000Y-73914000D02*
X102362000Y-70866000D01*
X105410000Y-73914000D02*
X102108000Y-73914000D01*
X105410000Y-73914000D02*
X108458000Y-76962000D01*
X108458000Y-70866000D02*
X105410000Y-73914000D01*
X105410000Y-73914000D02*
X108712000Y-73914000D01*
X105410000Y-73914000D02*
X105410000Y-77216000D01*
X105410000Y-73914000D02*
X105410000Y-70612000D01*
X105410000Y-73914000D02*
X102616000Y-76708000D01*
D23*
X97827000Y-93472000D02*
X97827000Y-63881006D01*
X109728000Y-69850000D02*
X109728000Y-63881000D01*
X111633000Y-71755000D02*
X109728000Y-69850000D01*
X104394000Y-93853000D02*
X105156000Y-93091000D01*
X104394000Y-95250000D02*
X104394000Y-93853000D01*
X106014654Y-96870654D02*
X104394000Y-95250000D01*
X105156000Y-93091000D02*
X105156000Y-92964000D01*
X106014654Y-97251654D02*
X106014654Y-96870654D01*
X126929428Y-96590572D02*
X124968000Y-98552000D01*
X127762000Y-95758000D02*
X126929428Y-96590572D01*
X127762000Y-90678000D02*
X127762000Y-95758000D01*
D24*
X93472000Y-84131685D02*
X93472000Y-83566000D01*
X95123000Y-101346000D02*
X93472000Y-99695000D01*
X93472000Y-99695000D02*
X93472000Y-84131685D01*
X95123000Y-106807000D02*
X95123000Y-101346000D01*
X94742000Y-107188000D02*
X95123000Y-106807000D01*
X105097310Y-89095310D02*
X105470868Y-89095310D01*
X103124000Y-87122000D02*
X105097310Y-89095310D01*
X103124000Y-83566008D02*
X103124000Y-87122000D01*
X100838000Y-81280008D02*
X103124000Y-83566008D01*
X99822000Y-104648000D02*
X99822000Y-107188000D01*
X103886000Y-100584000D02*
X99822000Y-104648000D01*
X111633000Y-99015057D02*
X111633000Y-101473000D01*
X111633000Y-101473000D02*
X113152340Y-102992340D01*
X107840358Y-95222415D02*
X111633000Y-99015057D01*
X105561853Y-95222415D02*
X107840358Y-95222415D01*
X125984000Y-105410000D02*
X125984000Y-103943685D01*
X125984000Y-103943685D02*
X125984000Y-103378000D01*
X127762000Y-107188000D02*
X125984000Y-105410000D01*
X105848667Y-94234000D02*
X105282982Y-94234000D01*
X113157000Y-101854000D02*
X113157000Y-99902647D01*
X107488353Y-94234000D02*
X105848667Y-94234000D01*
X113157000Y-99902647D02*
X107488353Y-94234000D01*
X117456001Y-99967999D02*
X117856000Y-99568000D01*
X117456001Y-101618999D02*
X117456001Y-99967999D01*
X112522000Y-106553000D02*
X117456001Y-101618999D01*
X112522000Y-107188000D02*
X112522000Y-106553000D01*
X120142000Y-72136000D02*
X120396000Y-71882000D01*
X120142000Y-86868000D02*
X120142000Y-72136000D01*
X102362000Y-97917000D02*
X102362000Y-84572712D01*
X102362000Y-84572712D02*
X102302319Y-84513031D01*
X117602000Y-72517006D02*
X117474994Y-72390000D01*
X117602000Y-86868000D02*
X117602000Y-72517006D01*
X137668000Y-103378000D02*
X135382000Y-101092000D01*
X135382000Y-101092000D02*
X135382000Y-90735685D01*
X135382000Y-90735685D02*
X135382000Y-90170000D01*
X115062000Y-86868000D02*
X115062000Y-90678000D01*
X103613003Y-89553985D02*
X104013002Y-89153986D01*
X103087010Y-95885002D02*
X103087010Y-90079978D01*
X103087010Y-90079978D02*
X103613003Y-89553985D01*
X126375818Y-93588192D02*
X125984000Y-93980010D01*
X126375818Y-80976182D02*
X126375818Y-93588192D01*
X127171000Y-80181000D02*
X126375818Y-80976182D01*
X129032000Y-91948000D02*
X131064000Y-93980000D01*
X129032000Y-84328000D02*
X129032000Y-91948000D01*
X102038685Y-105537004D02*
X101473000Y-105537004D01*
X104902000Y-107188000D02*
X103251004Y-105537004D01*
X103251004Y-105537004D02*
X102038685Y-105537004D01*
X99337878Y-99661193D02*
X99709416Y-100032731D01*
X99709416Y-100032731D02*
X99709416Y-100598416D01*
X99337878Y-73151421D02*
X99337878Y-99661193D01*
X99737877Y-72751422D02*
X99337878Y-73151421D01*
X127254000Y-105410000D02*
X127254000Y-98552000D01*
X116731999Y-104412999D02*
X116332000Y-104013000D01*
X117602000Y-105283000D02*
X116731999Y-104412999D01*
X117602000Y-105791000D02*
X117602000Y-105283000D01*
X119126000Y-103759000D02*
X119126000Y-100584000D01*
X117602000Y-105283000D02*
X119126000Y-103759000D01*
X117602000Y-107188000D02*
X117602000Y-105283000D01*
X109347000Y-99695000D02*
X105222677Y-99695000D01*
X105222677Y-99695000D02*
X104151687Y-98624010D01*
X104151687Y-98624010D02*
X103751688Y-98224011D01*
X121539000Y-88830687D02*
X121539000Y-88265002D01*
X115316000Y-100330000D02*
X121539000Y-94107000D01*
X121539000Y-94107000D02*
X121539000Y-88830687D01*
X101128990Y-97308368D02*
X100203000Y-96382378D01*
X100203000Y-84004685D02*
X100203000Y-83439000D01*
X100203000Y-96382378D02*
X100203000Y-84004685D01*
X125222000Y-86868000D02*
X125222000Y-85729841D01*
X125222000Y-72263000D02*
X117729000Y-64770000D01*
X125222000Y-85729841D02*
X125222000Y-72263000D01*
X98679000Y-64770000D02*
X98679000Y-95518010D01*
X98679000Y-95518010D02*
X98552000Y-95645010D01*
X94488000Y-70104000D02*
X94488000Y-84524309D01*
X94488000Y-97536000D02*
X94488000Y-96970315D01*
X95250000Y-69342000D02*
X94488000Y-70104000D01*
X94488000Y-84524309D02*
X94488000Y-85089994D01*
X94488000Y-96970315D02*
X94488000Y-85089994D01*
X125222000Y-107188000D02*
X125222000Y-100330008D01*
X125222000Y-100330008D02*
X121303991Y-96411999D01*
X121303991Y-96411999D02*
X120903992Y-96012000D01*
X121303991Y-95612001D02*
X120903992Y-96012000D01*
X123843999Y-75075999D02*
X123843999Y-87591996D01*
X121920000Y-73152000D02*
X123843999Y-75075999D01*
X123843999Y-87591996D02*
X124804001Y-88551998D01*
X124804001Y-88551998D02*
X124804001Y-92111991D01*
X124804001Y-92111991D02*
X121303991Y-95612001D01*
X118745000Y-75352875D02*
X118745000Y-74787190D01*
X117221000Y-97282000D02*
X118745000Y-95758000D01*
X118745000Y-95758000D02*
X118745000Y-75352875D01*
X122682000Y-99313992D02*
X120650008Y-97282000D01*
X122682000Y-107188000D02*
X122682000Y-99313992D01*
X120142000Y-107188000D02*
X120142000Y-98298000D01*
X112141000Y-75389000D02*
X112141000Y-78359000D01*
X112141000Y-78359000D02*
X108852199Y-81647801D01*
X108852199Y-91707203D02*
X110851997Y-93707001D01*
X110851997Y-93707001D02*
X111251996Y-94107000D01*
X108852199Y-81647801D02*
X108852199Y-91707203D01*
X101473000Y-66859685D02*
X101473000Y-66294000D01*
X104648000Y-80010000D02*
X101473000Y-76835000D01*
X101473000Y-76835000D02*
X101473000Y-66859685D01*
X110786799Y-106383201D02*
X109982000Y-107188000D01*
X112141000Y-105029000D02*
X110786799Y-106383201D01*
X113030000Y-105029000D02*
X112141000Y-105029000D01*
X114427000Y-103632000D02*
X113030000Y-105029000D01*
X106195870Y-90193870D02*
X114427000Y-98425000D01*
X111327205Y-76191000D02*
X106195870Y-81322335D01*
X114427000Y-98425000D02*
X114427000Y-103632000D01*
X106195870Y-81322335D02*
X106195870Y-90193870D01*
X105156000Y-100584000D02*
X109531002Y-100584000D01*
X109531002Y-100584000D02*
X110399811Y-99715191D01*
X110399811Y-98807187D02*
X109999812Y-98407188D01*
X110399811Y-99715191D02*
X110399811Y-98807187D01*
X97561502Y-104902002D02*
X102631905Y-99831599D01*
X102631905Y-99831599D02*
X104403599Y-99831599D01*
X104403599Y-99831599D02*
X105156000Y-100584000D01*
X104598842Y-96861162D02*
X104198843Y-96461163D01*
X105918000Y-98933000D02*
X105918000Y-98180320D01*
X105918000Y-98180320D02*
X104598842Y-96861162D01*
X116332002Y-67487599D02*
X116332002Y-94742000D01*
X116145044Y-66734956D02*
X116145044Y-67300641D01*
X116145044Y-67300641D02*
X116332002Y-67487599D01*
X113919000Y-67945000D02*
X113919000Y-92964000D01*
D25*
X115062000Y-74676000D02*
X115062000Y-81661006D01*
X131572000Y-87385842D02*
X131572000Y-77343000D01*
X133340158Y-89154000D02*
X131572000Y-87385842D01*
X128612984Y-74383984D02*
X128212985Y-73983985D01*
X137668000Y-90678000D02*
X136144000Y-89154000D01*
X131572000Y-77343000D02*
X128612984Y-74383984D01*
X136144000Y-89154000D02*
X133340158Y-89154000D01*
X113030000Y-76962004D02*
X113030000Y-65531998D01*
X137668000Y-88138000D02*
X132588000Y-83058000D01*
X132588000Y-83058000D02*
X132588000Y-74733685D01*
X132588000Y-74733685D02*
X132588000Y-74168000D01*
D24*
X95213010Y-92278687D02*
X95213010Y-91713002D01*
X95213010Y-93775182D02*
X95213010Y-92278687D01*
X98032818Y-96594990D02*
X95213010Y-93775182D01*
X95630996Y-87629996D02*
X95631000Y-87630000D01*
X95630996Y-82296000D02*
X95630996Y-87629996D01*
X96673010Y-83185000D02*
X96673010Y-86767016D01*
X96673010Y-86767016D02*
X96774000Y-86868006D01*
D26*
G36*
X139327567Y-62294535D02*
G01*
X139702301Y-62407674D01*
X140047916Y-62591442D01*
X140351261Y-62838843D01*
X140600769Y-63140446D01*
X140786945Y-63484772D01*
X140902697Y-63858706D01*
X140944996Y-64261157D01*
X140945001Y-64262694D01*
X140945000Y-106412359D01*
X140905465Y-106815567D01*
X140792327Y-107190299D01*
X140608561Y-107535913D01*
X140361157Y-107839261D01*
X140059554Y-108088769D01*
X139715227Y-108274945D01*
X139341294Y-108390697D01*
X138938843Y-108432996D01*
X138937591Y-108433000D01*
X133578108Y-108433000D01*
X133586360Y-108428589D01*
X133658525Y-108184130D01*
X132842000Y-107367605D01*
X132025475Y-108184130D01*
X132097640Y-108428589D01*
X132106955Y-108433000D01*
X103098108Y-108433000D01*
X103106360Y-108428589D01*
X103178525Y-108184130D01*
X102362000Y-107367605D01*
X101545475Y-108184130D01*
X101617640Y-108428589D01*
X101626955Y-108433000D01*
X90183641Y-108433000D01*
X89780433Y-108393465D01*
X89405701Y-108280327D01*
X89060087Y-108096561D01*
X88756739Y-107849157D01*
X88507231Y-107547554D01*
X88321055Y-107203227D01*
X88205303Y-106829294D01*
X88163004Y-106426843D01*
X88163000Y-106425591D01*
X88163000Y-104719047D01*
X88240855Y-105110450D01*
X88491651Y-105715925D01*
X88855750Y-106260839D01*
X89319161Y-106724250D01*
X89864075Y-107088349D01*
X90469550Y-107339145D01*
X91112319Y-107467000D01*
X91767681Y-107467000D01*
X92410450Y-107339145D01*
X93015925Y-107088349D01*
X93560839Y-106724250D01*
X94024250Y-106260839D01*
X94388349Y-105715925D01*
X94639145Y-105110450D01*
X94671000Y-104950303D01*
X94671000Y-106056200D01*
X94630527Y-106056200D01*
X94411866Y-106099695D01*
X94205892Y-106185012D01*
X94020520Y-106308874D01*
X93862874Y-106466520D01*
X93739012Y-106651892D01*
X93653695Y-106857866D01*
X93610200Y-107076527D01*
X93610200Y-107299473D01*
X93653695Y-107518134D01*
X93739012Y-107724108D01*
X93862874Y-107909480D01*
X94020520Y-108067126D01*
X94205892Y-108190988D01*
X94411866Y-108276305D01*
X94630527Y-108319800D01*
X94853473Y-108319800D01*
X95072134Y-108276305D01*
X95278108Y-108190988D01*
X95463480Y-108067126D01*
X95621126Y-107909480D01*
X95744988Y-107724108D01*
X95830305Y-107518134D01*
X95873800Y-107299473D01*
X95873800Y-107076527D01*
X96150200Y-107076527D01*
X96150200Y-107299473D01*
X96193695Y-107518134D01*
X96279012Y-107724108D01*
X96402874Y-107909480D01*
X96560520Y-108067126D01*
X96745892Y-108190988D01*
X96951866Y-108276305D01*
X97170527Y-108319800D01*
X97393473Y-108319800D01*
X97612134Y-108276305D01*
X97818108Y-108190988D01*
X98003480Y-108067126D01*
X98161126Y-107909480D01*
X98284988Y-107724108D01*
X98370305Y-107518134D01*
X98413800Y-107299473D01*
X98413800Y-107076527D01*
X98370305Y-106857866D01*
X98284988Y-106651892D01*
X98161126Y-106466520D01*
X98003480Y-106308874D01*
X97818108Y-106185012D01*
X97612134Y-106099695D01*
X97393473Y-106056200D01*
X97170527Y-106056200D01*
X96951866Y-106099695D01*
X96745892Y-106185012D01*
X96560520Y-106308874D01*
X96402874Y-106466520D01*
X96279012Y-106651892D01*
X96193695Y-106857866D01*
X96150200Y-107076527D01*
X95873800Y-107076527D01*
X95830305Y-106857866D01*
X95744988Y-106651892D01*
X95621126Y-106466520D01*
X95575000Y-106420394D01*
X95575000Y-101368205D01*
X95577187Y-101346000D01*
X95568460Y-101257392D01*
X95542614Y-101172190D01*
X95537763Y-101163114D01*
X95500643Y-101093667D01*
X95444159Y-101024841D01*
X95426905Y-101010681D01*
X93924000Y-99507777D01*
X93924000Y-98000134D01*
X94024564Y-98100698D01*
X94143636Y-98180259D01*
X94275942Y-98235062D01*
X94416397Y-98263000D01*
X94559603Y-98263000D01*
X94700058Y-98235062D01*
X94832364Y-98180259D01*
X94951436Y-98100698D01*
X95052698Y-97999436D01*
X95132259Y-97880364D01*
X95187062Y-97748058D01*
X95215000Y-97607603D01*
X95215000Y-97464397D01*
X95187062Y-97323942D01*
X95132259Y-97191636D01*
X95052698Y-97072564D01*
X94951436Y-96971302D01*
X94940000Y-96963661D01*
X94940000Y-94141395D01*
X97308501Y-96509897D01*
X97305818Y-96523387D01*
X97305818Y-96666593D01*
X97333756Y-96807048D01*
X97388559Y-96939354D01*
X97468120Y-97058426D01*
X97569382Y-97159688D01*
X97688454Y-97239249D01*
X97820760Y-97294052D01*
X97961215Y-97321990D01*
X98104421Y-97321990D01*
X98244876Y-97294052D01*
X98377182Y-97239249D01*
X98496254Y-97159688D01*
X98597516Y-97058426D01*
X98677077Y-96939354D01*
X98731880Y-96807048D01*
X98759818Y-96666593D01*
X98759818Y-96523387D01*
X98731880Y-96382932D01*
X98719458Y-96352943D01*
X98764058Y-96344072D01*
X98885879Y-96293612D01*
X98885879Y-99638978D01*
X98883691Y-99661193D01*
X98892418Y-99749800D01*
X98918264Y-99835002D01*
X98947127Y-99889000D01*
X98960236Y-99913526D01*
X99016720Y-99982352D01*
X99033973Y-99996511D01*
X99158580Y-100121118D01*
X99144718Y-100134980D01*
X99065157Y-100254052D01*
X99010354Y-100386358D01*
X98982416Y-100526813D01*
X98982416Y-100670019D01*
X99010354Y-100810474D01*
X99065157Y-100942780D01*
X99144718Y-101061852D01*
X99245980Y-101163114D01*
X99365052Y-101242675D01*
X99497358Y-101297478D01*
X99637813Y-101325416D01*
X99781019Y-101325416D01*
X99921474Y-101297478D01*
X100053780Y-101242675D01*
X100172852Y-101163114D01*
X100274114Y-101061852D01*
X100353675Y-100942780D01*
X100408478Y-100810474D01*
X100436416Y-100670019D01*
X100436416Y-100526813D01*
X100408478Y-100386358D01*
X100353675Y-100254052D01*
X100274114Y-100134980D01*
X100172852Y-100033718D01*
X100163056Y-100027172D01*
X100154876Y-99944123D01*
X100129030Y-99858921D01*
X100088774Y-99783607D01*
X100087059Y-99780398D01*
X100030575Y-99711572D01*
X100013327Y-99697417D01*
X99789878Y-99473969D01*
X99789878Y-96568333D01*
X99825357Y-96634710D01*
X99881841Y-96703537D01*
X99899100Y-96717701D01*
X100404673Y-97223275D01*
X100401990Y-97236765D01*
X100401990Y-97379971D01*
X100429928Y-97520426D01*
X100484731Y-97652732D01*
X100564292Y-97771804D01*
X100665554Y-97873066D01*
X100784626Y-97952627D01*
X100916932Y-98007430D01*
X101057387Y-98035368D01*
X101200593Y-98035368D01*
X101341048Y-98007430D01*
X101473354Y-97952627D01*
X101592426Y-97873066D01*
X101638701Y-97826791D01*
X101635000Y-97845397D01*
X101635000Y-97988603D01*
X101662938Y-98129058D01*
X101717741Y-98261364D01*
X101797302Y-98380436D01*
X101898564Y-98481698D01*
X102017636Y-98561259D01*
X102149942Y-98616062D01*
X102290397Y-98644000D01*
X102433603Y-98644000D01*
X102574058Y-98616062D01*
X102706364Y-98561259D01*
X102825436Y-98481698D01*
X102926698Y-98380436D01*
X103006259Y-98261364D01*
X103024688Y-98216873D01*
X103024688Y-98295614D01*
X103052626Y-98436069D01*
X103107429Y-98568375D01*
X103186990Y-98687447D01*
X103288252Y-98788709D01*
X103407324Y-98868270D01*
X103539630Y-98923073D01*
X103680085Y-98951011D01*
X103823291Y-98951011D01*
X103836781Y-98948328D01*
X103847776Y-98959323D01*
X103847781Y-98959327D01*
X104268053Y-99379599D01*
X102654110Y-99379599D01*
X102631905Y-99377412D01*
X102543297Y-99386139D01*
X102468397Y-99408860D01*
X102458095Y-99411985D01*
X102379572Y-99453956D01*
X102310746Y-99510440D01*
X102296586Y-99527694D01*
X97646596Y-104177685D01*
X97633105Y-104175002D01*
X97489899Y-104175002D01*
X97349444Y-104202940D01*
X97217138Y-104257743D01*
X97098066Y-104337304D01*
X96996804Y-104438566D01*
X96917243Y-104557638D01*
X96862440Y-104689944D01*
X96834502Y-104830399D01*
X96834502Y-104973605D01*
X96862440Y-105114060D01*
X96917243Y-105246366D01*
X96996804Y-105365438D01*
X97098066Y-105466700D01*
X97217138Y-105546261D01*
X97349444Y-105601064D01*
X97489899Y-105629002D01*
X97633105Y-105629002D01*
X97773560Y-105601064D01*
X97905866Y-105546261D01*
X98024938Y-105466700D01*
X98126200Y-105365438D01*
X98205761Y-105246366D01*
X98260564Y-105114060D01*
X98288502Y-104973605D01*
X98288502Y-104830399D01*
X98285819Y-104816908D01*
X102819129Y-100283599D01*
X103223531Y-100283599D01*
X103186938Y-100371942D01*
X103159000Y-100512397D01*
X103159000Y-100655603D01*
X103161683Y-100669093D01*
X99518100Y-104312677D01*
X99500841Y-104326841D01*
X99444357Y-104395668D01*
X99428599Y-104425150D01*
X99402386Y-104474191D01*
X99376540Y-104559393D01*
X99367813Y-104648000D01*
X99370000Y-104670205D01*
X99370001Y-106150173D01*
X99285892Y-106185012D01*
X99100520Y-106308874D01*
X98942874Y-106466520D01*
X98819012Y-106651892D01*
X98733695Y-106857866D01*
X98690200Y-107076527D01*
X98690200Y-107299473D01*
X98733695Y-107518134D01*
X98819012Y-107724108D01*
X98942874Y-107909480D01*
X99100520Y-108067126D01*
X99285892Y-108190988D01*
X99491866Y-108276305D01*
X99710527Y-108319800D01*
X99933473Y-108319800D01*
X100152134Y-108276305D01*
X100358108Y-108190988D01*
X100543480Y-108067126D01*
X100701126Y-107909480D01*
X100824988Y-107724108D01*
X100910305Y-107518134D01*
X100936149Y-107388208D01*
X100958429Y-107538887D01*
X101053853Y-107805968D01*
X101121411Y-107932360D01*
X101365870Y-108004525D01*
X102182395Y-107188000D01*
X102168253Y-107173858D01*
X102347858Y-106994253D01*
X102362000Y-107008395D01*
X102376143Y-106994253D01*
X102555748Y-107173858D01*
X102541605Y-107188000D01*
X103358130Y-108004525D01*
X103602589Y-107932360D01*
X103723969Y-107676030D01*
X103791545Y-107406780D01*
X103813695Y-107518134D01*
X103899012Y-107724108D01*
X104022874Y-107909480D01*
X104180520Y-108067126D01*
X104365892Y-108190988D01*
X104571866Y-108276305D01*
X104790527Y-108319800D01*
X105013473Y-108319800D01*
X105232134Y-108276305D01*
X105438108Y-108190988D01*
X105623480Y-108067126D01*
X105781126Y-107909480D01*
X105904988Y-107724108D01*
X105990305Y-107518134D01*
X106033800Y-107299473D01*
X106033800Y-107076527D01*
X106310200Y-107076527D01*
X106310200Y-107299473D01*
X106353695Y-107518134D01*
X106439012Y-107724108D01*
X106562874Y-107909480D01*
X106720520Y-108067126D01*
X106905892Y-108190988D01*
X107111866Y-108276305D01*
X107330527Y-108319800D01*
X107553473Y-108319800D01*
X107772134Y-108276305D01*
X107978108Y-108190988D01*
X108163480Y-108067126D01*
X108321126Y-107909480D01*
X108444988Y-107724108D01*
X108530305Y-107518134D01*
X108573800Y-107299473D01*
X108573800Y-107076527D01*
X108530305Y-106857866D01*
X108444988Y-106651892D01*
X108321126Y-106466520D01*
X108163480Y-106308874D01*
X107978108Y-106185012D01*
X107772134Y-106099695D01*
X107553473Y-106056200D01*
X107330527Y-106056200D01*
X107111866Y-106099695D01*
X106905892Y-106185012D01*
X106720520Y-106308874D01*
X106562874Y-106466520D01*
X106439012Y-106651892D01*
X106353695Y-106857866D01*
X106310200Y-107076527D01*
X106033800Y-107076527D01*
X105990305Y-106857866D01*
X105904988Y-106651892D01*
X105781126Y-106466520D01*
X105623480Y-106308874D01*
X105438108Y-106185012D01*
X105232134Y-106099695D01*
X105013473Y-106056200D01*
X104790527Y-106056200D01*
X104571866Y-106099695D01*
X104487757Y-106134534D01*
X103586327Y-105233104D01*
X103572163Y-105215845D01*
X103503337Y-105159361D01*
X103424814Y-105117390D01*
X103339611Y-105091544D01*
X103273209Y-105085004D01*
X103251004Y-105082817D01*
X103228799Y-105085004D01*
X102045339Y-105085004D01*
X102037698Y-105073568D01*
X101936436Y-104972306D01*
X101817364Y-104892745D01*
X101685058Y-104837942D01*
X101544603Y-104810004D01*
X101401397Y-104810004D01*
X101260942Y-104837942D01*
X101128636Y-104892745D01*
X101009564Y-104972306D01*
X100908302Y-105073568D01*
X100828741Y-105192640D01*
X100773938Y-105324946D01*
X100746000Y-105465401D01*
X100746000Y-105608607D01*
X100773938Y-105749062D01*
X100828741Y-105881368D01*
X100908302Y-106000440D01*
X101009564Y-106101702D01*
X101128636Y-106181263D01*
X101260942Y-106236066D01*
X101267468Y-106237364D01*
X101249612Y-106255220D01*
X101365868Y-106371476D01*
X101121411Y-106443640D01*
X101000031Y-106699970D01*
X100932455Y-106969220D01*
X100910305Y-106857866D01*
X100824988Y-106651892D01*
X100701126Y-106466520D01*
X100543480Y-106308874D01*
X100358108Y-106185012D01*
X100274000Y-106150173D01*
X100274000Y-104835223D01*
X103800907Y-101308317D01*
X103814397Y-101311000D01*
X103957603Y-101311000D01*
X104098058Y-101283062D01*
X104230364Y-101228259D01*
X104349436Y-101148698D01*
X104450698Y-101047436D01*
X104530259Y-100928364D01*
X104585062Y-100796058D01*
X104608915Y-100676139D01*
X104820681Y-100887905D01*
X104834841Y-100905159D01*
X104903667Y-100961643D01*
X104981777Y-101003393D01*
X104982190Y-101003614D01*
X105067392Y-101029460D01*
X105156000Y-101038187D01*
X105178205Y-101036000D01*
X109508797Y-101036000D01*
X109531002Y-101038187D01*
X109553207Y-101036000D01*
X109619609Y-101029460D01*
X109704812Y-101003614D01*
X109783335Y-100961643D01*
X109852161Y-100905159D01*
X109866325Y-100887900D01*
X110703722Y-100050504D01*
X110720970Y-100036350D01*
X110777454Y-99967524D01*
X110819425Y-99889001D01*
X110845271Y-99803798D01*
X110851811Y-99737396D01*
X110851811Y-99737395D01*
X110853998Y-99715192D01*
X110851811Y-99692989D01*
X110851811Y-98873092D01*
X111181000Y-99202281D01*
X111181001Y-101450785D01*
X111178813Y-101473000D01*
X111187540Y-101561607D01*
X111213386Y-101646809D01*
X111213387Y-101646810D01*
X111255358Y-101725333D01*
X111311842Y-101794159D01*
X111329096Y-101808319D01*
X112428023Y-102907248D01*
X112425340Y-102920737D01*
X112425340Y-103063943D01*
X112453278Y-103204398D01*
X112508081Y-103336704D01*
X112587642Y-103455776D01*
X112688904Y-103557038D01*
X112807976Y-103636599D01*
X112940282Y-103691402D01*
X113080737Y-103719340D01*
X113223943Y-103719340D01*
X113364398Y-103691402D01*
X113496704Y-103636599D01*
X113615776Y-103557038D01*
X113717038Y-103455776D01*
X113796599Y-103336704D01*
X113851402Y-103204398D01*
X113879340Y-103063943D01*
X113879340Y-102920737D01*
X113851402Y-102780282D01*
X113796599Y-102647976D01*
X113717038Y-102528904D01*
X113615776Y-102427642D01*
X113611413Y-102424727D01*
X113620436Y-102418698D01*
X113721698Y-102317436D01*
X113801259Y-102198364D01*
X113856062Y-102066058D01*
X113884000Y-101925603D01*
X113884000Y-101782397D01*
X113856062Y-101641942D01*
X113801259Y-101509636D01*
X113721698Y-101390564D01*
X113620436Y-101289302D01*
X113609000Y-101281661D01*
X113609000Y-99924849D01*
X113611187Y-99902646D01*
X113609000Y-99880442D01*
X113602460Y-99814040D01*
X113576614Y-99728837D01*
X113534643Y-99650314D01*
X113478159Y-99581488D01*
X113460911Y-99567333D01*
X107823676Y-93930100D01*
X107809512Y-93912841D01*
X107740686Y-93856357D01*
X107662163Y-93814386D01*
X107576960Y-93788540D01*
X107510558Y-93782000D01*
X107488353Y-93779813D01*
X107466148Y-93782000D01*
X105855321Y-93782000D01*
X105847680Y-93770564D01*
X105746418Y-93669302D01*
X105627346Y-93589741D01*
X105566067Y-93564358D01*
X105619436Y-93528698D01*
X105720698Y-93427436D01*
X105800259Y-93308364D01*
X105855062Y-93176058D01*
X105883000Y-93035603D01*
X105883000Y-92892397D01*
X105855062Y-92751942D01*
X105800259Y-92619636D01*
X105720698Y-92500564D01*
X105619436Y-92399302D01*
X105500364Y-92319741D01*
X105368058Y-92264938D01*
X105227603Y-92237000D01*
X105084397Y-92237000D01*
X104943942Y-92264938D01*
X104811636Y-92319741D01*
X104692564Y-92399302D01*
X104591302Y-92500564D01*
X104511741Y-92619636D01*
X104456938Y-92751942D01*
X104429000Y-92892397D01*
X104429000Y-93032263D01*
X104020429Y-93440835D01*
X103999232Y-93458231D01*
X103981835Y-93479429D01*
X103981833Y-93479431D01*
X103929800Y-93542832D01*
X103878209Y-93639353D01*
X103846440Y-93744083D01*
X103835713Y-93853000D01*
X103838401Y-93880292D01*
X103838400Y-95222717D01*
X103835713Y-95250000D01*
X103838400Y-95277283D01*
X103838400Y-95277292D01*
X103846439Y-95358916D01*
X103878209Y-95463647D01*
X103929800Y-95560168D01*
X103999231Y-95644769D01*
X104020434Y-95662170D01*
X104098203Y-95739939D01*
X103986785Y-95762101D01*
X103854479Y-95816904D01*
X103814010Y-95843944D01*
X103814010Y-95813399D01*
X103786072Y-95672944D01*
X103731269Y-95540638D01*
X103651708Y-95421566D01*
X103550446Y-95320304D01*
X103539010Y-95312663D01*
X103539010Y-90267202D01*
X103927910Y-89878303D01*
X103941399Y-89880986D01*
X104084605Y-89880986D01*
X104225060Y-89853048D01*
X104357366Y-89798245D01*
X104476438Y-89718684D01*
X104577700Y-89617422D01*
X104657261Y-89498350D01*
X104712064Y-89366044D01*
X104714844Y-89352068D01*
X104761991Y-89399215D01*
X104776151Y-89416469D01*
X104844977Y-89472953D01*
X104850994Y-89476169D01*
X104906170Y-89558746D01*
X105007432Y-89660008D01*
X105126504Y-89739569D01*
X105258810Y-89794372D01*
X105399265Y-89822310D01*
X105542471Y-89822310D01*
X105682926Y-89794372D01*
X105743871Y-89769128D01*
X105743871Y-90171655D01*
X105741683Y-90193870D01*
X105750410Y-90282477D01*
X105776256Y-90367679D01*
X105776257Y-90367680D01*
X105818228Y-90446203D01*
X105874712Y-90515029D01*
X105891966Y-90529189D01*
X113975000Y-98612224D01*
X113975001Y-103444774D01*
X112842777Y-104577000D01*
X112163204Y-104577000D01*
X112140999Y-104574813D01*
X112052392Y-104583540D01*
X112032562Y-104589556D01*
X111967190Y-104609386D01*
X111888667Y-104651357D01*
X111819841Y-104707841D01*
X111805685Y-104725090D01*
X110482893Y-106047884D01*
X110482888Y-106047888D01*
X110396242Y-106134534D01*
X110312134Y-106099695D01*
X110093473Y-106056200D01*
X109870527Y-106056200D01*
X109651866Y-106099695D01*
X109445892Y-106185012D01*
X109260520Y-106308874D01*
X109102874Y-106466520D01*
X108979012Y-106651892D01*
X108893695Y-106857866D01*
X108850200Y-107076527D01*
X108850200Y-107299473D01*
X108893695Y-107518134D01*
X108979012Y-107724108D01*
X109102874Y-107909480D01*
X109260520Y-108067126D01*
X109445892Y-108190988D01*
X109651866Y-108276305D01*
X109870527Y-108319800D01*
X110093473Y-108319800D01*
X110312134Y-108276305D01*
X110518108Y-108190988D01*
X110703480Y-108067126D01*
X110861126Y-107909480D01*
X110984988Y-107724108D01*
X111070305Y-107518134D01*
X111113800Y-107299473D01*
X111113800Y-107076527D01*
X111070305Y-106857866D01*
X111035466Y-106773758D01*
X111122112Y-106687112D01*
X111122116Y-106687107D01*
X112328225Y-105481000D01*
X112954777Y-105481000D01*
X112371892Y-106063885D01*
X112191866Y-106099695D01*
X111985892Y-106185012D01*
X111800520Y-106308874D01*
X111642874Y-106466520D01*
X111519012Y-106651892D01*
X111433695Y-106857866D01*
X111390200Y-107076527D01*
X111390200Y-107299473D01*
X111433695Y-107518134D01*
X111519012Y-107724108D01*
X111642874Y-107909480D01*
X111800520Y-108067126D01*
X111985892Y-108190988D01*
X112191866Y-108276305D01*
X112410527Y-108319800D01*
X112633473Y-108319800D01*
X112852134Y-108276305D01*
X113058108Y-108190988D01*
X113243480Y-108067126D01*
X113401126Y-107909480D01*
X113524988Y-107724108D01*
X113610305Y-107518134D01*
X113653800Y-107299473D01*
X113653800Y-107076527D01*
X113930200Y-107076527D01*
X113930200Y-107299473D01*
X113973695Y-107518134D01*
X114059012Y-107724108D01*
X114182874Y-107909480D01*
X114340520Y-108067126D01*
X114525892Y-108190988D01*
X114731866Y-108276305D01*
X114950527Y-108319800D01*
X115173473Y-108319800D01*
X115392134Y-108276305D01*
X115598108Y-108190988D01*
X115783480Y-108067126D01*
X115941126Y-107909480D01*
X116064988Y-107724108D01*
X116150305Y-107518134D01*
X116193800Y-107299473D01*
X116193800Y-107076527D01*
X116150305Y-106857866D01*
X116064988Y-106651892D01*
X115941126Y-106466520D01*
X115783480Y-106308874D01*
X115598108Y-106185012D01*
X115392134Y-106099695D01*
X115173473Y-106056200D01*
X114950527Y-106056200D01*
X114731866Y-106099695D01*
X114525892Y-106185012D01*
X114340520Y-106308874D01*
X114182874Y-106466520D01*
X114059012Y-106651892D01*
X113973695Y-106857866D01*
X113930200Y-107076527D01*
X113653800Y-107076527D01*
X113610305Y-106857866D01*
X113524988Y-106651892D01*
X113401126Y-106466520D01*
X113324415Y-106389809D01*
X115609085Y-104105139D01*
X115632938Y-104225058D01*
X115687741Y-104357364D01*
X115767302Y-104476436D01*
X115868564Y-104577698D01*
X115987636Y-104657259D01*
X116119942Y-104712062D01*
X116260397Y-104740000D01*
X116403603Y-104740000D01*
X116417093Y-104737317D01*
X116428088Y-104748312D01*
X116428093Y-104748316D01*
X117150001Y-105470225D01*
X117150000Y-105813204D01*
X117150001Y-105813211D01*
X117150001Y-106150173D01*
X117065892Y-106185012D01*
X116880520Y-106308874D01*
X116722874Y-106466520D01*
X116599012Y-106651892D01*
X116513695Y-106857866D01*
X116470200Y-107076527D01*
X116470200Y-107299473D01*
X116513695Y-107518134D01*
X116599012Y-107724108D01*
X116722874Y-107909480D01*
X116880520Y-108067126D01*
X117065892Y-108190988D01*
X117271866Y-108276305D01*
X117490527Y-108319800D01*
X117713473Y-108319800D01*
X117932134Y-108276305D01*
X118138108Y-108190988D01*
X118323480Y-108067126D01*
X118481126Y-107909480D01*
X118604988Y-107724108D01*
X118690305Y-107518134D01*
X118733800Y-107299473D01*
X118733800Y-107076527D01*
X118690305Y-106857866D01*
X118604988Y-106651892D01*
X118481126Y-106466520D01*
X118323480Y-106308874D01*
X118138108Y-106185012D01*
X118054000Y-106150173D01*
X118054000Y-105470223D01*
X119429912Y-104094313D01*
X119447159Y-104080159D01*
X119503643Y-104011333D01*
X119545614Y-103932810D01*
X119571460Y-103847607D01*
X119578000Y-103781205D01*
X119578000Y-103781204D01*
X119580187Y-103759001D01*
X119578000Y-103736798D01*
X119578000Y-101156339D01*
X119589436Y-101148698D01*
X119690001Y-101048133D01*
X119690000Y-106150173D01*
X119605892Y-106185012D01*
X119420520Y-106308874D01*
X119262874Y-106466520D01*
X119139012Y-106651892D01*
X119053695Y-106857866D01*
X119010200Y-107076527D01*
X119010200Y-107299473D01*
X119053695Y-107518134D01*
X119139012Y-107724108D01*
X119262874Y-107909480D01*
X119420520Y-108067126D01*
X119605892Y-108190988D01*
X119811866Y-108276305D01*
X120030527Y-108319800D01*
X120253473Y-108319800D01*
X120472134Y-108276305D01*
X120678108Y-108190988D01*
X120863480Y-108067126D01*
X121021126Y-107909480D01*
X121144988Y-107724108D01*
X121230305Y-107518134D01*
X121273800Y-107299473D01*
X121273800Y-107076527D01*
X121230305Y-106857866D01*
X121144988Y-106651892D01*
X121021126Y-106466520D01*
X120863480Y-106308874D01*
X120678108Y-106185012D01*
X120594000Y-106150173D01*
X120594000Y-98870339D01*
X120605436Y-98862698D01*
X120706698Y-98761436D01*
X120786259Y-98642364D01*
X120841062Y-98510058D01*
X120869000Y-98369603D01*
X120869000Y-98226397D01*
X120847601Y-98118816D01*
X122230001Y-99501217D01*
X122230000Y-106150173D01*
X122145892Y-106185012D01*
X121960520Y-106308874D01*
X121802874Y-106466520D01*
X121679012Y-106651892D01*
X121593695Y-106857866D01*
X121550200Y-107076527D01*
X121550200Y-107299473D01*
X121593695Y-107518134D01*
X121679012Y-107724108D01*
X121802874Y-107909480D01*
X121960520Y-108067126D01*
X122145892Y-108190988D01*
X122351866Y-108276305D01*
X122570527Y-108319800D01*
X122793473Y-108319800D01*
X123012134Y-108276305D01*
X123218108Y-108190988D01*
X123403480Y-108067126D01*
X123561126Y-107909480D01*
X123684988Y-107724108D01*
X123770305Y-107518134D01*
X123813800Y-107299473D01*
X123813800Y-107076527D01*
X123770305Y-106857866D01*
X123684988Y-106651892D01*
X123561126Y-106466520D01*
X123403480Y-106308874D01*
X123218108Y-106185012D01*
X123134000Y-106150173D01*
X123134000Y-99336197D01*
X123136187Y-99313992D01*
X123127460Y-99225384D01*
X123101614Y-99140182D01*
X123092184Y-99122540D01*
X123059643Y-99061659D01*
X123003159Y-98992833D01*
X122985905Y-98978673D01*
X121374325Y-97367093D01*
X121377008Y-97353603D01*
X121377008Y-97210397D01*
X121355615Y-97102846D01*
X124770001Y-100517234D01*
X124770000Y-106150173D01*
X124685892Y-106185012D01*
X124500520Y-106308874D01*
X124342874Y-106466520D01*
X124219012Y-106651892D01*
X124133695Y-106857866D01*
X124090200Y-107076527D01*
X124090200Y-107299473D01*
X124133695Y-107518134D01*
X124219012Y-107724108D01*
X124342874Y-107909480D01*
X124500520Y-108067126D01*
X124685892Y-108190988D01*
X124891866Y-108276305D01*
X125110527Y-108319800D01*
X125333473Y-108319800D01*
X125552134Y-108276305D01*
X125758108Y-108190988D01*
X125943480Y-108067126D01*
X126101126Y-107909480D01*
X126224988Y-107724108D01*
X126310305Y-107518134D01*
X126353800Y-107299473D01*
X126353800Y-107076527D01*
X126310305Y-106857866D01*
X126224988Y-106651892D01*
X126101126Y-106466520D01*
X125943480Y-106308874D01*
X125758108Y-106185012D01*
X125674000Y-106150173D01*
X125674000Y-105740317D01*
X125680100Y-105745323D01*
X126708534Y-106773757D01*
X126673695Y-106857866D01*
X126630200Y-107076527D01*
X126630200Y-107299473D01*
X126673695Y-107518134D01*
X126759012Y-107724108D01*
X126882874Y-107909480D01*
X127040520Y-108067126D01*
X127225892Y-108190988D01*
X127431866Y-108276305D01*
X127650527Y-108319800D01*
X127873473Y-108319800D01*
X128092134Y-108276305D01*
X128298108Y-108190988D01*
X128483480Y-108067126D01*
X128641126Y-107909480D01*
X128764988Y-107724108D01*
X128850305Y-107518134D01*
X128893800Y-107299473D01*
X128893800Y-107076527D01*
X129170200Y-107076527D01*
X129170200Y-107299473D01*
X129213695Y-107518134D01*
X129299012Y-107724108D01*
X129422874Y-107909480D01*
X129580520Y-108067126D01*
X129765892Y-108190988D01*
X129971866Y-108276305D01*
X130190527Y-108319800D01*
X130413473Y-108319800D01*
X130632134Y-108276305D01*
X130838108Y-108190988D01*
X131023480Y-108067126D01*
X131181126Y-107909480D01*
X131304988Y-107724108D01*
X131390305Y-107518134D01*
X131416149Y-107388208D01*
X131438429Y-107538887D01*
X131533853Y-107805968D01*
X131601411Y-107932360D01*
X131845870Y-108004525D01*
X132662395Y-107188000D01*
X133021605Y-107188000D01*
X133838130Y-108004525D01*
X134082589Y-107932360D01*
X134203969Y-107676030D01*
X134273009Y-107400946D01*
X134287056Y-107117678D01*
X134252440Y-106883565D01*
X136882040Y-106883565D01*
X136949020Y-107123656D01*
X137198048Y-107240756D01*
X137465135Y-107307023D01*
X137740017Y-107319910D01*
X138012133Y-107278922D01*
X138271023Y-107185636D01*
X138386980Y-107123656D01*
X138453960Y-106883565D01*
X137668000Y-106097605D01*
X136882040Y-106883565D01*
X134252440Y-106883565D01*
X134245571Y-106837113D01*
X134150147Y-106570032D01*
X134082589Y-106443640D01*
X133838130Y-106371475D01*
X133021605Y-107188000D01*
X132662395Y-107188000D01*
X131845870Y-106371475D01*
X131601411Y-106443640D01*
X131480031Y-106699970D01*
X131412455Y-106969220D01*
X131390305Y-106857866D01*
X131304988Y-106651892D01*
X131181126Y-106466520D01*
X131023480Y-106308874D01*
X130848372Y-106191870D01*
X132025475Y-106191870D01*
X132842000Y-107008395D01*
X133658525Y-106191870D01*
X133598938Y-105990017D01*
X136266090Y-105990017D01*
X136307078Y-106262133D01*
X136400364Y-106521023D01*
X136462344Y-106636980D01*
X136702435Y-106703960D01*
X137488395Y-105918000D01*
X137847605Y-105918000D01*
X138633565Y-106703960D01*
X138873656Y-106636980D01*
X138990756Y-106387952D01*
X139057023Y-106120865D01*
X139069910Y-105845983D01*
X139028922Y-105573867D01*
X138935636Y-105314977D01*
X138873656Y-105199020D01*
X138633565Y-105132040D01*
X137847605Y-105918000D01*
X137488395Y-105918000D01*
X136702435Y-105132040D01*
X136462344Y-105199020D01*
X136345244Y-105448048D01*
X136278977Y-105715135D01*
X136266090Y-105990017D01*
X133598938Y-105990017D01*
X133586360Y-105947411D01*
X133330030Y-105826031D01*
X133054946Y-105756991D01*
X132771678Y-105742944D01*
X132491113Y-105784429D01*
X132224032Y-105879853D01*
X132097640Y-105947411D01*
X132025475Y-106191870D01*
X130848372Y-106191870D01*
X130838108Y-106185012D01*
X130632134Y-106099695D01*
X130413473Y-106056200D01*
X130190527Y-106056200D01*
X129971866Y-106099695D01*
X129765892Y-106185012D01*
X129580520Y-106308874D01*
X129422874Y-106466520D01*
X129299012Y-106651892D01*
X129213695Y-106857866D01*
X129170200Y-107076527D01*
X128893800Y-107076527D01*
X128850305Y-106857866D01*
X128764988Y-106651892D01*
X128641126Y-106466520D01*
X128483480Y-106308874D01*
X128298108Y-106185012D01*
X128092134Y-106099695D01*
X127873473Y-106056200D01*
X127650527Y-106056200D01*
X127541155Y-106077956D01*
X127598364Y-106054259D01*
X127717436Y-105974698D01*
X127818698Y-105873436D01*
X127898259Y-105754364D01*
X127953062Y-105622058D01*
X127981000Y-105481603D01*
X127981000Y-105338397D01*
X127953062Y-105197942D01*
X127898259Y-105065636D01*
X127818698Y-104946564D01*
X127717436Y-104845302D01*
X127706000Y-104837661D01*
X127706000Y-103816150D01*
X127861651Y-104191925D01*
X128225750Y-104736839D01*
X128689161Y-105200250D01*
X129234075Y-105564349D01*
X129839550Y-105815145D01*
X130482319Y-105943000D01*
X131137681Y-105943000D01*
X131780450Y-105815145D01*
X132385925Y-105564349D01*
X132930839Y-105200250D01*
X133178654Y-104952435D01*
X136882040Y-104952435D01*
X137668000Y-105738395D01*
X138453960Y-104952435D01*
X138386980Y-104712344D01*
X138137952Y-104595244D01*
X137870865Y-104528977D01*
X137595983Y-104516090D01*
X137323867Y-104557078D01*
X137064977Y-104650364D01*
X136949020Y-104712344D01*
X136882040Y-104952435D01*
X133178654Y-104952435D01*
X133394250Y-104736839D01*
X133758349Y-104191925D01*
X134009145Y-103586450D01*
X134137000Y-102943681D01*
X134137000Y-102288319D01*
X134009145Y-101645550D01*
X133758349Y-101040075D01*
X133394250Y-100495161D01*
X132930839Y-100031750D01*
X132385925Y-99667651D01*
X131780450Y-99416855D01*
X131137681Y-99289000D01*
X130482319Y-99289000D01*
X129839550Y-99416855D01*
X129234075Y-99667651D01*
X128689161Y-100031750D01*
X128225750Y-100495161D01*
X127861651Y-101040075D01*
X127706000Y-101415850D01*
X127706000Y-99124339D01*
X127717436Y-99116698D01*
X127818698Y-99015436D01*
X127898259Y-98896364D01*
X127953062Y-98764058D01*
X127981000Y-98623603D01*
X127981000Y-98480397D01*
X127953062Y-98339942D01*
X127898259Y-98207636D01*
X127818698Y-98088564D01*
X127717436Y-97987302D01*
X127598364Y-97907741D01*
X127466058Y-97852938D01*
X127325603Y-97825000D01*
X127182397Y-97825000D01*
X127041942Y-97852938D01*
X126909636Y-97907741D01*
X126790564Y-97987302D01*
X126689302Y-98088564D01*
X126609741Y-98207636D01*
X126554938Y-98339942D01*
X126527000Y-98480397D01*
X126527000Y-98623603D01*
X126554938Y-98764058D01*
X126609741Y-98896364D01*
X126689302Y-99015436D01*
X126790564Y-99116698D01*
X126802001Y-99124340D01*
X126802000Y-104837661D01*
X126790564Y-104845302D01*
X126689302Y-104946564D01*
X126609741Y-105065636D01*
X126554938Y-105197942D01*
X126531085Y-105317862D01*
X126436000Y-105222777D01*
X126436000Y-103950339D01*
X126447436Y-103942698D01*
X126548698Y-103841436D01*
X126628259Y-103722364D01*
X126683062Y-103590058D01*
X126711000Y-103449603D01*
X126711000Y-103306397D01*
X126683062Y-103165942D01*
X126628259Y-103033636D01*
X126548698Y-102914564D01*
X126447436Y-102813302D01*
X126328364Y-102733741D01*
X126196058Y-102678938D01*
X126055603Y-102651000D01*
X125912397Y-102651000D01*
X125771942Y-102678938D01*
X125674000Y-102719507D01*
X125674000Y-100352210D01*
X125676187Y-100330007D01*
X125674000Y-100307803D01*
X125667460Y-100241401D01*
X125641614Y-100156198D01*
X125599643Y-100077675D01*
X125543159Y-100008849D01*
X125525911Y-99994694D01*
X124788818Y-99257601D01*
X124896397Y-99279000D01*
X125039603Y-99279000D01*
X125180058Y-99251062D01*
X125312364Y-99196259D01*
X125431436Y-99116698D01*
X125532698Y-99015436D01*
X125612259Y-98896364D01*
X125667062Y-98764058D01*
X125695000Y-98623603D01*
X125695000Y-98610736D01*
X127341595Y-96964142D01*
X127341599Y-96964137D01*
X128135571Y-96170166D01*
X128156769Y-96152769D01*
X128175419Y-96130045D01*
X128226200Y-96068168D01*
X128277791Y-95971648D01*
X128309561Y-95866917D01*
X128312390Y-95838191D01*
X128317600Y-95785293D01*
X128317600Y-95785285D01*
X128320287Y-95758000D01*
X128317600Y-95730715D01*
X128317600Y-91150534D01*
X128326698Y-91141436D01*
X128406259Y-91022364D01*
X128461062Y-90890058D01*
X128489000Y-90749603D01*
X128489000Y-90606397D01*
X128461062Y-90465942D01*
X128406259Y-90333636D01*
X128326698Y-90214564D01*
X128225436Y-90113302D01*
X128106364Y-90033741D01*
X127974058Y-89978938D01*
X127833603Y-89951000D01*
X127690397Y-89951000D01*
X127549942Y-89978938D01*
X127417636Y-90033741D01*
X127298564Y-90113302D01*
X127197302Y-90214564D01*
X127117741Y-90333636D01*
X127062938Y-90465942D01*
X127035000Y-90606397D01*
X127035000Y-90749603D01*
X127062938Y-90890058D01*
X127117741Y-91022364D01*
X127197302Y-91141436D01*
X127206400Y-91150534D01*
X127206401Y-95527862D01*
X126555863Y-96178401D01*
X126555858Y-96178405D01*
X124909264Y-97825000D01*
X124896397Y-97825000D01*
X124755942Y-97852938D01*
X124623636Y-97907741D01*
X124504564Y-97987302D01*
X124403302Y-98088564D01*
X124323741Y-98207636D01*
X124268938Y-98339942D01*
X124241000Y-98480397D01*
X124241000Y-98623603D01*
X124262399Y-98731182D01*
X121639309Y-96108093D01*
X121628309Y-96097093D01*
X121630992Y-96083603D01*
X121630992Y-95940397D01*
X121628309Y-95926907D01*
X121639304Y-95915912D01*
X121639309Y-95915906D01*
X125107906Y-92447310D01*
X125125160Y-92433150D01*
X125181644Y-92364324D01*
X125223615Y-92285801D01*
X125249461Y-92200598D01*
X125256001Y-92134196D01*
X125258188Y-92111991D01*
X125256001Y-92089786D01*
X125256001Y-88574203D01*
X125258188Y-88551998D01*
X125249461Y-88463390D01*
X125223615Y-88378188D01*
X125204208Y-88341880D01*
X125181644Y-88299665D01*
X125125160Y-88230839D01*
X125107907Y-88216680D01*
X124816183Y-87924956D01*
X124891866Y-87956305D01*
X125110527Y-87999800D01*
X125333473Y-87999800D01*
X125552134Y-87956305D01*
X125758108Y-87870988D01*
X125923819Y-87760263D01*
X125923819Y-93253010D01*
X125912397Y-93253010D01*
X125771942Y-93280948D01*
X125639636Y-93335751D01*
X125520564Y-93415312D01*
X125419302Y-93516574D01*
X125339741Y-93635646D01*
X125284938Y-93767952D01*
X125257000Y-93908407D01*
X125257000Y-94051613D01*
X125284938Y-94192068D01*
X125339741Y-94324374D01*
X125419302Y-94443446D01*
X125520564Y-94544708D01*
X125639636Y-94624269D01*
X125771942Y-94679072D01*
X125912397Y-94707010D01*
X126055603Y-94707010D01*
X126196058Y-94679072D01*
X126328364Y-94624269D01*
X126447436Y-94544708D01*
X126548698Y-94443446D01*
X126628259Y-94324374D01*
X126683062Y-94192068D01*
X126711000Y-94051613D01*
X126711000Y-93908407D01*
X126708415Y-93895413D01*
X126753461Y-93840525D01*
X126795432Y-93762002D01*
X126816970Y-93691000D01*
X126821278Y-93676800D01*
X126830005Y-93588193D01*
X126827818Y-93565988D01*
X126827818Y-87507083D01*
X126882874Y-87589480D01*
X127040520Y-87747126D01*
X127225892Y-87870988D01*
X127431866Y-87956305D01*
X127650527Y-87999800D01*
X127873473Y-87999800D01*
X128092134Y-87956305D01*
X128298108Y-87870988D01*
X128483480Y-87747126D01*
X128580000Y-87650606D01*
X128580001Y-91925785D01*
X128577813Y-91948000D01*
X128586540Y-92036607D01*
X128612386Y-92121809D01*
X128612387Y-92121810D01*
X128654358Y-92200333D01*
X128710842Y-92269159D01*
X128728096Y-92283319D01*
X130339683Y-93894907D01*
X130337000Y-93908397D01*
X130337000Y-94051603D01*
X130364938Y-94192058D01*
X130419741Y-94324364D01*
X130499302Y-94443436D01*
X130600564Y-94544698D01*
X130719636Y-94624259D01*
X130851942Y-94679062D01*
X130992397Y-94707000D01*
X131135603Y-94707000D01*
X131276058Y-94679062D01*
X131408364Y-94624259D01*
X131527436Y-94544698D01*
X131628698Y-94443436D01*
X131708259Y-94324364D01*
X131763062Y-94192058D01*
X131791000Y-94051603D01*
X131791000Y-93908397D01*
X131763062Y-93767942D01*
X131708259Y-93635636D01*
X131628698Y-93516564D01*
X131527436Y-93415302D01*
X131408364Y-93335741D01*
X131276058Y-93280938D01*
X131135603Y-93253000D01*
X130992397Y-93253000D01*
X130978907Y-93255683D01*
X129484000Y-91760777D01*
X129484000Y-87650606D01*
X129580520Y-87747126D01*
X129765892Y-87870988D01*
X129971866Y-87956305D01*
X130190527Y-87999800D01*
X130413473Y-87999800D01*
X130632134Y-87956305D01*
X130838108Y-87870988D01*
X131023480Y-87747126D01*
X131115003Y-87655603D01*
X131129022Y-87681830D01*
X131195278Y-87762564D01*
X131215514Y-87779171D01*
X132946833Y-89510491D01*
X132963436Y-89530722D01*
X133044170Y-89596978D01*
X133136278Y-89646211D01*
X133236221Y-89676528D01*
X133314115Y-89684200D01*
X133314117Y-89684200D01*
X133340157Y-89686765D01*
X133366197Y-89684200D01*
X134839666Y-89684200D01*
X134817302Y-89706564D01*
X134737741Y-89825636D01*
X134682938Y-89957942D01*
X134655000Y-90098397D01*
X134655000Y-90241603D01*
X134682938Y-90382058D01*
X134737741Y-90514364D01*
X134817302Y-90633436D01*
X134918564Y-90734698D01*
X134930000Y-90742339D01*
X134930000Y-90757889D01*
X134930001Y-90757899D01*
X134930000Y-101069795D01*
X134927813Y-101092000D01*
X134936540Y-101180607D01*
X134955368Y-101242675D01*
X134962386Y-101265809D01*
X135004357Y-101344332D01*
X135060841Y-101413159D01*
X135078100Y-101427323D01*
X136647291Y-102996516D01*
X136620850Y-103060350D01*
X136579000Y-103270743D01*
X136579000Y-103485257D01*
X136620850Y-103695650D01*
X136702941Y-103893835D01*
X136822119Y-104072197D01*
X136973803Y-104223881D01*
X137152165Y-104343059D01*
X137350350Y-104425150D01*
X137560743Y-104467000D01*
X137775257Y-104467000D01*
X137985650Y-104425150D01*
X138183835Y-104343059D01*
X138362197Y-104223881D01*
X138513881Y-104072197D01*
X138633059Y-103893835D01*
X138715150Y-103695650D01*
X138757000Y-103485257D01*
X138757000Y-103270743D01*
X138715150Y-103060350D01*
X138633059Y-102862165D01*
X138513881Y-102683803D01*
X138362197Y-102532119D01*
X138183835Y-102412941D01*
X137985650Y-102330850D01*
X137775257Y-102289000D01*
X137560743Y-102289000D01*
X137350350Y-102330850D01*
X137286516Y-102357291D01*
X136994059Y-102064834D01*
X137198048Y-102160756D01*
X137465135Y-102227023D01*
X137740017Y-102239910D01*
X138012133Y-102198922D01*
X138271023Y-102105636D01*
X138386980Y-102043656D01*
X138453960Y-101803565D01*
X137668000Y-101017605D01*
X137653858Y-101031748D01*
X137474253Y-100852143D01*
X137488395Y-100838000D01*
X137847605Y-100838000D01*
X138633565Y-101623960D01*
X138873656Y-101556980D01*
X138990756Y-101307952D01*
X139057023Y-101040865D01*
X139069910Y-100765983D01*
X139028922Y-100493867D01*
X138935636Y-100234977D01*
X138873656Y-100119020D01*
X138633565Y-100052040D01*
X137847605Y-100838000D01*
X137488395Y-100838000D01*
X136702435Y-100052040D01*
X136462344Y-100119020D01*
X136345244Y-100368048D01*
X136278977Y-100635135D01*
X136266090Y-100910017D01*
X136307078Y-101182133D01*
X136400364Y-101441023D01*
X136434947Y-101505723D01*
X135834000Y-100904777D01*
X135834000Y-99872435D01*
X136882040Y-99872435D01*
X137668000Y-100658395D01*
X138453960Y-99872435D01*
X138386980Y-99632344D01*
X138137952Y-99515244D01*
X137870865Y-99448977D01*
X137595983Y-99436090D01*
X137323867Y-99477078D01*
X137064977Y-99570364D01*
X136949020Y-99632344D01*
X136882040Y-99872435D01*
X135834000Y-99872435D01*
X135834000Y-98190743D01*
X136579000Y-98190743D01*
X136579000Y-98405257D01*
X136620850Y-98615650D01*
X136702941Y-98813835D01*
X136822119Y-98992197D01*
X136973803Y-99143881D01*
X137152165Y-99263059D01*
X137350350Y-99345150D01*
X137560743Y-99387000D01*
X137775257Y-99387000D01*
X137985650Y-99345150D01*
X138183835Y-99263059D01*
X138362197Y-99143881D01*
X138513881Y-98992197D01*
X138633059Y-98813835D01*
X138715150Y-98615650D01*
X138757000Y-98405257D01*
X138757000Y-98190743D01*
X138715150Y-97980350D01*
X138633059Y-97782165D01*
X138513881Y-97603803D01*
X138362197Y-97452119D01*
X138183835Y-97332941D01*
X137985650Y-97250850D01*
X137775257Y-97209000D01*
X137560743Y-97209000D01*
X137350350Y-97250850D01*
X137152165Y-97332941D01*
X136973803Y-97452119D01*
X136822119Y-97603803D01*
X136702941Y-97782165D01*
X136620850Y-97980350D01*
X136579000Y-98190743D01*
X135834000Y-98190743D01*
X135834000Y-95650743D01*
X136579000Y-95650743D01*
X136579000Y-95865257D01*
X136620850Y-96075650D01*
X136702941Y-96273835D01*
X136822119Y-96452197D01*
X136973803Y-96603881D01*
X137152165Y-96723059D01*
X137350350Y-96805150D01*
X137560743Y-96847000D01*
X137775257Y-96847000D01*
X137985650Y-96805150D01*
X138183835Y-96723059D01*
X138362197Y-96603881D01*
X138513881Y-96452197D01*
X138633059Y-96273835D01*
X138715150Y-96075650D01*
X138757000Y-95865257D01*
X138757000Y-95650743D01*
X138715150Y-95440350D01*
X138633059Y-95242165D01*
X138513881Y-95063803D01*
X138362197Y-94912119D01*
X138183835Y-94792941D01*
X137985650Y-94710850D01*
X137775257Y-94669000D01*
X137560743Y-94669000D01*
X137350350Y-94710850D01*
X137152165Y-94792941D01*
X136973803Y-94912119D01*
X136822119Y-95063803D01*
X136702941Y-95242165D01*
X136620850Y-95440350D01*
X136579000Y-95650743D01*
X135834000Y-95650743D01*
X135834000Y-93110743D01*
X136579000Y-93110743D01*
X136579000Y-93325257D01*
X136620850Y-93535650D01*
X136702941Y-93733835D01*
X136822119Y-93912197D01*
X136973803Y-94063881D01*
X137152165Y-94183059D01*
X137350350Y-94265150D01*
X137560743Y-94307000D01*
X137775257Y-94307000D01*
X137985650Y-94265150D01*
X138183835Y-94183059D01*
X138362197Y-94063881D01*
X138513881Y-93912197D01*
X138633059Y-93733835D01*
X138715150Y-93535650D01*
X138757000Y-93325257D01*
X138757000Y-93110743D01*
X138715150Y-92900350D01*
X138633059Y-92702165D01*
X138513881Y-92523803D01*
X138362197Y-92372119D01*
X138183835Y-92252941D01*
X137985650Y-92170850D01*
X137775257Y-92129000D01*
X137560743Y-92129000D01*
X137350350Y-92170850D01*
X137152165Y-92252941D01*
X136973803Y-92372119D01*
X136822119Y-92523803D01*
X136702941Y-92702165D01*
X136620850Y-92900350D01*
X136579000Y-93110743D01*
X135834000Y-93110743D01*
X135834000Y-90742339D01*
X135845436Y-90734698D01*
X135946698Y-90633436D01*
X136026259Y-90514364D01*
X136081062Y-90382058D01*
X136109000Y-90241603D01*
X136109000Y-90098397D01*
X136081062Y-89957942D01*
X136026259Y-89825636D01*
X135946698Y-89706564D01*
X135924334Y-89684200D01*
X135924385Y-89684200D01*
X136617479Y-90377295D01*
X136579000Y-90570743D01*
X136579000Y-90785257D01*
X136620850Y-90995650D01*
X136702941Y-91193835D01*
X136822119Y-91372197D01*
X136973803Y-91523881D01*
X137152165Y-91643059D01*
X137350350Y-91725150D01*
X137560743Y-91767000D01*
X137775257Y-91767000D01*
X137985650Y-91725150D01*
X138183835Y-91643059D01*
X138362197Y-91523881D01*
X138513881Y-91372197D01*
X138633059Y-91193835D01*
X138715150Y-90995650D01*
X138757000Y-90785257D01*
X138757000Y-90570743D01*
X138715150Y-90360350D01*
X138633059Y-90162165D01*
X138513881Y-89983803D01*
X138362197Y-89832119D01*
X138183835Y-89712941D01*
X137985650Y-89630850D01*
X137775257Y-89589000D01*
X137560743Y-89589000D01*
X137367295Y-89627479D01*
X136537329Y-88797514D01*
X136520722Y-88777278D01*
X136439988Y-88711022D01*
X136347880Y-88661789D01*
X136247937Y-88631472D01*
X136170043Y-88623800D01*
X136170040Y-88623800D01*
X136144000Y-88621235D01*
X136117960Y-88623800D01*
X133559774Y-88623800D01*
X132935774Y-87999800D01*
X132953473Y-87999800D01*
X133172134Y-87956305D01*
X133378108Y-87870988D01*
X133563480Y-87747126D01*
X133721126Y-87589480D01*
X133844988Y-87404108D01*
X133930305Y-87198134D01*
X133973800Y-86979473D01*
X133973800Y-86756527D01*
X133930305Y-86537866D01*
X133844988Y-86331892D01*
X133721126Y-86146520D01*
X133563480Y-85988874D01*
X133378108Y-85865012D01*
X133172134Y-85779695D01*
X132953473Y-85736200D01*
X132730527Y-85736200D01*
X132511866Y-85779695D01*
X132305892Y-85865012D01*
X132120520Y-85988874D01*
X132102200Y-86007194D01*
X132102200Y-83273873D01*
X132145022Y-83353988D01*
X132211278Y-83434722D01*
X132231514Y-83451329D01*
X136617479Y-87837295D01*
X136579000Y-88030743D01*
X136579000Y-88245257D01*
X136620850Y-88455650D01*
X136702941Y-88653835D01*
X136822119Y-88832197D01*
X136973803Y-88983881D01*
X137152165Y-89103059D01*
X137350350Y-89185150D01*
X137560743Y-89227000D01*
X137775257Y-89227000D01*
X137985650Y-89185150D01*
X138183835Y-89103059D01*
X138362197Y-88983881D01*
X138513881Y-88832197D01*
X138633059Y-88653835D01*
X138715150Y-88455650D01*
X138757000Y-88245257D01*
X138757000Y-88030743D01*
X138715150Y-87820350D01*
X138633059Y-87622165D01*
X138513881Y-87443803D01*
X138362197Y-87292119D01*
X138183835Y-87172941D01*
X137985650Y-87090850D01*
X137775257Y-87049000D01*
X137560743Y-87049000D01*
X137367295Y-87087479D01*
X133118200Y-82838385D01*
X133118200Y-75692000D01*
X133309370Y-75692000D01*
X133339818Y-76001146D01*
X133429993Y-76298412D01*
X133576428Y-76572373D01*
X133773497Y-76812503D01*
X134013627Y-77009572D01*
X134287588Y-77156007D01*
X134584854Y-77246182D01*
X134816531Y-77269000D01*
X137471469Y-77269000D01*
X137703146Y-77246182D01*
X138000412Y-77156007D01*
X138274373Y-77009572D01*
X138514503Y-76812503D01*
X138711572Y-76572373D01*
X138858007Y-76298412D01*
X138948182Y-76001146D01*
X138978630Y-75692000D01*
X138948182Y-75382854D01*
X138858007Y-75085588D01*
X138711572Y-74811627D01*
X138514503Y-74571497D01*
X138274373Y-74374428D01*
X138000412Y-74227993D01*
X137703146Y-74137818D01*
X137471469Y-74115000D01*
X134816531Y-74115000D01*
X134584854Y-74137818D01*
X134287588Y-74227993D01*
X134013627Y-74374428D01*
X133773497Y-74571497D01*
X133576428Y-74811627D01*
X133429993Y-75085588D01*
X133339818Y-75382854D01*
X133309370Y-75692000D01*
X133118200Y-75692000D01*
X133118200Y-74665934D01*
X133152698Y-74631436D01*
X133232259Y-74512364D01*
X133287062Y-74380058D01*
X133315000Y-74239603D01*
X133315000Y-74096397D01*
X133287062Y-73955942D01*
X133232259Y-73823636D01*
X133152698Y-73704564D01*
X133051436Y-73603302D01*
X132932364Y-73523741D01*
X132800058Y-73468938D01*
X132659603Y-73441000D01*
X132516397Y-73441000D01*
X132375942Y-73468938D01*
X132243636Y-73523741D01*
X132124564Y-73603302D01*
X132023302Y-73704564D01*
X131943741Y-73823636D01*
X131888938Y-73955942D01*
X131861000Y-74096397D01*
X131861000Y-74239603D01*
X131888938Y-74380058D01*
X131943741Y-74512364D01*
X132023302Y-74631436D01*
X132057800Y-74665934D01*
X132057800Y-74759727D01*
X132057801Y-74759737D01*
X132057801Y-77127127D01*
X132014978Y-77047012D01*
X131948722Y-76966278D01*
X131928491Y-76949675D01*
X129006312Y-74027497D01*
X129006307Y-74027491D01*
X128939985Y-73961169D01*
X128939985Y-73912382D01*
X128912047Y-73771927D01*
X128857244Y-73639621D01*
X128777683Y-73520549D01*
X128676421Y-73419287D01*
X128557349Y-73339726D01*
X128425043Y-73284923D01*
X128284588Y-73256985D01*
X128141382Y-73256985D01*
X128000927Y-73284923D01*
X127868621Y-73339726D01*
X127749549Y-73419287D01*
X127648287Y-73520549D01*
X127568726Y-73639621D01*
X127513923Y-73771927D01*
X127485985Y-73912382D01*
X127485985Y-74055588D01*
X127513923Y-74196043D01*
X127568726Y-74328349D01*
X127648287Y-74447421D01*
X127749549Y-74548683D01*
X127868621Y-74628244D01*
X128000927Y-74683047D01*
X128141382Y-74710985D01*
X128190169Y-74710985D01*
X128256491Y-74777307D01*
X128256497Y-74777312D01*
X131041801Y-77562617D01*
X131041800Y-86007194D01*
X131023480Y-85988874D01*
X130838108Y-85865012D01*
X130632134Y-85779695D01*
X130413473Y-85736200D01*
X130190527Y-85736200D01*
X129971866Y-85779695D01*
X129765892Y-85865012D01*
X129580520Y-85988874D01*
X129484000Y-86085394D01*
X129484000Y-84900339D01*
X129495436Y-84892698D01*
X129596698Y-84791436D01*
X129676259Y-84672364D01*
X129731062Y-84540058D01*
X129759000Y-84399603D01*
X129759000Y-84256397D01*
X129731062Y-84115942D01*
X129676259Y-83983636D01*
X129596698Y-83864564D01*
X129495436Y-83763302D01*
X129376364Y-83683741D01*
X129244058Y-83628938D01*
X129103603Y-83601000D01*
X128960397Y-83601000D01*
X128819942Y-83628938D01*
X128687636Y-83683741D01*
X128568564Y-83763302D01*
X128467302Y-83864564D01*
X128387741Y-83983636D01*
X128332938Y-84115942D01*
X128305000Y-84256397D01*
X128305000Y-84399603D01*
X128332938Y-84540058D01*
X128387741Y-84672364D01*
X128467302Y-84791436D01*
X128568564Y-84892698D01*
X128580000Y-84900339D01*
X128580000Y-86085394D01*
X128483480Y-85988874D01*
X128298108Y-85865012D01*
X128092134Y-85779695D01*
X127873473Y-85736200D01*
X127650527Y-85736200D01*
X127431866Y-85779695D01*
X127225892Y-85865012D01*
X127040520Y-85988874D01*
X126882874Y-86146520D01*
X126827818Y-86228917D01*
X126827818Y-81163405D01*
X127085907Y-80905317D01*
X127099397Y-80908000D01*
X127242603Y-80908000D01*
X127383058Y-80880062D01*
X127515364Y-80825259D01*
X127634436Y-80745698D01*
X127735698Y-80644436D01*
X127815259Y-80525364D01*
X127870062Y-80393058D01*
X127898000Y-80252603D01*
X127898000Y-80109397D01*
X127870062Y-79968942D01*
X127815259Y-79836636D01*
X127735698Y-79717564D01*
X127634436Y-79616302D01*
X127515364Y-79536741D01*
X127383058Y-79481938D01*
X127242603Y-79454000D01*
X127099397Y-79454000D01*
X126958942Y-79481938D01*
X126826636Y-79536741D01*
X126707564Y-79616302D01*
X126606302Y-79717564D01*
X126526741Y-79836636D01*
X126471938Y-79968942D01*
X126444000Y-80109397D01*
X126444000Y-80252603D01*
X126446683Y-80266093D01*
X126071918Y-80640859D01*
X126054659Y-80655023D01*
X125998175Y-80723850D01*
X125986497Y-80745698D01*
X125956204Y-80802373D01*
X125930358Y-80887575D01*
X125921631Y-80976182D01*
X125923818Y-80998387D01*
X125923818Y-85975736D01*
X125758108Y-85865012D01*
X125674000Y-85830173D01*
X125674000Y-72285204D01*
X125676187Y-72262999D01*
X125667460Y-72174392D01*
X125656319Y-72137667D01*
X125641614Y-72089190D01*
X125599643Y-72010667D01*
X125543159Y-71941841D01*
X125525911Y-71927686D01*
X123690268Y-70092043D01*
X133305067Y-70092043D01*
X133344371Y-70248190D01*
X133485056Y-70564207D01*
X133684689Y-70846705D01*
X133935599Y-71084829D01*
X134228144Y-71269427D01*
X134551081Y-71393406D01*
X134892000Y-71452000D01*
X136017000Y-71452000D01*
X136017000Y-69819000D01*
X136271000Y-69819000D01*
X136271000Y-71452000D01*
X137396000Y-71452000D01*
X137736919Y-71393406D01*
X138059856Y-71269427D01*
X138352401Y-71084829D01*
X138603311Y-70846705D01*
X138802944Y-70564207D01*
X138943629Y-70248190D01*
X138982933Y-70092043D01*
X138865206Y-69819000D01*
X136271000Y-69819000D01*
X136017000Y-69819000D01*
X133422794Y-69819000D01*
X133305067Y-70092043D01*
X123690268Y-70092043D01*
X122890182Y-69291957D01*
X133305067Y-69291957D01*
X133422794Y-69565000D01*
X136017000Y-69565000D01*
X136017000Y-67932000D01*
X136271000Y-67932000D01*
X136271000Y-69565000D01*
X138865206Y-69565000D01*
X138982933Y-69291957D01*
X138943629Y-69135810D01*
X138802944Y-68819793D01*
X138603311Y-68537295D01*
X138352401Y-68299171D01*
X138059856Y-68114573D01*
X137736919Y-67990594D01*
X137396000Y-67932000D01*
X136271000Y-67932000D01*
X136017000Y-67932000D01*
X134892000Y-67932000D01*
X134551081Y-67990594D01*
X134228144Y-68114573D01*
X133935599Y-68299171D01*
X133684689Y-68537295D01*
X133485056Y-68819793D01*
X133344371Y-69135810D01*
X133305067Y-69291957D01*
X122890182Y-69291957D01*
X122481418Y-68883194D01*
X122727550Y-68985145D01*
X123370319Y-69113000D01*
X124025681Y-69113000D01*
X124668450Y-68985145D01*
X125273925Y-68734349D01*
X125818839Y-68370250D01*
X126282250Y-67906839D01*
X126646349Y-67361925D01*
X126897145Y-66756450D01*
X127025000Y-66113681D01*
X127025000Y-65458319D01*
X126897145Y-64815550D01*
X126646349Y-64210075D01*
X126282250Y-63665161D01*
X125818839Y-63201750D01*
X125273925Y-62837651D01*
X124668450Y-62586855D01*
X124025681Y-62459000D01*
X123370319Y-62459000D01*
X122727550Y-62586855D01*
X122122075Y-62837651D01*
X121577161Y-63201750D01*
X121113750Y-63665161D01*
X120749651Y-64210075D01*
X120498855Y-64815550D01*
X120371000Y-65458319D01*
X120371000Y-66113681D01*
X120498855Y-66756450D01*
X120600807Y-67002583D01*
X118453317Y-64855093D01*
X118456000Y-64841603D01*
X118456000Y-64698397D01*
X118428062Y-64557942D01*
X118373259Y-64425636D01*
X118293698Y-64306564D01*
X118192436Y-64205302D01*
X118073364Y-64125741D01*
X117941058Y-64070938D01*
X117800603Y-64043000D01*
X117657397Y-64043000D01*
X117516942Y-64070938D01*
X117384636Y-64125741D01*
X117265564Y-64205302D01*
X117164302Y-64306564D01*
X117084741Y-64425636D01*
X117029938Y-64557942D01*
X117002000Y-64698397D01*
X117002000Y-64841603D01*
X117029938Y-64982058D01*
X117084741Y-65114364D01*
X117164302Y-65233436D01*
X117265564Y-65334698D01*
X117384636Y-65414259D01*
X117516942Y-65469062D01*
X117657397Y-65497000D01*
X117800603Y-65497000D01*
X117814093Y-65494317D01*
X124770001Y-72450226D01*
X124770000Y-85752045D01*
X124770001Y-85752055D01*
X124770001Y-85830173D01*
X124685892Y-85865012D01*
X124500520Y-85988874D01*
X124342874Y-86146520D01*
X124295999Y-86216673D01*
X124295999Y-75098201D01*
X124298186Y-75075998D01*
X124294542Y-75039000D01*
X124289459Y-74987392D01*
X124263613Y-74902189D01*
X124221642Y-74823666D01*
X124165158Y-74754840D01*
X124147911Y-74740686D01*
X122644317Y-73237093D01*
X122647000Y-73223603D01*
X122647000Y-73080397D01*
X122619062Y-72939942D01*
X122564259Y-72807636D01*
X122484698Y-72688564D01*
X122383436Y-72587302D01*
X122264364Y-72507741D01*
X122132058Y-72452938D01*
X121991603Y-72425000D01*
X121848397Y-72425000D01*
X121707942Y-72452938D01*
X121575636Y-72507741D01*
X121456564Y-72587302D01*
X121355302Y-72688564D01*
X121275741Y-72807636D01*
X121220938Y-72939942D01*
X121193000Y-73080397D01*
X121193000Y-73223603D01*
X121220938Y-73364058D01*
X121275741Y-73496364D01*
X121355302Y-73615436D01*
X121456564Y-73716698D01*
X121575636Y-73796259D01*
X121707942Y-73851062D01*
X121848397Y-73879000D01*
X121991603Y-73879000D01*
X122005093Y-73876317D01*
X123391999Y-75263224D01*
X123392000Y-85981203D01*
X123218108Y-85865012D01*
X123012134Y-85779695D01*
X122793473Y-85736200D01*
X122570527Y-85736200D01*
X122351866Y-85779695D01*
X122145892Y-85865012D01*
X121960520Y-85988874D01*
X121802874Y-86146520D01*
X121679012Y-86331892D01*
X121593695Y-86537866D01*
X121550200Y-86756527D01*
X121550200Y-86979473D01*
X121593695Y-87198134D01*
X121679012Y-87404108D01*
X121800955Y-87586608D01*
X121751058Y-87565940D01*
X121610603Y-87538002D01*
X121467397Y-87538002D01*
X121326942Y-87565940D01*
X121194636Y-87620743D01*
X121075564Y-87700304D01*
X120974302Y-87801566D01*
X120894741Y-87920638D01*
X120839938Y-88052944D01*
X120812000Y-88193399D01*
X120812000Y-88336605D01*
X120839938Y-88477060D01*
X120894741Y-88609366D01*
X120974302Y-88728438D01*
X121075564Y-88829700D01*
X121087000Y-88837341D01*
X121087000Y-88852891D01*
X121087001Y-88852901D01*
X121087000Y-93919776D01*
X119193769Y-95813007D01*
X119197000Y-95780205D01*
X119197000Y-95780204D01*
X119199187Y-95758001D01*
X119197000Y-95735798D01*
X119197000Y-87490893D01*
X119262874Y-87589480D01*
X119420520Y-87747126D01*
X119605892Y-87870988D01*
X119811866Y-87956305D01*
X120030527Y-87999800D01*
X120253473Y-87999800D01*
X120472134Y-87956305D01*
X120678108Y-87870988D01*
X120863480Y-87747126D01*
X121021126Y-87589480D01*
X121144988Y-87404108D01*
X121230305Y-87198134D01*
X121273800Y-86979473D01*
X121273800Y-86756527D01*
X121230305Y-86537866D01*
X121144988Y-86331892D01*
X121021126Y-86146520D01*
X120863480Y-85988874D01*
X120678108Y-85865012D01*
X120594000Y-85830173D01*
X120594000Y-72583858D01*
X120608058Y-72581062D01*
X120740364Y-72526259D01*
X120859436Y-72446698D01*
X120960698Y-72345436D01*
X121040259Y-72226364D01*
X121095062Y-72094058D01*
X121123000Y-71953603D01*
X121123000Y-71810397D01*
X121095062Y-71669942D01*
X121040259Y-71537636D01*
X120960698Y-71418564D01*
X120859436Y-71317302D01*
X120740364Y-71237741D01*
X120608058Y-71182938D01*
X120467603Y-71155000D01*
X120324397Y-71155000D01*
X120183942Y-71182938D01*
X120051636Y-71237741D01*
X119932564Y-71317302D01*
X119831302Y-71418564D01*
X119751741Y-71537636D01*
X119696938Y-71669942D01*
X119669000Y-71810397D01*
X119669000Y-71953603D01*
X119693598Y-72077266D01*
X119687813Y-72136000D01*
X119690001Y-72158215D01*
X119690000Y-85830173D01*
X119605892Y-85865012D01*
X119420520Y-85988874D01*
X119262874Y-86146520D01*
X119197000Y-86245107D01*
X119197000Y-75359529D01*
X119208436Y-75351888D01*
X119309698Y-75250626D01*
X119389259Y-75131554D01*
X119444062Y-74999248D01*
X119472000Y-74858793D01*
X119472000Y-74715587D01*
X119444062Y-74575132D01*
X119389259Y-74442826D01*
X119309698Y-74323754D01*
X119208436Y-74222492D01*
X119089364Y-74142931D01*
X118957058Y-74088128D01*
X118816603Y-74060190D01*
X118673397Y-74060190D01*
X118532942Y-74088128D01*
X118400636Y-74142931D01*
X118281564Y-74222492D01*
X118180302Y-74323754D01*
X118100741Y-74442826D01*
X118054000Y-74555669D01*
X118054000Y-72832022D01*
X118119253Y-72734364D01*
X118174056Y-72602058D01*
X118201994Y-72461603D01*
X118201994Y-72318397D01*
X118174056Y-72177942D01*
X118119253Y-72045636D01*
X118039692Y-71926564D01*
X117938430Y-71825302D01*
X117819358Y-71745741D01*
X117687052Y-71690938D01*
X117546597Y-71663000D01*
X117403391Y-71663000D01*
X117262936Y-71690938D01*
X117130630Y-71745741D01*
X117011558Y-71825302D01*
X116910296Y-71926564D01*
X116830735Y-72045636D01*
X116784002Y-72158459D01*
X116784002Y-67509804D01*
X116786189Y-67487599D01*
X116777462Y-67398991D01*
X116751616Y-67313789D01*
X116744588Y-67300641D01*
X116709645Y-67235266D01*
X116693068Y-67215066D01*
X116709742Y-67198392D01*
X116789303Y-67079320D01*
X116844106Y-66947014D01*
X116872044Y-66806559D01*
X116872044Y-66663353D01*
X116844106Y-66522898D01*
X116789303Y-66390592D01*
X116709742Y-66271520D01*
X116608480Y-66170258D01*
X116489408Y-66090697D01*
X116357102Y-66035894D01*
X116216647Y-66007956D01*
X116073441Y-66007956D01*
X115932986Y-66035894D01*
X115800680Y-66090697D01*
X115681608Y-66170258D01*
X115580346Y-66271520D01*
X115500785Y-66390592D01*
X115445982Y-66522898D01*
X115418044Y-66663353D01*
X115418044Y-66806559D01*
X115445982Y-66947014D01*
X115500785Y-67079320D01*
X115580346Y-67198392D01*
X115681608Y-67299654D01*
X115691404Y-67306200D01*
X115699584Y-67389248D01*
X115725430Y-67474450D01*
X115738841Y-67499540D01*
X115767402Y-67552974D01*
X115823886Y-67621800D01*
X115841140Y-67635960D01*
X115880002Y-67674822D01*
X115880003Y-86085397D01*
X115783480Y-85988874D01*
X115598108Y-85865012D01*
X115392134Y-85779695D01*
X115173473Y-85736200D01*
X114950527Y-85736200D01*
X114731866Y-85779695D01*
X114525892Y-85865012D01*
X114371000Y-85968508D01*
X114371000Y-81892527D01*
X114417741Y-82005370D01*
X114497302Y-82124442D01*
X114598564Y-82225704D01*
X114717636Y-82305265D01*
X114849942Y-82360068D01*
X114990397Y-82388006D01*
X115133603Y-82388006D01*
X115274058Y-82360068D01*
X115406364Y-82305265D01*
X115525436Y-82225704D01*
X115626698Y-82124442D01*
X115706259Y-82005370D01*
X115761062Y-81873064D01*
X115789000Y-81732609D01*
X115789000Y-81589403D01*
X115761062Y-81448948D01*
X115706259Y-81316642D01*
X115626698Y-81197570D01*
X115592200Y-81163072D01*
X115592200Y-75173934D01*
X115626698Y-75139436D01*
X115706259Y-75020364D01*
X115761062Y-74888058D01*
X115789000Y-74747603D01*
X115789000Y-74604397D01*
X115761062Y-74463942D01*
X115706259Y-74331636D01*
X115626698Y-74212564D01*
X115525436Y-74111302D01*
X115406364Y-74031741D01*
X115274058Y-73976938D01*
X115133603Y-73949000D01*
X114990397Y-73949000D01*
X114849942Y-73976938D01*
X114717636Y-74031741D01*
X114598564Y-74111302D01*
X114497302Y-74212564D01*
X114417741Y-74331636D01*
X114371000Y-74444479D01*
X114371000Y-68517339D01*
X114382436Y-68509698D01*
X114483698Y-68408436D01*
X114563259Y-68289364D01*
X114618062Y-68157058D01*
X114646000Y-68016603D01*
X114646000Y-67873397D01*
X114618062Y-67732942D01*
X114563259Y-67600636D01*
X114483698Y-67481564D01*
X114382436Y-67380302D01*
X114263364Y-67300741D01*
X114131058Y-67245938D01*
X113990603Y-67218000D01*
X113847397Y-67218000D01*
X113706942Y-67245938D01*
X113574636Y-67300741D01*
X113560200Y-67310387D01*
X113560200Y-66029932D01*
X113594698Y-65995434D01*
X113674259Y-65876362D01*
X113729062Y-65744056D01*
X113757000Y-65603601D01*
X113757000Y-65460395D01*
X113729062Y-65319940D01*
X113674259Y-65187634D01*
X113594698Y-65068562D01*
X113493436Y-64967300D01*
X113374364Y-64887739D01*
X113242058Y-64832936D01*
X113101603Y-64804998D01*
X112958397Y-64804998D01*
X112817942Y-64832936D01*
X112685636Y-64887739D01*
X112566564Y-64967300D01*
X112465302Y-65068562D01*
X112385741Y-65187634D01*
X112330938Y-65319940D01*
X112303000Y-65460395D01*
X112303000Y-65603601D01*
X112330938Y-65744056D01*
X112385741Y-65876362D01*
X112465302Y-65995434D01*
X112499801Y-66029933D01*
X112499800Y-74754387D01*
X112485364Y-74744741D01*
X112353058Y-74689938D01*
X112212603Y-74662000D01*
X112069397Y-74662000D01*
X111928942Y-74689938D01*
X111796636Y-74744741D01*
X111677564Y-74824302D01*
X111576302Y-74925564D01*
X111496741Y-75044636D01*
X111441938Y-75176942D01*
X111414000Y-75317397D01*
X111414000Y-75460603D01*
X111415329Y-75467286D01*
X111398808Y-75464000D01*
X111255602Y-75464000D01*
X111115147Y-75491938D01*
X110982841Y-75546741D01*
X110863769Y-75626302D01*
X110762507Y-75727564D01*
X110682946Y-75846636D01*
X110628143Y-75978942D01*
X110600205Y-76119397D01*
X110600205Y-76262603D01*
X110602888Y-76276093D01*
X105891970Y-80987012D01*
X105874711Y-81001176D01*
X105818227Y-81070003D01*
X105804167Y-81096308D01*
X105776256Y-81148526D01*
X105750410Y-81233728D01*
X105741683Y-81322335D01*
X105743870Y-81344540D01*
X105743871Y-86109265D01*
X105623480Y-85988874D01*
X105438108Y-85865012D01*
X105232134Y-85779695D01*
X105013473Y-85736200D01*
X104790527Y-85736200D01*
X104571866Y-85779695D01*
X104365892Y-85865012D01*
X104180520Y-85988874D01*
X104022874Y-86146520D01*
X103899012Y-86331892D01*
X103813695Y-86537866D01*
X103770200Y-86756527D01*
X103770200Y-86979473D01*
X103807323Y-87166100D01*
X103576000Y-86934777D01*
X103576000Y-83588212D01*
X103578187Y-83566007D01*
X103569460Y-83477400D01*
X103551075Y-83416795D01*
X103543614Y-83392198D01*
X103501643Y-83313675D01*
X103445159Y-83244849D01*
X103427912Y-83230695D01*
X101562317Y-81365101D01*
X101565000Y-81351611D01*
X101565000Y-81208405D01*
X101537062Y-81067950D01*
X101482259Y-80935644D01*
X101402698Y-80816572D01*
X101301436Y-80715310D01*
X101182364Y-80635749D01*
X101050058Y-80580946D01*
X100909603Y-80553008D01*
X100766397Y-80553008D01*
X100625942Y-80580946D01*
X100493636Y-80635749D01*
X100374564Y-80715310D01*
X100273302Y-80816572D01*
X100193741Y-80935644D01*
X100138938Y-81067950D01*
X100111000Y-81208405D01*
X100111000Y-81351611D01*
X100138938Y-81492066D01*
X100193741Y-81624372D01*
X100273302Y-81743444D01*
X100374564Y-81844706D01*
X100493636Y-81924267D01*
X100625942Y-81979070D01*
X100766397Y-82007008D01*
X100909603Y-82007008D01*
X100923093Y-82004325D01*
X102672000Y-83753233D01*
X102672000Y-83885688D01*
X102646683Y-83868772D01*
X102514377Y-83813969D01*
X102373922Y-83786031D01*
X102230716Y-83786031D01*
X102090261Y-83813969D01*
X101957955Y-83868772D01*
X101838883Y-83948333D01*
X101737621Y-84049595D01*
X101658060Y-84168667D01*
X101603257Y-84300973D01*
X101575319Y-84441428D01*
X101575319Y-84584634D01*
X101603257Y-84725089D01*
X101658060Y-84857395D01*
X101737621Y-84976467D01*
X101838883Y-85077729D01*
X101910001Y-85125248D01*
X101910000Y-97344661D01*
X101898564Y-97352302D01*
X101852289Y-97398577D01*
X101855990Y-97379971D01*
X101855990Y-97236765D01*
X101828052Y-97096310D01*
X101773249Y-96964004D01*
X101693688Y-96844932D01*
X101592426Y-96743670D01*
X101473354Y-96664109D01*
X101341048Y-96609306D01*
X101200593Y-96581368D01*
X101057387Y-96581368D01*
X101043897Y-96584051D01*
X100655000Y-96195155D01*
X100655000Y-84011339D01*
X100666436Y-84003698D01*
X100767698Y-83902436D01*
X100847259Y-83783364D01*
X100902062Y-83651058D01*
X100930000Y-83510603D01*
X100930000Y-83367397D01*
X100902062Y-83226942D01*
X100847259Y-83094636D01*
X100767698Y-82975564D01*
X100666436Y-82874302D01*
X100547364Y-82794741D01*
X100415058Y-82739938D01*
X100274603Y-82712000D01*
X100131397Y-82712000D01*
X99990942Y-82739938D01*
X99858636Y-82794741D01*
X99789878Y-82840683D01*
X99789878Y-73478422D01*
X99809480Y-73478422D01*
X99949935Y-73450484D01*
X100082241Y-73395681D01*
X100201313Y-73316120D01*
X100302575Y-73214858D01*
X100382136Y-73095786D01*
X100436939Y-72963480D01*
X100464877Y-72823025D01*
X100464877Y-72679819D01*
X100436939Y-72539364D01*
X100382136Y-72407058D01*
X100302575Y-72287986D01*
X100201313Y-72186724D01*
X100082241Y-72107163D01*
X99949935Y-72052360D01*
X99809480Y-72024422D01*
X99666274Y-72024422D01*
X99525819Y-72052360D01*
X99393513Y-72107163D01*
X99274441Y-72186724D01*
X99173179Y-72287986D01*
X99131000Y-72351112D01*
X99131000Y-66222397D01*
X100746000Y-66222397D01*
X100746000Y-66365603D01*
X100773938Y-66506058D01*
X100828741Y-66638364D01*
X100908302Y-66757436D01*
X101009564Y-66858698D01*
X101021000Y-66866339D01*
X101021000Y-66881889D01*
X101021001Y-66881899D01*
X101021000Y-76812795D01*
X101018813Y-76835000D01*
X101027540Y-76923607D01*
X101040484Y-76966278D01*
X101053386Y-77008809D01*
X101095357Y-77087332D01*
X101151841Y-77156159D01*
X101169100Y-77170323D01*
X103923683Y-79924908D01*
X103921000Y-79938397D01*
X103921000Y-80081603D01*
X103948938Y-80222058D01*
X104003741Y-80354364D01*
X104083302Y-80473436D01*
X104184564Y-80574698D01*
X104303636Y-80654259D01*
X104435942Y-80709062D01*
X104576397Y-80737000D01*
X104719603Y-80737000D01*
X104860058Y-80709062D01*
X104992364Y-80654259D01*
X105111436Y-80574698D01*
X105212698Y-80473436D01*
X105292259Y-80354364D01*
X105347062Y-80222058D01*
X105375000Y-80081603D01*
X105375000Y-79938397D01*
X105347062Y-79797942D01*
X105292259Y-79665636D01*
X105212698Y-79546564D01*
X105111436Y-79445302D01*
X104992364Y-79365741D01*
X104860058Y-79310938D01*
X104719603Y-79283000D01*
X104576397Y-79283000D01*
X104562908Y-79285683D01*
X101925000Y-76647777D01*
X101925000Y-71414000D01*
X102271928Y-71414000D01*
X102275000Y-73628250D01*
X102307856Y-73661106D01*
X102274887Y-73827998D01*
X102275116Y-74002328D01*
X102308039Y-74166711D01*
X102275000Y-74199750D01*
X102271928Y-76414000D01*
X102284188Y-76538482D01*
X102320498Y-76658180D01*
X102379463Y-76768494D01*
X102458815Y-76865185D01*
X102555506Y-76944537D01*
X102665820Y-77003502D01*
X102785518Y-77039812D01*
X102910000Y-77052072D01*
X105124250Y-77049000D01*
X105157106Y-77016144D01*
X105323998Y-77049113D01*
X105498328Y-77048884D01*
X105662711Y-77015961D01*
X105695750Y-77049000D01*
X107910000Y-77052072D01*
X108034482Y-77039812D01*
X108154180Y-77003502D01*
X108264494Y-76944537D01*
X108361185Y-76865185D01*
X108440537Y-76768494D01*
X108499502Y-76658180D01*
X108535812Y-76538482D01*
X108548072Y-76414000D01*
X108545000Y-74199750D01*
X108512144Y-74166894D01*
X108545113Y-74000002D01*
X108544884Y-73825672D01*
X108511961Y-73661289D01*
X108545000Y-73628250D01*
X108548072Y-71414000D01*
X108535812Y-71289518D01*
X108499502Y-71169820D01*
X108440537Y-71059506D01*
X108361185Y-70962815D01*
X108264494Y-70883463D01*
X108154180Y-70824498D01*
X108034482Y-70788188D01*
X107910000Y-70775928D01*
X105695750Y-70779000D01*
X105662894Y-70811856D01*
X105496002Y-70778887D01*
X105321672Y-70779116D01*
X105157289Y-70812039D01*
X105124250Y-70779000D01*
X102910000Y-70775928D01*
X102785518Y-70788188D01*
X102665820Y-70824498D01*
X102555506Y-70883463D01*
X102458815Y-70962815D01*
X102379463Y-71059506D01*
X102320498Y-71169820D01*
X102284188Y-71289518D01*
X102271928Y-71414000D01*
X101925000Y-71414000D01*
X101925000Y-66866339D01*
X101936436Y-66858698D01*
X102037698Y-66757436D01*
X102117259Y-66638364D01*
X102172062Y-66506058D01*
X102200000Y-66365603D01*
X102200000Y-66222397D01*
X102172062Y-66081942D01*
X102117259Y-65949636D01*
X102037698Y-65830564D01*
X101936436Y-65729302D01*
X101817364Y-65649741D01*
X101685058Y-65594938D01*
X101544603Y-65567000D01*
X101401397Y-65567000D01*
X101260942Y-65594938D01*
X101128636Y-65649741D01*
X101009564Y-65729302D01*
X100908302Y-65830564D01*
X100828741Y-65949636D01*
X100773938Y-66081942D01*
X100746000Y-66222397D01*
X99131000Y-66222397D01*
X99131000Y-65342339D01*
X99142436Y-65334698D01*
X99243698Y-65233436D01*
X99323259Y-65114364D01*
X99378062Y-64982058D01*
X99406000Y-64841603D01*
X99406000Y-64698397D01*
X99378062Y-64557942D01*
X99323259Y-64425636D01*
X99243698Y-64306564D01*
X99142436Y-64205302D01*
X99023364Y-64125741D01*
X98891058Y-64070938D01*
X98750603Y-64043000D01*
X98607397Y-64043000D01*
X98533080Y-64057782D01*
X98554000Y-63952609D01*
X98554000Y-63809403D01*
X98553999Y-63809397D01*
X109001000Y-63809397D01*
X109001000Y-63952603D01*
X109028938Y-64093058D01*
X109083741Y-64225364D01*
X109163302Y-64344436D01*
X109172401Y-64353535D01*
X109172400Y-69822717D01*
X109169713Y-69850000D01*
X109172400Y-69877283D01*
X109172400Y-69877292D01*
X109180439Y-69958916D01*
X109212209Y-70063647D01*
X109263800Y-70160168D01*
X109333231Y-70244769D01*
X109354434Y-70262170D01*
X110906000Y-71813737D01*
X110906000Y-71826603D01*
X110933938Y-71967058D01*
X110988741Y-72099364D01*
X111068302Y-72218436D01*
X111169564Y-72319698D01*
X111288636Y-72399259D01*
X111420942Y-72454062D01*
X111561397Y-72482000D01*
X111704603Y-72482000D01*
X111845058Y-72454062D01*
X111977364Y-72399259D01*
X112096436Y-72319698D01*
X112197698Y-72218436D01*
X112277259Y-72099364D01*
X112332062Y-71967058D01*
X112360000Y-71826603D01*
X112360000Y-71683397D01*
X112332062Y-71542942D01*
X112277259Y-71410636D01*
X112197698Y-71291564D01*
X112096436Y-71190302D01*
X111977364Y-71110741D01*
X111845058Y-71055938D01*
X111704603Y-71028000D01*
X111691737Y-71028000D01*
X110283600Y-69619864D01*
X110283600Y-64353534D01*
X110292698Y-64344436D01*
X110372259Y-64225364D01*
X110427062Y-64093058D01*
X110455000Y-63952603D01*
X110455000Y-63809397D01*
X110427062Y-63668942D01*
X110372259Y-63536636D01*
X110292698Y-63417564D01*
X110191436Y-63316302D01*
X110072364Y-63236741D01*
X109940058Y-63181938D01*
X109799603Y-63154000D01*
X109656397Y-63154000D01*
X109515942Y-63181938D01*
X109383636Y-63236741D01*
X109264564Y-63316302D01*
X109163302Y-63417564D01*
X109083741Y-63536636D01*
X109028938Y-63668942D01*
X109001000Y-63809397D01*
X98553999Y-63809397D01*
X98526062Y-63668948D01*
X98471259Y-63536642D01*
X98391698Y-63417570D01*
X98290436Y-63316308D01*
X98171364Y-63236747D01*
X98039058Y-63181944D01*
X97898603Y-63154006D01*
X97755397Y-63154006D01*
X97614942Y-63181944D01*
X97482636Y-63236747D01*
X97363564Y-63316308D01*
X97262302Y-63417570D01*
X97182741Y-63536642D01*
X97127938Y-63668948D01*
X97100000Y-63809403D01*
X97100000Y-63952609D01*
X97127938Y-64093064D01*
X97182741Y-64225370D01*
X97262302Y-64344442D01*
X97271401Y-64353541D01*
X97271400Y-82771988D01*
X97237708Y-82721564D01*
X97136446Y-82620302D01*
X97017374Y-82540741D01*
X96885068Y-82485938D01*
X96744613Y-82458000D01*
X96601407Y-82458000D01*
X96460952Y-82485938D01*
X96328646Y-82540741D01*
X96311880Y-82551944D01*
X96330058Y-82508058D01*
X96357996Y-82367603D01*
X96357996Y-82224397D01*
X96330058Y-82083942D01*
X96275255Y-81951636D01*
X96195694Y-81832564D01*
X96094432Y-81731302D01*
X95975360Y-81651741D01*
X95843054Y-81596938D01*
X95702599Y-81569000D01*
X95559393Y-81569000D01*
X95418938Y-81596938D01*
X95286632Y-81651741D01*
X95167560Y-81731302D01*
X95066298Y-81832564D01*
X94986737Y-81951636D01*
X94940000Y-82064469D01*
X94940000Y-70291223D01*
X95164907Y-70066317D01*
X95178397Y-70069000D01*
X95321603Y-70069000D01*
X95462058Y-70041062D01*
X95594364Y-69986259D01*
X95713436Y-69906698D01*
X95814698Y-69805436D01*
X95894259Y-69686364D01*
X95949062Y-69554058D01*
X95977000Y-69413603D01*
X95977000Y-69270397D01*
X95949062Y-69129942D01*
X95894259Y-68997636D01*
X95814698Y-68878564D01*
X95713436Y-68777302D01*
X95594364Y-68697741D01*
X95462058Y-68642938D01*
X95321603Y-68615000D01*
X95178397Y-68615000D01*
X95037942Y-68642938D01*
X94905636Y-68697741D01*
X94786564Y-68777302D01*
X94685302Y-68878564D01*
X94605741Y-68997636D01*
X94550938Y-69129942D01*
X94523000Y-69270397D01*
X94523000Y-69413603D01*
X94525683Y-69427093D01*
X94184100Y-69768677D01*
X94166841Y-69782841D01*
X94110357Y-69851668D01*
X94080943Y-69906698D01*
X94068386Y-69930191D01*
X94042540Y-70015393D01*
X94033813Y-70104000D01*
X94036000Y-70126205D01*
X94036001Y-83101867D01*
X93935436Y-83001302D01*
X93816364Y-82921741D01*
X93684058Y-82866938D01*
X93543603Y-82839000D01*
X93400397Y-82839000D01*
X93259942Y-82866938D01*
X93127636Y-82921741D01*
X93008564Y-83001302D01*
X92907302Y-83102564D01*
X92827741Y-83221636D01*
X92772938Y-83353942D01*
X92745000Y-83494397D01*
X92745000Y-83637603D01*
X92772938Y-83778058D01*
X92827741Y-83910364D01*
X92907302Y-84029436D01*
X93008564Y-84130698D01*
X93020000Y-84138339D01*
X93020000Y-84153889D01*
X93020001Y-84153899D01*
X93020000Y-93182392D01*
X92980476Y-93221916D01*
X92941969Y-93005675D01*
X92732940Y-92912019D01*
X92509655Y-92860942D01*
X92280697Y-92854407D01*
X92054863Y-92892665D01*
X91840833Y-92974246D01*
X91782031Y-93005675D01*
X91743524Y-93221919D01*
X92362000Y-93840395D01*
X92376143Y-93826253D01*
X92555748Y-94005858D01*
X92541605Y-94020000D01*
X92555748Y-94034143D01*
X92376143Y-94213748D01*
X92362000Y-94199605D01*
X91743524Y-94818081D01*
X91782031Y-95034325D01*
X91991060Y-95127981D01*
X92214345Y-95179058D01*
X92443303Y-95185593D01*
X92669137Y-95147335D01*
X92883167Y-95065754D01*
X92941969Y-95034325D01*
X92980476Y-94818084D01*
X93020000Y-94857608D01*
X93020000Y-98182392D01*
X92980476Y-98221916D01*
X92941969Y-98005675D01*
X92732940Y-97912019D01*
X92509655Y-97860942D01*
X92280697Y-97854407D01*
X92054863Y-97892665D01*
X91840833Y-97974246D01*
X91782031Y-98005675D01*
X91743524Y-98221919D01*
X92362000Y-98840395D01*
X92376143Y-98826253D01*
X92555748Y-99005858D01*
X92541605Y-99020000D01*
X92555748Y-99034143D01*
X92376143Y-99213748D01*
X92362000Y-99199605D01*
X91743524Y-99818081D01*
X91782031Y-100034325D01*
X91991060Y-100127981D01*
X92214345Y-100179058D01*
X92443303Y-100185593D01*
X92669137Y-100147335D01*
X92883167Y-100065754D01*
X92941969Y-100034325D01*
X92980476Y-99818084D01*
X93076712Y-99914320D01*
X93094357Y-99947332D01*
X93150841Y-100016159D01*
X93168100Y-100030323D01*
X94671001Y-101533225D01*
X94671001Y-103329699D01*
X94639145Y-103169550D01*
X94388349Y-102564075D01*
X94024250Y-102019161D01*
X93560839Y-101555750D01*
X93015925Y-101191651D01*
X92410450Y-100940855D01*
X91767681Y-100813000D01*
X91112319Y-100813000D01*
X90714199Y-100892191D01*
X90618995Y-100796987D01*
X90857860Y-100731463D01*
X90973760Y-100484484D01*
X91039250Y-100219640D01*
X91051812Y-99947108D01*
X91010965Y-99677362D01*
X90918277Y-99420768D01*
X90857860Y-99307737D01*
X90618993Y-99242212D01*
X89841605Y-100019600D01*
X89855748Y-100033743D01*
X89676143Y-100213348D01*
X89662000Y-100199205D01*
X88884612Y-100976593D01*
X88950137Y-101215460D01*
X89197116Y-101331360D01*
X89461960Y-101396850D01*
X89550841Y-101400947D01*
X89319161Y-101555750D01*
X88855750Y-102019161D01*
X88491651Y-102564075D01*
X88240855Y-103169550D01*
X88163000Y-103560953D01*
X88163000Y-100092092D01*
X88272188Y-100092092D01*
X88313035Y-100361838D01*
X88405723Y-100618432D01*
X88466140Y-100731463D01*
X88705007Y-100796988D01*
X89482395Y-100019600D01*
X88705007Y-99242212D01*
X88466140Y-99307737D01*
X88350240Y-99554716D01*
X88284750Y-99819560D01*
X88272188Y-100092092D01*
X88163000Y-100092092D01*
X88163000Y-99062607D01*
X88884612Y-99062607D01*
X89662000Y-99839995D01*
X90400692Y-99101303D01*
X91196407Y-99101303D01*
X91234665Y-99327137D01*
X91316246Y-99541167D01*
X91347675Y-99599969D01*
X91563919Y-99638476D01*
X92182395Y-99020000D01*
X91563919Y-98401524D01*
X91347675Y-98440031D01*
X91254019Y-98649060D01*
X91202942Y-98872345D01*
X91196407Y-99101303D01*
X90400692Y-99101303D01*
X90439388Y-99062607D01*
X90373863Y-98823740D01*
X90126884Y-98707840D01*
X89862040Y-98642350D01*
X89589508Y-98629788D01*
X89319762Y-98670635D01*
X89063168Y-98763323D01*
X88950137Y-98823740D01*
X88884612Y-99062607D01*
X88163000Y-99062607D01*
X88163000Y-93977393D01*
X88884612Y-93977393D01*
X88950137Y-94216260D01*
X89197116Y-94332160D01*
X89461960Y-94397650D01*
X89734492Y-94410212D01*
X90004238Y-94369365D01*
X90260832Y-94276677D01*
X90373863Y-94216260D01*
X90405397Y-94101303D01*
X91196407Y-94101303D01*
X91234665Y-94327137D01*
X91316246Y-94541167D01*
X91347675Y-94599969D01*
X91563919Y-94638476D01*
X92182395Y-94020000D01*
X91563919Y-93401524D01*
X91347675Y-93440031D01*
X91254019Y-93649060D01*
X91202942Y-93872345D01*
X91196407Y-94101303D01*
X90405397Y-94101303D01*
X90439388Y-93977393D01*
X89662000Y-93200005D01*
X88884612Y-93977393D01*
X88163000Y-93977393D01*
X88163000Y-93092892D01*
X88272188Y-93092892D01*
X88313035Y-93362638D01*
X88405723Y-93619232D01*
X88466140Y-93732263D01*
X88705007Y-93797788D01*
X89482395Y-93020400D01*
X89841605Y-93020400D01*
X90618993Y-93797788D01*
X90857860Y-93732263D01*
X90973760Y-93485284D01*
X91039250Y-93220440D01*
X91051812Y-92947908D01*
X91010965Y-92678162D01*
X90918277Y-92421568D01*
X90857860Y-92308537D01*
X90618993Y-92243012D01*
X89841605Y-93020400D01*
X89482395Y-93020400D01*
X88705007Y-92243012D01*
X88466140Y-92308537D01*
X88350240Y-92555516D01*
X88284750Y-92820360D01*
X88272188Y-93092892D01*
X88163000Y-93092892D01*
X88163000Y-92063407D01*
X88884612Y-92063407D01*
X89662000Y-92840795D01*
X90439388Y-92063407D01*
X90373863Y-91824540D01*
X90126884Y-91708640D01*
X89862040Y-91643150D01*
X89589508Y-91630588D01*
X89319762Y-91671435D01*
X89063168Y-91764123D01*
X88950137Y-91824540D01*
X88884612Y-92063407D01*
X88163000Y-92063407D01*
X88163000Y-66365047D01*
X88240855Y-66756450D01*
X88491651Y-67361925D01*
X88855750Y-67906839D01*
X89319161Y-68370250D01*
X89864075Y-68734349D01*
X90469550Y-68985145D01*
X91112319Y-69113000D01*
X91767681Y-69113000D01*
X92410450Y-68985145D01*
X93015925Y-68734349D01*
X93560839Y-68370250D01*
X94024250Y-67906839D01*
X94388349Y-67361925D01*
X94639145Y-66756450D01*
X94767000Y-66113681D01*
X94767000Y-65458319D01*
X94639145Y-64815550D01*
X94388349Y-64210075D01*
X94024250Y-63665161D01*
X93560839Y-63201750D01*
X93015925Y-62837651D01*
X92410450Y-62586855D01*
X91767681Y-62459000D01*
X91112319Y-62459000D01*
X90469550Y-62586855D01*
X89864075Y-62837651D01*
X89319161Y-63201750D01*
X88855750Y-63665161D01*
X88491651Y-64210075D01*
X88240855Y-64815550D01*
X88163000Y-65206953D01*
X88163000Y-64275641D01*
X88202535Y-63872433D01*
X88315674Y-63497699D01*
X88499442Y-63152084D01*
X88746843Y-62848739D01*
X89048446Y-62599231D01*
X89392772Y-62413055D01*
X89766706Y-62297303D01*
X90169157Y-62255004D01*
X90170409Y-62255000D01*
X138924359Y-62255000D01*
X139327567Y-62294535D01*
X139327567Y-62294535D01*
G37*
X139327567Y-62294535D02*
X139702301Y-62407674D01*
X140047916Y-62591442D01*
X140351261Y-62838843D01*
X140600769Y-63140446D01*
X140786945Y-63484772D01*
X140902697Y-63858706D01*
X140944996Y-64261157D01*
X140945001Y-64262694D01*
X140945000Y-106412359D01*
X140905465Y-106815567D01*
X140792327Y-107190299D01*
X140608561Y-107535913D01*
X140361157Y-107839261D01*
X140059554Y-108088769D01*
X139715227Y-108274945D01*
X139341294Y-108390697D01*
X138938843Y-108432996D01*
X138937591Y-108433000D01*
X133578108Y-108433000D01*
X133586360Y-108428589D01*
X133658525Y-108184130D01*
X132842000Y-107367605D01*
X132025475Y-108184130D01*
X132097640Y-108428589D01*
X132106955Y-108433000D01*
X103098108Y-108433000D01*
X103106360Y-108428589D01*
X103178525Y-108184130D01*
X102362000Y-107367605D01*
X101545475Y-108184130D01*
X101617640Y-108428589D01*
X101626955Y-108433000D01*
X90183641Y-108433000D01*
X89780433Y-108393465D01*
X89405701Y-108280327D01*
X89060087Y-108096561D01*
X88756739Y-107849157D01*
X88507231Y-107547554D01*
X88321055Y-107203227D01*
X88205303Y-106829294D01*
X88163004Y-106426843D01*
X88163000Y-106425591D01*
X88163000Y-104719047D01*
X88240855Y-105110450D01*
X88491651Y-105715925D01*
X88855750Y-106260839D01*
X89319161Y-106724250D01*
X89864075Y-107088349D01*
X90469550Y-107339145D01*
X91112319Y-107467000D01*
X91767681Y-107467000D01*
X92410450Y-107339145D01*
X93015925Y-107088349D01*
X93560839Y-106724250D01*
X94024250Y-106260839D01*
X94388349Y-105715925D01*
X94639145Y-105110450D01*
X94671000Y-104950303D01*
X94671000Y-106056200D01*
X94630527Y-106056200D01*
X94411866Y-106099695D01*
X94205892Y-106185012D01*
X94020520Y-106308874D01*
X93862874Y-106466520D01*
X93739012Y-106651892D01*
X93653695Y-106857866D01*
X93610200Y-107076527D01*
X93610200Y-107299473D01*
X93653695Y-107518134D01*
X93739012Y-107724108D01*
X93862874Y-107909480D01*
X94020520Y-108067126D01*
X94205892Y-108190988D01*
X94411866Y-108276305D01*
X94630527Y-108319800D01*
X94853473Y-108319800D01*
X95072134Y-108276305D01*
X95278108Y-108190988D01*
X95463480Y-108067126D01*
X95621126Y-107909480D01*
X95744988Y-107724108D01*
X95830305Y-107518134D01*
X95873800Y-107299473D01*
X95873800Y-107076527D01*
X96150200Y-107076527D01*
X96150200Y-107299473D01*
X96193695Y-107518134D01*
X96279012Y-107724108D01*
X96402874Y-107909480D01*
X96560520Y-108067126D01*
X96745892Y-108190988D01*
X96951866Y-108276305D01*
X97170527Y-108319800D01*
X97393473Y-108319800D01*
X97612134Y-108276305D01*
X97818108Y-108190988D01*
X98003480Y-108067126D01*
X98161126Y-107909480D01*
X98284988Y-107724108D01*
X98370305Y-107518134D01*
X98413800Y-107299473D01*
X98413800Y-107076527D01*
X98370305Y-106857866D01*
X98284988Y-106651892D01*
X98161126Y-106466520D01*
X98003480Y-106308874D01*
X97818108Y-106185012D01*
X97612134Y-106099695D01*
X97393473Y-106056200D01*
X97170527Y-106056200D01*
X96951866Y-106099695D01*
X96745892Y-106185012D01*
X96560520Y-106308874D01*
X96402874Y-106466520D01*
X96279012Y-106651892D01*
X96193695Y-106857866D01*
X96150200Y-107076527D01*
X95873800Y-107076527D01*
X95830305Y-106857866D01*
X95744988Y-106651892D01*
X95621126Y-106466520D01*
X95575000Y-106420394D01*
X95575000Y-101368205D01*
X95577187Y-101346000D01*
X95568460Y-101257392D01*
X95542614Y-101172190D01*
X95537763Y-101163114D01*
X95500643Y-101093667D01*
X95444159Y-101024841D01*
X95426905Y-101010681D01*
X93924000Y-99507777D01*
X93924000Y-98000134D01*
X94024564Y-98100698D01*
X94143636Y-98180259D01*
X94275942Y-98235062D01*
X94416397Y-98263000D01*
X94559603Y-98263000D01*
X94700058Y-98235062D01*
X94832364Y-98180259D01*
X94951436Y-98100698D01*
X95052698Y-97999436D01*
X95132259Y-97880364D01*
X95187062Y-97748058D01*
X95215000Y-97607603D01*
X95215000Y-97464397D01*
X95187062Y-97323942D01*
X95132259Y-97191636D01*
X95052698Y-97072564D01*
X94951436Y-96971302D01*
X94940000Y-96963661D01*
X94940000Y-94141395D01*
X97308501Y-96509897D01*
X97305818Y-96523387D01*
X97305818Y-96666593D01*
X97333756Y-96807048D01*
X97388559Y-96939354D01*
X97468120Y-97058426D01*
X97569382Y-97159688D01*
X97688454Y-97239249D01*
X97820760Y-97294052D01*
X97961215Y-97321990D01*
X98104421Y-97321990D01*
X98244876Y-97294052D01*
X98377182Y-97239249D01*
X98496254Y-97159688D01*
X98597516Y-97058426D01*
X98677077Y-96939354D01*
X98731880Y-96807048D01*
X98759818Y-96666593D01*
X98759818Y-96523387D01*
X98731880Y-96382932D01*
X98719458Y-96352943D01*
X98764058Y-96344072D01*
X98885879Y-96293612D01*
X98885879Y-99638978D01*
X98883691Y-99661193D01*
X98892418Y-99749800D01*
X98918264Y-99835002D01*
X98947127Y-99889000D01*
X98960236Y-99913526D01*
X99016720Y-99982352D01*
X99033973Y-99996511D01*
X99158580Y-100121118D01*
X99144718Y-100134980D01*
X99065157Y-100254052D01*
X99010354Y-100386358D01*
X98982416Y-100526813D01*
X98982416Y-100670019D01*
X99010354Y-100810474D01*
X99065157Y-100942780D01*
X99144718Y-101061852D01*
X99245980Y-101163114D01*
X99365052Y-101242675D01*
X99497358Y-101297478D01*
X99637813Y-101325416D01*
X99781019Y-101325416D01*
X99921474Y-101297478D01*
X100053780Y-101242675D01*
X100172852Y-101163114D01*
X100274114Y-101061852D01*
X100353675Y-100942780D01*
X100408478Y-100810474D01*
X100436416Y-100670019D01*
X100436416Y-100526813D01*
X100408478Y-100386358D01*
X100353675Y-100254052D01*
X100274114Y-100134980D01*
X100172852Y-100033718D01*
X100163056Y-100027172D01*
X100154876Y-99944123D01*
X100129030Y-99858921D01*
X100088774Y-99783607D01*
X100087059Y-99780398D01*
X100030575Y-99711572D01*
X100013327Y-99697417D01*
X99789878Y-99473969D01*
X99789878Y-96568333D01*
X99825357Y-96634710D01*
X99881841Y-96703537D01*
X99899100Y-96717701D01*
X100404673Y-97223275D01*
X100401990Y-97236765D01*
X100401990Y-97379971D01*
X100429928Y-97520426D01*
X100484731Y-97652732D01*
X100564292Y-97771804D01*
X100665554Y-97873066D01*
X100784626Y-97952627D01*
X100916932Y-98007430D01*
X101057387Y-98035368D01*
X101200593Y-98035368D01*
X101341048Y-98007430D01*
X101473354Y-97952627D01*
X101592426Y-97873066D01*
X101638701Y-97826791D01*
X101635000Y-97845397D01*
X101635000Y-97988603D01*
X101662938Y-98129058D01*
X101717741Y-98261364D01*
X101797302Y-98380436D01*
X101898564Y-98481698D01*
X102017636Y-98561259D01*
X102149942Y-98616062D01*
X102290397Y-98644000D01*
X102433603Y-98644000D01*
X102574058Y-98616062D01*
X102706364Y-98561259D01*
X102825436Y-98481698D01*
X102926698Y-98380436D01*
X103006259Y-98261364D01*
X103024688Y-98216873D01*
X103024688Y-98295614D01*
X103052626Y-98436069D01*
X103107429Y-98568375D01*
X103186990Y-98687447D01*
X103288252Y-98788709D01*
X103407324Y-98868270D01*
X103539630Y-98923073D01*
X103680085Y-98951011D01*
X103823291Y-98951011D01*
X103836781Y-98948328D01*
X103847776Y-98959323D01*
X103847781Y-98959327D01*
X104268053Y-99379599D01*
X102654110Y-99379599D01*
X102631905Y-99377412D01*
X102543297Y-99386139D01*
X102468397Y-99408860D01*
X102458095Y-99411985D01*
X102379572Y-99453956D01*
X102310746Y-99510440D01*
X102296586Y-99527694D01*
X97646596Y-104177685D01*
X97633105Y-104175002D01*
X97489899Y-104175002D01*
X97349444Y-104202940D01*
X97217138Y-104257743D01*
X97098066Y-104337304D01*
X96996804Y-104438566D01*
X96917243Y-104557638D01*
X96862440Y-104689944D01*
X96834502Y-104830399D01*
X96834502Y-104973605D01*
X96862440Y-105114060D01*
X96917243Y-105246366D01*
X96996804Y-105365438D01*
X97098066Y-105466700D01*
X97217138Y-105546261D01*
X97349444Y-105601064D01*
X97489899Y-105629002D01*
X97633105Y-105629002D01*
X97773560Y-105601064D01*
X97905866Y-105546261D01*
X98024938Y-105466700D01*
X98126200Y-105365438D01*
X98205761Y-105246366D01*
X98260564Y-105114060D01*
X98288502Y-104973605D01*
X98288502Y-104830399D01*
X98285819Y-104816908D01*
X102819129Y-100283599D01*
X103223531Y-100283599D01*
X103186938Y-100371942D01*
X103159000Y-100512397D01*
X103159000Y-100655603D01*
X103161683Y-100669093D01*
X99518100Y-104312677D01*
X99500841Y-104326841D01*
X99444357Y-104395668D01*
X99428599Y-104425150D01*
X99402386Y-104474191D01*
X99376540Y-104559393D01*
X99367813Y-104648000D01*
X99370000Y-104670205D01*
X99370001Y-106150173D01*
X99285892Y-106185012D01*
X99100520Y-106308874D01*
X98942874Y-106466520D01*
X98819012Y-106651892D01*
X98733695Y-106857866D01*
X98690200Y-107076527D01*
X98690200Y-107299473D01*
X98733695Y-107518134D01*
X98819012Y-107724108D01*
X98942874Y-107909480D01*
X99100520Y-108067126D01*
X99285892Y-108190988D01*
X99491866Y-108276305D01*
X99710527Y-108319800D01*
X99933473Y-108319800D01*
X100152134Y-108276305D01*
X100358108Y-108190988D01*
X100543480Y-108067126D01*
X100701126Y-107909480D01*
X100824988Y-107724108D01*
X100910305Y-107518134D01*
X100936149Y-107388208D01*
X100958429Y-107538887D01*
X101053853Y-107805968D01*
X101121411Y-107932360D01*
X101365870Y-108004525D01*
X102182395Y-107188000D01*
X102168253Y-107173858D01*
X102347858Y-106994253D01*
X102362000Y-107008395D01*
X102376143Y-106994253D01*
X102555748Y-107173858D01*
X102541605Y-107188000D01*
X103358130Y-108004525D01*
X103602589Y-107932360D01*
X103723969Y-107676030D01*
X103791545Y-107406780D01*
X103813695Y-107518134D01*
X103899012Y-107724108D01*
X104022874Y-107909480D01*
X104180520Y-108067126D01*
X104365892Y-108190988D01*
X104571866Y-108276305D01*
X104790527Y-108319800D01*
X105013473Y-108319800D01*
X105232134Y-108276305D01*
X105438108Y-108190988D01*
X105623480Y-108067126D01*
X105781126Y-107909480D01*
X105904988Y-107724108D01*
X105990305Y-107518134D01*
X106033800Y-107299473D01*
X106033800Y-107076527D01*
X106310200Y-107076527D01*
X106310200Y-107299473D01*
X106353695Y-107518134D01*
X106439012Y-107724108D01*
X106562874Y-107909480D01*
X106720520Y-108067126D01*
X106905892Y-108190988D01*
X107111866Y-108276305D01*
X107330527Y-108319800D01*
X107553473Y-108319800D01*
X107772134Y-108276305D01*
X107978108Y-108190988D01*
X108163480Y-108067126D01*
X108321126Y-107909480D01*
X108444988Y-107724108D01*
X108530305Y-107518134D01*
X108573800Y-107299473D01*
X108573800Y-107076527D01*
X108530305Y-106857866D01*
X108444988Y-106651892D01*
X108321126Y-106466520D01*
X108163480Y-106308874D01*
X107978108Y-106185012D01*
X107772134Y-106099695D01*
X107553473Y-106056200D01*
X107330527Y-106056200D01*
X107111866Y-106099695D01*
X106905892Y-106185012D01*
X106720520Y-106308874D01*
X106562874Y-106466520D01*
X106439012Y-106651892D01*
X106353695Y-106857866D01*
X106310200Y-107076527D01*
X106033800Y-107076527D01*
X105990305Y-106857866D01*
X105904988Y-106651892D01*
X105781126Y-106466520D01*
X105623480Y-106308874D01*
X105438108Y-106185012D01*
X105232134Y-106099695D01*
X105013473Y-106056200D01*
X104790527Y-106056200D01*
X104571866Y-106099695D01*
X104487757Y-106134534D01*
X103586327Y-105233104D01*
X103572163Y-105215845D01*
X103503337Y-105159361D01*
X103424814Y-105117390D01*
X103339611Y-105091544D01*
X103273209Y-105085004D01*
X103251004Y-105082817D01*
X103228799Y-105085004D01*
X102045339Y-105085004D01*
X102037698Y-105073568D01*
X101936436Y-104972306D01*
X101817364Y-104892745D01*
X101685058Y-104837942D01*
X101544603Y-104810004D01*
X101401397Y-104810004D01*
X101260942Y-104837942D01*
X101128636Y-104892745D01*
X101009564Y-104972306D01*
X100908302Y-105073568D01*
X100828741Y-105192640D01*
X100773938Y-105324946D01*
X100746000Y-105465401D01*
X100746000Y-105608607D01*
X100773938Y-105749062D01*
X100828741Y-105881368D01*
X100908302Y-106000440D01*
X101009564Y-106101702D01*
X101128636Y-106181263D01*
X101260942Y-106236066D01*
X101267468Y-106237364D01*
X101249612Y-106255220D01*
X101365868Y-106371476D01*
X101121411Y-106443640D01*
X101000031Y-106699970D01*
X100932455Y-106969220D01*
X100910305Y-106857866D01*
X100824988Y-106651892D01*
X100701126Y-106466520D01*
X100543480Y-106308874D01*
X100358108Y-106185012D01*
X100274000Y-106150173D01*
X100274000Y-104835223D01*
X103800907Y-101308317D01*
X103814397Y-101311000D01*
X103957603Y-101311000D01*
X104098058Y-101283062D01*
X104230364Y-101228259D01*
X104349436Y-101148698D01*
X104450698Y-101047436D01*
X104530259Y-100928364D01*
X104585062Y-100796058D01*
X104608915Y-100676139D01*
X104820681Y-100887905D01*
X104834841Y-100905159D01*
X104903667Y-100961643D01*
X104981777Y-101003393D01*
X104982190Y-101003614D01*
X105067392Y-101029460D01*
X105156000Y-101038187D01*
X105178205Y-101036000D01*
X109508797Y-101036000D01*
X109531002Y-101038187D01*
X109553207Y-101036000D01*
X109619609Y-101029460D01*
X109704812Y-101003614D01*
X109783335Y-100961643D01*
X109852161Y-100905159D01*
X109866325Y-100887900D01*
X110703722Y-100050504D01*
X110720970Y-100036350D01*
X110777454Y-99967524D01*
X110819425Y-99889001D01*
X110845271Y-99803798D01*
X110851811Y-99737396D01*
X110851811Y-99737395D01*
X110853998Y-99715192D01*
X110851811Y-99692989D01*
X110851811Y-98873092D01*
X111181000Y-99202281D01*
X111181001Y-101450785D01*
X111178813Y-101473000D01*
X111187540Y-101561607D01*
X111213386Y-101646809D01*
X111213387Y-101646810D01*
X111255358Y-101725333D01*
X111311842Y-101794159D01*
X111329096Y-101808319D01*
X112428023Y-102907248D01*
X112425340Y-102920737D01*
X112425340Y-103063943D01*
X112453278Y-103204398D01*
X112508081Y-103336704D01*
X112587642Y-103455776D01*
X112688904Y-103557038D01*
X112807976Y-103636599D01*
X112940282Y-103691402D01*
X113080737Y-103719340D01*
X113223943Y-103719340D01*
X113364398Y-103691402D01*
X113496704Y-103636599D01*
X113615776Y-103557038D01*
X113717038Y-103455776D01*
X113796599Y-103336704D01*
X113851402Y-103204398D01*
X113879340Y-103063943D01*
X113879340Y-102920737D01*
X113851402Y-102780282D01*
X113796599Y-102647976D01*
X113717038Y-102528904D01*
X113615776Y-102427642D01*
X113611413Y-102424727D01*
X113620436Y-102418698D01*
X113721698Y-102317436D01*
X113801259Y-102198364D01*
X113856062Y-102066058D01*
X113884000Y-101925603D01*
X113884000Y-101782397D01*
X113856062Y-101641942D01*
X113801259Y-101509636D01*
X113721698Y-101390564D01*
X113620436Y-101289302D01*
X113609000Y-101281661D01*
X113609000Y-99924849D01*
X113611187Y-99902646D01*
X113609000Y-99880442D01*
X113602460Y-99814040D01*
X113576614Y-99728837D01*
X113534643Y-99650314D01*
X113478159Y-99581488D01*
X113460911Y-99567333D01*
X107823676Y-93930100D01*
X107809512Y-93912841D01*
X107740686Y-93856357D01*
X107662163Y-93814386D01*
X107576960Y-93788540D01*
X107510558Y-93782000D01*
X107488353Y-93779813D01*
X107466148Y-93782000D01*
X105855321Y-93782000D01*
X105847680Y-93770564D01*
X105746418Y-93669302D01*
X105627346Y-93589741D01*
X105566067Y-93564358D01*
X105619436Y-93528698D01*
X105720698Y-93427436D01*
X105800259Y-93308364D01*
X105855062Y-93176058D01*
X105883000Y-93035603D01*
X105883000Y-92892397D01*
X105855062Y-92751942D01*
X105800259Y-92619636D01*
X105720698Y-92500564D01*
X105619436Y-92399302D01*
X105500364Y-92319741D01*
X105368058Y-92264938D01*
X105227603Y-92237000D01*
X105084397Y-92237000D01*
X104943942Y-92264938D01*
X104811636Y-92319741D01*
X104692564Y-92399302D01*
X104591302Y-92500564D01*
X104511741Y-92619636D01*
X104456938Y-92751942D01*
X104429000Y-92892397D01*
X104429000Y-93032263D01*
X104020429Y-93440835D01*
X103999232Y-93458231D01*
X103981835Y-93479429D01*
X103981833Y-93479431D01*
X103929800Y-93542832D01*
X103878209Y-93639353D01*
X103846440Y-93744083D01*
X103835713Y-93853000D01*
X103838401Y-93880292D01*
X103838400Y-95222717D01*
X103835713Y-95250000D01*
X103838400Y-95277283D01*
X103838400Y-95277292D01*
X103846439Y-95358916D01*
X103878209Y-95463647D01*
X103929800Y-95560168D01*
X103999231Y-95644769D01*
X104020434Y-95662170D01*
X104098203Y-95739939D01*
X103986785Y-95762101D01*
X103854479Y-95816904D01*
X103814010Y-95843944D01*
X103814010Y-95813399D01*
X103786072Y-95672944D01*
X103731269Y-95540638D01*
X103651708Y-95421566D01*
X103550446Y-95320304D01*
X103539010Y-95312663D01*
X103539010Y-90267202D01*
X103927910Y-89878303D01*
X103941399Y-89880986D01*
X104084605Y-89880986D01*
X104225060Y-89853048D01*
X104357366Y-89798245D01*
X104476438Y-89718684D01*
X104577700Y-89617422D01*
X104657261Y-89498350D01*
X104712064Y-89366044D01*
X104714844Y-89352068D01*
X104761991Y-89399215D01*
X104776151Y-89416469D01*
X104844977Y-89472953D01*
X104850994Y-89476169D01*
X104906170Y-89558746D01*
X105007432Y-89660008D01*
X105126504Y-89739569D01*
X105258810Y-89794372D01*
X105399265Y-89822310D01*
X105542471Y-89822310D01*
X105682926Y-89794372D01*
X105743871Y-89769128D01*
X105743871Y-90171655D01*
X105741683Y-90193870D01*
X105750410Y-90282477D01*
X105776256Y-90367679D01*
X105776257Y-90367680D01*
X105818228Y-90446203D01*
X105874712Y-90515029D01*
X105891966Y-90529189D01*
X113975000Y-98612224D01*
X113975001Y-103444774D01*
X112842777Y-104577000D01*
X112163204Y-104577000D01*
X112140999Y-104574813D01*
X112052392Y-104583540D01*
X112032562Y-104589556D01*
X111967190Y-104609386D01*
X111888667Y-104651357D01*
X111819841Y-104707841D01*
X111805685Y-104725090D01*
X110482893Y-106047884D01*
X110482888Y-106047888D01*
X110396242Y-106134534D01*
X110312134Y-106099695D01*
X110093473Y-106056200D01*
X109870527Y-106056200D01*
X109651866Y-106099695D01*
X109445892Y-106185012D01*
X109260520Y-106308874D01*
X109102874Y-106466520D01*
X108979012Y-106651892D01*
X108893695Y-106857866D01*
X108850200Y-107076527D01*
X108850200Y-107299473D01*
X108893695Y-107518134D01*
X108979012Y-107724108D01*
X109102874Y-107909480D01*
X109260520Y-108067126D01*
X109445892Y-108190988D01*
X109651866Y-108276305D01*
X109870527Y-108319800D01*
X110093473Y-108319800D01*
X110312134Y-108276305D01*
X110518108Y-108190988D01*
X110703480Y-108067126D01*
X110861126Y-107909480D01*
X110984988Y-107724108D01*
X111070305Y-107518134D01*
X111113800Y-107299473D01*
X111113800Y-107076527D01*
X111070305Y-106857866D01*
X111035466Y-106773758D01*
X111122112Y-106687112D01*
X111122116Y-106687107D01*
X112328225Y-105481000D01*
X112954777Y-105481000D01*
X112371892Y-106063885D01*
X112191866Y-106099695D01*
X111985892Y-106185012D01*
X111800520Y-106308874D01*
X111642874Y-106466520D01*
X111519012Y-106651892D01*
X111433695Y-106857866D01*
X111390200Y-107076527D01*
X111390200Y-107299473D01*
X111433695Y-107518134D01*
X111519012Y-107724108D01*
X111642874Y-107909480D01*
X111800520Y-108067126D01*
X111985892Y-108190988D01*
X112191866Y-108276305D01*
X112410527Y-108319800D01*
X112633473Y-108319800D01*
X112852134Y-108276305D01*
X113058108Y-108190988D01*
X113243480Y-108067126D01*
X113401126Y-107909480D01*
X113524988Y-107724108D01*
X113610305Y-107518134D01*
X113653800Y-107299473D01*
X113653800Y-107076527D01*
X113930200Y-107076527D01*
X113930200Y-107299473D01*
X113973695Y-107518134D01*
X114059012Y-107724108D01*
X114182874Y-107909480D01*
X114340520Y-108067126D01*
X114525892Y-108190988D01*
X114731866Y-108276305D01*
X114950527Y-108319800D01*
X115173473Y-108319800D01*
X115392134Y-108276305D01*
X115598108Y-108190988D01*
X115783480Y-108067126D01*
X115941126Y-107909480D01*
X116064988Y-107724108D01*
X116150305Y-107518134D01*
X116193800Y-107299473D01*
X116193800Y-107076527D01*
X116150305Y-106857866D01*
X116064988Y-106651892D01*
X115941126Y-106466520D01*
X115783480Y-106308874D01*
X115598108Y-106185012D01*
X115392134Y-106099695D01*
X115173473Y-106056200D01*
X114950527Y-106056200D01*
X114731866Y-106099695D01*
X114525892Y-106185012D01*
X114340520Y-106308874D01*
X114182874Y-106466520D01*
X114059012Y-106651892D01*
X113973695Y-106857866D01*
X113930200Y-107076527D01*
X113653800Y-107076527D01*
X113610305Y-106857866D01*
X113524988Y-106651892D01*
X113401126Y-106466520D01*
X113324415Y-106389809D01*
X115609085Y-104105139D01*
X115632938Y-104225058D01*
X115687741Y-104357364D01*
X115767302Y-104476436D01*
X115868564Y-104577698D01*
X115987636Y-104657259D01*
X116119942Y-104712062D01*
X116260397Y-104740000D01*
X116403603Y-104740000D01*
X116417093Y-104737317D01*
X116428088Y-104748312D01*
X116428093Y-104748316D01*
X117150001Y-105470225D01*
X117150000Y-105813204D01*
X117150001Y-105813211D01*
X117150001Y-106150173D01*
X117065892Y-106185012D01*
X116880520Y-106308874D01*
X116722874Y-106466520D01*
X116599012Y-106651892D01*
X116513695Y-106857866D01*
X116470200Y-107076527D01*
X116470200Y-107299473D01*
X116513695Y-107518134D01*
X116599012Y-107724108D01*
X116722874Y-107909480D01*
X116880520Y-108067126D01*
X117065892Y-108190988D01*
X117271866Y-108276305D01*
X117490527Y-108319800D01*
X117713473Y-108319800D01*
X117932134Y-108276305D01*
X118138108Y-108190988D01*
X118323480Y-108067126D01*
X118481126Y-107909480D01*
X118604988Y-107724108D01*
X118690305Y-107518134D01*
X118733800Y-107299473D01*
X118733800Y-107076527D01*
X118690305Y-106857866D01*
X118604988Y-106651892D01*
X118481126Y-106466520D01*
X118323480Y-106308874D01*
X118138108Y-106185012D01*
X118054000Y-106150173D01*
X118054000Y-105470223D01*
X119429912Y-104094313D01*
X119447159Y-104080159D01*
X119503643Y-104011333D01*
X119545614Y-103932810D01*
X119571460Y-103847607D01*
X119578000Y-103781205D01*
X119578000Y-103781204D01*
X119580187Y-103759001D01*
X119578000Y-103736798D01*
X119578000Y-101156339D01*
X119589436Y-101148698D01*
X119690001Y-101048133D01*
X119690000Y-106150173D01*
X119605892Y-106185012D01*
X119420520Y-106308874D01*
X119262874Y-106466520D01*
X119139012Y-106651892D01*
X119053695Y-106857866D01*
X119010200Y-107076527D01*
X119010200Y-107299473D01*
X119053695Y-107518134D01*
X119139012Y-107724108D01*
X119262874Y-107909480D01*
X119420520Y-108067126D01*
X119605892Y-108190988D01*
X119811866Y-108276305D01*
X120030527Y-108319800D01*
X120253473Y-108319800D01*
X120472134Y-108276305D01*
X120678108Y-108190988D01*
X120863480Y-108067126D01*
X121021126Y-107909480D01*
X121144988Y-107724108D01*
X121230305Y-107518134D01*
X121273800Y-107299473D01*
X121273800Y-107076527D01*
X121230305Y-106857866D01*
X121144988Y-106651892D01*
X121021126Y-106466520D01*
X120863480Y-106308874D01*
X120678108Y-106185012D01*
X120594000Y-106150173D01*
X120594000Y-98870339D01*
X120605436Y-98862698D01*
X120706698Y-98761436D01*
X120786259Y-98642364D01*
X120841062Y-98510058D01*
X120869000Y-98369603D01*
X120869000Y-98226397D01*
X120847601Y-98118816D01*
X122230001Y-99501217D01*
X122230000Y-106150173D01*
X122145892Y-106185012D01*
X121960520Y-106308874D01*
X121802874Y-106466520D01*
X121679012Y-106651892D01*
X121593695Y-106857866D01*
X121550200Y-107076527D01*
X121550200Y-107299473D01*
X121593695Y-107518134D01*
X121679012Y-107724108D01*
X121802874Y-107909480D01*
X121960520Y-108067126D01*
X122145892Y-108190988D01*
X122351866Y-108276305D01*
X122570527Y-108319800D01*
X122793473Y-108319800D01*
X123012134Y-108276305D01*
X123218108Y-108190988D01*
X123403480Y-108067126D01*
X123561126Y-107909480D01*
X123684988Y-107724108D01*
X123770305Y-107518134D01*
X123813800Y-107299473D01*
X123813800Y-107076527D01*
X123770305Y-106857866D01*
X123684988Y-106651892D01*
X123561126Y-106466520D01*
X123403480Y-106308874D01*
X123218108Y-106185012D01*
X123134000Y-106150173D01*
X123134000Y-99336197D01*
X123136187Y-99313992D01*
X123127460Y-99225384D01*
X123101614Y-99140182D01*
X123092184Y-99122540D01*
X123059643Y-99061659D01*
X123003159Y-98992833D01*
X122985905Y-98978673D01*
X121374325Y-97367093D01*
X121377008Y-97353603D01*
X121377008Y-97210397D01*
X121355615Y-97102846D01*
X124770001Y-100517234D01*
X124770000Y-106150173D01*
X124685892Y-106185012D01*
X124500520Y-106308874D01*
X124342874Y-106466520D01*
X124219012Y-106651892D01*
X124133695Y-106857866D01*
X124090200Y-107076527D01*
X124090200Y-107299473D01*
X124133695Y-107518134D01*
X124219012Y-107724108D01*
X124342874Y-107909480D01*
X124500520Y-108067126D01*
X124685892Y-108190988D01*
X124891866Y-108276305D01*
X125110527Y-108319800D01*
X125333473Y-108319800D01*
X125552134Y-108276305D01*
X125758108Y-108190988D01*
X125943480Y-108067126D01*
X126101126Y-107909480D01*
X126224988Y-107724108D01*
X126310305Y-107518134D01*
X126353800Y-107299473D01*
X126353800Y-107076527D01*
X126310305Y-106857866D01*
X126224988Y-106651892D01*
X126101126Y-106466520D01*
X125943480Y-106308874D01*
X125758108Y-106185012D01*
X125674000Y-106150173D01*
X125674000Y-105740317D01*
X125680100Y-105745323D01*
X126708534Y-106773757D01*
X126673695Y-106857866D01*
X126630200Y-107076527D01*
X126630200Y-107299473D01*
X126673695Y-107518134D01*
X126759012Y-107724108D01*
X126882874Y-107909480D01*
X127040520Y-108067126D01*
X127225892Y-108190988D01*
X127431866Y-108276305D01*
X127650527Y-108319800D01*
X127873473Y-108319800D01*
X128092134Y-108276305D01*
X128298108Y-108190988D01*
X128483480Y-108067126D01*
X128641126Y-107909480D01*
X128764988Y-107724108D01*
X128850305Y-107518134D01*
X128893800Y-107299473D01*
X128893800Y-107076527D01*
X129170200Y-107076527D01*
X129170200Y-107299473D01*
X129213695Y-107518134D01*
X129299012Y-107724108D01*
X129422874Y-107909480D01*
X129580520Y-108067126D01*
X129765892Y-108190988D01*
X129971866Y-108276305D01*
X130190527Y-108319800D01*
X130413473Y-108319800D01*
X130632134Y-108276305D01*
X130838108Y-108190988D01*
X131023480Y-108067126D01*
X131181126Y-107909480D01*
X131304988Y-107724108D01*
X131390305Y-107518134D01*
X131416149Y-107388208D01*
X131438429Y-107538887D01*
X131533853Y-107805968D01*
X131601411Y-107932360D01*
X131845870Y-108004525D01*
X132662395Y-107188000D01*
X133021605Y-107188000D01*
X133838130Y-108004525D01*
X134082589Y-107932360D01*
X134203969Y-107676030D01*
X134273009Y-107400946D01*
X134287056Y-107117678D01*
X134252440Y-106883565D01*
X136882040Y-106883565D01*
X136949020Y-107123656D01*
X137198048Y-107240756D01*
X137465135Y-107307023D01*
X137740017Y-107319910D01*
X138012133Y-107278922D01*
X138271023Y-107185636D01*
X138386980Y-107123656D01*
X138453960Y-106883565D01*
X137668000Y-106097605D01*
X136882040Y-106883565D01*
X134252440Y-106883565D01*
X134245571Y-106837113D01*
X134150147Y-106570032D01*
X134082589Y-106443640D01*
X133838130Y-106371475D01*
X133021605Y-107188000D01*
X132662395Y-107188000D01*
X131845870Y-106371475D01*
X131601411Y-106443640D01*
X131480031Y-106699970D01*
X131412455Y-106969220D01*
X131390305Y-106857866D01*
X131304988Y-106651892D01*
X131181126Y-106466520D01*
X131023480Y-106308874D01*
X130848372Y-106191870D01*
X132025475Y-106191870D01*
X132842000Y-107008395D01*
X133658525Y-106191870D01*
X133598938Y-105990017D01*
X136266090Y-105990017D01*
X136307078Y-106262133D01*
X136400364Y-106521023D01*
X136462344Y-106636980D01*
X136702435Y-106703960D01*
X137488395Y-105918000D01*
X137847605Y-105918000D01*
X138633565Y-106703960D01*
X138873656Y-106636980D01*
X138990756Y-106387952D01*
X139057023Y-106120865D01*
X139069910Y-105845983D01*
X139028922Y-105573867D01*
X138935636Y-105314977D01*
X138873656Y-105199020D01*
X138633565Y-105132040D01*
X137847605Y-105918000D01*
X137488395Y-105918000D01*
X136702435Y-105132040D01*
X136462344Y-105199020D01*
X136345244Y-105448048D01*
X136278977Y-105715135D01*
X136266090Y-105990017D01*
X133598938Y-105990017D01*
X133586360Y-105947411D01*
X133330030Y-105826031D01*
X133054946Y-105756991D01*
X132771678Y-105742944D01*
X132491113Y-105784429D01*
X132224032Y-105879853D01*
X132097640Y-105947411D01*
X132025475Y-106191870D01*
X130848372Y-106191870D01*
X130838108Y-106185012D01*
X130632134Y-106099695D01*
X130413473Y-106056200D01*
X130190527Y-106056200D01*
X129971866Y-106099695D01*
X129765892Y-106185012D01*
X129580520Y-106308874D01*
X129422874Y-106466520D01*
X129299012Y-106651892D01*
X129213695Y-106857866D01*
X129170200Y-107076527D01*
X128893800Y-107076527D01*
X128850305Y-106857866D01*
X128764988Y-106651892D01*
X128641126Y-106466520D01*
X128483480Y-106308874D01*
X128298108Y-106185012D01*
X128092134Y-106099695D01*
X127873473Y-106056200D01*
X127650527Y-106056200D01*
X127541155Y-106077956D01*
X127598364Y-106054259D01*
X127717436Y-105974698D01*
X127818698Y-105873436D01*
X127898259Y-105754364D01*
X127953062Y-105622058D01*
X127981000Y-105481603D01*
X127981000Y-105338397D01*
X127953062Y-105197942D01*
X127898259Y-105065636D01*
X127818698Y-104946564D01*
X127717436Y-104845302D01*
X127706000Y-104837661D01*
X127706000Y-103816150D01*
X127861651Y-104191925D01*
X128225750Y-104736839D01*
X128689161Y-105200250D01*
X129234075Y-105564349D01*
X129839550Y-105815145D01*
X130482319Y-105943000D01*
X131137681Y-105943000D01*
X131780450Y-105815145D01*
X132385925Y-105564349D01*
X132930839Y-105200250D01*
X133178654Y-104952435D01*
X136882040Y-104952435D01*
X137668000Y-105738395D01*
X138453960Y-104952435D01*
X138386980Y-104712344D01*
X138137952Y-104595244D01*
X137870865Y-104528977D01*
X137595983Y-104516090D01*
X137323867Y-104557078D01*
X137064977Y-104650364D01*
X136949020Y-104712344D01*
X136882040Y-104952435D01*
X133178654Y-104952435D01*
X133394250Y-104736839D01*
X133758349Y-104191925D01*
X134009145Y-103586450D01*
X134137000Y-102943681D01*
X134137000Y-102288319D01*
X134009145Y-101645550D01*
X133758349Y-101040075D01*
X133394250Y-100495161D01*
X132930839Y-100031750D01*
X132385925Y-99667651D01*
X131780450Y-99416855D01*
X131137681Y-99289000D01*
X130482319Y-99289000D01*
X129839550Y-99416855D01*
X129234075Y-99667651D01*
X128689161Y-100031750D01*
X128225750Y-100495161D01*
X127861651Y-101040075D01*
X127706000Y-101415850D01*
X127706000Y-99124339D01*
X127717436Y-99116698D01*
X127818698Y-99015436D01*
X127898259Y-98896364D01*
X127953062Y-98764058D01*
X127981000Y-98623603D01*
X127981000Y-98480397D01*
X127953062Y-98339942D01*
X127898259Y-98207636D01*
X127818698Y-98088564D01*
X127717436Y-97987302D01*
X127598364Y-97907741D01*
X127466058Y-97852938D01*
X127325603Y-97825000D01*
X127182397Y-97825000D01*
X127041942Y-97852938D01*
X126909636Y-97907741D01*
X126790564Y-97987302D01*
X126689302Y-98088564D01*
X126609741Y-98207636D01*
X126554938Y-98339942D01*
X126527000Y-98480397D01*
X126527000Y-98623603D01*
X126554938Y-98764058D01*
X126609741Y-98896364D01*
X126689302Y-99015436D01*
X126790564Y-99116698D01*
X126802001Y-99124340D01*
X126802000Y-104837661D01*
X126790564Y-104845302D01*
X126689302Y-104946564D01*
X126609741Y-105065636D01*
X126554938Y-105197942D01*
X126531085Y-105317862D01*
X126436000Y-105222777D01*
X126436000Y-103950339D01*
X126447436Y-103942698D01*
X126548698Y-103841436D01*
X126628259Y-103722364D01*
X126683062Y-103590058D01*
X126711000Y-103449603D01*
X126711000Y-103306397D01*
X126683062Y-103165942D01*
X126628259Y-103033636D01*
X126548698Y-102914564D01*
X126447436Y-102813302D01*
X126328364Y-102733741D01*
X126196058Y-102678938D01*
X126055603Y-102651000D01*
X125912397Y-102651000D01*
X125771942Y-102678938D01*
X125674000Y-102719507D01*
X125674000Y-100352210D01*
X125676187Y-100330007D01*
X125674000Y-100307803D01*
X125667460Y-100241401D01*
X125641614Y-100156198D01*
X125599643Y-100077675D01*
X125543159Y-100008849D01*
X125525911Y-99994694D01*
X124788818Y-99257601D01*
X124896397Y-99279000D01*
X125039603Y-99279000D01*
X125180058Y-99251062D01*
X125312364Y-99196259D01*
X125431436Y-99116698D01*
X125532698Y-99015436D01*
X125612259Y-98896364D01*
X125667062Y-98764058D01*
X125695000Y-98623603D01*
X125695000Y-98610736D01*
X127341595Y-96964142D01*
X127341599Y-96964137D01*
X128135571Y-96170166D01*
X128156769Y-96152769D01*
X128175419Y-96130045D01*
X128226200Y-96068168D01*
X128277791Y-95971648D01*
X128309561Y-95866917D01*
X128312390Y-95838191D01*
X128317600Y-95785293D01*
X128317600Y-95785285D01*
X128320287Y-95758000D01*
X128317600Y-95730715D01*
X128317600Y-91150534D01*
X128326698Y-91141436D01*
X128406259Y-91022364D01*
X128461062Y-90890058D01*
X128489000Y-90749603D01*
X128489000Y-90606397D01*
X128461062Y-90465942D01*
X128406259Y-90333636D01*
X128326698Y-90214564D01*
X128225436Y-90113302D01*
X128106364Y-90033741D01*
X127974058Y-89978938D01*
X127833603Y-89951000D01*
X127690397Y-89951000D01*
X127549942Y-89978938D01*
X127417636Y-90033741D01*
X127298564Y-90113302D01*
X127197302Y-90214564D01*
X127117741Y-90333636D01*
X127062938Y-90465942D01*
X127035000Y-90606397D01*
X127035000Y-90749603D01*
X127062938Y-90890058D01*
X127117741Y-91022364D01*
X127197302Y-91141436D01*
X127206400Y-91150534D01*
X127206401Y-95527862D01*
X126555863Y-96178401D01*
X126555858Y-96178405D01*
X124909264Y-97825000D01*
X124896397Y-97825000D01*
X124755942Y-97852938D01*
X124623636Y-97907741D01*
X124504564Y-97987302D01*
X124403302Y-98088564D01*
X124323741Y-98207636D01*
X124268938Y-98339942D01*
X124241000Y-98480397D01*
X124241000Y-98623603D01*
X124262399Y-98731182D01*
X121639309Y-96108093D01*
X121628309Y-96097093D01*
X121630992Y-96083603D01*
X121630992Y-95940397D01*
X121628309Y-95926907D01*
X121639304Y-95915912D01*
X121639309Y-95915906D01*
X125107906Y-92447310D01*
X125125160Y-92433150D01*
X125181644Y-92364324D01*
X125223615Y-92285801D01*
X125249461Y-92200598D01*
X125256001Y-92134196D01*
X125258188Y-92111991D01*
X125256001Y-92089786D01*
X125256001Y-88574203D01*
X125258188Y-88551998D01*
X125249461Y-88463390D01*
X125223615Y-88378188D01*
X125204208Y-88341880D01*
X125181644Y-88299665D01*
X125125160Y-88230839D01*
X125107907Y-88216680D01*
X124816183Y-87924956D01*
X124891866Y-87956305D01*
X125110527Y-87999800D01*
X125333473Y-87999800D01*
X125552134Y-87956305D01*
X125758108Y-87870988D01*
X125923819Y-87760263D01*
X125923819Y-93253010D01*
X125912397Y-93253010D01*
X125771942Y-93280948D01*
X125639636Y-93335751D01*
X125520564Y-93415312D01*
X125419302Y-93516574D01*
X125339741Y-93635646D01*
X125284938Y-93767952D01*
X125257000Y-93908407D01*
X125257000Y-94051613D01*
X125284938Y-94192068D01*
X125339741Y-94324374D01*
X125419302Y-94443446D01*
X125520564Y-94544708D01*
X125639636Y-94624269D01*
X125771942Y-94679072D01*
X125912397Y-94707010D01*
X126055603Y-94707010D01*
X126196058Y-94679072D01*
X126328364Y-94624269D01*
X126447436Y-94544708D01*
X126548698Y-94443446D01*
X126628259Y-94324374D01*
X126683062Y-94192068D01*
X126711000Y-94051613D01*
X126711000Y-93908407D01*
X126708415Y-93895413D01*
X126753461Y-93840525D01*
X126795432Y-93762002D01*
X126816970Y-93691000D01*
X126821278Y-93676800D01*
X126830005Y-93588193D01*
X126827818Y-93565988D01*
X126827818Y-87507083D01*
X126882874Y-87589480D01*
X127040520Y-87747126D01*
X127225892Y-87870988D01*
X127431866Y-87956305D01*
X127650527Y-87999800D01*
X127873473Y-87999800D01*
X128092134Y-87956305D01*
X128298108Y-87870988D01*
X128483480Y-87747126D01*
X128580000Y-87650606D01*
X128580001Y-91925785D01*
X128577813Y-91948000D01*
X128586540Y-92036607D01*
X128612386Y-92121809D01*
X128612387Y-92121810D01*
X128654358Y-92200333D01*
X128710842Y-92269159D01*
X128728096Y-92283319D01*
X130339683Y-93894907D01*
X130337000Y-93908397D01*
X130337000Y-94051603D01*
X130364938Y-94192058D01*
X130419741Y-94324364D01*
X130499302Y-94443436D01*
X130600564Y-94544698D01*
X130719636Y-94624259D01*
X130851942Y-94679062D01*
X130992397Y-94707000D01*
X131135603Y-94707000D01*
X131276058Y-94679062D01*
X131408364Y-94624259D01*
X131527436Y-94544698D01*
X131628698Y-94443436D01*
X131708259Y-94324364D01*
X131763062Y-94192058D01*
X131791000Y-94051603D01*
X131791000Y-93908397D01*
X131763062Y-93767942D01*
X131708259Y-93635636D01*
X131628698Y-93516564D01*
X131527436Y-93415302D01*
X131408364Y-93335741D01*
X131276058Y-93280938D01*
X131135603Y-93253000D01*
X130992397Y-93253000D01*
X130978907Y-93255683D01*
X129484000Y-91760777D01*
X129484000Y-87650606D01*
X129580520Y-87747126D01*
X129765892Y-87870988D01*
X129971866Y-87956305D01*
X130190527Y-87999800D01*
X130413473Y-87999800D01*
X130632134Y-87956305D01*
X130838108Y-87870988D01*
X131023480Y-87747126D01*
X131115003Y-87655603D01*
X131129022Y-87681830D01*
X131195278Y-87762564D01*
X131215514Y-87779171D01*
X132946833Y-89510491D01*
X132963436Y-89530722D01*
X133044170Y-89596978D01*
X133136278Y-89646211D01*
X133236221Y-89676528D01*
X133314115Y-89684200D01*
X133314117Y-89684200D01*
X133340157Y-89686765D01*
X133366197Y-89684200D01*
X134839666Y-89684200D01*
X134817302Y-89706564D01*
X134737741Y-89825636D01*
X134682938Y-89957942D01*
X134655000Y-90098397D01*
X134655000Y-90241603D01*
X134682938Y-90382058D01*
X134737741Y-90514364D01*
X134817302Y-90633436D01*
X134918564Y-90734698D01*
X134930000Y-90742339D01*
X134930000Y-90757889D01*
X134930001Y-90757899D01*
X134930000Y-101069795D01*
X134927813Y-101092000D01*
X134936540Y-101180607D01*
X134955368Y-101242675D01*
X134962386Y-101265809D01*
X135004357Y-101344332D01*
X135060841Y-101413159D01*
X135078100Y-101427323D01*
X136647291Y-102996516D01*
X136620850Y-103060350D01*
X136579000Y-103270743D01*
X136579000Y-103485257D01*
X136620850Y-103695650D01*
X136702941Y-103893835D01*
X136822119Y-104072197D01*
X136973803Y-104223881D01*
X137152165Y-104343059D01*
X137350350Y-104425150D01*
X137560743Y-104467000D01*
X137775257Y-104467000D01*
X137985650Y-104425150D01*
X138183835Y-104343059D01*
X138362197Y-104223881D01*
X138513881Y-104072197D01*
X138633059Y-103893835D01*
X138715150Y-103695650D01*
X138757000Y-103485257D01*
X138757000Y-103270743D01*
X138715150Y-103060350D01*
X138633059Y-102862165D01*
X138513881Y-102683803D01*
X138362197Y-102532119D01*
X138183835Y-102412941D01*
X137985650Y-102330850D01*
X137775257Y-102289000D01*
X137560743Y-102289000D01*
X137350350Y-102330850D01*
X137286516Y-102357291D01*
X136994059Y-102064834D01*
X137198048Y-102160756D01*
X137465135Y-102227023D01*
X137740017Y-102239910D01*
X138012133Y-102198922D01*
X138271023Y-102105636D01*
X138386980Y-102043656D01*
X138453960Y-101803565D01*
X137668000Y-101017605D01*
X137653858Y-101031748D01*
X137474253Y-100852143D01*
X137488395Y-100838000D01*
X137847605Y-100838000D01*
X138633565Y-101623960D01*
X138873656Y-101556980D01*
X138990756Y-101307952D01*
X139057023Y-101040865D01*
X139069910Y-100765983D01*
X139028922Y-100493867D01*
X138935636Y-100234977D01*
X138873656Y-100119020D01*
X138633565Y-100052040D01*
X137847605Y-100838000D01*
X137488395Y-100838000D01*
X136702435Y-100052040D01*
X136462344Y-100119020D01*
X136345244Y-100368048D01*
X136278977Y-100635135D01*
X136266090Y-100910017D01*
X136307078Y-101182133D01*
X136400364Y-101441023D01*
X136434947Y-101505723D01*
X135834000Y-100904777D01*
X135834000Y-99872435D01*
X136882040Y-99872435D01*
X137668000Y-100658395D01*
X138453960Y-99872435D01*
X138386980Y-99632344D01*
X138137952Y-99515244D01*
X137870865Y-99448977D01*
X137595983Y-99436090D01*
X137323867Y-99477078D01*
X137064977Y-99570364D01*
X136949020Y-99632344D01*
X136882040Y-99872435D01*
X135834000Y-99872435D01*
X135834000Y-98190743D01*
X136579000Y-98190743D01*
X136579000Y-98405257D01*
X136620850Y-98615650D01*
X136702941Y-98813835D01*
X136822119Y-98992197D01*
X136973803Y-99143881D01*
X137152165Y-99263059D01*
X137350350Y-99345150D01*
X137560743Y-99387000D01*
X137775257Y-99387000D01*
X137985650Y-99345150D01*
X138183835Y-99263059D01*
X138362197Y-99143881D01*
X138513881Y-98992197D01*
X138633059Y-98813835D01*
X138715150Y-98615650D01*
X138757000Y-98405257D01*
X138757000Y-98190743D01*
X138715150Y-97980350D01*
X138633059Y-97782165D01*
X138513881Y-97603803D01*
X138362197Y-97452119D01*
X138183835Y-97332941D01*
X137985650Y-97250850D01*
X137775257Y-97209000D01*
X137560743Y-97209000D01*
X137350350Y-97250850D01*
X137152165Y-97332941D01*
X136973803Y-97452119D01*
X136822119Y-97603803D01*
X136702941Y-97782165D01*
X136620850Y-97980350D01*
X136579000Y-98190743D01*
X135834000Y-98190743D01*
X135834000Y-95650743D01*
X136579000Y-95650743D01*
X136579000Y-95865257D01*
X136620850Y-96075650D01*
X136702941Y-96273835D01*
X136822119Y-96452197D01*
X136973803Y-96603881D01*
X137152165Y-96723059D01*
X137350350Y-96805150D01*
X137560743Y-96847000D01*
X137775257Y-96847000D01*
X137985650Y-96805150D01*
X138183835Y-96723059D01*
X138362197Y-96603881D01*
X138513881Y-96452197D01*
X138633059Y-96273835D01*
X138715150Y-96075650D01*
X138757000Y-95865257D01*
X138757000Y-95650743D01*
X138715150Y-95440350D01*
X138633059Y-95242165D01*
X138513881Y-95063803D01*
X138362197Y-94912119D01*
X138183835Y-94792941D01*
X137985650Y-94710850D01*
X137775257Y-94669000D01*
X137560743Y-94669000D01*
X137350350Y-94710850D01*
X137152165Y-94792941D01*
X136973803Y-94912119D01*
X136822119Y-95063803D01*
X136702941Y-95242165D01*
X136620850Y-95440350D01*
X136579000Y-95650743D01*
X135834000Y-95650743D01*
X135834000Y-93110743D01*
X136579000Y-93110743D01*
X136579000Y-93325257D01*
X136620850Y-93535650D01*
X136702941Y-93733835D01*
X136822119Y-93912197D01*
X136973803Y-94063881D01*
X137152165Y-94183059D01*
X137350350Y-94265150D01*
X137560743Y-94307000D01*
X137775257Y-94307000D01*
X137985650Y-94265150D01*
X138183835Y-94183059D01*
X138362197Y-94063881D01*
X138513881Y-93912197D01*
X138633059Y-93733835D01*
X138715150Y-93535650D01*
X138757000Y-93325257D01*
X138757000Y-93110743D01*
X138715150Y-92900350D01*
X138633059Y-92702165D01*
X138513881Y-92523803D01*
X138362197Y-92372119D01*
X138183835Y-92252941D01*
X137985650Y-92170850D01*
X137775257Y-92129000D01*
X137560743Y-92129000D01*
X137350350Y-92170850D01*
X137152165Y-92252941D01*
X136973803Y-92372119D01*
X136822119Y-92523803D01*
X136702941Y-92702165D01*
X136620850Y-92900350D01*
X136579000Y-93110743D01*
X135834000Y-93110743D01*
X135834000Y-90742339D01*
X135845436Y-90734698D01*
X135946698Y-90633436D01*
X136026259Y-90514364D01*
X136081062Y-90382058D01*
X136109000Y-90241603D01*
X136109000Y-90098397D01*
X136081062Y-89957942D01*
X136026259Y-89825636D01*
X135946698Y-89706564D01*
X135924334Y-89684200D01*
X135924385Y-89684200D01*
X136617479Y-90377295D01*
X136579000Y-90570743D01*
X136579000Y-90785257D01*
X136620850Y-90995650D01*
X136702941Y-91193835D01*
X136822119Y-91372197D01*
X136973803Y-91523881D01*
X137152165Y-91643059D01*
X137350350Y-91725150D01*
X137560743Y-91767000D01*
X137775257Y-91767000D01*
X137985650Y-91725150D01*
X138183835Y-91643059D01*
X138362197Y-91523881D01*
X138513881Y-91372197D01*
X138633059Y-91193835D01*
X138715150Y-90995650D01*
X138757000Y-90785257D01*
X138757000Y-90570743D01*
X138715150Y-90360350D01*
X138633059Y-90162165D01*
X138513881Y-89983803D01*
X138362197Y-89832119D01*
X138183835Y-89712941D01*
X137985650Y-89630850D01*
X137775257Y-89589000D01*
X137560743Y-89589000D01*
X137367295Y-89627479D01*
X136537329Y-88797514D01*
X136520722Y-88777278D01*
X136439988Y-88711022D01*
X136347880Y-88661789D01*
X136247937Y-88631472D01*
X136170043Y-88623800D01*
X136170040Y-88623800D01*
X136144000Y-88621235D01*
X136117960Y-88623800D01*
X133559774Y-88623800D01*
X132935774Y-87999800D01*
X132953473Y-87999800D01*
X133172134Y-87956305D01*
X133378108Y-87870988D01*
X133563480Y-87747126D01*
X133721126Y-87589480D01*
X133844988Y-87404108D01*
X133930305Y-87198134D01*
X133973800Y-86979473D01*
X133973800Y-86756527D01*
X133930305Y-86537866D01*
X133844988Y-86331892D01*
X133721126Y-86146520D01*
X133563480Y-85988874D01*
X133378108Y-85865012D01*
X133172134Y-85779695D01*
X132953473Y-85736200D01*
X132730527Y-85736200D01*
X132511866Y-85779695D01*
X132305892Y-85865012D01*
X132120520Y-85988874D01*
X132102200Y-86007194D01*
X132102200Y-83273873D01*
X132145022Y-83353988D01*
X132211278Y-83434722D01*
X132231514Y-83451329D01*
X136617479Y-87837295D01*
X136579000Y-88030743D01*
X136579000Y-88245257D01*
X136620850Y-88455650D01*
X136702941Y-88653835D01*
X136822119Y-88832197D01*
X136973803Y-88983881D01*
X137152165Y-89103059D01*
X137350350Y-89185150D01*
X137560743Y-89227000D01*
X137775257Y-89227000D01*
X137985650Y-89185150D01*
X138183835Y-89103059D01*
X138362197Y-88983881D01*
X138513881Y-88832197D01*
X138633059Y-88653835D01*
X138715150Y-88455650D01*
X138757000Y-88245257D01*
X138757000Y-88030743D01*
X138715150Y-87820350D01*
X138633059Y-87622165D01*
X138513881Y-87443803D01*
X138362197Y-87292119D01*
X138183835Y-87172941D01*
X137985650Y-87090850D01*
X137775257Y-87049000D01*
X137560743Y-87049000D01*
X137367295Y-87087479D01*
X133118200Y-82838385D01*
X133118200Y-75692000D01*
X133309370Y-75692000D01*
X133339818Y-76001146D01*
X133429993Y-76298412D01*
X133576428Y-76572373D01*
X133773497Y-76812503D01*
X134013627Y-77009572D01*
X134287588Y-77156007D01*
X134584854Y-77246182D01*
X134816531Y-77269000D01*
X137471469Y-77269000D01*
X137703146Y-77246182D01*
X138000412Y-77156007D01*
X138274373Y-77009572D01*
X138514503Y-76812503D01*
X138711572Y-76572373D01*
X138858007Y-76298412D01*
X138948182Y-76001146D01*
X138978630Y-75692000D01*
X138948182Y-75382854D01*
X138858007Y-75085588D01*
X138711572Y-74811627D01*
X138514503Y-74571497D01*
X138274373Y-74374428D01*
X138000412Y-74227993D01*
X137703146Y-74137818D01*
X137471469Y-74115000D01*
X134816531Y-74115000D01*
X134584854Y-74137818D01*
X134287588Y-74227993D01*
X134013627Y-74374428D01*
X133773497Y-74571497D01*
X133576428Y-74811627D01*
X133429993Y-75085588D01*
X133339818Y-75382854D01*
X133309370Y-75692000D01*
X133118200Y-75692000D01*
X133118200Y-74665934D01*
X133152698Y-74631436D01*
X133232259Y-74512364D01*
X133287062Y-74380058D01*
X133315000Y-74239603D01*
X133315000Y-74096397D01*
X133287062Y-73955942D01*
X133232259Y-73823636D01*
X133152698Y-73704564D01*
X133051436Y-73603302D01*
X132932364Y-73523741D01*
X132800058Y-73468938D01*
X132659603Y-73441000D01*
X132516397Y-73441000D01*
X132375942Y-73468938D01*
X132243636Y-73523741D01*
X132124564Y-73603302D01*
X132023302Y-73704564D01*
X131943741Y-73823636D01*
X131888938Y-73955942D01*
X131861000Y-74096397D01*
X131861000Y-74239603D01*
X131888938Y-74380058D01*
X131943741Y-74512364D01*
X132023302Y-74631436D01*
X132057800Y-74665934D01*
X132057800Y-74759727D01*
X132057801Y-74759737D01*
X132057801Y-77127127D01*
X132014978Y-77047012D01*
X131948722Y-76966278D01*
X131928491Y-76949675D01*
X129006312Y-74027497D01*
X129006307Y-74027491D01*
X128939985Y-73961169D01*
X128939985Y-73912382D01*
X128912047Y-73771927D01*
X128857244Y-73639621D01*
X128777683Y-73520549D01*
X128676421Y-73419287D01*
X128557349Y-73339726D01*
X128425043Y-73284923D01*
X128284588Y-73256985D01*
X128141382Y-73256985D01*
X128000927Y-73284923D01*
X127868621Y-73339726D01*
X127749549Y-73419287D01*
X127648287Y-73520549D01*
X127568726Y-73639621D01*
X127513923Y-73771927D01*
X127485985Y-73912382D01*
X127485985Y-74055588D01*
X127513923Y-74196043D01*
X127568726Y-74328349D01*
X127648287Y-74447421D01*
X127749549Y-74548683D01*
X127868621Y-74628244D01*
X128000927Y-74683047D01*
X128141382Y-74710985D01*
X128190169Y-74710985D01*
X128256491Y-74777307D01*
X128256497Y-74777312D01*
X131041801Y-77562617D01*
X131041800Y-86007194D01*
X131023480Y-85988874D01*
X130838108Y-85865012D01*
X130632134Y-85779695D01*
X130413473Y-85736200D01*
X130190527Y-85736200D01*
X129971866Y-85779695D01*
X129765892Y-85865012D01*
X129580520Y-85988874D01*
X129484000Y-86085394D01*
X129484000Y-84900339D01*
X129495436Y-84892698D01*
X129596698Y-84791436D01*
X129676259Y-84672364D01*
X129731062Y-84540058D01*
X129759000Y-84399603D01*
X129759000Y-84256397D01*
X129731062Y-84115942D01*
X129676259Y-83983636D01*
X129596698Y-83864564D01*
X129495436Y-83763302D01*
X129376364Y-83683741D01*
X129244058Y-83628938D01*
X129103603Y-83601000D01*
X128960397Y-83601000D01*
X128819942Y-83628938D01*
X128687636Y-83683741D01*
X128568564Y-83763302D01*
X128467302Y-83864564D01*
X128387741Y-83983636D01*
X128332938Y-84115942D01*
X128305000Y-84256397D01*
X128305000Y-84399603D01*
X128332938Y-84540058D01*
X128387741Y-84672364D01*
X128467302Y-84791436D01*
X128568564Y-84892698D01*
X128580000Y-84900339D01*
X128580000Y-86085394D01*
X128483480Y-85988874D01*
X128298108Y-85865012D01*
X128092134Y-85779695D01*
X127873473Y-85736200D01*
X127650527Y-85736200D01*
X127431866Y-85779695D01*
X127225892Y-85865012D01*
X127040520Y-85988874D01*
X126882874Y-86146520D01*
X126827818Y-86228917D01*
X126827818Y-81163405D01*
X127085907Y-80905317D01*
X127099397Y-80908000D01*
X127242603Y-80908000D01*
X127383058Y-80880062D01*
X127515364Y-80825259D01*
X127634436Y-80745698D01*
X127735698Y-80644436D01*
X127815259Y-80525364D01*
X127870062Y-80393058D01*
X127898000Y-80252603D01*
X127898000Y-80109397D01*
X127870062Y-79968942D01*
X127815259Y-79836636D01*
X127735698Y-79717564D01*
X127634436Y-79616302D01*
X127515364Y-79536741D01*
X127383058Y-79481938D01*
X127242603Y-79454000D01*
X127099397Y-79454000D01*
X126958942Y-79481938D01*
X126826636Y-79536741D01*
X126707564Y-79616302D01*
X126606302Y-79717564D01*
X126526741Y-79836636D01*
X126471938Y-79968942D01*
X126444000Y-80109397D01*
X126444000Y-80252603D01*
X126446683Y-80266093D01*
X126071918Y-80640859D01*
X126054659Y-80655023D01*
X125998175Y-80723850D01*
X125986497Y-80745698D01*
X125956204Y-80802373D01*
X125930358Y-80887575D01*
X125921631Y-80976182D01*
X125923818Y-80998387D01*
X125923818Y-85975736D01*
X125758108Y-85865012D01*
X125674000Y-85830173D01*
X125674000Y-72285204D01*
X125676187Y-72262999D01*
X125667460Y-72174392D01*
X125656319Y-72137667D01*
X125641614Y-72089190D01*
X125599643Y-72010667D01*
X125543159Y-71941841D01*
X125525911Y-71927686D01*
X123690268Y-70092043D01*
X133305067Y-70092043D01*
X133344371Y-70248190D01*
X133485056Y-70564207D01*
X133684689Y-70846705D01*
X133935599Y-71084829D01*
X134228144Y-71269427D01*
X134551081Y-71393406D01*
X134892000Y-71452000D01*
X136017000Y-71452000D01*
X136017000Y-69819000D01*
X136271000Y-69819000D01*
X136271000Y-71452000D01*
X137396000Y-71452000D01*
X137736919Y-71393406D01*
X138059856Y-71269427D01*
X138352401Y-71084829D01*
X138603311Y-70846705D01*
X138802944Y-70564207D01*
X138943629Y-70248190D01*
X138982933Y-70092043D01*
X138865206Y-69819000D01*
X136271000Y-69819000D01*
X136017000Y-69819000D01*
X133422794Y-69819000D01*
X133305067Y-70092043D01*
X123690268Y-70092043D01*
X122890182Y-69291957D01*
X133305067Y-69291957D01*
X133422794Y-69565000D01*
X136017000Y-69565000D01*
X136017000Y-67932000D01*
X136271000Y-67932000D01*
X136271000Y-69565000D01*
X138865206Y-69565000D01*
X138982933Y-69291957D01*
X138943629Y-69135810D01*
X138802944Y-68819793D01*
X138603311Y-68537295D01*
X138352401Y-68299171D01*
X138059856Y-68114573D01*
X137736919Y-67990594D01*
X137396000Y-67932000D01*
X136271000Y-67932000D01*
X136017000Y-67932000D01*
X134892000Y-67932000D01*
X134551081Y-67990594D01*
X134228144Y-68114573D01*
X133935599Y-68299171D01*
X133684689Y-68537295D01*
X133485056Y-68819793D01*
X133344371Y-69135810D01*
X133305067Y-69291957D01*
X122890182Y-69291957D01*
X122481418Y-68883194D01*
X122727550Y-68985145D01*
X123370319Y-69113000D01*
X124025681Y-69113000D01*
X124668450Y-68985145D01*
X125273925Y-68734349D01*
X125818839Y-68370250D01*
X126282250Y-67906839D01*
X126646349Y-67361925D01*
X126897145Y-66756450D01*
X127025000Y-66113681D01*
X127025000Y-65458319D01*
X126897145Y-64815550D01*
X126646349Y-64210075D01*
X126282250Y-63665161D01*
X125818839Y-63201750D01*
X125273925Y-62837651D01*
X124668450Y-62586855D01*
X124025681Y-62459000D01*
X123370319Y-62459000D01*
X122727550Y-62586855D01*
X122122075Y-62837651D01*
X121577161Y-63201750D01*
X121113750Y-63665161D01*
X120749651Y-64210075D01*
X120498855Y-64815550D01*
X120371000Y-65458319D01*
X120371000Y-66113681D01*
X120498855Y-66756450D01*
X120600807Y-67002583D01*
X118453317Y-64855093D01*
X118456000Y-64841603D01*
X118456000Y-64698397D01*
X118428062Y-64557942D01*
X118373259Y-64425636D01*
X118293698Y-64306564D01*
X118192436Y-64205302D01*
X118073364Y-64125741D01*
X117941058Y-64070938D01*
X117800603Y-64043000D01*
X117657397Y-64043000D01*
X117516942Y-64070938D01*
X117384636Y-64125741D01*
X117265564Y-64205302D01*
X117164302Y-64306564D01*
X117084741Y-64425636D01*
X117029938Y-64557942D01*
X117002000Y-64698397D01*
X117002000Y-64841603D01*
X117029938Y-64982058D01*
X117084741Y-65114364D01*
X117164302Y-65233436D01*
X117265564Y-65334698D01*
X117384636Y-65414259D01*
X117516942Y-65469062D01*
X117657397Y-65497000D01*
X117800603Y-65497000D01*
X117814093Y-65494317D01*
X124770001Y-72450226D01*
X124770000Y-85752045D01*
X124770001Y-85752055D01*
X124770001Y-85830173D01*
X124685892Y-85865012D01*
X124500520Y-85988874D01*
X124342874Y-86146520D01*
X124295999Y-86216673D01*
X124295999Y-75098201D01*
X124298186Y-75075998D01*
X124294542Y-75039000D01*
X124289459Y-74987392D01*
X124263613Y-74902189D01*
X124221642Y-74823666D01*
X124165158Y-74754840D01*
X124147911Y-74740686D01*
X122644317Y-73237093D01*
X122647000Y-73223603D01*
X122647000Y-73080397D01*
X122619062Y-72939942D01*
X122564259Y-72807636D01*
X122484698Y-72688564D01*
X122383436Y-72587302D01*
X122264364Y-72507741D01*
X122132058Y-72452938D01*
X121991603Y-72425000D01*
X121848397Y-72425000D01*
X121707942Y-72452938D01*
X121575636Y-72507741D01*
X121456564Y-72587302D01*
X121355302Y-72688564D01*
X121275741Y-72807636D01*
X121220938Y-72939942D01*
X121193000Y-73080397D01*
X121193000Y-73223603D01*
X121220938Y-73364058D01*
X121275741Y-73496364D01*
X121355302Y-73615436D01*
X121456564Y-73716698D01*
X121575636Y-73796259D01*
X121707942Y-73851062D01*
X121848397Y-73879000D01*
X121991603Y-73879000D01*
X122005093Y-73876317D01*
X123391999Y-75263224D01*
X123392000Y-85981203D01*
X123218108Y-85865012D01*
X123012134Y-85779695D01*
X122793473Y-85736200D01*
X122570527Y-85736200D01*
X122351866Y-85779695D01*
X122145892Y-85865012D01*
X121960520Y-85988874D01*
X121802874Y-86146520D01*
X121679012Y-86331892D01*
X121593695Y-86537866D01*
X121550200Y-86756527D01*
X121550200Y-86979473D01*
X121593695Y-87198134D01*
X121679012Y-87404108D01*
X121800955Y-87586608D01*
X121751058Y-87565940D01*
X121610603Y-87538002D01*
X121467397Y-87538002D01*
X121326942Y-87565940D01*
X121194636Y-87620743D01*
X121075564Y-87700304D01*
X120974302Y-87801566D01*
X120894741Y-87920638D01*
X120839938Y-88052944D01*
X120812000Y-88193399D01*
X120812000Y-88336605D01*
X120839938Y-88477060D01*
X120894741Y-88609366D01*
X120974302Y-88728438D01*
X121075564Y-88829700D01*
X121087000Y-88837341D01*
X121087000Y-88852891D01*
X121087001Y-88852901D01*
X121087000Y-93919776D01*
X119193769Y-95813007D01*
X119197000Y-95780205D01*
X119197000Y-95780204D01*
X119199187Y-95758001D01*
X119197000Y-95735798D01*
X119197000Y-87490893D01*
X119262874Y-87589480D01*
X119420520Y-87747126D01*
X119605892Y-87870988D01*
X119811866Y-87956305D01*
X120030527Y-87999800D01*
X120253473Y-87999800D01*
X120472134Y-87956305D01*
X120678108Y-87870988D01*
X120863480Y-87747126D01*
X121021126Y-87589480D01*
X121144988Y-87404108D01*
X121230305Y-87198134D01*
X121273800Y-86979473D01*
X121273800Y-86756527D01*
X121230305Y-86537866D01*
X121144988Y-86331892D01*
X121021126Y-86146520D01*
X120863480Y-85988874D01*
X120678108Y-85865012D01*
X120594000Y-85830173D01*
X120594000Y-72583858D01*
X120608058Y-72581062D01*
X120740364Y-72526259D01*
X120859436Y-72446698D01*
X120960698Y-72345436D01*
X121040259Y-72226364D01*
X121095062Y-72094058D01*
X121123000Y-71953603D01*
X121123000Y-71810397D01*
X121095062Y-71669942D01*
X121040259Y-71537636D01*
X120960698Y-71418564D01*
X120859436Y-71317302D01*
X120740364Y-71237741D01*
X120608058Y-71182938D01*
X120467603Y-71155000D01*
X120324397Y-71155000D01*
X120183942Y-71182938D01*
X120051636Y-71237741D01*
X119932564Y-71317302D01*
X119831302Y-71418564D01*
X119751741Y-71537636D01*
X119696938Y-71669942D01*
X119669000Y-71810397D01*
X119669000Y-71953603D01*
X119693598Y-72077266D01*
X119687813Y-72136000D01*
X119690001Y-72158215D01*
X119690000Y-85830173D01*
X119605892Y-85865012D01*
X119420520Y-85988874D01*
X119262874Y-86146520D01*
X119197000Y-86245107D01*
X119197000Y-75359529D01*
X119208436Y-75351888D01*
X119309698Y-75250626D01*
X119389259Y-75131554D01*
X119444062Y-74999248D01*
X119472000Y-74858793D01*
X119472000Y-74715587D01*
X119444062Y-74575132D01*
X119389259Y-74442826D01*
X119309698Y-74323754D01*
X119208436Y-74222492D01*
X119089364Y-74142931D01*
X118957058Y-74088128D01*
X118816603Y-74060190D01*
X118673397Y-74060190D01*
X118532942Y-74088128D01*
X118400636Y-74142931D01*
X118281564Y-74222492D01*
X118180302Y-74323754D01*
X118100741Y-74442826D01*
X118054000Y-74555669D01*
X118054000Y-72832022D01*
X118119253Y-72734364D01*
X118174056Y-72602058D01*
X118201994Y-72461603D01*
X118201994Y-72318397D01*
X118174056Y-72177942D01*
X118119253Y-72045636D01*
X118039692Y-71926564D01*
X117938430Y-71825302D01*
X117819358Y-71745741D01*
X117687052Y-71690938D01*
X117546597Y-71663000D01*
X117403391Y-71663000D01*
X117262936Y-71690938D01*
X117130630Y-71745741D01*
X117011558Y-71825302D01*
X116910296Y-71926564D01*
X116830735Y-72045636D01*
X116784002Y-72158459D01*
X116784002Y-67509804D01*
X116786189Y-67487599D01*
X116777462Y-67398991D01*
X116751616Y-67313789D01*
X116744588Y-67300641D01*
X116709645Y-67235266D01*
X116693068Y-67215066D01*
X116709742Y-67198392D01*
X116789303Y-67079320D01*
X116844106Y-66947014D01*
X116872044Y-66806559D01*
X116872044Y-66663353D01*
X116844106Y-66522898D01*
X116789303Y-66390592D01*
X116709742Y-66271520D01*
X116608480Y-66170258D01*
X116489408Y-66090697D01*
X116357102Y-66035894D01*
X116216647Y-66007956D01*
X116073441Y-66007956D01*
X115932986Y-66035894D01*
X115800680Y-66090697D01*
X115681608Y-66170258D01*
X115580346Y-66271520D01*
X115500785Y-66390592D01*
X115445982Y-66522898D01*
X115418044Y-66663353D01*
X115418044Y-66806559D01*
X115445982Y-66947014D01*
X115500785Y-67079320D01*
X115580346Y-67198392D01*
X115681608Y-67299654D01*
X115691404Y-67306200D01*
X115699584Y-67389248D01*
X115725430Y-67474450D01*
X115738841Y-67499540D01*
X115767402Y-67552974D01*
X115823886Y-67621800D01*
X115841140Y-67635960D01*
X115880002Y-67674822D01*
X115880003Y-86085397D01*
X115783480Y-85988874D01*
X115598108Y-85865012D01*
X115392134Y-85779695D01*
X115173473Y-85736200D01*
X114950527Y-85736200D01*
X114731866Y-85779695D01*
X114525892Y-85865012D01*
X114371000Y-85968508D01*
X114371000Y-81892527D01*
X114417741Y-82005370D01*
X114497302Y-82124442D01*
X114598564Y-82225704D01*
X114717636Y-82305265D01*
X114849942Y-82360068D01*
X114990397Y-82388006D01*
X115133603Y-82388006D01*
X115274058Y-82360068D01*
X115406364Y-82305265D01*
X115525436Y-82225704D01*
X115626698Y-82124442D01*
X115706259Y-82005370D01*
X115761062Y-81873064D01*
X115789000Y-81732609D01*
X115789000Y-81589403D01*
X115761062Y-81448948D01*
X115706259Y-81316642D01*
X115626698Y-81197570D01*
X115592200Y-81163072D01*
X115592200Y-75173934D01*
X115626698Y-75139436D01*
X115706259Y-75020364D01*
X115761062Y-74888058D01*
X115789000Y-74747603D01*
X115789000Y-74604397D01*
X115761062Y-74463942D01*
X115706259Y-74331636D01*
X115626698Y-74212564D01*
X115525436Y-74111302D01*
X115406364Y-74031741D01*
X115274058Y-73976938D01*
X115133603Y-73949000D01*
X114990397Y-73949000D01*
X114849942Y-73976938D01*
X114717636Y-74031741D01*
X114598564Y-74111302D01*
X114497302Y-74212564D01*
X114417741Y-74331636D01*
X114371000Y-74444479D01*
X114371000Y-68517339D01*
X114382436Y-68509698D01*
X114483698Y-68408436D01*
X114563259Y-68289364D01*
X114618062Y-68157058D01*
X114646000Y-68016603D01*
X114646000Y-67873397D01*
X114618062Y-67732942D01*
X114563259Y-67600636D01*
X114483698Y-67481564D01*
X114382436Y-67380302D01*
X114263364Y-67300741D01*
X114131058Y-67245938D01*
X113990603Y-67218000D01*
X113847397Y-67218000D01*
X113706942Y-67245938D01*
X113574636Y-67300741D01*
X113560200Y-67310387D01*
X113560200Y-66029932D01*
X113594698Y-65995434D01*
X113674259Y-65876362D01*
X113729062Y-65744056D01*
X113757000Y-65603601D01*
X113757000Y-65460395D01*
X113729062Y-65319940D01*
X113674259Y-65187634D01*
X113594698Y-65068562D01*
X113493436Y-64967300D01*
X113374364Y-64887739D01*
X113242058Y-64832936D01*
X113101603Y-64804998D01*
X112958397Y-64804998D01*
X112817942Y-64832936D01*
X112685636Y-64887739D01*
X112566564Y-64967300D01*
X112465302Y-65068562D01*
X112385741Y-65187634D01*
X112330938Y-65319940D01*
X112303000Y-65460395D01*
X112303000Y-65603601D01*
X112330938Y-65744056D01*
X112385741Y-65876362D01*
X112465302Y-65995434D01*
X112499801Y-66029933D01*
X112499800Y-74754387D01*
X112485364Y-74744741D01*
X112353058Y-74689938D01*
X112212603Y-74662000D01*
X112069397Y-74662000D01*
X111928942Y-74689938D01*
X111796636Y-74744741D01*
X111677564Y-74824302D01*
X111576302Y-74925564D01*
X111496741Y-75044636D01*
X111441938Y-75176942D01*
X111414000Y-75317397D01*
X111414000Y-75460603D01*
X111415329Y-75467286D01*
X111398808Y-75464000D01*
X111255602Y-75464000D01*
X111115147Y-75491938D01*
X110982841Y-75546741D01*
X110863769Y-75626302D01*
X110762507Y-75727564D01*
X110682946Y-75846636D01*
X110628143Y-75978942D01*
X110600205Y-76119397D01*
X110600205Y-76262603D01*
X110602888Y-76276093D01*
X105891970Y-80987012D01*
X105874711Y-81001176D01*
X105818227Y-81070003D01*
X105804167Y-81096308D01*
X105776256Y-81148526D01*
X105750410Y-81233728D01*
X105741683Y-81322335D01*
X105743870Y-81344540D01*
X105743871Y-86109265D01*
X105623480Y-85988874D01*
X105438108Y-85865012D01*
X105232134Y-85779695D01*
X105013473Y-85736200D01*
X104790527Y-85736200D01*
X104571866Y-85779695D01*
X104365892Y-85865012D01*
X104180520Y-85988874D01*
X104022874Y-86146520D01*
X103899012Y-86331892D01*
X103813695Y-86537866D01*
X103770200Y-86756527D01*
X103770200Y-86979473D01*
X103807323Y-87166100D01*
X103576000Y-86934777D01*
X103576000Y-83588212D01*
X103578187Y-83566007D01*
X103569460Y-83477400D01*
X103551075Y-83416795D01*
X103543614Y-83392198D01*
X103501643Y-83313675D01*
X103445159Y-83244849D01*
X103427912Y-83230695D01*
X101562317Y-81365101D01*
X101565000Y-81351611D01*
X101565000Y-81208405D01*
X101537062Y-81067950D01*
X101482259Y-80935644D01*
X101402698Y-80816572D01*
X101301436Y-80715310D01*
X101182364Y-80635749D01*
X101050058Y-80580946D01*
X100909603Y-80553008D01*
X100766397Y-80553008D01*
X100625942Y-80580946D01*
X100493636Y-80635749D01*
X100374564Y-80715310D01*
X100273302Y-80816572D01*
X100193741Y-80935644D01*
X100138938Y-81067950D01*
X100111000Y-81208405D01*
X100111000Y-81351611D01*
X100138938Y-81492066D01*
X100193741Y-81624372D01*
X100273302Y-81743444D01*
X100374564Y-81844706D01*
X100493636Y-81924267D01*
X100625942Y-81979070D01*
X100766397Y-82007008D01*
X100909603Y-82007008D01*
X100923093Y-82004325D01*
X102672000Y-83753233D01*
X102672000Y-83885688D01*
X102646683Y-83868772D01*
X102514377Y-83813969D01*
X102373922Y-83786031D01*
X102230716Y-83786031D01*
X102090261Y-83813969D01*
X101957955Y-83868772D01*
X101838883Y-83948333D01*
X101737621Y-84049595D01*
X101658060Y-84168667D01*
X101603257Y-84300973D01*
X101575319Y-84441428D01*
X101575319Y-84584634D01*
X101603257Y-84725089D01*
X101658060Y-84857395D01*
X101737621Y-84976467D01*
X101838883Y-85077729D01*
X101910001Y-85125248D01*
X101910000Y-97344661D01*
X101898564Y-97352302D01*
X101852289Y-97398577D01*
X101855990Y-97379971D01*
X101855990Y-97236765D01*
X101828052Y-97096310D01*
X101773249Y-96964004D01*
X101693688Y-96844932D01*
X101592426Y-96743670D01*
X101473354Y-96664109D01*
X101341048Y-96609306D01*
X101200593Y-96581368D01*
X101057387Y-96581368D01*
X101043897Y-96584051D01*
X100655000Y-96195155D01*
X100655000Y-84011339D01*
X100666436Y-84003698D01*
X100767698Y-83902436D01*
X100847259Y-83783364D01*
X100902062Y-83651058D01*
X100930000Y-83510603D01*
X100930000Y-83367397D01*
X100902062Y-83226942D01*
X100847259Y-83094636D01*
X100767698Y-82975564D01*
X100666436Y-82874302D01*
X100547364Y-82794741D01*
X100415058Y-82739938D01*
X100274603Y-82712000D01*
X100131397Y-82712000D01*
X99990942Y-82739938D01*
X99858636Y-82794741D01*
X99789878Y-82840683D01*
X99789878Y-73478422D01*
X99809480Y-73478422D01*
X99949935Y-73450484D01*
X100082241Y-73395681D01*
X100201313Y-73316120D01*
X100302575Y-73214858D01*
X100382136Y-73095786D01*
X100436939Y-72963480D01*
X100464877Y-72823025D01*
X100464877Y-72679819D01*
X100436939Y-72539364D01*
X100382136Y-72407058D01*
X100302575Y-72287986D01*
X100201313Y-72186724D01*
X100082241Y-72107163D01*
X99949935Y-72052360D01*
X99809480Y-72024422D01*
X99666274Y-72024422D01*
X99525819Y-72052360D01*
X99393513Y-72107163D01*
X99274441Y-72186724D01*
X99173179Y-72287986D01*
X99131000Y-72351112D01*
X99131000Y-66222397D01*
X100746000Y-66222397D01*
X100746000Y-66365603D01*
X100773938Y-66506058D01*
X100828741Y-66638364D01*
X100908302Y-66757436D01*
X101009564Y-66858698D01*
X101021000Y-66866339D01*
X101021000Y-66881889D01*
X101021001Y-66881899D01*
X101021000Y-76812795D01*
X101018813Y-76835000D01*
X101027540Y-76923607D01*
X101040484Y-76966278D01*
X101053386Y-77008809D01*
X101095357Y-77087332D01*
X101151841Y-77156159D01*
X101169100Y-77170323D01*
X103923683Y-79924908D01*
X103921000Y-79938397D01*
X103921000Y-80081603D01*
X103948938Y-80222058D01*
X104003741Y-80354364D01*
X104083302Y-80473436D01*
X104184564Y-80574698D01*
X104303636Y-80654259D01*
X104435942Y-80709062D01*
X104576397Y-80737000D01*
X104719603Y-80737000D01*
X104860058Y-80709062D01*
X104992364Y-80654259D01*
X105111436Y-80574698D01*
X105212698Y-80473436D01*
X105292259Y-80354364D01*
X105347062Y-80222058D01*
X105375000Y-80081603D01*
X105375000Y-79938397D01*
X105347062Y-79797942D01*
X105292259Y-79665636D01*
X105212698Y-79546564D01*
X105111436Y-79445302D01*
X104992364Y-79365741D01*
X104860058Y-79310938D01*
X104719603Y-79283000D01*
X104576397Y-79283000D01*
X104562908Y-79285683D01*
X101925000Y-76647777D01*
X101925000Y-71414000D01*
X102271928Y-71414000D01*
X102275000Y-73628250D01*
X102307856Y-73661106D01*
X102274887Y-73827998D01*
X102275116Y-74002328D01*
X102308039Y-74166711D01*
X102275000Y-74199750D01*
X102271928Y-76414000D01*
X102284188Y-76538482D01*
X102320498Y-76658180D01*
X102379463Y-76768494D01*
X102458815Y-76865185D01*
X102555506Y-76944537D01*
X102665820Y-77003502D01*
X102785518Y-77039812D01*
X102910000Y-77052072D01*
X105124250Y-77049000D01*
X105157106Y-77016144D01*
X105323998Y-77049113D01*
X105498328Y-77048884D01*
X105662711Y-77015961D01*
X105695750Y-77049000D01*
X107910000Y-77052072D01*
X108034482Y-77039812D01*
X108154180Y-77003502D01*
X108264494Y-76944537D01*
X108361185Y-76865185D01*
X108440537Y-76768494D01*
X108499502Y-76658180D01*
X108535812Y-76538482D01*
X108548072Y-76414000D01*
X108545000Y-74199750D01*
X108512144Y-74166894D01*
X108545113Y-74000002D01*
X108544884Y-73825672D01*
X108511961Y-73661289D01*
X108545000Y-73628250D01*
X108548072Y-71414000D01*
X108535812Y-71289518D01*
X108499502Y-71169820D01*
X108440537Y-71059506D01*
X108361185Y-70962815D01*
X108264494Y-70883463D01*
X108154180Y-70824498D01*
X108034482Y-70788188D01*
X107910000Y-70775928D01*
X105695750Y-70779000D01*
X105662894Y-70811856D01*
X105496002Y-70778887D01*
X105321672Y-70779116D01*
X105157289Y-70812039D01*
X105124250Y-70779000D01*
X102910000Y-70775928D01*
X102785518Y-70788188D01*
X102665820Y-70824498D01*
X102555506Y-70883463D01*
X102458815Y-70962815D01*
X102379463Y-71059506D01*
X102320498Y-71169820D01*
X102284188Y-71289518D01*
X102271928Y-71414000D01*
X101925000Y-71414000D01*
X101925000Y-66866339D01*
X101936436Y-66858698D01*
X102037698Y-66757436D01*
X102117259Y-66638364D01*
X102172062Y-66506058D01*
X102200000Y-66365603D01*
X102200000Y-66222397D01*
X102172062Y-66081942D01*
X102117259Y-65949636D01*
X102037698Y-65830564D01*
X101936436Y-65729302D01*
X101817364Y-65649741D01*
X101685058Y-65594938D01*
X101544603Y-65567000D01*
X101401397Y-65567000D01*
X101260942Y-65594938D01*
X101128636Y-65649741D01*
X101009564Y-65729302D01*
X100908302Y-65830564D01*
X100828741Y-65949636D01*
X100773938Y-66081942D01*
X100746000Y-66222397D01*
X99131000Y-66222397D01*
X99131000Y-65342339D01*
X99142436Y-65334698D01*
X99243698Y-65233436D01*
X99323259Y-65114364D01*
X99378062Y-64982058D01*
X99406000Y-64841603D01*
X99406000Y-64698397D01*
X99378062Y-64557942D01*
X99323259Y-64425636D01*
X99243698Y-64306564D01*
X99142436Y-64205302D01*
X99023364Y-64125741D01*
X98891058Y-64070938D01*
X98750603Y-64043000D01*
X98607397Y-64043000D01*
X98533080Y-64057782D01*
X98554000Y-63952609D01*
X98554000Y-63809403D01*
X98553999Y-63809397D01*
X109001000Y-63809397D01*
X109001000Y-63952603D01*
X109028938Y-64093058D01*
X109083741Y-64225364D01*
X109163302Y-64344436D01*
X109172401Y-64353535D01*
X109172400Y-69822717D01*
X109169713Y-69850000D01*
X109172400Y-69877283D01*
X109172400Y-69877292D01*
X109180439Y-69958916D01*
X109212209Y-70063647D01*
X109263800Y-70160168D01*
X109333231Y-70244769D01*
X109354434Y-70262170D01*
X110906000Y-71813737D01*
X110906000Y-71826603D01*
X110933938Y-71967058D01*
X110988741Y-72099364D01*
X111068302Y-72218436D01*
X111169564Y-72319698D01*
X111288636Y-72399259D01*
X111420942Y-72454062D01*
X111561397Y-72482000D01*
X111704603Y-72482000D01*
X111845058Y-72454062D01*
X111977364Y-72399259D01*
X112096436Y-72319698D01*
X112197698Y-72218436D01*
X112277259Y-72099364D01*
X112332062Y-71967058D01*
X112360000Y-71826603D01*
X112360000Y-71683397D01*
X112332062Y-71542942D01*
X112277259Y-71410636D01*
X112197698Y-71291564D01*
X112096436Y-71190302D01*
X111977364Y-71110741D01*
X111845058Y-71055938D01*
X111704603Y-71028000D01*
X111691737Y-71028000D01*
X110283600Y-69619864D01*
X110283600Y-64353534D01*
X110292698Y-64344436D01*
X110372259Y-64225364D01*
X110427062Y-64093058D01*
X110455000Y-63952603D01*
X110455000Y-63809397D01*
X110427062Y-63668942D01*
X110372259Y-63536636D01*
X110292698Y-63417564D01*
X110191436Y-63316302D01*
X110072364Y-63236741D01*
X109940058Y-63181938D01*
X109799603Y-63154000D01*
X109656397Y-63154000D01*
X109515942Y-63181938D01*
X109383636Y-63236741D01*
X109264564Y-63316302D01*
X109163302Y-63417564D01*
X109083741Y-63536636D01*
X109028938Y-63668942D01*
X109001000Y-63809397D01*
X98553999Y-63809397D01*
X98526062Y-63668948D01*
X98471259Y-63536642D01*
X98391698Y-63417570D01*
X98290436Y-63316308D01*
X98171364Y-63236747D01*
X98039058Y-63181944D01*
X97898603Y-63154006D01*
X97755397Y-63154006D01*
X97614942Y-63181944D01*
X97482636Y-63236747D01*
X97363564Y-63316308D01*
X97262302Y-63417570D01*
X97182741Y-63536642D01*
X97127938Y-63668948D01*
X97100000Y-63809403D01*
X97100000Y-63952609D01*
X97127938Y-64093064D01*
X97182741Y-64225370D01*
X97262302Y-64344442D01*
X97271401Y-64353541D01*
X97271400Y-82771988D01*
X97237708Y-82721564D01*
X97136446Y-82620302D01*
X97017374Y-82540741D01*
X96885068Y-82485938D01*
X96744613Y-82458000D01*
X96601407Y-82458000D01*
X96460952Y-82485938D01*
X96328646Y-82540741D01*
X96311880Y-82551944D01*
X96330058Y-82508058D01*
X96357996Y-82367603D01*
X96357996Y-82224397D01*
X96330058Y-82083942D01*
X96275255Y-81951636D01*
X96195694Y-81832564D01*
X96094432Y-81731302D01*
X95975360Y-81651741D01*
X95843054Y-81596938D01*
X95702599Y-81569000D01*
X95559393Y-81569000D01*
X95418938Y-81596938D01*
X95286632Y-81651741D01*
X95167560Y-81731302D01*
X95066298Y-81832564D01*
X94986737Y-81951636D01*
X94940000Y-82064469D01*
X94940000Y-70291223D01*
X95164907Y-70066317D01*
X95178397Y-70069000D01*
X95321603Y-70069000D01*
X95462058Y-70041062D01*
X95594364Y-69986259D01*
X95713436Y-69906698D01*
X95814698Y-69805436D01*
X95894259Y-69686364D01*
X95949062Y-69554058D01*
X95977000Y-69413603D01*
X95977000Y-69270397D01*
X95949062Y-69129942D01*
X95894259Y-68997636D01*
X95814698Y-68878564D01*
X95713436Y-68777302D01*
X95594364Y-68697741D01*
X95462058Y-68642938D01*
X95321603Y-68615000D01*
X95178397Y-68615000D01*
X95037942Y-68642938D01*
X94905636Y-68697741D01*
X94786564Y-68777302D01*
X94685302Y-68878564D01*
X94605741Y-68997636D01*
X94550938Y-69129942D01*
X94523000Y-69270397D01*
X94523000Y-69413603D01*
X94525683Y-69427093D01*
X94184100Y-69768677D01*
X94166841Y-69782841D01*
X94110357Y-69851668D01*
X94080943Y-69906698D01*
X94068386Y-69930191D01*
X94042540Y-70015393D01*
X94033813Y-70104000D01*
X94036000Y-70126205D01*
X94036001Y-83101867D01*
X93935436Y-83001302D01*
X93816364Y-82921741D01*
X93684058Y-82866938D01*
X93543603Y-82839000D01*
X93400397Y-82839000D01*
X93259942Y-82866938D01*
X93127636Y-82921741D01*
X93008564Y-83001302D01*
X92907302Y-83102564D01*
X92827741Y-83221636D01*
X92772938Y-83353942D01*
X92745000Y-83494397D01*
X92745000Y-83637603D01*
X92772938Y-83778058D01*
X92827741Y-83910364D01*
X92907302Y-84029436D01*
X93008564Y-84130698D01*
X93020000Y-84138339D01*
X93020000Y-84153889D01*
X93020001Y-84153899D01*
X93020000Y-93182392D01*
X92980476Y-93221916D01*
X92941969Y-93005675D01*
X92732940Y-92912019D01*
X92509655Y-92860942D01*
X92280697Y-92854407D01*
X92054863Y-92892665D01*
X91840833Y-92974246D01*
X91782031Y-93005675D01*
X91743524Y-93221919D01*
X92362000Y-93840395D01*
X92376143Y-93826253D01*
X92555748Y-94005858D01*
X92541605Y-94020000D01*
X92555748Y-94034143D01*
X92376143Y-94213748D01*
X92362000Y-94199605D01*
X91743524Y-94818081D01*
X91782031Y-95034325D01*
X91991060Y-95127981D01*
X92214345Y-95179058D01*
X92443303Y-95185593D01*
X92669137Y-95147335D01*
X92883167Y-95065754D01*
X92941969Y-95034325D01*
X92980476Y-94818084D01*
X93020000Y-94857608D01*
X93020000Y-98182392D01*
X92980476Y-98221916D01*
X92941969Y-98005675D01*
X92732940Y-97912019D01*
X92509655Y-97860942D01*
X92280697Y-97854407D01*
X92054863Y-97892665D01*
X91840833Y-97974246D01*
X91782031Y-98005675D01*
X91743524Y-98221919D01*
X92362000Y-98840395D01*
X92376143Y-98826253D01*
X92555748Y-99005858D01*
X92541605Y-99020000D01*
X92555748Y-99034143D01*
X92376143Y-99213748D01*
X92362000Y-99199605D01*
X91743524Y-99818081D01*
X91782031Y-100034325D01*
X91991060Y-100127981D01*
X92214345Y-100179058D01*
X92443303Y-100185593D01*
X92669137Y-100147335D01*
X92883167Y-100065754D01*
X92941969Y-100034325D01*
X92980476Y-99818084D01*
X93076712Y-99914320D01*
X93094357Y-99947332D01*
X93150841Y-100016159D01*
X93168100Y-100030323D01*
X94671001Y-101533225D01*
X94671001Y-103329699D01*
X94639145Y-103169550D01*
X94388349Y-102564075D01*
X94024250Y-102019161D01*
X93560839Y-101555750D01*
X93015925Y-101191651D01*
X92410450Y-100940855D01*
X91767681Y-100813000D01*
X91112319Y-100813000D01*
X90714199Y-100892191D01*
X90618995Y-100796987D01*
X90857860Y-100731463D01*
X90973760Y-100484484D01*
X91039250Y-100219640D01*
X91051812Y-99947108D01*
X91010965Y-99677362D01*
X90918277Y-99420768D01*
X90857860Y-99307737D01*
X90618993Y-99242212D01*
X89841605Y-100019600D01*
X89855748Y-100033743D01*
X89676143Y-100213348D01*
X89662000Y-100199205D01*
X88884612Y-100976593D01*
X88950137Y-101215460D01*
X89197116Y-101331360D01*
X89461960Y-101396850D01*
X89550841Y-101400947D01*
X89319161Y-101555750D01*
X88855750Y-102019161D01*
X88491651Y-102564075D01*
X88240855Y-103169550D01*
X88163000Y-103560953D01*
X88163000Y-100092092D01*
X88272188Y-100092092D01*
X88313035Y-100361838D01*
X88405723Y-100618432D01*
X88466140Y-100731463D01*
X88705007Y-100796988D01*
X89482395Y-100019600D01*
X88705007Y-99242212D01*
X88466140Y-99307737D01*
X88350240Y-99554716D01*
X88284750Y-99819560D01*
X88272188Y-100092092D01*
X88163000Y-100092092D01*
X88163000Y-99062607D01*
X88884612Y-99062607D01*
X89662000Y-99839995D01*
X90400692Y-99101303D01*
X91196407Y-99101303D01*
X91234665Y-99327137D01*
X91316246Y-99541167D01*
X91347675Y-99599969D01*
X91563919Y-99638476D01*
X92182395Y-99020000D01*
X91563919Y-98401524D01*
X91347675Y-98440031D01*
X91254019Y-98649060D01*
X91202942Y-98872345D01*
X91196407Y-99101303D01*
X90400692Y-99101303D01*
X90439388Y-99062607D01*
X90373863Y-98823740D01*
X90126884Y-98707840D01*
X89862040Y-98642350D01*
X89589508Y-98629788D01*
X89319762Y-98670635D01*
X89063168Y-98763323D01*
X88950137Y-98823740D01*
X88884612Y-99062607D01*
X88163000Y-99062607D01*
X88163000Y-93977393D01*
X88884612Y-93977393D01*
X88950137Y-94216260D01*
X89197116Y-94332160D01*
X89461960Y-94397650D01*
X89734492Y-94410212D01*
X90004238Y-94369365D01*
X90260832Y-94276677D01*
X90373863Y-94216260D01*
X90405397Y-94101303D01*
X91196407Y-94101303D01*
X91234665Y-94327137D01*
X91316246Y-94541167D01*
X91347675Y-94599969D01*
X91563919Y-94638476D01*
X92182395Y-94020000D01*
X91563919Y-93401524D01*
X91347675Y-93440031D01*
X91254019Y-93649060D01*
X91202942Y-93872345D01*
X91196407Y-94101303D01*
X90405397Y-94101303D01*
X90439388Y-93977393D01*
X89662000Y-93200005D01*
X88884612Y-93977393D01*
X88163000Y-93977393D01*
X88163000Y-93092892D01*
X88272188Y-93092892D01*
X88313035Y-93362638D01*
X88405723Y-93619232D01*
X88466140Y-93732263D01*
X88705007Y-93797788D01*
X89482395Y-93020400D01*
X89841605Y-93020400D01*
X90618993Y-93797788D01*
X90857860Y-93732263D01*
X90973760Y-93485284D01*
X91039250Y-93220440D01*
X91051812Y-92947908D01*
X91010965Y-92678162D01*
X90918277Y-92421568D01*
X90857860Y-92308537D01*
X90618993Y-92243012D01*
X89841605Y-93020400D01*
X89482395Y-93020400D01*
X88705007Y-92243012D01*
X88466140Y-92308537D01*
X88350240Y-92555516D01*
X88284750Y-92820360D01*
X88272188Y-93092892D01*
X88163000Y-93092892D01*
X88163000Y-92063407D01*
X88884612Y-92063407D01*
X89662000Y-92840795D01*
X90439388Y-92063407D01*
X90373863Y-91824540D01*
X90126884Y-91708640D01*
X89862040Y-91643150D01*
X89589508Y-91630588D01*
X89319762Y-91671435D01*
X89063168Y-91764123D01*
X88950137Y-91824540D01*
X88884612Y-92063407D01*
X88163000Y-92063407D01*
X88163000Y-66365047D01*
X88240855Y-66756450D01*
X88491651Y-67361925D01*
X88855750Y-67906839D01*
X89319161Y-68370250D01*
X89864075Y-68734349D01*
X90469550Y-68985145D01*
X91112319Y-69113000D01*
X91767681Y-69113000D01*
X92410450Y-68985145D01*
X93015925Y-68734349D01*
X93560839Y-68370250D01*
X94024250Y-67906839D01*
X94388349Y-67361925D01*
X94639145Y-66756450D01*
X94767000Y-66113681D01*
X94767000Y-65458319D01*
X94639145Y-64815550D01*
X94388349Y-64210075D01*
X94024250Y-63665161D01*
X93560839Y-63201750D01*
X93015925Y-62837651D01*
X92410450Y-62586855D01*
X91767681Y-62459000D01*
X91112319Y-62459000D01*
X90469550Y-62586855D01*
X89864075Y-62837651D01*
X89319161Y-63201750D01*
X88855750Y-63665161D01*
X88491651Y-64210075D01*
X88240855Y-64815550D01*
X88163000Y-65206953D01*
X88163000Y-64275641D01*
X88202535Y-63872433D01*
X88315674Y-63497699D01*
X88499442Y-63152084D01*
X88746843Y-62848739D01*
X89048446Y-62599231D01*
X89392772Y-62413055D01*
X89766706Y-62297303D01*
X90169157Y-62255004D01*
X90170409Y-62255000D01*
X138924359Y-62255000D01*
X139327567Y-62294535D01*
G36*
X105537000Y-76083110D02*
G01*
X105537000Y-76244890D01*
X105426971Y-76354919D01*
X105410000Y-76337948D01*
X105393029Y-76354919D01*
X105283000Y-76244890D01*
X105283000Y-76083110D01*
X105393029Y-75973081D01*
X105410000Y-75990052D01*
X105426971Y-75973081D01*
X105537000Y-76083110D01*
X105537000Y-76083110D01*
G37*
X105537000Y-76083110D02*
X105537000Y-76244890D01*
X105426971Y-76354919D01*
X105410000Y-76337948D01*
X105393029Y-76354919D01*
X105283000Y-76244890D01*
X105283000Y-76083110D01*
X105393029Y-75973081D01*
X105410000Y-75990052D01*
X105426971Y-75973081D01*
X105537000Y-76083110D01*
G36*
X105537000Y-74958110D02*
G01*
X105537000Y-75119890D01*
X105426971Y-75229919D01*
X105410000Y-75212948D01*
X105393029Y-75229919D01*
X105283000Y-75119890D01*
X105283000Y-74958110D01*
X105393029Y-74848081D01*
X105410000Y-74865052D01*
X105426971Y-74848081D01*
X105537000Y-74958110D01*
X105537000Y-74958110D01*
G37*
X105537000Y-74958110D02*
X105537000Y-75119890D01*
X105426971Y-75229919D01*
X105410000Y-75212948D01*
X105393029Y-75229919D01*
X105283000Y-75119890D01*
X105283000Y-74958110D01*
X105393029Y-74848081D01*
X105410000Y-74865052D01*
X105426971Y-74848081D01*
X105537000Y-74958110D01*
G36*
X105600919Y-73897029D02*
G01*
X105583948Y-73914000D01*
X105600919Y-73930971D01*
X105426971Y-74104919D01*
X105410000Y-74087948D01*
X105393029Y-74104919D01*
X105219081Y-73930971D01*
X105236052Y-73914000D01*
X105219081Y-73897029D01*
X105393029Y-73723081D01*
X105410000Y-73740052D01*
X105426971Y-73723081D01*
X105600919Y-73897029D01*
X105600919Y-73897029D01*
G37*
X105600919Y-73897029D02*
X105583948Y-73914000D01*
X105600919Y-73930971D01*
X105426971Y-74104919D01*
X105410000Y-74087948D01*
X105393029Y-74104919D01*
X105219081Y-73930971D01*
X105236052Y-73914000D01*
X105219081Y-73897029D01*
X105393029Y-73723081D01*
X105410000Y-73740052D01*
X105426971Y-73723081D01*
X105600919Y-73897029D01*
G36*
X106725919Y-73897029D02*
G01*
X106708948Y-73914000D01*
X106725919Y-73930971D01*
X106615890Y-74041000D01*
X106454110Y-74041000D01*
X106344081Y-73930971D01*
X106361052Y-73914000D01*
X106344081Y-73897029D01*
X106454110Y-73787000D01*
X106615890Y-73787000D01*
X106725919Y-73897029D01*
X106725919Y-73897029D01*
G37*
X106725919Y-73897029D02*
X106708948Y-73914000D01*
X106725919Y-73930971D01*
X106615890Y-74041000D01*
X106454110Y-74041000D01*
X106344081Y-73930971D01*
X106361052Y-73914000D01*
X106344081Y-73897029D01*
X106454110Y-73787000D01*
X106615890Y-73787000D01*
X106725919Y-73897029D01*
G36*
X107850919Y-73897029D02*
G01*
X107833948Y-73914000D01*
X107850919Y-73930971D01*
X107740890Y-74041000D01*
X107579110Y-74041000D01*
X107469081Y-73930971D01*
X107486052Y-73914000D01*
X107469081Y-73897029D01*
X107579110Y-73787000D01*
X107740890Y-73787000D01*
X107850919Y-73897029D01*
X107850919Y-73897029D01*
G37*
X107850919Y-73897029D02*
X107833948Y-73914000D01*
X107850919Y-73930971D01*
X107740890Y-74041000D01*
X107579110Y-74041000D01*
X107469081Y-73930971D01*
X107486052Y-73914000D01*
X107469081Y-73897029D01*
X107579110Y-73787000D01*
X107740890Y-73787000D01*
X107850919Y-73897029D01*
G36*
X103350919Y-73897029D02*
G01*
X103333948Y-73914000D01*
X103350919Y-73930971D01*
X103240890Y-74041000D01*
X103079110Y-74041000D01*
X102969081Y-73930971D01*
X102986052Y-73914000D01*
X102969081Y-73897029D01*
X103079110Y-73787000D01*
X103240890Y-73787000D01*
X103350919Y-73897029D01*
X103350919Y-73897029D01*
G37*
X103350919Y-73897029D02*
X103333948Y-73914000D01*
X103350919Y-73930971D01*
X103240890Y-74041000D01*
X103079110Y-74041000D01*
X102969081Y-73930971D01*
X102986052Y-73914000D01*
X102969081Y-73897029D01*
X103079110Y-73787000D01*
X103240890Y-73787000D01*
X103350919Y-73897029D01*
G36*
X104475919Y-73897029D02*
G01*
X104458948Y-73914000D01*
X104475919Y-73930971D01*
X104365890Y-74041000D01*
X104204110Y-74041000D01*
X104094081Y-73930971D01*
X104111052Y-73914000D01*
X104094081Y-73897029D01*
X104204110Y-73787000D01*
X104365890Y-73787000D01*
X104475919Y-73897029D01*
X104475919Y-73897029D01*
G37*
X104475919Y-73897029D02*
X104458948Y-73914000D01*
X104475919Y-73930971D01*
X104365890Y-74041000D01*
X104204110Y-74041000D01*
X104094081Y-73930971D01*
X104111052Y-73914000D01*
X104094081Y-73897029D01*
X104204110Y-73787000D01*
X104365890Y-73787000D01*
X104475919Y-73897029D01*
G36*
X105537000Y-72708110D02*
G01*
X105537000Y-72869890D01*
X105426971Y-72979919D01*
X105410000Y-72962948D01*
X105393029Y-72979919D01*
X105283000Y-72869890D01*
X105283000Y-72708110D01*
X105393029Y-72598081D01*
X105410000Y-72615052D01*
X105426971Y-72598081D01*
X105537000Y-72708110D01*
X105537000Y-72708110D01*
G37*
X105537000Y-72708110D02*
X105537000Y-72869890D01*
X105426971Y-72979919D01*
X105410000Y-72962948D01*
X105393029Y-72979919D01*
X105283000Y-72869890D01*
X105283000Y-72708110D01*
X105393029Y-72598081D01*
X105410000Y-72615052D01*
X105426971Y-72598081D01*
X105537000Y-72708110D01*
G36*
X105537000Y-71583110D02*
G01*
X105537000Y-71744890D01*
X105426971Y-71854919D01*
X105410000Y-71837948D01*
X105393029Y-71854919D01*
X105283000Y-71744890D01*
X105283000Y-71583110D01*
X105393029Y-71473081D01*
X105410000Y-71490052D01*
X105426971Y-71473081D01*
X105537000Y-71583110D01*
X105537000Y-71583110D01*
G37*
X105537000Y-71583110D02*
X105537000Y-71744890D01*
X105426971Y-71854919D01*
X105410000Y-71837948D01*
X105393029Y-71854919D01*
X105283000Y-71744890D01*
X105283000Y-71583110D01*
X105393029Y-71473081D01*
X105410000Y-71490052D01*
X105426971Y-71473081D01*
X105537000Y-71583110D01*
G36*
X115880003Y-94169660D02*
G01*
X115868566Y-94177302D01*
X115767304Y-94278564D01*
X115687743Y-94397636D01*
X115632940Y-94529942D01*
X115605002Y-94670397D01*
X115605002Y-94813603D01*
X115632940Y-94954058D01*
X115687743Y-95086364D01*
X115767304Y-95205436D01*
X115868566Y-95306698D01*
X115987638Y-95386259D01*
X116119944Y-95441062D01*
X116260399Y-95469000D01*
X116403605Y-95469000D01*
X116544060Y-95441062D01*
X116676366Y-95386259D01*
X116795438Y-95306698D01*
X116896700Y-95205436D01*
X116976261Y-95086364D01*
X117031064Y-94954058D01*
X117059002Y-94813603D01*
X117059002Y-94670397D01*
X117031064Y-94529942D01*
X116976261Y-94397636D01*
X116896700Y-94278564D01*
X116795438Y-94177302D01*
X116784002Y-94169661D01*
X116784002Y-87650608D01*
X116880520Y-87747126D01*
X117065892Y-87870988D01*
X117271866Y-87956305D01*
X117490527Y-87999800D01*
X117713473Y-87999800D01*
X117932134Y-87956305D01*
X118138108Y-87870988D01*
X118293000Y-87767492D01*
X118293000Y-95570775D01*
X117306093Y-96557683D01*
X117292603Y-96555000D01*
X117149397Y-96555000D01*
X117008942Y-96582938D01*
X116876636Y-96637741D01*
X116757564Y-96717302D01*
X116656302Y-96818564D01*
X116576741Y-96937636D01*
X116521938Y-97069942D01*
X116494000Y-97210397D01*
X116494000Y-97353603D01*
X116521938Y-97494058D01*
X116576741Y-97626364D01*
X116656302Y-97745436D01*
X116757564Y-97846698D01*
X116876636Y-97926259D01*
X117008942Y-97981062D01*
X117022932Y-97983845D01*
X115401094Y-99605683D01*
X115387603Y-99603000D01*
X115244397Y-99603000D01*
X115103942Y-99630938D01*
X114971636Y-99685741D01*
X114879000Y-99747638D01*
X114879000Y-98447205D01*
X114881187Y-98425000D01*
X114872460Y-98336392D01*
X114846614Y-98251190D01*
X114837993Y-98235062D01*
X114804643Y-98172667D01*
X114748159Y-98103841D01*
X114730906Y-98089682D01*
X111450068Y-94808844D01*
X111464054Y-94806062D01*
X111596360Y-94751259D01*
X111715432Y-94671698D01*
X111816694Y-94570436D01*
X111896255Y-94451364D01*
X111951058Y-94319058D01*
X111978996Y-94178603D01*
X111978996Y-94035397D01*
X111951058Y-93894942D01*
X111896255Y-93762636D01*
X111816694Y-93643564D01*
X111715432Y-93542302D01*
X111596360Y-93462741D01*
X111464054Y-93407938D01*
X111323599Y-93380000D01*
X111180393Y-93380000D01*
X111166904Y-93382683D01*
X109304199Y-91519980D01*
X109304199Y-87776311D01*
X109445892Y-87870988D01*
X109651866Y-87956305D01*
X109870527Y-87999800D01*
X110093473Y-87999800D01*
X110312134Y-87956305D01*
X110518108Y-87870988D01*
X110664701Y-87773037D01*
X110664701Y-88980091D01*
X110661952Y-89008001D01*
X110672925Y-89119407D01*
X110683419Y-89154000D01*
X110705421Y-89226531D01*
X110758191Y-89325259D01*
X110829208Y-89411794D01*
X110850895Y-89429592D01*
X112431265Y-91009962D01*
X112457938Y-91144058D01*
X112512741Y-91276364D01*
X112592302Y-91395436D01*
X112693564Y-91496698D01*
X112812636Y-91576259D01*
X112944942Y-91631062D01*
X113085397Y-91659000D01*
X113228603Y-91659000D01*
X113369058Y-91631062D01*
X113467001Y-91590493D01*
X113467001Y-92391660D01*
X113455564Y-92399302D01*
X113354302Y-92500564D01*
X113274741Y-92619636D01*
X113219938Y-92751942D01*
X113192000Y-92892397D01*
X113192000Y-93035603D01*
X113219938Y-93176058D01*
X113274741Y-93308364D01*
X113354302Y-93427436D01*
X113455564Y-93528698D01*
X113574636Y-93608259D01*
X113706942Y-93663062D01*
X113847397Y-93691000D01*
X113990603Y-93691000D01*
X114131058Y-93663062D01*
X114263364Y-93608259D01*
X114382436Y-93528698D01*
X114483698Y-93427436D01*
X114563259Y-93308364D01*
X114618062Y-93176058D01*
X114646000Y-93035603D01*
X114646000Y-92892397D01*
X114618062Y-92751942D01*
X114563259Y-92619636D01*
X114483698Y-92500564D01*
X114382436Y-92399302D01*
X114371000Y-92391661D01*
X114371000Y-90909521D01*
X114417741Y-91022364D01*
X114497302Y-91141436D01*
X114598564Y-91242698D01*
X114717636Y-91322259D01*
X114849942Y-91377062D01*
X114990397Y-91405000D01*
X115133603Y-91405000D01*
X115274058Y-91377062D01*
X115406364Y-91322259D01*
X115525436Y-91242698D01*
X115626698Y-91141436D01*
X115706259Y-91022364D01*
X115761062Y-90890058D01*
X115789000Y-90749603D01*
X115789000Y-90606397D01*
X115761062Y-90465942D01*
X115706259Y-90333636D01*
X115626698Y-90214564D01*
X115525436Y-90113302D01*
X115514000Y-90105661D01*
X115514000Y-87905827D01*
X115598108Y-87870988D01*
X115783480Y-87747126D01*
X115880003Y-87650603D01*
X115880003Y-94169660D01*
X115880003Y-94169660D01*
G37*
X115880003Y-94169660D02*
X115868566Y-94177302D01*
X115767304Y-94278564D01*
X115687743Y-94397636D01*
X115632940Y-94529942D01*
X115605002Y-94670397D01*
X115605002Y-94813603D01*
X115632940Y-94954058D01*
X115687743Y-95086364D01*
X115767304Y-95205436D01*
X115868566Y-95306698D01*
X115987638Y-95386259D01*
X116119944Y-95441062D01*
X116260399Y-95469000D01*
X116403605Y-95469000D01*
X116544060Y-95441062D01*
X116676366Y-95386259D01*
X116795438Y-95306698D01*
X116896700Y-95205436D01*
X116976261Y-95086364D01*
X117031064Y-94954058D01*
X117059002Y-94813603D01*
X117059002Y-94670397D01*
X117031064Y-94529942D01*
X116976261Y-94397636D01*
X116896700Y-94278564D01*
X116795438Y-94177302D01*
X116784002Y-94169661D01*
X116784002Y-87650608D01*
X116880520Y-87747126D01*
X117065892Y-87870988D01*
X117271866Y-87956305D01*
X117490527Y-87999800D01*
X117713473Y-87999800D01*
X117932134Y-87956305D01*
X118138108Y-87870988D01*
X118293000Y-87767492D01*
X118293000Y-95570775D01*
X117306093Y-96557683D01*
X117292603Y-96555000D01*
X117149397Y-96555000D01*
X117008942Y-96582938D01*
X116876636Y-96637741D01*
X116757564Y-96717302D01*
X116656302Y-96818564D01*
X116576741Y-96937636D01*
X116521938Y-97069942D01*
X116494000Y-97210397D01*
X116494000Y-97353603D01*
X116521938Y-97494058D01*
X116576741Y-97626364D01*
X116656302Y-97745436D01*
X116757564Y-97846698D01*
X116876636Y-97926259D01*
X117008942Y-97981062D01*
X117022932Y-97983845D01*
X115401094Y-99605683D01*
X115387603Y-99603000D01*
X115244397Y-99603000D01*
X115103942Y-99630938D01*
X114971636Y-99685741D01*
X114879000Y-99747638D01*
X114879000Y-98447205D01*
X114881187Y-98425000D01*
X114872460Y-98336392D01*
X114846614Y-98251190D01*
X114837993Y-98235062D01*
X114804643Y-98172667D01*
X114748159Y-98103841D01*
X114730906Y-98089682D01*
X111450068Y-94808844D01*
X111464054Y-94806062D01*
X111596360Y-94751259D01*
X111715432Y-94671698D01*
X111816694Y-94570436D01*
X111896255Y-94451364D01*
X111951058Y-94319058D01*
X111978996Y-94178603D01*
X111978996Y-94035397D01*
X111951058Y-93894942D01*
X111896255Y-93762636D01*
X111816694Y-93643564D01*
X111715432Y-93542302D01*
X111596360Y-93462741D01*
X111464054Y-93407938D01*
X111323599Y-93380000D01*
X111180393Y-93380000D01*
X111166904Y-93382683D01*
X109304199Y-91519980D01*
X109304199Y-87776311D01*
X109445892Y-87870988D01*
X109651866Y-87956305D01*
X109870527Y-87999800D01*
X110093473Y-87999800D01*
X110312134Y-87956305D01*
X110518108Y-87870988D01*
X110664701Y-87773037D01*
X110664701Y-88980091D01*
X110661952Y-89008001D01*
X110672925Y-89119407D01*
X110683419Y-89154000D01*
X110705421Y-89226531D01*
X110758191Y-89325259D01*
X110829208Y-89411794D01*
X110850895Y-89429592D01*
X112431265Y-91009962D01*
X112457938Y-91144058D01*
X112512741Y-91276364D01*
X112592302Y-91395436D01*
X112693564Y-91496698D01*
X112812636Y-91576259D01*
X112944942Y-91631062D01*
X113085397Y-91659000D01*
X113228603Y-91659000D01*
X113369058Y-91631062D01*
X113467001Y-91590493D01*
X113467001Y-92391660D01*
X113455564Y-92399302D01*
X113354302Y-92500564D01*
X113274741Y-92619636D01*
X113219938Y-92751942D01*
X113192000Y-92892397D01*
X113192000Y-93035603D01*
X113219938Y-93176058D01*
X113274741Y-93308364D01*
X113354302Y-93427436D01*
X113455564Y-93528698D01*
X113574636Y-93608259D01*
X113706942Y-93663062D01*
X113847397Y-93691000D01*
X113990603Y-93691000D01*
X114131058Y-93663062D01*
X114263364Y-93608259D01*
X114382436Y-93528698D01*
X114483698Y-93427436D01*
X114563259Y-93308364D01*
X114618062Y-93176058D01*
X114646000Y-93035603D01*
X114646000Y-92892397D01*
X114618062Y-92751942D01*
X114563259Y-92619636D01*
X114483698Y-92500564D01*
X114382436Y-92399302D01*
X114371000Y-92391661D01*
X114371000Y-90909521D01*
X114417741Y-91022364D01*
X114497302Y-91141436D01*
X114598564Y-91242698D01*
X114717636Y-91322259D01*
X114849942Y-91377062D01*
X114990397Y-91405000D01*
X115133603Y-91405000D01*
X115274058Y-91377062D01*
X115406364Y-91322259D01*
X115525436Y-91242698D01*
X115626698Y-91141436D01*
X115706259Y-91022364D01*
X115761062Y-90890058D01*
X115789000Y-90749603D01*
X115789000Y-90606397D01*
X115761062Y-90465942D01*
X115706259Y-90333636D01*
X115626698Y-90214564D01*
X115525436Y-90113302D01*
X115514000Y-90105661D01*
X115514000Y-87905827D01*
X115598108Y-87870988D01*
X115783480Y-87747126D01*
X115880003Y-87650603D01*
X115880003Y-94169660D01*
M02*
