G04 #@! TF.GenerationSoftware,KiCad,Pcbnew,(5.1.2-1)-1*
G04 #@! TF.CreationDate,2019-06-19T14:35:12-04:00*
G04 #@! TF.ProjectId,syringe_board,73797269-6e67-4655-9f62-6f6172642e6b,rev?*
G04 #@! TF.SameCoordinates,Original*
G04 #@! TF.FileFunction,Legend,Top*
G04 #@! TF.FilePolarity,Positive*
%FSLAX46Y46*%
G04 Gerber Fmt 4.6, Leading zero omitted, Abs format (unit mm)*
G04 Created by KiCad (PCBNEW (5.1.2-1)-1) date 2019-06-19 14:35:12*
%MOMM*%
%LPD*%
G04 APERTURE LIST*
%ADD10C,0.457200*%
%ADD11C,0.508000*%
%ADD12C,0.150000*%
%ADD13C,0.279400*%
%ADD14C,0.120000*%
%ADD15C,0.127000*%
%ADD16C,0.100000*%
%ADD17C,0.400000*%
G04 APERTURE END LIST*
D10*
X108331000Y-76708000D02*
G75*
G03X108331000Y-76708000I-127000J0D01*
G01*
D11*
X106426000Y-100584000D02*
G75*
G03X106426000Y-100584000I-254000J0D01*
G01*
D12*
X125530428Y-92800714D02*
X125530428Y-93417571D01*
X125566714Y-93490142D01*
X125603000Y-93526428D01*
X125675571Y-93562714D01*
X125820714Y-93562714D01*
X125893285Y-93526428D01*
X125929571Y-93490142D01*
X125965857Y-93417571D01*
X125965857Y-92800714D01*
X126292428Y-93345000D02*
X126655285Y-93345000D01*
X126219857Y-93562714D02*
X126473857Y-92800714D01*
X126727857Y-93562714D01*
X127417285Y-93562714D02*
X127163285Y-93199857D01*
X126981857Y-93562714D02*
X126981857Y-92800714D01*
X127272142Y-92800714D01*
X127344714Y-92837000D01*
X127381000Y-92873285D01*
X127417285Y-92945857D01*
X127417285Y-93054714D01*
X127381000Y-93127285D01*
X127344714Y-93163571D01*
X127272142Y-93199857D01*
X126981857Y-93199857D01*
X127635000Y-92800714D02*
X128070428Y-92800714D01*
X127852714Y-93562714D02*
X127852714Y-92800714D01*
X130610428Y-92800714D02*
X130610428Y-93417571D01*
X130646714Y-93490142D01*
X130683000Y-93526428D01*
X130755571Y-93562714D01*
X130900714Y-93562714D01*
X130973285Y-93526428D01*
X131009571Y-93490142D01*
X131045857Y-93417571D01*
X131045857Y-92800714D01*
X131372428Y-93345000D02*
X131735285Y-93345000D01*
X131299857Y-93562714D02*
X131553857Y-92800714D01*
X131807857Y-93562714D01*
X132497285Y-93562714D02*
X132243285Y-93199857D01*
X132061857Y-93562714D02*
X132061857Y-92800714D01*
X132352142Y-92800714D01*
X132424714Y-92837000D01*
X132461000Y-92873285D01*
X132497285Y-92945857D01*
X132497285Y-93054714D01*
X132461000Y-93127285D01*
X132424714Y-93163571D01*
X132352142Y-93199857D01*
X132061857Y-93199857D01*
X132715000Y-92800714D02*
X133150428Y-92800714D01*
X132932714Y-93562714D02*
X132932714Y-92800714D01*
D13*
X95492086Y-64060311D02*
X95727943Y-64138930D01*
X96121038Y-64138930D01*
X96278276Y-64060311D01*
X96356895Y-63981692D01*
X96435514Y-63824454D01*
X96435514Y-63667216D01*
X96356895Y-63509978D01*
X96278276Y-63431359D01*
X96121038Y-63352740D01*
X95806562Y-63274121D01*
X95649324Y-63195502D01*
X95570705Y-63116883D01*
X95492086Y-62959645D01*
X95492086Y-62802407D01*
X95570705Y-62645169D01*
X95649324Y-62566550D01*
X95806562Y-62487930D01*
X96199657Y-62487930D01*
X96435514Y-62566550D01*
X96985848Y-63038264D02*
X97378943Y-64138930D01*
X97772038Y-63038264D02*
X97378943Y-64138930D01*
X97221705Y-64532026D01*
X97143086Y-64610645D01*
X96985848Y-64689264D01*
X98400990Y-64138930D02*
X98400990Y-63038264D01*
X98400990Y-63352740D02*
X98479610Y-63195502D01*
X98558229Y-63116883D01*
X98715467Y-63038264D01*
X98872705Y-63038264D01*
X99423038Y-64138930D02*
X99423038Y-63038264D01*
X99423038Y-62487930D02*
X99344419Y-62566550D01*
X99423038Y-62645169D01*
X99501657Y-62566550D01*
X99423038Y-62487930D01*
X99423038Y-62645169D01*
X100209229Y-63038264D02*
X100209229Y-64138930D01*
X100209229Y-63195502D02*
X100287848Y-63116883D01*
X100445086Y-63038264D01*
X100680943Y-63038264D01*
X100838181Y-63116883D01*
X100916800Y-63274121D01*
X100916800Y-64138930D01*
X102410562Y-63038264D02*
X102410562Y-64374788D01*
X102331943Y-64532026D01*
X102253324Y-64610645D01*
X102096086Y-64689264D01*
X101860229Y-64689264D01*
X101702990Y-64610645D01*
X102410562Y-64060311D02*
X102253324Y-64138930D01*
X101938848Y-64138930D01*
X101781610Y-64060311D01*
X101702990Y-63981692D01*
X101624371Y-63824454D01*
X101624371Y-63352740D01*
X101702990Y-63195502D01*
X101781610Y-63116883D01*
X101938848Y-63038264D01*
X102253324Y-63038264D01*
X102410562Y-63116883D01*
X103825705Y-64060311D02*
X103668467Y-64138930D01*
X103353990Y-64138930D01*
X103196752Y-64060311D01*
X103118133Y-63903073D01*
X103118133Y-63274121D01*
X103196752Y-63116883D01*
X103353990Y-63038264D01*
X103668467Y-63038264D01*
X103825705Y-63116883D01*
X103904324Y-63274121D01*
X103904324Y-63431359D01*
X103118133Y-63588597D01*
X106420133Y-63274121D02*
X106655990Y-63352740D01*
X106734610Y-63431359D01*
X106813229Y-63588597D01*
X106813229Y-63824454D01*
X106734610Y-63981692D01*
X106655990Y-64060311D01*
X106498752Y-64138930D01*
X105869800Y-64138930D01*
X105869800Y-62487930D01*
X106420133Y-62487930D01*
X106577371Y-62566550D01*
X106655990Y-62645169D01*
X106734610Y-62802407D01*
X106734610Y-62959645D01*
X106655990Y-63116883D01*
X106577371Y-63195502D01*
X106420133Y-63274121D01*
X105869800Y-63274121D01*
X107756657Y-64138930D02*
X107599419Y-64060311D01*
X107520800Y-63981692D01*
X107442181Y-63824454D01*
X107442181Y-63352740D01*
X107520800Y-63195502D01*
X107599419Y-63116883D01*
X107756657Y-63038264D01*
X107992514Y-63038264D01*
X108149752Y-63116883D01*
X108228371Y-63195502D01*
X108306990Y-63352740D01*
X108306990Y-63824454D01*
X108228371Y-63981692D01*
X108149752Y-64060311D01*
X107992514Y-64138930D01*
X107756657Y-64138930D01*
X109722133Y-64138930D02*
X109722133Y-63274121D01*
X109643514Y-63116883D01*
X109486276Y-63038264D01*
X109171800Y-63038264D01*
X109014562Y-63116883D01*
X109722133Y-64060311D02*
X109564895Y-64138930D01*
X109171800Y-64138930D01*
X109014562Y-64060311D01*
X108935943Y-63903073D01*
X108935943Y-63745835D01*
X109014562Y-63588597D01*
X109171800Y-63509978D01*
X109564895Y-63509978D01*
X109722133Y-63431359D01*
X110508324Y-64138930D02*
X110508324Y-63038264D01*
X110508324Y-63352740D02*
X110586943Y-63195502D01*
X110665562Y-63116883D01*
X110822800Y-63038264D01*
X110980038Y-63038264D01*
X112237943Y-64138930D02*
X112237943Y-62487930D01*
X112237943Y-64060311D02*
X112080705Y-64138930D01*
X111766229Y-64138930D01*
X111608990Y-64060311D01*
X111530371Y-63981692D01*
X111451752Y-63824454D01*
X111451752Y-63352740D01*
X111530371Y-63195502D01*
X111608990Y-63116883D01*
X111766229Y-63038264D01*
X112080705Y-63038264D01*
X112237943Y-63116883D01*
X95413467Y-65794164D02*
X95806562Y-66894830D01*
X96199657Y-65794164D01*
X96671371Y-65243830D02*
X97693419Y-65243830D01*
X97143086Y-65872783D01*
X97378943Y-65872783D01*
X97536181Y-65951402D01*
X97614800Y-66030021D01*
X97693419Y-66187259D01*
X97693419Y-66580354D01*
X97614800Y-66737592D01*
X97536181Y-66816211D01*
X97378943Y-66894830D01*
X96907229Y-66894830D01*
X96749990Y-66816211D01*
X96671371Y-66737592D01*
X98400990Y-66737592D02*
X98479610Y-66816211D01*
X98400990Y-66894830D01*
X98322371Y-66816211D01*
X98400990Y-66737592D01*
X98400990Y-66894830D01*
X100051990Y-66894830D02*
X99108562Y-66894830D01*
X99580276Y-66894830D02*
X99580276Y-65243830D01*
X99423038Y-65479688D01*
X99265800Y-65636926D01*
X99108562Y-65715545D01*
D14*
X99600000Y-88303000D02*
X99600000Y-88703000D01*
X99800000Y-88303000D02*
X99800000Y-88703000D01*
X103400000Y-88303000D02*
X103400000Y-88703000D01*
X99600000Y-86303000D02*
X99600000Y-88303000D01*
X100800000Y-88703000D02*
X100800000Y-89103000D01*
X100800000Y-88703000D02*
X99800000Y-88703000D01*
X99800000Y-88303000D02*
X99800000Y-86303000D01*
X99800000Y-86303000D02*
X100800000Y-86303000D01*
X102600000Y-86303000D02*
X103400000Y-86303000D01*
X103400000Y-86303000D02*
X103400000Y-88303000D01*
X103400000Y-88703000D02*
X102600000Y-88703000D01*
X109020000Y-77074000D02*
X110310000Y-77074000D01*
X101800000Y-70304000D02*
X101800000Y-70754000D01*
X102250000Y-70304000D02*
X101800000Y-70304000D01*
X109020000Y-70304000D02*
X109020000Y-70754000D01*
X108570000Y-70304000D02*
X109020000Y-70304000D01*
X101800000Y-77524000D02*
X101800000Y-77074000D01*
X102250000Y-77524000D02*
X101800000Y-77524000D01*
X109020000Y-77524000D02*
X109020000Y-77074000D01*
X108570000Y-77524000D02*
X109020000Y-77524000D01*
D15*
X110082000Y-103270000D02*
X110082000Y-89770000D01*
X122582000Y-103270000D02*
X110082000Y-103270000D01*
X122582000Y-89770000D02*
X122582000Y-103270000D01*
X110082000Y-89770000D02*
X122582000Y-89770000D01*
D16*
G36*
X111332000Y-96270000D02*
G01*
X115332000Y-96270000D01*
X115332000Y-100270000D01*
X111332000Y-100270000D01*
X111332000Y-96270000D01*
G37*
D15*
X120568065Y-94270000D02*
G75*
G03X120568065Y-94270000I-2236065J0D01*
G01*
D14*
X132100250Y-79419750D02*
X132100250Y-80207250D01*
X131706500Y-79813500D02*
X132494000Y-79813500D01*
X132734000Y-84006563D02*
X133798437Y-85071000D01*
X132734000Y-79315437D02*
X133798437Y-78251000D01*
X132734000Y-79315437D02*
X132734000Y-80601000D01*
X132734000Y-84006563D02*
X132734000Y-82721000D01*
X133798437Y-85071000D02*
X139554000Y-85071000D01*
X133798437Y-78251000D02*
X139554000Y-78251000D01*
X139554000Y-78251000D02*
X139554000Y-80601000D01*
X139554000Y-85071000D02*
X139554000Y-82721000D01*
X107009000Y-66806578D02*
X107009000Y-66289422D01*
X105589000Y-66806578D02*
X105589000Y-66289422D01*
X106986000Y-81450922D02*
X106986000Y-81968078D01*
X108406000Y-81450922D02*
X108406000Y-81968078D01*
X98714779Y-79500000D02*
X98389221Y-79500000D01*
X98714779Y-80520000D02*
X98389221Y-80520000D01*
X101471000Y-81625221D02*
X101471000Y-81950779D01*
X102491000Y-81625221D02*
X102491000Y-81950779D01*
X98079779Y-76452000D02*
X97754221Y-76452000D01*
X98079779Y-77472000D02*
X97754221Y-77472000D01*
X97754221Y-75694000D02*
X98079779Y-75694000D01*
X97754221Y-74674000D02*
X98079779Y-74674000D01*
X97754221Y-73916000D02*
X98079779Y-73916000D01*
X97754221Y-72896000D02*
X98079779Y-72896000D01*
X106047000Y-81950779D02*
X106047000Y-81625221D01*
X105027000Y-81950779D02*
X105027000Y-81625221D01*
X103215221Y-67947000D02*
X103540779Y-67947000D01*
X103215221Y-66927000D02*
X103540779Y-66927000D01*
X103249000Y-81625221D02*
X103249000Y-81950779D01*
X104269000Y-81625221D02*
X104269000Y-81950779D01*
X128034000Y-95804000D02*
G75*
G02X127334000Y-96504000I-700000J0D01*
G01*
X127334000Y-94504000D02*
G75*
G02X128034000Y-95204000I0J-700000D01*
G01*
X123934000Y-95204000D02*
G75*
G02X124634000Y-94504000I700000J0D01*
G01*
X124634000Y-96504000D02*
G75*
G02X123934000Y-95804000I0J700000D01*
G01*
X127384000Y-96504000D02*
X124584000Y-96504000D01*
X123934000Y-95804000D02*
X123934000Y-95204000D01*
X124584000Y-94504000D02*
X127384000Y-94504000D01*
X128034000Y-95204000D02*
X128034000Y-95804000D01*
X127184000Y-94304000D02*
X127484000Y-94004000D01*
X127484000Y-94004000D02*
X126884000Y-94004000D01*
X127184000Y-94304000D02*
X126884000Y-94004000D01*
X133114000Y-95804000D02*
G75*
G02X132414000Y-96504000I-700000J0D01*
G01*
X132414000Y-94504000D02*
G75*
G02X133114000Y-95204000I0J-700000D01*
G01*
X129014000Y-95204000D02*
G75*
G02X129714000Y-94504000I700000J0D01*
G01*
X129714000Y-96504000D02*
G75*
G02X129014000Y-95804000I0J700000D01*
G01*
X132464000Y-96504000D02*
X129664000Y-96504000D01*
X129014000Y-95804000D02*
X129014000Y-95204000D01*
X129664000Y-94504000D02*
X132464000Y-94504000D01*
X133114000Y-95204000D02*
X133114000Y-95804000D01*
X132264000Y-94304000D02*
X132564000Y-94004000D01*
X132564000Y-94004000D02*
X131964000Y-94004000D01*
X132264000Y-94304000D02*
X131964000Y-94004000D01*
X90307279Y-70356000D02*
X89981721Y-70356000D01*
X90307279Y-71376000D02*
X89981721Y-71376000D01*
X92266500Y-71601000D02*
X94551500Y-71601000D01*
X92266500Y-70131000D02*
X92266500Y-71601000D01*
X94551500Y-70131000D02*
X92266500Y-70131000D01*
X129796000Y-90078779D02*
X129796000Y-89753221D01*
X128776000Y-90078779D02*
X128776000Y-89753221D01*
X132336000Y-90078779D02*
X132336000Y-89753221D01*
X131316000Y-90078779D02*
X131316000Y-89753221D01*
X90540721Y-89918000D02*
X90866279Y-89918000D01*
X90540721Y-88898000D02*
X90866279Y-88898000D01*
X96611221Y-105412000D02*
X96936779Y-105412000D01*
X96611221Y-104392000D02*
X96936779Y-104392000D01*
X134418000Y-107388000D02*
X134418000Y-86668000D01*
X140918000Y-107388000D02*
X134418000Y-107388000D01*
X140918000Y-86668000D02*
X140918000Y-107388000D01*
X134418000Y-86668000D02*
X140918000Y-86668000D01*
X90648000Y-74066000D02*
X93248000Y-74066000D01*
X95398000Y-80366000D02*
X95148000Y-80366000D01*
X95398000Y-74066000D02*
X95398000Y-80366000D01*
X95148000Y-74066000D02*
X95398000Y-74066000D01*
X93248000Y-80366000D02*
X90648000Y-80366000D01*
X88498000Y-74066000D02*
X88748000Y-74066000D01*
X88498000Y-80366000D02*
X88498000Y-74066000D01*
X88748000Y-80366000D02*
X88498000Y-80366000D01*
D15*
X131644000Y-61992000D02*
X140644000Y-61992000D01*
X140644000Y-61992000D02*
X140644000Y-76492000D01*
X140644000Y-76492000D02*
X138794000Y-76492000D01*
X131644000Y-76492000D02*
X131644000Y-61992000D01*
X133594000Y-76492000D02*
X131644000Y-76492000D01*
D17*
X136344000Y-77692000D02*
G75*
G03X136344000Y-77692000I-200000J0D01*
G01*
D12*
X107283000Y-101120000D02*
X108558000Y-101120000D01*
X96933000Y-101695000D02*
X97608000Y-101695000D01*
X96933000Y-91345000D02*
X97608000Y-91345000D01*
X107283000Y-91345000D02*
X106608000Y-91345000D01*
X107283000Y-101695000D02*
X106608000Y-101695000D01*
X107283000Y-91345000D02*
X107283000Y-92020000D01*
X96933000Y-91345000D02*
X96933000Y-92020000D01*
X96933000Y-101695000D02*
X96933000Y-101020000D01*
X107283000Y-101695000D02*
X107283000Y-101120000D01*
D15*
X113792000Y-61976000D02*
X129032000Y-61976000D01*
X113792000Y-80076000D02*
X113792000Y-61976000D01*
X129032000Y-80076000D02*
X113792000Y-80076000D01*
X129032000Y-61976000D02*
X129032000Y-80076000D01*
D12*
X98845690Y-88042690D02*
X99321880Y-88042690D01*
X98321880Y-88376023D02*
X98845690Y-88042690D01*
X98321880Y-87709357D01*
X99321880Y-86852214D02*
X99321880Y-87423642D01*
X99321880Y-87137928D02*
X98321880Y-87137928D01*
X98464738Y-87233166D01*
X98559976Y-87328404D01*
X98607595Y-87423642D01*
X109268380Y-77663523D02*
X109268380Y-78691619D01*
X109328857Y-78812571D01*
X109389333Y-78873047D01*
X109510285Y-78933523D01*
X109752190Y-78933523D01*
X109873142Y-78873047D01*
X109933619Y-78812571D01*
X109994095Y-78691619D01*
X109994095Y-77663523D01*
X111264095Y-78933523D02*
X110538380Y-78933523D01*
X110901238Y-78933523D02*
X110901238Y-77663523D01*
X110780285Y-77844952D01*
X110659333Y-77965904D01*
X110538380Y-78026380D01*
X117108380Y-103762023D02*
X117108380Y-104790119D01*
X117168857Y-104911071D01*
X117229333Y-104971547D01*
X117350285Y-105032023D01*
X117592190Y-105032023D01*
X117713142Y-104971547D01*
X117773619Y-104911071D01*
X117834095Y-104790119D01*
X117834095Y-103762023D01*
X118378380Y-103882976D02*
X118438857Y-103822500D01*
X118559809Y-103762023D01*
X118862190Y-103762023D01*
X118983142Y-103822500D01*
X119043619Y-103882976D01*
X119104095Y-104003928D01*
X119104095Y-104124880D01*
X119043619Y-104306309D01*
X118317904Y-105032023D01*
X119104095Y-105032023D01*
X131278333Y-83986642D02*
X131230714Y-84034261D01*
X131087857Y-84081880D01*
X130992619Y-84081880D01*
X130849761Y-84034261D01*
X130754523Y-83939023D01*
X130706904Y-83843785D01*
X130659285Y-83653309D01*
X130659285Y-83510452D01*
X130706904Y-83319976D01*
X130754523Y-83224738D01*
X130849761Y-83129500D01*
X130992619Y-83081880D01*
X131087857Y-83081880D01*
X131230714Y-83129500D01*
X131278333Y-83177119D01*
X131611666Y-83081880D02*
X132230714Y-83081880D01*
X131897380Y-83462833D01*
X132040238Y-83462833D01*
X132135476Y-83510452D01*
X132183095Y-83558071D01*
X132230714Y-83653309D01*
X132230714Y-83891404D01*
X132183095Y-83986642D01*
X132135476Y-84034261D01*
X132040238Y-84081880D01*
X131754523Y-84081880D01*
X131659285Y-84034261D01*
X131611666Y-83986642D01*
X108529380Y-66587666D02*
X108053190Y-66921000D01*
X108529380Y-67159095D02*
X107529380Y-67159095D01*
X107529380Y-66778142D01*
X107577000Y-66682904D01*
X107624619Y-66635285D01*
X107719857Y-66587666D01*
X107862714Y-66587666D01*
X107957952Y-66635285D01*
X108005571Y-66682904D01*
X108053190Y-66778142D01*
X108053190Y-67159095D01*
X107624619Y-66206714D02*
X107577000Y-66159095D01*
X107529380Y-66063857D01*
X107529380Y-65825761D01*
X107577000Y-65730523D01*
X107624619Y-65682904D01*
X107719857Y-65635285D01*
X107815095Y-65635285D01*
X107957952Y-65682904D01*
X108529380Y-66254333D01*
X108529380Y-65635285D01*
X109798380Y-81876166D02*
X109322190Y-82209500D01*
X109798380Y-82447595D02*
X108798380Y-82447595D01*
X108798380Y-82066642D01*
X108846000Y-81971404D01*
X108893619Y-81923785D01*
X108988857Y-81876166D01*
X109131714Y-81876166D01*
X109226952Y-81923785D01*
X109274571Y-81971404D01*
X109322190Y-82066642D01*
X109322190Y-82447595D01*
X109798380Y-80923785D02*
X109798380Y-81495214D01*
X109798380Y-81209500D02*
X108798380Y-81209500D01*
X108941238Y-81304738D01*
X109036476Y-81399976D01*
X109084095Y-81495214D01*
X98385333Y-81827642D02*
X98337714Y-81875261D01*
X98194857Y-81922880D01*
X98099619Y-81922880D01*
X97956761Y-81875261D01*
X97861523Y-81780023D01*
X97813904Y-81684785D01*
X97766285Y-81494309D01*
X97766285Y-81351452D01*
X97813904Y-81160976D01*
X97861523Y-81065738D01*
X97956761Y-80970500D01*
X98099619Y-80922880D01*
X98194857Y-80922880D01*
X98337714Y-80970500D01*
X98385333Y-81018119D01*
X98766285Y-81018119D02*
X98813904Y-80970500D01*
X98909142Y-80922880D01*
X99147238Y-80922880D01*
X99242476Y-80970500D01*
X99290095Y-81018119D01*
X99337714Y-81113357D01*
X99337714Y-81208595D01*
X99290095Y-81351452D01*
X98718666Y-81922880D01*
X99337714Y-81922880D01*
X102401642Y-84494666D02*
X102449261Y-84542285D01*
X102496880Y-84685142D01*
X102496880Y-84780380D01*
X102449261Y-84923238D01*
X102354023Y-85018476D01*
X102258785Y-85066095D01*
X102068309Y-85113714D01*
X101925452Y-85113714D01*
X101734976Y-85066095D01*
X101639738Y-85018476D01*
X101544500Y-84923238D01*
X101496880Y-84780380D01*
X101496880Y-84685142D01*
X101544500Y-84542285D01*
X101592119Y-84494666D01*
X101496880Y-83589904D02*
X101496880Y-84066095D01*
X101973071Y-84113714D01*
X101925452Y-84066095D01*
X101877833Y-83970857D01*
X101877833Y-83732761D01*
X101925452Y-83637523D01*
X101973071Y-83589904D01*
X102068309Y-83542285D01*
X102306404Y-83542285D01*
X102401642Y-83589904D01*
X102449261Y-83637523D01*
X102496880Y-83732761D01*
X102496880Y-83970857D01*
X102449261Y-84066095D01*
X102401642Y-84113714D01*
X97750333Y-78749142D02*
X97702714Y-78796761D01*
X97559857Y-78844380D01*
X97464619Y-78844380D01*
X97321761Y-78796761D01*
X97226523Y-78701523D01*
X97178904Y-78606285D01*
X97131285Y-78415809D01*
X97131285Y-78272952D01*
X97178904Y-78082476D01*
X97226523Y-77987238D01*
X97321761Y-77892000D01*
X97464619Y-77844380D01*
X97559857Y-77844380D01*
X97702714Y-77892000D01*
X97750333Y-77939619D01*
X98321761Y-78272952D02*
X98226523Y-78225333D01*
X98178904Y-78177714D01*
X98131285Y-78082476D01*
X98131285Y-78034857D01*
X98178904Y-77939619D01*
X98226523Y-77892000D01*
X98321761Y-77844380D01*
X98512238Y-77844380D01*
X98607476Y-77892000D01*
X98655095Y-77939619D01*
X98702714Y-78034857D01*
X98702714Y-78082476D01*
X98655095Y-78177714D01*
X98607476Y-78225333D01*
X98512238Y-78272952D01*
X98321761Y-78272952D01*
X98226523Y-78320571D01*
X98178904Y-78368190D01*
X98131285Y-78463428D01*
X98131285Y-78653904D01*
X98178904Y-78749142D01*
X98226523Y-78796761D01*
X98321761Y-78844380D01*
X98512238Y-78844380D01*
X98607476Y-78796761D01*
X98655095Y-78749142D01*
X98702714Y-78653904D01*
X98702714Y-78463428D01*
X98655095Y-78368190D01*
X98607476Y-78320571D01*
X98512238Y-78272952D01*
D15*
X96356714Y-75311000D02*
X95993857Y-75565000D01*
X96356714Y-75746428D02*
X95594714Y-75746428D01*
X95594714Y-75456142D01*
X95631000Y-75383571D01*
X95667285Y-75347285D01*
X95739857Y-75311000D01*
X95848714Y-75311000D01*
X95921285Y-75347285D01*
X95957571Y-75383571D01*
X95993857Y-75456142D01*
X95993857Y-75746428D01*
X95594714Y-75057000D02*
X95594714Y-74585285D01*
X95885000Y-74839285D01*
X95885000Y-74730428D01*
X95921285Y-74657857D01*
X95957571Y-74621571D01*
X96030142Y-74585285D01*
X96211571Y-74585285D01*
X96284142Y-74621571D01*
X96320428Y-74657857D01*
X96356714Y-74730428D01*
X96356714Y-74948142D01*
X96320428Y-75020714D01*
X96284142Y-75057000D01*
D12*
X97750333Y-72333142D02*
X97702714Y-72380761D01*
X97559857Y-72428380D01*
X97464619Y-72428380D01*
X97321761Y-72380761D01*
X97226523Y-72285523D01*
X97178904Y-72190285D01*
X97131285Y-71999809D01*
X97131285Y-71856952D01*
X97178904Y-71666476D01*
X97226523Y-71571238D01*
X97321761Y-71476000D01*
X97464619Y-71428380D01*
X97559857Y-71428380D01*
X97702714Y-71476000D01*
X97750333Y-71523619D01*
X98083666Y-71428380D02*
X98750333Y-71428380D01*
X98321761Y-72428380D01*
X106021142Y-84494666D02*
X106068761Y-84542285D01*
X106116380Y-84685142D01*
X106116380Y-84780380D01*
X106068761Y-84923238D01*
X105973523Y-85018476D01*
X105878285Y-85066095D01*
X105687809Y-85113714D01*
X105544952Y-85113714D01*
X105354476Y-85066095D01*
X105259238Y-85018476D01*
X105164000Y-84923238D01*
X105116380Y-84780380D01*
X105116380Y-84685142D01*
X105164000Y-84542285D01*
X105211619Y-84494666D01*
X105116380Y-83637523D02*
X105116380Y-83828000D01*
X105164000Y-83923238D01*
X105211619Y-83970857D01*
X105354476Y-84066095D01*
X105544952Y-84113714D01*
X105925904Y-84113714D01*
X106021142Y-84066095D01*
X106068761Y-84018476D01*
X106116380Y-83923238D01*
X106116380Y-83732761D01*
X106068761Y-83637523D01*
X106021142Y-83589904D01*
X105925904Y-83542285D01*
X105687809Y-83542285D01*
X105592571Y-83589904D01*
X105544952Y-83637523D01*
X105497333Y-83732761D01*
X105497333Y-83923238D01*
X105544952Y-84018476D01*
X105592571Y-84066095D01*
X105687809Y-84113714D01*
X103211333Y-66364142D02*
X103163714Y-66411761D01*
X103020857Y-66459380D01*
X102925619Y-66459380D01*
X102782761Y-66411761D01*
X102687523Y-66316523D01*
X102639904Y-66221285D01*
X102592285Y-66030809D01*
X102592285Y-65887952D01*
X102639904Y-65697476D01*
X102687523Y-65602238D01*
X102782761Y-65507000D01*
X102925619Y-65459380D01*
X103020857Y-65459380D01*
X103163714Y-65507000D01*
X103211333Y-65554619D01*
X104068476Y-65792714D02*
X104068476Y-66459380D01*
X103830380Y-65411761D02*
X103592285Y-66126047D01*
X104211333Y-66126047D01*
X104243142Y-84431166D02*
X104290761Y-84478785D01*
X104338380Y-84621642D01*
X104338380Y-84716880D01*
X104290761Y-84859738D01*
X104195523Y-84954976D01*
X104100285Y-85002595D01*
X103909809Y-85050214D01*
X103766952Y-85050214D01*
X103576476Y-85002595D01*
X103481238Y-84954976D01*
X103386000Y-84859738D01*
X103338380Y-84716880D01*
X103338380Y-84621642D01*
X103386000Y-84478785D01*
X103433619Y-84431166D01*
X104338380Y-83478785D02*
X104338380Y-84050214D01*
X104338380Y-83764500D02*
X103338380Y-83764500D01*
X103481238Y-83859738D01*
X103576476Y-83954976D01*
X103624095Y-84050214D01*
X89241333Y-69921380D02*
X88908000Y-69445190D01*
X88669904Y-69921380D02*
X88669904Y-68921380D01*
X89050857Y-68921380D01*
X89146095Y-68969000D01*
X89193714Y-69016619D01*
X89241333Y-69111857D01*
X89241333Y-69254714D01*
X89193714Y-69349952D01*
X89146095Y-69397571D01*
X89050857Y-69445190D01*
X88669904Y-69445190D01*
X90098476Y-69254714D02*
X90098476Y-69921380D01*
X89860380Y-68873761D02*
X89622285Y-69588047D01*
X90241333Y-69588047D01*
X93013404Y-69921380D02*
X93013404Y-68921380D01*
X93251500Y-68921380D01*
X93394357Y-68969000D01*
X93489595Y-69064238D01*
X93537214Y-69159476D01*
X93584833Y-69349952D01*
X93584833Y-69492809D01*
X93537214Y-69683285D01*
X93489595Y-69778523D01*
X93394357Y-69873761D01*
X93251500Y-69921380D01*
X93013404Y-69921380D01*
X94537214Y-69921380D02*
X93965785Y-69921380D01*
X94251500Y-69921380D02*
X94251500Y-68921380D01*
X94156261Y-69064238D01*
X94061023Y-69159476D01*
X93965785Y-69207095D01*
X128341380Y-90082666D02*
X127865190Y-90416000D01*
X128341380Y-90654095D02*
X127341380Y-90654095D01*
X127341380Y-90273142D01*
X127389000Y-90177904D01*
X127436619Y-90130285D01*
X127531857Y-90082666D01*
X127674714Y-90082666D01*
X127769952Y-90130285D01*
X127817571Y-90177904D01*
X127865190Y-90273142D01*
X127865190Y-90654095D01*
X127341380Y-89225523D02*
X127341380Y-89416000D01*
X127389000Y-89511238D01*
X127436619Y-89558857D01*
X127579476Y-89654095D01*
X127769952Y-89701714D01*
X128150904Y-89701714D01*
X128246142Y-89654095D01*
X128293761Y-89606476D01*
X128341380Y-89511238D01*
X128341380Y-89320761D01*
X128293761Y-89225523D01*
X128246142Y-89177904D01*
X128150904Y-89130285D01*
X127912809Y-89130285D01*
X127817571Y-89177904D01*
X127769952Y-89225523D01*
X127722333Y-89320761D01*
X127722333Y-89511238D01*
X127769952Y-89606476D01*
X127817571Y-89654095D01*
X127912809Y-89701714D01*
X133802380Y-90082666D02*
X133326190Y-90416000D01*
X133802380Y-90654095D02*
X132802380Y-90654095D01*
X132802380Y-90273142D01*
X132850000Y-90177904D01*
X132897619Y-90130285D01*
X132992857Y-90082666D01*
X133135714Y-90082666D01*
X133230952Y-90130285D01*
X133278571Y-90177904D01*
X133326190Y-90273142D01*
X133326190Y-90654095D01*
X132802380Y-89177904D02*
X132802380Y-89654095D01*
X133278571Y-89701714D01*
X133230952Y-89654095D01*
X133183333Y-89558857D01*
X133183333Y-89320761D01*
X133230952Y-89225523D01*
X133278571Y-89177904D01*
X133373809Y-89130285D01*
X133611904Y-89130285D01*
X133707142Y-89177904D01*
X133754761Y-89225523D01*
X133802380Y-89320761D01*
X133802380Y-89558857D01*
X133754761Y-89654095D01*
X133707142Y-89701714D01*
X90536833Y-88430380D02*
X90203500Y-87954190D01*
X89965404Y-88430380D02*
X89965404Y-87430380D01*
X90346357Y-87430380D01*
X90441595Y-87478000D01*
X90489214Y-87525619D01*
X90536833Y-87620857D01*
X90536833Y-87763714D01*
X90489214Y-87858952D01*
X90441595Y-87906571D01*
X90346357Y-87954190D01*
X89965404Y-87954190D01*
X91108261Y-87858952D02*
X91013023Y-87811333D01*
X90965404Y-87763714D01*
X90917785Y-87668476D01*
X90917785Y-87620857D01*
X90965404Y-87525619D01*
X91013023Y-87478000D01*
X91108261Y-87430380D01*
X91298738Y-87430380D01*
X91393976Y-87478000D01*
X91441595Y-87525619D01*
X91489214Y-87620857D01*
X91489214Y-87668476D01*
X91441595Y-87763714D01*
X91393976Y-87811333D01*
X91298738Y-87858952D01*
X91108261Y-87858952D01*
X91013023Y-87906571D01*
X90965404Y-87954190D01*
X90917785Y-88049428D01*
X90917785Y-88239904D01*
X90965404Y-88335142D01*
X91013023Y-88382761D01*
X91108261Y-88430380D01*
X91298738Y-88430380D01*
X91393976Y-88382761D01*
X91441595Y-88335142D01*
X91489214Y-88239904D01*
X91489214Y-88049428D01*
X91441595Y-87954190D01*
X91393976Y-87906571D01*
X91298738Y-87858952D01*
X96162833Y-104020880D02*
X95829500Y-103544690D01*
X95591404Y-104020880D02*
X95591404Y-103020880D01*
X95972357Y-103020880D01*
X96067595Y-103068500D01*
X96115214Y-103116119D01*
X96162833Y-103211357D01*
X96162833Y-103354214D01*
X96115214Y-103449452D01*
X96067595Y-103497071D01*
X95972357Y-103544690D01*
X95591404Y-103544690D01*
X96496166Y-103020880D02*
X97162833Y-103020880D01*
X96734261Y-104020880D01*
X133183380Y-98758333D02*
X133897666Y-98758333D01*
X134040523Y-98805952D01*
X134135761Y-98901190D01*
X134183380Y-99044047D01*
X134183380Y-99139285D01*
X133183380Y-98377380D02*
X133183380Y-97758333D01*
X133564333Y-98091666D01*
X133564333Y-97948809D01*
X133611952Y-97853571D01*
X133659571Y-97805952D01*
X133754809Y-97758333D01*
X133992904Y-97758333D01*
X134088142Y-97805952D01*
X134135761Y-97853571D01*
X134183380Y-97948809D01*
X134183380Y-98234523D01*
X134135761Y-98329761D01*
X134088142Y-98377380D01*
X91186095Y-73556761D02*
X91328952Y-73604380D01*
X91567047Y-73604380D01*
X91662285Y-73556761D01*
X91709904Y-73509142D01*
X91757523Y-73413904D01*
X91757523Y-73318666D01*
X91709904Y-73223428D01*
X91662285Y-73175809D01*
X91567047Y-73128190D01*
X91376571Y-73080571D01*
X91281333Y-73032952D01*
X91233714Y-72985333D01*
X91186095Y-72890095D01*
X91186095Y-72794857D01*
X91233714Y-72699619D01*
X91281333Y-72652000D01*
X91376571Y-72604380D01*
X91614666Y-72604380D01*
X91757523Y-72652000D01*
X92709904Y-73604380D02*
X92138476Y-73604380D01*
X92424190Y-73604380D02*
X92424190Y-72604380D01*
X92328952Y-72747238D01*
X92233714Y-72842476D01*
X92138476Y-72890095D01*
X130008380Y-63452333D02*
X130722666Y-63452333D01*
X130865523Y-63499952D01*
X130960761Y-63595190D01*
X131008380Y-63738047D01*
X131008380Y-63833285D01*
X131008380Y-62452333D02*
X131008380Y-63023761D01*
X131008380Y-62738047D02*
X130008380Y-62738047D01*
X130151238Y-62833285D01*
X130246476Y-62928523D01*
X130294095Y-63023761D01*
X106918880Y-101984023D02*
X106918880Y-103012119D01*
X106979357Y-103133071D01*
X107039833Y-103193547D01*
X107160785Y-103254023D01*
X107402690Y-103254023D01*
X107523642Y-103193547D01*
X107584119Y-103133071D01*
X107644595Y-103012119D01*
X107644595Y-101984023D01*
X108128404Y-101984023D02*
X108914595Y-101984023D01*
X108491261Y-102467833D01*
X108672690Y-102467833D01*
X108793642Y-102528309D01*
X108854119Y-102588785D01*
X108914595Y-102709738D01*
X108914595Y-103012119D01*
X108854119Y-103133071D01*
X108793642Y-103193547D01*
X108672690Y-103254023D01*
X108309833Y-103254023D01*
X108188880Y-103193547D01*
X108128404Y-103133071D01*
X92376666Y-91908380D02*
X92376666Y-92622666D01*
X92329047Y-92765523D01*
X92233809Y-92860761D01*
X92090952Y-92908380D01*
X91995714Y-92908380D01*
X93281428Y-92241714D02*
X93281428Y-92908380D01*
X93043333Y-91860761D02*
X92805238Y-92575047D01*
X93424285Y-92575047D01*
X127508738Y-80711523D02*
X127508738Y-81618666D01*
X127448261Y-81800095D01*
X127327309Y-81921047D01*
X127145880Y-81981523D01*
X127024928Y-81981523D01*
X128053023Y-80832476D02*
X128113500Y-80772000D01*
X128234452Y-80711523D01*
X128536833Y-80711523D01*
X128657785Y-80772000D01*
X128718261Y-80832476D01*
X128778738Y-80953428D01*
X128778738Y-81074380D01*
X128718261Y-81255809D01*
X127992547Y-81981523D01*
X128778738Y-81981523D01*
M02*
