G04 #@! TF.GenerationSoftware,KiCad,Pcbnew,(5.99.0-6632-gb710573c5)*
G04 #@! TF.CreationDate,2020-11-23T17:19:51-05:00*
G04 #@! TF.ProjectId,syringe_board,73797269-6e67-4655-9f62-6f6172642e6b,3.3*
G04 #@! TF.SameCoordinates,Original*
G04 #@! TF.FileFunction,Paste,Top*
G04 #@! TF.FilePolarity,Positive*
%FSLAX46Y46*%
G04 Gerber Fmt 4.6, Leading zero omitted, Abs format (unit mm)*
G04 Created by KiCad (PCBNEW (5.99.0-6632-gb710573c5)) date 2020-11-23 17:19:51*
%MOMM*%
%LPD*%
G01*
G04 APERTURE LIST*
G04 Aperture macros list*
%AMRoundRect*
0 Rectangle with rounded corners*
0 $1 Rounding radius*
0 $2 $3 $4 $5 $6 $7 $8 $9 X,Y pos of 4 corners*
0 Add a 4 corners polygon primitive as box body*
4,1,4,$2,$3,$4,$5,$6,$7,$8,$9,$2,$3,0*
0 Add four circle primitives for the rounded corners*
1,1,$1+$1,$2,$3,0*
1,1,$1+$1,$4,$5,0*
1,1,$1+$1,$6,$7,0*
1,1,$1+$1,$8,$9,0*
0 Add four rect primitives between the rounded corners*
20,1,$1+$1,$2,$3,$4,$5,0*
20,1,$1+$1,$4,$5,$6,$7,0*
20,1,$1+$1,$6,$7,$8,$9,0*
20,1,$1+$1,$8,$9,$2,$3,0*%
G04 Aperture macros list end*
%ADD10RoundRect,0.200000X0.200000X0.275000X-0.200000X0.275000X-0.200000X-0.275000X0.200000X-0.275000X0*%
%ADD11RoundRect,0.200000X-0.200000X-0.275000X0.200000X-0.275000X0.200000X0.275000X-0.200000X0.275000X0*%
%ADD12RoundRect,0.225000X0.250000X-0.225000X0.250000X0.225000X-0.250000X0.225000X-0.250000X-0.225000X0*%
%ADD13RoundRect,0.225000X-0.250000X0.225000X-0.250000X-0.225000X0.250000X-0.225000X0.250000X0.225000X0*%
%ADD14RoundRect,0.250000X0.450000X-0.262500X0.450000X0.262500X-0.450000X0.262500X-0.450000X-0.262500X0*%
%ADD15RoundRect,0.250000X0.550000X-1.500000X0.550000X1.500000X-0.550000X1.500000X-0.550000X-1.500000X0*%
%ADD16RoundRect,0.250000X-0.450000X0.262500X-0.450000X-0.262500X0.450000X-0.262500X0.450000X0.262500X0*%
%ADD17RoundRect,0.218750X-0.218750X-0.256250X0.218750X-0.256250X0.218750X0.256250X-0.218750X0.256250X0*%
%ADD18RoundRect,0.201557X0.201556X0.201556X-0.201556X0.201556X-0.201556X-0.201556X0.201556X-0.201556X0*%
%ADD19RoundRect,0.062500X0.337500X0.062500X-0.337500X0.062500X-0.337500X-0.062500X0.337500X-0.062500X0*%
%ADD20RoundRect,0.062500X0.062500X0.337500X-0.062500X0.337500X-0.062500X-0.337500X0.062500X-0.337500X0*%
%ADD21RoundRect,0.225000X0.225000X0.250000X-0.225000X0.250000X-0.225000X-0.250000X0.225000X-0.250000X0*%
%ADD22RoundRect,0.200000X-0.275000X0.200000X-0.275000X-0.200000X0.275000X-0.200000X0.275000X0.200000X0*%
%ADD23RoundRect,0.218750X-0.218750X-0.381250X0.218750X-0.381250X0.218750X0.381250X-0.218750X0.381250X0*%
%ADD24RoundRect,0.075000X0.075000X-0.662500X0.075000X0.662500X-0.075000X0.662500X-0.075000X-0.662500X0*%
%ADD25RoundRect,0.075000X0.662500X-0.075000X0.662500X0.075000X-0.662500X0.075000X-0.662500X-0.075000X0*%
%ADD26R,2.795000X0.740000*%
%ADD27RoundRect,0.250000X-0.325000X-0.650000X0.325000X-0.650000X0.325000X0.650000X-0.325000X0.650000X0*%
%ADD28RoundRect,0.150000X-0.512500X-0.150000X0.512500X-0.150000X0.512500X0.150000X-0.512500X0.150000X0*%
%ADD29RoundRect,0.200000X0.275000X-0.200000X0.275000X0.200000X-0.275000X0.200000X-0.275000X-0.200000X0*%
%ADD30RoundRect,0.250000X0.325000X0.650000X-0.325000X0.650000X-0.325000X-0.650000X0.325000X-0.650000X0*%
%ADD31R,0.760000X6.350000*%
%ADD32R,3.700000X2.200000*%
%ADD33RoundRect,0.225000X-0.225000X-0.250000X0.225000X-0.250000X0.225000X0.250000X-0.225000X0.250000X0*%
G04 APERTURE END LIST*
D10*
X144081000Y-110208637D03*
X142431000Y-110208637D03*
D11*
X122345000Y-100076000D03*
X123995000Y-100076000D03*
D12*
X162056000Y-93611250D03*
X162056000Y-92061250D03*
D13*
X154690000Y-83958750D03*
X154690000Y-85508750D03*
D14*
X160278000Y-94256750D03*
X160278000Y-92431750D03*
D12*
X165104000Y-88531250D03*
X165104000Y-86981250D03*
D15*
X130175000Y-90584000D03*
X130175000Y-85184000D03*
D11*
X139383000Y-110208637D03*
X141033000Y-110208637D03*
D16*
X156468000Y-92431750D03*
X156468000Y-94256750D03*
D17*
X122402500Y-101600000D03*
X123977500Y-101600000D03*
G36*
X157218572Y-87657409D02*
G01*
X157214843Y-87658067D01*
X157211564Y-87656174D01*
X157200489Y-87654221D01*
X157183522Y-87639984D01*
X157164343Y-87628910D01*
X157161712Y-87621682D01*
X157155820Y-87616738D01*
X157151974Y-87594927D01*
X157144399Y-87574115D01*
X157144400Y-86938384D01*
X157146353Y-86927310D01*
X157145695Y-86923581D01*
X157147588Y-86920302D01*
X157149541Y-86909228D01*
X157163777Y-86892262D01*
X157174851Y-86873082D01*
X157182079Y-86870451D01*
X157187023Y-86864559D01*
X157208834Y-86860713D01*
X157229646Y-86853138D01*
X157532734Y-86853138D01*
X157537947Y-86854057D01*
X157540164Y-86853463D01*
X157543561Y-86855047D01*
X157561890Y-86858279D01*
X157576146Y-86870242D01*
X157593012Y-86878106D01*
X157663632Y-86948727D01*
X157666668Y-86953062D01*
X157668657Y-86954211D01*
X157669940Y-86957736D01*
X157680613Y-86972979D01*
X157682235Y-86991515D01*
X157688601Y-87009005D01*
X157688599Y-87503496D01*
X157687680Y-87508706D01*
X157688275Y-87510926D01*
X157686689Y-87514326D01*
X157683458Y-87532652D01*
X157671496Y-87546907D01*
X157663631Y-87563774D01*
X157593011Y-87634394D01*
X157588676Y-87637429D01*
X157587528Y-87639418D01*
X157584005Y-87640700D01*
X157568760Y-87651375D01*
X157550222Y-87652996D01*
X157532733Y-87659362D01*
X157229645Y-87659362D01*
X157218572Y-87657409D01*
G37*
G36*
X159970055Y-87658443D02*
G01*
X159967838Y-87659037D01*
X159964442Y-87657453D01*
X159946110Y-87654221D01*
X159931852Y-87642257D01*
X159914989Y-87634394D01*
X159844368Y-87563774D01*
X159841332Y-87559438D01*
X159839343Y-87558290D01*
X159838060Y-87554766D01*
X159827387Y-87539523D01*
X159825765Y-87520986D01*
X159819399Y-87503495D01*
X159819400Y-87009004D01*
X159820319Y-87003791D01*
X159819725Y-87001573D01*
X159821309Y-86998175D01*
X159824541Y-86979848D01*
X159836504Y-86965591D01*
X159844369Y-86948725D01*
X159914990Y-86878106D01*
X159919323Y-86875072D01*
X159920472Y-86873082D01*
X159923998Y-86871799D01*
X159939242Y-86861125D01*
X159957779Y-86859503D01*
X159975267Y-86853138D01*
X160278355Y-86853138D01*
X160289429Y-86855091D01*
X160293158Y-86854433D01*
X160296437Y-86856326D01*
X160307511Y-86858279D01*
X160324479Y-86872517D01*
X160343657Y-86883591D01*
X160346287Y-86890817D01*
X160352180Y-86895762D01*
X160356026Y-86917574D01*
X160363601Y-86938385D01*
X160363599Y-87574116D01*
X160361647Y-87585187D01*
X160362305Y-87588919D01*
X160360410Y-87592201D01*
X160358458Y-87603272D01*
X160344225Y-87620234D01*
X160333149Y-87639418D01*
X160325920Y-87642049D01*
X160320976Y-87647941D01*
X160299167Y-87651787D01*
X160278354Y-87659362D01*
X159975266Y-87659362D01*
X159970055Y-87658443D01*
G37*
D18*
X158254000Y-88256250D03*
G36*
X159001541Y-86689931D02*
G01*
X158999324Y-86690525D01*
X158995927Y-86688941D01*
X158977598Y-86685709D01*
X158963340Y-86673745D01*
X158946476Y-86665881D01*
X158875856Y-86595261D01*
X158872821Y-86590926D01*
X158870832Y-86589778D01*
X158869550Y-86586255D01*
X158858875Y-86571010D01*
X158857254Y-86552472D01*
X158850888Y-86534983D01*
X158850888Y-86231895D01*
X158852841Y-86220821D01*
X158852183Y-86217092D01*
X158854076Y-86213813D01*
X158856029Y-86202739D01*
X158870265Y-86185773D01*
X158881340Y-86166593D01*
X158888568Y-86163962D01*
X158893512Y-86158070D01*
X158915323Y-86154224D01*
X158936135Y-86146649D01*
X159571866Y-86146650D01*
X159582940Y-86148603D01*
X159586669Y-86147945D01*
X159589948Y-86149838D01*
X159601022Y-86151791D01*
X159617990Y-86166029D01*
X159637168Y-86177102D01*
X159639798Y-86184328D01*
X159645691Y-86189273D01*
X159649537Y-86211085D01*
X159657112Y-86231896D01*
X159657111Y-86534984D01*
X159656192Y-86540193D01*
X159656787Y-86542412D01*
X159655202Y-86545812D01*
X159651970Y-86564140D01*
X159640008Y-86578395D01*
X159632144Y-86595261D01*
X159561524Y-86665882D01*
X159557188Y-86668918D01*
X159556040Y-86670907D01*
X159552516Y-86672190D01*
X159537273Y-86682863D01*
X159518736Y-86684485D01*
X159501245Y-86690851D01*
X159006754Y-86690850D01*
X159001541Y-86689931D01*
G37*
X158254000Y-87256250D03*
G36*
X160007726Y-86688170D02*
G01*
X159999159Y-86689527D01*
X159976730Y-86678099D01*
X159952783Y-86670317D01*
X159947683Y-86663298D01*
X159939955Y-86659360D01*
X159850889Y-86570295D01*
X159846950Y-86562565D01*
X159839932Y-86557466D01*
X159832152Y-86533522D01*
X159820723Y-86511091D01*
X159822080Y-86502523D01*
X159819399Y-86494272D01*
X159819399Y-86254161D01*
X159824661Y-86237966D01*
X159824661Y-86220938D01*
X159834671Y-86207162D01*
X159839933Y-86190967D01*
X159853709Y-86180958D01*
X159863718Y-86167182D01*
X159879913Y-86161920D01*
X159893689Y-86151911D01*
X159910717Y-86151911D01*
X159926912Y-86146649D01*
X160256089Y-86146649D01*
X160272284Y-86151911D01*
X160289312Y-86151911D01*
X160303088Y-86161921D01*
X160319283Y-86167183D01*
X160329293Y-86180961D01*
X160343068Y-86190969D01*
X160348330Y-86207162D01*
X160358339Y-86220939D01*
X160358339Y-86237968D01*
X160363601Y-86254162D01*
X160363600Y-86583339D01*
X160358339Y-86599531D01*
X160358339Y-86616562D01*
X160348327Y-86630341D01*
X160343066Y-86646533D01*
X160329292Y-86656540D01*
X160319282Y-86670318D01*
X160303085Y-86675581D01*
X160289310Y-86685589D01*
X160272283Y-86685589D01*
X160256088Y-86690851D01*
X160015977Y-86690851D01*
X160007726Y-86688170D01*
G37*
G36*
X157235716Y-86685589D02*
G01*
X157218689Y-86685589D01*
X157204913Y-86675579D01*
X157188717Y-86670317D01*
X157178708Y-86656541D01*
X157164932Y-86646532D01*
X157159670Y-86630337D01*
X157149661Y-86616561D01*
X157149661Y-86599533D01*
X157144399Y-86583338D01*
X157144399Y-86254161D01*
X157149661Y-86237966D01*
X157149661Y-86220938D01*
X157159671Y-86207162D01*
X157164933Y-86190967D01*
X157178709Y-86180958D01*
X157188718Y-86167182D01*
X157204913Y-86161920D01*
X157218689Y-86151911D01*
X157235717Y-86151911D01*
X157251912Y-86146649D01*
X157581089Y-86146649D01*
X157597284Y-86151911D01*
X157614312Y-86151911D01*
X157628088Y-86161921D01*
X157644283Y-86167183D01*
X157654293Y-86180961D01*
X157668068Y-86190969D01*
X157673330Y-86207162D01*
X157683339Y-86220939D01*
X157683339Y-86237968D01*
X157688601Y-86254162D01*
X157688600Y-86494273D01*
X157685920Y-86502522D01*
X157687277Y-86511091D01*
X157675846Y-86533525D01*
X157668066Y-86557467D01*
X157661048Y-86562566D01*
X157657110Y-86570295D01*
X157568045Y-86659361D01*
X157560315Y-86663300D01*
X157555216Y-86670318D01*
X157531272Y-86678098D01*
X157508841Y-86689527D01*
X157500273Y-86688170D01*
X157492022Y-86690851D01*
X157251911Y-86690851D01*
X157235716Y-86685589D01*
G37*
G36*
X158925061Y-89363897D02*
G01*
X158921332Y-89364555D01*
X158918053Y-89362662D01*
X158906978Y-89360709D01*
X158890011Y-89346472D01*
X158870832Y-89335399D01*
X158868201Y-89328171D01*
X158862309Y-89323227D01*
X158858463Y-89301416D01*
X158850888Y-89280604D01*
X158850888Y-88977516D01*
X158851807Y-88972303D01*
X158851213Y-88970086D01*
X158852797Y-88966689D01*
X158856029Y-88948360D01*
X158867992Y-88934104D01*
X158875856Y-88917238D01*
X158946477Y-88846618D01*
X158950811Y-88843584D01*
X158951960Y-88841593D01*
X158955487Y-88840309D01*
X158970729Y-88829637D01*
X158989265Y-88828015D01*
X159006755Y-88821649D01*
X159501246Y-88821650D01*
X159506459Y-88822569D01*
X159508677Y-88821975D01*
X159512075Y-88823559D01*
X159530402Y-88826791D01*
X159544659Y-88838754D01*
X159561525Y-88846619D01*
X159632144Y-88917240D01*
X159635179Y-88921575D01*
X159637168Y-88922723D01*
X159638451Y-88926247D01*
X159649125Y-88941492D01*
X159650747Y-88960029D01*
X159657112Y-88977517D01*
X159657111Y-89280605D01*
X159655159Y-89291676D01*
X159655817Y-89295408D01*
X159653922Y-89298690D01*
X159651970Y-89309761D01*
X159637737Y-89326723D01*
X159626660Y-89345907D01*
X159619431Y-89348538D01*
X159614487Y-89354430D01*
X159592678Y-89358276D01*
X159571865Y-89365851D01*
X158936134Y-89365850D01*
X158925061Y-89363897D01*
G37*
X159254000Y-87256250D03*
G36*
X159910716Y-89360589D02*
G01*
X159893689Y-89360589D01*
X159879913Y-89350579D01*
X159863717Y-89345317D01*
X159853708Y-89331541D01*
X159839932Y-89321532D01*
X159834670Y-89305337D01*
X159824661Y-89291561D01*
X159824661Y-89274533D01*
X159819399Y-89258338D01*
X159819399Y-89018227D01*
X159822080Y-89009976D01*
X159820723Y-89001408D01*
X159832152Y-88978977D01*
X159839933Y-88955033D01*
X159846951Y-88949934D01*
X159850890Y-88942204D01*
X159939956Y-88853139D01*
X159947684Y-88849201D01*
X159952784Y-88842182D01*
X159976731Y-88834401D01*
X159999160Y-88822973D01*
X160007727Y-88824330D01*
X160015978Y-88821649D01*
X160256089Y-88821649D01*
X160272284Y-88826911D01*
X160289312Y-88826911D01*
X160303088Y-88836921D01*
X160319283Y-88842183D01*
X160329293Y-88855961D01*
X160343068Y-88865969D01*
X160348330Y-88882162D01*
X160358339Y-88895939D01*
X160358339Y-88912968D01*
X160363601Y-88929162D01*
X160363600Y-89258339D01*
X160358339Y-89274531D01*
X160358339Y-89291562D01*
X160348327Y-89305341D01*
X160343066Y-89321533D01*
X160329292Y-89331540D01*
X160319282Y-89345318D01*
X160303085Y-89350581D01*
X160289310Y-89360589D01*
X160272283Y-89360589D01*
X160256088Y-89365851D01*
X159926911Y-89365851D01*
X159910716Y-89360589D01*
G37*
G36*
X159970055Y-88658443D02*
G01*
X159967838Y-88659037D01*
X159964442Y-88657453D01*
X159946110Y-88654221D01*
X159931852Y-88642257D01*
X159914989Y-88634394D01*
X159844368Y-88563774D01*
X159841332Y-88559438D01*
X159839343Y-88558290D01*
X159838060Y-88554766D01*
X159827387Y-88539523D01*
X159825765Y-88520986D01*
X159819399Y-88503495D01*
X159819400Y-88009004D01*
X159820319Y-88003791D01*
X159819725Y-88001573D01*
X159821309Y-87998175D01*
X159824541Y-87979848D01*
X159836504Y-87965591D01*
X159844369Y-87948725D01*
X159914990Y-87878106D01*
X159919323Y-87875072D01*
X159920472Y-87873082D01*
X159923998Y-87871799D01*
X159939242Y-87861125D01*
X159957779Y-87859503D01*
X159975267Y-87853138D01*
X160278355Y-87853138D01*
X160289429Y-87855091D01*
X160293158Y-87854433D01*
X160296437Y-87856326D01*
X160307511Y-87858279D01*
X160324479Y-87872517D01*
X160343657Y-87883591D01*
X160346287Y-87890817D01*
X160352180Y-87895762D01*
X160356026Y-87917574D01*
X160363601Y-87938385D01*
X160363599Y-88574116D01*
X160361647Y-88585187D01*
X160362305Y-88588919D01*
X160360410Y-88592201D01*
X160358458Y-88603272D01*
X160344225Y-88620234D01*
X160333149Y-88639418D01*
X160325920Y-88642049D01*
X160320976Y-88647941D01*
X160299167Y-88651787D01*
X160278354Y-88659362D01*
X159975266Y-88659362D01*
X159970055Y-88658443D01*
G37*
G36*
X157218572Y-88657409D02*
G01*
X157214843Y-88658067D01*
X157211564Y-88656174D01*
X157200489Y-88654221D01*
X157183522Y-88639984D01*
X157164343Y-88628910D01*
X157161712Y-88621682D01*
X157155820Y-88616738D01*
X157151974Y-88594927D01*
X157144399Y-88574115D01*
X157144400Y-87938384D01*
X157146353Y-87927310D01*
X157145695Y-87923581D01*
X157147588Y-87920302D01*
X157149541Y-87909228D01*
X157163777Y-87892262D01*
X157174851Y-87873082D01*
X157182079Y-87870451D01*
X157187023Y-87864559D01*
X157208834Y-87860713D01*
X157229646Y-87853138D01*
X157532734Y-87853138D01*
X157537947Y-87854057D01*
X157540164Y-87853463D01*
X157543561Y-87855047D01*
X157561890Y-87858279D01*
X157576146Y-87870242D01*
X157593012Y-87878106D01*
X157663632Y-87948727D01*
X157666668Y-87953062D01*
X157668657Y-87954211D01*
X157669940Y-87957736D01*
X157680613Y-87972979D01*
X157682235Y-87991515D01*
X157688601Y-88009005D01*
X157688599Y-88503496D01*
X157687680Y-88508706D01*
X157688275Y-88510926D01*
X157686689Y-88514326D01*
X157683458Y-88532652D01*
X157671496Y-88546907D01*
X157663631Y-88563774D01*
X157593011Y-88634394D01*
X157588676Y-88637429D01*
X157587528Y-88639418D01*
X157584005Y-88640700D01*
X157568760Y-88651375D01*
X157550222Y-88652996D01*
X157532733Y-88659362D01*
X157229645Y-88659362D01*
X157218572Y-88657409D01*
G37*
X159254000Y-88256250D03*
G36*
X157235716Y-89360589D02*
G01*
X157218689Y-89360589D01*
X157204913Y-89350579D01*
X157188717Y-89345317D01*
X157178708Y-89331541D01*
X157164932Y-89321532D01*
X157159670Y-89305337D01*
X157149661Y-89291561D01*
X157149661Y-89274533D01*
X157144399Y-89258338D01*
X157144399Y-88929161D01*
X157149661Y-88912966D01*
X157149661Y-88895938D01*
X157159671Y-88882162D01*
X157164933Y-88865967D01*
X157178709Y-88855958D01*
X157188718Y-88842182D01*
X157204913Y-88836920D01*
X157218689Y-88826911D01*
X157235717Y-88826911D01*
X157251912Y-88821649D01*
X157492023Y-88821649D01*
X157500274Y-88824330D01*
X157508842Y-88822973D01*
X157531273Y-88834402D01*
X157555217Y-88842183D01*
X157560316Y-88849201D01*
X157568046Y-88853140D01*
X157657111Y-88942206D01*
X157661049Y-88949936D01*
X157668068Y-88955035D01*
X157675848Y-88978980D01*
X157687277Y-89001410D01*
X157685920Y-89009977D01*
X157688601Y-89018228D01*
X157688600Y-89258339D01*
X157683339Y-89274531D01*
X157683339Y-89291562D01*
X157673327Y-89305341D01*
X157668066Y-89321533D01*
X157654292Y-89331540D01*
X157644282Y-89345318D01*
X157628085Y-89350581D01*
X157614310Y-89360589D01*
X157597283Y-89360589D01*
X157581088Y-89365851D01*
X157251911Y-89365851D01*
X157235716Y-89360589D01*
G37*
G36*
X157925061Y-89363897D02*
G01*
X157921332Y-89364555D01*
X157918053Y-89362662D01*
X157906978Y-89360709D01*
X157890011Y-89346472D01*
X157870832Y-89335399D01*
X157868201Y-89328171D01*
X157862309Y-89323227D01*
X157858463Y-89301416D01*
X157850888Y-89280604D01*
X157850888Y-88977516D01*
X157851807Y-88972303D01*
X157851213Y-88970086D01*
X157852797Y-88966689D01*
X157856029Y-88948360D01*
X157867992Y-88934104D01*
X157875856Y-88917238D01*
X157946477Y-88846618D01*
X157950811Y-88843584D01*
X157951960Y-88841593D01*
X157955487Y-88840309D01*
X157970729Y-88829637D01*
X157989265Y-88828015D01*
X158006755Y-88821649D01*
X158501246Y-88821650D01*
X158506459Y-88822569D01*
X158508677Y-88821975D01*
X158512075Y-88823559D01*
X158530402Y-88826791D01*
X158544659Y-88838754D01*
X158561525Y-88846619D01*
X158632144Y-88917240D01*
X158635179Y-88921575D01*
X158637168Y-88922723D01*
X158638451Y-88926247D01*
X158649125Y-88941492D01*
X158650747Y-88960029D01*
X158657112Y-88977517D01*
X158657111Y-89280605D01*
X158655159Y-89291676D01*
X158655817Y-89295408D01*
X158653922Y-89298690D01*
X158651970Y-89309761D01*
X158637737Y-89326723D01*
X158626660Y-89345907D01*
X158619431Y-89348538D01*
X158614487Y-89354430D01*
X158592678Y-89358276D01*
X158571865Y-89365851D01*
X157936134Y-89365850D01*
X157925061Y-89363897D01*
G37*
G36*
X158001541Y-86689931D02*
G01*
X157999324Y-86690525D01*
X157995927Y-86688941D01*
X157977598Y-86685709D01*
X157963340Y-86673745D01*
X157946476Y-86665881D01*
X157875856Y-86595261D01*
X157872821Y-86590926D01*
X157870832Y-86589778D01*
X157869550Y-86586255D01*
X157858875Y-86571010D01*
X157857254Y-86552472D01*
X157850888Y-86534983D01*
X157850888Y-86231895D01*
X157852841Y-86220821D01*
X157852183Y-86217092D01*
X157854076Y-86213813D01*
X157856029Y-86202739D01*
X157870265Y-86185773D01*
X157881340Y-86166593D01*
X157888568Y-86163962D01*
X157893512Y-86158070D01*
X157915323Y-86154224D01*
X157936135Y-86146649D01*
X158571866Y-86146650D01*
X158582940Y-86148603D01*
X158586669Y-86147945D01*
X158589948Y-86149838D01*
X158601022Y-86151791D01*
X158617990Y-86166029D01*
X158637168Y-86177102D01*
X158639798Y-86184328D01*
X158645691Y-86189273D01*
X158649537Y-86211085D01*
X158657112Y-86231896D01*
X158657111Y-86534984D01*
X158656192Y-86540193D01*
X158656787Y-86542412D01*
X158655202Y-86545812D01*
X158651970Y-86564140D01*
X158640008Y-86578395D01*
X158632144Y-86595261D01*
X158561524Y-86665882D01*
X158557188Y-86668918D01*
X158556040Y-86670907D01*
X158552516Y-86672190D01*
X158537273Y-86682863D01*
X158518736Y-86684485D01*
X158501245Y-86690851D01*
X158006754Y-86690850D01*
X158001541Y-86689931D01*
G37*
D19*
X161204000Y-89256250D03*
X161204000Y-88756250D03*
X161204000Y-88256250D03*
X161204000Y-87756250D03*
X161204000Y-87256250D03*
X161204000Y-86756250D03*
X161204000Y-86256250D03*
D20*
X160254000Y-85306250D03*
X159754000Y-85306250D03*
X159254000Y-85306250D03*
X158754000Y-85306250D03*
X158254000Y-85306250D03*
X157754000Y-85306250D03*
X157254000Y-85306250D03*
D19*
X156304000Y-86256250D03*
X156304000Y-86756250D03*
X156304000Y-87256250D03*
X156304000Y-87756250D03*
X156304000Y-88256250D03*
X156304000Y-88756250D03*
X156304000Y-89256250D03*
D20*
X157254000Y-90206250D03*
X157754000Y-90206250D03*
X158254000Y-90206250D03*
X158754000Y-90206250D03*
X159254000Y-90206250D03*
X159754000Y-90206250D03*
X160254000Y-90206250D03*
D13*
X163580000Y-92061250D03*
X163580000Y-93611250D03*
D21*
X163085000Y-83819250D03*
X161535000Y-83819250D03*
D12*
X165104000Y-92341250D03*
X165104000Y-90791250D03*
D22*
X132969000Y-112967000D03*
X132969000Y-114617000D03*
D17*
X122402500Y-97028000D03*
X123977500Y-97028000D03*
D23*
X132928000Y-98552000D03*
X135053000Y-98552000D03*
D24*
X139109000Y-121510500D03*
X139609000Y-121510500D03*
X140109000Y-121510500D03*
X140609000Y-121510500D03*
X141109000Y-121510500D03*
X141609000Y-121510500D03*
X142109000Y-121510500D03*
X142609000Y-121510500D03*
X143109000Y-121510500D03*
X143609000Y-121510500D03*
X144109000Y-121510500D03*
X144609000Y-121510500D03*
D25*
X146021500Y-120098000D03*
X146021500Y-119598000D03*
X146021500Y-119098000D03*
X146021500Y-118598000D03*
X146021500Y-118098000D03*
X146021500Y-117598000D03*
X146021500Y-117098000D03*
X146021500Y-116598000D03*
X146021500Y-116098000D03*
X146021500Y-115598000D03*
X146021500Y-115098000D03*
X146021500Y-114598000D03*
D24*
X144609000Y-113185500D03*
X144109000Y-113185500D03*
X143609000Y-113185500D03*
X143109000Y-113185500D03*
X142609000Y-113185500D03*
X142109000Y-113185500D03*
X141609000Y-113185500D03*
X141109000Y-113185500D03*
X140609000Y-113185500D03*
X140109000Y-113185500D03*
X139609000Y-113185500D03*
X139109000Y-113185500D03*
D25*
X137696500Y-114598000D03*
X137696500Y-115098000D03*
X137696500Y-115598000D03*
X137696500Y-116098000D03*
X137696500Y-116598000D03*
X137696500Y-117098000D03*
X137696500Y-117598000D03*
X137696500Y-118098000D03*
X137696500Y-118598000D03*
X137696500Y-119098000D03*
X137696500Y-119598000D03*
X137696500Y-120098000D03*
D26*
X121666500Y-91821000D03*
X117601500Y-91821000D03*
X121666500Y-90551000D03*
X117601500Y-90551000D03*
X121666500Y-89281000D03*
X117601500Y-89281000D03*
X121666500Y-88011000D03*
X117601500Y-88011000D03*
X121666500Y-86741000D03*
X117601500Y-86741000D03*
D13*
X132969000Y-119113000D03*
X132969000Y-120663000D03*
D27*
X126227726Y-101473000D03*
X129177726Y-101473000D03*
D28*
X129043000Y-97602000D03*
X129043000Y-98552000D03*
X129043000Y-99502000D03*
X131318000Y-99502000D03*
X131318000Y-98552000D03*
X131318000Y-97602000D03*
D29*
X133252762Y-117665000D03*
X133252762Y-116015000D03*
D30*
X134231469Y-101473000D03*
X131281469Y-101473000D03*
D11*
X122345000Y-98552000D03*
X123995000Y-98552000D03*
D31*
X148463000Y-100501000D03*
X147193000Y-100501000D03*
X145923000Y-100501000D03*
X144653000Y-100501000D03*
X143383000Y-100501000D03*
X142113000Y-100501000D03*
X140843000Y-100501000D03*
X139573000Y-100501000D03*
D32*
X151368000Y-90176000D03*
X136668000Y-90176000D03*
D33*
X131310500Y-96012000D03*
X132860500Y-96012000D03*
M02*
