STARTFONT 2.1
FONT -FreeType-Fira Code-Medium-R-Normal--39-280-100-100-P-189-ISO10646-1
SIZE 28 100 100
FONTBOUNDINGBOX 23 47 0 -12
COMMENT "Generated by fontforge, http://fontforge.sourceforge.net"
COMMENT ""
COMMENT "Converted from OpenType font "FiraCode-Regular.ttf" by "otf2bdf 3.0"."
COMMENT ""
STARTPROPERTIES 19
FOUNDRY "FreeType"
FAMILY_NAME "Fira Code"
WEIGHT_NAME "Medium"
SLANT "R"
SETWIDTH_NAME "Normal"
ADD_STYLE_NAME ""
PIXEL_SIZE 39
POINT_SIZE 280
RESOLUTION_X 100
RESOLUTION_Y 100
SPACING "P"
AVERAGE_WIDTH 189
CHARSET_REGISTRY "ISO10646"
CHARSET_ENCODING "1"
FONT_ASCENT 38
FONT_DESCENT 12
COPYRIGHT "Copyright 2014-2020 The Fira Code Project Authors (https://github.com/tonsky/FiraCode)"
_OTF_FONTFILE "FiraCode-Regular.ttf"
_OTF_PSNAME "FiraCode-Regular"
ENDPROPERTIES
CHARS 95
STARTCHAR $0020
ENCODING 32
SWIDTH 591 0
DWIDTH 23 0
BBX 0 0 0 0
BITMAP
ENDCHAR
STARTCHAR $0021
ENCODING 33
SWIDTH 591 0
DWIDTH 23 0
BBX 5 27 9 0
BITMAP
70
70
70
70
70
70
70
70
70
70
70
70
70
70
70
70
70
70
00
00
00
00
70
F8
F8
F8
78
ENDCHAR
STARTCHAR $0022
ENCODING 34
SWIDTH 591 0
DWIDTH 23 0
BBX 11 10 6 19
BITMAP
F1E0
F1E0
F1E0
71E0
71E0
71E0
71E0
71E0
71C0
71C0
ENDCHAR
STARTCHAR $0023
ENCODING 35
SWIDTH 591 0
DWIDTH 23 0
BBX 19 27 2 0
BITMAP
038380
030380
030380
070380
070300
070300
070700
7FFFE0
7FFFE0
060700
0E0700
0E0700
0E0600
0E0E00
0E0E00
0E0E00
0C0E00
0C0E00
FFFFC0
FFFFC0
1C0C00
1C1C00
1C1C00
1C1C00
181C00
381C00
381C00
ENDCHAR
STARTCHAR $0024
ENCODING 36
SWIDTH 591 0
DWIDTH 23 0
BBX 18 39 3 -6
BITMAP
00C000
00C000
00C000
00C000
00C000
00C000
07F800
1FFF00
3FFF80
7CC7C0
78C100
70C000
70C000
70C000
78C000
7CC000
3FC000
1FE000
07F800
01FE00
00FF00
00CF80
00C780
00C3C0
00C3C0
00C3C0
00C3C0
00C3C0
60C380
F0C780
FEFF00
3FFE00
0FF800
00C000
00C000
00C000
00C000
00C000
00C000
ENDCHAR
STARTCHAR $0025
ENCODING 37
SWIDTH 591 0
DWIDTH 23 0
BBX 22 29 1 -1
BITMAP
000020
1F0038
7FC070
71C070
E0E0E0
E0E1C0
E0E1C0
E0E380
E0E700
E0EF00
71CE00
7FDC00
3F3800
003800
007000
00E000
00E7E0
01CFF0
039E78
039C38
07381C
0E381C
0E381C
1C3818
381C38
381E78
700FF0
E007E0
200000
ENDCHAR
STARTCHAR $0026
ENCODING 38
SWIDTH 591 0
DWIDTH 23 0
BBX 20 27 2 0
BITMAP
07F000
0FFC00
1E3E00
3C0C00
380400
380000
780000
380000
380000
3C0000
1F0000
07FFF0
0FFFF0
1E0380
380380
700380
700380
F00380
E00380
E00380
E00380
F00380
700380
780780
3E1F00
1FFE00
0FF800
ENDCHAR
STARTCHAR $0027
ENCODING 39
SWIDTH 591 0
DWIDTH 23 0
BBX 4 10 10 19
BITMAP
F0
F0
F0
F0
E0
E0
E0
E0
E0
E0
ENDCHAR
STARTCHAR $0028
ENCODING 40
SWIDTH 591 0
DWIDTH 23 0
BBX 12 38 5 -5
BITMAP
0040
00E0
01F0
03C0
0780
0700
0E00
1E00
3C00
3800
7800
7800
7000
F000
F000
E000
E000
E000
E000
E000
E000
E000
E000
F000
F000
7000
7000
7800
3800
3C00
1C00
1E00
0F00
0700
0380
01C0
00F0
0060
ENDCHAR
STARTCHAR $0029
ENCODING 41
SWIDTH 591 0
DWIDTH 23 0
BBX 12 38 7 -5
BITMAP
4000
E000
F000
7800
3C00
1E00
0F00
0700
0780
0380
03C0
01C0
01E0
01E0
00E0
00E0
00E0
00E0
00E0
00F0
00E0
00E0
00E0
00E0
00E0
01E0
01C0
01C0
03C0
0380
0780
0700
0E00
1E00
3C00
7800
F000
6000
ENDCHAR
STARTCHAR $002A
ENCODING 42
SWIDTH 591 0
DWIDTH 23 0
BBX 19 19 2 4
BITMAP
00E000
00E000
00E000
00E000
00E000
00E000
60E0E0
FCE7E0
FFFFE0
3FFF80
03FC00
01F000
03F800
03BC00
071E00
0F0E00
1E0F00
1C0780
0C0200
ENDCHAR
STARTCHAR $002B
ENCODING 43
SWIDTH 591 0
DWIDTH 23 0
BBX 18 18 3 3
BITMAP
01C000
01C000
01C000
01C000
01C000
01C000
01C000
01C000
FFFFC0
FFFFC0
01C000
01C000
01C000
01C000
01C000
01C000
01C000
01C000
ENDCHAR
STARTCHAR $002C
ENCODING 44
SWIDTH 591 0
DWIDTH 23 0
BBX 7 13 8 -7
BITMAP
7C
7E
7E
7E
7E
3C
3C
78
78
70
70
F0
E0
ENDCHAR
STARTCHAR $002D
ENCODING 45
SWIDTH 591 0
DWIDTH 23 0
BBX 15 3 4 11
BITMAP
FFFE
FFFE
FFFE
ENDCHAR
STARTCHAR $002E
ENCODING 46
SWIDTH 591 0
DWIDTH 23 0
BBX 7 6 8 0
BITMAP
7C
7E
FE
FE
7E
7C
ENDCHAR
STARTCHAR $002F
ENCODING 47
SWIDTH 591 0
DWIDTH 23 0
BBX 19 35 2 -4
BITMAP
0000E0
0000E0
0001C0
0001C0
0003C0
000380
000780
000700
000F00
000E00
001E00
001C00
003C00
003800
007800
007000
00F000
00E000
01E000
01C000
03C000
038000
038000
070000
070000
0E0000
0E0000
1C0000
1C0000
380000
380000
700000
700000
E00000
200000
ENDCHAR
STARTCHAR $0030
ENCODING 48
SWIDTH 591 0
DWIDTH 23 0
BBX 17 27 3 0
BITMAP
07F000
0FFC00
1F3E00
3C0E00
780F00
780F00
701F80
F01F80
F03380
F03380
E06380
E06380
E0C380
E0C380
E18380
E18380
E30380
F30380
F60380
F60780
7C0780
7C0700
780F00
380E00
1E3E00
1FFC00
07F800
ENDCHAR
STARTCHAR $0031
ENCODING 49
SWIDTH 591 0
DWIDTH 23 0
BBX 16 27 4 0
BITMAP
01E0
03E0
0FE0
3FE0
7DE0
F1E0
E1E0
41E0
01E0
01E0
01E0
01E0
01E0
01E0
01E0
01E0
01E0
01E0
01E0
01E0
01E0
01E0
01E0
01E0
7FFF
7FFF
7FFF
ENDCHAR
STARTCHAR $0032
ENCODING 50
SWIDTH 591 0
DWIDTH 23 0
BBX 17 27 2 0
BITMAP
0FF000
1FFC00
7FFE00
F81F00
600F00
000700
000780
000780
000700
000700
000700
000F00
000E00
001E00
003C00
007800
007000
00E000
01C000
03C000
070000
0F0000
1C0000
380000
7FFF80
7FFF80
7FFF80
ENDCHAR
STARTCHAR $0033
ENCODING 51
SWIDTH 591 0
DWIDTH 23 0
BBX 18 27 2 0
BITMAP
07F000
1FFC00
7E7E00
700F00
200700
000780
000780
000780
000700
000700
000E00
007C00
01F000
03FC00
001F00
000700
000780
000380
000380
0003C0
000380
000380
200780
F00F00
7C3F00
3FFC00
1FF800
ENDCHAR
STARTCHAR $0034
ENCODING 52
SWIDTH 591 0
DWIDTH 23 0
BBX 18 27 3 0
BITMAP
018000
01C000
03C000
038000
038000
070000
070000
0F0000
0E0000
1E0000
1C1C00
1C1C00
3C1C00
381C00
781C00
701C00
F01C00
E01C00
FFFFC0
FFFFC0
001C00
001C00
001C00
001C00
001C00
001C00
001C00
ENDCHAR
STARTCHAR $0035
ENCODING 53
SWIDTH 591 0
DWIDTH 23 0
BBX 17 27 3 0
BITMAP
3FFF00
3FFF00
3FFF00
380000
380000
380000
380000
380000
380000
380000
39F000
3FFC00
3FFE00
381F00
000F00
000700
000780
000780
000780
000780
000780
000700
200F00
700F00
FC3E00
7FFC00
1FF000
ENDCHAR
STARTCHAR $0036
ENCODING 54
SWIDTH 591 0
DWIDTH 23 0
BBX 17 27 3 0
BITMAP
03FC00
07FE00
0F9E00
1E0200
3C0000
380000
780000
700000
700000
F00000
F3FC00
E7FE00
EE1F00
FC0700
F80780
F00380
E00380
E00380
F00380
F00380
700380
700380
780780
380F00
3E1E00
1FFC00
07F800
ENDCHAR
STARTCHAR $0037
ENCODING 55
SWIDTH 591 0
DWIDTH 23 0
BBX 16 27 4 0
BITMAP
FFFF
FFFF
FFFF
000E
000E
001C
001C
003C
0038
0078
0070
0070
00E0
00E0
01E0
01C0
03C0
0380
0780
0700
0700
0F00
0E00
1E00
1C00
3C00
3800
ENDCHAR
STARTCHAR $0038
ENCODING 56
SWIDTH 591 0
DWIDTH 23 0
BBX 18 27 3 0
BITMAP
07F000
1FFC00
3E3E00
780F00
700700
700780
700780
700780
700700
780700
3C0E00
1FBC00
0FF000
0FFC00
3C7E00
781F00
F00780
E00380
E003C0
E003C0
E003C0
E003C0
F00380
F00780
7C1F00
3FFE00
0FF800
ENDCHAR
STARTCHAR $0039
ENCODING 57
SWIDTH 591 0
DWIDTH 23 0
BBX 17 28 3 -1
BITMAP
07F000
1FFC00
3F7E00
781E00
F00F00
E00700
E00780
E00780
E00780
E00780
E00380
E00780
F00F80
781F80
7E7F80
3FF780
0FE700
000700
000F00
000E00
001E00
003C00
007800
01F000
07E000
3F8000
3E0000
100000
ENDCHAR
STARTCHAR $003A
ENCODING 58
SWIDTH 591 0
DWIDTH 23 0
BBX 7 20 8 0
BITMAP
38
7C
7E
FE
7E
7C
00
00
00
00
00
00
00
00
38
7C
7E
FE
7E
7C
ENDCHAR
STARTCHAR $003B
ENCODING 59
SWIDTH 591 0
DWIDTH 23 0
BBX 7 27 8 -7
BITMAP
38
7C
7E
FE
7E
7C
00
00
00
00
00
00
00
00
7C
7E
FE
7E
7E
3C
7C
78
78
70
70
F0
E0
ENDCHAR
STARTCHAR $003C
ENCODING 60
SWIDTH 591 0
DWIDTH 23 0
BBX 17 22 3 1
BITMAP
000300
000700
001F80
003E00
00FC00
03F000
07C000
1F8000
7E0000
F80000
F00000
F00000
FC0000
3F0000
0F8000
07E000
01F000
00FC00
003F00
000F80
000700
000100
ENDCHAR
STARTCHAR $003D
ENCODING 61
SWIDTH 591 0
DWIDTH 23 0
BBX 15 10 4 7
BITMAP
FFFE
FFFE
FFFE
0000
0000
0000
0000
FFFE
FFFE
FFFE
ENDCHAR
STARTCHAR $003E
ENCODING 62
SWIDTH 591 0
DWIDTH 23 0
BBX 17 22 3 1
BITMAP
200000
780000
FC0000
3F0000
0F8000
07E000
01F800
007C00
003F00
000F80
000380
000780
001F80
003E00
00FC00
01F000
07E000
1F8000
3E0000
FC0000
700000
200000
ENDCHAR
STARTCHAR $003F
ENCODING 63
SWIDTH 591 0
DWIDTH 23 0
BBX 16 27 3 0
BITMAP
07F0
1FFC
3FFE
F80F
3007
0007
0007
0007
000F
001E
003C
00F8
01F0
01E0
03C0
0380
0380
0380
0000
0000
0000
0000
0180
03C0
07C0
07C0
03C0
ENDCHAR
STARTCHAR $0040
ENCODING 64
SWIDTH 591 0
DWIDTH 23 0
BBX 23 31 0 -4
BITMAP
01FF00
0FFFC0
3FFFE0
7E01F0
F000F0
200078
000038
00003C
00001C
00001C
07F81C
0FFC1E
1E1C1E
3C1C1E
381C1E
381C1E
781C1E
701C1E
701C1E
701C1E
701C1E
701C1E
701C1C
781C1C
381C1C
3C3E1C
1FF61C
1FE738
0783F8
0003F0
000080
ENDCHAR
STARTCHAR $0041
ENCODING 65
SWIDTH 591 0
DWIDTH 23 0
BBX 22 27 1 0
BITMAP
00F800
00F800
00FC00
01DC00
01DC00
01DE00
03CE00
038E00
038F00
078700
070700
070700
070780
0E0380
0E0380
0E03C0
1C01C0
1FFFC0
1FFFE0
3FFFE0
3800E0
3800F0
780070
700070
700078
F00038
E0003C
ENDCHAR
STARTCHAR $0042
ENCODING 66
SWIDTH 591 0
DWIDTH 23 0
BBX 17 27 4 0
BITMAP
FFC000
FFF800
FFFC00
E03E00
E00E00
E00F00
E00F00
E00F00
E00F00
E00E00
E01E00
E07C00
FFF000
FFF800
E07E00
E00F00
E00700
E00780
E00780
E00780
E00780
E00780
E00F00
E01F00
FFFE00
FFFC00
FFE000
ENDCHAR
STARTCHAR $0043
ENCODING 67
SWIDTH 591 0
DWIDTH 23 0
BBX 20 27 2 0
BITMAP
00FF00
03FFC0
07FFF0
0F00E0
1E0040
3C0000
380000
780000
780000
700000
700000
700000
F00000
F00000
F00000
700000
700000
700000
780000
780000
380000
3C0000
1E0020
1F0060
0FE7F0
03FFE0
01FF80
ENDCHAR
STARTCHAR $0044
ENCODING 68
SWIDTH 591 0
DWIDTH 23 0
BBX 18 27 3 0
BITMAP
FF8000
FFF800
FFFC00
F03E00
F00F00
F00780
F00380
F003C0
F003C0
F001C0
F001C0
F001C0
F001C0
F001C0
F001C0
F001C0
F001C0
F001C0
F003C0
F003C0
F00780
F00780
F00F00
F03E00
FFFE00
FFF800
FFE000
ENDCHAR
STARTCHAR $0045
ENCODING 69
SWIDTH 591 0
DWIDTH 23 0
BBX 15 27 5 0
BITMAP
FFFE
FFFE
FFFE
E000
E000
E000
E000
E000
E000
E000
E000
E000
FFF8
FFF8
FFF8
E000
E000
E000
E000
E000
E000
E000
E000
E000
FFFE
FFFE
FFFE
ENDCHAR
STARTCHAR $0046
ENCODING 70
SWIDTH 591 0
DWIDTH 23 0
BBX 16 27 5 0
BITMAP
FFFF
FFFF
FFFF
F000
F000
F000
F000
F000
F000
F000
F000
F000
FFFC
FFFC
FFFC
F000
F000
F000
F000
F000
F000
F000
F000
F000
F000
F000
F000
ENDCHAR
STARTCHAR $0047
ENCODING 71
SWIDTH 591 0
DWIDTH 23 0
BBX 19 27 2 0
BITMAP
01FE00
07FF80
0FFFE0
1F01C0
3C0080
380000
780000
700000
F00000
F00000
F00000
E00000
E03FE0
E03FE0
E03FE0
E000E0
F000E0
F000E0
F000E0
F000E0
7000E0
7800E0
3C00E0
3E01E0
1F8FE0
0FFFC0
03FF00
ENDCHAR
STARTCHAR $0048
ENCODING 72
SWIDTH 591 0
DWIDTH 23 0
BBX 17 27 3 0
BITMAP
F00380
F00380
F00380
F00380
F00380
F00380
F00380
F00380
F00380
F00380
F00380
F00380
FFFF80
FFFF80
F00380
F00380
F00380
F00380
F00380
F00380
F00380
F00380
F00380
F00380
F00380
F00380
F00380
ENDCHAR
STARTCHAR $0049
ENCODING 73
SWIDTH 591 0
DWIDTH 23 0
BBX 15 27 4 0
BITMAP
FFFE
FFFE
FFFE
0380
0380
0380
0380
0380
0380
0380
0380
0380
0380
0380
0380
0380
0380
0380
0380
0380
0380
0380
0380
0380
FFFE
FFFE
FFFE
ENDCHAR
STARTCHAR $004A
ENCODING 74
SWIDTH 591 0
DWIDTH 23 0
BBX 16 27 3 0
BITMAP
07FF
07FF
07FF
0007
0007
0007
0007
0007
0007
0007
0007
0007
0007
0007
0007
0007
0007
0007
0007
0007
0007
000F
000F
601E
FCFC
FFF8
3FF0
ENDCHAR
STARTCHAR $004B
ENCODING 75
SWIDTH 591 0
DWIDTH 23 0
BBX 19 27 4 0
BITMAP
E003C0
E00780
E00F00
E01E00
E01C00
E03C00
E07800
E0F000
E1E000
E3C000
E78000
E70000
EF0000
EF0000
E78000
E3C000
E1E000
E1E000
E0F000
E07800
E03C00
E03E00
E01E00
E00F00
E00780
E007C0
E003E0
ENDCHAR
STARTCHAR $004C
ENCODING 76
SWIDTH 591 0
DWIDTH 23 0
BBX 16 27 5 0
BITMAP
F000
F000
F000
F000
F000
F000
F000
F000
F000
F000
F000
F000
F000
F000
F000
F000
F000
F000
F000
F000
F000
F000
F000
F000
FFFF
FFFF
FFFF
ENDCHAR
STARTCHAR $004D
ENCODING 77
SWIDTH 591 0
DWIDTH 23 0
BBX 21 27 1 0
BITMAP
3C01F0
3E01F0
3E03F0
3E03F0
7E03F0
770370
770770
770770
770770
738670
738670
738E70
738E70
71CC70
71CC70
71DC70
71DC78
70F878
70F878
70F878
707838
F07838
F00038
F00038
F00038
E00038
E00038
ENDCHAR
STARTCHAR $004E
ENCODING 78
SWIDTH 591 0
DWIDTH 23 0
BBX 17 27 3 0
BITMAP
F80380
F80380
FC0380
FC0380
FE0380
EE0380
EE0380
E70380
E70380
E78380
E38380
E38380
E1C380
E1C380
E1E380
E0E380
E0E380
E07380
E07380
E07B80
E03B80
E03B80
E01F80
E01F80
E01F80
E00F80
E00F80
ENDCHAR
STARTCHAR $004F
ENCODING 79
SWIDTH 591 0
DWIDTH 23 0
BBX 20 27 2 0
BITMAP
03F800
0FFE00
1FFF00
3C0780
3803C0
7801C0
7001C0
7001E0
F001E0
F000E0
E000E0
E000E0
E000F0
E000F0
E000F0
E000E0
E000E0
F000E0
F000E0
F001E0
7001E0
7801C0
3803C0
3C0780
1F1F00
0FFE00
07FC00
ENDCHAR
STARTCHAR $0050
ENCODING 80
SWIDTH 591 0
DWIDTH 23 0
BBX 18 27 4 0
BITMAP
FFE000
FFFC00
FFFE00
F01F00
F00780
F00780
F00380
F003C0
F003C0
F003C0
F00380
F00780
F00780
F00F00
FFFE00
FFFC00
FFF000
F00000
F00000
F00000
F00000
F00000
F00000
F00000
F00000
F00000
F00000
ENDCHAR
STARTCHAR $0051
ENCODING 81
SWIDTH 591 0
DWIDTH 23 0
BBX 21 34 2 -7
BITMAP
03F800
0FFE00
1FFF00
3E0780
3803C0
7801C0
7001C0
7001E0
F000E0
F000E0
E000E0
E000E0
E000F0
E000F0
E000F0
E000E0
E000E0
F000E0
F000E0
F001E0
7001E0
7801C0
3803C0
3C0780
1F1F00
0FFE00
07FF00
001FC0
0003E0
0001F0
0000F0
0000F8
000078
000040
ENDCHAR
STARTCHAR $0052
ENCODING 82
SWIDTH 591 0
DWIDTH 23 0
BBX 18 27 4 0
BITMAP
FFC000
FFF800
FFFE00
E01F00
E00F00
E00780
E00780
E00780
E00780
E00780
E00700
E00F00
E03E00
FFFC00
FFF000
FFE000
E0E000
E0F000
E07800
E07800
E03C00
E01E00
E01E00
E00F00
E00780
E00780
E003C0
ENDCHAR
STARTCHAR $0053
ENCODING 83
SWIDTH 591 0
DWIDTH 23 0
BBX 19 27 2 0
BITMAP
07FC00
0FFF00
3FFFC0
3C03C0
780180
700000
700000
700000
780000
7C0000
3F0000
1FE000
07FC00
01FF00
003F80
000FC0
0003C0
0001E0
0001E0
0001E0
0001E0
0001E0
6003C0
F007C0
FF1F80
3FFF00
0FFC00
ENDCHAR
STARTCHAR $0054
ENCODING 84
SWIDTH 591 0
DWIDTH 23 0
BBX 20 27 2 0
BITMAP
FFFFF0
FFFFF0
FFFFE0
00E000
00E000
00E000
00E000
00E000
00E000
00E000
00E000
00E000
00E000
00E000
00E000
00E000
00E000
00E000
00E000
00E000
00E000
00E000
00E000
00E000
00E000
00E000
00E000
ENDCHAR
STARTCHAR $0055
ENCODING 85
SWIDTH 591 0
DWIDTH 23 0
BBX 18 27 3 0
BITMAP
E003C0
E003C0
E003C0
E003C0
E003C0
E003C0
E003C0
E003C0
E003C0
E003C0
E003C0
E003C0
E003C0
E003C0
E003C0
E003C0
E003C0
E003C0
E003C0
E00380
E00380
F00380
700780
780F00
3F7F00
1FFE00
0FF800
ENDCHAR
STARTCHAR $0056
ENCODING 86
SWIDTH 591 0
DWIDTH 23 0
BBX 21 27 1 0
BITMAP
F00038
F00038
700078
780070
780070
3800F0
3C00E0
3C00E0
1C01E0
1C01C0
1E01C0
0E03C0
0E0380
0F0380
070780
070700
078700
038700
038E00
03CE00
01CE00
01DC00
01FC00
00FC00
00F800
00F800
007800
ENDCHAR
STARTCHAR $0057
ENCODING 87
SWIDTH 591 0
DWIDTH 23 0
BBX 23 27 0 0
BITMAP
F0000E
F0000E
F0000E
703C0E
707C1E
707C1C
707C1C
706C1C
786E1C
786E1C
38EE1C
38EE38
38EE38
38E638
38C638
38C738
3DC738
1DC738
1DC770
1DC770
1D8370
1D83F0
1D83F0
1F83F0
0F83E0
0F83E0
0F81E0
ENDCHAR
STARTCHAR $0058
ENCODING 88
SWIDTH 591 0
DWIDTH 23 0
BBX 21 27 1 0
BITMAP
7800F0
3C00E0
3C01E0
1E01C0
0E03C0
0F0380
070700
078F00
03CE00
01DE00
01FC00
00F800
00F800
00F800
00FC00
01DC00
03DE00
038F00
078700
070780
0E0380
1E03C0
1C01C0
3C01E0
3800F0
7800F0
F00078
ENDCHAR
STARTCHAR $0059
ENCODING 89
SWIDTH 591 0
DWIDTH 23 0
BBX 21 27 1 0
BITMAP
F00038
700078
780070
3800F0
3C00E0
1C01E0
1E01C0
0F0380
0F0780
078700
038F00
03CE00
01DE00
01FC00
00FC00
00F800
007000
007000
007000
007000
007000
007000
007000
007000
007000
007000
007000
ENDCHAR
STARTCHAR $005A
ENCODING 90
SWIDTH 591 0
DWIDTH 23 0
BBX 18 27 3 0
BITMAP
7FFFC0
7FFFC0
7FFFC0
000380
000780
000F00
000E00
001E00
003C00
003800
007800
00F000
00E000
01E000
03C000
038000
078000
0F0000
0E0000
1E0000
3C0000
380000
780000
F00000
FFFFC0
FFFF80
FFFF80
ENDCHAR
STARTCHAR $005B
ENCODING 91
SWIDTH 591 0
DWIDTH 23 0
BBX 10 36 7 -4
BITMAP
FFC0
FFC0
FFC0
E000
E000
E000
E000
E000
E000
E000
E000
E000
E000
E000
E000
E000
E000
E000
E000
E000
E000
E000
E000
E000
E000
E000
E000
E000
E000
E000
E000
E000
E000
E000
FFC0
FFC0
ENDCHAR
STARTCHAR $005C
ENCODING 92
SWIDTH 591 0
DWIDTH 23 0
BBX 19 35 2 -4
BITMAP
600000
F00000
700000
780000
380000
3C0000
1C0000
1E0000
0E0000
0E0000
070000
070000
038000
038000
01C000
01C000
00E000
00E000
007000
007000
003800
003800
001C00
001C00
000E00
000E00
000700
000700
000780
000380
0003C0
0001C0
0001E0
0000E0
0000C0
ENDCHAR
STARTCHAR $005D
ENCODING 93
SWIDTH 591 0
DWIDTH 23 0
BBX 10 36 6 -4
BITMAP
FFC0
FFC0
FFC0
01C0
01C0
01C0
01C0
01C0
01C0
01C0
01C0
01C0
01C0
01C0
01C0
01C0
01C0
01C0
01C0
01C0
01C0
01C0
01C0
01C0
01C0
01C0
01C0
01C0
01C0
01C0
01C0
01C0
01C0
01C0
FFC0
FFC0
ENDCHAR
STARTCHAR $005E
ENCODING 94
SWIDTH 591 0
DWIDTH 23 0
BBX 17 13 3 20
BITMAP
01C000
03E000
03E000
07F000
077800
0E3800
1E3C00
1C1C00
3C0E00
380F00
780700
F00780
E00380
ENDCHAR
STARTCHAR $005F
ENCODING 95
SWIDTH 591 0
DWIDTH 23 0
BBX 19 3 2 -7
BITMAP
FFFFE0
FFFFE0
FFFFE0
ENDCHAR
STARTCHAR $0060
ENCODING 96
SWIDTH 591 0
DWIDTH 23 0
BBX 9 7 7 24
BITMAP
4000
7000
7800
FE00
1F00
0780
0100
ENDCHAR
STARTCHAR $0061
ENCODING 97
SWIDTH 591 0
DWIDTH 23 0
BBX 17 21 3 0
BITMAP
0FE000
7FF800
3FFC00
201E00
000E00
000F00
000F00
000F00
000F00
0FFF00
3FFF00
780F00
F00F00
E00F00
E00F00
E00F00
E00F00
F01F00
F87F00
7FF780
3FC380
ENDCHAR
STARTCHAR $0062
ENCODING 98
SWIDTH 591 0
DWIDTH 23 0
BBX 17 29 4 0
BITMAP
E00000
E00000
E00000
E00000
E00000
E00000
E00000
E00000
E1F000
E7FC00
EFFE00
FC1E00
F00F00
F00F00
E00700
E00700
E00780
E00780
E00780
E00780
E00780
E00700
E00700
E00F00
E00F00
F01E00
FC3E00
EFFC00
E7F000
ENDCHAR
STARTCHAR $0063
ENCODING 99
SWIDTH 591 0
DWIDTH 23 0
BBX 16 21 4 0
BITMAP
03F0
0FFE
1FFF
3C0E
7802
7000
F000
E000
E000
E000
E000
E000
E000
E000
F000
F000
7800
7C06
3F1F
1FFE
07FC
ENDCHAR
STARTCHAR $0064
ENCODING 100
SWIDTH 591 0
DWIDTH 23 0
BBX 16 29 3 0
BITMAP
0007
0007
0007
0007
0007
0007
0007
0007
07C7
1FF7
3FFF
7C1F
780F
7007
F007
E007
E007
E007
E007
E007
E007
E007
F007
F007
700F
781F
3C3F
3FF7
0FE3
ENDCHAR
STARTCHAR $0065
ENCODING 101
SWIDTH 591 0
DWIDTH 23 0
BBX 17 21 3 0
BITMAP
03F000
0FFC00
1FFE00
3C0F00
380700
700780
700380
F00380
F00380
FFFF80
FFFF80
FFFF80
F00000
F00000
F00000
700000
780000
3C0200
3F1F00
1FFF00
07FC00
ENDCHAR
STARTCHAR $0066
ENCODING 102
SWIDTH 591 0
DWIDTH 23 0
BBX 18 29 4 0
BITMAP
00FF00
01FFC0
03FF80
078000
070000
070000
070000
070000
070000
070000
FFFE00
FFFE00
FFFC00
070000
070000
070000
070000
070000
070000
070000
070000
070000
070000
070000
070000
070000
070000
070000
070000
ENDCHAR
STARTCHAR $0067
ENCODING 103
SWIDTH 591 0
DWIDTH 23 0
BBX 19 31 3 -8
BITMAP
000040
0003C0
07FFC0
1FFFE0
3E7800
781E00
700E00
F00700
E00700
E00700
F00700
F00F00
780E00
3C3E00
1FFC00
1FF000
380000
700000
780000
7FF000
3FFE00
1FFF00
000F80
0003C0
0001C0
E001C0
E003C0
E00780
FC3F80
7FFF00
1FFC00
ENDCHAR
STARTCHAR $0068
ENCODING 104
SWIDTH 591 0
DWIDTH 23 0
BBX 15 29 4 0
BITMAP
E000
E000
E000
E000
E000
E000
E000
E000
E1F0
E7FC
EFFE
FC1E
F80E
F00E
E00E
E00E
E00E
E00E
E00E
E00E
E00E
E00E
E00E
E00E
E00E
E00E
E00E
E00E
E00E
ENDCHAR
STARTCHAR $0069
ENCODING 105
SWIDTH 591 0
DWIDTH 23 0
BBX 15 30 5 0
BITMAP
0700
0F80
0F80
0780
0200
0000
0000
0000
0000
0000
FF80
FF80
0380
0380
0380
0380
0380
0380
0380
0380
0380
0380
0380
0380
0380
0380
0380
FFFE
FFFE
FFFE
ENDCHAR
STARTCHAR $006A
ENCODING 106
SWIDTH 591 0
DWIDTH 23 0
BBX 13 38 4 -8
BITMAP
0070
00F8
00F8
00F0
0020
0000
0000
0000
0000
0000
3FF8
3FF8
0038
0038
0038
0038
0038
0038
0038
0038
0038
0038
0038
0038
0038
0038
0038
0038
0038
0038
0078
0070
00F0
03E0
0FC0
7F00
FE00
F000
ENDCHAR
STARTCHAR $006B
ENCODING 107
SWIDTH 591 0
DWIDTH 23 0
BBX 18 29 4 0
BITMAP
E00000
E00000
E00000
E00000
E00000
E00000
E00000
E00000
E00080
E00F00
E01E00
E03C00
E07800
E0F000
E1E000
E3C000
E78000
EF0000
EF8000
E78000
E3C000
E1E000
E0F000
E07800
E03C00
E01E00
E00F00
E00F80
E007C0
ENDCHAR
STARTCHAR $006C
ENCODING 108
SWIDTH 591 0
DWIDTH 23 0
BBX 18 29 2 0
BITMAP
FFC000
FFC000
FFC000
01C000
01C000
01C000
01C000
01C000
01C000
01C000
01C000
01C000
01C000
01C000
01C000
01C000
01C000
01C000
01C000
01C000
01C000
01C000
01C000
01C000
01C000
01C000
01F180
00FF80
007FC0
ENDCHAR
STARTCHAR $006D
ENCODING 109
SWIDTH 591 0
DWIDTH 23 0
BBX 19 21 2 0
BITMAP
078780
EFCFC0
FFFFE0
F0F8E0
E0F0E0
E0E0E0
E0E0E0
E0E0E0
E0E0E0
E0E0E0
E0E0E0
E0E0E0
E0E0E0
E0E0E0
E0E0E0
E0E0E0
E0E0E0
E0E0E0
E0E0E0
E0E0E0
E0E0E0
ENDCHAR
STARTCHAR $006E
ENCODING 110
SWIDTH 591 0
DWIDTH 23 0
BBX 15 21 4 0
BITMAP
01F0
E7FC
EFFE
FC1E
F80E
F00E
E00E
E00E
E00E
E00E
E00E
E00E
E00E
E00E
E00E
E00E
E00E
E00E
E00E
E00E
E00E
ENDCHAR
STARTCHAR $006F
ENCODING 111
SWIDTH 591 0
DWIDTH 23 0
BBX 17 21 3 0
BITMAP
03F000
0FFC00
1FFE00
3C1F00
780F00
700780
F00780
F00380
E00380
E00380
E00380
E00380
E00380
F00380
F00380
700780
780700
780F00
3E3E00
1FFC00
0FF800
ENDCHAR
STARTCHAR $0070
ENCODING 112
SWIDTH 591 0
DWIDTH 23 0
BBX 16 29 4 -8
BITMAP
01F0
E7FC
EFFC
FC1E
F00F
F00F
E007
E007
E007
E007
E007
E007
E007
E007
E007
E00F
E00F
F01E
FC7C
EFFC
E7F0
E000
E000
E000
E000
E000
E000
E000
E000
ENDCHAR
STARTCHAR $0071
ENCODING 113
SWIDTH 591 0
DWIDTH 23 0
BBX 16 29 3 -8
BITMAP
07C0
1FF3
3FFF
3C1F
780F
7007
F007
F007
E007
E007
E007
E007
E007
F007
F007
F007
700F
781F
3E3F
3FF7
1FE7
0007
0007
0007
0007
0007
0007
0007
0007
ENDCHAR
STARTCHAR $0072
ENCODING 114
SWIDTH 591 0
DWIDTH 23 0
BBX 17 21 4 0
BITMAP
001F80
FC7F80
FCFF80
1DE700
1DC700
1F8700
1F0700
1E0000
1E0000
1E0000
1E0000
1E0000
1E0000
1E0000
1E0000
1E0000
1E0000
1E0000
FFE000
FFE000
FFE000
ENDCHAR
STARTCHAR $0073
ENCODING 115
SWIDTH 591 0
DWIDTH 23 0
BBX 17 21 3 0
BITMAP
03F000
1FFE00
3FFF00
780700
780200
700000
780000
7C0000
3F0000
1FE000
07FC00
00FE00
001F00
000F00
000700
000780
000700
600F00
FC3F00
7FFE00
1FF800
ENDCHAR
STARTCHAR $0074
ENCODING 116
SWIDTH 591 0
DWIDTH 23 0
BBX 17 26 3 0
BITMAP
010000
070000
070000
070000
070000
070000
FFFE00
FFFE00
070000
070000
070000
070000
070000
070000
070000
070000
070000
070000
070000
070000
070000
070000
078000
03C300
03FF80
00FF00
ENDCHAR
STARTCHAR $0075
ENCODING 117
SWIDTH 591 0
DWIDTH 23 0
BBX 15 20 4 0
BITMAP
E00E
E00E
E00E
E00E
E00E
E00E
E00E
E00E
E00E
E00E
E00E
E00E
E00E
E00E
E00E
E01E
F03E
F87E
7FEE
3FC6
ENDCHAR
STARTCHAR $0076
ENCODING 118
SWIDTH 591 0
DWIDTH 23 0
BBX 19 20 2 0
BITMAP
F001E0
7001C0
7801C0
3803C0
3C0380
1C0380
1C0700
1E0700
0E0700
0E0E00
0F0E00
070E00
071C00
079C00
039C00
03B800
03F800
01F000
01F000
00F000
ENDCHAR
STARTCHAR $0077
ENCODING 119
SWIDTH 591 0
DWIDTH 23 0
BBX 22 20 1 0
BITMAP
E0003C
E00038
E07838
F07838
70F838
70F838
70FC70
70DC70
70DC70
31CC70
39CC70
39CE70
398E60
398EE0
3B8EE0
1B86E0
1B87E0
1F07E0
1F07C0
1F07C0
ENDCHAR
STARTCHAR $0078
ENCODING 120
SWIDTH 591 0
DWIDTH 23 0
BBX 19 20 2 0
BITMAP
7C03C0
3C0780
1E0700
0E0F00
0F1E00
079C00
03B800
01F800
01F000
01F000
01F800
03B800
07BC00
071E00
0E0E00
1E0F00
1C0780
3C0380
7803C0
F001E0
ENDCHAR
STARTCHAR $0079
ENCODING 121
SWIDTH 591 0
DWIDTH 23 0
BBX 19 28 2 -8
BITMAP
F001E0
7801C0
7801C0
3803C0
3C0380
3C0380
1C0780
1C0700
0E0700
0E0E00
0E0E00
070E00
071C00
071C00
039C00
03B800
03B800
01F800
01F000
01F000
00F000
00E000
01E000
01C000
07C000
1F8000
3E0000
3C0000
ENDCHAR
STARTCHAR $007A
ENCODING 122
SWIDTH 591 0
DWIDTH 23 0
BBX 15 20 4 0
BITMAP
7FFE
7FFE
001E
003C
0038
0078
00F0
01E0
01C0
03C0
0780
0F00
0F00
1E00
3C00
7800
7800
FFFE
FFFE
FFFE
ENDCHAR
STARTCHAR $007B
ENCODING 123
SWIDTH 591 0
DWIDTH 23 0
BBX 13 38 5 -5
BITMAP
0008
01F8
03F8
0780
0700
0700
0700
0700
0700
0700
0700
0700
0700
0700
0780
0780
0700
0F00
FE00
F800
FE00
0F00
0700
0780
0700
0700
0700
0700
0700
0700
0700
0700
0700
0700
0700
07C0
03F8
00F8
ENDCHAR
STARTCHAR $007C
ENCODING 124
SWIDTH 591 0
DWIDTH 23 0
BBX 3 47 10 -12
BITMAP
E0
E0
E0
E0
E0
E0
E0
E0
E0
E0
E0
E0
E0
E0
E0
E0
E0
E0
E0
E0
E0
E0
E0
E0
E0
E0
E0
E0
E0
E0
E0
E0
E0
E0
E0
E0
E0
E0
E0
E0
E0
E0
E0
E0
E0
E0
E0
ENDCHAR
STARTCHAR $007D
ENCODING 125
SWIDTH 591 0
DWIDTH 23 0
BBX 13 38 6 -5
BITMAP
8000
F800
FE00
1E00
0F00
0700
0700
0700
0E00
0E00
0E00
0E00
0E00
0E00
0E00
0E00
0E00
0F80
07F8
01F8
07F8
0F00
0E00
0E00
0E00
0E00
0E00
0E00
0E00
0E00
0E00
0700
0700
0700
0F00
3E00
FC00
F800
ENDCHAR
STARTCHAR $007E
ENCODING 126
SWIDTH 591 0
DWIDTH 23 0
BBX 20 7 2 9
BITMAP
060000
1F8040
3FC0F0
79F1E0
E0FFC0
E07F80
201F00
ENDCHAR
ENDFONT
