STARTFONT 2.1
FONT -FreeType-Fira Code-Bold-R-Normal--44-320-100-100-P-236-ISO10646-1
SIZE 32 100 100
FONTBOUNDINGBOX 28 53 0 -13
COMMENT "Generated by fontforge, http://fontforge.sourceforge.net"
COMMENT ""
COMMENT "Converted from OpenType font "FiraCode-Bold.ttf" by "otf2bdf 3.0"."
COMMENT ""
STARTPROPERTIES 19
FOUNDRY "FreeType"
FAMILY_NAME "Fira Code"
WEIGHT_NAME "Bold"
SLANT "R"
SETWIDTH_NAME "Normal"
ADD_STYLE_NAME ""
PIXEL_SIZE 44
POINT_SIZE 320
RESOLUTION_X 100
RESOLUTION_Y 100
SPACING "P"
AVERAGE_WIDTH 236
CHARSET_REGISTRY "ISO10646"
CHARSET_ENCODING "1"
FONT_ASCENT 43
FONT_DESCENT 14
COPYRIGHT "Copyright 2014-2020 The Fira Code Project Authors (https://github.com/tonsky/FiraCode)"
_OTF_FONTFILE "FiraCode-Bold.ttf"
_OTF_PSNAME "FiraCode-Bold"
ENDPROPERTIES
CHARS 95
STARTCHAR $0020
ENCODING 32
SWIDTH 607 0
DWIDTH 27 0
BBX 0 0 0 0
BITMAP
ENDCHAR
STARTCHAR $0021
ENCODING 33
SWIDTH 607 0
DWIDTH 27 0
BBX 8 32 9 -1
BITMAP
7F
7F
7F
7F
7F
7F
7F
7F
7F
7F
7F
7F
7F
7E
7E
7E
7E
7E
7E
3E
00
00
00
00
3E
7F
FF
FF
FF
7F
7E
1C
ENDCHAR
STARTCHAR $0022
ENCODING 34
SWIDTH 607 0
DWIDTH 27 0
BBX 15 12 6 21
BITMAP
FCFE
FCFE
FCFE
FCFE
FC7E
FC7E
FC7E
FC7C
FC7C
FC7C
FC7C
7C7C
ENDCHAR
STARTCHAR $0023
ENCODING 35
SWIDTH 607 0
DWIDTH 27 0
BBX 23 31 2 0
BITMAP
07E1F8
07E1F8
07E1F8
07E1F8
07E1F8
07E1F8
07C1F0
7FFFFE
7FFFFE
7FFFFE
7FFFFE
0FC3F0
0FC3F0
0FC3F0
0F83E0
1F87E0
1F87E0
1F87E0
1F87E0
1F87E0
FFFFF8
FFFFF8
FFFFF8
FFFFF8
FFFFF8
3F0FC0
3F0FC0
3F0FC0
3F0FC0
3E0F80
7E1F80
ENDCHAR
STARTCHAR $0024
ENCODING 36
SWIDTH 607 0
DWIDTH 27 0
BBX 23 45 2 -7
BITMAP
003C00
003C00
003C00
003C00
003C00
003C00
003C00
03FFC0
0FFFF0
1FFFFC
3FFFFC
3FFFF8
7F3C70
7E3C20
7E3C00
7E3C00
7F3C00
7FBC00
3FFC00
3FFC00
1FFF80
0FFFE0
03FFF0
00FFF8
003FFC
003FFC
003DFE
003CFE
003CFE
003CFE
003CFE
303CFC
3C3DFC
7FBFFC
FFFFF8
7FFFF0
1FFFE0
07FF80
00FC00
003C00
003C00
003C00
003C00
003C00
003C00
ENDCHAR
STARTCHAR $0025
ENCODING 37
SWIDTH 607 0
DWIDTH 27 0
BBX 26 33 0 -1
BITMAP
07001000
1FC03E00
3FE03C00
7FF07C00
78F07800
F8F8F800
F8F8F000
F8F9F000
F8F9E000
F8FBE000
7CF3C000
7FF7C000
3FE78000
1FCF8000
000F8000
000F0000
001F0000
001E0000
003E1C00
003CFF00
007DFF80
0079FFC0
00FBE7C0
00F3E3C0
01F3C3C0
01E3C3C0
03E3C3C0
03C3E3C0
07C3E7C0
0781FF80
0F80FF80
0F007E00
03000000
ENDCHAR
STARTCHAR $0026
ENCODING 38
SWIDTH 607 0
DWIDTH 27 0
BBX 24 33 2 -1
BITMAP
007000
03FF00
0FFF80
1FFFE0
3FFFC0
3FC780
7F8300
7F0000
7F0000
7F0000
3F0000
3F8000
1FC000
0FFFFF
03FFFF
0FFFFF
1FFFFF
7FC3F8
7F03F8
FE03F8
FE03F8
FE03F8
FE03F8
FE03F8
FE03F8
FE03F8
FF03F8
7FCFF8
7FFFF8
3FFFF0
1FFFE0
07FF80
00FC00
ENDCHAR
STARTCHAR $0027
ENCODING 39
SWIDTH 607 0
DWIDTH 27 0
BBX 7 12 10 21
BITMAP
FE
FE
FC
FC
FC
FC
FC
FC
7C
7C
7C
7C
ENDCHAR
STARTCHAR $0028
ENCODING 40
SWIDTH 607 0
DWIDTH 27 0
BBX 16 45 4 -7
BITMAP
0018
003C
007E
00FF
01FE
03FC
03F8
07F8
0FF0
0FE0
1FE0
1FC0
3FC0
3F80
3F80
7F00
7F00
7F00
7F00
7F00
7F00
FF00
FF00
FF00
FF00
7F00
7F00
7F00
7F00
7F00
3F80
3F80
3FC0
1FC0
1FE0
0FE0
0FF0
07F8
03FC
01FC
01FE
00FF
007E
003C
0018
ENDCHAR
STARTCHAR $0029
ENCODING 41
SWIDTH 607 0
DWIDTH 27 0
BBX 15 45 7 -7
BITMAP
1000
3C00
7E00
FE00
FF00
7F80
3FC0
1FE0
0FE0
0FF0
07F0
07F8
03F8
03FC
01FC
01FC
01FE
00FE
00FE
00FE
00FE
00FE
00FE
00FE
00FE
00FE
00FE
00FE
01FE
01FC
01FC
03FC
03F8
03F8
07F0
0FF0
0FE0
1FE0
3FC0
7F80
FF00
FE00
7C00
3800
1000
ENDCHAR
STARTCHAR $002A
ENCODING 42
SWIDTH 607 0
DWIDTH 27 0
BBX 24 23 1 3
BITMAP
007F00
007E00
007E00
007E00
003E00
303E0E
3E3E3E
7FBEFE
7FFFFF
7FFFFF
FFFFFF
1FFFF8
00FF00
00FF80
01FFC0
03FFE0
07F7F0
0FE3F8
1FE3FC
0FC1F8
0781E0
0180C0
008080
ENDCHAR
STARTCHAR $002B
ENCODING 43
SWIDTH 607 0
DWIDTH 27 0
BBX 24 24 1 2
BITMAP
007E00
007E00
007E00
007E00
007E00
007E00
007E00
007E00
007E00
FFFFFF
FFFFFF
FFFFFF
FFFFFF
FFFFFF
FFFFFF
007E00
007E00
007E00
007E00
007E00
007E00
007E00
007E00
007E00
ENDCHAR
STARTCHAR $002C
ENCODING 44
SWIDTH 607 0
DWIDTH 27 0
BBX 10 18 8 -9
BITMAP
1F00
3F80
7FC0
7FC0
7FC0
7FC0
7FC0
7FC0
3F80
3F80
3F00
3F00
3F00
7E00
7E00
7C00
7C00
F800
ENDCHAR
STARTCHAR $002D
ENCODING 45
SWIDTH 607 0
DWIDTH 27 0
BBX 19 6 4 11
BITMAP
FFFFE0
FFFFE0
FFFFE0
FFFFE0
FFFFE0
FFFFE0
ENDCHAR
STARTCHAR $002E
ENCODING 46
SWIDTH 607 0
DWIDTH 27 0
BBX 10 10 8 -1
BITMAP
1F00
3F80
7FC0
7FC0
FFC0
FFC0
7FC0
7F80
3F80
0E00
ENDCHAR
STARTCHAR $002F
ENCODING 47
SWIDTH 607 0
DWIDTH 27 0
BBX 24 41 1 -5
BITMAP
000018
00003E
00003F
00007F
00007E
0000FE
0000FC
0001FC
0001F8
0003F8
0003F0
0007F0
0007E0
000FE0
000FC0
001FC0
001FC0
003F80
003F80
007F00
007F00
00FE00
00FE00
01FC00
01FC00
03F800
03F800
03F000
07F000
07E000
0FE000
0FC000
1FC000
1F8000
3F8000
3F0000
7F0000
7E0000
FE0000
3C0000
040000
ENDCHAR
STARTCHAR $0030
ENCODING 48
SWIDTH 607 0
DWIDTH 27 0
BBX 22 33 2 -1
BITMAP
003800
03FF00
07FFC0
0FFFE0
1FFFF0
3FFFF0
3F83F8
3F03F8
7F03F8
7E07FC
7E07FC
7E0FFC
FE0FFC
FE1EFC
FE1EFC
FE3CFC
FE3CFC
FE38FC
FE78FC
FE70FC
FEF0FC
7EE0FC
7FE1FC
7FC1FC
7FC1F8
7F81F8
3F83F8
3FCFF0
1FFFF0
0FFFE0
07FFC0
03FF00
007C00
ENDCHAR
STARTCHAR $0031
ENCODING 49
SWIDTH 607 0
DWIDTH 27 0
BBX 21 31 3 0
BITMAP
007F00
01FF00
03FF00
0FFF00
3FFF00
7FFF00
FFFF00
FF7F00
7E7F00
387F00
207F00
007F00
007F00
007F00
007F00
007F00
007F00
007F00
007F00
007F00
007F00
007F00
007F00
007F00
007F00
007F00
7FFFF8
7FFFF8
7FFFF8
7FFFF8
7FFFF8
ENDCHAR
STARTCHAR $0032
ENCODING 50
SWIDTH 607 0
DWIDTH 27 0
BBX 22 32 2 0
BITMAP
00F000
07FF00
1FFFC0
3FFFE0
7FFFE0
FFFFF0
7E0FF0
3807F8
1003F8
0003F8
0003F8
0007F8
0007F0
0007F0
000FF0
001FE0
001FC0
003FC0
007F80
00FF00
01FE00
03FC00
07F800
0FF000
1FE000
3FC000
7F8004
FFFFF8
FFFFF8
FFFFF8
FFFFF8
FFFFF8
ENDCHAR
STARTCHAR $0033
ENCODING 51
SWIDTH 607 0
DWIDTH 27 0
BBX 23 33 1 -1
BITMAP
007800
07FF80
1FFFE0
3FFFF0
7FFFF0
7FFFF8
3E07F8
1803FC
0001FC
0001F8
0001F8
0003F8
0007F0
00FFE0
00FFC0
00FF00
00FFC0
01FFF0
000FF8
0003FC
0001FC
0001FC
0001FE
0001FE
1001FC
1801FC
3C03FC
FFFFF8
FFFFF8
7FFFF0
3FFFE0
0FFF80
00FC00
ENDCHAR
STARTCHAR $0034
ENCODING 52
SWIDTH 607 0
DWIDTH 27 0
BBX 23 32 2 0
BITMAP
008000
00F000
00FE00
01FC00
01FC00
03F800
03F800
03F800
07F000
07F000
0FE000
0FE000
1FC000
1FC7F0
1FC7F0
3F87F0
3F87F0
7F07F0
7F07F0
7F07F0
FFFFFE
FFFFFE
FFFFFE
FFFFFE
FFFFFE
FFFFFE
0007F0
0007F0
0007F0
0007F0
0007F0
0007F0
ENDCHAR
STARTCHAR $0035
ENCODING 53
SWIDTH 607 0
DWIDTH 27 0
BBX 22 32 2 -1
BITMAP
3FFFF8
3FFFF8
3FFFF8
3FFFF0
3FFFF0
3F8000
3F8000
3F8000
3F8000
3F8000
3F8000
3FBF80
3FFFC0
3FFFE0
3FFFF0
3FFFF8
3E07F8
0003FC
0003FC
0001FC
0001FC
0001FC
0001FC
1003FC
1803F8
3C07F8
FFFFF8
FFFFF0
7FFFE0
3FFFC0
0FFF00
01F800
ENDCHAR
STARTCHAR $0036
ENCODING 54
SWIDTH 607 0
DWIDTH 27 0
BBX 23 33 2 -1
BITMAP
000E00
00FFE0
01FFF0
07FFF0
0FFFE0
0FF9C0
1FE040
3FC000
3F8000
3F0000
7F0000
7F0F00
7F3FC0
7FFFF0
FFFFF8
FFFFF8
FFC3FC
FF81FC
FF01FC
FF01FE
FF00FE
FF00FE
7F00FE
7F01FC
7F01FC
7F81FC
3F83FC
3FC7F8
1FFFF8
0FFFF0
07FFE0
03FF80
007C00
ENDCHAR
STARTCHAR $0037
ENCODING 55
SWIDTH 607 0
DWIDTH 27 0
BBX 21 32 3 -1
BITMAP
FFFFF8
FFFFF8
FFFFF8
FFFFF8
FFFFF8
FFFFF0
0007F0
0007F0
000FE0
000FE0
001FC0
001FC0
003F80
003F80
007F00
007F00
00FF00
00FE00
01FE00
01FC00
03FC00
03F800
07F800
07F000
0FF000
0FF000
0FE000
1FE000
1FC000
3FC000
078000
008000
ENDCHAR
STARTCHAR $0038
ENCODING 56
SWIDTH 607 0
DWIDTH 27 0
BBX 23 33 2 -1
BITMAP
003800
03FF80
0FFFE0
1FFFF0
3FFFF0
3FC7F8
7F03F8
7F01FC
7F01FC
7F01FC
7F01F8
7F83F8
3FC7F0
3FFFE0
1FFFC0
07FF80
07FFE0
1FFFF0
3F9FF8
7F07FC
7F01FC
FE01FE
FE00FE
FE00FE
FE00FE
FE01FE
FF01FC
7FC7FC
7FFFF8
3FFFF0
1FFFE0
07FFC0
00FC00
ENDCHAR
STARTCHAR $0039
ENCODING 57
SWIDTH 607 0
DWIDTH 27 0
BBX 22 33 2 -1
BITMAP
003800
03FF80
0FFFC0
1FFFE0
3FFFF0
7FCFF8
7F03F8
7F03FC
FE01FC
FE01FC
FE01FC
FE01FC
FE01FC
FE01FC
FF01FC
7F03FC
7FFFFC
3FFFFC
3FFFFC
1FFDFC
07FBF8
0003F8
0007F8
000FF0
001FF0
003FE0
00FFC0
07FF80
3FFF00
1FFC00
1FF000
1FC000
1E0000
ENDCHAR
STARTCHAR $003A
ENCODING 58
SWIDTH 607 0
DWIDTH 27 0
BBX 9 25 9 -1
BITMAP
3C00
7F00
FF00
FF80
FF80
FF80
FF80
7F00
3E00
0000
0000
0000
0000
0000
0000
0800
7E00
FF00
FF80
FF80
FF80
FF80
FF00
7F00
1C00
ENDCHAR
STARTCHAR $003B
ENCODING 59
SWIDTH 607 0
DWIDTH 27 0
BBX 9 33 9 -9
BITMAP
3C00
7F00
FF00
FF80
FF80
FF80
FF80
7F00
3E00
0000
0000
0000
0000
0000
0000
1C00
7F00
FF00
FF80
FF80
FF80
FF80
FF00
7F00
7F00
7E00
7E00
7C00
7C00
FC00
F800
F800
F000
ENDCHAR
STARTCHAR $003C
ENCODING 60
SWIDTH 607 0
DWIDTH 27 0
BBX 21 26 3 1
BITMAP
0000C0
0001E0
0007E0
001FF0
003FF8
00FFE0
01FF80
07FF00
1FFC00
3FF000
FFE000
FF8000
FE0000
FE0000
FF8000
FFC000
3FF000
1FFC00
07FF00
03FF80
00FFE0
003FF8
001FF0
0007E0
0003E0
0000C0
ENDCHAR
STARTCHAR $003D
ENCODING 61
SWIDTH 607 0
DWIDTH 27 0
BBX 20 15 3 6
BITMAP
FFFFF0
FFFFF0
FFFFF0
FFFFF0
FFFFF0
000000
000000
000000
000000
FFFFF0
FFFFF0
FFFFF0
FFFFF0
FFFFF0
FFFFF0
ENDCHAR
STARTCHAR $003E
ENCODING 62
SWIDTH 607 0
DWIDTH 27 0
BBX 21 26 3 1
BITMAP
100000
3C0000
3F0000
7F8000
FFE000
7FF000
1FFC00
07FF00
01FF80
00FFE0
003FF8
000FF8
0003F8
0003F8
000FF8
003FF8
007FE0
01FF80
07FF00
0FFC00
3FF800
FFE000
7F8000
7F0000
3C0000
180000
ENDCHAR
STARTCHAR $003F
ENCODING 63
SWIDTH 607 0
DWIDTH 27 0
BBX 21 33 2 -1
BITMAP
007800
07FF80
0FFFE0
3FFFF0
7FFFF0
FFFFF8
3F07F8
1C03F8
0803F8
0003F8
0007F8
000FF0
003FF0
007FE0
00FF80
00FF00
01FE00
01FC00
01F800
01F800
01F800
000000
000000
000000
000000
00F000
01F800
03FC00
03FC00
03FC00
03FC00
01F800
006000
ENDCHAR
STARTCHAR $0040
ENCODING 64
SWIDTH 607 0
DWIDTH 27 0
BBX 27 36 0 -4
BITMAP
001E0000
03FFE000
0FFFF800
1FFFFC00
7FFFFE00
FF00FF00
7C003F00
30001F80
20001F80
00000F80
00000FC0
00000FC0
01FC07C0
07FF87C0
0FFFC7C0
1FFFC7C0
3FFFC7E0
3F0FC7E0
7E0FC7E0
7E0FC7E0
7E0FC7E0
7E0FC7E0
7E0FC7E0
7E0FC7C0
7E0FC7C0
7E0FC7C0
7E0FC7C0
7E0FC7C0
7E1FC7C0
7F3FC7C0
3FFFC7C0
3FFBEF80
1FF1FF80
07E1FF00
0000FF00
00007C00
ENDCHAR
STARTCHAR $0041
ENCODING 65
SWIDTH 607 0
DWIDTH 27 0
BBX 27 31 0 0
BITMAP
007FC000
007FC000
00FFC000
00FFE000
00FFE000
01FFE000
01FBF000
01FBF000
03FBF000
03F3F800
03F3F800
07F1F800
07F1FC00
07E1FC00
07E1FC00
0FE0FC00
0FE0FE00
0FC0FE00
1FC0FE00
1FFFFF00
1FFFFF00
3FFFFF00
3FFFFF80
3FFFFF80
7F803F80
7F003FC0
7F003FC0
7F001FC0
FF001FC0
FF001FE0
FE001FE0
ENDCHAR
STARTCHAR $0042
ENCODING 66
SWIDTH 607 0
DWIDTH 27 0
BBX 23 31 2 0
BITMAP
FFFC00
FFFFC0
FFFFE0
FFFFF8
FFFFF8
FF0FFC
FF03FC
FF03FC
FF01FC
FF01FC
FF03FC
FF03F8
FFFFF0
FFFFE0
FFFF80
FFFFE0
FFFFF8
FF0FFC
FF01FE
FF01FE
FF00FE
FF00FE
FF00FE
FF00FE
FF01FE
FF07FE
FFFFFC
FFFFFC
FFFFF8
FFFFE0
FFFF00
ENDCHAR
STARTCHAR $0043
ENCODING 67
SWIDTH 607 0
DWIDTH 27 0
BBX 24 33 2 -1
BITMAP
000F00
00FFF0
03FFFC
07FFFF
0FFFFE
1FFFFC
3FE03C
3FC018
7F8000
7F0000
FF0000
FF0000
FE0000
FE0000
FE0000
FE0000
FE0000
FE0000
FE0000
FE0000
FE0000
FF0000
FF0000
7F0000
7F8008
7FC01C
3FE03E
1FFFFE
1FFFFF
0FFFFE
03FFFC
00FFF0
001F80
ENDCHAR
STARTCHAR $0044
ENCODING 68
SWIDTH 607 0
DWIDTH 27 0
BBX 24 31 2 0
BITMAP
FFF000
FFFF00
FFFFC0
FFFFE0
FFFFF0
FFFFF8
FF07FC
FF03FC
FF01FE
FF01FE
FF01FE
FF00FE
FF00FE
FF00FE
FF00FF
FF00FF
FF00FF
FF00FE
FF00FE
FF00FE
FF01FE
FF01FE
FF01FE
FF03FC
FF07FC
FF1FF8
FFFFF0
FFFFE0
FFFFC0
FFFF80
FFF800
ENDCHAR
STARTCHAR $0045
ENCODING 69
SWIDTH 607 0
DWIDTH 27 0
BBX 20 31 4 0
BITMAP
FFFFF0
FFFFF0
FFFFF0
FFFFF0
FFFFF0
FE0000
FE0000
FE0000
FE0000
FE0000
FE0000
FE0000
FE0000
FFFFC0
FFFFC0
FFFFC0
FFFFC0
FFFFC0
FE0000
FE0000
FE0000
FE0000
FE0000
FE0000
FE0000
FE0000
FFFFF0
FFFFF0
FFFFF0
FFFFF0
FFFFF0
ENDCHAR
STARTCHAR $0046
ENCODING 70
SWIDTH 607 0
DWIDTH 27 0
BBX 20 31 5 0
BITMAP
FFFFF0
FFFFF0
FFFFF0
FFFFF0
FFFFE0
FE0000
FE0000
FE0000
FE0000
FE0000
FE0000
FE0000
FE0000
FE0000
FFFFC0
FFFFC0
FFFFC0
FFFFC0
FFFFC0
FE0000
FE0000
FE0000
FE0000
FE0000
FE0000
FE0000
FE0000
FE0000
FE0000
FE0000
FE0000
ENDCHAR
STARTCHAR $0047
ENCODING 71
SWIDTH 607 0
DWIDTH 27 0
BBX 24 33 1 -1
BITMAP
000700
007FF0
01FFFC
07FFFE
0FFFFF
1FFFFE
1FE03C
3FC018
3F8000
7F8000
7F0000
7F0000
FF0000
FF0000
FF07FF
FF07FF
FF07FF
FF07FF
FF07FF
FF007F
FF007F
FF007F
7F007F
7F007F
7F807F
3F807F
3FC07F
1FFFFF
1FFFFF
0FFFFF
07FFFE
01FFF8
003F80
ENDCHAR
STARTCHAR $0048
ENCODING 72
SWIDTH 607 0
DWIDTH 27 0
BBX 22 31 2 0
BITMAP
FF01FC
FF01FC
FF01FC
FF01FC
FF01FC
FF01FC
FF01FC
FF01FC
FF01FC
FF01FC
FF01FC
FF01FC
FFFFFC
FFFFFC
FFFFFC
FFFFFC
FFFFFC
FFFFFC
FF01FC
FF01FC
FF01FC
FF01FC
FF01FC
FF01FC
FF01FC
FF01FC
FF01FC
FF01FC
FF01FC
FF01FC
FF01FC
ENDCHAR
STARTCHAR $0049
ENCODING 73
SWIDTH 607 0
DWIDTH 27 0
BBX 20 31 3 0
BITMAP
FFFFF0
FFFFF0
FFFFF0
FFFFF0
FFFFF0
FFFFF0
01FC00
01FC00
01FC00
01FC00
01FC00
01FC00
01FC00
01FC00
01FC00
01FC00
01FC00
01FC00
01FC00
01FC00
01FC00
01FC00
01FC00
01FC00
01FC00
01FC00
FFFFF0
FFFFF0
FFFFF0
FFFFF0
FFFFF0
ENDCHAR
STARTCHAR $004A
ENCODING 74
SWIDTH 607 0
DWIDTH 27 0
BBX 21 32 2 -1
BITMAP
07FFF8
07FFF8
07FFF8
07FFF8
07FFF8
07FFF8
0003F8
0003F8
0003F8
0003F8
0003F8
0003F8
0003F8
0003F8
0003F8
0003F8
0003F8
0003F8
0003F8
0003F8
0003F8
0003F8
0003F8
0007F8
2007F8
380FF0
7FFFF0
7FFFE0
FFFFC0
7FFF80
1FFE00
03E000
ENDCHAR
STARTCHAR $004B
ENCODING 75
SWIDTH 607 0
DWIDTH 27 0
BBX 24 31 3 0
BITMAP
FE01FE
FE01FC
FE03FC
FE03F8
FE07F8
FE0FF0
FE0FE0
FE1FE0
FE1FC0
FE3F80
FE7F80
FE7F00
FEFE00
FEFE00
FFFE00
FEFE00
FEFF00
FE7F00
FE7F80
FE3FC0
FE3FC0
FE1FE0
FE1FE0
FE0FF0
FE0FF0
FE07F8
FE07FC
FE03FC
FE03FE
FE01FE
FE01FF
ENDCHAR
STARTCHAR $004C
ENCODING 76
SWIDTH 607 0
DWIDTH 27 0
BBX 21 31 4 0
BITMAP
FE0000
FE0000
FE0000
FE0000
FE0000
FE0000
FE0000
FE0000
FE0000
FE0000
FE0000
FE0000
FE0000
FE0000
FE0000
FE0000
FE0000
FE0000
FE0000
FE0000
FE0000
FE0000
FE0000
FE0000
FE0000
FFFFF8
FFFFF8
FFFFF0
FFFFF0
FFFFF0
FFFFF0
ENDCHAR
STARTCHAR $004D
ENCODING 77
SWIDTH 607 0
DWIDTH 27 0
BBX 25 31 1 0
BITMAP
7F80FE00
7F81FE00
7F81FE00
7FC1FE00
7FC1FE00
7FC1FE00
7FC1FF00
7FC3FF00
7FC3FF00
7FE3FF00
7DE3FF00
7DE3FF00
7DE3BF00
7DE7BF00
7DE7BF00
7CF7BF00
7CF7BF00
7CF7BF00
FCF73F00
FCF73F00
FC7F3F00
FC7F3F00
FC7F3F00
FC7E3F00
FC7E3F80
FC7E3F80
FC003F80
FC003F80
FC003F80
FC003F80
FC001F80
ENDCHAR
STARTCHAR $004E
ENCODING 78
SWIDTH 607 0
DWIDTH 27 0
BBX 22 31 2 0
BITMAP
FF80FC
FFC0FC
FFC0FC
FFC0FC
FFE0FC
FFE0FC
FFE0FC
FFF0FC
FFF0FC
FFF0FC
FDF8FC
FDF8FC
FDF8FC
FCFCFC
FCFCFC
FCFCFC
FC7EFC
FC7EFC
FE7EFC
FE3F7C
FE3F7C
FE3F7C
FE1FFC
FE1FFC
FE1FFC
FE0FFC
FE0FFC
FE0FFC
FE07FC
FE07FC
FE07FC
ENDCHAR
STARTCHAR $004F
ENCODING 79
SWIDTH 607 0
DWIDTH 27 0
BBX 25 33 1 -1
BITMAP
001C0000
01FFC000
07FFE000
0FFFF000
1FFFF800
1FFFFC00
3FC1FE00
3F80FE00
7F80FE00
7F00FF00
7F007F00
FF007F00
FF007F00
FF007F80
FF007F80
FE007F80
FE007F80
FE007F80
FF007F80
FF007F80
FF007F00
FF007F00
7F007F00
7F007F00
7F00FE00
7F80FE00
3FC1FE00
3FFFFC00
1FFFF800
0FFFF800
07FFE000
01FFC000
003E0000
ENDCHAR
STARTCHAR $0050
ENCODING 80
SWIDTH 607 0
DWIDTH 27 0
BBX 23 31 3 0
BITMAP
FFFC00
FFFF80
FFFFE0
FFFFF0
FFFFF8
FE1FFC
FE03FC
FE03FC
FE01FE
FE01FE
FE01FE
FE01FE
FE01FC
FE03FC
FE07FC
FFFFF8
FFFFF8
FFFFF0
FFFFE0
FFFF80
FFFC00
FE0000
FE0000
FE0000
FE0000
FE0000
FE0000
FE0000
FE0000
FE0000
FE0000
ENDCHAR
STARTCHAR $0051
ENCODING 81
SWIDTH 607 0
DWIDTH 27 0
BBX 27 40 1 -8
BITMAP
001C0000
01FFC000
03FFE000
07FFF000
0FFFF800
1FFFFC00
3FC1FE00
3F80FE00
3F80FE00
7F80FF00
7F007F00
7F007F00
7F007F00
7F007F00
FF007F00
FF007F80
FF007F80
FF007F80
FF007F00
7F007F00
7F007F00
7F007F00
7F007F00
7F80FF00
7F80FE00
3F80FE00
3FC1FC00
1FFFF800
1FFFF800
0FFFE000
07FFE000
01FFFC00
003FFF00
0000FF80
00003FC0
00001FC0
00000FE0
00000FE0
00000780
00000400
ENDCHAR
STARTCHAR $0052
ENCODING 82
SWIDTH 607 0
DWIDTH 27 0
BBX 24 31 3 0
BITMAP
FFF800
FFFF80
FFFFE0
FFFFF0
FFFFF8
FE1FF8
FE07FC
FE03FC
FE03FC
FE03FC
FE03FC
FE03FC
FE03F8
FE07F8
FFFFF0
FFFFF0
FFFFC0
FFFF80
FFFF00
FE7F80
FE3F80
FE3FC0
FE1FE0
FE1FE0
FE0FF0
FE0FF0
FE07F8
FE03FC
FE03FC
FE01FE
FE01FF
ENDCHAR
STARTCHAR $0053
ENCODING 83
SWIDTH 607 0
DWIDTH 27 0
BBX 24 33 1 -1
BITMAP
001E00
01FFE0
07FFF8
0FFFFE
1FFFFF
3FFFFE
3FC07C
7F8018
7F8000
7F8000
7F8000
7FE000
3FF800
3FFF00
1FFFE0
0FFFF8
07FFFC
01FFFE
003FFE
0007FF
0001FF
0000FF
0000FF
00007F
10007F
3800FF
7E01FF
FFFFFE
FFFFFC
7FFFF8
3FFFF0
0FFFE0
00FE00
ENDCHAR
STARTCHAR $0054
ENCODING 84
SWIDTH 607 0
DWIDTH 27 0
BBX 25 31 1 0
BITMAP
FFFFFF80
FFFFFF80
FFFFFF80
FFFFFF00
FFFFFF00
FFFFFF00
007F0000
007F0000
007F0000
007F0000
007F0000
007F0000
007F0000
007F0000
007F0000
007F0000
007F0000
007F0000
007F0000
007F0000
007F0000
007F0000
007F0000
007F0000
007F0000
007F0000
007F0000
007F0000
007F0000
007F0000
007F0000
ENDCHAR
STARTCHAR $0055
ENCODING 85
SWIDTH 607 0
DWIDTH 27 0
BBX 23 32 2 -1
BITMAP
FE01FE
FE01FE
FE01FE
FE01FE
FE01FE
FE01FE
FE01FE
FE01FE
FE01FE
FE01FE
FE01FE
FE01FE
FE01FE
FE01FE
FE01FE
FE01FE
FE01FE
FE01FE
FE01FE
FE01FE
FE01FE
FE01FE
FE01FE
FF01FC
FF01FC
7F83FC
7FFFF8
3FFFF8
1FFFF0
0FFFE0
07FF80
00FC00
ENDCHAR
STARTCHAR $0056
ENCODING 86
SWIDTH 607 0
DWIDTH 27 0
BBX 27 31 0 0
BITMAP
FF001FE0
FF001FC0
7F001FC0
7F003FC0
7F803FC0
3F803F80
3F803F80
3F803F80
3FC07F00
1FC07F00
1FC07F00
1FC07E00
0FE0FE00
0FE0FE00
0FE0FE00
0FE0FC00
07E1FC00
07F1FC00
07F1F800
03F1F800
03F1F800
03FBF800
03FBF000
01FBF000
01FBF000
01FFE000
00FFE000
00FFE000
00FFE000
00FFC000
007FC000
ENDCHAR
STARTCHAR $0057
ENCODING 87
SWIDTH 607 0
DWIDTH 27 0
BBX 27 31 0 0
BITMAP
FE000FE0
FE000FE0
FE000FE0
FE000FC0
FE3F8FC0
FE3F8FC0
7E3F8FC0
7E3F8FC0
7E3F8FC0
7E3F8FC0
7E7B8FC0
7E7B8F80
7E7BCF80
7E7BCF80
7E7BCF80
3E7BCF80
3E7BDF80
3E73DF80
3EF3DF80
3FF3DF80
3FF1DF00
3FF1FF00
3FF1FF00
3FF1FF00
3FF1FF00
1FF1FF00
1FE1FF00
1FE1FF00
1FE1FF00
1FE1FE00
1FE0FE00
ENDCHAR
STARTCHAR $0058
ENCODING 88
SWIDTH 607 0
DWIDTH 27 0
BBX 27 31 0 0
BITMAP
7F803FC0
3F807F80
3FC07F00
1FC0FF00
1FE0FE00
0FE0FE00
0FF1FC00
07F1FC00
07FBF800
03FBF000
01FFF000
01FFE000
00FFE000
00FFC000
007FC000
00FFC000
00FFE000
01FFE000
01FFF000
03FFF000
03FBF800
07F3F800
07F1FC00
0FE1FE00
0FE0FE00
1FC0FF00
1FC07F00
3FC07F80
7F803F80
7F803FC0
FF003FE0
ENDCHAR
STARTCHAR $0059
ENCODING 89
SWIDTH 607 0
DWIDTH 27 0
BBX 27 31 0 0
BITMAP
FF001FE0
FF001FC0
7F803FC0
7F803F80
3FC07F80
3FC07F00
1FC07F00
1FE0FE00
0FE0FE00
0FF1FC00
07F1FC00
03FBF800
03FBF800
01FFF000
01FFF000
00FFE000
00FFE000
007FC000
007F8000
003F8000
003F8000
003F8000
003F8000
003F8000
003F8000
003F8000
003F8000
003F8000
003F8000
003F8000
003F8000
ENDCHAR
STARTCHAR $005A
ENCODING 90
SWIDTH 607 0
DWIDTH 27 0
BBX 23 31 2 0
BITMAP
7FFFFE
7FFFFE
7FFFFE
7FFFFE
7FFFFE
7FFFFE
0003FC
0007F8
000FF8
000FF0
001FE0
003FC0
007FC0
007F80
00FF00
01FE00
03FE00
03FC00
07F800
0FF800
1FF000
1FE000
3FC000
7FC000
7F8000
FFFFFE
FFFFFE
FFFFFE
FFFFFE
FFFFFC
FFFFFC
ENDCHAR
STARTCHAR $005B
ENCODING 91
SWIDTH 607 0
DWIDTH 27 0
BBX 14 42 7 -5
BITMAP
FFFC
FFFC
FFFC
FFFC
FFFC
FFFC
FE00
FE00
FE00
FE00
FE00
FE00
FE00
FE00
FE00
FE00
FE00
FE00
FE00
FE00
FE00
FE00
FE00
FE00
FE00
FE00
FE00
FE00
FE00
FE00
FE00
FE00
FE00
FE00
FE00
FE00
FE00
FFFC
FFFC
FFFC
FFFC
FFFC
ENDCHAR
STARTCHAR $005C
ENCODING 92
SWIDTH 607 0
DWIDTH 27 0
BBX 24 41 1 -5
BITMAP
0C0000
3E0000
FE0000
7F0000
7F0000
3F8000
3F8000
1FC000
1FC000
0FC000
0FE000
07E000
07F000
03F000
03F800
01F800
01FC00
00FC00
00FE00
007E00
007F00
003F00
003F80
003F80
001FC0
001FC0
000FE0
000FE0
0007F0
0007F0
0003F8
0003F8
0001FC
0001FC
0000FC
0000FE
00007E
00007F
00003F
00003C
000010
ENDCHAR
STARTCHAR $005D
ENCODING 93
SWIDTH 607 0
DWIDTH 27 0
BBX 14 42 6 -5
BITMAP
FFFC
FFFC
FFFC
FFFC
FFFC
FFFC
01FC
01FC
01FC
01FC
01FC
01FC
01FC
01FC
01FC
01FC
01FC
01FC
01FC
01FC
01FC
01FC
01FC
01FC
01FC
01FC
01FC
01FC
01FC
01FC
01FC
01FC
01FC
01FC
01FC
01FC
01FC
FFFC
FFFC
FFFC
FFFC
FFFC
ENDCHAR
STARTCHAR $005E
ENCODING 94
SWIDTH 607 0
DWIDTH 27 0
BBX 23 15 2 23
BITMAP
00FE00
00FE00
01FF00
03FF00
03FF80
07FFC0
07EFC0
0FCFE0
1FC7E0
1F87F0
3F83F8
3F03F8
7F01FC
FE01FC
FE00FE
ENDCHAR
STARTCHAR $005F
ENCODING 95
SWIDTH 607 0
DWIDTH 27 0
BBX 22 5 2 -8
BITMAP
FFFFFC
FFFFFC
FFFFFC
FFFFFC
FFFFFC
ENDCHAR
STARTCHAR $0060
ENCODING 96
SWIDTH 607 0
DWIDTH 27 0
BBX 13 9 7 28
BITMAP
1000
3C00
3E00
7F80
FFE0
7FF8
1FF0
03F0
0060
ENDCHAR
STARTCHAR $0061
ENCODING 97
SWIDTH 607 0
DWIDTH 27 0
BBX 23 25 2 -1
BITMAP
0FFF00
7FFFC0
3FFFE0
3FFFF0
1FFFF0
1807F8
0003F8
0003F8
0003F8
00FFF8
0FFFF8
3FFFF8
7FFFF8
7FC3F8
FF03F8
FE03F8
FE03F8
FE03F8
FE07F8
FF9FFC
FFFFFE
7FFFFC
3FFCFC
1FF878
07C008
ENDCHAR
STARTCHAR $0062
ENCODING 98
SWIDTH 607 0
DWIDTH 27 0
BBX 22 35 3 -1
BITMAP
060000
FE0000
FE0000
FE0000
FE0000
FE0000
FE0000
FE0000
FE0000
FE0000
FE3F80
FEFFE0
FFFFE0
FFFFF0
FFFFF8
FF87F8
FF03F8
FE03F8
FE03FC
FE03FC
FE01FC
FE01FC
FE01FC
FE01FC
FE01FC
FE03FC
FE03F8
FE03F8
FF07F8
FFCFF0
FFFFF0
FFFFE0
FFFFC0
FCFF80
003E00
ENDCHAR
STARTCHAR $0063
ENCODING 99
SWIDTH 607 0
DWIDTH 27 0
BBX 21 25 3 -1
BITMAP
01FFC0
07FFF0
0FFFF8
1FFFF0
3FFFF0
3FC1E0
7F8040
7F0000
7F0000
FF0000
FE0000
FE0000
FE0000
FE0000
FF0000
FF0000
7F0000
7F8040
7FC0E0
3FFFF0
1FFFF0
1FFFF8
07FFF0
03FFC0
007E00
ENDCHAR
STARTCHAR $0064
ENCODING 100
SWIDTH 607 0
DWIDTH 27 0
BBX 22 35 2 -1
BITMAP
000180
0001FC
0001FC
0001FC
0001FC
0001FC
0001FC
0001FC
0001FC
0001FC
07F9FC
0FFDFC
1FFFFC
3FFFFC
7FFFFC
7F87FC
7F03FC
FF01FC
FE01FC
FE01FC
FE01FC
FE01FC
FE01FC
FE01FC
FE01FC
FE01FC
FE01FC
FF03FC
7F07FC
7FCFFC
7FFFFC
3FFFFC
1FFDFC
0FF9FC
03E000
ENDCHAR
STARTCHAR $0065
ENCODING 101
SWIDTH 607 0
DWIDTH 27 0
BBX 23 25 2 -1
BITMAP
01FF00
07FFC0
0FFFE0
1FFFF0
3FC7F8
3F83F8
7F01FC
7F01FC
FE00FC
FE00FC
FFFFFE
FFFFFE
FFFFFE
FFFFFE
FE0000
FE0000
7F0000
7F0000
7F8070
3FE3F0
3FFFF8
1FFFFC
0FFFF0
03FFC0
007F00
ENDCHAR
STARTCHAR $0066
ENCODING 102
SWIDTH 607 0
DWIDTH 27 0
BBX 23 34 3 0
BITMAP
0007E0
007FFE
00FFFE
01FFFE
03FFFC
03FE7C
03F800
07F000
07F000
07F000
07F000
07F000
FFFFF0
FFFFF0
FFFFF0
FFFFE0
FFFFE0
07F000
07F000
07F000
07F000
07F000
07F000
07F000
07F000
07F000
07F000
07F000
07F000
07F000
07F000
07F000
07F000
07F000
ENDCHAR
STARTCHAR $0067
ENCODING 103
SWIDTH 607 0
DWIDTH 27 0
BBX 25 37 1 -10
BITMAP
00000600
00001F00
0001FF00
01FFFF00
07FFFF80
0FFFFC00
1FFFE000
3FE3F800
3F81FC00
3F80FC00
7F80FC00
7F80FC00
7F80FC00
3F81FC00
3FC3FC00
1FFFF800
1FFFF800
07FFF000
07FFC000
0FFE0000
1F800000
1F800000
1FFFC000
1FFFF800
0FFFFC00
0FFFFE00
03FFFF00
0000FF00
00007F00
FE007F00
FE007F00
7F00FF00
7FFFFE00
7FFFFE00
3FFFFC00
0FFFF000
01FF0000
ENDCHAR
STARTCHAR $0068
ENCODING 104
SWIDTH 607 0
DWIDTH 27 0
BBX 21 34 3 0
BITMAP
020000
FE0000
FE0000
FE0000
FE0000
FE0000
FE0000
FE0000
FE0000
FE0000
FE3FC0
FEFFE0
FFFFF0
FFFFF0
FFFFF0
FF87F0
FF07F8
FE07F8
FE03F8
FE03F8
FE03F8
FE03F8
FE03F8
FE03F8
FE03F8
FE03F8
FE03F8
FE03F8
FE03F8
FE03F8
FE03F8
FE03F8
FE03F8
FE03F8
ENDCHAR
STARTCHAR $0069
ENCODING 105
SWIDTH 607 0
DWIDTH 27 0
BBX 20 36 4 0
BITMAP
01E000
03F800
07F800
07F800
07F800
07F800
03F800
01E000
000000
000000
000000
000000
FFFC00
FFFC00
FFFC00
FFFC00
FFFC00
01FC00
01FC00
01FC00
01FC00
01FC00
01FC00
01FC00
01FC00
01FC00
01FC00
01FC00
01FC00
01FC00
01FC00
FFFFF0
FFFFF0
FFFFF0
FFFFF0
FFFFF0
ENDCHAR
STARTCHAR $006A
ENCODING 106
SWIDTH 607 0
DWIDTH 27 0
BBX 18 46 3 -10
BITMAP
001E00
003F80
003F80
007FC0
007FC0
003F80
003F80
001E00
000000
000000
000000
000000
3FFFC0
3FFFC0
3FFFC0
3FFFC0
3FFFC0
001FC0
001FC0
001FC0
001FC0
001FC0
001FC0
001FC0
001FC0
001FC0
001FC0
001FC0
001FC0
001FC0
001FC0
001FC0
001FC0
003FC0
003F80
007F80
007F80
00FF00
03FE00
0FFE00
FFFC00
FFF800
7FE000
7F8000
7C0000
600000
ENDCHAR
STARTCHAR $006B
ENCODING 107
SWIDTH 607 0
DWIDTH 27 0
BBX 23 34 3 0
BITMAP
060000
FE0000
FE0000
FE0000
FE0000
FE0000
FE0000
FE0000
FE0000
FE0000
FE01FE
FE03FC
FE03F8
FE07F0
FE0FE0
FE1FE0
FE1FC0
FE3F80
FE7F80
FE7F00
FEFE00
FFFE00
FEFF00
FE7F00
FE7F80
FE3FC0
FE1FC0
FE1FE0
FE0FF0
FE0FF0
FE07F8
FE03FC
FE03FC
FE01FE
ENDCHAR
STARTCHAR $006C
ENCODING 108
SWIDTH 607 0
DWIDTH 27 0
BBX 22 34 1 -1
BITMAP
FFFC00
FFFC00
FFFC00
FFFC00
FFFC00
01FC00
01FC00
01FC00
01FC00
01FC00
01FC00
01FC00
01FC00
01FC00
01FC00
01FC00
01FC00
01FC00
01FC00
01FC00
01FC00
01FC00
01FC00
01FC00
01FC00
01FC00
01FE00
00FE00
00FFF8
00FFFC
007FFC
003FFC
001FFC
0007E0
ENDCHAR
STARTCHAR $006D
ENCODING 109
SWIDTH 607 0
DWIDTH 27 0
BBX 24 24 1 0
BITMAP
F8F87E
FDFDFE
FFFFFF
FFFFFF
FFFFFF
FE3F3F
FC3E3F
FC3E3F
FC3E3F
FC3E3F
FC3E3F
FC3E3F
FC3E3F
FC3E3F
FC3E3F
FC3E3F
FC3E3F
FC3E3F
FC3E3F
FC3E3F
FC3E3F
FC3E3F
FC3E3F
FC3E3F
ENDCHAR
STARTCHAR $006E
ENCODING 110
SWIDTH 607 0
DWIDTH 27 0
BBX 21 24 3 0
BITMAP
FC3FC0
FCFFE0
FFFFF0
FFFFF0
FFFFF0
FF87F0
FF07F8
FE07F8
FE03F8
FE03F8
FE03F8
FE03F8
FE03F8
FE03F8
FE03F8
FE03F8
FE03F8
FE03F8
FE03F8
FE03F8
FE03F8
FE03F8
FE03F8
FE03F8
ENDCHAR
STARTCHAR $006F
ENCODING 111
SWIDTH 607 0
DWIDTH 27 0
BBX 23 25 2 -1
BITMAP
01FF00
07FFC0
1FFFE0
1FFFF0
3FFFF8
7F83F8
7F03FC
FF01FC
FE01FC
FE01FE
FE01FE
FE00FE
FE00FE
FE01FE
FE01FE
FE01FC
FF01FC
7F01FC
7F83FC
7FCFF8
3FFFF0
1FFFF0
0FFFE0
03FF80
00FC00
ENDCHAR
STARTCHAR $0070
ENCODING 112
SWIDTH 607 0
DWIDTH 27 0
BBX 22 34 3 -10
BITMAP
FC3F80
FCFFE0
FFFFE0
FFFFF0
FFFFF8
FF87F8
FF03F8
FE03F8
FE03FC
FE03FC
FE03FC
FE01FC
FE01FC
FE03FC
FE03FC
FE03FC
FE03F8
FE03F8
FF07F8
FFDFF0
FFFFF0
FFFFE0
FFFFC0
FEFF80
FE1E00
FE0000
FE0000
FE0000
FE0000
FE0000
FE0000
FE0000
FE0000
E00000
ENDCHAR
STARTCHAR $0071
ENCODING 113
SWIDTH 607 0
DWIDTH 27 0
BBX 22 34 2 -10
BITMAP
07F9FC
0FFDFC
1FFFFC
3FFFFC
7FFFFC
7F87FC
7F03FC
FF01FC
FE01FC
FE01FC
FE01FC
FE01FC
FE01FC
FE01FC
FE01FC
FE01FC
FF01FC
FF03FC
7F07FC
7FDFFC
7FFFFC
3FFFFC
1FFDFC
0FF9FC
03E1FC
0001FC
0001FC
0001FC
0001FC
0001FC
0001FC
0001FC
0001FC
00003C
ENDCHAR
STARTCHAR $0072
ENCODING 114
SWIDTH 607 0
DWIDTH 27 0
BBX 22 24 3 0
BITMAP
FF83FC
FF87FC
FF8FFC
FFDFFC
FFDFF8
1FFFF8
1FFEF8
1FF8F8
1FF0F8
1FF0F8
1FE000
1FE000
1FC000
1FC000
1FC000
1FC000
1FC000
1FC000
1FC000
FFFE00
FFFE00
FFFE00
FFFE00
FFFE00
ENDCHAR
STARTCHAR $0073
ENCODING 115
SWIDTH 607 0
DWIDTH 27 0
BBX 22 25 2 -1
BITMAP
03FFC0
0FFFF0
1FFFF8
1FFFF8
3FFFF0
3F80E0
3F8020
3F8000
3FE000
3FFC00
1FFF80
1FFFE0
07FFF0
01FFF8
003FF8
0007FC
0003FC
1003FC
1C03FC
3F07F8
7FFFF8
FFFFF0
3FFFE0
0FFF80
01FC00
ENDCHAR
STARTCHAR $0074
ENCODING 116
SWIDTH 607 0
DWIDTH 27 0
BBX 21 31 3 -1
BITMAP
001000
07F000
07F000
07F000
07F000
07F000
FFFFE0
FFFFE0
FFFFE0
FFFFE0
FFFFE0
07F000
07F000
07F000
07F000
07F000
07F000
07F000
07F000
07F000
07F000
07F000
07F000
07F000
07F020
07FFF0
07FFF0
03FFF8
01FFF8
00FFF0
001F00
ENDCHAR
STARTCHAR $0075
ENCODING 117
SWIDTH 607 0
DWIDTH 27 0
BBX 21 25 3 -1
BITMAP
FE03F8
FE03F8
FE03F8
FE03F8
FE03F8
FE03F8
FE03F8
FE03F8
FE03F8
FE03F8
FE03F8
FE03F8
FE03F8
FE03F8
FE03F8
FE03F8
FE03F8
FE07F8
FE0FF8
FFBFF8
7FFFF8
7FFFF8
3FFBF8
1FF3F8
078000
ENDCHAR
STARTCHAR $0076
ENCODING 118
SWIDTH 607 0
DWIDTH 27 0
BBX 24 24 1 0
BITMAP
FF007F
7F007F
7F007F
7F80FE
3F80FE
3F80FE
3F80FC
1FC1FC
1FC1FC
1FC1F8
0FC1F8
0FE3F8
0FE3F0
07E3F0
07E3F0
07F7E0
03F7E0
03F7E0
03FFC0
01FFC0
01FFC0
01FF80
00FF80
00FF80
ENDCHAR
STARTCHAR $0077
ENCODING 119
SWIDTH 607 0
DWIDTH 27 0
BBX 27 24 0 0
BITMAP
FE000FE0
FE000FC0
FE000FC0
7E1F8FC0
7E3F8FC0
7E3F8FC0
7E3F8FC0
7E3F8FC0
7E3F8F80
7E3B8F80
3E7B9F80
3E7BDF80
3F7BDF80
3F7BDF80
3F7BDF80
3F73DF00
1F73DF00
1FF1DF00
1FF1FF00
1FF1FF00
1FF1FF00
1FF1FF00
1FE1FE00
0FE1FE00
ENDCHAR
STARTCHAR $0078
ENCODING 120
SWIDTH 607 0
DWIDTH 27 0
BBX 25 24 1 0
BITMAP
7F80FE00
7F81FE00
3FC1FC00
1FC1FC00
1FE3F800
0FE3F000
07F7F000
07F7E000
03FFC000
01FFC000
01FF8000
00FF8000
01FF8000
01FFC000
03FFE000
03FFE000
07E7F000
0FE7F800
0FC3F800
1FC3FC00
3F81FC00
3F81FE00
7F00FF00
FF00FF80
ENDCHAR
STARTCHAR $0079
ENCODING 121
SWIDTH 607 0
DWIDTH 27 0
BBX 24 34 1 -10
BITMAP
FF007F
7F007F
7F007F
7F00FE
3F80FE
3F80FE
3F80FC
3F81FC
1FC1FC
1FC1F8
1FC1F8
0FC3F8
0FE3F0
0FE3F0
07E3F0
07E7E0
07F7E0
03F7E0
03FFC0
03FFC0
01FFC0
01FF80
01FF80
00FF80
003F00
007F00
007F00
01FE00
07FC00
1FFC00
1FF800
1FE000
1FC000
1E0000
ENDCHAR
STARTCHAR $007A
ENCODING 122
SWIDTH 607 0
DWIDTH 27 0
BBX 20 24 3 0
BITMAP
7FFFF0
7FFFF0
7FFFF0
7FFFF0
7FFFF0
7FFFF0
001FE0
003FC0
007F80
007F00
00FF00
01FE00
03FC00
07F800
0FF000
1FE000
3FC000
3FC000
7F8000
FFFFF0
FFFFF0
FFFFF0
FFFFF0
FFFFF0
ENDCHAR
STARTCHAR $007B
ENCODING 123
SWIDTH 607 0
DWIDTH 27 0
BBX 16 43 5 -6
BITMAP
007F
01FF
03FF
03FF
07FF
07F0
07F0
07F0
07F0
07F0
07F0
07F0
03F0
03F0
03F0
03F0
07F0
07F0
7FE0
FFC0
FF80
FC00
FF80
FFE0
3FF0
07F0
07F0
03F0
03F0
03F0
03F0
07F0
07F0
07F0
07F0
07F0
07F0
07F0
07FF
03FF
03FF
01FF
007F
ENDCHAR
STARTCHAR $007C
ENCODING 124
SWIDTH 607 0
DWIDTH 27 0
BBX 7 53 10 -13
BITMAP
FE
FE
FE
FE
FE
FE
FE
FE
FE
FE
FE
FE
FE
FE
FE
FE
FE
FE
FE
FE
FE
FE
FE
FE
FE
FE
FE
FE
FE
FE
FE
FE
FE
FE
FE
FE
FE
FE
FE
FE
FE
FE
FE
FE
FE
FE
FE
FE
FE
FE
FE
FE
FE
ENDCHAR
STARTCHAR $007D
ENCODING 125
SWIDTH 607 0
DWIDTH 27 0
BBX 16 43 6 -6
BITMAP
FE00
FF80
FFC0
FFC0
FFC0
0FE0
0FE0
0FE0
0FC0
0FC0
0FC0
0FC0
0FC0
1FC0
1FC0
1FC0
1FC0
0FE0
0FFC
07FF
01FF
003F
01FF
07FF
0FF8
0FE0
1FC0
1FC0
1FC0
1FC0
0FC0
0FC0
0FC0
0FC0
0FC0
0FE0
0FE0
1FE0
FFC0
FFC0
FF80
FF00
FC00
ENDCHAR
STARTCHAR $007E
ENCODING 126
SWIDTH 607 0
DWIDTH 27 0
BBX 25 10 1 9
BITMAP
07E00000
0FF00C00
1FF80F80
3FFE1F00
7FFFFF00
7E7FFE00
F81FFE00
780FFC00
1007F800
0001C000
ENDCHAR
ENDFONT
