STARTFONT 2.1
FONT -FreeType-Fira Code-Bold-R-Normal--100-720-100-100-P-526-ISO10646-1
SIZE 72 100 100
FONTBOUNDINGBOX 64 120 -1 -30
COMMENT "Generated by fontforge, http://fontforge.sourceforge.net"
COMMENT ""
COMMENT "Converted from OpenType font "FiraCode-Bold.ttf" by "otf2bdf 3.0"."
COMMENT ""
STARTPROPERTIES 19
FOUNDRY "FreeType"
FAMILY_NAME "Fira Code"
WEIGHT_NAME "Bold"
SLANT "R"
SETWIDTH_NAME "Normal"
ADD_STYLE_NAME ""
PIXEL_SIZE 100
POINT_SIZE 720
RESOLUTION_X 100
RESOLUTION_Y 100
SPACING "P"
AVERAGE_WIDTH 526
CHARSET_REGISTRY "ISO10646"
CHARSET_ENCODING "1"
FONT_ASCENT 99
FONT_DESCENT 32
COPYRIGHT "Copyright 2014-2020 The Fira Code Project Authors (https://github.com/tonsky/FiraCode)"
_OTF_FONTFILE "FiraCode-Bold.ttf"
_OTF_PSNAME "FiraCode-Bold"
ENDPROPERTIES
CHARS 95
STARTCHAR $0020
ENCODING 32
SWIDTH 600 0
DWIDTH 60 0
BBX 0 0 0 0
BITMAP
ENDCHAR
STARTCHAR $0021
ENCODING 33
SWIDTH 600 0
DWIDTH 60 0
BBX 18 71 21 -2
BITMAP
7FFF80
7FFF80
7FFF80
7FFF80
7FFF80
7FFF80
7FFF80
7FFF80
7FFF80
7FFF80
7FFF80
7FFF80
7FFF80
7FFF80
7FFF80
7FFF80
7FFF80
7FFF80
7FFF80
3FFF80
3FFF00
3FFF00
3FFF00
3FFF00
3FFF00
3FFF00
3FFF00
3FFF00
3FFF00
3FFF00
3FFF00
3FFF00
3FFF00
3FFF00
3FFF00
3FFF00
3FFF00
3FFF00
3FFF00
3FFF00
1FFF00
1FFF00
1FFE00
1FFE00
000000
000000
000000
000000
000000
000000
000000
000000
000000
07F800
1FFE00
3FFF00
3FFF00
7FFF80
FFFFC0
FFFFC0
FFFFC0
FFFFC0
FFFFC0
FFFFC0
FFFFC0
7FFF80
7FFF80
3FFF00
1FFE00
0FFC00
01E000
ENDCHAR
STARTCHAR $0022
ENCODING 34
SWIDTH 600 0
DWIDTH 60 0
BBX 34 28 13 46
BITMAP
FFFE1FFFC0
FFFE1FFFC0
FFFE1FFFC0
FFFE1FFFC0
FFFE1FFFC0
FFFC1FFFC0
FFFC1FFFC0
FFFC0FFFC0
FFFC0FFFC0
7FFC0FFF80
7FFC0FFF80
7FFC0FFF80
7FFC0FFF80
7FFC0FFF80
7FFC0FFF80
7FFC0FFF80
7FFC0FFF80
7FFC0FFF80
7FFC0FFF80
7FFC0FFF80
7FF80FFF80
7FF80FFF80
7FF807FF80
3FF807FF80
3FF807FF00
3FF807FF00
3FF807FF00
3FF807FF00
ENDCHAR
STARTCHAR $0023
ENCODING 35
SWIDTH 600 0
DWIDTH 60 0
BBX 53 69 4 0
BITMAP
0007FFC01FFF00
000FFFC01FFF00
000FFF801FFF00
000FFF801FFF00
000FFF801FFF00
000FFF801FFF00
000FFF803FFF00
000FFF803FFE00
000FFF803FFE00
001FFF803FFE00
001FFF003FFE00
001FFF003FFE00
001FFF003FFE00
001FFF007FFE00
1FFFFFFFFFFFF8
1FFFFFFFFFFFF8
1FFFFFFFFFFFF8
1FFFFFFFFFFFF8
1FFFFFFFFFFFF8
1FFFFFFFFFFFF8
1FFFFFFFFFFFF8
1FFFFFFFFFFFF8
1FFFFFFFFFFFF8
1FFFFFFFFFFFF8
007FFE00FFF800
007FFC00FFF800
007FFC00FFF800
007FFC00FFF800
007FFC01FFF800
007FFC01FFF000
007FFC01FFF000
007FFC01FFF000
00FFF801FFF000
00FFF801FFF000
00FFF801FFF000
00FFF801FFF000
00FFF803FFF000
00FFF803FFE000
00FFF803FFE000
00FFF803FFE000
01FFF003FFE000
01FFF003FFE000
01FFF003FFE000
01FFF003FFE000
FFFFFFFFFFFF80
FFFFFFFFFFFF80
FFFFFFFFFFFF80
FFFFFFFFFFFF80
FFFFFFFFFFFF80
FFFFFFFFFFFF80
FFFFFFFFFFFF80
FFFFFFFFFFFF80
FFFFFFFFFFFF80
FFFFFFFFFFFF80
FFFFFFFFFFFF80
07FFE00FFF8000
07FFC00FFF8000
07FFC00FFF8000
07FFC00FFF8000
07FFC01FFF8000
07FFC01FFF0000
07FFC01FFF0000
0FFFC01FFF0000
0FFF801FFF0000
0FFF801FFF0000
0FFF801FFF0000
0FFF801FFF0000
0FFF803FFF0000
0FFF803FFE0000
ENDCHAR
STARTCHAR $0024
ENCODING 36
SWIDTH 600 0
DWIDTH 60 0
BBX 52 102 4 -16
BITMAP
000001FE000000
000001FE000000
000001FE000000
000001FE000000
000001FE000000
000001FE000000
000001FE000000
000001FE000000
000001FE000000
000001FE000000
000001FE000000
000001FE000000
000001FE000000
000001FE000000
000001FE000000
000007FF800000
00007FFFFC0000
0003FFFFFF8000
000FFFFFFFE000
001FFFFFFFF800
007FFFFFFFFE00
00FFFFFFFFFF00
01FFFFFFFFFFC0
03FFFFFFFFFFE0
03FFFFFFFFFF80
07FFFFFFFFFF00
0FFFFDFE7FFE00
0FFFF1FE0FFC00
0FFFE1FE01F800
1FFFC1FE007800
1FFF81FE003000
1FFF81FE000000
1FFF81FE000000
1FFF81FE000000
1FFF81FE000000
1FFF81FE000000
1FFFC1FE000000
1FFFC1FE000000
1FFFE1FE000000
1FFFF9FE000000
0FFFFDFE000000
0FFFFFFE000000
0FFFFFFE000000
07FFFFFE000000
07FFFFFF800000
03FFFFFFF00000
01FFFFFFFC0000
00FFFFFFFF0000
007FFFFFFFC000
003FFFFFFFE000
000FFFFFFFF800
0003FFFFFFFC00
0000FFFFFFFE00
00003FFFFFFF00
000007FFFFFF80
000001FFFFFF80
000001FFFFFFC0
000001FFFFFFC0
000001FFFFFFE0
000001FE7FFFE0
000001FE3FFFE0
000001FE1FFFF0
000001FE0FFFF0
000001FE0FFFF0
000001FE07FFF0
000001FE07FFF0
000001FE07FFF0
000001FE07FFF0
000001FE07FFF0
010001FE07FFF0
018001FE07FFE0
03E001FE0FFFE0
07F001FE0FFFE0
0FFC01FE1FFFC0
1FFF01FE3FFFC0
3FFFE1FEFFFFC0
3FFFFFFFFFFF80
7FFFFFFFFFFF00
FFFFFFFFFFFF00
3FFFFFFFFFFE00
1FFFFFFFFFFC00
0FFFFFFFFFF800
03FFFFFFFFF000
00FFFFFFFFC000
003FFFFFFF0000
000FFFFFFC0000
0000FFFFE00000
000003FE000000
000001FE000000
000001FE000000
000001FE000000
000001FE000000
000001FE000000
000001FE000000
000001FE000000
000001FE000000
000001FE000000
000001FE000000
000001FE000000
000001FE000000
000001FE000000
000001FE000000
ENDCHAR
STARTCHAR $0025
ENCODING 37
SWIDTH 600 0
DWIDTH 60 0
BBX 60 75 0 -3
BITMAP
0000000000200000
003FE00000380000
00FFFC00007F0000
03FFFE00007FC000
07FFFF00007FE000
0FFFFF8000FFC000
1FFFFFC000FFC000
1FFFFFE001FF8000
3FFFFFE001FF8000
3FF07FF003FF0000
7FF03FF003FF0000
7FE03FF007FE0000
7FE03FF007FE0000
7FE03FF80FFC0000
FFE01FF80FFC0000
FFE01FF81FF80000
FFE01FF81FF80000
FFE01FF83FF00000
FFE01FF83FF00000
FFE01FF87FE00000
7FE03FF87FE00000
7FE03FF0FFE00000
7FF03FF0FFC00000
7FF07FF1FFC00000
3FFFFFE1FF800000
3FFFFFE3FF800000
1FFFFFC3FF000000
0FFFFF87FF000000
07FFFF87FE000000
03FFFE07FE000000
01FFFC0FFC000000
007FF00FFC000000
0000001FF8000000
0000001FF8000000
0000003FF0000000
0000003FF0000000
0000007FE0000000
0000007FE0000000
000000FFC0000000
000000FFC0000000
000001FF80000000
000001FF801F0000
000003FF01FFF000
000003FF07FFF800
000007FE0FFFFE00
000007FE1FFFFF00
00000FFC3FFFFF80
00000FFC3FFFFF80
00001FFC7FFFFFC0
00001FF8FFF1FFC0
00003FF8FFC0FFE0
00003FF0FFC07FE0
00003FF0FFC07FE0
00007FE1FFC07FE0
00007FE1FF807FE0
0000FFC1FF807FE0
0000FFC1FF807FF0
0001FF81FF807FF0
0001FF81FF807FE0
0003FF01FF807FE0
0003FF01FFC07FE0
0007FE01FFC07FE0
0007FE00FFC07FE0
000FFC00FFE0FFE0
000FFC00FFF1FFC0
001FF8007FFFFFC0
001FF8007FFFFF80
003FF0003FFFFF00
003FF0001FFFFF00
007FE0000FFFFE00
007FE00007FFF800
00FFC00001FFE000
001FC000001E0000
0007800000000000
0000800000000000
ENDCHAR
STARTCHAR $0026
ENCODING 38
SWIDTH 600 0
DWIDTH 60 0
BBX 54 73 4 -2
BITMAP
00001FFC000000
0001FFFFC00000
0007FFFFF00000
001FFFFFFC0000
007FFFFFFF0000
00FFFFFFFF8000
01FFFFFFFFC000
03FFFFFFFFE000
03FFFFFFFFE000
07FFFFFFFFC000
0FFFFFFFFF0000
0FFFFC03FE0000
0FFFF800FC0000
1FFFF000780000
1FFFE000300000
1FFFE000000000
1FFFE000000000
1FFFC000000000
1FFFC000000000
1FFFC000000000
1FFFE000000000
0FFFE000000000
0FFFE000000000
0FFFF000000000
07FFF000000000
07FFF800000000
03FFFE00000000
01FFFF80000000
00FFFFFFFFFFFC
003FFFFFFFFFFC
000FFFFFFFFFFC
0003FFFFFFFFFC
0007FFFFFFFFFC
001FFFFFFFFFFC
007FFFFFFFFFFC
01FFFFFFFFFFFC
03FFFFFFFFFFFC
07FFFFFFFFFFFC
0FFFFC007FFE00
1FFFF0007FFE00
3FFFE0007FFE00
3FFFC0007FFE00
7FFF80007FFE00
7FFF80007FFE00
7FFF00007FFE00
FFFF00007FFE00
FFFF00007FFE00
FFFE00007FFE00
FFFE00007FFE00
FFFE00007FFE00
FFFE00007FFE00
FFFE00007FFE00
FFFE00007FFE00
FFFF00007FFE00
FFFF00007FFE00
FFFF00007FFE00
FFFF80007FFE00
7FFF80007FFE00
7FFFC0007FFE00
7FFFE001FFFE00
3FFFF807FFFE00
3FFFFFFFFFFE00
1FFFFFFFFFFE00
1FFFFFFFFFFE00
0FFFFFFFFFFE00
07FFFFFFFFFC00
03FFFFFFFFF000
01FFFFFFFFE000
00FFFFFFFFC000
003FFFFFFF0000
000FFFFFF80000
0001FFFFC00000
00000FF0000000
ENDCHAR
STARTCHAR $0027
ENCODING 39
SWIDTH 600 0
DWIDTH 60 0
BBX 15 28 22 46
BITMAP
FFFE
7FFE
7FFE
7FFE
7FFE
7FFE
7FFE
7FFE
7FFE
7FFE
7FFE
7FFE
7FFE
7FFE
7FFC
3FFC
3FFC
3FFC
3FFC
3FFC
3FFC
3FFC
3FFC
3FFC
3FFC
3FFC
3FFC
3FFC
ENDCHAR
STARTCHAR $0028
ENCODING 40
SWIDTH 600 0
DWIDTH 60 0
BBX 35 102 10 -16
BITMAP
0000004000
000000E000
000001F000
000003F800
000007FE00
00000FFF00
00001FFF80
00003FFFC0
00007FFFE0
0000FFFFC0
0001FFFF80
0001FFFF00
0003FFFF00
0007FFFE00
000FFFFC00
001FFFF800
001FFFF000
003FFFF000
007FFFE000
007FFFC000
00FFFF8000
00FFFF8000
01FFFF0000
03FFFF0000
03FFFE0000
07FFFC0000
07FFFC0000
07FFF80000
0FFFF80000
0FFFF00000
1FFFF00000
1FFFF00000
1FFFE00000
3FFFE00000
3FFFC00000
3FFFC00000
3FFFC00000
7FFFC00000
7FFF800000
7FFF800000
7FFF800000
7FFF800000
7FFF800000
FFFF000000
FFFF000000
FFFF000000
FFFF000000
FFFF000000
FFFF000000
FFFF000000
FFFF000000
FFFF000000
FFFF000000
FFFF000000
FFFF000000
FFFF000000
FFFF000000
FFFF000000
FFFF000000
7FFF800000
7FFF800000
7FFF800000
7FFF800000
7FFF800000
7FFF800000
3FFFC00000
3FFFC00000
3FFFC00000
3FFFE00000
1FFFE00000
1FFFE00000
1FFFF00000
0FFFF00000
0FFFF80000
07FFF80000
07FFFC0000
07FFFC0000
03FFFE0000
03FFFE0000
01FFFF0000
00FFFF8000
00FFFF8000
007FFFC000
007FFFE000
003FFFE000
001FFFF000
001FFFF800
000FFFFC00
0007FFFE00
0003FFFF00
0001FFFF00
0001FFFF80
0000FFFFC0
00007FFFE0
00003FFFC0
00001FFF80
00000FFF00
000007FE00
000003F800
000001F000
000000E000
0000004000
ENDCHAR
STARTCHAR $0029
ENCODING 41
SWIDTH 600 0
DWIDTH 60 0
BBX 35 102 15 -16
BITMAP
0040000000
00E0000000
01F0000000
03F8000000
0FFC000000
1FFE000000
3FFF000000
7FFF800000
FFFFC00000
7FFFE00000
3FFFE00000
1FFFF00000
1FFFF80000
0FFFFC0000
07FFFE0000
03FFFF0000
01FFFF0000
01FFFF8000
00FFFFC000
007FFFC000
003FFFE000
003FFFE000
001FFFF000
001FFFF800
000FFFF800
0007FFFC00
0007FFFC00
0003FFFC00
0003FFFE00
0001FFFE00
0001FFFF00
0001FFFF00
0000FFFF00
0000FFFF80
00007FFF80
00007FFF80
00007FFF80
00007FFFC0
00003FFFC0
00003FFFC0
00003FFFC0
00003FFFC0
00003FFFC0
00003FFFE0
00001FFFE0
00001FFFE0
00001FFFE0
00001FFFE0
00001FFFE0
00001FFFE0
00001FFFE0
00001FFFE0
00001FFFE0
00001FFFE0
00001FFFE0
00001FFFE0
00001FFFE0
00001FFFE0
00001FFFE0
00003FFFC0
00003FFFC0
00003FFFC0
00003FFFC0
00003FFFC0
00003FFFC0
00007FFF80
00007FFF80
00007FFF80
0000FFFF80
0000FFFF00
0000FFFF00
0001FFFF00
0001FFFE00
0003FFFE00
0003FFFC00
0007FFFC00
0007FFF800
000FFFF800
000FFFF000
001FFFF000
003FFFE000
003FFFE000
007FFFC000
00FFFFC000
00FFFF8000
01FFFF0000
03FFFF0000
07FFFE0000
0FFFFC0000
1FFFF80000
1FFFF00000
3FFFE00000
7FFFE00000
FFFFC00000
7FFF800000
3FFF000000
1FFE000000
0FFC000000
03F8000000
01F0000000
00E0000000
0040000000
ENDCHAR
STARTCHAR $002A
ENCODING 42
SWIDTH 600 0
DWIDTH 60 0
BBX 54 51 3 8
BITMAP
00001FFFE00000
00000FFFC00000
00000FFFC00000
00000FFFC00000
00000FFFC00000
00000FFFC00000
00000FFFC00000
00000FFFC00000
00000FFFC00000
000007FF800000
000007FF800000
0C0007FF8000C0
0F0007FF8003C0
1FE007FF801FE0
1FF807FF807FE0
1FFE07FF81FFE0
1FFF87FF87FFF0
3FFFE3FF1FFFF0
3FFFFBFF7FFFF0
3FFFFFFFFFFFF0
7FFFFFFFFFFFF8
7FFFFFFFFFFFF8
7FFFFFFFFFFFF8
FFFFFFFFFFFFFC
FFFFFFFFFFFFFC
3FFFFFFFFFFFF0
01FFFFFFFFFE00
000FFFFFFFC000
00007FFFF80000
00003FFFF00000
00007FFFF80000
0000FFFFFC0000
0001FFFFFE0000
0003FFFFFF0000
0007FFFFFF8000
000FFFFFFFC000
001FFFCFFFE000
003FFFCFFFF000
007FFF87FFF800
007FFF03FFF800
00FFFF03FFFC00
01FFFE01FFFE00
03FFFE01FFFF00
01FFFC00FFFE00
00FFFC00FFFC00
007FF8007FF800
001FF0003FE000
000FF0003FC000
0003E0001F0000
0001E0001E0000
0000C0000C0000
ENDCHAR
STARTCHAR $002B
ENCODING 43
SWIDTH 600 0
DWIDTH 60 0
BBX 54 53 3 5
BITMAP
00000FFFC00000
00000FFFC00000
00000FFFC00000
00000FFFC00000
00000FFFC00000
00000FFFC00000
00000FFFC00000
00000FFFC00000
00000FFFC00000
00000FFFC00000
00000FFFC00000
00000FFFC00000
00000FFFC00000
00000FFFC00000
00000FFFC00000
00000FFFC00000
00000FFFC00000
00000FFFC00000
00000FFFC00000
00000FFFC00000
00000FFFC00000
FFFFFFFFFFFFFC
FFFFFFFFFFFFFC
FFFFFFFFFFFFFC
FFFFFFFFFFFFFC
FFFFFFFFFFFFFC
FFFFFFFFFFFFFC
FFFFFFFFFFFFFC
FFFFFFFFFFFFFC
FFFFFFFFFFFFFC
FFFFFFFFFFFFFC
FFFFFFFFFFFFFC
FFFFFFFFFFFFFC
00000FFFC00000
00000FFFC00000
00000FFFC00000
00000FFFC00000
00000FFFC00000
00000FFFC00000
00000FFFC00000
00000FFFC00000
00000FFFC00000
00000FFFC00000
00000FFFC00000
00000FFFC00000
00000FFFC00000
00000FFFC00000
00000FFFC00000
00000FFFC00000
00000FFFC00000
00000FFFC00000
00000FFFC00000
00000FFFC00000
ENDCHAR
STARTCHAR $002C
ENCODING 44
SWIDTH 600 0
DWIDTH 60 0
BBX 22 41 19 -20
BITMAP
007800
03FF00
0FFFC0
1FFFE0
3FFFF0
3FFFF0
7FFFF8
7FFFF8
FFFFFC
FFFFFC
FFFFFC
FFFFFC
FFFFFC
FFFFFC
7FFFFC
7FFFF8
7FFFF8
3FFFF8
1FFFF0
0FFFF0
07FFE0
07FFE0
0FFFE0
0FFFC0
0FFFC0
0FFF80
1FFF80
1FFF80
1FFF00
1FFF00
3FFE00
3FFE00
3FFC00
3FFC00
7FF800
7FF800
7FF800
7FF000
7FF000
FFE000
FFE000
ENDCHAR
STARTCHAR $002D
ENCODING 45
SWIDTH 600 0
DWIDTH 60 0
BBX 44 12 8 25
BITMAP
FFFFFFFFFFF0
FFFFFFFFFFF0
FFFFFFFFFFF0
FFFFFFFFFFF0
FFFFFFFFFFF0
FFFFFFFFFFF0
FFFFFFFFFFF0
FFFFFFFFFFF0
FFFFFFFFFFF0
FFFFFFFFFFF0
FFFFFFFFFFF0
FFFFFFFFFFF0
ENDCHAR
STARTCHAR $002E
ENCODING 46
SWIDTH 600 0
DWIDTH 60 0
BBX 22 23 19 -2
BITMAP
003800
03FF00
07FF80
1FFFE0
3FFFF0
3FFFF0
7FFFF8
7FFFF8
FFFFFC
FFFFFC
FFFFFC
FFFFFC
FFFFFC
FFFFFC
FFFFFC
7FFFF8
7FFFF8
3FFFF0
3FFFF0
1FFFE0
0FFFC0
03FF00
007800
ENDCHAR
STARTCHAR $002F
ENCODING 47
SWIDTH 600 0
DWIDTH 60 0
BBX 54 93 3 -11
BITMAP
00000000002000
00000000007800
00000000007E00
0000000000FF80
0000000000FFE0
0000000001FFF8
0000000001FFFC
0000000003FFF8
0000000003FFF8
0000000007FFF0
0000000007FFF0
000000000FFFF0
000000000FFFE0
000000000FFFE0
000000001FFFC0
000000001FFFC0
000000003FFF80
000000003FFF80
000000007FFF00
000000007FFF00
00000000FFFE00
00000000FFFE00
00000001FFFC00
00000001FFFC00
00000003FFF800
00000003FFF800
00000007FFF000
00000007FFF000
0000000FFFE000
0000000FFFE000
0000001FFFC000
0000001FFFC000
0000003FFF8000
0000003FFF8000
0000007FFF0000
0000007FFF0000
000000FFFE0000
000000FFFE0000
000001FFFE0000
000001FFFC0000
000001FFFC0000
000003FFF80000
000003FFF80000
000007FFF00000
000007FFF00000
00000FFFE00000
00000FFFE00000
00001FFFC00000
00001FFFC00000
00003FFF800000
00003FFF800000
00007FFF000000
00007FFF000000
0000FFFE000000
0000FFFE000000
0001FFFC000000
0001FFFC000000
0003FFF8000000
0003FFF8000000
0007FFF0000000
0007FFF0000000
000FFFE0000000
000FFFE0000000
001FFFE0000000
001FFFC0000000
003FFFC0000000
003FFF80000000
007FFF80000000
007FFF00000000
007FFF00000000
00FFFE00000000
00FFFE00000000
01FFFC00000000
01FFFC00000000
03FFF800000000
03FFF800000000
07FFF000000000
07FFF000000000
0FFFE000000000
0FFFE000000000
1FFFC000000000
1FFFC000000000
3FFF8000000000
3FFF8000000000
7FFF0000000000
7FFF0000000000
FFFE0000000000
FFFE0000000000
3FFC0000000000
0FFC0000000000
03FC0000000000
00F80000000000
00180000000000
ENDCHAR
STARTCHAR $0030
ENCODING 48
SWIDTH 600 0
DWIDTH 60 0
BBX 50 73 5 -2
BITMAP
00001FFE000000
0000FFFFC00000
0003FFFFF00000
000FFFFFFC0000
001FFFFFFE0000
003FFFFFFF0000
007FFFFFFF8000
00FFFFFFFFC000
01FFFFFFFFE000
03FFFFFFFFF000
03FFFFFFFFF000
07FFFF1FFFF800
0FFFF803FFF800
0FFFF001FFFC00
0FFFE000FFFC00
1FFFC000FFFE00
1FFF8001FFFE00
3FFF8001FFFE00
3FFF8003FFFF00
3FFF0003FFFF00
3FFF0003FFFF00
7FFF0007FFFF80
7FFF0007FFFF80
7FFF000FFFFF80
7FFE000FFFFF80
7FFE001FFFFF80
7FFE001FFFFF80
FFFE003FDFFFC0
FFFE003FDFFFC0
FFFE007F9FFFC0
FFFE007F9FFFC0
FFFE00FF1FFFC0
FFFE00FF1FFFC0
FFFE01FE1FFFC0
FFFE01FE1FFFC0
FFFE03FE1FFFC0
FFFE03FC1FFFC0
FFFE07FC1FFFC0
FFFE07F81FFFC0
FFFE0FF81FFFC0
FFFE0FF01FFFC0
FFFE1FF01FFFC0
FFFE1FE01FFFC0
FFFE1FE01FFFC0
FFFE3FC01FFFC0
FFFE3FC01FFF80
7FFE7F801FFF80
7FFE7F801FFF80
7FFEFF003FFF80
7FFEFF003FFF80
7FFFFE003FFF80
3FFFFE003FFF00
3FFFFC003FFF00
3FFFFC007FFF00
3FFFF8007FFF00
1FFFF8007FFE00
1FFFF000FFFE00
1FFFF000FFFE00
0FFFE001FFFC00
0FFFE003FFFC00
07FFF007FFF800
07FFFFFFFFF800
03FFFFFFFFF000
03FFFFFFFFE000
01FFFFFFFFE000
00FFFFFFFFC000
007FFFFFFF8000
003FFFFFFF0000
001FFFFFFE0000
0007FFFFF80000
0003FFFFE00000
00007FFF800000
000007F0000000
ENDCHAR
STARTCHAR $0031
ENCODING 49
SWIDTH 600 0
DWIDTH 60 0
BBX 49 69 6 0
BITMAP
000007FFF00000
00001FFFF00000
00003FFFF00000
0000FFFFF00000
0003FFFFF00000
0007FFFFF00000
001FFFFFF00000
007FFFFFF00000
00FFFFFFF00000
03FFFFFFF00000
0FFFFFFFF00000
1FFFFFFFF00000
7FFFFFFFF00000
FFFFFFFFF00000
7FFFFFFFF00000
7FFFF7FFF00000
3FFFE7FFF00000
3FFF87FFF00000
1FFF07FFF00000
0FFC07FFF00000
0FF007FFF00000
07E007FFF00000
078007FFF00000
030007FFF00000
000007FFF00000
000007FFF00000
000007FFF00000
000007FFF00000
000007FFF00000
000007FFF00000
000007FFF00000
000007FFF00000
000007FFF00000
000007FFF00000
000007FFF00000
000007FFF00000
000007FFF00000
000007FFF00000
000007FFF00000
000007FFF00000
000007FFF00000
000007FFF00000
000007FFF00000
000007FFF00000
000007FFF00000
000007FFF00000
000007FFF00000
000007FFF00000
000007FFF00000
000007FFF00000
000007FFF00000
000007FFF00000
000007FFF00000
000007FFF00000
000007FFF00000
000007FFF00000
000007FFF00000
0FFFFFFFFFFF80
0FFFFFFFFFFF80
0FFFFFFFFFFF80
0FFFFFFFFFFF80
0FFFFFFFFFFF80
0FFFFFFFFFFF80
0FFFFFFFFFFF80
0FFFFFFFFFFF80
0FFFFFFFFFFF80
0FFFFFFFFFFF80
0FFFFFFFFFFF80
0FFFFFFFFFFF80
ENDCHAR
STARTCHAR $0032
ENCODING 50
SWIDTH 600 0
DWIDTH 60 0
BBX 49 71 4 0
BITMAP
00007FFC000000
0007FFFFC00000
001FFFFFF00000
007FFFFFFC0000
01FFFFFFFF0000
03FFFFFFFF8000
07FFFFFFFFC000
0FFFFFFFFFE000
1FFFFFFFFFF000
3FFFFFFFFFF800
7FFFFFFFFFF800
FFFFFFFFFFFC00
7FFFC07FFFFC00
3FFF000FFFFC00
0FFC0007FFFE00
07F80003FFFE00
03F00003FFFE00
00E00001FFFE00
00400001FFFE00
00000001FFFF00
00000001FFFE00
00000001FFFE00
00000001FFFE00
00000001FFFE00
00000001FFFE00
00000001FFFE00
00000003FFFE00
00000003FFFC00
00000007FFFC00
00000007FFF800
0000000FFFF800
0000000FFFF800
0000001FFFF000
0000003FFFE000
0000003FFFE000
0000007FFFC000
000000FFFF8000
000001FFFF8000
000003FFFF0000
000007FFFE0000
00000FFFFC0000
00000FFFF80000
00001FFFF00000
00003FFFF00000
00007FFFE00000
0000FFFFC00000
0001FFFF800000
0003FFFF000000
0007FFFE000000
000FFFFC000000
001FFFF8000000
003FFFF0000000
007FFFE0000000
00FFFF80000000
01FFFF00000000
03FFFE00000000
07FFFC00000000
0FFFF800000000
1FFFF000000000
3FFFFFFFFFFF80
7FFFFFFFFFFF80
7FFFFFFFFFFF80
7FFFFFFFFFFF80
7FFFFFFFFFFF00
7FFFFFFFFFFF00
7FFFFFFFFFFF00
7FFFFFFFFFFF00
7FFFFFFFFFFF00
7FFFFFFFFFFF00
7FFFFFFFFFFF00
7FFFFFFFFFFE00
ENDCHAR
STARTCHAR $0033
ENCODING 51
SWIDTH 600 0
DWIDTH 60 0
BBX 51 73 2 -2
BITMAP
00001FFF000000
0003FFFFF00000
000FFFFFFC0000
003FFFFFFF0000
00FFFFFFFFC000
03FFFFFFFFE000
07FFFFFFFFF000
1FFFFFFFFFF800
3FFFFFFFFFFC00
7FFFFFFFFFFC00
1FFFFFFFFFFE00
0FFFFFFFFFFF00
07FFC00FFFFF00
03FF0003FFFF00
03FC0001FFFF00
01F00000FFFF80
00E000007FFF80
004000007FFF80
000000007FFF80
000000007FFF80
000000007FFF80
000000007FFF00
000000007FFF00
000000007FFF00
00000000FFFE00
00000000FFFE00
00000001FFFC00
00000003FFFC00
0000001FFFF800
00003FFFFFF000
00003FFFFFE000
00003FFFFF8000
00003FFFFE0000
00003FFFF80000
00003FFFF00000
00007FFFFF0000
00007FFFFFC000
00007FFFFFF000
00007FFFFFFC00
00007FFFFFFE00
0000001FFFFF00
00000003FFFF00
00000000FFFF80
000000007FFF80
000000007FFFC0
000000003FFFC0
000000003FFFC0
000000001FFFE0
000000001FFFE0
000000001FFFE0
000000001FFFE0
000000001FFFE0
000000001FFFE0
000000003FFFE0
008000003FFFE0
01C000003FFFE0
03E000007FFFC0
07F80000FFFFC0
0FFC0001FFFFC0
1FFF8007FFFF80
3FFFF87FFFFF80
7FFFFFFFFFFF00
FFFFFFFFFFFF00
7FFFFFFFFFFE00
3FFFFFFFFFFC00
1FFFFFFFFFF800
0FFFFFFFFFF000
03FFFFFFFFC000
01FFFFFFFF8000
007FFFFFFE0000
001FFFFFF80000
0001FFFFC00000
00000FF0000000
ENDCHAR
STARTCHAR $0034
ENCODING 52
SWIDTH 600 0
DWIDTH 60 0
BBX 51 71 4 0
BITMAP
00001800000000
00001F00000000
00001FE0000000
00003FF8000000
00003FFF000000
00007FFF800000
00007FFF800000
00007FFF000000
0000FFFF000000
0000FFFE000000
0001FFFE000000
0001FFFC000000
0003FFFC000000
0003FFFC000000
0003FFF8000000
0007FFF8000000
0007FFF0000000
000FFFF0000000
000FFFF0000000
000FFFE0000000
001FFFE0000000
001FFFC0000000
003FFFC0000000
003FFF80000000
007FFF80000000
007FFF80000000
007FFF00000000
00FFFF00000000
00FFFE01FFF000
01FFFE01FFF000
01FFFE01FFF000
03FFFC01FFF000
03FFFC01FFF000
03FFF803FFF000
07FFF803FFF000
07FFF803FFF000
0FFFF003FFF000
0FFFF003FFF000
0FFFE003FFF000
1FFFE003FFF000
1FFFC003FFF000
3FFFC003FFF000
3FFFC007FFF000
7FFF8007FFF000
7FFF8007FFF000
7FFFFFFFFFFFE0
FFFFFFFFFFFFE0
FFFFFFFFFFFFE0
FFFFFFFFFFFFE0
FFFFFFFFFFFFE0
FFFFFFFFFFFFE0
FFFFFFFFFFFFE0
FFFFFFFFFFFFE0
FFFFFFFFFFFFE0
FFFFFFFFFFFFE0
FFFFFFFFFFFFE0
00000007FFF000
00000007FFF000
00000007FFF000
00000007FFF000
00000007FFF000
00000007FFF000
00000007FFF000
00000007FFF000
00000007FFF000
00000007FFF000
00000007FFF000
00000007FFF000
00000007FFF000
00000007FFF000
00000007FFF000
ENDCHAR
STARTCHAR $0035
ENCODING 53
SWIDTH 600 0
DWIDTH 60 0
BBX 50 71 4 -2
BITMAP
07FFFFFFFFFF00
07FFFFFFFFFE00
07FFFFFFFFFE00
07FFFFFFFFFE00
07FFFFFFFFFE00
07FFFFFFFFFE00
07FFFFFFFFFC00
07FFFFFFFFFC00
07FFFFFFFFFC00
07FFFFFFFFFC00
07FFFFFFFFFC00
07FFF000000000
07FFF000000000
07FFF000000000
07FFF000000000
07FFF000000000
07FFF000000000
07FFF000000000
07FFF000000000
07FFF000000000
07FFF000000000
07FFF000000000
07FFF000000000
07FFF000000000
07FFF0FFF00000
07FFF7FFFE0000
07FFFFFFFF8000
07FFFFFFFFC000
07FFFFFFFFE000
07FFFFFFFFF000
07FFFFFFFFF800
07FFFFFFFFFC00
07FFFFFFFFFE00
07FFFFFFFFFE00
07FFFFFFFFFF00
07FFE007FFFF00
07FF8003FFFF00
00000001FFFF80
00000000FFFF80
000000007FFF80
000000007FFFC0
000000007FFFC0
000000007FFFC0
000000003FFFC0
000000003FFFC0
000000003FFFC0
000000003FFFC0
000000003FFFC0
000000003FFFC0
000000007FFFC0
000000007FFFC0
000000007FFFC0
00800000FFFF80
01C00000FFFF80
03E00001FFFF80
07F80003FFFF00
0FFC0007FFFF00
1FFF001FFFFE00
3FFFF1FFFFFE00
7FFFFFFFFFFC00
FFFFFFFFFFF800
7FFFFFFFFFF800
3FFFFFFFFFF000
1FFFFFFFFFE000
0FFFFFFFFFC000
07FFFFFFFF0000
01FFFFFFFE0000
007FFFFFF80000
001FFFFFE00000
0003FFFF000000
00001FE0000000
ENDCHAR
STARTCHAR $0036
ENCODING 54
SWIDTH 600 0
DWIDTH 60 0
BBX 50 73 5 -2
BITMAP
000000FFF00000
00000FFFFE0000
00003FFFFFC000
0000FFFFFFF000
0001FFFFFFF800
0007FFFFFFF000
000FFFFFFFF000
001FFFFFFFE000
003FFFFFFFE000
007FFFFFFFC000
00FFFFFFFF8000
00FFFFF07F8000
01FFFF800F0000
03FFFF00020000
03FFFC00000000
07FFFC00000000
07FFF800000000
0FFFF000000000
0FFFE000000000
1FFFE000000000
1FFFE000000000
1FFFC000000000
3FFFC000000000
3FFFC000000000
3FFF8000000000
3FFF807FF80000
7FFF83FFFF0000
7FFF87FFFF8000
7FFF9FFFFFE000
7FFFBFFFFFF000
7FFF7FFFFFF800
FFFFFFFFFFFC00
FFFFFFFFFFFC00
FFFFFFFFFFFE00
FFFFFFFFFFFF00
FFFFFFCFFFFF00
FFFFFC01FFFF00
FFFFF000FFFF80
FFFFE0007FFF80
FFFFC0007FFF80
FFFF80003FFFC0
FFFF00003FFFC0
FFFF80003FFFC0
FFFF80003FFFC0
FFFF80003FFFC0
FFFF80003FFFC0
FFFF80001FFFC0
FFFF80001FFFC0
7FFF80001FFFC0
7FFF80001FFFC0
7FFF80003FFFC0
7FFF80003FFFC0
7FFFC0003FFFC0
3FFFC0003FFFC0
3FFFC0003FFFC0
3FFFC0007FFF80
1FFFE0007FFF80
1FFFE0007FFF80
0FFFF000FFFF00
0FFFF801FFFF00
07FFFC03FFFE00
07FFFFFFFFFE00
03FFFFFFFFFC00
03FFFFFFFFF800
01FFFFFFFFF000
00FFFFFFFFF000
007FFFFFFFE000
003FFFFFFF8000
001FFFFFFF0000
0007FFFFFE0000
0001FFFFF80000
00007FFFC00000
000003FC000000
ENDCHAR
STARTCHAR $0037
ENCODING 55
SWIDTH 600 0
DWIDTH 60 0
BBX 46 71 7 -2
BITMAP
FFFFFFFFFFFC
FFFFFFFFFFFC
FFFFFFFFFFFC
FFFFFFFFFFFC
FFFFFFFFFFFC
FFFFFFFFFFFC
FFFFFFFFFFFC
FFFFFFFFFFFC
FFFFFFFFFFFC
FFFFFFFFFFFC
FFFFFFFFFFFC
FFFFFFFFFFFC
00000003FFF8
00000007FFF8
00000007FFF0
0000000FFFF0
0000000FFFF0
0000001FFFE0
0000001FFFE0
0000003FFFC0
0000003FFFC0
0000003FFF80
0000007FFF80
0000007FFF00
000000FFFF00
000000FFFF00
000001FFFE00
000001FFFE00
000003FFFC00
000003FFFC00
000007FFF800
000007FFF800
00000FFFF000
00000FFFF000
00001FFFF000
00001FFFE000
00003FFFE000
00003FFFC000
00007FFFC000
00007FFF8000
0000FFFF8000
0000FFFF0000
0000FFFF0000
0001FFFF0000
0001FFFE0000
0003FFFE0000
0003FFFC0000
0007FFFC0000
0007FFF80000
000FFFF80000
000FFFF00000
001FFFF00000
001FFFE00000
003FFFE00000
003FFFE00000
007FFFC00000
007FFFC00000
00FFFF800000
00FFFF800000
01FFFF000000
01FFFF000000
01FFFE000000
03FFFE000000
03FFFE000000
07FFFC000000
0FFFFC000000
03FFF8000000
007FF8000000
0007F0000000
0000F0000000
000010000000
ENDCHAR
STARTCHAR $0038
ENCODING 56
SWIDTH 600 0
DWIDTH 60 0
BBX 52 73 4 -2
BITMAP
00000FFF000000
0000FFFFF00000
0003FFFFFE0000
000FFFFFFF8000
003FFFFFFFC000
007FFFFFFFE000
00FFFFFFFFF000
01FFFFFFFFF800
03FFFFFFFFFC00
03FFFFFFFFFE00
07FFFFFFFFFE00
07FFFC03FFFF00
0FFFF801FFFF00
0FFFF000FFFF00
1FFFE0007FFF80
1FFFE0007FFF80
1FFFC0003FFF80
1FFFC0003FFF80
1FFFC0003FFF80
1FFFC0003FFF80
1FFFC0003FFF80
1FFFC0003FFF80
1FFFE0003FFF00
1FFFE0007FFF00
0FFFF0007FFF00
0FFFF800FFFE00
0FFFFC01FFFE00
07FFFF03FFFC00
07FFFFC7FFF800
03FFFFFFFFF000
01FFFFFFFFE000
00FFFFFFFF8000
007FFFFFFF0000
003FFFFFFE0000
000FFFFFFF8000
0007FFFFFFC000
001FFFFFFFF000
007FFFFFFFF800
01FFFFFFFFFC00
03FFFFFFFFFE00
07FFF87FFFFF00
0FFFF00FFFFF00
0FFFE003FFFF80
1FFFE001FFFFC0
3FFFC0007FFFC0
3FFF80003FFFE0
7FFF80001FFFE0
7FFF80001FFFE0
7FFF00001FFFE0
FFFF00000FFFF0
FFFF00000FFFF0
FFFF00000FFFF0
FFFF00000FFFF0
FFFF00000FFFF0
FFFF00000FFFF0
FFFF80001FFFE0
7FFF80001FFFE0
7FFFC0003FFFE0
7FFFC0003FFFE0
3FFFE0007FFFC0
3FFFF801FFFFC0
3FFFFFFFFFFF80
1FFFFFFFFFFF80
0FFFFFFFFFFF00
0FFFFFFFFFFE00
07FFFFFFFFFC00
03FFFFFFFFF800
00FFFFFFFFF000
007FFFFFFFE000
001FFFFFFF8000
0007FFFFFE0000
0000FFFFF00000
000007FC000000
ENDCHAR
STARTCHAR $0039
ENCODING 57
SWIDTH 600 0
DWIDTH 60 0
BBX 51 74 4 -3
BITMAP
00000FFF000000
0000FFFFF00000
0003FFFFFC0000
000FFFFFFF0000
003FFFFFFF8000
007FFFFFFFE000
00FFFFFFFFF000
01FFFFFFFFF800
03FFFFFFFFF800
07FFFFFFFFFC00
0FFFFFFFFFFE00
0FFFFE0FFFFE00
1FFFF803FFFF00
1FFFF000FFFF00
3FFFE000FFFF80
3FFFC0007FFF80
3FFFC0007FFFC0
7FFF80003FFFC0
7FFF80003FFFC0
7FFF80003FFFC0
7FFF00003FFFC0
7FFF00003FFFE0
FFFF00003FFFE0
FFFF00001FFFE0
FFFF00001FFFE0
FFFF00001FFFE0
FFFF00001FFFE0
FFFF00001FFFE0
7FFF80001FFFE0
7FFF80001FFFE0
7FFF80001FFFE0
7FFF80001FFFE0
7FFFC0003FFFE0
3FFFE0007FFFE0
3FFFF001FFFFE0
3FFFFC07FFFFE0
1FFFFFFFFFFFE0
1FFFFFFFFFFFC0
0FFFFFFFFFFFC0
07FFFFFFFFFFC0
03FFFFFFFFFFC0
01FFFFFFFFFFC0
00FFFFFFBFFF80
007FFFFE7FFF80
003FFFFC7FFF80
000FFFF07FFF00
0001FF80FFFF00
00000001FFFF00
00000001FFFE00
00000003FFFE00
00000007FFFC00
0000000FFFFC00
0000001FFFF800
0000003FFFF800
0000007FFFF000
000000FFFFE000
000003FFFFE000
00000FFFFFC000
00003FFFFF8000
0000FFFFFF0000
0007FFFFFE0000
001FFFFFFC0000
01FFFFFFF80000
03FFFFFFE00000
03FFFFFFC00000
03FFFFFF000000
01FFFFFC000000
01FFFFF8000000
01FFFFC0000000
00FFFF00000000
00FFF800000000
00FFC000000000
00FE0000000000
00600000000000
ENDCHAR
STARTCHAR $003A
ENCODING 58
SWIDTH 600 0
DWIDTH 60 0
BBX 21 56 19 -2
BITMAP
00FC00
03FF00
0FFFC0
1FFFE0
3FFFF0
3FFFF0
7FFFF8
7FFFF8
7FFFF8
FFFFF8
FFFFF8
FFFFF8
7FFFF8
7FFFF8
7FFFF8
3FFFF0
3FFFF0
1FFFE0
0FFFC0
07FF00
01FC00
000000
000000
000000
000000
000000
000000
000000
000000
000000
000000
000000
000000
000000
000000
01FE00
07FF80
0FFFC0
1FFFE0
3FFFF0
3FFFF0
7FFFF8
7FFFF8
7FFFF8
FFFFF8
FFFFF8
7FFFF8
7FFFF8
7FFFF8
7FFFF8
3FFFF0
1FFFE0
1FFFE0
07FF80
03FF00
007800
ENDCHAR
STARTCHAR $003B
ENCODING 59
SWIDTH 600 0
DWIDTH 60 0
BBX 21 74 19 -20
BITMAP
00FC00
03FF00
0FFFC0
1FFFE0
3FFFF0
3FFFF0
7FFFF8
7FFFF8
7FFFF8
FFFFF8
FFFFF8
FFFFF8
7FFFF8
7FFFF8
7FFFF8
3FFFF0
3FFFF0
1FFFE0
0FFFC0
07FF00
01FC00
000000
000000
000000
000000
000000
000000
000000
000000
000000
000000
000000
000000
000000
007800
03FF00
0FFFC0
1FFFE0
3FFFF0
3FFFF0
7FFFF8
7FFFF8
7FFFF8
7FFFF8
FFFFF8
FFFFF8
7FFFF8
7FFFF8
7FFFF8
3FFFF8
3FFFF0
1FFFF0
0FFFF0
07FFE0
07FFE0
0FFFC0
0FFFC0
0FFF80
0FFF80
0FFF80
1FFF00
1FFF00
1FFE00
1FFE00
3FFC00
3FFC00
3FFC00
3FF800
7FF800
7FF000
7FF000
7FE000
FFE000
FFC000
ENDCHAR
STARTCHAR $003C
ENCODING 60
SWIDTH 600 0
DWIDTH 60 0
BBX 46 59 7 2
BITMAP
000000000300
000000000F00
000000001F80
000000007FC0
00000001FFC0
00000003FFE0
0000000FFFE0
0000001FFFF0
0000007FFFF8
000001FFFFF8
000003FFFFFC
00000FFFFFF8
00001FFFFFE0
00007FFFFF80
0001FFFFFE00
0003FFFFFC00
000FFFFFF000
001FFFFFC000
007FFFFF8000
01FFFFFE0000
03FFFFF80000
0FFFFFE00000
3FFFFFC00000
7FFFFF000000
FFFFFC000000
FFFFF8000000
FFFFE0000000
FFFF80000000
FFFE00000000
FFFC00000000
FFFE00000000
FFFF80000000
FFFFE0000000
FFFFF0000000
FFFFFC000000
FFFFFF000000
3FFFFFC00000
0FFFFFE00000
07FFFFF80000
01FFFFFE0000
00FFFFFF8000
003FFFFFC000
000FFFFFF000
0007FFFFFC00
0001FFFFFF00
0000FFFFFF80
00003FFFFFE0
00000FFFFFF8
000007FFFFFC
000001FFFFF8
000000FFFFF8
0000003FFFF0
0000000FFFE0
00000007FFE0
00000001FFC0
000000007F80
000000003F80
000000000F00
000000000700
ENDCHAR
STARTCHAR $003D
ENCODING 61
SWIDTH 600 0
DWIDTH 60 0
BBX 46 34 7 14
BITMAP
FFFFFFFFFFFC
FFFFFFFFFFFC
FFFFFFFFFFFC
FFFFFFFFFFFC
FFFFFFFFFFFC
FFFFFFFFFFFC
FFFFFFFFFFFC
FFFFFFFFFFFC
FFFFFFFFFFFC
FFFFFFFFFFFC
FFFFFFFFFFFC
FFFFFFFFFFFC
FFFFFFFFFFFC
000000000000
000000000000
000000000000
000000000000
000000000000
000000000000
000000000000
000000000000
FFFFFFFFFFFC
FFFFFFFFFFFC
FFFFFFFFFFFC
FFFFFFFFFFFC
FFFFFFFFFFFC
FFFFFFFFFFFC
FFFFFFFFFFFC
FFFFFFFFFFFC
FFFFFFFFFFFC
FFFFFFFFFFFC
FFFFFFFFFFFC
FFFFFFFFFFFC
FFFFFFFFFFFC
ENDCHAR
STARTCHAR $003E
ENCODING 62
SWIDTH 600 0
DWIDTH 60 0
BBX 46 59 7 2
BITMAP
030000000000
03C000000000
07E000000000
07F800000000
0FFE00000000
1FFF00000000
1FFFC0000000
3FFFE0000000
3FFFF8000000
7FFFFE000000
FFFFFF000000
7FFFFFC00000
3FFFFFF00000
0FFFFFF80000
03FFFFFE0000
00FFFFFF0000
007FFFFFC000
001FFFFFF000
0007FFFFF800
0001FFFFFE00
0000FFFFFF00
00003FFFFFC0
00000FFFFFF0
000003FFFFF8
000001FFFFFC
0000007FFFFC
0000001FFFFC
00000007FFFC
00000001FFFC
00000000FFFC
00000001FFFC
00000007FFFC
0000001FFFFC
0000003FFFFC
000000FFFFFC
000003FFFFFC
000007FFFFF0
00001FFFFFC0
00007FFFFF80
0000FFFFFE00
0003FFFFFC00
000FFFFFF000
003FFFFFC000
007FFFFF8000
01FFFFFE0000
07FFFFFC0000
0FFFFFF00000
3FFFFFC00000
FFFFFF800000
FFFFFE000000
7FFFFC000000
3FFFF0000000
3FFFC0000000
1FFF80000000
0FFE00000000
0FF800000000
07F000000000
03C000000000
038000000000
ENDCHAR
STARTCHAR $003F
ENCODING 63
SWIDTH 600 0
DWIDTH 60 0
BBX 47 73 6 -2
BITMAP
00007FFC0000
0007FFFFC000
003FFFFFF800
00FFFFFFFE00
01FFFFFFFF00
07FFFFFFFF80
0FFFFFFFFFC0
1FFFFFFFFFE0
3FFFFFFFFFF0
7FFFFFFFFFF8
FFFFFFFFFFF8
7FFFFFFFFFFC
3FFFF8FFFFFC
1FFF001FFFFC
0FFC0007FFFC
03F80007FFFE
01F00003FFFE
00C00003FFFE
00400003FFFE
00000003FFFC
00000003FFFC
00000007FFFC
0000000FFFFC
0000001FFFF8
0000003FFFF8
000000FFFFF0
000001FFFFE0
000007FFFFE0
00000FFFFFC0
00001FFFFF00
00003FFFFE00
00007FFFFC00
0000FFFFF000
0000FFFFE000
0001FFFF8000
0001FFFF0000
0003FFFE0000
0003FFFC0000
0003FFF80000
0003FFF80000
0003FFF00000
0003FFF00000
0003FFF00000
0003FFF00000
0003FFF00000
0003FFF00000
000000000000
000000000000
000000000000
000000000000
000000000000
000000000000
000000000000
000000000000
000000000000
00007F800000
0001FFE00000
0003FFF00000
0003FFF00000
0007FFF80000
0007FFF80000
000FFFFC0000
000FFFFC0000
000FFFFC0000
000FFFFC0000
000FFFFC0000
000FFFFC0000
0007FFF80000
0007FFF80000
0003FFF00000
0001FFE00000
0000FF800000
00001E000000
ENDCHAR
STARTCHAR $0040
ENCODING 64
SWIDTH 600 0
DWIDTH 60 0
BBX 60 80 0 -9
BITMAP
000003FFF0000000
00007FFFFF000000
0003FFFFFFE00000
000FFFFFFFF80000
003FFFFFFFFC0000
00FFFFFFFFFF0000
03FFFFFFFFFF8000
07FFFFFFFFFFC000
0FFFFFFFFFFFE000
3FFFFFFFFFFFF000
7FFFF8003FFFF800
FFFFC00007FFF800
7FFF000001FFFC00
3FF8000000FFFC00
3FF00000007FFE00
1FC00000003FFE00
0F800000001FFF00
07000000001FFF00
02000000000FFF80
00000000000FFF80
000000000007FF80
000000000007FFC0
000000000003FFC0
000000000003FFC0
000000000003FFC0
000000000003FFE0
00001FE00001FFE0
0001FFFF0001FFE0
000FFFFFE001FFE0
001FFFFFF801FFE0
007FFFFFFE01FFE0
00FFFFFFFF01FFE0
01FFFFFFFF01FFE0
01FFFFFFFF01FFF0
03FFFFFFFF01FFF0
07FFFFFFFF00FFF0
07FFF07FFF00FFF0
0FFFE03FFF00FFF0
0FFFC03FFF00FFF0
0FFF803FFF00FFF0
1FFF803FFF00FFF0
1FFF803FFF00FFF0
1FFF003FFF00FFF0
3FFF003FFF00FFF0
3FFF003FFF00FFF0
3FFF003FFF00FFF0
3FFF003FFF00FFF0
3FFF003FFF00FFF0
3FFF003FFF00FFF0
3FFF003FFF00FFF0
3FFF003FFF00FFF0
3FFF003FFF00FFF0
3FFF003FFF00FFF0
3FFF003FFF00FFE0
3FFF003FFF00FFE0
3FFF003FFF00FFE0
3FFF003FFF00FFE0
3FFF003FFF00FFE0
3FFF003FFF00FFE0
3FFF003FFF01FFE0
3FFF003FFF01FFE0
3FFF003FFF01FFE0
3FFF807FFF01FFE0
1FFF807FFF01FFC0
1FFFC0FFFF01FFC0
1FFFE1FFFF01FFC0
0FFFFFFFFF01FFC0
0FFFFFFEFF03FFC0
07FFFFFEFF83FF80
07FFFFFC7F83FF80
03FFFFF87FEFFF80
01FFFFF07FFFFF00
00FFFFE07FFFFF00
007FFFC03FFFFE00
001FFF003FFFFE00
0003F8001FFFFC00
000000000FFFF800
0000000007FFF000
0000000003FFE000
0000000001FF8000
ENDCHAR
STARTCHAR $0041
ENCODING 65
SWIDTH 600 0
DWIDTH 60 0
BBX 62 69 -1 0
BITMAP
000007FFFF800000
000007FFFFC00000
00000FFFFFC00000
00000FFFFFC00000
00000FFFFFC00000
00001FFFFFE00000
00001FFFFFE00000
00001FFFFFE00000
00003FFFFFF00000
00003FFFFFF00000
00003FFFFFF00000
00007FFFFFF80000
00007FFFFFF80000
00007FFDFFF80000
00007FFCFFFC0000
0000FFFCFFFC0000
0000FFFCFFFC0000
0000FFF8FFFC0000
0001FFF87FFE0000
0001FFF87FFE0000
0001FFF87FFE0000
0003FFF07FFF0000
0003FFF07FFF0000
0003FFF03FFF0000
0007FFF03FFF8000
0007FFE03FFF8000
0007FFE03FFF8000
0007FFE01FFFC000
000FFFE01FFFC000
000FFFC01FFFC000
000FFFC01FFFC000
001FFFC00FFFE000
001FFFC00FFFE000
001FFF800FFFE000
003FFF800FFFF000
003FFF8007FFF000
003FFF8007FFF000
003FFF0007FFF800
007FFF0007FFF800
007FFF0003FFF800
007FFF0003FFF800
00FFFE0003FFFC00
00FFFFFFFFFFFC00
00FFFFFFFFFFFC00
01FFFFFFFFFFFE00
01FFFFFFFFFFFE00
01FFFFFFFFFFFE00
03FFFFFFFFFFFF00
03FFFFFFFFFFFF00
03FFFFFFFFFFFF00
03FFFFFFFFFFFF80
07FFFFFFFFFFFF80
07FFFFFFFFFFFF80
07FFFFFFFFFFFF80
0FFFF800007FFFC0
0FFFF000007FFFC0
0FFFF000003FFFC0
1FFFF000003FFFE0
1FFFF000003FFFE0
1FFFE000003FFFE0
3FFFE000001FFFF0
3FFFE000001FFFF0
3FFFE000001FFFF0
3FFFC000001FFFF8
7FFFC000000FFFF8
7FFFC000000FFFF8
7FFFC000000FFFF8
FFFF8000000FFFFC
FFFF80000007FFFC
ENDCHAR
STARTCHAR $0042
ENCODING 66
SWIDTH 600 0
DWIDTH 60 0
BBX 51 69 6 0
BITMAP
FFFFFFFE000000
FFFFFFFFE00000
FFFFFFFFFC0000
FFFFFFFFFF0000
FFFFFFFFFFC000
FFFFFFFFFFE000
FFFFFFFFFFF000
FFFFFFFFFFF800
FFFFFFFFFFFC00
FFFFFFFFFFFC00
FFFFFFFFFFFE00
FFFF00FFFFFE00
FFFF000FFFFF00
FFFF0007FFFF00
FFFF0003FFFF00
FFFF0001FFFF00
FFFF0001FFFF00
FFFF0001FFFF00
FFFF0000FFFF00
FFFF0000FFFF00
FFFF0000FFFF00
FFFF0001FFFF00
FFFF0001FFFE00
FFFF0001FFFE00
FFFF0003FFFC00
FFFF0007FFFC00
FFFF001FFFF800
FFFFFFFFFFF000
FFFFFFFFFFE000
FFFFFFFFFFC000
FFFFFFFFFF0000
FFFFFFFFFC0000
FFFFFFFFF80000
FFFFFFFFFF0000
FFFFFFFFFFC000
FFFFFFFFFFF000
FFFFFFFFFFFC00
FFFFFFFFFFFE00
FFFF007FFFFF00
FFFF0007FFFF80
FFFF0001FFFF80
FFFF0000FFFFC0
FFFF00007FFFC0
FFFF00007FFFC0
FFFF00003FFFE0
FFFF00003FFFE0
FFFF00003FFFE0
FFFF00003FFFE0
FFFF00003FFFE0
FFFF00003FFFE0
FFFF00003FFFE0
FFFF00003FFFE0
FFFF00007FFFE0
FFFF00007FFFE0
FFFF0000FFFFC0
FFFF0003FFFFC0
FFFF000FFFFFC0
FFFFFFFFFFFF80
FFFFFFFFFFFF80
FFFFFFFFFFFF00
FFFFFFFFFFFF00
FFFFFFFFFFFE00
FFFFFFFFFFFC00
FFFFFFFFFFF800
FFFFFFFFFFE000
FFFFFFFFFF8000
FFFFFFFFFE0000
FFFFFFFFF00000
FFFFFFFC000000
ENDCHAR
STARTCHAR $0043
ENCODING 67
SWIDTH 600 0
DWIDTH 60 0
BBX 56 73 3 -2
BITMAP
0000003FFF0000
000003FFFFF000
00000FFFFFFE00
00003FFFFFFF80
0000FFFFFFFFE0
0003FFFFFFFFF0
0007FFFFFFFFFC
000FFFFFFFFFFE
001FFFFFFFFFFC
003FFFFFFFFFF8
007FFFFFFFFFF8
00FFFFFFFFFFF0
01FFFFFC07FFE0
03FFFFE0007FC0
03FFFF80001F80
07FFFF00000700
07FFFE00000300
0FFFFC00000000
0FFFF800000000
1FFFF800000000
1FFFF000000000
1FFFF000000000
3FFFE000000000
3FFFE000000000
3FFFE000000000
7FFFC000000000
7FFFC000000000
7FFFC000000000
7FFFC000000000
7FFFC000000000
7FFFC000000000
7FFFC000000000
7FFF8000000000
FFFF8000000000
FFFF8000000000
FFFF8000000000
FFFF8000000000
FFFF8000000000
FFFF8000000000
FFFF8000000000
7FFFC000000000
7FFFC000000000
7FFFC000000000
7FFFC000000000
7FFFC000000000
7FFFC000000000
7FFFC000000000
7FFFE000000000
3FFFE000000000
3FFFE000000000
3FFFF000000000
1FFFF000000000
1FFFF800000000
1FFFF800000000
0FFFFC00000080
0FFFFE000003C0
07FFFF000007E0
07FFFF80001FE0
03FFFFE0007FF0
03FFFFF801FFF8
01FFFFFFFFFFFC
00FFFFFFFFFFFE
007FFFFFFFFFFE
003FFFFFFFFFFF
001FFFFFFFFFFE
000FFFFFFFFFF8
0007FFFFFFFFF0
0003FFFFFFFFE0
0000FFFFFFFF80
00003FFFFFFE00
00000FFFFFF800
000001FFFFC000
0000000FF80000
ENDCHAR
STARTCHAR $0044
ENCODING 68
SWIDTH 600 0
DWIDTH 60 0
BBX 52 69 5 0
BITMAP
FFFFFFF0000000
FFFFFFFF000000
FFFFFFFFE00000
FFFFFFFFF80000
FFFFFFFFFE0000
FFFFFFFFFF8000
FFFFFFFFFFC000
FFFFFFFFFFE000
FFFFFFFFFFF000
FFFFFFFFFFF800
FFFFFFFFFFFC00
FFFFFFFFFFFE00
FFFF803FFFFE00
FFFF800FFFFF00
FFFF8003FFFF80
FFFF8001FFFF80
FFFF8000FFFFC0
FFFF8000FFFFC0
FFFF80007FFFC0
FFFF80007FFFE0
FFFF80003FFFE0
FFFF80003FFFE0
FFFF80003FFFE0
FFFF80003FFFF0
FFFF80001FFFF0
FFFF80001FFFF0
FFFF80001FFFF0
FFFF80001FFFF0
FFFF80001FFFF0
FFFF80001FFFF0
FFFF80001FFFF0
FFFF80001FFFF0
FFFF80001FFFF0
FFFF80001FFFF0
FFFF80001FFFF0
FFFF80001FFFF0
FFFF80001FFFF0
FFFF80001FFFF0
FFFF80001FFFF0
FFFF80001FFFF0
FFFF80001FFFF0
FFFF80001FFFF0
FFFF80001FFFF0
FFFF80001FFFF0
FFFF80001FFFF0
FFFF80003FFFE0
FFFF80003FFFE0
FFFF80003FFFE0
FFFF80007FFFE0
FFFF80007FFFC0
FFFF8000FFFFC0
FFFF8000FFFFC0
FFFF8001FFFF80
FFFF8003FFFF80
FFFF8007FFFF00
FFFF800FFFFF00
FFFF807FFFFE00
FFFFFFFFFFFC00
FFFFFFFFFFFC00
FFFFFFFFFFF800
FFFFFFFFFFF000
FFFFFFFFFFE000
FFFFFFFFFFC000
FFFFFFFFFF0000
FFFFFFFFFE0000
FFFFFFFFF80000
FFFFFFFFE00000
FFFFFFFE000000
FFFFFFC0000000
ENDCHAR
STARTCHAR $0045
ENCODING 69
SWIDTH 600 0
DWIDTH 60 0
BBX 46 69 9 0
BITMAP
FFFFFFFFFFFC
FFFFFFFFFFF8
FFFFFFFFFFF8
FFFFFFFFFFF8
FFFFFFFFFFF8
FFFFFFFFFFF8
FFFFFFFFFFF8
FFFFFFFFFFF8
FFFFFFFFFFF0
FFFFFFFFFFF0
FFFFFFFFFFF0
FFFF80000000
FFFF80000000
FFFF80000000
FFFF80000000
FFFF80000000
FFFF80000000
FFFF80000000
FFFF80000000
FFFF80000000
FFFF80000000
FFFF80000000
FFFF80000000
FFFF80000000
FFFF80000000
FFFF80000000
FFFF80000000
FFFF80000000
FFFFFFFFFF80
FFFFFFFFFF80
FFFFFFFFFF80
FFFFFFFFFF80
FFFFFFFFFF80
FFFFFFFFFF80
FFFFFFFFFF80
FFFFFFFFFF80
FFFFFFFFFF80
FFFFFFFFFF80
FFFFFFFFFF80
FFFFFFFFFF80
FFFF80000000
FFFF80000000
FFFF80000000
FFFF80000000
FFFF80000000
FFFF80000000
FFFF80000000
FFFF80000000
FFFF80000000
FFFF80000000
FFFF80000000
FFFF80000000
FFFF80000000
FFFF80000000
FFFF80000000
FFFF80000000
FFFF80000000
FFFFFFFFFFFC
FFFFFFFFFFFC
FFFFFFFFFFFC
FFFFFFFFFFFC
FFFFFFFFFFFC
FFFFFFFFFFFC
FFFFFFFFFFFC
FFFFFFFFFFFC
FFFFFFFFFFFC
FFFFFFFFFFFC
FFFFFFFFFFFC
FFFFFFFFFFFC
ENDCHAR
STARTCHAR $0046
ENCODING 70
SWIDTH 600 0
DWIDTH 60 0
BBX 45 69 11 0
BITMAP
FFFFFFFFFFF8
FFFFFFFFFFF8
FFFFFFFFFFF8
FFFFFFFFFFF8
FFFFFFFFFFF8
FFFFFFFFFFF8
FFFFFFFFFFF0
FFFFFFFFFFF0
FFFFFFFFFFF0
FFFFFFFFFFF0
FFFFFFFFFFF0
FFFF00000000
FFFF00000000
FFFF00000000
FFFF00000000
FFFF00000000
FFFF00000000
FFFF00000000
FFFF00000000
FFFF00000000
FFFF00000000
FFFF00000000
FFFF00000000
FFFF00000000
FFFF00000000
FFFF00000000
FFFF00000000
FFFF00000000
FFFF00000000
FFFF00000000
FFFFFFFFFF80
FFFFFFFFFF80
FFFFFFFFFF80
FFFFFFFFFF80
FFFFFFFFFF80
FFFFFFFFFF80
FFFFFFFFFF80
FFFFFFFFFF80
FFFFFFFFFF80
FFFFFFFFFF80
FFFFFFFFFF80
FFFFFFFFFF80
FFFF00000000
FFFF00000000
FFFF00000000
FFFF00000000
FFFF00000000
FFFF00000000
FFFF00000000
FFFF00000000
FFFF00000000
FFFF00000000
FFFF00000000
FFFF00000000
FFFF00000000
FFFF00000000
FFFF00000000
FFFF00000000
FFFF00000000
FFFF00000000
FFFF00000000
FFFF00000000
FFFF00000000
FFFF00000000
FFFF00000000
FFFF00000000
FFFF00000000
FFFF00000000
FFFF00000000
ENDCHAR
STARTCHAR $0047
ENCODING 71
SWIDTH 600 0
DWIDTH 60 0
BBX 55 73 2 -2
BITMAP
0000003FFE0000
000003FFFFE000
00001FFFFFFC00
00007FFFFFFF00
0001FFFFFFFF80
0003FFFFFFFFE0
0007FFFFFFFFF0
001FFFFFFFFFF8
003FFFFFFFFFFE
007FFFFFFFFFFC
00FFFFFFFFFFF8
00FFFFFFFFFFF0
01FFFFF803FFE0
03FFFFC000FFC0
03FFFF80003F80
07FFFF00000F00
0FFFFE00000600
0FFFFC00000000
0FFFF800000000
1FFFF000000000
1FFFF000000000
3FFFF000000000
3FFFE000000000
3FFFE000000000
3FFFC000000000
7FFFC000000000
7FFFC000000000
7FFFC000000000
7FFFC000000000
7FFFC000000000
7FFF8000000000
FFFF8007FFFFFE
FFFF8007FFFFFE
FFFF8007FFFFFE
FFFF8007FFFFFE
FFFF8003FFFFFE
FFFF8003FFFFFE
FFFF8003FFFFFE
FFFF8003FFFFFE
FFFF8003FFFFFE
FFFF8003FFFFFE
FFFF8003FFFFFE
FFFF8001FFFFFE
7FFF800001FFFE
7FFFC00001FFFE
7FFFC00001FFFE
7FFFC00001FFFE
7FFFC00001FFFE
7FFFC00001FFFE
3FFFC00001FFFE
3FFFE00001FFFE
3FFFE00001FFFE
3FFFE00001FFFE
1FFFF00001FFFE
1FFFF00001FFFE
1FFFF80001FFFE
0FFFF80001FFFE
0FFFFC0001FFFE
07FFFE0001FFFE
07FFFF8007FFFE
03FFFFF03FFFFE
01FFFFFFFFFFFE
01FFFFFFFFFFFE
00FFFFFFFFFFFE
007FFFFFFFFFFE
003FFFFFFFFFFE
001FFFFFFFFFFC
000FFFFFFFFFF0
0003FFFFFFFFC0
0000FFFFFFFE00
00003FFFFFF000
000007FFFF8000
0000003FE00000
ENDCHAR
STARTCHAR $0048
ENCODING 72
SWIDTH 600 0
DWIDTH 60 0
BBX 50 69 5 0
BITMAP
FFFF80007FFFC0
FFFF80007FFFC0
FFFF80007FFFC0
FFFF80007FFFC0
FFFF80007FFFC0
FFFF80007FFFC0
FFFF80007FFFC0
FFFF80007FFFC0
FFFF80007FFFC0
FFFF80007FFFC0
FFFF80007FFFC0
FFFF80007FFFC0
FFFF80007FFFC0
FFFF80007FFFC0
FFFF80007FFFC0
FFFF80007FFFC0
FFFF80007FFFC0
FFFF80007FFFC0
FFFF80007FFFC0
FFFF80007FFFC0
FFFF80007FFFC0
FFFF80007FFFC0
FFFF80007FFFC0
FFFF80007FFFC0
FFFF80007FFFC0
FFFF80007FFFC0
FFFFFFFFFFFFC0
FFFFFFFFFFFFC0
FFFFFFFFFFFFC0
FFFFFFFFFFFFC0
FFFFFFFFFFFFC0
FFFFFFFFFFFFC0
FFFFFFFFFFFFC0
FFFFFFFFFFFFC0
FFFFFFFFFFFFC0
FFFFFFFFFFFFC0
FFFFFFFFFFFFC0
FFFFFFFFFFFFC0
FFFFFFFFFFFFC0
FFFFFFFFFFFFC0
FFFF80007FFFC0
FFFF80007FFFC0
FFFF80007FFFC0
FFFF80007FFFC0
FFFF80007FFFC0
FFFF80007FFFC0
FFFF80007FFFC0
FFFF80007FFFC0
FFFF80007FFFC0
FFFF80007FFFC0
FFFF80007FFFC0
FFFF80007FFFC0
FFFF80007FFFC0
FFFF80007FFFC0
FFFF80007FFFC0
FFFF80007FFFC0
FFFF80007FFFC0
FFFF80007FFFC0
FFFF80007FFFC0
FFFF80007FFFC0
FFFF80007FFFC0
FFFF80007FFFC0
FFFF80007FFFC0
FFFF80007FFFC0
FFFF80007FFFC0
FFFF80007FFFC0
FFFF80007FFFC0
FFFF80007FFFC0
FFFF80007FFFC0
ENDCHAR
STARTCHAR $0049
ENCODING 73
SWIDTH 600 0
DWIDTH 60 0
BBX 46 69 7 0
BITMAP
FFFFFFFFFFFC
FFFFFFFFFFFC
FFFFFFFFFFFC
FFFFFFFFFFFC
FFFFFFFFFFFC
FFFFFFFFFFFC
FFFFFFFFFFFC
FFFFFFFFFFFC
FFFFFFFFFFFC
FFFFFFFFFFFC
FFFFFFFFFFFC
FFFFFFFFFFFC
0001FFFE0000
0001FFFE0000
0001FFFE0000
0001FFFE0000
0001FFFE0000
0001FFFE0000
0001FFFE0000
0001FFFE0000
0001FFFE0000
0001FFFE0000
0001FFFE0000
0001FFFE0000
0001FFFE0000
0001FFFE0000
0001FFFE0000
0001FFFE0000
0001FFFE0000
0001FFFE0000
0001FFFE0000
0001FFFE0000
0001FFFE0000
0001FFFE0000
0001FFFE0000
0001FFFE0000
0001FFFE0000
0001FFFE0000
0001FFFE0000
0001FFFE0000
0001FFFE0000
0001FFFE0000
0001FFFE0000
0001FFFE0000
0001FFFE0000
0001FFFE0000
0001FFFE0000
0001FFFE0000
0001FFFE0000
0001FFFE0000
0001FFFE0000
0001FFFE0000
0001FFFE0000
0001FFFE0000
0001FFFE0000
0001FFFE0000
0001FFFE0000
FFFFFFFFFFFC
FFFFFFFFFFFC
FFFFFFFFFFFC
FFFFFFFFFFFC
FFFFFFFFFFFC
FFFFFFFFFFFC
FFFFFFFFFFFC
FFFFFFFFFFFC
FFFFFFFFFFFC
FFFFFFFFFFFC
FFFFFFFFFFFC
FFFFFFFFFFFC
ENDCHAR
STARTCHAR $004A
ENCODING 74
SWIDTH 600 0
DWIDTH 60 0
BBX 49 71 4 -2
BITMAP
001FFFFFFFFF80
001FFFFFFFFF80
001FFFFFFFFF80
001FFFFFFFFF80
001FFFFFFFFF80
001FFFFFFFFF80
001FFFFFFFFF80
001FFFFFFFFF80
001FFFFFFFFF80
001FFFFFFFFF80
001FFFFFFFFF80
001FFFFFFFFF80
00000000FFFF80
00000000FFFF80
00000000FFFF80
00000000FFFF80
00000000FFFF80
00000000FFFF80
00000000FFFF80
00000000FFFF80
00000000FFFF80
00000000FFFF80
00000000FFFF80
00000000FFFF80
00000000FFFF80
00000000FFFF80
00000000FFFF80
00000000FFFF80
00000000FFFF80
00000000FFFF80
00000000FFFF80
00000000FFFF80
00000000FFFF80
00000000FFFF80
00000000FFFF80
00000000FFFF80
00000000FFFF80
00000000FFFF80
00000000FFFF80
00000000FFFF80
00000000FFFF80
00000000FFFF80
00000000FFFF80
00000000FFFF80
00000000FFFF80
00000000FFFF80
00000000FFFF80
00000000FFFF80
00000000FFFF00
00000000FFFF00
00000001FFFF00
00000001FFFF00
00000001FFFF00
00000003FFFE00
02000007FFFE00
0780000FFFFE00
07E0001FFFFC00
0FF8007FFFFC00
1FFFFFFFFFF800
1FFFFFFFFFF800
3FFFFFFFFFF000
7FFFFFFFFFE000
7FFFFFFFFFC000
FFFFFFFFFF8000
7FFFFFFFFF0000
3FFFFFFFFE0000
0FFFFFFFF80000
03FFFFFFF00000
00FFFFFF800000
000FFFFC000000
00000C00000000
ENDCHAR
STARTCHAR $004B
ENCODING 75
SWIDTH 600 0
DWIDTH 60 0
BBX 55 69 6 0
BITMAP
FFFF00001FFFF8
FFFF00001FFFF0
FFFF00003FFFE0
FFFF00003FFFE0
FFFF00007FFFC0
FFFF0000FFFF80
FFFF0000FFFF80
FFFF0001FFFF00
FFFF0001FFFE00
FFFF0003FFFE00
FFFF0007FFFC00
FFFF0007FFFC00
FFFF000FFFF800
FFFF000FFFF000
FFFF001FFFF000
FFFF003FFFE000
FFFF003FFFC000
FFFF007FFFC000
FFFF007FFF8000
FFFF00FFFF0000
FFFF00FFFF0000
FFFF01FFFE0000
FFFF03FFFE0000
FFFF03FFFC0000
FFFF07FFF80000
FFFF07FFF80000
FFFF0FFFF00000
FFFF1FFFE00000
FFFF1FFFE00000
FFFF3FFFC00000
FFFF3FFFC00000
FFFF7FFFC00000
FFFF7FFFC00000
FFFF3FFFE00000
FFFF3FFFE00000
FFFF1FFFF00000
FFFF1FFFF80000
FFFF0FFFF80000
FFFF0FFFFC0000
FFFF07FFFC0000
FFFF07FFFE0000
FFFF03FFFE0000
FFFF03FFFF0000
FFFF01FFFF8000
FFFF01FFFF8000
FFFF00FFFFC000
FFFF00FFFFC000
FFFF007FFFE000
FFFF007FFFE000
FFFF003FFFF000
FFFF003FFFF000
FFFF001FFFF800
FFFF001FFFFC00
FFFF000FFFFC00
FFFF000FFFFE00
FFFF0007FFFE00
FFFF0007FFFF00
FFFF0003FFFF00
FFFF0003FFFF80
FFFF0001FFFFC0
FFFF0001FFFFC0
FFFF0000FFFFE0
FFFF0000FFFFE0
FFFF00007FFFF0
FFFF00003FFFF0
FFFF00003FFFF8
FFFF00001FFFF8
FFFF00001FFFFC
FFFF00000FFFFE
ENDCHAR
STARTCHAR $004C
ENCODING 76
SWIDTH 600 0
DWIDTH 60 0
BBX 47 69 9 0
BITMAP
FFFF80000000
FFFF80000000
FFFF80000000
FFFF80000000
FFFF80000000
FFFF80000000
FFFF80000000
FFFF80000000
FFFF80000000
FFFF80000000
FFFF80000000
FFFF80000000
FFFF80000000
FFFF80000000
FFFF80000000
FFFF80000000
FFFF80000000
FFFF80000000
FFFF80000000
FFFF80000000
FFFF80000000
FFFF80000000
FFFF80000000
FFFF80000000
FFFF80000000
FFFF80000000
FFFF80000000
FFFF80000000
FFFF80000000
FFFF80000000
FFFF80000000
FFFF80000000
FFFF80000000
FFFF80000000
FFFF80000000
FFFF80000000
FFFF80000000
FFFF80000000
FFFF80000000
FFFF80000000
FFFF80000000
FFFF80000000
FFFF80000000
FFFF80000000
FFFF80000000
FFFF80000000
FFFF80000000
FFFF80000000
FFFF80000000
FFFF80000000
FFFF80000000
FFFF80000000
FFFF80000000
FFFF80000000
FFFF80000000
FFFF80000000
FFFFFFFFFFFE
FFFFFFFFFFFE
FFFFFFFFFFFC
FFFFFFFFFFFC
FFFFFFFFFFFC
FFFFFFFFFFFC
FFFFFFFFFFFC
FFFFFFFFFFFC
FFFFFFFFFFFC
FFFFFFFFFFFC
FFFFFFFFFFF8
FFFFFFFFFFF8
FFFFFFFFFFF8
ENDCHAR
STARTCHAR $004D
ENCODING 77
SWIDTH 600 0
DWIDTH 60 0
BBX 56 69 2 0
BITMAP
0FFFF8001FFFF0
0FFFF8001FFFF0
1FFFF8001FFFF8
1FFFF8001FFFF8
1FFFF8001FFFF8
1FFFF8001FFFF8
1FFFFC003FFFF8
1FFFFC003FFFF8
1FFFFC003FFFF8
1FFFFC003FFFF8
1FFFFC003FFFF8
1FFFFE003FFFF8
1FFFFE007FFFF8
1FFFFE007FFFF8
1FFBFE007FFFF8
1FFFFE007FFFF8
1FFFFE007FBFF8
1FFFFF007FBFF8
1FFFFF00FFBFF8
1FFFFF00FFFFF8
3FFDFF00FFFFFC
3FFDFF00FFFFFC
3FFDFF00FF7FFC
3FFDFF80FF7FFC
3FFDFF81FF7FFC
3FFCFF81FF7FFC
3FFCFF81FF7FFC
3FFCFF81FE7FFC
3FFCFF81FE7FFC
3FFCFFC1FE7FFC
3FFC7FC3FE7FFC
3FFC7FC3FE7FFC
3FFC7FC3FE7FFC
3FFC7FC3FC7FFC
3FFC7FC3FC7FFC
3FFC3FE3FC7FFC
3FFC3FE7FC7FFC
3FFC3FE7FC7FFC
7FFC3FE7FC7FFE
7FFC3FE7F87FFE
7FFC1FF7F87FFE
7FFC1FF7F87FFE
7FFC1FF7F87FFE
7FFC1FFFF87FFE
7FFC1FFFF07FFE
7FFC1FFFF07FFE
7FFC0FFFF07FFE
7FFC0FFFF07FFE
7FFC0FFFF07FFE
7FFC0FFFF07FFE
7FFC0FFFE07FFE
7FFC07FFE07FFE
7FFC07FFE07FFE
7FFC07FFE03FFE
7FFC07FFE03FFE
FFFC07FFC03FFE
FFFC03FFC03FFF
FFFC0000003FFF
FFFC0000003FFF
FFFC0000003FFF
FFFC0000003FFF
FFFC0000003FFF
FFFC0000003FFF
FFFC0000003FFF
FFFC0000003FFF
FFFC0000003FFF
FFFC0000003FFF
FFFC0000003FFF
FFFC0000003FFF
ENDCHAR
STARTCHAR $004E
ENCODING 78
SWIDTH 600 0
DWIDTH 60 0
BBX 50 69 5 0
BITMAP
FFFFF8000FFFC0
FFFFF8000FFFC0
FFFFFC000FFFC0
FFFFFC000FFFC0
FFFFFC000FFFC0
FFFFFE000FFFC0
FFFFFE000FFFC0
FFFFFE000FFFC0
FFFFFE000FFFC0
FFFFFF000FFFC0
FFFFFF000FFFC0
FFFFFF000FFFC0
FFFFFF800FFFC0
FFFFFF800FFFC0
FFFFFF800FFFC0
FFFFFFC00FFFC0
FFF7FFC00FFFC0
FFF7FFC00FFFC0
FFF7FFE00FFFC0
FFFBFFE00FFFC0
FFFBFFE00FFFC0
FFFBFFF00FFFC0
FFF9FFF00FFFC0
FFF9FFF00FFFC0
FFF9FFF80FFFC0
FFF8FFF80FFFC0
FFF8FFF80FFFC0
FFF8FFFC0FFFC0
FFFC7FFC0FFFC0
FFFC7FFC0FFFC0
FFFC7FFC0FFFC0
FFFC3FFE0FFFC0
FFFC3FFE0FFFC0
FFFC3FFE0FFFC0
FFFC1FFF0FFFC0
FFFC1FFF0FFFC0
FFFC1FFF0FFFC0
FFFC0FFF8FFFC0
FFFC0FFF8FFFC0
FFFC0FFF8FFFC0
FFFC07FFCFFFC0
FFFC07FFC7FFC0
FFFC07FFC7FFC0
FFFC03FFE7FFC0
FFFC03FFE7FFC0
FFFC03FFE7FFC0
FFFC01FFF7FFC0
FFFC01FFF7FFC0
FFFC01FFF7FFC0
FFFC00FFFFFFC0
FFFC00FFFBFFC0
FFFC00FFFBFFC0
FFFC00FFFFFFC0
FFFC007FFFFFC0
FFFC007FFFFFC0
FFFC007FFFFFC0
FFFC003FFFFFC0
FFFC003FFFFFC0
FFFC003FFFFFC0
FFFC001FFFFFC0
FFFC001FFFFFC0
FFFC001FFFFFC0
FFFC000FFFFFC0
FFFC000FFFFFC0
FFFC000FFFFFC0
FFFC0007FFFFC0
FFFC0007FFFFC0
FFFC0007FFFFC0
FFFC0003FFFFC0
ENDCHAR
STARTCHAR $004F
ENCODING 79
SWIDTH 600 0
DWIDTH 60 0
BBX 56 73 2 -2
BITMAP
000003FFC00000
00003FFFFC0000
0000FFFFFF0000
0003FFFFFFC000
0007FFFFFFE000
001FFFFFFFF800
003FFFFFFFFC00
007FFFFFFFFE00
00FFFFFFFFFF00
00FFFFFFFFFF80
01FFFFFFFFFF80
03FFFFFFFFFFC0
03FFFF81FFFFE0
07FFFE007FFFE0
07FFFC003FFFF0
0FFFF8001FFFF0
0FFFF0000FFFF0
1FFFF0000FFFF8
1FFFE00007FFF8
1FFFE00007FFF8
3FFFE00007FFFC
3FFFC00003FFFC
3FFFC00003FFFC
7FFFC00003FFFE
7FFFC00003FFFE
7FFFC00003FFFE
7FFFC00003FFFE
7FFF800001FFFE
7FFF800001FFFE
7FFF800001FFFE
FFFF800001FFFF
FFFF800001FFFF
FFFF800001FFFF
FFFF800001FFFF
FFFF800001FFFF
FFFF800001FFFF
FFFF800001FFFF
FFFF800001FFFF
FFFF800001FFFF
FFFF800001FFFF
FFFF800001FFFF
FFFF800001FFFF
FFFF800001FFFE
7FFF800001FFFE
7FFF800001FFFE
7FFF800001FFFE
7FFFC00003FFFE
7FFFC00003FFFE
7FFFC00003FFFE
3FFFC00003FFFC
3FFFC00003FFFC
3FFFC00003FFFC
3FFFE00007FFFC
1FFFE00007FFF8
1FFFE00007FFF8
1FFFF0000FFFF8
0FFFF8000FFFF0
0FFFF8001FFFF0
07FFFC003FFFE0
07FFFE007FFFE0
03FFFFC3FFFFC0
03FFFFFFFFFFC0
01FFFFFFFFFF80
00FFFFFFFFFF00
007FFFFFFFFE00
007FFFFFFFFC00
001FFFFFFFF800
000FFFFFFFF000
0007FFFFFFE000
0001FFFFFF8000
00007FFFFE0000
00001FFFF80000
000000FF000000
ENDCHAR
STARTCHAR $0050
ENCODING 80
SWIDTH 600 0
DWIDTH 60 0
BBX 52 69 6 0
BITMAP
FFFFFFFF000000
FFFFFFFFF00000
FFFFFFFFFE0000
FFFFFFFFFF8000
FFFFFFFFFFE000
FFFFFFFFFFF000
FFFFFFFFFFF800
FFFFFFFFFFFC00
FFFFFFFFFFFE00
FFFFFFFFFFFF00
FFFFFFFFFFFF80
FFFF80FFFFFF80
FFFF8007FFFFC0
FFFF8001FFFFC0
FFFF8000FFFFE0
FFFF80007FFFE0
FFFF80003FFFE0
FFFF80003FFFE0
FFFF80003FFFE0
FFFF80003FFFF0
FFFF80001FFFF0
FFFF80001FFFF0
FFFF80001FFFF0
FFFF80001FFFF0
FFFF80001FFFF0
FFFF80003FFFE0
FFFF80003FFFE0
FFFF80003FFFE0
FFFF80003FFFE0
FFFF80007FFFE0
FFFF8000FFFFE0
FFFF8001FFFFC0
FFFF8003FFFFC0
FFFF801FFFFF80
FFFFFFFFFFFF80
FFFFFFFFFFFF00
FFFFFFFFFFFF00
FFFFFFFFFFFE00
FFFFFFFFFFFC00
FFFFFFFFFFF800
FFFFFFFFFFF000
FFFFFFFFFFC000
FFFFFFFFFF8000
FFFFFFFFFC0000
FFFFFFFFE00000
FFFFFFFC000000
FFFF8000000000
FFFF8000000000
FFFF8000000000
FFFF8000000000
FFFF8000000000
FFFF8000000000
FFFF8000000000
FFFF8000000000
FFFF8000000000
FFFF8000000000
FFFF8000000000
FFFF8000000000
FFFF8000000000
FFFF8000000000
FFFF8000000000
FFFF8000000000
FFFF8000000000
FFFF8000000000
FFFF8000000000
FFFF8000000000
FFFF8000000000
FFFF8000000000
FFFF8000000000
ENDCHAR
STARTCHAR $0051
ENCODING 81
SWIDTH 600 0
DWIDTH 60 0
BBX 60 88 3 -17
BITMAP
000007FF80000000
00003FFFF8000000
0001FFFFFE000000
0003FFFFFF800000
000FFFFFFFE00000
001FFFFFFFF00000
003FFFFFFFF80000
007FFFFFFFFC0000
00FFFFFFFFFE0000
01FFFFFFFFFF0000
01FFFFFFFFFF0000
03FFFFFFFFFF8000
07FFFF03FFFF8000
07FFFC00FFFFC000
0FFFF8007FFFC000
0FFFF0003FFFE000
1FFFF0001FFFE000
1FFFE0001FFFF000
1FFFE0001FFFF000
3FFFE0000FFFF000
3FFFE0000FFFF800
3FFFC0000FFFF800
3FFFC0000FFFF800
7FFFC00007FFF800
7FFFC00007FFF800
7FFFC00007FFFC00
7FFFC00007FFFC00
7FFFC00007FFFC00
7FFF800007FFFC00
7FFF800007FFFC00
FFFF800007FFFC00
FFFF800007FFFC00
FFFF800007FFFC00
FFFF800007FFFC00
FFFF800007FFFC00
FFFF800007FFFC00
FFFF800007FFFC00
FFFF800007FFFC00
FFFF800007FFFC00
FFFF800007FFFC00
FFFF800007FFFC00
FFFF800007FFFC00
FFFF800007FFFC00
7FFF800007FFFC00
7FFF800007FFFC00
7FFFC00007FFFC00
7FFFC00007FFFC00
7FFFC00007FFF800
7FFFC00007FFF800
7FFFC00007FFF800
3FFFC0000FFFF800
3FFFC0000FFFF000
3FFFE0000FFFF000
3FFFE0000FFFF000
1FFFE0001FFFE000
1FFFF0001FFFE000
1FFFF0001FFFC000
0FFFF8003FFFC000
0FFFFC007FFF8000
07FFFE00FFFF8000
07FFFF87FFFF0000
03FFFFFFFFFE0000
03FFFFFFFFFC0000
01FFFFFFFFF80000
00FFFFFFFFF00000
007FFFFFFFC00000
003FFFFFFF800000
001FFFFFFFC00000
000FFFFFFFFC0000
0003FFFFFFFF8000
0000FFFFFFFFE000
00001FFFFFFFF000
0000000FFFFFFC00
000000003FFFFE00
000000000FFFFF00
0000000003FFFF00
0000000001FFFF80
0000000000FFFFC0
00000000007FFFC0
00000000003FFFE0
00000000001FFFE0
00000000000FFFF0
00000000000FFFF0
000000000007FFF0
000000000007FFC0
000000000003FE00
000000000003F000
0000000000018000
ENDCHAR
STARTCHAR $0052
ENCODING 82
SWIDTH 600 0
DWIDTH 60 0
BBX 54 69 6 0
BITMAP
FFFFFFFF000000
FFFFFFFFF00000
FFFFFFFFFE0000
FFFFFFFFFF8000
FFFFFFFFFFC000
FFFFFFFFFFF000
FFFFFFFFFFF800
FFFFFFFFFFFC00
FFFFFFFFFFFE00
FFFFFFFFFFFE00
FFFFFFFFFFFF00
FFFF007FFFFF00
FFFF0007FFFF80
FFFF0003FFFF80
FFFF0001FFFF80
FFFF0000FFFFC0
FFFF00007FFFC0
FFFF00007FFFC0
FFFF00007FFFC0
FFFF00007FFFC0
FFFF00007FFFC0
FFFF00007FFFC0
FFFF00007FFFC0
FFFF00007FFFC0
FFFF00007FFFC0
FFFF00007FFFC0
FFFF0000FFFF80
FFFF0000FFFF80
FFFF0001FFFF80
FFFF0007FFFF00
FFFF001FFFFF00
FFFFFFFFFFFE00
FFFFFFFFFFFC00
FFFFFFFFFFFC00
FFFFFFFFFFF800
FFFFFFFFFFF000
FFFFFFFFFFC000
FFFFFFFFFF8000
FFFFFFFFFE0000
FFFFFFFFF80000
FFFFFFFFF80000
FFFFFFFFF80000
FFFFFFFFFC0000
FFFF07FFFE0000
FFFF03FFFE0000
FFFF01FFFF0000
FFFF01FFFF0000
FFFF00FFFF8000
FFFF00FFFFC000
FFFF007FFFC000
FFFF007FFFE000
FFFF003FFFF000
FFFF003FFFF000
FFFF001FFFF800
FFFF000FFFF800
FFFF000FFFFC00
FFFF0007FFFE00
FFFF0007FFFE00
FFFF0003FFFF00
FFFF0003FFFF80
FFFF0001FFFF80
FFFF0000FFFFC0
FFFF0000FFFFC0
FFFF00007FFFE0
FFFF00007FFFF0
FFFF00003FFFF0
FFFF00003FFFF8
FFFF00001FFFF8
FFFF00000FFFFC
ENDCHAR
STARTCHAR $0053
ENCODING 83
SWIDTH 600 0
DWIDTH 60 0
BBX 56 73 1 -2
BITMAP
000001FFF80000
00001FFFFFC000
0000FFFFFFF800
0003FFFFFFFE00
000FFFFFFFFF80
001FFFFFFFFFC0
003FFFFFFFFFF0
007FFFFFFFFFF8
00FFFFFFFFFFFE
01FFFFFFFFFFFC
03FFFFFFFFFFF8
03FFFFFFFFFFF0
07FFFFE00FFFF0
07FFFF0000FFE0
07FFFE00003FC0
0FFFFC00000F80
0FFFF800000700
0FFFF800000200
0FFFF800000000
0FFFF800000000
0FFFF800000000
0FFFF800000000
0FFFFC00000000
0FFFFE00000000
0FFFFF80000000
0FFFFFE0000000
07FFFFF8000000
07FFFFFF000000
03FFFFFFE00000
03FFFFFFFC0000
01FFFFFFFF8000
01FFFFFFFFE000
00FFFFFFFFF800
007FFFFFFFFE00
001FFFFFFFFF00
000FFFFFFFFF80
0003FFFFFFFFC0
0001FFFFFFFFE0
00007FFFFFFFF0
00000FFFFFFFF8
000003FFFFFFFC
0000007FFFFFFC
00000007FFFFFC
00000001FFFFFE
000000003FFFFE
000000001FFFFE
0000000007FFFE
0000000007FFFF
0000000003FFFF
0000000003FFFF
0000000001FFFF
0000000001FFFF
0000000001FFFF
0080000001FFFF
00C0000003FFFE
01E0000003FFFE
03F8000007FFFE
07FC00000FFFFE
0FFF80001FFFFC
1FFFF0007FFFFC
3FFFFFFFFFFFF8
7FFFFFFFFFFFF8
FFFFFFFFFFFFF0
7FFFFFFFFFFFE0
3FFFFFFFFFFFE0
1FFFFFFFFFFFC0
07FFFFFFFFFF00
01FFFFFFFFFE00
00FFFFFFFFF800
003FFFFFFFF000
0007FFFFFF8000
0000FFFFFC0000
000003FF800000
ENDCHAR
STARTCHAR $0054
ENCODING 84
SWIDTH 600 0
DWIDTH 60 0
BBX 56 69 2 0
BITMAP
FFFFFFFFFFFFFF
FFFFFFFFFFFFFF
FFFFFFFFFFFFFF
FFFFFFFFFFFFFF
FFFFFFFFFFFFFF
FFFFFFFFFFFFFF
FFFFFFFFFFFFFE
FFFFFFFFFFFFFE
FFFFFFFFFFFFFE
FFFFFFFFFFFFFE
FFFFFFFFFFFFFE
FFFFFFFFFFFFFE
00000FFFF00000
00000FFFF00000
00000FFFF00000
00000FFFF00000
00000FFFF00000
00000FFFF00000
00000FFFF00000
00000FFFF00000
00000FFFF00000
00000FFFF00000
00000FFFF00000
00000FFFF00000
00000FFFF00000
00000FFFF00000
00000FFFF00000
00000FFFF00000
00000FFFF00000
00000FFFF00000
00000FFFF00000
00000FFFF00000
00000FFFF00000
00000FFFF00000
00000FFFF00000
00000FFFF00000
00000FFFF00000
00000FFFF00000
00000FFFF00000
00000FFFF00000
00000FFFF00000
00000FFFF00000
00000FFFF00000
00000FFFF00000
00000FFFF00000
00000FFFF00000
00000FFFF00000
00000FFFF00000
00000FFFF00000
00000FFFF00000
00000FFFF00000
00000FFFF00000
00000FFFF00000
00000FFFF00000
00000FFFF00000
00000FFFF00000
00000FFFF00000
00000FFFF00000
00000FFFF00000
00000FFFF00000
00000FFFF00000
00000FFFF00000
00000FFFF00000
00000FFFF00000
00000FFFF00000
00000FFFF00000
00000FFFF00000
00000FFFF00000
00000FFFF00000
ENDCHAR
STARTCHAR $0055
ENCODING 85
SWIDTH 600 0
DWIDTH 60 0
BBX 52 71 4 -2
BITMAP
FFFF80001FFFF0
FFFF80001FFFF0
FFFF80001FFFF0
FFFF80001FFFF0
FFFF80001FFFF0
FFFF80001FFFF0
FFFF80001FFFF0
FFFF80001FFFF0
FFFF80001FFFF0
FFFF80001FFFF0
FFFF80001FFFF0
FFFF80001FFFF0
FFFF80001FFFF0
FFFF80001FFFF0
FFFF80001FFFF0
FFFF80001FFFF0
FFFF80001FFFF0
FFFF80001FFFF0
FFFF80001FFFF0
FFFF80001FFFF0
FFFF80001FFFF0
FFFF80001FFFF0
FFFF80001FFFF0
FFFF80001FFFF0
FFFF80001FFFF0
FFFF80001FFFF0
FFFF80001FFFF0
FFFF80001FFFF0
FFFF80001FFFF0
FFFF80001FFFF0
FFFF80001FFFF0
FFFF80001FFFF0
FFFF80001FFFF0
FFFF80001FFFF0
FFFF80001FFFF0
FFFF80001FFFF0
FFFF80001FFFF0
FFFF80001FFFF0
FFFF80001FFFF0
FFFF80001FFFF0
FFFF80001FFFF0
FFFF80001FFFF0
FFFF80001FFFF0
FFFF80001FFFF0
FFFF80001FFFF0
FFFF80001FFFF0
FFFF80001FFFF0
FFFF80001FFFF0
FFFF80001FFFF0
FFFF80001FFFF0
FFFF80003FFFE0
7FFFC0003FFFE0
7FFFC0003FFFE0
7FFFC0003FFFE0
7FFFE0007FFFE0
3FFFE0007FFFC0
3FFFF000FFFFC0
3FFFF801FFFF80
1FFFFFFFFFFF80
1FFFFFFFFFFF00
0FFFFFFFFFFF00
07FFFFFFFFFE00
07FFFFFFFFFC00
03FFFFFFFFF800
01FFFFFFFFF000
00FFFFFFFFE000
003FFFFFFFC000
001FFFFFFF0000
0007FFFFFC0000
0000FFFFE00000
000003FC000000
ENDCHAR
STARTCHAR $0056
ENCODING 86
SWIDTH 600 0
DWIDTH 60 0
BBX 60 69 0 0
BITMAP
FFFFC000001FFFF0
FFFFC000001FFFF0
7FFFC000001FFFE0
7FFFC000003FFFE0
7FFFC000003FFFE0
3FFFE000003FFFC0
3FFFE000003FFFC0
3FFFE000003FFFC0
3FFFE000007FFFC0
1FFFF000007FFF80
1FFFF000007FFF80
1FFFF000007FFF80
0FFFF00000FFFF00
0FFFF80000FFFF00
0FFFF80000FFFF00
0FFFF80000FFFF00
07FFF80001FFFE00
07FFF80001FFFE00
07FFFC0001FFFE00
03FFFC0001FFFC00
03FFFC0001FFFC00
03FFFC0003FFFC00
03FFFE0003FFFC00
01FFFE0003FFF800
01FFFE0003FFF800
01FFFE0007FFF800
00FFFE0007FFF000
00FFFF0007FFF000
00FFFF0007FFF000
007FFF000FFFF000
007FFF000FFFE000
007FFF800FFFE000
007FFF800FFFE000
003FFF800FFFC000
003FFF801FFFC000
003FFFC01FFFC000
001FFFC01FFFC000
001FFFC01FFF8000
001FFFC03FFF8000
001FFFC03FFF8000
000FFFE03FFF0000
000FFFE03FFF0000
000FFFE07FFF0000
0007FFE07FFF0000
0007FFF07FFE0000
0007FFF07FFE0000
0007FFF07FFE0000
0003FFF0FFFC0000
0003FFF8FFFC0000
0003FFF8FFFC0000
0001FFF8FFFC0000
0001FFF9FFF80000
0001FFF9FFF80000
0001FFFDFFF80000
0000FFFDFFF00000
0000FFFFFFF00000
0000FFFFFFF00000
00007FFFFFE00000
00007FFFFFE00000
00007FFFFFE00000
00007FFFFFE00000
00003FFFFFC00000
00003FFFFFC00000
00003FFFFFC00000
00001FFFFF800000
00001FFFFF800000
00001FFFFF800000
00001FFFFF800000
00000FFFFF000000
ENDCHAR
STARTCHAR $0057
ENCODING 87
SWIDTH 600 0
DWIDTH 60 0
BBX 60 69 0 0
BITMAP
FFFE00000003FFF0
FFFE00000003FFF0
FFFE00000003FFF0
FFFE00000003FFF0
FFFE00000003FFF0
FFFE00000003FFF0
FFFE00000003FFF0
7FFE00000003FFE0
7FFE01FFF807FFE0
7FFE01FFF807FFE0
7FFF01FFFC07FFE0
7FFF01FFFC07FFE0
7FFF01FFFC07FFE0
7FFF03FFFC07FFE0
7FFF03FFFC07FFE0
7FFF03FFFC07FFC0
3FFF03FFFC07FFC0
3FFF03FFFC07FFC0
3FFF03FFFC07FFC0
3FFF03FFFE07FFC0
3FFF03FFFE07FFC0
3FFF07FFFE07FFC0
3FFF07FFFE07FFC0
3FFF07FDFE07FFC0
3FFF07FDFE0FFF80
3FFF07F9FE0FFF80
1FFF07F9FE0FFF80
1FFF07F9FE0FFF80
1FFF07F9FF0FFF80
1FFF0FF9FF0FFF80
1FFF0FF9FF0FFF80
1FFF0FF9FF0FFF80
1FFF0FF9FF0FFF00
1FFF0FF8FF0FFF00
1FFF8FF0FF0FFF00
0FFF8FF0FF0FFF00
0FFF8FF0FF8FFF00
0FFF8FF0FF8FFF00
0FFF9FF0FF8FFF00
0FFF9FF0FF8FFF00
0FFF9FF0FF9FFF00
0FFF9FF0FF9FFE00
0FFF9FF0FF9FFE00
0FFF9FE07F9FFE00
07FF9FE07F9FFE00
07FF9FE07FDFFE00
07FFBFE07FDFFE00
07FFBFE07FDFFE00
07FFBFE07FDFFE00
07FFBFE07FDFFC00
07FFBFE07FDFFC00
07FFBFE07FDFFC00
07FFBFC07FDFFC00
03FFBFC03FDFFC00
03FFFFC03FFFFC00
03FFFFC03FFFFC00
03FFFFC03FFFFC00
03FFFFC03FFFFC00
03FFFFC03FFFF800
03FFFFC03FFFF800
03FFFFC03FFFF800
03FFFF803FFFF800
03FFFF803FFFF800
01FFFF801FFFF800
01FFFF801FFFF800
01FFFF801FFFF800
01FFFF801FFFF800
01FFFF801FFFF000
01FFFF801FFFF000
ENDCHAR
STARTCHAR $0058
ENCODING 88
SWIDTH 600 0
DWIDTH 60 0
BBX 60 69 0 0
BITMAP
3FFFF00000FFFFC0
1FFFF00000FFFF80
1FFFF80001FFFF00
0FFFF80001FFFF00
07FFFC0003FFFE00
07FFFC0003FFFE00
03FFFE0007FFFC00
03FFFE0007FFFC00
01FFFF000FFFF800
01FFFF000FFFF000
00FFFF801FFFF000
00FFFF801FFFE000
007FFFC01FFFE000
003FFFC03FFFC000
003FFFE03FFF8000
001FFFE07FFF8000
001FFFE07FFF0000
000FFFF0FFFF0000
000FFFF0FFFE0000
0007FFF9FFFE0000
0003FFF9FFFC0000
0003FFFFFFF80000
0001FFFFFFF80000
0001FFFFFFF00000
0000FFFFFFF00000
0000FFFFFFE00000
00007FFFFFE00000
00007FFFFFC00000
00003FFFFF800000
00001FFFFF800000
00001FFFFF000000
00000FFFFF000000
00000FFFFF000000
00001FFFFF800000
00001FFFFF800000
00003FFFFFC00000
00003FFFFFC00000
00007FFFFFE00000
00007FFFFFE00000
0000FFFFFFF00000
0000FFFFFFF00000
0001FFFFFFF80000
0001FFFFFFFC0000
0003FFFBFFFC0000
0007FFF9FFFE0000
0007FFF1FFFE0000
000FFFF0FFFF0000
000FFFF0FFFF0000
001FFFE07FFF8000
001FFFE07FFF8000
003FFFC07FFFC000
003FFFC03FFFC000
007FFF803FFFE000
007FFF801FFFE000
00FFFF001FFFF000
00FFFF000FFFF000
01FFFE000FFFF800
03FFFE0007FFFC00
03FFFE0007FFFC00
07FFFC0003FFFE00
07FFFC0003FFFE00
0FFFF80001FFFF00
0FFFF80001FFFF00
1FFFF00001FFFF80
1FFFF00000FFFF80
3FFFE00000FFFFC0
3FFFE000007FFFC0
7FFFC000007FFFE0
FFFFC000003FFFF0
ENDCHAR
STARTCHAR $0059
ENCODING 89
SWIDTH 600 0
DWIDTH 60 0
BBX 62 69 -1 0
BITMAP
FFFFE000000FFFFC
7FFFE000000FFFF8
3FFFE000001FFFF0
3FFFF000001FFFF0
1FFFF000003FFFE0
1FFFF800003FFFE0
0FFFF800003FFFC0
0FFFFC00007FFFC0
07FFFC00007FFF80
07FFFC0000FFFF80
03FFFE0000FFFF00
03FFFE0001FFFF00
01FFFF0001FFFE00
01FFFF0003FFFE00
00FFFF8003FFFC00
00FFFF8003FFFC00
007FFFC007FFF800
007FFFC007FFF800
003FFFC00FFFF000
001FFFE00FFFE000
001FFFE01FFFE000
000FFFF01FFFC000
000FFFF03FFFC000
0007FFF83FFF8000
0007FFF83FFF8000
0003FFFC7FFF0000
0003FFFC7FFF0000
0001FFFCFFFE0000
0001FFFEFFFE0000
0000FFFFFFFC0000
0000FFFFFFFC0000
00007FFFFFF80000
00007FFFFFF80000
00003FFFFFF00000
00003FFFFFF00000
00001FFFFFE00000
00001FFFFFE00000
00000FFFFFC00000
00000FFFFFC00000
000007FFFF800000
000007FFFF800000
000003FFFF000000
000003FFFE000000
000001FFFE000000
000001FFFE000000
000001FFFE000000
000001FFFE000000
000001FFFE000000
000001FFFE000000
000001FFFE000000
000001FFFE000000
000001FFFE000000
000001FFFE000000
000001FFFE000000
000001FFFE000000
000001FFFE000000
000001FFFE000000
000001FFFE000000
000001FFFE000000
000001FFFE000000
000001FFFE000000
000001FFFE000000
000001FFFE000000
000001FFFE000000
000001FFFE000000
000001FFFE000000
000001FFFE000000
000001FFFE000000
000001FFFE000000
ENDCHAR
STARTCHAR $005A
ENCODING 90
SWIDTH 600 0
DWIDTH 60 0
BBX 52 69 4 0
BITMAP
1FFFFFFFFFFFE0
1FFFFFFFFFFFE0
1FFFFFFFFFFFE0
1FFFFFFFFFFFE0
1FFFFFFFFFFFE0
1FFFFFFFFFFFE0
1FFFFFFFFFFFE0
1FFFFFFFFFFFE0
1FFFFFFFFFFFE0
1FFFFFFFFFFFE0
1FFFFFFFFFFFE0
1FFFFFFFFFFFE0
000000007FFFE0
00000000FFFFC0
00000001FFFFC0
00000003FFFF80
00000003FFFF00
00000007FFFE00
0000000FFFFE00
0000001FFFFC00
0000001FFFF800
0000003FFFF800
0000007FFFF000
0000007FFFE000
000000FFFFC000
000001FFFFC000
000003FFFF8000
000003FFFF0000
000007FFFE0000
00000FFFFE0000
00001FFFFC0000
00001FFFF80000
00003FFFF00000
00007FFFF00000
0000FFFFE00000
0000FFFFC00000
0001FFFFC00000
0003FFFF800000
0007FFFF000000
0007FFFE000000
000FFFFE000000
001FFFFC000000
003FFFF8000000
003FFFF0000000
007FFFF0000000
00FFFFE0000000
01FFFFC0000000
01FFFF80000000
03FFFF80000000
07FFFF00000000
07FFFE00000000
0FFFFC00000000
1FFFFC00000000
3FFFF800000000
3FFFF000000000
7FFFF000000000
FFFFFFFFFFFFF0
FFFFFFFFFFFFF0
FFFFFFFFFFFFF0
FFFFFFFFFFFFF0
FFFFFFFFFFFFF0
FFFFFFFFFFFFE0
FFFFFFFFFFFFE0
FFFFFFFFFFFFE0
FFFFFFFFFFFFE0
FFFFFFFFFFFFE0
FFFFFFFFFFFFE0
FFFFFFFFFFFFE0
FFFFFFFFFFFFE0
ENDCHAR
STARTCHAR $005B
ENCODING 91
SWIDTH 600 0
DWIDTH 60 0
BBX 30 94 16 -12
BITMAP
FFFFFFFC
FFFFFFFC
FFFFFFFC
FFFFFFFC
FFFFFFFC
FFFFFFFC
FFFFFFFC
FFFFFFFC
FFFFFFFC
FFFFFFFC
FFFFFFFC
FFFFFFFC
FFFE0000
FFFE0000
FFFE0000
FFFE0000
FFFE0000
FFFE0000
FFFE0000
FFFE0000
FFFE0000
FFFE0000
FFFE0000
FFFE0000
FFFE0000
FFFE0000
FFFE0000
FFFE0000
FFFE0000
FFFE0000
FFFE0000
FFFE0000
FFFE0000
FFFE0000
FFFE0000
FFFE0000
FFFE0000
FFFE0000
FFFE0000
FFFE0000
FFFE0000
FFFE0000
FFFE0000
FFFE0000
FFFE0000
FFFE0000
FFFE0000
FFFE0000
FFFE0000
FFFE0000
FFFE0000
FFFE0000
FFFE0000
FFFE0000
FFFE0000
FFFE0000
FFFE0000
FFFE0000
FFFE0000
FFFE0000
FFFE0000
FFFE0000
FFFE0000
FFFE0000
FFFE0000
FFFE0000
FFFE0000
FFFE0000
FFFE0000
FFFE0000
FFFE0000
FFFE0000
FFFE0000
FFFE0000
FFFE0000
FFFE0000
FFFE0000
FFFE0000
FFFE0000
FFFE0000
FFFE0000
FFFE0000
FFFE0000
FFFFFFFC
FFFFFFFC
FFFFFFFC
FFFFFFFC
FFFFFFFC
FFFFFFFC
FFFFFFFC
FFFFFFFC
FFFFFFFC
FFFFFFFC
FFFFFFFC
ENDCHAR
STARTCHAR $005C
ENCODING 92
SWIDTH 600 0
DWIDTH 60 0
BBX 54 93 3 -11
BITMAP
00080000000000
00380000000000
01F80000000000
07FC0000000000
1FFC0000000000
7FFE0000000000
FFFE0000000000
7FFF0000000000
7FFF0000000000
3FFF8000000000
3FFF8000000000
1FFFC000000000
1FFFC000000000
1FFFE000000000
0FFFE000000000
0FFFF000000000
07FFF000000000
07FFF000000000
03FFF800000000
03FFF800000000
01FFFC00000000
01FFFC00000000
00FFFE00000000
00FFFE00000000
007FFF00000000
007FFF00000000
003FFF80000000
003FFF80000000
001FFFC0000000
001FFFC0000000
000FFFE0000000
000FFFE0000000
0007FFF0000000
0007FFF0000000
0003FFF8000000
0003FFF8000000
0001FFFC000000
0001FFFC000000
0001FFFE000000
0000FFFE000000
0000FFFF000000
00007FFF000000
00007FFF800000
00003FFF800000
00003FFF800000
00001FFFC00000
00001FFFC00000
00000FFFE00000
00000FFFE00000
000007FFF00000
000007FFF00000
000003FFF80000
000003FFF80000
000001FFFC0000
000001FFFC0000
000000FFFE0000
000000FFFE0000
0000007FFF0000
0000007FFF0000
0000003FFF8000
0000003FFF8000
0000001FFFC000
0000001FFFC000
0000000FFFE000
0000000FFFE000
0000000FFFF000
00000007FFF000
00000007FFF800
00000003FFF800
00000003FFF800
00000001FFFC00
00000001FFFC00
00000000FFFE00
00000000FFFE00
000000007FFF00
000000007FFF00
000000003FFF80
000000003FFF80
000000001FFFC0
000000001FFFC0
000000000FFFE0
000000000FFFE0
0000000007FFF0
0000000007FFF0
0000000003FFF8
0000000003FFF8
0000000001FFFC
0000000001FFFC
0000000000FFF0
0000000000FFC0
0000000000FF00
00000000007C00
00000000006000
ENDCHAR
STARTCHAR $005D
ENCODING 93
SWIDTH 600 0
DWIDTH 60 0
BBX 30 94 14 -12
BITMAP
FFFFFFFC
FFFFFFFC
FFFFFFFC
FFFFFFFC
FFFFFFFC
FFFFFFFC
FFFFFFFC
FFFFFFFC
FFFFFFFC
FFFFFFFC
FFFFFFFC
FFFFFFFC
0001FFFC
0001FFFC
0001FFFC
0001FFFC
0001FFFC
0001FFFC
0001FFFC
0001FFFC
0001FFFC
0001FFFC
0001FFFC
0001FFFC
0001FFFC
0001FFFC
0001FFFC
0001FFFC
0001FFFC
0001FFFC
0001FFFC
0001FFFC
0001FFFC
0001FFFC
0001FFFC
0001FFFC
0001FFFC
0001FFFC
0001FFFC
0001FFFC
0001FFFC
0001FFFC
0001FFFC
0001FFFC
0001FFFC
0001FFFC
0001FFFC
0001FFFC
0001FFFC
0001FFFC
0001FFFC
0001FFFC
0001FFFC
0001FFFC
0001FFFC
0001FFFC
0001FFFC
0001FFFC
0001FFFC
0001FFFC
0001FFFC
0001FFFC
0001FFFC
0001FFFC
0001FFFC
0001FFFC
0001FFFC
0001FFFC
0001FFFC
0001FFFC
0001FFFC
0001FFFC
0001FFFC
0001FFFC
0001FFFC
0001FFFC
0001FFFC
0001FFFC
0001FFFC
0001FFFC
0001FFFC
0001FFFC
FFFFFFFC
FFFFFFFC
FFFFFFFC
FFFFFFFC
FFFFFFFC
FFFFFFFC
FFFFFFFC
FFFFFFFC
FFFFFFFC
FFFFFFFC
FFFFFFFC
FFFFFFFC
ENDCHAR
STARTCHAR $005E
ENCODING 94
SWIDTH 600 0
DWIDTH 60 0
BBX 52 31 4 53
BITMAP
00003FFFC00000
00003FFFC00000
00007FFFE00000
0000FFFFF00000
0000FFFFF00000
0001FFFFF80000
0001FFFFF80000
0003FFFFFC0000
0007FFFFFE0000
0007FFFFFE0000
000FFFFFFF0000
000FFFFFFF0000
001FFFBFFF8000
003FFF9FFF8000
003FFF0FFFC000
007FFF0FFFE000
007FFE07FFE000
00FFFE07FFF000
00FFFC03FFF000
01FFFC03FFF800
03FFF801FFFC00
03FFF801FFFC00
07FFF000FFFE00
07FFF000FFFE00
0FFFE0007FFF00
1FFFE0003FFF80
1FFFC0003FFF80
3FFFC0001FFFC0
3FFF80001FFFC0
7FFF00000FFFE0
FFFF00000FFFF0
ENDCHAR
STARTCHAR $005F
ENCODING 95
SWIDTH 600 0
DWIDTH 60 0
BBX 50 13 5 -19
BITMAP
FFFFFFFFFFFFC0
FFFFFFFFFFFFC0
FFFFFFFFFFFFC0
FFFFFFFFFFFFC0
FFFFFFFFFFFFC0
FFFFFFFFFFFFC0
FFFFFFFFFFFFC0
FFFFFFFFFFFFC0
FFFFFFFFFFFFC0
FFFFFFFFFFFFC0
FFFFFFFFFFFFC0
FFFFFFFFFFFFC0
FFFFFFFFFFFFC0
ENDCHAR
STARTCHAR $0060
ENCODING 96
SWIDTH 600 0
DWIDTH 60 0
BBX 28 21 16 62
BITMAP
03000000
07C00000
07E00000
0FF80000
0FFE0000
1FFF0000
1FFFC000
3FFFF000
3FFFF800
7FFFFE00
7FFFFF00
FFFFFFC0
1FFFFFF0
07FFFFF0
00FFFFE0
003FFFE0
0007FFC0
0000FFC0
00003F80
00000780
00000100
ENDCHAR
STARTCHAR $0061
ENCODING 97
SWIDTH 600 0
DWIDTH 60 0
BBX 52 57 3 -2
BITMAP
00000FFF000000
0003FFFFF00000
003FFFFFFE0000
03FFFFFFFF8000
07FFFFFFFFC000
07FFFFFFFFF000
03FFFFFFFFF800
03FFFFFFFFF800
03FFFFFFFFFC00
01FFFFFFFFFE00
01FFFFFFFFFE00
01FFFFFFFFFF00
00FF800FFFFF00
00F00003FFFF00
00800000FFFF00
00000000FFFF00
000000007FFF80
000000007FFF80
000000007FFF80
000000007FFF80
000000007FFF80
000000007FFF80
00001FFFFFFF80
0003FFFFFFFF80
001FFFFFFFFF80
007FFFFFFFFF80
01FFFFFFFFFF80
03FFFFFFFFFF80
07FFFFFFFFFF80
0FFFFFFFFFFF80
1FFFFFFFFFFF80
1FFFFF007FFF80
3FFFF8007FFF80
3FFFE0007FFF80
7FFFC0007FFF80
7FFFC0007FFF80
7FFF80007FFF80
7FFF80007FFF80
7FFF80007FFF80
FFFF80007FFF80
FFFF80007FFF80
7FFF8000FFFF80
7FFFC001FFFF80
7FFFE003FFFF80
7FFFF00FFFFFC0
7FFFFFFFFFFFE0
3FFFFFFFFFFFF0
3FFFFFFFFFFFF0
1FFFFFFFFFFFE0
1FFFFFFFFFFFE0
0FFFFFFFE7FFE0
07FFFFFFC7FFE0
03FFFFFF83FFC0
01FFFFFE01FFC0
007FFFF8007FC0
001FFFC0000F80
0001FC00000080
ENDCHAR
STARTCHAR $0062
ENCODING 98
SWIDTH 600 0
DWIDTH 60 0
BBX 49 78 7 -2
BITMAP
000F0000000000
1FFF0000000000
FFFF0000000000
FFFF0000000000
FFFF0000000000
FFFF0000000000
FFFF0000000000
FFFF0000000000
FFFF0000000000
FFFF0000000000
FFFF0000000000
FFFF0000000000
FFFF0000000000
FFFF0000000000
FFFF0000000000
FFFF0000000000
FFFF0000000000
FFFF0000000000
FFFF0000000000
FFFF0000000000
FFFF0000000000
FFFF003FC00000
FFFF01FFF80000
FFFF07FFFE0000
FFFF0FFFFF0000
FFFF3FFFFFC000
FFFF7FFFFFE000
FFFFFFFFFFE000
FFFFFFFFFFF000
FFFFFFFFFFF800
FFFFFFFFFFF800
FFFFFFFFFFFC00
FFFFFFFFFFFC00
FFFFF80FFFFE00
FFFFF007FFFE00
FFFFC003FFFE00
FFFFC001FFFF00
FFFF8001FFFF00
FFFF0001FFFF00
FFFF0000FFFF00
FFFF0000FFFF00
FFFF0000FFFF80
FFFF0000FFFF80
FFFF0000FFFF80
FFFF0000FFFF80
FFFF00007FFF80
FFFF00007FFF80
FFFF00007FFF80
FFFF00007FFF80
FFFF00007FFF80
FFFF00007FFF80
FFFF00007FFF80
FFFF00007FFF80
FFFF00007FFF80
FFFF0000FFFF80
FFFF0000FFFF80
FFFF0000FFFF00
FFFF0000FFFF00
FFFF0000FFFF00
FFFF0001FFFF00
FFFF0001FFFF00
FFFF0001FFFE00
FFFF8003FFFE00
FFFF8007FFFE00
FFFFE00FFFFC00
FFFFF01FFFFC00
FFFFFFFFFFF800
FFFFFFFFFFF800
FFFFFFFFFFF000
FFFFFFFFFFF000
FFFFFFFFFFE000
FFFFFFFFFFC000
FFFCFFFFFF8000
FFFC7FFFFF0000
FFFC3FFFFE0000
FFFC1FFFF80000
000007FFE00000
0000007E000000
ENDCHAR
STARTCHAR $0063
ENCODING 99
SWIDTH 600 0
DWIDTH 60 0
BBX 47 57 7 -2
BITMAP
000001FF8000
00003FFFF800
0001FFFFFF00
0007FFFFFFC0
000FFFFFFFF0
003FFFFFFFF8
007FFFFFFFFE
00FFFFFFFFFE
01FFFFFFFFFC
03FFFFFFFFF8
07FFFFFFFFF0
07FFFFFFFFF0
0FFFFFC1FFE0
1FFFFE001FC0
1FFFF80007C0
1FFFF0000180
3FFFE0000000
3FFFE0000000
7FFFC0000000
7FFFC0000000
7FFF80000000
7FFF80000000
FFFF80000000
FFFF80000000
FFFF80000000
FFFF00000000
FFFF00000000
FFFF00000000
FFFF00000000
FFFF00000000
FFFF00000000
FFFF00000000
FFFF80000000
FFFF80000000
FFFF80000000
FFFF80000000
7FFF80000000
7FFFC0000000
7FFFC0000000
7FFFE0000000
3FFFE0000180
3FFFF0000780
1FFFFC001FC0
1FFFFF007FE0
0FFFFFFFFFE0
0FFFFFFFFFF0
07FFFFFFFFF8
03FFFFFFFFFC
01FFFFFFFFFC
00FFFFFFFFFE
007FFFFFFFFC
003FFFFFFFF8
001FFFFFFFE0
0007FFFFFF80
0001FFFFFE00
00003FFFF000
000001FE0000
ENDCHAR
STARTCHAR $0064
ENCODING 100
SWIDTH 600 0
DWIDTH 60 0
BBX 49 78 4 -2
BITMAP
00000000780000
000000007FFC00
000000007FFF80
000000007FFF80
000000007FFF80
000000007FFF80
000000007FFF80
000000007FFF80
000000007FFF80
000000007FFF80
000000007FFF80
000000007FFF80
000000007FFF80
000000007FFF80
000000007FFF80
000000007FFF80
000000007FFF80
000000007FFF80
000000007FFF80
000000007FFF80
000000007FFF80
00007F807FFF80
0003FFF07FFF80
000FFFFC7FFF80
003FFFFE7FFF80
007FFFFFFFFF80
00FFFFFFFFFF80
01FFFFFFFFFF80
03FFFFFFFFFF80
07FFFFFFFFFF80
07FFFFFFFFFF80
0FFFFFFFFFFF80
0FFFFFFFFFFF80
1FFFFC07FFFF80
1FFFF801FFFF80
3FFFF000FFFF80
3FFFE0007FFF80
3FFFC0007FFF80
7FFFC0007FFF80
7FFF80007FFF80
7FFF80007FFF80
7FFF80007FFF80
FFFF80007FFF80
FFFF80007FFF80
FFFF80007FFF80
FFFF00007FFF80
FFFF00007FFF80
FFFF00007FFF80
FFFF00007FFF80
FFFF00007FFF80
FFFF00007FFF80
FFFF00007FFF80
FFFF00007FFF80
FFFF00007FFF80
FFFF00007FFF80
FFFF80007FFF80
FFFF80007FFF80
7FFF80007FFF80
7FFF80007FFF80
7FFF80007FFF80
7FFFC0007FFF80
7FFFC000FFFF80
3FFFE001FFFF80
3FFFE003FFFF80
3FFFF007FFFF80
1FFFFC1FFFFF80
1FFFFFFFFFFF80
1FFFFFFFFFFF80
0FFFFFFFFFFF80
07FFFFFFFFFF80
07FFFFFFFFFF80
03FFFFFFBFFF80
01FFFFFF1FFF80
00FFFFFE1FFF80
007FFFFC1FFF80
003FFFF01FFF80
000FFFC0000000
0000FC00000000
ENDCHAR
STARTCHAR $0065
ENCODING 101
SWIDTH 600 0
DWIDTH 60 0
BBX 50 57 5 -2
BITMAP
000007FC000000
00007FFFC00000
0003FFFFF80000
000FFFFFFE0000
001FFFFFFF0000
007FFFFFFFC000
00FFFFFFFFE000
01FFFFFFFFF000
03FFFFFFFFF800
07FFFFFFFFF800
07FFFFFFFFFC00
0FFFFC03FFFE00
1FFFF001FFFE00
1FFFE000FFFF00
3FFFC0007FFF00
3FFF80007FFF80
3FFF80003FFF80
7FFF80003FFF80
7FFF00003FFF80
7FFF00001FFFC0
FFFF00001FFFC0
FFFF00001FFFC0
FFFF00001FFFC0
FFFF00001FFFC0
FFFFFFFFFFFFC0
FFFFFFFFFFFFC0
FFFFFFFFFFFFC0
FFFFFFFFFFFFC0
FFFFFFFFFFFFC0
FFFFFFFFFFFFC0
FFFFFFFFFFFFC0
FFFFFFFFFFFFC0
FFFFFFFFFFFFC0
FFFF0000000000
FFFF0000000000
FFFF0000000000
FFFF0000000000
7FFF8000000000
7FFF8000000000
7FFFC000000000
3FFFC000000000
3FFFE000006000
3FFFF00001E000
1FFFF80007F000
1FFFFF003FF800
0FFFFFFFFFFC00
07FFFFFFFFFC00
07FFFFFFFFFE00
03FFFFFFFFFF00
01FFFFFFFFFF00
00FFFFFFFFFE00
003FFFFFFFFC00
001FFFFFFFF000
0007FFFFFFC000
0001FFFFFF0000
00003FFFF80000
000001FF000000
ENDCHAR
STARTCHAR $0066
ENCODING 102
SWIDTH 600 0
DWIDTH 60 0
BBX 51 76 8 0
BITMAP
0000000FFF0000
000001FFFFF800
000007FFFFFF00
00001FFFFFFFE0
00003FFFFFFFE0
0000FFFFFFFFC0
0001FFFFFFFFC0
0003FFFFFFFF80
0003FFFFFFFF80
0007FFFFFFFF00
0007FFFFFFFF00
000FFFFFFFFF00
000FFFFC003E00
001FFFF8000200
001FFFF0000000
001FFFE0000000
001FFFE0000000
001FFFE0000000
001FFFE0000000
001FFFE0000000
001FFFE0000000
001FFFE0000000
001FFFE0000000
001FFFE0000000
001FFFE0000000
001FFFE0000000
FFFFFFFFFFF000
FFFFFFFFFFF000
FFFFFFFFFFE000
FFFFFFFFFFE000
FFFFFFFFFFE000
FFFFFFFFFFE000
FFFFFFFFFFE000
FFFFFFFFFFE000
FFFFFFFFFFC000
FFFFFFFFFFC000
FFFFFFFFFFC000
001FFFE0000000
001FFFE0000000
001FFFE0000000
001FFFE0000000
001FFFE0000000
001FFFE0000000
001FFFE0000000
001FFFE0000000
001FFFE0000000
001FFFE0000000
001FFFE0000000
001FFFE0000000
001FFFE0000000
001FFFE0000000
001FFFE0000000
001FFFE0000000
001FFFE0000000
001FFFE0000000
001FFFE0000000
001FFFE0000000
001FFFE0000000
001FFFE0000000
001FFFE0000000
001FFFE0000000
001FFFE0000000
001FFFE0000000
001FFFE0000000
001FFFE0000000
001FFFE0000000
001FFFE0000000
001FFFE0000000
001FFFE0000000
001FFFE0000000
001FFFE0000000
001FFFE0000000
001FFFE0000000
001FFFE0000000
001FFFE0000000
001FFFE0000000
ENDCHAR
STARTCHAR $0067
ENCODING 103
SWIDTH 600 0
DWIDTH 60 0
BBX 55 84 3 -22
BITMAP
00000000000010
00000000000070
000000000001F0
000000000007F0
00000000001FF0
0000000000FFF8
000000000FFFF8
000003FFFFFFF8
00007FFFFFFFFC
0003FFFFFFFFFC
000FFFFFFFFFFC
003FFFFFFFFFFE
007FFFFFFFFFFC
00FFFFFFFFFF80
01FFFFFFFF0000
03FFFFFFFFC000
07FFFFFFFFF000
07FFFFFFFFF800
0FFFFC01FFFC00
0FFFF800FFFE00
1FFFF0007FFF00
1FFFE0003FFF80
1FFFE0003FFF80
1FFFE0003FFF80
1FFFE0001FFFC0
3FFFC0001FFFC0
3FFFC0001FFFC0
3FFFE0001FFFC0
1FFFE0001FFFC0
1FFFE0003FFFC0
1FFFE0003FFFC0
1FFFF0003FFF80
1FFFF0007FFF80
0FFFF800FFFF80
0FFFFC01FFFF00
07FFFFFFFFFF00
07FFFFFFFFFE00
03FFFFFFFFFE00
01FFFFFFFFFC00
00FFFFFFFFF800
003FFFFFFFF000
001FFFFFFFC000
001FFFFFFF8000
003FFFFFFE0000
007FFFFFF00000
00FFF07C000000
01FFF000000000
01FFE000000000
03FFE000000000
03FFF000000000
03FFF800000000
03FFFFFFFC0000
03FFFFFFFFE000
03FFFFFFFFF800
03FFFFFFFFFE00
01FFFFFFFFFF80
01FFFFFFFFFFC0
00FFFFFFFFFFE0
007FFFFFFFFFF0
003FFFFFFFFFF0
000FFFFFFFFFF8
0003FFFFFFFFF8
00000000FFFFFC
000000000FFFFC
0000000007FFFC
0000000003FFFC
0000000003FFFC
FFFC000003FFFC
FFFC000003FFFC
FFFC000003FFFC
FFFE000003FFFC
FFFF000007FFF8
7FFF80001FFFF8
7FFFF801FFFFF8
7FFFFFFFFFFFF0
3FFFFFFFFFFFE0
3FFFFFFFFFFFC0
1FFFFFFFFFFFC0
0FFFFFFFFFFF00
07FFFFFFFFFE00
01FFFFFFFFF800
007FFFFFFFE000
001FFFFFFF0000
0000FFFFE00000
ENDCHAR
STARTCHAR $0068
ENCODING 104
SWIDTH 600 0
DWIDTH 60 0
BBX 46 76 7 0
BITMAP
000700000000
1FFF00000000
FFFF00000000
FFFF00000000
FFFF00000000
FFFF00000000
FFFF00000000
FFFF00000000
FFFF00000000
FFFF00000000
FFFF00000000
FFFF00000000
FFFF00000000
FFFF00000000
FFFF00000000
FFFF00000000
FFFF00000000
FFFF00000000
FFFF00000000
FFFF00000000
FFFF00000000
FFFF000FE000
FFFF00FFFC00
FFFF03FFFF00
FFFF0FFFFF80
FFFF1FFFFFC0
FFFF7FFFFFE0
FFFFFFFFFFF0
FFFFFFFFFFF0
FFFFFFFFFFF8
FFFFFFFFFFF8
FFFFFFFFFFF8
FFFFFFFFFFFC
FFFFFC0FFFFC
FFFFF007FFFC
FFFFE007FFFC
FFFFC003FFFC
FFFF8003FFFC
FFFF0003FFFC
FFFF0003FFFC
FFFF0003FFFC
FFFF0003FFFC
FFFF0003FFFC
FFFF0003FFFC
FFFF0003FFFC
FFFF0003FFFC
FFFF0003FFFC
FFFF0003FFFC
FFFF0003FFFC
FFFF0003FFFC
FFFF0003FFFC
FFFF0003FFFC
FFFF0003FFFC
FFFF0003FFFC
FFFF0003FFFC
FFFF0003FFFC
FFFF0003FFFC
FFFF0003FFFC
FFFF0003FFFC
FFFF0003FFFC
FFFF0003FFFC
FFFF0003FFFC
FFFF0003FFFC
FFFF0003FFFC
FFFF0003FFFC
FFFF0003FFFC
FFFF0003FFFC
FFFF0003FFFC
FFFF0003FFFC
FFFF0003FFFC
FFFF0003FFFC
FFFF0003FFFC
FFFF0003FFFC
FFFF0003FFFC
FFFF0003FFFC
FFFF0003FFFC
ENDCHAR
STARTCHAR $0069
ENCODING 105
SWIDTH 600 0
DWIDTH 60 0
BBX 44 81 9 0
BITMAP
00003F000000
0000FFC00000
0003FFE00000
0007FFF00000
0007FFF80000
000FFFFC0000
000FFFFC0000
000FFFFC0000
000FFFFC0000
001FFFFC0000
000FFFFC0000
000FFFFC0000
000FFFFC0000
0007FFF80000
0007FFF00000
0003FFE00000
0001FFC00000
00003F000000
000000000000
000000000000
000000000000
000000000000
000000000000
000000000000
000000000000
000000000000
000000000000
000000000000
FFFFFFFC0000
FFFFFFFC0000
FFFFFFFC0000
FFFFFFFC0000
FFFFFFFC0000
FFFFFFFC0000
FFFFFFFC0000
FFFFFFFC0000
FFFFFFFC0000
FFFFFFFC0000
FFFFFFFC0000
0001FFFC0000
0001FFFC0000
0001FFFC0000
0001FFFC0000
0001FFFC0000
0001FFFC0000
0001FFFC0000
0001FFFC0000
0001FFFC0000
0001FFFC0000
0001FFFC0000
0001FFFC0000
0001FFFC0000
0001FFFC0000
0001FFFC0000
0001FFFC0000
0001FFFC0000
0001FFFC0000
0001FFFC0000
0001FFFC0000
0001FFFC0000
0001FFFC0000
0001FFFC0000
0001FFFC0000
0001FFFC0000
0001FFFC0000
0001FFFC0000
0001FFFC0000
0001FFFC0000
0001FFFC0000
0001FFFC0000
FFFFFFFFFFF0
FFFFFFFFFFF0
FFFFFFFFFFF0
FFFFFFFFFFF0
FFFFFFFFFFF0
FFFFFFFFFFF0
FFFFFFFFFFF0
FFFFFFFFFFF0
FFFFFFFFFFF0
FFFFFFFFFFF0
FFFFFFFFFFF0
ENDCHAR
STARTCHAR $006A
ENCODING 106
SWIDTH 600 0
DWIDTH 60 0
BBX 40 103 7 -22
BITMAP
0000001F80
0000007FE0
000001FFF8
000003FFF8
000003FFFC
000007FFFE
000007FFFE
000007FFFE
000007FFFE
000007FFFE
000007FFFE
000007FFFE
000007FFFE
000003FFFC
000003FFFC
000001FFF8
0000007FE0
0000001F80
0000000000
0000000000
0000000000
0000000000
0000000000
0000000000
0000000000
0000000000
0000000000
0000000000
07FFFFFFFF
07FFFFFFFF
07FFFFFFFF
07FFFFFFFF
07FFFFFFFF
07FFFFFFFF
07FFFFFFFF
07FFFFFFFF
07FFFFFFFF
07FFFFFFFF
07FFFFFFFF
000000FFFF
000000FFFF
000000FFFF
000000FFFF
000000FFFF
000000FFFF
000000FFFF
000000FFFF
000000FFFF
000000FFFF
000000FFFF
000000FFFF
000000FFFF
000000FFFF
000000FFFF
000000FFFF
000000FFFF
000000FFFF
000000FFFF
000000FFFF
000000FFFF
000000FFFF
000000FFFF
000000FFFF
000000FFFF
000000FFFF
000000FFFF
000000FFFF
000000FFFF
000000FFFF
000000FFFF
000000FFFF
000000FFFF
000000FFFF
000000FFFF
000000FFFE
000001FFFE
000001FFFE
000003FFFE
000003FFFE
000007FFFC
000007FFFC
00000FFFF8
00001FFFF8
00003FFFF8
00007FFFF0
0001FFFFE0
0007FFFFE0
001FFFFFC0
007FFFFF80
03FFFFFF00
3FFFFFFE00
FFFFFFFC00
FFFFFFF800
FFFFFFF000
7FFFFFC000
7FFFFF8000
7FFFFE0000
7FFFF80000
7FFFC00000
3FFF000000
3FF8000000
3F80000000
3800000000
ENDCHAR
STARTCHAR $006B
ENCODING 107
SWIDTH 600 0
DWIDTH 60 0
BBX 52 76 7 0
BITMAP
000F0000000000
1FFF0000000000
FFFF0000000000
FFFF0000000000
FFFF0000000000
FFFF0000000000
FFFF0000000000
FFFF0000000000
FFFF0000000000
FFFF0000000000
FFFF0000000000
FFFF0000000000
FFFF0000000000
FFFF0000000000
FFFF0000000000
FFFF0000000000
FFFF0000000000
FFFF0000000000
FFFF0000000000
FFFF0000000000
FFFF0000000000
FFFF0000000000
FFFF0000000000
FFFF00007FFFC0
FFFF00007FFF80
FFFF0000FFFF00
FFFF0001FFFF00
FFFF0003FFFE00
FFFF0003FFFC00
FFFF0007FFFC00
FFFF000FFFF800
FFFF000FFFF000
FFFF001FFFE000
FFFF003FFFE000
FFFF007FFFC000
FFFF007FFF8000
FFFF00FFFF0000
FFFF01FFFF0000
FFFF03FFFE0000
FFFF03FFFC0000
FFFF07FFF80000
FFFF0FFFF80000
FFFF0FFFF00000
FFFF1FFFE00000
FFFF3FFFC00000
FFFF7FFFC00000
FFFFFFFF800000
FFFF7FFFC00000
FFFF7FFFC00000
FFFF3FFFE00000
FFFF1FFFF00000
FFFF1FFFF00000
FFFF0FFFF80000
FFFF0FFFF80000
FFFF07FFFC0000
FFFF03FFFE0000
FFFF03FFFE0000
FFFF01FFFF0000
FFFF01FFFF8000
FFFF00FFFF8000
FFFF007FFFC000
FFFF007FFFE000
FFFF003FFFE000
FFFF003FFFF000
FFFF001FFFF800
FFFF000FFFF800
FFFF000FFFFC00
FFFF0007FFFC00
FFFF0007FFFE00
FFFF0003FFFF00
FFFF0001FFFF00
FFFF0001FFFF80
FFFF0000FFFFC0
FFFF0000FFFFC0
FFFF00007FFFE0
FFFF00003FFFF0
ENDCHAR
STARTCHAR $006C
ENCODING 108
SWIDTH 600 0
DWIDTH 60 0
BBX 50 76 3 -2
BITMAP
FFFFFFFF000000
FFFFFFFF000000
FFFFFFFF000000
FFFFFFFF000000
FFFFFFFF000000
FFFFFFFF000000
FFFFFFFF000000
FFFFFFFF000000
FFFFFFFF000000
FFFFFFFF000000
FFFFFFFF000000
0000FFFF000000
0000FFFF000000
0000FFFF000000
0000FFFF000000
0000FFFF000000
0000FFFF000000
0000FFFF000000
0000FFFF000000
0000FFFF000000
0000FFFF000000
0000FFFF000000
0000FFFF000000
0000FFFF000000
0000FFFF000000
0000FFFF000000
0000FFFF000000
0000FFFF000000
0000FFFF000000
0000FFFF000000
0000FFFF000000
0000FFFF000000
0000FFFF000000
0000FFFF000000
0000FFFF000000
0000FFFF000000
0000FFFF000000
0000FFFF000000
0000FFFF000000
0000FFFF000000
0000FFFF000000
0000FFFF000000
0000FFFF000000
0000FFFF000000
0000FFFF000000
0000FFFF000000
0000FFFF000000
0000FFFF000000
0000FFFF000000
0000FFFF000000
0000FFFF000000
0000FFFF000000
0000FFFF000000
0000FFFF000000
0000FFFF000000
0000FFFF000000
0000FFFF000000
0000FFFF000000
0000FFFF000000
0000FFFF000000
0000FFFF000000
0000FFFF800000
00007FFFE00C00
00007FFFFFFE00
00007FFFFFFE00
00003FFFFFFE00
00003FFFFFFF00
00001FFFFFFF00
00001FFFFFFF80
00000FFFFFFF80
000007FFFFFF80
000003FFFFFFC0
000001FFFFFF80
000000FFFFFE00
0000001FFFF000
00000001FE0000
ENDCHAR
STARTCHAR $006D
ENCODING 109
SWIDTH 600 0
DWIDTH 60 0
BBX 54 55 3 0
BITMAP
00000FC000FE00
00003FF003FF80
FFE07FF80FFFC0
FFF1FFFC1FFFE0
FFF3FFFE7FFFF0
FFF3FFFEFFFFF8
FFF7FFFFFFFFF8
FFFFFFFFFFFFF8
FFFFFFFFFFFFFC
FFFFFFFFFFFFFC
FFFFFFFFFFFFFC
FFFFFFFFFFFFFC
FFFFCFFFF9FFFC
FFFF07FFE0FFFC
FFFE07FFC07FFC
FFFC07FF807FFC
FFF807FF807FFC
FFF803FF807FFC
FFF803FF807FFC
FFF803FF807FFC
FFF803FF807FFC
FFF803FF807FFC
FFF803FF807FFC
FFF803FF807FFC
FFF803FF807FFC
FFF803FF807FFC
FFF803FF807FFC
FFF803FF807FFC
FFF803FF807FFC
FFF803FF807FFC
FFF803FF807FFC
FFF803FF807FFC
FFF803FF807FFC
FFF803FF807FFC
FFF803FF807FFC
FFF803FF807FFC
FFF803FF807FFC
FFF803FF807FFC
FFF803FF807FFC
FFF803FF807FFC
FFF803FF807FFC
FFF803FF807FFC
FFF803FF807FFC
FFF803FF807FFC
FFF803FF807FFC
FFF803FF807FFC
FFF803FF807FFC
FFF803FF807FFC
FFF803FF807FFC
FFF803FF807FFC
FFF803FF807FFC
FFF803FF807FFC
FFF803FF807FFC
FFF803FF807FFC
FFF803FF807FFC
ENDCHAR
STARTCHAR $006E
ENCODING 110
SWIDTH 600 0
DWIDTH 60 0
BBX 46 55 7 0
BITMAP
0000001FE000
000000FFFC00
FFFC03FFFF00
FFFC0FFFFF80
FFFC1FFFFFC0
FFFC7FFFFFE0
FFFEFFFFFFF0
FFFFFFFFFFF0
FFFFFFFFFFF8
FFFFFFFFFFF8
FFFFFFFFFFF8
FFFFFFFFFFFC
FFFFFC0FFFFC
FFFFF007FFFC
FFFFE007FFFC
FFFFC003FFFC
FFFF8003FFFC
FFFF0003FFFC
FFFF0003FFFC
FFFF0003FFFC
FFFF0003FFFC
FFFF0003FFFC
FFFF0003FFFC
FFFF0003FFFC
FFFF0003FFFC
FFFF0003FFFC
FFFF0003FFFC
FFFF0003FFFC
FFFF0003FFFC
FFFF0003FFFC
FFFF0003FFFC
FFFF0003FFFC
FFFF0003FFFC
FFFF0003FFFC
FFFF0003FFFC
FFFF0003FFFC
FFFF0003FFFC
FFFF0003FFFC
FFFF0003FFFC
FFFF0003FFFC
FFFF0003FFFC
FFFF0003FFFC
FFFF0003FFFC
FFFF0003FFFC
FFFF0003FFFC
FFFF0003FFFC
FFFF0003FFFC
FFFF0003FFFC
FFFF0003FFFC
FFFF0003FFFC
FFFF0003FFFC
FFFF0003FFFC
FFFF0003FFFC
FFFF0003FFFC
FFFF0003FFFC
ENDCHAR
STARTCHAR $006F
ENCODING 111
SWIDTH 600 0
DWIDTH 60 0
BBX 52 57 4 -2
BITMAP
000007FE000000
00007FFFE00000
0003FFFFFC0000
000FFFFFFF0000
001FFFFFFF8000
003FFFFFFFE000
00FFFFFFFFF000
01FFFFFFFFF800
01FFFFFFFFFC00
03FFFFFFFFFC00
07FFFFFFFFFE00
0FFFFFFFFFFF00
0FFFFC03FFFF00
1FFFF801FFFF80
1FFFF000FFFF80
3FFFE0007FFFC0
3FFFC0003FFFC0
3FFFC0003FFFC0
7FFFC0003FFFE0
7FFF80001FFFE0
7FFF80001FFFE0
7FFF80001FFFE0
7FFF80001FFFE0
FFFF80001FFFF0
FFFF80001FFFF0
FFFF80001FFFF0
FFFF80001FFFF0
FFFF80001FFFF0
FFFF80001FFFF0
FFFF80001FFFF0
FFFF80001FFFF0
FFFF80001FFFF0
FFFF80001FFFF0
FFFF80001FFFE0
7FFF80001FFFE0
7FFF80001FFFE0
7FFF80001FFFE0
7FFF80001FFFE0
7FFFC0003FFFE0
3FFFC0003FFFC0
3FFFC0003FFFC0
3FFFE0007FFFC0
1FFFF000FFFF80
1FFFF801FFFF80
0FFFFE07FFFF00
0FFFFFFFFFFF00
07FFFFFFFFFE00
03FFFFFFFFFC00
03FFFFFFFFFC00
01FFFFFFFFF800
00FFFFFFFFF000
007FFFFFFFE000
001FFFFFFF8000
000FFFFFFF0000
0003FFFFFC0000
00007FFFE00000
000003FC000000
ENDCHAR
STARTCHAR $0070
ENCODING 112
SWIDTH 600 0
DWIDTH 60 0
BBX 49 77 7 -22
BITMAP
0000003FC00000
000001FFF80000
FFFC07FFFE0000
FFFC1FFFFF0000
FFFC3FFFFFC000
FFFC7FFFFFE000
FFFEFFFFFFE000
FFFFFFFFFFF000
FFFFFFFFFFF800
FFFFFFFFFFF800
FFFFFFFFFFFC00
FFFFFFFFFFFC00
FFFFF80FFFFE00
FFFFF007FFFE00
FFFFC003FFFE00
FFFFC003FFFE00
FFFF8001FFFF00
FFFF0001FFFF00
FFFF0000FFFF00
FFFF0000FFFF00
FFFF0000FFFF00
FFFF0000FFFF00
FFFF0000FFFF80
FFFF0000FFFF80
FFFF0000FFFF80
FFFF0000FFFF80
FFFF0000FFFF80
FFFF0000FFFF80
FFFF0000FFFF80
FFFF0000FFFF80
FFFF0000FFFF80
FFFF0000FFFF80
FFFF0000FFFF80
FFFF0000FFFF80
FFFF0000FFFF00
FFFF0000FFFF00
FFFF0000FFFF00
FFFF0000FFFF00
FFFF0001FFFF00
FFFF0001FFFE00
FFFF0001FFFE00
FFFF8003FFFE00
FFFFC007FFFE00
FFFFE00FFFFC00
FFFFF01FFFFC00
FFFFFFFFFFF800
FFFFFFFFFFF800
FFFFFFFFFFF000
FFFFFFFFFFF000
FFFFFFFFFFE000
FFFFFFFFFFC000
FFFFFFFFFF8000
FFFF7FFFFF0000
FFFF3FFFFE0000
FFFF0FFFF80000
FFFF03FFE00000
FFFF007F000000
FFFF0000000000
FFFF0000000000
FFFF0000000000
FFFF0000000000
FFFF0000000000
FFFF0000000000
FFFF0000000000
FFFF0000000000
FFFF0000000000
FFFF0000000000
FFFF0000000000
FFFF0000000000
FFFF0000000000
FFFF0000000000
FFFF0000000000
FFFF0000000000
FFFF0000000000
FFFF0000000000
FFFF0000000000
FC000000000000
ENDCHAR
STARTCHAR $0071
ENCODING 113
SWIDTH 600 0
DWIDTH 60 0
BBX 49 77 4 -22
BITMAP
00007F80000000
0003FFF0000000
000FFFFC1FFF80
003FFFFF1FFF80
007FFFFF9FFF80
00FFFFFFDFFF80
01FFFFFFFFFF80
03FFFFFFFFFF80
07FFFFFFFFFF80
07FFFFFFFFFF80
0FFFFFFFFFFF80
0FFFFFFFFFFF80
1FFFFC07FFFF80
1FFFF801FFFF80
3FFFF000FFFF80
3FFFE0007FFF80
3FFFC0007FFF80
7FFFC0007FFF80
7FFFC0007FFF80
7FFF80007FFF80
7FFF80007FFF80
7FFF80007FFF80
7FFF80007FFF80
FFFF80007FFF80
FFFF80007FFF80
FFFF80007FFF80
FFFF80007FFF80
FFFF80007FFF80
FFFF80007FFF80
FFFF80007FFF80
FFFF80007FFF80
FFFF80007FFF80
FFFF80007FFF80
FFFF80007FFF80
FFFF80007FFF80
7FFF80007FFF80
7FFF80007FFF80
7FFF80007FFF80
7FFF80007FFF80
7FFFC0007FFF80
7FFFC000FFFF80
3FFFE001FFFF80
3FFFE003FFFF80
3FFFF007FFFF80
1FFFFC1FFFFF80
1FFFFFFFFFFF80
1FFFFFFFFFFF80
0FFFFFFFFFFF80
0FFFFFFFFFFF80
07FFFFFFFFFF80
03FFFFFFFFFF80
01FFFFFF7FFF80
00FFFFFE7FFF80
007FFFFC7FFF80
003FFFF07FFF80
000FFFC07FFF80
0000FE007FFF80
000000007FFF80
000000007FFF80
000000007FFF80
000000007FFF80
000000007FFF80
000000007FFF80
000000007FFF80
000000007FFF80
000000007FFF80
000000007FFF80
000000007FFF80
000000007FFF80
000000007FFF80
000000007FFF80
000000007FFF80
000000007FFF80
000000007FFF80
000000007FFF80
000000007FFF80
00000000001F80
ENDCHAR
STARTCHAR $0072
ENCODING 114
SWIDTH 600 0
DWIDTH 60 0
BBX 49 55 7 0
BITMAP
0000000007F000
000000003FFF00
FFFFF001FFFF80
FFFFF003FFFF80
FFFFF007FFFF80
FFFFF00FFFFF80
FFFFF81FFFFF80
FFFFF83FFFFF80
FFFFF87FFFFF00
FFFFF87FFFFF00
FFFFFCFFFFFF00
FFFFFCFFFFFF00
01FFFDFFFFFF00
01FFFDFFFFFF00
01FFFFFFFFFF00
01FFFFFF8FFF00
01FFFFFE0FFE00
01FFFFFC0FFE00
01FFFFF80FFE00
01FFFFF00FFE00
01FFFFF00FFE00
01FFFFE00FFE00
01FFFFC00FFE00
01FFFFC00FFC00
01FFFF80000000
01FFFF80000000
01FFFF00000000
01FFFF00000000
01FFFF00000000
01FFFE00000000
01FFFE00000000
01FFFE00000000
01FFFE00000000
01FFFE00000000
01FFFE00000000
01FFFE00000000
01FFFE00000000
01FFFE00000000
01FFFE00000000
01FFFE00000000
01FFFE00000000
01FFFE00000000
01FFFE00000000
01FFFE00000000
FFFFFFFFC00000
FFFFFFFFC00000
FFFFFFFFC00000
FFFFFFFFC00000
FFFFFFFFC00000
FFFFFFFFC00000
FFFFFFFFC00000
FFFFFFFFC00000
FFFFFFFFC00000
FFFFFFFFC00000
FFFFFFFFC00000
ENDCHAR
STARTCHAR $0073
ENCODING 115
SWIDTH 600 0
DWIDTH 60 0
BBX 49 57 5 -2
BITMAP
000007FF000000
0000FFFFF80000
0007FFFFFF0000
001FFFFFFFC000
007FFFFFFFF000
00FFFFFFFFFC00
01FFFFFFFFFF00
03FFFFFFFFFE00
07FFFFFFFFFC00
07FFFFFFFFFC00
0FFFFFFFFFF800
0FFFFF07FFF000
0FFFF8003FF000
1FFFF00007E000
1FFFE00001C000
1FFFE000004000
1FFFE000000000
1FFFF000000000
1FFFF800000000
1FFFFE00000000
1FFFFFC0000000
0FFFFFF8000000
0FFFFFFF000000
07FFFFFFE00000
07FFFFFFFC0000
03FFFFFFFF0000
01FFFFFFFFC000
00FFFFFFFFE000
007FFFFFFFF800
001FFFFFFFF800
0007FFFFFFFC00
0001FFFFFFFE00
00003FFFFFFE00
000003FFFFFF00
0000007FFFFF00
0000000FFFFF00
00000003FFFF00
00000001FFFF00
00000000FFFF00
00000000FFFF80
01800000FFFF00
03C00000FFFF00
07F00000FFFF00
0FFC0001FFFF00
1FFF8007FFFF00
1FFFFFFFFFFE00
3FFFFFFFFFFE00
7FFFFFFFFFFC00
FFFFFFFFFFF800
7FFFFFFFFFF800
3FFFFFFFFFE000
0FFFFFFFFFC000
07FFFFFFFF8000
01FFFFFFFE0000
003FFFFFF80000
0007FFFFC00000
00001FF0000000
ENDCHAR
STARTCHAR $0074
ENCODING 116
SWIDTH 600 0
DWIDTH 60 0
BBX 49 69 6 -2
BITMAP
00000020000000
00003FE0000000
001FFFE0000000
001FFFE0000000
001FFFE0000000
001FFFE0000000
001FFFE0000000
001FFFE0000000
001FFFE0000000
001FFFE0000000
001FFFE0000000
001FFFE0000000
001FFFE0000000
001FFFE0000000
FFFFFFFFFFF000
FFFFFFFFFFF000
FFFFFFFFFFE000
FFFFFFFFFFE000
FFFFFFFFFFE000
FFFFFFFFFFE000
FFFFFFFFFFE000
FFFFFFFFFFE000
FFFFFFFFFFE000
FFFFFFFFFFC000
FFFFFFFFFFC000
001FFFE0000000
001FFFE0000000
001FFFE0000000
001FFFE0000000
001FFFE0000000
001FFFE0000000
001FFFE0000000
001FFFE0000000
001FFFE0000000
001FFFE0000000
001FFFE0000000
001FFFE0000000
001FFFE0000000
001FFFE0000000
001FFFE0000000
001FFFE0000000
001FFFE0000000
001FFFE0000000
001FFFE0000000
001FFFE0000000
001FFFE0000000
001FFFE0000000
001FFFE0000000
001FFFE0000000
001FFFE0000000
001FFFE0000000
001FFFE0000000
001FFFE0000000
001FFFF0000000
001FFFF0003000
000FFFFC00F000
000FFFFFFFF800
000FFFFFFFF800
0007FFFFFFFC00
0007FFFFFFFE00
0003FFFFFFFE00
0003FFFFFFFF00
0001FFFFFFFF00
0000FFFFFFFF80
00007FFFFFFF00
00003FFFFFFC00
00000FFFFFF000
000001FFFF8000
0000001FE00000
ENDCHAR
STARTCHAR $0075
ENCODING 117
SWIDTH 600 0
DWIDTH 60 0
BBX 46 55 7 -2
BITMAP
FFFF0003FFFC
FFFF0003FFFC
FFFF0003FFFC
FFFF0003FFFC
FFFF0003FFFC
FFFF0003FFFC
FFFF0003FFFC
FFFF0003FFFC
FFFF0003FFFC
FFFF0003FFFC
FFFF0003FFFC
FFFF0003FFFC
FFFF0003FFFC
FFFF0003FFFC
FFFF0003FFFC
FFFF0003FFFC
FFFF0003FFFC
FFFF0003FFFC
FFFF0003FFFC
FFFF0003FFFC
FFFF0003FFFC
FFFF0003FFFC
FFFF0003FFFC
FFFF0003FFFC
FFFF0003FFFC
FFFF0003FFFC
FFFF0003FFFC
FFFF0003FFFC
FFFF0003FFFC
FFFF0003FFFC
FFFF0003FFFC
FFFF0003FFFC
FFFF0003FFFC
FFFF0003FFFC
FFFF0003FFFC
FFFF0003FFFC
FFFF0003FFFC
FFFF0003FFFC
FFFF0007FFFC
FFFF000FFFFC
FFFF801FFFFC
FFFF803FFFFC
FFFFE0FFFFFC
7FFFFFFFFFFC
7FFFFFFFFFFC
7FFFFFFFFFFC
7FFFFFFFFFFC
3FFFFFFEFFFC
3FFFFFFCFFFC
1FFFFFF8FFFC
0FFFFFF0FFFC
07FFFFE0FFFC
03FFFF80FFFC
00FFFC000000
000FC0000000
ENDCHAR
STARTCHAR $0076
ENCODING 118
SWIDTH 600 0
DWIDTH 60 0
BBX 54 53 3 0
BITMAP
FFFF800003FFFC
FFFF800003FFFC
7FFFC00007FFF8
7FFFC00007FFF8
7FFFC00007FFF8
3FFFC00007FFF0
3FFFE0000FFFF0
3FFFE0000FFFF0
1FFFE0000FFFE0
1FFFE0000FFFE0
1FFFF0001FFFE0
0FFFF0001FFFC0
0FFFF0001FFFC0
0FFFF0003FFFC0
07FFF8003FFF80
07FFF8003FFF80
07FFF8003FFF80
03FFF8007FFF00
03FFFC007FFF00
01FFFC007FFF00
01FFFC007FFE00
01FFFC00FFFE00
00FFFE00FFFE00
00FFFE00FFFC00
00FFFE00FFFC00
007FFE01FFFC00
007FFF01FFF800
007FFF01FFF800
003FFF01FFF800
003FFF03FFF000
003FFF83FFF000
001FFF83FFF000
001FFF87FFE000
001FFF87FFE000
000FFFC7FFE000
000FFFC7FFC000
000FFFCFFFC000
0007FFCFFFC000
0007FFEFFF8000
0007FFEFFF8000
0003FFFFFF8000
0003FFFFFF0000
0003FFFFFF0000
0001FFFFFF0000
0001FFFFFE0000
0001FFFFFE0000
0000FFFFFE0000
0000FFFFFC0000
0000FFFFFC0000
00007FFFFC0000
00007FFFF80000
00007FFFF80000
00003FFFF80000
ENDCHAR
STARTCHAR $0077
ENCODING 119
SWIDTH 600 0
DWIDTH 60 0
BBX 60 53 0 0
BITMAP
FFFE00000003FFF0
7FFE00000003FFE0
7FFE00000007FFE0
7FFE00000007FFE0
7FFE00000007FFE0
7FFE00000007FFE0
7FFE00000007FFE0
7FFE00FFF807FFE0
3FFE00FFF807FFC0
3FFF01FFFC07FFC0
3FFF01FFFC07FFC0
3FFF01FFFC07FFC0
3FFF01FFFC07FFC0
3FFF01FFFC07FFC0
1FFF01FFFC0FFFC0
1FFF03FFFC0FFF80
1FFF03FFFE0FFF80
1FFF03FFFE0FFF80
1FFF03FFFE0FFF80
1FFF03FFFE0FFF80
1FFF03FDFE0FFF80
0FFF83FDFE0FFF80
0FFF87F9FE0FFF00
0FFF87F9FE0FFF00
0FFF87F9FF0FFF00
0FFF87F9FF0FFF00
0FFF87F9FF0FFF00
0FFF87F9FF1FFF00
07FF8FF8FF1FFF00
07FF8FF0FF1FFE00
07FF8FF0FF1FFE00
07FF8FF0FF9FFE00
07FF8FF0FF9FFE00
07FF8FF0FF9FFE00
07FFCFF0FF9FFE00
03FFDFF0FF9FFE00
03FFDFF07F9FFC00
03FFDFE07F9FFC00
03FFDFE07FDFFC00
03FFDFE07FFFFC00
03FFDFE07FFFFC00
03FFFFE07FFFFC00
01FFFFE07FFFFC00
01FFFFE07FFFF800
01FFFFC03FFFF800
01FFFFC03FFFF800
01FFFFC03FFFF800
01FFFFC03FFFF800
00FFFFC03FFFF800
00FFFFC03FFFF800
00FFFFC03FFFF000
00FFFFC03FFFF000
00FFFF801FFFF000
ENDCHAR
STARTCHAR $0078
ENCODING 120
SWIDTH 600 0
DWIDTH 60 0
BBX 56 53 2 0
BITMAP
3FFFF0000FFFF8
1FFFF0000FFFF0
0FFFF8001FFFE0
0FFFF8001FFFE0
07FFFC003FFFC0
03FFFC003FFFC0
03FFFE007FFF80
01FFFE007FFF00
00FFFF00FFFF00
00FFFF00FFFE00
007FFF81FFFC00
007FFF81FFFC00
003FFFC3FFF800
001FFFC3FFF000
001FFFE7FFF000
000FFFE7FFE000
0007FFFFFFE000
0007FFFFFFC000
0003FFFFFF8000
0001FFFFFF8000
0001FFFFFF0000
0000FFFFFE0000
00007FFFFE0000
00007FFFFC0000
00003FFFFC0000
00003FFFFC0000
00007FFFFE0000
00007FFFFE0000
0000FFFFFF0000
0000FFFFFF8000
0001FFFFFF8000
0003FFFFFFC000
0003FFFFFFE000
0007FFEFFFE000
000FFFEFFFF000
000FFFC7FFF800
001FFFC7FFF800
003FFF83FFFC00
003FFF83FFFC00
007FFF01FFFE00
00FFFF01FFFF00
00FFFE00FFFF00
01FFFE00FFFF80
03FFFC007FFFC0
03FFFC007FFFC0
07FFF8003FFFE0
0FFFF8003FFFF0
0FFFF0001FFFF0
1FFFF0000FFFF8
3FFFE0000FFFFC
3FFFE00007FFFC
7FFFC00007FFFE
FFFFC00003FFFF
ENDCHAR
STARTCHAR $0079
ENCODING 121
SWIDTH 600 0
DWIDTH 60 0
BBX 54 75 3 -22
BITMAP
FFFF800003FFFC
FFFF800003FFFC
7FFF800007FFF8
7FFF800007FFF8
7FFFC00007FFF8
3FFFC00007FFF0
3FFFC0000FFFF0
3FFFC0000FFFF0
1FFFE0000FFFE0
1FFFE0001FFFE0
1FFFE0001FFFE0
1FFFE0001FFFC0
0FFFF0001FFFC0
0FFFF0003FFFC0
0FFFF0003FFF80
07FFF0003FFF80
07FFF0003FFF80
07FFF8007FFF00
03FFF8007FFF00
03FFF8007FFF00
03FFF8007FFE00
01FFFC00FFFE00
01FFFC00FFFE00
01FFFC00FFFC00
00FFFC00FFFC00
00FFFE01FFFC00
00FFFE01FFF800
007FFE01FFF800
007FFE01FFF800
007FFF03FFF000
003FFF03FFF000
003FFF03FFF000
003FFF07FFE000
003FFF87FFE000
001FFF87FFE000
001FFF87FFC000
001FFF8FFFC000
000FFFCFFFC000
000FFFCFFF8000
000FFFCFFF8000
0007FFDFFF8000
0007FFDFFF0000
0007FFFFFF0000
0003FFFFFF0000
0003FFFFFE0000
0003FFFFFE0000
0001FFFFFE0000
0001FFFFFC0000
0001FFFFFC0000
0000FFFFFC0000
0000FFFFF80000
0000FFFFF80000
0000FFFFF80000
000003FFF00000
000007FFF00000
000007FFF00000
00000FFFE00000
00000FFFE00000
00001FFFC00000
00003FFFC00000
0000FFFF800000
0001FFFF800000
000FFFFF000000
007FFFFE000000
07FFFFFE000000
07FFFFFC000000
07FFFFF8000000
07FFFFF0000000
03FFFFE0000000
03FFFF80000000
03FFFF00000000
03FFFC00000000
03FFF000000000
03FF8000000000
01F80000000000
ENDCHAR
STARTCHAR $007A
ENCODING 122
SWIDTH 600 0
DWIDTH 60 0
BBX 45 53 7 0
BITMAP
3FFFFFFFFFF8
3FFFFFFFFFF8
3FFFFFFFFFF8
3FFFFFFFFFF8
3FFFFFFFFFF8
3FFFFFFFFFF8
3FFFFFFFFFF8
3FFFFFFFFFF8
3FFFFFFFFFF8
3FFFFFFFFFF8
3FFFFFFFFFF8
3FFFFFFFFFF8
0000003FFFF0
0000007FFFE0
000000FFFFC0
000001FFFF80
000003FFFF00
000003FFFE00
000007FFFC00
00000FFFFC00
00001FFFF800
00003FFFF000
00007FFFE000
0000FFFFC000
0001FFFF8000
0001FFFF0000
0003FFFE0000
0007FFFE0000
000FFFFC0000
001FFFF80000
003FFFF00000
007FFFE00000
00FFFFC00000
00FFFF800000
01FFFF800000
03FFFF000000
07FFFE000000
0FFFFC000000
1FFFF8000000
3FFFF0000000
7FFFE0000000
FFFFFFFFFFF8
FFFFFFFFFFF8
FFFFFFFFFFF8
FFFFFFFFFFF8
FFFFFFFFFFF8
FFFFFFFFFFF8
FFFFFFFFFFF8
FFFFFFFFFFF8
FFFFFFFFFFF0
FFFFFFFFFFF0
FFFFFFFFFFF0
FFFFFFFFFFF0
ENDCHAR
STARTCHAR $007B
ENCODING 123
SWIDTH 600 0
DWIDTH 60 0
BBX 36 98 11 -14
BITMAP
0000001FF0
000003FFF0
00001FFFF0
00007FFFF0
0000FFFFF0
0001FFFFF0
0003FFFFF0
0007FFFFF0
0007FFFFF0
000FFFFFF0
000FFFFFF0
000FFFFE00
000FFFF000
000FFFE000
000FFFE000
000FFFC000
000FFFC000
000FFFC000
000FFFC000
000FFFE000
000FFFE000
000FFFE000
000FFFE000
000FFFE000
000FFFE000
000FFFE000
0007FFE000
0007FFE000
0007FFF000
0007FFF000
0007FFF000
0007FFF000
0007FFF000
0007FFF000
0007FFF000
0007FFF000
0007FFF000
0007FFF000
000FFFF000
001FFFE000
003FFFE000
00FFFFE000
3FFFFFC000
FFFFFF8000
FFFFFF0000
FFFFFE0000
FFFFF80000
FFFFC00000
FFFE000000
FFFE000000
FFFFE00000
FFFFF80000
FFFFFE0000
FFFFFF0000
FFFFFF8000
3FFFFFC000
00FFFFE000
003FFFE000
001FFFE000
000FFFF000
0007FFF000
0007FFF000
0007FFF000
0007FFF000
0007FFF000
0007FFF000
0007FFF000
0007FFF000
0007FFF000
0007FFF000
0007FFE000
0007FFE000
000FFFE000
000FFFE000
000FFFE000
000FFFE000
000FFFE000
000FFFE000
000FFFE000
000FFFC000
000FFFC000
000FFFC000
000FFFC000
000FFFE000
000FFFE000
000FFFF000
000FFFFE00
000FFFFFF0
000FFFFFF0
0007FFFFF0
0007FFFFF0
0003FFFFF0
0001FFFFF0
0000FFFFF0
00007FFFF0
00001FFFF0
000003FFF0
0000001FF0
ENDCHAR
STARTCHAR $007C
ENCODING 124
SWIDTH 600 0
DWIDTH 60 0
BBX 14 120 23 -30
BITMAP
FFFC
FFFC
FFFC
FFFC
FFFC
FFFC
FFFC
FFFC
FFFC
FFFC
FFFC
FFFC
FFFC
FFFC
FFFC
FFFC
FFFC
FFFC
FFFC
FFFC
FFFC
FFFC
FFFC
FFFC
FFFC
FFFC
FFFC
FFFC
FFFC
FFFC
FFFC
FFFC
FFFC
FFFC
FFFC
FFFC
FFFC
FFFC
FFFC
FFFC
FFFC
FFFC
FFFC
FFFC
FFFC
FFFC
FFFC
FFFC
FFFC
FFFC
FFFC
FFFC
FFFC
FFFC
FFFC
FFFC
FFFC
FFFC
FFFC
FFFC
FFFC
FFFC
FFFC
FFFC
FFFC
FFFC
FFFC
FFFC
FFFC
FFFC
FFFC
FFFC
FFFC
FFFC
FFFC
FFFC
FFFC
FFFC
FFFC
FFFC
FFFC
FFFC
FFFC
FFFC
FFFC
FFFC
FFFC
FFFC
FFFC
FFFC
FFFC
FFFC
FFFC
FFFC
FFFC
FFFC
FFFC
FFFC
FFFC
FFFC
FFFC
FFFC
FFFC
FFFC
FFFC
FFFC
FFFC
FFFC
FFFC
FFFC
FFFC
FFFC
FFFC
FFFC
FFFC
FFFC
FFFC
FFFC
FFFC
FFFC
ENDCHAR
STARTCHAR $007D
ENCODING 125
SWIDTH 600 0
DWIDTH 60 0
BBX 36 98 13 -14
BITMAP
FF80000000
FFFC000000
FFFF800000
FFFFE00000
FFFFF00000
FFFFF80000
FFFFFC0000
FFFFFE0000
FFFFFE0000
FFFFFF0000
FFFFFF0000
07FFFF0000
00FFFF0000
007FFF0000
007FFF0000
003FFF0000
003FFF0000
003FFF0000
003FFF0000
007FFF0000
007FFF0000
007FFF0000
007FFF0000
007FFF0000
007FFF0000
007FFF0000
007FFE0000
007FFE0000
00FFFE0000
00FFFE0000
00FFFE0000
00FFFE0000
00FFFE0000
00FFFE0000
00FFFE0000
00FFFE0000
00FFFE0000
00FFFE0000
00FFFF0000
007FFF8000
007FFFC000
007FFFF000
003FFFFFC0
001FFFFFF0
000FFFFFF0
0007FFFFF0
0001FFFFF0
00007FFFF0
000007FFF0
000007FFF0
00007FFFF0
0001FFFFF0
0007FFFFF0
000FFFFFF0
001FFFFFF0
003FFFFFC0
007FFFF000
007FFFC000
007FFF8000
00FFFF0000
00FFFE0000
00FFFE0000
00FFFE0000
00FFFE0000
00FFFE0000
00FFFE0000
00FFFE0000
00FFFE0000
00FFFE0000
00FFFE0000
007FFE0000
007FFE0000
007FFF0000
007FFF0000
007FFF0000
007FFF0000
007FFF0000
007FFF0000
007FFF0000
003FFF0000
003FFF0000
003FFF0000
003FFF0000
007FFF0000
007FFF0000
00FFFF0000
07FFFF0000
FFFFFF0000
FFFFFF0000
FFFFFE0000
FFFFFE0000
FFFFFC0000
FFFFF80000
FFFFF00000
FFFFE00000
FFFF800000
FFFC000000
FF80000000
ENDCHAR
STARTCHAR $007E
ENCODING 126
SWIDTH 600 0
DWIDTH 60 0
BBX 56 22 2 21
BITMAP
0003FC00000000
000FFF80000000
003FFFC0000100
007FFFF00003C0
00FFFFF80003F0
01FFFFFC0007FC
03FFFFFE000FFF
07FFFFFF801FFE
0FFFFFFFC03FFE
0FFFFFFFF07FFC
1FFFFFFFFFFFFC
3FFFFFFFFFFFF8
3FFE0FFFFFFFF0
7FFC03FFFFFFF0
7FF800FFFFFFE0
FFF0007FFFFFC0
3FE0003FFFFF80
0FC0001FFFFF80
03C0000FFFFE00
00800003FFFC00
00000001FFF000
000000003FC000
ENDCHAR
ENDFONT
