0
SECTION
2
HEADER
9
$INSUNITS
70
4
9
$ACADVER
1
AC1014
9
$HANDSEED
5
FFFF
0
ENDSEC
0
SECTION
2
TABLES
0
TABLE
2
VPORT
5
8
100
AcDbSymbolTable
0
ENDTAB
0
TABLE
2
LTYPE
5
5
100
AcDbSymbolTable
0
LTYPE
5
14
100
AcDbSymbolTableRecord
100
AcDbLinetypeTableRecord
2
BYBLOCK
70
0
0
LTYPE
5
15
100
AcDbSymbolTableRecord
100
AcDbLinetypeTableRecord
2
BYLAYER
70
0
0
ENDTAB
0
TABLE
2
LAYER
5
2
100
AcDbSymbolTable
70
2
0
LAYER
5
50
100
AcDbSymbolTableRecord
100
AcDbLayerTableRecord
2
0
70
0
6
CONTINUOUS
0
ENDTAB
0
TABLE
2
STYLE
5
3
100
AcDbSymbolTable
70
1
0
STYLE
5
11
100
AcDbSymbolTableRecord
100
AcDbTextStyleTableRecord
2
STANDARD
70
0
0
ENDTAB
0
TABLE
2
VIEW
5
6
100
AcDbSymbolTable
70
0
0
ENDTAB
0
TABLE
2
UCS
5
7
100
AcDbSymbolTable
70
0
0
ENDTAB
0
TABLE
2
APPID
5
9
100
AcDbSymbolTable
70
2
0
APPID
5
12
100
AcDbSymbolTableRecord
100
AcDbRegAppTableRecord
2
ACAD
70
0
0
ENDTAB
0
TABLE
2
DIMSTYLE
5
A
100
AcDbSymbolTable
70
1
0
ENDTAB
0
TABLE
2
BLOCK_RECORD
5
1
100
AcDbSymbolTable
70
1
0
BLOCK_RECORD
5
1F
100
AcDbSymbolTableRecord
100
AcDbBlockTableRecord
2
*MODEL_SPACE
0
BLOCK_RECORD
5
1B
100
AcDbSymbolTableRecord
100
AcDbBlockTableRecord
2
*PAPER_SPACE
0
ENDTAB
0
ENDSEC
0
SECTION
2
BLOCKS
0
BLOCK
5
20
100
AcDbEntity
100
AcDbBlockBegin
2
*MODEL_SPACE
0
ENDBLK
5
21
100
AcDbEntity
100
AcDbBlockEnd
0
BLOCK
5
1C
100
AcDbEntity
100
AcDbBlockBegin
2
*PAPER_SPACE
0
ENDBLK
5
1D
100
AcDbEntity
100
AcDbBlockEnd
0
ENDSEC
0
SECTION
2
ENTITIES
0
CIRCLE
5
100
100
AcDbEntity
8
0
100
AcDbCircle
10
81.834941347218404
20
233.65303870668242
30
0
40
6.2249999999998851
0
CIRCLE
5
101
100
AcDbEntity
8
0
100
AcDbCircle
10
68.834941347219356
20
255.47803870668196
30
0
40
1.9999999999999571
0
CIRCLE
5
102
100
AcDbEntity
8
0
100
AcDbCircle
10
68.834941347218503
20
211.8280387066828
30
0
40
1.999999999999966
0
LWPOLYLINE
5
103
100
AcDbEntity
8
0
100
AcDbPolyline
90
16
70
1
43
0.0
10
48.834941347220266
20
258.65303870668197
10
73.834941347219228
20
258.65303870668191
10
73.8349413472191
20
252.30303870668209
10
89.834941347218404
20
252.30303870668209
10
89.834941347217665
20
215.00303870668267
10
73.834941347218376
20
215.00303870668267
10
73.834941347218219
20
208.65303870668282
10
48.834941347219392
20
208.65303870668296
42
-0.41421356237309709
10
43.834941347219598
20
213.65303870668276
10
43.834941347219463
20
213.90303870668282
42
-0.41421356237309603
10
48.834941347219512
20
218.90303870668271
10
55.834941347218894
20
218.90303870668271
42
0.99999999999999989
10
55.834941347219754
20
248.40303870668214
10
48.834941347220173
20
248.40303870668231
42
-0.41421356237309509
10
43.834941347220379
20
253.40303870668208
10
43.834941347220244
20
253.65303870668214
42
-0.41421356237309603
0
CIRCLE
5
104
100
AcDbEntity
8
0
100
AcDbCircle
10
155.99998740580963
20
90.696382402184213
30
0
40
1.9999999999999929
0
CIRCLE
5
105
100
AcDbEntity
8
0
100
AcDbCircle
10
131.39998740580964
20
41.556376794986193
30
0
40
2.0000046911114029
0
LWPOLYLINE
5
106
100
AcDbEntity
8
0
100
AcDbPolyline
90
4
70
1
43
0.0
10
143.99998738009188
20
207.55637668401488
10
143.99998740580966
20
213.90637668401493
10
103.9999898374578
20
213.90637684601688
10
103.99998981174009
20
207.55637684601686
0
CIRCLE
5
107
100
AcDbEntity
8
0
100
AcDbCircle
10
123.09998740580964
20
41.556376794986193
30
0
40
1.4999934339541809
0
CIRCLE
5
108
100
AcDbEntity
8
0
100
AcDbCircle
10
124.89998740580965
20
186.55637679498622
30
0
40
1.5000000000000036
0
CIRCLE
5
109
100
AcDbEntity
8
0
100
AcDbCircle
10
133.19998740580965
20
186.55637679498622
30
0
40
1.9999999999999929
0
CIRCLE
5
110
100
AcDbEntity
8
0
100
AcDbCircle
10
148.99998740580966
20
18.921376684014902
30
0
40
1.9999999999999929
0
LWPOLYLINE
5
111
100
AcDbEntity
8
0
100
AcDbPolyline
90
4
70
1
43
0.0
10
143.99998740580966
20
22.096376684014906
10
103.99998740580966
20
22.096376684014906
10
103.99998740580966
20
15.746376684014898
10
143.99998740580966
20
15.746376684014898
0
CIRCLE
5
112
100
AcDbEntity
8
0
100
AcDbCircle
10
148.99998740580966
20
210.73137668401489
30
0
40
1.9999999999999929
0
CIRCLE
5
113
100
AcDbEntity
8
0
100
AcDbCircle
10
197.90998740580966
20
138.9563824021842
30
0
40
1.9999999999999929
0
CIRCLE
5
114
100
AcDbEntity
8
0
100
AcDbCircle
10
114.79998740580965
20
41.556376794986193
30
0
40
2.0000046911114029
0
CIRCLE
5
115
100
AcDbEntity
8
0
100
AcDbCircle
10
116.59998740580966
20
186.55637679498622
30
0
40
1.9999999999999929
0
CIRCLE
5
116
100
AcDbEntity
8
0
100
AcDbCircle
10
197.90998740580966
20
90.696382402184213
30
0
40
1.9999999999999929
0
CIRCLE
5
117
100
AcDbEntity
8
0
100
AcDbCircle
10
155.99998740580963
20
138.9563824021842
30
0
40
1.9999999999999929
0
CIRCLE
5
118
100
AcDbEntity
8
0
100
AcDbCircle
10
98.999987405809662
20
210.7313768460169
30
0
40
1.9999999999999929
0
CIRCLE
5
119
100
AcDbEntity
8
0
100
AcDbCircle
10
98.999987405809662
20
18.921376684014902
30
0
40
1.9999999999999929
0
LWPOLYLINE
5
120
100
AcDbEntity
8
0
100
AcDbPolyline
90
16
70
1
43
0.0
10
150.99998740580963
20
273.9063766840149
42
-0.41421356237309509
10
155.99998740580969
20
268.90637668401484
10
155.99998740580969
20
152.9563824021842
42
0.4142135623730992
10
165.99998740580961
20
142.9563824021842
10
196.90998740580966
20
142.9563824021842
42
-0.41421356237309404
10
201.90998740580966
20
137.9563824021842
10
201.90998740580966
20
91.696382402184213
42
-0.41421356237309509
10
196.90998740580966
20
86.696382402184213
10
165.99998740580963
20
86.696382402184241
42
0.41421356237309553
10
155.99998740580966
20
76.696382402184241
10
155.99998740580969
20
10.906376684014853
42
-0.41421356237309492
10
150.99998740580966
20
5.9063766840148446
10
96.999987405809691
20
5.9063766840148464
42
-0.41421356237309492
10
91.999987405809662
20
10.90637668401488
10
91.999987405809662
20
268.90637668401484
42
-0.41421356237309509
10
96.999987405809691
20
273.9063766840149
0
CIRCLE
5
121
100
AcDbEntity
8
0
100
AcDbCircle
10
190.87295503429607
20
245.48154379199195
30
0
40
11.25000000000005
0
CIRCLE
5
122
100
AcDbEntity
8
0
100
AcDbCircle
10
206.37295503427833
20
260.98154379199218
30
0
40
2.0000000000000018
0
LWPOLYLINE
5
123
100
AcDbEntity
8
0
100
AcDbPolyline
90
4
70
1
43
0.0
10
209.5229550342967
20
214.48154379199238
10
209.52295503429701
20
194.48154379199246
10
215.87295503429704
20
194.48154379199252
10
215.87295503429672
20
214.48154379199249
0
CIRCLE
5
124
100
AcDbEntity
8
0
100
AcDbCircle
10
175.37295503427816
20
260.98154379199167
30
0
40
2.0000000000000018
0
CIRCLE
5
125
100
AcDbEntity
8
0
100
AcDbCircle
10
190.87295503429652
20
220.48154379199204
30
0
40
4.0000000000000213
0
LWPOLYLINE
5
126
100
AcDbEntity
8
0
100
AcDbPolyline
90
4
70
1
43
0.0
10
165.87295503427725
20
214.48154379199164
10
165.87295503427757
20
194.4815437919917
10
172.22295503427759
20
194.48154379199181
10
172.22295503427728
20
214.48154379199178
0
CIRCLE
5
127
100
AcDbEntity
8
0
100
AcDbCircle
10
169.04795503427766
20
189.48154379199178
30
0
40
2.0000000000000107
0
CIRCLE
5
128
100
AcDbEntity
8
0
100
AcDbCircle
10
206.37295503427882
20
229.98154379199224
30
0
40
2.0000000000000018
0
CIRCLE
5
129
100
AcDbEntity
8
0
100
AcDbCircle
10
175.37295503427868
20
229.98154379199175
30
0
40
2.0000000000000018
0
CIRCLE
5
130
100
AcDbEntity
8
0
100
AcDbCircle
10
169.04795503427718
20
219.48154379199167
30
0
40
2.0000000000000107
0
CIRCLE
5
131
100
AcDbEntity
8
0
100
AcDbCircle
10
212.69795503429714
20
189.48154379199249
30
0
40
2.0000000000000107
0
CIRCLE
5
132
100
AcDbEntity
8
0
100
AcDbCircle
10
214.87295502645918
20
245.48132694565709
30
0
40
2.3750000000000178
0
CIRCLE
5
133
100
AcDbEntity
8
0
100
AcDbCircle
10
212.69795503429663
20
219.48154379199238
30
0
40
2.0000000000000107
0
CIRCLE
5
134
100
AcDbEntity
8
0
100
AcDbCircle
10
166.87295504213301
20
245.48132694565629
30
0
40
2.3750000000000178
0
LWPOLYLINE
5
135
100
AcDbEntity
8
0
100
AcDbPolyline
90
40
70
1
43
0.0
10
158.87295503429692
20
187.48154379184876
10
158.87295503429561
20
266.48154379200332
10
163.87295503442741
20
266.48154379202992
10
163.87295503445449
20
261.48154379202998
10
162.37295503447496
20
261.48154379202185
10
162.37295503447498
20
258.4815437920218
10
163.87295503445335
20
258.48154379203049
10
163.87295503447007
20
255.48154379203055
10
167.8729550344701
20
255.48154379205218
10
167.87295503445461
20
258.48154379204976
10
169.37295503445461
20
258.48154379204976
10
169.37295503443801
20
261.48154379205562
10
167.87295503445841
20
261.48154379204766
10
167.87295503443178
20
266.48154379205118
10
170.87295503443181
20
266.48154379207085
10
170.87295503440185
20
272.83154379227932
10
210.872955034402
20
272.83154379228
10
210.87295503443644
20
266.48154379227998
10
213.87295503443642
20
266.48154379237832
10
213.87295503445773
20
261.48154379230095
10
212.372955034293
20
261.48154379229277
10
212.37295503431073
20
258.48154379229277
10
213.87295503431352
20
258.4815437923009
10
213.87295503432981
20
255.4815437923011
10
217.87295503432844
20
255.48154379232275
10
217.87295503441274
20
258.48154379232261
10
219.37295503431221
20
258.48154379233074
10
219.37295503429598
20
261.48154379233074
10
217.87295503429448
20
261.48154379237292
10
217.87295503880273
20
266.48154379240623
10
222.8729550342959
20
266.48154379219909
10
222.87295503484637
20
187.48154693539138
42
-0.41421356237355078
10
217.87295189168918
20
182.48154379217229
10
210.6229550347544
20
182.48154379224442
42
-0.41421356237309709
10
205.62295503483952
20
187.48154379210513
10
205.62295503480155
20
194.48154379207207
42
0.99999999999999989
10
176.12295503479334
20
194.48154379191215
10
176.12295503471972
20
187.48154379194614
42
-0.41421356237309298
10
171.12295503474678
20
182.48154379191891
10
163.87295503428243
20
182.48154379189037
42
-0.41421356237467666
0
LWPOLYLINE
5
136
100
AcDbEntity
8
0
100
AcDbPolyline
90
50
70
1
43
0.0
10
70.86088612299281
20
172.21770186531307
10
65.860886122992753
20
172.21770186531427
10
65.860886122993847
20
176.71770186531427
42
-0.41421356237308465
10
67.360886122994202
20
178.21770186531396
42
0.41421356237310542
10
68.8608861229946
20
179.71770186531359
10
68.86088612299794
20
193.71770186531296
42
-0.41421356237309509
10
70.360886122998352
20
195.21770186531268
10
83.510886122998116
20
195.21770186530955
10
83.510886122997178
20
190.21770186530949
10
78.510886122997135
20
190.21770186531131
10
78.510886122997462
20
191.71770186531134
10
75.510886122997306
20
191.71770186531205
10
75.510886122996936
20
190.21770186531202
10
72.510886122996894
20
190.21770186531273
10
72.510886122995942
20
186.21770186531268
10
75.51088612299597
20
186.21770186531199
10
75.510886122995601
20
184.71770186531199
10
78.510886122995643
20
184.71770186531134
10
78.510886122996013
20
186.2177018653114
10
83.510886122996084
20
186.2177018653102
10
83.510886122995359
20
183.21770186531015
10
89.860886122995424
20
183.21770186530864
10
89.860886122990593
20
163.21770186530841
10
83.510886122990541
20
163.21770186530989
10
83.510886122989803
20
160.21770186530986
10
78.510886122989746
20
160.21770186531108
10
78.510886122990101
20
161.71770186531114
10
75.510886122990016
20
161.7177018653118
10
75.510886122989689
20
160.21770186531182
10
72.510886122989703
20
160.21770186531253
10
72.510886122988737
20
156.21770186531248
10
75.510886122988524
20
156.21770186531174
10
75.51088612298858
20
154.71770186531171
10
78.510886122988637
20
154.717701865311
10
78.510886122989007
20
156.21770186531106
10
83.510886122989078
20
156.21770186530986
10
83.510886122987415
20
149.21770186530981
10
59.510886122987117
20
149.21770186531546
10
59.510886122990982
20
165.21770186531563
10
65.860886122991062
20
165.21770186531413
10
65.860886122991801
20
168.21770186531421
10
70.860886122991872
20
168.21770186531299
10
70.860886122991502
20
166.71770186531296
10
73.860886122991531
20
166.71770186531228
10
73.8608861229919
20
168.21770186531228
10
76.860886122991943
20
168.2177018653116
10
76.860886122992895
20
172.21770186531171
10
73.860886122992852
20
172.21770186531234
10
73.86088612299325
20
173.71770186531236
10
70.860886122993165
20
173.7177018653131
0
LWPOLYLINE
5
137
100
AcDbEntity
8
0
100
AcDbPolyline
90
50
70
1
43
0.0
10
77.285305432756644
20
119.27544675743228
10
82.285305432756672
20
119.27544675743229
10
82.285305432756672
20
114.77544675743231
42
-0.4142135623730881
10
80.785305432756701
20
113.27544675743226
42
0.41421356237309165
10
79.285305432756701
20
111.77544675743226
10
79.285305432756857
20
97.775446757432945
42
-0.41421356237309165
10
77.785305432756815
20
96.275446757432888
10
64.635305432757121
20
96.275446757432832
10
64.635305432756795
20
101.27544675743287
10
69.635305432756823
20
101.27544675743226
10
69.635305432756866
20
99.775446757432263
10
72.635305432756994
20
99.775446757432249
10
72.635305432756979
20
101.27544675743226
10
75.635305432757008
20
101.27544675743231
10
75.635305432756979
20
105.27544675743232
10
72.635305432756979
20
105.27544675743228
10
72.635305432756965
20
106.77544675743228
10
69.635305432756937
20
106.77544675743221
10
69.635305432756951
20
105.27544675743218
10
64.635305432756937
20
105.27544675743216
10
64.635305432756908
20
108.27544675743221
10
58.285305432756886
20
108.27544675743221
10
58.285305432756751
20
128.27544675743235
10
64.635305432756752
20
128.27544675743238
10
64.635305432756724
20
131.27544675743241
10
69.635305432756752
20
131.27544675743241
10
69.635305432756766
20
129.77544675743241
10
72.635305432756837
20
129.77544675743238
10
72.635305432756795
20
131.27544675743241
10
75.63530543275678
20
131.27544675743238
10
75.635305432756738
20
135.27544675743241
10
72.635305432756979
20
135.27544675743241
10
72.635305432756539
20
136.77544675743241
10
69.63530543275651
20
136.77544675743243
10
69.635305432756525
20
135.27544675743241
10
64.635305432756482
20
135.27544675743238
10
64.635305432756411
20
142.27544675743243
10
88.635305432756567
20
142.27544675743252
10
88.635305432756653
20
126.27544675743241
10
82.285305432756601
20
126.27544675743236
10
82.285305432756616
20
123.27544675743233
10
77.285305432756587
20
123.27544675743229
10
77.285305432756573
20
124.77544675743232
10
74.285305432756559
20
124.77544675743233
10
74.285305432756573
20
123.27544675743229
10
71.285305432756545
20
123.27544675743226
10
71.285305432756573
20
119.27544675743226
10
74.285305432756616
20
119.27544675743228
10
74.285305432756587
20
117.77544675743226
10
77.285305432756658
20
117.77544675743226
0
CIRCLE
5
138
100
AcDbEntity
8
0
100
AcDbCircle
10
83.367073626560639
20
52.453660383450547
30
0
40
1.9999999999999836
0
CIRCLE
5
139
100
AcDbEntity
8
0
100
AcDbCircle
10
61.588073626560941
20
27.453660383450611
30
0
40
1.9999999999999836
0
CIRCLE
5
140
100
AcDbEntity
8
0
100
AcDbCircle
10
81.146073626560806
20
27.45366038345071
30
0
40
1.9999999999999836
0
CIRCLE
5
141
100
AcDbEntity
8
0
100
AcDbCircle
10
59.367073626560789
20
52.453660383450426
30
0
40
1.9999999999999836
0
CIRCLE
5
142
100
AcDbEntity
8
0
100
AcDbCircle
10
71.367073626560725
20
52.453660383450497
30
0
40
7.4999999999999645
0
CIRCLE
5
143
100
AcDbEntity
8
0
100
AcDbCircle
10
71.367073626560853
20
27.453660383450654
30
0
40
6.3499999999999668
0
CIRCLE
5
144
100
AcDbEntity
8
0
100
AcDbCircle
10
71.36707362656071
20
64.453660383450412
30
0
40
1.9999999999999836
0
CIRCLE
5
145
100
AcDbEntity
8
0
100
AcDbCircle
10
71.367073626560867
20
17.674660383450718
30
0
40
1.9999999999999836
0
LWPOLYLINE
5
146
100
AcDbEntity
8
0
100
AcDbPolyline
90
10
70
1
43
0.0
10
63.36707362632859
20
86.45366086909732
10
63.367073626464567
20
71.453660383363115
42
0.41421356237001239
10
64.367073626363052
20
70.453660383472268
10
78.36707362663104
20
70.453660383451876
42
0.41421356237435936
10
79.367073626530967
20
71.453660383353224
10
79.367073626490694
20
86.453680789795712
42
-0.9999998803259621
10
87.367073626559474
20
86.453640934497344
10
87.367073626624943
20
23.453660383710332
42
-1.0000044773750469
10
55.367073626559701
20
23.453803658871777
10
55.367073626578076
20
86.453659897846933
42
-0.99999999999999989
0
CIRCLE
5
147
100
AcDbEntity
8
0
100
AcDbCircle
10
190.53197166642536
20
60.075425767453353
30
0
40
6.2249930356317016
0
CIRCLE
5
148
100
AcDbEntity
8
0
100
AcDbCircle
10
190.53195652641602
20
35.075409062126468
30
0
40
7.86250000000003
0
LWPOLYLINE
5
149
100
AcDbEntity
8
0
100
AcDbPolyline
90
36
70
1
43
0.0
10
222.60941016326944
20
14.075356255018381
10
217.532329727589
20
14.075392076051809
10
217.532329727589
20
19.075381813451653
10
219.03234080043174
20
19.075381813451653
10
219.03234080043174
20
22.07536868136005
10
217.53236500536593
20
22.07536868136005
10
217.53236500536593
20
25.075390827045361
10
213.5323589963034
20
25.075390827045361
10
213.5323589963034
20
22.07536868136005
10
212.0323479234608
20
22.07536868136005
10
212.0323479234608
20
19.075381813451653
10
213.5323589963034
20
19.075381813451653
10
213.5323589963034
20
14.075391941011954
10
210.53156610483921
20
14.075391941011954
10
210.53156610483921
20
7.7253921030139594
10
170.53167703778652
20
7.7254273807908547
10
170.53132426001767
20
14.075427218788867
10
167.53094933656357
20
14.075427218788867
10
167.53094933656357
20
19.075417091228477
10
169.03092513162937
20
19.075417091228477
10
169.03092513162935
20
22.075439236913752
10
167.53094933656357
20
22.075439236913734
10
167.53094933656359
20
25.075426104822149
10
163.53094332750118
20
25.075426104822149
10
163.53094332750118
20
22.075439236913752
10
162.03093225465847
20
22.075439236913752
10
162.03093225465847
20
19.075417091228477
10
163.53094332750118
20
19.075417091228477
10
163.53094332750118
20
14.07542712885121
10
158.44522494420482
20
14.075427131521643
10
158.44522495287825
20
30.593568878565339
42
-0.16911393819814788
10
160.60772515093402
20
36.804333468315974
10
183.47822184467555
20
65.665113902954701
42
-0.48353035140546252
10
197.58672403034512
20
65.663848539915065
10
220.44814045077106
20
36.803893217760596
42
-0.16906962645553314
10
222.60952671283349
20
30.594464027297956
0
ENDSEC
0
SECTION
2
OBJECTS
0
DICTIONARY
5
C
100
AcDbDictionary
3
ACAD_GROUP
350
D
3
ACAD_MLINESTYLE
350
17
0
DICTIONARY
5
D
100
AcDbDictionary
0
DICTIONARY
5
1A
330
C
100
AcDbDictionary
0
DICTIONARY
5
17
100
AcDbDictionary
0
ENDSEC
0
EOF
