G75*
%MOIN*%
%OFA0B0*%
%FSLAX25Y25*%
%IPPOS*%
%LPD*%
%AMOC8*
5,1,8,0,0,1.08239X$1,22.5*
%
%ADD10C,0.17532*%
%ADD11C,0.13398*%
%ADD12C,0.05500*%
%ADD13R,0.07400X0.07400*%
%ADD14C,0.08200*%
%ADD15C,0.06350*%
D10*
X0137322Y0131500D03*
X0192322Y0131500D03*
D11*
X0217263Y0033500D03*
X0262263Y0033500D03*
D12*
X0251263Y0058500D02*
X0251265Y0058563D01*
X0251271Y0058625D01*
X0251281Y0058687D01*
X0251294Y0058749D01*
X0251312Y0058809D01*
X0251333Y0058868D01*
X0251358Y0058926D01*
X0251387Y0058982D01*
X0251419Y0059036D01*
X0251454Y0059088D01*
X0251492Y0059137D01*
X0251534Y0059185D01*
X0251578Y0059229D01*
X0251626Y0059271D01*
X0251675Y0059309D01*
X0251727Y0059344D01*
X0251781Y0059376D01*
X0251837Y0059405D01*
X0251895Y0059430D01*
X0251954Y0059451D01*
X0252014Y0059469D01*
X0252076Y0059482D01*
X0252138Y0059492D01*
X0252200Y0059498D01*
X0252263Y0059500D01*
X0252326Y0059498D01*
X0252388Y0059492D01*
X0252450Y0059482D01*
X0252512Y0059469D01*
X0252572Y0059451D01*
X0252631Y0059430D01*
X0252689Y0059405D01*
X0252745Y0059376D01*
X0252799Y0059344D01*
X0252851Y0059309D01*
X0252900Y0059271D01*
X0252948Y0059229D01*
X0252992Y0059185D01*
X0253034Y0059137D01*
X0253072Y0059088D01*
X0253107Y0059036D01*
X0253139Y0058982D01*
X0253168Y0058926D01*
X0253193Y0058868D01*
X0253214Y0058809D01*
X0253232Y0058749D01*
X0253245Y0058687D01*
X0253255Y0058625D01*
X0253261Y0058563D01*
X0253263Y0058500D01*
X0253261Y0058437D01*
X0253255Y0058375D01*
X0253245Y0058313D01*
X0253232Y0058251D01*
X0253214Y0058191D01*
X0253193Y0058132D01*
X0253168Y0058074D01*
X0253139Y0058018D01*
X0253107Y0057964D01*
X0253072Y0057912D01*
X0253034Y0057863D01*
X0252992Y0057815D01*
X0252948Y0057771D01*
X0252900Y0057729D01*
X0252851Y0057691D01*
X0252799Y0057656D01*
X0252745Y0057624D01*
X0252689Y0057595D01*
X0252631Y0057570D01*
X0252572Y0057549D01*
X0252512Y0057531D01*
X0252450Y0057518D01*
X0252388Y0057508D01*
X0252326Y0057502D01*
X0252263Y0057500D01*
X0252200Y0057502D01*
X0252138Y0057508D01*
X0252076Y0057518D01*
X0252014Y0057531D01*
X0251954Y0057549D01*
X0251895Y0057570D01*
X0251837Y0057595D01*
X0251781Y0057624D01*
X0251727Y0057656D01*
X0251675Y0057691D01*
X0251626Y0057729D01*
X0251578Y0057771D01*
X0251534Y0057815D01*
X0251492Y0057863D01*
X0251454Y0057912D01*
X0251419Y0057964D01*
X0251387Y0058018D01*
X0251358Y0058074D01*
X0251333Y0058132D01*
X0251312Y0058191D01*
X0251294Y0058251D01*
X0251281Y0058313D01*
X0251271Y0058375D01*
X0251265Y0058437D01*
X0251263Y0058500D01*
X0241263Y0058500D02*
X0241265Y0058563D01*
X0241271Y0058625D01*
X0241281Y0058687D01*
X0241294Y0058749D01*
X0241312Y0058809D01*
X0241333Y0058868D01*
X0241358Y0058926D01*
X0241387Y0058982D01*
X0241419Y0059036D01*
X0241454Y0059088D01*
X0241492Y0059137D01*
X0241534Y0059185D01*
X0241578Y0059229D01*
X0241626Y0059271D01*
X0241675Y0059309D01*
X0241727Y0059344D01*
X0241781Y0059376D01*
X0241837Y0059405D01*
X0241895Y0059430D01*
X0241954Y0059451D01*
X0242014Y0059469D01*
X0242076Y0059482D01*
X0242138Y0059492D01*
X0242200Y0059498D01*
X0242263Y0059500D01*
X0242326Y0059498D01*
X0242388Y0059492D01*
X0242450Y0059482D01*
X0242512Y0059469D01*
X0242572Y0059451D01*
X0242631Y0059430D01*
X0242689Y0059405D01*
X0242745Y0059376D01*
X0242799Y0059344D01*
X0242851Y0059309D01*
X0242900Y0059271D01*
X0242948Y0059229D01*
X0242992Y0059185D01*
X0243034Y0059137D01*
X0243072Y0059088D01*
X0243107Y0059036D01*
X0243139Y0058982D01*
X0243168Y0058926D01*
X0243193Y0058868D01*
X0243214Y0058809D01*
X0243232Y0058749D01*
X0243245Y0058687D01*
X0243255Y0058625D01*
X0243261Y0058563D01*
X0243263Y0058500D01*
X0243261Y0058437D01*
X0243255Y0058375D01*
X0243245Y0058313D01*
X0243232Y0058251D01*
X0243214Y0058191D01*
X0243193Y0058132D01*
X0243168Y0058074D01*
X0243139Y0058018D01*
X0243107Y0057964D01*
X0243072Y0057912D01*
X0243034Y0057863D01*
X0242992Y0057815D01*
X0242948Y0057771D01*
X0242900Y0057729D01*
X0242851Y0057691D01*
X0242799Y0057656D01*
X0242745Y0057624D01*
X0242689Y0057595D01*
X0242631Y0057570D01*
X0242572Y0057549D01*
X0242512Y0057531D01*
X0242450Y0057518D01*
X0242388Y0057508D01*
X0242326Y0057502D01*
X0242263Y0057500D01*
X0242200Y0057502D01*
X0242138Y0057508D01*
X0242076Y0057518D01*
X0242014Y0057531D01*
X0241954Y0057549D01*
X0241895Y0057570D01*
X0241837Y0057595D01*
X0241781Y0057624D01*
X0241727Y0057656D01*
X0241675Y0057691D01*
X0241626Y0057729D01*
X0241578Y0057771D01*
X0241534Y0057815D01*
X0241492Y0057863D01*
X0241454Y0057912D01*
X0241419Y0057964D01*
X0241387Y0058018D01*
X0241358Y0058074D01*
X0241333Y0058132D01*
X0241312Y0058191D01*
X0241294Y0058251D01*
X0241281Y0058313D01*
X0241271Y0058375D01*
X0241265Y0058437D01*
X0241263Y0058500D01*
X0231263Y0058500D02*
X0231265Y0058563D01*
X0231271Y0058625D01*
X0231281Y0058687D01*
X0231294Y0058749D01*
X0231312Y0058809D01*
X0231333Y0058868D01*
X0231358Y0058926D01*
X0231387Y0058982D01*
X0231419Y0059036D01*
X0231454Y0059088D01*
X0231492Y0059137D01*
X0231534Y0059185D01*
X0231578Y0059229D01*
X0231626Y0059271D01*
X0231675Y0059309D01*
X0231727Y0059344D01*
X0231781Y0059376D01*
X0231837Y0059405D01*
X0231895Y0059430D01*
X0231954Y0059451D01*
X0232014Y0059469D01*
X0232076Y0059482D01*
X0232138Y0059492D01*
X0232200Y0059498D01*
X0232263Y0059500D01*
X0232326Y0059498D01*
X0232388Y0059492D01*
X0232450Y0059482D01*
X0232512Y0059469D01*
X0232572Y0059451D01*
X0232631Y0059430D01*
X0232689Y0059405D01*
X0232745Y0059376D01*
X0232799Y0059344D01*
X0232851Y0059309D01*
X0232900Y0059271D01*
X0232948Y0059229D01*
X0232992Y0059185D01*
X0233034Y0059137D01*
X0233072Y0059088D01*
X0233107Y0059036D01*
X0233139Y0058982D01*
X0233168Y0058926D01*
X0233193Y0058868D01*
X0233214Y0058809D01*
X0233232Y0058749D01*
X0233245Y0058687D01*
X0233255Y0058625D01*
X0233261Y0058563D01*
X0233263Y0058500D01*
X0233261Y0058437D01*
X0233255Y0058375D01*
X0233245Y0058313D01*
X0233232Y0058251D01*
X0233214Y0058191D01*
X0233193Y0058132D01*
X0233168Y0058074D01*
X0233139Y0058018D01*
X0233107Y0057964D01*
X0233072Y0057912D01*
X0233034Y0057863D01*
X0232992Y0057815D01*
X0232948Y0057771D01*
X0232900Y0057729D01*
X0232851Y0057691D01*
X0232799Y0057656D01*
X0232745Y0057624D01*
X0232689Y0057595D01*
X0232631Y0057570D01*
X0232572Y0057549D01*
X0232512Y0057531D01*
X0232450Y0057518D01*
X0232388Y0057508D01*
X0232326Y0057502D01*
X0232263Y0057500D01*
X0232200Y0057502D01*
X0232138Y0057508D01*
X0232076Y0057518D01*
X0232014Y0057531D01*
X0231954Y0057549D01*
X0231895Y0057570D01*
X0231837Y0057595D01*
X0231781Y0057624D01*
X0231727Y0057656D01*
X0231675Y0057691D01*
X0231626Y0057729D01*
X0231578Y0057771D01*
X0231534Y0057815D01*
X0231492Y0057863D01*
X0231454Y0057912D01*
X0231419Y0057964D01*
X0231387Y0058018D01*
X0231358Y0058074D01*
X0231333Y0058132D01*
X0231312Y0058191D01*
X0231294Y0058251D01*
X0231281Y0058313D01*
X0231271Y0058375D01*
X0231265Y0058437D01*
X0231263Y0058500D01*
X0226263Y0068500D02*
X0226265Y0068563D01*
X0226271Y0068625D01*
X0226281Y0068687D01*
X0226294Y0068749D01*
X0226312Y0068809D01*
X0226333Y0068868D01*
X0226358Y0068926D01*
X0226387Y0068982D01*
X0226419Y0069036D01*
X0226454Y0069088D01*
X0226492Y0069137D01*
X0226534Y0069185D01*
X0226578Y0069229D01*
X0226626Y0069271D01*
X0226675Y0069309D01*
X0226727Y0069344D01*
X0226781Y0069376D01*
X0226837Y0069405D01*
X0226895Y0069430D01*
X0226954Y0069451D01*
X0227014Y0069469D01*
X0227076Y0069482D01*
X0227138Y0069492D01*
X0227200Y0069498D01*
X0227263Y0069500D01*
X0227326Y0069498D01*
X0227388Y0069492D01*
X0227450Y0069482D01*
X0227512Y0069469D01*
X0227572Y0069451D01*
X0227631Y0069430D01*
X0227689Y0069405D01*
X0227745Y0069376D01*
X0227799Y0069344D01*
X0227851Y0069309D01*
X0227900Y0069271D01*
X0227948Y0069229D01*
X0227992Y0069185D01*
X0228034Y0069137D01*
X0228072Y0069088D01*
X0228107Y0069036D01*
X0228139Y0068982D01*
X0228168Y0068926D01*
X0228193Y0068868D01*
X0228214Y0068809D01*
X0228232Y0068749D01*
X0228245Y0068687D01*
X0228255Y0068625D01*
X0228261Y0068563D01*
X0228263Y0068500D01*
X0228261Y0068437D01*
X0228255Y0068375D01*
X0228245Y0068313D01*
X0228232Y0068251D01*
X0228214Y0068191D01*
X0228193Y0068132D01*
X0228168Y0068074D01*
X0228139Y0068018D01*
X0228107Y0067964D01*
X0228072Y0067912D01*
X0228034Y0067863D01*
X0227992Y0067815D01*
X0227948Y0067771D01*
X0227900Y0067729D01*
X0227851Y0067691D01*
X0227799Y0067656D01*
X0227745Y0067624D01*
X0227689Y0067595D01*
X0227631Y0067570D01*
X0227572Y0067549D01*
X0227512Y0067531D01*
X0227450Y0067518D01*
X0227388Y0067508D01*
X0227326Y0067502D01*
X0227263Y0067500D01*
X0227200Y0067502D01*
X0227138Y0067508D01*
X0227076Y0067518D01*
X0227014Y0067531D01*
X0226954Y0067549D01*
X0226895Y0067570D01*
X0226837Y0067595D01*
X0226781Y0067624D01*
X0226727Y0067656D01*
X0226675Y0067691D01*
X0226626Y0067729D01*
X0226578Y0067771D01*
X0226534Y0067815D01*
X0226492Y0067863D01*
X0226454Y0067912D01*
X0226419Y0067964D01*
X0226387Y0068018D01*
X0226358Y0068074D01*
X0226333Y0068132D01*
X0226312Y0068191D01*
X0226294Y0068251D01*
X0226281Y0068313D01*
X0226271Y0068375D01*
X0226265Y0068437D01*
X0226263Y0068500D01*
X0236263Y0068500D02*
X0236265Y0068563D01*
X0236271Y0068625D01*
X0236281Y0068687D01*
X0236294Y0068749D01*
X0236312Y0068809D01*
X0236333Y0068868D01*
X0236358Y0068926D01*
X0236387Y0068982D01*
X0236419Y0069036D01*
X0236454Y0069088D01*
X0236492Y0069137D01*
X0236534Y0069185D01*
X0236578Y0069229D01*
X0236626Y0069271D01*
X0236675Y0069309D01*
X0236727Y0069344D01*
X0236781Y0069376D01*
X0236837Y0069405D01*
X0236895Y0069430D01*
X0236954Y0069451D01*
X0237014Y0069469D01*
X0237076Y0069482D01*
X0237138Y0069492D01*
X0237200Y0069498D01*
X0237263Y0069500D01*
X0237326Y0069498D01*
X0237388Y0069492D01*
X0237450Y0069482D01*
X0237512Y0069469D01*
X0237572Y0069451D01*
X0237631Y0069430D01*
X0237689Y0069405D01*
X0237745Y0069376D01*
X0237799Y0069344D01*
X0237851Y0069309D01*
X0237900Y0069271D01*
X0237948Y0069229D01*
X0237992Y0069185D01*
X0238034Y0069137D01*
X0238072Y0069088D01*
X0238107Y0069036D01*
X0238139Y0068982D01*
X0238168Y0068926D01*
X0238193Y0068868D01*
X0238214Y0068809D01*
X0238232Y0068749D01*
X0238245Y0068687D01*
X0238255Y0068625D01*
X0238261Y0068563D01*
X0238263Y0068500D01*
X0238261Y0068437D01*
X0238255Y0068375D01*
X0238245Y0068313D01*
X0238232Y0068251D01*
X0238214Y0068191D01*
X0238193Y0068132D01*
X0238168Y0068074D01*
X0238139Y0068018D01*
X0238107Y0067964D01*
X0238072Y0067912D01*
X0238034Y0067863D01*
X0237992Y0067815D01*
X0237948Y0067771D01*
X0237900Y0067729D01*
X0237851Y0067691D01*
X0237799Y0067656D01*
X0237745Y0067624D01*
X0237689Y0067595D01*
X0237631Y0067570D01*
X0237572Y0067549D01*
X0237512Y0067531D01*
X0237450Y0067518D01*
X0237388Y0067508D01*
X0237326Y0067502D01*
X0237263Y0067500D01*
X0237200Y0067502D01*
X0237138Y0067508D01*
X0237076Y0067518D01*
X0237014Y0067531D01*
X0236954Y0067549D01*
X0236895Y0067570D01*
X0236837Y0067595D01*
X0236781Y0067624D01*
X0236727Y0067656D01*
X0236675Y0067691D01*
X0236626Y0067729D01*
X0236578Y0067771D01*
X0236534Y0067815D01*
X0236492Y0067863D01*
X0236454Y0067912D01*
X0236419Y0067964D01*
X0236387Y0068018D01*
X0236358Y0068074D01*
X0236333Y0068132D01*
X0236312Y0068191D01*
X0236294Y0068251D01*
X0236281Y0068313D01*
X0236271Y0068375D01*
X0236265Y0068437D01*
X0236263Y0068500D01*
X0246263Y0068500D02*
X0246265Y0068563D01*
X0246271Y0068625D01*
X0246281Y0068687D01*
X0246294Y0068749D01*
X0246312Y0068809D01*
X0246333Y0068868D01*
X0246358Y0068926D01*
X0246387Y0068982D01*
X0246419Y0069036D01*
X0246454Y0069088D01*
X0246492Y0069137D01*
X0246534Y0069185D01*
X0246578Y0069229D01*
X0246626Y0069271D01*
X0246675Y0069309D01*
X0246727Y0069344D01*
X0246781Y0069376D01*
X0246837Y0069405D01*
X0246895Y0069430D01*
X0246954Y0069451D01*
X0247014Y0069469D01*
X0247076Y0069482D01*
X0247138Y0069492D01*
X0247200Y0069498D01*
X0247263Y0069500D01*
X0247326Y0069498D01*
X0247388Y0069492D01*
X0247450Y0069482D01*
X0247512Y0069469D01*
X0247572Y0069451D01*
X0247631Y0069430D01*
X0247689Y0069405D01*
X0247745Y0069376D01*
X0247799Y0069344D01*
X0247851Y0069309D01*
X0247900Y0069271D01*
X0247948Y0069229D01*
X0247992Y0069185D01*
X0248034Y0069137D01*
X0248072Y0069088D01*
X0248107Y0069036D01*
X0248139Y0068982D01*
X0248168Y0068926D01*
X0248193Y0068868D01*
X0248214Y0068809D01*
X0248232Y0068749D01*
X0248245Y0068687D01*
X0248255Y0068625D01*
X0248261Y0068563D01*
X0248263Y0068500D01*
X0248261Y0068437D01*
X0248255Y0068375D01*
X0248245Y0068313D01*
X0248232Y0068251D01*
X0248214Y0068191D01*
X0248193Y0068132D01*
X0248168Y0068074D01*
X0248139Y0068018D01*
X0248107Y0067964D01*
X0248072Y0067912D01*
X0248034Y0067863D01*
X0247992Y0067815D01*
X0247948Y0067771D01*
X0247900Y0067729D01*
X0247851Y0067691D01*
X0247799Y0067656D01*
X0247745Y0067624D01*
X0247689Y0067595D01*
X0247631Y0067570D01*
X0247572Y0067549D01*
X0247512Y0067531D01*
X0247450Y0067518D01*
X0247388Y0067508D01*
X0247326Y0067502D01*
X0247263Y0067500D01*
X0247200Y0067502D01*
X0247138Y0067508D01*
X0247076Y0067518D01*
X0247014Y0067531D01*
X0246954Y0067549D01*
X0246895Y0067570D01*
X0246837Y0067595D01*
X0246781Y0067624D01*
X0246727Y0067656D01*
X0246675Y0067691D01*
X0246626Y0067729D01*
X0246578Y0067771D01*
X0246534Y0067815D01*
X0246492Y0067863D01*
X0246454Y0067912D01*
X0246419Y0067964D01*
X0246387Y0068018D01*
X0246358Y0068074D01*
X0246333Y0068132D01*
X0246312Y0068191D01*
X0246294Y0068251D01*
X0246281Y0068313D01*
X0246271Y0068375D01*
X0246265Y0068437D01*
X0246263Y0068500D01*
X0256263Y0068500D02*
X0256265Y0068563D01*
X0256271Y0068625D01*
X0256281Y0068687D01*
X0256294Y0068749D01*
X0256312Y0068809D01*
X0256333Y0068868D01*
X0256358Y0068926D01*
X0256387Y0068982D01*
X0256419Y0069036D01*
X0256454Y0069088D01*
X0256492Y0069137D01*
X0256534Y0069185D01*
X0256578Y0069229D01*
X0256626Y0069271D01*
X0256675Y0069309D01*
X0256727Y0069344D01*
X0256781Y0069376D01*
X0256837Y0069405D01*
X0256895Y0069430D01*
X0256954Y0069451D01*
X0257014Y0069469D01*
X0257076Y0069482D01*
X0257138Y0069492D01*
X0257200Y0069498D01*
X0257263Y0069500D01*
X0257326Y0069498D01*
X0257388Y0069492D01*
X0257450Y0069482D01*
X0257512Y0069469D01*
X0257572Y0069451D01*
X0257631Y0069430D01*
X0257689Y0069405D01*
X0257745Y0069376D01*
X0257799Y0069344D01*
X0257851Y0069309D01*
X0257900Y0069271D01*
X0257948Y0069229D01*
X0257992Y0069185D01*
X0258034Y0069137D01*
X0258072Y0069088D01*
X0258107Y0069036D01*
X0258139Y0068982D01*
X0258168Y0068926D01*
X0258193Y0068868D01*
X0258214Y0068809D01*
X0258232Y0068749D01*
X0258245Y0068687D01*
X0258255Y0068625D01*
X0258261Y0068563D01*
X0258263Y0068500D01*
X0258261Y0068437D01*
X0258255Y0068375D01*
X0258245Y0068313D01*
X0258232Y0068251D01*
X0258214Y0068191D01*
X0258193Y0068132D01*
X0258168Y0068074D01*
X0258139Y0068018D01*
X0258107Y0067964D01*
X0258072Y0067912D01*
X0258034Y0067863D01*
X0257992Y0067815D01*
X0257948Y0067771D01*
X0257900Y0067729D01*
X0257851Y0067691D01*
X0257799Y0067656D01*
X0257745Y0067624D01*
X0257689Y0067595D01*
X0257631Y0067570D01*
X0257572Y0067549D01*
X0257512Y0067531D01*
X0257450Y0067518D01*
X0257388Y0067508D01*
X0257326Y0067502D01*
X0257263Y0067500D01*
X0257200Y0067502D01*
X0257138Y0067508D01*
X0257076Y0067518D01*
X0257014Y0067531D01*
X0256954Y0067549D01*
X0256895Y0067570D01*
X0256837Y0067595D01*
X0256781Y0067624D01*
X0256727Y0067656D01*
X0256675Y0067691D01*
X0256626Y0067729D01*
X0256578Y0067771D01*
X0256534Y0067815D01*
X0256492Y0067863D01*
X0256454Y0067912D01*
X0256419Y0067964D01*
X0256387Y0068018D01*
X0256358Y0068074D01*
X0256333Y0068132D01*
X0256312Y0068191D01*
X0256294Y0068251D01*
X0256281Y0068313D01*
X0256271Y0068375D01*
X0256265Y0068437D01*
X0256263Y0068500D01*
D13*
X0222263Y0058500D03*
D14*
X0027263Y0030500D03*
X0037263Y0030500D03*
X0047263Y0030500D03*
X0057263Y0030500D03*
X0167263Y0030500D03*
X0177263Y0030500D03*
X0223263Y0082500D03*
X0233263Y0082500D03*
X0233263Y0092500D03*
X0223263Y0092500D03*
X0223263Y0102500D03*
X0233263Y0102500D03*
X0177263Y0110500D03*
X0167263Y0110500D03*
X0157263Y0110500D03*
X0147263Y0110500D03*
X0137263Y0110500D03*
X0159822Y0130500D03*
X0169822Y0130500D03*
D15*
X0015263Y0083185D03*
X0015263Y0075311D03*
X0015263Y0067437D03*
X0015263Y0059563D03*
X0015263Y0051689D03*
X0015263Y0043815D03*
M02*
