%
M48
M72
T01C0.02362
T02C0.03150
T03C0.03937
T04C0.04000
T05C0.12598
T06C0.16732
%
T01
X64263Y53500
X66263Y62500
X68263Y71500
X83263Y71500
X88263Y65500
X102263Y77500
X111263Y79500
X101263Y84500
X124763Y78500
X126263Y83500
X134263Y72500
X140263Y71500
X153263Y60500
X132263Y55500
X131263Y45500
X111263Y58500
X159263Y85500
X159263Y91500
X144263Y86500
X160263Y76000
X182263Y69500
X196263Y84500
X202263Y86500
X244263Y87500
X165263Y47500
X61263Y92500
X84263Y107500
X130263Y111500
X142420Y117232
X162263Y117232
X48263Y70500
X44263Y60500
X29263Y101500
T02
X15263Y83185
X15263Y75311
X15263Y67437
X15263Y59563
X15263Y51689
X15263Y43815
T03
X222263Y58500
X232263Y58500
X242263Y58500
X252263Y58500
X257263Y68500
X247263Y68500
X237263Y68500
X227263Y68500
T04
X27263Y30500
X37263Y30500
X47263Y30500
X57263Y30500
X167263Y30500
X177263Y30500
X223263Y82500
X233263Y82500
X233263Y92500
X223263Y92500
X223263Y102500
X233263Y102500
X177263Y110500
X167263Y110500
X157263Y110500
X147263Y110500
X137263Y110500
X159822Y130500
X169822Y130500
T05
X217263Y33500
X262263Y33500
T06
X192322Y131500
X137322Y131500
M30
