G75*
%MOIN*%
%OFA0B0*%
%FSLAX25Y25*%
%IPPOS*%
%LPD*%
%AMOC8*
5,1,8,0,0,1.08239X$1,22.5*
%
%ADD10C,0.00000*%
%ADD11C,0.01000*%
%ADD12C,0.00300*%
%ADD13C,0.00200*%
%ADD14C,0.00500*%
%ADD15C,0.00600*%
%ADD16C,0.00400*%
%ADD17R,0.03000X0.01800*%
%ADD18R,0.01800X0.03000*%
%ADD19C,0.02200*%
%ADD20C,0.00800*%
%ADD21C,0.00040*%
%ADD22C,0.00315*%
D10*
X0012263Y0025500D02*
X0262263Y0025500D01*
X0255964Y0033500D02*
X0255966Y0033658D01*
X0255972Y0033816D01*
X0255982Y0033974D01*
X0255996Y0034132D01*
X0256014Y0034289D01*
X0256035Y0034446D01*
X0256061Y0034602D01*
X0256091Y0034758D01*
X0256124Y0034913D01*
X0256162Y0035066D01*
X0256203Y0035219D01*
X0256248Y0035371D01*
X0256297Y0035522D01*
X0256350Y0035671D01*
X0256406Y0035819D01*
X0256466Y0035965D01*
X0256530Y0036110D01*
X0256598Y0036253D01*
X0256669Y0036395D01*
X0256743Y0036535D01*
X0256821Y0036672D01*
X0256903Y0036808D01*
X0256987Y0036942D01*
X0257076Y0037073D01*
X0257167Y0037202D01*
X0257262Y0037329D01*
X0257359Y0037454D01*
X0257460Y0037576D01*
X0257564Y0037695D01*
X0257671Y0037812D01*
X0257781Y0037926D01*
X0257894Y0038037D01*
X0258009Y0038146D01*
X0258127Y0038251D01*
X0258248Y0038353D01*
X0258371Y0038453D01*
X0258497Y0038549D01*
X0258625Y0038642D01*
X0258755Y0038732D01*
X0258888Y0038818D01*
X0259023Y0038902D01*
X0259159Y0038981D01*
X0259298Y0039058D01*
X0259439Y0039130D01*
X0259581Y0039200D01*
X0259725Y0039265D01*
X0259871Y0039327D01*
X0260018Y0039385D01*
X0260167Y0039440D01*
X0260317Y0039491D01*
X0260468Y0039538D01*
X0260620Y0039581D01*
X0260773Y0039620D01*
X0260928Y0039656D01*
X0261083Y0039687D01*
X0261239Y0039715D01*
X0261395Y0039739D01*
X0261552Y0039759D01*
X0261710Y0039775D01*
X0261867Y0039787D01*
X0262026Y0039795D01*
X0262184Y0039799D01*
X0262342Y0039799D01*
X0262500Y0039795D01*
X0262659Y0039787D01*
X0262816Y0039775D01*
X0262974Y0039759D01*
X0263131Y0039739D01*
X0263287Y0039715D01*
X0263443Y0039687D01*
X0263598Y0039656D01*
X0263753Y0039620D01*
X0263906Y0039581D01*
X0264058Y0039538D01*
X0264209Y0039491D01*
X0264359Y0039440D01*
X0264508Y0039385D01*
X0264655Y0039327D01*
X0264801Y0039265D01*
X0264945Y0039200D01*
X0265087Y0039130D01*
X0265228Y0039058D01*
X0265367Y0038981D01*
X0265503Y0038902D01*
X0265638Y0038818D01*
X0265771Y0038732D01*
X0265901Y0038642D01*
X0266029Y0038549D01*
X0266155Y0038453D01*
X0266278Y0038353D01*
X0266399Y0038251D01*
X0266517Y0038146D01*
X0266632Y0038037D01*
X0266745Y0037926D01*
X0266855Y0037812D01*
X0266962Y0037695D01*
X0267066Y0037576D01*
X0267167Y0037454D01*
X0267264Y0037329D01*
X0267359Y0037202D01*
X0267450Y0037073D01*
X0267539Y0036942D01*
X0267623Y0036808D01*
X0267705Y0036672D01*
X0267783Y0036535D01*
X0267857Y0036395D01*
X0267928Y0036253D01*
X0267996Y0036110D01*
X0268060Y0035965D01*
X0268120Y0035819D01*
X0268176Y0035671D01*
X0268229Y0035522D01*
X0268278Y0035371D01*
X0268323Y0035219D01*
X0268364Y0035066D01*
X0268402Y0034913D01*
X0268435Y0034758D01*
X0268465Y0034602D01*
X0268491Y0034446D01*
X0268512Y0034289D01*
X0268530Y0034132D01*
X0268544Y0033974D01*
X0268554Y0033816D01*
X0268560Y0033658D01*
X0268562Y0033500D01*
X0268560Y0033342D01*
X0268554Y0033184D01*
X0268544Y0033026D01*
X0268530Y0032868D01*
X0268512Y0032711D01*
X0268491Y0032554D01*
X0268465Y0032398D01*
X0268435Y0032242D01*
X0268402Y0032087D01*
X0268364Y0031934D01*
X0268323Y0031781D01*
X0268278Y0031629D01*
X0268229Y0031478D01*
X0268176Y0031329D01*
X0268120Y0031181D01*
X0268060Y0031035D01*
X0267996Y0030890D01*
X0267928Y0030747D01*
X0267857Y0030605D01*
X0267783Y0030465D01*
X0267705Y0030328D01*
X0267623Y0030192D01*
X0267539Y0030058D01*
X0267450Y0029927D01*
X0267359Y0029798D01*
X0267264Y0029671D01*
X0267167Y0029546D01*
X0267066Y0029424D01*
X0266962Y0029305D01*
X0266855Y0029188D01*
X0266745Y0029074D01*
X0266632Y0028963D01*
X0266517Y0028854D01*
X0266399Y0028749D01*
X0266278Y0028647D01*
X0266155Y0028547D01*
X0266029Y0028451D01*
X0265901Y0028358D01*
X0265771Y0028268D01*
X0265638Y0028182D01*
X0265503Y0028098D01*
X0265367Y0028019D01*
X0265228Y0027942D01*
X0265087Y0027870D01*
X0264945Y0027800D01*
X0264801Y0027735D01*
X0264655Y0027673D01*
X0264508Y0027615D01*
X0264359Y0027560D01*
X0264209Y0027509D01*
X0264058Y0027462D01*
X0263906Y0027419D01*
X0263753Y0027380D01*
X0263598Y0027344D01*
X0263443Y0027313D01*
X0263287Y0027285D01*
X0263131Y0027261D01*
X0262974Y0027241D01*
X0262816Y0027225D01*
X0262659Y0027213D01*
X0262500Y0027205D01*
X0262342Y0027201D01*
X0262184Y0027201D01*
X0262026Y0027205D01*
X0261867Y0027213D01*
X0261710Y0027225D01*
X0261552Y0027241D01*
X0261395Y0027261D01*
X0261239Y0027285D01*
X0261083Y0027313D01*
X0260928Y0027344D01*
X0260773Y0027380D01*
X0260620Y0027419D01*
X0260468Y0027462D01*
X0260317Y0027509D01*
X0260167Y0027560D01*
X0260018Y0027615D01*
X0259871Y0027673D01*
X0259725Y0027735D01*
X0259581Y0027800D01*
X0259439Y0027870D01*
X0259298Y0027942D01*
X0259159Y0028019D01*
X0259023Y0028098D01*
X0258888Y0028182D01*
X0258755Y0028268D01*
X0258625Y0028358D01*
X0258497Y0028451D01*
X0258371Y0028547D01*
X0258248Y0028647D01*
X0258127Y0028749D01*
X0258009Y0028854D01*
X0257894Y0028963D01*
X0257781Y0029074D01*
X0257671Y0029188D01*
X0257564Y0029305D01*
X0257460Y0029424D01*
X0257359Y0029546D01*
X0257262Y0029671D01*
X0257167Y0029798D01*
X0257076Y0029927D01*
X0256987Y0030058D01*
X0256903Y0030192D01*
X0256821Y0030328D01*
X0256743Y0030465D01*
X0256669Y0030605D01*
X0256598Y0030747D01*
X0256530Y0030890D01*
X0256466Y0031035D01*
X0256406Y0031181D01*
X0256350Y0031329D01*
X0256297Y0031478D01*
X0256248Y0031629D01*
X0256203Y0031781D01*
X0256162Y0031934D01*
X0256124Y0032087D01*
X0256091Y0032242D01*
X0256061Y0032398D01*
X0256035Y0032554D01*
X0256014Y0032711D01*
X0255996Y0032868D01*
X0255982Y0033026D01*
X0255972Y0033184D01*
X0255966Y0033342D01*
X0255964Y0033500D01*
X0262263Y0025500D02*
X0262505Y0025503D01*
X0262746Y0025512D01*
X0262987Y0025526D01*
X0263228Y0025547D01*
X0263468Y0025573D01*
X0263708Y0025605D01*
X0263947Y0025643D01*
X0264184Y0025686D01*
X0264421Y0025736D01*
X0264656Y0025791D01*
X0264890Y0025851D01*
X0265122Y0025918D01*
X0265353Y0025989D01*
X0265582Y0026067D01*
X0265809Y0026150D01*
X0266034Y0026238D01*
X0266257Y0026332D01*
X0266477Y0026431D01*
X0266695Y0026536D01*
X0266910Y0026645D01*
X0267123Y0026760D01*
X0267333Y0026880D01*
X0267539Y0027005D01*
X0267743Y0027135D01*
X0267944Y0027270D01*
X0268141Y0027410D01*
X0268335Y0027554D01*
X0268525Y0027703D01*
X0268711Y0027857D01*
X0268894Y0028015D01*
X0269073Y0028177D01*
X0269248Y0028344D01*
X0269419Y0028515D01*
X0269586Y0028690D01*
X0269748Y0028869D01*
X0269906Y0029052D01*
X0270060Y0029238D01*
X0270209Y0029428D01*
X0270353Y0029622D01*
X0270493Y0029819D01*
X0270628Y0030020D01*
X0270758Y0030224D01*
X0270883Y0030430D01*
X0271003Y0030640D01*
X0271118Y0030853D01*
X0271227Y0031068D01*
X0271332Y0031286D01*
X0271431Y0031506D01*
X0271525Y0031729D01*
X0271613Y0031954D01*
X0271696Y0032181D01*
X0271774Y0032410D01*
X0271845Y0032641D01*
X0271912Y0032873D01*
X0271972Y0033107D01*
X0272027Y0033342D01*
X0272077Y0033579D01*
X0272120Y0033816D01*
X0272158Y0034055D01*
X0272190Y0034295D01*
X0272216Y0034535D01*
X0272237Y0034776D01*
X0272251Y0035017D01*
X0272260Y0035258D01*
X0272263Y0035500D01*
X0272263Y0105500D01*
X0272260Y0105742D01*
X0272251Y0105983D01*
X0272237Y0106224D01*
X0272216Y0106465D01*
X0272190Y0106705D01*
X0272158Y0106945D01*
X0272120Y0107184D01*
X0272077Y0107421D01*
X0272027Y0107658D01*
X0271972Y0107893D01*
X0271912Y0108127D01*
X0271845Y0108359D01*
X0271774Y0108590D01*
X0271696Y0108819D01*
X0271613Y0109046D01*
X0271525Y0109271D01*
X0271431Y0109494D01*
X0271332Y0109714D01*
X0271227Y0109932D01*
X0271118Y0110147D01*
X0271003Y0110360D01*
X0270883Y0110570D01*
X0270758Y0110776D01*
X0270628Y0110980D01*
X0270493Y0111181D01*
X0270353Y0111378D01*
X0270209Y0111572D01*
X0270060Y0111762D01*
X0269906Y0111948D01*
X0269748Y0112131D01*
X0269586Y0112310D01*
X0269419Y0112485D01*
X0269248Y0112656D01*
X0269073Y0112823D01*
X0268894Y0112985D01*
X0268711Y0113143D01*
X0268525Y0113297D01*
X0268335Y0113446D01*
X0268141Y0113590D01*
X0267944Y0113730D01*
X0267743Y0113865D01*
X0267539Y0113995D01*
X0267333Y0114120D01*
X0267123Y0114240D01*
X0266910Y0114355D01*
X0266695Y0114464D01*
X0266477Y0114569D01*
X0266257Y0114668D01*
X0266034Y0114762D01*
X0265809Y0114850D01*
X0265582Y0114933D01*
X0265353Y0115011D01*
X0265122Y0115082D01*
X0264890Y0115149D01*
X0264656Y0115209D01*
X0264421Y0115264D01*
X0264184Y0115314D01*
X0263947Y0115357D01*
X0263708Y0115395D01*
X0263468Y0115427D01*
X0263228Y0115453D01*
X0262987Y0115474D01*
X0262746Y0115488D01*
X0262505Y0115497D01*
X0262263Y0115500D01*
X0222322Y0115500D01*
X0221960Y0115504D01*
X0221597Y0115518D01*
X0221235Y0115539D01*
X0220874Y0115570D01*
X0220514Y0115609D01*
X0220155Y0115657D01*
X0219797Y0115714D01*
X0219440Y0115779D01*
X0219085Y0115853D01*
X0218732Y0115936D01*
X0218381Y0116027D01*
X0218033Y0116126D01*
X0217687Y0116234D01*
X0217343Y0116350D01*
X0217003Y0116475D01*
X0216666Y0116607D01*
X0216332Y0116748D01*
X0216001Y0116897D01*
X0215674Y0117054D01*
X0215351Y0117218D01*
X0215032Y0117390D01*
X0214718Y0117570D01*
X0214407Y0117758D01*
X0214102Y0117953D01*
X0213801Y0118155D01*
X0213505Y0118365D01*
X0213215Y0118581D01*
X0212929Y0118805D01*
X0212649Y0119035D01*
X0212375Y0119272D01*
X0212107Y0119516D01*
X0211844Y0119766D01*
X0211588Y0120022D01*
X0211338Y0120285D01*
X0211094Y0120553D01*
X0210857Y0120827D01*
X0210627Y0121107D01*
X0210403Y0121393D01*
X0210187Y0121683D01*
X0209977Y0121979D01*
X0209775Y0122280D01*
X0209580Y0122585D01*
X0209392Y0122896D01*
X0209212Y0123210D01*
X0209040Y0123529D01*
X0208876Y0123852D01*
X0208719Y0124179D01*
X0208570Y0124510D01*
X0208429Y0124844D01*
X0208297Y0125181D01*
X0208172Y0125521D01*
X0208056Y0125865D01*
X0207948Y0126211D01*
X0207849Y0126559D01*
X0207758Y0126910D01*
X0207675Y0127263D01*
X0207601Y0127618D01*
X0207536Y0127975D01*
X0207479Y0128333D01*
X0207431Y0128692D01*
X0207392Y0129052D01*
X0207361Y0129413D01*
X0207340Y0129775D01*
X0207326Y0130138D01*
X0207322Y0130500D01*
X0207318Y0130862D01*
X0207304Y0131225D01*
X0207283Y0131587D01*
X0207252Y0131948D01*
X0207213Y0132308D01*
X0207165Y0132667D01*
X0207108Y0133025D01*
X0207043Y0133382D01*
X0206969Y0133737D01*
X0206886Y0134090D01*
X0206795Y0134441D01*
X0206696Y0134789D01*
X0206588Y0135135D01*
X0206472Y0135479D01*
X0206347Y0135819D01*
X0206215Y0136156D01*
X0206074Y0136490D01*
X0205925Y0136821D01*
X0205768Y0137148D01*
X0205604Y0137471D01*
X0205432Y0137790D01*
X0205252Y0138104D01*
X0205064Y0138415D01*
X0204869Y0138720D01*
X0204667Y0139021D01*
X0204457Y0139317D01*
X0204241Y0139607D01*
X0204017Y0139893D01*
X0203787Y0140173D01*
X0203550Y0140447D01*
X0203306Y0140715D01*
X0203056Y0140978D01*
X0202800Y0141234D01*
X0202537Y0141484D01*
X0202269Y0141728D01*
X0201995Y0141965D01*
X0201715Y0142195D01*
X0201429Y0142419D01*
X0201139Y0142635D01*
X0200843Y0142845D01*
X0200542Y0143047D01*
X0200237Y0143242D01*
X0199926Y0143430D01*
X0199612Y0143610D01*
X0199293Y0143782D01*
X0198970Y0143946D01*
X0198643Y0144103D01*
X0198312Y0144252D01*
X0197978Y0144393D01*
X0197641Y0144525D01*
X0197301Y0144650D01*
X0196957Y0144766D01*
X0196611Y0144874D01*
X0196263Y0144973D01*
X0195912Y0145064D01*
X0195559Y0145147D01*
X0195204Y0145221D01*
X0194847Y0145286D01*
X0194489Y0145343D01*
X0194130Y0145391D01*
X0193770Y0145430D01*
X0193409Y0145461D01*
X0193047Y0145482D01*
X0192684Y0145496D01*
X0192322Y0145500D01*
X0137322Y0145500D01*
X0128956Y0131500D02*
X0128959Y0131705D01*
X0128966Y0131911D01*
X0128979Y0132115D01*
X0128996Y0132320D01*
X0129019Y0132524D01*
X0129047Y0132728D01*
X0129079Y0132930D01*
X0129117Y0133132D01*
X0129159Y0133333D01*
X0129207Y0133533D01*
X0129259Y0133731D01*
X0129316Y0133929D01*
X0129378Y0134124D01*
X0129445Y0134318D01*
X0129517Y0134511D01*
X0129593Y0134702D01*
X0129674Y0134890D01*
X0129759Y0135077D01*
X0129849Y0135261D01*
X0129944Y0135444D01*
X0130043Y0135624D01*
X0130146Y0135801D01*
X0130254Y0135976D01*
X0130366Y0136148D01*
X0130482Y0136317D01*
X0130602Y0136484D01*
X0130727Y0136647D01*
X0130855Y0136807D01*
X0130987Y0136964D01*
X0131123Y0137118D01*
X0131263Y0137269D01*
X0131406Y0137416D01*
X0131553Y0137559D01*
X0131704Y0137699D01*
X0131858Y0137835D01*
X0132015Y0137967D01*
X0132175Y0138095D01*
X0132338Y0138220D01*
X0132505Y0138340D01*
X0132674Y0138456D01*
X0132846Y0138568D01*
X0133021Y0138676D01*
X0133198Y0138779D01*
X0133378Y0138878D01*
X0133561Y0138973D01*
X0133745Y0139063D01*
X0133932Y0139148D01*
X0134120Y0139229D01*
X0134311Y0139305D01*
X0134504Y0139377D01*
X0134698Y0139444D01*
X0134893Y0139506D01*
X0135091Y0139563D01*
X0135289Y0139615D01*
X0135489Y0139663D01*
X0135690Y0139705D01*
X0135892Y0139743D01*
X0136094Y0139775D01*
X0136298Y0139803D01*
X0136502Y0139826D01*
X0136707Y0139843D01*
X0136911Y0139856D01*
X0137117Y0139863D01*
X0137322Y0139866D01*
X0137527Y0139863D01*
X0137733Y0139856D01*
X0137937Y0139843D01*
X0138142Y0139826D01*
X0138346Y0139803D01*
X0138550Y0139775D01*
X0138752Y0139743D01*
X0138954Y0139705D01*
X0139155Y0139663D01*
X0139355Y0139615D01*
X0139553Y0139563D01*
X0139751Y0139506D01*
X0139946Y0139444D01*
X0140140Y0139377D01*
X0140333Y0139305D01*
X0140524Y0139229D01*
X0140712Y0139148D01*
X0140899Y0139063D01*
X0141083Y0138973D01*
X0141266Y0138878D01*
X0141446Y0138779D01*
X0141623Y0138676D01*
X0141798Y0138568D01*
X0141970Y0138456D01*
X0142139Y0138340D01*
X0142306Y0138220D01*
X0142469Y0138095D01*
X0142629Y0137967D01*
X0142786Y0137835D01*
X0142940Y0137699D01*
X0143091Y0137559D01*
X0143238Y0137416D01*
X0143381Y0137269D01*
X0143521Y0137118D01*
X0143657Y0136964D01*
X0143789Y0136807D01*
X0143917Y0136647D01*
X0144042Y0136484D01*
X0144162Y0136317D01*
X0144278Y0136148D01*
X0144390Y0135976D01*
X0144498Y0135801D01*
X0144601Y0135624D01*
X0144700Y0135444D01*
X0144795Y0135261D01*
X0144885Y0135077D01*
X0144970Y0134890D01*
X0145051Y0134702D01*
X0145127Y0134511D01*
X0145199Y0134318D01*
X0145266Y0134124D01*
X0145328Y0133929D01*
X0145385Y0133731D01*
X0145437Y0133533D01*
X0145485Y0133333D01*
X0145527Y0133132D01*
X0145565Y0132930D01*
X0145597Y0132728D01*
X0145625Y0132524D01*
X0145648Y0132320D01*
X0145665Y0132115D01*
X0145678Y0131911D01*
X0145685Y0131705D01*
X0145688Y0131500D01*
X0145685Y0131295D01*
X0145678Y0131089D01*
X0145665Y0130885D01*
X0145648Y0130680D01*
X0145625Y0130476D01*
X0145597Y0130272D01*
X0145565Y0130070D01*
X0145527Y0129868D01*
X0145485Y0129667D01*
X0145437Y0129467D01*
X0145385Y0129269D01*
X0145328Y0129071D01*
X0145266Y0128876D01*
X0145199Y0128682D01*
X0145127Y0128489D01*
X0145051Y0128298D01*
X0144970Y0128110D01*
X0144885Y0127923D01*
X0144795Y0127739D01*
X0144700Y0127556D01*
X0144601Y0127376D01*
X0144498Y0127199D01*
X0144390Y0127024D01*
X0144278Y0126852D01*
X0144162Y0126683D01*
X0144042Y0126516D01*
X0143917Y0126353D01*
X0143789Y0126193D01*
X0143657Y0126036D01*
X0143521Y0125882D01*
X0143381Y0125731D01*
X0143238Y0125584D01*
X0143091Y0125441D01*
X0142940Y0125301D01*
X0142786Y0125165D01*
X0142629Y0125033D01*
X0142469Y0124905D01*
X0142306Y0124780D01*
X0142139Y0124660D01*
X0141970Y0124544D01*
X0141798Y0124432D01*
X0141623Y0124324D01*
X0141446Y0124221D01*
X0141266Y0124122D01*
X0141083Y0124027D01*
X0140899Y0123937D01*
X0140712Y0123852D01*
X0140524Y0123771D01*
X0140333Y0123695D01*
X0140140Y0123623D01*
X0139946Y0123556D01*
X0139751Y0123494D01*
X0139553Y0123437D01*
X0139355Y0123385D01*
X0139155Y0123337D01*
X0138954Y0123295D01*
X0138752Y0123257D01*
X0138550Y0123225D01*
X0138346Y0123197D01*
X0138142Y0123174D01*
X0137937Y0123157D01*
X0137733Y0123144D01*
X0137527Y0123137D01*
X0137322Y0123134D01*
X0137117Y0123137D01*
X0136911Y0123144D01*
X0136707Y0123157D01*
X0136502Y0123174D01*
X0136298Y0123197D01*
X0136094Y0123225D01*
X0135892Y0123257D01*
X0135690Y0123295D01*
X0135489Y0123337D01*
X0135289Y0123385D01*
X0135091Y0123437D01*
X0134893Y0123494D01*
X0134698Y0123556D01*
X0134504Y0123623D01*
X0134311Y0123695D01*
X0134120Y0123771D01*
X0133932Y0123852D01*
X0133745Y0123937D01*
X0133561Y0124027D01*
X0133378Y0124122D01*
X0133198Y0124221D01*
X0133021Y0124324D01*
X0132846Y0124432D01*
X0132674Y0124544D01*
X0132505Y0124660D01*
X0132338Y0124780D01*
X0132175Y0124905D01*
X0132015Y0125033D01*
X0131858Y0125165D01*
X0131704Y0125301D01*
X0131553Y0125441D01*
X0131406Y0125584D01*
X0131263Y0125731D01*
X0131123Y0125882D01*
X0130987Y0126036D01*
X0130855Y0126193D01*
X0130727Y0126353D01*
X0130602Y0126516D01*
X0130482Y0126683D01*
X0130366Y0126852D01*
X0130254Y0127024D01*
X0130146Y0127199D01*
X0130043Y0127376D01*
X0129944Y0127556D01*
X0129849Y0127739D01*
X0129759Y0127923D01*
X0129674Y0128110D01*
X0129593Y0128298D01*
X0129517Y0128489D01*
X0129445Y0128682D01*
X0129378Y0128876D01*
X0129316Y0129071D01*
X0129259Y0129269D01*
X0129207Y0129467D01*
X0129159Y0129667D01*
X0129117Y0129868D01*
X0129079Y0130070D01*
X0129047Y0130272D01*
X0129019Y0130476D01*
X0128996Y0130680D01*
X0128979Y0130885D01*
X0128966Y0131089D01*
X0128959Y0131295D01*
X0128956Y0131500D01*
X0122322Y0130500D02*
X0122326Y0130862D01*
X0122340Y0131225D01*
X0122361Y0131587D01*
X0122392Y0131948D01*
X0122431Y0132308D01*
X0122479Y0132667D01*
X0122536Y0133025D01*
X0122601Y0133382D01*
X0122675Y0133737D01*
X0122758Y0134090D01*
X0122849Y0134441D01*
X0122948Y0134789D01*
X0123056Y0135135D01*
X0123172Y0135479D01*
X0123297Y0135819D01*
X0123429Y0136156D01*
X0123570Y0136490D01*
X0123719Y0136821D01*
X0123876Y0137148D01*
X0124040Y0137471D01*
X0124212Y0137790D01*
X0124392Y0138104D01*
X0124580Y0138415D01*
X0124775Y0138720D01*
X0124977Y0139021D01*
X0125187Y0139317D01*
X0125403Y0139607D01*
X0125627Y0139893D01*
X0125857Y0140173D01*
X0126094Y0140447D01*
X0126338Y0140715D01*
X0126588Y0140978D01*
X0126844Y0141234D01*
X0127107Y0141484D01*
X0127375Y0141728D01*
X0127649Y0141965D01*
X0127929Y0142195D01*
X0128215Y0142419D01*
X0128505Y0142635D01*
X0128801Y0142845D01*
X0129102Y0143047D01*
X0129407Y0143242D01*
X0129718Y0143430D01*
X0130032Y0143610D01*
X0130351Y0143782D01*
X0130674Y0143946D01*
X0131001Y0144103D01*
X0131332Y0144252D01*
X0131666Y0144393D01*
X0132003Y0144525D01*
X0132343Y0144650D01*
X0132687Y0144766D01*
X0133033Y0144874D01*
X0133381Y0144973D01*
X0133732Y0145064D01*
X0134085Y0145147D01*
X0134440Y0145221D01*
X0134797Y0145286D01*
X0135155Y0145343D01*
X0135514Y0145391D01*
X0135874Y0145430D01*
X0136235Y0145461D01*
X0136597Y0145482D01*
X0136960Y0145496D01*
X0137322Y0145500D01*
X0122322Y0130500D02*
X0122318Y0130138D01*
X0122304Y0129775D01*
X0122283Y0129413D01*
X0122252Y0129052D01*
X0122213Y0128692D01*
X0122165Y0128333D01*
X0122108Y0127975D01*
X0122043Y0127618D01*
X0121969Y0127263D01*
X0121886Y0126910D01*
X0121795Y0126559D01*
X0121696Y0126211D01*
X0121588Y0125865D01*
X0121472Y0125521D01*
X0121347Y0125181D01*
X0121215Y0124844D01*
X0121074Y0124510D01*
X0120925Y0124179D01*
X0120768Y0123852D01*
X0120604Y0123529D01*
X0120432Y0123210D01*
X0120252Y0122896D01*
X0120064Y0122585D01*
X0119869Y0122280D01*
X0119667Y0121979D01*
X0119457Y0121683D01*
X0119241Y0121393D01*
X0119017Y0121107D01*
X0118787Y0120827D01*
X0118550Y0120553D01*
X0118306Y0120285D01*
X0118056Y0120022D01*
X0117800Y0119766D01*
X0117537Y0119516D01*
X0117269Y0119272D01*
X0116995Y0119035D01*
X0116715Y0118805D01*
X0116429Y0118581D01*
X0116139Y0118365D01*
X0115843Y0118155D01*
X0115542Y0117953D01*
X0115237Y0117758D01*
X0114926Y0117570D01*
X0114612Y0117390D01*
X0114293Y0117218D01*
X0113970Y0117054D01*
X0113643Y0116897D01*
X0113312Y0116748D01*
X0112978Y0116607D01*
X0112641Y0116475D01*
X0112301Y0116350D01*
X0111957Y0116234D01*
X0111611Y0116126D01*
X0111263Y0116027D01*
X0110912Y0115936D01*
X0110559Y0115853D01*
X0110204Y0115779D01*
X0109847Y0115714D01*
X0109489Y0115657D01*
X0109130Y0115609D01*
X0108770Y0115570D01*
X0108409Y0115539D01*
X0108047Y0115518D01*
X0107684Y0115504D01*
X0107322Y0115500D01*
X0032334Y0115500D01*
X0032263Y0115500D02*
X0012263Y0115500D01*
X0012021Y0115497D01*
X0011780Y0115488D01*
X0011539Y0115474D01*
X0011298Y0115453D01*
X0011058Y0115427D01*
X0010818Y0115395D01*
X0010579Y0115357D01*
X0010342Y0115314D01*
X0010105Y0115264D01*
X0009870Y0115209D01*
X0009636Y0115149D01*
X0009404Y0115082D01*
X0009173Y0115011D01*
X0008944Y0114933D01*
X0008717Y0114850D01*
X0008492Y0114762D01*
X0008269Y0114668D01*
X0008049Y0114569D01*
X0007831Y0114464D01*
X0007616Y0114355D01*
X0007403Y0114240D01*
X0007193Y0114120D01*
X0006987Y0113995D01*
X0006783Y0113865D01*
X0006582Y0113730D01*
X0006385Y0113590D01*
X0006191Y0113446D01*
X0006001Y0113297D01*
X0005815Y0113143D01*
X0005632Y0112985D01*
X0005453Y0112823D01*
X0005278Y0112656D01*
X0005107Y0112485D01*
X0004940Y0112310D01*
X0004778Y0112131D01*
X0004620Y0111948D01*
X0004466Y0111762D01*
X0004317Y0111572D01*
X0004173Y0111378D01*
X0004033Y0111181D01*
X0003898Y0110980D01*
X0003768Y0110776D01*
X0003643Y0110570D01*
X0003523Y0110360D01*
X0003408Y0110147D01*
X0003299Y0109932D01*
X0003194Y0109714D01*
X0003095Y0109494D01*
X0003001Y0109271D01*
X0002913Y0109046D01*
X0002830Y0108819D01*
X0002752Y0108590D01*
X0002681Y0108359D01*
X0002614Y0108127D01*
X0002554Y0107893D01*
X0002499Y0107658D01*
X0002449Y0107421D01*
X0002406Y0107184D01*
X0002368Y0106945D01*
X0002336Y0106705D01*
X0002310Y0106465D01*
X0002289Y0106224D01*
X0002275Y0105983D01*
X0002266Y0105742D01*
X0002263Y0105500D01*
X0002263Y0035500D01*
X0002266Y0035258D01*
X0002275Y0035017D01*
X0002289Y0034776D01*
X0002310Y0034535D01*
X0002336Y0034295D01*
X0002368Y0034055D01*
X0002406Y0033816D01*
X0002449Y0033579D01*
X0002499Y0033342D01*
X0002554Y0033107D01*
X0002614Y0032873D01*
X0002681Y0032641D01*
X0002752Y0032410D01*
X0002830Y0032181D01*
X0002913Y0031954D01*
X0003001Y0031729D01*
X0003095Y0031506D01*
X0003194Y0031286D01*
X0003299Y0031068D01*
X0003408Y0030853D01*
X0003523Y0030640D01*
X0003643Y0030430D01*
X0003768Y0030224D01*
X0003898Y0030020D01*
X0004033Y0029819D01*
X0004173Y0029622D01*
X0004317Y0029428D01*
X0004466Y0029238D01*
X0004620Y0029052D01*
X0004778Y0028869D01*
X0004940Y0028690D01*
X0005107Y0028515D01*
X0005278Y0028344D01*
X0005453Y0028177D01*
X0005632Y0028015D01*
X0005815Y0027857D01*
X0006001Y0027703D01*
X0006191Y0027554D01*
X0006385Y0027410D01*
X0006582Y0027270D01*
X0006783Y0027135D01*
X0006987Y0027005D01*
X0007193Y0026880D01*
X0007403Y0026760D01*
X0007616Y0026645D01*
X0007831Y0026536D01*
X0008049Y0026431D01*
X0008269Y0026332D01*
X0008492Y0026238D01*
X0008717Y0026150D01*
X0008944Y0026067D01*
X0009173Y0025989D01*
X0009404Y0025918D01*
X0009636Y0025851D01*
X0009870Y0025791D01*
X0010105Y0025736D01*
X0010342Y0025686D01*
X0010579Y0025643D01*
X0010818Y0025605D01*
X0011058Y0025573D01*
X0011298Y0025547D01*
X0011539Y0025526D01*
X0011780Y0025512D01*
X0012021Y0025503D01*
X0012263Y0025500D01*
X0183956Y0131500D02*
X0183959Y0131705D01*
X0183966Y0131911D01*
X0183979Y0132115D01*
X0183996Y0132320D01*
X0184019Y0132524D01*
X0184047Y0132728D01*
X0184079Y0132930D01*
X0184117Y0133132D01*
X0184159Y0133333D01*
X0184207Y0133533D01*
X0184259Y0133731D01*
X0184316Y0133929D01*
X0184378Y0134124D01*
X0184445Y0134318D01*
X0184517Y0134511D01*
X0184593Y0134702D01*
X0184674Y0134890D01*
X0184759Y0135077D01*
X0184849Y0135261D01*
X0184944Y0135444D01*
X0185043Y0135624D01*
X0185146Y0135801D01*
X0185254Y0135976D01*
X0185366Y0136148D01*
X0185482Y0136317D01*
X0185602Y0136484D01*
X0185727Y0136647D01*
X0185855Y0136807D01*
X0185987Y0136964D01*
X0186123Y0137118D01*
X0186263Y0137269D01*
X0186406Y0137416D01*
X0186553Y0137559D01*
X0186704Y0137699D01*
X0186858Y0137835D01*
X0187015Y0137967D01*
X0187175Y0138095D01*
X0187338Y0138220D01*
X0187505Y0138340D01*
X0187674Y0138456D01*
X0187846Y0138568D01*
X0188021Y0138676D01*
X0188198Y0138779D01*
X0188378Y0138878D01*
X0188561Y0138973D01*
X0188745Y0139063D01*
X0188932Y0139148D01*
X0189120Y0139229D01*
X0189311Y0139305D01*
X0189504Y0139377D01*
X0189698Y0139444D01*
X0189893Y0139506D01*
X0190091Y0139563D01*
X0190289Y0139615D01*
X0190489Y0139663D01*
X0190690Y0139705D01*
X0190892Y0139743D01*
X0191094Y0139775D01*
X0191298Y0139803D01*
X0191502Y0139826D01*
X0191707Y0139843D01*
X0191911Y0139856D01*
X0192117Y0139863D01*
X0192322Y0139866D01*
X0192527Y0139863D01*
X0192733Y0139856D01*
X0192937Y0139843D01*
X0193142Y0139826D01*
X0193346Y0139803D01*
X0193550Y0139775D01*
X0193752Y0139743D01*
X0193954Y0139705D01*
X0194155Y0139663D01*
X0194355Y0139615D01*
X0194553Y0139563D01*
X0194751Y0139506D01*
X0194946Y0139444D01*
X0195140Y0139377D01*
X0195333Y0139305D01*
X0195524Y0139229D01*
X0195712Y0139148D01*
X0195899Y0139063D01*
X0196083Y0138973D01*
X0196266Y0138878D01*
X0196446Y0138779D01*
X0196623Y0138676D01*
X0196798Y0138568D01*
X0196970Y0138456D01*
X0197139Y0138340D01*
X0197306Y0138220D01*
X0197469Y0138095D01*
X0197629Y0137967D01*
X0197786Y0137835D01*
X0197940Y0137699D01*
X0198091Y0137559D01*
X0198238Y0137416D01*
X0198381Y0137269D01*
X0198521Y0137118D01*
X0198657Y0136964D01*
X0198789Y0136807D01*
X0198917Y0136647D01*
X0199042Y0136484D01*
X0199162Y0136317D01*
X0199278Y0136148D01*
X0199390Y0135976D01*
X0199498Y0135801D01*
X0199601Y0135624D01*
X0199700Y0135444D01*
X0199795Y0135261D01*
X0199885Y0135077D01*
X0199970Y0134890D01*
X0200051Y0134702D01*
X0200127Y0134511D01*
X0200199Y0134318D01*
X0200266Y0134124D01*
X0200328Y0133929D01*
X0200385Y0133731D01*
X0200437Y0133533D01*
X0200485Y0133333D01*
X0200527Y0133132D01*
X0200565Y0132930D01*
X0200597Y0132728D01*
X0200625Y0132524D01*
X0200648Y0132320D01*
X0200665Y0132115D01*
X0200678Y0131911D01*
X0200685Y0131705D01*
X0200688Y0131500D01*
X0200685Y0131295D01*
X0200678Y0131089D01*
X0200665Y0130885D01*
X0200648Y0130680D01*
X0200625Y0130476D01*
X0200597Y0130272D01*
X0200565Y0130070D01*
X0200527Y0129868D01*
X0200485Y0129667D01*
X0200437Y0129467D01*
X0200385Y0129269D01*
X0200328Y0129071D01*
X0200266Y0128876D01*
X0200199Y0128682D01*
X0200127Y0128489D01*
X0200051Y0128298D01*
X0199970Y0128110D01*
X0199885Y0127923D01*
X0199795Y0127739D01*
X0199700Y0127556D01*
X0199601Y0127376D01*
X0199498Y0127199D01*
X0199390Y0127024D01*
X0199278Y0126852D01*
X0199162Y0126683D01*
X0199042Y0126516D01*
X0198917Y0126353D01*
X0198789Y0126193D01*
X0198657Y0126036D01*
X0198521Y0125882D01*
X0198381Y0125731D01*
X0198238Y0125584D01*
X0198091Y0125441D01*
X0197940Y0125301D01*
X0197786Y0125165D01*
X0197629Y0125033D01*
X0197469Y0124905D01*
X0197306Y0124780D01*
X0197139Y0124660D01*
X0196970Y0124544D01*
X0196798Y0124432D01*
X0196623Y0124324D01*
X0196446Y0124221D01*
X0196266Y0124122D01*
X0196083Y0124027D01*
X0195899Y0123937D01*
X0195712Y0123852D01*
X0195524Y0123771D01*
X0195333Y0123695D01*
X0195140Y0123623D01*
X0194946Y0123556D01*
X0194751Y0123494D01*
X0194553Y0123437D01*
X0194355Y0123385D01*
X0194155Y0123337D01*
X0193954Y0123295D01*
X0193752Y0123257D01*
X0193550Y0123225D01*
X0193346Y0123197D01*
X0193142Y0123174D01*
X0192937Y0123157D01*
X0192733Y0123144D01*
X0192527Y0123137D01*
X0192322Y0123134D01*
X0192117Y0123137D01*
X0191911Y0123144D01*
X0191707Y0123157D01*
X0191502Y0123174D01*
X0191298Y0123197D01*
X0191094Y0123225D01*
X0190892Y0123257D01*
X0190690Y0123295D01*
X0190489Y0123337D01*
X0190289Y0123385D01*
X0190091Y0123437D01*
X0189893Y0123494D01*
X0189698Y0123556D01*
X0189504Y0123623D01*
X0189311Y0123695D01*
X0189120Y0123771D01*
X0188932Y0123852D01*
X0188745Y0123937D01*
X0188561Y0124027D01*
X0188378Y0124122D01*
X0188198Y0124221D01*
X0188021Y0124324D01*
X0187846Y0124432D01*
X0187674Y0124544D01*
X0187505Y0124660D01*
X0187338Y0124780D01*
X0187175Y0124905D01*
X0187015Y0125033D01*
X0186858Y0125165D01*
X0186704Y0125301D01*
X0186553Y0125441D01*
X0186406Y0125584D01*
X0186263Y0125731D01*
X0186123Y0125882D01*
X0185987Y0126036D01*
X0185855Y0126193D01*
X0185727Y0126353D01*
X0185602Y0126516D01*
X0185482Y0126683D01*
X0185366Y0126852D01*
X0185254Y0127024D01*
X0185146Y0127199D01*
X0185043Y0127376D01*
X0184944Y0127556D01*
X0184849Y0127739D01*
X0184759Y0127923D01*
X0184674Y0128110D01*
X0184593Y0128298D01*
X0184517Y0128489D01*
X0184445Y0128682D01*
X0184378Y0128876D01*
X0184316Y0129071D01*
X0184259Y0129269D01*
X0184207Y0129467D01*
X0184159Y0129667D01*
X0184117Y0129868D01*
X0184079Y0130070D01*
X0184047Y0130272D01*
X0184019Y0130476D01*
X0183996Y0130680D01*
X0183979Y0130885D01*
X0183966Y0131089D01*
X0183959Y0131295D01*
X0183956Y0131500D01*
X0210964Y0033500D02*
X0210966Y0033658D01*
X0210972Y0033816D01*
X0210982Y0033974D01*
X0210996Y0034132D01*
X0211014Y0034289D01*
X0211035Y0034446D01*
X0211061Y0034602D01*
X0211091Y0034758D01*
X0211124Y0034913D01*
X0211162Y0035066D01*
X0211203Y0035219D01*
X0211248Y0035371D01*
X0211297Y0035522D01*
X0211350Y0035671D01*
X0211406Y0035819D01*
X0211466Y0035965D01*
X0211530Y0036110D01*
X0211598Y0036253D01*
X0211669Y0036395D01*
X0211743Y0036535D01*
X0211821Y0036672D01*
X0211903Y0036808D01*
X0211987Y0036942D01*
X0212076Y0037073D01*
X0212167Y0037202D01*
X0212262Y0037329D01*
X0212359Y0037454D01*
X0212460Y0037576D01*
X0212564Y0037695D01*
X0212671Y0037812D01*
X0212781Y0037926D01*
X0212894Y0038037D01*
X0213009Y0038146D01*
X0213127Y0038251D01*
X0213248Y0038353D01*
X0213371Y0038453D01*
X0213497Y0038549D01*
X0213625Y0038642D01*
X0213755Y0038732D01*
X0213888Y0038818D01*
X0214023Y0038902D01*
X0214159Y0038981D01*
X0214298Y0039058D01*
X0214439Y0039130D01*
X0214581Y0039200D01*
X0214725Y0039265D01*
X0214871Y0039327D01*
X0215018Y0039385D01*
X0215167Y0039440D01*
X0215317Y0039491D01*
X0215468Y0039538D01*
X0215620Y0039581D01*
X0215773Y0039620D01*
X0215928Y0039656D01*
X0216083Y0039687D01*
X0216239Y0039715D01*
X0216395Y0039739D01*
X0216552Y0039759D01*
X0216710Y0039775D01*
X0216867Y0039787D01*
X0217026Y0039795D01*
X0217184Y0039799D01*
X0217342Y0039799D01*
X0217500Y0039795D01*
X0217659Y0039787D01*
X0217816Y0039775D01*
X0217974Y0039759D01*
X0218131Y0039739D01*
X0218287Y0039715D01*
X0218443Y0039687D01*
X0218598Y0039656D01*
X0218753Y0039620D01*
X0218906Y0039581D01*
X0219058Y0039538D01*
X0219209Y0039491D01*
X0219359Y0039440D01*
X0219508Y0039385D01*
X0219655Y0039327D01*
X0219801Y0039265D01*
X0219945Y0039200D01*
X0220087Y0039130D01*
X0220228Y0039058D01*
X0220367Y0038981D01*
X0220503Y0038902D01*
X0220638Y0038818D01*
X0220771Y0038732D01*
X0220901Y0038642D01*
X0221029Y0038549D01*
X0221155Y0038453D01*
X0221278Y0038353D01*
X0221399Y0038251D01*
X0221517Y0038146D01*
X0221632Y0038037D01*
X0221745Y0037926D01*
X0221855Y0037812D01*
X0221962Y0037695D01*
X0222066Y0037576D01*
X0222167Y0037454D01*
X0222264Y0037329D01*
X0222359Y0037202D01*
X0222450Y0037073D01*
X0222539Y0036942D01*
X0222623Y0036808D01*
X0222705Y0036672D01*
X0222783Y0036535D01*
X0222857Y0036395D01*
X0222928Y0036253D01*
X0222996Y0036110D01*
X0223060Y0035965D01*
X0223120Y0035819D01*
X0223176Y0035671D01*
X0223229Y0035522D01*
X0223278Y0035371D01*
X0223323Y0035219D01*
X0223364Y0035066D01*
X0223402Y0034913D01*
X0223435Y0034758D01*
X0223465Y0034602D01*
X0223491Y0034446D01*
X0223512Y0034289D01*
X0223530Y0034132D01*
X0223544Y0033974D01*
X0223554Y0033816D01*
X0223560Y0033658D01*
X0223562Y0033500D01*
X0223560Y0033342D01*
X0223554Y0033184D01*
X0223544Y0033026D01*
X0223530Y0032868D01*
X0223512Y0032711D01*
X0223491Y0032554D01*
X0223465Y0032398D01*
X0223435Y0032242D01*
X0223402Y0032087D01*
X0223364Y0031934D01*
X0223323Y0031781D01*
X0223278Y0031629D01*
X0223229Y0031478D01*
X0223176Y0031329D01*
X0223120Y0031181D01*
X0223060Y0031035D01*
X0222996Y0030890D01*
X0222928Y0030747D01*
X0222857Y0030605D01*
X0222783Y0030465D01*
X0222705Y0030328D01*
X0222623Y0030192D01*
X0222539Y0030058D01*
X0222450Y0029927D01*
X0222359Y0029798D01*
X0222264Y0029671D01*
X0222167Y0029546D01*
X0222066Y0029424D01*
X0221962Y0029305D01*
X0221855Y0029188D01*
X0221745Y0029074D01*
X0221632Y0028963D01*
X0221517Y0028854D01*
X0221399Y0028749D01*
X0221278Y0028647D01*
X0221155Y0028547D01*
X0221029Y0028451D01*
X0220901Y0028358D01*
X0220771Y0028268D01*
X0220638Y0028182D01*
X0220503Y0028098D01*
X0220367Y0028019D01*
X0220228Y0027942D01*
X0220087Y0027870D01*
X0219945Y0027800D01*
X0219801Y0027735D01*
X0219655Y0027673D01*
X0219508Y0027615D01*
X0219359Y0027560D01*
X0219209Y0027509D01*
X0219058Y0027462D01*
X0218906Y0027419D01*
X0218753Y0027380D01*
X0218598Y0027344D01*
X0218443Y0027313D01*
X0218287Y0027285D01*
X0218131Y0027261D01*
X0217974Y0027241D01*
X0217816Y0027225D01*
X0217659Y0027213D01*
X0217500Y0027205D01*
X0217342Y0027201D01*
X0217184Y0027201D01*
X0217026Y0027205D01*
X0216867Y0027213D01*
X0216710Y0027225D01*
X0216552Y0027241D01*
X0216395Y0027261D01*
X0216239Y0027285D01*
X0216083Y0027313D01*
X0215928Y0027344D01*
X0215773Y0027380D01*
X0215620Y0027419D01*
X0215468Y0027462D01*
X0215317Y0027509D01*
X0215167Y0027560D01*
X0215018Y0027615D01*
X0214871Y0027673D01*
X0214725Y0027735D01*
X0214581Y0027800D01*
X0214439Y0027870D01*
X0214298Y0027942D01*
X0214159Y0028019D01*
X0214023Y0028098D01*
X0213888Y0028182D01*
X0213755Y0028268D01*
X0213625Y0028358D01*
X0213497Y0028451D01*
X0213371Y0028547D01*
X0213248Y0028647D01*
X0213127Y0028749D01*
X0213009Y0028854D01*
X0212894Y0028963D01*
X0212781Y0029074D01*
X0212671Y0029188D01*
X0212564Y0029305D01*
X0212460Y0029424D01*
X0212359Y0029546D01*
X0212262Y0029671D01*
X0212167Y0029798D01*
X0212076Y0029927D01*
X0211987Y0030058D01*
X0211903Y0030192D01*
X0211821Y0030328D01*
X0211743Y0030465D01*
X0211669Y0030605D01*
X0211598Y0030747D01*
X0211530Y0030890D01*
X0211466Y0031035D01*
X0211406Y0031181D01*
X0211350Y0031329D01*
X0211297Y0031478D01*
X0211248Y0031629D01*
X0211203Y0031781D01*
X0211162Y0031934D01*
X0211124Y0032087D01*
X0211091Y0032242D01*
X0211061Y0032398D01*
X0211035Y0032554D01*
X0211014Y0032711D01*
X0210996Y0032868D01*
X0210982Y0033026D01*
X0210972Y0033184D01*
X0210966Y0033342D01*
X0210964Y0033500D01*
D11*
X0180922Y0131500D02*
X0180925Y0131780D01*
X0180936Y0132059D01*
X0180953Y0132339D01*
X0180977Y0132617D01*
X0181008Y0132895D01*
X0181045Y0133173D01*
X0181090Y0133449D01*
X0181141Y0133724D01*
X0181199Y0133998D01*
X0181264Y0134270D01*
X0181335Y0134541D01*
X0181413Y0134809D01*
X0181497Y0135076D01*
X0181588Y0135341D01*
X0181686Y0135603D01*
X0181790Y0135863D01*
X0181900Y0136120D01*
X0182017Y0136374D01*
X0182139Y0136626D01*
X0182268Y0136874D01*
X0182403Y0137119D01*
X0182544Y0137361D01*
X0182691Y0137599D01*
X0182843Y0137834D01*
X0183002Y0138064D01*
X0183165Y0138291D01*
X0183335Y0138514D01*
X0183510Y0138732D01*
X0183690Y0138946D01*
X0183875Y0139156D01*
X0184066Y0139361D01*
X0184261Y0139561D01*
X0184461Y0139756D01*
X0184666Y0139947D01*
X0184876Y0140132D01*
X0185090Y0140312D01*
X0185308Y0140487D01*
X0185531Y0140657D01*
X0185758Y0140820D01*
X0185988Y0140979D01*
X0186223Y0141131D01*
X0186461Y0141278D01*
X0186703Y0141419D01*
X0186948Y0141554D01*
X0187196Y0141683D01*
X0187448Y0141805D01*
X0187702Y0141922D01*
X0187959Y0142032D01*
X0188219Y0142136D01*
X0188481Y0142234D01*
X0188746Y0142325D01*
X0189013Y0142409D01*
X0189281Y0142487D01*
X0189552Y0142558D01*
X0189824Y0142623D01*
X0190098Y0142681D01*
X0190373Y0142732D01*
X0190649Y0142777D01*
X0190927Y0142814D01*
X0191205Y0142845D01*
X0191483Y0142869D01*
X0191763Y0142886D01*
X0192042Y0142897D01*
X0192322Y0142900D01*
X0192602Y0142897D01*
X0192881Y0142886D01*
X0193161Y0142869D01*
X0193439Y0142845D01*
X0193717Y0142814D01*
X0193995Y0142777D01*
X0194271Y0142732D01*
X0194546Y0142681D01*
X0194820Y0142623D01*
X0195092Y0142558D01*
X0195363Y0142487D01*
X0195631Y0142409D01*
X0195898Y0142325D01*
X0196163Y0142234D01*
X0196425Y0142136D01*
X0196685Y0142032D01*
X0196942Y0141922D01*
X0197196Y0141805D01*
X0197448Y0141683D01*
X0197696Y0141554D01*
X0197941Y0141419D01*
X0198183Y0141278D01*
X0198421Y0141131D01*
X0198656Y0140979D01*
X0198886Y0140820D01*
X0199113Y0140657D01*
X0199336Y0140487D01*
X0199554Y0140312D01*
X0199768Y0140132D01*
X0199978Y0139947D01*
X0200183Y0139756D01*
X0200383Y0139561D01*
X0200578Y0139361D01*
X0200769Y0139156D01*
X0200954Y0138946D01*
X0201134Y0138732D01*
X0201309Y0138514D01*
X0201479Y0138291D01*
X0201642Y0138064D01*
X0201801Y0137834D01*
X0201953Y0137599D01*
X0202100Y0137361D01*
X0202241Y0137119D01*
X0202376Y0136874D01*
X0202505Y0136626D01*
X0202627Y0136374D01*
X0202744Y0136120D01*
X0202854Y0135863D01*
X0202958Y0135603D01*
X0203056Y0135341D01*
X0203147Y0135076D01*
X0203231Y0134809D01*
X0203309Y0134541D01*
X0203380Y0134270D01*
X0203445Y0133998D01*
X0203503Y0133724D01*
X0203554Y0133449D01*
X0203599Y0133173D01*
X0203636Y0132895D01*
X0203667Y0132617D01*
X0203691Y0132339D01*
X0203708Y0132059D01*
X0203719Y0131780D01*
X0203722Y0131500D01*
X0203719Y0131220D01*
X0203708Y0130941D01*
X0203691Y0130661D01*
X0203667Y0130383D01*
X0203636Y0130105D01*
X0203599Y0129827D01*
X0203554Y0129551D01*
X0203503Y0129276D01*
X0203445Y0129002D01*
X0203380Y0128730D01*
X0203309Y0128459D01*
X0203231Y0128191D01*
X0203147Y0127924D01*
X0203056Y0127659D01*
X0202958Y0127397D01*
X0202854Y0127137D01*
X0202744Y0126880D01*
X0202627Y0126626D01*
X0202505Y0126374D01*
X0202376Y0126126D01*
X0202241Y0125881D01*
X0202100Y0125639D01*
X0201953Y0125401D01*
X0201801Y0125166D01*
X0201642Y0124936D01*
X0201479Y0124709D01*
X0201309Y0124486D01*
X0201134Y0124268D01*
X0200954Y0124054D01*
X0200769Y0123844D01*
X0200578Y0123639D01*
X0200383Y0123439D01*
X0200183Y0123244D01*
X0199978Y0123053D01*
X0199768Y0122868D01*
X0199554Y0122688D01*
X0199336Y0122513D01*
X0199113Y0122343D01*
X0198886Y0122180D01*
X0198656Y0122021D01*
X0198421Y0121869D01*
X0198183Y0121722D01*
X0197941Y0121581D01*
X0197696Y0121446D01*
X0197448Y0121317D01*
X0197196Y0121195D01*
X0196942Y0121078D01*
X0196685Y0120968D01*
X0196425Y0120864D01*
X0196163Y0120766D01*
X0195898Y0120675D01*
X0195631Y0120591D01*
X0195363Y0120513D01*
X0195092Y0120442D01*
X0194820Y0120377D01*
X0194546Y0120319D01*
X0194271Y0120268D01*
X0193995Y0120223D01*
X0193717Y0120186D01*
X0193439Y0120155D01*
X0193161Y0120131D01*
X0192881Y0120114D01*
X0192602Y0120103D01*
X0192322Y0120100D01*
X0192042Y0120103D01*
X0191763Y0120114D01*
X0191483Y0120131D01*
X0191205Y0120155D01*
X0190927Y0120186D01*
X0190649Y0120223D01*
X0190373Y0120268D01*
X0190098Y0120319D01*
X0189824Y0120377D01*
X0189552Y0120442D01*
X0189281Y0120513D01*
X0189013Y0120591D01*
X0188746Y0120675D01*
X0188481Y0120766D01*
X0188219Y0120864D01*
X0187959Y0120968D01*
X0187702Y0121078D01*
X0187448Y0121195D01*
X0187196Y0121317D01*
X0186948Y0121446D01*
X0186703Y0121581D01*
X0186461Y0121722D01*
X0186223Y0121869D01*
X0185988Y0122021D01*
X0185758Y0122180D01*
X0185531Y0122343D01*
X0185308Y0122513D01*
X0185090Y0122688D01*
X0184876Y0122868D01*
X0184666Y0123053D01*
X0184461Y0123244D01*
X0184261Y0123439D01*
X0184066Y0123639D01*
X0183875Y0123844D01*
X0183690Y0124054D01*
X0183510Y0124268D01*
X0183335Y0124486D01*
X0183165Y0124709D01*
X0183002Y0124936D01*
X0182843Y0125166D01*
X0182691Y0125401D01*
X0182544Y0125639D01*
X0182403Y0125881D01*
X0182268Y0126126D01*
X0182139Y0126374D01*
X0182017Y0126626D01*
X0181900Y0126880D01*
X0181790Y0127137D01*
X0181686Y0127397D01*
X0181588Y0127659D01*
X0181497Y0127924D01*
X0181413Y0128191D01*
X0181335Y0128459D01*
X0181264Y0128730D01*
X0181199Y0129002D01*
X0181141Y0129276D01*
X0181090Y0129551D01*
X0181045Y0129827D01*
X0181008Y0130105D01*
X0180977Y0130383D01*
X0180953Y0130661D01*
X0180936Y0130941D01*
X0180925Y0131220D01*
X0180922Y0131500D01*
X0125922Y0131500D02*
X0125925Y0131780D01*
X0125936Y0132059D01*
X0125953Y0132339D01*
X0125977Y0132617D01*
X0126008Y0132895D01*
X0126045Y0133173D01*
X0126090Y0133449D01*
X0126141Y0133724D01*
X0126199Y0133998D01*
X0126264Y0134270D01*
X0126335Y0134541D01*
X0126413Y0134809D01*
X0126497Y0135076D01*
X0126588Y0135341D01*
X0126686Y0135603D01*
X0126790Y0135863D01*
X0126900Y0136120D01*
X0127017Y0136374D01*
X0127139Y0136626D01*
X0127268Y0136874D01*
X0127403Y0137119D01*
X0127544Y0137361D01*
X0127691Y0137599D01*
X0127843Y0137834D01*
X0128002Y0138064D01*
X0128165Y0138291D01*
X0128335Y0138514D01*
X0128510Y0138732D01*
X0128690Y0138946D01*
X0128875Y0139156D01*
X0129066Y0139361D01*
X0129261Y0139561D01*
X0129461Y0139756D01*
X0129666Y0139947D01*
X0129876Y0140132D01*
X0130090Y0140312D01*
X0130308Y0140487D01*
X0130531Y0140657D01*
X0130758Y0140820D01*
X0130988Y0140979D01*
X0131223Y0141131D01*
X0131461Y0141278D01*
X0131703Y0141419D01*
X0131948Y0141554D01*
X0132196Y0141683D01*
X0132448Y0141805D01*
X0132702Y0141922D01*
X0132959Y0142032D01*
X0133219Y0142136D01*
X0133481Y0142234D01*
X0133746Y0142325D01*
X0134013Y0142409D01*
X0134281Y0142487D01*
X0134552Y0142558D01*
X0134824Y0142623D01*
X0135098Y0142681D01*
X0135373Y0142732D01*
X0135649Y0142777D01*
X0135927Y0142814D01*
X0136205Y0142845D01*
X0136483Y0142869D01*
X0136763Y0142886D01*
X0137042Y0142897D01*
X0137322Y0142900D01*
X0137602Y0142897D01*
X0137881Y0142886D01*
X0138161Y0142869D01*
X0138439Y0142845D01*
X0138717Y0142814D01*
X0138995Y0142777D01*
X0139271Y0142732D01*
X0139546Y0142681D01*
X0139820Y0142623D01*
X0140092Y0142558D01*
X0140363Y0142487D01*
X0140631Y0142409D01*
X0140898Y0142325D01*
X0141163Y0142234D01*
X0141425Y0142136D01*
X0141685Y0142032D01*
X0141942Y0141922D01*
X0142196Y0141805D01*
X0142448Y0141683D01*
X0142696Y0141554D01*
X0142941Y0141419D01*
X0143183Y0141278D01*
X0143421Y0141131D01*
X0143656Y0140979D01*
X0143886Y0140820D01*
X0144113Y0140657D01*
X0144336Y0140487D01*
X0144554Y0140312D01*
X0144768Y0140132D01*
X0144978Y0139947D01*
X0145183Y0139756D01*
X0145383Y0139561D01*
X0145578Y0139361D01*
X0145769Y0139156D01*
X0145954Y0138946D01*
X0146134Y0138732D01*
X0146309Y0138514D01*
X0146479Y0138291D01*
X0146642Y0138064D01*
X0146801Y0137834D01*
X0146953Y0137599D01*
X0147100Y0137361D01*
X0147241Y0137119D01*
X0147376Y0136874D01*
X0147505Y0136626D01*
X0147627Y0136374D01*
X0147744Y0136120D01*
X0147854Y0135863D01*
X0147958Y0135603D01*
X0148056Y0135341D01*
X0148147Y0135076D01*
X0148231Y0134809D01*
X0148309Y0134541D01*
X0148380Y0134270D01*
X0148445Y0133998D01*
X0148503Y0133724D01*
X0148554Y0133449D01*
X0148599Y0133173D01*
X0148636Y0132895D01*
X0148667Y0132617D01*
X0148691Y0132339D01*
X0148708Y0132059D01*
X0148719Y0131780D01*
X0148722Y0131500D01*
X0148719Y0131220D01*
X0148708Y0130941D01*
X0148691Y0130661D01*
X0148667Y0130383D01*
X0148636Y0130105D01*
X0148599Y0129827D01*
X0148554Y0129551D01*
X0148503Y0129276D01*
X0148445Y0129002D01*
X0148380Y0128730D01*
X0148309Y0128459D01*
X0148231Y0128191D01*
X0148147Y0127924D01*
X0148056Y0127659D01*
X0147958Y0127397D01*
X0147854Y0127137D01*
X0147744Y0126880D01*
X0147627Y0126626D01*
X0147505Y0126374D01*
X0147376Y0126126D01*
X0147241Y0125881D01*
X0147100Y0125639D01*
X0146953Y0125401D01*
X0146801Y0125166D01*
X0146642Y0124936D01*
X0146479Y0124709D01*
X0146309Y0124486D01*
X0146134Y0124268D01*
X0145954Y0124054D01*
X0145769Y0123844D01*
X0145578Y0123639D01*
X0145383Y0123439D01*
X0145183Y0123244D01*
X0144978Y0123053D01*
X0144768Y0122868D01*
X0144554Y0122688D01*
X0144336Y0122513D01*
X0144113Y0122343D01*
X0143886Y0122180D01*
X0143656Y0122021D01*
X0143421Y0121869D01*
X0143183Y0121722D01*
X0142941Y0121581D01*
X0142696Y0121446D01*
X0142448Y0121317D01*
X0142196Y0121195D01*
X0141942Y0121078D01*
X0141685Y0120968D01*
X0141425Y0120864D01*
X0141163Y0120766D01*
X0140898Y0120675D01*
X0140631Y0120591D01*
X0140363Y0120513D01*
X0140092Y0120442D01*
X0139820Y0120377D01*
X0139546Y0120319D01*
X0139271Y0120268D01*
X0138995Y0120223D01*
X0138717Y0120186D01*
X0138439Y0120155D01*
X0138161Y0120131D01*
X0137881Y0120114D01*
X0137602Y0120103D01*
X0137322Y0120100D01*
X0137042Y0120103D01*
X0136763Y0120114D01*
X0136483Y0120131D01*
X0136205Y0120155D01*
X0135927Y0120186D01*
X0135649Y0120223D01*
X0135373Y0120268D01*
X0135098Y0120319D01*
X0134824Y0120377D01*
X0134552Y0120442D01*
X0134281Y0120513D01*
X0134013Y0120591D01*
X0133746Y0120675D01*
X0133481Y0120766D01*
X0133219Y0120864D01*
X0132959Y0120968D01*
X0132702Y0121078D01*
X0132448Y0121195D01*
X0132196Y0121317D01*
X0131948Y0121446D01*
X0131703Y0121581D01*
X0131461Y0121722D01*
X0131223Y0121869D01*
X0130988Y0122021D01*
X0130758Y0122180D01*
X0130531Y0122343D01*
X0130308Y0122513D01*
X0130090Y0122688D01*
X0129876Y0122868D01*
X0129666Y0123053D01*
X0129461Y0123244D01*
X0129261Y0123439D01*
X0129066Y0123639D01*
X0128875Y0123844D01*
X0128690Y0124054D01*
X0128510Y0124268D01*
X0128335Y0124486D01*
X0128165Y0124709D01*
X0128002Y0124936D01*
X0127843Y0125166D01*
X0127691Y0125401D01*
X0127544Y0125639D01*
X0127403Y0125881D01*
X0127268Y0126126D01*
X0127139Y0126374D01*
X0127017Y0126626D01*
X0126900Y0126880D01*
X0126790Y0127137D01*
X0126686Y0127397D01*
X0126588Y0127659D01*
X0126497Y0127924D01*
X0126413Y0128191D01*
X0126335Y0128459D01*
X0126264Y0128730D01*
X0126199Y0129002D01*
X0126141Y0129276D01*
X0126090Y0129551D01*
X0126045Y0129827D01*
X0126008Y0130105D01*
X0125977Y0130383D01*
X0125953Y0130661D01*
X0125936Y0130941D01*
X0125925Y0131220D01*
X0125922Y0131500D01*
D12*
X0136907Y0118052D02*
X0137875Y0117085D01*
X0137875Y0115150D01*
X0137875Y0116601D02*
X0135940Y0116601D01*
X0135940Y0117085D02*
X0135940Y0115150D01*
X0135940Y0117085D02*
X0136907Y0118052D01*
X0145940Y0118052D02*
X0145940Y0115150D01*
X0147391Y0115150D01*
X0147875Y0115634D01*
X0147875Y0116117D01*
X0147391Y0116601D01*
X0145940Y0116601D01*
X0147391Y0116601D02*
X0147875Y0117085D01*
X0147875Y0117569D01*
X0147391Y0118052D01*
X0145940Y0118052D01*
X0155940Y0117569D02*
X0155940Y0115634D01*
X0156423Y0115150D01*
X0157391Y0115150D01*
X0157875Y0115634D01*
X0157875Y0117569D02*
X0157391Y0118052D01*
X0156423Y0118052D01*
X0155940Y0117569D01*
X0163484Y0116601D02*
X0163968Y0117085D01*
X0165419Y0117085D01*
X0164936Y0116117D02*
X0163968Y0116117D01*
X0163484Y0116601D01*
X0163484Y0115150D02*
X0164936Y0115150D01*
X0165419Y0115634D01*
X0164936Y0116117D01*
X0166431Y0115634D02*
X0166915Y0115150D01*
X0168366Y0115150D01*
X0169377Y0115150D02*
X0170345Y0115150D01*
X0169861Y0115150D02*
X0169861Y0118052D01*
X0169377Y0118052D01*
X0168366Y0117085D02*
X0166915Y0117085D01*
X0166431Y0116601D01*
X0166431Y0115634D01*
X0172993Y0115150D02*
X0174444Y0115150D01*
X0174928Y0115634D01*
X0174444Y0116117D01*
X0173477Y0116117D01*
X0172993Y0116601D01*
X0173477Y0117085D01*
X0174928Y0117085D01*
X0175940Y0116601D02*
X0176423Y0117085D01*
X0177875Y0117085D01*
X0177875Y0118052D02*
X0177875Y0115150D01*
X0176423Y0115150D01*
X0175940Y0115634D01*
X0175940Y0116601D01*
X0178886Y0115634D02*
X0179370Y0115150D01*
X0180821Y0115150D01*
X0180821Y0116601D01*
X0180337Y0117085D01*
X0179370Y0117085D01*
X0179370Y0116117D02*
X0180821Y0116117D01*
X0179370Y0116117D02*
X0178886Y0115634D01*
X0208511Y0103585D02*
X0208511Y0101650D01*
X0209479Y0101650D02*
X0209479Y0103101D01*
X0209962Y0103585D01*
X0210446Y0103101D01*
X0210446Y0101650D01*
X0211458Y0101650D02*
X0212425Y0101650D01*
X0211941Y0101650D02*
X0211941Y0103585D01*
X0211458Y0103585D01*
X0211941Y0104552D02*
X0211941Y0105036D01*
X0213422Y0103101D02*
X0213906Y0103585D01*
X0215357Y0103585D01*
X0214873Y0102617D02*
X0213906Y0102617D01*
X0213422Y0103101D01*
X0213422Y0101650D02*
X0214873Y0101650D01*
X0215357Y0102134D01*
X0214873Y0102617D01*
X0216368Y0103101D02*
X0216368Y0102134D01*
X0216852Y0101650D01*
X0217820Y0101650D01*
X0218303Y0102134D01*
X0218303Y0103101D01*
X0217820Y0103585D01*
X0216852Y0103585D01*
X0216368Y0103101D01*
X0209479Y0103101D02*
X0208995Y0103585D01*
X0208511Y0103585D01*
X0217632Y0094552D02*
X0217632Y0091650D01*
X0217632Y0092617D02*
X0219083Y0093585D01*
X0217632Y0092617D02*
X0219083Y0091650D01*
X0216620Y0091650D02*
X0215169Y0091650D01*
X0214685Y0092134D01*
X0214685Y0093101D01*
X0215169Y0093585D01*
X0216620Y0093585D01*
X0213674Y0093585D02*
X0212223Y0093585D01*
X0211739Y0093101D01*
X0212223Y0092617D01*
X0213190Y0092617D01*
X0213674Y0092134D01*
X0213190Y0091650D01*
X0211739Y0091650D01*
X0217616Y0083069D02*
X0217616Y0081134D01*
X0218099Y0080650D01*
X0218099Y0082585D02*
X0217132Y0082585D01*
X0216120Y0082585D02*
X0214669Y0082585D01*
X0214185Y0082101D01*
X0214669Y0081617D01*
X0215637Y0081617D01*
X0216120Y0081134D01*
X0215637Y0080650D01*
X0214185Y0080650D01*
X0213181Y0082585D02*
X0212697Y0082585D01*
X0211730Y0081617D01*
X0211730Y0080650D02*
X0211730Y0082585D01*
X0225571Y0075736D02*
X0225571Y0073267D01*
X0226189Y0072650D01*
X0227423Y0072650D01*
X0228040Y0073267D01*
X0228040Y0075736D02*
X0227423Y0076353D01*
X0226189Y0076353D01*
X0225571Y0075736D01*
X0233730Y0076353D02*
X0233730Y0074502D01*
X0234964Y0075119D01*
X0235581Y0075119D01*
X0236199Y0074502D01*
X0236199Y0073267D01*
X0235581Y0072650D01*
X0234347Y0072650D01*
X0233730Y0073267D01*
X0237413Y0075119D02*
X0238647Y0072650D01*
X0239882Y0075119D01*
X0242888Y0075119D02*
X0244123Y0076353D01*
X0244123Y0072650D01*
X0245357Y0072650D02*
X0242888Y0072650D01*
X0246571Y0072650D02*
X0249040Y0075119D01*
X0249040Y0075736D01*
X0248423Y0076353D01*
X0247189Y0076353D01*
X0246571Y0075736D01*
X0250255Y0075119D02*
X0251489Y0072650D01*
X0252723Y0075119D01*
X0256217Y0076353D02*
X0256217Y0072650D01*
X0258069Y0072650D01*
X0258686Y0073267D01*
X0258686Y0075736D01*
X0258069Y0076353D01*
X0256217Y0076353D01*
X0249040Y0072650D02*
X0246571Y0072650D01*
X0236199Y0076353D02*
X0233730Y0076353D01*
X0238961Y0080683D02*
X0239444Y0080683D01*
X0239928Y0081166D01*
X0239928Y0083585D01*
X0238477Y0083585D01*
X0237993Y0083101D01*
X0237993Y0082134D01*
X0238477Y0081650D01*
X0239928Y0081650D01*
X0240940Y0081650D02*
X0240940Y0083585D01*
X0242391Y0083585D01*
X0242875Y0083101D01*
X0242875Y0081650D01*
X0243886Y0082134D02*
X0243886Y0083101D01*
X0244370Y0083585D01*
X0245821Y0083585D01*
X0245821Y0084552D02*
X0245821Y0081650D01*
X0244370Y0081650D01*
X0243886Y0082134D01*
X0241799Y0088429D02*
X0241315Y0088429D01*
X0240348Y0088429D02*
X0238413Y0088429D01*
X0238413Y0088912D02*
X0238413Y0087945D01*
X0240348Y0088429D02*
X0240348Y0088912D01*
X0240348Y0089924D02*
X0240348Y0091375D01*
X0239864Y0091859D01*
X0239380Y0091375D01*
X0239380Y0090408D01*
X0238897Y0089924D01*
X0238413Y0090408D01*
X0238413Y0091859D01*
X0238897Y0092870D02*
X0239864Y0092870D01*
X0240348Y0093354D01*
X0240348Y0094322D01*
X0239864Y0094805D01*
X0238897Y0094805D01*
X0238413Y0094322D01*
X0238413Y0093354D01*
X0238897Y0092870D01*
X0238413Y0095817D02*
X0239864Y0095817D01*
X0240348Y0096301D01*
X0239864Y0096784D01*
X0238413Y0096784D01*
X0238413Y0097752D02*
X0240348Y0097752D01*
X0240348Y0097268D01*
X0239864Y0096784D01*
X0239918Y0101650D02*
X0238950Y0101650D01*
X0238466Y0102134D01*
X0238466Y0103101D02*
X0239434Y0103585D01*
X0239918Y0103585D01*
X0240401Y0103101D01*
X0240401Y0102134D01*
X0239918Y0101650D01*
X0238466Y0103101D02*
X0238466Y0104552D01*
X0240401Y0104552D01*
X0241413Y0103585D02*
X0242380Y0101650D01*
X0243348Y0103585D01*
X0262134Y0103825D02*
X0262134Y0101357D01*
X0265837Y0101357D01*
X0265837Y0100142D02*
X0263369Y0100142D01*
X0263986Y0101357D02*
X0263986Y0102591D01*
X0265837Y0100142D02*
X0265837Y0098291D01*
X0265220Y0097673D01*
X0263369Y0097673D01*
X0262751Y0096459D02*
X0262134Y0096459D01*
X0262134Y0093990D01*
X0263986Y0092776D02*
X0263986Y0090307D01*
X0262134Y0092159D01*
X0265837Y0092159D01*
X0265837Y0093990D02*
X0265220Y0093990D01*
X0262751Y0096459D01*
X0251581Y0053353D02*
X0250347Y0053353D01*
X0249730Y0052736D01*
X0250964Y0051502D02*
X0251581Y0051502D01*
X0252199Y0050884D01*
X0252199Y0050267D01*
X0251581Y0049650D01*
X0250347Y0049650D01*
X0249730Y0050267D01*
X0251581Y0051502D02*
X0252199Y0052119D01*
X0252199Y0052736D01*
X0251581Y0053353D01*
X0253413Y0052119D02*
X0254647Y0049650D01*
X0255882Y0052119D01*
X0246723Y0052119D02*
X0244872Y0052119D01*
X0244255Y0051502D01*
X0244255Y0050267D01*
X0244872Y0049650D01*
X0246723Y0049650D01*
X0246723Y0053353D01*
X0243040Y0051502D02*
X0243040Y0049650D01*
X0243040Y0051502D02*
X0242423Y0052119D01*
X0240571Y0052119D01*
X0240571Y0049650D01*
X0239357Y0049650D02*
X0237505Y0049650D01*
X0236888Y0050267D01*
X0236888Y0051502D01*
X0237505Y0052119D01*
X0239357Y0052119D01*
X0239357Y0049033D01*
X0238740Y0048416D01*
X0238123Y0048416D01*
X0233040Y0049650D02*
X0233040Y0052119D01*
X0231806Y0053353D01*
X0230571Y0052119D01*
X0230571Y0049650D01*
X0230571Y0051502D02*
X0233040Y0051502D01*
X0222859Y0052119D02*
X0222242Y0051502D01*
X0220390Y0051502D01*
X0220390Y0053353D02*
X0220390Y0049650D01*
X0222242Y0049650D01*
X0222859Y0050267D01*
X0222859Y0050884D01*
X0222242Y0051502D01*
X0222859Y0052119D02*
X0222859Y0052736D01*
X0222242Y0053353D01*
X0220390Y0053353D01*
X0146661Y0079534D02*
X0146177Y0079050D01*
X0145210Y0079050D01*
X0144726Y0079534D01*
X0144726Y0080017D01*
X0145210Y0080501D01*
X0146177Y0080501D01*
X0146661Y0080017D01*
X0146661Y0079534D01*
X0146177Y0080501D02*
X0146661Y0080985D01*
X0146661Y0081469D01*
X0146177Y0081952D01*
X0145210Y0081952D01*
X0144726Y0081469D01*
X0144726Y0080985D01*
X0145210Y0080501D01*
X0143714Y0080985D02*
X0143714Y0081469D01*
X0143231Y0081952D01*
X0142263Y0081952D01*
X0141779Y0081469D01*
X0140768Y0081469D02*
X0140768Y0080985D01*
X0140284Y0080501D01*
X0140768Y0080017D01*
X0140768Y0079534D01*
X0140284Y0079050D01*
X0139317Y0079050D01*
X0138833Y0079534D01*
X0137821Y0079050D02*
X0137821Y0080985D01*
X0136854Y0081952D01*
X0135886Y0080985D01*
X0135886Y0079050D01*
X0134875Y0079534D02*
X0134875Y0080501D01*
X0133907Y0080501D01*
X0132940Y0079534D02*
X0133423Y0079050D01*
X0134391Y0079050D01*
X0134875Y0079534D01*
X0135886Y0080501D02*
X0137821Y0080501D01*
X0138833Y0081469D02*
X0139317Y0081952D01*
X0140284Y0081952D01*
X0140768Y0081469D01*
X0140284Y0080501D02*
X0139800Y0080501D01*
X0141779Y0079050D02*
X0143714Y0080985D01*
X0143714Y0079050D02*
X0141779Y0079050D01*
X0134875Y0081469D02*
X0134391Y0081952D01*
X0133423Y0081952D01*
X0132940Y0081469D01*
X0132940Y0079534D01*
X0131928Y0079050D02*
X0129993Y0079050D01*
X0129993Y0081952D01*
X0131928Y0081952D01*
X0130961Y0080501D02*
X0129993Y0080501D01*
X0128982Y0081952D02*
X0128982Y0079050D01*
X0127047Y0079050D02*
X0127047Y0081952D01*
X0128014Y0080985D01*
X0128982Y0081952D01*
X0126035Y0081952D02*
X0124100Y0081952D01*
X0125068Y0081952D02*
X0125068Y0079050D01*
X0123089Y0079050D02*
X0123089Y0080985D01*
X0122121Y0081952D01*
X0121154Y0080985D01*
X0121154Y0079050D01*
X0121154Y0080501D02*
X0123089Y0080501D01*
X0060821Y0038052D02*
X0060821Y0035150D01*
X0059370Y0035150D01*
X0058886Y0035634D01*
X0058886Y0036601D01*
X0059370Y0037085D01*
X0060821Y0037085D01*
X0057875Y0036601D02*
X0057875Y0035150D01*
X0057875Y0036601D02*
X0057391Y0037085D01*
X0055940Y0037085D01*
X0055940Y0035150D01*
X0054928Y0035150D02*
X0053477Y0035150D01*
X0052993Y0035634D01*
X0052993Y0036601D01*
X0053477Y0037085D01*
X0054928Y0037085D01*
X0054928Y0034666D01*
X0054444Y0034183D01*
X0053961Y0034183D01*
X0039348Y0037085D02*
X0038380Y0035150D01*
X0037413Y0037085D01*
X0036401Y0037085D02*
X0035918Y0036601D01*
X0036401Y0036117D01*
X0036401Y0035634D01*
X0035918Y0035150D01*
X0034950Y0035150D01*
X0034466Y0035634D01*
X0035434Y0036601D02*
X0035918Y0036601D01*
X0036401Y0037085D02*
X0036401Y0037569D01*
X0035918Y0038052D01*
X0034950Y0038052D01*
X0034466Y0037569D01*
X0030099Y0037085D02*
X0029132Y0037085D01*
X0029616Y0037569D02*
X0029616Y0035634D01*
X0030099Y0035150D01*
X0028120Y0035634D02*
X0027637Y0035150D01*
X0026185Y0035150D01*
X0026669Y0036117D02*
X0026185Y0036601D01*
X0026669Y0037085D01*
X0028120Y0037085D01*
X0027637Y0036117D02*
X0026669Y0036117D01*
X0027637Y0036117D02*
X0028120Y0035634D01*
X0025181Y0037085D02*
X0024697Y0037085D01*
X0023730Y0036117D01*
X0023730Y0035150D02*
X0023730Y0037085D01*
D13*
X0027363Y0047600D02*
X0028831Y0047600D01*
X0028097Y0047600D02*
X0028097Y0049802D01*
X0027363Y0049068D01*
X0029573Y0049435D02*
X0029940Y0049802D01*
X0030674Y0049802D01*
X0031041Y0049435D01*
X0029573Y0047967D01*
X0029940Y0047600D01*
X0030674Y0047600D01*
X0031041Y0047967D01*
X0031041Y0049435D01*
X0031783Y0049802D02*
X0031783Y0047600D01*
X0031783Y0048334D02*
X0033251Y0049802D01*
X0032150Y0048701D02*
X0033251Y0047600D01*
X0029573Y0047967D02*
X0029573Y0049435D01*
X0024296Y0055825D02*
X0024663Y0056192D01*
X0024663Y0056926D01*
X0024296Y0057293D01*
X0023929Y0057293D01*
X0023562Y0056926D01*
X0023562Y0055825D01*
X0024296Y0055825D01*
X0023562Y0055825D02*
X0022828Y0056559D01*
X0022461Y0057293D01*
X0022828Y0058035D02*
X0023195Y0058035D01*
X0023562Y0058402D01*
X0023562Y0059136D01*
X0023929Y0059503D01*
X0024296Y0059503D01*
X0024663Y0059136D01*
X0024663Y0058402D01*
X0024296Y0058035D01*
X0023929Y0058035D01*
X0023562Y0058402D01*
X0023562Y0059136D02*
X0023195Y0059503D01*
X0022828Y0059503D01*
X0022461Y0059136D01*
X0022461Y0058402D01*
X0022828Y0058035D01*
X0022828Y0060245D02*
X0022461Y0060612D01*
X0022461Y0061346D01*
X0022828Y0061713D01*
X0024296Y0060245D01*
X0024663Y0060612D01*
X0024663Y0061346D01*
X0024296Y0061713D01*
X0022828Y0061713D01*
X0023195Y0062455D02*
X0023195Y0063556D01*
X0023562Y0063923D01*
X0024296Y0063923D01*
X0024663Y0063556D01*
X0024663Y0062455D01*
X0025397Y0062455D02*
X0023195Y0062455D01*
X0022828Y0060245D02*
X0024296Y0060245D01*
X0024663Y0064665D02*
X0022461Y0064665D01*
X0022461Y0066133D01*
X0023562Y0065399D02*
X0023562Y0064665D01*
X0035863Y0064215D02*
X0035863Y0062747D01*
X0036230Y0062005D02*
X0035863Y0061638D01*
X0035863Y0060904D01*
X0036230Y0060537D01*
X0037698Y0060537D01*
X0036230Y0062005D01*
X0037698Y0062005D01*
X0038065Y0061638D01*
X0038065Y0060904D01*
X0037698Y0060537D01*
X0038065Y0059795D02*
X0035863Y0059795D01*
X0036597Y0059795D02*
X0038065Y0058327D01*
X0036964Y0059428D02*
X0035863Y0058327D01*
X0037331Y0062747D02*
X0037698Y0062747D01*
X0038065Y0063114D01*
X0038065Y0063848D01*
X0037698Y0064215D01*
X0037331Y0062747D02*
X0035863Y0064215D01*
X0036111Y0073198D02*
X0035377Y0073198D01*
X0035010Y0073565D01*
X0035010Y0073932D01*
X0036478Y0075400D01*
X0035010Y0075400D01*
X0034268Y0075033D02*
X0033901Y0075400D01*
X0033167Y0075400D01*
X0032800Y0075033D01*
X0032800Y0073565D01*
X0034268Y0075033D01*
X0034268Y0073565D01*
X0033901Y0073198D01*
X0033167Y0073198D01*
X0032800Y0073565D01*
X0032058Y0073198D02*
X0032058Y0075400D01*
X0032058Y0074666D02*
X0030590Y0073198D01*
X0031691Y0074299D02*
X0030590Y0075400D01*
X0036111Y0073198D02*
X0036478Y0073565D01*
X0024163Y0077192D02*
X0023796Y0076825D01*
X0023062Y0076825D01*
X0023062Y0077926D01*
X0023429Y0078293D01*
X0023796Y0078293D01*
X0024163Y0077926D01*
X0024163Y0077192D01*
X0023062Y0076825D02*
X0022328Y0077559D01*
X0021961Y0078293D01*
X0022328Y0079035D02*
X0021961Y0079402D01*
X0021961Y0080136D01*
X0022328Y0080503D01*
X0022695Y0080503D01*
X0023062Y0080136D01*
X0023062Y0079402D01*
X0022695Y0079035D01*
X0022328Y0079035D01*
X0023062Y0079402D02*
X0023429Y0079035D01*
X0023796Y0079035D01*
X0024163Y0079402D01*
X0024163Y0080136D01*
X0023796Y0080503D01*
X0023429Y0080503D01*
X0023062Y0080136D01*
X0022328Y0081245D02*
X0021961Y0081612D01*
X0021961Y0082346D01*
X0022328Y0082713D01*
X0023796Y0081245D01*
X0024163Y0081612D01*
X0024163Y0082346D01*
X0023796Y0082713D01*
X0022328Y0082713D01*
X0022695Y0083455D02*
X0022695Y0084556D01*
X0023062Y0084923D01*
X0023796Y0084923D01*
X0024163Y0084556D01*
X0024163Y0083455D01*
X0024897Y0083455D02*
X0022695Y0083455D01*
X0023062Y0085665D02*
X0023062Y0086399D01*
X0021961Y0085665D02*
X0021961Y0087133D01*
X0021961Y0085665D02*
X0024163Y0085665D01*
X0023796Y0081245D02*
X0022328Y0081245D01*
X0022306Y0095100D02*
X0022306Y0097302D01*
X0021206Y0096201D01*
X0022673Y0096201D01*
X0023415Y0096568D02*
X0023782Y0096201D01*
X0024883Y0096201D01*
X0024883Y0095467D02*
X0024883Y0096935D01*
X0024516Y0097302D01*
X0023782Y0097302D01*
X0023415Y0096935D01*
X0023415Y0096568D01*
X0023415Y0095467D02*
X0023782Y0095100D01*
X0024516Y0095100D01*
X0024883Y0095467D01*
X0025625Y0095834D02*
X0027093Y0097302D01*
X0025625Y0097302D02*
X0025625Y0095100D01*
X0025992Y0096201D02*
X0027093Y0095100D01*
X0020468Y0095100D02*
X0020101Y0095100D01*
X0020101Y0095467D01*
X0020468Y0095467D01*
X0020468Y0095100D01*
X0019359Y0095100D02*
X0017891Y0095100D01*
X0019359Y0096568D01*
X0019359Y0096935D01*
X0018992Y0097302D01*
X0018258Y0097302D01*
X0017891Y0096935D01*
X0017328Y0101233D02*
X0016961Y0101600D01*
X0016961Y0102334D01*
X0017328Y0102701D01*
X0017695Y0102701D01*
X0018062Y0102334D01*
X0018429Y0102701D01*
X0018796Y0102701D01*
X0019163Y0102334D01*
X0019163Y0101600D01*
X0018796Y0101233D01*
X0018062Y0101967D02*
X0018062Y0102334D01*
X0018796Y0103443D02*
X0018796Y0103810D01*
X0019163Y0103810D01*
X0019163Y0103443D01*
X0018796Y0103443D01*
X0018796Y0104548D02*
X0019163Y0104914D01*
X0019163Y0105648D01*
X0018796Y0106015D01*
X0018429Y0106015D01*
X0018062Y0105648D01*
X0018062Y0105281D01*
X0018062Y0105648D02*
X0017695Y0106015D01*
X0017328Y0106015D01*
X0016961Y0105648D01*
X0016961Y0104914D01*
X0017328Y0104548D01*
X0016961Y0106757D02*
X0019163Y0106757D01*
X0018429Y0106757D02*
X0016961Y0108225D01*
X0018062Y0107124D02*
X0019163Y0108225D01*
X0031961Y0106975D02*
X0033429Y0105507D01*
X0033062Y0105874D02*
X0034163Y0106975D01*
X0034163Y0105507D02*
X0031961Y0105507D01*
X0032328Y0104765D02*
X0032695Y0104765D01*
X0033062Y0104398D01*
X0033062Y0103664D01*
X0032695Y0103298D01*
X0032328Y0103298D01*
X0031961Y0103664D01*
X0031961Y0104398D01*
X0032328Y0104765D01*
X0033062Y0104398D02*
X0033429Y0104765D01*
X0033796Y0104765D01*
X0034163Y0104398D01*
X0034163Y0103664D01*
X0033796Y0103298D01*
X0033429Y0103298D01*
X0033062Y0103664D01*
X0033796Y0102560D02*
X0034163Y0102560D01*
X0034163Y0102193D01*
X0033796Y0102193D01*
X0033796Y0102560D01*
X0033796Y0101451D02*
X0033429Y0101451D01*
X0033062Y0101084D01*
X0033062Y0099983D01*
X0033796Y0099983D01*
X0034163Y0100350D01*
X0034163Y0101084D01*
X0033796Y0101451D01*
X0032328Y0100717D02*
X0033062Y0099983D01*
X0032328Y0100717D02*
X0031961Y0101451D01*
X0038048Y0096568D02*
X0038782Y0097302D01*
X0038782Y0095100D01*
X0038048Y0095100D02*
X0039516Y0095100D01*
X0040258Y0095467D02*
X0040625Y0095100D01*
X0041359Y0095100D01*
X0041726Y0095467D01*
X0041726Y0096935D01*
X0040258Y0095467D01*
X0040258Y0096935D01*
X0040625Y0097302D01*
X0041359Y0097302D01*
X0041726Y0096935D01*
X0042468Y0097302D02*
X0042468Y0095100D01*
X0042468Y0095834D02*
X0043936Y0097302D01*
X0042835Y0096201D02*
X0043936Y0095100D01*
X0052863Y0095404D02*
X0053230Y0095037D01*
X0054698Y0095037D01*
X0053230Y0096505D01*
X0052863Y0096138D01*
X0052863Y0095404D01*
X0052863Y0094295D02*
X0055065Y0094295D01*
X0054698Y0095037D02*
X0055065Y0095404D01*
X0055065Y0096138D01*
X0054698Y0096505D01*
X0053230Y0096505D01*
X0052863Y0097247D02*
X0052863Y0098715D01*
X0052863Y0097981D02*
X0055065Y0097981D01*
X0054331Y0098715D01*
X0053597Y0094295D02*
X0055065Y0092827D01*
X0053964Y0093928D02*
X0052863Y0092827D01*
X0067461Y0092910D02*
X0067461Y0091443D01*
X0067461Y0092910D02*
X0067828Y0092910D01*
X0069296Y0091443D01*
X0069663Y0091443D01*
X0069663Y0090705D02*
X0069663Y0090338D01*
X0069296Y0090338D01*
X0069296Y0090705D01*
X0069663Y0090705D01*
X0069296Y0093652D02*
X0069663Y0094019D01*
X0069663Y0094753D01*
X0069296Y0095120D01*
X0068562Y0095120D01*
X0068195Y0094753D01*
X0068195Y0094386D01*
X0068562Y0093652D01*
X0067461Y0093652D01*
X0067461Y0095120D01*
X0086863Y0095138D02*
X0087230Y0095505D01*
X0088698Y0094037D01*
X0087230Y0094037D01*
X0086863Y0094404D01*
X0086863Y0095138D01*
X0087230Y0095505D02*
X0088698Y0095505D01*
X0089065Y0095138D01*
X0089065Y0094404D01*
X0088698Y0094037D01*
X0089065Y0093295D02*
X0086863Y0093295D01*
X0087597Y0093295D02*
X0089065Y0091827D01*
X0087964Y0092928D02*
X0086863Y0091827D01*
X0086863Y0096247D02*
X0086863Y0097715D01*
X0086863Y0096981D02*
X0089065Y0096981D01*
X0088331Y0097715D01*
X0097048Y0094068D02*
X0097782Y0094802D01*
X0097782Y0092600D01*
X0097048Y0092600D02*
X0098516Y0092600D01*
X0099258Y0092967D02*
X0100726Y0094435D01*
X0100726Y0092967D01*
X0100359Y0092600D01*
X0099625Y0092600D01*
X0099258Y0092967D01*
X0099258Y0094435D01*
X0099625Y0094802D01*
X0100359Y0094802D01*
X0100726Y0094435D01*
X0101468Y0094802D02*
X0101468Y0092600D01*
X0101468Y0093334D02*
X0102936Y0094802D01*
X0101835Y0093701D02*
X0102936Y0092600D01*
X0103063Y0098180D02*
X0103063Y0099648D01*
X0103063Y0098914D02*
X0100861Y0098914D01*
X0101595Y0098180D01*
X0100861Y0100390D02*
X0103063Y0100390D01*
X0102329Y0100390D02*
X0100861Y0101858D01*
X0101962Y0100757D02*
X0103063Y0101858D01*
X0115501Y0102202D02*
X0115501Y0103670D01*
X0115501Y0102936D02*
X0117703Y0102936D01*
X0116969Y0103670D01*
X0117336Y0101460D02*
X0115868Y0101460D01*
X0117336Y0099992D01*
X0115868Y0099992D01*
X0115501Y0100359D01*
X0115501Y0101093D01*
X0115868Y0101460D01*
X0117336Y0101460D02*
X0117703Y0101093D01*
X0117703Y0100359D01*
X0117336Y0099992D01*
X0117703Y0099250D02*
X0115501Y0099250D01*
X0116235Y0099250D02*
X0117703Y0097782D01*
X0116602Y0098883D02*
X0115501Y0097782D01*
X0117695Y0106850D02*
X0116961Y0107584D01*
X0119163Y0107584D01*
X0119163Y0106850D02*
X0119163Y0108318D01*
X0118796Y0109060D02*
X0117328Y0110528D01*
X0118796Y0110528D01*
X0119163Y0110161D01*
X0119163Y0109427D01*
X0118796Y0109060D01*
X0117328Y0109060D01*
X0116961Y0109427D01*
X0116961Y0110161D01*
X0117328Y0110528D01*
X0116961Y0111270D02*
X0119163Y0111270D01*
X0118429Y0111270D02*
X0116961Y0112738D01*
X0118062Y0111637D02*
X0119163Y0112738D01*
X0153504Y0122600D02*
X0154972Y0122600D01*
X0155714Y0122600D02*
X0156448Y0122600D01*
X0156081Y0122600D02*
X0156081Y0124068D01*
X0155714Y0124068D01*
X0156081Y0124802D02*
X0156081Y0125169D01*
X0157187Y0124068D02*
X0157554Y0124068D01*
X0157921Y0123701D01*
X0158288Y0124068D01*
X0158655Y0123701D01*
X0158655Y0122600D01*
X0157921Y0122600D02*
X0157921Y0123701D01*
X0157187Y0124068D02*
X0157187Y0122600D01*
X0159397Y0122600D02*
X0160131Y0122600D01*
X0159764Y0122600D02*
X0159764Y0124068D01*
X0159397Y0124068D01*
X0159764Y0124802D02*
X0159764Y0125169D01*
X0160871Y0124068D02*
X0161605Y0124068D01*
X0161238Y0124435D02*
X0161238Y0122967D01*
X0161605Y0122600D01*
X0164554Y0122967D02*
X0164921Y0122600D01*
X0165655Y0122600D01*
X0166022Y0122967D01*
X0166022Y0123334D01*
X0165655Y0123701D01*
X0164921Y0123701D01*
X0164554Y0124068D01*
X0164554Y0124435D01*
X0164921Y0124802D01*
X0165655Y0124802D01*
X0166022Y0124435D01*
X0166764Y0124068D02*
X0166764Y0122967D01*
X0167131Y0122600D01*
X0167498Y0122967D01*
X0167865Y0122600D01*
X0168231Y0122967D01*
X0168231Y0124068D01*
X0168973Y0124068D02*
X0169340Y0124068D01*
X0169340Y0122600D01*
X0168973Y0122600D02*
X0169707Y0122600D01*
X0170814Y0122967D02*
X0171181Y0122600D01*
X0170814Y0122967D02*
X0170814Y0124435D01*
X0170447Y0124068D02*
X0171181Y0124068D01*
X0171920Y0123701D02*
X0171920Y0122967D01*
X0172287Y0122600D01*
X0173388Y0122600D01*
X0174130Y0122600D02*
X0174130Y0124802D01*
X0174497Y0124068D02*
X0175231Y0124068D01*
X0175598Y0123701D01*
X0175598Y0122600D01*
X0174130Y0123701D02*
X0174497Y0124068D01*
X0173388Y0124068D02*
X0172287Y0124068D01*
X0171920Y0123701D01*
X0169340Y0124802D02*
X0169340Y0125169D01*
X0153504Y0124802D02*
X0153504Y0122600D01*
X0187653Y0102068D02*
X0188387Y0102802D01*
X0188387Y0100600D01*
X0187653Y0100600D02*
X0189121Y0100600D01*
X0189863Y0100600D02*
X0189863Y0102802D01*
X0190230Y0101701D02*
X0191331Y0100600D01*
X0189863Y0101334D02*
X0191331Y0102802D01*
X0194153Y0102068D02*
X0194887Y0102802D01*
X0194887Y0100600D01*
X0194153Y0100600D02*
X0195621Y0100600D01*
X0196363Y0100600D02*
X0196363Y0102802D01*
X0196730Y0101701D02*
X0197831Y0100600D01*
X0196363Y0101334D02*
X0197831Y0102802D01*
X0205461Y0108336D02*
X0205828Y0107969D01*
X0205461Y0108336D02*
X0205461Y0109070D01*
X0205828Y0109437D01*
X0206195Y0109437D01*
X0207663Y0107969D01*
X0207663Y0109437D01*
X0207296Y0110179D02*
X0205828Y0111647D01*
X0207296Y0111647D01*
X0207663Y0111280D01*
X0207663Y0110546D01*
X0207296Y0110179D01*
X0205828Y0110179D01*
X0205461Y0110546D01*
X0205461Y0111280D01*
X0205828Y0111647D01*
X0205461Y0112389D02*
X0207663Y0112389D01*
X0206929Y0112389D02*
X0207663Y0113490D01*
X0206929Y0112389D02*
X0206195Y0113490D01*
X0234363Y0112102D02*
X0234363Y0109900D01*
X0234363Y0110634D02*
X0235464Y0110634D01*
X0235831Y0111001D01*
X0235831Y0111735D01*
X0235464Y0112102D01*
X0234363Y0112102D01*
X0236573Y0112102D02*
X0236573Y0109900D01*
X0237307Y0110634D01*
X0238041Y0109900D01*
X0238041Y0112102D01*
X0238783Y0112102D02*
X0239884Y0112102D01*
X0240251Y0111735D01*
X0240251Y0111001D01*
X0239884Y0110634D01*
X0238783Y0110634D01*
X0239517Y0110634D02*
X0240251Y0109900D01*
X0238783Y0109900D02*
X0238783Y0112102D01*
X0190565Y0082166D02*
X0188363Y0082166D01*
X0188363Y0082900D02*
X0188363Y0081432D01*
X0188730Y0080690D02*
X0188363Y0080323D01*
X0188363Y0079222D01*
X0189831Y0079222D01*
X0189464Y0078480D02*
X0189464Y0077746D01*
X0190565Y0078480D02*
X0190565Y0077012D01*
X0190565Y0078480D02*
X0188363Y0078480D01*
X0188730Y0080690D02*
X0189831Y0080690D01*
X0190565Y0082166D02*
X0189831Y0082900D01*
X0174121Y0086200D02*
X0173020Y0087301D01*
X0172653Y0086934D02*
X0174121Y0088402D01*
X0172653Y0088402D02*
X0172653Y0086200D01*
X0171911Y0086200D02*
X0170443Y0086200D01*
X0171177Y0086200D02*
X0171177Y0088402D01*
X0170443Y0087668D01*
X0179097Y0073302D02*
X0179097Y0071100D01*
X0178363Y0071100D02*
X0179831Y0071100D01*
X0180573Y0071100D02*
X0180573Y0073302D01*
X0180940Y0072201D02*
X0182041Y0071100D01*
X0180573Y0071834D02*
X0182041Y0073302D01*
X0179097Y0073302D02*
X0178363Y0072568D01*
X0170122Y0071168D02*
X0169021Y0070434D01*
X0170122Y0069700D01*
X0169021Y0069700D02*
X0169021Y0071902D01*
X0168279Y0071535D02*
X0166812Y0070067D01*
X0167178Y0069700D01*
X0167912Y0069700D01*
X0168279Y0070067D01*
X0168279Y0071535D01*
X0167912Y0071902D01*
X0167178Y0071902D01*
X0166812Y0071535D01*
X0166812Y0070067D01*
X0166070Y0070067D02*
X0165703Y0069700D01*
X0164969Y0069700D01*
X0164602Y0070067D01*
X0166070Y0071535D01*
X0166070Y0070067D01*
X0166070Y0071535D02*
X0165703Y0071902D01*
X0164969Y0071902D01*
X0164602Y0071535D01*
X0164602Y0070067D01*
X0163860Y0069700D02*
X0162392Y0069700D01*
X0163860Y0071168D01*
X0163860Y0071535D01*
X0163493Y0071902D01*
X0162759Y0071902D01*
X0162392Y0071535D01*
X0123065Y0062166D02*
X0120863Y0062166D01*
X0120863Y0062900D02*
X0120863Y0061432D01*
X0121230Y0060690D02*
X0122698Y0059222D01*
X0121230Y0059222D01*
X0120863Y0059589D01*
X0120863Y0060323D01*
X0121230Y0060690D01*
X0122698Y0060690D01*
X0123065Y0060323D01*
X0123065Y0059589D01*
X0122698Y0059222D01*
X0123065Y0058480D02*
X0120863Y0058480D01*
X0121597Y0058480D02*
X0123065Y0057012D01*
X0121964Y0058113D02*
X0120863Y0057012D01*
X0123065Y0062166D02*
X0122331Y0062900D01*
X0110880Y0073600D02*
X0109412Y0073600D01*
X0110880Y0075068D01*
X0109412Y0075068D01*
X0108670Y0074701D02*
X0107203Y0074701D01*
X0107203Y0073600D02*
X0107203Y0075802D01*
X0106461Y0075802D02*
X0106461Y0073600D01*
X0104993Y0073600D02*
X0104993Y0075802D01*
X0105727Y0075068D01*
X0106461Y0075802D01*
X0108670Y0075802D02*
X0108670Y0073600D01*
X0102041Y0073967D02*
X0101674Y0073600D01*
X0100940Y0073600D01*
X0100573Y0073967D01*
X0100573Y0074701D01*
X0101674Y0074701D01*
X0102041Y0074334D01*
X0102041Y0073967D01*
X0101307Y0075435D02*
X0100573Y0074701D01*
X0101307Y0075435D02*
X0102041Y0075802D01*
X0099097Y0075802D02*
X0098363Y0075068D01*
X0099097Y0075802D02*
X0099097Y0073600D01*
X0098363Y0073600D02*
X0099831Y0073600D01*
X0095041Y0037802D02*
X0093573Y0036334D01*
X0093940Y0036701D02*
X0095041Y0035600D01*
X0093573Y0035600D02*
X0093573Y0037802D01*
X0092097Y0037802D02*
X0092097Y0035600D01*
X0091363Y0035600D02*
X0092831Y0035600D01*
X0091363Y0037068D02*
X0092097Y0037802D01*
X0070163Y0034016D02*
X0070163Y0033282D01*
X0069796Y0032915D01*
X0069062Y0032915D02*
X0068695Y0033649D01*
X0068695Y0034016D01*
X0069062Y0034383D01*
X0069796Y0034383D01*
X0070163Y0034016D01*
X0069062Y0032915D02*
X0067961Y0032915D01*
X0067961Y0034383D01*
X0067961Y0032173D02*
X0068328Y0032173D01*
X0069796Y0030705D01*
X0070163Y0030705D01*
X0070163Y0029967D02*
X0070163Y0029600D01*
X0069796Y0029600D01*
X0069796Y0029967D01*
X0070163Y0029967D01*
X0067961Y0030705D02*
X0067961Y0032173D01*
D14*
X0027861Y0036728D02*
X0002665Y0036728D01*
X0002665Y0098933D01*
X0027861Y0098933D01*
X0027861Y0036728D01*
X0101704Y0060201D02*
X0101704Y0072799D01*
X0106822Y0072799D01*
X0106822Y0060201D01*
X0101704Y0060201D01*
X0161330Y0136250D02*
X0163131Y0136250D01*
X0162231Y0136250D02*
X0162231Y0138952D01*
X0161330Y0138052D01*
X0164276Y0136700D02*
X0164727Y0136700D01*
X0164727Y0136250D01*
X0164276Y0136250D01*
X0164276Y0136700D01*
X0165750Y0136700D02*
X0165750Y0137601D01*
X0167101Y0137601D01*
X0167551Y0137151D01*
X0167551Y0136700D01*
X0167101Y0136250D01*
X0166200Y0136250D01*
X0165750Y0136700D01*
X0165750Y0137601D02*
X0166650Y0138502D01*
X0167551Y0138952D01*
X0168942Y0141050D02*
X0170293Y0141050D01*
X0170743Y0141500D01*
X0170743Y0141951D01*
X0170293Y0142401D01*
X0168942Y0142401D01*
X0170293Y0142401D02*
X0170743Y0142852D01*
X0170743Y0143302D01*
X0170293Y0143752D01*
X0168942Y0143752D01*
X0168942Y0141050D01*
X0171888Y0141500D02*
X0172339Y0141050D01*
X0173239Y0141050D01*
X0173690Y0141500D01*
X0173690Y0142401D01*
X0173239Y0142852D01*
X0172339Y0142852D01*
X0171888Y0142401D01*
X0171888Y0141500D01*
X0174835Y0141500D02*
X0175285Y0141050D01*
X0176636Y0141050D01*
X0176636Y0142401D01*
X0176186Y0142852D01*
X0175285Y0142852D01*
X0175285Y0141951D02*
X0176636Y0141951D01*
X0177781Y0141951D02*
X0178682Y0142852D01*
X0179132Y0142852D01*
X0180237Y0142401D02*
X0180687Y0142852D01*
X0182038Y0142852D01*
X0182038Y0143752D02*
X0182038Y0141050D01*
X0180687Y0141050D01*
X0180237Y0141500D01*
X0180237Y0142401D01*
X0177781Y0142852D02*
X0177781Y0141050D01*
X0175285Y0141951D02*
X0174835Y0141500D01*
X0164850Y0141951D02*
X0163049Y0141951D01*
X0163049Y0142401D02*
X0163499Y0142852D01*
X0164400Y0142852D01*
X0164850Y0142401D01*
X0164850Y0141951D01*
X0164400Y0141050D02*
X0163499Y0141050D01*
X0163049Y0141500D01*
X0163049Y0142401D01*
X0161904Y0142852D02*
X0161904Y0140600D01*
X0161453Y0140149D01*
X0161003Y0140149D01*
X0160553Y0141050D02*
X0161904Y0141050D01*
X0160553Y0141050D02*
X0160102Y0141500D01*
X0160102Y0142401D01*
X0160553Y0142852D01*
X0161904Y0142852D01*
X0158957Y0142401D02*
X0158957Y0141050D01*
X0158957Y0142401D02*
X0158507Y0142852D01*
X0157156Y0142852D01*
X0157156Y0141050D01*
X0156092Y0141050D02*
X0155191Y0141050D01*
X0155642Y0141050D02*
X0155642Y0142852D01*
X0155191Y0142852D01*
X0155642Y0143752D02*
X0155642Y0144203D01*
X0154087Y0142852D02*
X0153637Y0142852D01*
X0152736Y0141951D01*
X0152736Y0141050D02*
X0152736Y0142852D01*
X0151591Y0142852D02*
X0151591Y0140600D01*
X0151140Y0140149D01*
X0150690Y0140149D01*
X0150240Y0141050D02*
X0151591Y0141050D01*
X0150240Y0141050D02*
X0149789Y0141500D01*
X0149789Y0142852D01*
X0148644Y0143302D02*
X0148194Y0143752D01*
X0147293Y0143752D01*
X0146843Y0143302D01*
X0146843Y0142852D01*
X0147293Y0142401D01*
X0148194Y0142401D01*
X0148644Y0141951D01*
X0148644Y0141500D01*
X0148194Y0141050D01*
X0147293Y0141050D01*
X0146843Y0141500D01*
D15*
X0075625Y0094681D02*
X0075625Y0092319D01*
X0070901Y0092319D02*
X0070901Y0094681D01*
X0039820Y0054570D02*
X0037685Y0054570D01*
X0036617Y0053503D01*
X0036617Y0051368D01*
X0037685Y0050300D01*
X0039820Y0050300D01*
X0040888Y0051368D01*
X0040888Y0053503D01*
X0039820Y0054570D01*
X0071401Y0033681D02*
X0071401Y0031319D01*
X0076125Y0031319D02*
X0076125Y0033681D01*
D16*
X0075785Y0062700D02*
X0074250Y0062700D01*
X0073483Y0063467D01*
X0074250Y0065002D02*
X0075785Y0065002D01*
X0076552Y0064235D01*
X0076552Y0063467D01*
X0075785Y0062700D01*
X0078087Y0062700D02*
X0081156Y0062700D01*
X0082690Y0062700D02*
X0084992Y0062700D01*
X0085760Y0063467D01*
X0085760Y0064235D01*
X0084992Y0065002D01*
X0082690Y0065002D01*
X0082690Y0067304D02*
X0084992Y0067304D01*
X0085760Y0066537D01*
X0085760Y0065769D01*
X0084992Y0065002D01*
X0082690Y0062700D02*
X0082690Y0067304D01*
X0078087Y0067304D02*
X0078087Y0062700D01*
X0074250Y0065002D02*
X0073483Y0065769D01*
X0073483Y0066537D01*
X0074250Y0067304D01*
X0075785Y0067304D01*
X0076552Y0066537D01*
X0071948Y0066537D02*
X0068879Y0063467D01*
X0068879Y0062700D01*
X0067344Y0063467D02*
X0066577Y0062700D01*
X0065042Y0062700D01*
X0064275Y0063467D01*
X0064275Y0065002D01*
X0066577Y0065002D01*
X0067344Y0064235D01*
X0067344Y0063467D01*
X0064275Y0065002D02*
X0065809Y0066537D01*
X0067344Y0067304D01*
X0068879Y0067304D02*
X0071948Y0067304D01*
X0071948Y0066537D01*
X0062740Y0066537D02*
X0062740Y0063467D01*
X0061973Y0062700D01*
X0060438Y0062700D01*
X0059671Y0063467D01*
X0058136Y0063467D02*
X0057369Y0062700D01*
X0055834Y0062700D01*
X0055067Y0063467D01*
X0053532Y0062700D02*
X0053532Y0065769D01*
X0051998Y0067304D01*
X0050463Y0065769D01*
X0050463Y0062700D01*
X0050463Y0065002D02*
X0053532Y0065002D01*
X0055067Y0066537D02*
X0055834Y0067304D01*
X0057369Y0067304D01*
X0058136Y0066537D01*
X0058136Y0065769D01*
X0057369Y0065002D01*
X0058136Y0064235D01*
X0058136Y0063467D01*
X0057369Y0065002D02*
X0056602Y0065002D01*
X0059671Y0065769D02*
X0059671Y0066537D01*
X0060438Y0067304D01*
X0061973Y0067304D01*
X0062740Y0066537D01*
X0062740Y0065002D02*
X0060438Y0065002D01*
X0059671Y0065769D01*
X0244968Y0091898D02*
X0244968Y0110795D01*
X0254023Y0110795D01*
X0261503Y0110795D02*
X0270558Y0110795D01*
X0270558Y0091898D01*
X0263865Y0085205D01*
X0261503Y0085205D01*
X0254023Y0085205D02*
X0251661Y0085205D01*
X0244968Y0091898D01*
D17*
X0196263Y0094000D03*
X0189763Y0094000D03*
X0179263Y0079500D03*
X0172763Y0079500D03*
X0166263Y0079500D03*
X0117763Y0060000D03*
X0083763Y0094500D03*
X0105763Y0100000D03*
X0112401Y0100020D03*
X0122263Y0108500D03*
X0050263Y0095500D03*
X0037263Y0103500D03*
X0022763Y0105000D03*
X0033763Y0082000D03*
X0032763Y0061000D03*
D18*
X0029263Y0044500D03*
X0092263Y0032500D03*
X0101763Y0090000D03*
X0040263Y0092500D03*
X0022763Y0092000D03*
X0214263Y0111000D03*
D19*
X0185383Y0079500D02*
X0185143Y0079500D01*
X0027883Y0082000D02*
X0027643Y0082000D01*
X0027643Y0061000D02*
X0027883Y0061000D01*
D20*
X0120464Y0066701D02*
X0120464Y0092902D01*
X0121861Y0094299D01*
X0148062Y0094299D01*
X0148062Y0066701D01*
X0120464Y0066701D01*
X0119263Y0095000D02*
X0119265Y0095049D01*
X0119271Y0095097D01*
X0119281Y0095145D01*
X0119295Y0095192D01*
X0119312Y0095238D01*
X0119333Y0095282D01*
X0119358Y0095324D01*
X0119386Y0095364D01*
X0119418Y0095402D01*
X0119452Y0095437D01*
X0119489Y0095469D01*
X0119528Y0095498D01*
X0119570Y0095524D01*
X0119614Y0095546D01*
X0119659Y0095564D01*
X0119706Y0095579D01*
X0119753Y0095590D01*
X0119802Y0095597D01*
X0119851Y0095600D01*
X0119900Y0095599D01*
X0119948Y0095594D01*
X0119997Y0095585D01*
X0120044Y0095572D01*
X0120090Y0095555D01*
X0120134Y0095535D01*
X0120177Y0095511D01*
X0120218Y0095484D01*
X0120256Y0095453D01*
X0120292Y0095420D01*
X0120324Y0095384D01*
X0120354Y0095345D01*
X0120381Y0095304D01*
X0120404Y0095260D01*
X0120423Y0095215D01*
X0120439Y0095169D01*
X0120451Y0095122D01*
X0120459Y0095073D01*
X0120463Y0095024D01*
X0120463Y0094976D01*
X0120459Y0094927D01*
X0120451Y0094878D01*
X0120439Y0094831D01*
X0120423Y0094785D01*
X0120404Y0094740D01*
X0120381Y0094696D01*
X0120354Y0094655D01*
X0120324Y0094616D01*
X0120292Y0094580D01*
X0120256Y0094547D01*
X0120218Y0094516D01*
X0120177Y0094489D01*
X0120134Y0094465D01*
X0120090Y0094445D01*
X0120044Y0094428D01*
X0119997Y0094415D01*
X0119948Y0094406D01*
X0119900Y0094401D01*
X0119851Y0094400D01*
X0119802Y0094403D01*
X0119753Y0094410D01*
X0119706Y0094421D01*
X0119659Y0094436D01*
X0119614Y0094454D01*
X0119570Y0094476D01*
X0119528Y0094502D01*
X0119489Y0094531D01*
X0119452Y0094563D01*
X0119418Y0094598D01*
X0119386Y0094636D01*
X0119358Y0094676D01*
X0119333Y0094718D01*
X0119312Y0094762D01*
X0119295Y0094808D01*
X0119281Y0094855D01*
X0119271Y0094903D01*
X0119265Y0094951D01*
X0119263Y0095000D01*
X0227712Y0110080D02*
X0228932Y0111000D01*
X0228932Y0112811D01*
X0227712Y0111860D02*
X0228872Y0111100D01*
X0228932Y0111000D02*
X0228932Y0109189D01*
D21*
X0261577Y0086221D02*
X0261467Y0086563D01*
X0261745Y0086657D01*
X0262021Y0086757D01*
X0262294Y0086865D01*
X0262565Y0086979D01*
X0262833Y0087099D01*
X0263097Y0087226D01*
X0263359Y0087360D01*
X0263617Y0087499D01*
X0263871Y0087646D01*
X0264122Y0087798D01*
X0264370Y0087956D01*
X0264613Y0088120D01*
X0264852Y0088291D01*
X0265087Y0088467D01*
X0265318Y0088648D01*
X0265544Y0088835D01*
X0265765Y0089028D01*
X0265982Y0089226D01*
X0266194Y0089430D01*
X0266400Y0089638D01*
X0266602Y0089851D01*
X0266798Y0090070D01*
X0266989Y0090293D01*
X0267175Y0090520D01*
X0267355Y0090752D01*
X0267529Y0090989D01*
X0267697Y0091229D01*
X0267859Y0091474D01*
X0268016Y0091722D01*
X0268166Y0091974D01*
X0268310Y0092230D01*
X0268448Y0092489D01*
X0268579Y0092752D01*
X0268704Y0093018D01*
X0268822Y0093286D01*
X0268934Y0093558D01*
X0269039Y0093832D01*
X0269138Y0094108D01*
X0269229Y0094387D01*
X0269314Y0094668D01*
X0269392Y0094951D01*
X0269463Y0095236D01*
X0269527Y0095523D01*
X0269584Y0095811D01*
X0269634Y0096100D01*
X0269677Y0096390D01*
X0269712Y0096682D01*
X0269741Y0096974D01*
X0269763Y0097267D01*
X0269777Y0097560D01*
X0269784Y0097853D01*
X0269784Y0098147D01*
X0269777Y0098440D01*
X0269763Y0098733D01*
X0269741Y0099026D01*
X0269712Y0099318D01*
X0269677Y0099610D01*
X0269634Y0099900D01*
X0269584Y0100189D01*
X0269527Y0100477D01*
X0269463Y0100764D01*
X0269392Y0101049D01*
X0269314Y0101332D01*
X0269229Y0101613D01*
X0269138Y0101892D01*
X0269039Y0102168D01*
X0268934Y0102442D01*
X0268822Y0102714D01*
X0268704Y0102982D01*
X0268579Y0103248D01*
X0268448Y0103511D01*
X0268310Y0103770D01*
X0268166Y0104026D01*
X0268016Y0104278D01*
X0267859Y0104526D01*
X0267697Y0104771D01*
X0267529Y0105011D01*
X0267355Y0105248D01*
X0267175Y0105480D01*
X0266989Y0105707D01*
X0266798Y0105930D01*
X0266602Y0106149D01*
X0266400Y0106362D01*
X0266194Y0106570D01*
X0265982Y0106774D01*
X0265765Y0106972D01*
X0265544Y0107165D01*
X0265318Y0107352D01*
X0265087Y0107533D01*
X0264852Y0107709D01*
X0264613Y0107880D01*
X0264370Y0108044D01*
X0264122Y0108202D01*
X0263871Y0108354D01*
X0263617Y0108501D01*
X0263359Y0108640D01*
X0263097Y0108774D01*
X0262833Y0108901D01*
X0262565Y0109021D01*
X0262294Y0109135D01*
X0262021Y0109243D01*
X0261745Y0109343D01*
X0261467Y0109437D01*
X0261577Y0109779D01*
X0261578Y0109780D01*
X0261864Y0109683D01*
X0262148Y0109580D01*
X0262429Y0109469D01*
X0262708Y0109352D01*
X0262984Y0109227D01*
X0263256Y0109097D01*
X0263526Y0108959D01*
X0263792Y0108815D01*
X0264054Y0108665D01*
X0264312Y0108508D01*
X0264567Y0108345D01*
X0264818Y0108176D01*
X0265064Y0108000D01*
X0265306Y0107819D01*
X0265544Y0107632D01*
X0265776Y0107439D01*
X0266005Y0107241D01*
X0266228Y0107037D01*
X0266446Y0106827D01*
X0266659Y0106613D01*
X0266866Y0106393D01*
X0267069Y0106168D01*
X0267265Y0105938D01*
X0267456Y0105704D01*
X0267642Y0105465D01*
X0267821Y0105222D01*
X0267994Y0104974D01*
X0268161Y0104722D01*
X0268323Y0104466D01*
X0268477Y0104206D01*
X0268626Y0103943D01*
X0268767Y0103676D01*
X0268903Y0103405D01*
X0269031Y0103132D01*
X0269153Y0102855D01*
X0269269Y0102576D01*
X0269377Y0102293D01*
X0269478Y0102008D01*
X0269573Y0101721D01*
X0269660Y0101432D01*
X0269740Y0101140D01*
X0269813Y0100847D01*
X0269879Y0100552D01*
X0269938Y0100255D01*
X0269989Y0099957D01*
X0270033Y0099658D01*
X0270070Y0099358D01*
X0270100Y0099057D01*
X0270122Y0098755D01*
X0270137Y0098453D01*
X0270144Y0098151D01*
X0270144Y0097849D01*
X0270137Y0097547D01*
X0270122Y0097245D01*
X0270100Y0096943D01*
X0270070Y0096642D01*
X0270033Y0096342D01*
X0269989Y0096043D01*
X0269938Y0095745D01*
X0269879Y0095448D01*
X0269813Y0095153D01*
X0269740Y0094860D01*
X0269660Y0094568D01*
X0269573Y0094279D01*
X0269478Y0093992D01*
X0269377Y0093707D01*
X0269269Y0093424D01*
X0269153Y0093145D01*
X0269031Y0092868D01*
X0268903Y0092595D01*
X0268767Y0092324D01*
X0268626Y0092057D01*
X0268477Y0091794D01*
X0268323Y0091534D01*
X0268161Y0091278D01*
X0267994Y0091026D01*
X0267821Y0090778D01*
X0267642Y0090535D01*
X0267456Y0090296D01*
X0267265Y0090062D01*
X0267069Y0089832D01*
X0266866Y0089607D01*
X0266659Y0089387D01*
X0266446Y0089173D01*
X0266228Y0088963D01*
X0266005Y0088759D01*
X0265776Y0088561D01*
X0265544Y0088368D01*
X0265306Y0088181D01*
X0265064Y0088000D01*
X0264818Y0087824D01*
X0264567Y0087655D01*
X0264312Y0087492D01*
X0264054Y0087335D01*
X0263792Y0087185D01*
X0263526Y0087041D01*
X0263256Y0086903D01*
X0262984Y0086773D01*
X0262708Y0086648D01*
X0262429Y0086531D01*
X0262148Y0086420D01*
X0261864Y0086317D01*
X0261578Y0086220D01*
X0261566Y0086255D01*
X0261852Y0086352D01*
X0262135Y0086455D01*
X0262416Y0086565D01*
X0262693Y0086682D01*
X0262968Y0086806D01*
X0263240Y0086937D01*
X0263509Y0087074D01*
X0263774Y0087217D01*
X0264035Y0087367D01*
X0264293Y0087523D01*
X0264547Y0087686D01*
X0264797Y0087855D01*
X0265042Y0088029D01*
X0265284Y0088210D01*
X0265520Y0088397D01*
X0265753Y0088589D01*
X0265980Y0088787D01*
X0266202Y0088990D01*
X0266420Y0089199D01*
X0266632Y0089413D01*
X0266839Y0089632D01*
X0267041Y0089856D01*
X0267237Y0090085D01*
X0267427Y0090319D01*
X0267612Y0090557D01*
X0267791Y0090800D01*
X0267964Y0091047D01*
X0268130Y0091298D01*
X0268291Y0091553D01*
X0268445Y0091812D01*
X0268593Y0092075D01*
X0268735Y0092341D01*
X0268869Y0092611D01*
X0268998Y0092883D01*
X0269119Y0093159D01*
X0269234Y0093438D01*
X0269342Y0093720D01*
X0269443Y0094004D01*
X0269537Y0094290D01*
X0269624Y0094579D01*
X0269704Y0094869D01*
X0269777Y0095162D01*
X0269843Y0095456D01*
X0269902Y0095752D01*
X0269953Y0096049D01*
X0269997Y0096347D01*
X0270034Y0096646D01*
X0270063Y0096946D01*
X0270085Y0097247D01*
X0270100Y0097548D01*
X0270107Y0097849D01*
X0270107Y0098151D01*
X0270100Y0098452D01*
X0270085Y0098753D01*
X0270063Y0099054D01*
X0270034Y0099354D01*
X0269997Y0099653D01*
X0269953Y0099951D01*
X0269902Y0100248D01*
X0269843Y0100544D01*
X0269777Y0100838D01*
X0269704Y0101131D01*
X0269624Y0101421D01*
X0269537Y0101710D01*
X0269443Y0101996D01*
X0269342Y0102280D01*
X0269234Y0102562D01*
X0269119Y0102841D01*
X0268998Y0103117D01*
X0268869Y0103389D01*
X0268735Y0103659D01*
X0268593Y0103925D01*
X0268445Y0104188D01*
X0268291Y0104447D01*
X0268130Y0104702D01*
X0267964Y0104953D01*
X0267791Y0105200D01*
X0267612Y0105443D01*
X0267427Y0105681D01*
X0267237Y0105915D01*
X0267041Y0106144D01*
X0266839Y0106368D01*
X0266632Y0106587D01*
X0266420Y0106801D01*
X0266202Y0107010D01*
X0265980Y0107213D01*
X0265753Y0107411D01*
X0265520Y0107603D01*
X0265284Y0107790D01*
X0265042Y0107971D01*
X0264797Y0108145D01*
X0264547Y0108314D01*
X0264293Y0108477D01*
X0264035Y0108633D01*
X0263774Y0108783D01*
X0263509Y0108926D01*
X0263240Y0109063D01*
X0262968Y0109194D01*
X0262693Y0109318D01*
X0262416Y0109435D01*
X0262135Y0109545D01*
X0261852Y0109648D01*
X0261566Y0109745D01*
X0261555Y0109709D01*
X0261840Y0109613D01*
X0262122Y0109510D01*
X0262402Y0109400D01*
X0262679Y0109284D01*
X0262953Y0109160D01*
X0263224Y0109030D01*
X0263491Y0108894D01*
X0263756Y0108751D01*
X0264016Y0108601D01*
X0264273Y0108445D01*
X0264527Y0108283D01*
X0264776Y0108115D01*
X0265020Y0107941D01*
X0265261Y0107760D01*
X0265497Y0107574D01*
X0265729Y0107383D01*
X0265955Y0107185D01*
X0266177Y0106983D01*
X0266394Y0106775D01*
X0266606Y0106561D01*
X0266812Y0106343D01*
X0267013Y0106119D01*
X0267209Y0105891D01*
X0267398Y0105658D01*
X0267583Y0105420D01*
X0267761Y0105178D01*
X0267933Y0104932D01*
X0268099Y0104682D01*
X0268259Y0104427D01*
X0268413Y0104169D01*
X0268561Y0103907D01*
X0268702Y0103642D01*
X0268836Y0103373D01*
X0268964Y0103101D01*
X0269085Y0102826D01*
X0269200Y0102548D01*
X0269307Y0102268D01*
X0269408Y0101984D01*
X0269502Y0101699D01*
X0269589Y0101411D01*
X0269669Y0101121D01*
X0269741Y0100830D01*
X0269807Y0100536D01*
X0269865Y0100242D01*
X0269916Y0099945D01*
X0269960Y0099648D01*
X0269997Y0099350D01*
X0270026Y0099051D01*
X0270048Y0098751D01*
X0270063Y0098451D01*
X0270070Y0098150D01*
X0270070Y0097850D01*
X0270063Y0097549D01*
X0270048Y0097249D01*
X0270026Y0096949D01*
X0269997Y0096650D01*
X0269960Y0096352D01*
X0269916Y0096055D01*
X0269865Y0095758D01*
X0269807Y0095464D01*
X0269741Y0095170D01*
X0269669Y0094879D01*
X0269589Y0094589D01*
X0269502Y0094301D01*
X0269408Y0094016D01*
X0269307Y0093732D01*
X0269200Y0093452D01*
X0269085Y0093174D01*
X0268964Y0092899D01*
X0268836Y0092627D01*
X0268702Y0092358D01*
X0268561Y0092093D01*
X0268413Y0091831D01*
X0268259Y0091573D01*
X0268099Y0091318D01*
X0267933Y0091068D01*
X0267761Y0090822D01*
X0267583Y0090580D01*
X0267398Y0090342D01*
X0267209Y0090109D01*
X0267013Y0089881D01*
X0266812Y0089657D01*
X0266606Y0089439D01*
X0266394Y0089225D01*
X0266177Y0089017D01*
X0265955Y0088815D01*
X0265729Y0088617D01*
X0265497Y0088426D01*
X0265261Y0088240D01*
X0265020Y0088059D01*
X0264776Y0087885D01*
X0264527Y0087717D01*
X0264273Y0087555D01*
X0264016Y0087399D01*
X0263756Y0087249D01*
X0263491Y0087106D01*
X0263224Y0086970D01*
X0262953Y0086840D01*
X0262679Y0086716D01*
X0262402Y0086600D01*
X0262122Y0086490D01*
X0261840Y0086387D01*
X0261555Y0086291D01*
X0261543Y0086326D01*
X0261827Y0086422D01*
X0262109Y0086524D01*
X0262388Y0086634D01*
X0262664Y0086750D01*
X0262937Y0086873D01*
X0263207Y0087003D01*
X0263474Y0087139D01*
X0263738Y0087282D01*
X0263998Y0087431D01*
X0264254Y0087586D01*
X0264506Y0087748D01*
X0264755Y0087916D01*
X0264999Y0088089D01*
X0265239Y0088269D01*
X0265474Y0088454D01*
X0265705Y0088645D01*
X0265931Y0088842D01*
X0266152Y0089044D01*
X0266368Y0089252D01*
X0266579Y0089465D01*
X0266785Y0089682D01*
X0266985Y0089905D01*
X0267180Y0090133D01*
X0267369Y0090365D01*
X0267553Y0090602D01*
X0267731Y0090843D01*
X0267903Y0091089D01*
X0268068Y0091338D01*
X0268228Y0091592D01*
X0268381Y0091849D01*
X0268528Y0092110D01*
X0268669Y0092375D01*
X0268803Y0092643D01*
X0268930Y0092914D01*
X0269051Y0093188D01*
X0269165Y0093465D01*
X0269273Y0093745D01*
X0269373Y0094028D01*
X0269467Y0094312D01*
X0269553Y0094599D01*
X0269633Y0094888D01*
X0269705Y0095179D01*
X0269771Y0095471D01*
X0269829Y0095765D01*
X0269880Y0096060D01*
X0269923Y0096357D01*
X0269960Y0096654D01*
X0269989Y0096952D01*
X0270011Y0097251D01*
X0270026Y0097551D01*
X0270033Y0097850D01*
X0270033Y0098150D01*
X0270026Y0098449D01*
X0270011Y0098749D01*
X0269989Y0099048D01*
X0269960Y0099346D01*
X0269923Y0099643D01*
X0269880Y0099940D01*
X0269829Y0100235D01*
X0269771Y0100529D01*
X0269705Y0100821D01*
X0269633Y0101112D01*
X0269553Y0101401D01*
X0269467Y0101688D01*
X0269373Y0101972D01*
X0269273Y0102255D01*
X0269165Y0102535D01*
X0269051Y0102812D01*
X0268930Y0103086D01*
X0268803Y0103357D01*
X0268669Y0103625D01*
X0268528Y0103890D01*
X0268381Y0104151D01*
X0268228Y0104408D01*
X0268068Y0104662D01*
X0267903Y0104911D01*
X0267731Y0105157D01*
X0267553Y0105398D01*
X0267369Y0105635D01*
X0267180Y0105867D01*
X0266985Y0106095D01*
X0266785Y0106318D01*
X0266579Y0106535D01*
X0266368Y0106748D01*
X0266152Y0106956D01*
X0265931Y0107158D01*
X0265705Y0107355D01*
X0265474Y0107546D01*
X0265239Y0107731D01*
X0264999Y0107911D01*
X0264755Y0108084D01*
X0264506Y0108252D01*
X0264254Y0108414D01*
X0263998Y0108569D01*
X0263738Y0108718D01*
X0263474Y0108861D01*
X0263207Y0108997D01*
X0262937Y0109127D01*
X0262664Y0109250D01*
X0262388Y0109366D01*
X0262109Y0109476D01*
X0261827Y0109578D01*
X0261543Y0109674D01*
X0261532Y0109639D01*
X0261815Y0109543D01*
X0262096Y0109441D01*
X0262374Y0109332D01*
X0262649Y0109216D01*
X0262922Y0109093D01*
X0263191Y0108964D01*
X0263457Y0108828D01*
X0263720Y0108686D01*
X0263979Y0108537D01*
X0264234Y0108382D01*
X0264486Y0108221D01*
X0264733Y0108054D01*
X0264977Y0107881D01*
X0265216Y0107702D01*
X0265451Y0107517D01*
X0265681Y0107326D01*
X0265906Y0107130D01*
X0266127Y0106929D01*
X0266342Y0106722D01*
X0266553Y0106510D01*
X0266758Y0106293D01*
X0266958Y0106070D01*
X0267152Y0105844D01*
X0267341Y0105612D01*
X0267524Y0105376D01*
X0267701Y0105135D01*
X0267872Y0104890D01*
X0268037Y0104642D01*
X0268196Y0104389D01*
X0268349Y0104132D01*
X0268496Y0103872D01*
X0268636Y0103608D01*
X0268770Y0103341D01*
X0268897Y0103070D01*
X0269017Y0102797D01*
X0269131Y0102521D01*
X0269238Y0102242D01*
X0269338Y0101960D01*
X0269431Y0101677D01*
X0269518Y0101391D01*
X0269597Y0101103D01*
X0269669Y0100813D01*
X0269734Y0100521D01*
X0269792Y0100228D01*
X0269843Y0099934D01*
X0269887Y0099638D01*
X0269923Y0099342D01*
X0269952Y0099044D01*
X0269974Y0098746D01*
X0269989Y0098448D01*
X0269996Y0098149D01*
X0269996Y0097851D01*
X0269989Y0097552D01*
X0269974Y0097254D01*
X0269952Y0096956D01*
X0269923Y0096658D01*
X0269887Y0096362D01*
X0269843Y0096066D01*
X0269792Y0095772D01*
X0269734Y0095479D01*
X0269669Y0095187D01*
X0269597Y0094897D01*
X0269518Y0094609D01*
X0269431Y0094323D01*
X0269338Y0094040D01*
X0269238Y0093758D01*
X0269131Y0093479D01*
X0269017Y0093203D01*
X0268897Y0092930D01*
X0268770Y0092659D01*
X0268636Y0092392D01*
X0268496Y0092128D01*
X0268349Y0091868D01*
X0268196Y0091611D01*
X0268037Y0091358D01*
X0267872Y0091110D01*
X0267701Y0090865D01*
X0267524Y0090624D01*
X0267341Y0090388D01*
X0267152Y0090156D01*
X0266958Y0089930D01*
X0266758Y0089707D01*
X0266553Y0089490D01*
X0266342Y0089278D01*
X0266127Y0089071D01*
X0265906Y0088870D01*
X0265681Y0088674D01*
X0265451Y0088483D01*
X0265216Y0088298D01*
X0264977Y0088119D01*
X0264733Y0087946D01*
X0264486Y0087779D01*
X0264234Y0087618D01*
X0263979Y0087463D01*
X0263720Y0087314D01*
X0263457Y0087172D01*
X0263191Y0087036D01*
X0262922Y0086907D01*
X0262649Y0086784D01*
X0262374Y0086668D01*
X0262096Y0086559D01*
X0261815Y0086457D01*
X0261532Y0086361D01*
X0261521Y0086396D01*
X0261803Y0086492D01*
X0262083Y0086594D01*
X0262360Y0086702D01*
X0262635Y0086818D01*
X0262906Y0086940D01*
X0263175Y0087069D01*
X0263440Y0087205D01*
X0263702Y0087346D01*
X0263960Y0087495D01*
X0264215Y0087649D01*
X0264466Y0087810D01*
X0264712Y0087976D01*
X0264955Y0088149D01*
X0265194Y0088328D01*
X0265427Y0088512D01*
X0265657Y0088702D01*
X0265882Y0088897D01*
X0266101Y0089098D01*
X0266316Y0089305D01*
X0266526Y0089516D01*
X0266731Y0089733D01*
X0266930Y0089954D01*
X0267123Y0090180D01*
X0267312Y0090411D01*
X0267494Y0090647D01*
X0267671Y0090886D01*
X0267841Y0091130D01*
X0268006Y0091379D01*
X0268165Y0091631D01*
X0268317Y0091886D01*
X0268463Y0092146D01*
X0268603Y0092409D01*
X0268736Y0092675D01*
X0268863Y0092945D01*
X0268983Y0093217D01*
X0269097Y0093493D01*
X0269203Y0093771D01*
X0269303Y0094052D01*
X0269396Y0094334D01*
X0269482Y0094620D01*
X0269561Y0094907D01*
X0269633Y0095196D01*
X0269698Y0095486D01*
X0269756Y0095779D01*
X0269807Y0096072D01*
X0269850Y0096367D01*
X0269886Y0096662D01*
X0269915Y0096959D01*
X0269937Y0097256D01*
X0269952Y0097553D01*
X0269959Y0097851D01*
X0269959Y0098149D01*
X0269952Y0098447D01*
X0269937Y0098744D01*
X0269915Y0099041D01*
X0269886Y0099338D01*
X0269850Y0099633D01*
X0269807Y0099928D01*
X0269756Y0100221D01*
X0269698Y0100514D01*
X0269633Y0100804D01*
X0269561Y0101093D01*
X0269482Y0101380D01*
X0269396Y0101666D01*
X0269303Y0101948D01*
X0269203Y0102229D01*
X0269097Y0102507D01*
X0268983Y0102783D01*
X0268863Y0103055D01*
X0268736Y0103325D01*
X0268603Y0103591D01*
X0268463Y0103854D01*
X0268317Y0104114D01*
X0268165Y0104369D01*
X0268006Y0104621D01*
X0267841Y0104870D01*
X0267671Y0105114D01*
X0267494Y0105353D01*
X0267312Y0105589D01*
X0267123Y0105820D01*
X0266930Y0106046D01*
X0266731Y0106267D01*
X0266526Y0106484D01*
X0266316Y0106695D01*
X0266101Y0106902D01*
X0265882Y0107103D01*
X0265657Y0107298D01*
X0265427Y0107488D01*
X0265194Y0107672D01*
X0264955Y0107851D01*
X0264712Y0108024D01*
X0264466Y0108190D01*
X0264215Y0108351D01*
X0263960Y0108505D01*
X0263702Y0108654D01*
X0263440Y0108795D01*
X0263175Y0108931D01*
X0262906Y0109060D01*
X0262635Y0109182D01*
X0262360Y0109298D01*
X0262083Y0109406D01*
X0261803Y0109508D01*
X0261521Y0109604D01*
X0261509Y0109568D01*
X0261791Y0109474D01*
X0262070Y0109372D01*
X0262346Y0109263D01*
X0262620Y0109148D01*
X0262891Y0109026D01*
X0263158Y0108898D01*
X0263423Y0108763D01*
X0263684Y0108621D01*
X0263941Y0108473D01*
X0264195Y0108319D01*
X0264445Y0108159D01*
X0264691Y0107993D01*
X0264933Y0107821D01*
X0265171Y0107643D01*
X0265404Y0107459D01*
X0265633Y0107270D01*
X0265857Y0107075D01*
X0266076Y0106875D01*
X0266290Y0106669D01*
X0266499Y0106458D01*
X0266703Y0106242D01*
X0266902Y0106022D01*
X0267095Y0105796D01*
X0267283Y0105566D01*
X0267465Y0105331D01*
X0267641Y0105092D01*
X0267811Y0104849D01*
X0267975Y0104601D01*
X0268133Y0104350D01*
X0268285Y0104095D01*
X0268431Y0103836D01*
X0268570Y0103574D01*
X0268703Y0103308D01*
X0268829Y0103040D01*
X0268949Y0102768D01*
X0269062Y0102493D01*
X0269169Y0102216D01*
X0269268Y0101936D01*
X0269361Y0101654D01*
X0269447Y0101370D01*
X0269525Y0101084D01*
X0269597Y0100796D01*
X0269662Y0100506D01*
X0269720Y0100215D01*
X0269770Y0099922D01*
X0269813Y0099628D01*
X0269850Y0099334D01*
X0269879Y0099038D01*
X0269900Y0098742D01*
X0269915Y0098445D01*
X0269922Y0098148D01*
X0269922Y0097852D01*
X0269915Y0097555D01*
X0269900Y0097258D01*
X0269879Y0096962D01*
X0269850Y0096666D01*
X0269813Y0096372D01*
X0269770Y0096078D01*
X0269720Y0095785D01*
X0269662Y0095494D01*
X0269597Y0095204D01*
X0269525Y0094916D01*
X0269447Y0094630D01*
X0269361Y0094346D01*
X0269268Y0094064D01*
X0269169Y0093784D01*
X0269062Y0093507D01*
X0268949Y0093232D01*
X0268829Y0092960D01*
X0268703Y0092692D01*
X0268570Y0092426D01*
X0268431Y0092164D01*
X0268285Y0091905D01*
X0268133Y0091650D01*
X0267975Y0091399D01*
X0267811Y0091151D01*
X0267641Y0090908D01*
X0267465Y0090669D01*
X0267283Y0090434D01*
X0267095Y0090204D01*
X0266902Y0089978D01*
X0266703Y0089758D01*
X0266499Y0089542D01*
X0266290Y0089331D01*
X0266076Y0089125D01*
X0265857Y0088925D01*
X0265633Y0088730D01*
X0265404Y0088541D01*
X0265171Y0088357D01*
X0264933Y0088179D01*
X0264691Y0088007D01*
X0264445Y0087841D01*
X0264195Y0087681D01*
X0263941Y0087527D01*
X0263684Y0087379D01*
X0263423Y0087237D01*
X0263158Y0087102D01*
X0262891Y0086974D01*
X0262620Y0086852D01*
X0262346Y0086737D01*
X0262070Y0086628D01*
X0261791Y0086526D01*
X0261509Y0086432D01*
X0261498Y0086467D01*
X0261779Y0086561D01*
X0262057Y0086663D01*
X0262332Y0086771D01*
X0262605Y0086886D01*
X0262875Y0087008D01*
X0263142Y0087136D01*
X0263406Y0087270D01*
X0263666Y0087411D01*
X0263923Y0087558D01*
X0264176Y0087712D01*
X0264425Y0087872D01*
X0264670Y0088037D01*
X0264912Y0088209D01*
X0265148Y0088386D01*
X0265381Y0088570D01*
X0265609Y0088758D01*
X0265832Y0088953D01*
X0266051Y0089152D01*
X0266264Y0089357D01*
X0266473Y0089568D01*
X0266676Y0089783D01*
X0266874Y0090003D01*
X0267067Y0090228D01*
X0267254Y0090457D01*
X0267435Y0090691D01*
X0267611Y0090930D01*
X0267780Y0091172D01*
X0267944Y0091419D01*
X0268102Y0091669D01*
X0268253Y0091924D01*
X0268398Y0092182D01*
X0268537Y0092443D01*
X0268670Y0092708D01*
X0268796Y0092976D01*
X0268915Y0093246D01*
X0269028Y0093520D01*
X0269134Y0093797D01*
X0269233Y0094076D01*
X0269326Y0094357D01*
X0269411Y0094640D01*
X0269490Y0094926D01*
X0269561Y0095213D01*
X0269626Y0095502D01*
X0269683Y0095792D01*
X0269734Y0096084D01*
X0269777Y0096377D01*
X0269813Y0096671D01*
X0269842Y0096965D01*
X0269863Y0097260D01*
X0269878Y0097556D01*
X0269885Y0097852D01*
X0269885Y0098148D01*
X0269878Y0098444D01*
X0269863Y0098740D01*
X0269842Y0099035D01*
X0269813Y0099329D01*
X0269777Y0099623D01*
X0269734Y0099916D01*
X0269683Y0100208D01*
X0269626Y0100498D01*
X0269561Y0100787D01*
X0269490Y0101074D01*
X0269411Y0101360D01*
X0269326Y0101643D01*
X0269233Y0101924D01*
X0269134Y0102203D01*
X0269028Y0102480D01*
X0268915Y0102754D01*
X0268796Y0103024D01*
X0268670Y0103292D01*
X0268537Y0103557D01*
X0268398Y0103818D01*
X0268253Y0104076D01*
X0268102Y0104331D01*
X0267944Y0104581D01*
X0267780Y0104828D01*
X0267611Y0105070D01*
X0267435Y0105309D01*
X0267254Y0105543D01*
X0267067Y0105772D01*
X0266874Y0105997D01*
X0266676Y0106217D01*
X0266473Y0106432D01*
X0266264Y0106643D01*
X0266051Y0106848D01*
X0265832Y0107047D01*
X0265609Y0107242D01*
X0265381Y0107430D01*
X0265148Y0107614D01*
X0264912Y0107791D01*
X0264670Y0107963D01*
X0264425Y0108128D01*
X0264176Y0108288D01*
X0263923Y0108442D01*
X0263666Y0108589D01*
X0263406Y0108730D01*
X0263142Y0108864D01*
X0262875Y0108992D01*
X0262605Y0109114D01*
X0262332Y0109229D01*
X0262057Y0109337D01*
X0261779Y0109439D01*
X0261498Y0109533D01*
X0261487Y0109498D01*
X0261766Y0109404D01*
X0262044Y0109303D01*
X0262318Y0109195D01*
X0262590Y0109080D01*
X0262859Y0108959D01*
X0263125Y0108831D01*
X0263388Y0108697D01*
X0263648Y0108556D01*
X0263904Y0108410D01*
X0264156Y0108257D01*
X0264405Y0108097D01*
X0264649Y0107932D01*
X0264890Y0107761D01*
X0265126Y0107584D01*
X0265358Y0107402D01*
X0265585Y0107213D01*
X0265808Y0107020D01*
X0266026Y0106821D01*
X0266238Y0106616D01*
X0266446Y0106407D01*
X0266649Y0106192D01*
X0266846Y0105973D01*
X0267038Y0105749D01*
X0267225Y0105520D01*
X0267406Y0105286D01*
X0267581Y0105049D01*
X0267750Y0104807D01*
X0267913Y0104561D01*
X0268070Y0104311D01*
X0268221Y0104058D01*
X0268366Y0103801D01*
X0268504Y0103540D01*
X0268637Y0103276D01*
X0268762Y0103009D01*
X0268881Y0102739D01*
X0268994Y0102466D01*
X0269099Y0102191D01*
X0269198Y0101913D01*
X0269290Y0101632D01*
X0269376Y0101350D01*
X0269454Y0101065D01*
X0269525Y0100779D01*
X0269590Y0100491D01*
X0269647Y0100201D01*
X0269697Y0099910D01*
X0269740Y0099618D01*
X0269776Y0099325D01*
X0269805Y0099032D01*
X0269826Y0098737D01*
X0269841Y0098443D01*
X0269848Y0098148D01*
X0269848Y0097852D01*
X0269841Y0097557D01*
X0269826Y0097263D01*
X0269805Y0096968D01*
X0269776Y0096675D01*
X0269740Y0096382D01*
X0269697Y0096090D01*
X0269647Y0095799D01*
X0269590Y0095509D01*
X0269525Y0095221D01*
X0269454Y0094935D01*
X0269376Y0094650D01*
X0269290Y0094368D01*
X0269198Y0094087D01*
X0269099Y0093809D01*
X0268994Y0093534D01*
X0268881Y0093261D01*
X0268762Y0092991D01*
X0268637Y0092724D01*
X0268504Y0092460D01*
X0268366Y0092199D01*
X0268221Y0091942D01*
X0268070Y0091689D01*
X0267913Y0091439D01*
X0267750Y0091193D01*
X0267581Y0090951D01*
X0267406Y0090714D01*
X0267225Y0090480D01*
X0267038Y0090251D01*
X0266846Y0090027D01*
X0266649Y0089808D01*
X0266446Y0089593D01*
X0266238Y0089384D01*
X0266026Y0089179D01*
X0265808Y0088980D01*
X0265585Y0088787D01*
X0265358Y0088598D01*
X0265126Y0088416D01*
X0264890Y0088239D01*
X0264649Y0088068D01*
X0264405Y0087903D01*
X0264156Y0087743D01*
X0263904Y0087590D01*
X0263648Y0087444D01*
X0263388Y0087303D01*
X0263125Y0087169D01*
X0262859Y0087041D01*
X0262590Y0086920D01*
X0262318Y0086805D01*
X0262044Y0086697D01*
X0261766Y0086596D01*
X0261487Y0086502D01*
X0261475Y0086537D01*
X0261754Y0086631D01*
X0262031Y0086732D01*
X0262304Y0086840D01*
X0262576Y0086954D01*
X0262844Y0087075D01*
X0263109Y0087202D01*
X0263371Y0087336D01*
X0263630Y0087476D01*
X0263885Y0087622D01*
X0264137Y0087775D01*
X0264384Y0087933D01*
X0264628Y0088098D01*
X0264868Y0088269D01*
X0265103Y0088445D01*
X0265335Y0088627D01*
X0265561Y0088815D01*
X0265783Y0089008D01*
X0266000Y0089207D01*
X0266213Y0089410D01*
X0266420Y0089619D01*
X0266622Y0089833D01*
X0266819Y0090052D01*
X0267010Y0090275D01*
X0267196Y0090503D01*
X0267376Y0090736D01*
X0267551Y0090973D01*
X0267719Y0091214D01*
X0267882Y0091459D01*
X0268039Y0091708D01*
X0268189Y0091961D01*
X0268334Y0092217D01*
X0268472Y0092477D01*
X0268603Y0092740D01*
X0268728Y0093006D01*
X0268847Y0093276D01*
X0268959Y0093548D01*
X0269065Y0093822D01*
X0269163Y0094099D01*
X0269255Y0094379D01*
X0269340Y0094661D01*
X0269418Y0094944D01*
X0269489Y0095230D01*
X0269553Y0095517D01*
X0269610Y0095806D01*
X0269661Y0096096D01*
X0269703Y0096387D01*
X0269739Y0096679D01*
X0269768Y0096971D01*
X0269790Y0097265D01*
X0269804Y0097559D01*
X0269811Y0097853D01*
X0269811Y0098147D01*
X0269804Y0098441D01*
X0269790Y0098735D01*
X0269768Y0099029D01*
X0269739Y0099321D01*
X0269703Y0099613D01*
X0269661Y0099904D01*
X0269610Y0100194D01*
X0269553Y0100483D01*
X0269489Y0100770D01*
X0269418Y0101056D01*
X0269340Y0101339D01*
X0269255Y0101621D01*
X0269163Y0101901D01*
X0269065Y0102178D01*
X0268959Y0102452D01*
X0268847Y0102724D01*
X0268728Y0102994D01*
X0268603Y0103260D01*
X0268472Y0103523D01*
X0268334Y0103783D01*
X0268189Y0104039D01*
X0268039Y0104292D01*
X0267882Y0104541D01*
X0267719Y0104786D01*
X0267551Y0105027D01*
X0267376Y0105264D01*
X0267196Y0105497D01*
X0267010Y0105725D01*
X0266819Y0105948D01*
X0266622Y0106167D01*
X0266420Y0106381D01*
X0266213Y0106590D01*
X0266000Y0106793D01*
X0265783Y0106992D01*
X0265561Y0107185D01*
X0265335Y0107373D01*
X0265103Y0107555D01*
X0264868Y0107731D01*
X0264628Y0107902D01*
X0264384Y0108067D01*
X0264137Y0108225D01*
X0263885Y0108378D01*
X0263630Y0108524D01*
X0263371Y0108664D01*
X0263109Y0108798D01*
X0262844Y0108925D01*
X0262576Y0109046D01*
X0262304Y0109160D01*
X0262031Y0109268D01*
X0261754Y0109369D01*
X0261475Y0109463D01*
X0253949Y0109779D02*
X0254059Y0109437D01*
X0253781Y0109343D01*
X0253505Y0109243D01*
X0253232Y0109135D01*
X0252961Y0109021D01*
X0252693Y0108901D01*
X0252429Y0108774D01*
X0252167Y0108640D01*
X0251909Y0108501D01*
X0251655Y0108354D01*
X0251404Y0108202D01*
X0251156Y0108044D01*
X0250913Y0107880D01*
X0250674Y0107709D01*
X0250439Y0107533D01*
X0250208Y0107352D01*
X0249982Y0107165D01*
X0249761Y0106972D01*
X0249544Y0106774D01*
X0249332Y0106570D01*
X0249126Y0106362D01*
X0248924Y0106149D01*
X0248728Y0105930D01*
X0248537Y0105707D01*
X0248351Y0105480D01*
X0248171Y0105248D01*
X0247997Y0105011D01*
X0247829Y0104771D01*
X0247667Y0104526D01*
X0247510Y0104278D01*
X0247360Y0104026D01*
X0247216Y0103770D01*
X0247078Y0103511D01*
X0246947Y0103248D01*
X0246822Y0102982D01*
X0246704Y0102714D01*
X0246592Y0102442D01*
X0246487Y0102168D01*
X0246388Y0101892D01*
X0246297Y0101613D01*
X0246212Y0101332D01*
X0246134Y0101049D01*
X0246063Y0100764D01*
X0245999Y0100477D01*
X0245942Y0100189D01*
X0245892Y0099900D01*
X0245849Y0099610D01*
X0245814Y0099318D01*
X0245785Y0099026D01*
X0245763Y0098733D01*
X0245749Y0098440D01*
X0245742Y0098147D01*
X0245742Y0097853D01*
X0245749Y0097560D01*
X0245763Y0097267D01*
X0245785Y0096974D01*
X0245814Y0096682D01*
X0245849Y0096390D01*
X0245892Y0096100D01*
X0245942Y0095811D01*
X0245999Y0095523D01*
X0246063Y0095236D01*
X0246134Y0094951D01*
X0246212Y0094668D01*
X0246297Y0094387D01*
X0246388Y0094108D01*
X0246487Y0093832D01*
X0246592Y0093558D01*
X0246704Y0093286D01*
X0246822Y0093018D01*
X0246947Y0092752D01*
X0247078Y0092489D01*
X0247216Y0092230D01*
X0247360Y0091974D01*
X0247510Y0091722D01*
X0247667Y0091474D01*
X0247829Y0091229D01*
X0247997Y0090989D01*
X0248171Y0090752D01*
X0248351Y0090520D01*
X0248537Y0090293D01*
X0248728Y0090070D01*
X0248924Y0089851D01*
X0249126Y0089638D01*
X0249332Y0089430D01*
X0249544Y0089226D01*
X0249761Y0089028D01*
X0249982Y0088835D01*
X0250208Y0088648D01*
X0250439Y0088467D01*
X0250674Y0088291D01*
X0250913Y0088120D01*
X0251156Y0087956D01*
X0251404Y0087798D01*
X0251655Y0087646D01*
X0251909Y0087499D01*
X0252167Y0087360D01*
X0252429Y0087226D01*
X0252693Y0087099D01*
X0252961Y0086979D01*
X0253232Y0086865D01*
X0253505Y0086757D01*
X0253781Y0086657D01*
X0254059Y0086563D01*
X0253949Y0086221D01*
X0253948Y0086220D01*
X0253662Y0086317D01*
X0253378Y0086420D01*
X0253097Y0086531D01*
X0252818Y0086648D01*
X0252542Y0086773D01*
X0252270Y0086903D01*
X0252000Y0087041D01*
X0251734Y0087185D01*
X0251472Y0087335D01*
X0251214Y0087492D01*
X0250959Y0087655D01*
X0250708Y0087824D01*
X0250462Y0088000D01*
X0250220Y0088181D01*
X0249982Y0088368D01*
X0249750Y0088561D01*
X0249521Y0088759D01*
X0249298Y0088963D01*
X0249080Y0089173D01*
X0248867Y0089387D01*
X0248660Y0089607D01*
X0248457Y0089832D01*
X0248261Y0090062D01*
X0248070Y0090296D01*
X0247884Y0090535D01*
X0247705Y0090778D01*
X0247532Y0091026D01*
X0247365Y0091278D01*
X0247203Y0091534D01*
X0247049Y0091794D01*
X0246900Y0092057D01*
X0246759Y0092324D01*
X0246623Y0092595D01*
X0246495Y0092868D01*
X0246373Y0093145D01*
X0246257Y0093424D01*
X0246149Y0093707D01*
X0246048Y0093992D01*
X0245953Y0094279D01*
X0245866Y0094568D01*
X0245786Y0094860D01*
X0245713Y0095153D01*
X0245647Y0095448D01*
X0245588Y0095745D01*
X0245537Y0096043D01*
X0245493Y0096342D01*
X0245456Y0096642D01*
X0245426Y0096943D01*
X0245404Y0097245D01*
X0245389Y0097547D01*
X0245382Y0097849D01*
X0245382Y0098151D01*
X0245389Y0098453D01*
X0245404Y0098755D01*
X0245426Y0099057D01*
X0245456Y0099358D01*
X0245493Y0099658D01*
X0245537Y0099957D01*
X0245588Y0100255D01*
X0245647Y0100552D01*
X0245713Y0100847D01*
X0245786Y0101140D01*
X0245866Y0101432D01*
X0245953Y0101721D01*
X0246048Y0102008D01*
X0246149Y0102293D01*
X0246257Y0102576D01*
X0246373Y0102855D01*
X0246495Y0103132D01*
X0246623Y0103405D01*
X0246759Y0103676D01*
X0246900Y0103943D01*
X0247049Y0104206D01*
X0247203Y0104466D01*
X0247365Y0104722D01*
X0247532Y0104974D01*
X0247705Y0105222D01*
X0247884Y0105465D01*
X0248070Y0105704D01*
X0248261Y0105938D01*
X0248457Y0106168D01*
X0248660Y0106393D01*
X0248867Y0106613D01*
X0249080Y0106827D01*
X0249298Y0107037D01*
X0249521Y0107241D01*
X0249750Y0107439D01*
X0249982Y0107632D01*
X0250220Y0107819D01*
X0250462Y0108000D01*
X0250708Y0108176D01*
X0250959Y0108345D01*
X0251214Y0108508D01*
X0251472Y0108665D01*
X0251734Y0108815D01*
X0252000Y0108959D01*
X0252270Y0109097D01*
X0252542Y0109227D01*
X0252818Y0109352D01*
X0253097Y0109469D01*
X0253378Y0109580D01*
X0253662Y0109683D01*
X0253948Y0109780D01*
X0253960Y0109745D01*
X0253674Y0109648D01*
X0253391Y0109545D01*
X0253110Y0109435D01*
X0252833Y0109318D01*
X0252558Y0109194D01*
X0252286Y0109063D01*
X0252017Y0108926D01*
X0251752Y0108783D01*
X0251491Y0108633D01*
X0251233Y0108477D01*
X0250979Y0108314D01*
X0250729Y0108145D01*
X0250484Y0107971D01*
X0250242Y0107790D01*
X0250006Y0107603D01*
X0249773Y0107411D01*
X0249546Y0107213D01*
X0249324Y0107010D01*
X0249106Y0106801D01*
X0248894Y0106587D01*
X0248687Y0106368D01*
X0248485Y0106144D01*
X0248289Y0105915D01*
X0248099Y0105681D01*
X0247914Y0105443D01*
X0247735Y0105200D01*
X0247562Y0104953D01*
X0247396Y0104702D01*
X0247235Y0104447D01*
X0247081Y0104188D01*
X0246933Y0103925D01*
X0246791Y0103659D01*
X0246657Y0103389D01*
X0246528Y0103117D01*
X0246407Y0102841D01*
X0246292Y0102562D01*
X0246184Y0102280D01*
X0246083Y0101996D01*
X0245989Y0101710D01*
X0245902Y0101421D01*
X0245822Y0101131D01*
X0245749Y0100838D01*
X0245683Y0100544D01*
X0245624Y0100248D01*
X0245573Y0099951D01*
X0245529Y0099653D01*
X0245492Y0099354D01*
X0245463Y0099054D01*
X0245441Y0098753D01*
X0245426Y0098452D01*
X0245419Y0098151D01*
X0245419Y0097849D01*
X0245426Y0097548D01*
X0245441Y0097247D01*
X0245463Y0096946D01*
X0245492Y0096646D01*
X0245529Y0096347D01*
X0245573Y0096049D01*
X0245624Y0095752D01*
X0245683Y0095456D01*
X0245749Y0095162D01*
X0245822Y0094869D01*
X0245902Y0094579D01*
X0245989Y0094290D01*
X0246083Y0094004D01*
X0246184Y0093720D01*
X0246292Y0093438D01*
X0246407Y0093159D01*
X0246528Y0092883D01*
X0246657Y0092611D01*
X0246791Y0092341D01*
X0246933Y0092075D01*
X0247081Y0091812D01*
X0247235Y0091553D01*
X0247396Y0091298D01*
X0247562Y0091047D01*
X0247735Y0090800D01*
X0247914Y0090557D01*
X0248099Y0090319D01*
X0248289Y0090085D01*
X0248485Y0089856D01*
X0248687Y0089632D01*
X0248894Y0089413D01*
X0249106Y0089199D01*
X0249324Y0088990D01*
X0249546Y0088787D01*
X0249773Y0088589D01*
X0250006Y0088397D01*
X0250242Y0088210D01*
X0250484Y0088029D01*
X0250729Y0087855D01*
X0250979Y0087686D01*
X0251233Y0087523D01*
X0251491Y0087367D01*
X0251752Y0087217D01*
X0252017Y0087074D01*
X0252286Y0086937D01*
X0252558Y0086806D01*
X0252833Y0086682D01*
X0253110Y0086565D01*
X0253391Y0086455D01*
X0253674Y0086352D01*
X0253960Y0086255D01*
X0253971Y0086291D01*
X0253686Y0086387D01*
X0253404Y0086490D01*
X0253124Y0086600D01*
X0252847Y0086716D01*
X0252573Y0086840D01*
X0252302Y0086970D01*
X0252035Y0087106D01*
X0251770Y0087249D01*
X0251510Y0087399D01*
X0251253Y0087555D01*
X0250999Y0087717D01*
X0250750Y0087885D01*
X0250506Y0088059D01*
X0250265Y0088240D01*
X0250029Y0088426D01*
X0249797Y0088617D01*
X0249571Y0088815D01*
X0249349Y0089017D01*
X0249132Y0089225D01*
X0248920Y0089439D01*
X0248714Y0089657D01*
X0248513Y0089881D01*
X0248317Y0090109D01*
X0248128Y0090342D01*
X0247943Y0090580D01*
X0247765Y0090822D01*
X0247593Y0091068D01*
X0247427Y0091318D01*
X0247267Y0091573D01*
X0247113Y0091831D01*
X0246965Y0092093D01*
X0246824Y0092358D01*
X0246690Y0092627D01*
X0246562Y0092899D01*
X0246441Y0093174D01*
X0246326Y0093452D01*
X0246219Y0093732D01*
X0246118Y0094016D01*
X0246024Y0094301D01*
X0245937Y0094589D01*
X0245857Y0094879D01*
X0245785Y0095170D01*
X0245719Y0095464D01*
X0245661Y0095758D01*
X0245610Y0096055D01*
X0245566Y0096352D01*
X0245529Y0096650D01*
X0245500Y0096949D01*
X0245478Y0097249D01*
X0245463Y0097549D01*
X0245456Y0097850D01*
X0245456Y0098150D01*
X0245463Y0098451D01*
X0245478Y0098751D01*
X0245500Y0099051D01*
X0245529Y0099350D01*
X0245566Y0099648D01*
X0245610Y0099945D01*
X0245661Y0100242D01*
X0245719Y0100536D01*
X0245785Y0100830D01*
X0245857Y0101121D01*
X0245937Y0101411D01*
X0246024Y0101699D01*
X0246118Y0101984D01*
X0246219Y0102268D01*
X0246326Y0102548D01*
X0246441Y0102826D01*
X0246562Y0103101D01*
X0246690Y0103373D01*
X0246824Y0103642D01*
X0246965Y0103907D01*
X0247113Y0104169D01*
X0247267Y0104427D01*
X0247427Y0104682D01*
X0247593Y0104932D01*
X0247765Y0105178D01*
X0247943Y0105420D01*
X0248128Y0105658D01*
X0248317Y0105891D01*
X0248513Y0106119D01*
X0248714Y0106343D01*
X0248920Y0106561D01*
X0249132Y0106775D01*
X0249349Y0106983D01*
X0249571Y0107185D01*
X0249797Y0107383D01*
X0250029Y0107574D01*
X0250265Y0107760D01*
X0250506Y0107941D01*
X0250750Y0108115D01*
X0250999Y0108283D01*
X0251253Y0108445D01*
X0251510Y0108601D01*
X0251770Y0108751D01*
X0252035Y0108894D01*
X0252302Y0109030D01*
X0252573Y0109160D01*
X0252847Y0109284D01*
X0253124Y0109400D01*
X0253404Y0109510D01*
X0253686Y0109613D01*
X0253971Y0109709D01*
X0253983Y0109674D01*
X0253699Y0109578D01*
X0253417Y0109476D01*
X0253138Y0109366D01*
X0252862Y0109250D01*
X0252589Y0109127D01*
X0252319Y0108997D01*
X0252052Y0108861D01*
X0251788Y0108718D01*
X0251528Y0108569D01*
X0251272Y0108414D01*
X0251020Y0108252D01*
X0250771Y0108084D01*
X0250527Y0107911D01*
X0250287Y0107731D01*
X0250052Y0107546D01*
X0249821Y0107355D01*
X0249595Y0107158D01*
X0249374Y0106956D01*
X0249158Y0106748D01*
X0248947Y0106535D01*
X0248741Y0106318D01*
X0248541Y0106095D01*
X0248346Y0105867D01*
X0248157Y0105635D01*
X0247973Y0105398D01*
X0247795Y0105157D01*
X0247623Y0104911D01*
X0247458Y0104662D01*
X0247298Y0104408D01*
X0247145Y0104151D01*
X0246998Y0103890D01*
X0246857Y0103625D01*
X0246723Y0103357D01*
X0246596Y0103086D01*
X0246475Y0102812D01*
X0246361Y0102535D01*
X0246253Y0102255D01*
X0246153Y0101972D01*
X0246059Y0101688D01*
X0245973Y0101401D01*
X0245893Y0101112D01*
X0245821Y0100821D01*
X0245755Y0100529D01*
X0245697Y0100235D01*
X0245646Y0099940D01*
X0245603Y0099643D01*
X0245566Y0099346D01*
X0245537Y0099048D01*
X0245515Y0098749D01*
X0245500Y0098449D01*
X0245493Y0098150D01*
X0245493Y0097850D01*
X0245500Y0097551D01*
X0245515Y0097251D01*
X0245537Y0096952D01*
X0245566Y0096654D01*
X0245603Y0096357D01*
X0245646Y0096060D01*
X0245697Y0095765D01*
X0245755Y0095471D01*
X0245821Y0095179D01*
X0245893Y0094888D01*
X0245973Y0094599D01*
X0246059Y0094312D01*
X0246153Y0094028D01*
X0246253Y0093745D01*
X0246361Y0093465D01*
X0246475Y0093188D01*
X0246596Y0092914D01*
X0246723Y0092643D01*
X0246857Y0092375D01*
X0246998Y0092110D01*
X0247145Y0091849D01*
X0247298Y0091592D01*
X0247458Y0091338D01*
X0247623Y0091089D01*
X0247795Y0090843D01*
X0247973Y0090602D01*
X0248157Y0090365D01*
X0248346Y0090133D01*
X0248541Y0089905D01*
X0248741Y0089682D01*
X0248947Y0089465D01*
X0249158Y0089252D01*
X0249374Y0089044D01*
X0249595Y0088842D01*
X0249821Y0088645D01*
X0250052Y0088454D01*
X0250287Y0088269D01*
X0250527Y0088089D01*
X0250771Y0087916D01*
X0251020Y0087748D01*
X0251272Y0087586D01*
X0251528Y0087431D01*
X0251788Y0087282D01*
X0252052Y0087139D01*
X0252319Y0087003D01*
X0252589Y0086873D01*
X0252862Y0086750D01*
X0253138Y0086634D01*
X0253417Y0086524D01*
X0253699Y0086422D01*
X0253983Y0086326D01*
X0253994Y0086361D01*
X0253711Y0086457D01*
X0253430Y0086559D01*
X0253152Y0086668D01*
X0252877Y0086784D01*
X0252604Y0086907D01*
X0252335Y0087036D01*
X0252069Y0087172D01*
X0251806Y0087314D01*
X0251547Y0087463D01*
X0251292Y0087618D01*
X0251040Y0087779D01*
X0250793Y0087946D01*
X0250549Y0088119D01*
X0250310Y0088298D01*
X0250075Y0088483D01*
X0249845Y0088674D01*
X0249620Y0088870D01*
X0249399Y0089071D01*
X0249184Y0089278D01*
X0248973Y0089490D01*
X0248768Y0089707D01*
X0248568Y0089930D01*
X0248374Y0090156D01*
X0248185Y0090388D01*
X0248002Y0090624D01*
X0247825Y0090865D01*
X0247654Y0091110D01*
X0247489Y0091358D01*
X0247330Y0091611D01*
X0247177Y0091868D01*
X0247030Y0092128D01*
X0246890Y0092392D01*
X0246756Y0092659D01*
X0246629Y0092930D01*
X0246509Y0093203D01*
X0246395Y0093479D01*
X0246288Y0093758D01*
X0246188Y0094040D01*
X0246095Y0094323D01*
X0246008Y0094609D01*
X0245929Y0094897D01*
X0245857Y0095187D01*
X0245792Y0095479D01*
X0245734Y0095772D01*
X0245683Y0096066D01*
X0245639Y0096362D01*
X0245603Y0096658D01*
X0245574Y0096956D01*
X0245552Y0097254D01*
X0245537Y0097552D01*
X0245530Y0097851D01*
X0245530Y0098149D01*
X0245537Y0098448D01*
X0245552Y0098746D01*
X0245574Y0099044D01*
X0245603Y0099342D01*
X0245639Y0099638D01*
X0245683Y0099934D01*
X0245734Y0100228D01*
X0245792Y0100521D01*
X0245857Y0100813D01*
X0245929Y0101103D01*
X0246008Y0101391D01*
X0246095Y0101677D01*
X0246188Y0101960D01*
X0246288Y0102242D01*
X0246395Y0102521D01*
X0246509Y0102797D01*
X0246629Y0103070D01*
X0246756Y0103341D01*
X0246890Y0103608D01*
X0247030Y0103872D01*
X0247177Y0104132D01*
X0247330Y0104389D01*
X0247489Y0104642D01*
X0247654Y0104890D01*
X0247825Y0105135D01*
X0248002Y0105376D01*
X0248185Y0105612D01*
X0248374Y0105844D01*
X0248568Y0106070D01*
X0248768Y0106293D01*
X0248973Y0106510D01*
X0249184Y0106722D01*
X0249399Y0106929D01*
X0249620Y0107130D01*
X0249845Y0107326D01*
X0250075Y0107517D01*
X0250310Y0107702D01*
X0250549Y0107881D01*
X0250793Y0108054D01*
X0251040Y0108221D01*
X0251292Y0108382D01*
X0251547Y0108537D01*
X0251806Y0108686D01*
X0252069Y0108828D01*
X0252335Y0108964D01*
X0252604Y0109093D01*
X0252877Y0109216D01*
X0253152Y0109332D01*
X0253430Y0109441D01*
X0253711Y0109543D01*
X0253994Y0109639D01*
X0254005Y0109604D01*
X0253723Y0109508D01*
X0253443Y0109406D01*
X0253166Y0109298D01*
X0252891Y0109182D01*
X0252620Y0109060D01*
X0252351Y0108931D01*
X0252086Y0108795D01*
X0251824Y0108654D01*
X0251566Y0108505D01*
X0251311Y0108351D01*
X0251060Y0108190D01*
X0250814Y0108024D01*
X0250571Y0107851D01*
X0250332Y0107672D01*
X0250099Y0107488D01*
X0249869Y0107298D01*
X0249644Y0107103D01*
X0249425Y0106902D01*
X0249210Y0106695D01*
X0249000Y0106484D01*
X0248795Y0106267D01*
X0248596Y0106046D01*
X0248403Y0105820D01*
X0248214Y0105589D01*
X0248032Y0105353D01*
X0247855Y0105114D01*
X0247685Y0104870D01*
X0247520Y0104621D01*
X0247361Y0104369D01*
X0247209Y0104114D01*
X0247063Y0103854D01*
X0246923Y0103591D01*
X0246790Y0103325D01*
X0246663Y0103055D01*
X0246543Y0102783D01*
X0246429Y0102507D01*
X0246323Y0102229D01*
X0246223Y0101948D01*
X0246130Y0101666D01*
X0246044Y0101380D01*
X0245965Y0101093D01*
X0245893Y0100804D01*
X0245828Y0100514D01*
X0245770Y0100221D01*
X0245719Y0099928D01*
X0245676Y0099633D01*
X0245640Y0099338D01*
X0245611Y0099041D01*
X0245589Y0098744D01*
X0245574Y0098447D01*
X0245567Y0098149D01*
X0245567Y0097851D01*
X0245574Y0097553D01*
X0245589Y0097256D01*
X0245611Y0096959D01*
X0245640Y0096662D01*
X0245676Y0096367D01*
X0245719Y0096072D01*
X0245770Y0095779D01*
X0245828Y0095486D01*
X0245893Y0095196D01*
X0245965Y0094907D01*
X0246044Y0094620D01*
X0246130Y0094334D01*
X0246223Y0094052D01*
X0246323Y0093771D01*
X0246429Y0093493D01*
X0246543Y0093217D01*
X0246663Y0092945D01*
X0246790Y0092675D01*
X0246923Y0092409D01*
X0247063Y0092146D01*
X0247209Y0091886D01*
X0247361Y0091631D01*
X0247520Y0091379D01*
X0247685Y0091130D01*
X0247855Y0090886D01*
X0248032Y0090647D01*
X0248214Y0090411D01*
X0248403Y0090180D01*
X0248596Y0089954D01*
X0248795Y0089733D01*
X0249000Y0089516D01*
X0249210Y0089305D01*
X0249425Y0089098D01*
X0249644Y0088897D01*
X0249869Y0088702D01*
X0250099Y0088512D01*
X0250332Y0088328D01*
X0250571Y0088149D01*
X0250814Y0087976D01*
X0251060Y0087810D01*
X0251311Y0087649D01*
X0251566Y0087495D01*
X0251824Y0087346D01*
X0252086Y0087205D01*
X0252351Y0087069D01*
X0252620Y0086940D01*
X0252891Y0086818D01*
X0253166Y0086702D01*
X0253443Y0086594D01*
X0253723Y0086492D01*
X0254005Y0086396D01*
X0254017Y0086432D01*
X0253735Y0086526D01*
X0253456Y0086628D01*
X0253180Y0086737D01*
X0252906Y0086852D01*
X0252635Y0086974D01*
X0252368Y0087102D01*
X0252103Y0087237D01*
X0251842Y0087379D01*
X0251585Y0087527D01*
X0251331Y0087681D01*
X0251081Y0087841D01*
X0250835Y0088007D01*
X0250593Y0088179D01*
X0250355Y0088357D01*
X0250122Y0088541D01*
X0249893Y0088730D01*
X0249669Y0088925D01*
X0249450Y0089125D01*
X0249236Y0089331D01*
X0249027Y0089542D01*
X0248823Y0089758D01*
X0248624Y0089978D01*
X0248431Y0090204D01*
X0248243Y0090434D01*
X0248061Y0090669D01*
X0247885Y0090908D01*
X0247715Y0091151D01*
X0247551Y0091399D01*
X0247393Y0091650D01*
X0247241Y0091905D01*
X0247095Y0092164D01*
X0246956Y0092426D01*
X0246823Y0092692D01*
X0246697Y0092960D01*
X0246577Y0093232D01*
X0246464Y0093507D01*
X0246357Y0093784D01*
X0246258Y0094064D01*
X0246165Y0094346D01*
X0246079Y0094630D01*
X0246001Y0094916D01*
X0245929Y0095204D01*
X0245864Y0095494D01*
X0245806Y0095785D01*
X0245756Y0096078D01*
X0245713Y0096372D01*
X0245676Y0096666D01*
X0245647Y0096962D01*
X0245626Y0097258D01*
X0245611Y0097555D01*
X0245604Y0097852D01*
X0245604Y0098148D01*
X0245611Y0098445D01*
X0245626Y0098742D01*
X0245647Y0099038D01*
X0245676Y0099334D01*
X0245713Y0099628D01*
X0245756Y0099922D01*
X0245806Y0100215D01*
X0245864Y0100506D01*
X0245929Y0100796D01*
X0246001Y0101084D01*
X0246079Y0101370D01*
X0246165Y0101654D01*
X0246258Y0101936D01*
X0246357Y0102216D01*
X0246464Y0102493D01*
X0246577Y0102768D01*
X0246697Y0103040D01*
X0246823Y0103308D01*
X0246956Y0103574D01*
X0247095Y0103836D01*
X0247241Y0104095D01*
X0247393Y0104350D01*
X0247551Y0104601D01*
X0247715Y0104849D01*
X0247885Y0105092D01*
X0248061Y0105331D01*
X0248243Y0105566D01*
X0248431Y0105796D01*
X0248624Y0106022D01*
X0248823Y0106242D01*
X0249027Y0106458D01*
X0249236Y0106669D01*
X0249450Y0106875D01*
X0249669Y0107075D01*
X0249893Y0107270D01*
X0250122Y0107459D01*
X0250355Y0107643D01*
X0250593Y0107821D01*
X0250835Y0107993D01*
X0251081Y0108159D01*
X0251331Y0108319D01*
X0251585Y0108473D01*
X0251842Y0108621D01*
X0252103Y0108763D01*
X0252368Y0108898D01*
X0252635Y0109026D01*
X0252906Y0109148D01*
X0253180Y0109263D01*
X0253456Y0109372D01*
X0253735Y0109474D01*
X0254017Y0109568D01*
X0254028Y0109533D01*
X0253747Y0109439D01*
X0253469Y0109337D01*
X0253194Y0109229D01*
X0252921Y0109114D01*
X0252651Y0108992D01*
X0252384Y0108864D01*
X0252120Y0108730D01*
X0251860Y0108589D01*
X0251603Y0108442D01*
X0251350Y0108288D01*
X0251101Y0108128D01*
X0250856Y0107963D01*
X0250614Y0107791D01*
X0250378Y0107614D01*
X0250145Y0107430D01*
X0249917Y0107242D01*
X0249694Y0107047D01*
X0249475Y0106848D01*
X0249262Y0106643D01*
X0249053Y0106432D01*
X0248850Y0106217D01*
X0248652Y0105997D01*
X0248459Y0105772D01*
X0248272Y0105543D01*
X0248091Y0105309D01*
X0247915Y0105070D01*
X0247746Y0104828D01*
X0247582Y0104581D01*
X0247424Y0104331D01*
X0247273Y0104076D01*
X0247128Y0103818D01*
X0246989Y0103557D01*
X0246856Y0103292D01*
X0246730Y0103024D01*
X0246611Y0102754D01*
X0246498Y0102480D01*
X0246392Y0102203D01*
X0246293Y0101924D01*
X0246200Y0101643D01*
X0246115Y0101360D01*
X0246036Y0101074D01*
X0245965Y0100787D01*
X0245900Y0100498D01*
X0245843Y0100208D01*
X0245792Y0099916D01*
X0245749Y0099623D01*
X0245713Y0099329D01*
X0245684Y0099035D01*
X0245663Y0098740D01*
X0245648Y0098444D01*
X0245641Y0098148D01*
X0245641Y0097852D01*
X0245648Y0097556D01*
X0245663Y0097260D01*
X0245684Y0096965D01*
X0245713Y0096671D01*
X0245749Y0096377D01*
X0245792Y0096084D01*
X0245843Y0095792D01*
X0245900Y0095502D01*
X0245965Y0095213D01*
X0246036Y0094926D01*
X0246115Y0094640D01*
X0246200Y0094357D01*
X0246293Y0094076D01*
X0246392Y0093797D01*
X0246498Y0093520D01*
X0246611Y0093246D01*
X0246730Y0092976D01*
X0246856Y0092708D01*
X0246989Y0092443D01*
X0247128Y0092182D01*
X0247273Y0091924D01*
X0247424Y0091669D01*
X0247582Y0091419D01*
X0247746Y0091172D01*
X0247915Y0090930D01*
X0248091Y0090691D01*
X0248272Y0090457D01*
X0248459Y0090228D01*
X0248652Y0090003D01*
X0248850Y0089783D01*
X0249053Y0089568D01*
X0249262Y0089357D01*
X0249475Y0089152D01*
X0249694Y0088953D01*
X0249917Y0088758D01*
X0250145Y0088570D01*
X0250378Y0088386D01*
X0250614Y0088209D01*
X0250856Y0088037D01*
X0251101Y0087872D01*
X0251350Y0087712D01*
X0251603Y0087558D01*
X0251860Y0087411D01*
X0252120Y0087270D01*
X0252384Y0087136D01*
X0252651Y0087008D01*
X0252921Y0086886D01*
X0253194Y0086771D01*
X0253469Y0086663D01*
X0253747Y0086561D01*
X0254028Y0086467D01*
X0254039Y0086502D01*
X0253760Y0086596D01*
X0253482Y0086697D01*
X0253208Y0086805D01*
X0252936Y0086920D01*
X0252667Y0087041D01*
X0252401Y0087169D01*
X0252138Y0087303D01*
X0251878Y0087444D01*
X0251622Y0087590D01*
X0251370Y0087743D01*
X0251121Y0087903D01*
X0250877Y0088068D01*
X0250636Y0088239D01*
X0250400Y0088416D01*
X0250168Y0088598D01*
X0249941Y0088787D01*
X0249718Y0088980D01*
X0249500Y0089179D01*
X0249288Y0089384D01*
X0249080Y0089593D01*
X0248877Y0089808D01*
X0248680Y0090027D01*
X0248488Y0090251D01*
X0248301Y0090480D01*
X0248120Y0090714D01*
X0247945Y0090951D01*
X0247776Y0091193D01*
X0247613Y0091439D01*
X0247456Y0091689D01*
X0247305Y0091942D01*
X0247160Y0092199D01*
X0247022Y0092460D01*
X0246889Y0092724D01*
X0246764Y0092991D01*
X0246645Y0093261D01*
X0246532Y0093534D01*
X0246427Y0093809D01*
X0246328Y0094087D01*
X0246236Y0094368D01*
X0246150Y0094650D01*
X0246072Y0094935D01*
X0246001Y0095221D01*
X0245936Y0095509D01*
X0245879Y0095799D01*
X0245829Y0096090D01*
X0245786Y0096382D01*
X0245750Y0096675D01*
X0245721Y0096968D01*
X0245700Y0097263D01*
X0245685Y0097557D01*
X0245678Y0097852D01*
X0245678Y0098148D01*
X0245685Y0098443D01*
X0245700Y0098737D01*
X0245721Y0099032D01*
X0245750Y0099325D01*
X0245786Y0099618D01*
X0245829Y0099910D01*
X0245879Y0100201D01*
X0245936Y0100491D01*
X0246001Y0100779D01*
X0246072Y0101065D01*
X0246150Y0101350D01*
X0246236Y0101632D01*
X0246328Y0101913D01*
X0246427Y0102191D01*
X0246532Y0102466D01*
X0246645Y0102739D01*
X0246764Y0103009D01*
X0246889Y0103276D01*
X0247022Y0103540D01*
X0247160Y0103801D01*
X0247305Y0104058D01*
X0247456Y0104311D01*
X0247613Y0104561D01*
X0247776Y0104807D01*
X0247945Y0105049D01*
X0248120Y0105286D01*
X0248301Y0105520D01*
X0248488Y0105749D01*
X0248680Y0105973D01*
X0248877Y0106192D01*
X0249080Y0106407D01*
X0249288Y0106616D01*
X0249500Y0106821D01*
X0249718Y0107020D01*
X0249941Y0107213D01*
X0250168Y0107402D01*
X0250400Y0107584D01*
X0250636Y0107761D01*
X0250877Y0107932D01*
X0251121Y0108097D01*
X0251370Y0108257D01*
X0251622Y0108410D01*
X0251878Y0108556D01*
X0252138Y0108697D01*
X0252401Y0108831D01*
X0252667Y0108959D01*
X0252936Y0109080D01*
X0253208Y0109195D01*
X0253482Y0109303D01*
X0253760Y0109404D01*
X0254039Y0109498D01*
X0254051Y0109463D01*
X0253772Y0109369D01*
X0253495Y0109268D01*
X0253222Y0109160D01*
X0252950Y0109046D01*
X0252682Y0108925D01*
X0252417Y0108798D01*
X0252155Y0108664D01*
X0251896Y0108524D01*
X0251641Y0108378D01*
X0251389Y0108225D01*
X0251142Y0108067D01*
X0250898Y0107902D01*
X0250658Y0107731D01*
X0250423Y0107555D01*
X0250191Y0107373D01*
X0249965Y0107185D01*
X0249743Y0106992D01*
X0249526Y0106793D01*
X0249313Y0106590D01*
X0249106Y0106381D01*
X0248904Y0106167D01*
X0248707Y0105948D01*
X0248516Y0105725D01*
X0248330Y0105497D01*
X0248150Y0105264D01*
X0247975Y0105027D01*
X0247807Y0104786D01*
X0247644Y0104541D01*
X0247487Y0104292D01*
X0247337Y0104039D01*
X0247192Y0103783D01*
X0247054Y0103523D01*
X0246923Y0103260D01*
X0246798Y0102994D01*
X0246679Y0102724D01*
X0246567Y0102452D01*
X0246461Y0102178D01*
X0246363Y0101901D01*
X0246271Y0101621D01*
X0246186Y0101339D01*
X0246108Y0101056D01*
X0246037Y0100770D01*
X0245973Y0100483D01*
X0245916Y0100194D01*
X0245865Y0099904D01*
X0245823Y0099613D01*
X0245787Y0099321D01*
X0245758Y0099029D01*
X0245736Y0098735D01*
X0245722Y0098441D01*
X0245715Y0098147D01*
X0245715Y0097853D01*
X0245722Y0097559D01*
X0245736Y0097265D01*
X0245758Y0096971D01*
X0245787Y0096679D01*
X0245823Y0096387D01*
X0245865Y0096096D01*
X0245916Y0095806D01*
X0245973Y0095517D01*
X0246037Y0095230D01*
X0246108Y0094944D01*
X0246186Y0094661D01*
X0246271Y0094379D01*
X0246363Y0094099D01*
X0246461Y0093822D01*
X0246567Y0093548D01*
X0246679Y0093276D01*
X0246798Y0093006D01*
X0246923Y0092740D01*
X0247054Y0092477D01*
X0247192Y0092217D01*
X0247337Y0091961D01*
X0247487Y0091708D01*
X0247644Y0091459D01*
X0247807Y0091214D01*
X0247975Y0090973D01*
X0248150Y0090736D01*
X0248330Y0090503D01*
X0248516Y0090275D01*
X0248707Y0090052D01*
X0248904Y0089833D01*
X0249106Y0089619D01*
X0249313Y0089410D01*
X0249526Y0089207D01*
X0249743Y0089008D01*
X0249965Y0088815D01*
X0250191Y0088627D01*
X0250423Y0088445D01*
X0250658Y0088269D01*
X0250898Y0088098D01*
X0251142Y0087933D01*
X0251389Y0087775D01*
X0251641Y0087622D01*
X0251896Y0087476D01*
X0252155Y0087336D01*
X0252417Y0087202D01*
X0252682Y0087075D01*
X0252950Y0086954D01*
X0253222Y0086840D01*
X0253495Y0086732D01*
X0253772Y0086631D01*
X0254051Y0086537D01*
D22*
X0179775Y0089693D02*
X0168751Y0089693D01*
X0168751Y0101307D01*
X0179775Y0101307D01*
X0179775Y0089693D01*
X0176144Y0092902D02*
X0176146Y0092957D01*
X0176152Y0093011D01*
X0176162Y0093065D01*
X0176175Y0093118D01*
X0176193Y0093169D01*
X0176214Y0093220D01*
X0176239Y0093269D01*
X0176267Y0093315D01*
X0176298Y0093360D01*
X0176333Y0093402D01*
X0176371Y0093442D01*
X0176411Y0093479D01*
X0176454Y0093513D01*
X0176499Y0093543D01*
X0176546Y0093571D01*
X0176596Y0093595D01*
X0176646Y0093615D01*
X0176698Y0093631D01*
X0176752Y0093644D01*
X0176806Y0093653D01*
X0176860Y0093658D01*
X0176915Y0093659D01*
X0176969Y0093656D01*
X0177023Y0093649D01*
X0177077Y0093638D01*
X0177130Y0093624D01*
X0177181Y0093605D01*
X0177231Y0093583D01*
X0177279Y0093558D01*
X0177326Y0093529D01*
X0177370Y0093496D01*
X0177412Y0093461D01*
X0177451Y0093423D01*
X0177487Y0093382D01*
X0177520Y0093338D01*
X0177550Y0093292D01*
X0177576Y0093244D01*
X0177599Y0093195D01*
X0177618Y0093144D01*
X0177634Y0093091D01*
X0177646Y0093038D01*
X0177654Y0092984D01*
X0177658Y0092929D01*
X0177658Y0092875D01*
X0177654Y0092820D01*
X0177646Y0092766D01*
X0177634Y0092713D01*
X0177618Y0092660D01*
X0177599Y0092609D01*
X0177576Y0092560D01*
X0177550Y0092512D01*
X0177520Y0092466D01*
X0177487Y0092422D01*
X0177451Y0092381D01*
X0177412Y0092343D01*
X0177370Y0092308D01*
X0177326Y0092275D01*
X0177280Y0092246D01*
X0177231Y0092221D01*
X0177181Y0092199D01*
X0177130Y0092180D01*
X0177077Y0092166D01*
X0177023Y0092155D01*
X0176969Y0092148D01*
X0176915Y0092145D01*
X0176860Y0092146D01*
X0176806Y0092151D01*
X0176752Y0092160D01*
X0176698Y0092173D01*
X0176646Y0092189D01*
X0176596Y0092209D01*
X0176546Y0092233D01*
X0176499Y0092261D01*
X0176454Y0092291D01*
X0176411Y0092325D01*
X0176371Y0092362D01*
X0176333Y0092402D01*
X0176298Y0092444D01*
X0176267Y0092489D01*
X0176239Y0092535D01*
X0176214Y0092584D01*
X0176193Y0092635D01*
X0176175Y0092686D01*
X0176162Y0092739D01*
X0176152Y0092793D01*
X0176146Y0092847D01*
X0176144Y0092902D01*
M02*
