G75*
%MOIN*%
%OFA0B0*%
%FSLAX25Y25*%
%IPPOS*%
%LPD*%
%AMOC8*
5,1,8,0,0,1.08239X$1,22.5*
%
%ADD10R,0.02362X0.08661*%
%ADD11R,0.04724X0.03150*%
%ADD12R,0.03937X0.04331*%
%ADD13R,0.04331X0.03937*%
%ADD14C,0.07400*%
%ADD15R,0.07400X0.07400*%
%ADD16R,0.05000X0.02200*%
%ADD17R,0.02200X0.05000*%
%ADD18R,0.12500X0.01181*%
%ADD19R,0.05512X0.11811*%
%ADD20R,0.06299X0.01181*%
%ADD21C,0.01181*%
%ADD22C,0.03937*%
%ADD23C,0.05550*%
%ADD24C,0.02400*%
%ADD25C,0.01000*%
%ADD26C,0.04362*%
%ADD27C,0.01600*%
%ADD28C,0.01200*%
D10*
X0038763Y0045390D03*
X0043763Y0045390D03*
X0048763Y0045390D03*
X0053763Y0045390D03*
X0058763Y0045390D03*
X0063763Y0045390D03*
X0068763Y0045390D03*
X0073763Y0045390D03*
X0078763Y0045390D03*
X0083763Y0045390D03*
X0088763Y0045390D03*
X0093763Y0045390D03*
X0093763Y0081610D03*
X0088763Y0081610D03*
X0083763Y0081610D03*
X0078763Y0081610D03*
X0073763Y0081610D03*
X0068763Y0081610D03*
X0063763Y0081610D03*
X0058763Y0081610D03*
X0053763Y0081610D03*
X0048763Y0081610D03*
X0043763Y0081610D03*
X0038763Y0081610D03*
D11*
X0073263Y0089957D03*
X0073263Y0097043D03*
X0073763Y0036043D03*
X0073763Y0028957D03*
D12*
X0117763Y0056654D03*
X0117763Y0063346D03*
X0083763Y0091154D03*
X0083763Y0097846D03*
X0105763Y0096654D03*
X0112401Y0096673D03*
X0112401Y0103366D03*
X0105763Y0103346D03*
X0122263Y0105154D03*
X0122263Y0111846D03*
X0166263Y0082846D03*
X0172763Y0082846D03*
X0179263Y0082846D03*
X0185263Y0082846D03*
X0185263Y0076154D03*
X0179263Y0076154D03*
X0172763Y0076154D03*
X0166263Y0076154D03*
X0189763Y0090654D03*
X0196263Y0090654D03*
X0196263Y0097346D03*
X0189763Y0097346D03*
X0050263Y0098846D03*
X0050263Y0092154D03*
X0037263Y0100154D03*
X0037263Y0106846D03*
X0022763Y0108346D03*
X0022763Y0101654D03*
X0027763Y0085346D03*
X0033763Y0085346D03*
X0033763Y0078654D03*
X0027763Y0078654D03*
X0027763Y0064346D03*
X0032763Y0064346D03*
X0032763Y0057654D03*
X0027763Y0057654D03*
D13*
X0025917Y0044500D03*
X0032609Y0044500D03*
X0088917Y0032500D03*
X0095609Y0032500D03*
X0098417Y0090000D03*
X0105109Y0090000D03*
X0043609Y0092500D03*
X0036917Y0092500D03*
X0026109Y0092000D03*
X0019417Y0092000D03*
X0210917Y0111000D03*
X0217609Y0111000D03*
D14*
X0027263Y0030500D03*
X0037263Y0030500D03*
X0047263Y0030500D03*
X0057263Y0030500D03*
X0167263Y0030500D03*
X0177263Y0030500D03*
X0232263Y0058500D03*
X0242263Y0058500D03*
X0252263Y0058500D03*
X0257263Y0068500D03*
X0247263Y0068500D03*
X0237263Y0068500D03*
X0227263Y0068500D03*
X0223263Y0082500D03*
X0233263Y0082500D03*
X0233263Y0092500D03*
X0223263Y0092500D03*
X0223263Y0102500D03*
X0233263Y0102500D03*
X0177263Y0110500D03*
X0167263Y0110500D03*
X0157263Y0110500D03*
X0147263Y0110500D03*
X0137263Y0110500D03*
X0159822Y0130500D03*
X0169822Y0130500D03*
D15*
X0222263Y0058500D03*
D16*
X0151163Y0069476D03*
X0151163Y0072626D03*
X0151163Y0075776D03*
X0151163Y0078925D03*
X0151163Y0082075D03*
X0151163Y0085224D03*
X0151163Y0088374D03*
X0151163Y0091524D03*
X0117363Y0091524D03*
X0117363Y0088374D03*
X0117363Y0085224D03*
X0117363Y0082075D03*
X0117363Y0078925D03*
X0117363Y0075776D03*
X0117363Y0072626D03*
X0117363Y0069476D03*
D17*
X0123239Y0063600D03*
X0126389Y0063600D03*
X0129539Y0063600D03*
X0132688Y0063600D03*
X0135838Y0063600D03*
X0138987Y0063600D03*
X0142137Y0063600D03*
X0145287Y0063600D03*
X0145287Y0097400D03*
X0142137Y0097400D03*
X0138987Y0097400D03*
X0135838Y0097400D03*
X0132688Y0097400D03*
X0129539Y0097400D03*
X0126389Y0097400D03*
X0123239Y0097400D03*
D18*
X0104263Y0070240D03*
X0104263Y0066500D03*
X0104263Y0062760D03*
D19*
X0257763Y0088551D03*
X0257763Y0107449D03*
D20*
X0180956Y0099339D03*
X0180956Y0096780D03*
X0180956Y0094220D03*
X0180956Y0091661D03*
X0167570Y0091661D03*
X0167570Y0094220D03*
X0167570Y0096780D03*
X0167570Y0099339D03*
D21*
X0223432Y0109622D02*
X0223432Y0112378D01*
X0226188Y0112378D01*
X0226188Y0109622D01*
X0223432Y0109622D01*
X0223432Y0110802D02*
X0226188Y0110802D01*
X0226188Y0111982D02*
X0223432Y0111982D01*
X0230338Y0112378D02*
X0230338Y0109622D01*
X0230338Y0112378D02*
X0233094Y0112378D01*
X0233094Y0109622D01*
X0230338Y0109622D01*
X0230338Y0110802D02*
X0233094Y0110802D01*
X0233094Y0111982D02*
X0230338Y0111982D01*
D22*
X0247263Y0033000D03*
X0012263Y0033000D03*
X0012263Y0100500D03*
D23*
X0015263Y0083185D03*
X0015263Y0075311D03*
X0015263Y0067437D03*
X0015263Y0059563D03*
X0015263Y0051689D03*
X0015263Y0043815D03*
D24*
X0020238Y0043815D01*
X0020238Y0044206D01*
X0020115Y0044980D01*
X0019873Y0045725D01*
X0019518Y0046422D01*
X0019058Y0047056D01*
X0018504Y0047610D01*
X0018175Y0047848D01*
X0019311Y0048984D01*
X0020038Y0050739D01*
X0020038Y0050765D01*
X0022629Y0048174D01*
X0021751Y0047297D01*
X0021751Y0044448D01*
X0020146Y0042843D01*
X0020238Y0043423D01*
X0020238Y0043815D01*
X0015263Y0043815D01*
X0015263Y0043815D01*
X0015263Y0043815D01*
X0010288Y0043815D01*
X0010288Y0044206D01*
X0010411Y0044980D01*
X0010653Y0045725D01*
X0011008Y0046422D01*
X0011468Y0047056D01*
X0012022Y0047610D01*
X0012351Y0047848D01*
X0011215Y0048984D01*
X0010488Y0050739D01*
X0010488Y0052639D01*
X0011215Y0054394D01*
X0012447Y0055626D01*
X0011215Y0056858D01*
X0010488Y0058613D01*
X0010488Y0060513D01*
X0011215Y0062268D01*
X0012447Y0063500D01*
X0011215Y0064732D01*
X0010488Y0066487D01*
X0010488Y0068387D01*
X0011215Y0070142D01*
X0012447Y0071374D01*
X0011215Y0072606D01*
X0010488Y0074361D01*
X0010488Y0076261D01*
X0011215Y0078016D01*
X0012351Y0079152D01*
X0012022Y0079390D01*
X0011468Y0079944D01*
X0011008Y0080578D01*
X0010653Y0081275D01*
X0010411Y0082020D01*
X0010288Y0082794D01*
X0010288Y0083185D01*
X0015263Y0083185D01*
X0015263Y0083185D01*
X0010288Y0083185D01*
X0010288Y0083577D01*
X0010411Y0084350D01*
X0010653Y0085095D01*
X0011008Y0085792D01*
X0011468Y0086426D01*
X0012022Y0086980D01*
X0012656Y0087440D01*
X0013353Y0087795D01*
X0014098Y0088037D01*
X0014871Y0088160D01*
X0015263Y0088160D01*
X0015263Y0083185D01*
X0015263Y0083185D01*
X0015263Y0088160D01*
X0015655Y0088160D01*
X0016415Y0088039D01*
X0015251Y0089203D01*
X0015251Y0094797D01*
X0016423Y0095968D01*
X0016617Y0095968D01*
X0016617Y0097256D01*
X0016394Y0097034D01*
X0016122Y0096646D01*
X0016118Y0096645D01*
X0016117Y0096641D01*
X0015729Y0096369D01*
X0015394Y0096034D01*
X0015390Y0096034D01*
X0015389Y0096030D01*
X0014959Y0095830D01*
X0014571Y0095558D01*
X0014567Y0095559D01*
X0014565Y0095555D01*
X0014107Y0095433D01*
X0013678Y0095232D01*
X0013674Y0095234D01*
X0013671Y0095231D01*
X0013199Y0095189D01*
X0012742Y0095067D01*
X0012738Y0095069D01*
X0012735Y0095066D01*
X0012263Y0095107D01*
X0011791Y0095066D01*
X0011788Y0095069D01*
X0011784Y0095067D01*
X0011327Y0095189D01*
X0010855Y0095231D01*
X0010852Y0095234D01*
X0010848Y0095232D01*
X0010419Y0095433D01*
X0009961Y0095555D01*
X0009959Y0095559D01*
X0009955Y0095558D01*
X0009567Y0095830D01*
X0009137Y0096030D01*
X0009136Y0096034D01*
X0009132Y0096034D01*
X0008797Y0096369D01*
X0008409Y0096641D01*
X0008408Y0096645D01*
X0008404Y0096646D01*
X0008132Y0097034D01*
X0008063Y0097103D01*
X0008063Y0045160D01*
X0010380Y0042843D01*
X0010288Y0043423D01*
X0010288Y0043815D01*
X0015263Y0043815D01*
X0020162Y0044688D02*
X0021751Y0044688D01*
X0021751Y0047087D02*
X0019027Y0047087D01*
X0019518Y0049485D02*
X0021318Y0049485D01*
X0023794Y0054928D02*
X0023563Y0055160D01*
X0023563Y0087856D01*
X0023606Y0087844D01*
X0023594Y0087801D01*
X0023594Y0085347D01*
X0027763Y0085347D01*
X0027763Y0085346D01*
X0027763Y0085347D01*
X0031931Y0085347D01*
X0033763Y0085347D01*
X0033763Y0085346D01*
X0027763Y0085346D01*
X0023594Y0085346D01*
X0023594Y0082891D01*
X0023744Y0082332D01*
X0024013Y0081866D01*
X0023794Y0081647D01*
X0023794Y0075660D01*
X0024966Y0074488D01*
X0030560Y0074488D01*
X0030763Y0074691D01*
X0030966Y0074488D01*
X0032315Y0074488D01*
X0033889Y0072914D01*
X0034677Y0072126D01*
X0035706Y0071700D01*
X0041820Y0071700D01*
X0042849Y0072126D01*
X0043637Y0072914D01*
X0046137Y0075414D01*
X0046278Y0075755D01*
X0046753Y0075280D01*
X0048517Y0075280D01*
X0047919Y0074681D01*
X0047431Y0074681D01*
X0045895Y0074045D01*
X0044718Y0072868D01*
X0044082Y0071332D01*
X0044082Y0069668D01*
X0044718Y0068132D01*
X0045895Y0066955D01*
X0047431Y0066319D01*
X0049095Y0066319D01*
X0050631Y0066955D01*
X0051808Y0068132D01*
X0052444Y0069668D01*
X0052444Y0070156D01*
X0055563Y0073275D01*
X0055563Y0056363D01*
X0056050Y0055187D01*
X0057488Y0053750D01*
X0056498Y0052760D01*
X0056476Y0052813D01*
X0048444Y0060844D01*
X0048444Y0061332D01*
X0047808Y0062868D01*
X0046631Y0064045D01*
X0045095Y0064681D01*
X0043431Y0064681D01*
X0041895Y0064045D01*
X0040718Y0062868D01*
X0040082Y0061332D01*
X0040082Y0059668D01*
X0040718Y0058132D01*
X0041895Y0056955D01*
X0043431Y0056319D01*
X0043919Y0056319D01*
X0048517Y0051720D01*
X0046753Y0051720D01*
X0046263Y0051230D01*
X0045773Y0051720D01*
X0045002Y0051720D01*
X0037483Y0059240D01*
X0036731Y0059991D01*
X0036731Y0060647D01*
X0036513Y0060866D01*
X0036782Y0061332D01*
X0036931Y0061891D01*
X0036931Y0064346D01*
X0032763Y0064346D01*
X0032763Y0064347D01*
X0032763Y0068712D01*
X0032763Y0064347D01*
X0032763Y0064347D01*
X0036931Y0064347D01*
X0036931Y0066801D01*
X0036782Y0067361D01*
X0036492Y0067863D01*
X0036082Y0068272D01*
X0035581Y0068562D01*
X0035021Y0068712D01*
X0032763Y0068712D01*
X0030505Y0068712D01*
X0030263Y0068647D01*
X0030021Y0068712D01*
X0027763Y0068712D01*
X0027763Y0064347D01*
X0027763Y0068712D01*
X0025505Y0068712D01*
X0024945Y0068562D01*
X0024444Y0068272D01*
X0024034Y0067863D01*
X0023744Y0067361D01*
X0023594Y0066801D01*
X0023594Y0064347D01*
X0027763Y0064347D01*
X0027763Y0064347D01*
X0027763Y0064346D01*
X0027763Y0064347D01*
X0028594Y0064347D01*
X0032763Y0064347D01*
X0032763Y0064346D01*
X0027763Y0064346D01*
X0023594Y0064346D01*
X0023594Y0061891D01*
X0023744Y0061332D01*
X0024013Y0060866D01*
X0023794Y0060647D01*
X0023794Y0054928D01*
X0023794Y0056681D02*
X0023563Y0056681D01*
X0023563Y0059079D02*
X0023794Y0059079D01*
X0023705Y0061478D02*
X0023563Y0061478D01*
X0023563Y0063876D02*
X0023594Y0063876D01*
X0023563Y0066275D02*
X0023594Y0066275D01*
X0023563Y0068673D02*
X0025361Y0068673D01*
X0027763Y0068673D02*
X0027763Y0068673D01*
X0027763Y0066275D02*
X0027763Y0066275D01*
X0030165Y0068673D02*
X0030361Y0068673D01*
X0032763Y0068673D02*
X0032763Y0068673D01*
X0032763Y0066275D02*
X0032763Y0066275D01*
X0035165Y0068673D02*
X0044494Y0068673D01*
X0048263Y0070500D02*
X0053763Y0076000D01*
X0053763Y0081610D01*
X0058763Y0081610D02*
X0058763Y0057000D01*
X0062263Y0053500D01*
X0061763Y0053500D01*
X0058763Y0050500D01*
X0058763Y0045390D01*
X0063763Y0045390D02*
X0063763Y0045390D01*
X0068763Y0045390D01*
X0068763Y0045390D01*
X0068763Y0051920D01*
X0068134Y0051920D01*
X0068444Y0052668D01*
X0068444Y0054332D01*
X0067808Y0055868D01*
X0066631Y0057045D01*
X0065095Y0057681D01*
X0063431Y0057681D01*
X0062849Y0057440D01*
X0061963Y0058325D01*
X0061963Y0075168D01*
X0062292Y0075080D01*
X0063763Y0075080D01*
X0065234Y0075080D01*
X0065793Y0075229D01*
X0066263Y0075501D01*
X0066569Y0075324D01*
X0065895Y0075045D01*
X0064718Y0073868D01*
X0064082Y0072332D01*
X0064082Y0070668D01*
X0064718Y0069132D01*
X0065895Y0067955D01*
X0067431Y0067319D01*
X0069095Y0067319D01*
X0070631Y0067955D01*
X0070976Y0068300D01*
X0073900Y0068300D01*
X0075076Y0068787D01*
X0075976Y0069687D01*
X0079408Y0073120D01*
X0079082Y0072332D01*
X0079082Y0070668D01*
X0079718Y0069132D01*
X0080895Y0067955D01*
X0080963Y0067927D01*
X0080963Y0052325D01*
X0080576Y0052713D01*
X0070444Y0062844D01*
X0070444Y0063332D01*
X0069808Y0064868D01*
X0068631Y0066045D01*
X0067095Y0066681D01*
X0065431Y0066681D01*
X0063895Y0066045D01*
X0062718Y0064868D01*
X0062082Y0063332D01*
X0062082Y0061668D01*
X0062718Y0060132D01*
X0063895Y0058955D01*
X0065431Y0058319D01*
X0065919Y0058319D01*
X0072517Y0051720D01*
X0071753Y0051720D01*
X0071404Y0051371D01*
X0071295Y0051481D01*
X0070793Y0051771D01*
X0070234Y0051920D01*
X0068763Y0051920D01*
X0068763Y0045390D01*
X0068763Y0045390D01*
X0065382Y0045390D01*
X0063763Y0045390D01*
X0063763Y0045390D01*
X0063763Y0038859D01*
X0065234Y0038859D01*
X0065793Y0039009D01*
X0066263Y0039280D01*
X0066733Y0039009D01*
X0067292Y0038859D01*
X0068763Y0038859D01*
X0069813Y0038859D01*
X0069401Y0038447D01*
X0069401Y0033640D01*
X0070493Y0032548D01*
X0070050Y0032292D01*
X0069640Y0031882D01*
X0069351Y0031381D01*
X0069201Y0030821D01*
X0069201Y0028957D01*
X0073763Y0028957D01*
X0078325Y0028957D01*
X0078325Y0030821D01*
X0078175Y0031381D01*
X0077886Y0031882D01*
X0077476Y0032292D01*
X0077033Y0032548D01*
X0078125Y0033640D01*
X0078125Y0038447D01*
X0077513Y0039059D01*
X0080773Y0039059D01*
X0081263Y0039550D01*
X0081753Y0039059D01*
X0085773Y0039059D01*
X0086117Y0039403D01*
X0086117Y0036468D01*
X0085923Y0036468D01*
X0084751Y0035297D01*
X0084751Y0029703D01*
X0085923Y0028531D01*
X0091910Y0028531D01*
X0092263Y0028884D01*
X0092616Y0028531D01*
X0098603Y0028531D01*
X0099772Y0029700D01*
X0109820Y0029700D01*
X0110849Y0030126D01*
X0127101Y0046379D01*
X0127082Y0046332D01*
X0127082Y0044668D01*
X0127718Y0043132D01*
X0128895Y0041955D01*
X0130431Y0041319D01*
X0130919Y0041319D01*
X0131550Y0040687D01*
X0132450Y0039787D01*
X0133626Y0039300D01*
X0211043Y0039300D01*
X0210058Y0038314D01*
X0208764Y0035191D01*
X0208764Y0031809D01*
X0210058Y0028686D01*
X0211043Y0027700D01*
X0182273Y0027700D01*
X0182963Y0029366D01*
X0182963Y0031634D01*
X0182095Y0033729D01*
X0180492Y0035332D01*
X0178397Y0036200D01*
X0176129Y0036200D01*
X0174034Y0035332D01*
X0172431Y0033729D01*
X0172263Y0033324D01*
X0172095Y0033729D01*
X0170492Y0035332D01*
X0168397Y0036200D01*
X0166129Y0036200D01*
X0164034Y0035332D01*
X0162431Y0033729D01*
X0161563Y0031634D01*
X0161563Y0029366D01*
X0162253Y0027700D01*
X0078325Y0027700D01*
X0078325Y0028957D01*
X0073763Y0028957D01*
X0073763Y0028957D01*
X0073763Y0028957D01*
X0069201Y0028957D01*
X0069201Y0027700D01*
X0062458Y0027700D01*
X0062731Y0028235D01*
X0063018Y0029118D01*
X0063163Y0030036D01*
X0063163Y0030500D01*
X0063163Y0030964D01*
X0063018Y0031882D01*
X0062731Y0032765D01*
X0062309Y0033592D01*
X0061763Y0034344D01*
X0061107Y0035000D01*
X0060355Y0035546D01*
X0059528Y0035968D01*
X0058645Y0036255D01*
X0057727Y0036400D01*
X0057263Y0036400D01*
X0057263Y0030500D01*
X0063163Y0030500D01*
X0057263Y0030500D01*
X0057263Y0030500D01*
X0057263Y0030500D01*
X0057263Y0036400D01*
X0056799Y0036400D01*
X0055881Y0036255D01*
X0054998Y0035968D01*
X0054171Y0035546D01*
X0053419Y0035000D01*
X0052763Y0034344D01*
X0052217Y0033592D01*
X0052181Y0033522D01*
X0052095Y0033729D01*
X0050492Y0035332D01*
X0048397Y0036200D01*
X0047923Y0036200D01*
X0051137Y0039414D01*
X0051143Y0039430D01*
X0051263Y0039550D01*
X0051753Y0039059D01*
X0055773Y0039059D01*
X0056263Y0039550D01*
X0056753Y0039059D01*
X0060773Y0039059D01*
X0061122Y0039408D01*
X0061231Y0039299D01*
X0061733Y0039009D01*
X0062292Y0038859D01*
X0063763Y0038859D01*
X0063763Y0045390D01*
X0063763Y0044688D02*
X0063763Y0044688D01*
X0068763Y0044688D02*
X0068763Y0044688D01*
X0068763Y0045390D02*
X0068763Y0038859D01*
X0068763Y0045390D01*
X0068763Y0045390D01*
X0068763Y0047087D02*
X0068763Y0047087D01*
X0068763Y0049485D02*
X0068763Y0049485D01*
X0068763Y0051884D02*
X0068763Y0051884D01*
X0070371Y0051884D02*
X0072354Y0051884D01*
X0069955Y0054282D02*
X0068444Y0054282D01*
X0067557Y0056681D02*
X0066995Y0056681D01*
X0063771Y0059079D02*
X0061963Y0059079D01*
X0061963Y0061478D02*
X0062161Y0061478D01*
X0066263Y0062500D02*
X0078763Y0050000D01*
X0078763Y0045390D01*
X0068763Y0042290D02*
X0068763Y0042290D01*
X0063763Y0042290D02*
X0063763Y0042290D01*
X0063763Y0039891D02*
X0063763Y0039891D01*
X0068763Y0039891D02*
X0068763Y0039891D01*
X0069401Y0037493D02*
X0049215Y0037493D01*
X0050730Y0035094D02*
X0053548Y0035094D01*
X0057263Y0035094D02*
X0057263Y0035094D01*
X0057263Y0032696D02*
X0057263Y0032696D01*
X0060977Y0035094D02*
X0069401Y0035094D01*
X0070345Y0032696D02*
X0062753Y0032696D01*
X0063163Y0030297D02*
X0069201Y0030297D01*
X0069201Y0027899D02*
X0062559Y0027899D01*
X0077181Y0032696D02*
X0084751Y0032696D01*
X0084751Y0035094D02*
X0078125Y0035094D01*
X0078125Y0037493D02*
X0086117Y0037493D01*
X0084751Y0030297D02*
X0078325Y0030297D01*
X0078325Y0027899D02*
X0162171Y0027899D01*
X0161563Y0030297D02*
X0111020Y0030297D01*
X0113418Y0032696D02*
X0162003Y0032696D01*
X0163796Y0035094D02*
X0115817Y0035094D01*
X0118215Y0037493D02*
X0209717Y0037493D01*
X0208764Y0035094D02*
X0180730Y0035094D01*
X0182523Y0032696D02*
X0208764Y0032696D01*
X0209390Y0030297D02*
X0182963Y0030297D01*
X0182355Y0027899D02*
X0210845Y0027899D01*
X0229423Y0045700D02*
X0233849Y0050126D01*
X0234637Y0050914D01*
X0235063Y0051943D01*
X0235063Y0053490D01*
X0235492Y0053668D01*
X0237095Y0055271D01*
X0237181Y0055478D01*
X0237217Y0055408D01*
X0237763Y0054656D01*
X0238419Y0054000D01*
X0239171Y0053454D01*
X0239998Y0053032D01*
X0240881Y0052745D01*
X0241799Y0052600D01*
X0242263Y0052600D01*
X0242727Y0052600D01*
X0243645Y0052745D01*
X0244528Y0053032D01*
X0245355Y0053454D01*
X0246107Y0054000D01*
X0246763Y0054656D01*
X0247309Y0055408D01*
X0247345Y0055478D01*
X0247431Y0055271D01*
X0249034Y0053668D01*
X0251129Y0052800D01*
X0253397Y0052800D01*
X0255492Y0053668D01*
X0257095Y0055271D01*
X0257963Y0057366D01*
X0257963Y0059634D01*
X0257095Y0061729D01*
X0255950Y0062874D01*
X0256129Y0062800D01*
X0258397Y0062800D01*
X0260492Y0063668D01*
X0262095Y0065271D01*
X0262963Y0067366D01*
X0262963Y0069634D01*
X0262095Y0071729D01*
X0260492Y0073332D01*
X0258397Y0074200D01*
X0256129Y0074200D01*
X0254034Y0073332D01*
X0252431Y0071729D01*
X0252263Y0071324D01*
X0252095Y0071729D01*
X0250492Y0073332D01*
X0250463Y0073344D01*
X0250463Y0076726D01*
X0254383Y0080646D01*
X0261143Y0080646D01*
X0264063Y0077726D01*
X0264063Y0059825D01*
X0249937Y0045700D01*
X0229423Y0045700D01*
X0230809Y0047087D02*
X0251324Y0047087D01*
X0253723Y0049485D02*
X0233208Y0049485D01*
X0235038Y0051884D02*
X0256121Y0051884D01*
X0256106Y0054282D02*
X0258520Y0054282D01*
X0257679Y0056681D02*
X0260918Y0056681D01*
X0263317Y0059079D02*
X0257963Y0059079D01*
X0257199Y0061478D02*
X0264063Y0061478D01*
X0267263Y0058500D02*
X0251263Y0042500D01*
X0134263Y0042500D01*
X0131263Y0045500D01*
X0127082Y0044688D02*
X0125411Y0044688D01*
X0123012Y0042290D02*
X0128560Y0042290D01*
X0132346Y0039891D02*
X0120614Y0039891D01*
X0113794Y0054300D02*
X0102423Y0054300D01*
X0095063Y0061660D01*
X0095063Y0070057D01*
X0094797Y0070700D01*
X0096013Y0070700D01*
X0096013Y0068821D01*
X0096323Y0068512D01*
X0096253Y0068441D01*
X0095963Y0067940D01*
X0095813Y0067380D01*
X0095813Y0066500D01*
X0104263Y0066500D01*
X0104263Y0066500D01*
X0095813Y0066500D01*
X0095813Y0065620D01*
X0095963Y0065060D01*
X0096253Y0064559D01*
X0096323Y0064488D01*
X0096013Y0064179D01*
X0096013Y0061341D01*
X0097185Y0060169D01*
X0103200Y0060169D01*
X0103706Y0059960D01*
X0111203Y0059960D01*
X0112233Y0060386D01*
X0113794Y0061948D01*
X0113794Y0060353D01*
X0114147Y0060000D01*
X0113794Y0059647D01*
X0113794Y0054300D01*
X0113794Y0056681D02*
X0100042Y0056681D01*
X0097644Y0059079D02*
X0113794Y0059079D01*
X0113794Y0061478D02*
X0113324Y0061478D01*
X0096013Y0061478D02*
X0095245Y0061478D01*
X0095063Y0063876D02*
X0096013Y0063876D01*
X0095813Y0066275D02*
X0095063Y0066275D01*
X0095063Y0068673D02*
X0096161Y0068673D01*
X0106292Y0076300D02*
X0106444Y0076668D01*
X0106444Y0078332D01*
X0105808Y0079868D01*
X0104631Y0081045D01*
X0103987Y0081311D01*
X0104808Y0082132D01*
X0105444Y0083668D01*
X0105444Y0084721D01*
X0106297Y0085574D01*
X0112663Y0085574D01*
X0112663Y0085224D01*
X0112663Y0083835D01*
X0112813Y0083275D01*
X0112863Y0083188D01*
X0112863Y0080961D01*
X0112813Y0080874D01*
X0112663Y0080315D01*
X0112663Y0078925D01*
X0112663Y0078300D01*
X0111706Y0078300D01*
X0110677Y0077874D01*
X0109889Y0077086D01*
X0109103Y0076300D01*
X0106292Y0076300D01*
X0106444Y0078267D02*
X0111627Y0078267D01*
X0112663Y0078925D02*
X0117363Y0078925D01*
X0117363Y0078925D01*
X0112663Y0078925D01*
X0112757Y0080666D02*
X0105010Y0080666D01*
X0105194Y0083064D02*
X0112863Y0083064D01*
X0112663Y0085224D02*
X0117363Y0085224D01*
X0117363Y0085224D01*
X0122063Y0085224D01*
X0122063Y0084743D01*
X0122225Y0084676D01*
X0122718Y0085868D01*
X0123895Y0087045D01*
X0124506Y0087298D01*
X0121863Y0089940D01*
X0121863Y0087260D01*
X0121913Y0087174D01*
X0122063Y0086614D01*
X0122063Y0085224D01*
X0117363Y0085224D01*
X0117363Y0085224D01*
X0112663Y0085224D01*
X0112663Y0085463D02*
X0106186Y0085463D01*
X0094003Y0092800D02*
X0092206Y0092800D01*
X0091177Y0092374D01*
X0090389Y0091586D01*
X0087731Y0088928D01*
X0087731Y0094147D01*
X0087513Y0094366D01*
X0087782Y0094832D01*
X0087931Y0095391D01*
X0087931Y0097846D01*
X0083763Y0097846D01*
X0083763Y0097847D01*
X0087931Y0097847D01*
X0087931Y0098872D01*
X0094003Y0092800D01*
X0091864Y0092658D02*
X0087731Y0092658D01*
X0087842Y0095057D02*
X0091746Y0095057D01*
X0089348Y0097455D02*
X0087931Y0097455D01*
X0083763Y0097846D02*
X0079594Y0097846D01*
X0079594Y0095391D01*
X0079744Y0094832D01*
X0080013Y0094366D01*
X0079794Y0094147D01*
X0079794Y0088160D01*
X0080013Y0087941D01*
X0077625Y0087941D01*
X0077625Y0092360D01*
X0076533Y0093452D01*
X0076976Y0093708D01*
X0077386Y0094118D01*
X0077675Y0094619D01*
X0077825Y0095179D01*
X0077825Y0097043D01*
X0073263Y0097043D01*
X0073263Y0097043D01*
X0068701Y0097043D01*
X0068701Y0095179D01*
X0068851Y0094619D01*
X0069140Y0094118D01*
X0069550Y0093708D01*
X0069993Y0093452D01*
X0068901Y0092360D01*
X0068901Y0088141D01*
X0068763Y0088141D01*
X0068763Y0081610D01*
X0063763Y0081610D01*
X0063763Y0075080D01*
X0063763Y0081610D01*
X0063763Y0081610D01*
X0063763Y0081610D01*
X0065382Y0081610D01*
X0068763Y0081610D01*
X0068763Y0081610D01*
X0068763Y0088141D01*
X0067292Y0088141D01*
X0066733Y0087991D01*
X0066263Y0087720D01*
X0065793Y0087991D01*
X0065234Y0088141D01*
X0063763Y0088141D01*
X0063763Y0081610D01*
X0063763Y0088141D01*
X0062292Y0088141D01*
X0061733Y0087991D01*
X0061231Y0087701D01*
X0061122Y0087592D01*
X0060773Y0087941D01*
X0056753Y0087941D01*
X0056263Y0087450D01*
X0055773Y0087941D01*
X0053063Y0087941D01*
X0053063Y0087991D01*
X0054231Y0089160D01*
X0054231Y0095147D01*
X0053879Y0095500D01*
X0054231Y0095853D01*
X0054231Y0098855D01*
X0055076Y0099700D01*
X0068985Y0099700D01*
X0068851Y0099467D01*
X0068701Y0098908D01*
X0068701Y0097043D01*
X0073263Y0097043D01*
X0073263Y0097043D01*
X0077825Y0097043D01*
X0077825Y0098908D01*
X0077675Y0099467D01*
X0077541Y0099700D01*
X0079594Y0099700D01*
X0079594Y0097847D01*
X0083763Y0097847D01*
X0083763Y0097846D01*
X0079594Y0097455D02*
X0077825Y0097455D01*
X0077792Y0095057D02*
X0079684Y0095057D01*
X0079794Y0092658D02*
X0077327Y0092658D01*
X0077625Y0090260D02*
X0079794Y0090260D01*
X0087731Y0090260D02*
X0089063Y0090260D01*
X0078763Y0081610D02*
X0078763Y0077000D01*
X0073263Y0071500D01*
X0068263Y0071500D01*
X0064553Y0073470D02*
X0061963Y0073470D01*
X0061963Y0071072D02*
X0064082Y0071072D01*
X0065177Y0068673D02*
X0061963Y0068673D01*
X0061963Y0066275D02*
X0064450Y0066275D01*
X0068076Y0066275D02*
X0080963Y0066275D01*
X0080177Y0068673D02*
X0074801Y0068673D01*
X0077360Y0071072D02*
X0079082Y0071072D01*
X0080963Y0063876D02*
X0070219Y0063876D01*
X0071811Y0061478D02*
X0080963Y0061478D01*
X0080963Y0059079D02*
X0074209Y0059079D01*
X0076608Y0056681D02*
X0080963Y0056681D01*
X0080963Y0054282D02*
X0079006Y0054282D01*
X0064263Y0053500D02*
X0062263Y0053500D01*
X0056955Y0054282D02*
X0055006Y0054282D01*
X0055563Y0056681D02*
X0052608Y0056681D01*
X0050209Y0059079D02*
X0055563Y0059079D01*
X0055563Y0061478D02*
X0048384Y0061478D01*
X0044263Y0060500D02*
X0053763Y0051000D01*
X0053763Y0045390D01*
X0048354Y0051884D02*
X0044839Y0051884D01*
X0045955Y0054282D02*
X0042441Y0054282D01*
X0042558Y0056681D02*
X0040042Y0056681D01*
X0040326Y0059079D02*
X0037644Y0059079D01*
X0036821Y0061478D02*
X0040142Y0061478D01*
X0041726Y0063876D02*
X0036931Y0063876D01*
X0036931Y0066275D02*
X0055563Y0066275D01*
X0055563Y0068673D02*
X0052032Y0068673D01*
X0053360Y0071072D02*
X0055563Y0071072D01*
X0063763Y0075869D02*
X0063763Y0075869D01*
X0063763Y0078267D02*
X0063763Y0078267D01*
X0063763Y0080666D02*
X0063763Y0080666D01*
X0063763Y0081610D02*
X0063763Y0081610D01*
X0063763Y0083064D02*
X0063763Y0083064D01*
X0063763Y0085463D02*
X0063763Y0085463D01*
X0068763Y0085463D02*
X0068763Y0085463D01*
X0068763Y0083064D02*
X0068763Y0083064D01*
X0068763Y0081610D02*
X0068763Y0081610D01*
X0068763Y0087861D02*
X0068763Y0087861D01*
X0066508Y0087861D02*
X0066018Y0087861D01*
X0063763Y0087861D02*
X0063763Y0087861D01*
X0061508Y0087861D02*
X0060852Y0087861D01*
X0056674Y0087861D02*
X0055852Y0087861D01*
X0054231Y0090260D02*
X0068901Y0090260D01*
X0069199Y0092658D02*
X0054231Y0092658D01*
X0054231Y0095057D02*
X0068733Y0095057D01*
X0068701Y0097455D02*
X0054231Y0097455D01*
X0046294Y0098838D02*
X0046294Y0101840D01*
X0047463Y0103009D01*
X0047463Y0103340D01*
X0042103Y0108700D01*
X0041431Y0108700D01*
X0041431Y0106847D01*
X0037263Y0106847D01*
X0037263Y0106846D01*
X0037263Y0106847D01*
X0033094Y0106847D01*
X0033094Y0108700D01*
X0027076Y0108700D01*
X0026731Y0108355D01*
X0026731Y0105353D01*
X0026379Y0105000D01*
X0026731Y0104647D01*
X0026731Y0098660D01*
X0025560Y0097488D01*
X0022557Y0097488D01*
X0022217Y0097147D01*
X0022217Y0095968D01*
X0022410Y0095968D01*
X0022629Y0095750D01*
X0023095Y0096019D01*
X0023654Y0096168D01*
X0026109Y0096168D01*
X0026109Y0092000D01*
X0026109Y0092000D01*
X0026109Y0096168D01*
X0028564Y0096168D01*
X0029124Y0096019D01*
X0029626Y0095729D01*
X0030035Y0095319D01*
X0030325Y0094818D01*
X0030475Y0094258D01*
X0030475Y0092000D01*
X0026110Y0092000D01*
X0026110Y0092000D01*
X0030475Y0092000D01*
X0030475Y0089742D01*
X0030437Y0089600D01*
X0030581Y0089562D01*
X0030763Y0089457D01*
X0030945Y0089562D01*
X0031505Y0089712D01*
X0032751Y0089712D01*
X0032751Y0095297D01*
X0033923Y0096468D01*
X0033986Y0096468D01*
X0033294Y0097160D01*
X0033294Y0103147D01*
X0033513Y0103366D01*
X0033244Y0103832D01*
X0033094Y0104391D01*
X0033094Y0106846D01*
X0037263Y0106846D01*
X0041431Y0106846D01*
X0041431Y0104391D01*
X0041282Y0103832D01*
X0041013Y0103366D01*
X0041231Y0103147D01*
X0041231Y0097160D01*
X0040225Y0096154D01*
X0040263Y0096116D01*
X0040616Y0096468D01*
X0043925Y0096468D01*
X0046294Y0098838D01*
X0046294Y0099854D02*
X0041231Y0099854D01*
X0041231Y0097455D02*
X0044912Y0097455D01*
X0046707Y0102252D02*
X0041231Y0102252D01*
X0041431Y0104651D02*
X0046152Y0104651D01*
X0043754Y0107049D02*
X0041431Y0107049D01*
X0049275Y0109448D02*
X0080544Y0109448D01*
X0080718Y0109868D02*
X0080082Y0108332D01*
X0080082Y0106668D01*
X0080649Y0105300D01*
X0053360Y0105300D01*
X0053020Y0105160D01*
X0052637Y0106086D01*
X0051849Y0106874D01*
X0045423Y0113300D01*
X0109586Y0113300D01*
X0113961Y0114472D01*
X0117883Y0116737D01*
X0121085Y0119939D01*
X0123350Y0123861D01*
X0124522Y0128236D01*
X0124522Y0130500D01*
X0124632Y0132171D01*
X0125496Y0135398D01*
X0127167Y0138292D01*
X0129530Y0140655D01*
X0132424Y0142326D01*
X0135651Y0143190D01*
X0137322Y0143300D01*
X0192322Y0143300D01*
X0193993Y0143190D01*
X0197220Y0142326D01*
X0200114Y0140655D01*
X0202477Y0138292D01*
X0204148Y0135398D01*
X0205013Y0132171D01*
X0205122Y0130500D01*
X0205122Y0128236D01*
X0206294Y0123861D01*
X0208559Y0119939D01*
X0211761Y0116737D01*
X0214823Y0114968D01*
X0214616Y0114968D01*
X0214263Y0114616D01*
X0213910Y0114968D01*
X0207923Y0114968D01*
X0206751Y0113797D01*
X0206751Y0108203D01*
X0207923Y0107031D01*
X0208117Y0107031D01*
X0208117Y0105289D01*
X0208543Y0104260D01*
X0215303Y0097500D01*
X0196757Y0078954D01*
X0189231Y0078954D01*
X0189231Y0079147D01*
X0189013Y0079366D01*
X0189282Y0079832D01*
X0189431Y0080391D01*
X0189431Y0082846D01*
X0185263Y0082846D01*
X0185263Y0082847D01*
X0185263Y0087212D01*
X0185263Y0082847D01*
X0185263Y0082847D01*
X0189431Y0082847D01*
X0189431Y0085301D01*
X0189282Y0085861D01*
X0188992Y0086363D01*
X0188866Y0086488D01*
X0192560Y0086488D01*
X0192562Y0086490D01*
X0192082Y0085332D01*
X0192082Y0083668D01*
X0192718Y0082132D01*
X0193895Y0080955D01*
X0195431Y0080319D01*
X0197095Y0080319D01*
X0198631Y0080955D01*
X0199808Y0082132D01*
X0200444Y0083668D01*
X0200444Y0085332D01*
X0199808Y0086868D01*
X0199624Y0087052D01*
X0200231Y0087660D01*
X0200231Y0093647D01*
X0199879Y0094000D01*
X0200231Y0094353D01*
X0200231Y0100340D01*
X0199060Y0101512D01*
X0195633Y0101512D01*
X0194229Y0102916D01*
X0193526Y0103619D01*
X0192607Y0104000D01*
X0185766Y0104000D01*
X0184847Y0103619D01*
X0183157Y0101929D01*
X0181901Y0101929D01*
X0179763Y0104067D01*
X0179763Y0105366D01*
X0180492Y0105668D01*
X0182095Y0107271D01*
X0182963Y0109366D01*
X0182963Y0111634D01*
X0182095Y0113729D01*
X0180492Y0115332D01*
X0178397Y0116200D01*
X0176129Y0116200D01*
X0174034Y0115332D01*
X0172431Y0113729D01*
X0172263Y0113324D01*
X0172095Y0113729D01*
X0170492Y0115332D01*
X0168397Y0116200D01*
X0166361Y0116200D01*
X0166444Y0116401D01*
X0166444Y0118064D01*
X0165808Y0119601D01*
X0164631Y0120777D01*
X0163926Y0121069D01*
X0167959Y0125102D01*
X0168688Y0124800D01*
X0170956Y0124800D01*
X0173051Y0125668D01*
X0174654Y0127271D01*
X0175522Y0129366D01*
X0175522Y0131634D01*
X0174654Y0133729D01*
X0173051Y0135332D01*
X0170956Y0136200D01*
X0168688Y0136200D01*
X0166593Y0135332D01*
X0164990Y0133729D01*
X0164904Y0133522D01*
X0164868Y0133592D01*
X0164322Y0134344D01*
X0163666Y0135000D01*
X0162914Y0135546D01*
X0162087Y0135968D01*
X0161204Y0136255D01*
X0160286Y0136400D01*
X0159822Y0136400D01*
X0159358Y0136400D01*
X0158440Y0136255D01*
X0157557Y0135968D01*
X0156730Y0135546D01*
X0155978Y0135000D01*
X0155322Y0134344D01*
X0154776Y0133592D01*
X0154354Y0132765D01*
X0154067Y0131882D01*
X0153922Y0130964D01*
X0153922Y0130500D01*
X0159822Y0130500D01*
X0159822Y0130500D01*
X0153922Y0130500D01*
X0153922Y0130036D01*
X0154067Y0129118D01*
X0154354Y0128235D01*
X0154776Y0127408D01*
X0155322Y0126656D01*
X0155978Y0126000D01*
X0156730Y0125454D01*
X0157557Y0125032D01*
X0158440Y0124745D01*
X0159358Y0124600D01*
X0159822Y0124600D01*
X0159822Y0130500D01*
X0159822Y0136400D01*
X0159822Y0130500D01*
X0159822Y0130500D01*
X0159822Y0130500D01*
X0159822Y0124600D01*
X0160286Y0124600D01*
X0160405Y0124619D01*
X0150805Y0115019D01*
X0150492Y0115332D01*
X0148397Y0116200D01*
X0146518Y0116200D01*
X0146602Y0116401D01*
X0146602Y0118064D01*
X0145965Y0119601D01*
X0144789Y0120777D01*
X0143252Y0121413D01*
X0141589Y0121413D01*
X0140052Y0120777D01*
X0138876Y0119601D01*
X0138239Y0118064D01*
X0138239Y0116401D01*
X0138322Y0116200D01*
X0136129Y0116200D01*
X0134034Y0115332D01*
X0133189Y0114487D01*
X0132631Y0115045D01*
X0131095Y0115681D01*
X0129431Y0115681D01*
X0127895Y0115045D01*
X0126718Y0113868D01*
X0126431Y0113176D01*
X0126431Y0114301D01*
X0126282Y0114861D01*
X0125992Y0115363D01*
X0125582Y0115772D01*
X0125081Y0116062D01*
X0124521Y0116212D01*
X0122263Y0116212D01*
X0122263Y0111847D01*
X0122263Y0116212D01*
X0120005Y0116212D01*
X0119445Y0116062D01*
X0118944Y0115772D01*
X0118534Y0115363D01*
X0118244Y0114861D01*
X0118094Y0114301D01*
X0118094Y0111847D01*
X0122263Y0111847D01*
X0122263Y0111847D01*
X0122263Y0111846D01*
X0118094Y0111846D01*
X0118094Y0109391D01*
X0118244Y0108832D01*
X0118513Y0108366D01*
X0118294Y0108147D01*
X0118294Y0102160D01*
X0119466Y0100988D01*
X0120399Y0100988D01*
X0120139Y0100728D01*
X0120139Y0094624D01*
X0118410Y0094624D01*
X0116369Y0096665D01*
X0116369Y0099667D01*
X0116150Y0099886D01*
X0116419Y0100352D01*
X0116569Y0100911D01*
X0116569Y0103366D01*
X0112401Y0103366D01*
X0112401Y0103366D01*
X0116569Y0103366D01*
X0116569Y0105821D01*
X0116419Y0106381D01*
X0116130Y0106882D01*
X0115720Y0107292D01*
X0115218Y0107582D01*
X0114659Y0107731D01*
X0112401Y0107731D01*
X0112401Y0103366D01*
X0112401Y0103366D01*
X0112401Y0107731D01*
X0110143Y0107731D01*
X0109583Y0107582D01*
X0109081Y0107292D01*
X0108931Y0107141D01*
X0108560Y0107512D01*
X0105557Y0107512D01*
X0103983Y0109086D01*
X0103196Y0109874D01*
X0102166Y0110300D01*
X0087376Y0110300D01*
X0086631Y0111045D01*
X0085095Y0111681D01*
X0083431Y0111681D01*
X0081895Y0111045D01*
X0080718Y0109868D01*
X0080082Y0107049D02*
X0051673Y0107049D01*
X0046876Y0111846D02*
X0122263Y0111846D01*
X0122263Y0114245D02*
X0122263Y0114245D01*
X0126431Y0114245D02*
X0127095Y0114245D01*
X0120188Y0119042D02*
X0138644Y0119042D01*
X0138713Y0120934D02*
X0135931Y0120934D01*
X0133244Y0121654D01*
X0130834Y0123045D01*
X0128867Y0125012D01*
X0127476Y0127422D01*
X0126756Y0130109D01*
X0126756Y0132891D01*
X0127476Y0135578D01*
X0128867Y0137988D01*
X0130834Y0139955D01*
X0133244Y0141346D01*
X0135931Y0142066D01*
X0138713Y0142066D01*
X0141400Y0141346D01*
X0143810Y0139955D01*
X0145777Y0137988D01*
X0147168Y0135578D01*
X0147888Y0132891D01*
X0147888Y0130109D01*
X0147168Y0127422D01*
X0145777Y0125012D01*
X0143810Y0123045D01*
X0141400Y0121654D01*
X0138713Y0120934D01*
X0140604Y0121440D02*
X0157227Y0121440D01*
X0159625Y0123839D02*
X0144604Y0123839D01*
X0146484Y0126237D02*
X0155741Y0126237D01*
X0154224Y0128636D02*
X0147493Y0128636D01*
X0147888Y0131034D02*
X0153933Y0131034D01*
X0154695Y0133433D02*
X0147743Y0133433D01*
X0147022Y0135832D02*
X0157290Y0135832D01*
X0159822Y0135832D02*
X0159822Y0135832D01*
X0162354Y0135832D02*
X0167799Y0135832D01*
X0171845Y0135832D02*
X0182622Y0135832D01*
X0182476Y0135578D02*
X0181756Y0132891D01*
X0181756Y0130109D01*
X0182476Y0127422D01*
X0183867Y0125012D01*
X0185834Y0123045D01*
X0188244Y0121654D01*
X0190931Y0120934D01*
X0193713Y0120934D01*
X0196400Y0121654D01*
X0198810Y0123045D01*
X0200777Y0125012D01*
X0202168Y0127422D01*
X0202888Y0130109D01*
X0202888Y0132891D01*
X0202168Y0135578D01*
X0200777Y0137988D01*
X0198810Y0139955D01*
X0196400Y0141346D01*
X0193713Y0142066D01*
X0190931Y0142066D01*
X0188244Y0141346D01*
X0185834Y0139955D01*
X0183867Y0137988D01*
X0182476Y0135578D01*
X0184109Y0138230D02*
X0145535Y0138230D01*
X0142643Y0140629D02*
X0187001Y0140629D01*
X0194603Y0143027D02*
X0135041Y0143027D01*
X0132001Y0140629D02*
X0129504Y0140629D01*
X0129109Y0138230D02*
X0127131Y0138230D01*
X0127622Y0135832D02*
X0125746Y0135832D01*
X0124970Y0133433D02*
X0126901Y0133433D01*
X0126756Y0131034D02*
X0124557Y0131034D01*
X0124522Y0128636D02*
X0127151Y0128636D01*
X0128160Y0126237D02*
X0123987Y0126237D01*
X0123350Y0123861D02*
X0123350Y0123861D01*
X0123337Y0123839D02*
X0130040Y0123839D01*
X0134040Y0121440D02*
X0121952Y0121440D01*
X0121085Y0119939D02*
X0121085Y0119939D01*
X0117883Y0116737D02*
X0117883Y0116737D01*
X0117722Y0116643D02*
X0138239Y0116643D01*
X0146196Y0119042D02*
X0154828Y0119042D01*
X0152430Y0116643D02*
X0146602Y0116643D01*
X0164298Y0121440D02*
X0189040Y0121440D01*
X0185040Y0123839D02*
X0166697Y0123839D01*
X0173621Y0126237D02*
X0183160Y0126237D01*
X0182151Y0128636D02*
X0175220Y0128636D01*
X0175522Y0131034D02*
X0181756Y0131034D01*
X0181901Y0133433D02*
X0174777Y0133433D01*
X0159822Y0133433D02*
X0159822Y0133433D01*
X0159822Y0131034D02*
X0159822Y0131034D01*
X0159822Y0128636D02*
X0159822Y0128636D01*
X0159822Y0126237D02*
X0159822Y0126237D01*
X0166039Y0119042D02*
X0209456Y0119042D01*
X0208559Y0119939D02*
X0208559Y0119939D01*
X0207692Y0121440D02*
X0195604Y0121440D01*
X0199604Y0123839D02*
X0206307Y0123839D01*
X0206294Y0123861D02*
X0206294Y0123861D01*
X0205657Y0126237D02*
X0201484Y0126237D01*
X0202493Y0128636D02*
X0205122Y0128636D01*
X0205087Y0131034D02*
X0202888Y0131034D01*
X0202743Y0133433D02*
X0204674Y0133433D01*
X0203898Y0135832D02*
X0202022Y0135832D01*
X0202513Y0138230D02*
X0200535Y0138230D01*
X0200141Y0140629D02*
X0197643Y0140629D01*
X0211761Y0116737D02*
X0211761Y0116737D01*
X0211922Y0116643D02*
X0166444Y0116643D01*
X0171579Y0114245D02*
X0172947Y0114245D01*
X0181579Y0114245D02*
X0207199Y0114245D01*
X0206751Y0111846D02*
X0182875Y0111846D01*
X0182963Y0109448D02*
X0206751Y0109448D01*
X0207905Y0107049D02*
X0181873Y0107049D01*
X0179763Y0104651D02*
X0208381Y0104651D01*
X0210551Y0102252D02*
X0194893Y0102252D01*
X0200231Y0099854D02*
X0212949Y0099854D01*
X0215259Y0097455D02*
X0200231Y0097455D01*
X0200231Y0095057D02*
X0212860Y0095057D01*
X0210462Y0092658D02*
X0200231Y0092658D01*
X0200231Y0090260D02*
X0208063Y0090260D01*
X0205665Y0087861D02*
X0200231Y0087861D01*
X0200390Y0085463D02*
X0203266Y0085463D01*
X0200867Y0083064D02*
X0200194Y0083064D01*
X0198469Y0080666D02*
X0197932Y0080666D01*
X0194594Y0080666D02*
X0189431Y0080666D01*
X0189431Y0083064D02*
X0192332Y0083064D01*
X0192136Y0085463D02*
X0189388Y0085463D01*
X0186242Y0087212D02*
X0185263Y0087212D01*
X0183005Y0087212D01*
X0182445Y0087062D01*
X0182169Y0086902D01*
X0182060Y0087012D01*
X0178633Y0087012D01*
X0178263Y0087382D01*
X0178263Y0088871D01*
X0180956Y0088871D01*
X0184395Y0088871D01*
X0184955Y0089021D01*
X0185456Y0089310D01*
X0185794Y0089649D01*
X0185794Y0087660D01*
X0186242Y0087212D01*
X0185794Y0087861D02*
X0178263Y0087861D01*
X0180956Y0088871D02*
X0180956Y0091630D01*
X0180956Y0088871D01*
X0180956Y0090260D02*
X0180956Y0090260D01*
X0180956Y0091630D02*
X0180956Y0091630D01*
X0185263Y0085463D02*
X0185263Y0085463D01*
X0185263Y0083064D02*
X0185263Y0083064D01*
X0198473Y0073354D02*
X0199503Y0073780D01*
X0217563Y0091840D01*
X0217563Y0091760D01*
X0194103Y0068300D01*
X0156299Y0068300D01*
X0155663Y0068936D01*
X0155663Y0070698D01*
X0155663Y0080039D01*
X0155713Y0080126D01*
X0155863Y0080685D01*
X0155863Y0082075D01*
X0155863Y0082987D01*
X0156895Y0081955D01*
X0158431Y0081319D01*
X0160095Y0081319D01*
X0161631Y0081955D01*
X0162294Y0082619D01*
X0162294Y0079853D01*
X0162582Y0079565D01*
X0161095Y0080181D01*
X0159431Y0080181D01*
X0157895Y0079545D01*
X0156718Y0078368D01*
X0156082Y0076832D01*
X0156082Y0075168D01*
X0156718Y0073632D01*
X0157895Y0072455D01*
X0159431Y0071819D01*
X0161095Y0071819D01*
X0162631Y0072455D01*
X0162815Y0072639D01*
X0163466Y0071988D01*
X0169060Y0071988D01*
X0169513Y0072441D01*
X0169966Y0071988D01*
X0175560Y0071988D01*
X0176013Y0072441D01*
X0176466Y0071988D01*
X0182060Y0071988D01*
X0182263Y0072191D01*
X0182466Y0071988D01*
X0188060Y0071988D01*
X0189231Y0073160D01*
X0189231Y0073354D01*
X0198473Y0073354D01*
X0198755Y0073470D02*
X0199273Y0073470D01*
X0196875Y0071072D02*
X0155663Y0071072D01*
X0155663Y0073470D02*
X0156880Y0073470D01*
X0156082Y0075869D02*
X0155663Y0075869D01*
X0155663Y0078267D02*
X0156677Y0078267D01*
X0155858Y0080666D02*
X0162294Y0080666D01*
X0155863Y0082075D02*
X0151163Y0082075D01*
X0155863Y0082075D01*
X0151163Y0082075D02*
X0151163Y0082075D01*
X0155926Y0068673D02*
X0194476Y0068673D01*
X0201592Y0075869D02*
X0201672Y0075869D01*
X0203990Y0078267D02*
X0204070Y0078267D01*
X0206389Y0080666D02*
X0206469Y0080666D01*
X0208787Y0083064D02*
X0208867Y0083064D01*
X0211186Y0085463D02*
X0211266Y0085463D01*
X0213584Y0087861D02*
X0213664Y0087861D01*
X0215983Y0090260D02*
X0216063Y0090260D01*
X0233263Y0082500D02*
X0233263Y0082500D01*
X0233263Y0076600D01*
X0233727Y0076600D01*
X0234645Y0076745D01*
X0235528Y0077032D01*
X0236355Y0077454D01*
X0236463Y0077532D01*
X0236463Y0074200D01*
X0236129Y0074200D01*
X0234034Y0073332D01*
X0232431Y0071729D01*
X0232263Y0071324D01*
X0232095Y0071729D01*
X0230492Y0073332D01*
X0228397Y0074200D01*
X0227640Y0074200D01*
X0229736Y0076296D01*
X0230467Y0077027D01*
X0230561Y0077255D01*
X0230998Y0077032D01*
X0231881Y0076745D01*
X0232799Y0076600D01*
X0233263Y0076600D01*
X0233263Y0082500D01*
X0233263Y0080666D02*
X0233263Y0080666D01*
X0233263Y0078267D02*
X0233263Y0078267D01*
X0236463Y0075869D02*
X0229309Y0075869D01*
X0230159Y0073470D02*
X0234367Y0073470D01*
X0242063Y0073470D02*
X0244063Y0073470D01*
X0244063Y0073344D02*
X0244034Y0073332D01*
X0242431Y0071729D01*
X0242263Y0071324D01*
X0242095Y0071729D01*
X0242063Y0071761D01*
X0242063Y0097057D01*
X0241637Y0098086D01*
X0238785Y0100937D01*
X0238963Y0101366D01*
X0238963Y0103634D01*
X0238095Y0105729D01*
X0236492Y0107332D01*
X0235260Y0107842D01*
X0235261Y0107843D01*
X0235567Y0108300D01*
X0235777Y0108808D01*
X0235884Y0109347D01*
X0235884Y0111000D01*
X0235884Y0112653D01*
X0235777Y0113192D01*
X0235732Y0113300D01*
X0252807Y0113300D01*
X0252807Y0107627D01*
X0257585Y0107627D01*
X0257585Y0107271D01*
X0252807Y0107271D01*
X0252807Y0101254D01*
X0252957Y0100694D01*
X0253247Y0100192D01*
X0253656Y0099783D01*
X0254158Y0099493D01*
X0254717Y0099343D01*
X0257585Y0099343D01*
X0257585Y0107271D01*
X0257941Y0107271D01*
X0257941Y0107627D01*
X0262719Y0107627D01*
X0262719Y0113264D01*
X0263483Y0113204D01*
X0265804Y0112450D01*
X0267778Y0111015D01*
X0269213Y0109041D01*
X0269967Y0106720D01*
X0270063Y0105500D01*
X0270063Y0080653D01*
X0269976Y0080864D01*
X0262519Y0088321D01*
X0262519Y0095285D01*
X0261347Y0096457D01*
X0254179Y0096457D01*
X0253007Y0095285D01*
X0253007Y0088321D01*
X0244550Y0079864D01*
X0244063Y0078688D01*
X0244063Y0073344D01*
X0244063Y0075869D02*
X0242063Y0075869D01*
X0242063Y0078267D02*
X0244063Y0078267D01*
X0247263Y0078051D02*
X0257763Y0088551D01*
X0267263Y0079051D01*
X0267263Y0058500D01*
X0264063Y0063876D02*
X0260700Y0063876D01*
X0262511Y0066275D02*
X0264063Y0066275D01*
X0264063Y0068673D02*
X0262963Y0068673D01*
X0262367Y0071072D02*
X0264063Y0071072D01*
X0264063Y0073470D02*
X0260159Y0073470D01*
X0264063Y0075869D02*
X0250463Y0075869D01*
X0252005Y0078267D02*
X0263521Y0078267D01*
X0270058Y0080666D02*
X0270063Y0080666D01*
X0270063Y0083064D02*
X0267775Y0083064D01*
X0270063Y0085463D02*
X0265377Y0085463D01*
X0262978Y0087861D02*
X0270063Y0087861D01*
X0270063Y0090260D02*
X0262519Y0090260D01*
X0262519Y0092658D02*
X0270063Y0092658D01*
X0270063Y0095057D02*
X0262519Y0095057D01*
X0270063Y0097455D02*
X0241898Y0097455D01*
X0239869Y0099854D02*
X0253585Y0099854D01*
X0252807Y0102252D02*
X0238963Y0102252D01*
X0238542Y0104651D02*
X0252807Y0104651D01*
X0252807Y0107049D02*
X0236775Y0107049D01*
X0235884Y0109448D02*
X0252807Y0109448D01*
X0252807Y0111846D02*
X0235884Y0111846D01*
X0235884Y0111000D02*
X0231716Y0111000D01*
X0231716Y0111000D01*
X0235884Y0111000D01*
X0257585Y0107049D02*
X0257941Y0107049D01*
X0257941Y0107271D02*
X0257941Y0099343D01*
X0260809Y0099343D01*
X0261368Y0099493D01*
X0261870Y0099783D01*
X0262279Y0100192D01*
X0262569Y0100694D01*
X0262719Y0101254D01*
X0262719Y0107271D01*
X0257941Y0107271D01*
X0257941Y0104651D02*
X0257585Y0104651D01*
X0257585Y0102252D02*
X0257941Y0102252D01*
X0257941Y0099854D02*
X0257585Y0099854D01*
X0261941Y0099854D02*
X0270063Y0099854D01*
X0270063Y0102252D02*
X0262719Y0102252D01*
X0262719Y0104651D02*
X0270063Y0104651D01*
X0269860Y0107049D02*
X0262719Y0107049D01*
X0262719Y0109448D02*
X0268917Y0109448D01*
X0266635Y0111846D02*
X0262719Y0111846D01*
X0253007Y0095057D02*
X0242063Y0095057D01*
X0242063Y0092658D02*
X0253007Y0092658D01*
X0253007Y0090260D02*
X0242063Y0090260D01*
X0242063Y0087861D02*
X0252548Y0087861D01*
X0250149Y0085463D02*
X0242063Y0085463D01*
X0242063Y0083064D02*
X0247751Y0083064D01*
X0245352Y0080666D02*
X0242063Y0080666D01*
X0247263Y0078051D02*
X0247263Y0068500D01*
X0243410Y0064292D02*
X0242431Y0065271D01*
X0242263Y0065676D01*
X0242095Y0065271D01*
X0241116Y0064292D01*
X0241799Y0064400D01*
X0242263Y0064400D01*
X0242263Y0058500D01*
X0242263Y0058500D01*
X0242263Y0052600D01*
X0242263Y0058500D01*
X0242263Y0058500D01*
X0242263Y0064400D01*
X0242727Y0064400D01*
X0243410Y0064292D01*
X0242263Y0063876D02*
X0242263Y0063876D01*
X0242263Y0061478D02*
X0242263Y0061478D01*
X0242263Y0059079D02*
X0242263Y0059079D01*
X0242263Y0056681D02*
X0242263Y0056681D01*
X0242263Y0054282D02*
X0242263Y0054282D01*
X0238137Y0054282D02*
X0236106Y0054282D01*
X0246389Y0054282D02*
X0248420Y0054282D01*
X0250463Y0073470D02*
X0254367Y0073470D01*
X0183480Y0102252D02*
X0181578Y0102252D01*
X0123942Y0087861D02*
X0121863Y0087861D01*
X0122063Y0085463D02*
X0122550Y0085463D01*
X0120139Y0095057D02*
X0117977Y0095057D01*
X0116369Y0097455D02*
X0120139Y0097455D01*
X0120139Y0099854D02*
X0116182Y0099854D01*
X0116569Y0102252D02*
X0118294Y0102252D01*
X0118294Y0104651D02*
X0116569Y0104651D01*
X0115963Y0107049D02*
X0118294Y0107049D01*
X0118094Y0109448D02*
X0103621Y0109448D01*
X0112401Y0107049D02*
X0112401Y0107049D01*
X0112401Y0104651D02*
X0112401Y0104651D01*
X0113113Y0114245D02*
X0118094Y0114245D01*
X0113961Y0114472D02*
X0113961Y0114472D01*
X0045320Y0073470D02*
X0044193Y0073470D01*
X0043637Y0072914D02*
X0043637Y0072914D01*
X0044082Y0071072D02*
X0023563Y0071072D01*
X0023563Y0073470D02*
X0033333Y0073470D01*
X0033889Y0072914D02*
X0033889Y0072914D01*
X0033763Y0078654D02*
X0027763Y0078654D01*
X0023794Y0078267D02*
X0023563Y0078267D01*
X0023563Y0075869D02*
X0023794Y0075869D01*
X0023794Y0080666D02*
X0023563Y0080666D01*
X0023563Y0083064D02*
X0023594Y0083064D01*
X0023563Y0085463D02*
X0023594Y0085463D01*
X0015263Y0085463D02*
X0015263Y0085463D01*
X0015263Y0087861D02*
X0015263Y0087861D01*
X0013556Y0087861D02*
X0008063Y0087861D01*
X0008063Y0090260D02*
X0015251Y0090260D01*
X0015251Y0092658D02*
X0008063Y0092658D01*
X0008063Y0095057D02*
X0015511Y0095057D01*
X0022525Y0097455D02*
X0033294Y0097455D01*
X0033294Y0099854D02*
X0026731Y0099854D01*
X0026731Y0102252D02*
X0033294Y0102252D01*
X0033094Y0104651D02*
X0026728Y0104651D01*
X0026731Y0107049D02*
X0033094Y0107049D01*
X0032751Y0095057D02*
X0030187Y0095057D01*
X0030475Y0092658D02*
X0032751Y0092658D01*
X0032751Y0090260D02*
X0030475Y0090260D01*
X0026109Y0092658D02*
X0026109Y0092658D01*
X0026109Y0095057D02*
X0026109Y0095057D01*
X0010840Y0085463D02*
X0008063Y0085463D01*
X0008063Y0083064D02*
X0010288Y0083064D01*
X0010963Y0080666D02*
X0008063Y0080666D01*
X0008063Y0078267D02*
X0011467Y0078267D01*
X0010488Y0075869D02*
X0008063Y0075869D01*
X0008063Y0073470D02*
X0010857Y0073470D01*
X0012145Y0071072D02*
X0008063Y0071072D01*
X0008063Y0068673D02*
X0010607Y0068673D01*
X0010576Y0066275D02*
X0008063Y0066275D01*
X0008063Y0063876D02*
X0012071Y0063876D01*
X0010888Y0061478D02*
X0008063Y0061478D01*
X0008063Y0059079D02*
X0010488Y0059079D01*
X0011393Y0056681D02*
X0008063Y0056681D01*
X0008063Y0054282D02*
X0011169Y0054282D01*
X0010488Y0051884D02*
X0008063Y0051884D01*
X0008063Y0049485D02*
X0011008Y0049485D01*
X0011499Y0047087D02*
X0008063Y0047087D01*
X0008535Y0044688D02*
X0010364Y0044688D01*
X0046800Y0063876D02*
X0055563Y0063876D01*
X0061963Y0063876D02*
X0062307Y0063876D01*
X0170730Y0035094D02*
X0173796Y0035094D01*
D25*
X0172763Y0082846D02*
X0172763Y0095000D01*
X0170983Y0096780D01*
X0167570Y0096780D01*
X0156043Y0096780D01*
X0153763Y0094500D01*
X0148263Y0094500D01*
X0145263Y0091500D01*
X0138263Y0091500D01*
X0135838Y0093925D01*
X0135838Y0097400D01*
X0138987Y0097400D02*
X0138987Y0102224D01*
X0142263Y0105500D01*
X0142263Y0117075D01*
X0142420Y0117232D01*
X0152263Y0112941D02*
X0169822Y0130500D01*
X0162263Y0117232D02*
X0162263Y0104646D01*
X0167570Y0099339D01*
X0171924Y0099339D01*
X0175763Y0095500D01*
X0175763Y0086346D01*
X0179263Y0082846D01*
X0166263Y0082846D02*
X0166263Y0090354D01*
X0167570Y0091661D01*
X0167570Y0094220D01*
X0177483Y0096780D02*
X0167263Y0107000D01*
X0167263Y0110500D01*
X0177263Y0110500D02*
X0177263Y0103031D01*
X0180956Y0099339D01*
X0184102Y0099339D01*
X0186263Y0101500D01*
X0192109Y0101500D01*
X0196263Y0097346D01*
X0189763Y0097346D02*
X0189763Y0096780D01*
X0180956Y0096780D01*
X0177483Y0096780D01*
X0180956Y0094220D02*
X0186196Y0094220D01*
X0189763Y0090654D01*
X0157263Y0102000D02*
X0157263Y0110500D01*
X0152263Y0112941D02*
X0152263Y0105500D01*
X0150763Y0104000D01*
X0145763Y0104000D01*
X0142137Y0100374D01*
X0142137Y0097400D01*
X0145287Y0097400D02*
X0152663Y0097400D01*
X0157263Y0102000D01*
X0083763Y0091154D02*
X0083763Y0081610D01*
X0063763Y0081610D02*
X0063763Y0083957D01*
D26*
X0061263Y0092500D03*
X0084263Y0107500D03*
X0101263Y0084500D03*
X0102263Y0077500D03*
X0111263Y0079500D03*
X0124763Y0078500D03*
X0126263Y0083500D03*
X0134263Y0072500D03*
X0140263Y0071500D03*
X0153263Y0060500D03*
X0132263Y0055500D03*
X0131263Y0045500D03*
X0111263Y0058500D03*
X0088263Y0065500D03*
X0083263Y0071500D03*
X0068263Y0071500D03*
X0066263Y0062500D03*
X0064263Y0053500D03*
X0044263Y0060500D03*
X0048263Y0070500D03*
X0029263Y0101500D03*
X0130263Y0111500D03*
X0142420Y0117232D03*
X0162263Y0117232D03*
X0159263Y0091500D03*
X0159263Y0085500D03*
X0144263Y0086500D03*
X0160263Y0076000D03*
X0182263Y0069500D03*
X0196263Y0084500D03*
X0202263Y0086500D03*
X0244263Y0087500D03*
X0165263Y0047500D03*
D27*
X0227263Y0047500D01*
X0232263Y0052500D01*
X0232263Y0058500D01*
X0222263Y0058500D02*
X0215263Y0051500D01*
X0145263Y0051500D01*
X0138987Y0057776D01*
X0138987Y0063600D01*
X0145287Y0063600D02*
X0145287Y0085476D01*
X0144263Y0086500D01*
X0151163Y0088374D02*
X0156389Y0088374D01*
X0159263Y0085500D01*
X0159263Y0091500D02*
X0159239Y0091524D01*
X0151163Y0091524D01*
X0140263Y0082500D02*
X0140263Y0071500D01*
X0134263Y0072500D02*
X0134263Y0081500D01*
X0123263Y0092500D01*
X0123263Y0097376D01*
X0123239Y0097400D01*
X0123239Y0104177D01*
X0122263Y0105154D01*
X0126389Y0107374D02*
X0130263Y0111248D01*
X0130263Y0111500D01*
X0137263Y0110500D02*
X0129539Y0102776D01*
X0129539Y0097400D01*
X0126389Y0097400D02*
X0126389Y0107374D01*
X0132688Y0097400D02*
X0132688Y0090075D01*
X0140263Y0082500D01*
X0124763Y0078500D02*
X0121188Y0082075D01*
X0117363Y0082075D01*
X0117363Y0088374D02*
X0106735Y0088374D01*
X0105109Y0090000D01*
X0105109Y0088346D01*
X0101263Y0084500D01*
X0097873Y0077500D02*
X0093763Y0081610D01*
X0088763Y0081610D02*
X0088763Y0086000D01*
X0092763Y0090000D01*
X0098417Y0090000D01*
X0098417Y0092346D01*
X0088263Y0102500D01*
X0053917Y0102500D01*
X0050263Y0098846D01*
X0043917Y0092500D01*
X0043609Y0092500D01*
X0038763Y0090654D02*
X0036917Y0092500D01*
X0036917Y0099807D01*
X0037263Y0100154D01*
X0043263Y0111500D02*
X0050263Y0104500D01*
X0050263Y0098846D01*
X0050263Y0092154D02*
X0050263Y0083110D01*
X0048763Y0081610D01*
X0043763Y0081610D02*
X0043763Y0077000D01*
X0041263Y0074500D01*
X0036263Y0074500D01*
X0033763Y0077000D01*
X0033763Y0078654D01*
X0038763Y0081610D02*
X0038763Y0090654D01*
X0027763Y0090346D02*
X0027763Y0085346D01*
X0027763Y0090346D02*
X0026109Y0092000D01*
X0020763Y0090654D02*
X0019417Y0092000D01*
X0019417Y0098307D01*
X0022763Y0101654D01*
X0022763Y0108346D02*
X0010609Y0108346D01*
X0005263Y0103000D01*
X0005263Y0044000D01*
X0010763Y0038500D01*
X0019763Y0038500D01*
X0025763Y0044500D01*
X0025917Y0044500D01*
X0032609Y0044500D02*
X0032609Y0040154D01*
X0035263Y0037500D01*
X0045263Y0037500D01*
X0048763Y0041000D01*
X0048763Y0045390D01*
X0043763Y0045390D02*
X0043763Y0049000D01*
X0035109Y0057654D01*
X0032763Y0057654D01*
X0027763Y0057654D01*
X0020763Y0054000D02*
X0020763Y0090654D01*
X0019417Y0092000D02*
X0019263Y0091846D01*
X0022763Y0108346D02*
X0025917Y0111500D01*
X0043263Y0111500D01*
X0073263Y0089957D02*
X0073763Y0089457D01*
X0073763Y0081610D01*
X0083763Y0081610D02*
X0083763Y0078000D01*
X0092263Y0069500D01*
X0092263Y0060500D01*
X0101263Y0051500D01*
X0123263Y0051500D01*
X0126263Y0054500D01*
X0126263Y0063474D01*
X0126389Y0063600D01*
X0123239Y0063600D02*
X0123239Y0059476D01*
X0120417Y0056654D01*
X0117763Y0056654D01*
X0110646Y0062760D02*
X0117363Y0069476D01*
X0117237Y0072500D02*
X0113263Y0072500D01*
X0111003Y0070240D01*
X0104263Y0070240D01*
X0110263Y0073500D02*
X0112263Y0075500D01*
X0117087Y0075500D01*
X0117363Y0075776D01*
X0117363Y0072626D02*
X0117237Y0072500D01*
X0110263Y0073500D02*
X0092263Y0073500D01*
X0088763Y0077000D01*
X0088763Y0081610D01*
X0097873Y0077500D02*
X0102263Y0077500D01*
X0083763Y0071000D02*
X0083763Y0045390D01*
X0088763Y0045390D02*
X0088917Y0045236D01*
X0088917Y0032500D01*
X0095609Y0032500D02*
X0109263Y0032500D01*
X0132263Y0055500D01*
X0117763Y0063346D02*
X0117763Y0064000D01*
X0110646Y0062760D02*
X0104263Y0062760D01*
X0088263Y0065500D02*
X0088263Y0055500D01*
X0093763Y0050000D01*
X0093763Y0045390D01*
X0073763Y0045390D02*
X0073763Y0036043D01*
X0038763Y0045390D02*
X0033653Y0050500D01*
X0024263Y0050500D01*
X0020763Y0054000D01*
X0083263Y0071500D02*
X0083763Y0071000D01*
X0112401Y0096673D02*
X0117363Y0091711D01*
X0117363Y0091524D01*
X0112401Y0096673D02*
X0105783Y0096673D01*
X0105763Y0096654D01*
X0105763Y0103346D02*
X0101609Y0107500D01*
X0084263Y0107500D01*
X0151163Y0069476D02*
X0155139Y0065500D01*
X0195263Y0065500D01*
X0222263Y0092500D01*
X0223263Y0092500D01*
X0219263Y0097500D02*
X0210917Y0105846D01*
X0210917Y0111000D01*
X0217609Y0111000D02*
X0224810Y0111000D01*
X0233263Y0102500D02*
X0239263Y0096500D01*
X0239263Y0070500D01*
X0237263Y0068500D01*
X0223263Y0080500D02*
X0223263Y0082500D01*
X0223263Y0080500D02*
X0203263Y0060500D01*
X0153263Y0060500D01*
X0160263Y0076000D02*
X0166109Y0076000D01*
X0166263Y0076154D01*
X0172763Y0076154D01*
X0179263Y0076154D01*
X0185263Y0076154D01*
X0197917Y0076154D01*
X0219263Y0097500D01*
X0196263Y0090654D02*
X0196263Y0084500D01*
X0196263Y0090654D02*
X0189763Y0090654D01*
D28*
X0219263Y0097500D02*
X0228263Y0097500D01*
X0233263Y0102500D01*
X0233263Y0092500D02*
X0228263Y0087500D01*
X0228263Y0078500D01*
X0206263Y0056500D01*
X0145263Y0056500D01*
X0142137Y0059626D01*
X0142137Y0063600D01*
X0129263Y0072500D02*
X0129263Y0080500D01*
X0126263Y0083500D01*
X0124763Y0078500D02*
X0122039Y0075776D01*
X0122263Y0075551D01*
X0122263Y0068500D01*
X0117763Y0064000D01*
X0123239Y0063600D02*
X0123239Y0066476D01*
X0129263Y0072500D01*
X0122039Y0075776D02*
X0117363Y0075776D01*
M02*
