G75*
%MOIN*%
%OFA0B0*%
%FSLAX25Y25*%
%IPPOS*%
%LPD*%
%AMOC8*
5,1,8,0,0,1.08239X$1,22.5*
%
%ADD10C,0.00000*%
%ADD11C,0.00300*%
%ADD12C,0.02000*%
D10*
X0012263Y0025500D02*
X0262263Y0025500D01*
X0255964Y0033500D02*
X0255966Y0033658D01*
X0255972Y0033816D01*
X0255982Y0033974D01*
X0255996Y0034132D01*
X0256014Y0034289D01*
X0256035Y0034446D01*
X0256061Y0034602D01*
X0256091Y0034758D01*
X0256124Y0034913D01*
X0256162Y0035066D01*
X0256203Y0035219D01*
X0256248Y0035371D01*
X0256297Y0035522D01*
X0256350Y0035671D01*
X0256406Y0035819D01*
X0256466Y0035965D01*
X0256530Y0036110D01*
X0256598Y0036253D01*
X0256669Y0036395D01*
X0256743Y0036535D01*
X0256821Y0036672D01*
X0256903Y0036808D01*
X0256987Y0036942D01*
X0257076Y0037073D01*
X0257167Y0037202D01*
X0257262Y0037329D01*
X0257359Y0037454D01*
X0257460Y0037576D01*
X0257564Y0037695D01*
X0257671Y0037812D01*
X0257781Y0037926D01*
X0257894Y0038037D01*
X0258009Y0038146D01*
X0258127Y0038251D01*
X0258248Y0038353D01*
X0258371Y0038453D01*
X0258497Y0038549D01*
X0258625Y0038642D01*
X0258755Y0038732D01*
X0258888Y0038818D01*
X0259023Y0038902D01*
X0259159Y0038981D01*
X0259298Y0039058D01*
X0259439Y0039130D01*
X0259581Y0039200D01*
X0259725Y0039265D01*
X0259871Y0039327D01*
X0260018Y0039385D01*
X0260167Y0039440D01*
X0260317Y0039491D01*
X0260468Y0039538D01*
X0260620Y0039581D01*
X0260773Y0039620D01*
X0260928Y0039656D01*
X0261083Y0039687D01*
X0261239Y0039715D01*
X0261395Y0039739D01*
X0261552Y0039759D01*
X0261710Y0039775D01*
X0261867Y0039787D01*
X0262026Y0039795D01*
X0262184Y0039799D01*
X0262342Y0039799D01*
X0262500Y0039795D01*
X0262659Y0039787D01*
X0262816Y0039775D01*
X0262974Y0039759D01*
X0263131Y0039739D01*
X0263287Y0039715D01*
X0263443Y0039687D01*
X0263598Y0039656D01*
X0263753Y0039620D01*
X0263906Y0039581D01*
X0264058Y0039538D01*
X0264209Y0039491D01*
X0264359Y0039440D01*
X0264508Y0039385D01*
X0264655Y0039327D01*
X0264801Y0039265D01*
X0264945Y0039200D01*
X0265087Y0039130D01*
X0265228Y0039058D01*
X0265367Y0038981D01*
X0265503Y0038902D01*
X0265638Y0038818D01*
X0265771Y0038732D01*
X0265901Y0038642D01*
X0266029Y0038549D01*
X0266155Y0038453D01*
X0266278Y0038353D01*
X0266399Y0038251D01*
X0266517Y0038146D01*
X0266632Y0038037D01*
X0266745Y0037926D01*
X0266855Y0037812D01*
X0266962Y0037695D01*
X0267066Y0037576D01*
X0267167Y0037454D01*
X0267264Y0037329D01*
X0267359Y0037202D01*
X0267450Y0037073D01*
X0267539Y0036942D01*
X0267623Y0036808D01*
X0267705Y0036672D01*
X0267783Y0036535D01*
X0267857Y0036395D01*
X0267928Y0036253D01*
X0267996Y0036110D01*
X0268060Y0035965D01*
X0268120Y0035819D01*
X0268176Y0035671D01*
X0268229Y0035522D01*
X0268278Y0035371D01*
X0268323Y0035219D01*
X0268364Y0035066D01*
X0268402Y0034913D01*
X0268435Y0034758D01*
X0268465Y0034602D01*
X0268491Y0034446D01*
X0268512Y0034289D01*
X0268530Y0034132D01*
X0268544Y0033974D01*
X0268554Y0033816D01*
X0268560Y0033658D01*
X0268562Y0033500D01*
X0268560Y0033342D01*
X0268554Y0033184D01*
X0268544Y0033026D01*
X0268530Y0032868D01*
X0268512Y0032711D01*
X0268491Y0032554D01*
X0268465Y0032398D01*
X0268435Y0032242D01*
X0268402Y0032087D01*
X0268364Y0031934D01*
X0268323Y0031781D01*
X0268278Y0031629D01*
X0268229Y0031478D01*
X0268176Y0031329D01*
X0268120Y0031181D01*
X0268060Y0031035D01*
X0267996Y0030890D01*
X0267928Y0030747D01*
X0267857Y0030605D01*
X0267783Y0030465D01*
X0267705Y0030328D01*
X0267623Y0030192D01*
X0267539Y0030058D01*
X0267450Y0029927D01*
X0267359Y0029798D01*
X0267264Y0029671D01*
X0267167Y0029546D01*
X0267066Y0029424D01*
X0266962Y0029305D01*
X0266855Y0029188D01*
X0266745Y0029074D01*
X0266632Y0028963D01*
X0266517Y0028854D01*
X0266399Y0028749D01*
X0266278Y0028647D01*
X0266155Y0028547D01*
X0266029Y0028451D01*
X0265901Y0028358D01*
X0265771Y0028268D01*
X0265638Y0028182D01*
X0265503Y0028098D01*
X0265367Y0028019D01*
X0265228Y0027942D01*
X0265087Y0027870D01*
X0264945Y0027800D01*
X0264801Y0027735D01*
X0264655Y0027673D01*
X0264508Y0027615D01*
X0264359Y0027560D01*
X0264209Y0027509D01*
X0264058Y0027462D01*
X0263906Y0027419D01*
X0263753Y0027380D01*
X0263598Y0027344D01*
X0263443Y0027313D01*
X0263287Y0027285D01*
X0263131Y0027261D01*
X0262974Y0027241D01*
X0262816Y0027225D01*
X0262659Y0027213D01*
X0262500Y0027205D01*
X0262342Y0027201D01*
X0262184Y0027201D01*
X0262026Y0027205D01*
X0261867Y0027213D01*
X0261710Y0027225D01*
X0261552Y0027241D01*
X0261395Y0027261D01*
X0261239Y0027285D01*
X0261083Y0027313D01*
X0260928Y0027344D01*
X0260773Y0027380D01*
X0260620Y0027419D01*
X0260468Y0027462D01*
X0260317Y0027509D01*
X0260167Y0027560D01*
X0260018Y0027615D01*
X0259871Y0027673D01*
X0259725Y0027735D01*
X0259581Y0027800D01*
X0259439Y0027870D01*
X0259298Y0027942D01*
X0259159Y0028019D01*
X0259023Y0028098D01*
X0258888Y0028182D01*
X0258755Y0028268D01*
X0258625Y0028358D01*
X0258497Y0028451D01*
X0258371Y0028547D01*
X0258248Y0028647D01*
X0258127Y0028749D01*
X0258009Y0028854D01*
X0257894Y0028963D01*
X0257781Y0029074D01*
X0257671Y0029188D01*
X0257564Y0029305D01*
X0257460Y0029424D01*
X0257359Y0029546D01*
X0257262Y0029671D01*
X0257167Y0029798D01*
X0257076Y0029927D01*
X0256987Y0030058D01*
X0256903Y0030192D01*
X0256821Y0030328D01*
X0256743Y0030465D01*
X0256669Y0030605D01*
X0256598Y0030747D01*
X0256530Y0030890D01*
X0256466Y0031035D01*
X0256406Y0031181D01*
X0256350Y0031329D01*
X0256297Y0031478D01*
X0256248Y0031629D01*
X0256203Y0031781D01*
X0256162Y0031934D01*
X0256124Y0032087D01*
X0256091Y0032242D01*
X0256061Y0032398D01*
X0256035Y0032554D01*
X0256014Y0032711D01*
X0255996Y0032868D01*
X0255982Y0033026D01*
X0255972Y0033184D01*
X0255966Y0033342D01*
X0255964Y0033500D01*
X0262263Y0025500D02*
X0262505Y0025503D01*
X0262746Y0025512D01*
X0262987Y0025526D01*
X0263228Y0025547D01*
X0263468Y0025573D01*
X0263708Y0025605D01*
X0263947Y0025643D01*
X0264184Y0025686D01*
X0264421Y0025736D01*
X0264656Y0025791D01*
X0264890Y0025851D01*
X0265122Y0025918D01*
X0265353Y0025989D01*
X0265582Y0026067D01*
X0265809Y0026150D01*
X0266034Y0026238D01*
X0266257Y0026332D01*
X0266477Y0026431D01*
X0266695Y0026536D01*
X0266910Y0026645D01*
X0267123Y0026760D01*
X0267333Y0026880D01*
X0267539Y0027005D01*
X0267743Y0027135D01*
X0267944Y0027270D01*
X0268141Y0027410D01*
X0268335Y0027554D01*
X0268525Y0027703D01*
X0268711Y0027857D01*
X0268894Y0028015D01*
X0269073Y0028177D01*
X0269248Y0028344D01*
X0269419Y0028515D01*
X0269586Y0028690D01*
X0269748Y0028869D01*
X0269906Y0029052D01*
X0270060Y0029238D01*
X0270209Y0029428D01*
X0270353Y0029622D01*
X0270493Y0029819D01*
X0270628Y0030020D01*
X0270758Y0030224D01*
X0270883Y0030430D01*
X0271003Y0030640D01*
X0271118Y0030853D01*
X0271227Y0031068D01*
X0271332Y0031286D01*
X0271431Y0031506D01*
X0271525Y0031729D01*
X0271613Y0031954D01*
X0271696Y0032181D01*
X0271774Y0032410D01*
X0271845Y0032641D01*
X0271912Y0032873D01*
X0271972Y0033107D01*
X0272027Y0033342D01*
X0272077Y0033579D01*
X0272120Y0033816D01*
X0272158Y0034055D01*
X0272190Y0034295D01*
X0272216Y0034535D01*
X0272237Y0034776D01*
X0272251Y0035017D01*
X0272260Y0035258D01*
X0272263Y0035500D01*
X0272263Y0105500D01*
X0272260Y0105742D01*
X0272251Y0105983D01*
X0272237Y0106224D01*
X0272216Y0106465D01*
X0272190Y0106705D01*
X0272158Y0106945D01*
X0272120Y0107184D01*
X0272077Y0107421D01*
X0272027Y0107658D01*
X0271972Y0107893D01*
X0271912Y0108127D01*
X0271845Y0108359D01*
X0271774Y0108590D01*
X0271696Y0108819D01*
X0271613Y0109046D01*
X0271525Y0109271D01*
X0271431Y0109494D01*
X0271332Y0109714D01*
X0271227Y0109932D01*
X0271118Y0110147D01*
X0271003Y0110360D01*
X0270883Y0110570D01*
X0270758Y0110776D01*
X0270628Y0110980D01*
X0270493Y0111181D01*
X0270353Y0111378D01*
X0270209Y0111572D01*
X0270060Y0111762D01*
X0269906Y0111948D01*
X0269748Y0112131D01*
X0269586Y0112310D01*
X0269419Y0112485D01*
X0269248Y0112656D01*
X0269073Y0112823D01*
X0268894Y0112985D01*
X0268711Y0113143D01*
X0268525Y0113297D01*
X0268335Y0113446D01*
X0268141Y0113590D01*
X0267944Y0113730D01*
X0267743Y0113865D01*
X0267539Y0113995D01*
X0267333Y0114120D01*
X0267123Y0114240D01*
X0266910Y0114355D01*
X0266695Y0114464D01*
X0266477Y0114569D01*
X0266257Y0114668D01*
X0266034Y0114762D01*
X0265809Y0114850D01*
X0265582Y0114933D01*
X0265353Y0115011D01*
X0265122Y0115082D01*
X0264890Y0115149D01*
X0264656Y0115209D01*
X0264421Y0115264D01*
X0264184Y0115314D01*
X0263947Y0115357D01*
X0263708Y0115395D01*
X0263468Y0115427D01*
X0263228Y0115453D01*
X0262987Y0115474D01*
X0262746Y0115488D01*
X0262505Y0115497D01*
X0262263Y0115500D01*
X0222322Y0115500D01*
X0221960Y0115504D01*
X0221597Y0115518D01*
X0221235Y0115539D01*
X0220874Y0115570D01*
X0220514Y0115609D01*
X0220155Y0115657D01*
X0219797Y0115714D01*
X0219440Y0115779D01*
X0219085Y0115853D01*
X0218732Y0115936D01*
X0218381Y0116027D01*
X0218033Y0116126D01*
X0217687Y0116234D01*
X0217343Y0116350D01*
X0217003Y0116475D01*
X0216666Y0116607D01*
X0216332Y0116748D01*
X0216001Y0116897D01*
X0215674Y0117054D01*
X0215351Y0117218D01*
X0215032Y0117390D01*
X0214718Y0117570D01*
X0214407Y0117758D01*
X0214102Y0117953D01*
X0213801Y0118155D01*
X0213505Y0118365D01*
X0213215Y0118581D01*
X0212929Y0118805D01*
X0212649Y0119035D01*
X0212375Y0119272D01*
X0212107Y0119516D01*
X0211844Y0119766D01*
X0211588Y0120022D01*
X0211338Y0120285D01*
X0211094Y0120553D01*
X0210857Y0120827D01*
X0210627Y0121107D01*
X0210403Y0121393D01*
X0210187Y0121683D01*
X0209977Y0121979D01*
X0209775Y0122280D01*
X0209580Y0122585D01*
X0209392Y0122896D01*
X0209212Y0123210D01*
X0209040Y0123529D01*
X0208876Y0123852D01*
X0208719Y0124179D01*
X0208570Y0124510D01*
X0208429Y0124844D01*
X0208297Y0125181D01*
X0208172Y0125521D01*
X0208056Y0125865D01*
X0207948Y0126211D01*
X0207849Y0126559D01*
X0207758Y0126910D01*
X0207675Y0127263D01*
X0207601Y0127618D01*
X0207536Y0127975D01*
X0207479Y0128333D01*
X0207431Y0128692D01*
X0207392Y0129052D01*
X0207361Y0129413D01*
X0207340Y0129775D01*
X0207326Y0130138D01*
X0207322Y0130500D01*
X0207318Y0130862D01*
X0207304Y0131225D01*
X0207283Y0131587D01*
X0207252Y0131948D01*
X0207213Y0132308D01*
X0207165Y0132667D01*
X0207108Y0133025D01*
X0207043Y0133382D01*
X0206969Y0133737D01*
X0206886Y0134090D01*
X0206795Y0134441D01*
X0206696Y0134789D01*
X0206588Y0135135D01*
X0206472Y0135479D01*
X0206347Y0135819D01*
X0206215Y0136156D01*
X0206074Y0136490D01*
X0205925Y0136821D01*
X0205768Y0137148D01*
X0205604Y0137471D01*
X0205432Y0137790D01*
X0205252Y0138104D01*
X0205064Y0138415D01*
X0204869Y0138720D01*
X0204667Y0139021D01*
X0204457Y0139317D01*
X0204241Y0139607D01*
X0204017Y0139893D01*
X0203787Y0140173D01*
X0203550Y0140447D01*
X0203306Y0140715D01*
X0203056Y0140978D01*
X0202800Y0141234D01*
X0202537Y0141484D01*
X0202269Y0141728D01*
X0201995Y0141965D01*
X0201715Y0142195D01*
X0201429Y0142419D01*
X0201139Y0142635D01*
X0200843Y0142845D01*
X0200542Y0143047D01*
X0200237Y0143242D01*
X0199926Y0143430D01*
X0199612Y0143610D01*
X0199293Y0143782D01*
X0198970Y0143946D01*
X0198643Y0144103D01*
X0198312Y0144252D01*
X0197978Y0144393D01*
X0197641Y0144525D01*
X0197301Y0144650D01*
X0196957Y0144766D01*
X0196611Y0144874D01*
X0196263Y0144973D01*
X0195912Y0145064D01*
X0195559Y0145147D01*
X0195204Y0145221D01*
X0194847Y0145286D01*
X0194489Y0145343D01*
X0194130Y0145391D01*
X0193770Y0145430D01*
X0193409Y0145461D01*
X0193047Y0145482D01*
X0192684Y0145496D01*
X0192322Y0145500D01*
X0137322Y0145500D01*
X0128956Y0131500D02*
X0128959Y0131705D01*
X0128966Y0131911D01*
X0128979Y0132115D01*
X0128996Y0132320D01*
X0129019Y0132524D01*
X0129047Y0132728D01*
X0129079Y0132930D01*
X0129117Y0133132D01*
X0129159Y0133333D01*
X0129207Y0133533D01*
X0129259Y0133731D01*
X0129316Y0133929D01*
X0129378Y0134124D01*
X0129445Y0134318D01*
X0129517Y0134511D01*
X0129593Y0134702D01*
X0129674Y0134890D01*
X0129759Y0135077D01*
X0129849Y0135261D01*
X0129944Y0135444D01*
X0130043Y0135624D01*
X0130146Y0135801D01*
X0130254Y0135976D01*
X0130366Y0136148D01*
X0130482Y0136317D01*
X0130602Y0136484D01*
X0130727Y0136647D01*
X0130855Y0136807D01*
X0130987Y0136964D01*
X0131123Y0137118D01*
X0131263Y0137269D01*
X0131406Y0137416D01*
X0131553Y0137559D01*
X0131704Y0137699D01*
X0131858Y0137835D01*
X0132015Y0137967D01*
X0132175Y0138095D01*
X0132338Y0138220D01*
X0132505Y0138340D01*
X0132674Y0138456D01*
X0132846Y0138568D01*
X0133021Y0138676D01*
X0133198Y0138779D01*
X0133378Y0138878D01*
X0133561Y0138973D01*
X0133745Y0139063D01*
X0133932Y0139148D01*
X0134120Y0139229D01*
X0134311Y0139305D01*
X0134504Y0139377D01*
X0134698Y0139444D01*
X0134893Y0139506D01*
X0135091Y0139563D01*
X0135289Y0139615D01*
X0135489Y0139663D01*
X0135690Y0139705D01*
X0135892Y0139743D01*
X0136094Y0139775D01*
X0136298Y0139803D01*
X0136502Y0139826D01*
X0136707Y0139843D01*
X0136911Y0139856D01*
X0137117Y0139863D01*
X0137322Y0139866D01*
X0137527Y0139863D01*
X0137733Y0139856D01*
X0137937Y0139843D01*
X0138142Y0139826D01*
X0138346Y0139803D01*
X0138550Y0139775D01*
X0138752Y0139743D01*
X0138954Y0139705D01*
X0139155Y0139663D01*
X0139355Y0139615D01*
X0139553Y0139563D01*
X0139751Y0139506D01*
X0139946Y0139444D01*
X0140140Y0139377D01*
X0140333Y0139305D01*
X0140524Y0139229D01*
X0140712Y0139148D01*
X0140899Y0139063D01*
X0141083Y0138973D01*
X0141266Y0138878D01*
X0141446Y0138779D01*
X0141623Y0138676D01*
X0141798Y0138568D01*
X0141970Y0138456D01*
X0142139Y0138340D01*
X0142306Y0138220D01*
X0142469Y0138095D01*
X0142629Y0137967D01*
X0142786Y0137835D01*
X0142940Y0137699D01*
X0143091Y0137559D01*
X0143238Y0137416D01*
X0143381Y0137269D01*
X0143521Y0137118D01*
X0143657Y0136964D01*
X0143789Y0136807D01*
X0143917Y0136647D01*
X0144042Y0136484D01*
X0144162Y0136317D01*
X0144278Y0136148D01*
X0144390Y0135976D01*
X0144498Y0135801D01*
X0144601Y0135624D01*
X0144700Y0135444D01*
X0144795Y0135261D01*
X0144885Y0135077D01*
X0144970Y0134890D01*
X0145051Y0134702D01*
X0145127Y0134511D01*
X0145199Y0134318D01*
X0145266Y0134124D01*
X0145328Y0133929D01*
X0145385Y0133731D01*
X0145437Y0133533D01*
X0145485Y0133333D01*
X0145527Y0133132D01*
X0145565Y0132930D01*
X0145597Y0132728D01*
X0145625Y0132524D01*
X0145648Y0132320D01*
X0145665Y0132115D01*
X0145678Y0131911D01*
X0145685Y0131705D01*
X0145688Y0131500D01*
X0145685Y0131295D01*
X0145678Y0131089D01*
X0145665Y0130885D01*
X0145648Y0130680D01*
X0145625Y0130476D01*
X0145597Y0130272D01*
X0145565Y0130070D01*
X0145527Y0129868D01*
X0145485Y0129667D01*
X0145437Y0129467D01*
X0145385Y0129269D01*
X0145328Y0129071D01*
X0145266Y0128876D01*
X0145199Y0128682D01*
X0145127Y0128489D01*
X0145051Y0128298D01*
X0144970Y0128110D01*
X0144885Y0127923D01*
X0144795Y0127739D01*
X0144700Y0127556D01*
X0144601Y0127376D01*
X0144498Y0127199D01*
X0144390Y0127024D01*
X0144278Y0126852D01*
X0144162Y0126683D01*
X0144042Y0126516D01*
X0143917Y0126353D01*
X0143789Y0126193D01*
X0143657Y0126036D01*
X0143521Y0125882D01*
X0143381Y0125731D01*
X0143238Y0125584D01*
X0143091Y0125441D01*
X0142940Y0125301D01*
X0142786Y0125165D01*
X0142629Y0125033D01*
X0142469Y0124905D01*
X0142306Y0124780D01*
X0142139Y0124660D01*
X0141970Y0124544D01*
X0141798Y0124432D01*
X0141623Y0124324D01*
X0141446Y0124221D01*
X0141266Y0124122D01*
X0141083Y0124027D01*
X0140899Y0123937D01*
X0140712Y0123852D01*
X0140524Y0123771D01*
X0140333Y0123695D01*
X0140140Y0123623D01*
X0139946Y0123556D01*
X0139751Y0123494D01*
X0139553Y0123437D01*
X0139355Y0123385D01*
X0139155Y0123337D01*
X0138954Y0123295D01*
X0138752Y0123257D01*
X0138550Y0123225D01*
X0138346Y0123197D01*
X0138142Y0123174D01*
X0137937Y0123157D01*
X0137733Y0123144D01*
X0137527Y0123137D01*
X0137322Y0123134D01*
X0137117Y0123137D01*
X0136911Y0123144D01*
X0136707Y0123157D01*
X0136502Y0123174D01*
X0136298Y0123197D01*
X0136094Y0123225D01*
X0135892Y0123257D01*
X0135690Y0123295D01*
X0135489Y0123337D01*
X0135289Y0123385D01*
X0135091Y0123437D01*
X0134893Y0123494D01*
X0134698Y0123556D01*
X0134504Y0123623D01*
X0134311Y0123695D01*
X0134120Y0123771D01*
X0133932Y0123852D01*
X0133745Y0123937D01*
X0133561Y0124027D01*
X0133378Y0124122D01*
X0133198Y0124221D01*
X0133021Y0124324D01*
X0132846Y0124432D01*
X0132674Y0124544D01*
X0132505Y0124660D01*
X0132338Y0124780D01*
X0132175Y0124905D01*
X0132015Y0125033D01*
X0131858Y0125165D01*
X0131704Y0125301D01*
X0131553Y0125441D01*
X0131406Y0125584D01*
X0131263Y0125731D01*
X0131123Y0125882D01*
X0130987Y0126036D01*
X0130855Y0126193D01*
X0130727Y0126353D01*
X0130602Y0126516D01*
X0130482Y0126683D01*
X0130366Y0126852D01*
X0130254Y0127024D01*
X0130146Y0127199D01*
X0130043Y0127376D01*
X0129944Y0127556D01*
X0129849Y0127739D01*
X0129759Y0127923D01*
X0129674Y0128110D01*
X0129593Y0128298D01*
X0129517Y0128489D01*
X0129445Y0128682D01*
X0129378Y0128876D01*
X0129316Y0129071D01*
X0129259Y0129269D01*
X0129207Y0129467D01*
X0129159Y0129667D01*
X0129117Y0129868D01*
X0129079Y0130070D01*
X0129047Y0130272D01*
X0129019Y0130476D01*
X0128996Y0130680D01*
X0128979Y0130885D01*
X0128966Y0131089D01*
X0128959Y0131295D01*
X0128956Y0131500D01*
X0122322Y0130500D02*
X0122326Y0130862D01*
X0122340Y0131225D01*
X0122361Y0131587D01*
X0122392Y0131948D01*
X0122431Y0132308D01*
X0122479Y0132667D01*
X0122536Y0133025D01*
X0122601Y0133382D01*
X0122675Y0133737D01*
X0122758Y0134090D01*
X0122849Y0134441D01*
X0122948Y0134789D01*
X0123056Y0135135D01*
X0123172Y0135479D01*
X0123297Y0135819D01*
X0123429Y0136156D01*
X0123570Y0136490D01*
X0123719Y0136821D01*
X0123876Y0137148D01*
X0124040Y0137471D01*
X0124212Y0137790D01*
X0124392Y0138104D01*
X0124580Y0138415D01*
X0124775Y0138720D01*
X0124977Y0139021D01*
X0125187Y0139317D01*
X0125403Y0139607D01*
X0125627Y0139893D01*
X0125857Y0140173D01*
X0126094Y0140447D01*
X0126338Y0140715D01*
X0126588Y0140978D01*
X0126844Y0141234D01*
X0127107Y0141484D01*
X0127375Y0141728D01*
X0127649Y0141965D01*
X0127929Y0142195D01*
X0128215Y0142419D01*
X0128505Y0142635D01*
X0128801Y0142845D01*
X0129102Y0143047D01*
X0129407Y0143242D01*
X0129718Y0143430D01*
X0130032Y0143610D01*
X0130351Y0143782D01*
X0130674Y0143946D01*
X0131001Y0144103D01*
X0131332Y0144252D01*
X0131666Y0144393D01*
X0132003Y0144525D01*
X0132343Y0144650D01*
X0132687Y0144766D01*
X0133033Y0144874D01*
X0133381Y0144973D01*
X0133732Y0145064D01*
X0134085Y0145147D01*
X0134440Y0145221D01*
X0134797Y0145286D01*
X0135155Y0145343D01*
X0135514Y0145391D01*
X0135874Y0145430D01*
X0136235Y0145461D01*
X0136597Y0145482D01*
X0136960Y0145496D01*
X0137322Y0145500D01*
X0122322Y0130500D02*
X0122318Y0130138D01*
X0122304Y0129775D01*
X0122283Y0129413D01*
X0122252Y0129052D01*
X0122213Y0128692D01*
X0122165Y0128333D01*
X0122108Y0127975D01*
X0122043Y0127618D01*
X0121969Y0127263D01*
X0121886Y0126910D01*
X0121795Y0126559D01*
X0121696Y0126211D01*
X0121588Y0125865D01*
X0121472Y0125521D01*
X0121347Y0125181D01*
X0121215Y0124844D01*
X0121074Y0124510D01*
X0120925Y0124179D01*
X0120768Y0123852D01*
X0120604Y0123529D01*
X0120432Y0123210D01*
X0120252Y0122896D01*
X0120064Y0122585D01*
X0119869Y0122280D01*
X0119667Y0121979D01*
X0119457Y0121683D01*
X0119241Y0121393D01*
X0119017Y0121107D01*
X0118787Y0120827D01*
X0118550Y0120553D01*
X0118306Y0120285D01*
X0118056Y0120022D01*
X0117800Y0119766D01*
X0117537Y0119516D01*
X0117269Y0119272D01*
X0116995Y0119035D01*
X0116715Y0118805D01*
X0116429Y0118581D01*
X0116139Y0118365D01*
X0115843Y0118155D01*
X0115542Y0117953D01*
X0115237Y0117758D01*
X0114926Y0117570D01*
X0114612Y0117390D01*
X0114293Y0117218D01*
X0113970Y0117054D01*
X0113643Y0116897D01*
X0113312Y0116748D01*
X0112978Y0116607D01*
X0112641Y0116475D01*
X0112301Y0116350D01*
X0111957Y0116234D01*
X0111611Y0116126D01*
X0111263Y0116027D01*
X0110912Y0115936D01*
X0110559Y0115853D01*
X0110204Y0115779D01*
X0109847Y0115714D01*
X0109489Y0115657D01*
X0109130Y0115609D01*
X0108770Y0115570D01*
X0108409Y0115539D01*
X0108047Y0115518D01*
X0107684Y0115504D01*
X0107322Y0115500D01*
X0032334Y0115500D01*
X0032263Y0115500D02*
X0012263Y0115500D01*
X0012021Y0115497D01*
X0011780Y0115488D01*
X0011539Y0115474D01*
X0011298Y0115453D01*
X0011058Y0115427D01*
X0010818Y0115395D01*
X0010579Y0115357D01*
X0010342Y0115314D01*
X0010105Y0115264D01*
X0009870Y0115209D01*
X0009636Y0115149D01*
X0009404Y0115082D01*
X0009173Y0115011D01*
X0008944Y0114933D01*
X0008717Y0114850D01*
X0008492Y0114762D01*
X0008269Y0114668D01*
X0008049Y0114569D01*
X0007831Y0114464D01*
X0007616Y0114355D01*
X0007403Y0114240D01*
X0007193Y0114120D01*
X0006987Y0113995D01*
X0006783Y0113865D01*
X0006582Y0113730D01*
X0006385Y0113590D01*
X0006191Y0113446D01*
X0006001Y0113297D01*
X0005815Y0113143D01*
X0005632Y0112985D01*
X0005453Y0112823D01*
X0005278Y0112656D01*
X0005107Y0112485D01*
X0004940Y0112310D01*
X0004778Y0112131D01*
X0004620Y0111948D01*
X0004466Y0111762D01*
X0004317Y0111572D01*
X0004173Y0111378D01*
X0004033Y0111181D01*
X0003898Y0110980D01*
X0003768Y0110776D01*
X0003643Y0110570D01*
X0003523Y0110360D01*
X0003408Y0110147D01*
X0003299Y0109932D01*
X0003194Y0109714D01*
X0003095Y0109494D01*
X0003001Y0109271D01*
X0002913Y0109046D01*
X0002830Y0108819D01*
X0002752Y0108590D01*
X0002681Y0108359D01*
X0002614Y0108127D01*
X0002554Y0107893D01*
X0002499Y0107658D01*
X0002449Y0107421D01*
X0002406Y0107184D01*
X0002368Y0106945D01*
X0002336Y0106705D01*
X0002310Y0106465D01*
X0002289Y0106224D01*
X0002275Y0105983D01*
X0002266Y0105742D01*
X0002263Y0105500D01*
X0002263Y0035500D01*
X0002266Y0035258D01*
X0002275Y0035017D01*
X0002289Y0034776D01*
X0002310Y0034535D01*
X0002336Y0034295D01*
X0002368Y0034055D01*
X0002406Y0033816D01*
X0002449Y0033579D01*
X0002499Y0033342D01*
X0002554Y0033107D01*
X0002614Y0032873D01*
X0002681Y0032641D01*
X0002752Y0032410D01*
X0002830Y0032181D01*
X0002913Y0031954D01*
X0003001Y0031729D01*
X0003095Y0031506D01*
X0003194Y0031286D01*
X0003299Y0031068D01*
X0003408Y0030853D01*
X0003523Y0030640D01*
X0003643Y0030430D01*
X0003768Y0030224D01*
X0003898Y0030020D01*
X0004033Y0029819D01*
X0004173Y0029622D01*
X0004317Y0029428D01*
X0004466Y0029238D01*
X0004620Y0029052D01*
X0004778Y0028869D01*
X0004940Y0028690D01*
X0005107Y0028515D01*
X0005278Y0028344D01*
X0005453Y0028177D01*
X0005632Y0028015D01*
X0005815Y0027857D01*
X0006001Y0027703D01*
X0006191Y0027554D01*
X0006385Y0027410D01*
X0006582Y0027270D01*
X0006783Y0027135D01*
X0006987Y0027005D01*
X0007193Y0026880D01*
X0007403Y0026760D01*
X0007616Y0026645D01*
X0007831Y0026536D01*
X0008049Y0026431D01*
X0008269Y0026332D01*
X0008492Y0026238D01*
X0008717Y0026150D01*
X0008944Y0026067D01*
X0009173Y0025989D01*
X0009404Y0025918D01*
X0009636Y0025851D01*
X0009870Y0025791D01*
X0010105Y0025736D01*
X0010342Y0025686D01*
X0010579Y0025643D01*
X0010818Y0025605D01*
X0011058Y0025573D01*
X0011298Y0025547D01*
X0011539Y0025526D01*
X0011780Y0025512D01*
X0012021Y0025503D01*
X0012263Y0025500D01*
X0183956Y0131500D02*
X0183959Y0131705D01*
X0183966Y0131911D01*
X0183979Y0132115D01*
X0183996Y0132320D01*
X0184019Y0132524D01*
X0184047Y0132728D01*
X0184079Y0132930D01*
X0184117Y0133132D01*
X0184159Y0133333D01*
X0184207Y0133533D01*
X0184259Y0133731D01*
X0184316Y0133929D01*
X0184378Y0134124D01*
X0184445Y0134318D01*
X0184517Y0134511D01*
X0184593Y0134702D01*
X0184674Y0134890D01*
X0184759Y0135077D01*
X0184849Y0135261D01*
X0184944Y0135444D01*
X0185043Y0135624D01*
X0185146Y0135801D01*
X0185254Y0135976D01*
X0185366Y0136148D01*
X0185482Y0136317D01*
X0185602Y0136484D01*
X0185727Y0136647D01*
X0185855Y0136807D01*
X0185987Y0136964D01*
X0186123Y0137118D01*
X0186263Y0137269D01*
X0186406Y0137416D01*
X0186553Y0137559D01*
X0186704Y0137699D01*
X0186858Y0137835D01*
X0187015Y0137967D01*
X0187175Y0138095D01*
X0187338Y0138220D01*
X0187505Y0138340D01*
X0187674Y0138456D01*
X0187846Y0138568D01*
X0188021Y0138676D01*
X0188198Y0138779D01*
X0188378Y0138878D01*
X0188561Y0138973D01*
X0188745Y0139063D01*
X0188932Y0139148D01*
X0189120Y0139229D01*
X0189311Y0139305D01*
X0189504Y0139377D01*
X0189698Y0139444D01*
X0189893Y0139506D01*
X0190091Y0139563D01*
X0190289Y0139615D01*
X0190489Y0139663D01*
X0190690Y0139705D01*
X0190892Y0139743D01*
X0191094Y0139775D01*
X0191298Y0139803D01*
X0191502Y0139826D01*
X0191707Y0139843D01*
X0191911Y0139856D01*
X0192117Y0139863D01*
X0192322Y0139866D01*
X0192527Y0139863D01*
X0192733Y0139856D01*
X0192937Y0139843D01*
X0193142Y0139826D01*
X0193346Y0139803D01*
X0193550Y0139775D01*
X0193752Y0139743D01*
X0193954Y0139705D01*
X0194155Y0139663D01*
X0194355Y0139615D01*
X0194553Y0139563D01*
X0194751Y0139506D01*
X0194946Y0139444D01*
X0195140Y0139377D01*
X0195333Y0139305D01*
X0195524Y0139229D01*
X0195712Y0139148D01*
X0195899Y0139063D01*
X0196083Y0138973D01*
X0196266Y0138878D01*
X0196446Y0138779D01*
X0196623Y0138676D01*
X0196798Y0138568D01*
X0196970Y0138456D01*
X0197139Y0138340D01*
X0197306Y0138220D01*
X0197469Y0138095D01*
X0197629Y0137967D01*
X0197786Y0137835D01*
X0197940Y0137699D01*
X0198091Y0137559D01*
X0198238Y0137416D01*
X0198381Y0137269D01*
X0198521Y0137118D01*
X0198657Y0136964D01*
X0198789Y0136807D01*
X0198917Y0136647D01*
X0199042Y0136484D01*
X0199162Y0136317D01*
X0199278Y0136148D01*
X0199390Y0135976D01*
X0199498Y0135801D01*
X0199601Y0135624D01*
X0199700Y0135444D01*
X0199795Y0135261D01*
X0199885Y0135077D01*
X0199970Y0134890D01*
X0200051Y0134702D01*
X0200127Y0134511D01*
X0200199Y0134318D01*
X0200266Y0134124D01*
X0200328Y0133929D01*
X0200385Y0133731D01*
X0200437Y0133533D01*
X0200485Y0133333D01*
X0200527Y0133132D01*
X0200565Y0132930D01*
X0200597Y0132728D01*
X0200625Y0132524D01*
X0200648Y0132320D01*
X0200665Y0132115D01*
X0200678Y0131911D01*
X0200685Y0131705D01*
X0200688Y0131500D01*
X0200685Y0131295D01*
X0200678Y0131089D01*
X0200665Y0130885D01*
X0200648Y0130680D01*
X0200625Y0130476D01*
X0200597Y0130272D01*
X0200565Y0130070D01*
X0200527Y0129868D01*
X0200485Y0129667D01*
X0200437Y0129467D01*
X0200385Y0129269D01*
X0200328Y0129071D01*
X0200266Y0128876D01*
X0200199Y0128682D01*
X0200127Y0128489D01*
X0200051Y0128298D01*
X0199970Y0128110D01*
X0199885Y0127923D01*
X0199795Y0127739D01*
X0199700Y0127556D01*
X0199601Y0127376D01*
X0199498Y0127199D01*
X0199390Y0127024D01*
X0199278Y0126852D01*
X0199162Y0126683D01*
X0199042Y0126516D01*
X0198917Y0126353D01*
X0198789Y0126193D01*
X0198657Y0126036D01*
X0198521Y0125882D01*
X0198381Y0125731D01*
X0198238Y0125584D01*
X0198091Y0125441D01*
X0197940Y0125301D01*
X0197786Y0125165D01*
X0197629Y0125033D01*
X0197469Y0124905D01*
X0197306Y0124780D01*
X0197139Y0124660D01*
X0196970Y0124544D01*
X0196798Y0124432D01*
X0196623Y0124324D01*
X0196446Y0124221D01*
X0196266Y0124122D01*
X0196083Y0124027D01*
X0195899Y0123937D01*
X0195712Y0123852D01*
X0195524Y0123771D01*
X0195333Y0123695D01*
X0195140Y0123623D01*
X0194946Y0123556D01*
X0194751Y0123494D01*
X0194553Y0123437D01*
X0194355Y0123385D01*
X0194155Y0123337D01*
X0193954Y0123295D01*
X0193752Y0123257D01*
X0193550Y0123225D01*
X0193346Y0123197D01*
X0193142Y0123174D01*
X0192937Y0123157D01*
X0192733Y0123144D01*
X0192527Y0123137D01*
X0192322Y0123134D01*
X0192117Y0123137D01*
X0191911Y0123144D01*
X0191707Y0123157D01*
X0191502Y0123174D01*
X0191298Y0123197D01*
X0191094Y0123225D01*
X0190892Y0123257D01*
X0190690Y0123295D01*
X0190489Y0123337D01*
X0190289Y0123385D01*
X0190091Y0123437D01*
X0189893Y0123494D01*
X0189698Y0123556D01*
X0189504Y0123623D01*
X0189311Y0123695D01*
X0189120Y0123771D01*
X0188932Y0123852D01*
X0188745Y0123937D01*
X0188561Y0124027D01*
X0188378Y0124122D01*
X0188198Y0124221D01*
X0188021Y0124324D01*
X0187846Y0124432D01*
X0187674Y0124544D01*
X0187505Y0124660D01*
X0187338Y0124780D01*
X0187175Y0124905D01*
X0187015Y0125033D01*
X0186858Y0125165D01*
X0186704Y0125301D01*
X0186553Y0125441D01*
X0186406Y0125584D01*
X0186263Y0125731D01*
X0186123Y0125882D01*
X0185987Y0126036D01*
X0185855Y0126193D01*
X0185727Y0126353D01*
X0185602Y0126516D01*
X0185482Y0126683D01*
X0185366Y0126852D01*
X0185254Y0127024D01*
X0185146Y0127199D01*
X0185043Y0127376D01*
X0184944Y0127556D01*
X0184849Y0127739D01*
X0184759Y0127923D01*
X0184674Y0128110D01*
X0184593Y0128298D01*
X0184517Y0128489D01*
X0184445Y0128682D01*
X0184378Y0128876D01*
X0184316Y0129071D01*
X0184259Y0129269D01*
X0184207Y0129467D01*
X0184159Y0129667D01*
X0184117Y0129868D01*
X0184079Y0130070D01*
X0184047Y0130272D01*
X0184019Y0130476D01*
X0183996Y0130680D01*
X0183979Y0130885D01*
X0183966Y0131089D01*
X0183959Y0131295D01*
X0183956Y0131500D01*
X0210964Y0033500D02*
X0210966Y0033658D01*
X0210972Y0033816D01*
X0210982Y0033974D01*
X0210996Y0034132D01*
X0211014Y0034289D01*
X0211035Y0034446D01*
X0211061Y0034602D01*
X0211091Y0034758D01*
X0211124Y0034913D01*
X0211162Y0035066D01*
X0211203Y0035219D01*
X0211248Y0035371D01*
X0211297Y0035522D01*
X0211350Y0035671D01*
X0211406Y0035819D01*
X0211466Y0035965D01*
X0211530Y0036110D01*
X0211598Y0036253D01*
X0211669Y0036395D01*
X0211743Y0036535D01*
X0211821Y0036672D01*
X0211903Y0036808D01*
X0211987Y0036942D01*
X0212076Y0037073D01*
X0212167Y0037202D01*
X0212262Y0037329D01*
X0212359Y0037454D01*
X0212460Y0037576D01*
X0212564Y0037695D01*
X0212671Y0037812D01*
X0212781Y0037926D01*
X0212894Y0038037D01*
X0213009Y0038146D01*
X0213127Y0038251D01*
X0213248Y0038353D01*
X0213371Y0038453D01*
X0213497Y0038549D01*
X0213625Y0038642D01*
X0213755Y0038732D01*
X0213888Y0038818D01*
X0214023Y0038902D01*
X0214159Y0038981D01*
X0214298Y0039058D01*
X0214439Y0039130D01*
X0214581Y0039200D01*
X0214725Y0039265D01*
X0214871Y0039327D01*
X0215018Y0039385D01*
X0215167Y0039440D01*
X0215317Y0039491D01*
X0215468Y0039538D01*
X0215620Y0039581D01*
X0215773Y0039620D01*
X0215928Y0039656D01*
X0216083Y0039687D01*
X0216239Y0039715D01*
X0216395Y0039739D01*
X0216552Y0039759D01*
X0216710Y0039775D01*
X0216867Y0039787D01*
X0217026Y0039795D01*
X0217184Y0039799D01*
X0217342Y0039799D01*
X0217500Y0039795D01*
X0217659Y0039787D01*
X0217816Y0039775D01*
X0217974Y0039759D01*
X0218131Y0039739D01*
X0218287Y0039715D01*
X0218443Y0039687D01*
X0218598Y0039656D01*
X0218753Y0039620D01*
X0218906Y0039581D01*
X0219058Y0039538D01*
X0219209Y0039491D01*
X0219359Y0039440D01*
X0219508Y0039385D01*
X0219655Y0039327D01*
X0219801Y0039265D01*
X0219945Y0039200D01*
X0220087Y0039130D01*
X0220228Y0039058D01*
X0220367Y0038981D01*
X0220503Y0038902D01*
X0220638Y0038818D01*
X0220771Y0038732D01*
X0220901Y0038642D01*
X0221029Y0038549D01*
X0221155Y0038453D01*
X0221278Y0038353D01*
X0221399Y0038251D01*
X0221517Y0038146D01*
X0221632Y0038037D01*
X0221745Y0037926D01*
X0221855Y0037812D01*
X0221962Y0037695D01*
X0222066Y0037576D01*
X0222167Y0037454D01*
X0222264Y0037329D01*
X0222359Y0037202D01*
X0222450Y0037073D01*
X0222539Y0036942D01*
X0222623Y0036808D01*
X0222705Y0036672D01*
X0222783Y0036535D01*
X0222857Y0036395D01*
X0222928Y0036253D01*
X0222996Y0036110D01*
X0223060Y0035965D01*
X0223120Y0035819D01*
X0223176Y0035671D01*
X0223229Y0035522D01*
X0223278Y0035371D01*
X0223323Y0035219D01*
X0223364Y0035066D01*
X0223402Y0034913D01*
X0223435Y0034758D01*
X0223465Y0034602D01*
X0223491Y0034446D01*
X0223512Y0034289D01*
X0223530Y0034132D01*
X0223544Y0033974D01*
X0223554Y0033816D01*
X0223560Y0033658D01*
X0223562Y0033500D01*
X0223560Y0033342D01*
X0223554Y0033184D01*
X0223544Y0033026D01*
X0223530Y0032868D01*
X0223512Y0032711D01*
X0223491Y0032554D01*
X0223465Y0032398D01*
X0223435Y0032242D01*
X0223402Y0032087D01*
X0223364Y0031934D01*
X0223323Y0031781D01*
X0223278Y0031629D01*
X0223229Y0031478D01*
X0223176Y0031329D01*
X0223120Y0031181D01*
X0223060Y0031035D01*
X0222996Y0030890D01*
X0222928Y0030747D01*
X0222857Y0030605D01*
X0222783Y0030465D01*
X0222705Y0030328D01*
X0222623Y0030192D01*
X0222539Y0030058D01*
X0222450Y0029927D01*
X0222359Y0029798D01*
X0222264Y0029671D01*
X0222167Y0029546D01*
X0222066Y0029424D01*
X0221962Y0029305D01*
X0221855Y0029188D01*
X0221745Y0029074D01*
X0221632Y0028963D01*
X0221517Y0028854D01*
X0221399Y0028749D01*
X0221278Y0028647D01*
X0221155Y0028547D01*
X0221029Y0028451D01*
X0220901Y0028358D01*
X0220771Y0028268D01*
X0220638Y0028182D01*
X0220503Y0028098D01*
X0220367Y0028019D01*
X0220228Y0027942D01*
X0220087Y0027870D01*
X0219945Y0027800D01*
X0219801Y0027735D01*
X0219655Y0027673D01*
X0219508Y0027615D01*
X0219359Y0027560D01*
X0219209Y0027509D01*
X0219058Y0027462D01*
X0218906Y0027419D01*
X0218753Y0027380D01*
X0218598Y0027344D01*
X0218443Y0027313D01*
X0218287Y0027285D01*
X0218131Y0027261D01*
X0217974Y0027241D01*
X0217816Y0027225D01*
X0217659Y0027213D01*
X0217500Y0027205D01*
X0217342Y0027201D01*
X0217184Y0027201D01*
X0217026Y0027205D01*
X0216867Y0027213D01*
X0216710Y0027225D01*
X0216552Y0027241D01*
X0216395Y0027261D01*
X0216239Y0027285D01*
X0216083Y0027313D01*
X0215928Y0027344D01*
X0215773Y0027380D01*
X0215620Y0027419D01*
X0215468Y0027462D01*
X0215317Y0027509D01*
X0215167Y0027560D01*
X0215018Y0027615D01*
X0214871Y0027673D01*
X0214725Y0027735D01*
X0214581Y0027800D01*
X0214439Y0027870D01*
X0214298Y0027942D01*
X0214159Y0028019D01*
X0214023Y0028098D01*
X0213888Y0028182D01*
X0213755Y0028268D01*
X0213625Y0028358D01*
X0213497Y0028451D01*
X0213371Y0028547D01*
X0213248Y0028647D01*
X0213127Y0028749D01*
X0213009Y0028854D01*
X0212894Y0028963D01*
X0212781Y0029074D01*
X0212671Y0029188D01*
X0212564Y0029305D01*
X0212460Y0029424D01*
X0212359Y0029546D01*
X0212262Y0029671D01*
X0212167Y0029798D01*
X0212076Y0029927D01*
X0211987Y0030058D01*
X0211903Y0030192D01*
X0211821Y0030328D01*
X0211743Y0030465D01*
X0211669Y0030605D01*
X0211598Y0030747D01*
X0211530Y0030890D01*
X0211466Y0031035D01*
X0211406Y0031181D01*
X0211350Y0031329D01*
X0211297Y0031478D01*
X0211248Y0031629D01*
X0211203Y0031781D01*
X0211162Y0031934D01*
X0211124Y0032087D01*
X0211091Y0032242D01*
X0211061Y0032398D01*
X0211035Y0032554D01*
X0211014Y0032711D01*
X0210996Y0032868D01*
X0210982Y0033026D01*
X0210972Y0033184D01*
X0210966Y0033342D01*
X0210964Y0033500D01*
D11*
X0221654Y0049650D02*
X0223506Y0049650D01*
X0223506Y0053353D01*
X0221654Y0053353D01*
X0221037Y0052736D01*
X0221037Y0052119D01*
X0221654Y0051502D01*
X0223506Y0051502D01*
X0221654Y0051502D02*
X0221037Y0050884D01*
X0221037Y0050267D01*
X0221654Y0049650D01*
X0230486Y0049650D02*
X0230486Y0052119D01*
X0231720Y0053353D01*
X0232955Y0052119D01*
X0232955Y0049650D01*
X0232955Y0051502D02*
X0230486Y0051502D01*
X0236803Y0052119D02*
X0238654Y0052119D01*
X0239271Y0051502D01*
X0239271Y0050267D01*
X0238654Y0049650D01*
X0236803Y0049650D01*
X0236803Y0053353D01*
X0240486Y0051502D02*
X0240486Y0049650D01*
X0240486Y0051502D02*
X0241103Y0052119D01*
X0242955Y0052119D01*
X0242955Y0049650D01*
X0244169Y0049650D02*
X0246021Y0049650D01*
X0246638Y0050267D01*
X0246638Y0051502D01*
X0246021Y0052119D01*
X0244169Y0052119D01*
X0244169Y0049033D01*
X0244786Y0048416D01*
X0245403Y0048416D01*
X0249879Y0049650D02*
X0248644Y0052119D01*
X0251113Y0052119D02*
X0249879Y0049650D01*
X0252327Y0050267D02*
X0252327Y0050884D01*
X0252945Y0051502D01*
X0253562Y0051502D01*
X0252945Y0051502D02*
X0252327Y0052119D01*
X0252327Y0052736D01*
X0252945Y0053353D01*
X0254179Y0053353D01*
X0254796Y0052736D01*
X0254796Y0050267D02*
X0254179Y0049650D01*
X0252945Y0049650D01*
X0252327Y0050267D01*
X0251638Y0073650D02*
X0249169Y0073650D01*
X0247955Y0073650D02*
X0245486Y0076119D01*
X0245486Y0076736D01*
X0246103Y0077353D01*
X0247337Y0077353D01*
X0247955Y0076736D01*
X0250403Y0077353D02*
X0250403Y0073650D01*
X0247955Y0073650D02*
X0245486Y0073650D01*
X0243037Y0073650D02*
X0241803Y0076119D01*
X0239796Y0075502D02*
X0239796Y0077353D01*
X0237327Y0077353D01*
X0237945Y0076119D02*
X0237327Y0075502D01*
X0237327Y0074267D01*
X0237945Y0073650D01*
X0239179Y0073650D01*
X0239796Y0074267D01*
X0239796Y0075502D02*
X0238562Y0076119D01*
X0237945Y0076119D01*
X0236113Y0076119D02*
X0234879Y0073650D01*
X0233644Y0076119D01*
X0227955Y0076736D02*
X0227955Y0074267D01*
X0227337Y0073650D01*
X0226103Y0073650D01*
X0225486Y0074267D01*
X0225486Y0076736D02*
X0226103Y0077353D01*
X0227337Y0077353D01*
X0227955Y0076736D01*
X0218296Y0081650D02*
X0218296Y0083585D01*
X0217329Y0083585D02*
X0218296Y0082617D01*
X0217329Y0083585D02*
X0216845Y0083585D01*
X0215841Y0083101D02*
X0215357Y0083585D01*
X0213906Y0083585D01*
X0212894Y0083585D02*
X0211927Y0083585D01*
X0212410Y0084069D02*
X0212410Y0082134D01*
X0211927Y0081650D01*
X0213906Y0082134D02*
X0214389Y0082617D01*
X0215357Y0082617D01*
X0215841Y0083101D01*
X0215841Y0081650D02*
X0214389Y0081650D01*
X0213906Y0082134D01*
X0213406Y0091650D02*
X0214857Y0091650D01*
X0215341Y0092134D01*
X0215341Y0093101D01*
X0214857Y0093585D01*
X0213406Y0093585D01*
X0212394Y0094552D02*
X0212394Y0091650D01*
X0212394Y0092617D02*
X0210943Y0091650D01*
X0212394Y0092617D02*
X0210943Y0093585D01*
X0216352Y0093585D02*
X0217803Y0093585D01*
X0218287Y0093101D01*
X0217803Y0092617D01*
X0216836Y0092617D01*
X0216352Y0092134D01*
X0216836Y0091650D01*
X0218287Y0091650D01*
X0218515Y0101650D02*
X0218515Y0103585D01*
X0218031Y0103585D01*
X0217547Y0103101D01*
X0217064Y0103585D01*
X0216580Y0103101D01*
X0216580Y0101650D01*
X0217547Y0101650D02*
X0217547Y0103101D01*
X0215568Y0103585D02*
X0215085Y0103585D01*
X0215085Y0101650D01*
X0215568Y0101650D02*
X0214601Y0101650D01*
X0213604Y0101650D02*
X0212153Y0101650D01*
X0211669Y0102134D01*
X0212153Y0102617D01*
X0213120Y0102617D01*
X0213604Y0103101D01*
X0213120Y0103585D01*
X0211669Y0103585D01*
X0210658Y0103101D02*
X0210658Y0102134D01*
X0210174Y0101650D01*
X0209206Y0101650D01*
X0208723Y0102134D01*
X0208723Y0103101D01*
X0209206Y0103585D01*
X0210174Y0103585D01*
X0210658Y0103101D01*
X0215085Y0104552D02*
X0215085Y0105036D01*
X0238178Y0103585D02*
X0239146Y0101650D01*
X0240113Y0103585D01*
X0241125Y0103101D02*
X0241125Y0102134D01*
X0241608Y0101650D01*
X0242576Y0101650D01*
X0243060Y0102134D01*
X0243060Y0103101D02*
X0242092Y0103585D01*
X0241608Y0103585D01*
X0241125Y0103101D01*
X0241125Y0104552D02*
X0243060Y0104552D01*
X0243060Y0103101D01*
X0238192Y0095036D02*
X0238192Y0094552D01*
X0238192Y0093585D02*
X0238192Y0091650D01*
X0238675Y0091650D02*
X0237708Y0091650D01*
X0238192Y0093585D02*
X0238675Y0093585D01*
X0239687Y0093585D02*
X0241138Y0093585D01*
X0241622Y0093101D01*
X0241138Y0092617D01*
X0240171Y0092617D01*
X0239687Y0092134D01*
X0240171Y0091650D01*
X0241622Y0091650D01*
X0242633Y0092134D02*
X0242633Y0093101D01*
X0243117Y0093585D01*
X0244085Y0093585D01*
X0244568Y0093101D01*
X0244568Y0092134D01*
X0244085Y0091650D01*
X0243117Y0091650D01*
X0242633Y0092134D01*
X0245580Y0091650D02*
X0245580Y0093101D01*
X0246064Y0093585D01*
X0246547Y0093101D01*
X0246547Y0091650D01*
X0247515Y0091650D02*
X0247515Y0093585D01*
X0247031Y0093585D01*
X0246547Y0093101D01*
X0237705Y0084552D02*
X0237705Y0081650D01*
X0239156Y0081650D01*
X0239640Y0082134D01*
X0239640Y0083101D01*
X0239156Y0083585D01*
X0237705Y0083585D01*
X0240651Y0083101D02*
X0240651Y0081650D01*
X0240651Y0083101D02*
X0241135Y0083585D01*
X0242586Y0083585D01*
X0242586Y0081650D01*
X0243598Y0081650D02*
X0245049Y0081650D01*
X0245533Y0082134D01*
X0245533Y0083101D01*
X0245049Y0083585D01*
X0243598Y0083585D01*
X0243598Y0081166D01*
X0244082Y0080683D01*
X0244565Y0080683D01*
X0250403Y0077353D02*
X0251638Y0076119D01*
X0256470Y0076539D02*
X0256470Y0074070D01*
X0257087Y0073453D01*
X0258939Y0073453D01*
X0258939Y0077156D01*
X0257087Y0077156D01*
X0256470Y0076539D01*
X0244271Y0076119D02*
X0243037Y0073650D01*
X0182033Y0115150D02*
X0180582Y0115150D01*
X0180098Y0115634D01*
X0180582Y0116117D01*
X0181549Y0116117D01*
X0182033Y0116601D01*
X0181549Y0117085D01*
X0180098Y0117085D01*
X0179086Y0116601D02*
X0178603Y0117085D01*
X0177151Y0117085D01*
X0177151Y0118052D02*
X0177151Y0115150D01*
X0178603Y0115150D01*
X0179086Y0115634D01*
X0179086Y0116601D01*
X0176140Y0115634D02*
X0175656Y0115150D01*
X0174205Y0115150D01*
X0174205Y0116601D01*
X0174688Y0117085D01*
X0175656Y0117085D01*
X0175656Y0116117D02*
X0174205Y0116117D01*
X0175656Y0116117D02*
X0176140Y0115634D01*
X0171042Y0115150D02*
X0169590Y0115150D01*
X0169107Y0115634D01*
X0169590Y0116117D01*
X0170558Y0116117D01*
X0171042Y0116601D01*
X0170558Y0117085D01*
X0169107Y0117085D01*
X0168095Y0116601D02*
X0168095Y0115634D01*
X0167611Y0115150D01*
X0166160Y0115150D01*
X0165149Y0115150D02*
X0164181Y0115150D01*
X0164665Y0115150D02*
X0164665Y0118052D01*
X0165149Y0118052D01*
X0166160Y0117085D02*
X0167611Y0117085D01*
X0168095Y0116601D01*
X0158086Y0115634D02*
X0157603Y0115150D01*
X0156635Y0115150D01*
X0156151Y0115634D01*
X0156151Y0117569D02*
X0156635Y0118052D01*
X0157603Y0118052D01*
X0158086Y0117569D01*
X0158086Y0115634D01*
X0148086Y0115150D02*
X0146635Y0115150D01*
X0146151Y0115634D01*
X0146151Y0116117D01*
X0146635Y0116601D01*
X0148086Y0116601D01*
X0146635Y0116601D02*
X0146151Y0117085D01*
X0146151Y0117569D01*
X0146635Y0118052D01*
X0148086Y0118052D01*
X0148086Y0115150D01*
X0138086Y0115150D02*
X0138086Y0117085D01*
X0137119Y0118052D01*
X0136151Y0117085D01*
X0136151Y0115150D01*
X0136151Y0116601D02*
X0138086Y0116601D01*
X0060549Y0037085D02*
X0061033Y0036601D01*
X0061033Y0035634D01*
X0060549Y0035150D01*
X0059098Y0035150D01*
X0059098Y0034666D02*
X0059098Y0037085D01*
X0060549Y0037085D01*
X0058086Y0037085D02*
X0056635Y0037085D01*
X0056151Y0036601D01*
X0056151Y0035150D01*
X0055140Y0035634D02*
X0055140Y0036601D01*
X0054656Y0037085D01*
X0053205Y0037085D01*
X0053205Y0038052D02*
X0053205Y0035150D01*
X0054656Y0035150D01*
X0055140Y0035634D01*
X0058086Y0035150D02*
X0058086Y0037085D01*
X0059098Y0034666D02*
X0059582Y0034183D01*
X0060065Y0034183D01*
X0040060Y0035634D02*
X0039576Y0035150D01*
X0038608Y0035150D01*
X0038125Y0035634D01*
X0038125Y0036117D01*
X0038608Y0036601D01*
X0039092Y0036601D01*
X0038608Y0036601D02*
X0038125Y0037085D01*
X0038125Y0037569D01*
X0038608Y0038052D01*
X0039576Y0038052D01*
X0040060Y0037569D01*
X0037113Y0037085D02*
X0036146Y0035150D01*
X0035178Y0037085D01*
X0030796Y0037085D02*
X0030796Y0035150D01*
X0030796Y0036117D02*
X0029829Y0037085D01*
X0029345Y0037085D01*
X0028341Y0036601D02*
X0027857Y0037085D01*
X0026406Y0037085D01*
X0025394Y0037085D02*
X0024427Y0037085D01*
X0024910Y0037569D02*
X0024910Y0035634D01*
X0024427Y0035150D01*
X0026406Y0035634D02*
X0026889Y0036117D01*
X0027857Y0036117D01*
X0028341Y0036601D01*
X0028341Y0035150D02*
X0026889Y0035150D01*
X0026406Y0035634D01*
D12*
X0026491Y0041750D02*
X0022588Y0045653D01*
X0022588Y0049557D01*
X0026491Y0053460D01*
X0038201Y0053460D01*
X0038201Y0045653D01*
X0034298Y0041750D01*
X0026491Y0041750D01*
X0038201Y0053460D02*
X0030394Y0061267D01*
X0022588Y0065170D01*
X0047930Y0079850D02*
X0055737Y0079850D01*
X0059640Y0083753D01*
X0059640Y0091560D01*
X0055737Y0095463D01*
X0047930Y0095463D01*
X0044027Y0091560D01*
X0044027Y0087657D01*
X0059640Y0087657D01*
X0067415Y0095463D02*
X0079125Y0095463D01*
X0083028Y0091560D01*
X0083028Y0083753D01*
X0079125Y0079850D01*
X0067415Y0079850D01*
X0067415Y0075947D02*
X0067415Y0095463D01*
X0090803Y0091560D02*
X0090803Y0079850D01*
X0075221Y0072043D02*
X0071318Y0072043D01*
X0067415Y0075947D01*
X0065476Y0065170D02*
X0065476Y0041750D01*
X0057670Y0041750D02*
X0073283Y0041750D01*
X0049895Y0041750D02*
X0045992Y0041750D01*
X0045992Y0045653D01*
X0049895Y0045653D01*
X0049895Y0041750D01*
X0073283Y0057363D02*
X0065476Y0065170D01*
X0104446Y0065170D02*
X0104446Y0041750D01*
X0116156Y0041750D01*
X0120059Y0045653D01*
X0120059Y0053460D01*
X0116156Y0057363D01*
X0104446Y0057363D01*
X0127839Y0057363D02*
X0131742Y0057363D01*
X0139549Y0049557D01*
X0147324Y0049557D02*
X0159034Y0049557D01*
X0162937Y0045653D01*
X0159034Y0041750D01*
X0147324Y0041750D01*
X0147324Y0053460D01*
X0151227Y0057363D01*
X0159034Y0057363D01*
X0170712Y0053460D02*
X0174615Y0057363D01*
X0182422Y0057363D01*
X0186325Y0053460D01*
X0186325Y0045653D01*
X0182422Y0041750D01*
X0174615Y0041750D01*
X0170712Y0045653D01*
X0170712Y0053460D01*
X0194100Y0049557D02*
X0194100Y0045653D01*
X0198003Y0041750D01*
X0209713Y0041750D01*
X0209713Y0065170D01*
X0198003Y0065170D01*
X0194100Y0061267D01*
X0194100Y0057363D01*
X0198003Y0053460D01*
X0209713Y0053460D01*
X0198003Y0053460D02*
X0194100Y0049557D01*
X0157079Y0072043D02*
X0153176Y0072043D01*
X0149273Y0075947D01*
X0149273Y0095463D01*
X0141498Y0095463D02*
X0141498Y0079850D01*
X0149273Y0079850D02*
X0160983Y0079850D01*
X0164886Y0083753D01*
X0164886Y0095463D01*
X0172661Y0099367D02*
X0176564Y0103270D01*
X0184371Y0103270D01*
X0188274Y0099367D01*
X0188274Y0095463D01*
X0184371Y0091560D01*
X0176564Y0091560D01*
X0172661Y0087657D01*
X0172661Y0083753D01*
X0176564Y0079850D01*
X0184371Y0079850D01*
X0188274Y0083753D01*
X0141498Y0087657D02*
X0133691Y0095463D01*
X0129788Y0095463D01*
X0122008Y0095463D02*
X0118105Y0095463D01*
X0118105Y0079850D01*
X0122008Y0079850D02*
X0114201Y0079850D01*
X0106416Y0079850D02*
X0106416Y0095463D01*
X0094706Y0095463D01*
X0090803Y0091560D01*
X0118105Y0103270D02*
X0118105Y0107173D01*
X0139549Y0057363D02*
X0139549Y0041750D01*
M02*
