G75*
%MOIN*%
%OFA0B0*%
%FSLAX25Y25*%
%IPPOS*%
%LPD*%
%AMOC8*
5,1,8,0,0,1.08239X$1,22.5*
%
%ADD10C,0.17532*%
%ADD11R,0.03162X0.09461*%
%ADD12R,0.05524X0.03950*%
%ADD13R,0.04737X0.05131*%
%ADD14R,0.05131X0.04737*%
%ADD15C,0.13398*%
%ADD16R,0.05800X0.03000*%
%ADD17R,0.03000X0.05800*%
%ADD18R,0.13300X0.01981*%
%ADD19C,0.08200*%
%ADD20R,0.06312X0.12611*%
%ADD21R,0.07099X0.01981*%
%ADD22C,0.01421*%
%ADD23C,0.00500*%
%ADD24C,0.06350*%
D10*
X0137322Y0131500D03*
X0192322Y0131500D03*
D11*
X0093763Y0081610D03*
X0088763Y0081610D03*
X0083763Y0081610D03*
X0078763Y0081610D03*
X0073763Y0081610D03*
X0068763Y0081610D03*
X0063763Y0081610D03*
X0058763Y0081610D03*
X0053763Y0081610D03*
X0048763Y0081610D03*
X0043763Y0081610D03*
X0038763Y0081610D03*
X0038763Y0045390D03*
X0043763Y0045390D03*
X0048763Y0045390D03*
X0053763Y0045390D03*
X0058763Y0045390D03*
X0063763Y0045390D03*
X0068763Y0045390D03*
X0073763Y0045390D03*
X0078763Y0045390D03*
X0083763Y0045390D03*
X0088763Y0045390D03*
X0093763Y0045390D03*
D12*
X0073763Y0036043D03*
X0073763Y0028957D03*
X0073263Y0089957D03*
X0073263Y0097043D03*
D13*
X0083763Y0097846D03*
X0083763Y0091154D03*
X0105763Y0096654D03*
X0112401Y0096673D03*
X0112401Y0103366D03*
X0105763Y0103346D03*
X0122263Y0105154D03*
X0122263Y0111846D03*
X0166263Y0082846D03*
X0172763Y0082846D03*
X0179263Y0082846D03*
X0185263Y0082846D03*
X0185263Y0076154D03*
X0179263Y0076154D03*
X0172763Y0076154D03*
X0166263Y0076154D03*
X0189763Y0090654D03*
X0196263Y0090654D03*
X0196263Y0097346D03*
X0189763Y0097346D03*
X0117763Y0063346D03*
X0117763Y0056654D03*
X0050263Y0092154D03*
X0050263Y0098846D03*
X0037263Y0100154D03*
X0037263Y0106846D03*
X0022763Y0108346D03*
X0022763Y0101654D03*
X0027763Y0085346D03*
X0033763Y0085346D03*
X0033763Y0078654D03*
X0027763Y0078654D03*
X0027763Y0064346D03*
X0032763Y0064346D03*
X0032763Y0057654D03*
X0027763Y0057654D03*
D14*
X0025917Y0044500D03*
X0032609Y0044500D03*
X0088917Y0032500D03*
X0095609Y0032500D03*
X0098417Y0090000D03*
X0105109Y0090000D03*
X0043609Y0092500D03*
X0036917Y0092500D03*
X0026109Y0092000D03*
X0019417Y0092000D03*
X0210917Y0111000D03*
X0217609Y0111000D03*
D15*
X0217263Y0033500D03*
X0262263Y0033500D03*
D16*
X0151163Y0069476D03*
X0151163Y0072626D03*
X0151163Y0075776D03*
X0151163Y0078925D03*
X0151163Y0082075D03*
X0151163Y0085224D03*
X0151163Y0088374D03*
X0151163Y0091524D03*
X0117363Y0091524D03*
X0117363Y0088374D03*
X0117363Y0085224D03*
X0117363Y0082075D03*
X0117363Y0078925D03*
X0117363Y0075776D03*
X0117363Y0072626D03*
X0117363Y0069476D03*
D17*
X0123239Y0063600D03*
X0126389Y0063600D03*
X0129539Y0063600D03*
X0132688Y0063600D03*
X0135838Y0063600D03*
X0138987Y0063600D03*
X0142137Y0063600D03*
X0145287Y0063600D03*
X0145287Y0097400D03*
X0142137Y0097400D03*
X0138987Y0097400D03*
X0135838Y0097400D03*
X0132688Y0097400D03*
X0129539Y0097400D03*
X0126389Y0097400D03*
X0123239Y0097400D03*
D18*
X0104263Y0070240D03*
X0104263Y0066500D03*
X0104263Y0062760D03*
D19*
X0057263Y0030500D03*
X0047263Y0030500D03*
X0037263Y0030500D03*
X0027263Y0030500D03*
X0167263Y0030500D03*
X0177263Y0030500D03*
X0223263Y0082500D03*
X0233263Y0082500D03*
X0233263Y0092500D03*
X0223263Y0092500D03*
X0223263Y0102500D03*
X0233263Y0102500D03*
X0177263Y0110500D03*
X0167263Y0110500D03*
X0157263Y0110500D03*
X0147263Y0110500D03*
X0137263Y0110500D03*
X0159822Y0130500D03*
X0169822Y0130500D03*
D20*
X0257763Y0107449D03*
X0257763Y0088551D03*
D21*
X0180956Y0091661D03*
X0180956Y0094220D03*
X0180956Y0096780D03*
X0180956Y0099339D03*
X0167570Y0099339D03*
X0167570Y0096780D03*
X0167570Y0094220D03*
X0167570Y0091661D03*
D22*
X0223152Y0109342D02*
X0223152Y0112658D01*
X0226468Y0112658D01*
X0226468Y0109342D01*
X0223152Y0109342D01*
X0223152Y0110762D02*
X0226468Y0110762D01*
X0226468Y0112182D02*
X0223152Y0112182D01*
X0230058Y0112658D02*
X0230058Y0109342D01*
X0230058Y0112658D02*
X0233374Y0112658D01*
X0233374Y0109342D01*
X0230058Y0109342D01*
X0230058Y0110762D02*
X0233374Y0110762D01*
X0233374Y0112182D02*
X0230058Y0112182D01*
D23*
X0011579Y0029123D02*
X0010916Y0029300D01*
X0010294Y0029590D01*
X0009732Y0029984D01*
X0009247Y0030469D01*
X0008853Y0031031D01*
X0008563Y0031653D01*
X0008386Y0032316D01*
X0008326Y0033000D01*
X0008386Y0033684D01*
X0008563Y0034347D01*
X0008853Y0034969D01*
X0009247Y0035531D01*
X0009732Y0036016D01*
X0010294Y0036410D01*
X0010916Y0036700D01*
X0011579Y0036877D01*
X0012263Y0036937D01*
X0012947Y0036877D01*
X0013610Y0036700D01*
X0014231Y0036410D01*
X0014794Y0036016D01*
X0015279Y0035531D01*
X0015673Y0034969D01*
X0015963Y0034347D01*
X0016140Y0033684D01*
X0016200Y0033000D01*
X0016140Y0032316D01*
X0015963Y0031653D01*
X0015673Y0031031D01*
X0015279Y0030469D01*
X0014794Y0029984D01*
X0014231Y0029590D01*
X0013610Y0029300D01*
X0012947Y0029123D01*
X0012263Y0029063D01*
X0011579Y0029123D01*
X0010514Y0029488D02*
X0014012Y0029488D01*
X0014796Y0029987D02*
X0009730Y0029987D01*
X0009236Y0030485D02*
X0015290Y0030485D01*
X0015639Y0030984D02*
X0008887Y0030984D01*
X0008643Y0031482D02*
X0015883Y0031482D01*
X0016050Y0031981D02*
X0008476Y0031981D01*
X0008372Y0032479D02*
X0016154Y0032479D01*
X0016198Y0032978D02*
X0008328Y0032978D01*
X0008368Y0033476D02*
X0016158Y0033476D01*
X0016062Y0033975D02*
X0008464Y0033975D01*
X0008622Y0034473D02*
X0015904Y0034473D01*
X0015670Y0034972D02*
X0008856Y0034972D01*
X0009205Y0035470D02*
X0015321Y0035470D01*
X0014841Y0035969D02*
X0009685Y0035969D01*
X0010418Y0036467D02*
X0014108Y0036467D01*
X0012263Y0096563D02*
X0012947Y0096623D01*
X0013610Y0096800D01*
X0014231Y0097090D01*
X0014794Y0097484D01*
X0015279Y0097969D01*
X0015673Y0098531D01*
X0015963Y0099153D01*
X0016140Y0099816D01*
X0016200Y0100500D01*
X0016140Y0101184D01*
X0015963Y0101847D01*
X0015673Y0102469D01*
X0015279Y0103031D01*
X0014794Y0103516D01*
X0014231Y0103910D01*
X0013610Y0104200D01*
X0012947Y0104377D01*
X0012263Y0104437D01*
X0011579Y0104377D01*
X0010916Y0104200D01*
X0010294Y0103910D01*
X0009732Y0103516D01*
X0009247Y0103031D01*
X0008853Y0102469D01*
X0008563Y0101847D01*
X0008386Y0101184D01*
X0008326Y0100500D01*
X0008386Y0099816D01*
X0008563Y0099153D01*
X0008853Y0098531D01*
X0009247Y0097969D01*
X0009732Y0097484D01*
X0010294Y0097090D01*
X0010916Y0096800D01*
X0011579Y0096623D01*
X0012263Y0096563D01*
X0010966Y0096787D02*
X0013560Y0096787D01*
X0014510Y0097286D02*
X0010016Y0097286D01*
X0009432Y0097784D02*
X0015094Y0097784D01*
X0015498Y0098283D02*
X0009028Y0098283D01*
X0008737Y0098781D02*
X0015789Y0098781D01*
X0015996Y0099280D02*
X0008530Y0099280D01*
X0008396Y0099778D02*
X0016130Y0099778D01*
X0016180Y0100277D02*
X0008346Y0100277D01*
X0008350Y0100775D02*
X0016176Y0100775D01*
X0016116Y0101274D02*
X0008410Y0101274D01*
X0008544Y0101772D02*
X0015982Y0101772D01*
X0015765Y0102271D02*
X0008761Y0102271D01*
X0009064Y0102769D02*
X0015462Y0102769D01*
X0015042Y0103268D02*
X0009484Y0103268D01*
X0010090Y0103766D02*
X0014436Y0103766D01*
X0013366Y0104265D02*
X0011160Y0104265D01*
X0243563Y0034347D02*
X0243386Y0033684D01*
X0243326Y0033000D01*
X0243386Y0032316D01*
X0243563Y0031653D01*
X0243853Y0031031D01*
X0244247Y0030469D01*
X0244732Y0029984D01*
X0245294Y0029590D01*
X0245916Y0029300D01*
X0246579Y0029123D01*
X0247263Y0029063D01*
X0247947Y0029123D01*
X0248610Y0029300D01*
X0249231Y0029590D01*
X0249794Y0029984D01*
X0250279Y0030469D01*
X0250673Y0031031D01*
X0250963Y0031653D01*
X0251140Y0032316D01*
X0251200Y0033000D01*
X0251140Y0033684D01*
X0250963Y0034347D01*
X0250673Y0034969D01*
X0250279Y0035531D01*
X0249794Y0036016D01*
X0249231Y0036410D01*
X0248610Y0036700D01*
X0247947Y0036877D01*
X0247263Y0036937D01*
X0246579Y0036877D01*
X0245916Y0036700D01*
X0245294Y0036410D01*
X0244732Y0036016D01*
X0244247Y0035531D01*
X0243853Y0034969D01*
X0243563Y0034347D01*
X0243622Y0034473D02*
X0250904Y0034473D01*
X0251062Y0033975D02*
X0243464Y0033975D01*
X0243368Y0033476D02*
X0251158Y0033476D01*
X0251198Y0032978D02*
X0243328Y0032978D01*
X0243372Y0032479D02*
X0251154Y0032479D01*
X0251050Y0031981D02*
X0243476Y0031981D01*
X0243643Y0031482D02*
X0250883Y0031482D01*
X0250639Y0030984D02*
X0243887Y0030984D01*
X0244236Y0030485D02*
X0250290Y0030485D01*
X0249796Y0029987D02*
X0244730Y0029987D01*
X0245514Y0029488D02*
X0249012Y0029488D01*
X0250670Y0034972D02*
X0243856Y0034972D01*
X0244205Y0035470D02*
X0250321Y0035470D01*
X0249841Y0035969D02*
X0244685Y0035969D01*
X0245418Y0036467D02*
X0249108Y0036467D01*
D24*
X0015263Y0043815D03*
X0015263Y0051689D03*
X0015263Y0059563D03*
X0015263Y0067437D03*
X0015263Y0075311D03*
X0015263Y0083185D03*
M02*
