0
SECTION
2
HEADER
9
$INSUNITS
70
4
9
$ACADVER
1
AC1014
9
$HANDSEED
5
FFFF
0
ENDSEC
0
SECTION
2
TABLES
0
TABLE
2
VPORT
5
8
100
AcDbSymbolTable
0
ENDTAB
0
TABLE
2
LTYPE
5
5
100
AcDbSymbolTable
0
LTYPE
5
14
100
AcDbSymbolTableRecord
100
AcDbLinetypeTableRecord
2
BYBLOCK
70
0
0
LTYPE
5
15
100
AcDbSymbolTableRecord
100
AcDbLinetypeTableRecord
2
BYLAYER
70
0
0
ENDTAB
0
TABLE
2
LAYER
5
2
100
AcDbSymbolTable
70
2
0
LAYER
5
50
100
AcDbSymbolTableRecord
100
AcDbLayerTableRecord
2
0
70
0
6
CONTINUOUS
0
ENDTAB
0
TABLE
2
STYLE
5
3
100
AcDbSymbolTable
70
1
0
STYLE
5
11
100
AcDbSymbolTableRecord
100
AcDbTextStyleTableRecord
2
STANDARD
70
0
0
ENDTAB
0
TABLE
2
VIEW
5
6
100
AcDbSymbolTable
70
0
0
ENDTAB
0
TABLE
2
UCS
5
7
100
AcDbSymbolTable
70
0
0
ENDTAB
0
TABLE
2
APPID
5
9
100
AcDbSymbolTable
70
2
0
APPID
5
12
100
AcDbSymbolTableRecord
100
AcDbRegAppTableRecord
2
ACAD
70
0
0
ENDTAB
0
TABLE
2
DIMSTYLE
5
A
100
AcDbSymbolTable
70
1
0
ENDTAB
0
TABLE
2
BLOCK_RECORD
5
1
100
AcDbSymbolTable
70
1
0
BLOCK_RECORD
5
1F
100
AcDbSymbolTableRecord
100
AcDbBlockTableRecord
2
*MODEL_SPACE
0
BLOCK_RECORD
5
1B
100
AcDbSymbolTableRecord
100
AcDbBlockTableRecord
2
*PAPER_SPACE
0
ENDTAB
0
ENDSEC
0
SECTION
2
BLOCKS
0
BLOCK
5
20
100
AcDbEntity
100
AcDbBlockBegin
2
*MODEL_SPACE
0
ENDBLK
5
21
100
AcDbEntity
100
AcDbBlockEnd
0
BLOCK
5
1C
100
AcDbEntity
100
AcDbBlockBegin
2
*PAPER_SPACE
0
ENDBLK
5
1D
100
AcDbEntity
100
AcDbBlockEnd
0
ENDSEC
0
SECTION
2
ENTITIES
0
CIRCLE
5
100
100
AcDbEntity
8
0
100
AcDbCircle
10
-40.904383613752486
20
244.31289041355953
30
0
40
1.4999934339541789
210
0
220
-0
230
1
0
CIRCLE
5
101
100
AcDbEntity
8
0
100
AcDbCircle
10
-11.244795613753418
20
20.96289072329423
30
0
40
1.4999999999999838
210
0
220
-0
230
1
0
CIRCLE
5
102
100
AcDbEntity
8
0
100
AcDbCircle
10
-40.904383613750497
20
102.31289044406108
30
0
40
1.4999999999999838
210
0
220
-0
230
1
0
CIRCLE
5
103
100
AcDbEntity
8
0
100
AcDbCircle
10
-66.80438361375127
20
74.137890723296138
30
0
40
2.0000000000000258
210
0
220
-0
230
1
0
CIRCLE
5
104
100
AcDbEntity
8
0
100
AcDbCircle
10
46.979616386247258
20
53.126890723292171
30
0
40
1.5000000000000193
210
0
220
-0
230
1
0
CIRCLE
5
105
100
AcDbEntity
8
0
100
AcDbCircle
10
-71.804383613752123
20
45.962890723296361
30
0
40
1.4999999999999838
210
0
220
-0
230
1
0
CIRCLE
5
106
100
AcDbEntity
8
0
100
AcDbCircle
10
-71.804383613752918
20
20.962890723296397
30
0
40
1.4999999999999838
210
0
220
-0
230
1
0
CIRCLE
5
107
100
AcDbEntity
8
0
100
AcDbCircle
10
-11.244795613752601
20
45.962890723294194
30
0
40
1.4999999999999838
210
0
220
-0
230
1
0
LWPOLYLINE
5
108
100
AcDbEntity
8
0
100
AcDbPolyline
90
4
70
1
43
0.0
10
-61.804383613751668
20
259.46289072329574
10
-21.804383613751952
20
259.46289072329432
10
-21.804383613751742
20
265.81289072329434
10
-61.804383613751462
20
265.81289072329577
0
CIRCLE
5
109
100
AcDbEntity
8
0
100
AcDbCircle
10
-16.804383613751632
20
74.137889864647235
30
0
40
1.9999999999999905
210
0
220
-0
230
1
0
LWPOLYLINE
5
110
100
AcDbEntity
8
0
100
AcDbPolyline
90
4
70
1
43
0.0
10
-61.804383477441014
20
77.312890714535698
10
-61.804383613751419
20
70.962890723295999
10
-21.8043836137517
20
70.962889864647437
10
-21.804383477441295
20
77.312889855887192
0
CIRCLE
5
111
100
AcDbEntity
8
0
100
AcDbCircle
10
-49.204383613750444
20
102.3128904440614
30
0
40
1.9999999999999905
210
0
220
-0
230
1
0
CIRCLE
5
112
100
AcDbEntity
8
0
100
AcDbCircle
10
-66.804383613751497
20
262.63789072329592
30
0
40
2.0000000000000258
210
0
220
-0
230
1
0
CIRCLE
5
113
100
AcDbEntity
8
0
100
AcDbCircle
10
46.979616386245979
20
14.772890723292207
30
0
40
1.5000000000000193
210
0
220
-0
230
1
0
CIRCLE
5
114
100
AcDbEntity
8
0
100
AcDbCircle
10
-16.804383613751881
20
262.63789072329422
30
0
40
1.9999999999999905
210
0
220
-0
230
1
0
CIRCLE
5
115
100
AcDbEntity
8
0
100
AcDbCircle
10
14.721616386246232
20
14.772890723293344
30
0
40
1.5000000000000193
210
0
220
-0
230
1
0
CIRCLE
5
116
100
AcDbEntity
8
0
100
AcDbCircle
10
7.6096163862474597
20
51.602890723293555
30
0
40
1.5000000000000193
210
0
220
-0
230
1
0
CIRCLE
5
117
100
AcDbEntity
8
0
100
AcDbCircle
10
-49.204383613752434
20
244.31289041355981
30
0
40
1.9999999999999905
210
0
220
-0
230
1
0
LWPOLYLINE
5
118
100
AcDbEntity
8
0
100
AcDbPolyline
90
12
70
1
43
0.0
10
-72.804383613753288
20
10.962890723296459
42
-0.41421356237310092
10
-76.804383613753174
20
14.96289072329656
10
-76.804383613744776
20
271.96289072329625
42
-0.41421356237310153
10
-72.80438361374452
20
275.96289072329614
10
-10.804383613745046
20
275.96289072329392
42
-0.41421356237309243
10
-6.8043836137452809
20
271.96289072329387
10
-6.8043836137521367
20
61.698890723294106
42
0.41421356237310225
10
-2.8043836137523037
20
57.698890723294063
10
48.535616386247398
20
57.69889072329218
42
-0.41421356237309243
10
50.535616386247291
20
55.698890723292166
10
50.535616386245891
20
12.962890723292029
42
-0.41421356237310414
10
48.53561638624592
20
10.962890723292251
0
CIRCLE
5
119
100
AcDbEntity
8
0
100
AcDbCircle
10
29.931280296218333
20
287.35517858095699
30
0
40
1.5000000000000033
210
0
220
-0
230
1
0
CIRCLE
5
120
100
AcDbEntity
8
0
100
AcDbCircle
10
29.93128029622083
20
249.35517858095739
30
0
40
1.5000000000000033
210
0
220
-0
230
1
0
LWPOLYLINE
5
121
100
AcDbEntity
8
0
100
AcDbPolyline
90
6
70
1
43
0.0
10
19.931280296220478
20
254.35517858095665
10
19.931280296218677
20
282.35517858095636
42
-0.84783338900315186
10
39.396059696611196
20
285.58286364953238
10
43.736520178393505
20
272.71248730900152
42
-0.15406758962260092
10
43.73652017839413
20
263.99786985291479
10
39.396059696613513
20
251.12749351238321
42
-0.8478333890031523
0
CIRCLE
5
122
100
AcDbEntity
8
0
100
AcDbCircle
10
30.439796441072787
20
221.42376397172052
30
0
40
11.249999999999929
210
0
220
-0
230
1
0
CIRCLE
5
123
100
AcDbEntity
8
0
100
AcDbCircle
10
14.939796441174833
20
236.92376397180468
30
0
40
1.9999999999999805
210
0
220
-0
230
1
0
CIRCLE
5
124
100
AcDbEntity
8
0
100
AcDbCircle
10
14.93979644100615
20
205.92376397180502
30
0
40
1.9999999999999805
210
0
220
-0
230
1
0
CIRCLE
5
125
100
AcDbEntity
8
0
100
AcDbCircle
10
45.939796441174643
20
236.92376397163605
30
0
40
1.9999999999999805
210
0
220
-0
230
1
0
CIRCLE
5
126
100
AcDbEntity
8
0
100
AcDbCircle
10
45.939796441005967
20
205.92376397163639
30
0
40
1.9999999999999805
210
0
220
-0
230
1
0
CIRCLE
5
127
100
AcDbEntity
8
0
100
AcDbCircle
10
5.4397964410728772
20
221.42376397185666
30
0
40
2.499999999999984
210
0
220
-0
230
1
0
CIRCLE
5
128
100
AcDbEntity
8
0
100
AcDbCircle
10
-1.5602035590010188
20
264.42348147095879
30
0
40
1.9999999999999893
210
0
220
-0
230
1
0
CIRCLE
5
129
100
AcDbEntity
8
0
100
AcDbCircle
10
-1.649141438436863
20
250.42376397189486
30
0
40
1.9999999999999893
210
0
220
-0
230
1
0
CIRCLE
5
130
100
AcDbEntity
8
0
100
AcDbCircle
10
62.528734320898039
20
250.42376397154567
30
0
40
1.9999999999999893
210
0
220
-0
230
1
0
CIRCLE
5
131
100
AcDbEntity
8
0
100
AcDbCircle
10
62.439796441614554
20
264.42348147061057
30
0
40
1.9999999999999893
210
0
220
-0
230
1
0
LWPOLYLINE
5
132
100
AcDbEntity
8
0
100
AcDbPolyline
90
50
70
1
43
0.0
10
68.542678868310489
20
225.34081597151322
42
-0.55316768047878551
10
67.642358598611935
20
223.90558797151814
10
66.148664510416808
20
223.9055879715263
42
4.8085069970032981
10
66.148664510389807
20
218.9419399715263
10
67.642358598584963
20
218.94193997151817
42
-0.55316768047878162
10
68.542678868267913
20
217.50671197151334
42
-0.0099167805022795982
10
68.38097291163777
20
217.1884698538671
42
0.1231056256176626
10
65.439796440985546
20
205.42376397153026
10
65.439796440958304
20
200.42376397151844
10
57.439796440963597
20
200.42376397154825
10
57.439796440980345
20
205.42376397154817
10
58.939796440980331
20
205.42376397154317
10
58.939796440991174
20
208.42376397154314
10
57.439796440988232
20
208.42376397154817
10
57.439796440997839
20
211.42376397154811
10
53.43979644099786
20
211.42376397156099
10
53.439796440990428
20
208.42376397156715
10
51.939796440990435
20
208.42376397157224
10
51.939796440980373
20
205.42376397156812
10
53.439796440980359
20
205.42376397156312
10
53.439796440963462
20
200.42376397156318
10
50.439796440963477
20
200.42376398524826
10
50.439796440937741
20
194.07376397150597
10
10.439796440937997
20
194.07376397172354
10
10.439796440958657
20
200.42376397172345
10
7.4397964409586752
20
200.42376397155007
10
7.4397964409588635
20
205.42376397156221
10
8.9397964409610804
20
205.42376397156215
10
8.9397964409628994
20
208.42376397154996
10
7.4397964409625903
20
208.42376397154999
10
7.4397964409626836
20
211.42376397154993
10
3.439796440962672
20
211.42376397155004
10
3.4397964409625432
20
208.42376397154877
10
1.9397964409635828
20
208.42376397155022
10
1.9397964409628337
20
205.42376397155024
10
3.439796440962823
20
205.42376397155013
10
3.4397964409587001
20
200.42376397155022
10
-4.5602035590412502
20
200.42376396683818
10
-4.5602035590394934
20
264.42376082365041
42
-0.41421356237309975
10
0.43979958414848364
20
269.42376396683795
10
10.689796440717267
20
269.42376396683699
42
-0.41421356237309476
10
15.689796440961068
20
264.42376396659279
10
15.689796440960798
20
257.42376397172075
42
0.99999999999999989
10
45.189796440960592
20
257.42376397171967
10
45.189796440960905
20
264.4237639668433
42
-0.41421356237309509
10
50.189796440953373
20
269.42376396683539
10
60.439796441428854
20
269.42376396683522
42
-0.41421356237467827
10
65.439796441306711
20
264.42376396692998
10
65.439796441159771
20
237.42376397152978
42
0.12310562561765816
10
68.38097291168387
20
225.65905808916108
42
-0.0099167805022760454
0
CIRCLE
5
133
100
AcDbEntity
8
0
100
AcDbCircle
10
34.193316107583271
20
148.7896266192659
30
0
40
1.9999999999999538
210
-0
220
0
230
1
0
CIRCLE
5
134
100
AcDbEntity
8
0
100
AcDbCircle
10
19.559489695154753
20
150.00422543500412
30
0
40
1.9999999999999538
210
-0
220
0
230
1
0
CIRCLE
5
135
100
AcDbEntity
8
0
100
AcDbCircle
10
47.654123360595868
20
128.91988409206633
30
0
40
1.9999999999999538
210
-0
220
0
230
1
0
CIRCLE
5
136
100
AcDbEntity
8
0
100
AcDbCircle
10
30.988848470489536
20
132.12435172915997
30
0
40
1.9999999999999538
210
-0
220
0
230
1
0
CIRCLE
5
137
100
AcDbEntity
8
0
100
AcDbCircle
10
40.923719734089588
20
138.8547553556661
30
0
40
7.4999999999998535
210
-0
220
0
230
1
0
CIRCLE
5
138
100
AcDbEntity
8
0
100
AcDbCircle
10
-0.019454025307368283
20
185.42359174340066
30
0
40
1.9999999999999538
210
-0
220
0
230
1
0
CIRCLE
5
139
100
AcDbEntity
8
0
100
AcDbCircle
10
16.948115609893186
20
136.42341517247527
30
0
40
1.9999999999999538
210
-0
220
0
230
1
0
CIRCLE
5
140
100
AcDbEntity
8
0
100
AcDbCircle
10
37.296954110944185
20
178.2482392218418
30
0
40
1.9999999999999538
210
-0
220
0
230
1
0
CIRCLE
5
141
100
AcDbEntity
8
0
100
AcDbCircle
10
3.367305347364038
20
139.03478925773683
30
0
40
1.9999999999999538
210
-0
220
0
230
1
0
CIRCLE
5
142
100
AcDbEntity
8
0
100
AcDbCircle
10
11.463397521259395
20
144.51950734637049
30
0
40
6.3499999999998913
210
-0
220
0
230
1
0
CIRCLE
5
143
100
AcDbEntity
8
0
100
AcDbCircle
10
5.9786794326256043
20
152.61559952026568
30
0
40
1.9999999999999538
210
-0
220
0
230
1
0
CIRCLE
5
144
100
AcDbEntity
8
0
100
AcDbCircle
10
50.858590997689603
20
145.58515898217226
30
0
40
1.9999999999999538
210
-0
220
0
230
1
0
LWPOLYLINE
5
145
100
AcDbEntity
8
0
100
AcDbPolyline
90
17
70
1
43
0.0
10
41.688845938305398
20
175.52169576357971
10
40.796537067987515
20
173.1833541811794
42
0.3153111716787681
10
44.992845962361976
20
156.49500560545994
10
51.396242526891484
20
150.95129479280365
42
-0.71702236381719875
10
39.960963055229861
20
122.88374726045527
10
9.9813258044389084
20
124.58675263726263
42
-0.4020995871413689
10
-5.1094003231703491
20
140.80432372138208
10
-5.1094003231686136
20
184.47946641161707
42
-0.47101323233251907
10
6.7788503403987761
20
194.29957381589321
10
8.7428718212544982
20
193.92192368317953
42
-0.41421356237309215
10
11.915614517537893
20
189.23858045604166
10
9.0832385221856633
20
174.50841934962685
42
0.41421356237312301
10
9.8764241962565364
20
173.3375835428424
10
23.624574562243946
20
170.69403261384704
42
0.41421356237308049
10
24.795410369028463
20
171.48721828791787
10
27.62778636438059
20
186.21737939433223
42
-0.18525013571190585
10
29.141022481941459
20
188.65092028290564
42
-0.63999058093103678
0
CIRCLE
5
146
100
AcDbEntity
8
0
100
AcDbCircle
10
58.196911842031085
20
192.07318702167868
30
0
40
1.9999999999999734
210
0
220
-0
230
1
0
CIRCLE
5
147
100
AcDbEntity
8
0
100
AcDbCircle
10
66.930504343748609
20
127.14457723020885
30
0
40
1.9999999999999822
210
0
220
-0
230
1
0
CIRCLE
5
148
100
AcDbEntity
8
0
100
AcDbCircle
10
52.987144069832439
20
185.92027553525537
30
0
40
1.9999999999999734
210
0
220
-0
230
1
0
CIRCLE
5
149
100
AcDbEntity
8
0
100
AcDbCircle
10
80.086201014873666
20
131.93285929138111
30
0
40
1.9999999999999822
210
0
220
-0
230
1
0
CIRCLE
5
150
100
AcDbEntity
8
0
100
AcDbCircle
10
72.140272096069708
20
133.29748877124501
30
0
40
1.9999999999999822
210
0
220
-0
230
1
0
CIRCLE
5
151
100
AcDbEntity
8
0
100
AcDbCircle
10
45.041215131151091
20
187.28490506973213
30
0
40
1.9999999999999734
210
0
220
-0
230
1
0
LWPOLYLINE
5
152
100
AcDbEntity
8
0
100
AcDbPolyline
90
18
70
1
43
0.0
10
42.092429888380067
20
186.7329398606694
42
-0.36700440918638844
10
44.015709622671324
20
190.10418484514952
10
57.170851412054084
20
194.89226488403634
42
-0.33675353888302278
10
60.637570901096332
20
193.8176592505784
10
77.430578653668292
20
170.32287049941587
42
-0.13857342649979548
10
80.83921062945933
20
160.95773111469921
10
83.077179458797644
20
132.16534143689347
42
-0.33675353888302489
10
81.11226144485066
20
129.11378142902339
10
67.957119655467963
20
124.32570139013652
42
-0.36700440918638938
10
64.316807397209033
20
125.67196449372659
10
58.102488715864631
20
136.70157557875169
10
58.016983649234945
20
136.93649878817621
42
-0.41421356244967927
10
61.005346036088937
20
143.34506260996261
10
67.608505197004547
20
145.74841599665811
42
0.99999999999999989
10
57.518910968897544
20
173.46934830984222
10
50.915751807981835
20
171.06599492314669
42
-0.41421356237309448
10
44.507187987424032
20
174.05435731044778
10
44.421682939881137
20
174.28928052821064
0
CIRCLE
5
153
100
AcDbEntity
8
0
100
AcDbCircle
10
68.798981855510974
20
157.03070235109524
30
0
40
1.4499999999999744
210
0
220
-0
230
1
0
CIRCLE
5
154
100
AcDbEntity
8
0
100
AcDbCircle
10
54.798981855511201
20
157.0307023510947
30
0
40
1.4499999999999744
210
0
220
-0
230
1
0
LWPOLYLINE
5
155
100
AcDbEntity
8
0
100
AcDbPolyline
90
8
70
1
43
0.0
10
54.798981855511315
20
154.03070235109476
42
-0.99999999999999989
10
54.79898185551108
20
160.0307023510947
10
58.436040434671234
20
160.03070235109482
42
-0.26596256268036855
10
59.29833310668144
20
159.53711260750515
42
0.57241556099401869
10
64.29963060434055
20
159.53711260750532
42
-0.26596256268036372
10
65.161923276350691
20
160.03070235109507
10
68.798981855510831
20
160.03070235109527
42
-0.99999999999999989
10
68.798981855511101
20
154.03070235109527
0
CIRCLE
5
156
100
AcDbEntity
8
0
100
AcDbCircle
10
66.890333899562251
20
166.99924828500698
30
0
40
1.4499999999999738
210
0
220
-0
230
1
0
CIRCLE
5
157
100
AcDbEntity
8
0
100
AcDbCircle
10
52.890333899562556
20
166.99924828500656
30
0
40
1.4499999999999738
210
0
220
-0
230
1
0
LWPOLYLINE
5
158
100
AcDbEntity
8
0
100
AcDbPolyline
90
8
70
1
43
0.0
10
52.890333899562734
20
163.99924828500659
42
-0.99999999999999989
10
52.890333899562378
20
169.99924828500653
10
56.527392478722554
20
169.99924828500664
42
-0.26596256268037499
10
57.38968515073276
20
169.50565854141695
42
0.57241556099401247
10
62.39098264839182
20
169.50565854141703
42
-0.26596256268037138
10
63.25327532040199
20
169.99924828500681
10
66.890333899562137
20
169.99924828500698
42
-0.99999999999999989
10
66.890333899562378
20
163.99924828500698
0
CIRCLE
5
159
100
AcDbEntity
8
0
100
AcDbCircle
10
11.911270569438308
20
117.68017631912636
30
0
40
1.4499999999999749
210
0
220
-0
230
1
0
CIRCLE
5
160
100
AcDbEntity
8
0
100
AcDbCircle
10
-2.0887294305613402
20
117.68017631912657
30
0
40
1.4499999999999749
210
0
220
-0
230
1
0
LWPOLYLINE
5
161
100
AcDbEntity
8
0
100
AcDbPolyline
90
8
70
1
43
0.0
10
-2.0887294305613171
20
114.6801763191266
42
-0.99999999999999989
10
-2.0887294305613633
20
120.68017631912655
10
1.5483291485987905
20
120.68017631912646
42
-0.26596256268036761
10
2.4106218206089549
20
120.18658657553678
42
0.57241556099401303
10
7.4119193182680316
20
120.18658657553667
42
-0.26596256268036855
10
8.2742119902782143
20
120.68017631912639
10
11.911270569438308
20
120.6801763191263
42
-0.99999999999999989
10
11.911270569438308
20
114.68017631912643
0
CIRCLE
5
162
100
AcDbEntity
8
0
100
AcDbCircle
10
29.843206689863102
20
109.42144903721464
30
0
40
7.8999999999997232
210
-0
220
0
230
1
0
LWPOLYLINE
5
163
100
AcDbEntity
8
0
100
AcDbPolyline
90
46
70
1
43
0.0
10
2.8432066835092078
20
93.421008653915791
10
2.8432066786023924
20
88.421008653915081
10
-5.1567933213973234
20
88.421008661766805
10
-5.1567933213436579
20
97.080746567185287
42
-0.26133394115039593
10
-0.36940249034894457
20
105.61472017254391
10
23.327445231509504
20
120.08891605044559
42
-0.13794914841695258
10
29.843306550214944
20
121.92144903123722
10
60.048340763417229
20
121.92144901967342
42
-0.41421356237309825
10
68.048340760354179
20
113.92144901661085
10
68.048340759962315
20
112.89794902268872
42
-0.41421356238223117
10
67.048340759627166
20
111.89794902315049
10
65.554378728390773
20
111.89794902370789
42
4.8197718849639779
10
65.554378726609656
20
106.94494902364305
10
67.048340119868826
20
106.9449490230498
42
-0.55292640658516423
10
67.948981797862757
20
105.51038652255498
42
-0.0065835751638308512
10
67.843189678339627
20
105.29831039244401
42
0.119532668589132
10
64.843138645161361
20
92.929260687505149
10
64.843077493011819
20
88.420468762295329
10
56.842871170582768
20
88.420577267732412
10
56.842951054403656
20
93.420577268347301
10
58.342951054284015
20
93.420553303200307
10
58.342998984749677
20
96.420553303346637
10
56.843003427316091
20
96.420577268461216
10
56.843051357705207
20
99.420577268583074
10
52.843046794738783
20
99.420641175712092
10
52.842998864495641
20
96.420641175573564
10
51.342998984352008
20
96.420665140789083
10
51.342951054181569
20
93.420671903931179
10
52.842951054355552
20
93.42064793873692
10
52.84287117059219
20
88.42064793854135
10
49.842871170592289
20
88.420627214660655
10
49.842686606770208
20
82.071882625952128
10
49.842686597964445
20
59.071882625953208
10
9.8432067034230322
20
59.071882641266967
10
9.8432067122288007
20
82.071882641265887
10
9.8432066707966506
20
88.421015423313079
10
6.8432066707967607
20
88.421015426036845
10
6.8432066753364911
20
93.421015426036632
10
8.3432066753364449
20
93.421015424673584
10
8.3432074037243904
20
96.421007556678688
10
6.843206743328432
20
96.421008745289626
10
6.8432068093866931
20
99.421008649949286
10
2.8432022468255465
20
99.421008653897673
10
2.8432022438810933
20
96.4210086538978
10
1.343206686467175
20
96.421008655368183
10
1.3432066835109224
20
93.421008655385577
0
CIRCLE
5
164
100
AcDbEntity
8
0
100
AcDbCircle
10
0.89002800096229961
20
80.165130957574164
30
0
40
1.4500000000000086
210
0
220
-0
230
1
0
CIRCLE
5
165
100
AcDbEntity
8
0
100
AcDbCircle
10
0.89002800096206869
20
66.165130957574291
30
0
40
1.4500000000000086
210
0
220
-0
230
1
0
LWPOLYLINE
5
166
100
AcDbEntity
8
0
100
AcDbPolyline
90
8
70
1
43
0.0
10
3.8900280009621024
20
66.165130957574235
42
-0.99999999999999989
10
-2.1099719990379651
20
66.165130957574377
10
-2.1099719990378762
20
69.802189536734517
42
-0.2659625626803645
10
-1.6163822554481755
20
70.664482208744715
42
0.57241556099402147
10
-1.6163822554480762
20
75.665779706403839
42
-0.26596256268036733
10
-2.1099719990378025
20
76.528072378414066
10
-2.1099719990377226
20
80.165130957574206
42
-0.99999999999999989
10
3.8900280009623218
20
80.165130957574107
0
CIRCLE
5
167
100
AcDbEntity
8
0
100
AcDbCircle
10
68.414076497488949
20
71.458924662692425
30
0
40
2.0000000000000879
210
-0
220
0
230
1
0
CIRCLE
5
168
100
AcDbEntity
8
0
100
AcDbCircle
10
68.414076497488139
20
15.458924662693914
30
0
40
2.0000000000000879
210
-0
220
0
230
1
0
LWPOLYLINE
5
169
100
AcDbEntity
8
0
100
AcDbPolyline
90
18
70
1
43
0.0
10
51.700260602949506
20
61.399837424225574
42
-0.24415668870719537
10
53.826167376970645
20
65.488603311444876
10
66.402211726724246
20
74.322907928034297
42
-0.32533902662013403
10
70.520428718550363
20
74.254149219116073
42
-0.4324459281885536
10
70.823835236341523
20
12.920605766156365
42
-0.35706075610204219
10
66.402211726723351
20
12.594941397352532
10
53.826167376970119
20
21.429246013941707
42
-0.2441566887071949
10
51.700260602948731
20
25.518011901161127
10
51.699104388334121
20
27.708826454311883
42
-0.41424232723482468
10
52.699104383511674
20
28.708924662693917
10
65.629162755692064
20
28.708924662693533
42
0.20490555801050467
10
76.727216865691275
20
32.265050517891375
42
0.21629169446413893
10
77.761905374211423
20
34.518350204230444
10
77.838572023968055
20
51.756163510233065
42
0.21499070566861594
10
76.836206123148372
20
54.009157613175077
42
0.17849239172875994
10
66.178961916046788
20
58.208924662692795
10
52.699104383512093
20
58.208924662693036
42
-0.41424232723482607
10
51.699104388334547
20
59.209022871075156
0
CIRCLE
5
170
100
AcDbEntity
8
0
100
AcDbCircle
10
57.763098746256681
20
34.95516829324756
30
0
40
1.4500000000000002
210
0
220
-0
230
1
0
CIRCLE
5
171
100
AcDbEntity
8
0
100
AcDbCircle
10
57.763098746255544
20
48.95516829324751
30
0
40
1.4500000000000002
210
0
220
-0
230
1
0
LWPOLYLINE
5
172
100
AcDbEntity
8
0
100
AcDbPolyline
90
8
70
1
43
0.0
10
54.76309874625553
20
48.955168293247304
42
-0.99999999999999989
10
60.763098746255565
20
48.955168293247709
10
60.763098746255892
20
45.318109714087562
42
-0.26596256268037594
10
60.269509002666204
20
44.455817042077292
42
0.57241556099401691
10
60.269509002666616
20
39.454519544418147
42
-0.26596256268036872
10
60.763098746256418
20
38.592226872407977
10
60.763098746256702
20
34.955168293247795
42
-0.99999999999999989
10
54.763098746256667
20
34.955168293247326
0
CIRCLE
5
173
100
AcDbEntity
8
0
100
AcDbCircle
10
68.169579047838923
20
34.65018565406951
30
0
40
1.4499999999999835
210
-0
220
0
230
1
0
CIRCLE
5
174
100
AcDbEntity
8
0
100
AcDbCircle
10
68.169579047839036
20
48.650185654069247
30
0
40
1.4499999999999835
210
-0
220
0
230
1
0
LWPOLYLINE
5
175
100
AcDbEntity
8
0
100
AcDbPolyline
90
8
70
1
43
0.0
10
65.169579047839065
20
48.65018565406919
42
-0.99999999999999989
10
71.169579047839022
20
48.650185654069311
10
71.169579047838994
20
45.013127074909143
42
-0.26596256268036716
10
70.675989304249285
20
44.150834402898944
42
0.57241556099401558
10
70.6759893042492
20
39.149536905239856
42
-0.26596256268037116
10
71.169579047838937
20
38.287244233229664
10
71.16957904783888
20
34.650185654069531
42
-0.99999999999999989
10
65.169579047838951
20
34.650185654069496
0
ENDSEC
0
SECTION
2
OBJECTS
0
DICTIONARY
5
C
100
AcDbDictionary
3
ACAD_GROUP
350
D
3
ACAD_MLINESTYLE
350
17
0
DICTIONARY
5
D
100
AcDbDictionary
0
DICTIONARY
5
1A
330
C
100
AcDbDictionary
0
DICTIONARY
5
17
100
AcDbDictionary
0
ENDSEC
0
EOF
