0
SECTION
2
HEADER
9
$INSUNITS
70
4
9
$ACADVER
1
AC1014
9
$HANDSEED
5
FFFF
0
ENDSEC
0
SECTION
2
TABLES
0
TABLE
2
VPORT
5
8
100
AcDbSymbolTable
0
ENDTAB
0
TABLE
2
LTYPE
5
5
100
AcDbSymbolTable
0
LTYPE
5
14
100
AcDbSymbolTableRecord
100
AcDbLinetypeTableRecord
2
BYBLOCK
70
0
0
LTYPE
5
15
100
AcDbSymbolTableRecord
100
AcDbLinetypeTableRecord
2
BYLAYER
70
0
0
ENDTAB
0
TABLE
2
LAYER
5
2
100
AcDbSymbolTable
70
2
0
LAYER
5
50
100
AcDbSymbolTableRecord
100
AcDbLayerTableRecord
2
0
70
0
6
CONTINUOUS
0
ENDTAB
0
TABLE
2
STYLE
5
3
100
AcDbSymbolTable
70
1
0
STYLE
5
11
100
AcDbSymbolTableRecord
100
AcDbTextStyleTableRecord
2
STANDARD
70
0
0
ENDTAB
0
TABLE
2
VIEW
5
6
100
AcDbSymbolTable
70
0
0
ENDTAB
0
TABLE
2
UCS
5
7
100
AcDbSymbolTable
70
0
0
ENDTAB
0
TABLE
2
APPID
5
9
100
AcDbSymbolTable
70
2
0
APPID
5
12
100
AcDbSymbolTableRecord
100
AcDbRegAppTableRecord
2
ACAD
70
0
0
ENDTAB
0
TABLE
2
DIMSTYLE
5
A
100
AcDbSymbolTable
70
1
0
ENDTAB
0
TABLE
2
BLOCK_RECORD
5
1
100
AcDbSymbolTable
70
1
0
BLOCK_RECORD
5
1F
100
AcDbSymbolTableRecord
100
AcDbBlockTableRecord
2
*MODEL_SPACE
0
BLOCK_RECORD
5
1B
100
AcDbSymbolTableRecord
100
AcDbBlockTableRecord
2
*PAPER_SPACE
0
ENDTAB
0
ENDSEC
0
SECTION
2
BLOCKS
0
BLOCK
5
20
100
AcDbEntity
100
AcDbBlockBegin
2
*MODEL_SPACE
0
ENDBLK
5
21
100
AcDbEntity
100
AcDbBlockEnd
0
BLOCK
5
1C
100
AcDbEntity
100
AcDbBlockBegin
2
*PAPER_SPACE
0
ENDBLK
5
1D
100
AcDbEntity
100
AcDbBlockEnd
0
ENDSEC
0
SECTION
2
ENTITIES
0
CIRCLE
5
100
100
AcDbEntity
8
0
100
AcDbCircle
10
-71.804383613752833
20
19.962890723296418
30
0
40
1.4999999999999838
210
0
220
-0
230
1
0
LWPOLYLINE
5
101
100
AcDbEntity
8
0
100
AcDbPolyline
90
4
70
1
43
0.0
10
-61.804383613751668
20
259.4628907232958
10
-21.804383613751952
20
259.46289072329438
10
-21.804383613751742
20
265.81289072329434
10
-61.804383613751462
20
265.81289072329577
0
CIRCLE
5
102
100
AcDbEntity
8
0
100
AcDbCircle
10
-41.804383613751632
20
253.31289041355956
30
0
40
1.9999999999999905
210
0
220
-0
230
1
0
CIRCLE
5
103
100
AcDbEntity
8
0
100
AcDbCircle
10
-40.904383613750497
20
102.31289044406108
30
0
40
1.4999999999999838
210
0
220
-0
230
1
0
CIRCLE
5
104
100
AcDbEntity
8
0
100
AcDbCircle
10
-71.804383613752066
20
44.962890723296383
30
0
40
1.4999999999999838
210
0
220
-0
230
1
0
CIRCLE
5
105
100
AcDbEntity
8
0
100
AcDbCircle
10
-11.244795613752636
20
44.962890723294251
30
0
40
1.4999999999999838
210
0
220
-0
230
1
0
CIRCLE
5
106
100
AcDbEntity
8
0
100
AcDbCircle
10
-49.204383613752434
20
244.31289041355981
30
0
40
1.9999999999999905
210
0
220
-0
230
1
0
CIRCLE
5
107
100
AcDbEntity
8
0
100
AcDbCircle
10
46.979616386247258
20
53.126890723292171
30
0
40
1.5000000000000193
210
0
220
-0
230
1
0
CIRCLE
5
108
100
AcDbEntity
8
0
100
AcDbCircle
10
-16.804383613751632
20
74.137889864647235
30
0
40
1.9999999999999905
210
0
220
-0
230
1
0
CIRCLE
5
109
100
AcDbEntity
8
0
100
AcDbCircle
10
-66.80438361375127
20
74.137890723296138
30
0
40
2.0000000000000258
210
0
220
-0
230
1
0
CIRCLE
5
110
100
AcDbEntity
8
0
100
AcDbCircle
10
-66.804383613751497
20
262.63789072329592
30
0
40
2.0000000000000258
210
0
220
-0
230
1
0
CIRCLE
5
111
100
AcDbEntity
8
0
100
AcDbCircle
10
46.979616386245979
20
14.772890723292207
30
0
40
1.5000000000000193
210
0
220
-0
230
1
0
CIRCLE
5
112
100
AcDbEntity
8
0
100
AcDbCircle
10
7.6096163862474597
20
51.602890723293555
30
0
40
1.5000000000000193
210
0
220
-0
230
1
0
CIRCLE
5
113
100
AcDbEntity
8
0
100
AcDbCircle
10
-49.204383613750444
20
102.3128904440614
30
0
40
1.9999999999999905
210
0
220
-0
230
1
0
CIRCLE
5
114
100
AcDbEntity
8
0
100
AcDbCircle
10
-16.804383613752023
20
62.137889864647278
30
0
40
2.7499999999999822
210
0
220
-0
230
1
0
CIRCLE
5
115
100
AcDbEntity
8
0
100
AcDbCircle
10
-11.244795613753453
20
19.962890723294286
30
0
40
1.4999999999999838
210
0
220
-0
230
1
0
CIRCLE
5
116
100
AcDbEntity
8
0
100
AcDbCircle
10
-41.804383613751597
20
93.312890444061168
30
0
40
1.9999999999999905
210
0
220
-0
230
1
0
CIRCLE
5
117
100
AcDbEntity
8
0
100
AcDbCircle
10
-16.804383613751881
20
262.63789072329422
30
0
40
1.9999999999999905
210
0
220
-0
230
1
0
CIRCLE
5
118
100
AcDbEntity
8
0
100
AcDbCircle
10
14.721616386246232
20
14.772890723293344
30
0
40
1.5000000000000193
210
0
220
-0
230
1
0
LWPOLYLINE
5
119
100
AcDbEntity
8
0
100
AcDbPolyline
90
4
70
1
43
0.0
10
-61.804383477441014
20
77.312890714535698
10
-61.804383613751419
20
70.96289072329597
10
-21.8043836137517
20
70.962889864647437
10
-21.804383477441295
20
77.312889855887164
0
CIRCLE
5
120
100
AcDbEntity
8
0
100
AcDbCircle
10
-40.904383613752486
20
244.31289041355953
30
0
40
1.4999934339541789
210
0
220
-0
230
1
0
LWPOLYLINE
5
121
100
AcDbEntity
8
0
100
AcDbPolyline
90
11
70
1
43
0.0
10
48.535616386245962
20
10.962890723292219
10
-76.804383613753259
20
10.96289072329661
10
-76.804383613744818
20
268.63789072329627
42
-0.4142135623730937
10
-72.804383613744704
20
272.6378907232961
10
-10.804383613745188
20
272.63789072329394
42
-0.41421356237309509
10
-6.8043836137453884
20
268.63789072329388
10
-6.8043836137521367
20
61.698890723294106
42
0.41421356237310225
10
-2.8043836137523037
20
57.698890723294028
10
48.535616386247398
20
57.69889072329218
42
-0.4142135623730977
10
50.535616386247291
20
55.698890723292124
10
50.53561638624592
20
12.962890723292029
42
-0.41421356237309892
0
CIRCLE
5
122
100
AcDbEntity
8
0
100
AcDbCircle
10
58.336082387106423
20
43.764782706372927
30
0
40
1.4500000000000024
210
0
220
-0
230
1
0
CIRCLE
5
123
100
AcDbEntity
8
0
100
AcDbCircle
10
58.336082387106636
20
57.764782706372827
30
0
40
1.4500000000000024
210
0
220
-0
230
1
0
LWPOLYLINE
5
124
100
AcDbEntity
8
0
100
AcDbPolyline
90
4
70
1
43
0.0
10
55.867102704055014
20
53.416893641012734
42
-0.58212620356591283
10
55.867102562933901
20
48.112671691596546
42
1.7392220739119317
10
63.336082387106444
20
43.764782453914002
10
63.336082387106678
20
57.764782706372756
42
1.7392221573772892
0
CIRCLE
5
125
100
AcDbEntity
8
0
100
AcDbCircle
10
57.040506867183694
20
30.890371316472596
30
0
40
1.4499999999999924
210
0
220
-0
230
1
0
CIRCLE
5
126
100
AcDbEntity
8
0
100
AcDbCircle
10
57.040506867184874
20
16.890371316472663
30
0
40
1.4499999999999924
210
0
220
-0
230
1
0
LWPOLYLINE
5
127
100
AcDbEntity
8
0
100
AcDbPolyline
90
4
70
1
43
0.0
10
59.50948655023609
20
21.238260381832966
42
-0.58212620356591471
10
59.509486691356621
20
26.542482331249197
42
1.7392220739119306
10
52.040506867183716
20
30.890371568931073
10
52.040506867184895
20
16.890371316472265
42
1.7392221573772877
0
CIRCLE
5
128
100
AcDbEntity
8
0
100
AcDbCircle
10
75.466048307051295
20
56.633923912029651
30
0
40
1.5000000000000195
210
0
220
-0
230
1
0
CIRCLE
5
129
100
AcDbEntity
8
0
100
AcDbCircle
10
75.466048307053725
20
18.633923912030159
30
0
40
1.5000000000000195
210
0
220
-0
230
1
0
LWPOLYLINE
5
130
100
AcDbEntity
8
0
100
AcDbPolyline
90
6
70
1
43
0.0
10
65.466048307053256
20
23.63392391202941
10
65.466048307051523
20
51.633923912029033
42
-0.8478333890031543
10
84.930827707444251
20
54.861608980605112
10
89.271288189226524
20
41.991232640074386
42
-0.15406758962260203
10
89.271288189227192
20
33.276615183987545
10
84.930827707446525
20
20.406238843455991
42
-0.84783338900315441
0
CIRCLE
5
131
100
AcDbEntity
8
0
100
AcDbCircle
10
16.856436163028164
20
102.19131703588388
30
0
40
1.9999999999999614
210
0
220
-0
230
1
0
CIRCLE
5
132
100
AcDbEntity
8
0
100
AcDbCircle
10
64.356436163082805
20
115.69131703562498
30
0
40
1.9999999999999702
210
0
220
-0
230
1
0
CIRCLE
5
133
100
AcDbEntity
8
0
100
AcDbCircle
10
16.856436162859598
20
71.191317035884381
30
0
40
1.9999999999999614
210
0
220
-0
230
1
0
CIRCLE
5
134
100
AcDbEntity
8
0
100
AcDbCircle
10
32.356436162925931
20
86.691317035799713
30
0
40
11.249999999999822
210
0
220
-0
230
1
0
CIRCLE
5
135
100
AcDbEntity
8
0
100
AcDbCircle
10
47.85643616285887
20
71.191317035715599
30
0
40
1.9999999999999614
210
0
220
-0
230
1
0
CIRCLE
5
136
100
AcDbEntity
8
0
100
AcDbCircle
10
47.856436163027425
20
102.19131703571509
30
0
40
1.9999999999999614
210
0
220
-0
230
1
0
CIRCLE
5
137
100
AcDbEntity
8
0
100
AcDbCircle
10
0.35643616316050952
20
129.69131703597321
30
0
40
1.9999999999999702
210
0
220
-0
230
1
0
LWPOLYLINE
5
138
100
AcDbEntity
8
0
100
AcDbPolyline
90
3
70
1
43
0.0
10
69.356435840067519
20
115.69311429788243
10
69.356435842731585
20
115.80853703529179
10
69.350943610593788
20
115.92561461725174
42
-0.011629831772136832
0
CIRCLE
5
139
100
AcDbEntity
8
0
100
AcDbCircle
10
64.356436163158946
20
129.69131703562479
30
0
40
1.9999999999999702
210
0
220
-0
230
1
0
CIRCLE
5
140
100
AcDbEntity
8
0
100
AcDbCircle
10
0.35643616308436599
20
115.69131703597343
30
0
40
1.9999999999999702
210
0
220
-0
230
1
0
LWPOLYLINE
5
141
100
AcDbEntity
8
0
100
AcDbPolyline
90
53
70
1
43
0.0
10
69.559019150469709
20
89.173141035597212
10
68.065304232269185
20
89.17314103560534
42
4.8085069970032075
10
68.065304232242255
20
84.209493035605348
10
69.558998320437411
20
84.209493035597291
42
-0.55316768047883291
10
70.459318590120276
20
82.774265035592236
42
-0.0099167805022711605
10
70.297612633490246
20
82.456022917946257
42
0.12310562561768602
10
67.356436162838037
20
70.691317035609302
10
67.356436162810922
20
65.691317035597535
10
59.356436162816195
20
65.691317035641134
10
59.356436162841476
20
70.691317035641049
10
60.856436162841455
20
70.69131703563346
10
60.85643616285742
20
73.691317035637582
10
59.356436162854564
20
73.69131703564517
10
59.356436162869308
20
76.691317035645142
10
55.3564361628694
20
76.691317035664895
10
55.356436162856816
20
73.691317035666884
10
53.856436162856845
20
73.691317035674501
10
53.856436162841597
20
70.69131703567038
10
55.356436162841504
20
70.691317035662763
10
55.356436162816323
20
65.691317035662891
10
52.356436162816415
20
65.691317035679276
10
52.356436162779836
20
59.341317035679275
10
12.356436162780797
20
59.34131703589707
10
12.356436162812315
20
65.691317035896958
10
9.3564361628123862
20
65.6913170359134
10
9.3564361628396178
20
70.691317035913315
10
10.856436162841703
20
70.691317035905115
10
10.856436162859762
20
73.691317035903779
10
9.3564361628600672
20
73.691317035911894
10
9.3564361628763582
20
76.691317035914679
10
5.3564361628764576
20
76.691317035936478
10
5.3564361628600583
20
73.691317035933679
10
3.856436162860585
20
73.691317035943285
10
3.8564361628436887
20
70.691317035943342
10
5.3564361628436554
20
70.691317035935157
10
5.3564361628125265
20
65.691317035935242
10
-2.6435638371873962
20
65.691317035978869
10
-2.6435638370543204
20
90.173141035990128
10
-4.628039561067939
20
115.2976144129141
42
-0.019708260912565116
10
-4.6435638369210785
20
115.69132063982779
10
-4.6435638368394159
20
129.69131703600038
42
-0.41367061756557361
10
0.34716574198470462
20
134.69130844189488
10
2.3564393063755151
20
134.69131703595053
10
12.606436162944172
20
134.69131703589471
42
-0.41421356237309476
10
17.606436163160829
20
129.69131703562357
10
17.606436163122051
20
122.69131703587954
42
0.99999999999999989
10
47.106436163121316
20
122.69131703571878
10
47.10643616315933
20
129.69131703571452
42
-0.41421356237309553
10
52.10643616317882
20
134.69131703567965
10
62.356436163308075
20
134.69131703562385
10
65.559024601955429
20
134.69131354399195
42
-0.41421324304699791
10
70.559019150690006
20
129.69131354396782
10
70.55901915047491
20
90.173141035591584
42
-0.41421356237307422
0
CIRCLE
5
142
100
AcDbEntity
8
0
100
AcDbCircle
10
24.811418874065048
20
118.37203682079448
30
0
40
1.4499999999999651
210
0
220
-0
230
1
0
CIRCLE
5
143
100
AcDbEntity
8
0
100
AcDbCircle
10
38.811418874064678
20
118.37203682079519
30
0
40
1.4499999999999651
210
0
220
-0
230
1
0
LWPOLYLINE
5
144
100
AcDbEntity
8
0
100
AcDbPolyline
90
4
70
1
43
0.0
10
34.463529808704507
20
120.84101650384646
42
-0.5821262035659106
10
29.159307859288404
20
120.84101664496721
42
1.7392220739119306
10
24.811418621606435
20
113.37203682079461
10
38.811418874064969
20
113.3720368207953
42
1.7392221573772859
0
CIRCLE
5
145
100
AcDbEntity
8
0
100
AcDbCircle
10
25.070546555327144
20
130.86965433145733
30
0
40
1.4499999999999946
210
0
220
-0
230
1
0
CIRCLE
5
146
100
AcDbEntity
8
0
100
AcDbCircle
10
39.070546555327127
20
130.86965433145767
30
0
40
1.4499999999999946
210
0
220
-0
230
1
0
LWPOLYLINE
5
147
100
AcDbEntity
8
0
100
AcDbPolyline
90
4
70
1
43
0.0
10
34.722657489966885
20
133.3386340145091
42
-0.58212620356592759
10
29.418435540550654
20
133.33863415562993
42
1.7392220739119322
10
25.07054630286834
20
125.86965433145743
10
39.070546555327368
20
125.86965433145777
42
1.7392221573772733
0
CIRCLE
5
148
100
AcDbEntity
8
0
100
AcDbCircle
10
2.7029805528188433
20
157.39013421210595
30
0
40
1.4499999999999813
210
-0
220
0
230
1
0
CIRCLE
5
149
100
AcDbEntity
8
0
100
AcDbCircle
10
2.7029805528188433
20
143.39013421210615
30
0
40
1.4499999999999813
210
-0
220
0
230
1
0
LWPOLYLINE
5
150
100
AcDbEntity
8
0
100
AcDbPolyline
90
4
70
1
43
0.0
10
5.1719602358703529
20
147.73802327746625
42
-0.58212620356591127
10
5.171960376991378
20
153.04224522688244
42
1.7392220739119288
10
-2.2970194471811016
20
157.39013446456482
10
-2.29701944718113
20
143.39013421210612
42
1.739222157377291
0
CIRCLE
5
151
100
AcDbEntity
8
0
100
AcDbCircle
10
21.109561548483526
20
173.43528791844432
30
0
40
1.9999999999999309
210
0
220
-0
230
1
0
CIRCLE
5
152
100
AcDbEntity
8
0
100
AcDbCircle
10
35.276277503146005
20
177.29900178106274
30
0
40
1.9999999999999309
210
0
220
-0
230
1
0
CIRCLE
5
153
100
AcDbEntity
8
0
100
AcDbCircle
10
1.6646881160081861
20
187.50287112221358
30
0
40
1.9999999999999309
210
0
220
-0
230
1
0
CIRCLE
5
154
100
AcDbEntity
8
0
100
AcDbCircle
10
18.420916434130596
20
190.1915162365666
30
0
40
1.9999999999999309
210
0
220
-0
230
1
0
CIRCLE
5
155
100
AcDbEntity
8
0
100
AcDbCircle
10
11.387124832245838
20
180.46907952032896
30
0
40
7.4999999999997691
210
0
220
-0
230
1
0
CIRCLE
5
156
100
AcDbEntity
8
0
100
AcDbCircle
10
65.788603181351078
20
150.71207776558964
30
0
40
1.9999999999999309
210
0
220
-0
230
1
0
CIRCLE
5
157
100
AcDbEntity
8
0
100
AcDbCircle
10
33.085255788707855
20
190.95393150797261
30
0
40
1.9999999999999309
210
0
220
-0
230
1
0
CIRCLE
5
158
100
AcDbEntity
8
0
100
AcDbCircle
10
28.268534723645438
20
144.69174032247301
30
0
40
1.9999999999999309
210
0
220
-0
230
1
0
CIRCLE
5
159
100
AcDbEntity
8
0
100
AcDbCircle
10
46.74018551561781
20
193.14495322241086
30
0
40
1.9999999999999309
210
0
220
-0
230
1
0
CIRCLE
5
160
100
AcDbEntity
8
0
100
AcDbCircle
10
41.008231509381901
20
185.22197750173683
30
0
40
6.3499999999998202
210
0
220
-0
230
1
0
CIRCLE
5
161
100
AcDbEntity
8
0
100
AcDbCircle
10
48.931207230055946
20
179.49002349550099
30
0
40
1.9999999999999309
210
0
220
-0
230
1
0
CIRCLE
5
162
100
AcDbEntity
8
0
100
AcDbCircle
10
4.3533332303611161
20
170.74664280409124
30
0
40
1.9999999999999309
210
0
220
-0
230
1
0
LWPOLYLINE
5
163
100
AcDbEntity
8
0
100
AcDbPolyline
90
17
70
1
43
0.0
10
23.208973597805649
20
145.75173761818866
10
23.247709735548021
20
148.25424755576398
42
0.31531117167877154
10
13.596717861228582
20
162.500943395977
10
5.6834325948734099
20
165.52023692762913
42
-0.71702236381720075
10
6.829413701201914
20
195.80620015120158
10
35.583519742667498
20
204.45953839482624
42
-0.40209958714136851
10
55.310899713668462
20
194.38133883306347
10
70.248678276353658
20
153.34012953527866
42
-0.4710132323325199
10
62.436051395631331
20
140.04622587630973
10
60.461310950488581
20
139.7293660108825
42
-0.4142135623730952
10
55.878110329349425
20
143.0451271703129
10
53.501661338645604
20
157.85568050888085
42
0.41421356237311857
10
52.355861183360787
20
158.68462079873842
10
38.532678067363946
20
156.4666017407481
42
0.41421356237311785
10
37.703737777506333
20
155.32080158546333
10
40.080186768210154
20
140.51024824689571
42
-0.18525013571190538
10
39.490529958530388
20
137.70591059770879
42
-0.63999058093103456
0
CIRCLE
5
164
100
AcDbEntity
8
0
100
AcDbCircle
10
1.3587025480193837
20
207.12332157813793
30
0
40
1.44999999999996
210
0
220
-0
230
1
0
CIRCLE
5
165
100
AcDbEntity
8
0
100
AcDbCircle
10
1.3587025480199166
20
221.12332157813745
30
0
40
1.44999999999996
210
0
220
-0
230
1
0
LWPOLYLINE
5
166
100
AcDbEntity
8
0
100
AcDbPolyline
90
4
70
1
43
0.0
10
-1.1102771350317213
20
216.77543251277757
42
-0.5821262035659075
10
-1.1102772761529545
20
211.4712105633615
42
1.7392220739119371
10
6.3587025480192541
20
207.12332132567892
10
6.3587025480197941
20
221.12332157813734
42
1.7392221573772795
0
LWPOLYLINE
5
167
100
AcDbEntity
8
0
100
AcDbPolyline
90
44
70
1
43
0.0
10
65.452447267297089
20
254.14722349751031
42
-4.8197718851595104
10
65.452447269092914
20
259.10022349739074
10
66.946409303618722
20
259.10022349683334
42
0.41421356237019702
10
67.946409303912787
20
260.10022349637154
10
67.946409304304638
20
261.12372338830886
42
0.41421356237309437
10
59.946409307367801
20
269.12372339137102
10
29.741374897961329
20
269.12372340293484
42
0.1379491179050534
10
23.225514938377007
20
267.29119111695235
10
-0.47133397992477177
20
252.81699435038902
42
0.26133394009593486
10
-5.2587247695123374
20
244.28302076128375
10
-5.258724769512698
20
235.62328821675641
10
2.7412752304870369
20
235.62328821675621
10
2.7412752304872088
20
240.62328821675686
10
1.2412752304889296
20
240.62328821675689
10
1.2412752304890349
20
243.62328821673947
10
2.7412700075295304
20
243.62328821673907
10
2.7412700075297107
20
246.6232882167389
10
6.7412745700908463
20
246.62328821673879
10
6.7412745700907264
20
243.62328831207915
10
8.2412752304871422
20
243.62328831207913
10
8.2412752304870036
20
240.62329618007394
10
6.7412752304870533
20
240.62329618007402
10
6.741275230486873
20
235.62329618007394
10
9.7412752304867531
20
235.62329618007385
10
9.7412752192498964
20
206.2732961800757
10
49.741275219248408
20
206.27329616476192
10
49.740940338036509
20
235.62292940758454
10
52.740940338036424
20
235.62292940643607
10
52.741020072013441
20
240.62292940580335
10
51.241020072205245
20
240.62295332599703
10
51.241067912466306
20
243.62294545762026
10
52.741068572673313
20
243.62292153741595
10
52.741116413058563
20
246.62292144169379
10
56.741120975110569
20
246.62285765443767
10
56.74107313472382
20
243.62285765482102
10
58.241067911572777
20
243.62283373471013
10
58.241020071186128
20
240.622833735109
10
56.741020071377683
20
240.62285765530464
10
56.740940337399465
20
235.62285765593927
10
64.741146259401305
20
235.6227492686703
10
64.7412073445918
20
240.1315350718684
42
-0.11953266987919089
10
67.741258258584025
20
252.50058494313149
42
0.0065835727754586246
10
67.847050338706069
20
252.71266099682316
42
0.55292640649822611
10
66.946408660483314
20
254.14722349698692
0
CIRCLE
5
168
100
AcDbEntity
8
0
100
AcDbCircle
10
29.74127523048697
20
256.62372351100635
30
0
40
7.8999999999996984
210
-0
220
0
230
1
0
CIRCLE
5
169
100
AcDbEntity
8
0
100
AcDbCircle
10
64.489222574335656
20
225.22853017910776
30
0
40
1.9999999999999953
210
-0
220
0
230
1
0
CIRCLE
5
170
100
AcDbEntity
8
0
100
AcDbCircle
10
91.588279877448684
20
171.24111295142757
30
0
40
1.9999999999999865
210
-0
220
0
230
1
0
CIRCLE
5
171
100
AcDbEntity
8
0
100
AcDbCircle
10
78.432582828371096
20
166.45283192867339
30
0
40
1.9999999999999865
210
-0
220
0
230
1
0
CIRCLE
5
172
100
AcDbEntity
8
0
100
AcDbCircle
10
83.642350600569912
20
172.60574341509647
30
0
40
1.9999999999999865
210
-0
220
0
230
1
0
CIRCLE
5
173
100
AcDbEntity
8
0
100
AcDbCircle
10
56.543293655531919
20
226.59315965897207
30
0
40
1.9999999999999953
210
-0
220
0
230
1
0
CIRCLE
5
174
100
AcDbEntity
8
0
100
AcDbCircle
10
69.698989988458493
20
231.38144264933504
30
0
40
1.9999999999999953
210
-0
220
0
230
1
0
ARC
5
175
100
AcDbEntity
8
0
100
AcDbCircle
10
56.543293655531919
20
226.59315965897207
30
0
40
5.0000000000001164
210
0
220
0
230
1
100
AcDbArc
50
109.99999999999946
51
188.47403990631398
0
LINE
5
176
100
AcDbEntity
8
0
100
AcDbLine
10
51.597879992148691
20
225.85635324068804
30
0
11
56.005733102785399
21
196.27102871231318
31
0
0
ARC
5
177
100
AcDbEntity
8
0
100
AcDbCircle
10
74.065786587452777
20
198.9171367971021
30
0
40
18.252874290517425
210
0
220
0
230
1
100
AcDbArc
50
188.33550674127684
51
211.66449325871909
0
LINE
5
178
100
AcDbEntity
8
0
100
AcDbLine
10
58.530097482297307
20
189.33539458112747
30
0
11
74.170566136201202
21
163.83840776345761
31
0
0
ARC
5
179
100
AcDbEntity
8
0
100
AcDbCircle
10
78.432582828371096
20
166.45283192867339
30
0
40
4.9999999999998979
210
0
220
0
230
1
100
AcDbArc
50
211.52596009368008
51
289.99999999999437
0
LINE
5
180
100
AcDbEntity
8
0
100
AcDbLine
10
80.142683544999016
20
161.75436882474358
30
0
11
93.298380242718281
21
166.54264971961427
31
0
0
ARC
5
181
100
AcDbEntity
8
0
100
AcDbCircle
10
91.588279877448684
20
171.24111295142757
30
0
40
4.9999999999996625
210
-0
220
0
230
1
100
AcDbArc
50
-70.000004284670524
51
19.419650120682562
0
LINE
5
182
100
AcDbEntity
8
0
100
AcDbLine
10
96.303823301087149
20
172.90353594807448
30
0
11
92.215853092822755
21
184.49926162709608
31
0
0
ARC
5
183
100
AcDbEntity
8
0
100
AcDbCircle
10
87.516771083279821
20
182.79086229801976
30
0
40
4.9999999999998508
210
0
220
-0
230
1
100
AcDbArc
50
19.979253661716509
51
109.96585803072821
0
LINE
5
184
100
AcDbEntity
8
0
100
AcDbLine
10
85.809470436231834
20
187.4903435992475
30
0
11
79.102323496245702
21
185.05366695848025
31
0
0
ARC
5
185
100
AcDbEntity
8
0
100
AcDbCircle
10
74.065786587452777
20
198.9171367971021
30
0
40
14.750000000000401
210
0
220
0
230
1
100
AcDbArc
50
110.03414196925937
51
289.96585803073316
0
LINE
5
186
100
AcDbEntity
8
0
100
AcDbLine
10
69.012731059469857
20
212.77459435002766
30
0
11
75.716969255526564
21
215.21926269905947
31
0
0
ARC
5
187
100
AcDbEntity
8
0
100
AcDbCircle
10
74.00406907654876
20
219.91670593733897
30
0
40
4.9999999999999947
210
-0
220
0
230
1
100
AcDbArc
50
-69.965858030733457
51
20.020746338278112
0
LINE
5
188
100
AcDbEntity
8
0
100
AcDbLine
10
78.701912658846737
20
221.62850781730657
30
0
11
74.379890728725726
21
233.13904563629367
31
0
0
ARC
5
189
100
AcDbEntity
8
0
100
AcDbCircle
10
69.698989988458493
20
231.38144264933504
30
0
40
5.0000000000000249
210
0
220
-0
230
1
100
AcDbArc
50
20.580349879311992
51
109.99999999999589
0
LINE
5
190
100
AcDbEntity
8
0
100
AcDbLine
10
67.988888920472164
20
236.07990562538035
30
0
11
54.833192938903579
21
231.29162276290174
31
0
0
CIRCLE
5
191
100
AcDbEntity
8
0
100
AcDbCircle
10
82.383409863011792
20
251.68827048342493
30
0
40
2.000000000000087
210
-0
220
0
230
1
0
CIRCLE
5
192
100
AcDbEntity
8
0
100
AcDbCircle
10
82.383409863011536
20
195.68827048342553
30
0
40
2.000000000000087
210
-0
220
0
230
1
0
LWPOLYLINE
5
193
100
AcDbEntity
8
0
100
AcDbPolyline
90
18
70
1
43
0.0
10
65.669593968472441
20
241.62918324495737
42
-0.24415668870720267
10
67.79550074249363
20
245.71794913217676
10
80.371545092247032
20
254.55225374876676
42
-0.32533902662019154
10
84.489762084072808
20
254.48349503984718
42
-0.43244592818855271
10
84.793168601865077
20
193.14995158688799
42
-0.35706075610204246
10
80.371545092246762
20
192.82428721808401
10
67.795500742493658
20
201.65859183467276
42
-0.24415668870720361
10
65.669593968472014
20
205.74735772189223
10
65.668437753857376
20
207.93817227504297
42
-0.4142423272348234
10
66.66843774903495
20
208.93827048342507
10
79.598496121215035
20
208.93827048342527
42
0.20490555801055141
10
90.696550231214573
20
212.49439633862366
42
0.21629169446415242
10
91.731238739734636
20
214.74769602496278
10
91.807905389491083
20
231.9855093309657
42
0.21499070566856102
10
90.805539488671712
20
234.23850343390734
42
0.17849239172869441
10
80.148295281569773
20
238.43827048342504
10
66.668437749035093
20
238.43827048342467
42
-0.4142423272348234
10
65.668437753857475
20
239.43836869180674
0
ENDSEC
0
SECTION
2
OBJECTS
0
DICTIONARY
5
C
100
AcDbDictionary
3
ACAD_GROUP
350
D
3
ACAD_MLINESTYLE
350
17
0
DICTIONARY
5
D
100
AcDbDictionary
0
DICTIONARY
5
1A
330
C
100
AcDbDictionary
0
DICTIONARY
5
17
100
AcDbDictionary
0
ENDSEC
0
EOF
