0
SECTION
2
HEADER
9
$INSUNITS
70
4
9
$ACADVER
1
AC1014
9
$HANDSEED
5
FFFF
0
ENDSEC
0
SECTION
2
TABLES
0
TABLE
2
VPORT
5
8
100
AcDbSymbolTable
0
ENDTAB
0
TABLE
2
LTYPE
5
5
100
AcDbSymbolTable
0
LTYPE
5
14
100
AcDbSymbolTableRecord
100
AcDbLinetypeTableRecord
2
BYBLOCK
70
0
0
LTYPE
5
15
100
AcDbSymbolTableRecord
100
AcDbLinetypeTableRecord
2
BYLAYER
70
0
0
ENDTAB
0
TABLE
2
LAYER
5
2
100
AcDbSymbolTable
70
2
0
LAYER
5
50
100
AcDbSymbolTableRecord
100
AcDbLayerTableRecord
2
0
70
0
6
CONTINUOUS
0
ENDTAB
0
TABLE
2
STYLE
5
3
100
AcDbSymbolTable
70
1
0
STYLE
5
11
100
AcDbSymbolTableRecord
100
AcDbTextStyleTableRecord
2
STANDARD
70
0
0
ENDTAB
0
TABLE
2
VIEW
5
6
100
AcDbSymbolTable
70
0
0
ENDTAB
0
TABLE
2
UCS
5
7
100
AcDbSymbolTable
70
0
0
ENDTAB
0
TABLE
2
APPID
5
9
100
AcDbSymbolTable
70
2
0
APPID
5
12
100
AcDbSymbolTableRecord
100
AcDbRegAppTableRecord
2
ACAD
70
0
0
ENDTAB
0
TABLE
2
DIMSTYLE
5
A
100
AcDbSymbolTable
70
1
0
ENDTAB
0
TABLE
2
BLOCK_RECORD
5
1
100
AcDbSymbolTable
70
1
0
BLOCK_RECORD
5
1F
100
AcDbSymbolTableRecord
100
AcDbBlockTableRecord
2
*MODEL_SPACE
0
BLOCK_RECORD
5
1B
100
AcDbSymbolTableRecord
100
AcDbBlockTableRecord
2
*PAPER_SPACE
0
ENDTAB
0
ENDSEC
0
SECTION
2
BLOCKS
0
BLOCK
5
20
100
AcDbEntity
100
AcDbBlockBegin
2
*MODEL_SPACE
0
ENDBLK
5
21
100
AcDbEntity
100
AcDbBlockEnd
0
BLOCK
5
1C
100
AcDbEntity
100
AcDbBlockBegin
2
*PAPER_SPACE
0
ENDBLK
5
1D
100
AcDbEntity
100
AcDbBlockEnd
0
ENDSEC
0
SECTION
2
ENTITIES
0
CIRCLE
5
100
100
AcDbEntity
8
0
100
AcDbCircle
10
-11.197402615553571
20
45.68829233841381
30
0
40
1.841499999999987
210
0
220
-0
230
1
0
CIRCLE
5
101
100
AcDbEntity
8
0
100
AcDbCircle
10
-71.756990615553846
20
20.688292338416012
30
0
40
1.8415000000000226
210
0
220
-0
230
1
0
CIRCLE
5
102
100
AcDbEntity
8
0
100
AcDbCircle
10
47.027009384445009
20
14.498292338411787
30
0
40
1.5000000000000193
210
0
220
-0
230
1
0
CIRCLE
5
103
100
AcDbEntity
8
0
100
AcDbCircle
10
47.027009384446288
20
52.85229233841175
30
0
40
1.5000000000000193
210
0
220
-0
230
1
0
CIRCLE
5
104
100
AcDbEntity
8
0
100
AcDbCircle
10
-11.197402615554388
20
20.688292338413845
30
0
40
1.841499999999987
210
0
220
-0
230
1
0
CIRCLE
5
105
100
AcDbEntity
8
0
100
AcDbCircle
10
-71.756990615553065
20
45.688292338415977
30
0
40
1.8415000000000226
210
0
220
-0
230
1
0
CIRCLE
5
106
100
AcDbEntity
8
0
100
AcDbCircle
10
14.769009384445262
20
14.498292338412924
30
0
40
1.5000000000000193
210
0
220
-0
230
1
0
CIRCLE
5
107
100
AcDbEntity
8
0
100
AcDbCircle
10
7.6570093844464893
20
51.328292338413135
30
0
40
1.5000000000000193
210
0
220
-0
230
1
0
LWPOLYLINE
5
108
100
AcDbEntity
8
0
100
AcDbPolyline
90
4
70
1
43
0.0
10
-61.756990615552603
20
259.18829233841541
10
-21.756990615552887
20
259.18829233841399
10
-21.756990615552713
20
265.53829233841395
10
-61.756990615552397
20
265.53829233841543
0
CIRCLE
5
109
100
AcDbEntity
8
0
100
AcDbCircle
10
-40.856990615551467
20
102.03829205918069
30
0
40
1.4999999999999838
210
0
220
-0
230
1
0
CIRCLE
5
110
100
AcDbEntity
8
0
100
AcDbCircle
10
-49.156990615553369
20
244.03829202867945
30
0
40
1.9999999999999905
210
0
220
-0
230
1
0
LWPOLYLINE
5
111
100
AcDbEntity
8
0
100
AcDbPolyline
90
4
70
1
43
0.0
10
-61.756990479241985
20
77.038292329655306
10
-61.75699061555239
20
70.688292338415579
10
-21.75699061555267
20
70.688291479767017
10
-21.756990479242265
20
77.038291471006758
0
CIRCLE
5
112
100
AcDbEntity
8
0
100
AcDbCircle
10
-16.756990615552603
20
73.863291479766815
30
0
40
1.9999999999999905
210
0
220
-0
230
1
0
CIRCLE
5
113
100
AcDbEntity
8
0
100
AcDbCircle
10
-66.756990615552212
20
73.863292338415761
30
0
40
2.0000000000000258
210
0
220
-0
230
1
0
CIRCLE
5
114
100
AcDbEntity
8
0
100
AcDbCircle
10
-40.856990615553421
20
244.03829202867914
30
0
40
1.4999934339541789
210
0
220
-0
230
1
0
CIRCLE
5
115
100
AcDbEntity
8
0
100
AcDbCircle
10
-16.756990615552816
20
262.36329233841377
30
0
40
1.9999999999999905
210
0
220
-0
230
1
0
CIRCLE
5
116
100
AcDbEntity
8
0
100
AcDbCircle
10
-66.756990615552425
20
262.36329233841553
30
0
40
2.0000000000000258
210
0
220
-0
230
1
0
CIRCLE
5
117
100
AcDbEntity
8
0
100
AcDbCircle
10
-49.156990615551415
20
102.03829205918098
30
0
40
1.9999999999999905
210
0
220
-0
230
1
0
LWPOLYLINE
5
118
100
AcDbEntity
8
0
100
AcDbPolyline
90
12
70
1
43
0.0
10
-72.756990615554216
20
10.688292338416074
42
-0.41421356237310081
10
-76.756990615554102
20
14.688292338416176
10
-76.756990615545675
20
271.68829233841586
42
-0.41421356237310153
10
-72.756990615545462
20
275.68829233841575
10
-10.75699061554598
20
275.68829233841359
42
-0.41421356237308982
10
-6.7569906155461892
20
271.68829233841348
10
-6.7569906155530717
20
61.424292338413721
42
0.41421356237309959
10
-2.7569906155532742
20
57.424292338413629
10
48.583009384446427
20
57.42429233841176
42
-0.4142135623730977
10
50.583009384446321
20
55.424292338411703
10
50.583009384444956
20
12.688292338411609
42
-0.41421356237309892
10
48.583009384444992
20
10.688292338411792
0
CIRCLE
5
119
100
AcDbEntity
8
0
100
AcDbCircle
10
28.243009395681682
20
112.25150729716127
30
0
40
7.8999999999997037
210
-0
220
0
230
1
0
LWPOLYLINE
5
120
100
AcDbEntity
8
0
100
AcDbPolyline
90
46
70
1
43
0.0
10
1.2430093893278624
20
96.251066913862644
10
1.2430093844210433
20
91.251066913862005
10
-6.7569906155787143
20
91.251066921713729
10
-6.7569906155249448
20
99.910804827132011
42
-0.26133394115039804
10
-1.9695997845302848
20
108.44477843249065
10
21.727247937328123
20
122.91897431039203
42
-0.1379491484169536
10
28.243109256033524
20
124.75150729118369
10
58.448143469235774
20
124.75150727961986
42
-0.41421356237309825
10
66.448143466172624
20
116.7515072765574
10
66.448143465780731
20
115.72800728263525
42
-0.41421356238220519
10
65.448143465445682
20
114.72800728309706
10
63.954181434209261
20
114.72800728365449
42
4.8197718849639566
10
63.954181432428086
20
109.77500728358967
10
65.448142825687256
20
109.77500728299644
42
-0.5529264065851266
10
66.348784503681287
20
108.34044478250169
42
-0.0065835751638329606
10
66.242992384158114
20
108.12836865239066
42
0.11953266858913775
10
63.242941350979834
20
95.759318947451959
10
63.242880198830306
20
91.250527022242167
10
55.242673876401305
20
91.250635527679265
10
55.242753760222129
20
96.250635528294097
10
56.742753760102488
20
96.250611563147118
10
56.742801690568186
20
99.250611563293404
10
55.242806133134593
20
99.250635528407983
10
55.242854063523701
20
102.2506355285298
10
51.242849500557298
20
102.25069943565883
10
51.242801570314114
20
99.250699435520346
10
49.742801690170509
20
99.250723400735865
10
49.742753760000078
20
96.250730163877989
10
51.242753760174075
20
96.250706198683758
10
51.242673876410699
20
91.250706198488203
10
48.242673876410805
20
91.250685474607536
10
48.242489312588724
20
84.901940885899094
10
48.242489303782961
20
61.901940885900459
10
8.2430094092416315
20
61.901940901214232
10
8.2430094180474125
20
84.901940901212868
10
8.2430093766152606
20
91.251073683259989
10
5.2430093766153725
20
91.251073685983769
10
5.2430093811550735
20
96.251073685983471
10
6.743009381155022
20
96.251073684620408
10
6.7430101095430022
20
99.251065816625498
10
5.2430094491470456
20
99.251067005236436
10
5.2430095152052978
20
102.25106690989607
10
1.243004952644164
20
102.25106691384445
10
1.2430049496997408
20
99.251066913844625
10
-0.25699060771417209
20
99.251066915314993
10
-0.25699061067045892
20
96.251066915332444
0
CIRCLE
5
121
100
AcDbEntity
8
0
100
AcDbCircle
10
11.415666921935621
20
121.85365315709994
30
0
40
1.4499999999999802
210
0
220
-0
230
1
0
CIRCLE
5
122
100
AcDbEntity
8
0
100
AcDbCircle
10
-2.1072946461110753
20
118.230186525665
30
0
40
1.4499999999999802
210
0
220
-0
230
1
0
LWPOLYLINE
5
123
100
AcDbEntity
8
0
100
AcDbPolyline
90
8
70
1
43
0.0
10
-1.3308375108035086
20
115.33240904679781
42
-0.99999999999999989
10
-2.883751781418642
20
121.12796400453219
10
0.62937703191837646
20
122.06930403297227
42
-0.26596256268036311
10
1.5900382197410958
20
121.81571071801616
42
0.57241556099401514
10
6.4209206376849481
20
123.11014176063378
42
-0.26596256268036289
10
7.1260809732910877
20
123.81009060752706
10
10.63920978662807
20
124.75143063596711
42
-0.99999999999999989
10
12.192124057243172
20
118.95587567823277
0
CIRCLE
5
124
100
AcDbEntity
8
0
100
AcDbCircle
10
32.545725815203284
20
154.63677367338053
30
0
40
1.999999999999956
210
-0
220
0
230
1
0
CIRCLE
5
125
100
AcDbEntity
8
0
100
AcDbCircle
10
17.911899402774729
20
155.85137248911875
30
0
40
1.999999999999956
210
-0
220
0
230
1
0
CIRCLE
5
126
100
AcDbEntity
8
0
100
AcDbCircle
10
46.00653306821588
20
134.76703114618087
30
0
40
1.999999999999956
210
-0
220
0
230
1
0
CIRCLE
5
127
100
AcDbEntity
8
0
100
AcDbCircle
10
29.341258178109548
20
137.97149878327451
30
0
40
1.999999999999956
210
-0
220
0
230
1
0
CIRCLE
5
128
100
AcDbEntity
8
0
100
AcDbCircle
10
39.276129441709564
20
144.7019024097807
30
0
40
7.4999999999998623
210
-0
220
0
230
1
0
CIRCLE
5
129
100
AcDbEntity
8
0
100
AcDbCircle
10
-1.6670443176874272
20
191.27073879751535
30
0
40
1.999999999999956
210
-0
220
0
230
1
0
CIRCLE
5
130
100
AcDbEntity
8
0
100
AcDbCircle
10
15.300525317513163
20
142.27056222658985
30
0
40
1.999999999999956
210
-0
220
0
230
1
0
CIRCLE
5
131
100
AcDbEntity
8
0
100
AcDbCircle
10
35.649363818564126
20
184.09538627595651
30
0
40
1.999999999999956
210
-0
220
0
230
1
0
CIRCLE
5
132
100
AcDbEntity
8
0
100
AcDbCircle
10
1.719715054983979
20
144.88193631185138
30
0
40
1.999999999999956
210
-0
220
0
230
1
0
CIRCLE
5
133
100
AcDbEntity
8
0
100
AcDbCircle
10
9.8158072288793363
20
150.36665440048506
30
0
40
6.3499999999998993
210
-0
220
0
230
1
0
CIRCLE
5
134
100
AcDbEntity
8
0
100
AcDbCircle
10
4.3310891402455454
20
158.46274657438028
30
0
40
1.999999999999956
210
-0
220
0
230
1
0
CIRCLE
5
135
100
AcDbEntity
8
0
100
AcDbCircle
10
49.211000705309615
20
151.43230603628686
30
0
40
1.999999999999956
210
-0
220
0
230
1
0
LWPOLYLINE
5
136
100
AcDbEntity
8
0
100
AcDbPolyline
90
17
70
1
43
0.0
10
40.041255645925339
20
181.36884281769437
10
39.148946775607456
20
179.03050123529403
42
0.31531117167876621
10
43.345255669981981
20
162.34215265957459
10
49.748652234511468
20
156.79844184691831
42
-0.71702236381719875
10
38.313372762849866
20
128.73089431456981
10
8.3337355120589169
20
130.43389969137712
42
-0.4020995871413689
10
-6.756990615550416
20
146.65147077549665
10
-6.7569906155487445
20
190.32661346573173
42
-0.47101323233251985
10
5.1312600480186799
20
200.14672087000793
10
7.0952815288744064
20
199.76907073729427
42
-0.4142135623730947
10
10.268024225157827
20
195.08572751015635
10
7.4356482298056035
20
180.35556640374153
42
0.4142135623731461
10
8.2288339038764988
20
179.18473059695708
10
21.976984269863923
20
176.54117966796167
42
0.4142135623731022
10
23.147820076648408
20
177.33436534203253
10
25.980196072000528
20
192.06452644844694
42
-0.18525013571190907
10
27.493432189561446
20
194.49806733702036
42
-0.63999058093103911
0
CIRCLE
5
137
100
AcDbEntity
8
0
100
AcDbCircle
10
28.243009384565969
20
230.29769938059133
30
0
40
11.249999999999931
210
0
220
-0
230
1
0
CIRCLE
5
138
100
AcDbEntity
8
0
100
AcDbCircle
10
12.743009384668007
20
245.79769938067551
30
0
40
1.9999999999999805
210
0
220
-0
230
1
0
CIRCLE
5
139
100
AcDbEntity
8
0
100
AcDbCircle
10
12.743009384499342
20
214.79769938067579
30
0
40
1.9999999999999805
210
0
220
-0
230
1
0
CIRCLE
5
140
100
AcDbEntity
8
0
100
AcDbCircle
10
43.743009384667822
20
245.79769938050691
30
0
40
1.9999999999999805
210
0
220
-0
230
1
0
CIRCLE
5
141
100
AcDbEntity
8
0
100
AcDbCircle
10
43.743009384499146
20
214.79769938050723
30
0
40
1.9999999999999805
210
0
220
-0
230
1
0
CIRCLE
5
142
100
AcDbEntity
8
0
100
AcDbCircle
10
3.2430093845660601
20
230.29769938072741
30
0
40
2.4999999999999845
210
0
220
-0
230
1
0
CIRCLE
5
143
100
AcDbEntity
8
0
100
AcDbCircle
10
-3.7569906155078536
20
273.29741687982965
30
0
40
1.9999999999999893
210
0
220
-0
230
1
0
CIRCLE
5
144
100
AcDbEntity
8
0
100
AcDbCircle
10
-3.8459284949436934
20
259.29769938076566
30
0
40
1.9999999999999893
210
0
220
-0
230
1
0
CIRCLE
5
145
100
AcDbEntity
8
0
100
AcDbCircle
10
60.331947264391211
20
259.29769938041659
30
0
40
1.9999999999999893
210
0
220
-0
230
1
0
CIRCLE
5
146
100
AcDbEntity
8
0
100
AcDbCircle
10
60.243009385107712
20
273.29741687948149
30
0
40
1.9999999999999893
210
0
220
-0
230
1
0
LWPOLYLINE
5
147
100
AcDbEntity
8
0
100
AcDbPolyline
90
50
70
1
43
0.0
10
66.345891811803654
20
234.21475138038406
42
-0.55316768047878551
10
65.445571542105114
20
232.77952338038901
10
63.951877453909979
20
232.77952338039711
42
4.8085069970033629
10
63.951877453883
20
227.81587538039719
10
65.445571542078142
20
227.81587538038909
42
-0.5531676804788116
10
66.345891811761078
20
226.3806473803842
42
-0.009916780502278932
10
66.184185855130949
20
226.06240526273797
42
0.12310562561766111
10
63.243009384478732
20
214.29769938040113
10
63.24300938445149
20
209.29769938038928
10
55.243009384456784
20
209.29769938041903
10
55.243009384473538
20
214.297699380419
10
56.743009384473524
20
214.29769938041403
10
56.74300938448436
20
217.29769938041397
10
55.243009384481425
20
217.29769938041898
10
55.243009384491025
20
220.29769938041895
10
51.243009384491046
20
220.29769938043185
10
51.243009384483614
20
217.29769938043799
10
49.743009384483621
20
217.29769938044308
10
49.743009384473567
20
214.29769938043893
10
51.243009384473552
20
214.29769938043395
10
51.243009384456649
20
209.29769938043395
10
48.24300938445667
20
209.29769939411909
10
48.243009384430941
20
202.94769938037672
10
8.2430093844311898
20
202.94769938059429
10
8.2430093844518488
20
209.29769938059422
10
5.2430093844518684
20
209.29769938042082
10
5.2430093844520549
20
214.29769938043302
10
6.7430093844542727
20
214.29769938043293
10
6.7430093844560908
20
217.29769938042074
10
5.243009384455779
20
217.2976993804208
10
5.2430093844558714
20
220.29769938042077
10
1.2430093844558578
20
220.29769938042085
10
1.2430093844557304
20
217.29769938041952
10
-0.25699061554322872
20
217.29769938042097
10
-0.25699061554397651
20
214.29769938042099
10
1.2430093844560126
20
214.29769938042097
10
1.2430093844518919
20
209.29769938042097
10
-6.7569906155480597
20
209.29769937570893
10
-6.7569906155463659
20
273.29769623252128
42
-0.41421356237309986
10
-1.7569874723583512
20
278.29769937570887
10
8.4930093842104331
20
278.29769937570785
42
-0.41421356237309681
10
13.493009384454229
20
273.29769937546365
10
13.49300938445397
20
266.29769938059161
42
0.99999999999999989
10
42.993009384453757
20
266.29769938059059
10
42.993009384454027
20
273.29769937571422
42
-0.41421356237309509
10
47.99300938444653
20
278.29769937570637
10
58.243009384922011
20
278.2976993757062
42
-0.41421356237467827
10
63.243009384799869
20
273.29769937580096
10
63.243009384652957
20
246.29769938040062
42
0.12310562561765949
10
66.184185855177049
20
234.53299349803191
42
-0.0099167805022760454
0
CIRCLE
5
148
100
AcDbEntity
8
0
100
AcDbCircle
10
29.358010112498967
20
198.81211634713847
30
0
40
1.4499999999999864
210
0
220
-0
230
1
0
CIRCLE
5
149
100
AcDbEntity
8
0
100
AcDbCircle
10
15.358010112499407
20
198.81211634713799
30
0
40
1.4499999999999864
210
0
220
-0
230
1
0
LWPOLYLINE
5
150
100
AcDbEntity
8
0
100
AcDbPolyline
90
8
70
1
43
0.0
10
15.358010112499599
20
195.81211634713804
42
-0.99999999999999989
10
15.358010112499215
20
201.81211634713799
10
18.995068691659323
20
201.81211634713807
42
-0.2659625626803574
10
19.857361363669511
20
201.31852660354843
42
0.5724155609940218
10
24.858658861328522
20
201.31852660354852
42
-0.26596256268037499
10
25.720951533338731
20
201.81211634713833
10
29.358010112498818
20
201.81211634713844
42
-0.99999999999999989
10
29.358010112499116
20
195.8121163471385
0
CIRCLE
5
151
100
AcDbEntity
8
0
100
AcDbCircle
10
113.73186258852989
20
178.81305589799001
30
0
40
1.9999999999999829
210
0
220
0
230
1
0
CIRCLE
5
152
100
AcDbEntity
8
0
100
AcDbCircle
10
49.731862530412542
20
192.81305589799001
30
0
40
1.9999999999999918
210
0
220
0
230
1
0
CIRCLE
5
153
100
AcDbEntity
8
0
100
AcDbCircle
10
109.73186258852991
20
185.81305589798998
30
0
40
1.9999999999999829
210
0
220
0
230
1
0
CIRCLE
5
154
100
AcDbEntity
8
0
100
AcDbCircle
10
49.73186258853039
20
178.8130558979901
30
0
40
1.9999999999999918
210
0
220
0
230
1
0
CIRCLE
5
155
100
AcDbEntity
8
0
100
AcDbCircle
10
53.731862588530319
20
185.81305589799004
30
0
40
1.9999999999999918
210
0
220
0
230
1
0
CIRCLE
5
156
100
AcDbEntity
8
0
100
AcDbCircle
10
113.73186264664764
20
192.81305589798993
30
0
40
1.9999999999999829
210
0
220
0
230
1
0
LWPOLYLINE
5
157
100
AcDbEntity
8
0
100
AcDbPolyline
90
18
70
1
43
0.0
10
114.22172896413002
20
195.77279085081867
42
-0.36700440918638738
10
116.73186258852982
20
192.81246538402027
10
116.73186258852992
20
178.81305589799007
42
-0.33675353888302761
10
114.53637570800232
20
175.92294194857612
10
86.714949173207359
20
168.17836749876261
42
-0.13857342649979573
10
76.748776003853081
20
168.17836749876255
10
48.927349469057965
20
175.92294194857624
42
-0.33675353888302417
10
46.731862588530397
20
178.8130558979901
10
46.731862588530291
20
192.81246538402033
42
-0.36700440918638927
10
49.241996212930161
20
195.77279085081881
10
61.731862525731501
20
197.83999109476343
10
61.981862587222821
20
197.83999110515725
42
-0.41421356244968277
10
66.981862588530191
20
192.83999110515725
10
66.98186258853022
20
185.81305589799015
42
0.99999999999999989
10
96.481862588530007
20
185.81305589798995
10
96.481862588529964
20
192.8399911051572
42
-0.41421356237309709
10
101.48186258852994
20
197.8399911051572
10
101.73186265132864
20
197.83999109476341
0
CIRCLE
5
158
100
AcDbEntity
8
0
100
AcDbCircle
10
88.960178046945728
20
179.26557469116645
30
0
40
1.44999999999999
210
0
220
-0
230
1
0
CIRCLE
5
159
100
AcDbEntity
8
0
100
AcDbCircle
10
74.960178046945941
20
179.26557469116653
30
0
40
1.44999999999999
210
0
220
-0
230
1
0
LWPOLYLINE
5
160
100
AcDbEntity
8
0
100
AcDbPolyline
90
8
70
1
43
0.0
10
74.960178046945941
20
176.26557469116651
42
-0.99999999999999989
10
74.960178046945941
20
182.26557469116653
10
78.597236626106096
20
182.26557469116653
42
-0.26596256268037138
10
79.459529298116266
20
181.77198494757678
42
0.5724155609940057
10
84.460826795775318
20
181.77198494757675
42
-0.26596256268037138
10
85.323119467785574
20
182.26557469116653
10
88.960178046945728
20
182.26557469116642
42
-0.99999999999999989
10
88.960178046945728
20
176.26557469116648
0
CIRCLE
5
161
100
AcDbEntity
8
0
100
AcDbCircle
10
109.76628373976324
20
66.233505490902786
30
0
40
1.9999999999999893
210
-0
220
0
230
1
0
CIRCLE
5
162
100
AcDbEntity
8
0
100
AcDbCircle
10
53.766283739763452
20
66.233505490902587
30
0
40
1.9999999999999893
210
-0
220
0
230
1
0
LWPOLYLINE
5
163
100
AcDbEntity
8
0
100
AcDbPolyline
90
18
70
1
43
0.0
10
99.707196501296082
20
82.947321385441498
42
-0.24415668870720481
10
103.79596238851536
20
80.821414611420039
10
112.63026700510473
20
68.24537026166746
42
-0.32533902662037179
10
112.56150829618477
20
64.127153269839454
42
-0.43244592818855171
10
51.227964843225998
20
63.823746752049018
42
-0.35706075610204396
10
50.902300474421949
20
68.245370261667262
10
59.736605091011171
20
80.821414611419868
42
-0.24415668870720694
10
63.825370978230509
20
82.947321385441413
10
66.016185531381311
20
82.948477600056094
42
-0.41424232723482862
10
67.016283739763367
20
81.948477604878548
10
67.016283739763423
20
69.018419232699841
42
0.20490555801045884
10
70.572409594961485
20
57.920365122700197
42
0.21629169446411076
10
72.825709281300647
20
56.885676614180134
10
90.063522587303865
20
56.809009964423829
42
0.21499070566862766
10
92.316516690245663
20
57.811375865243477
42
0.17849239172858625
10
96.516283739763239
20
68.468620072344621
10
96.51628373976321
20
81.948477604878676
42
-0.41424232723482862
10
97.516381948145295
20
82.948477600056208
0
CIRCLE
5
164
100
AcDbEntity
8
0
100
AcDbCircle
10
73.334245821319158
20
63.679210917004376
30
0
40
1.4500000000000066
210
0
220
-0
230
1
0
CIRCLE
5
165
100
AcDbEntity
8
0
100
AcDbCircle
10
73.334245821318078
20
77.679210917004355
30
0
40
1.4500000000000066
210
0
220
-0
230
1
0
LWPOLYLINE
5
166
100
AcDbEntity
8
0
100
AcDbPolyline
90
8
70
1
43
0.0
10
70.334245821318035
20
77.67921091700417
42
-0.99999999999999989
10
76.334245821318106
20
77.679210917004553
10
76.334245821318405
20
74.042152337844399
42
-0.26596256268037294
10
75.840656077728738
20
73.179859665834115
42
0.57241556099401514
10
75.840656077729108
20
68.178562168174977
42
-0.26596256268037105
10
76.334245821318902
20
67.316269496164807
10
76.334245821319172
20
63.679210917004589
42
-0.99999999999999989
10
70.334245821319143
20
63.679210917004163
0
CIRCLE
5
167
100
AcDbEntity
8
0
100
AcDbCircle
10
83.519860670367905
20
63.169996518352633
30
0
40
1.4499999999999975
210
-0
220
0
230
1
0
CIRCLE
5
168
100
AcDbEntity
8
0
100
AcDbCircle
10
83.519860670368018
20
77.169996518352548
30
0
40
1.4499999999999975
210
-0
220
0
230
1
0
LWPOLYLINE
5
169
100
AcDbEntity
8
0
100
AcDbPolyline
90
8
70
1
43
0.0
10
80.519860670368004
20
77.169996518352505
42
-0.99999999999999989
10
86.519860670368018
20
77.169996518352576
10
86.519860670368004
20
73.532937939192365
42
-0.2659625626803675
10
86.026270926778281
20
72.670645267182152
42
0.57241556099401503
10
86.026270926778196
20
67.669347769523014
42
-0.26596256268037216
10
86.519860670367933
20
66.807055097512801
10
86.519860670367905
20
63.16999651835264
42
-0.99999999999999989
10
80.519860670367905
20
63.169996518352619
0
CIRCLE
5
170
100
AcDbEntity
8
0
100
AcDbCircle
10
58.436843121379809
20
27.286257136770431
30
0
40
1.500000000000004
210
0
220
-0
230
1
0
CIRCLE
5
171
100
AcDbEntity
8
0
100
AcDbCircle
10
96.436843121379496
20
27.286257136770821
30
0
40
1.500000000000004
210
0
220
-0
230
1
0
LWPOLYLINE
5
172
100
AcDbEntity
8
0
100
AcDbPolyline
90
6
70
1
43
0.0
10
91.436843121379638
20
17.286257136770743
10
63.43684312137988
20
17.286257136770477
42
-0.84783338900315108
10
60.209158052804895
20
36.751036537163209
10
73.079534393336104
20
41.091497018944814
42
-0.15406758962260114
10
81.794151849422832
20
41.091497018944935
10
94.664528189954197
20
36.751036537163586
42
-0.84783338900315175
0
ENDSEC
0
SECTION
2
OBJECTS
0
DICTIONARY
5
C
100
AcDbDictionary
3
ACAD_GROUP
350
D
3
ACAD_MLINESTYLE
350
17
0
DICTIONARY
5
D
100
AcDbDictionary
0
DICTIONARY
5
1A
330
C
100
AcDbDictionary
0
DICTIONARY
5
17
100
AcDbDictionary
0
ENDSEC
0
EOF
