0
SECTION
2
HEADER
9
$INSUNITS
70
4
9
$ACADVER
1
AC1014
9
$HANDSEED
5
FFFF
0
ENDSEC
0
SECTION
2
TABLES
0
TABLE
2
VPORT
5
8
100
AcDbSymbolTable
0
ENDTAB
0
TABLE
2
LTYPE
5
5
100
AcDbSymbolTable
0
LTYPE
5
14
100
AcDbSymbolTableRecord
100
AcDbLinetypeTableRecord
2
BYBLOCK
70
0
0
LTYPE
5
15
100
AcDbSymbolTableRecord
100
AcDbLinetypeTableRecord
2
BYLAYER
70
0
0
ENDTAB
0
TABLE
2
LAYER
5
2
100
AcDbSymbolTable
70
2
0
LAYER
5
50
100
AcDbSymbolTableRecord
100
AcDbLayerTableRecord
2
0
70
0
6
CONTINUOUS
0
ENDTAB
0
TABLE
2
STYLE
5
3
100
AcDbSymbolTable
70
1
0
STYLE
5
11
100
AcDbSymbolTableRecord
100
AcDbTextStyleTableRecord
2
STANDARD
70
0
0
ENDTAB
0
TABLE
2
VIEW
5
6
100
AcDbSymbolTable
70
0
0
ENDTAB
0
TABLE
2
UCS
5
7
100
AcDbSymbolTable
70
0
0
ENDTAB
0
TABLE
2
APPID
5
9
100
AcDbSymbolTable
70
2
0
APPID
5
12
100
AcDbSymbolTableRecord
100
AcDbRegAppTableRecord
2
ACAD
70
0
0
ENDTAB
0
TABLE
2
DIMSTYLE
5
A
100
AcDbSymbolTable
70
1
0
ENDTAB
0
TABLE
2
BLOCK_RECORD
5
1
100
AcDbSymbolTable
70
1
0
BLOCK_RECORD
5
1F
100
AcDbSymbolTableRecord
100
AcDbBlockTableRecord
2
*MODEL_SPACE
0
BLOCK_RECORD
5
1B
100
AcDbSymbolTableRecord
100
AcDbBlockTableRecord
2
*PAPER_SPACE
0
ENDTAB
0
ENDSEC
0
SECTION
2
BLOCKS
0
BLOCK
5
20
100
AcDbEntity
100
AcDbBlockBegin
2
*MODEL_SPACE
0
ENDBLK
5
21
100
AcDbEntity
100
AcDbBlockEnd
0
BLOCK
5
1C
100
AcDbEntity
100
AcDbBlockBegin
2
*PAPER_SPACE
0
ENDBLK
5
1D
100
AcDbEntity
100
AcDbBlockEnd
0
ENDSEC
0
SECTION
2
ENTITIES
0
CIRCLE
5
100
100
AcDbEntity
8
0
100
AcDbCircle
10
98.999989837457804
20
22.231376684014876
30
0
40
1.9999999999999929
0
LWPOLYLINE
5
101
100
AcDbEntity
8
0
100
AcDbPolyline
90
4
70
1
43
0.0
10
143.99998981174014
20
207.55637668401488
10
143.9999898374578
20
213.9063766840149
10
103.9999898374578
20
213.90637684601688
10
103.99998981174011
20
207.55637684601686
0
CIRCLE
5
102
100
AcDbEntity
8
0
100
AcDbCircle
10
148.9999898374578
20
22.231376684014876
30
0
40
1.9999999999999929
0
CIRCLE
5
103
100
AcDbEntity
8
0
100
AcDbCircle
10
114.79998983745779
20
40.556376794986249
30
0
40
2.0000046911114029
0
CIRCLE
5
104
100
AcDbEntity
8
0
100
AcDbCircle
10
171.0649898374578
20
111.68313240218421
30
0
40
1.9999999999999929
0
CIRCLE
5
105
100
AcDbEntity
8
0
100
AcDbCircle
10
131.39998983745778
20
40.556376794986249
30
0
40
2.0000046911114029
0
CIRCLE
5
106
100
AcDbEntity
8
0
100
AcDbCircle
10
133.19998983745779
20
182.55637672775543
30
0
40
1.9999999999999929
0
CIRCLE
5
107
100
AcDbEntity
8
0
100
AcDbCircle
10
116.5999898374578
20
182.55637679498622
30
0
40
1.9999999999999929
0
CIRCLE
5
108
100
AcDbEntity
8
0
100
AcDbCircle
10
98.999989837457804
20
210.7313768460169
30
0
40
1.9999999999999929
0
LWPOLYLINE
5
109
100
AcDbEntity
8
0
100
AcDbPolyline
90
4
70
1
43
0.0
10
143.9999898374578
20
25.406376684014873
10
103.9999898374578
20
25.406376684014873
10
103.9999898374578
20
19.056376684014872
10
143.9999898374578
20
19.056376684014872
0
CIRCLE
5
110
100
AcDbEntity
8
0
100
AcDbCircle
10
180.84398983745783
20
140.89313240218422
30
0
40
1.9999999999999929
0
CIRCLE
5
111
100
AcDbEntity
8
0
100
AcDbCircle
10
123.09998983745778
20
40.556376794986249
30
0
40
1.4999934339541809
0
CIRCLE
5
112
100
AcDbEntity
8
0
100
AcDbCircle
10
124.8999898374578
20
182.55637679498622
30
0
40
1.5000000000000036
0
CIRCLE
5
113
100
AcDbEntity
8
0
100
AcDbCircle
10
148.9999898374578
20
210.73137668401489
30
0
40
1.9999999999999929
0
LWPOLYLINE
5
114
100
AcDbEntity
8
0
100
AcDbPolyline
90
16
70
1
43
0.0
10
202.99998983745814
20
88.916091492842369
42
-0.414213580736637
10
199.99998964936654
20
85.916091492841943
10
168.99999046443369
20
85.916093436463427
42
0.41421358073679337
10
158.99998983745738
20
75.916093436463001
10
158.9999898374578
20
13.906376684014896
42
-0.41421356237309492
10
153.9999898374578
20
8.9063766840148908
10
93.999989837457832
20
8.9063766840148908
42
-0.41421356237309476
10
88.999989837457804
20
13.906376684014923
10
88.999989837457804
20
268.90637668401484
42
-0.41421356237309509
10
93.999989837457832
20
273.9063766840149
10
153.99998983745778
20
273.9063766840149
42
-0.41421356237309509
10
158.99998983745783
20
268.90637668401484
10
158.99998983745786
20
153.91609130475035
42
0.41421356237308771
10
168.9999898374576
20
143.91609130475035
10
199.99998983745783
20
143.9160913047495
42
-0.41421356237308637
10
202.99998983745783
20
140.91609130474947
0
CIRCLE
5
115
100
AcDbEntity
8
0
100
AcDbCircle
10
232.44158579349727
20
119.15364693655849
30
0
40
7.8999999999997499
0
CIRCLE
5
116
100
AcDbEntity
8
0
100
AcDbCircle
10
232.44161135834361
20
89.153646936570425
30
0
40
6.2249930356314787
0
LWPOLYLINE
5
117
100
AcDbEntity
8
0
100
AcDbPolyline
90
37
70
1
43
0.0
10
216.4415798320382
20
146.15363331037901
10
211.44157983204013
20
146.15362905219683
10
211.4415730189485
20
154.15362905219365
10
220.10083837266765
20
154.15363642673964
42
-0.29031550563075681
10
229.14579146237773
20
148.41849019505719
10
241.77094769387475
20
123.97163474598463
42
-0.13254528205664962
10
242.92825200187917
20
118.62465560016977
10
241.43035471323452
20
88.703654825642161
42
-0.54521626668508905
10
228.31855653734618
20
81.153620752673078
42
0.11953072476771606
10
215.94968237849275
20
84.153542199418879
10
211.44153983231021
20
84.15359067099061
10
211.44162584876352
20
92.153629030164808
10
216.44162584876156
20
92.153633293597963
10
216.44162712779152
20
90.653633293598631
10
219.44162712779041
20
90.653635851658478
10
219.44162584876042
20
92.153635851657697
10
222.44162584875926
20
92.153638409717587
10
222.44162243801276
20
96.153638409715981
10
219.44162243801395
20
96.153635851656105
10
219.44162115740869
20
97.653635851655508
10
216.44162115740986
20
97.653633293595661
10
216.44162243643984
20
96.153633293596272
10
211.44162243644178
20
96.153629032788629
10
211.44160254838488
20
99.15362903277267
10
205.09158579349821
20
99.153623621530869
10
205.09158579349793
20
139.15362362994711
10
211.44158579349545
20
139.15362904957416
10
211.44158323701075
20
142.15362904957294
10
216.44158323700876
20
142.15363331038066
10
216.44158451446344
20
140.65363331038125
10
219.44158451446228
20
140.65363586529065
10
219.44158323858289
20
142.15363586529003
10
222.4415832385817
20
142.15363842019943
10
222.4415798320359
20
146.15363842019784
10
219.44157983203709
20
146.15363586528849
10
219.44157855458232
20
147.65363586528773
10
216.44157855458349
20
147.65363331037835
0
CIRCLE
5
118
100
AcDbEntity
8
0
100
AcDbCircle
10
199.59592535401111
20
33.287589792961974
30
0
40
1.9999999999999483
0
CIRCLE
5
119
100
AcDbEntity
8
0
100
AcDbCircle
10
184.96209894158258
20
34.502188608699697
30
0
40
1.9999999999999483
0
CIRCLE
5
120
100
AcDbEntity
8
0
100
AcDbCircle
10
213.05673260702446
20
13.417847265762459
30
0
40
1.9999999999999483
0
CIRCLE
5
121
100
AcDbEntity
8
0
100
AcDbCircle
10
196.39145771691807
20
16.622314902855592
30
0
40
1.9999999999999483
0
CIRCLE
5
122
100
AcDbEntity
8
0
100
AcDbCircle
10
206.32632898051779
20
23.352718529362207
30
0
40
7.4999999999998321
0
CIRCLE
5
123
100
AcDbEntity
8
0
100
AcDbCircle
10
165.38315522111901
20
69.921554917096259
30
0
40
1.9999999999999483
0
CIRCLE
5
124
100
AcDbEntity
8
0
100
AcDbCircle
10
182.35072485632159
20
20.921378346170485
30
0
40
1.9999999999999483
0
CIRCLE
5
125
100
AcDbEntity
8
0
100
AcDbCircle
10
202.69956335737066
20
62.746202395538575
30
0
40
1.9999999999999483
0
CIRCLE
5
126
100
AcDbEntity
8
0
100
AcDbCircle
10
168.76991459379238
20
23.532752431431597
30
0
40
1.9999999999999483
0
CIRCLE
5
127
100
AcDbEntity
8
0
100
AcDbCircle
10
176.86600676768748
20
29.017470520065647
30
0
40
6.3499999999998735
0
CIRCLE
5
128
100
AcDbEntity
8
0
100
AcDbCircle
10
171.38128867905337
20
37.113562693960809
30
0
40
1.9999999999999483
0
CIRCLE
5
129
100
AcDbEntity
8
0
100
AcDbCircle
10
216.26120024411745
20
30.083122155868836
30
0
40
1.9999999999999483
0
LWPOLYLINE
5
130
100
AcDbEntity
8
0
100
AcDbPolyline
90
17
70
1
43
0.0
10
207.09145518473196
20
60.019658937276567
10
206.19914631441418
20
57.681317354876171
42
0.31531117167878348
10
210.39545520878937
20
40.992968779156556
10
216.79885177331909
20
35.449257966500682
42
-0.71702236381720708
10
205.36357230165873
20
7.3817104341510174
10
175.38393505086773
20
9.0847158109577819
42
-0.40209958714136884
10
160.29320892325799
20
25.302286895076591
10
160.29320892325759
20
68.977429585312294
42
-0.47101323233252079
10
172.18145958682473
20
78.797536989589204
10
174.14548106768046
20
78.419886856875593
42
-0.41421356237309481
10
177.31822376396408
20
73.736543629737724
10
174.48584776861247
20
59.006382523322543
42
0.41421356237312507
10
175.27903344268339
20
57.83554671653809
10
189.02718380867086
20
55.191995787543171
42
0.41421356237313522
10
190.19801961545534
20
55.985181461614047
10
193.03039561080681
20
70.715342568028902
42
-0.18525013571191354
10
194.54363172836787
20
73.148883456602192
42
-0.63999058093103245
0
CIRCLE
5
131
100
AcDbEntity
8
0
100
AcDbCircle
10
228.10492216745047
20
77.883857529778609
30
0
40
1.9999999999999738
0
CIRCLE
5
132
100
AcDbEntity
8
0
100
AcDbCircle
10
231.78067030118058
20
12.473698662089756
30
0
40
1.9999999999999827
0
CIRCLE
5
133
100
AcDbEntity
8
0
100
AcDbCircle
10
222.43400711144778
20
72.15317498512475
30
0
40
1.9999999999999738
0
CIRCLE
5
134
100
AcDbEntity
8
0
100
AcDbCircle
10
245.26786871619322
20
16.228093275616242
30
0
40
1.9999999999999827
0
CIRCLE
5
135
100
AcDbEntity
8
0
100
AcDbCircle
10
237.45158534159771
20
18.20438126273266
30
0
40
1.9999999999999827
0
CIRCLE
5
136
100
AcDbEntity
8
0
100
AcDbCircle
10
214.61772372126683
20
74.129463028230177
30
0
40
1.9999999999999738
0
LWPOLYLINE
5
137
100
AcDbEntity
8
0
100
AcDbPolyline
90
18
70
1
43
0.0
10
211.63503200362004
20
73.807670987494291
42
-0.36700440918638777
10
213.81377950160038
20
77.019735280400297
10
227.30040904797815
20
80.773971479192497
42
-0.3367535388830209
10
230.67342792784831
20
79.433947255827675
10
245.59522969430128
20
54.708453532094524
42
-0.13857342649979493
10
248.26786871619413
20
45.107328165752811
10
248.26786871619316
20
16.228093275616157
42
-0.33675353888302467
10
246.07238183566554
20
13.337979326202383
10
232.58575228928771
20
9.583743127410095
42
-0.36700440918638799
10
229.0607145030018
20
11.208060303017977
10
223.71981264621502
20
22.686076016388597
10
223.65276985975578
20
22.926918901958064
42
-0.41421356244968066
10
227.12877124264108
20
29.084630684694545
10
233.89831906392831
20
30.969051205977216
42
0.99999999999999989
10
225.98727338911726
20
59.388505041880194
10
219.21772556782994
20
57.50408452059748
42
-0.4142135623730952
10
213.06001378635295
20
60.980085903833434
10
212.99297101956924
20
61.220928796237047
0
CIRCLE
5
138
100
AcDbEntity
8
0
100
AcDbCircle
10
186.29353989037207
20
69.686296180820207
30
0
40
1.4499999999999613
0
CIRCLE
5
139
100
AcDbEntity
8
0
100
AcDbCircle
10
179.05978783547681
20
81.672656396010098
30
0
40
1.4499999999999613
0
ARC
5
140
100
AcDbEntity
8
0
100
AcDbCircle
10
179.05978783547681
20
81.672656396010098
30
0
40
2.9999999999999396
100
AcDbArc
50
31.110924012653385
51
211.11092401265361
0
LINE
5
141
100
AcDbEntity
8
0
100
AcDbLine
10
176.491282075079
20
80.122566669961017
30
0
11
183.7250341299742
21
68.136206454771141
31
0
0
ARC
5
142
100
AcDbEntity
8
0
100
AcDbCircle
10
186.29353989037207
20
69.686296180820207
30
0
40
2.9999999999999605
100
AcDbArc
50
-148.88907598734718
51
31.11092401265287
0
LINE
5
143
100
AcDbEntity
8
0
100
AcDbLine
10
188.86204565076991
20
71.236385906869259
30
0
11
186.98278993857173
21
74.350321210695
31
0
0
ARC
5
144
100
AcDbEntity
8
0
100
AcDbCircle
10
186.12662135177246
20
73.83362463534533
30
0
40
0.99999999999997513
100
AcDbArc
50
31.11092401265245
51
90.685910863840292
0
ARC
5
145
100
AcDbEntity
8
0
100
AcDbCircle
10
186.0799339954516
20
77.733345175430088
30
0
40
2.8999999999999138
100
AcDbArc
50
151.53593716146253
51
270.68591086384055
0
ARC
5
146
100
AcDbEntity
8
0
100
AcDbCircle
10
182.65138072127357
20
79.592114242883653
30
0
40
0.99999999999995537
100
AcDbArc
50
-28.464062838534559
51
31.110924012653154
0
LINE
5
147
100
AcDbEntity
8
0
100
AcDbLine
10
183.50754930807284
20
80.108810818233337
30
0
11
181.62829359587462
21
83.222746122059164
31
0
0
CIRCLE
5
148
100
AcDbEntity
8
0
100
AcDbCircle
10
196.46642581003908
20
148.41008841620686
30
0
40
1.4499999999999602
0
CIRCLE
5
149
100
AcDbEntity
8
0
100
AcDbCircle
10
182.46642581003942
20
148.41008841620754
30
0
40
1.4499999999999602
0
LWPOLYLINE
5
150
100
AcDbEntity
8
0
100
AcDbPolyline
90
8
70
1
43
0.0
10
182.46642581003942
20
145.4100884162076
42
-0.99999999999999989
10
182.46642581003942
20
151.41008841620749
10
186.10348438919968
20
151.41008841620729
42
-0.26596256268035551
10
186.96577706120979
20
150.91649867261759
42
0.57241556099402158
10
191.96707455886889
20
150.91649867261725
42
-0.26596256268037521
10
192.82936723087909
20
151.41008841620697
10
196.4664258100392
20
151.41008841620678
42
-0.99999999999999989
10
196.466425810039
20
145.41008841620692
0
CIRCLE
5
151
100
AcDbEntity
8
0
100
AcDbCircle
10
185.23979869330131
20
155.6244001768078
30
0
40
1.4499999999999731
0
CIRCLE
5
152
100
AcDbEntity
8
0
100
AcDbCircle
10
199.21726523609345
20
154.8304045564679
30
0
40
1.4499999999999731
0
LWPOLYLINE
5
153
100
AcDbEntity
8
0
100
AcDbPolyline
90
8
70
1
43
0.0
10
199.3874071547377
20
157.8255759584948
42
-0.99999999999999989
10
199.04712331744918
20
151.835233154441
10
195.41591870285009
20
152.04150519606762
42
-0.26596256268037677
10
194.58300735438849
20
152.58320453406179
42
0.57241556099400481
10
189.58975960838271
20
152.86684798471592
42
-0.26596256268037777
10
188.70086138925609
20
152.42295673315425
10
185.06965677465703
20
152.6292287747809
42
-0.99999999999999989
10
185.40994061194556
20
158.61957157883469
0
CIRCLE
5
154
100
AcDbEntity
8
0
100
AcDbCircle
10
170.68927750480739
20
190.00892842360443
30
0
40
1.4999999999999771
0
CIRCLE
5
155
100
AcDbEntity
8
0
100
AcDbCircle
10
170.68927750481208
20
152.00892842360528
30
0
40
1.4999999999999771
0
LWPOLYLINE
5
156
100
AcDbEntity
8
0
100
AcDbPolyline
90
6
70
1
43
0.0
10
160.68927750481163
20
157.00892842360386
10
160.68927750480813
20
185.00892842360321
42
-0.84783338900315053
10
180.15405690520024
20
188.23661349218045
10
184.49451738698315
20
175.36623715164995
42
-0.15406758962260225
10
184.49451738698428
20
166.65161969556334
10
180.1540569052045
20
153.78124335503168
42
-0.84783338900315108
0
CIRCLE
5
157
100
AcDbEntity
8
0
100
AcDbCircle
10
187.35574750334084
20
179.95017797216491
30
0
40
2.0000000000000089
0
CIRCLE
5
158
100
AcDbEntity
8
0
100
AcDbCircle
10
243.35574750334132
20
179.9501779721632
30
0
40
2.0000000000000089
0
LWPOLYLINE
5
159
100
AcDbEntity
8
0
100
AcDbPolyline
90
18
70
1
43
0.0
10
197.41483474180762
20
163.23636207762576
42
-0.24415668870720644
10
193.32606885458833
20
165.3622688516474
10
184.49176423799926
20
177.93831320140029
42
-0.32533902662038805
10
184.56052294691975
20
182.05653019322827
42
-0.43244592818855138
10
245.89406639987885
20
182.3599367110167
42
-0.35706075610204285
10
246.21973076868278
20
177.93831320139844
10
237.38542615209309
20
165.36226885164612
42
-0.24415668870721094
10
233.29666026487362
20
163.23636207762465
10
231.10584571172285
20
163.23520586300998
42
-0.4142423272348234
10
230.10574750334075
20
164.23520585818761
10
230.10574750334109
20
177.16526423036629
42
0.20490555801047103
10
226.54962164814324
20
188.26331834036625
42
0.21629169446411603
10
224.29632196180415
20
189.29800684888642
10
207.05850865580072
20
189.37467349864332
42
0.21499070566860548
10
204.80551455285891
20
188.37230759782381
42
0.1784923917285744
10
200.60574750334092
20
177.71506339072263
10
200.60574750334055
20
164.23520585818849
42
-0.41424232723483384
10
199.60564929495845
20
163.235205863011
0
CIRCLE
5
160
100
AcDbEntity
8
0
100
AcDbCircle
10
206.88817073612904
20
179.42494682201817
30
0
40
1.4499999999999913
0
CIRCLE
5
161
100
AcDbEntity
8
0
100
AcDbCircle
10
206.88817073612648
20
165.42494682201831
30
0
40
1.4499999999999913
0
LWPOLYLINE
5
162
100
AcDbEntity
8
0
100
AcDbPolyline
90
8
70
1
43
0.0
10
209.88817073612648
20
165.42494682201774
42
-0.99999999999999989
10
203.88817073612645
20
165.42494682201888
10
203.88817073612714
20
169.06200540117905
42
-0.26596256268036539
10
204.381760479717
20
169.92429807318916
42
0.57241556099402779
10
204.38176047971803
20
174.92559557084829
42
-0.26596256268037416
10
203.88817073612839
20
175.78788824285857
10
203.88817073612898
20
179.4249468220188
42
-0.99999999999999989
10
209.88817073612907
20
179.42494682201757
0
CIRCLE
5
163
100
AcDbEntity
8
0
100
AcDbCircle
10
214.0681289073332
20
179.0464618396922
30
0
40
1.4499999999999738
0
CIRCLE
5
164
100
AcDbEntity
8
0
100
AcDbCircle
10
214.06812890733266
20
165.04646183969274
30
0
40
1.4499999999999738
0
LWPOLYLINE
5
165
100
AcDbEntity
8
0
100
AcDbPolyline
90
8
70
1
43
0.0
10
217.06812890733264
20
165.04646183969265
42
-0.99999999999999989
10
211.06812890733269
20
165.04646183969285
10
211.06812890733283
20
168.68352041885288
42
-0.26596256268036073
10
211.56171865092256
20
169.54581309086305
42
0.57241556099401247
10
211.56171865092278
20
174.54711058852206
42
-0.26596256268037038
10
211.06812890733309
20
175.40940326053226
10
211.06812890733326
20
179.04646183969231
42
-0.99999999999999989
10
217.06812890733315
20
179.04646183969209
0
CIRCLE
5
166
100
AcDbEntity
8
0
100
AcDbCircle
10
221.05597746694121
20
178.86506591162981
30
0
40
1.4499999999999731
0
CIRCLE
5
167
100
AcDbEntity
8
0
100
AcDbCircle
10
221.05597746693917
20
164.86506591162998
30
0
40
1.4499999999999731
0
LWPOLYLINE
5
168
100
AcDbEntity
8
0
100
AcDbPolyline
90
8
70
1
43
0.0
10
224.05597746693914
20
164.8650659116295
42
-0.99999999999999989
10
218.0559774669392
20
164.8650659116305
10
218.05597746693968
20
168.50212449079061
42
-0.26596256268037954
10
218.54956721052957
20
169.36441716280075
42
0.57241556099399904
10
218.54956721053037
20
174.36571466045987
42
-0.26596256268037899
10
218.05597746694073
20
175.22800733247013
10
218.05597746694127
20
178.86506591163027
42
-0.99999999999999989
10
224.05597746694121
20
178.86506591162936
0
CIRCLE
5
169
100
AcDbEntity
8
0
100
AcDbCircle
10
170.4939869490286
20
223.26497368423423
30
0
40
2.4999999999999982
0
CIRCLE
5
170
100
AcDbEntity
8
0
100
AcDbCircle
10
227.58292482885255
20
252.26497368392569
30
0
40
2.0000000000000004
0
CIRCLE
5
171
100
AcDbEntity
8
0
100
AcDbCircle
10
210.99398694896223
20
207.76497368401536
30
0
40
1.9999999999999916
0
CIRCLE
5
172
100
AcDbEntity
8
0
100
AcDbCircle
10
163.4050490695177
20
252.26497368427255
30
0
40
2.0000000000000004
0
CIRCLE
5
173
100
AcDbEntity
8
0
100
AcDbCircle
10
225.49398694902828
20
223.264973683937
30
0
40
6.2249999999999996
0
CIRCLE
5
174
100
AcDbEntity
8
0
100
AcDbCircle
10
179.99398694912992
20
238.76497368418285
30
0
40
1.9999999999999916
0
CIRCLE
5
175
100
AcDbEntity
8
0
100
AcDbCircle
10
163.49398694895299
20
266.26469118333665
30
0
40
2.0000000000000004
0
CIRCLE
5
176
100
AcDbEntity
8
0
100
AcDbCircle
10
195.49398694902848
20
223.26497368409906
30
0
40
11.249999999999993
0
CIRCLE
5
177
100
AcDbEntity
8
0
100
AcDbCircle
10
227.49398694956852
20
266.26469118299076
30
0
40
2.0000000000000004
0
CIRCLE
5
178
100
AcDbEntity
8
0
100
AcDbCircle
10
210.99398694912969
20
238.76497368401533
30
0
40
1.9999999999999916
0
CIRCLE
5
179
100
AcDbEntity
8
0
100
AcDbCircle
10
179.99398694896246
20
207.76497368418285
30
0
40
1.9999999999999916
0
LWPOLYLINE
5
180
100
AcDbEntity
8
0
100
AcDbPolyline
90
44
70
1
43
0.0
10
225.49398694938264
20
271.26497367921536
42
-0.41421356237467877
10
230.49398694926066
20
266.26497367931029
10
230.49398694911477
20
239.26497368390955
42
0.1231056256176799
10
233.43516341963937
20
227.50026780154101
42
-0.24999999999999534
10
233.43516341959358
20
219.0296795662471
42
0.12310562561768469
10
230.49398694894182
20
207.26497368391
10
230.4939869489148
20
202.26497368389803
10
222.49398694892008
20
202.26497368392756
10
222.49398694893665
20
207.26497368392756
10
223.99398694893665
20
207.26497368392262
10
223.99398694894731
20
210.26497368392259
10
222.49398694894441
20
210.26497368392756
10
222.4939869489539
20
213.26497368392756
10
218.49398694895393
20
213.2649736839403
10
218.4939869489466
20
210.26497368394644
10
216.9939869489466
20
210.26497368395144
10
216.99398694893665
20
207.26497368394732
10
218.49398694893668
20
207.26497368394234
10
218.49398694891994
20
202.26497368394234
10
215.49398694891994
20
202.26497369762734
10
215.49398694889447
20
195.91497368388499
10
175.49398694889476
20
195.91497368410108
10
175.49398694891519
20
202.26497368410105
10
172.49398694891522
20
202.26497368392756
10
172.49398694891516
20
207.26497368393976
10
173.99398694891741
20
207.26497368393976
10
173.99398694891912
20
210.26497368392762
10
172.49398694891883
20
210.26497368392762
10
172.4939869489188
20
213.26497368392756
10
168.49398694891877
20
213.26497368392754
10
168.49398694891875
20
210.2649736839262
10
166.99398694891983
20
210.26497368392756
10
166.9939869489192
20
207.26497368392756
10
168.49398694891917
20
207.26497368392756
10
168.49398694891522
20
202.26497368392756
10
160.49398694891528
20
202.26497367921525
10
160.49398694891443
20
266.26497053602816
42
-0.4142135623730992
10
165.49399009210231
20
271.26497367921593
10
175.74398694867111
20
271.26497367921525
42
-0.41421356237309298
10
180.74398694891505
20
266.26497367897127
10
180.74398694891511
20
259.26497368409917
42
0.99999999999999989
10
210.24398694891485
20
259.26497368409917
10
210.24398694891482
20
266.26497367922286
42
-0.41421356237309298
10
215.24398694890715
20
271.26497367921525
0
ENDSEC
0
SECTION
2
OBJECTS
0
DICTIONARY
5
C
100
AcDbDictionary
3
ACAD_GROUP
350
D
3
ACAD_MLINESTYLE
350
17
0
DICTIONARY
5
D
100
AcDbDictionary
0
DICTIONARY
5
1A
330
C
100
AcDbDictionary
0
DICTIONARY
5
17
100
AcDbDictionary
0
ENDSEC
0
EOF
