0
SECTION
2
HEADER
9
$INSUNITS
70
4
9
$ACADVER
1
AC1014
9
$HANDSEED
5
FFFF
0
ENDSEC
0
SECTION
2
TABLES
0
TABLE
2
VPORT
5
8
100
AcDbSymbolTable
0
ENDTAB
0
TABLE
2
LTYPE
5
5
100
AcDbSymbolTable
0
LTYPE
5
14
100
AcDbSymbolTableRecord
100
AcDbLinetypeTableRecord
2
BYBLOCK
70
0
0
LTYPE
5
15
100
AcDbSymbolTableRecord
100
AcDbLinetypeTableRecord
2
BYLAYER
70
0
0
ENDTAB
0
TABLE
2
LAYER
5
2
100
AcDbSymbolTable
70
2
0
LAYER
5
50
100
AcDbSymbolTableRecord
100
AcDbLayerTableRecord
2
0
70
0
6
CONTINUOUS
0
ENDTAB
0
TABLE
2
STYLE
5
3
100
AcDbSymbolTable
70
1
0
STYLE
5
11
100
AcDbSymbolTableRecord
100
AcDbTextStyleTableRecord
2
STANDARD
70
0
0
ENDTAB
0
TABLE
2
VIEW
5
6
100
AcDbSymbolTable
70
0
0
ENDTAB
0
TABLE
2
UCS
5
7
100
AcDbSymbolTable
70
0
0
ENDTAB
0
TABLE
2
APPID
5
9
100
AcDbSymbolTable
70
2
0
APPID
5
12
100
AcDbSymbolTableRecord
100
AcDbRegAppTableRecord
2
ACAD
70
0
0
ENDTAB
0
TABLE
2
DIMSTYLE
5
A
100
AcDbSymbolTable
70
1
0
ENDTAB
0
TABLE
2
BLOCK_RECORD
5
1
100
AcDbSymbolTable
70
1
0
BLOCK_RECORD
5
1F
100
AcDbSymbolTableRecord
100
AcDbBlockTableRecord
2
*MODEL_SPACE
0
BLOCK_RECORD
5
1B
100
AcDbSymbolTableRecord
100
AcDbBlockTableRecord
2
*PAPER_SPACE
0
ENDTAB
0
ENDSEC
0
SECTION
2
BLOCKS
0
BLOCK
5
20
100
AcDbEntity
100
AcDbBlockBegin
2
*MODEL_SPACE
0
ENDBLK
5
21
100
AcDbEntity
100
AcDbBlockEnd
0
BLOCK
5
1C
100
AcDbEntity
100
AcDbBlockBegin
2
*PAPER_SPACE
0
ENDBLK
5
1D
100
AcDbEntity
100
AcDbBlockEnd
0
ENDSEC
0
SECTION
2
ENTITIES
0
CIRCLE
5
100
100
AcDbEntity
8
0
100
AcDbCircle
10
321.80679989994678
20
-239.90637528324476
30
0
40
1.5874999999999773
210
0
220
-0
230
1
0
CIRCLE
5
101
100
AcDbEntity
8
0
100
AcDbCircle
10
269.80679989994678
20
-264.90637528324476
30
0
40
1.5875000000000126
210
0
220
-0
230
1
0
CIRCLE
5
102
100
AcDbEntity
8
0
100
AcDbCircle
10
291.70679989995301
20
-182.55637614189197
30
0
40
1.5875000000000126
210
0
220
-0
230
1
0
CIRCLE
5
103
100
AcDbEntity
8
0
100
AcDbCircle
10
269.80679989994684
20
-239.90637528324476
30
0
40
1.5875000000000126
210
0
220
-0
230
1
0
CIRCLE
5
104
100
AcDbEntity
8
0
100
AcDbCircle
10
321.80679989994678
20
-264.90637528324476
30
0
40
1.5874999999999773
210
0
220
-0
230
1
0
CIRCLE
5
105
100
AcDbEntity
8
0
100
AcDbCircle
10
291.70679989995301
20
-40.556376172393328
30
0
40
1.5875000000000126
210
0
220
-0
230
1
0
LINE
5
106
100
AcDbEntity
8
0
100
AcDbLine
10
312.80679989995326
20
-23.906375283244738
30
0
11
293.80506790487459
21
-23.906375283244756
31
0
0
LINE
5
107
100
AcDbEntity
8
0
100
AcDbLine
10
278.80679989995315
20
-23.90637528324477
30
0
11
278.80679989995309
21
-14.906375283244749
31
0
0
LINE
5
108
100
AcDbEntity
8
0
100
AcDbLine
10
312.80679989995315
20
-14.906375283244753
30
0
11
312.80679989995326
21
-23.906375283244738
31
0
0
LINE
5
109
100
AcDbEntity
8
0
100
AcDbLine
10
315.80679964235276
20
-201.9063752832449
30
0
11
315.80679989994684
21
-213.90637528324478
31
0
0
LINE
5
110
100
AcDbEntity
8
0
100
AcDbLine
10
315.80679989994684
20
-213.90637528324478
30
0
11
275.80679989994684
21
-213.90637614189194
31
0
0
LINE
5
111
100
AcDbEntity
8
0
100
AcDbLine
10
275.80679989994684
20
-213.90637614189194
30
0
11
275.80679964235276
21
-201.90637614189203
31
0
0
LINE
5
112
100
AcDbEntity
8
0
100
AcDbLine
10
293.80679992141927
20
-201.90637575550082
30
0
11
315.80679964235276
21
-201.9063752832449
31
0
0
LINE
5
113
100
AcDbEntity
8
0
100
AcDbLine
10
209.95479989994664
20
-273.90637528324476
30
0
11
326.8067998999469
21
-273.90637528324476
31
0
0
LINE
5
114
100
AcDbEntity
8
0
100
AcDbLine
10
326.8067998999469
20
-273.90637528324476
30
0
11
326.80679989994672
21
-13.906375283244756
31
0
0
LINE
5
115
100
AcDbEntity
8
0
100
AcDbLine
10
277.80679989995309
20
-13.906375283244749
30
0
11
264.80679989994684
21
-13.906375283244756
31
0
0
CIRCLE
5
116
100
AcDbEntity
8
0
100
AcDbCircle
10
270.80679989994684
20
-207.90637614189194
30
0
40
1.5875000000000126
210
0
220
-0
230
1
0
CIRCLE
5
117
100
AcDbEntity
8
0
100
AcDbCircle
10
320.80679989994684
20
-207.90637528324476
30
0
40
1.5874999999999773
210
0
220
-0
230
1
0
CIRCLE
5
118
100
AcDbEntity
8
0
100
AcDbCircle
10
320.80679989995315
20
-18.906375283244738
30
0
40
1.5874999999999773
210
0
220
-0
230
1
0
CIRCLE
5
119
100
AcDbEntity
8
0
100
AcDbCircle
10
270.80679989995315
20
-18.90637528324477
30
0
40
1.5875000000000126
210
0
220
-0
230
1
0
LINE
5
120
100
AcDbEntity
8
0
100
AcDbLine
10
264.80679989994684
20
-13.906375283244756
30
0
11
264.80679989994684
21
-223.55637528324476
31
0
0
ARC
5
121
100
AcDbEntity
8
0
100
AcDbCircle
10
260.80679989994684
20
-237.64637528324477
30
0
40
3.9999999999999858
210
0
220
0
230
1
100
AcDbArc
50
270.0000000000008
51
360
0
LINE
5
122
100
AcDbEntity
8
0
100
AcDbLine
10
260.8067998999469
20
-241.64637528324477
30
0
11
209.95479989994678
21
-241.64637528324477
31
0
0
ARC
5
123
100
AcDbEntity
8
0
100
AcDbCircle
10
209.95479989994669
20
-243.64637528324471
30
0
40
1.9999999999999574
210
0
220
-0
230
1
100
AcDbArc
50
89.999999999997556
51
180
0
LINE
5
124
100
AcDbEntity
8
0
100
AcDbLine
10
207.95479989994675
20
-243.64637528324479
30
0
11
207.95479989994675
21
-271.90637528324487
31
0
0
ARC
5
125
100
AcDbEntity
8
0
100
AcDbCircle
10
209.95479989994661
20
-271.90637528324493
30
0
40
1.9999999999998508
210
0
220
0
230
1
100
AcDbArc
50
180
51
270.0000000000008
0
CIRCLE
5
126
100
AcDbEntity
8
0
100
AcDbCircle
10
283.40679989995306
20
-182.55637614189197
30
0
40
1.25
210
0
220
-0
230
1
0
CIRCLE
5
127
100
AcDbEntity
8
0
100
AcDbCircle
10
283.40679989995306
20
-40.556376172393328
30
0
40
1.25
210
0
220
-0
230
1
0
ARC
5
128
100
AcDbEntity
8
0
100
AcDbCircle
10
269.80679989994678
20
-227.30637528324476
30
0
40
2.7499999999999858
210
0
220
0
230
1
100
AcDbArc
50
-90
51
90
0
LINE
5
129
100
AcDbEntity
8
0
100
AcDbLine
10
269.80679989994678
20
-230.05637528324473
30
0
11
265.80679989994684
21
-230.05637528324473
31
0
0
LINE
5
130
100
AcDbEntity
8
0
100
AcDbLine
10
265.80679989994684
20
-224.55637528324476
30
0
11
269.80679989994678
21
-224.55637528324476
31
0
0
CIRCLE
5
131
100
AcDbEntity
8
0
100
AcDbCircle
10
211.65479989994677
20
-251.79437528324479
30
0
40
1.25
210
0
220
-0
230
1
0
ARC
5
132
100
AcDbEntity
8
0
100
AcDbCircle
10
290.80679989995878
20
-199.9063758198993
30
0
40
2.0000000000000284
210
0
220
0
230
1
100
AcDbArc
50
0
51
180
0
LINE
5
133
100
AcDbEntity
8
0
100
AcDbLine
10
292.80679989995878
20
-199.9063758198993
30
0
11
292.80679989995303
21
-200.90637575550079
31
0
0
LINE
5
134
100
AcDbEntity
8
0
100
AcDbLine
10
288.80679989995303
20
-200.90637588429786
30
0
11
288.80679989995303
21
-199.90637581989927
31
0
0
ARC
5
135
100
AcDbEntity
8
0
100
AcDbCircle
10
290.80679989995303
20
-25.906375283244753
30
0
40
1.9999999999999929
210
0
220
0
230
1
100
AcDbArc
50
-180
51
2.384664605369391
0
LINE
5
136
100
AcDbEntity
8
0
100
AcDbLine
10
288.80679989995303
20
-25.906375283244749
30
0
11
288.80679989995303
21
-24.906375283244763
31
0
0
LINE
5
137
100
AcDbEntity
8
0
100
AcDbLine
10
292.80506790487459
20
-24.906375283244756
30
0
11
292.80506790487459
21
-25.823158815482117
31
0
0
ARC
5
138
100
AcDbEntity
8
0
100
AcDbCircle
10
287.80679989995298
20
-200.90637588429786
30
0
40
1.0000000000000144
210
0
220
0
230
1
100
AcDbArc
50
-89.999998770078591
51
0
0
ARC
5
139
100
AcDbEntity
8
0
100
AcDbCircle
10
293.80679989995315
20
-200.90637575550073
30
0
40
1.0000000000000853
210
0
220
0
230
1
100
AcDbArc
50
180
51
270.00000122991815
0
LINE
5
140
100
AcDbEntity
8
0
100
AcDbLine
10
275.80679964235276
20
-201.90637614189203
30
0
11
287.80679992141916
21
-201.90637588429786
31
0
0
ARC
5
141
100
AcDbEntity
8
0
100
AcDbCircle
10
313.80679989995321
20
-14.906375283244788
30
0
40
1.0000000000000431
210
0
220
0
230
1
100
AcDbArc
50
90
51
180
0
ARC
5
142
100
AcDbEntity
8
0
100
AcDbCircle
10
293.80506790487459
20
-24.906375283244756
30
0
40
1.0000000000000009
210
0
220
-0
230
1
100
AcDbArc
50
90
51
180
0
ARC
5
143
100
AcDbEntity
8
0
100
AcDbCircle
10
287.80679989995298
20
-24.906375283244806
30
0
40
1.0000000000000497
210
0
220
-0
230
1
100
AcDbArc
50
0
51
89.999999999996746
0
LINE
5
144
100
AcDbEntity
8
0
100
AcDbLine
10
287.80679989995303
20
-23.906375283244756
30
0
11
278.80679989995315
21
-23.90637528324477
31
0
0
ARC
5
145
100
AcDbEntity
8
0
100
AcDbCircle
10
277.80679989995303
20
-14.906375283244785
30
0
40
1.0000000000000497
210
0
220
-0
230
1
100
AcDbArc
50
0
51
89.999999999996746
0
ARC
5
146
100
AcDbEntity
8
0
100
AcDbCircle
10
265.8067998999469
20
-223.55637528324473
30
0
40
1.0000000000000497
210
0
220
0
230
1
100
AcDbArc
50
180
51
269.99999999999676
0
ARC
5
147
100
AcDbEntity
8
0
100
AcDbCircle
10
265.8067998999469
20
-231.05637528324479
30
0
40
1.0000000000000497
210
0
220
0
230
1
100
AcDbArc
50
90.000000000003254
51
180
0
LINE
5
148
100
AcDbEntity
8
0
100
AcDbLine
10
264.80679989994684
20
-231.05637528324476
30
0
11
264.80679989994684
21
-237.64637528324482
31
0
0
LINE
5
149
100
AcDbEntity
8
0
100
AcDbLine
10
326.80679989994672
20
-13.906375283244756
30
0
11
313.80679989995321
21
-13.906375283244746
31
0
0
ENDSEC
0
SECTION
2
OBJECTS
0
DICTIONARY
5
C
100
AcDbDictionary
3
ACAD_GROUP
350
D
3
ACAD_MLINESTYLE
350
17
0
DICTIONARY
5
D
100
AcDbDictionary
0
DICTIONARY
5
1A
330
C
100
AcDbDictionary
0
DICTIONARY
5
17
100
AcDbDictionary
0
ENDSEC
0
EOF
